solid 2.5mmSpacing
facet normal -0.7933533395008876 0.608761428772139 3.926949664514879e-05
  outer loop
    vertex 29.13136754189077 3.8687670163995733 -0.012627454928918648
    vertex 29.385707203898907 4.200068000476953 2.4819245382228785
    vertex 29.385637338208507 4.200137866167386 -0.012625295533958714
  endloop
endfacet
facet normal -0.7933533395008876 0.608761428772139 3.926949664514879e-05
  outer loop
    vertex 29.385707203898907 4.200068000476953 2.4819245382228785
    vertex 29.13136754189077 3.8687670163995733 -0.012627454928918648
    vertex 29.13143740758117 3.8686971507091403 2.481922378827918
  endloop
endfacet
facet normal -0.9238795318477062 0.3826834322175322 3.659334534654495e-05
  outer loop
    vertex 29.545478014456975 4.586027393851565 -0.012618964508269985
    vertex 29.385707203898907 4.200068000476953 2.4819245382228785
    vertex 29.545547880147385 4.585957528161132 2.4819308692485667
  endloop
endfacet
facet normal -0.9238795318477062 0.3826834322175322 3.659334534654495e-05
  outer loop
    vertex 29.385707203898907 4.200068000476953 2.4819245382228785
    vertex 29.545478014456975 4.586027393851565 -0.012618964508269985
    vertex 29.385637338208507 4.200137866167386 -0.012625295533958714
  endloop
endfacet
facet normal -0.7933533404592613 -0.6087614287677917 5.169927319937966e-06
  outer loop
    vertex 29.131367543671907 6.131508715309058 -0.012564081566401817
    vertex 29.38570720515836 5.800067999849427 2.48196934995726
    vertex 29.131437409362306 6.131438849618632 2.481985752190435
  endloop
endfacet
facet normal -0.7933533404592613 -0.6087614287677917 5.169927319937966e-06
  outer loop
    vertex 29.38570720515836 5.800067999849427 2.48196934995726
    vertex 29.131367543671907 6.131508715309058 -0.012564081566401817
    vertex 29.385637339467955 5.80013786553986 -0.012580483799576653
  endloop
endfacet
facet normal -0.6087614293944625 -0.7933533399784 -5.169927302484801e-06
  outer loop
    vertex 29.131367543671907 6.131508715309058 -0.012564081566401817
    vertex 28.800066559793944 6.385708645676465 2.48200215442361
    vertex 28.79999669410354 6.385778511366888 -0.0125476793332262
  endloop
endfacet
facet normal -0.6087614293944625 -0.7933533399784 -5.169927302484801e-06
  outer loop
    vertex 28.800066559793944 6.385708645676465 2.48200215442361
    vertex 29.131367543671907 6.131508715309058 -0.012564081566401817
    vertex 29.131437409362306 6.131438849618632 2.481985752190435
  endloop
endfacet
facet normal -0.3826834329422335 -0.9238795321478871 -1.5157459923274332e-05
  outer loop
    vertex 28.79999669410354 6.385778511366888 -0.0125476793332262
    vertex 28.41417703223515 6.545549321622224 2.482017438871702
    vertex 28.414107166544742 6.545619187312646 -0.012532394885134437
  endloop
endfacet
facet normal -0.3826834329422335 -0.9238795321478871 -1.5157459923274332e-05
  outer loop
    vertex 28.41417703223515 6.545549321622224 2.482017438871702
    vertex 28.79999669410354 6.385778511366888 -0.0125476793332262
    vertex 28.800066559793944 6.385708645676465 2.48200215442361
  endloop
endfacet
facet normal -0.13052619294928772 -0.9914448609846013 -2.4112036701207058e-05
  outer loop
    vertex 28.41417703223515 6.545549321622224 2.482017438871702
    vertex 27.999996694586045 6.600137865229913 -0.012519269832005568
    vertex 28.414107166544742 6.545619187312646 -0.012532394885134437
  endloop
endfacet
facet normal -0.13052619294928772 -0.9914448609846013 -2.4112036701207058e-05
  outer loop
    vertex 27.999996694586045 6.600137865229913 -0.012519269832005568
    vertex 28.41417703223515 6.545549321622224 2.482017438871702
    vertex 28.000066560276448 6.600067999539483 2.482030563924831
  endloop
endfacet
facet normal 0.13052619138843743 -0.9914448609853187 -3.1423418023929884e-05
  outer loop
    vertex 28.000066560276448 6.600067999539483 2.482030563924831
    vertex 27.585886222541504 6.545619187314939 -0.012509198624519813
    vertex 27.999996694586045 6.600137865229913 -0.012519269832005568
  endloop
endfacet
facet normal 0.13052619138843743 -0.9914448609853187 -3.1423418023929884e-05
  outer loop
    vertex 27.585886222541504 6.545619187314939 -0.012509198624519813
    vertex 28.000066560276448 6.600067999539483 2.482030563924831
    vertex 27.58595608823191 6.545549321624517 2.4820406351323174
  endloop
endfacet
facet normal -0.9238795324501735 -0.38268343221244955 1.5157459940576596e-05
  outer loop
    vertex 29.545478015108923 5.414248337854796 -0.012595768247665447
    vertex 29.38570720515836 5.800067999849427 2.48196934995726
    vertex 29.385637339467955 5.80013786553986 -0.012580483799576653
  endloop
endfacet
facet normal -0.9238795324501735 -0.38268343221244955 1.5157459940576596e-05
  outer loop
    vertex 29.38570720515836 5.800067999849427 2.48196934995726
    vertex 29.545478015108923 5.414248337854796 -0.012595768247665447
    vertex 29.54554788079933 5.414178472164363 2.481954065509171
  endloop
endfacet
facet normal 0.6087614281454663 -0.7933533399817506 -3.9269496641491014e-05
  outer loop
    vertex 27.20006656042147 6.385708645680837 2.482046966158013
    vertex 26.86862584476241 6.1315087153152845 -0.012500708203856615
    vertex 27.199996694731066 6.385778511371264 -0.012502867598823837
  endloop
endfacet
facet normal 0.6087614281454663 -0.7933533399817506 -3.9269496641491014e-05
  outer loop
    vertex 26.86862584476241 6.1315087153152845 -0.012500708203856615
    vertex 27.20006656042147 6.385708645680837 2.482046966158013
    vertex 26.86869571045281 6.1314388496248515 2.4820491255529804
  endloop
endfacet
facet normal -0.9914448608822153 0.13052619217158634 3.142341803593937e-05
  outer loop
    vertex 29.545478014456975 4.586027393851565 -0.012618964508269985
    vertex 29.60006655838946 5.000068000162615 2.4819409404560466
    vertex 29.599996692699065 5.000137865853048 -0.012608893300789995
  endloop
endfacet
facet normal -0.9914448608822153 0.13052619217158634 3.142341803593937e-05
  outer loop
    vertex 29.60006655838946 5.000068000162615 2.4819409404560466
    vertex 29.545478014456975 4.586027393851565 -0.012618964508269985
    vertex 29.545547880147385 4.585957528161132 2.4819308692485667
  endloop
endfacet
facet normal 0.3826834314877649 -0.9238795321499857 -3.659334533797485e-05
  outer loop
    vertex 27.58595608823191 6.545549321624517 2.4820406351323174
    vertex 27.199996694731066 6.385778511371264 -0.012502867598823837
    vertex 27.585886222541504 6.545619187314939 -0.012509198624519813
  endloop
endfacet
facet normal 0.3826834314877649 -0.9238795321499857 -3.659334533797485e-05
  outer loop
    vertex 27.199996694731066 6.385778511371264 -0.012502867598823837
    vertex 27.58595608823191 6.545549321624517 2.4820406351323174
    vertex 27.20006656042147 6.385708645680837 2.482046966158013
  endloop
endfacet
facet normal -0.9914448610877045 -0.13052619216613973 2.411203671583985e-05
  outer loop
    vertex 29.599996692699065 5.000137865853048 -0.012608893300789995
    vertex 29.54554788079933 5.414178472164363 2.481954065509171
    vertex 29.545478015108923 5.414248337854796 -0.012595768247665447
  endloop
endfacet
facet normal -0.9914448610877045 -0.13052619216613973 2.411203671583985e-05
  outer loop
    vertex 29.54554788079933 5.414178472164363 2.481954065509171
    vertex 29.599996692699065 5.000137865853048 -0.012608893300789995
    vertex 29.60006655838946 5.000068000162615 2.4819409404560466
  endloop
endfacet
facet normal 7.816638891918285e-10 -0.9999999996077946 2.8007334030851188e-05
  outer loop
    vertex 34.00006541989293 6.798642332397353e-05 2.481957744888995
    vertex 21.99999588490978 -1.553233377726837e-06 -0.0006161612601441246
    vertex 33.9999958802034 -1.5532663290351855e-06 -0.0009522492681602267
  endloop
endfacet
facet normal 7.816638891918285e-10 -0.9999999996077946 2.8007334030851188e-05
  outer loop
    vertex 21.99999588490978 -1.553233377726837e-06 -0.0006161612601441246
    vertex 34.00006541989293 6.798642332397353e-05 2.481957744888995
    vertex 22.00006542459931 6.798645627951182e-05 2.48229383289701
  endloop
endfacet
facet normal 0.9238795318477013 -0.38268343221754364 -3.659334534654691e-05
  outer loop
    vertex 26.454585237886594 5.4141784721728605 2.482040635132331
    vertex 26.614356048444673 5.800137865547478 -0.012502867598816544
    vertex 26.61442591413507 5.800067999857045 2.4820469661580202
  endloop
endfacet
facet normal 0.9238795318477013 -0.38268343221754364 -3.659334534654691e-05
  outer loop
    vertex 26.614356048444673 5.800137865547478 -0.012502867598816544
    vertex 26.454585237886594 5.4141784721728605 2.482040635132331
    vertex 26.454515372196195 5.4142483378632935 -0.012509198624505278
  endloop
endfacet
facet normal 0.9914448610877056 0.13052619216613312 -2.4112036715840077e-05
  outer loop
    vertex 26.454585237234657 4.585957528169629 2.482017438871727
    vertex 26.399996693954122 5.00013786586182 -0.012519269831985267
    vertex 26.400066559644518 5.000068000171388 2.4820305639248517
  endloop
endfacet
facet normal 0.9914448610877056 0.13052619216613312 -2.4112036715840077e-05
  outer loop
    vertex 26.399996693954122 5.00013786586182 -0.012519269831985267
    vertex 26.454585237234657 4.585957528169629 2.482017438871727
    vertex 26.454515371544254 4.586027393860062 -0.012532394885109816
  endloop
endfacet
facet normal -0.13052619138844518 0.9914448609853176 3.142341802729312e-05
  outer loop
    vertex 27.999996692067143 3.400137866484968 -0.012608893300769695
    vertex 28.41417702980207 3.4545866787094948 2.4819308692485813
    vertex 28.414107164111666 3.4546565443999264 -0.012618964508255448
  endloop
endfacet
facet normal -0.13052619138844518 0.9914448609853176 3.142341802729312e-05
  outer loop
    vertex 28.41417702980207 3.4545866787094948 2.4819308692485813
    vertex 27.999996692067143 3.400137866484968 -0.012608893300769695
    vertex 28.000066557757542 3.400068000794535 2.481940940456067
  endloop
endfacet
facet normal 0.38268343294223583 0.923879532147886 1.5157459927454217e-05
  outer loop
    vertex 27.19999669254964 3.614497220347979 -0.012580483799549059
    vertex 27.585956085798827 3.4545866787117876 2.481954065509196
    vertex 27.585886220108428 3.4546565444022206 -0.01259576824764083
  endloop
endfacet
facet normal 0.38268343294223583 0.923879532147886 1.5157459927454217e-05
  outer loop
    vertex 27.585956085798827 3.4545866787117876 2.481954065509196
    vertex 27.19999669254964 3.614497220347979 -0.012580483799549059
    vertex 27.200066558240035 3.614427354657546 2.4819693499572875
  endloop
endfacet
facet normal 0.13052619294929238 0.9914448609846006 2.4112036704569074e-05
  outer loop
    vertex 27.585956085798827 3.4545866787117876 2.481954065509196
    vertex 27.999996692067143 3.400137866484968 -0.012608893300769695
    vertex 27.585886220108428 3.4546565444022206 -0.01259576824764083
  endloop
endfacet
facet normal 0.13052619294929238 0.9914448609846006 2.4112036704569074e-05
  outer loop
    vertex 27.999996692067143 3.400137866484968 -0.012608893300769695
    vertex 27.585956085798827 3.4545866787117876 2.481954065509196
    vertex 28.000066557757542 3.400068000794535 2.481940940456067
  endloop
endfacet
facet normal 0.7933533395008867 -0.6087614287721402 -3.9269496644456625e-05
  outer loop
    vertex 26.61442591413507 5.800067999857045 2.4820469661580202
    vertex 26.86862584476241 6.1315087153152845 -0.012500708203856615
    vertex 26.86869571045281 6.1314388496248515 2.4820491255529804
  endloop
endfacet
facet normal 0.7933533395008867 -0.6087614287721402 -3.9269496644456625e-05
  outer loop
    vertex 26.86862584476241 6.1315087153152845 -0.012500708203856615
    vertex 26.61442591413507 5.800067999857045 2.4820469661580202
    vertex 26.614356048444673 5.800137865547478 -0.012502867598816544
  endloop
endfacet
facet normal 0.7933533404592704 0.6087614287677798 -5.169927319258419e-06
  outer loop
    vertex 26.868695708671684 3.868697150715361 2.4819857521904636
    vertex 26.614356047185222 4.20013786617501 -0.01254767933319861
    vertex 26.614425912875614 4.200068000484577 2.4820021544236375
  endloop
endfacet
facet normal 0.7933533404592704 0.6087614287677798 -5.169927319258419e-06
  outer loop
    vertex 26.614356047185222 4.20013786617501 -0.01254767933319861
    vertex 26.868695708671684 3.868697150715361 2.4819857521904636
    vertex 26.86862584298128 3.8687670164057932 -0.012564081566373446
  endloop
endfacet
facet normal -0.6087614281454663 0.7933533399817506 3.9269496643283505e-05
  outer loop
    vertex 28.79999669192211 3.614497220343601 -0.012625295533951421
    vertex 29.13143740758117 3.8686971507091403 2.481922378827918
    vertex 29.13136754189077 3.8687670163995733 -0.012627454928918648
  endloop
endfacet
facet normal -0.6087614281454663 0.7933533399817506 3.9269496643283505e-05
  outer loop
    vertex 29.13143740758117 3.8686971507091403 2.481922378827918
    vertex 28.79999669192211 3.614497220343601 -0.012625295533951421
    vertex 28.800066557612514 3.6144273546531682 2.481924538222885
  endloop
endfacet
facet normal 0.9914448608822162 -0.1305261921715797 -3.1423418035940595e-05
  outer loop
    vertex 26.400066559644518 5.000068000171388 2.4820305639248517
    vertex 26.454515372196195 5.4142483378632935 -0.012509198624505278
    vertex 26.454585237886594 5.4141784721728605 2.482040635132331
  endloop
endfacet
facet normal 0.9914448608822162 -0.1305261921715797 -3.1423418035940595e-05
  outer loop
    vertex 26.454515372196195 5.4142483378632935 -0.012509198624505278
    vertex 26.400066559644518 5.000068000171388 2.4820305639248517
    vertex 26.399996693954122 5.00013786586182 -0.012519269831985267
  endloop
endfacet
facet normal -0.38268343148775913 0.923879532149988 3.659334534110844e-05
  outer loop
    vertex 28.414107164111666 3.4546565443999264 -0.012618964508255448
    vertex 28.800066557612514 3.6144273546531682 2.481924538222885
    vertex 28.79999669192211 3.614497220343601 -0.012625295533951421
  endloop
endfacet
facet normal -0.38268343148775913 0.923879532149988 3.659334534110844e-05
  outer loop
    vertex 28.800066557612514 3.6144273546531682 2.481924538222885
    vertex 28.414107164111666 3.4546565443999264 -0.012618964508255448
    vertex 28.41417702980207 3.4545866787094948 2.4819308692485813
  endloop
endfacet
facet normal 0.6087614293944583 0.7933533399784032 5.16992730517063e-06
  outer loop
    vertex 26.868695708671684 3.868697150715361 2.4819857521904636
    vertex 27.19999669254964 3.614497220347979 -0.012580483799549059
    vertex 26.86862584298128 3.8687670164057932 -0.012564081566373446
  endloop
endfacet
facet normal 0.6087614293944583 0.7933533399784032 5.16992730517063e-06
  outer loop
    vertex 27.19999669254964 3.614497220347979 -0.012580483799549059
    vertex 26.868695708671684 3.868697150715361 2.4819857521904636
    vertex 27.200066558240035 3.614427354657546 2.4819693499572875
  endloop
endfacet
facet normal 0.9238795324501666 0.3826834322124657 -1.515745994057595e-05
  outer loop
    vertex 26.614425912875614 4.200068000484577 2.4820021544236375
    vertex 26.454515371544254 4.586027393860062 -0.012532394885109816
    vertex 26.454585237234657 4.585957528169629 2.482017438871727
  endloop
endfacet
facet normal 0.9238795324501666 0.3826834322124657 -1.515745994057595e-05
  outer loop
    vertex 26.454515371544254 4.586027393860062 -0.012532394885109816
    vertex 26.614425912875614 4.200068000484577 2.4820021544236375
    vertex 26.614356047185222 4.20013786617501 -0.01254767933319861
  endloop
endfacet
facet normal 3.384219524864212e-05 7.001832706338151e-06 0.9999999994028401
  outer loop
    vertex 34.000066740657175 10.0000679707351 2.4818177081819672
    vertex 29.131437409362306 6.131438849618632 2.481985752190435
    vertex 34.00006541989293 6.798642332397353e-05 2.481957744888995
  endloop
endfacet
facet normal 3.384219524864212e-05 7.001832706338151e-06 0.9999999994028401
  outer loop
    vertex 29.131437409362306 6.131438849618632 2.481985752190435
    vertex 34.000066740657175 10.0000679707351 2.4818177081819672
    vertex 28.800066559793944 6.385708645676465 2.48200215442361
  endloop
endfacet
facet normal 3.384219524864212e-05 7.001832706338151e-06 0.9999999994028401
  outer loop
    vertex 28.800066559793944 6.385708645676465 2.48200215442361
    vertex 34.000066740657175 10.0000679707351 2.4818177081819672
    vertex 22.000066836894412 10.000067974690133 2.4822938328574717
  endloop
endfacet
facet normal 3.384219524864212e-05 7.001832706338151e-06 0.9999999994028401
  outer loop
    vertex 34.00006541989293 6.798642332397353e-05 2.481957744888995
    vertex 29.131437409362306 6.131438849618632 2.481985752190435
    vertex 29.38570720515836 5.800067999849427 2.48196934995726
  endloop
endfacet
facet normal 3.384219524864212e-05 7.001832706338151e-06 0.9999999994028401
  outer loop
    vertex 34.00006541989293 6.798642332397353e-05 2.481957744888995
    vertex 29.38570720515836 5.800067999849427 2.48196934995726
    vertex 29.54554788079933 5.414178472164363 2.481954065509171
  endloop
endfacet
facet normal 3.384219524864212e-05 7.001832706338151e-06 0.9999999994028401
  outer loop
    vertex 34.00006541989293 6.798642332397353e-05 2.481957744888995
    vertex 29.54554788079933 5.414178472164363 2.481954065509171
    vertex 29.60006655838946 5.000068000162615 2.4819409404560466
  endloop
endfacet
facet normal 3.384219524864212e-05 7.001832706338151e-06 0.9999999994028401
  outer loop
    vertex 28.800066559793944 6.385708645676465 2.48200215442361
    vertex 22.000066836894412 10.000067974690133 2.4822938328574717
    vertex 28.41417703223515 6.545549321622224 2.482017438871702
  endloop
endfacet
facet normal 3.384219524864212e-05 7.001832706338151e-06 0.9999999994028401
  outer loop
    vertex 28.41417703223515 6.545549321622224 2.482017438871702
    vertex 22.000066836894412 10.000067974690133 2.4822938328574717
    vertex 28.000066560276448 6.600067999539483 2.482030563924831
  endloop
endfacet
facet normal 3.384219524864212e-05 7.001832706338151e-06 0.9999999994028401
  outer loop
    vertex 28.000066560276448 6.600067999539483 2.482030563924831
    vertex 22.000066836894412 10.000067974690133 2.4822938328574717
    vertex 27.58595608823191 6.545549321624517 2.4820406351323174
  endloop
endfacet
facet normal 3.384219524864212e-05 7.001832706338151e-06 0.9999999994028401
  outer loop
    vertex 27.58595608823191 6.545549321624517 2.4820406351323174
    vertex 22.000066836894412 10.000067974690133 2.4822938328574717
    vertex 27.20006656042147 6.385708645680837 2.482046966158013
  endloop
endfacet
facet normal 3.384219524864212e-05 7.001832706338151e-06 0.9999999994028401
  outer loop
    vertex 27.20006656042147 6.385708645680837 2.482046966158013
    vertex 22.000066836894412 10.000067974690133 2.4822938328574717
    vertex 26.86869571045281 6.1314388496248515 2.4820491255529804
  endloop
endfacet
facet normal 3.384219524864212e-05 7.001832706338151e-06 0.9999999994028401
  outer loop
    vertex 26.86869571045281 6.1314388496248515 2.4820491255529804
    vertex 22.000066836894412 10.000067974690133 2.4822938328574717
    vertex 26.61442591413507 5.800067999857045 2.4820469661580202
  endloop
endfacet
facet normal 3.384219524864212e-05 7.001832706338151e-06 0.9999999994028401
  outer loop
    vertex 26.61442591413507 5.800067999857045 2.4820469661580202
    vertex 22.000066836894412 10.000067974690133 2.4822938328574717
    vertex 26.454585237886594 5.4141784721728605 2.482040635132331
  endloop
endfacet
facet normal 3.384219524864212e-05 7.001832706338151e-06 0.9999999994028401
  outer loop
    vertex 26.454585237886594 5.4141784721728605 2.482040635132331
    vertex 22.000066836894412 10.000067974690133 2.4822938328574717
    vertex 26.400066559644518 5.000068000171388 2.4820305639248517
  endloop
endfacet
facet normal 3.384219524864212e-05 7.001832706338151e-06 0.9999999994028401
  outer loop
    vertex 34.00006541989293 6.798642332397353e-05 2.481957744888995
    vertex 28.800066557612514 3.6144273546531682 2.481924538222885
    vertex 22.00006542459931 6.798645627951182e-05 2.48229383289701
  endloop
endfacet
facet normal 3.384219524864212e-05 7.001832706338151e-06 0.9999999994028401
  outer loop
    vertex 28.800066557612514 3.6144273546531682 2.481924538222885
    vertex 34.00006541989293 6.798642332397353e-05 2.481957744888995
    vertex 29.13143740758117 3.8686971507091403 2.481922378827918
  endloop
endfacet
facet normal 3.384219524864212e-05 7.001832706338151e-06 0.9999999994028401
  outer loop
    vertex 29.13143740758117 3.8686971507091403 2.481922378827918
    vertex 34.00006541989293 6.798642332397353e-05 2.481957744888995
    vertex 29.385707203898907 4.200068000476953 2.4819245382228785
  endloop
endfacet
facet normal 3.384219524864212e-05 7.001832706338151e-06 0.9999999994028401
  outer loop
    vertex 29.385707203898907 4.200068000476953 2.4819245382228785
    vertex 34.00006541989293 6.798642332397353e-05 2.481957744888995
    vertex 29.545547880147385 4.585957528161132 2.4819308692485667
  endloop
endfacet
facet normal 3.384219524864212e-05 7.001832706338151e-06 0.9999999994028401
  outer loop
    vertex 29.545547880147385 4.585957528161132 2.4819308692485667
    vertex 34.00006541989293 6.798642332397353e-05 2.481957744888995
    vertex 29.60006655838946 5.000068000162615 2.4819409404560466
  endloop
endfacet
facet normal 3.384219524864212e-05 7.001832706338151e-06 0.9999999994028401
  outer loop
    vertex 22.00006542459931 6.798645627951182e-05 2.48229383289701
    vertex 28.800066557612514 3.6144273546531682 2.481924538222885
    vertex 28.41417702980207 3.4545866787094948 2.4819308692485813
  endloop
endfacet
facet normal 3.384219524864212e-05 7.001832706338151e-06 0.9999999994028401
  outer loop
    vertex 22.00006542459931 6.798645627951182e-05 2.48229383289701
    vertex 28.41417702980207 3.4545866787094948 2.4819308692485813
    vertex 28.000066557757542 3.400068000794535 2.481940940456067
  endloop
endfacet
facet normal 3.384219524864212e-05 7.001832706338151e-06 0.9999999994028401
  outer loop
    vertex 22.00006542459931 6.798645627951182e-05 2.48229383289701
    vertex 28.000066557757542 3.400068000794535 2.481940940456067
    vertex 27.585956085798827 3.4545866787117876 2.481954065509196
  endloop
endfacet
facet normal 3.384219524864212e-05 7.001832706338151e-06 0.9999999994028401
  outer loop
    vertex 22.00006542459931 6.798645627951182e-05 2.48229383289701
    vertex 27.585956085798827 3.4545866787117876 2.481954065509196
    vertex 27.200066558240035 3.614427354657546 2.4819693499572875
  endloop
endfacet
facet normal 3.384219524864212e-05 7.001832706338151e-06 0.9999999994028401
  outer loop
    vertex 22.00006542459931 6.798645627951182e-05 2.48229383289701
    vertex 27.200066558240035 3.614427354657546 2.4819693499572875
    vertex 26.868695708671684 3.868697150715361 2.4819857521904636
  endloop
endfacet
facet normal 3.384219524864212e-05 7.001832706338151e-06 0.9999999994028401
  outer loop
    vertex 22.00006542459931 6.798645627951182e-05 2.48229383289701
    vertex 26.868695708671684 3.868697150715361 2.4819857521904636
    vertex 26.614425912875614 4.200068000484577 2.4820021544236375
  endloop
endfacet
facet normal 3.384219524864212e-05 7.001832706338151e-06 0.9999999994028401
  outer loop
    vertex 22.00006542459931 6.798645627951182e-05 2.48229383289701
    vertex 26.614425912875614 4.200068000484577 2.4820021544236375
    vertex 26.454585237234657 4.585957528169629 2.482017438871727
  endloop
endfacet
facet normal 3.384219524864212e-05 7.001832706338151e-06 0.9999999994028401
  outer loop
    vertex 22.00006542459931 6.798645627951182e-05 2.48229383289701
    vertex 26.454585237234657 4.585957528169629 2.482017438871727
    vertex 26.400066559644518 5.000068000171388 2.4820305639248517
  endloop
endfacet
facet normal 3.384219524864212e-05 7.001832706338151e-06 0.9999999994028401
  outer loop
    vertex 22.00006542459931 6.798645627951182e-05 2.48229383289701
    vertex 26.400066559644518 5.000068000171388 2.4820305639248517
    vertex 22.000066836894412 10.000067974690133 2.4822938328574717
  endloop
endfacet
facet normal -3.3842195248336276e-05 -9.249806999771929e-08 -0.9999999994273486
  outer loop
    vertex 33.9999958802034 -1.5532663290351855e-06 -0.0009522492681602267
    vertex 29.13136754189077 3.8687670163995733 -0.012627454928918648
    vertex 33.9999952896132 9.999966618518462 -0.0010231925612500842
  endloop
endfacet
facet normal -3.3842195248336276e-05 -9.249806999771929e-08 -0.9999999994273486
  outer loop
    vertex 29.13136754189077 3.8687670163995733 -0.012627454928918648
    vertex 33.9999958802034 -1.5532663290351855e-06 -0.0009522492681602267
    vertex 28.79999669192211 3.614497220343601 -0.012625295533951421
  endloop
endfacet
facet normal -3.3842195248336276e-05 -9.249806999771929e-08 -0.9999999994273486
  outer loop
    vertex 28.79999669192211 3.614497220343601 -0.012625295533951421
    vertex 33.9999958802034 -1.5532663290351855e-06 -0.0009522492681602267
    vertex 21.99999588490978 -1.553233377726837e-06 -0.0006161612601441246
  endloop
endfacet
facet normal -3.3842195248336276e-05 -9.249806999771929e-08 -0.9999999994273486
  outer loop
    vertex 33.9999952896132 9.999966618518462 -0.0010231925612500842
    vertex 29.13136754189077 3.8687670163995733 -0.012627454928918648
    vertex 29.385637338208507 4.200137866167386 -0.012625295533958714
  endloop
endfacet
facet normal -3.3842195248336276e-05 -9.249806999771929e-08 -0.9999999994273486
  outer loop
    vertex 33.9999952896132 9.999966618518462 -0.0010231925612500842
    vertex 29.385637338208507 4.200137866167386 -0.012625295533958714
    vertex 29.545478014456975 4.586027393851565 -0.012618964508269985
  endloop
endfacet
facet normal -3.3842195248336276e-05 -9.249806999771929e-08 -0.9999999994273486
  outer loop
    vertex 33.9999952896132 9.999966618518462 -0.0010231925612500842
    vertex 29.545478014456975 4.586027393851565 -0.012618964508269985
    vertex 29.599996692699065 5.000137865853048 -0.012608893300789995
  endloop
endfacet
facet normal -3.3842195248336276e-05 -9.249806999771929e-08 -0.9999999994273486
  outer loop
    vertex 28.79999669192211 3.614497220343601 -0.012625295533951421
    vertex 21.99999588490978 -1.553233377726837e-06 -0.0006161612601441246
    vertex 28.414107164111666 3.4546565443999264 -0.012618964508255448
  endloop
endfacet
facet normal -3.3842195248336276e-05 -9.249806999771929e-08 -0.9999999994273486
  outer loop
    vertex 28.414107164111666 3.4546565443999264 -0.012618964508255448
    vertex 21.99999588490978 -1.553233377726837e-06 -0.0006161612601441246
    vertex 27.999996692067143 3.400137866484968 -0.012608893300769695
  endloop
endfacet
facet normal -3.3842195248336276e-05 -9.249806999771929e-08 -0.9999999994273486
  outer loop
    vertex 27.999996692067143 3.400137866484968 -0.012608893300769695
    vertex 21.99999588490978 -1.553233377726837e-06 -0.0006161612601441246
    vertex 27.585886220108428 3.4546565444022206 -0.01259576824764083
  endloop
endfacet
facet normal -3.3842195248336276e-05 -9.249806999771929e-08 -0.9999999994273486
  outer loop
    vertex 27.585886220108428 3.4546565444022206 -0.01259576824764083
    vertex 21.99999588490978 -1.553233377726837e-06 -0.0006161612601441246
    vertex 27.19999669254964 3.614497220347979 -0.012580483799549059
  endloop
endfacet
facet normal -3.3842195248336276e-05 -9.249806999771929e-08 -0.9999999994273486
  outer loop
    vertex 27.19999669254964 3.614497220347979 -0.012580483799549059
    vertex 21.99999588490978 -1.553233377726837e-06 -0.0006161612601441246
    vertex 26.86862584298128 3.8687670164057932 -0.012564081566373446
  endloop
endfacet
facet normal -3.3842195248336276e-05 -9.249806999771929e-08 -0.9999999994273486
  outer loop
    vertex 26.86862584298128 3.8687670164057932 -0.012564081566373446
    vertex 21.99999588490978 -1.553233377726837e-06 -0.0006161612601441246
    vertex 26.614356047185222 4.20013786617501 -0.01254767933319861
  endloop
endfacet
facet normal -3.3842195248336276e-05 -9.249806999771929e-08 -0.9999999994273486
  outer loop
    vertex 26.614356047185222 4.20013786617501 -0.01254767933319861
    vertex 21.99999588490978 -1.553233377726837e-06 -0.0006161612601441246
    vertex 26.454515371544254 4.586027393860062 -0.012532394885109816
  endloop
endfacet
facet normal -3.3842195248336276e-05 -9.249806999771929e-08 -0.9999999994273486
  outer loop
    vertex 26.454515371544254 4.586027393860062 -0.012532394885109816
    vertex 21.99999588490978 -1.553233377726837e-06 -0.0006161612601441246
    vertex 26.399996693954122 5.00013786586182 -0.012519269831985267
  endloop
endfacet
facet normal -3.3842195248336276e-05 -9.249806999771929e-08 -0.9999999994273486
  outer loop
    vertex 33.9999952896132 9.999966618518462 -0.0010231925612500842
    vertex 28.79999669410354 6.385778511366888 -0.0125476793332262
    vertex 21.999995385850443 9.999966622473492 -0.0005470678857463382
  endloop
endfacet
facet normal -3.3842195248336276e-05 -9.249806999771929e-08 -0.9999999994273486
  outer loop
    vertex 28.79999669410354 6.385778511366888 -0.0125476793332262
    vertex 33.9999952896132 9.999966618518462 -0.0010231925612500842
    vertex 29.131367543671907 6.131508715309058 -0.012564081566401817
  endloop
endfacet
facet normal -3.3842195248336276e-05 -9.249806999771929e-08 -0.9999999994273486
  outer loop
    vertex 29.131367543671907 6.131508715309058 -0.012564081566401817
    vertex 33.9999952896132 9.999966618518462 -0.0010231925612500842
    vertex 29.385637339467955 5.80013786553986 -0.012580483799576653
  endloop
endfacet
facet normal -3.3842195248336276e-05 -9.249806999771929e-08 -0.9999999994273486
  outer loop
    vertex 29.385637339467955 5.80013786553986 -0.012580483799576653
    vertex 33.9999952896132 9.999966618518462 -0.0010231925612500842
    vertex 29.545478015108923 5.414248337854796 -0.012595768247665447
  endloop
endfacet
facet normal -3.3842195248336276e-05 -9.249806999771929e-08 -0.9999999994273486
  outer loop
    vertex 29.545478015108923 5.414248337854796 -0.012595768247665447
    vertex 33.9999952896132 9.999966618518462 -0.0010231925612500842
    vertex 29.599996692699065 5.000137865853048 -0.012608893300789995
  endloop
endfacet
facet normal -3.3842195248336276e-05 -9.249806999771929e-08 -0.9999999994273486
  outer loop
    vertex 21.999995385850443 9.999966622473492 -0.0005470678857463382
    vertex 28.79999669410354 6.385778511366888 -0.0125476793332262
    vertex 28.414107166544742 6.545619187312646 -0.012532394885134437
  endloop
endfacet
facet normal -3.3842195248336276e-05 -9.249806999771929e-08 -0.9999999994273486
  outer loop
    vertex 21.999995385850443 9.999966622473492 -0.0005470678857463382
    vertex 28.414107166544742 6.545619187312646 -0.012532394885134437
    vertex 27.999996694586045 6.600137865229913 -0.012519269832005568
  endloop
endfacet
facet normal -3.3842195248336276e-05 -9.249806999771929e-08 -0.9999999994273486
  outer loop
    vertex 21.999995385850443 9.999966622473492 -0.0005470678857463382
    vertex 27.999996694586045 6.600137865229913 -0.012519269832005568
    vertex 27.585886222541504 6.545619187314939 -0.012509198624519813
  endloop
endfacet
facet normal -3.3842195248336276e-05 -9.249806999771929e-08 -0.9999999994273486
  outer loop
    vertex 21.999995385850443 9.999966622473492 -0.0005470678857463382
    vertex 27.585886222541504 6.545619187314939 -0.012509198624519813
    vertex 27.199996694731066 6.385778511371264 -0.012502867598823837
  endloop
endfacet
facet normal -3.3842195248336276e-05 -9.249806999771929e-08 -0.9999999994273486
  outer loop
    vertex 21.999995385850443 9.999966622473492 -0.0005470678857463382
    vertex 27.199996694731066 6.385778511371264 -0.012502867598823837
    vertex 26.86862584476241 6.1315087153152845 -0.012500708203856615
  endloop
endfacet
facet normal -3.3842195248336276e-05 -9.249806999771929e-08 -0.9999999994273486
  outer loop
    vertex 21.999995385850443 9.999966622473492 -0.0005470678857463382
    vertex 26.86862584476241 6.1315087153152845 -0.012500708203856615
    vertex 26.614356048444673 5.800137865547478 -0.012502867598816544
  endloop
endfacet
facet normal -3.3842195248336276e-05 -9.249806999771929e-08 -0.9999999994273486
  outer loop
    vertex 21.999995385850443 9.999966622473492 -0.0005470678857463382
    vertex 26.614356048444673 5.800137865547478 -0.012502867598816544
    vertex 26.454515372196195 5.4142483378632935 -0.012509198624505278
  endloop
endfacet
facet normal -3.3842195248336276e-05 -9.249806999771929e-08 -0.9999999994273486
  outer loop
    vertex 21.999995385850443 9.999966622473492 -0.0005470678857463382
    vertex 26.454515372196195 5.4142483378632935 -0.012509198624505278
    vertex 26.399996693954122 5.00013786586182 -0.012519269831985267
  endloop
endfacet
facet normal -3.3842195248336276e-05 -9.249806999771929e-08 -0.9999999994273486
  outer loop
    vertex 21.999995385850443 9.999966622473492 -0.0005470678857463382
    vertex 26.399996693954122 5.00013786586182 -0.012519269831985267
    vertex 21.99999588490978 -1.553233377726837e-06 -0.0006161612601441246
  endloop
endfacet
facet normal 0.9999999995969288 -3.6808426865452636e-08 -2.839262450252577e-05
  outer loop
    vertex 34.00006541989293 6.798642332397353e-05 2.481957744888995
    vertex 33.9999952896132 9.999966618518462 -0.0010231925612500842
    vertex 34.000066740657175 10.0000679707351 2.4818177081819672
  endloop
endfacet
facet normal 0.9999999995969288 -3.6808426865452636e-08 -2.839262450252577e-05
  outer loop
    vertex 33.9999952896132 9.999966618518462 -0.0010231925612500842
    vertex 34.00006541989293 6.798642332397353e-05 2.481957744888995
    vertex 33.9999958802034 -1.5532663290351855e-06 -0.0009522492681602267
  endloop
endfacet
facet normal -1.2900750063903625e-09 0.9999999991668203 -4.0821067686795385e-05
  outer loop
    vertex 21.999995385850443 9.999966622473492 -0.0005470678857463382
    vertex 34.000066740657175 10.0000679707351 2.4818177081819672
    vertex 33.9999952896132 9.999966618518462 -0.0010231925612500842
  endloop
endfacet
facet normal -1.2900750063903625e-09 0.9999999991668203 -4.0821067686795385e-05
  outer loop
    vertex 34.000066740657175 10.0000679707351 2.4818177081819672
    vertex 21.999995385850443 9.999966622473492 -0.0005470678857463382
    vertex 22.000066836894412 10.000067974690133 2.4822938328574717
  endloop
endfacet
facet normal -0.9999999995969285 4.556392612442914e-08 2.839262420061137e-05
  outer loop
    vertex 21.999995385850443 9.999966622473492 -0.0005470678857463382
    vertex 22.00006542459931 6.798645627951182e-05 2.48229383289701
    vertex 22.000066836894412 10.000067974690133 2.4822938328574717
  endloop
endfacet
facet normal -0.9999999995969285 4.556392612442914e-08 2.839262420061137e-05
  outer loop
    vertex 22.00006542459931 6.798645627951182e-05 2.48229383289701
    vertex 21.999995385850443 9.999966622473492 -0.0005470678857463382
    vertex 21.99999588490978 -1.553233377726837e-06 -0.0006161612601441246
  endloop
endfacet
facet normal -0.7933533395008876 0.608761428772139 3.926949664514878e-05
  outer loop
    vertex 7.131366053664927 3.8507519494745157 -0.0003024838579699835
    vertex 7.385705715673067 4.182052933551897 2.4942495092938275
    vertex 7.385635849982663 4.18212279924233 -0.00030032446301004977
  endloop
endfacet
facet normal -0.7933533395008876 0.608761428772139 3.926949664514878e-05
  outer loop
    vertex 7.385705715673067 4.182052933551897 2.4942495092938275
    vertex 7.131366053664927 3.8507519494745157 -0.0003024838579699835
    vertex 7.131435919355326 3.8506820837840827 2.4942473498988673
  endloop
endfacet
facet normal -0.13052619294928774 -0.9914448609846012 -2.411203670120705e-05
  outer loop
    vertex 6.414175544009304 6.5275342546971675 2.4943424099426514
    vertex 5.999995206360199 6.582122798304854 -0.00019429876105690383
    vertex 6.414105678318898 6.527604120387589 -0.00020742381418577044
  endloop
endfacet
facet normal -0.13052619294928774 -0.9914448609846012 -2.411203670120705e-05
  outer loop
    vertex 5.999995206360199 6.582122798304854 -0.00019429876105690383
    vertex 6.414175544009304 6.5275342546971675 2.4943424099426514
    vertex 6.000065072050605 6.582052932614424 2.4943555349957798
  endloop
endfacet
facet normal 3.384219524864212e-05 7.001832706338144e-06 0.9999999994028401
  outer loop
    vertex 12.000065252431334 9.982052903810041 2.494142679252917
    vertex 7.131435921136467 6.113423782693575 2.494310723261385
    vertex 12.00006393166709 -0.017947080501734335 2.494282715959944
  endloop
endfacet
facet normal 3.384219524864212e-05 7.001832706338144e-06 0.9999999994028401
  outer loop
    vertex 7.131435921136467 6.113423782693575 2.494310723261385
    vertex 12.000065252431334 9.982052903810041 2.494142679252917
    vertex 6.800065071568101 6.367693578751408 2.49432712549456
  endloop
endfacet
facet normal 3.384219524864212e-05 7.001832706338144e-06 0.9999999994028401
  outer loop
    vertex 6.800065071568101 6.367693578751408 2.49432712549456
    vertex 12.000065252431334 9.982052903810041 2.494142679252917
    vertex 6.534866857244026e-05 9.982052907765077 2.494618803928421
  endloop
endfacet
facet normal 3.384219524864212e-05 7.001832706338144e-06 0.9999999994028401
  outer loop
    vertex 12.00006393166709 -0.017947080501734335 2.494282715959944
    vertex 7.131435921136467 6.113423782693575 2.494310723261385
    vertex 7.385705716932516 5.782052932924369 2.4942943210282094
  endloop
endfacet
facet normal 3.384219524864212e-05 7.001832706338144e-06 0.9999999994028401
  outer loop
    vertex 12.00006393166709 -0.017947080501734335 2.494282715959944
    vertex 7.385705716932516 5.782052932924369 2.4942943210282094
    vertex 7.545546392573489 5.396163405239306 2.494279036580121
  endloop
endfacet
facet normal 3.384219524864212e-05 7.001832706338144e-06 0.9999999994028401
  outer loop
    vertex 12.00006393166709 -0.017947080501734335 2.494282715959944
    vertex 7.545546392573489 5.396163405239306 2.494279036580121
    vertex 7.600065070163615 4.982052933237559 2.4942659115269965
  endloop
endfacet
facet normal 3.384219524864212e-05 7.001832706338144e-06 0.9999999994028401
  outer loop
    vertex 6.800065071568101 6.367693578751408 2.49432712549456
    vertex 6.534866857244026e-05 9.982052907765077 2.494618803928421
    vertex 6.414175544009304 6.5275342546971675 2.4943424099426514
  endloop
endfacet
facet normal 3.384219524864212e-05 7.001832706338144e-06 0.9999999994028401
  outer loop
    vertex 6.414175544009304 6.5275342546971675 2.4943424099426514
    vertex 6.534866857244026e-05 9.982052907765077 2.494618803928421
    vertex 6.000065072050605 6.582052932614424 2.4943555349957798
  endloop
endfacet
facet normal 3.384219524864212e-05 7.001832706338144e-06 0.9999999994028401
  outer loop
    vertex 6.000065072050605 6.582052932614424 2.4943555349957798
    vertex 6.534866857244026e-05 9.982052907765077 2.494618803928421
    vertex 5.585954600006065 6.52753425469946 2.494365606203267
  endloop
endfacet
facet normal 3.384219524864212e-05 7.001832706338144e-06 0.9999999994028401
  outer loop
    vertex 5.585954600006065 6.52753425469946 2.494365606203267
    vertex 6.534866857244026e-05 9.982052907765077 2.494618803928421
    vertex 5.200065072195626 6.3676935787557785 2.494371937228963
  endloop
endfacet
facet normal 3.384219524864212e-05 7.001832706338144e-06 0.9999999994028401
  outer loop
    vertex 5.200065072195626 6.3676935787557785 2.494371937228963
    vertex 6.534866857244026e-05 9.982052907765077 2.494618803928421
    vertex 4.868694222226965 6.113423782699794 2.49437409662393
  endloop
endfacet
facet normal 3.384219524864212e-05 7.001832706338144e-06 0.9999999994028401
  outer loop
    vertex 4.868694222226965 6.113423782699794 2.49437409662393
    vertex 6.534866857244026e-05 9.982052907765077 2.494618803928421
    vertex 4.614424425909223 5.782052932931988 2.4943719372289697
  endloop
endfacet
facet normal 3.384219524864212e-05 7.001832706338144e-06 0.9999999994028401
  outer loop
    vertex 4.614424425909223 5.782052932931988 2.4943719372289697
    vertex 6.534866857244026e-05 9.982052907765077 2.494618803928421
    vertex 4.45458374966075 5.396163405247804 2.494365606203281
  endloop
endfacet
facet normal 3.384219524864212e-05 7.001832706338144e-06 0.9999999994028401
  outer loop
    vertex 4.45458374966075 5.396163405247804 2.494365606203281
    vertex 6.534866857244026e-05 9.982052907765077 2.494618803928421
    vertex 4.400065071418675 4.98205293324633 2.4943555349958006
  endloop
endfacet
facet normal 3.384219524864212e-05 7.001832706338144e-06 0.9999999994028401
  outer loop
    vertex 12.00006393166709 -0.017947080501734335 2.494282715959944
    vertex 6.800065069386682 3.596412287728111 2.4942495092938346
    vertex 6.393637346624459e-05 -0.017947080468778798 2.4946188039679593
  endloop
endfacet
facet normal 3.384219524864212e-05 7.001832706338144e-06 0.9999999994028401
  outer loop
    vertex 6.800065069386682 3.596412287728111 2.4942495092938346
    vertex 12.00006393166709 -0.017947080501734335 2.494282715959944
    vertex 7.131435919355326 3.8506820837840827 2.4942473498988673
  endloop
endfacet
facet normal 3.384219524864212e-05 7.001832706338144e-06 0.9999999994028401
  outer loop
    vertex 7.131435919355326 3.8506820837840827 2.4942473498988673
    vertex 12.00006393166709 -0.017947080501734335 2.494282715959944
    vertex 7.385705715673067 4.182052933551897 2.4942495092938275
  endloop
endfacet
facet normal 3.384219524864212e-05 7.001832706338144e-06 0.9999999994028401
  outer loop
    vertex 7.385705715673067 4.182052933551897 2.4942495092938275
    vertex 12.00006393166709 -0.017947080501734335 2.494282715959944
    vertex 7.545546391921552 4.567942461236075 2.494255840319516
  endloop
endfacet
facet normal 3.384219524864212e-05 7.001832706338144e-06 0.9999999994028401
  outer loop
    vertex 7.545546391921552 4.567942461236075 2.494255840319516
    vertex 12.00006393166709 -0.017947080501734335 2.494282715959944
    vertex 7.600065070163615 4.982052933237559 2.4942659115269965
  endloop
endfacet
facet normal 3.384219524864212e-05 7.001832706338144e-06 0.9999999994028401
  outer loop
    vertex 6.393637346624459e-05 -0.017947080468778798 2.4946188039679593
    vertex 6.800065069386682 3.596412287728111 2.4942495092938346
    vertex 6.41417554157623 3.436571611784438 2.4942558403195307
  endloop
endfacet
facet normal 3.384219524864212e-05 7.001832706338144e-06 0.9999999994028401
  outer loop
    vertex 6.393637346624459e-05 -0.017947080468778798 2.4946188039679593
    vertex 6.41417554157623 3.436571611784438 2.4942558403195307
    vertex 6.000065069531703 3.382052933869477 2.4942659115270165
  endloop
endfacet
facet normal 3.384219524864212e-05 7.001832706338144e-06 0.9999999994028401
  outer loop
    vertex 6.393637346624459e-05 -0.017947080468778798 2.4946188039679593
    vertex 6.000065069531703 3.382052933869477 2.4942659115270165
    vertex 5.585954597572988 3.4365716117867304 2.4942790365801453
  endloop
endfacet
facet normal 3.384219524864212e-05 7.001832706338144e-06 0.9999999994028401
  outer loop
    vertex 6.393637346624459e-05 -0.017947080468778798 2.4946188039679593
    vertex 5.585954597572988 3.4365716117867304 2.4942790365801453
    vertex 5.200065070014201 3.5964122877324893 2.494294321028237
  endloop
endfacet
facet normal 3.384219524864212e-05 7.001832706338144e-06 0.9999999994028401
  outer loop
    vertex 6.393637346624459e-05 -0.017947080468778798 2.4946188039679593
    vertex 5.200065070014201 3.5964122877324893 2.494294321028237
    vertex 4.868694220445846 3.8506820837903035 2.494310723261413
  endloop
endfacet
facet normal 3.384219524864212e-05 7.001832706338144e-06 0.9999999994028401
  outer loop
    vertex 6.393637346624459e-05 -0.017947080468778798 2.4946188039679593
    vertex 4.868694220445846 3.8506820837903035 2.494310723261413
    vertex 4.614424424649775 4.18205293355952 2.4943271254945873
  endloop
endfacet
facet normal 3.384219524864212e-05 7.001832706338144e-06 0.9999999994028401
  outer loop
    vertex 6.393637346624459e-05 -0.017947080468778798 2.4946188039679593
    vertex 4.614424424649775 4.18205293355952 2.4943271254945873
    vertex 4.454583749008813 4.567942461244572 2.4943424099426763
  endloop
endfacet
facet normal 3.384219524864212e-05 7.001832706338144e-06 0.9999999994028401
  outer loop
    vertex 6.393637346624459e-05 -0.017947080468778798 2.4946188039679593
    vertex 4.454583749008813 4.567942461244572 2.4943424099426763
    vertex 4.400065071418675 4.98205293324633 2.4943555349958006
  endloop
endfacet
facet normal 3.384219524864212e-05 7.001832706338144e-06 0.9999999994028401
  outer loop
    vertex 6.393637346624459e-05 -0.017947080468778798 2.4946188039679593
    vertex 4.400065071418675 4.98205293324633 2.4943555349958006
    vertex 6.534866857244026e-05 9.982052907765077 2.494618803928421
  endloop
endfacet
facet normal 0.9914448610877054 0.13052619216613306 -2.411203671584007e-05
  outer loop
    vertex 4.454583749008813 4.567942461244572 2.4943424099426763
    vertex 4.399995205728277 4.9821227989367625 -0.00019429876103660212
    vertex 4.400065071418675 4.98205293324633 2.4943555349958006
  endloop
endfacet
facet normal 0.9914448610877054 0.13052619216613306 -2.411203671584007e-05
  outer loop
    vertex 4.399995205728277 4.9821227989367625 -0.00019429876103660212
    vertex 4.454583749008813 4.567942461244572 2.4943424099426763
    vertex 4.454513883318408 4.568012326935005 -0.0002074238141611508
  endloop
endfacet
facet normal 0.382683432942236 0.9238795321478861 1.5157459927454214e-05
  outer loop
    vertex 5.1999952043237965 3.5964821534229223 -0.00025551272860039475
    vertex 5.585954597572988 3.4365716117867304 2.4942790365801453
    vertex 5.585884731882583 3.4366414774771634 -0.00027079717669216494
  endloop
endfacet
facet normal 0.382683432942236 0.9238795321478861 1.5157459927454214e-05
  outer loop
    vertex 5.585954597572988 3.4365716117867304 2.4942790365801453
    vertex 5.1999952043237965 3.5964821534229223 -0.00025551272860039475
    vertex 5.200065070014201 3.5964122877324893 2.494294321028237
  endloop
endfacet
facet normal -0.13052619138844526 0.9914448609853177 3.142341802729313e-05
  outer loop
    vertex 5.999995203841309 3.38212279955991 -0.0002839222298210291
    vertex 6.41417554157623 3.436571611784438 2.4942558403195307
    vertex 6.414105675885826 3.436641477474868 -0.0002939934373067835
  endloop
endfacet
facet normal -0.13052619138844526 0.9914448609853177 3.142341802729313e-05
  outer loop
    vertex 6.41417554157623 3.436571611784438 2.4942558403195307
    vertex 5.999995203841309 3.38212279955991 -0.0002839222298210291
    vertex 6.000065069531703 3.382052933869477 2.4942659115270165
  endloop
endfacet
facet normal 7.816638891918292e-10 -0.9999999996077946 2.8007334030851208e-05
  outer loop
    vertex 12.00006393166709 -0.017947080501734335 2.494282715959944
    vertex -5.60331606127562e-06 -0.018016620158436036 0.011708809810804544
    vertex 11.999994391977562 -0.018016620191387344 0.011372721802788442
  endloop
endfacet
facet normal 7.816638891918292e-10 -0.9999999996077946 2.8007334030851208e-05
  outer loop
    vertex -5.60331606127562e-06 -0.018016620158436036 0.011708809810804544
    vertex 12.00006393166709 -0.017947080501734335 2.494282715959944
    vertex 6.393637346624459e-05 -0.017947080468778798 2.4946188039679593
  endloop
endfacet
facet normal 0.9238795318477014 -0.3826834322175436 -3.659334534654691e-05
  outer loop
    vertex 4.45458374966075 5.396163405247804 2.494365606203281
    vertex 4.61435456021883 5.78212279862242 -0.0001778965278678807
    vertex 4.614424425909223 5.782052932931988 2.4943719372289697
  endloop
endfacet
facet normal 0.9238795318477014 -0.3826834322175436 -3.659334534654691e-05
  outer loop
    vertex 4.61435456021883 5.78212279862242 -0.0001778965278678807
    vertex 4.45458374966075 5.396163405247804 2.494365606203281
    vertex 4.454513883970345 5.396233270938237 -0.00018422755355661333
  endloop
endfacet
facet normal -0.9914448610877045 -0.1305261921661397 2.411203671583985e-05
  outer loop
    vertex 7.599995204473222 4.982122798927991 -0.00028392222984132846
    vertex 7.545546392573489 5.396163405239306 2.494279036580121
    vertex 7.545476526883078 5.39623327092974 -0.0002707971767167823
  endloop
endfacet
facet normal -0.9914448610877045 -0.1305261921661397 2.411203671583985e-05
  outer loop
    vertex 7.545546392573489 5.396163405239306 2.494279036580121
    vertex 7.599995204473222 4.982122798927991 -0.00028392222984132846
    vertex 7.600065070163615 4.982052933237559 2.4942659115269965
  endloop
endfacet
facet normal -0.6087614281454664 0.7933533399817506 3.92694966432835e-05
  outer loop
    vertex 6.799995203696271 3.596482153418544 -0.0003003244630027586
    vertex 7.131435919355326 3.8506820837840827 2.4942473498988673
    vertex 7.131366053664927 3.8507519494745157 -0.0003024838579699835
  endloop
endfacet
facet normal -0.6087614281454664 0.7933533399817506 3.92694966432835e-05
  outer loop
    vertex 7.131435919355326 3.8506820837840827 2.4942473498988673
    vertex 6.799995203696271 3.596482153418544 -0.0003003244630027586
    vertex 6.800065069386682 3.596412287728111 2.4942495092938346
  endloop
endfacet
facet normal -0.9238795318477061 0.38268343221753204 3.659334534654493e-05
  outer loop
    vertex 7.385635849982663 4.18212279924233 -0.00030032446301004977
    vertex 7.545546391921552 4.567942461236075 2.494255840319516
    vertex 7.545476526231136 4.568012326926508 -0.00029399343732131966
  endloop
endfacet
facet normal -0.9238795318477061 0.38268343221753204 3.659334534654493e-05
  outer loop
    vertex 7.545546391921552 4.567942461236075 2.494255840319516
    vertex 7.385635849982663 4.18212279924233 -0.00030032446301004977
    vertex 7.385705715673067 4.182052933551897 2.4942495092938275
  endloop
endfacet
facet normal -0.9238795324501734 -0.38268343221244944 1.5157459940576594e-05
  outer loop
    vertex 7.545476526883078 5.39623327092974 -0.0002707971767167823
    vertex 7.385705716932516 5.782052932924369 2.4942943210282094
    vertex 7.38563585124211 5.782122798614802 -0.0002555127286279893
  endloop
endfacet
facet normal -0.9238795324501734 -0.38268343221244944 1.5157459940576594e-05
  outer loop
    vertex 7.385705716932516 5.782052932924369 2.4942943210282094
    vertex 7.545476526883078 5.39623327092974 -0.0002707971767167823
    vertex 7.545546392573489 5.396163405239306 2.494279036580121
  endloop
endfacet
facet normal -0.38268343148775924 0.9238795321499881 3.659334534110844e-05
  outer loop
    vertex 6.414105675885826 3.436641477474868 -0.0002939934373067835
    vertex 6.800065069386682 3.596412287728111 2.4942495092938346
    vertex 6.799995203696271 3.596482153418544 -0.0003003244630027586
  endloop
endfacet
facet normal -0.38268343148775924 0.9238795321499881 3.659334534110844e-05
  outer loop
    vertex 6.800065069386682 3.596412287728111 2.4942495092938346
    vertex 6.414105675885826 3.436641477474868 -0.0002939934373067835
    vertex 6.41417554157623 3.436571611784438 2.4942558403195307
  endloop
endfacet
facet normal 0.6087614293944584 0.7933533399784032 5.1699273051706234e-06
  outer loop
    vertex 4.868694220445846 3.8506820837903035 2.494310723261413
    vertex 5.1999952043237965 3.5964821534229223 -0.00025551272860039475
    vertex 4.868624354755436 3.850751949480736 -0.00023911049542478334
  endloop
endfacet
facet normal 0.6087614293944584 0.7933533399784032 5.1699273051706234e-06
  outer loop
    vertex 5.1999952043237965 3.5964821534229223 -0.00025551272860039475
    vertex 4.868694220445846 3.8506820837903035 2.494310723261413
    vertex 5.200065070014201 3.5964122877324893 2.494294321028237
  endloop
endfacet
facet normal 0.7933533395008867 -0.6087614287721402 -3.926949664445662e-05
  outer loop
    vertex 4.614424425909223 5.782052932931988 2.4943719372289697
    vertex 4.868624356536566 6.113493648390227 -0.00017573713290794978
    vertex 4.868694222226965 6.113423782699794 2.49437409662393
  endloop
endfacet
facet normal 0.7933533395008867 -0.6087614287721402 -3.926949664445662e-05
  outer loop
    vertex 4.868624356536566 6.113493648390227 -0.00017573713290794978
    vertex 4.614424425909223 5.782052932931988 2.4943719372289697
    vertex 4.61435456021883 5.78212279862242 -0.0001778965278678807
  endloop
endfacet
facet normal 0.7933533404592704 0.6087614287677798 -5.169927319258425e-06
  outer loop
    vertex 4.868694220445846 3.8506820837903035 2.494310723261413
    vertex 4.6143545589593815 4.182122799249953 -0.0002227082622499437
    vertex 4.614424424649775 4.18205293355952 2.4943271254945873
  endloop
endfacet
facet normal 0.7933533404592704 0.6087614287677798 -5.169927319258425e-06
  outer loop
    vertex 4.6143545589593815 4.182122799249953 -0.0002227082622499437
    vertex 4.868694220445846 3.8506820837903035 2.494310723261413
    vertex 4.868624354755436 3.850751949480736 -0.00023911049542478334
  endloop
endfacet
facet normal 0.9999999995969288 -3.680842686545263e-08 -2.8392624502525768e-05
  outer loop
    vertex 12.00006393166709 -0.017947080501734335 2.494282715959944
    vertex 11.99999380138736 9.981951551593404 0.011301778509698586
    vertex 12.000065252431334 9.982052903810041 2.494142679252917
  endloop
endfacet
facet normal 0.9999999995969288 -3.680842686545263e-08 -2.8392624502525768e-05
  outer loop
    vertex 11.99999380138736 9.981951551593404 0.011301778509698586
    vertex 12.00006393166709 -0.017947080501734335 2.494282715959944
    vertex 11.999994391977562 -0.018016620191387344 0.011372721802788442
  endloop
endfacet
facet normal -0.9999999995969285 4.5563926124429127e-08 2.8392624200611367e-05
  outer loop
    vertex -6.1023753995748106e-06 9.981951555548434 0.01177790318520233
    vertex 6.393637346624459e-05 -0.017947080468778798 2.4946188039679593
    vertex 6.534866857244026e-05 9.982052907765077 2.494618803928421
  endloop
endfacet
facet normal -0.9999999995969285 4.5563926124429127e-08 2.8392624200611367e-05
  outer loop
    vertex 6.393637346624459e-05 -0.017947080468778798 2.4946188039679593
    vertex -6.1023753995748106e-06 9.981951555548434 0.01177790318520233
    vertex -5.60331606127562e-06 -0.018016620158436036 0.011708809810804544
  endloop
endfacet
facet normal 0.9914448608822162 -0.1305261921715797 -3.1423418035940595e-05
  outer loop
    vertex 4.45458374966075 5.396163405247804 2.494365606203281
    vertex 4.399995205728277 4.9821227989367625 -0.00019429876103660212
    vertex 4.454513883970345 5.396233270938237 -0.00018422755355661333
  endloop
endfacet
facet normal 0.9914448608822162 -0.1305261921715797 -3.1423418035940595e-05
  outer loop
    vertex 4.399995205728277 4.9821227989367625 -0.00019429876103660212
    vertex 4.45458374966075 5.396163405247804 2.494365606203281
    vertex 4.400065071418675 4.98205293324633 2.4943555349958006
  endloop
endfacet
facet normal -0.9914448608822153 0.13052619217158634 3.1423418035939375e-05
  outer loop
    vertex 7.599995204473222 4.982122798927991 -0.00028392222984132846
    vertex 7.545546391921552 4.567942461236075 2.494255840319516
    vertex 7.600065070163615 4.982052933237559 2.4942659115269965
  endloop
endfacet
facet normal -0.9914448608822153 0.13052619217158634 3.1423418035939375e-05
  outer loop
    vertex 7.545546391921552 4.567942461236075 2.494255840319516
    vertex 7.599995204473222 4.982122798927991 -0.00028392222984132846
    vertex 7.545476526231136 4.568012326926508 -0.00029399343732131966
  endloop
endfacet
facet normal -0.6087614293944626 -0.7933533399784 -5.169927302484795e-06
  outer loop
    vertex 7.131366055446063 6.113493648384002 -0.0002391104954531503
    vertex 6.800065071568101 6.367693578751408 2.49432712549456
    vertex 6.799995205877696 6.367763444441831 -0.00022270826227753528
  endloop
endfacet
facet normal -0.6087614293944626 -0.7933533399784 -5.169927302484795e-06
  outer loop
    vertex 6.800065071568101 6.367693578751408 2.49432712549456
    vertex 7.131366055446063 6.113493648384002 -0.0002391104954531503
    vertex 7.131435921136467 6.113423782693575 2.494310723261385
  endloop
endfacet
facet normal -3.3842195248336276e-05 -9.249806999771251e-08 -0.9999999994273486
  outer loop
    vertex 11.999994391977562 -0.018016620191387344 0.011372721802788442
    vertex 7.131366053664927 3.8507519494745157 -0.0003024838579699835
    vertex 11.99999380138736 9.981951551593404 0.011301778509698586
  endloop
endfacet
facet normal -3.3842195248336276e-05 -9.249806999771251e-08 -0.9999999994273486
  outer loop
    vertex 7.131366053664927 3.8507519494745157 -0.0003024838579699835
    vertex 11.999994391977562 -0.018016620191387344 0.011372721802788442
    vertex 6.799995203696271 3.596482153418544 -0.0003003244630027586
  endloop
endfacet
facet normal -3.3842195248336276e-05 -9.249806999771251e-08 -0.9999999994273486
  outer loop
    vertex 6.799995203696271 3.596482153418544 -0.0003003244630027586
    vertex 11.999994391977562 -0.018016620191387344 0.011372721802788442
    vertex -5.60331606127562e-06 -0.018016620158436036 0.011708809810804544
  endloop
endfacet
facet normal -3.3842195248336276e-05 -9.249806999771251e-08 -0.9999999994273486
  outer loop
    vertex 11.99999380138736 9.981951551593404 0.011301778509698586
    vertex 7.131366053664927 3.8507519494745157 -0.0003024838579699835
    vertex 7.385635849982663 4.18212279924233 -0.00030032446301004977
  endloop
endfacet
facet normal -3.3842195248336276e-05 -9.249806999771251e-08 -0.9999999994273486
  outer loop
    vertex 11.99999380138736 9.981951551593404 0.011301778509698586
    vertex 7.385635849982663 4.18212279924233 -0.00030032446301004977
    vertex 7.545476526231136 4.568012326926508 -0.00029399343732131966
  endloop
endfacet
facet normal -3.3842195248336276e-05 -9.249806999771251e-08 -0.9999999994273486
  outer loop
    vertex 11.99999380138736 9.981951551593404 0.011301778509698586
    vertex 7.545476526231136 4.568012326926508 -0.00029399343732131966
    vertex 7.599995204473222 4.982122798927991 -0.00028392222984132846
  endloop
endfacet
facet normal -3.3842195248336276e-05 -9.249806999771251e-08 -0.9999999994273486
  outer loop
    vertex 6.799995203696271 3.596482153418544 -0.0003003244630027586
    vertex -5.60331606127562e-06 -0.018016620158436036 0.011708809810804544
    vertex 6.414105675885826 3.436641477474868 -0.0002939934373067835
  endloop
endfacet
facet normal -3.3842195248336276e-05 -9.249806999771251e-08 -0.9999999994273486
  outer loop
    vertex 6.414105675885826 3.436641477474868 -0.0002939934373067835
    vertex -5.60331606127562e-06 -0.018016620158436036 0.011708809810804544
    vertex 5.999995203841309 3.38212279955991 -0.0002839222298210291
  endloop
endfacet
facet normal -3.3842195248336276e-05 -9.249806999771251e-08 -0.9999999994273486
  outer loop
    vertex 5.999995203841309 3.38212279955991 -0.0002839222298210291
    vertex -5.60331606127562e-06 -0.018016620158436036 0.011708809810804544
    vertex 5.585884731882583 3.4366414774771634 -0.00027079717669216494
  endloop
endfacet
facet normal -3.3842195248336276e-05 -9.249806999771251e-08 -0.9999999994273486
  outer loop
    vertex 5.585884731882583 3.4366414774771634 -0.00027079717669216494
    vertex -5.60331606127562e-06 -0.018016620158436036 0.011708809810804544
    vertex 5.1999952043237965 3.5964821534229223 -0.00025551272860039475
  endloop
endfacet
facet normal -3.3842195248336276e-05 -9.249806999771251e-08 -0.9999999994273486
  outer loop
    vertex 5.1999952043237965 3.5964821534229223 -0.00025551272860039475
    vertex -5.60331606127562e-06 -0.018016620158436036 0.011708809810804544
    vertex 4.868624354755436 3.850751949480736 -0.00023911049542478334
  endloop
endfacet
facet normal -3.3842195248336276e-05 -9.249806999771251e-08 -0.9999999994273486
  outer loop
    vertex 4.868624354755436 3.850751949480736 -0.00023911049542478334
    vertex -5.60331606127562e-06 -0.018016620158436036 0.011708809810804544
    vertex 4.6143545589593815 4.182122799249953 -0.0002227082622499437
  endloop
endfacet
facet normal -3.3842195248336276e-05 -9.249806999771251e-08 -0.9999999994273486
  outer loop
    vertex 4.6143545589593815 4.182122799249953 -0.0002227082622499437
    vertex -5.60331606127562e-06 -0.018016620158436036 0.011708809810804544
    vertex 4.454513883318408 4.568012326935005 -0.0002074238141611508
  endloop
endfacet
facet normal -3.3842195248336276e-05 -9.249806999771251e-08 -0.9999999994273486
  outer loop
    vertex 4.454513883318408 4.568012326935005 -0.0002074238141611508
    vertex -5.60331606127562e-06 -0.018016620158436036 0.011708809810804544
    vertex 4.399995205728277 4.9821227989367625 -0.00019429876103660212
  endloop
endfacet
facet normal -3.3842195248336276e-05 -9.249806999771251e-08 -0.9999999994273486
  outer loop
    vertex 11.99999380138736 9.981951551593404 0.011301778509698586
    vertex 6.799995205877696 6.367763444441831 -0.00022270826227753528
    vertex -6.1023753995748106e-06 9.981951555548434 0.01177790318520233
  endloop
endfacet
facet normal -3.3842195248336276e-05 -9.249806999771251e-08 -0.9999999994273486
  outer loop
    vertex 6.799995205877696 6.367763444441831 -0.00022270826227753528
    vertex 11.99999380138736 9.981951551593404 0.011301778509698586
    vertex 7.131366055446063 6.113493648384002 -0.0002391104954531503
  endloop
endfacet
facet normal -3.3842195248336276e-05 -9.249806999771251e-08 -0.9999999994273486
  outer loop
    vertex 7.131366055446063 6.113493648384002 -0.0002391104954531503
    vertex 11.99999380138736 9.981951551593404 0.011301778509698586
    vertex 7.38563585124211 5.782122798614802 -0.0002555127286279893
  endloop
endfacet
facet normal -3.3842195248336276e-05 -9.249806999771251e-08 -0.9999999994273486
  outer loop
    vertex 7.38563585124211 5.782122798614802 -0.0002555127286279893
    vertex 11.99999380138736 9.981951551593404 0.011301778509698586
    vertex 7.545476526883078 5.39623327092974 -0.0002707971767167823
  endloop
endfacet
facet normal -3.3842195248336276e-05 -9.249806999771251e-08 -0.9999999994273486
  outer loop
    vertex 7.545476526883078 5.39623327092974 -0.0002707971767167823
    vertex 11.99999380138736 9.981951551593404 0.011301778509698586
    vertex 7.599995204473222 4.982122798927991 -0.00028392222984132846
  endloop
endfacet
facet normal -3.3842195248336276e-05 -9.249806999771251e-08 -0.9999999994273486
  outer loop
    vertex -6.1023753995748106e-06 9.981951555548434 0.01177790318520233
    vertex 6.799995205877696 6.367763444441831 -0.00022270826227753528
    vertex 6.414105678318898 6.527604120387589 -0.00020742381418577044
  endloop
endfacet
facet normal -3.3842195248336276e-05 -9.249806999771251e-08 -0.9999999994273486
  outer loop
    vertex -6.1023753995748106e-06 9.981951555548434 0.01177790318520233
    vertex 6.414105678318898 6.527604120387589 -0.00020742381418577044
    vertex 5.999995206360199 6.582122798304854 -0.00019429876105690383
  endloop
endfacet
facet normal -3.3842195248336276e-05 -9.249806999771251e-08 -0.9999999994273486
  outer loop
    vertex -6.1023753995748106e-06 9.981951555548434 0.01177790318520233
    vertex 5.999995206360199 6.582122798304854 -0.00019429876105690383
    vertex 5.585884734315661 6.527604120389881 -0.0001842275535711481
  endloop
endfacet
facet normal -3.3842195248336276e-05 -9.249806999771251e-08 -0.9999999994273486
  outer loop
    vertex -6.1023753995748106e-06 9.981951555548434 0.01177790318520233
    vertex 5.585884734315661 6.527604120389881 -0.0001842275535711481
    vertex 5.19999520650522 6.367763444446207 -0.00017789652787517178
  endloop
endfacet
facet normal -3.3842195248336276e-05 -9.249806999771251e-08 -0.9999999994273486
  outer loop
    vertex -6.1023753995748106e-06 9.981951555548434 0.01177790318520233
    vertex 5.19999520650522 6.367763444446207 -0.00017789652787517178
    vertex 4.868624356536566 6.113493648390227 -0.00017573713290794978
  endloop
endfacet
facet normal -3.3842195248336276e-05 -9.249806999771251e-08 -0.9999999994273486
  outer loop
    vertex -6.1023753995748106e-06 9.981951555548434 0.01177790318520233
    vertex 4.868624356536566 6.113493648390227 -0.00017573713290794978
    vertex 4.61435456021883 5.78212279862242 -0.0001778965278678807
  endloop
endfacet
facet normal -3.3842195248336276e-05 -9.249806999771251e-08 -0.9999999994273486
  outer loop
    vertex -6.1023753995748106e-06 9.981951555548434 0.01177790318520233
    vertex 4.61435456021883 5.78212279862242 -0.0001778965278678807
    vertex 4.454513883970345 5.396233270938237 -0.00018422755355661333
  endloop
endfacet
facet normal -3.3842195248336276e-05 -9.249806999771251e-08 -0.9999999994273486
  outer loop
    vertex -6.1023753995748106e-06 9.981951555548434 0.01177790318520233
    vertex 4.454513883970345 5.396233270938237 -0.00018422755355661333
    vertex 4.399995205728277 4.9821227989367625 -0.00019429876103660212
  endloop
endfacet
facet normal -3.3842195248336276e-05 -9.249806999771251e-08 -0.9999999994273486
  outer loop
    vertex -6.1023753995748106e-06 9.981951555548434 0.01177790318520233
    vertex 4.399995205728277 4.9821227989367625 -0.00019429876103660212
    vertex -5.60331606127562e-06 -0.018016620158436036 0.011708809810804544
  endloop
endfacet
facet normal -0.7933533404592613 -0.6087614287677917 5.169927319937966e-06
  outer loop
    vertex 7.131366055446063 6.113493648384002 -0.0002391104954531503
    vertex 7.385705716932516 5.782052932924369 2.4942943210282094
    vertex 7.131435921136467 6.113423782693575 2.494310723261385
  endloop
endfacet
facet normal -0.7933533404592613 -0.6087614287677917 5.169927319937966e-06
  outer loop
    vertex 7.385705716932516 5.782052932924369 2.4942943210282094
    vertex 7.131366055446063 6.113493648384002 -0.0002391104954531503
    vertex 7.38563585124211 5.782122798614802 -0.0002555127286279893
  endloop
endfacet
facet normal 0.3826834314877649 -0.9238795321499856 -3.6593345337974844e-05
  outer loop
    vertex 5.585954600006065 6.52753425469946 2.494365606203267
    vertex 5.19999520650522 6.367763444446207 -0.00017789652787517178
    vertex 5.585884734315661 6.527604120389881 -0.0001842275535711481
  endloop
endfacet
facet normal 0.3826834314877649 -0.9238795321499856 -3.6593345337974844e-05
  outer loop
    vertex 5.19999520650522 6.367763444446207 -0.00017789652787517178
    vertex 5.585954600006065 6.52753425469946 2.494365606203267
    vertex 5.200065072195626 6.3676935787557785 2.494371937228963
  endloop
endfacet
facet normal 0.1305261929492924 0.9914448609846005 2.4112036704569064e-05
  outer loop
    vertex 5.585954597572988 3.4365716117867304 2.4942790365801453
    vertex 5.999995203841309 3.38212279955991 -0.0002839222298210291
    vertex 5.585884731882583 3.4366414774771634 -0.00027079717669216494
  endloop
endfacet
facet normal 0.1305261929492924 0.9914448609846005 2.4112036704569064e-05
  outer loop
    vertex 5.999995203841309 3.38212279955991 -0.0002839222298210291
    vertex 5.585954597572988 3.4365716117867304 2.4942790365801453
    vertex 6.000065069531703 3.382052933869477 2.4942659115270165
  endloop
endfacet
facet normal 0.9238795324501667 0.38268343221246565 -1.5157459940575955e-05
  outer loop
    vertex 4.614424424649775 4.18205293355952 2.4943271254945873
    vertex 4.454513883318408 4.568012326935005 -0.0002074238141611508
    vertex 4.454583749008813 4.567942461244572 2.4943424099426763
  endloop
endfacet
facet normal 0.9238795324501667 0.38268343221246565 -1.5157459940575955e-05
  outer loop
    vertex 4.454513883318408 4.568012326935005 -0.0002074238141611508
    vertex 4.614424424649775 4.18205293355952 2.4943271254945873
    vertex 4.6143545589593815 4.182122799249953 -0.0002227082622499437
  endloop
endfacet
facet normal -1.290075006390363e-09 0.9999999991668203 -4.08210676867954e-05
  outer loop
    vertex -6.1023753995748106e-06 9.981951555548434 0.01177790318520233
    vertex 12.000065252431334 9.982052903810041 2.494142679252917
    vertex 11.99999380138736 9.981951551593404 0.011301778509698586
  endloop
endfacet
facet normal -1.290075006390363e-09 0.9999999991668203 -4.08210676867954e-05
  outer loop
    vertex 12.000065252431334 9.982052903810041 2.494142679252917
    vertex -6.1023753995748106e-06 9.981951555548434 0.01177790318520233
    vertex 6.534866857244026e-05 9.982052907765077 2.494618803928421
  endloop
endfacet
facet normal 0.1305261913884375 -0.9914448609853186 -3.142341802392989e-05
  outer loop
    vertex 6.000065072050605 6.582052932614424 2.4943555349957798
    vertex 5.585884734315661 6.527604120389881 -0.0001842275535711481
    vertex 5.999995206360199 6.582122798304854 -0.00019429876105690383
  endloop
endfacet
facet normal 0.1305261913884375 -0.9914448609853186 -3.142341802392989e-05
  outer loop
    vertex 5.585884734315661 6.527604120389881 -0.0001842275535711481
    vertex 6.000065072050605 6.582052932614424 2.4943555349957798
    vertex 5.585954600006065 6.52753425469946 2.494365606203267
  endloop
endfacet
facet normal -0.38268343294223356 -0.923879532147887 -1.5157459923274325e-05
  outer loop
    vertex 6.799995205877696 6.367763444441831 -0.00022270826227753528
    vertex 6.414175544009304 6.5275342546971675 2.4943424099426514
    vertex 6.414105678318898 6.527604120387589 -0.00020742381418577044
  endloop
endfacet
facet normal -0.38268343294223356 -0.923879532147887 -1.5157459923274325e-05
  outer loop
    vertex 6.414175544009304 6.5275342546971675 2.4943424099426514
    vertex 6.799995205877696 6.367763444441831 -0.00022270826227753528
    vertex 6.800065071568101 6.367693578751408 2.49432712549456
  endloop
endfacet
facet normal 0.6087614281454664 -0.7933533399817506 -3.926949664149101e-05
  outer loop
    vertex 5.200065072195626 6.3676935787557785 2.494371937228963
    vertex 4.868624356536566 6.113493648390227 -0.00017573713290794978
    vertex 5.19999520650522 6.367763444446207 -0.00017789652787517178
  endloop
endfacet
facet normal 0.6087614281454664 -0.7933533399817506 -3.926949664149101e-05
  outer loop
    vertex 4.868624356536566 6.113493648390227 -0.00017573713290794978
    vertex 5.200065072195626 6.3676935787557785 2.494371937228963
    vertex 4.868694222226965 6.113423782699794 2.49437409662393
  endloop
endfacet
endsolid 2.5mmSpacing
