%TF.GenerationSoftware,KiCad,Pcbnew,8.0.1*%
%TF.CreationDate,2024-05-29T14:30:23+02:00*%
%TF.ProjectId,CorntrolHub,436f726e-7472-46f6-9c48-75622e6b6963,rev?*%
%TF.SameCoordinates,Original*%
%TF.FileFunction,Soldermask,Bot*%
%TF.FilePolarity,Negative*%
%FSLAX46Y46*%
G04 Gerber Fmt 4.6, Leading zero omitted, Abs format (unit mm)*
G04 Created by KiCad (PCBNEW 8.0.1) date 2024-05-29 14:30:23*
%MOMM*%
%LPD*%
G01*
G04 APERTURE LIST*
G04 Aperture macros list*
%AMRoundRect*
0 Rectangle with rounded corners*
0 $1 Rounding radius*
0 $2 $3 $4 $5 $6 $7 $8 $9 X,Y pos of 4 corners*
0 Add a 4 corners polygon primitive as box body*
4,1,4,$2,$3,$4,$5,$6,$7,$8,$9,$2,$3,0*
0 Add four circle primitives for the rounded corners*
1,1,$1+$1,$2,$3*
1,1,$1+$1,$4,$5*
1,1,$1+$1,$6,$7*
1,1,$1+$1,$8,$9*
0 Add four rect primitives between the rounded corners*
20,1,$1+$1,$2,$3,$4,$5,0*
20,1,$1+$1,$4,$5,$6,$7,0*
20,1,$1+$1,$6,$7,$8,$9,0*
20,1,$1+$1,$8,$9,$2,$3,0*%
G04 Aperture macros list end*
%ADD10C,3.200000*%
%ADD11R,1.700000X1.700000*%
%ADD12O,1.700000X1.700000*%
%ADD13R,1.500000X1.500000*%
%ADD14C,1.500000*%
%ADD15RoundRect,0.250000X0.350000X0.625000X-0.350000X0.625000X-0.350000X-0.625000X0.350000X-0.625000X0*%
%ADD16O,1.200000X1.750000*%
%ADD17C,4.000000*%
%ADD18R,1.600000X1.600000*%
%ADD19C,1.600000*%
%ADD20C,1.200000*%
%ADD21O,1.200000X2.200000*%
%ADD22O,2.200000X1.200000*%
%ADD23C,2.000000*%
%ADD24R,4.600000X2.000000*%
%ADD25O,4.200000X2.000000*%
%ADD26O,2.000000X4.200000*%
G04 APERTURE END LIST*
D10*
%TO.C,REF\u002A\u002A*%
X163500000Y-112100000D03*
%TD*%
D11*
%TO.C,J6*%
X120060000Y-87660000D03*
D12*
X120060000Y-90200000D03*
X120060000Y-92740000D03*
X120060000Y-95280000D03*
%TD*%
D10*
%TO.C,J9*%
X176250000Y-91507500D03*
X176250000Y-80077500D03*
D13*
X169900000Y-90237500D03*
D14*
X167360000Y-88967500D03*
X169900000Y-87697500D03*
X167360000Y-86427500D03*
X169900000Y-85157500D03*
X167360000Y-83887500D03*
X169900000Y-82617500D03*
X167360000Y-81347500D03*
%TD*%
D15*
%TO.C,BT1*%
X168890331Y-64905000D03*
D16*
X166890331Y-64905000D03*
%TD*%
D17*
%TO.C,J7*%
X172680000Y-124545000D03*
X172680000Y-99545000D03*
D18*
X171260000Y-106505000D03*
D19*
X171260000Y-109275000D03*
X171260000Y-112045000D03*
X171260000Y-114815000D03*
X171260000Y-117585000D03*
X174100000Y-107890000D03*
X174100000Y-110660000D03*
X174100000Y-113430000D03*
X174100000Y-116200000D03*
%TD*%
D10*
%TO.C,REF\u002A\u002A*%
X167300000Y-72000000D03*
%TD*%
D20*
%TO.C,J10*%
X160300000Y-62500000D03*
X160300000Y-60000000D03*
X155300000Y-67500000D03*
X150300000Y-62500000D03*
X150300000Y-60000000D03*
D21*
X160300000Y-67500000D03*
D22*
X155300000Y-62500000D03*
D21*
X150300000Y-67500000D03*
%TD*%
D23*
%TO.C,SW1*%
X148350000Y-113550000D03*
X141850000Y-113550000D03*
X148350000Y-109050000D03*
X141850000Y-109050000D03*
%TD*%
D11*
%TO.C,J8*%
X120060000Y-78200000D03*
D12*
X120060000Y-75660000D03*
X122600000Y-78200000D03*
X122600000Y-75660000D03*
X125140000Y-78200000D03*
X125140000Y-75660000D03*
X127680000Y-78200000D03*
X127680000Y-75660000D03*
X130220000Y-78200000D03*
X130220000Y-75660000D03*
X132760000Y-78200000D03*
X132760000Y-75660000D03*
X135300000Y-78200000D03*
X135300000Y-75660000D03*
X137840000Y-78200000D03*
X137840000Y-75660000D03*
%TD*%
D10*
%TO.C,REF\u002A\u002A*%
X109400000Y-76100000D03*
%TD*%
%TO.C,REF\u002A\u002A*%
X109500000Y-110000000D03*
%TD*%
D24*
%TO.C,J12*%
X178640331Y-72205000D03*
D25*
X178640331Y-65905000D03*
D26*
X173840331Y-69305000D03*
%TD*%
M02*
