%TF.GenerationSoftware,KiCad,Pcbnew,8.0.1*%
%TF.CreationDate,2024-05-29T14:30:23+02:00*%
%TF.ProjectId,CorntrolHub,436f726e-7472-46f6-9c48-75622e6b6963,rev?*%
%TF.SameCoordinates,Original*%
%TF.FileFunction,Soldermask,Top*%
%TF.FilePolarity,Negative*%
%FSLAX46Y46*%
G04 Gerber Fmt 4.6, Leading zero omitted, Abs format (unit mm)*
G04 Created by KiCad (PCBNEW 8.0.1) date 2024-05-29 14:30:23*
%MOMM*%
%LPD*%
G01*
G04 APERTURE LIST*
G04 Aperture macros list*
%AMRoundRect*
0 Rectangle with rounded corners*
0 $1 Rounding radius*
0 $2 $3 $4 $5 $6 $7 $8 $9 X,Y pos of 4 corners*
0 Add a 4 corners polygon primitive as box body*
4,1,4,$2,$3,$4,$5,$6,$7,$8,$9,$2,$3,0*
0 Add four circle primitives for the rounded corners*
1,1,$1+$1,$2,$3*
1,1,$1+$1,$4,$5*
1,1,$1+$1,$6,$7*
1,1,$1+$1,$8,$9*
0 Add four rect primitives between the rounded corners*
20,1,$1+$1,$2,$3,$4,$5,0*
20,1,$1+$1,$4,$5,$6,$7,0*
20,1,$1+$1,$6,$7,$8,$9,0*
20,1,$1+$1,$8,$9,$2,$3,0*%
G04 Aperture macros list end*
%ADD10RoundRect,0.250000X-0.400000X-0.625000X0.400000X-0.625000X0.400000X0.625000X-0.400000X0.625000X0*%
%ADD11RoundRect,0.250000X0.400000X0.625000X-0.400000X0.625000X-0.400000X-0.625000X0.400000X-0.625000X0*%
%ADD12RoundRect,0.250000X0.350000X1.300000X-0.350000X1.300000X-0.350000X-1.300000X0.350000X-1.300000X0*%
%ADD13RoundRect,0.250001X0.899999X1.399999X-0.899999X1.399999X-0.899999X-1.399999X0.899999X-1.399999X0*%
%ADD14C,3.200000*%
%ADD15RoundRect,0.250000X-0.350000X-1.300000X0.350000X-1.300000X0.350000X1.300000X-0.350000X1.300000X0*%
%ADD16RoundRect,0.250001X-0.899999X-1.399999X0.899999X-1.399999X0.899999X1.399999X-0.899999X1.399999X0*%
%ADD17RoundRect,0.250000X-0.412500X-0.650000X0.412500X-0.650000X0.412500X0.650000X-0.412500X0.650000X0*%
%ADD18R,1.700000X1.700000*%
%ADD19O,1.700000X1.700000*%
%ADD20RoundRect,0.243750X-0.456250X0.243750X-0.456250X-0.243750X0.456250X-0.243750X0.456250X0.243750X0*%
%ADD21R,1.500000X1.500000*%
%ADD22C,1.500000*%
%ADD23RoundRect,0.250000X-0.650000X0.412500X-0.650000X-0.412500X0.650000X-0.412500X0.650000X0.412500X0*%
%ADD24RoundRect,0.162500X0.162500X-0.837500X0.162500X0.837500X-0.162500X0.837500X-0.162500X-0.837500X0*%
%ADD25RoundRect,0.250000X0.350000X0.625000X-0.350000X0.625000X-0.350000X-0.625000X0.350000X-0.625000X0*%
%ADD26O,1.200000X1.750000*%
%ADD27C,4.000000*%
%ADD28R,1.600000X1.600000*%
%ADD29C,1.600000*%
%ADD30RoundRect,0.250000X-1.300000X0.350000X-1.300000X-0.350000X1.300000X-0.350000X1.300000X0.350000X0*%
%ADD31RoundRect,0.250001X-1.399999X0.899999X-1.399999X-0.899999X1.399999X-0.899999X1.399999X0.899999X0*%
%ADD32RoundRect,0.250000X-0.337500X-0.475000X0.337500X-0.475000X0.337500X0.475000X-0.337500X0.475000X0*%
%ADD33RoundRect,0.250000X0.625000X-0.400000X0.625000X0.400000X-0.625000X0.400000X-0.625000X-0.400000X0*%
%ADD34C,1.200000*%
%ADD35O,1.200000X2.200000*%
%ADD36O,2.200000X1.200000*%
%ADD37RoundRect,0.250000X-0.625000X0.400000X-0.625000X-0.400000X0.625000X-0.400000X0.625000X0.400000X0*%
%ADD38C,2.000000*%
%ADD39RoundRect,0.250001X0.624999X-0.462499X0.624999X0.462499X-0.624999X0.462499X-0.624999X-0.462499X0*%
%ADD40RoundRect,0.375000X0.625000X0.375000X-0.625000X0.375000X-0.625000X-0.375000X0.625000X-0.375000X0*%
%ADD41RoundRect,0.500000X0.500000X1.400000X-0.500000X1.400000X-0.500000X-1.400000X0.500000X-1.400000X0*%
%ADD42RoundRect,0.250000X0.475000X-0.337500X0.475000X0.337500X-0.475000X0.337500X-0.475000X-0.337500X0*%
%ADD43RoundRect,0.125000X-0.625000X-0.125000X0.625000X-0.125000X0.625000X0.125000X-0.625000X0.125000X0*%
%ADD44RoundRect,0.125000X-0.125000X-0.625000X0.125000X-0.625000X0.125000X0.625000X-0.125000X0.625000X0*%
%ADD45R,4.600000X2.000000*%
%ADD46O,4.200000X2.000000*%
%ADD47O,2.000000X4.200000*%
G04 APERTURE END LIST*
D10*
%TO.C,R7*%
X156500000Y-82700000D03*
X159600000Y-82700000D03*
%TD*%
D11*
%TO.C,R5*%
X159600000Y-93025000D03*
X156500000Y-93025000D03*
%TD*%
D12*
%TO.C,J2*%
X139270331Y-66355000D03*
X137270331Y-66355000D03*
X135270331Y-66355000D03*
X133270331Y-66355000D03*
D13*
X143790331Y-60755000D03*
X128750331Y-60755000D03*
%TD*%
D14*
%TO.C,REF\u002A\u002A*%
X163500000Y-112100000D03*
%TD*%
D15*
%TO.C,J5*%
X110620000Y-119800000D03*
X112620000Y-119800000D03*
X114620000Y-119800000D03*
X116620000Y-119800000D03*
D16*
X106100000Y-125400000D03*
X121140000Y-125400000D03*
%TD*%
D17*
%TO.C,C1*%
X156517500Y-104425000D03*
X159642500Y-104425000D03*
%TD*%
D18*
%TO.C,J6*%
X120060000Y-87660000D03*
D19*
X120060000Y-90200000D03*
X120060000Y-92740000D03*
X120060000Y-95280000D03*
%TD*%
D20*
%TO.C,D3*%
X163700000Y-97762500D03*
X163700000Y-99637500D03*
%TD*%
D14*
%TO.C,J9*%
X176250000Y-91507500D03*
X176250000Y-80077500D03*
D21*
X169900000Y-90237500D03*
D22*
X167360000Y-88967500D03*
X169900000Y-87697500D03*
X167360000Y-86427500D03*
X169900000Y-85157500D03*
X167360000Y-83887500D03*
X169900000Y-82617500D03*
X167360000Y-81347500D03*
%TD*%
D23*
%TO.C,C2*%
X163200000Y-76275000D03*
X163200000Y-79400000D03*
%TD*%
D24*
%TO.C,Q1*%
X155050000Y-100510000D03*
X156000000Y-100510000D03*
X156950000Y-100510000D03*
X156950000Y-97090000D03*
X156000000Y-97090000D03*
X155050000Y-97090000D03*
%TD*%
D15*
%TO.C,J4*%
X133200000Y-119800000D03*
X135200000Y-119800000D03*
X137200000Y-119800000D03*
X139200000Y-119800000D03*
D16*
X128680000Y-125400000D03*
X143720000Y-125400000D03*
%TD*%
D25*
%TO.C,BT1*%
X168890331Y-64905000D03*
D26*
X166890331Y-64905000D03*
%TD*%
D23*
%TO.C,C6*%
X119890331Y-101855000D03*
X119890331Y-104980000D03*
%TD*%
D11*
%TO.C,R3*%
X152550000Y-104325000D03*
X149450000Y-104325000D03*
%TD*%
D27*
%TO.C,J7*%
X172680000Y-124545000D03*
X172680000Y-99545000D03*
D28*
X171260000Y-106505000D03*
D29*
X171260000Y-109275000D03*
X171260000Y-112045000D03*
X171260000Y-114815000D03*
X171260000Y-117585000D03*
X174100000Y-107890000D03*
X174100000Y-110660000D03*
X174100000Y-113430000D03*
X174100000Y-116200000D03*
%TD*%
D14*
%TO.C,REF\u002A\u002A*%
X167300000Y-72000000D03*
%TD*%
D30*
%TO.C,J3*%
X112650000Y-90000000D03*
X112650000Y-92000000D03*
X112650000Y-94000000D03*
X112650000Y-96000000D03*
D31*
X107050000Y-85480000D03*
X107050000Y-100520000D03*
%TD*%
D32*
%TO.C,C4*%
X156442500Y-87600000D03*
X158517500Y-87600000D03*
%TD*%
D33*
%TO.C,R1*%
X163800000Y-106050000D03*
X163800000Y-102950000D03*
%TD*%
D34*
%TO.C,J10*%
X160300000Y-62500000D03*
X160300000Y-60000000D03*
X155300000Y-67500000D03*
X150300000Y-62500000D03*
X150300000Y-60000000D03*
D35*
X160300000Y-67500000D03*
D36*
X155300000Y-62500000D03*
D35*
X150300000Y-67500000D03*
%TD*%
D37*
%TO.C,R2*%
X149670000Y-97350000D03*
X149670000Y-100450000D03*
%TD*%
D11*
%TO.C,R4*%
X152550000Y-93000000D03*
X149450000Y-93000000D03*
%TD*%
D12*
%TO.C,J1*%
X116690331Y-66255000D03*
X114690331Y-66255000D03*
X112690331Y-66255000D03*
X110690331Y-66255000D03*
D13*
X121210331Y-60655000D03*
X106170331Y-60655000D03*
%TD*%
D38*
%TO.C,SW1*%
X148350000Y-113550000D03*
X141850000Y-113550000D03*
X148350000Y-109050000D03*
X141850000Y-109050000D03*
%TD*%
D18*
%TO.C,J8*%
X120060000Y-78200000D03*
D19*
X120060000Y-75660000D03*
X122600000Y-78200000D03*
X122600000Y-75660000D03*
X125140000Y-78200000D03*
X125140000Y-75660000D03*
X127680000Y-78200000D03*
X127680000Y-75660000D03*
X130220000Y-78200000D03*
X130220000Y-75660000D03*
X132760000Y-78200000D03*
X132760000Y-75660000D03*
X135300000Y-78200000D03*
X135300000Y-75660000D03*
X137840000Y-78200000D03*
X137840000Y-75660000D03*
%TD*%
D14*
%TO.C,REF\u002A\u002A*%
X109400000Y-76100000D03*
%TD*%
D10*
%TO.C,R8*%
X149450000Y-82600000D03*
X152550000Y-82600000D03*
%TD*%
D39*
%TO.C,D2*%
X127100000Y-100175000D03*
X127100000Y-97200000D03*
%TD*%
D40*
%TO.C,U1*%
X158950000Y-78400000D03*
X158950000Y-76100000D03*
D41*
X152650000Y-76100000D03*
D40*
X158950000Y-73800000D03*
%TD*%
D42*
%TO.C,C3*%
X133500000Y-111937500D03*
X133500000Y-109862500D03*
%TD*%
D32*
%TO.C,C5*%
X149392500Y-87500000D03*
X151467500Y-87500000D03*
%TD*%
D14*
%TO.C,REF\u002A\u002A*%
X109500000Y-110000000D03*
%TD*%
D43*
%TO.C,IC1*%
X132625000Y-89400000D03*
X132625000Y-90200000D03*
X132625000Y-91000000D03*
X132625000Y-91800000D03*
X132625000Y-92600000D03*
X132625000Y-93400000D03*
X132625000Y-94200000D03*
X132625000Y-95000000D03*
D44*
X134000000Y-96375000D03*
X134800000Y-96375000D03*
X135600000Y-96375000D03*
X136400000Y-96375000D03*
X137200000Y-96375000D03*
X138000000Y-96375000D03*
X138800000Y-96375000D03*
X139600000Y-96375000D03*
D43*
X140975000Y-95000000D03*
X140975000Y-94200000D03*
X140975000Y-93400000D03*
X140975000Y-92600000D03*
X140975000Y-91800000D03*
X140975000Y-91000000D03*
X140975000Y-90200000D03*
X140975000Y-89400000D03*
D44*
X139600000Y-88025000D03*
X138800000Y-88025000D03*
X138000000Y-88025000D03*
X137200000Y-88025000D03*
X136400000Y-88025000D03*
X135600000Y-88025000D03*
X134800000Y-88025000D03*
X134000000Y-88025000D03*
%TD*%
D10*
%TO.C,R6*%
X124150000Y-104700000D03*
X127250000Y-104700000D03*
%TD*%
D45*
%TO.C,J12*%
X178640331Y-72205000D03*
D46*
X178640331Y-65905000D03*
D47*
X173840331Y-69305000D03*
%TD*%
M02*
