%TF.GenerationSoftware,KiCad,Pcbnew,8.0.1*%
%TF.CreationDate,2024-05-29T14:30:23+02:00*%
%TF.ProjectId,CorntrolHub,436f726e-7472-46f6-9c48-75622e6b6963,rev?*%
%TF.SameCoordinates,Original*%
%TF.FileFunction,Legend,Top*%
%TF.FilePolarity,Positive*%
%FSLAX46Y46*%
G04 Gerber Fmt 4.6, Leading zero omitted, Abs format (unit mm)*
G04 Created by KiCad (PCBNEW 8.0.1) date 2024-05-29 14:30:23*
%MOMM*%
%LPD*%
G01*
G04 APERTURE LIST*
%ADD10C,0.300000*%
%ADD11C,0.150000*%
%ADD12C,0.000000*%
%ADD13C,0.120000*%
G04 APERTURE END LIST*
D10*
X119854510Y-71315114D02*
X120068796Y-71386542D01*
X120068796Y-71386542D02*
X120140225Y-71457971D01*
X120140225Y-71457971D02*
X120211653Y-71600828D01*
X120211653Y-71600828D02*
X120211653Y-71815114D01*
X120211653Y-71815114D02*
X120140225Y-71957971D01*
X120140225Y-71957971D02*
X120068796Y-72029400D01*
X120068796Y-72029400D02*
X119925939Y-72100828D01*
X119925939Y-72100828D02*
X119354510Y-72100828D01*
X119354510Y-72100828D02*
X119354510Y-70600828D01*
X119354510Y-70600828D02*
X119854510Y-70600828D01*
X119854510Y-70600828D02*
X119997368Y-70672257D01*
X119997368Y-70672257D02*
X120068796Y-70743685D01*
X120068796Y-70743685D02*
X120140225Y-70886542D01*
X120140225Y-70886542D02*
X120140225Y-71029400D01*
X120140225Y-71029400D02*
X120068796Y-71172257D01*
X120068796Y-71172257D02*
X119997368Y-71243685D01*
X119997368Y-71243685D02*
X119854510Y-71315114D01*
X119854510Y-71315114D02*
X119354510Y-71315114D01*
X120640225Y-70600828D02*
X121497368Y-70600828D01*
X121068796Y-72100828D02*
X121068796Y-70600828D01*
X121783082Y-70600828D02*
X122640225Y-70600828D01*
X122211653Y-72100828D02*
X122211653Y-70600828D01*
X125140224Y-71957971D02*
X125068796Y-72029400D01*
X125068796Y-72029400D02*
X124854510Y-72100828D01*
X124854510Y-72100828D02*
X124711653Y-72100828D01*
X124711653Y-72100828D02*
X124497367Y-72029400D01*
X124497367Y-72029400D02*
X124354510Y-71886542D01*
X124354510Y-71886542D02*
X124283081Y-71743685D01*
X124283081Y-71743685D02*
X124211653Y-71457971D01*
X124211653Y-71457971D02*
X124211653Y-71243685D01*
X124211653Y-71243685D02*
X124283081Y-70957971D01*
X124283081Y-70957971D02*
X124354510Y-70815114D01*
X124354510Y-70815114D02*
X124497367Y-70672257D01*
X124497367Y-70672257D02*
X124711653Y-70600828D01*
X124711653Y-70600828D02*
X124854510Y-70600828D01*
X124854510Y-70600828D02*
X125068796Y-70672257D01*
X125068796Y-70672257D02*
X125140224Y-70743685D01*
X125997367Y-72100828D02*
X125854510Y-72029400D01*
X125854510Y-72029400D02*
X125783081Y-71957971D01*
X125783081Y-71957971D02*
X125711653Y-71815114D01*
X125711653Y-71815114D02*
X125711653Y-71386542D01*
X125711653Y-71386542D02*
X125783081Y-71243685D01*
X125783081Y-71243685D02*
X125854510Y-71172257D01*
X125854510Y-71172257D02*
X125997367Y-71100828D01*
X125997367Y-71100828D02*
X126211653Y-71100828D01*
X126211653Y-71100828D02*
X126354510Y-71172257D01*
X126354510Y-71172257D02*
X126425939Y-71243685D01*
X126425939Y-71243685D02*
X126497367Y-71386542D01*
X126497367Y-71386542D02*
X126497367Y-71815114D01*
X126497367Y-71815114D02*
X126425939Y-71957971D01*
X126425939Y-71957971D02*
X126354510Y-72029400D01*
X126354510Y-72029400D02*
X126211653Y-72100828D01*
X126211653Y-72100828D02*
X125997367Y-72100828D01*
X127140224Y-71100828D02*
X127140224Y-72100828D01*
X127140224Y-71243685D02*
X127211653Y-71172257D01*
X127211653Y-71172257D02*
X127354510Y-71100828D01*
X127354510Y-71100828D02*
X127568796Y-71100828D01*
X127568796Y-71100828D02*
X127711653Y-71172257D01*
X127711653Y-71172257D02*
X127783082Y-71315114D01*
X127783082Y-71315114D02*
X127783082Y-72100828D01*
X128283082Y-71100828D02*
X128854510Y-71100828D01*
X128497367Y-70600828D02*
X128497367Y-71886542D01*
X128497367Y-71886542D02*
X128568796Y-72029400D01*
X128568796Y-72029400D02*
X128711653Y-72100828D01*
X128711653Y-72100828D02*
X128854510Y-72100828D01*
X129354510Y-72100828D02*
X129354510Y-71100828D01*
X129354510Y-71386542D02*
X129425939Y-71243685D01*
X129425939Y-71243685D02*
X129497368Y-71172257D01*
X129497368Y-71172257D02*
X129640225Y-71100828D01*
X129640225Y-71100828D02*
X129783082Y-71100828D01*
X130497367Y-72100828D02*
X130354510Y-72029400D01*
X130354510Y-72029400D02*
X130283081Y-71957971D01*
X130283081Y-71957971D02*
X130211653Y-71815114D01*
X130211653Y-71815114D02*
X130211653Y-71386542D01*
X130211653Y-71386542D02*
X130283081Y-71243685D01*
X130283081Y-71243685D02*
X130354510Y-71172257D01*
X130354510Y-71172257D02*
X130497367Y-71100828D01*
X130497367Y-71100828D02*
X130711653Y-71100828D01*
X130711653Y-71100828D02*
X130854510Y-71172257D01*
X130854510Y-71172257D02*
X130925939Y-71243685D01*
X130925939Y-71243685D02*
X130997367Y-71386542D01*
X130997367Y-71386542D02*
X130997367Y-71815114D01*
X130997367Y-71815114D02*
X130925939Y-71957971D01*
X130925939Y-71957971D02*
X130854510Y-72029400D01*
X130854510Y-72029400D02*
X130711653Y-72100828D01*
X130711653Y-72100828D02*
X130497367Y-72100828D01*
X131854510Y-72100828D02*
X131711653Y-72029400D01*
X131711653Y-72029400D02*
X131640224Y-71886542D01*
X131640224Y-71886542D02*
X131640224Y-70600828D01*
X133568795Y-72100828D02*
X133568795Y-70600828D01*
X133568795Y-71315114D02*
X134425938Y-71315114D01*
X134425938Y-72100828D02*
X134425938Y-70600828D01*
X135783082Y-71100828D02*
X135783082Y-72100828D01*
X135140224Y-71100828D02*
X135140224Y-71886542D01*
X135140224Y-71886542D02*
X135211653Y-72029400D01*
X135211653Y-72029400D02*
X135354510Y-72100828D01*
X135354510Y-72100828D02*
X135568796Y-72100828D01*
X135568796Y-72100828D02*
X135711653Y-72029400D01*
X135711653Y-72029400D02*
X135783082Y-71957971D01*
X136497367Y-72100828D02*
X136497367Y-70600828D01*
X136497367Y-71172257D02*
X136640225Y-71100828D01*
X136640225Y-71100828D02*
X136925939Y-71100828D01*
X136925939Y-71100828D02*
X137068796Y-71172257D01*
X137068796Y-71172257D02*
X137140225Y-71243685D01*
X137140225Y-71243685D02*
X137211653Y-71386542D01*
X137211653Y-71386542D02*
X137211653Y-71815114D01*
X137211653Y-71815114D02*
X137140225Y-71957971D01*
X137140225Y-71957971D02*
X137068796Y-72029400D01*
X137068796Y-72029400D02*
X136925939Y-72100828D01*
X136925939Y-72100828D02*
X136640225Y-72100828D01*
X136640225Y-72100828D02*
X136497367Y-72029400D01*
X156954510Y-127400828D02*
X156954510Y-125900828D01*
X158525939Y-127257971D02*
X158454511Y-127329400D01*
X158454511Y-127329400D02*
X158240225Y-127400828D01*
X158240225Y-127400828D02*
X158097368Y-127400828D01*
X158097368Y-127400828D02*
X157883082Y-127329400D01*
X157883082Y-127329400D02*
X157740225Y-127186542D01*
X157740225Y-127186542D02*
X157668796Y-127043685D01*
X157668796Y-127043685D02*
X157597368Y-126757971D01*
X157597368Y-126757971D02*
X157597368Y-126543685D01*
X157597368Y-126543685D02*
X157668796Y-126257971D01*
X157668796Y-126257971D02*
X157740225Y-126115114D01*
X157740225Y-126115114D02*
X157883082Y-125972257D01*
X157883082Y-125972257D02*
X158097368Y-125900828D01*
X158097368Y-125900828D02*
X158240225Y-125900828D01*
X158240225Y-125900828D02*
X158454511Y-125972257D01*
X158454511Y-125972257D02*
X158525939Y-126043685D01*
X158954511Y-125900828D02*
X159811654Y-125900828D01*
X159383082Y-127400828D02*
X159383082Y-125900828D01*
X161240225Y-126686542D02*
X161168796Y-126615114D01*
X161168796Y-126615114D02*
X161025939Y-126543685D01*
X161025939Y-126543685D02*
X160883082Y-126543685D01*
X160883082Y-126543685D02*
X160740225Y-126615114D01*
X160740225Y-126615114D02*
X160668796Y-126686542D01*
X160668796Y-126686542D02*
X160597368Y-126829400D01*
X160597368Y-126829400D02*
X160597368Y-126972257D01*
X160597368Y-126972257D02*
X160668796Y-127115114D01*
X160668796Y-127115114D02*
X160740225Y-127186542D01*
X160740225Y-127186542D02*
X160883082Y-127257971D01*
X160883082Y-127257971D02*
X161025939Y-127257971D01*
X161025939Y-127257971D02*
X161168796Y-127186542D01*
X161168796Y-127186542D02*
X161240225Y-127115114D01*
X161240225Y-126543685D02*
X161240225Y-127115114D01*
X161240225Y-127115114D02*
X161311653Y-127186542D01*
X161311653Y-127186542D02*
X161383082Y-127186542D01*
X161383082Y-127186542D02*
X161525939Y-127115114D01*
X161525939Y-127115114D02*
X161597368Y-126972257D01*
X161597368Y-126972257D02*
X161597368Y-126615114D01*
X161597368Y-126615114D02*
X161454511Y-126400828D01*
X161454511Y-126400828D02*
X161240225Y-126257971D01*
X161240225Y-126257971D02*
X160954511Y-126186542D01*
X160954511Y-126186542D02*
X160668796Y-126257971D01*
X160668796Y-126257971D02*
X160454511Y-126400828D01*
X160454511Y-126400828D02*
X160311653Y-126615114D01*
X160311653Y-126615114D02*
X160240225Y-126900828D01*
X160240225Y-126900828D02*
X160311653Y-127186542D01*
X160311653Y-127186542D02*
X160454511Y-127400828D01*
X160454511Y-127400828D02*
X160668796Y-127543685D01*
X160668796Y-127543685D02*
X160954511Y-127615114D01*
X160954511Y-127615114D02*
X161240225Y-127543685D01*
X161240225Y-127543685D02*
X161454511Y-127400828D01*
X162168796Y-126043685D02*
X162240224Y-125972257D01*
X162240224Y-125972257D02*
X162383082Y-125900828D01*
X162383082Y-125900828D02*
X162740224Y-125900828D01*
X162740224Y-125900828D02*
X162883082Y-125972257D01*
X162883082Y-125972257D02*
X162954510Y-126043685D01*
X162954510Y-126043685D02*
X163025939Y-126186542D01*
X163025939Y-126186542D02*
X163025939Y-126329400D01*
X163025939Y-126329400D02*
X162954510Y-126543685D01*
X162954510Y-126543685D02*
X162097367Y-127400828D01*
X162097367Y-127400828D02*
X163025939Y-127400828D01*
X163954510Y-125900828D02*
X164097367Y-125900828D01*
X164097367Y-125900828D02*
X164240224Y-125972257D01*
X164240224Y-125972257D02*
X164311653Y-126043685D01*
X164311653Y-126043685D02*
X164383081Y-126186542D01*
X164383081Y-126186542D02*
X164454510Y-126472257D01*
X164454510Y-126472257D02*
X164454510Y-126829400D01*
X164454510Y-126829400D02*
X164383081Y-127115114D01*
X164383081Y-127115114D02*
X164311653Y-127257971D01*
X164311653Y-127257971D02*
X164240224Y-127329400D01*
X164240224Y-127329400D02*
X164097367Y-127400828D01*
X164097367Y-127400828D02*
X163954510Y-127400828D01*
X163954510Y-127400828D02*
X163811653Y-127329400D01*
X163811653Y-127329400D02*
X163740224Y-127257971D01*
X163740224Y-127257971D02*
X163668795Y-127115114D01*
X163668795Y-127115114D02*
X163597367Y-126829400D01*
X163597367Y-126829400D02*
X163597367Y-126472257D01*
X163597367Y-126472257D02*
X163668795Y-126186542D01*
X163668795Y-126186542D02*
X163740224Y-126043685D01*
X163740224Y-126043685D02*
X163811653Y-125972257D01*
X163811653Y-125972257D02*
X163954510Y-125900828D01*
X165025938Y-126043685D02*
X165097366Y-125972257D01*
X165097366Y-125972257D02*
X165240224Y-125900828D01*
X165240224Y-125900828D02*
X165597366Y-125900828D01*
X165597366Y-125900828D02*
X165740224Y-125972257D01*
X165740224Y-125972257D02*
X165811652Y-126043685D01*
X165811652Y-126043685D02*
X165883081Y-126186542D01*
X165883081Y-126186542D02*
X165883081Y-126329400D01*
X165883081Y-126329400D02*
X165811652Y-126543685D01*
X165811652Y-126543685D02*
X164954509Y-127400828D01*
X164954509Y-127400828D02*
X165883081Y-127400828D01*
X167168795Y-126400828D02*
X167168795Y-127400828D01*
X166811652Y-125829400D02*
X166454509Y-126900828D01*
X166454509Y-126900828D02*
X167383080Y-126900828D01*
D11*
X157883333Y-81334819D02*
X157550000Y-80858628D01*
X157311905Y-81334819D02*
X157311905Y-80334819D01*
X157311905Y-80334819D02*
X157692857Y-80334819D01*
X157692857Y-80334819D02*
X157788095Y-80382438D01*
X157788095Y-80382438D02*
X157835714Y-80430057D01*
X157835714Y-80430057D02*
X157883333Y-80525295D01*
X157883333Y-80525295D02*
X157883333Y-80668152D01*
X157883333Y-80668152D02*
X157835714Y-80763390D01*
X157835714Y-80763390D02*
X157788095Y-80811009D01*
X157788095Y-80811009D02*
X157692857Y-80858628D01*
X157692857Y-80858628D02*
X157311905Y-80858628D01*
X158216667Y-80334819D02*
X158883333Y-80334819D01*
X158883333Y-80334819D02*
X158454762Y-81334819D01*
X157883333Y-95299819D02*
X157550000Y-94823628D01*
X157311905Y-95299819D02*
X157311905Y-94299819D01*
X157311905Y-94299819D02*
X157692857Y-94299819D01*
X157692857Y-94299819D02*
X157788095Y-94347438D01*
X157788095Y-94347438D02*
X157835714Y-94395057D01*
X157835714Y-94395057D02*
X157883333Y-94490295D01*
X157883333Y-94490295D02*
X157883333Y-94633152D01*
X157883333Y-94633152D02*
X157835714Y-94728390D01*
X157835714Y-94728390D02*
X157788095Y-94776009D01*
X157788095Y-94776009D02*
X157692857Y-94823628D01*
X157692857Y-94823628D02*
X157311905Y-94823628D01*
X158788095Y-94299819D02*
X158311905Y-94299819D01*
X158311905Y-94299819D02*
X158264286Y-94776009D01*
X158264286Y-94776009D02*
X158311905Y-94728390D01*
X158311905Y-94728390D02*
X158407143Y-94680771D01*
X158407143Y-94680771D02*
X158645238Y-94680771D01*
X158645238Y-94680771D02*
X158740476Y-94728390D01*
X158740476Y-94728390D02*
X158788095Y-94776009D01*
X158788095Y-94776009D02*
X158835714Y-94871247D01*
X158835714Y-94871247D02*
X158835714Y-95109342D01*
X158835714Y-95109342D02*
X158788095Y-95204580D01*
X158788095Y-95204580D02*
X158740476Y-95252200D01*
X158740476Y-95252200D02*
X158645238Y-95299819D01*
X158645238Y-95299819D02*
X158407143Y-95299819D01*
X158407143Y-95299819D02*
X158311905Y-95252200D01*
X158311905Y-95252200D02*
X158264286Y-95204580D01*
X135936997Y-68559819D02*
X135936997Y-69274104D01*
X135936997Y-69274104D02*
X135889378Y-69416961D01*
X135889378Y-69416961D02*
X135794140Y-69512200D01*
X135794140Y-69512200D02*
X135651283Y-69559819D01*
X135651283Y-69559819D02*
X135556045Y-69559819D01*
X136365569Y-68655057D02*
X136413188Y-68607438D01*
X136413188Y-68607438D02*
X136508426Y-68559819D01*
X136508426Y-68559819D02*
X136746521Y-68559819D01*
X136746521Y-68559819D02*
X136841759Y-68607438D01*
X136841759Y-68607438D02*
X136889378Y-68655057D01*
X136889378Y-68655057D02*
X136936997Y-68750295D01*
X136936997Y-68750295D02*
X136936997Y-68845533D01*
X136936997Y-68845533D02*
X136889378Y-68988390D01*
X136889378Y-68988390D02*
X136317950Y-69559819D01*
X136317950Y-69559819D02*
X136936997Y-69559819D01*
X113286666Y-116504819D02*
X113286666Y-117219104D01*
X113286666Y-117219104D02*
X113239047Y-117361961D01*
X113239047Y-117361961D02*
X113143809Y-117457200D01*
X113143809Y-117457200D02*
X113000952Y-117504819D01*
X113000952Y-117504819D02*
X112905714Y-117504819D01*
X114239047Y-116504819D02*
X113762857Y-116504819D01*
X113762857Y-116504819D02*
X113715238Y-116981009D01*
X113715238Y-116981009D02*
X113762857Y-116933390D01*
X113762857Y-116933390D02*
X113858095Y-116885771D01*
X113858095Y-116885771D02*
X114096190Y-116885771D01*
X114096190Y-116885771D02*
X114191428Y-116933390D01*
X114191428Y-116933390D02*
X114239047Y-116981009D01*
X114239047Y-116981009D02*
X114286666Y-117076247D01*
X114286666Y-117076247D02*
X114286666Y-117314342D01*
X114286666Y-117314342D02*
X114239047Y-117409580D01*
X114239047Y-117409580D02*
X114191428Y-117457200D01*
X114191428Y-117457200D02*
X114096190Y-117504819D01*
X114096190Y-117504819D02*
X113858095Y-117504819D01*
X113858095Y-117504819D02*
X113762857Y-117457200D01*
X113762857Y-117457200D02*
X113715238Y-117409580D01*
X157913333Y-102934580D02*
X157865714Y-102982200D01*
X157865714Y-102982200D02*
X157722857Y-103029819D01*
X157722857Y-103029819D02*
X157627619Y-103029819D01*
X157627619Y-103029819D02*
X157484762Y-102982200D01*
X157484762Y-102982200D02*
X157389524Y-102886961D01*
X157389524Y-102886961D02*
X157341905Y-102791723D01*
X157341905Y-102791723D02*
X157294286Y-102601247D01*
X157294286Y-102601247D02*
X157294286Y-102458390D01*
X157294286Y-102458390D02*
X157341905Y-102267914D01*
X157341905Y-102267914D02*
X157389524Y-102172676D01*
X157389524Y-102172676D02*
X157484762Y-102077438D01*
X157484762Y-102077438D02*
X157627619Y-102029819D01*
X157627619Y-102029819D02*
X157722857Y-102029819D01*
X157722857Y-102029819D02*
X157865714Y-102077438D01*
X157865714Y-102077438D02*
X157913333Y-102125057D01*
X158865714Y-103029819D02*
X158294286Y-103029819D01*
X158580000Y-103029819D02*
X158580000Y-102029819D01*
X158580000Y-102029819D02*
X158484762Y-102172676D01*
X158484762Y-102172676D02*
X158389524Y-102267914D01*
X158389524Y-102267914D02*
X158294286Y-102315533D01*
X119726666Y-84784819D02*
X119726666Y-85499104D01*
X119726666Y-85499104D02*
X119679047Y-85641961D01*
X119679047Y-85641961D02*
X119583809Y-85737200D01*
X119583809Y-85737200D02*
X119440952Y-85784819D01*
X119440952Y-85784819D02*
X119345714Y-85784819D01*
X120631428Y-84784819D02*
X120440952Y-84784819D01*
X120440952Y-84784819D02*
X120345714Y-84832438D01*
X120345714Y-84832438D02*
X120298095Y-84880057D01*
X120298095Y-84880057D02*
X120202857Y-85022914D01*
X120202857Y-85022914D02*
X120155238Y-85213390D01*
X120155238Y-85213390D02*
X120155238Y-85594342D01*
X120155238Y-85594342D02*
X120202857Y-85689580D01*
X120202857Y-85689580D02*
X120250476Y-85737200D01*
X120250476Y-85737200D02*
X120345714Y-85784819D01*
X120345714Y-85784819D02*
X120536190Y-85784819D01*
X120536190Y-85784819D02*
X120631428Y-85737200D01*
X120631428Y-85737200D02*
X120679047Y-85689580D01*
X120679047Y-85689580D02*
X120726666Y-85594342D01*
X120726666Y-85594342D02*
X120726666Y-85356247D01*
X120726666Y-85356247D02*
X120679047Y-85261009D01*
X120679047Y-85261009D02*
X120631428Y-85213390D01*
X120631428Y-85213390D02*
X120536190Y-85165771D01*
X120536190Y-85165771D02*
X120345714Y-85165771D01*
X120345714Y-85165771D02*
X120250476Y-85213390D01*
X120250476Y-85213390D02*
X120202857Y-85261009D01*
X120202857Y-85261009D02*
X120155238Y-85356247D01*
X165804819Y-99438094D02*
X164804819Y-99438094D01*
X164804819Y-99438094D02*
X164804819Y-99199999D01*
X164804819Y-99199999D02*
X164852438Y-99057142D01*
X164852438Y-99057142D02*
X164947676Y-98961904D01*
X164947676Y-98961904D02*
X165042914Y-98914285D01*
X165042914Y-98914285D02*
X165233390Y-98866666D01*
X165233390Y-98866666D02*
X165376247Y-98866666D01*
X165376247Y-98866666D02*
X165566723Y-98914285D01*
X165566723Y-98914285D02*
X165661961Y-98961904D01*
X165661961Y-98961904D02*
X165757200Y-99057142D01*
X165757200Y-99057142D02*
X165804819Y-99199999D01*
X165804819Y-99199999D02*
X165804819Y-99438094D01*
X164804819Y-98533332D02*
X164804819Y-97914285D01*
X164804819Y-97914285D02*
X165185771Y-98247618D01*
X165185771Y-98247618D02*
X165185771Y-98104761D01*
X165185771Y-98104761D02*
X165233390Y-98009523D01*
X165233390Y-98009523D02*
X165281009Y-97961904D01*
X165281009Y-97961904D02*
X165376247Y-97914285D01*
X165376247Y-97914285D02*
X165614342Y-97914285D01*
X165614342Y-97914285D02*
X165709580Y-97961904D01*
X165709580Y-97961904D02*
X165757200Y-98009523D01*
X165757200Y-98009523D02*
X165804819Y-98104761D01*
X165804819Y-98104761D02*
X165804819Y-98390475D01*
X165804819Y-98390475D02*
X165757200Y-98485713D01*
X165757200Y-98485713D02*
X165709580Y-98533332D01*
X164354819Y-86125833D02*
X165069104Y-86125833D01*
X165069104Y-86125833D02*
X165211961Y-86173452D01*
X165211961Y-86173452D02*
X165307200Y-86268690D01*
X165307200Y-86268690D02*
X165354819Y-86411547D01*
X165354819Y-86411547D02*
X165354819Y-86506785D01*
X165354819Y-85602023D02*
X165354819Y-85411547D01*
X165354819Y-85411547D02*
X165307200Y-85316309D01*
X165307200Y-85316309D02*
X165259580Y-85268690D01*
X165259580Y-85268690D02*
X165116723Y-85173452D01*
X165116723Y-85173452D02*
X164926247Y-85125833D01*
X164926247Y-85125833D02*
X164545295Y-85125833D01*
X164545295Y-85125833D02*
X164450057Y-85173452D01*
X164450057Y-85173452D02*
X164402438Y-85221071D01*
X164402438Y-85221071D02*
X164354819Y-85316309D01*
X164354819Y-85316309D02*
X164354819Y-85506785D01*
X164354819Y-85506785D02*
X164402438Y-85602023D01*
X164402438Y-85602023D02*
X164450057Y-85649642D01*
X164450057Y-85649642D02*
X164545295Y-85697261D01*
X164545295Y-85697261D02*
X164783390Y-85697261D01*
X164783390Y-85697261D02*
X164878628Y-85649642D01*
X164878628Y-85649642D02*
X164926247Y-85602023D01*
X164926247Y-85602023D02*
X164973866Y-85506785D01*
X164973866Y-85506785D02*
X164973866Y-85316309D01*
X164973866Y-85316309D02*
X164926247Y-85221071D01*
X164926247Y-85221071D02*
X164878628Y-85173452D01*
X164878628Y-85173452D02*
X164783390Y-85125833D01*
X165409580Y-78004166D02*
X165457200Y-78051785D01*
X165457200Y-78051785D02*
X165504819Y-78194642D01*
X165504819Y-78194642D02*
X165504819Y-78289880D01*
X165504819Y-78289880D02*
X165457200Y-78432737D01*
X165457200Y-78432737D02*
X165361961Y-78527975D01*
X165361961Y-78527975D02*
X165266723Y-78575594D01*
X165266723Y-78575594D02*
X165076247Y-78623213D01*
X165076247Y-78623213D02*
X164933390Y-78623213D01*
X164933390Y-78623213D02*
X164742914Y-78575594D01*
X164742914Y-78575594D02*
X164647676Y-78527975D01*
X164647676Y-78527975D02*
X164552438Y-78432737D01*
X164552438Y-78432737D02*
X164504819Y-78289880D01*
X164504819Y-78289880D02*
X164504819Y-78194642D01*
X164504819Y-78194642D02*
X164552438Y-78051785D01*
X164552438Y-78051785D02*
X164600057Y-78004166D01*
X164600057Y-77623213D02*
X164552438Y-77575594D01*
X164552438Y-77575594D02*
X164504819Y-77480356D01*
X164504819Y-77480356D02*
X164504819Y-77242261D01*
X164504819Y-77242261D02*
X164552438Y-77147023D01*
X164552438Y-77147023D02*
X164600057Y-77099404D01*
X164600057Y-77099404D02*
X164695295Y-77051785D01*
X164695295Y-77051785D02*
X164790533Y-77051785D01*
X164790533Y-77051785D02*
X164933390Y-77099404D01*
X164933390Y-77099404D02*
X165504819Y-77670832D01*
X165504819Y-77670832D02*
X165504819Y-77051785D01*
X154100057Y-98895238D02*
X154052438Y-98990476D01*
X154052438Y-98990476D02*
X153957200Y-99085714D01*
X153957200Y-99085714D02*
X153814342Y-99228571D01*
X153814342Y-99228571D02*
X153766723Y-99323809D01*
X153766723Y-99323809D02*
X153766723Y-99419047D01*
X154004819Y-99371428D02*
X153957200Y-99466666D01*
X153957200Y-99466666D02*
X153861961Y-99561904D01*
X153861961Y-99561904D02*
X153671485Y-99609523D01*
X153671485Y-99609523D02*
X153338152Y-99609523D01*
X153338152Y-99609523D02*
X153147676Y-99561904D01*
X153147676Y-99561904D02*
X153052438Y-99466666D01*
X153052438Y-99466666D02*
X153004819Y-99371428D01*
X153004819Y-99371428D02*
X153004819Y-99180952D01*
X153004819Y-99180952D02*
X153052438Y-99085714D01*
X153052438Y-99085714D02*
X153147676Y-98990476D01*
X153147676Y-98990476D02*
X153338152Y-98942857D01*
X153338152Y-98942857D02*
X153671485Y-98942857D01*
X153671485Y-98942857D02*
X153861961Y-98990476D01*
X153861961Y-98990476D02*
X153957200Y-99085714D01*
X153957200Y-99085714D02*
X154004819Y-99180952D01*
X154004819Y-99180952D02*
X154004819Y-99371428D01*
X154004819Y-97990476D02*
X154004819Y-98561904D01*
X154004819Y-98276190D02*
X153004819Y-98276190D01*
X153004819Y-98276190D02*
X153147676Y-98371428D01*
X153147676Y-98371428D02*
X153242914Y-98466666D01*
X153242914Y-98466666D02*
X153290533Y-98561904D01*
X135866666Y-116504819D02*
X135866666Y-117219104D01*
X135866666Y-117219104D02*
X135819047Y-117361961D01*
X135819047Y-117361961D02*
X135723809Y-117457200D01*
X135723809Y-117457200D02*
X135580952Y-117504819D01*
X135580952Y-117504819D02*
X135485714Y-117504819D01*
X136771428Y-116838152D02*
X136771428Y-117504819D01*
X136533333Y-116457200D02*
X136295238Y-117171485D01*
X136295238Y-117171485D02*
X136914285Y-117171485D01*
X167304616Y-67186009D02*
X167447473Y-67233628D01*
X167447473Y-67233628D02*
X167495092Y-67281247D01*
X167495092Y-67281247D02*
X167542711Y-67376485D01*
X167542711Y-67376485D02*
X167542711Y-67519342D01*
X167542711Y-67519342D02*
X167495092Y-67614580D01*
X167495092Y-67614580D02*
X167447473Y-67662200D01*
X167447473Y-67662200D02*
X167352235Y-67709819D01*
X167352235Y-67709819D02*
X166971283Y-67709819D01*
X166971283Y-67709819D02*
X166971283Y-66709819D01*
X166971283Y-66709819D02*
X167304616Y-66709819D01*
X167304616Y-66709819D02*
X167399854Y-66757438D01*
X167399854Y-66757438D02*
X167447473Y-66805057D01*
X167447473Y-66805057D02*
X167495092Y-66900295D01*
X167495092Y-66900295D02*
X167495092Y-66995533D01*
X167495092Y-66995533D02*
X167447473Y-67090771D01*
X167447473Y-67090771D02*
X167399854Y-67138390D01*
X167399854Y-67138390D02*
X167304616Y-67186009D01*
X167304616Y-67186009D02*
X166971283Y-67186009D01*
X167828426Y-66709819D02*
X168399854Y-66709819D01*
X168114140Y-67709819D02*
X168114140Y-66709819D01*
X169256997Y-67709819D02*
X168685569Y-67709819D01*
X168971283Y-67709819D02*
X168971283Y-66709819D01*
X168971283Y-66709819D02*
X168876045Y-66852676D01*
X168876045Y-66852676D02*
X168780807Y-66947914D01*
X168780807Y-66947914D02*
X168685569Y-66995533D01*
X122099911Y-103584166D02*
X122147531Y-103631785D01*
X122147531Y-103631785D02*
X122195150Y-103774642D01*
X122195150Y-103774642D02*
X122195150Y-103869880D01*
X122195150Y-103869880D02*
X122147531Y-104012737D01*
X122147531Y-104012737D02*
X122052292Y-104107975D01*
X122052292Y-104107975D02*
X121957054Y-104155594D01*
X121957054Y-104155594D02*
X121766578Y-104203213D01*
X121766578Y-104203213D02*
X121623721Y-104203213D01*
X121623721Y-104203213D02*
X121433245Y-104155594D01*
X121433245Y-104155594D02*
X121338007Y-104107975D01*
X121338007Y-104107975D02*
X121242769Y-104012737D01*
X121242769Y-104012737D02*
X121195150Y-103869880D01*
X121195150Y-103869880D02*
X121195150Y-103774642D01*
X121195150Y-103774642D02*
X121242769Y-103631785D01*
X121242769Y-103631785D02*
X121290388Y-103584166D01*
X121195150Y-102727023D02*
X121195150Y-102917499D01*
X121195150Y-102917499D02*
X121242769Y-103012737D01*
X121242769Y-103012737D02*
X121290388Y-103060356D01*
X121290388Y-103060356D02*
X121433245Y-103155594D01*
X121433245Y-103155594D02*
X121623721Y-103203213D01*
X121623721Y-103203213D02*
X122004673Y-103203213D01*
X122004673Y-103203213D02*
X122099911Y-103155594D01*
X122099911Y-103155594D02*
X122147531Y-103107975D01*
X122147531Y-103107975D02*
X122195150Y-103012737D01*
X122195150Y-103012737D02*
X122195150Y-102822261D01*
X122195150Y-102822261D02*
X122147531Y-102727023D01*
X122147531Y-102727023D02*
X122099911Y-102679404D01*
X122099911Y-102679404D02*
X122004673Y-102631785D01*
X122004673Y-102631785D02*
X121766578Y-102631785D01*
X121766578Y-102631785D02*
X121671340Y-102679404D01*
X121671340Y-102679404D02*
X121623721Y-102727023D01*
X121623721Y-102727023D02*
X121576102Y-102822261D01*
X121576102Y-102822261D02*
X121576102Y-103012737D01*
X121576102Y-103012737D02*
X121623721Y-103107975D01*
X121623721Y-103107975D02*
X121671340Y-103155594D01*
X121671340Y-103155594D02*
X121766578Y-103203213D01*
X150833333Y-106599819D02*
X150500000Y-106123628D01*
X150261905Y-106599819D02*
X150261905Y-105599819D01*
X150261905Y-105599819D02*
X150642857Y-105599819D01*
X150642857Y-105599819D02*
X150738095Y-105647438D01*
X150738095Y-105647438D02*
X150785714Y-105695057D01*
X150785714Y-105695057D02*
X150833333Y-105790295D01*
X150833333Y-105790295D02*
X150833333Y-105933152D01*
X150833333Y-105933152D02*
X150785714Y-106028390D01*
X150785714Y-106028390D02*
X150738095Y-106076009D01*
X150738095Y-106076009D02*
X150642857Y-106123628D01*
X150642857Y-106123628D02*
X150261905Y-106123628D01*
X151166667Y-105599819D02*
X151785714Y-105599819D01*
X151785714Y-105599819D02*
X151452381Y-105980771D01*
X151452381Y-105980771D02*
X151595238Y-105980771D01*
X151595238Y-105980771D02*
X151690476Y-106028390D01*
X151690476Y-106028390D02*
X151738095Y-106076009D01*
X151738095Y-106076009D02*
X151785714Y-106171247D01*
X151785714Y-106171247D02*
X151785714Y-106409342D01*
X151785714Y-106409342D02*
X151738095Y-106504580D01*
X151738095Y-106504580D02*
X151690476Y-106552200D01*
X151690476Y-106552200D02*
X151595238Y-106599819D01*
X151595238Y-106599819D02*
X151309524Y-106599819D01*
X151309524Y-106599819D02*
X151214286Y-106552200D01*
X151214286Y-106552200D02*
X151166667Y-106504580D01*
X167914819Y-112378333D02*
X168629104Y-112378333D01*
X168629104Y-112378333D02*
X168771961Y-112425952D01*
X168771961Y-112425952D02*
X168867200Y-112521190D01*
X168867200Y-112521190D02*
X168914819Y-112664047D01*
X168914819Y-112664047D02*
X168914819Y-112759285D01*
X167914819Y-111997380D02*
X167914819Y-111330714D01*
X167914819Y-111330714D02*
X168914819Y-111759285D01*
X114854819Y-93333333D02*
X115569104Y-93333333D01*
X115569104Y-93333333D02*
X115711961Y-93380952D01*
X115711961Y-93380952D02*
X115807200Y-93476190D01*
X115807200Y-93476190D02*
X115854819Y-93619047D01*
X115854819Y-93619047D02*
X115854819Y-93714285D01*
X114854819Y-92952380D02*
X114854819Y-92333333D01*
X114854819Y-92333333D02*
X115235771Y-92666666D01*
X115235771Y-92666666D02*
X115235771Y-92523809D01*
X115235771Y-92523809D02*
X115283390Y-92428571D01*
X115283390Y-92428571D02*
X115331009Y-92380952D01*
X115331009Y-92380952D02*
X115426247Y-92333333D01*
X115426247Y-92333333D02*
X115664342Y-92333333D01*
X115664342Y-92333333D02*
X115759580Y-92380952D01*
X115759580Y-92380952D02*
X115807200Y-92428571D01*
X115807200Y-92428571D02*
X115854819Y-92523809D01*
X115854819Y-92523809D02*
X115854819Y-92809523D01*
X115854819Y-92809523D02*
X115807200Y-92904761D01*
X115807200Y-92904761D02*
X115759580Y-92952380D01*
X157313333Y-86279580D02*
X157265714Y-86327200D01*
X157265714Y-86327200D02*
X157122857Y-86374819D01*
X157122857Y-86374819D02*
X157027619Y-86374819D01*
X157027619Y-86374819D02*
X156884762Y-86327200D01*
X156884762Y-86327200D02*
X156789524Y-86231961D01*
X156789524Y-86231961D02*
X156741905Y-86136723D01*
X156741905Y-86136723D02*
X156694286Y-85946247D01*
X156694286Y-85946247D02*
X156694286Y-85803390D01*
X156694286Y-85803390D02*
X156741905Y-85612914D01*
X156741905Y-85612914D02*
X156789524Y-85517676D01*
X156789524Y-85517676D02*
X156884762Y-85422438D01*
X156884762Y-85422438D02*
X157027619Y-85374819D01*
X157027619Y-85374819D02*
X157122857Y-85374819D01*
X157122857Y-85374819D02*
X157265714Y-85422438D01*
X157265714Y-85422438D02*
X157313333Y-85470057D01*
X158170476Y-85708152D02*
X158170476Y-86374819D01*
X157932381Y-85327200D02*
X157694286Y-86041485D01*
X157694286Y-86041485D02*
X158313333Y-86041485D01*
X162434819Y-104666666D02*
X161958628Y-104999999D01*
X162434819Y-105238094D02*
X161434819Y-105238094D01*
X161434819Y-105238094D02*
X161434819Y-104857142D01*
X161434819Y-104857142D02*
X161482438Y-104761904D01*
X161482438Y-104761904D02*
X161530057Y-104714285D01*
X161530057Y-104714285D02*
X161625295Y-104666666D01*
X161625295Y-104666666D02*
X161768152Y-104666666D01*
X161768152Y-104666666D02*
X161863390Y-104714285D01*
X161863390Y-104714285D02*
X161911009Y-104761904D01*
X161911009Y-104761904D02*
X161958628Y-104857142D01*
X161958628Y-104857142D02*
X161958628Y-105238094D01*
X162434819Y-103714285D02*
X162434819Y-104285713D01*
X162434819Y-103999999D02*
X161434819Y-103999999D01*
X161434819Y-103999999D02*
X161577676Y-104095237D01*
X161577676Y-104095237D02*
X161672914Y-104190475D01*
X161672914Y-104190475D02*
X161720533Y-104285713D01*
X151990476Y-68654819D02*
X151990476Y-69369104D01*
X151990476Y-69369104D02*
X151942857Y-69511961D01*
X151942857Y-69511961D02*
X151847619Y-69607200D01*
X151847619Y-69607200D02*
X151704762Y-69654819D01*
X151704762Y-69654819D02*
X151609524Y-69654819D01*
X152990476Y-69654819D02*
X152419048Y-69654819D01*
X152704762Y-69654819D02*
X152704762Y-68654819D01*
X152704762Y-68654819D02*
X152609524Y-68797676D01*
X152609524Y-68797676D02*
X152514286Y-68892914D01*
X152514286Y-68892914D02*
X152419048Y-68940533D01*
X153609524Y-68654819D02*
X153704762Y-68654819D01*
X153704762Y-68654819D02*
X153800000Y-68702438D01*
X153800000Y-68702438D02*
X153847619Y-68750057D01*
X153847619Y-68750057D02*
X153895238Y-68845295D01*
X153895238Y-68845295D02*
X153942857Y-69035771D01*
X153942857Y-69035771D02*
X153942857Y-69273866D01*
X153942857Y-69273866D02*
X153895238Y-69464342D01*
X153895238Y-69464342D02*
X153847619Y-69559580D01*
X153847619Y-69559580D02*
X153800000Y-69607200D01*
X153800000Y-69607200D02*
X153704762Y-69654819D01*
X153704762Y-69654819D02*
X153609524Y-69654819D01*
X153609524Y-69654819D02*
X153514286Y-69607200D01*
X153514286Y-69607200D02*
X153466667Y-69559580D01*
X153466667Y-69559580D02*
X153419048Y-69464342D01*
X153419048Y-69464342D02*
X153371429Y-69273866D01*
X153371429Y-69273866D02*
X153371429Y-69035771D01*
X153371429Y-69035771D02*
X153419048Y-68845295D01*
X153419048Y-68845295D02*
X153466667Y-68750057D01*
X153466667Y-68750057D02*
X153514286Y-68702438D01*
X153514286Y-68702438D02*
X153609524Y-68654819D01*
X151944819Y-99066666D02*
X151468628Y-99399999D01*
X151944819Y-99638094D02*
X150944819Y-99638094D01*
X150944819Y-99638094D02*
X150944819Y-99257142D01*
X150944819Y-99257142D02*
X150992438Y-99161904D01*
X150992438Y-99161904D02*
X151040057Y-99114285D01*
X151040057Y-99114285D02*
X151135295Y-99066666D01*
X151135295Y-99066666D02*
X151278152Y-99066666D01*
X151278152Y-99066666D02*
X151373390Y-99114285D01*
X151373390Y-99114285D02*
X151421009Y-99161904D01*
X151421009Y-99161904D02*
X151468628Y-99257142D01*
X151468628Y-99257142D02*
X151468628Y-99638094D01*
X151040057Y-98685713D02*
X150992438Y-98638094D01*
X150992438Y-98638094D02*
X150944819Y-98542856D01*
X150944819Y-98542856D02*
X150944819Y-98304761D01*
X150944819Y-98304761D02*
X150992438Y-98209523D01*
X150992438Y-98209523D02*
X151040057Y-98161904D01*
X151040057Y-98161904D02*
X151135295Y-98114285D01*
X151135295Y-98114285D02*
X151230533Y-98114285D01*
X151230533Y-98114285D02*
X151373390Y-98161904D01*
X151373390Y-98161904D02*
X151944819Y-98733332D01*
X151944819Y-98733332D02*
X151944819Y-98114285D01*
X150833333Y-95274819D02*
X150500000Y-94798628D01*
X150261905Y-95274819D02*
X150261905Y-94274819D01*
X150261905Y-94274819D02*
X150642857Y-94274819D01*
X150642857Y-94274819D02*
X150738095Y-94322438D01*
X150738095Y-94322438D02*
X150785714Y-94370057D01*
X150785714Y-94370057D02*
X150833333Y-94465295D01*
X150833333Y-94465295D02*
X150833333Y-94608152D01*
X150833333Y-94608152D02*
X150785714Y-94703390D01*
X150785714Y-94703390D02*
X150738095Y-94751009D01*
X150738095Y-94751009D02*
X150642857Y-94798628D01*
X150642857Y-94798628D02*
X150261905Y-94798628D01*
X151690476Y-94608152D02*
X151690476Y-95274819D01*
X151452381Y-94227200D02*
X151214286Y-94941485D01*
X151214286Y-94941485D02*
X151833333Y-94941485D01*
X113356997Y-68459819D02*
X113356997Y-69174104D01*
X113356997Y-69174104D02*
X113309378Y-69316961D01*
X113309378Y-69316961D02*
X113214140Y-69412200D01*
X113214140Y-69412200D02*
X113071283Y-69459819D01*
X113071283Y-69459819D02*
X112976045Y-69459819D01*
X114356997Y-69459819D02*
X113785569Y-69459819D01*
X114071283Y-69459819D02*
X114071283Y-68459819D01*
X114071283Y-68459819D02*
X113976045Y-68602676D01*
X113976045Y-68602676D02*
X113880807Y-68697914D01*
X113880807Y-68697914D02*
X113785569Y-68745533D01*
X143766667Y-115957200D02*
X143909524Y-116004819D01*
X143909524Y-116004819D02*
X144147619Y-116004819D01*
X144147619Y-116004819D02*
X144242857Y-115957200D01*
X144242857Y-115957200D02*
X144290476Y-115909580D01*
X144290476Y-115909580D02*
X144338095Y-115814342D01*
X144338095Y-115814342D02*
X144338095Y-115719104D01*
X144338095Y-115719104D02*
X144290476Y-115623866D01*
X144290476Y-115623866D02*
X144242857Y-115576247D01*
X144242857Y-115576247D02*
X144147619Y-115528628D01*
X144147619Y-115528628D02*
X143957143Y-115481009D01*
X143957143Y-115481009D02*
X143861905Y-115433390D01*
X143861905Y-115433390D02*
X143814286Y-115385771D01*
X143814286Y-115385771D02*
X143766667Y-115290533D01*
X143766667Y-115290533D02*
X143766667Y-115195295D01*
X143766667Y-115195295D02*
X143814286Y-115100057D01*
X143814286Y-115100057D02*
X143861905Y-115052438D01*
X143861905Y-115052438D02*
X143957143Y-115004819D01*
X143957143Y-115004819D02*
X144195238Y-115004819D01*
X144195238Y-115004819D02*
X144338095Y-115052438D01*
X144671429Y-115004819D02*
X144909524Y-116004819D01*
X144909524Y-116004819D02*
X145100000Y-115290533D01*
X145100000Y-115290533D02*
X145290476Y-116004819D01*
X145290476Y-116004819D02*
X145528572Y-115004819D01*
X146433333Y-116004819D02*
X145861905Y-116004819D01*
X146147619Y-116004819D02*
X146147619Y-115004819D01*
X146147619Y-115004819D02*
X146052381Y-115147676D01*
X146052381Y-115147676D02*
X145957143Y-115242914D01*
X145957143Y-115242914D02*
X145861905Y-115290533D01*
X117184819Y-77263333D02*
X117899104Y-77263333D01*
X117899104Y-77263333D02*
X118041961Y-77310952D01*
X118041961Y-77310952D02*
X118137200Y-77406190D01*
X118137200Y-77406190D02*
X118184819Y-77549047D01*
X118184819Y-77549047D02*
X118184819Y-77644285D01*
X117613390Y-76644285D02*
X117565771Y-76739523D01*
X117565771Y-76739523D02*
X117518152Y-76787142D01*
X117518152Y-76787142D02*
X117422914Y-76834761D01*
X117422914Y-76834761D02*
X117375295Y-76834761D01*
X117375295Y-76834761D02*
X117280057Y-76787142D01*
X117280057Y-76787142D02*
X117232438Y-76739523D01*
X117232438Y-76739523D02*
X117184819Y-76644285D01*
X117184819Y-76644285D02*
X117184819Y-76453809D01*
X117184819Y-76453809D02*
X117232438Y-76358571D01*
X117232438Y-76358571D02*
X117280057Y-76310952D01*
X117280057Y-76310952D02*
X117375295Y-76263333D01*
X117375295Y-76263333D02*
X117422914Y-76263333D01*
X117422914Y-76263333D02*
X117518152Y-76310952D01*
X117518152Y-76310952D02*
X117565771Y-76358571D01*
X117565771Y-76358571D02*
X117613390Y-76453809D01*
X117613390Y-76453809D02*
X117613390Y-76644285D01*
X117613390Y-76644285D02*
X117661009Y-76739523D01*
X117661009Y-76739523D02*
X117708628Y-76787142D01*
X117708628Y-76787142D02*
X117803866Y-76834761D01*
X117803866Y-76834761D02*
X117994342Y-76834761D01*
X117994342Y-76834761D02*
X118089580Y-76787142D01*
X118089580Y-76787142D02*
X118137200Y-76739523D01*
X118137200Y-76739523D02*
X118184819Y-76644285D01*
X118184819Y-76644285D02*
X118184819Y-76453809D01*
X118184819Y-76453809D02*
X118137200Y-76358571D01*
X118137200Y-76358571D02*
X118089580Y-76310952D01*
X118089580Y-76310952D02*
X117994342Y-76263333D01*
X117994342Y-76263333D02*
X117803866Y-76263333D01*
X117803866Y-76263333D02*
X117708628Y-76310952D01*
X117708628Y-76310952D02*
X117661009Y-76358571D01*
X117661009Y-76358571D02*
X117613390Y-76453809D01*
X150833333Y-81234819D02*
X150500000Y-80758628D01*
X150261905Y-81234819D02*
X150261905Y-80234819D01*
X150261905Y-80234819D02*
X150642857Y-80234819D01*
X150642857Y-80234819D02*
X150738095Y-80282438D01*
X150738095Y-80282438D02*
X150785714Y-80330057D01*
X150785714Y-80330057D02*
X150833333Y-80425295D01*
X150833333Y-80425295D02*
X150833333Y-80568152D01*
X150833333Y-80568152D02*
X150785714Y-80663390D01*
X150785714Y-80663390D02*
X150738095Y-80711009D01*
X150738095Y-80711009D02*
X150642857Y-80758628D01*
X150642857Y-80758628D02*
X150261905Y-80758628D01*
X151404762Y-80663390D02*
X151309524Y-80615771D01*
X151309524Y-80615771D02*
X151261905Y-80568152D01*
X151261905Y-80568152D02*
X151214286Y-80472914D01*
X151214286Y-80472914D02*
X151214286Y-80425295D01*
X151214286Y-80425295D02*
X151261905Y-80330057D01*
X151261905Y-80330057D02*
X151309524Y-80282438D01*
X151309524Y-80282438D02*
X151404762Y-80234819D01*
X151404762Y-80234819D02*
X151595238Y-80234819D01*
X151595238Y-80234819D02*
X151690476Y-80282438D01*
X151690476Y-80282438D02*
X151738095Y-80330057D01*
X151738095Y-80330057D02*
X151785714Y-80425295D01*
X151785714Y-80425295D02*
X151785714Y-80472914D01*
X151785714Y-80472914D02*
X151738095Y-80568152D01*
X151738095Y-80568152D02*
X151690476Y-80615771D01*
X151690476Y-80615771D02*
X151595238Y-80663390D01*
X151595238Y-80663390D02*
X151404762Y-80663390D01*
X151404762Y-80663390D02*
X151309524Y-80711009D01*
X151309524Y-80711009D02*
X151261905Y-80758628D01*
X151261905Y-80758628D02*
X151214286Y-80853866D01*
X151214286Y-80853866D02*
X151214286Y-81044342D01*
X151214286Y-81044342D02*
X151261905Y-81139580D01*
X151261905Y-81139580D02*
X151309524Y-81187200D01*
X151309524Y-81187200D02*
X151404762Y-81234819D01*
X151404762Y-81234819D02*
X151595238Y-81234819D01*
X151595238Y-81234819D02*
X151690476Y-81187200D01*
X151690476Y-81187200D02*
X151738095Y-81139580D01*
X151738095Y-81139580D02*
X151785714Y-81044342D01*
X151785714Y-81044342D02*
X151785714Y-80853866D01*
X151785714Y-80853866D02*
X151738095Y-80758628D01*
X151738095Y-80758628D02*
X151690476Y-80711009D01*
X151690476Y-80711009D02*
X151595238Y-80663390D01*
X125734819Y-99425594D02*
X124734819Y-99425594D01*
X124734819Y-99425594D02*
X124734819Y-99187499D01*
X124734819Y-99187499D02*
X124782438Y-99044642D01*
X124782438Y-99044642D02*
X124877676Y-98949404D01*
X124877676Y-98949404D02*
X124972914Y-98901785D01*
X124972914Y-98901785D02*
X125163390Y-98854166D01*
X125163390Y-98854166D02*
X125306247Y-98854166D01*
X125306247Y-98854166D02*
X125496723Y-98901785D01*
X125496723Y-98901785D02*
X125591961Y-98949404D01*
X125591961Y-98949404D02*
X125687200Y-99044642D01*
X125687200Y-99044642D02*
X125734819Y-99187499D01*
X125734819Y-99187499D02*
X125734819Y-99425594D01*
X124830057Y-98473213D02*
X124782438Y-98425594D01*
X124782438Y-98425594D02*
X124734819Y-98330356D01*
X124734819Y-98330356D02*
X124734819Y-98092261D01*
X124734819Y-98092261D02*
X124782438Y-97997023D01*
X124782438Y-97997023D02*
X124830057Y-97949404D01*
X124830057Y-97949404D02*
X124925295Y-97901785D01*
X124925295Y-97901785D02*
X125020533Y-97901785D01*
X125020533Y-97901785D02*
X125163390Y-97949404D01*
X125163390Y-97949404D02*
X125734819Y-98520832D01*
X125734819Y-98520832D02*
X125734819Y-97901785D01*
X154938095Y-79854819D02*
X154938095Y-80664342D01*
X154938095Y-80664342D02*
X154985714Y-80759580D01*
X154985714Y-80759580D02*
X155033333Y-80807200D01*
X155033333Y-80807200D02*
X155128571Y-80854819D01*
X155128571Y-80854819D02*
X155319047Y-80854819D01*
X155319047Y-80854819D02*
X155414285Y-80807200D01*
X155414285Y-80807200D02*
X155461904Y-80759580D01*
X155461904Y-80759580D02*
X155509523Y-80664342D01*
X155509523Y-80664342D02*
X155509523Y-79854819D01*
X156509523Y-80854819D02*
X155938095Y-80854819D01*
X156223809Y-80854819D02*
X156223809Y-79854819D01*
X156223809Y-79854819D02*
X156128571Y-79997676D01*
X156128571Y-79997676D02*
X156033333Y-80092914D01*
X156033333Y-80092914D02*
X155938095Y-80140533D01*
X132179580Y-111066666D02*
X132227200Y-111114285D01*
X132227200Y-111114285D02*
X132274819Y-111257142D01*
X132274819Y-111257142D02*
X132274819Y-111352380D01*
X132274819Y-111352380D02*
X132227200Y-111495237D01*
X132227200Y-111495237D02*
X132131961Y-111590475D01*
X132131961Y-111590475D02*
X132036723Y-111638094D01*
X132036723Y-111638094D02*
X131846247Y-111685713D01*
X131846247Y-111685713D02*
X131703390Y-111685713D01*
X131703390Y-111685713D02*
X131512914Y-111638094D01*
X131512914Y-111638094D02*
X131417676Y-111590475D01*
X131417676Y-111590475D02*
X131322438Y-111495237D01*
X131322438Y-111495237D02*
X131274819Y-111352380D01*
X131274819Y-111352380D02*
X131274819Y-111257142D01*
X131274819Y-111257142D02*
X131322438Y-111114285D01*
X131322438Y-111114285D02*
X131370057Y-111066666D01*
X131274819Y-110733332D02*
X131274819Y-110114285D01*
X131274819Y-110114285D02*
X131655771Y-110447618D01*
X131655771Y-110447618D02*
X131655771Y-110304761D01*
X131655771Y-110304761D02*
X131703390Y-110209523D01*
X131703390Y-110209523D02*
X131751009Y-110161904D01*
X131751009Y-110161904D02*
X131846247Y-110114285D01*
X131846247Y-110114285D02*
X132084342Y-110114285D01*
X132084342Y-110114285D02*
X132179580Y-110161904D01*
X132179580Y-110161904D02*
X132227200Y-110209523D01*
X132227200Y-110209523D02*
X132274819Y-110304761D01*
X132274819Y-110304761D02*
X132274819Y-110590475D01*
X132274819Y-110590475D02*
X132227200Y-110685713D01*
X132227200Y-110685713D02*
X132179580Y-110733332D01*
X150263333Y-86179580D02*
X150215714Y-86227200D01*
X150215714Y-86227200D02*
X150072857Y-86274819D01*
X150072857Y-86274819D02*
X149977619Y-86274819D01*
X149977619Y-86274819D02*
X149834762Y-86227200D01*
X149834762Y-86227200D02*
X149739524Y-86131961D01*
X149739524Y-86131961D02*
X149691905Y-86036723D01*
X149691905Y-86036723D02*
X149644286Y-85846247D01*
X149644286Y-85846247D02*
X149644286Y-85703390D01*
X149644286Y-85703390D02*
X149691905Y-85512914D01*
X149691905Y-85512914D02*
X149739524Y-85417676D01*
X149739524Y-85417676D02*
X149834762Y-85322438D01*
X149834762Y-85322438D02*
X149977619Y-85274819D01*
X149977619Y-85274819D02*
X150072857Y-85274819D01*
X150072857Y-85274819D02*
X150215714Y-85322438D01*
X150215714Y-85322438D02*
X150263333Y-85370057D01*
X151168095Y-85274819D02*
X150691905Y-85274819D01*
X150691905Y-85274819D02*
X150644286Y-85751009D01*
X150644286Y-85751009D02*
X150691905Y-85703390D01*
X150691905Y-85703390D02*
X150787143Y-85655771D01*
X150787143Y-85655771D02*
X151025238Y-85655771D01*
X151025238Y-85655771D02*
X151120476Y-85703390D01*
X151120476Y-85703390D02*
X151168095Y-85751009D01*
X151168095Y-85751009D02*
X151215714Y-85846247D01*
X151215714Y-85846247D02*
X151215714Y-86084342D01*
X151215714Y-86084342D02*
X151168095Y-86179580D01*
X151168095Y-86179580D02*
X151120476Y-86227200D01*
X151120476Y-86227200D02*
X151025238Y-86274819D01*
X151025238Y-86274819D02*
X150787143Y-86274819D01*
X150787143Y-86274819D02*
X150691905Y-86227200D01*
X150691905Y-86227200D02*
X150644286Y-86179580D01*
X135823810Y-86774819D02*
X135823810Y-85774819D01*
X136871428Y-86679580D02*
X136823809Y-86727200D01*
X136823809Y-86727200D02*
X136680952Y-86774819D01*
X136680952Y-86774819D02*
X136585714Y-86774819D01*
X136585714Y-86774819D02*
X136442857Y-86727200D01*
X136442857Y-86727200D02*
X136347619Y-86631961D01*
X136347619Y-86631961D02*
X136300000Y-86536723D01*
X136300000Y-86536723D02*
X136252381Y-86346247D01*
X136252381Y-86346247D02*
X136252381Y-86203390D01*
X136252381Y-86203390D02*
X136300000Y-86012914D01*
X136300000Y-86012914D02*
X136347619Y-85917676D01*
X136347619Y-85917676D02*
X136442857Y-85822438D01*
X136442857Y-85822438D02*
X136585714Y-85774819D01*
X136585714Y-85774819D02*
X136680952Y-85774819D01*
X136680952Y-85774819D02*
X136823809Y-85822438D01*
X136823809Y-85822438D02*
X136871428Y-85870057D01*
X137823809Y-86774819D02*
X137252381Y-86774819D01*
X137538095Y-86774819D02*
X137538095Y-85774819D01*
X137538095Y-85774819D02*
X137442857Y-85917676D01*
X137442857Y-85917676D02*
X137347619Y-86012914D01*
X137347619Y-86012914D02*
X137252381Y-86060533D01*
X125533333Y-103334819D02*
X125200000Y-102858628D01*
X124961905Y-103334819D02*
X124961905Y-102334819D01*
X124961905Y-102334819D02*
X125342857Y-102334819D01*
X125342857Y-102334819D02*
X125438095Y-102382438D01*
X125438095Y-102382438D02*
X125485714Y-102430057D01*
X125485714Y-102430057D02*
X125533333Y-102525295D01*
X125533333Y-102525295D02*
X125533333Y-102668152D01*
X125533333Y-102668152D02*
X125485714Y-102763390D01*
X125485714Y-102763390D02*
X125438095Y-102811009D01*
X125438095Y-102811009D02*
X125342857Y-102858628D01*
X125342857Y-102858628D02*
X124961905Y-102858628D01*
X126390476Y-102334819D02*
X126200000Y-102334819D01*
X126200000Y-102334819D02*
X126104762Y-102382438D01*
X126104762Y-102382438D02*
X126057143Y-102430057D01*
X126057143Y-102430057D02*
X125961905Y-102572914D01*
X125961905Y-102572914D02*
X125914286Y-102763390D01*
X125914286Y-102763390D02*
X125914286Y-103144342D01*
X125914286Y-103144342D02*
X125961905Y-103239580D01*
X125961905Y-103239580D02*
X126009524Y-103287200D01*
X126009524Y-103287200D02*
X126104762Y-103334819D01*
X126104762Y-103334819D02*
X126295238Y-103334819D01*
X126295238Y-103334819D02*
X126390476Y-103287200D01*
X126390476Y-103287200D02*
X126438095Y-103239580D01*
X126438095Y-103239580D02*
X126485714Y-103144342D01*
X126485714Y-103144342D02*
X126485714Y-102906247D01*
X126485714Y-102906247D02*
X126438095Y-102811009D01*
X126438095Y-102811009D02*
X126390476Y-102763390D01*
X126390476Y-102763390D02*
X126295238Y-102715771D01*
X126295238Y-102715771D02*
X126104762Y-102715771D01*
X126104762Y-102715771D02*
X126009524Y-102763390D01*
X126009524Y-102763390D02*
X125961905Y-102811009D01*
X125961905Y-102811009D02*
X125914286Y-102906247D01*
X177830807Y-74159819D02*
X177830807Y-74874104D01*
X177830807Y-74874104D02*
X177783188Y-75016961D01*
X177783188Y-75016961D02*
X177687950Y-75112200D01*
X177687950Y-75112200D02*
X177545093Y-75159819D01*
X177545093Y-75159819D02*
X177449855Y-75159819D01*
X178830807Y-75159819D02*
X178259379Y-75159819D01*
X178545093Y-75159819D02*
X178545093Y-74159819D01*
X178545093Y-74159819D02*
X178449855Y-74302676D01*
X178449855Y-74302676D02*
X178354617Y-74397914D01*
X178354617Y-74397914D02*
X178259379Y-74445533D01*
X179211760Y-74255057D02*
X179259379Y-74207438D01*
X179259379Y-74207438D02*
X179354617Y-74159819D01*
X179354617Y-74159819D02*
X179592712Y-74159819D01*
X179592712Y-74159819D02*
X179687950Y-74207438D01*
X179687950Y-74207438D02*
X179735569Y-74255057D01*
X179735569Y-74255057D02*
X179783188Y-74350295D01*
X179783188Y-74350295D02*
X179783188Y-74445533D01*
X179783188Y-74445533D02*
X179735569Y-74588390D01*
X179735569Y-74588390D02*
X179164141Y-75159819D01*
X179164141Y-75159819D02*
X179783188Y-75159819D01*
D12*
%TO.C,G\u002A\u002A\u002A*%
G36*
X153513334Y-126787333D02*
G01*
X152666667Y-126787333D01*
X152666667Y-122046000D01*
X153513334Y-122046000D01*
X153513334Y-126787333D01*
G37*
G36*
X166771961Y-122384667D02*
G01*
X166991427Y-122992183D01*
X167190927Y-123550828D01*
X167363320Y-124040094D01*
X167501466Y-124439473D01*
X167598223Y-124728458D01*
X167646450Y-124886542D01*
X167650563Y-124907725D01*
X167599892Y-124971883D01*
X167428220Y-124997577D01*
X167168548Y-124992392D01*
X166684429Y-124967000D01*
X166437849Y-124310833D01*
X166191269Y-123654667D01*
X164364672Y-123654667D01*
X164216949Y-124056833D01*
X164069835Y-124457727D01*
X163963236Y-124727121D01*
X163875491Y-124891021D01*
X163784943Y-124975433D01*
X163669931Y-125006364D01*
X163508796Y-125009819D01*
X163423654Y-125009333D01*
X163143242Y-124992368D01*
X163011546Y-124938391D01*
X162996000Y-124896278D01*
X163022901Y-124790437D01*
X163099020Y-124545553D01*
X163217476Y-124182356D01*
X163371392Y-123721573D01*
X163553888Y-123183935D01*
X163675894Y-122829167D01*
X164606495Y-122829167D01*
X164683573Y-122858648D01*
X164890028Y-122880851D01*
X165185941Y-122892025D01*
X165282000Y-122892667D01*
X165596568Y-122887902D01*
X165833439Y-122875240D01*
X165952542Y-122857130D01*
X165959334Y-122851281D01*
X165933379Y-122760078D01*
X165862421Y-122540264D01*
X165756817Y-122223257D01*
X165626924Y-121840474D01*
X165604954Y-121776319D01*
X165250575Y-120742743D01*
X164929450Y-121754205D01*
X164807084Y-122143994D01*
X164705891Y-122474653D01*
X164635803Y-122713118D01*
X164606755Y-122826325D01*
X164606495Y-122829167D01*
X163675894Y-122829167D01*
X163758087Y-122590169D01*
X163831841Y-122377445D01*
X164667683Y-119971667D01*
X165895462Y-119971667D01*
X166771961Y-122384667D01*
G37*
G36*
X162318667Y-120860667D02*
G01*
X161387334Y-120860667D01*
X161387334Y-119929333D01*
X162318667Y-119929333D01*
X162318667Y-120860667D01*
G37*
G36*
X151904667Y-126787333D02*
G01*
X151142667Y-126787333D01*
X151142667Y-122046000D01*
X151904667Y-122046000D01*
X151904667Y-126787333D01*
G37*
G36*
X152009502Y-119267505D02*
G01*
X152074000Y-119268641D01*
X153471000Y-119294333D01*
X153497035Y-119654167D01*
X153523070Y-120014000D01*
X152036535Y-120014000D01*
X151497136Y-120015317D01*
X151100971Y-120021047D01*
X150821949Y-120033858D01*
X150633982Y-120056418D01*
X150510978Y-120091395D01*
X150426847Y-120141457D01*
X150380667Y-120183333D01*
X150239163Y-120444574D01*
X150211334Y-120691333D01*
X150203118Y-120908108D01*
X150146254Y-121004431D01*
X149992413Y-121029186D01*
X149876503Y-121030000D01*
X149657588Y-121017498D01*
X149550309Y-120952119D01*
X149497332Y-120792055D01*
X149488610Y-120747148D01*
X149480582Y-120388661D01*
X149566113Y-120018406D01*
X149724768Y-119708813D01*
X149808215Y-119614368D01*
X149984337Y-119482667D01*
X150203985Y-119385524D01*
X150491743Y-119319187D01*
X150872192Y-119279906D01*
X151369918Y-119263929D01*
X152009502Y-119267505D01*
G37*
G36*
X153513334Y-118490000D02*
G01*
X146909334Y-118490000D01*
X146907807Y-120035167D01*
X146906281Y-121580333D01*
X146569141Y-121860281D01*
X146232000Y-122140228D01*
X146232000Y-117812667D01*
X153513334Y-117812667D01*
X153513334Y-118490000D01*
G37*
G36*
X153513334Y-121368667D02*
G01*
X152325343Y-121368667D01*
X151834251Y-121365319D01*
X151488811Y-121353750D01*
X151265445Y-121331670D01*
X151140577Y-121296788D01*
X151091362Y-121248819D01*
X151066277Y-121078664D01*
X151072853Y-120888985D01*
X151100334Y-120649000D01*
X152306834Y-120625509D01*
X153513334Y-120602017D01*
X153513334Y-121368667D01*
G37*
G36*
X149195334Y-122554000D02*
G01*
X148726947Y-122554000D01*
X148151899Y-122628241D01*
X147651457Y-122843596D01*
X147245075Y-123189012D01*
X147013245Y-123527667D01*
X146887704Y-123912577D01*
X146865197Y-124357587D01*
X146934680Y-124818504D01*
X147085109Y-125251135D01*
X147305439Y-125611287D01*
X147584627Y-125854769D01*
X147596423Y-125861221D01*
X147673964Y-125889193D01*
X147673462Y-125830238D01*
X147592493Y-125655898D01*
X147576204Y-125623810D01*
X147434635Y-125170242D01*
X147440227Y-124692079D01*
X147582522Y-124226616D01*
X147851062Y-123811145D01*
X148163258Y-123530347D01*
X148408253Y-123380582D01*
X148638350Y-123303569D01*
X148932159Y-123276832D01*
X149055645Y-123275214D01*
X149500708Y-123306466D01*
X149803336Y-123409726D01*
X149978535Y-123594659D01*
X150041310Y-123870932D01*
X150042000Y-123910618D01*
X150027577Y-124146327D01*
X149968355Y-124230993D01*
X149840411Y-124181619D01*
X149750651Y-124117640D01*
X149529938Y-124029875D01*
X149220673Y-123997087D01*
X148894266Y-124018704D01*
X148622127Y-124094150D01*
X148561734Y-124127201D01*
X148342962Y-124358383D01*
X148193918Y-124684067D01*
X148137487Y-125036026D01*
X148172936Y-125286282D01*
X148354604Y-125630410D01*
X148647047Y-125877536D01*
X149062068Y-126033448D01*
X149611475Y-126103938D01*
X149851500Y-126109528D01*
X150380667Y-126110000D01*
X150380667Y-126787333D01*
X149202731Y-126787333D01*
X148732471Y-126786061D01*
X148393174Y-126778120D01*
X148146468Y-126757324D01*
X147953982Y-126717489D01*
X147777346Y-126652429D01*
X147578190Y-126555957D01*
X147492078Y-126511563D01*
X146972623Y-126155272D01*
X146575107Y-125702981D01*
X146304282Y-125180624D01*
X146164900Y-124614133D01*
X146161715Y-124029441D01*
X146299478Y-123452481D01*
X146582943Y-122909188D01*
X146785049Y-122653529D01*
X147265205Y-122214617D01*
X147781246Y-121934773D01*
X148353503Y-121804449D01*
X148619291Y-121792000D01*
X149195334Y-121792000D01*
X149195334Y-122554000D01*
G37*
G36*
X160456000Y-121645408D02*
G01*
X160451373Y-122361906D01*
X160434354Y-122932352D01*
X160400238Y-123379851D01*
X160344320Y-123727511D01*
X160261893Y-123998437D01*
X160148252Y-124215736D01*
X159998693Y-124402514D01*
X159868842Y-124528618D01*
X159606837Y-124725211D01*
X159325727Y-124877664D01*
X159213159Y-124918560D01*
X158835648Y-124982840D01*
X158381633Y-125001827D01*
X157924464Y-124976994D01*
X157537487Y-124909816D01*
X157450334Y-124883140D01*
X157093997Y-124683366D01*
X156765939Y-124368146D01*
X156513084Y-123990337D01*
X156402205Y-123702452D01*
X156370708Y-123489871D01*
X156344100Y-123138199D01*
X156323761Y-122677640D01*
X156311073Y-122138398D01*
X156307334Y-121627508D01*
X156307334Y-119929333D01*
X157323334Y-119929333D01*
X157323334Y-121667719D01*
X157326845Y-122344022D01*
X157340389Y-122872607D01*
X157368482Y-123275001D01*
X157415640Y-123572730D01*
X157486380Y-123787319D01*
X157585217Y-123940295D01*
X157716668Y-124053183D01*
X157838685Y-124124135D01*
X158170943Y-124225843D01*
X158530226Y-124226129D01*
X158814465Y-124175810D01*
X159041143Y-124074297D01*
X159216102Y-123904959D01*
X159345184Y-123651168D01*
X159434231Y-123296295D01*
X159489087Y-122823709D01*
X159515593Y-122216782D01*
X159519591Y-121458885D01*
X159519263Y-121411000D01*
X159508671Y-119971667D01*
X159982335Y-119946275D01*
X160456000Y-119920883D01*
X160456000Y-121645408D01*
G37*
G36*
X161853000Y-121513695D02*
G01*
X162276334Y-121513702D01*
X162299218Y-123261518D01*
X162322102Y-125009333D01*
X161894394Y-125009333D01*
X161602308Y-124987707D01*
X161443315Y-124926743D01*
X161425116Y-124901004D01*
X161413345Y-124785818D01*
X161405255Y-124529400D01*
X161401146Y-124159821D01*
X161401312Y-123705149D01*
X161406053Y-123193454D01*
X161406607Y-123153182D01*
X161429667Y-121513688D01*
X161853000Y-121513695D01*
G37*
D13*
%TO.C,R7*%
X157322936Y-81790000D02*
X158777064Y-81790000D01*
X157322936Y-83610000D02*
X158777064Y-83610000D01*
%TO.C,R5*%
X158777064Y-92115000D02*
X157322936Y-92115000D01*
X158777064Y-93935000D02*
X157322936Y-93935000D01*
%TO.C,J2*%
X129910331Y-62665000D02*
X129910331Y-64665000D01*
X129910331Y-64665000D02*
X132410331Y-64665000D01*
X140130331Y-64665000D02*
X140130331Y-67905000D01*
X142520331Y-58545000D02*
X130020331Y-58545000D01*
X142630331Y-62665000D02*
X142630331Y-64665000D01*
X142630331Y-64665000D02*
X140130331Y-64665000D01*
%TO.C,J5*%
X107260000Y-121490000D02*
X109760000Y-121490000D01*
X107260000Y-123490000D02*
X107260000Y-121490000D01*
X107370000Y-127610000D02*
X119870000Y-127610000D01*
X109760000Y-121490000D02*
X109760000Y-118250000D01*
X119980000Y-121490000D02*
X117480000Y-121490000D01*
X119980000Y-123490000D02*
X119980000Y-121490000D01*
%TO.C,C1*%
X157368748Y-103515000D02*
X158791252Y-103515000D01*
X157368748Y-105335000D02*
X158791252Y-105335000D01*
%TO.C,J6*%
X118730000Y-86330000D02*
X120060000Y-86330000D01*
X118730000Y-87660000D02*
X118730000Y-86330000D01*
X118730000Y-88930000D02*
X118730000Y-96610000D01*
X118730000Y-88930000D02*
X121390000Y-88930000D01*
X118730000Y-96610000D02*
X121390000Y-96610000D01*
X121390000Y-88930000D02*
X121390000Y-96610000D01*
%TO.C,D3*%
X162740000Y-97015000D02*
X162740000Y-99700000D01*
X164660000Y-97015000D02*
X162740000Y-97015000D01*
X164660000Y-99700000D02*
X164660000Y-97015000D01*
%TO.C,J9*%
X166020000Y-78032500D02*
X166020000Y-93552500D01*
X166020000Y-78032500D02*
X183980000Y-78032500D01*
X166020000Y-93552500D02*
X183980000Y-93552500D01*
X169400000Y-94237500D02*
X170400000Y-94237500D01*
X169900000Y-93737500D02*
X169400000Y-94237500D01*
X170400000Y-94237500D02*
X169900000Y-93737500D01*
X183980000Y-93552500D02*
X183980000Y-78032500D01*
%TO.C,C2*%
X162290000Y-77126248D02*
X162290000Y-78548752D01*
X164110000Y-77126248D02*
X164110000Y-78548752D01*
%TO.C,Q1*%
X154490000Y-98720000D02*
X154490000Y-97920000D01*
X154490000Y-98720000D02*
X154490000Y-99520000D01*
X157560000Y-99680000D02*
X157560000Y-97920000D01*
X154540000Y-100020000D02*
X154210000Y-100260000D01*
X154210000Y-99780000D01*
X154540000Y-100020000D01*
G36*
X154540000Y-100020000D02*
G01*
X154210000Y-100260000D01*
X154210000Y-99780000D01*
X154540000Y-100020000D01*
G37*
%TO.C,J4*%
X129840000Y-121490000D02*
X132340000Y-121490000D01*
X129840000Y-123490000D02*
X129840000Y-121490000D01*
X129950000Y-127610000D02*
X142450000Y-127610000D01*
X132340000Y-121490000D02*
X132340000Y-118250000D01*
X142560000Y-121490000D02*
X140060000Y-121490000D01*
X142560000Y-123490000D02*
X142560000Y-121490000D01*
%TO.C,BT1*%
X164830331Y-58545000D02*
X164830331Y-66365000D01*
X164830331Y-64765000D02*
X165750331Y-64765000D01*
X164830331Y-66365000D02*
X165750331Y-66365000D01*
X165590331Y-60805000D02*
X166590331Y-60805000D01*
X165590331Y-62405000D02*
X165590331Y-60805000D01*
X165750331Y-64765000D02*
X166030331Y-64765000D01*
X165750331Y-66365000D02*
X165750331Y-64765000D01*
X166590331Y-60805000D02*
X166590331Y-62405000D01*
X166590331Y-62405000D02*
X165590331Y-62405000D01*
X167390331Y-62905000D02*
X167390331Y-58545000D01*
X168390331Y-58545000D02*
X168390331Y-62905000D01*
X168390331Y-62905000D02*
X167390331Y-62905000D01*
X169190331Y-60805000D02*
X169190331Y-58545000D01*
X169190331Y-60805000D02*
X169190331Y-62405000D01*
X169190331Y-62405000D02*
X170190331Y-62405000D01*
X169690331Y-60805000D02*
X169690331Y-58545000D01*
X169750331Y-64765000D02*
X169750331Y-65980000D01*
X169750331Y-64765000D02*
X170030331Y-64765000D01*
X170030331Y-64765000D02*
X170030331Y-66365000D01*
X170030331Y-66365000D02*
X170950331Y-66365000D01*
X170190331Y-60805000D02*
X169190331Y-60805000D01*
X170190331Y-62405000D02*
X170190331Y-60805000D01*
X170950331Y-58545000D02*
X164830331Y-58545000D01*
X170950331Y-64765000D02*
X170030331Y-64765000D01*
X170950331Y-66365000D02*
X170950331Y-58545000D01*
%TO.C,C6*%
X118980331Y-102706248D02*
X118980331Y-104128752D01*
X120800331Y-102706248D02*
X120800331Y-104128752D01*
%TO.C,R3*%
X151727064Y-103415000D02*
X150272936Y-103415000D01*
X151727064Y-105235000D02*
X150272936Y-105235000D01*
%TO.C,J7*%
X168505662Y-106255000D02*
X168938675Y-106505000D01*
X168505662Y-106755000D02*
X168505662Y-106255000D01*
X168938675Y-106505000D02*
X168505662Y-106755000D01*
X169400000Y-96560000D02*
X183940000Y-96560000D01*
X169400000Y-127530000D02*
X169400000Y-96560000D01*
X183940000Y-127530000D02*
X169400000Y-127530000D01*
%TO.C,J3*%
X104840000Y-86750000D02*
X104840000Y-99250000D01*
X108960000Y-86640000D02*
X110960000Y-86640000D01*
X108960000Y-99360000D02*
X110960000Y-99360000D01*
X110960000Y-86640000D02*
X110960000Y-89140000D01*
X110960000Y-89140000D02*
X114200000Y-89140000D01*
X110960000Y-99360000D02*
X110960000Y-96860000D01*
%TO.C,C4*%
X157218748Y-86865000D02*
X157741252Y-86865000D01*
X157218748Y-88335000D02*
X157741252Y-88335000D01*
%TO.C,R1*%
X162890000Y-105227064D02*
X162890000Y-103772936D01*
X164710000Y-105227064D02*
X164710000Y-103772936D01*
%TO.C,J10*%
X149300000Y-59200000D02*
X150800000Y-59200000D01*
X149300000Y-70200000D02*
X149300000Y-59200000D01*
X150800000Y-58000000D02*
X152300000Y-58000000D01*
X150800000Y-59200000D02*
X150800000Y-58000000D01*
X152300000Y-56200000D02*
X158300000Y-56200000D01*
X152300000Y-58000000D02*
X152300000Y-56200000D01*
X153300000Y-56200000D02*
X153300000Y-59200000D01*
X153300000Y-59200000D02*
X157300000Y-59200000D01*
X157300000Y-59200000D02*
X157300000Y-56200000D01*
X158300000Y-56200000D02*
X158300000Y-58000000D01*
X158300000Y-58000000D02*
X159800000Y-58000000D01*
X159800000Y-58000000D02*
X159800000Y-59200000D01*
X159800000Y-59200000D02*
X161300000Y-59200000D01*
X161300000Y-59200000D02*
X161300000Y-70200000D01*
X161300000Y-70200000D02*
X149300000Y-70200000D01*
%TO.C,R2*%
X148760000Y-98172936D02*
X148760000Y-99627064D01*
X150580000Y-98172936D02*
X150580000Y-99627064D01*
%TO.C,R4*%
X151727064Y-92090000D02*
X150272936Y-92090000D01*
X151727064Y-93910000D02*
X150272936Y-93910000D01*
%TO.C,J1*%
X107330331Y-62565000D02*
X107330331Y-64565000D01*
X107330331Y-64565000D02*
X109830331Y-64565000D01*
X117550331Y-64565000D02*
X117550331Y-67805000D01*
X119940331Y-58445000D02*
X107440331Y-58445000D01*
X120050331Y-62565000D02*
X120050331Y-64565000D01*
X120050331Y-64565000D02*
X117550331Y-64565000D01*
%TO.C,SW1*%
X141600000Y-110550000D02*
X141600000Y-112050000D01*
X142850000Y-114550000D02*
X147350000Y-114550000D01*
X147350000Y-108050000D02*
X142850000Y-108050000D01*
X148600000Y-112050000D02*
X148600000Y-110550000D01*
%TO.C,J8*%
X118730000Y-74330000D02*
X139170000Y-74330000D01*
X118730000Y-76930000D02*
X118730000Y-74330000D01*
X118730000Y-79530000D02*
X118730000Y-78200000D01*
X120060000Y-79530000D02*
X118730000Y-79530000D01*
X121330000Y-76930000D02*
X118730000Y-76930000D01*
X121330000Y-79530000D02*
X121330000Y-76930000D01*
X121330000Y-79530000D02*
X139170000Y-79530000D01*
X139170000Y-79530000D02*
X139170000Y-74330000D01*
%TO.C,R8*%
X150272936Y-81690000D02*
X151727064Y-81690000D01*
X150272936Y-83510000D02*
X151727064Y-83510000D01*
%TO.C,D2*%
X125965000Y-97087500D02*
X125965000Y-101147500D01*
X125965000Y-101147500D02*
X128235000Y-101147500D01*
X128235000Y-101147500D02*
X128235000Y-97087500D01*
%TO.C,U1*%
X153890000Y-72690000D02*
X153890000Y-73950000D01*
X153890000Y-79510000D02*
X153890000Y-78250000D01*
X157650000Y-72690000D02*
X153890000Y-72690000D01*
X157650000Y-79510000D02*
X153890000Y-79510000D01*
X159170000Y-79740000D02*
X158690000Y-79740000D01*
X158930000Y-79410000D01*
X159170000Y-79740000D01*
G36*
X159170000Y-79740000D02*
G01*
X158690000Y-79740000D01*
X158930000Y-79410000D01*
X159170000Y-79740000D01*
G37*
%TO.C,C3*%
X132765000Y-111161252D02*
X132765000Y-110638748D01*
X134235000Y-111161252D02*
X134235000Y-110638748D01*
%TO.C,C5*%
X150168748Y-86765000D02*
X150691252Y-86765000D01*
X150168748Y-88235000D02*
X150691252Y-88235000D01*
%TO.C,IC1*%
X133190000Y-88590000D02*
X133190000Y-88890000D01*
X133190000Y-95810000D02*
X133190000Y-95510000D01*
X133490000Y-88590000D02*
X133190000Y-88590000D01*
X133490000Y-95810000D02*
X133190000Y-95810000D01*
X140110000Y-88590000D02*
X140410000Y-88590000D01*
X140110000Y-95810000D02*
X140410000Y-95810000D01*
X140410000Y-88590000D02*
X140410000Y-88890000D01*
X140410000Y-95810000D02*
X140410000Y-95510000D01*
X132587500Y-88890000D02*
X132247500Y-88420000D01*
X132927500Y-88420000D01*
X132587500Y-88890000D01*
G36*
X132587500Y-88890000D02*
G01*
X132247500Y-88420000D01*
X132927500Y-88420000D01*
X132587500Y-88890000D01*
G37*
%TO.C,R6*%
X124972936Y-103790000D02*
X126427064Y-103790000D01*
X124972936Y-105610000D02*
X126427064Y-105610000D01*
%TO.C,J12*%
X174040331Y-58405000D02*
X183240331Y-58405000D01*
X174040331Y-67005000D02*
X174040331Y-58405000D01*
X174040331Y-72905000D02*
X174040331Y-71605000D01*
X176040331Y-72905000D02*
X174040331Y-72905000D01*
X181840331Y-73205000D02*
X183540331Y-73205000D01*
X183240331Y-58405000D02*
X183240331Y-72905000D01*
X183240331Y-72905000D02*
X181240331Y-72905000D01*
X183540331Y-73205000D02*
X183540331Y-71905000D01*
%TD*%
M02*
