%TF.GenerationSoftware,KiCad,Pcbnew,8.0.4*%
%TF.CreationDate,2024-09-20T14:01:47+02:00*%
%TF.ProjectId,TTL2RS232v1,54544c32-5253-4323-9332-76312e6b6963,rev?*%
%TF.SameCoordinates,Original*%
%TF.FileFunction,Copper,L2,Bot*%
%TF.FilePolarity,Positive*%
%FSLAX46Y46*%
G04 Gerber Fmt 4.6, Leading zero omitted, Abs format (unit mm)*
G04 Created by KiCad (PCBNEW 8.0.4) date 2024-09-20 14:01:47*
%MOMM*%
%LPD*%
G01*
G04 APERTURE LIST*
G04 Aperture macros list*
%AMOutline5P*
0 Free polygon, 5 corners , with rotation*
0 The origin of the aperture is its center*
0 number of corners: always 5*
0 $1 to $10 corner X, Y*
0 $11 Rotation angle, in degrees counterclockwise*
0 create outline with 5 corners*
4,1,5,$1,$2,$3,$4,$5,$6,$7,$8,$9,$10,$1,$2,$11*%
%AMOutline6P*
0 Free polygon, 6 corners , with rotation*
0 The origin of the aperture is its center*
0 number of corners: always 6*
0 $1 to $12 corner X, Y*
0 $13 Rotation angle, in degrees counterclockwise*
0 create outline with 6 corners*
4,1,6,$1,$2,$3,$4,$5,$6,$7,$8,$9,$10,$11,$12,$1,$2,$13*%
%AMOutline7P*
0 Free polygon, 7 corners , with rotation*
0 The origin of the aperture is its center*
0 number of corners: always 7*
0 $1 to $14 corner X, Y*
0 $15 Rotation angle, in degrees counterclockwise*
0 create outline with 7 corners*
4,1,7,$1,$2,$3,$4,$5,$6,$7,$8,$9,$10,$11,$12,$13,$14,$1,$2,$15*%
%AMOutline8P*
0 Free polygon, 8 corners , with rotation*
0 The origin of the aperture is its center*
0 number of corners: always 8*
0 $1 to $16 corner X, Y*
0 $17 Rotation angle, in degrees counterclockwise*
0 create outline with 8 corners*
4,1,8,$1,$2,$3,$4,$5,$6,$7,$8,$9,$10,$11,$12,$13,$14,$15,$16,$1,$2,$17*%
G04 Aperture macros list end*
%TA.AperFunction,ComponentPad*%
%ADD10Outline8P,-0.787400X0.393700X-0.393700X0.787400X0.393700X0.787400X0.787400X0.393700X0.787400X-0.393700X0.393700X-0.787400X-0.393700X-0.787400X-0.787400X-0.393700X90.000000*%
%TD*%
%TA.AperFunction,ComponentPad*%
%ADD11C,1.600200*%
%TD*%
%TA.AperFunction,ComponentPad*%
%ADD12Outline8P,-0.800100X0.400050X-0.400050X0.800100X0.400050X0.800100X0.800100X0.400050X0.800100X-0.400050X0.400050X-0.800100X-0.400050X-0.800100X-0.800100X-0.400050X90.000000*%
%TD*%
%TA.AperFunction,ComponentPad*%
%ADD13O,1.574800X3.149600*%
%TD*%
%TA.AperFunction,ComponentPad*%
%ADD14Outline8P,-0.787400X0.393700X-0.393700X0.787400X0.393700X0.787400X0.787400X0.393700X0.787400X-0.393700X0.393700X-0.787400X-0.393700X-0.787400X-0.787400X-0.393700X180.000000*%
%TD*%
%TA.AperFunction,ComponentPad*%
%ADD15O,1.762000X3.524000*%
%TD*%
%TA.AperFunction,ComponentPad*%
%ADD16Outline8P,-0.889000X0.444500X-0.444500X0.889000X0.444500X0.889000X0.889000X0.444500X0.889000X-0.444500X0.444500X-0.889000X-0.444500X-0.889000X-0.889000X-0.444500X0.000000*%
%TD*%
%TA.AperFunction,ComponentPad*%
%ADD17Outline8P,-0.787400X0.393700X-0.393700X0.787400X0.393700X0.787400X0.787400X0.393700X0.787400X-0.393700X0.393700X-0.787400X-0.393700X-0.787400X-0.787400X-0.393700X0.000000*%
%TD*%
%TA.AperFunction,Conductor*%
%ADD18C,0.800000*%
%TD*%
%TA.AperFunction,Conductor*%
%ADD19C,0.508000*%
%TD*%
G04 APERTURE END LIST*
D10*
%TO.P,R1,1*%
%TO.N,N$1*%
X142316100Y-121508600D03*
%TO.P,R1,2*%
%TO.N,VCC*%
X142316100Y-111348600D03*
%TD*%
D11*
%TO.P,C1,+*%
%TO.N,N$3*%
X160096100Y-120238600D03*
D12*
%TO.P,C1,-*%
%TO.N,GNDA*%
X160096100Y-117698600D03*
%TD*%
D13*
%TO.P,Q3,B*%
%TO.N,N$2*%
X153746100Y-108808600D03*
%TO.P,Q3,C*%
%TO.N,N$1*%
X151206100Y-108808600D03*
%TO.P,Q3,E*%
%TO.N,GNDA*%
X156286100Y-108808600D03*
%TD*%
D10*
%TO.P,R3,1*%
%TO.N,N$3*%
X138506100Y-121508600D03*
%TO.P,R3,2*%
%TO.N,N$5*%
X138506100Y-111348600D03*
%TD*%
D14*
%TO.P,R4,1*%
%TO.N,N$2*%
X161366100Y-103728600D03*
%TO.P,R4,2*%
%TO.N,N$4*%
X151206100Y-103728600D03*
%TD*%
D13*
%TO.P,Q4,B*%
%TO.N,N$6*%
X144856100Y-103728600D03*
%TO.P,Q4,C*%
%TO.N,N$5*%
X142316100Y-103728600D03*
%TO.P,Q4,E*%
%TO.N,VCC*%
X147396100Y-103728600D03*
%TD*%
D15*
%TO.P,X2,1*%
%TO.N,VCC*%
X146126100Y-120238600D03*
%TO.P,X2,2*%
%TO.N,N$9*%
X148666100Y-120238600D03*
%TO.P,X2,3*%
%TO.N,N$1*%
X151206100Y-120238600D03*
%TO.P,X2,4*%
%TO.N,GNDA*%
X153746100Y-120238600D03*
%TD*%
D16*
%TO.P,X1,1*%
%TO.N,N/C*%
X143179700Y-98648600D03*
%TO.P,X1,2*%
%TO.N,N$5*%
X145922900Y-98648600D03*
%TO.P,X1,3*%
%TO.N,N$4*%
X148666100Y-98648600D03*
%TO.P,X1,4*%
%TO.N,N/C*%
X151409300Y-98648600D03*
%TO.P,X1,5*%
%TO.N,GNDA*%
X154152500Y-98648600D03*
%TO.P,X1,6*%
%TO.N,N/C*%
X144551300Y-96108600D03*
%TO.P,X1,7*%
X147294500Y-96108600D03*
%TO.P,X1,8*%
X150037700Y-96108600D03*
%TO.P,X1,9*%
X152780900Y-96108600D03*
%TD*%
D17*
%TO.P,R5,1*%
%TO.N,N$6*%
X138506100Y-108808600D03*
%TO.P,R5,2*%
%TO.N,N$9*%
X148666100Y-108808600D03*
%TD*%
D13*
%TO.P,D1,A*%
%TO.N,N$3*%
X134696100Y-121508600D03*
%TO.P,D1,C*%
%TO.N,N$4*%
X134696100Y-111348600D03*
%TD*%
D17*
%TO.P,R2,1*%
%TO.N,GNDA*%
X151206100Y-113888600D03*
%TO.P,R2,2*%
%TO.N,N$2*%
X161366100Y-113888600D03*
%TD*%
D18*
%TO.N,N$3*%
X157134700Y-123200000D02*
X160096100Y-120238600D01*
X140197500Y-123200000D02*
X157134700Y-123200000D01*
X138506100Y-121508600D02*
X140197500Y-123200000D01*
D19*
X134787500Y-121600000D02*
X134696100Y-121508600D01*
D18*
X138414700Y-121600000D02*
X134787500Y-121600000D01*
D19*
X138506100Y-121508600D02*
X138414700Y-121600000D01*
D18*
%TO.N,GNDA*%
X156284700Y-117700000D02*
X160094700Y-117700000D01*
X153746100Y-120238600D02*
X156284700Y-117700000D01*
X160094700Y-117700000D02*
X160096100Y-117698600D01*
X153746100Y-118246100D02*
X151256900Y-115756900D01*
X153746100Y-120238600D02*
X153746100Y-118246100D01*
X151256900Y-115756900D02*
X151256900Y-114295000D01*
%TO.N,N$1*%
X151206100Y-118706100D02*
X151206100Y-120238600D01*
X149301100Y-116801100D02*
X151206100Y-118706100D01*
X149301100Y-111983600D02*
X149301100Y-116801100D01*
X151206100Y-110078600D02*
X149301100Y-111983600D01*
X151206100Y-108808600D02*
X151206100Y-110078600D01*
%TO.N,N$9*%
X147603900Y-109870800D02*
X148666100Y-108808600D01*
D19*
X147603900Y-110400000D02*
X147603900Y-109870800D01*
D18*
X148666100Y-117951600D02*
X147603900Y-116889400D01*
X148666100Y-120238600D02*
X148666100Y-117951600D01*
X147603900Y-116889400D02*
X147603900Y-109464100D01*
%TO.N,VCC*%
X145973700Y-120086200D02*
X146126100Y-120238600D01*
X142316100Y-111450200D02*
X145973700Y-115107800D01*
D19*
X142316100Y-111348600D02*
X142316100Y-111450200D01*
D18*
X145973700Y-115107800D02*
X145973700Y-120086200D01*
X147396100Y-104998600D02*
X147396100Y-103728600D01*
X142316100Y-110078600D02*
X147396100Y-104998600D01*
X142316100Y-111348600D02*
X142316100Y-110078600D01*
%TO.N,N$6*%
X143354700Y-106500000D02*
X140700000Y-106500000D01*
X140700000Y-106500000D02*
X138506100Y-108693900D01*
X144856100Y-104998600D02*
X143354700Y-106500000D01*
X144856100Y-103728600D02*
X144856100Y-104998600D01*
%TO.N,GNDA*%
X156300000Y-100796100D02*
X154152500Y-98648600D01*
X156300000Y-105300000D02*
X156300000Y-100796100D01*
D19*
X156286100Y-105313900D02*
X156300000Y-105300000D01*
D18*
X156286100Y-108808600D02*
X156286100Y-105313900D01*
%TO.N,N$5*%
X142316100Y-102255400D02*
X145922900Y-98648600D01*
X142316100Y-103728600D02*
X142316100Y-102255400D01*
%TO.N,N$4*%
X149000000Y-101522500D02*
X149000000Y-98982500D01*
X149000000Y-98982500D02*
X148666100Y-98648600D01*
X151206100Y-103728600D02*
X149000000Y-101522500D01*
D19*
%TO.N,N$1*%
X151206100Y-121508600D02*
X151206100Y-120238600D01*
X151256900Y-119984600D02*
X151206100Y-120238600D01*
X142316100Y-121610200D02*
X142316100Y-121508600D01*
X151256900Y-109011800D02*
X151206100Y-108808600D01*
X151256900Y-120391000D02*
X151206100Y-120238600D01*
D18*
%TO.N,N$2*%
X161416900Y-113888600D02*
X161416900Y-103728600D01*
X153746100Y-108808600D02*
X153746100Y-110078600D01*
D19*
X161416900Y-113888600D02*
X161366100Y-113888600D01*
D18*
X157556100Y-113888600D02*
X161366100Y-113888600D01*
X153746100Y-110078600D02*
X157556100Y-113888600D01*
D19*
X161416900Y-103728600D02*
X161366100Y-103728600D01*
%TO.N,N$5*%
X145567300Y-98851800D02*
X145922900Y-98648600D01*
%TO.N,N$6*%
X144754500Y-103728600D02*
X144856100Y-103728600D01*
%TO.N,VCC*%
X147599300Y-103728600D02*
X147396100Y-103728600D01*
%TD*%
%TA.AperFunction,Conductor*%
%TO.N,GNDA*%
G36*
X164763639Y-86019685D02*
G01*
X164809394Y-86072489D01*
X164820600Y-86124000D01*
X164820600Y-116172000D01*
X164800325Y-123876326D01*
X164780464Y-123943314D01*
X164727539Y-123988930D01*
X164676325Y-124000000D01*
X157918876Y-124000000D01*
X157851837Y-123980315D01*
X157806082Y-123927511D01*
X157796138Y-123858353D01*
X157825163Y-123794797D01*
X157831195Y-123788319D01*
X159600250Y-122019262D01*
X160032641Y-121586870D01*
X160093962Y-121553387D01*
X160109505Y-121551026D01*
X160324204Y-121532242D01*
X160545377Y-121472979D01*
X160752900Y-121376210D01*
X160940465Y-121244875D01*
X161102375Y-121082965D01*
X161233710Y-120895400D01*
X161330479Y-120687877D01*
X161389742Y-120466704D01*
X161409699Y-120238600D01*
X161408399Y-120223747D01*
X161389742Y-120010500D01*
X161389742Y-120010496D01*
X161330479Y-119789323D01*
X161233710Y-119581801D01*
X161233708Y-119581798D01*
X161233707Y-119581796D01*
X161102378Y-119394239D01*
X161102373Y-119394233D01*
X160940465Y-119232325D01*
X160777452Y-119118181D01*
X160733827Y-119063604D01*
X160726635Y-118994106D01*
X160758157Y-118931751D01*
X160772506Y-118918682D01*
X160820746Y-118881207D01*
X160820759Y-118881196D01*
X161278696Y-118423259D01*
X161278707Y-118423246D01*
X161330629Y-118356408D01*
X161330629Y-118356407D01*
X161385650Y-118223574D01*
X161396199Y-118139591D01*
X161396200Y-118139585D01*
X161396200Y-117948600D01*
X160420837Y-117948600D01*
X160421301Y-117948136D01*
X160474805Y-117855465D01*
X160502500Y-117752104D01*
X160502500Y-117645096D01*
X160474805Y-117541735D01*
X160421301Y-117449064D01*
X160420837Y-117448600D01*
X161396200Y-117448600D01*
X161396200Y-117257608D01*
X161396199Y-117257606D01*
X161385650Y-117173624D01*
X161330629Y-117040791D01*
X161278707Y-116973953D01*
X161278696Y-116973940D01*
X160820759Y-116516003D01*
X160820746Y-116515992D01*
X160753908Y-116464070D01*
X160621074Y-116409049D01*
X160537091Y-116398500D01*
X160346100Y-116398500D01*
X160346100Y-117373863D01*
X160345636Y-117373399D01*
X160252965Y-117319895D01*
X160149604Y-117292200D01*
X160042596Y-117292200D01*
X159939235Y-117319895D01*
X159846564Y-117373399D01*
X159846100Y-117373863D01*
X159846100Y-116398500D01*
X159655106Y-116398500D01*
X159571124Y-116409049D01*
X159438291Y-116464070D01*
X159371453Y-116515992D01*
X159371440Y-116516003D01*
X158913503Y-116973940D01*
X158913492Y-116973953D01*
X158861570Y-117040791D01*
X158861570Y-117040792D01*
X158806549Y-117173625D01*
X158796000Y-117257608D01*
X158796000Y-117448600D01*
X159771363Y-117448600D01*
X159770899Y-117449064D01*
X159717395Y-117541735D01*
X159689700Y-117645096D01*
X159689700Y-117752104D01*
X159717395Y-117855465D01*
X159770899Y-117948136D01*
X159771363Y-117948600D01*
X158796000Y-117948600D01*
X158796000Y-118139593D01*
X158806549Y-118223575D01*
X158861570Y-118356408D01*
X158913492Y-118423246D01*
X158913503Y-118423259D01*
X159371440Y-118881196D01*
X159371453Y-118881207D01*
X159419694Y-118918682D01*
X159460561Y-118975354D01*
X159464301Y-119045123D01*
X159429727Y-119105839D01*
X159414748Y-119118182D01*
X159251735Y-119232325D01*
X159251733Y-119232326D01*
X159089826Y-119394233D01*
X159089821Y-119394239D01*
X158958492Y-119581796D01*
X158958490Y-119581800D01*
X158861722Y-119789321D01*
X158861718Y-119789330D01*
X158802459Y-120010490D01*
X158802457Y-120010500D01*
X158783674Y-120225185D01*
X158758221Y-120290254D01*
X158747827Y-120302058D01*
X156794706Y-122255181D01*
X156733383Y-122288666D01*
X156707025Y-122291500D01*
X154826591Y-122291500D01*
X154759552Y-122271815D01*
X154713797Y-122219011D01*
X154703853Y-122149853D01*
X154732878Y-122086297D01*
X154738910Y-122079819D01*
X154799465Y-122019263D01*
X154927236Y-121843402D01*
X155025924Y-121649717D01*
X155093094Y-121442989D01*
X155093094Y-121442986D01*
X155127100Y-121228286D01*
X155127100Y-120488600D01*
X154179112Y-120488600D01*
X154212025Y-120431593D01*
X154246100Y-120304426D01*
X154246100Y-120172774D01*
X154212025Y-120045607D01*
X154179112Y-119988600D01*
X155127100Y-119988600D01*
X155127100Y-119248913D01*
X155093094Y-119034213D01*
X155093094Y-119034210D01*
X155025924Y-118827482D01*
X154927236Y-118633797D01*
X154799465Y-118457936D01*
X154645763Y-118304234D01*
X154469902Y-118176463D01*
X154276214Y-118077774D01*
X154276216Y-118077774D01*
X154069483Y-118010604D01*
X153996100Y-117998981D01*
X153996100Y-119805588D01*
X153939093Y-119772675D01*
X153811926Y-119738600D01*
X153680274Y-119738600D01*
X153553107Y-119772675D01*
X153496100Y-119805588D01*
X153496100Y-117998981D01*
X153496099Y-117998981D01*
X153422716Y-118010604D01*
X153215984Y-118077774D01*
X153022297Y-118176463D01*
X152846436Y-118304234D01*
X152692733Y-118457937D01*
X152581671Y-118610800D01*
X152526340Y-118653465D01*
X152456727Y-118659444D01*
X152394932Y-118626838D01*
X152381035Y-118610799D01*
X152265957Y-118452407D01*
X152265953Y-118452402D01*
X152111299Y-118297748D01*
X152098051Y-118288123D01*
X151963223Y-118190165D01*
X151933009Y-118158740D01*
X151911776Y-118126962D01*
X150245919Y-116461105D01*
X150212434Y-116399782D01*
X150209600Y-116373424D01*
X150209600Y-115079668D01*
X150229285Y-115012629D01*
X150282089Y-114966874D01*
X150351247Y-114956930D01*
X150414803Y-114985955D01*
X150421282Y-114991987D01*
X150487797Y-115058503D01*
X150487802Y-115058507D01*
X150554641Y-115110429D01*
X150554645Y-115110431D01*
X150687473Y-115165450D01*
X150771458Y-115175999D01*
X150771465Y-115176000D01*
X150956100Y-115176000D01*
X150956100Y-114213337D01*
X150956564Y-114213801D01*
X151049235Y-114267305D01*
X151152596Y-114295000D01*
X151259604Y-114295000D01*
X151362965Y-114267305D01*
X151455636Y-114213801D01*
X151456100Y-114213337D01*
X151456100Y-115176000D01*
X151640742Y-115176000D01*
X151640743Y-115175999D01*
X151724725Y-115165450D01*
X151857558Y-115110429D01*
X151924396Y-115058507D01*
X151924410Y-115058495D01*
X152375996Y-114606910D01*
X152376007Y-114606897D01*
X152427929Y-114540058D01*
X152427931Y-114540054D01*
X152482950Y-114407226D01*
X152493499Y-114323241D01*
X152493500Y-114323235D01*
X152493500Y-114138600D01*
X151530837Y-114138600D01*
X151531301Y-114138136D01*
X151584805Y-114045465D01*
X151612500Y-113942104D01*
X151612500Y-113835096D01*
X151584805Y-113731735D01*
X151531301Y-113639064D01*
X151530837Y-113638600D01*
X152493500Y-113638600D01*
X152493500Y-113453958D01*
X152493499Y-113453956D01*
X152482950Y-113369974D01*
X152427929Y-113237141D01*
X152376007Y-113170303D01*
X152375995Y-113170289D01*
X151924410Y-112718703D01*
X151924397Y-112718692D01*
X151857558Y-112666770D01*
X151857554Y-112666768D01*
X151724726Y-112611749D01*
X151640741Y-112601200D01*
X151456100Y-112601200D01*
X151456100Y-113563863D01*
X151455636Y-113563399D01*
X151362965Y-113509895D01*
X151259604Y-113482200D01*
X151152596Y-113482200D01*
X151049235Y-113509895D01*
X150956564Y-113563399D01*
X150956100Y-113563863D01*
X150956100Y-112601200D01*
X150771456Y-112601200D01*
X150687474Y-112611749D01*
X150554641Y-112666770D01*
X150487803Y-112718692D01*
X150487790Y-112718703D01*
X150421281Y-112785213D01*
X150359958Y-112818698D01*
X150290266Y-112813714D01*
X150234333Y-112771842D01*
X150209916Y-112706378D01*
X150209600Y-112697532D01*
X150209600Y-112411274D01*
X150229285Y-112344235D01*
X150245914Y-112323598D01*
X151830352Y-110739159D01*
X151861735Y-110716359D01*
X151885300Y-110704353D01*
X152050322Y-110584457D01*
X152194557Y-110440222D01*
X152314453Y-110275200D01*
X152365615Y-110174787D01*
X152413589Y-110123992D01*
X152481410Y-110107197D01*
X152547545Y-110129734D01*
X152586584Y-110174787D01*
X152637747Y-110275200D01*
X152757643Y-110440222D01*
X152901878Y-110584457D01*
X153066900Y-110704353D01*
X153090461Y-110716357D01*
X153121849Y-110739162D01*
X156976961Y-114594275D01*
X156976965Y-114594278D01*
X157125764Y-114693703D01*
X157242674Y-114742128D01*
X157291100Y-114762187D01*
X157466616Y-114797099D01*
X157466620Y-114797100D01*
X157466621Y-114797100D01*
X157645580Y-114797100D01*
X160323010Y-114797100D01*
X160390049Y-114816785D01*
X160410691Y-114833419D01*
X160642272Y-115065000D01*
X160642282Y-115065009D01*
X160695218Y-115106129D01*
X160710260Y-115117814D01*
X160845352Y-115173771D01*
X160930770Y-115184500D01*
X161801429Y-115184501D01*
X161886849Y-115173771D01*
X162021941Y-115117814D01*
X162071046Y-115079668D01*
X162089918Y-115065008D01*
X162089921Y-115065005D01*
X162089929Y-115064999D01*
X162542502Y-114612426D01*
X162595314Y-114544440D01*
X162651271Y-114409348D01*
X162662000Y-114323930D01*
X162662001Y-113453271D01*
X162651271Y-113367851D01*
X162595314Y-113232759D01*
X162587213Y-113222330D01*
X162542508Y-113164781D01*
X162542496Y-113164768D01*
X162361719Y-112983991D01*
X162328234Y-112922668D01*
X162325400Y-112896310D01*
X162325400Y-104720890D01*
X162345085Y-104653851D01*
X162361719Y-104633209D01*
X162376939Y-104617989D01*
X162542502Y-104452426D01*
X162595314Y-104384440D01*
X162651271Y-104249348D01*
X162662000Y-104163930D01*
X162662001Y-103293271D01*
X162651271Y-103207851D01*
X162595314Y-103072759D01*
X162587213Y-103062330D01*
X162542508Y-103004781D01*
X162542496Y-103004768D01*
X162089927Y-102552199D01*
X162089917Y-102552190D01*
X162021940Y-102499386D01*
X162021938Y-102499385D01*
X161886848Y-102443429D01*
X161865493Y-102440746D01*
X161801433Y-102432700D01*
X161801426Y-102432699D01*
X160930769Y-102432699D01*
X160845353Y-102443428D01*
X160845349Y-102443429D01*
X160710260Y-102499385D01*
X160710258Y-102499386D01*
X160642281Y-102552191D01*
X160642268Y-102552203D01*
X160189699Y-103004772D01*
X160189690Y-103004782D01*
X160136886Y-103072759D01*
X160080929Y-103207852D01*
X160070200Y-103293266D01*
X160070199Y-103293273D01*
X160070199Y-104163930D01*
X160080928Y-104249346D01*
X160080929Y-104249350D01*
X160136885Y-104384439D01*
X160136886Y-104384441D01*
X160189691Y-104452418D01*
X160189703Y-104452431D01*
X160472081Y-104734809D01*
X160505566Y-104796132D01*
X160508400Y-104822490D01*
X160508400Y-112794710D01*
X160488715Y-112861749D01*
X160472081Y-112882391D01*
X160410691Y-112943781D01*
X160349368Y-112977266D01*
X160323010Y-112980100D01*
X157983775Y-112980100D01*
X157916736Y-112960415D01*
X157896094Y-112943781D01*
X156010172Y-111057859D01*
X155976687Y-110996536D01*
X155981671Y-110926844D01*
X156017322Y-110875887D01*
X156036100Y-110859849D01*
X156036100Y-109133337D01*
X156036564Y-109133801D01*
X156129235Y-109187305D01*
X156232596Y-109215000D01*
X156339604Y-109215000D01*
X156442965Y-109187305D01*
X156535636Y-109133801D01*
X156536100Y-109133337D01*
X156536100Y-110859849D01*
X156587572Y-110851698D01*
X156780294Y-110789078D01*
X156960848Y-110697080D01*
X157124778Y-110577979D01*
X157124783Y-110577975D01*
X157268075Y-110434683D01*
X157268079Y-110434678D01*
X157387180Y-110270748D01*
X157479178Y-110090192D01*
X157541800Y-109897463D01*
X157573500Y-109697320D01*
X157573500Y-109058600D01*
X156610837Y-109058600D01*
X156611301Y-109058136D01*
X156664805Y-108965465D01*
X156692500Y-108862104D01*
X156692500Y-108755096D01*
X156664805Y-108651735D01*
X156611301Y-108559064D01*
X156610837Y-108558600D01*
X157573500Y-108558600D01*
X157573500Y-107919879D01*
X157541800Y-107719736D01*
X157479178Y-107527007D01*
X157387180Y-107346451D01*
X157268079Y-107182521D01*
X157268075Y-107182516D01*
X157124783Y-107039224D01*
X157124778Y-107039220D01*
X156960848Y-106920119D01*
X156780292Y-106828121D01*
X156587563Y-106765499D01*
X156536100Y-106757348D01*
X156536100Y-108483863D01*
X156535636Y-108483399D01*
X156442965Y-108429895D01*
X156339604Y-108402200D01*
X156232596Y-108402200D01*
X156129235Y-108429895D01*
X156036564Y-108483399D01*
X156036100Y-108483863D01*
X156036100Y-106757348D01*
X156036099Y-106757348D01*
X155984636Y-106765499D01*
X155791907Y-106828121D01*
X155611351Y-106920119D01*
X155447421Y-107039220D01*
X155447416Y-107039224D01*
X155304124Y-107182516D01*
X155304120Y-107182521D01*
X155185017Y-107346453D01*
X155131353Y-107451774D01*
X155083379Y-107502569D01*
X155015558Y-107519364D01*
X154949423Y-107496826D01*
X154910384Y-107451772D01*
X154905614Y-107442411D01*
X154888336Y-107408500D01*
X154854454Y-107342001D01*
X154798753Y-107265336D01*
X154734557Y-107176978D01*
X154590322Y-107032743D01*
X154425300Y-106912847D01*
X154243553Y-106820243D01*
X154243550Y-106820241D01*
X154049559Y-106757210D01*
X153915245Y-106735936D01*
X153848090Y-106725300D01*
X153644110Y-106725300D01*
X153576954Y-106735936D01*
X153442641Y-106757210D01*
X153442638Y-106757210D01*
X153248649Y-106820241D01*
X153248646Y-106820243D01*
X153066899Y-106912847D01*
X152972748Y-106981252D01*
X152901878Y-107032743D01*
X152901876Y-107032745D01*
X152901875Y-107032745D01*
X152757645Y-107176975D01*
X152757645Y-107176976D01*
X152757643Y-107176978D01*
X152753616Y-107182521D01*
X152637747Y-107341999D01*
X152586585Y-107442411D01*
X152538610Y-107493207D01*
X152470789Y-107510002D01*
X152404654Y-107487465D01*
X152365615Y-107442411D01*
X152330547Y-107373587D01*
X152314453Y-107342000D01*
X152194557Y-107176978D01*
X152050322Y-107032743D01*
X151885300Y-106912847D01*
X151703553Y-106820243D01*
X151703550Y-106820241D01*
X151509559Y-106757210D01*
X151375245Y-106735936D01*
X151308090Y-106725300D01*
X151104110Y-106725300D01*
X151036954Y-106735936D01*
X150902641Y-106757210D01*
X150902638Y-106757210D01*
X150708649Y-106820241D01*
X150708646Y-106820243D01*
X150526899Y-106912847D01*
X150432748Y-106981252D01*
X150361878Y-107032743D01*
X150361876Y-107032745D01*
X150361875Y-107032745D01*
X150217645Y-107176975D01*
X150217645Y-107176976D01*
X150217643Y-107176978D01*
X150213616Y-107182521D01*
X150097747Y-107341999D01*
X150005143Y-107523746D01*
X150005141Y-107523749D01*
X149942110Y-107717738D01*
X149942110Y-107717739D01*
X149916376Y-107880212D01*
X149886446Y-107943346D01*
X149827134Y-107980277D01*
X149757272Y-107979279D01*
X149706222Y-107948494D01*
X149389927Y-107632199D01*
X149389917Y-107632190D01*
X149321940Y-107579386D01*
X149321938Y-107579385D01*
X149186848Y-107523429D01*
X149154485Y-107519364D01*
X149101433Y-107512700D01*
X149101426Y-107512699D01*
X148230769Y-107512699D01*
X148145353Y-107523428D01*
X148145349Y-107523429D01*
X148010260Y-107579385D01*
X148010258Y-107579386D01*
X147942281Y-107632191D01*
X147942268Y-107632203D01*
X147489699Y-108084772D01*
X147489690Y-108084782D01*
X147436886Y-108152759D01*
X147380929Y-108287852D01*
X147370200Y-108373266D01*
X147370199Y-108373273D01*
X147370199Y-108494695D01*
X147350514Y-108561734D01*
X147297710Y-108607489D01*
X147293652Y-108609255D01*
X147173567Y-108658996D01*
X147173557Y-108659001D01*
X147024765Y-108758421D01*
X147024761Y-108758424D01*
X146898224Y-108884961D01*
X146898221Y-108884965D01*
X146798801Y-109033757D01*
X146798796Y-109033767D01*
X146730313Y-109199099D01*
X146730311Y-109199107D01*
X146695400Y-109374616D01*
X146695400Y-114245325D01*
X146675715Y-114312364D01*
X146622911Y-114358119D01*
X146553753Y-114368063D01*
X146490197Y-114339038D01*
X146483719Y-114333006D01*
X143648319Y-111497606D01*
X143614834Y-111436283D01*
X143612000Y-111409925D01*
X143612000Y-111188124D01*
X143612001Y-110913271D01*
X143601271Y-110827851D01*
X143545314Y-110692759D01*
X143537213Y-110682330D01*
X143492508Y-110624781D01*
X143492496Y-110624768D01*
X143361301Y-110493573D01*
X143327816Y-110432250D01*
X143332800Y-110362558D01*
X143361301Y-110318211D01*
X145594741Y-108084771D01*
X148020352Y-105659159D01*
X148051735Y-105636359D01*
X148075300Y-105624353D01*
X148240322Y-105504457D01*
X148384557Y-105360222D01*
X148504453Y-105195200D01*
X148597057Y-105013453D01*
X148615135Y-104957814D01*
X148660089Y-104819461D01*
X148660089Y-104819460D01*
X148660090Y-104819457D01*
X148692000Y-104617990D01*
X148692000Y-102839210D01*
X148687734Y-102812278D01*
X148696688Y-102742988D01*
X148741683Y-102689536D01*
X148808434Y-102668895D01*
X148875748Y-102687619D01*
X148897888Y-102705201D01*
X149873880Y-103681193D01*
X149907365Y-103742516D01*
X149910199Y-103768874D01*
X149910199Y-104163930D01*
X149920928Y-104249346D01*
X149920929Y-104249350D01*
X149976885Y-104384439D01*
X149976886Y-104384441D01*
X150029691Y-104452418D01*
X150029703Y-104452431D01*
X150482272Y-104905000D01*
X150482282Y-104905009D01*
X150525977Y-104938951D01*
X150550260Y-104957814D01*
X150685352Y-105013771D01*
X150770770Y-105024500D01*
X151641429Y-105024501D01*
X151726849Y-105013771D01*
X151861941Y-104957814D01*
X151908664Y-104921518D01*
X151929918Y-104905008D01*
X151929921Y-104905005D01*
X151929929Y-104904999D01*
X152382502Y-104452426D01*
X152435314Y-104384440D01*
X152491271Y-104249348D01*
X152502000Y-104163930D01*
X152502001Y-103293271D01*
X152491271Y-103207851D01*
X152435314Y-103072759D01*
X152427213Y-103062330D01*
X152382508Y-103004781D01*
X152382496Y-103004768D01*
X151929927Y-102552199D01*
X151929917Y-102552190D01*
X151861940Y-102499386D01*
X151861938Y-102499385D01*
X151726848Y-102443429D01*
X151705493Y-102440746D01*
X151641433Y-102432700D01*
X151641426Y-102432699D01*
X151246374Y-102432699D01*
X151179334Y-102413014D01*
X151158693Y-102396380D01*
X149944819Y-101182506D01*
X149911334Y-101121183D01*
X149908500Y-101094825D01*
X149908500Y-99510190D01*
X149928185Y-99443151D01*
X149941750Y-99426317D01*
X149941539Y-99426131D01*
X149944716Y-99422530D01*
X149944937Y-99422390D01*
X149946842Y-99420486D01*
X149947274Y-99420918D01*
X150003829Y-99385282D01*
X150073695Y-99385905D01*
X150128150Y-99420899D01*
X150128561Y-99420489D01*
X150130447Y-99422375D01*
X150130680Y-99422525D01*
X150131302Y-99423230D01*
X150634672Y-99926600D01*
X150634682Y-99926609D01*
X150687618Y-99967729D01*
X150702660Y-99979414D01*
X150837752Y-100035371D01*
X150923170Y-100046100D01*
X151895429Y-100046101D01*
X151980849Y-100035371D01*
X152115941Y-99979414D01*
X152162664Y-99943118D01*
X152183918Y-99926608D01*
X152183921Y-99926605D01*
X152183929Y-99926599D01*
X152687302Y-99423226D01*
X152688406Y-99421804D01*
X152688819Y-99421506D01*
X152689876Y-99420309D01*
X152690147Y-99420548D01*
X152745066Y-99380926D01*
X152814834Y-99377168D01*
X152875559Y-99411727D01*
X152879329Y-99415812D01*
X152881001Y-99417707D01*
X153383384Y-99920091D01*
X153383393Y-99920099D01*
X153450242Y-99972031D01*
X153583071Y-100027049D01*
X153583078Y-100027051D01*
X153667058Y-100037599D01*
X153667065Y-100037600D01*
X153902500Y-100037600D01*
X153902500Y-99090851D01*
X153956419Y-99121981D01*
X154085620Y-99156600D01*
X154219380Y-99156600D01*
X154348581Y-99121981D01*
X154402500Y-99090851D01*
X154402500Y-100037600D01*
X154637942Y-100037600D01*
X154637943Y-100037599D01*
X154721925Y-100027050D01*
X154854758Y-99972029D01*
X154921596Y-99920107D01*
X154921610Y-99920095D01*
X155423991Y-99417715D01*
X155423999Y-99417706D01*
X155475931Y-99350857D01*
X155530949Y-99218028D01*
X155530951Y-99218021D01*
X155541499Y-99134041D01*
X155541500Y-99134035D01*
X155541500Y-98898600D01*
X154594751Y-98898600D01*
X154625881Y-98844681D01*
X154660500Y-98715480D01*
X154660500Y-98581720D01*
X154625881Y-98452519D01*
X154594751Y-98398600D01*
X155541500Y-98398600D01*
X155541500Y-98163158D01*
X155541499Y-98163156D01*
X155530950Y-98079174D01*
X155475929Y-97946341D01*
X155424007Y-97879503D01*
X155423995Y-97879489D01*
X154923105Y-97378598D01*
X158521300Y-97378598D01*
X158521300Y-97378601D01*
X158561817Y-97841714D01*
X158561819Y-97841725D01*
X158682137Y-98290760D01*
X158682139Y-98290764D01*
X158682140Y-98290768D01*
X158732423Y-98398600D01*
X158878610Y-98712100D01*
X158878612Y-98712104D01*
X159145259Y-99092916D01*
X159473983Y-99421640D01*
X159854795Y-99688287D01*
X159854797Y-99688288D01*
X159854800Y-99688290D01*
X160276132Y-99884760D01*
X160725180Y-100005082D01*
X161055980Y-100034023D01*
X161188298Y-100045600D01*
X161188300Y-100045600D01*
X161188302Y-100045600D01*
X161319676Y-100034106D01*
X161651420Y-100005082D01*
X162100468Y-99884760D01*
X162521800Y-99688290D01*
X162902615Y-99421641D01*
X163231341Y-99092915D01*
X163497990Y-98712100D01*
X163694460Y-98290768D01*
X163814782Y-97841720D01*
X163855300Y-97378600D01*
X163855169Y-97377108D01*
X163814782Y-96915485D01*
X163814782Y-96915480D01*
X163694460Y-96466432D01*
X163497990Y-96045100D01*
X163497988Y-96045097D01*
X163497987Y-96045095D01*
X163231340Y-95664283D01*
X162902616Y-95335559D01*
X162521804Y-95068912D01*
X162521800Y-95068910D01*
X162100468Y-94872440D01*
X162100464Y-94872439D01*
X162100460Y-94872437D01*
X161651425Y-94752119D01*
X161651421Y-94752118D01*
X161651420Y-94752118D01*
X161651419Y-94752117D01*
X161651414Y-94752117D01*
X161188302Y-94711600D01*
X161188298Y-94711600D01*
X160725185Y-94752117D01*
X160725174Y-94752119D01*
X160276139Y-94872437D01*
X160276130Y-94872441D01*
X159854799Y-95068910D01*
X159854795Y-95068912D01*
X159473983Y-95335559D01*
X159145259Y-95664283D01*
X158878612Y-96045095D01*
X158878610Y-96045099D01*
X158682141Y-96466430D01*
X158682137Y-96466439D01*
X158561819Y-96915474D01*
X158561817Y-96915485D01*
X158521300Y-97378598D01*
X154923105Y-97378598D01*
X154921615Y-97377108D01*
X154921606Y-97377100D01*
X154854757Y-97325168D01*
X154721928Y-97270150D01*
X154721921Y-97270148D01*
X154637941Y-97259600D01*
X154402500Y-97259600D01*
X154402500Y-98206348D01*
X154348581Y-98175219D01*
X154219380Y-98140600D01*
X154085620Y-98140600D01*
X153956419Y-98175219D01*
X153902500Y-98206348D01*
X153902500Y-97259600D01*
X153880195Y-97237295D01*
X153846710Y-97175972D01*
X153851694Y-97106280D01*
X153880195Y-97061933D01*
X153902710Y-97039418D01*
X154058902Y-96883226D01*
X154111714Y-96815240D01*
X154167671Y-96680148D01*
X154178400Y-96594730D01*
X154178401Y-95622471D01*
X154167671Y-95537051D01*
X154111714Y-95401959D01*
X154103613Y-95391530D01*
X154058908Y-95333981D01*
X154058896Y-95333968D01*
X153555527Y-94830599D01*
X153555517Y-94830590D01*
X153487540Y-94777786D01*
X153425572Y-94752118D01*
X153352448Y-94721829D01*
X153331093Y-94719146D01*
X153267033Y-94711100D01*
X153267026Y-94711099D01*
X152294769Y-94711099D01*
X152209353Y-94721828D01*
X152209349Y-94721829D01*
X152074260Y-94777785D01*
X152074258Y-94777786D01*
X152006281Y-94830591D01*
X152006268Y-94830603D01*
X151502884Y-95333987D01*
X151502259Y-95334696D01*
X151502034Y-95334837D01*
X151500158Y-95336714D01*
X151499731Y-95336287D01*
X151443135Y-95371927D01*
X151373269Y-95371283D01*
X151318850Y-95336299D01*
X151318439Y-95336711D01*
X151316547Y-95334819D01*
X151316318Y-95334672D01*
X151315703Y-95333975D01*
X150812327Y-94830599D01*
X150812317Y-94830590D01*
X150744340Y-94777786D01*
X150682372Y-94752118D01*
X150609248Y-94721829D01*
X150587893Y-94719146D01*
X150523833Y-94711100D01*
X150523826Y-94711099D01*
X149551569Y-94711099D01*
X149466153Y-94721828D01*
X149466149Y-94721829D01*
X149331060Y-94777785D01*
X149331058Y-94777786D01*
X149263081Y-94830591D01*
X149263068Y-94830603D01*
X148759684Y-95333987D01*
X148759059Y-95334696D01*
X148758834Y-95334837D01*
X148756958Y-95336714D01*
X148756531Y-95336287D01*
X148699935Y-95371927D01*
X148630069Y-95371283D01*
X148575650Y-95336299D01*
X148575239Y-95336711D01*
X148573347Y-95334819D01*
X148573118Y-95334672D01*
X148572503Y-95333975D01*
X148069127Y-94830599D01*
X148069117Y-94830590D01*
X148001140Y-94777786D01*
X147939172Y-94752118D01*
X147866048Y-94721829D01*
X147844693Y-94719146D01*
X147780633Y-94711100D01*
X147780626Y-94711099D01*
X146808369Y-94711099D01*
X146722953Y-94721828D01*
X146722949Y-94721829D01*
X146587860Y-94777785D01*
X146587858Y-94777786D01*
X146519881Y-94830591D01*
X146519868Y-94830603D01*
X146016484Y-95333987D01*
X146015859Y-95334696D01*
X146015634Y-95334837D01*
X146013758Y-95336714D01*
X146013331Y-95336287D01*
X145956735Y-95371927D01*
X145886869Y-95371283D01*
X145832450Y-95336299D01*
X145832039Y-95336711D01*
X145830147Y-95334819D01*
X145829918Y-95334672D01*
X145829303Y-95333975D01*
X145325927Y-94830599D01*
X145325917Y-94830590D01*
X145257940Y-94777786D01*
X145195972Y-94752118D01*
X145122848Y-94721829D01*
X145101493Y-94719146D01*
X145037433Y-94711100D01*
X145037426Y-94711099D01*
X144065169Y-94711099D01*
X143979753Y-94721828D01*
X143979749Y-94721829D01*
X143844660Y-94777785D01*
X143844658Y-94777786D01*
X143776681Y-94830591D01*
X143776668Y-94830603D01*
X143273299Y-95333972D01*
X143273290Y-95333982D01*
X143220486Y-95401959D01*
X143164529Y-95537052D01*
X143153800Y-95622466D01*
X143153799Y-95622473D01*
X143153799Y-96594730D01*
X143164528Y-96680146D01*
X143164529Y-96680150D01*
X143220485Y-96815239D01*
X143220486Y-96815241D01*
X143273291Y-96883218D01*
X143273303Y-96883231D01*
X143429490Y-97039418D01*
X143462975Y-97100741D01*
X143457991Y-97170433D01*
X143416119Y-97226366D01*
X143350655Y-97250783D01*
X143341809Y-97251099D01*
X142693569Y-97251099D01*
X142608153Y-97261828D01*
X142608149Y-97261829D01*
X142473060Y-97317785D01*
X142473058Y-97317786D01*
X142405081Y-97370591D01*
X142405068Y-97370603D01*
X141901699Y-97873972D01*
X141901690Y-97873982D01*
X141848886Y-97941959D01*
X141792929Y-98077052D01*
X141782200Y-98162466D01*
X141782199Y-98162473D01*
X141782199Y-99134730D01*
X141792928Y-99220146D01*
X141792929Y-99220150D01*
X141848885Y-99355239D01*
X141848886Y-99355241D01*
X141901691Y-99423218D01*
X141901703Y-99423231D01*
X142405072Y-99926600D01*
X142405082Y-99926609D01*
X142458018Y-99967729D01*
X142473060Y-99979414D01*
X142608152Y-100035371D01*
X142693570Y-100046100D01*
X142941224Y-100046100D01*
X143008263Y-100065785D01*
X143054018Y-100118589D01*
X143063962Y-100187747D01*
X143034937Y-100251303D01*
X143028905Y-100257781D01*
X141610424Y-101676261D01*
X141610421Y-101676265D01*
X141510996Y-101825064D01*
X141457814Y-101953457D01*
X141430935Y-101993683D01*
X141327646Y-102096974D01*
X141327645Y-102096975D01*
X141327643Y-102096978D01*
X141276152Y-102167848D01*
X141207747Y-102261999D01*
X141115143Y-102443746D01*
X141115141Y-102443749D01*
X141052110Y-102637738D01*
X141052110Y-102637741D01*
X141020200Y-102839210D01*
X141020200Y-104617989D01*
X141052110Y-104819458D01*
X141052110Y-104819461D01*
X141115141Y-105013450D01*
X141115143Y-105013453D01*
X141207747Y-105195200D01*
X141327643Y-105360222D01*
X141327645Y-105360224D01*
X141347240Y-105379819D01*
X141380725Y-105441142D01*
X141375741Y-105510834D01*
X141333869Y-105566767D01*
X141268405Y-105591184D01*
X141259559Y-105591500D01*
X140610520Y-105591500D01*
X140581397Y-105597292D01*
X140581396Y-105597291D01*
X140435005Y-105626411D01*
X140434999Y-105626413D01*
X140269667Y-105694896D01*
X140269657Y-105694901D01*
X140120865Y-105794321D01*
X140120861Y-105794324D01*
X138438806Y-107476380D01*
X138377483Y-107509865D01*
X138351125Y-107512699D01*
X138070769Y-107512699D01*
X137985353Y-107523428D01*
X137985349Y-107523429D01*
X137850260Y-107579385D01*
X137850258Y-107579386D01*
X137782281Y-107632191D01*
X137782268Y-107632203D01*
X137329699Y-108084772D01*
X137329690Y-108084782D01*
X137276886Y-108152759D01*
X137220929Y-108287852D01*
X137210200Y-108373266D01*
X137210199Y-108373273D01*
X137210199Y-109243930D01*
X137220928Y-109329346D01*
X137220929Y-109329350D01*
X137276885Y-109464439D01*
X137276886Y-109464441D01*
X137329691Y-109532418D01*
X137329703Y-109532431D01*
X137782275Y-109985003D01*
X137782982Y-109985627D01*
X137783123Y-109985851D01*
X137785014Y-109987742D01*
X137784584Y-109988171D01*
X137820222Y-110044745D01*
X137819589Y-110114612D01*
X137784603Y-110169053D01*
X137785011Y-110169461D01*
X137783138Y-110171333D01*
X137782987Y-110171569D01*
X137782271Y-110172200D01*
X137329699Y-110624772D01*
X137329690Y-110624782D01*
X137276886Y-110692759D01*
X137220929Y-110827852D01*
X137210200Y-110913266D01*
X137210199Y-110913273D01*
X137210199Y-111783930D01*
X137220928Y-111869346D01*
X137220929Y-111869350D01*
X137276885Y-112004439D01*
X137276886Y-112004441D01*
X137329691Y-112072418D01*
X137329703Y-112072431D01*
X137782272Y-112525000D01*
X137782282Y-112525009D01*
X137835218Y-112566129D01*
X137850260Y-112577814D01*
X137985352Y-112633771D01*
X138070770Y-112644500D01*
X138941429Y-112644501D01*
X139026849Y-112633771D01*
X139161941Y-112577814D01*
X139208664Y-112541518D01*
X139229918Y-112525008D01*
X139229921Y-112525005D01*
X139229929Y-112524999D01*
X139682502Y-112072426D01*
X139735314Y-112004440D01*
X139791271Y-111869348D01*
X139802000Y-111783930D01*
X139802001Y-110913271D01*
X139791271Y-110827851D01*
X139735314Y-110692759D01*
X139727213Y-110682330D01*
X139682508Y-110624781D01*
X139682496Y-110624768D01*
X139229922Y-110172194D01*
X139229216Y-110171571D01*
X139229074Y-110171346D01*
X139227186Y-110169458D01*
X139227614Y-110169029D01*
X139191977Y-110112452D01*
X139192611Y-110042585D01*
X139227602Y-109988152D01*
X139227189Y-109987739D01*
X139229089Y-109985838D01*
X139229239Y-109985606D01*
X139229905Y-109985017D01*
X139229929Y-109984999D01*
X139682502Y-109532426D01*
X139735314Y-109464440D01*
X139791271Y-109329348D01*
X139802000Y-109243930D01*
X139802000Y-108734174D01*
X139821685Y-108667135D01*
X139838319Y-108646493D01*
X141039994Y-107444819D01*
X141101317Y-107411334D01*
X141127675Y-107408500D01*
X143402024Y-107408500D01*
X143469063Y-107428185D01*
X143514818Y-107480989D01*
X143524762Y-107550147D01*
X143495737Y-107613703D01*
X143489705Y-107620181D01*
X141610424Y-109499461D01*
X141610421Y-109499465D01*
X141510995Y-109648266D01*
X141449926Y-109795701D01*
X141442514Y-109813596D01*
X141442511Y-109813603D01*
X141407600Y-109989116D01*
X141407600Y-110305510D01*
X141387915Y-110372549D01*
X141371281Y-110393191D01*
X141139699Y-110624772D01*
X141139690Y-110624782D01*
X141086886Y-110692759D01*
X141030929Y-110827852D01*
X141020200Y-110913266D01*
X141020199Y-110913273D01*
X141020199Y-111783930D01*
X141030928Y-111869346D01*
X141030929Y-111869350D01*
X141086885Y-112004439D01*
X141086886Y-112004441D01*
X141139691Y-112072418D01*
X141139703Y-112072431D01*
X141592272Y-112525000D01*
X141592282Y-112525009D01*
X141645218Y-112566129D01*
X141660260Y-112577814D01*
X141795352Y-112633771D01*
X141880770Y-112644500D01*
X142174225Y-112644500D01*
X142241264Y-112664185D01*
X142261906Y-112680819D01*
X145028881Y-115447794D01*
X145062366Y-115509117D01*
X145065200Y-115535475D01*
X145065200Y-118413553D01*
X145045515Y-118480592D01*
X145041518Y-118486438D01*
X144937695Y-118629339D01*
X144838398Y-118824216D01*
X144838397Y-118824219D01*
X144770814Y-119032223D01*
X144736600Y-119248238D01*
X144736600Y-121228961D01*
X144770814Y-121444976D01*
X144838397Y-121652980D01*
X144838398Y-121652983D01*
X144937695Y-121847860D01*
X145066242Y-122024793D01*
X145121268Y-122079819D01*
X145154753Y-122141142D01*
X145149769Y-122210834D01*
X145107897Y-122266767D01*
X145042433Y-122291184D01*
X145033587Y-122291500D01*
X143678263Y-122291500D01*
X143611224Y-122271815D01*
X143565469Y-122219011D01*
X143555525Y-122149853D01*
X143563702Y-122120047D01*
X143601271Y-122029348D01*
X143612000Y-121943930D01*
X143612001Y-121073271D01*
X143601271Y-120987851D01*
X143545314Y-120852759D01*
X143537213Y-120842330D01*
X143492508Y-120784781D01*
X143492496Y-120784768D01*
X143039927Y-120332199D01*
X143039917Y-120332190D01*
X142971940Y-120279386D01*
X142937378Y-120265070D01*
X142836848Y-120223429D01*
X142815493Y-120220746D01*
X142751433Y-120212700D01*
X142751426Y-120212699D01*
X141880769Y-120212699D01*
X141795353Y-120223428D01*
X141795349Y-120223429D01*
X141660260Y-120279385D01*
X141660258Y-120279386D01*
X141592281Y-120332191D01*
X141592268Y-120332203D01*
X141139699Y-120784772D01*
X141139690Y-120784782D01*
X141086886Y-120852759D01*
X141030929Y-120987852D01*
X141020200Y-121073266D01*
X141020199Y-121073273D01*
X141020199Y-121943930D01*
X141030928Y-122029346D01*
X141030930Y-122029353D01*
X141068497Y-122120048D01*
X141075966Y-122189517D01*
X141044691Y-122251996D01*
X140984601Y-122287648D01*
X140953936Y-122291500D01*
X140625175Y-122291500D01*
X140558136Y-122271815D01*
X140537494Y-122255181D01*
X139838319Y-121556006D01*
X139804834Y-121494683D01*
X139802000Y-121468325D01*
X139802000Y-121376210D01*
X139802001Y-121073271D01*
X139791271Y-120987851D01*
X139735314Y-120852759D01*
X139727213Y-120842330D01*
X139682508Y-120784781D01*
X139682496Y-120784768D01*
X139229927Y-120332199D01*
X139229917Y-120332190D01*
X139161940Y-120279386D01*
X139127378Y-120265070D01*
X139026848Y-120223429D01*
X139005493Y-120220746D01*
X138941433Y-120212700D01*
X138941426Y-120212699D01*
X138070769Y-120212699D01*
X137985353Y-120223428D01*
X137985349Y-120223429D01*
X137850260Y-120279385D01*
X137850258Y-120279386D01*
X137782281Y-120332191D01*
X137782268Y-120332203D01*
X137459291Y-120655181D01*
X137397968Y-120688666D01*
X137371610Y-120691500D01*
X136109355Y-120691500D01*
X136042316Y-120671815D01*
X135996561Y-120619011D01*
X135986882Y-120586898D01*
X135980342Y-120545607D01*
X135960090Y-120417743D01*
X135960089Y-120417739D01*
X135960089Y-120417738D01*
X135897058Y-120223749D01*
X135897056Y-120223746D01*
X135896895Y-120223429D01*
X135804453Y-120042000D01*
X135684557Y-119876978D01*
X135540322Y-119732743D01*
X135375300Y-119612847D01*
X135193553Y-119520243D01*
X135193550Y-119520241D01*
X134999559Y-119457210D01*
X134865245Y-119435936D01*
X134798090Y-119425300D01*
X134594110Y-119425300D01*
X134526954Y-119435936D01*
X134392641Y-119457210D01*
X134392638Y-119457210D01*
X134198649Y-119520241D01*
X134198646Y-119520243D01*
X134016899Y-119612847D01*
X133922748Y-119681252D01*
X133851878Y-119732743D01*
X133851876Y-119732745D01*
X133851875Y-119732745D01*
X133707645Y-119876975D01*
X133707645Y-119876976D01*
X133707643Y-119876978D01*
X133667963Y-119931593D01*
X133587747Y-120041999D01*
X133495143Y-120223746D01*
X133495141Y-120223749D01*
X133432110Y-120417738D01*
X133432110Y-120417741D01*
X133400200Y-120619210D01*
X133400200Y-122397989D01*
X133432110Y-122599458D01*
X133432110Y-122599461D01*
X133495141Y-122793450D01*
X133495143Y-122793453D01*
X133587747Y-122975200D01*
X133707643Y-123140222D01*
X133851878Y-123284457D01*
X134016900Y-123404353D01*
X134198647Y-123496957D01*
X134198649Y-123496958D01*
X134379595Y-123555750D01*
X134392643Y-123559990D01*
X134594110Y-123591900D01*
X134594111Y-123591900D01*
X134798089Y-123591900D01*
X134798090Y-123591900D01*
X134999557Y-123559990D01*
X134999560Y-123559989D01*
X134999561Y-123559989D01*
X135193550Y-123496958D01*
X135193550Y-123496957D01*
X135193553Y-123496957D01*
X135375300Y-123404353D01*
X135540322Y-123284457D01*
X135684557Y-123140222D01*
X135804453Y-122975200D01*
X135897057Y-122793453D01*
X135960090Y-122599457D01*
X135960090Y-122599454D01*
X135961595Y-122594824D01*
X135963726Y-122595516D01*
X135993880Y-122542977D01*
X136055900Y-122510802D01*
X136079680Y-122508500D01*
X137554410Y-122508500D01*
X137621449Y-122528185D01*
X137642091Y-122544819D01*
X137782272Y-122685000D01*
X137782282Y-122685009D01*
X137835218Y-122726129D01*
X137850260Y-122737814D01*
X137985352Y-122793771D01*
X138070770Y-122804500D01*
X138465825Y-122804500D01*
X138532864Y-122824185D01*
X138553506Y-122840819D01*
X139501005Y-123788319D01*
X139534490Y-123849642D01*
X139529506Y-123919334D01*
X139487634Y-123975267D01*
X139422170Y-123999684D01*
X139413324Y-124000000D01*
X132324000Y-124000000D01*
X132256961Y-123980315D01*
X132211206Y-123927511D01*
X132200000Y-123876000D01*
X132200000Y-110459210D01*
X133400200Y-110459210D01*
X133400200Y-112237989D01*
X133432110Y-112439458D01*
X133432110Y-112439461D01*
X133495141Y-112633450D01*
X133495143Y-112633453D01*
X133587747Y-112815200D01*
X133707643Y-112980222D01*
X133851878Y-113124457D01*
X134016900Y-113244353D01*
X134198647Y-113336957D01*
X134198649Y-113336958D01*
X134293729Y-113367851D01*
X134392643Y-113399990D01*
X134594110Y-113431900D01*
X134594111Y-113431900D01*
X134798089Y-113431900D01*
X134798090Y-113431900D01*
X134999557Y-113399990D01*
X134999560Y-113399989D01*
X134999561Y-113399989D01*
X135193550Y-113336958D01*
X135193550Y-113336957D01*
X135193553Y-113336957D01*
X135375300Y-113244353D01*
X135540322Y-113124457D01*
X135684557Y-112980222D01*
X135804453Y-112815200D01*
X135897057Y-112633453D01*
X135915135Y-112577814D01*
X135960089Y-112439461D01*
X135960089Y-112439460D01*
X135960090Y-112439457D01*
X135992000Y-112237990D01*
X135992000Y-110459210D01*
X135960090Y-110257743D01*
X135960089Y-110257739D01*
X135960089Y-110257738D01*
X135897058Y-110063749D01*
X135897056Y-110063746D01*
X135886275Y-110042585D01*
X135804453Y-109882000D01*
X135684557Y-109716978D01*
X135540322Y-109572743D01*
X135375300Y-109452847D01*
X135193553Y-109360243D01*
X135193550Y-109360241D01*
X134999559Y-109297210D01*
X134865245Y-109275936D01*
X134798090Y-109265300D01*
X134594110Y-109265300D01*
X134526954Y-109275936D01*
X134392641Y-109297210D01*
X134392638Y-109297210D01*
X134198649Y-109360241D01*
X134198646Y-109360243D01*
X134016899Y-109452847D01*
X133952736Y-109499465D01*
X133851878Y-109572743D01*
X133851876Y-109572745D01*
X133851875Y-109572745D01*
X133707645Y-109716975D01*
X133707645Y-109716976D01*
X133707643Y-109716978D01*
X133693106Y-109736987D01*
X133587747Y-109881999D01*
X133495143Y-110063746D01*
X133495141Y-110063749D01*
X133432110Y-110257738D01*
X133432110Y-110257741D01*
X133400200Y-110459210D01*
X132200000Y-110459210D01*
X132200000Y-97378598D01*
X133476900Y-97378598D01*
X133476900Y-97378601D01*
X133517417Y-97841714D01*
X133517419Y-97841725D01*
X133637737Y-98290760D01*
X133637739Y-98290764D01*
X133637740Y-98290768D01*
X133688023Y-98398600D01*
X133834210Y-98712100D01*
X133834212Y-98712104D01*
X134100859Y-99092916D01*
X134429583Y-99421640D01*
X134810395Y-99688287D01*
X134810397Y-99688288D01*
X134810400Y-99688290D01*
X135231732Y-99884760D01*
X135680780Y-100005082D01*
X136011580Y-100034023D01*
X136143898Y-100045600D01*
X136143900Y-100045600D01*
X136143902Y-100045600D01*
X136275276Y-100034106D01*
X136607020Y-100005082D01*
X137056068Y-99884760D01*
X137477400Y-99688290D01*
X137858215Y-99421641D01*
X138186941Y-99092915D01*
X138453590Y-98712100D01*
X138650060Y-98290768D01*
X138770382Y-97841720D01*
X138810900Y-97378600D01*
X138810769Y-97377108D01*
X138770382Y-96915485D01*
X138770382Y-96915480D01*
X138650060Y-96466432D01*
X138453590Y-96045100D01*
X138453588Y-96045097D01*
X138453587Y-96045095D01*
X138186940Y-95664283D01*
X137858216Y-95335559D01*
X137477404Y-95068912D01*
X137477400Y-95068910D01*
X137056068Y-94872440D01*
X137056064Y-94872439D01*
X137056060Y-94872437D01*
X136607025Y-94752119D01*
X136607021Y-94752118D01*
X136607020Y-94752118D01*
X136607019Y-94752117D01*
X136607014Y-94752117D01*
X136143902Y-94711600D01*
X136143898Y-94711600D01*
X135680785Y-94752117D01*
X135680774Y-94752119D01*
X135231739Y-94872437D01*
X135231730Y-94872441D01*
X134810399Y-95068910D01*
X134810395Y-95068912D01*
X134429583Y-95335559D01*
X134100859Y-95664283D01*
X133834212Y-96045095D01*
X133834210Y-96045099D01*
X133637741Y-96466430D01*
X133637737Y-96466439D01*
X133517419Y-96915474D01*
X133517417Y-96915485D01*
X133476900Y-97378598D01*
X132200000Y-97378598D01*
X132200000Y-86124000D01*
X132219685Y-86056961D01*
X132272489Y-86011206D01*
X132324000Y-86000000D01*
X164696600Y-86000000D01*
X164763639Y-86019685D01*
G37*
%TD.AperFunction*%
%TD*%
M02*
