M48
; DRILL file {KiCad 8.0.4} date 2024-09-20T14:01:50+0200
; FORMAT={-:-/ absolute / metric / decimal}
; #@! TF.CreationDate,2024-09-20T14:01:50+02:00
; #@! TF.GenerationSoftware,Kicad,Pcbnew,8.0.4
; #@! TF.FileFunction,Plated,1,2,PTH
FMAT,2
METRIC
; #@! TA.AperFunction,Plated,PTH,ComponentDrill
T1C0.813
; #@! TA.AperFunction,Plated,PTH,ComponentDrill
T2C1.000
; #@! TA.AperFunction,Plated,PTH,ComponentDrill
T3C1.016
%
G90
G05
T1
X134.696Y-111.349
X134.696Y-121.509
X138.506Y-108.809
X138.506Y-111.349
X138.506Y-121.509
X142.316Y-103.729
X142.316Y-111.349
X142.316Y-121.509
X144.856Y-103.729
X147.396Y-103.729
X148.666Y-108.809
X151.206Y-103.729
X151.206Y-108.809
X151.206Y-113.889
X153.746Y-108.809
X156.286Y-108.809
X160.096Y-117.699
X160.096Y-120.239
X161.366Y-103.729
X161.366Y-113.889
T2
X146.126Y-120.239
X148.666Y-120.239
X151.206Y-120.239
X153.746Y-120.239
T3
X143.18Y-98.649
X144.551Y-96.109
X145.923Y-98.649
X147.294Y-96.109
X148.666Y-98.649
X150.038Y-96.109
X151.409Y-98.649
X152.781Y-96.109
X154.153Y-98.649
M30
