%TF.GenerationSoftware,KiCad,Pcbnew,(6.0.4)*%
%TF.CreationDate,2024-04-18T18:30:19+02:00*%
%TF.ProjectId,focBLDCdrv,666f6342-4c44-4436-9472-762e6b696361,rev?*%
%TF.SameCoordinates,Original*%
%TF.FileFunction,Copper,L1,Top*%
%TF.FilePolarity,Positive*%
%FSLAX46Y46*%
G04 Gerber Fmt 4.6, Leading zero omitted, Abs format (unit mm)*
G04 Created by KiCad (PCBNEW (6.0.4)) date 2024-04-18 18:30:19*
%MOMM*%
%LPD*%
G01*
G04 APERTURE LIST*
G04 Aperture macros list*
%AMRoundRect*
0 Rectangle with rounded corners*
0 $1 Rounding radius*
0 $2 $3 $4 $5 $6 $7 $8 $9 X,Y pos of 4 corners*
0 Add a 4 corners polygon primitive as box body*
4,1,4,$2,$3,$4,$5,$6,$7,$8,$9,$2,$3,0*
0 Add four circle primitives for the rounded corners*
1,1,$1+$1,$2,$3*
1,1,$1+$1,$4,$5*
1,1,$1+$1,$6,$7*
1,1,$1+$1,$8,$9*
0 Add four rect primitives between the rounded corners*
20,1,$1+$1,$2,$3,$4,$5,0*
20,1,$1+$1,$4,$5,$6,$7,0*
20,1,$1+$1,$6,$7,$8,$9,0*
20,1,$1+$1,$8,$9,$2,$3,0*%
G04 Aperture macros list end*
%TA.AperFunction,SMDPad,CuDef*%
%ADD10RoundRect,0.250000X-0.475000X0.337500X-0.475000X-0.337500X0.475000X-0.337500X0.475000X0.337500X0*%
%TD*%
%TA.AperFunction,SMDPad,CuDef*%
%ADD11RoundRect,0.250000X-0.350000X-0.450000X0.350000X-0.450000X0.350000X0.450000X-0.350000X0.450000X0*%
%TD*%
%TA.AperFunction,SMDPad,CuDef*%
%ADD12RoundRect,0.250000X-0.450000X0.350000X-0.450000X-0.350000X0.450000X-0.350000X0.450000X0.350000X0*%
%TD*%
%TA.AperFunction,ComponentPad*%
%ADD13R,1.700000X1.700000*%
%TD*%
%TA.AperFunction,ComponentPad*%
%ADD14O,1.700000X1.700000*%
%TD*%
%TA.AperFunction,ComponentPad*%
%ADD15R,3.000000X3.000000*%
%TD*%
%TA.AperFunction,ComponentPad*%
%ADD16C,3.000000*%
%TD*%
%TA.AperFunction,SMDPad,CuDef*%
%ADD17RoundRect,0.250000X0.475000X-0.337500X0.475000X0.337500X-0.475000X0.337500X-0.475000X-0.337500X0*%
%TD*%
%TA.AperFunction,SMDPad,CuDef*%
%ADD18RoundRect,0.250000X0.450000X-0.350000X0.450000X0.350000X-0.450000X0.350000X-0.450000X-0.350000X0*%
%TD*%
%TA.AperFunction,SMDPad,CuDef*%
%ADD19RoundRect,0.250001X0.624999X-0.462499X0.624999X0.462499X-0.624999X0.462499X-0.624999X-0.462499X0*%
%TD*%
%TA.AperFunction,SMDPad,CuDef*%
%ADD20RoundRect,0.250000X-0.650000X0.412500X-0.650000X-0.412500X0.650000X-0.412500X0.650000X0.412500X0*%
%TD*%
%TA.AperFunction,SMDPad,CuDef*%
%ADD21RoundRect,0.062500X-0.237500X-0.062500X0.237500X-0.062500X0.237500X0.062500X-0.237500X0.062500X0*%
%TD*%
%TA.AperFunction,SMDPad,CuDef*%
%ADD22RoundRect,0.062500X0.062500X-0.237500X0.062500X0.237500X-0.062500X0.237500X-0.062500X-0.237500X0*%
%TD*%
%TA.AperFunction,SMDPad,CuDef*%
%ADD23RoundRect,0.062500X0.237500X0.062500X-0.237500X0.062500X-0.237500X-0.062500X0.237500X-0.062500X0*%
%TD*%
%TA.AperFunction,SMDPad,CuDef*%
%ADD24RoundRect,0.062500X-0.062500X0.237500X-0.062500X-0.237500X0.062500X-0.237500X0.062500X0.237500X0*%
%TD*%
%TA.AperFunction,ComponentPad*%
%ADD25C,0.400000*%
%TD*%
%TA.AperFunction,ComponentPad*%
%ADD26C,0.450000*%
%TD*%
%TA.AperFunction,HeatsinkPad*%
%ADD27R,3.700000X5.700000*%
%TD*%
%TA.AperFunction,SMDPad,CuDef*%
%ADD28RoundRect,0.250000X-0.400000X-0.625000X0.400000X-0.625000X0.400000X0.625000X-0.400000X0.625000X0*%
%TD*%
%TA.AperFunction,SMDPad,CuDef*%
%ADD29RoundRect,0.250000X-0.275000X-0.700000X0.275000X-0.700000X0.275000X0.700000X-0.275000X0.700000X0*%
%TD*%
%TA.AperFunction,SMDPad,CuDef*%
%ADD30RoundRect,0.250000X0.337500X0.475000X-0.337500X0.475000X-0.337500X-0.475000X0.337500X-0.475000X0*%
%TD*%
%TA.AperFunction,SMDPad,CuDef*%
%ADD31RoundRect,0.250000X-0.550000X1.050000X-0.550000X-1.050000X0.550000X-1.050000X0.550000X1.050000X0*%
%TD*%
%TA.AperFunction,ViaPad*%
%ADD32C,0.800000*%
%TD*%
%TA.AperFunction,Conductor*%
%ADD33C,0.250000*%
%TD*%
%TA.AperFunction,Conductor*%
%ADD34C,1.000000*%
%TD*%
%TA.AperFunction,Conductor*%
%ADD35C,1.500000*%
%TD*%
%TA.AperFunction,Conductor*%
%ADD36C,0.500000*%
%TD*%
%TA.AperFunction,Conductor*%
%ADD37C,0.750000*%
%TD*%
G04 APERTURE END LIST*
D10*
%TO.P,C2,1*%
%TO.N,VM*%
X143100000Y-110662500D03*
%TO.P,C2,2*%
%TO.N,PNGD*%
X143100000Y-112737500D03*
%TD*%
D11*
%TO.P,R4,1*%
%TO.N,AVDD*%
X160100000Y-100600000D03*
%TO.P,R4,2*%
%TO.N,SCL*%
X162100000Y-100600000D03*
%TD*%
D12*
%TO.P,R2,1*%
%TO.N,nFAULT*%
X142700000Y-85800000D03*
%TO.P,R2,2*%
%TO.N,AVDD*%
X142700000Y-87800000D03*
%TD*%
D13*
%TO.P,J5,1,Pin_1*%
%TO.N,Net-(J5-Pad1)*%
X137625000Y-92775000D03*
D14*
%TO.P,J5,2,Pin_2*%
%TO.N,Net-(J5-Pad2)*%
X140165000Y-92775000D03*
%TO.P,J5,3,Pin_3*%
%TO.N,Net-(J5-Pad3)*%
X137625000Y-95315000D03*
%TO.P,J5,4,Pin_4*%
%TO.N,Net-(J5-Pad2)*%
X140165000Y-95315000D03*
%TO.P,J5,5,Pin_5*%
%TO.N,Net-(J5-Pad5)*%
X137625000Y-97855000D03*
%TO.P,J5,6,Pin_6*%
%TO.N,Net-(J5-Pad2)*%
X140165000Y-97855000D03*
%TD*%
D15*
%TO.P,J2,1,Pin_1*%
%TO.N,Net-(J2-Pad1)*%
X143020000Y-122700000D03*
D16*
%TO.P,J2,2,Pin_2*%
%TO.N,Net-(J2-Pad2)*%
X148100000Y-122700000D03*
%TO.P,J2,3,Pin_3*%
%TO.N,Net-(J2-Pad3)*%
X153180000Y-122700000D03*
%TD*%
D15*
%TO.P,J1,1,Pin_1*%
%TO.N,VM*%
X150640000Y-70800000D03*
D16*
%TO.P,J1,2,Pin_2*%
%TO.N,PNGD*%
X145560000Y-70800000D03*
%TD*%
D17*
%TO.P,C7,1*%
%TO.N,AVDD*%
X154100000Y-96737500D03*
%TO.P,C7,2*%
%TO.N,GNDA*%
X154100000Y-94662500D03*
%TD*%
D13*
%TO.P,J6,1,Pin_1*%
%TO.N,GNDA*%
X130000000Y-76560000D03*
D14*
%TO.P,J6,2,Pin_2*%
%TO.N,FG*%
X130000000Y-79100000D03*
%TO.P,J6,3,Pin_3*%
%TO.N,nFAULT*%
X130000000Y-81640000D03*
%TD*%
D17*
%TO.P,C6,1*%
%TO.N,DVDD*%
X149500000Y-96737500D03*
%TO.P,C6,2*%
%TO.N,GNDA*%
X149500000Y-94662500D03*
%TD*%
D13*
%TO.P,J7,1,Pin_1*%
%TO.N,GNDA*%
X130000000Y-86000000D03*
D14*
%TO.P,J7,2,Pin_2*%
%TO.N,AVDD*%
X130000000Y-88540000D03*
%TO.P,J7,3,Pin_3*%
%TO.N,DVDD*%
X130000000Y-91080000D03*
%TO.P,J7,4,Pin_4*%
%TO.N,BUCK*%
X130000000Y-93620000D03*
%TD*%
D13*
%TO.P,J3,1,Pin_1*%
%TO.N,GNDA*%
X166200000Y-110675000D03*
D14*
%TO.P,J3,2,Pin_2*%
%TO.N,DRVOFF*%
X166200000Y-108135000D03*
%TO.P,J3,3,Pin_3*%
%TO.N,BRAKE*%
X166200000Y-105595000D03*
%TO.P,J3,4,Pin_4*%
%TO.N,EXT_CLK*%
X166200000Y-103055000D03*
%TO.P,J3,5,Pin_5*%
%TO.N,EXT_WD*%
X166200000Y-100515000D03*
%TO.P,J3,6,Pin_6*%
%TO.N,SOX*%
X166200000Y-97975000D03*
%TO.P,J3,7,Pin_7*%
%TO.N,DIR*%
X166200000Y-95435000D03*
%TO.P,J3,8,Pin_8*%
%TO.N,SPEED*%
X166200000Y-92895000D03*
%TD*%
D18*
%TO.P,R1,1*%
%TO.N,FG*%
X154100000Y-103600000D03*
%TO.P,R1,2*%
%TO.N,AVDD*%
X154100000Y-101600000D03*
%TD*%
D19*
%TO.P,D1,1,K*%
%TO.N,Net-(D1-Pad1)*%
X147900000Y-89487500D03*
%TO.P,D1,2,A*%
%TO.N,nFAULT*%
X147900000Y-86512500D03*
%TD*%
D20*
%TO.P,C5,1*%
%TO.N,DGND*%
X145300000Y-93537500D03*
%TO.P,C5,2*%
%TO.N,BUCK*%
X145300000Y-96662500D03*
%TD*%
D13*
%TO.P,J4,1,Pin_1*%
%TO.N,GNDA*%
X166200000Y-81975000D03*
D14*
%TO.P,J4,2,Pin_2*%
%TO.N,SDA*%
X166200000Y-84515000D03*
%TO.P,J4,3,Pin_3*%
%TO.N,SCL*%
X166200000Y-87055000D03*
%TD*%
D21*
%TO.P,U1,1,DVDD*%
%TO.N,DVDD*%
X145890000Y-105080000D03*
%TO.P,U1,2,DGND*%
%TO.N,DGND*%
X145890000Y-105580000D03*
%TO.P,U1,3,FB_BK*%
%TO.N,BUCK*%
X145890000Y-106080000D03*
%TO.P,U1,4,GND_BK*%
%TO.N,DGND*%
X145890000Y-106580000D03*
%TO.P,U1,5,SW_BK*%
%TO.N,Net-(J5-Pad2)*%
X145890000Y-107080000D03*
%TO.P,U1,6,CPL*%
%TO.N,Net-(C4-Pad2)*%
X145890000Y-107580000D03*
%TO.P,U1,7,CPH*%
%TO.N,Net-(C4-Pad1)*%
X145890000Y-108080000D03*
%TO.P,U1,8,CP*%
%TO.N,Net-(C3-Pad1)*%
X145890000Y-108580000D03*
%TO.P,U1,9,VM*%
%TO.N,VM*%
X145890000Y-109080000D03*
%TO.P,U1,10,VM*%
X145890000Y-109580000D03*
%TO.P,U1,11,VM*%
X145890000Y-110080000D03*
%TO.P,U1,12,PGND*%
%TO.N,PNGD*%
X145890000Y-110580000D03*
D22*
%TO.P,U1,13,OUT_A*%
%TO.N,Net-(J2-Pad1)*%
X146560000Y-111230000D03*
%TO.P,U1,14,OUT_A*%
X147060000Y-111230000D03*
%TO.P,U1,15,PNGD*%
%TO.N,PNGD*%
X147560000Y-111230000D03*
%TO.P,U1,16,OUT_B*%
%TO.N,Net-(J2-Pad2)*%
X148060000Y-111230000D03*
%TO.P,U1,17,OUT_B*%
X148560000Y-111230000D03*
%TO.P,U1,18,PNGD*%
%TO.N,PNGD*%
X149060000Y-111230000D03*
%TO.P,U1,19,OUT_C*%
%TO.N,Net-(J2-Pad3)*%
X149560000Y-111230000D03*
%TO.P,U1,20,OUT_C*%
X150060000Y-111230000D03*
D23*
%TO.P,U1,21,DRVOFF*%
%TO.N,DRVOFF*%
X150710000Y-110580000D03*
%TO.P,U1,22,NC*%
%TO.N,unconnected-(U1-Pad22)*%
X150710000Y-110080000D03*
%TO.P,U1,23,NC*%
%TO.N,unconnected-(U1-Pad23)*%
X150710000Y-109580000D03*
%TO.P,U1,24,NC*%
%TO.N,unconnected-(U1-Pad24)*%
X150710000Y-109080000D03*
%TO.P,U1,25,NC*%
%TO.N,unconnected-(U1-Pad25)*%
X150710000Y-108580000D03*
%TO.P,U1,26,AGND*%
%TO.N,GNDA*%
X150710000Y-108080000D03*
%TO.P,U1,27,AVDD*%
%TO.N,AVDD*%
X150710000Y-107580000D03*
%TO.P,U1,28,SPEED/WAKE*%
%TO.N,SPEED*%
X150710000Y-107080000D03*
%TO.P,U1,29,FG*%
%TO.N,FG*%
X150710000Y-106580000D03*
%TO.P,U1,30,SDA*%
%TO.N,SDA*%
X150710000Y-106080000D03*
%TO.P,U1,31,SCL*%
%TO.N,SCL*%
X150710000Y-105580000D03*
%TO.P,U1,32,EXT_WD*%
%TO.N,EXT_WD*%
X150710000Y-105080000D03*
D24*
%TO.P,U1,33,EXT_CLK*%
%TO.N,EXT_CLK*%
X150060000Y-104430000D03*
%TO.P,U1,34,DIR*%
%TO.N,DIR*%
X149560000Y-104430000D03*
%TO.P,U1,35,BRAKE*%
%TO.N,BRAKE*%
X149060000Y-104430000D03*
%TO.P,U1,36,NC*%
%TO.N,unconnected-(U1-Pad36)*%
X148560000Y-104430000D03*
%TO.P,U1,37,NC*%
%TO.N,unconnected-(U1-Pad37)*%
X148060000Y-104430000D03*
%TO.P,U1,38,SOX*%
%TO.N,SOX*%
X147560000Y-104430000D03*
%TO.P,U1,39,NC*%
%TO.N,unconnected-(U1-Pad39)*%
X147060000Y-104430000D03*
%TO.P,U1,40,nFAULT*%
%TO.N,Net-(D1-Pad1)*%
X146560000Y-104430000D03*
D25*
%TO.P,U1,41*%
%TO.N,GNDA*%
X148925000Y-110400000D03*
X146700000Y-106450000D03*
X148925000Y-107800000D03*
D26*
X149900000Y-106450000D03*
D25*
X148925000Y-109150000D03*
D26*
X147675000Y-105200000D03*
D25*
X147650000Y-109150000D03*
X147675000Y-106450000D03*
X146700000Y-107800000D03*
D27*
X148300000Y-107800000D03*
D25*
X147675000Y-110400000D03*
X148925000Y-106450000D03*
X147675000Y-107800000D03*
X149900000Y-107800000D03*
X146700000Y-109150000D03*
D26*
X148925000Y-105200000D03*
D25*
X149900000Y-109150000D03*
%TD*%
D28*
%TO.P,R3,1*%
%TO.N,BUCK*%
X131050000Y-104500000D03*
%TO.P,R3,2*%
%TO.N,Net-(J5-Pad3)*%
X134150000Y-104500000D03*
%TD*%
D29*
%TO.P,L2,1,1*%
%TO.N,BUCK*%
X131125000Y-109000000D03*
%TO.P,L2,2,2*%
%TO.N,Net-(J5-Pad5)*%
X134275000Y-109000000D03*
%TD*%
D17*
%TO.P,C4,1*%
%TO.N,Net-(C4-Pad1)*%
X139900000Y-106237500D03*
%TO.P,C4,2*%
%TO.N,Net-(C4-Pad2)*%
X139900000Y-104162500D03*
%TD*%
D12*
%TO.P,R5,1*%
%TO.N,AVDD*%
X160400000Y-104600000D03*
%TO.P,R5,2*%
%TO.N,SDA*%
X160400000Y-106600000D03*
%TD*%
D29*
%TO.P,L1,1,1*%
%TO.N,BUCK*%
X131125000Y-100000000D03*
%TO.P,L1,2,2*%
%TO.N,Net-(J5-Pad1)*%
X134275000Y-100000000D03*
%TD*%
D30*
%TO.P,C3,1*%
%TO.N,Net-(C3-Pad1)*%
X143137500Y-108600000D03*
%TO.P,C3,2*%
%TO.N,VM*%
X141062500Y-108600000D03*
%TD*%
D31*
%TO.P,C1,1*%
%TO.N,VM*%
X138100000Y-111200000D03*
%TO.P,C1,2*%
%TO.N,PNGD*%
X138100000Y-114800000D03*
%TD*%
D32*
%TO.N,VM*%
X141000000Y-111100000D03*
%TO.N,PNGD*%
X146900000Y-113600000D03*
X134100000Y-112000000D03*
X144900000Y-112200000D03*
X149800000Y-113600000D03*
%TO.N,BUCK*%
X144049500Y-101500688D03*
X143699312Y-99399312D03*
%TO.N,Net-(D1-Pad1)*%
X146300000Y-101500000D03*
X152100000Y-92000000D03*
%TO.N,SOX*%
X155800000Y-92000000D03*
X147600000Y-101500000D03*
%TO.N,DIR*%
X149300000Y-100100000D03*
X158100000Y-92000000D03*
%TO.N,DRVOFF*%
X156500000Y-112200000D03*
%TO.N,EXT_CLK*%
X150800000Y-100100000D03*
%TO.N,EXT_WD*%
X159600000Y-102300000D03*
%TO.N,BRAKE*%
X148700000Y-101500000D03*
%TO.N,FG*%
X159900000Y-92000000D03*
X155600000Y-107000000D03*
X155700000Y-103600000D03*
%TO.N,AVDD*%
X158900000Y-98600000D03*
X162300000Y-103500000D03*
%TO.N,SCL*%
X157800000Y-97100000D03*
%TO.N,SDA*%
X156800000Y-106900000D03*
%TO.N,SPEED*%
X155300000Y-108200000D03*
%TO.N,GNDA*%
X154700000Y-110300000D03*
X139200000Y-86800000D03*
X139200000Y-89300000D03*
X152300000Y-93400000D03*
X152200000Y-100100000D03*
%TD*%
D33*
%TO.N,VM*%
X144520000Y-110080000D02*
X145890000Y-110080000D01*
D34*
X141000000Y-108600000D02*
X141000000Y-111100000D01*
D33*
X145890000Y-109580000D02*
X145020000Y-109580000D01*
D34*
X143100000Y-110662500D02*
X143637500Y-110662500D01*
X138500000Y-111100000D02*
X141000000Y-111100000D01*
D35*
X138200000Y-110800000D02*
X138200000Y-111200000D01*
D33*
X144850000Y-109750000D02*
X145200000Y-109400000D01*
D35*
X138200000Y-110800000D02*
X138337500Y-110662500D01*
D33*
X144800000Y-109500000D02*
X144800000Y-109800000D01*
X145220000Y-109080000D02*
X144800000Y-109500000D01*
D34*
X143637500Y-110662500D02*
X144800000Y-109500000D01*
D33*
X145890000Y-109080000D02*
X145220000Y-109080000D01*
X144800000Y-109800000D02*
X144520000Y-110080000D01*
X141000000Y-111100000D02*
X141062500Y-111037500D01*
X144850000Y-109750000D02*
X144520000Y-110080000D01*
X145020000Y-109580000D02*
X144850000Y-109750000D01*
D35*
X138337500Y-110662500D02*
X143100000Y-110662500D01*
D33*
X145200000Y-109400000D02*
X145020000Y-109580000D01*
%TO.N,PNGD*%
X145257500Y-110580000D02*
X145890000Y-110580000D01*
X149060000Y-112720000D02*
X149060000Y-111230000D01*
D34*
X136900000Y-114800000D02*
X138100000Y-114800000D01*
D36*
X146900000Y-113600000D02*
X147400000Y-113100000D01*
D34*
X138700000Y-114800000D02*
X139700000Y-113800000D01*
X142037500Y-113800000D02*
X143100000Y-112737500D01*
D36*
X147400000Y-113100000D02*
X147400000Y-112800000D01*
X144900000Y-112200000D02*
X144362500Y-112737500D01*
D33*
X149200000Y-112860000D02*
X149060000Y-112720000D01*
D36*
X149200000Y-113000000D02*
X149200000Y-112860000D01*
D33*
X147560000Y-112640000D02*
X147560000Y-111230000D01*
X143100000Y-112737500D02*
X145257500Y-110580000D01*
D36*
X149800000Y-113600000D02*
X149200000Y-113000000D01*
D33*
X147400000Y-112800000D02*
X147560000Y-112640000D01*
D36*
X144362500Y-112737500D02*
X143100000Y-112737500D01*
D34*
X139700000Y-113800000D02*
X142037500Y-113800000D01*
X134100000Y-112000000D02*
X136900000Y-114800000D01*
D33*
X138100000Y-114800000D02*
X138700000Y-114800000D01*
%TO.N,Net-(C3-Pad1)*%
X143157500Y-108580000D02*
X145890000Y-108580000D01*
X143137500Y-108600000D02*
X143157500Y-108580000D01*
D36*
%TO.N,Net-(C4-Pad1)*%
X142237500Y-106237500D02*
X139900000Y-106237500D01*
X142300000Y-106300000D02*
X142237500Y-106237500D01*
D33*
X142462493Y-106300000D02*
X144242493Y-108080000D01*
X142300000Y-106300000D02*
X142462493Y-106300000D01*
X144242493Y-108080000D02*
X145890000Y-108080000D01*
%TO.N,Net-(C4-Pad2)*%
X144415718Y-107580000D02*
X145890000Y-107580000D01*
D36*
X141300000Y-105300000D02*
X140162500Y-104162500D01*
D33*
X142135718Y-105300000D02*
X144415718Y-107580000D01*
X142000000Y-105300000D02*
X142135718Y-105300000D01*
D36*
X142000000Y-105300000D02*
X141300000Y-105300000D01*
D33*
X140162500Y-104162500D02*
X139900000Y-104162500D01*
D36*
%TO.N,BUCK*%
X143699312Y-99399312D02*
X143699312Y-98263188D01*
X130000000Y-98875000D02*
X130000000Y-93620000D01*
D33*
X145180000Y-106080000D02*
X145890000Y-106080000D01*
X144049500Y-101500688D02*
X144000000Y-101550188D01*
D36*
X141400000Y-91200000D02*
X142700000Y-92500000D01*
D33*
X131125000Y-104425000D02*
X131050000Y-104500000D01*
D36*
X131125000Y-109000000D02*
X131125000Y-104575000D01*
X144362500Y-96662500D02*
X145300000Y-96662500D01*
X131125000Y-100000000D02*
X130000000Y-98875000D01*
X142700000Y-92500000D02*
X142700000Y-95000000D01*
D33*
X144000000Y-101550188D02*
X144000000Y-104900000D01*
D36*
X135500000Y-91200000D02*
X141400000Y-91200000D01*
X142700000Y-95000000D02*
X144362500Y-96662500D01*
X130000000Y-93620000D02*
X133080000Y-93620000D01*
D33*
X131125000Y-104575000D02*
X131050000Y-104500000D01*
X144000000Y-104900000D02*
X145180000Y-106080000D01*
D36*
X133080000Y-93620000D02*
X135500000Y-91200000D01*
X143699312Y-98263188D02*
X145300000Y-96662500D01*
X131125000Y-100000000D02*
X131125000Y-104425000D01*
%TO.N,DVDD*%
X145900000Y-100300000D02*
X145900000Y-99700000D01*
X144500000Y-90400000D02*
X147700000Y-93600000D01*
X130000000Y-91080000D02*
X131420000Y-91080000D01*
X145700000Y-100500000D02*
X145900000Y-100300000D01*
X131420000Y-91080000D02*
X132100000Y-90400000D01*
D33*
X145575489Y-100624511D02*
X145575489Y-104765489D01*
D36*
X145900000Y-99700000D02*
X148862500Y-96737500D01*
D33*
X149500000Y-96737500D02*
X148862500Y-96737500D01*
X145575489Y-104765489D02*
X145890000Y-105080000D01*
X145700000Y-100500000D02*
X145575489Y-100624511D01*
D36*
X147700000Y-94937500D02*
X149500000Y-96737500D01*
X132100000Y-90400000D02*
X144500000Y-90400000D01*
X147700000Y-93600000D02*
X147700000Y-94937500D01*
%TO.N,Net-(D1-Pad1)*%
X147900000Y-89487500D02*
X149587500Y-89487500D01*
X149587500Y-89487500D02*
X152100000Y-92000000D01*
D33*
X146300000Y-101500000D02*
X146560000Y-101760000D01*
X146560000Y-101760000D02*
X146560000Y-104430000D01*
D36*
%TO.N,Net-(J5-Pad3)*%
X135800000Y-102850000D02*
X135800000Y-97140000D01*
X135800000Y-97140000D02*
X137625000Y-95315000D01*
X134150000Y-104500000D02*
X135800000Y-102850000D01*
D33*
%TO.N,Net-(J2-Pad1)*%
X145600000Y-113400000D02*
X145549022Y-113400000D01*
X147060000Y-111230000D02*
X147060000Y-111940000D01*
X146700000Y-112100000D02*
X145624511Y-113175489D01*
D37*
X143020000Y-115780000D02*
X143020000Y-122700000D01*
D33*
X145549022Y-113400000D02*
X145324511Y-113175489D01*
X145624511Y-113175489D02*
X145324511Y-113175489D01*
X146560000Y-111230000D02*
X146560000Y-111940000D01*
X146560000Y-111940000D02*
X145324511Y-113175489D01*
X147060000Y-111940000D02*
X145600000Y-113400000D01*
D37*
X146700000Y-112100000D02*
X143020000Y-115780000D01*
D33*
%TO.N,Net-(J2-Pad2)*%
X148560000Y-111840000D02*
X148560000Y-111230000D01*
D37*
X148300000Y-112100000D02*
X148300000Y-122500000D01*
D33*
X148300000Y-112100000D02*
X148560000Y-111840000D01*
X148060000Y-111860000D02*
X148060000Y-111230000D01*
X148300000Y-112100000D02*
X148060000Y-111860000D01*
D37*
%TO.N,Net-(J2-Pad3)*%
X150200000Y-112100000D02*
X153180000Y-115080000D01*
X153180000Y-115080000D02*
X153180000Y-122700000D01*
D33*
X150060000Y-112040000D02*
X150000000Y-112100000D01*
X150060000Y-111230000D02*
X150060000Y-112040000D01*
X150000000Y-112100000D02*
X150200000Y-112100000D01*
X149560000Y-111660000D02*
X150000000Y-112100000D01*
X149560000Y-111230000D02*
X149560000Y-111660000D01*
D36*
%TO.N,SOX*%
X162175000Y-97975000D02*
X166200000Y-97975000D01*
D33*
X147610480Y-101510480D02*
X147610480Y-104500000D01*
D36*
X156200000Y-92000000D02*
X162175000Y-97975000D01*
X155800000Y-92000000D02*
X156200000Y-92000000D01*
D33*
X147600000Y-101500000D02*
X147610480Y-101510480D01*
%TO.N,DIR*%
X149560000Y-100360000D02*
X149560000Y-104430000D01*
X149300000Y-100100000D02*
X149560000Y-100360000D01*
D36*
X158100000Y-92700000D02*
X160835000Y-95435000D01*
X160835000Y-95435000D02*
X166200000Y-95435000D01*
X158100000Y-92000000D02*
X158100000Y-92700000D01*
%TO.N,DRVOFF*%
X152330000Y-112200000D02*
X156500000Y-112200000D01*
D33*
X150710000Y-110580000D02*
X152330000Y-112200000D01*
%TO.N,EXT_CLK*%
X150060000Y-104430000D02*
X150060000Y-100840000D01*
X150060000Y-100840000D02*
X150800000Y-100100000D01*
%TO.N,EXT_WD*%
X156020000Y-105080000D02*
X150710000Y-105080000D01*
D36*
X158800000Y-102300000D02*
X159600000Y-102300000D01*
X156100000Y-105000000D02*
X158800000Y-102300000D01*
D33*
%TO.N,BRAKE*%
X149060000Y-101860000D02*
X149060000Y-104430000D01*
X148700000Y-101500000D02*
X149060000Y-101860000D01*
D36*
%TO.N,nFAULT*%
X130000000Y-81640000D02*
X130060000Y-81700000D01*
X130060000Y-81700000D02*
X143087500Y-81700000D01*
X147900000Y-86512500D02*
X147187500Y-85800000D01*
X143087500Y-81700000D02*
X147900000Y-86512500D01*
X147187500Y-85800000D02*
X142700000Y-85800000D01*
%TO.N,FG*%
X143200000Y-79100000D02*
X154600000Y-90500000D01*
X154600000Y-90500000D02*
X158400000Y-90500000D01*
X130000000Y-79100000D02*
X143200000Y-79100000D01*
X158400000Y-90500000D02*
X159900000Y-92000000D01*
D33*
X155180000Y-106580000D02*
X150710000Y-106580000D01*
X155600000Y-107000000D02*
X155180000Y-106580000D01*
D36*
X154100000Y-103600000D02*
X155700000Y-103600000D01*
%TO.N,Net-(J5-Pad1)*%
X134275000Y-96125000D02*
X137625000Y-92775000D01*
X134275000Y-100000000D02*
X134275000Y-96125000D01*
%TO.N,AVDD*%
X161500000Y-103500000D02*
X160400000Y-104600000D01*
X161800000Y-108000000D02*
X161800000Y-105600000D01*
X153301391Y-107700000D02*
X155101391Y-109500000D01*
X160300000Y-109500000D02*
X161800000Y-108000000D01*
X142800000Y-88100000D02*
X150200000Y-88100000D01*
X143300000Y-88100000D02*
X130440000Y-88100000D01*
X155500000Y-93400000D02*
X155500000Y-95900000D01*
X161800000Y-105600000D02*
X160800000Y-104600000D01*
X162300000Y-103500000D02*
X161500000Y-103500000D01*
D33*
X150710000Y-107580000D02*
X152880000Y-107580000D01*
D36*
X153000000Y-107700000D02*
X153301391Y-107700000D01*
X150200000Y-88100000D02*
X155500000Y-93400000D01*
X155101391Y-109500000D02*
X160300000Y-109500000D01*
X130440000Y-88100000D02*
X130000000Y-88540000D01*
X154100000Y-101600000D02*
X159100000Y-101600000D01*
X159100000Y-101600000D02*
X160100000Y-100600000D01*
D34*
X154100000Y-96737500D02*
X154100000Y-101600000D01*
D36*
X155500000Y-95900000D02*
X154662500Y-96737500D01*
X160100000Y-100600000D02*
X160100000Y-99800000D01*
D33*
X143300000Y-88100000D02*
X142800000Y-88100000D01*
D36*
X160800000Y-104600000D02*
X160400000Y-104600000D01*
D33*
X154662500Y-96737500D02*
X154100000Y-96737500D01*
D36*
X160100000Y-99800000D02*
X158900000Y-98600000D01*
D33*
X152880000Y-107580000D02*
X153000000Y-107700000D01*
D36*
%TO.N,SCL*%
X162100000Y-101600000D02*
X162100000Y-100600000D01*
D33*
X150710000Y-105580000D02*
X156920000Y-105580000D01*
D36*
X162100000Y-99200000D02*
X162100000Y-100600000D01*
X156920000Y-105580000D02*
X159100000Y-103400000D01*
X160000000Y-97100000D02*
X162100000Y-99200000D01*
X159100000Y-103400000D02*
X160300000Y-103400000D01*
X157800000Y-97100000D02*
X160000000Y-97100000D01*
X160300000Y-103400000D02*
X162100000Y-101600000D01*
D33*
%TO.N,SDA*%
X160100000Y-106900000D02*
X160400000Y-106600000D01*
X156800000Y-106900000D02*
X155980000Y-106080000D01*
D36*
X156800000Y-106900000D02*
X160100000Y-106900000D01*
D33*
X155980000Y-106080000D02*
X150710000Y-106080000D01*
%TO.N,SPEED*%
X154180000Y-107080000D02*
X150710000Y-107080000D01*
X155300000Y-108200000D02*
X154180000Y-107080000D01*
D36*
%TO.N,Net-(J5-Pad5)*%
X137625000Y-105650000D02*
X137625000Y-97855000D01*
X134275000Y-109000000D02*
X137625000Y-105650000D01*
D33*
%TO.N,Net-(J5-Pad2)*%
X145890000Y-107080000D02*
X144680000Y-107080000D01*
D36*
X142300000Y-99990000D02*
X140165000Y-97855000D01*
X140165000Y-92775000D02*
X140165000Y-95315000D01*
X142300000Y-104264282D02*
X142300000Y-99990000D01*
X140165000Y-95315000D02*
X140165000Y-97855000D01*
D33*
X144680000Y-107080000D02*
X142300000Y-104700000D01*
X142300000Y-104700000D02*
X142300000Y-104264282D01*
%TO.N,GNDA*%
X148300000Y-107916772D02*
X148300000Y-107800000D01*
D36*
X154800000Y-110400000D02*
X165925000Y-110400000D01*
D33*
X149142261Y-108324511D02*
X148707739Y-108324511D01*
D36*
X154100000Y-94662500D02*
X150937500Y-94662500D01*
X130000000Y-86000000D02*
X138400000Y-86000000D01*
X139200000Y-89300000D02*
X144935718Y-89300000D01*
D33*
X151037500Y-94662500D02*
X150937500Y-94662500D01*
D36*
X152200000Y-100100000D02*
X152200000Y-96100000D01*
D33*
X154700000Y-110300000D02*
X154500000Y-110300000D01*
X150710000Y-108080000D02*
X149386772Y-108080000D01*
X152400000Y-108200000D02*
X152280000Y-108080000D01*
D36*
X152200000Y-96100000D02*
X150762500Y-94662500D01*
D33*
X154700000Y-110300000D02*
X154800000Y-110400000D01*
D36*
X130000000Y-76560000D02*
X128600000Y-77960000D01*
X144935718Y-89300000D02*
X149500000Y-93864282D01*
X149500000Y-93864282D02*
X149500000Y-94662500D01*
D33*
X165925000Y-110400000D02*
X166200000Y-110675000D01*
D36*
X128600000Y-84600000D02*
X130000000Y-86000000D01*
X150762500Y-94662500D02*
X149500000Y-94662500D01*
D33*
X148707739Y-108324511D02*
X148300000Y-107916772D01*
X149386772Y-108080000D02*
X149142261Y-108324511D01*
D36*
X138400000Y-86000000D02*
X139200000Y-86800000D01*
X128600000Y-77960000D02*
X128600000Y-84600000D01*
X152300000Y-93400000D02*
X151037500Y-94662500D01*
X150937500Y-94662500D02*
X149500000Y-94662500D01*
D33*
X152280000Y-108080000D02*
X150710000Y-108080000D01*
D36*
X154500000Y-110300000D02*
X152400000Y-108200000D01*
D33*
%TO.N,DGND*%
X143200000Y-104900000D02*
X144880000Y-106580000D01*
D36*
X145000000Y-102400000D02*
X145000000Y-99400000D01*
D33*
X143200000Y-104300000D02*
X143200000Y-104900000D01*
X146237500Y-93537500D02*
X145300000Y-93537500D01*
D36*
X144700000Y-102700000D02*
X145000000Y-102400000D01*
X146900000Y-97448797D02*
X146900000Y-94200000D01*
X144700000Y-104300000D02*
X144700000Y-102700000D01*
X146900000Y-94200000D02*
X146237500Y-93537500D01*
X143200000Y-101148797D02*
X146900000Y-97448797D01*
D33*
X144700000Y-104737328D02*
X145542672Y-105580000D01*
X144880000Y-106580000D02*
X145890000Y-106580000D01*
D36*
X143200000Y-104300000D02*
X143200000Y-101148797D01*
D33*
X144700000Y-104300000D02*
X144700000Y-104737328D01*
X145542672Y-105580000D02*
X145890000Y-105580000D01*
%TD*%
%TA.AperFunction,Conductor*%
%TO.N,GNDA*%
G36*
X136208621Y-91978502D02*
G01*
X136255114Y-92032158D01*
X136266500Y-92084500D01*
X136266500Y-93008629D01*
X136246498Y-93076750D01*
X136229595Y-93097724D01*
X133786089Y-95541230D01*
X133771677Y-95553616D01*
X133760082Y-95562149D01*
X133760077Y-95562154D01*
X133754182Y-95566492D01*
X133749443Y-95572070D01*
X133749440Y-95572073D01*
X133719965Y-95606768D01*
X133713035Y-95614284D01*
X133707340Y-95619979D01*
X133705060Y-95622861D01*
X133689719Y-95642251D01*
X133686928Y-95645655D01*
X133666480Y-95669724D01*
X133639667Y-95701285D01*
X133636339Y-95707801D01*
X133632972Y-95712850D01*
X133629805Y-95717979D01*
X133625266Y-95723716D01*
X133594345Y-95789875D01*
X133592442Y-95793769D01*
X133559231Y-95858808D01*
X133557492Y-95865916D01*
X133555393Y-95871559D01*
X133553476Y-95877322D01*
X133550378Y-95883950D01*
X133548888Y-95891112D01*
X133548888Y-95891113D01*
X133535514Y-95955412D01*
X133534544Y-95959696D01*
X133517192Y-96030610D01*
X133516500Y-96041764D01*
X133516464Y-96041762D01*
X133516225Y-96045755D01*
X133515851Y-96049947D01*
X133514360Y-96057115D01*
X133514872Y-96076054D01*
X133516454Y-96134521D01*
X133516500Y-96137928D01*
X133516500Y-98658563D01*
X133496498Y-98726684D01*
X133479673Y-98747581D01*
X133437400Y-98789928D01*
X133400695Y-98826697D01*
X133396855Y-98832927D01*
X133396854Y-98832928D01*
X133313393Y-98968327D01*
X133307885Y-98977262D01*
X133293035Y-99022033D01*
X133258785Y-99125296D01*
X133252203Y-99145139D01*
X133241500Y-99249600D01*
X133241500Y-100750400D01*
X133241837Y-100753646D01*
X133241837Y-100753650D01*
X133250654Y-100838621D01*
X133252474Y-100856166D01*
X133254655Y-100862702D01*
X133254655Y-100862704D01*
X133298728Y-100994806D01*
X133308450Y-101023946D01*
X133401522Y-101174348D01*
X133526697Y-101299305D01*
X133532927Y-101303145D01*
X133532928Y-101303146D01*
X133655934Y-101378968D01*
X133677262Y-101392115D01*
X133707478Y-101402137D01*
X133838611Y-101445632D01*
X133838613Y-101445632D01*
X133845139Y-101447797D01*
X133851975Y-101448497D01*
X133851978Y-101448498D01*
X133895031Y-101452909D01*
X133949600Y-101458500D01*
X134600400Y-101458500D01*
X134603646Y-101458163D01*
X134603650Y-101458163D01*
X134699308Y-101448238D01*
X134699312Y-101448237D01*
X134706166Y-101447526D01*
X134712702Y-101445345D01*
X134712704Y-101445345D01*
X134873946Y-101391550D01*
X134874837Y-101394221D01*
X134932226Y-101385403D01*
X134997088Y-101414271D01*
X135036047Y-101473623D01*
X135041500Y-101510288D01*
X135041500Y-102483629D01*
X135021498Y-102551750D01*
X135004595Y-102572724D01*
X134497724Y-103079595D01*
X134435412Y-103113621D01*
X134408629Y-103116500D01*
X133699600Y-103116500D01*
X133696354Y-103116837D01*
X133696350Y-103116837D01*
X133600692Y-103126762D01*
X133600688Y-103126763D01*
X133593834Y-103127474D01*
X133587298Y-103129655D01*
X133587296Y-103129655D01*
X133507312Y-103156340D01*
X133426054Y-103183450D01*
X133275652Y-103276522D01*
X133150695Y-103401697D01*
X133146855Y-103407927D01*
X133146854Y-103407928D01*
X133088706Y-103502262D01*
X133057885Y-103552262D01*
X133055581Y-103559209D01*
X133021389Y-103662296D01*
X133002203Y-103720139D01*
X132991500Y-103824600D01*
X132991500Y-105175400D01*
X132991837Y-105178646D01*
X132991837Y-105178650D01*
X133001725Y-105273946D01*
X133002474Y-105281166D01*
X133004655Y-105287702D01*
X133004655Y-105287704D01*
X133005942Y-105291561D01*
X133058450Y-105448946D01*
X133151522Y-105599348D01*
X133276697Y-105724305D01*
X133282927Y-105728145D01*
X133282928Y-105728146D01*
X133420090Y-105812694D01*
X133427262Y-105817115D01*
X133476366Y-105833402D01*
X133588611Y-105870632D01*
X133588613Y-105870632D01*
X133595139Y-105872797D01*
X133601975Y-105873497D01*
X133601978Y-105873498D01*
X133645031Y-105877909D01*
X133699600Y-105883500D01*
X134600400Y-105883500D01*
X134603646Y-105883163D01*
X134603650Y-105883163D01*
X134699308Y-105873238D01*
X134699312Y-105873237D01*
X134706166Y-105872526D01*
X134712702Y-105870345D01*
X134712704Y-105870345D01*
X134864840Y-105819588D01*
X134873946Y-105816550D01*
X135024348Y-105723478D01*
X135149305Y-105598303D01*
X135164297Y-105573982D01*
X135238275Y-105453968D01*
X135238276Y-105453966D01*
X135242115Y-105447738D01*
X135288894Y-105306704D01*
X135295632Y-105286389D01*
X135295632Y-105286387D01*
X135297797Y-105279861D01*
X135298742Y-105270645D01*
X135305172Y-105207881D01*
X135308500Y-105175400D01*
X135308500Y-104466371D01*
X135328502Y-104398250D01*
X135345405Y-104377276D01*
X136288911Y-103433770D01*
X136303323Y-103421384D01*
X136314918Y-103412851D01*
X136314923Y-103412846D01*
X136320818Y-103408508D01*
X136325557Y-103402930D01*
X136325560Y-103402927D01*
X136355035Y-103368232D01*
X136361965Y-103360716D01*
X136367660Y-103355021D01*
X136385281Y-103332749D01*
X136388072Y-103329345D01*
X136430591Y-103279297D01*
X136430592Y-103279295D01*
X136435333Y-103273715D01*
X136438661Y-103267199D01*
X136442028Y-103262150D01*
X136445195Y-103257021D01*
X136449734Y-103251284D01*
X136480655Y-103185125D01*
X136482561Y-103181225D01*
X136515769Y-103116192D01*
X136517508Y-103109084D01*
X136519607Y-103103441D01*
X136521524Y-103097678D01*
X136524622Y-103091050D01*
X136539487Y-103019583D01*
X136540457Y-103015299D01*
X136551841Y-102968774D01*
X136557808Y-102944390D01*
X136558500Y-102933236D01*
X136558536Y-102933238D01*
X136558775Y-102929245D01*
X136559149Y-102925053D01*
X136560640Y-102917885D01*
X136558546Y-102840479D01*
X136558500Y-102837072D01*
X136558500Y-99003702D01*
X136578502Y-98935581D01*
X136632158Y-98889088D01*
X136702432Y-98878984D01*
X136764985Y-98906758D01*
X136818933Y-98951546D01*
X136820985Y-98953250D01*
X136860620Y-99012152D01*
X136866500Y-99050194D01*
X136866500Y-105283629D01*
X136846498Y-105351750D01*
X136829595Y-105372724D01*
X134697324Y-107504995D01*
X134635012Y-107539021D01*
X134602302Y-107541695D01*
X134600400Y-107541500D01*
X133949600Y-107541500D01*
X133946354Y-107541837D01*
X133946350Y-107541837D01*
X133850692Y-107551762D01*
X133850688Y-107551763D01*
X133843834Y-107552474D01*
X133837298Y-107554655D01*
X133837296Y-107554655D01*
X133705194Y-107598728D01*
X133676054Y-107608450D01*
X133525652Y-107701522D01*
X133400695Y-107826697D01*
X133396855Y-107832927D01*
X133396854Y-107832928D01*
X133312276Y-107970139D01*
X133307885Y-107977262D01*
X133294826Y-108016635D01*
X133267706Y-108098400D01*
X133252203Y-108145139D01*
X133241500Y-108249600D01*
X133241500Y-109750400D01*
X133241837Y-109753646D01*
X133241837Y-109753650D01*
X133250196Y-109834209D01*
X133252474Y-109856166D01*
X133254655Y-109862702D01*
X133254655Y-109862704D01*
X133259301Y-109876629D01*
X133308450Y-110023946D01*
X133401522Y-110174348D01*
X133526697Y-110299305D01*
X133532927Y-110303145D01*
X133532928Y-110303146D01*
X133670090Y-110387694D01*
X133677262Y-110392115D01*
X133685520Y-110394854D01*
X133838611Y-110445632D01*
X133838613Y-110445632D01*
X133845139Y-110447797D01*
X133851975Y-110448497D01*
X133851978Y-110448498D01*
X133895031Y-110452909D01*
X133949600Y-110458500D01*
X134600400Y-110458500D01*
X134603646Y-110458163D01*
X134603650Y-110458163D01*
X134699308Y-110448238D01*
X134699312Y-110448237D01*
X134706166Y-110447526D01*
X134712702Y-110445345D01*
X134712704Y-110445345D01*
X134850204Y-110399471D01*
X134873946Y-110391550D01*
X135024348Y-110298478D01*
X135149305Y-110173303D01*
X135153146Y-110167072D01*
X135238275Y-110028968D01*
X135238276Y-110028966D01*
X135242115Y-110022738D01*
X135290577Y-109876629D01*
X135295632Y-109861389D01*
X135295632Y-109861387D01*
X135297797Y-109854861D01*
X135308500Y-109750400D01*
X135308500Y-109091371D01*
X135328502Y-109023250D01*
X135345405Y-109002276D01*
X138113911Y-106233770D01*
X138128323Y-106221384D01*
X138139918Y-106212851D01*
X138139923Y-106212846D01*
X138145818Y-106208508D01*
X138150557Y-106202930D01*
X138150560Y-106202927D01*
X138180035Y-106168232D01*
X138186965Y-106160716D01*
X138192660Y-106155021D01*
X138203357Y-106141500D01*
X138210281Y-106132749D01*
X138213072Y-106129345D01*
X138255591Y-106079297D01*
X138255592Y-106079295D01*
X138260333Y-106073715D01*
X138263661Y-106067199D01*
X138267028Y-106062150D01*
X138270195Y-106057021D01*
X138274734Y-106051284D01*
X138305655Y-105985125D01*
X138307561Y-105981225D01*
X138311552Y-105973410D01*
X138340769Y-105916192D01*
X138342508Y-105909084D01*
X138344607Y-105903441D01*
X138346524Y-105897678D01*
X138349622Y-105891050D01*
X138351263Y-105883163D01*
X138364486Y-105819588D01*
X138365457Y-105815299D01*
X138365952Y-105813275D01*
X138382808Y-105744390D01*
X138383500Y-105733236D01*
X138383536Y-105733238D01*
X138383775Y-105729245D01*
X138384149Y-105725053D01*
X138385640Y-105717885D01*
X138383546Y-105640479D01*
X138383500Y-105637072D01*
X138383500Y-99047632D01*
X138403502Y-98979511D01*
X138436331Y-98945054D01*
X138504860Y-98896173D01*
X138530475Y-98870648D01*
X138618063Y-98783365D01*
X138663096Y-98738489D01*
X138683072Y-98710690D01*
X138793453Y-98557077D01*
X138794776Y-98558028D01*
X138841645Y-98514857D01*
X138911580Y-98502625D01*
X138977026Y-98530144D01*
X139004875Y-98561994D01*
X139064987Y-98660088D01*
X139211250Y-98828938D01*
X139383126Y-98971632D01*
X139576000Y-99084338D01*
X139784692Y-99164030D01*
X139789760Y-99165061D01*
X139789763Y-99165062D01*
X139892363Y-99185936D01*
X140003597Y-99208567D01*
X140008772Y-99208757D01*
X140008774Y-99208757D01*
X140221673Y-99216564D01*
X140221677Y-99216564D01*
X140226837Y-99216753D01*
X140366908Y-99198809D01*
X140437017Y-99209993D01*
X140472012Y-99234693D01*
X141504595Y-100267276D01*
X141538621Y-100329588D01*
X141541500Y-100356371D01*
X141541500Y-104164629D01*
X141521498Y-104232750D01*
X141467842Y-104279243D01*
X141397568Y-104289347D01*
X141332988Y-104259853D01*
X141326405Y-104253724D01*
X141170405Y-104097724D01*
X141136379Y-104035412D01*
X141133500Y-104008629D01*
X141133500Y-103774600D01*
X141128559Y-103726978D01*
X141123238Y-103675692D01*
X141123237Y-103675688D01*
X141122526Y-103668834D01*
X141116950Y-103652119D01*
X141068868Y-103508002D01*
X141066550Y-103501054D01*
X140973478Y-103350652D01*
X140848303Y-103225695D01*
X140811188Y-103202817D01*
X140703968Y-103136725D01*
X140703966Y-103136724D01*
X140697738Y-103132885D01*
X140571609Y-103091050D01*
X140536389Y-103079368D01*
X140536387Y-103079368D01*
X140529861Y-103077203D01*
X140523025Y-103076503D01*
X140523022Y-103076502D01*
X140479969Y-103072091D01*
X140425400Y-103066500D01*
X139374600Y-103066500D01*
X139371354Y-103066837D01*
X139371350Y-103066837D01*
X139275692Y-103076762D01*
X139275688Y-103076763D01*
X139268834Y-103077474D01*
X139262298Y-103079655D01*
X139262296Y-103079655D01*
X139152782Y-103116192D01*
X139101054Y-103133450D01*
X138950652Y-103226522D01*
X138825695Y-103351697D01*
X138821855Y-103357927D01*
X138821854Y-103357928D01*
X138760418Y-103457596D01*
X138732885Y-103502262D01*
X138677203Y-103670139D01*
X138666500Y-103774600D01*
X138666500Y-104550400D01*
X138666837Y-104553646D01*
X138666837Y-104553650D01*
X138672670Y-104609862D01*
X138677474Y-104656166D01*
X138679655Y-104662702D01*
X138679655Y-104662704D01*
X138703242Y-104733401D01*
X138733450Y-104823946D01*
X138826522Y-104974348D01*
X138951697Y-105099305D01*
X138955916Y-105101906D01*
X138996417Y-105159030D01*
X138999649Y-105229953D01*
X138964024Y-105291365D01*
X138956470Y-105297922D01*
X138950652Y-105301522D01*
X138825695Y-105426697D01*
X138821855Y-105432927D01*
X138821854Y-105432928D01*
X138742481Y-105561695D01*
X138732885Y-105577262D01*
X138714104Y-105633885D01*
X138684388Y-105723478D01*
X138677203Y-105745139D01*
X138676503Y-105751975D01*
X138676502Y-105751978D01*
X138673331Y-105782928D01*
X138666500Y-105849600D01*
X138666500Y-106625400D01*
X138666837Y-106628646D01*
X138666837Y-106628650D01*
X138668207Y-106641849D01*
X138677474Y-106731166D01*
X138679655Y-106737702D01*
X138679655Y-106737704D01*
X138685251Y-106754476D01*
X138733450Y-106898946D01*
X138826522Y-107049348D01*
X138951697Y-107174305D01*
X138957927Y-107178145D01*
X138957928Y-107178146D01*
X139051186Y-107235631D01*
X139102262Y-107267115D01*
X139175965Y-107291561D01*
X139263611Y-107320632D01*
X139263613Y-107320632D01*
X139270139Y-107322797D01*
X139276975Y-107323497D01*
X139276978Y-107323498D01*
X139320031Y-107327909D01*
X139374600Y-107333500D01*
X140139521Y-107333500D01*
X140207642Y-107353502D01*
X140254135Y-107407158D01*
X140264239Y-107477432D01*
X140234745Y-107542012D01*
X140228694Y-107548518D01*
X140171181Y-107606132D01*
X140125695Y-107651697D01*
X140121855Y-107657927D01*
X140121854Y-107657928D01*
X140042176Y-107787190D01*
X140032885Y-107802262D01*
X140012869Y-107862610D01*
X139990363Y-107930464D01*
X139977203Y-107970139D01*
X139976503Y-107976975D01*
X139976502Y-107976978D01*
X139974648Y-107995079D01*
X139966500Y-108074600D01*
X139966500Y-109125400D01*
X139966837Y-109128646D01*
X139966837Y-109128650D01*
X139972582Y-109184013D01*
X139977474Y-109231166D01*
X139979656Y-109237705D01*
X139979656Y-109237707D01*
X139979797Y-109238130D01*
X139979807Y-109238407D01*
X139981111Y-109244445D01*
X139980035Y-109244677D01*
X139982378Y-109309079D01*
X139946191Y-109370161D01*
X139882725Y-109401983D01*
X139860271Y-109404000D01*
X138823027Y-109404000D01*
X138804874Y-109402076D01*
X138804861Y-109402203D01*
X138700400Y-109391500D01*
X137499600Y-109391500D01*
X137496354Y-109391837D01*
X137496350Y-109391837D01*
X137400692Y-109401762D01*
X137400688Y-109401763D01*
X137393834Y-109402474D01*
X137387298Y-109404655D01*
X137387296Y-109404655D01*
X137287230Y-109438040D01*
X137226054Y-109458450D01*
X137075652Y-109551522D01*
X136950695Y-109676697D01*
X136946855Y-109682927D01*
X136946854Y-109682928D01*
X136879892Y-109791561D01*
X136857885Y-109827262D01*
X136844227Y-109868439D01*
X136805832Y-109984199D01*
X136802203Y-109995139D01*
X136801503Y-110001975D01*
X136801502Y-110001978D01*
X136797091Y-110045031D01*
X136791500Y-110099600D01*
X136791500Y-112300400D01*
X136791837Y-112303646D01*
X136791837Y-112303650D01*
X136801441Y-112396206D01*
X136802474Y-112406166D01*
X136858450Y-112573946D01*
X136951522Y-112724348D01*
X137076697Y-112849305D01*
X137147171Y-112892746D01*
X137194663Y-112945517D01*
X137206087Y-113015589D01*
X137177813Y-113080712D01*
X137147359Y-113107148D01*
X137075652Y-113151522D01*
X136965972Y-113261394D01*
X136903691Y-113295472D01*
X136832871Y-113290469D01*
X136787705Y-113261470D01*
X134780107Y-111253873D01*
X134777925Y-111251691D01*
X134755782Y-111233502D01*
X134731431Y-111213500D01*
X134663739Y-111157897D01*
X134489437Y-111064438D01*
X134380781Y-111031218D01*
X134306200Y-111008416D01*
X134306198Y-111008416D01*
X134300302Y-111006613D01*
X134242449Y-111000736D01*
X134109666Y-110987248D01*
X134109661Y-110987248D01*
X134103538Y-110986626D01*
X133979475Y-110998354D01*
X133912771Y-111004659D01*
X133912769Y-111004659D01*
X133906638Y-111005239D01*
X133811871Y-111033490D01*
X133723007Y-111059981D01*
X133723005Y-111059982D01*
X133717104Y-111061741D01*
X133542154Y-111153982D01*
X133537368Y-111157858D01*
X133537366Y-111157859D01*
X133465100Y-111216379D01*
X133388453Y-111278447D01*
X133384508Y-111283182D01*
X133269268Y-111421498D01*
X133261854Y-111430396D01*
X133167178Y-111604041D01*
X133155093Y-111642604D01*
X133112460Y-111778649D01*
X133108035Y-111792768D01*
X133107370Y-111798891D01*
X133107369Y-111798895D01*
X133091176Y-111947960D01*
X133086676Y-111989388D01*
X133103913Y-112186413D01*
X133105632Y-112192330D01*
X133105633Y-112192335D01*
X133137974Y-112303650D01*
X133159091Y-112376336D01*
X133250108Y-112551926D01*
X133253948Y-112556736D01*
X133344542Y-112670223D01*
X133344549Y-112670230D01*
X133346738Y-112672973D01*
X133349233Y-112675468D01*
X136143145Y-115469379D01*
X136152247Y-115479522D01*
X136175968Y-115509025D01*
X136199759Y-115528988D01*
X136214421Y-115541291D01*
X136218069Y-115544472D01*
X136219881Y-115546115D01*
X136222075Y-115548309D01*
X136255349Y-115575642D01*
X136256147Y-115576304D01*
X136327474Y-115636154D01*
X136332144Y-115638722D01*
X136336261Y-115642103D01*
X136394145Y-115673140D01*
X136418086Y-115685977D01*
X136419245Y-115686606D01*
X136495381Y-115728462D01*
X136495389Y-115728465D01*
X136500787Y-115731433D01*
X136505869Y-115733045D01*
X136510563Y-115735562D01*
X136599531Y-115762762D01*
X136600559Y-115763082D01*
X136689306Y-115791235D01*
X136693190Y-115791671D01*
X136699006Y-115793175D01*
X136699698Y-115793387D01*
X136699699Y-115793387D01*
X136699738Y-115793399D01*
X136699171Y-115795253D01*
X136754032Y-115824141D01*
X136788995Y-115885932D01*
X136791621Y-115901570D01*
X136791832Y-115903598D01*
X136802474Y-116006166D01*
X136858450Y-116173946D01*
X136951522Y-116324348D01*
X137076697Y-116449305D01*
X137082927Y-116453145D01*
X137082928Y-116453146D01*
X137220090Y-116537694D01*
X137227262Y-116542115D01*
X137307005Y-116568564D01*
X137388611Y-116595632D01*
X137388613Y-116595632D01*
X137395139Y-116597797D01*
X137401975Y-116598497D01*
X137401978Y-116598498D01*
X137445031Y-116602909D01*
X137499600Y-116608500D01*
X138700400Y-116608500D01*
X138703646Y-116608163D01*
X138703650Y-116608163D01*
X138799308Y-116598238D01*
X138799312Y-116598237D01*
X138806166Y-116597526D01*
X138812702Y-116595345D01*
X138812704Y-116595345D01*
X138944806Y-116551272D01*
X138973946Y-116541550D01*
X139124348Y-116448478D01*
X139249305Y-116323303D01*
X139342115Y-116172738D01*
X139397797Y-116004861D01*
X139408500Y-115900400D01*
X139408500Y-115569926D01*
X139428502Y-115501805D01*
X139445404Y-115480831D01*
X140080829Y-114845405D01*
X140143142Y-114811380D01*
X140169925Y-114808500D01*
X141975657Y-114808500D01*
X141989264Y-114809237D01*
X142020762Y-114812659D01*
X142020767Y-114812659D01*
X142026888Y-114813324D01*
X142053138Y-114811027D01*
X142076888Y-114808950D01*
X142081714Y-114808621D01*
X142084186Y-114808500D01*
X142087269Y-114808500D01*
X142099238Y-114807326D01*
X142130006Y-114804310D01*
X142131319Y-114804188D01*
X142175584Y-114800315D01*
X142223913Y-114796087D01*
X142229032Y-114794600D01*
X142234333Y-114794080D01*
X142323334Y-114767209D01*
X142324467Y-114766874D01*
X142407914Y-114742630D01*
X142407918Y-114742628D01*
X142413836Y-114740909D01*
X142418568Y-114738456D01*
X142423669Y-114736916D01*
X142446176Y-114724949D01*
X142505760Y-114693269D01*
X142506916Y-114692662D01*
X142509263Y-114691445D01*
X142512979Y-114689519D01*
X142582660Y-114675921D01*
X142648632Y-114702155D01*
X142689948Y-114759891D01*
X142693491Y-114830799D01*
X142660069Y-114890473D01*
X142451454Y-115099088D01*
X142436426Y-115111925D01*
X142425566Y-115119815D01*
X142421145Y-115124725D01*
X142421144Y-115124726D01*
X142381114Y-115169184D01*
X142376573Y-115173969D01*
X142362528Y-115188014D01*
X142360444Y-115190588D01*
X142360441Y-115190591D01*
X142350031Y-115203446D01*
X142345747Y-115208462D01*
X142305717Y-115252920D01*
X142305713Y-115252925D01*
X142301296Y-115257831D01*
X142294791Y-115269097D01*
X142294589Y-115269448D01*
X142283391Y-115285741D01*
X142274953Y-115296161D01*
X142244787Y-115355363D01*
X142241654Y-115361133D01*
X142211740Y-115412945D01*
X142211738Y-115412950D01*
X142208436Y-115418669D01*
X142206395Y-115424949D01*
X142206392Y-115424957D01*
X142204292Y-115431421D01*
X142196728Y-115449683D01*
X142193637Y-115455749D01*
X142193634Y-115455758D01*
X142190638Y-115461637D01*
X142188031Y-115471365D01*
X142173444Y-115525804D01*
X142171578Y-115532106D01*
X142151046Y-115595298D01*
X142150356Y-115601866D01*
X142149645Y-115608628D01*
X142146042Y-115628071D01*
X142142570Y-115641029D01*
X142142225Y-115647619D01*
X142142224Y-115647623D01*
X142139093Y-115707367D01*
X142138577Y-115713931D01*
X142136500Y-115733694D01*
X142136500Y-115753555D01*
X142136327Y-115760150D01*
X142134667Y-115791829D01*
X142132850Y-115826493D01*
X142133882Y-115833007D01*
X142134949Y-115839744D01*
X142136500Y-115859456D01*
X142136500Y-120565500D01*
X142116498Y-120633621D01*
X142062842Y-120680114D01*
X142010500Y-120691500D01*
X141471866Y-120691500D01*
X141409684Y-120698255D01*
X141273295Y-120749385D01*
X141156739Y-120836739D01*
X141069385Y-120953295D01*
X141018255Y-121089684D01*
X141011500Y-121151866D01*
X141011500Y-124248134D01*
X141018255Y-124310316D01*
X141069385Y-124446705D01*
X141156739Y-124563261D01*
X141273295Y-124650615D01*
X141409684Y-124701745D01*
X141471866Y-124708500D01*
X144568134Y-124708500D01*
X144630316Y-124701745D01*
X144766705Y-124650615D01*
X144883261Y-124563261D01*
X144970615Y-124446705D01*
X145021745Y-124310316D01*
X145028500Y-124248134D01*
X145028500Y-121151866D01*
X145021745Y-121089684D01*
X144970615Y-120953295D01*
X144883261Y-120836739D01*
X144766705Y-120749385D01*
X144630316Y-120698255D01*
X144568134Y-120691500D01*
X144029500Y-120691500D01*
X143961379Y-120671498D01*
X143914886Y-120617842D01*
X143903500Y-120565500D01*
X143903500Y-116198148D01*
X143923502Y-116130027D01*
X143940405Y-116109053D01*
X144943355Y-115106103D01*
X145953911Y-114095546D01*
X146016223Y-114061521D01*
X146087038Y-114066585D01*
X146143874Y-114109132D01*
X146152121Y-114121634D01*
X146160960Y-114136944D01*
X146288747Y-114278866D01*
X146443248Y-114391118D01*
X146449276Y-114393802D01*
X146449278Y-114393803D01*
X146611679Y-114466108D01*
X146617712Y-114468794D01*
X146711113Y-114488647D01*
X146798056Y-114507128D01*
X146798061Y-114507128D01*
X146804513Y-114508500D01*
X146995487Y-114508500D01*
X147001939Y-114507128D01*
X147001944Y-114507128D01*
X147088887Y-114488647D01*
X147182288Y-114468794D01*
X147188315Y-114466111D01*
X147188323Y-114466108D01*
X147239252Y-114443433D01*
X147309619Y-114433999D01*
X147373916Y-114464106D01*
X147411729Y-114524195D01*
X147416500Y-114558540D01*
X147416500Y-120724689D01*
X147396498Y-120792810D01*
X147339936Y-120840585D01*
X147186030Y-120906232D01*
X147119400Y-120946109D01*
X146954725Y-121044664D01*
X146954724Y-121044665D01*
X146951043Y-121046868D01*
X146737318Y-121218094D01*
X146625964Y-121335436D01*
X146562984Y-121401804D01*
X146548808Y-121416742D01*
X146389002Y-121639136D01*
X146260857Y-121881161D01*
X146259385Y-121885184D01*
X146259383Y-121885188D01*
X146224911Y-121979386D01*
X146166743Y-122138337D01*
X146108404Y-122405907D01*
X146086917Y-122678918D01*
X146102682Y-122952320D01*
X146103507Y-122956525D01*
X146103508Y-122956533D01*
X146114127Y-123010657D01*
X146155405Y-123221053D01*
X146156792Y-123225103D01*
X146156793Y-123225108D01*
X146202647Y-123359036D01*
X146244112Y-123480144D01*
X146367160Y-123724799D01*
X146369586Y-123728328D01*
X146369589Y-123728334D01*
X146484161Y-123895036D01*
X146522274Y-123950490D01*
X146706582Y-124153043D01*
X146916675Y-124328707D01*
X146920316Y-124330991D01*
X147145024Y-124471951D01*
X147145028Y-124471953D01*
X147148664Y-124474234D01*
X147216544Y-124504883D01*
X147394345Y-124585164D01*
X147394349Y-124585166D01*
X147398257Y-124586930D01*
X147402377Y-124588150D01*
X147402376Y-124588150D01*
X147656723Y-124663491D01*
X147656727Y-124663492D01*
X147660836Y-124664709D01*
X147665070Y-124665357D01*
X147665075Y-124665358D01*
X147927298Y-124705483D01*
X147927300Y-124705483D01*
X147931540Y-124706132D01*
X148070912Y-124708322D01*
X148201071Y-124710367D01*
X148201077Y-124710367D01*
X148205362Y-124710434D01*
X148477235Y-124677534D01*
X148742127Y-124608041D01*
X148746087Y-124606401D01*
X148746092Y-124606399D01*
X148868631Y-124555641D01*
X148995136Y-124503241D01*
X149231582Y-124365073D01*
X149447089Y-124196094D01*
X149479002Y-124163163D01*
X149634686Y-124002509D01*
X149637669Y-123999431D01*
X149640202Y-123995983D01*
X149640206Y-123995978D01*
X149797257Y-123782178D01*
X149799795Y-123778723D01*
X149827154Y-123728334D01*
X149928418Y-123541830D01*
X149928419Y-123541828D01*
X149930468Y-123538054D01*
X150006458Y-123336951D01*
X150025751Y-123285895D01*
X150025752Y-123285891D01*
X150027269Y-123281877D01*
X150052107Y-123173427D01*
X150087449Y-123019117D01*
X150087450Y-123019113D01*
X150088407Y-123014933D01*
X150109542Y-122778124D01*
X150112531Y-122744627D01*
X150112531Y-122744625D01*
X150112751Y-122742161D01*
X150113193Y-122700000D01*
X150111465Y-122674648D01*
X150094859Y-122431055D01*
X150094858Y-122431049D01*
X150094567Y-122426778D01*
X150039032Y-122158612D01*
X149947617Y-121900465D01*
X149822013Y-121657112D01*
X149812040Y-121642921D01*
X149667008Y-121436562D01*
X149664545Y-121433057D01*
X149594466Y-121357643D01*
X149481046Y-121235588D01*
X149481043Y-121235585D01*
X149478125Y-121232445D01*
X149474810Y-121229731D01*
X149474806Y-121229728D01*
X149305924Y-121091500D01*
X149266205Y-121058990D01*
X149262551Y-121056751D01*
X149262543Y-121056745D01*
X149243665Y-121045177D01*
X149196034Y-120992530D01*
X149183500Y-120937745D01*
X149183500Y-114514017D01*
X149203502Y-114445896D01*
X149257158Y-114399403D01*
X149327432Y-114389299D01*
X149360749Y-114398910D01*
X149507183Y-114464106D01*
X149517712Y-114468794D01*
X149611113Y-114488647D01*
X149698056Y-114507128D01*
X149698061Y-114507128D01*
X149704513Y-114508500D01*
X149895487Y-114508500D01*
X149901939Y-114507128D01*
X149901944Y-114507128D01*
X149988887Y-114488647D01*
X150082288Y-114468794D01*
X150088321Y-114466108D01*
X150250722Y-114393803D01*
X150250724Y-114393802D01*
X150256752Y-114391118D01*
X150411253Y-114278866D01*
X150539040Y-114136944D01*
X150621080Y-113994847D01*
X150672463Y-113945854D01*
X150742176Y-113932418D01*
X150808087Y-113958804D01*
X150819294Y-113968752D01*
X152259595Y-115409053D01*
X152293621Y-115471365D01*
X152296500Y-115498148D01*
X152296500Y-120816564D01*
X152276498Y-120884685D01*
X152235207Y-120924679D01*
X152031043Y-121046868D01*
X151817318Y-121218094D01*
X151705964Y-121335436D01*
X151642984Y-121401804D01*
X151628808Y-121416742D01*
X151469002Y-121639136D01*
X151340857Y-121881161D01*
X151339385Y-121885184D01*
X151339383Y-121885188D01*
X151304911Y-121979386D01*
X151246743Y-122138337D01*
X151188404Y-122405907D01*
X151166917Y-122678918D01*
X151182682Y-122952320D01*
X151183507Y-122956525D01*
X151183508Y-122956533D01*
X151194127Y-123010657D01*
X151235405Y-123221053D01*
X151236792Y-123225103D01*
X151236793Y-123225108D01*
X151282647Y-123359036D01*
X151324112Y-123480144D01*
X151447160Y-123724799D01*
X151449586Y-123728328D01*
X151449589Y-123728334D01*
X151564161Y-123895036D01*
X151602274Y-123950490D01*
X151786582Y-124153043D01*
X151996675Y-124328707D01*
X152000316Y-124330991D01*
X152225024Y-124471951D01*
X152225028Y-124471953D01*
X152228664Y-124474234D01*
X152296544Y-124504883D01*
X152474345Y-124585164D01*
X152474349Y-124585166D01*
X152478257Y-124586930D01*
X152482377Y-124588150D01*
X152482376Y-124588150D01*
X152736723Y-124663491D01*
X152736727Y-124663492D01*
X152740836Y-124664709D01*
X152745070Y-124665357D01*
X152745075Y-124665358D01*
X153007298Y-124705483D01*
X153007300Y-124705483D01*
X153011540Y-124706132D01*
X153150912Y-124708322D01*
X153281071Y-124710367D01*
X153281077Y-124710367D01*
X153285362Y-124710434D01*
X153557235Y-124677534D01*
X153822127Y-124608041D01*
X153826087Y-124606401D01*
X153826092Y-124606399D01*
X153948631Y-124555641D01*
X154075136Y-124503241D01*
X154311582Y-124365073D01*
X154527089Y-124196094D01*
X154559002Y-124163163D01*
X154714686Y-124002509D01*
X154717669Y-123999431D01*
X154720202Y-123995983D01*
X154720206Y-123995978D01*
X154877257Y-123782178D01*
X154879795Y-123778723D01*
X154907154Y-123728334D01*
X155008418Y-123541830D01*
X155008419Y-123541828D01*
X155010468Y-123538054D01*
X155086458Y-123336951D01*
X155088063Y-123332703D01*
X162490743Y-123332703D01*
X162528268Y-123617734D01*
X162604129Y-123895036D01*
X162605813Y-123898984D01*
X162648658Y-123999431D01*
X162716923Y-124159476D01*
X162864561Y-124406161D01*
X163044313Y-124630528D01*
X163252851Y-124828423D01*
X163486317Y-124996186D01*
X163490112Y-124998195D01*
X163490113Y-124998196D01*
X163511869Y-125009715D01*
X163740392Y-125130712D01*
X164010373Y-125229511D01*
X164291264Y-125290755D01*
X164319841Y-125293004D01*
X164514282Y-125308307D01*
X164514291Y-125308307D01*
X164516739Y-125308500D01*
X164672271Y-125308500D01*
X164674407Y-125308354D01*
X164674418Y-125308354D01*
X164882548Y-125294165D01*
X164882554Y-125294164D01*
X164886825Y-125293873D01*
X164891020Y-125293004D01*
X164891022Y-125293004D01*
X165027583Y-125264724D01*
X165168342Y-125235574D01*
X165439343Y-125139607D01*
X165694812Y-125007750D01*
X165698313Y-125005289D01*
X165698317Y-125005287D01*
X165812418Y-124925095D01*
X165930023Y-124842441D01*
X166072151Y-124710367D01*
X166137479Y-124649661D01*
X166137481Y-124649658D01*
X166140622Y-124646740D01*
X166322713Y-124424268D01*
X166472927Y-124179142D01*
X166588483Y-123915898D01*
X166667244Y-123639406D01*
X166707751Y-123354784D01*
X166707845Y-123336951D01*
X166709235Y-123071583D01*
X166709235Y-123071576D01*
X166709257Y-123067297D01*
X166693556Y-122948032D01*
X166672292Y-122786522D01*
X166671732Y-122782266D01*
X166660084Y-122739686D01*
X166597003Y-122509103D01*
X166595871Y-122504964D01*
X166562522Y-122426778D01*
X166484763Y-122244476D01*
X166484761Y-122244472D01*
X166483077Y-122240524D01*
X166335439Y-121993839D01*
X166155687Y-121769472D01*
X165947149Y-121571577D01*
X165713683Y-121403814D01*
X165691843Y-121392250D01*
X165668654Y-121379972D01*
X165459608Y-121269288D01*
X165189627Y-121170489D01*
X164908736Y-121109245D01*
X164877685Y-121106801D01*
X164685718Y-121091693D01*
X164685709Y-121091693D01*
X164683261Y-121091500D01*
X164527729Y-121091500D01*
X164525593Y-121091646D01*
X164525582Y-121091646D01*
X164317452Y-121105835D01*
X164317446Y-121105836D01*
X164313175Y-121106127D01*
X164308980Y-121106996D01*
X164308978Y-121106996D01*
X164172416Y-121135277D01*
X164031658Y-121164426D01*
X163760657Y-121260393D01*
X163505188Y-121392250D01*
X163501687Y-121394711D01*
X163501683Y-121394713D01*
X163447125Y-121433057D01*
X163269977Y-121557559D01*
X163254892Y-121571577D01*
X163158749Y-121660919D01*
X163059378Y-121753260D01*
X162877287Y-121975732D01*
X162727073Y-122220858D01*
X162611517Y-122484102D01*
X162532756Y-122760594D01*
X162492249Y-123045216D01*
X162492227Y-123049505D01*
X162492226Y-123049512D01*
X162491031Y-123277689D01*
X162490743Y-123332703D01*
X155088063Y-123332703D01*
X155105751Y-123285895D01*
X155105752Y-123285891D01*
X155107269Y-123281877D01*
X155132107Y-123173427D01*
X155167449Y-123019117D01*
X155167450Y-123019113D01*
X155168407Y-123014933D01*
X155189542Y-122778124D01*
X155192531Y-122744627D01*
X155192531Y-122744625D01*
X155192751Y-122742161D01*
X155193193Y-122700000D01*
X155191465Y-122674648D01*
X155174859Y-122431055D01*
X155174858Y-122431049D01*
X155174567Y-122426778D01*
X155119032Y-122158612D01*
X155027617Y-121900465D01*
X154902013Y-121657112D01*
X154892040Y-121642921D01*
X154747008Y-121436562D01*
X154744545Y-121433057D01*
X154674466Y-121357643D01*
X154561046Y-121235588D01*
X154561043Y-121235585D01*
X154558125Y-121232445D01*
X154554810Y-121229731D01*
X154554806Y-121229728D01*
X154385924Y-121091500D01*
X154346205Y-121058990D01*
X154123665Y-120922618D01*
X154076034Y-120869970D01*
X154063500Y-120815185D01*
X154063500Y-115159450D01*
X154065051Y-115139739D01*
X154066117Y-115133009D01*
X154067149Y-115126493D01*
X154066081Y-115106103D01*
X154063673Y-115060168D01*
X154063500Y-115053574D01*
X154063500Y-115033694D01*
X154061422Y-115013920D01*
X154060905Y-115007346D01*
X154057775Y-114947627D01*
X154057775Y-114947626D01*
X154057429Y-114941028D01*
X154055719Y-114934646D01*
X154055718Y-114934639D01*
X154053958Y-114928069D01*
X154050356Y-114908635D01*
X154049645Y-114901870D01*
X154049645Y-114901869D01*
X154048954Y-114895298D01*
X154028427Y-114832122D01*
X154026555Y-114825803D01*
X154011071Y-114768013D01*
X154011069Y-114768008D01*
X154009362Y-114761637D01*
X154006366Y-114755756D01*
X154006364Y-114755752D01*
X154003272Y-114749683D01*
X153995708Y-114731421D01*
X153993605Y-114724949D01*
X153993603Y-114724945D01*
X153991564Y-114718669D01*
X153982030Y-114702155D01*
X153958347Y-114661135D01*
X153955199Y-114655338D01*
X153952425Y-114649892D01*
X153925047Y-114596160D01*
X153916607Y-114585737D01*
X153905413Y-114569451D01*
X153898704Y-114557831D01*
X153894285Y-114552923D01*
X153894282Y-114552919D01*
X153854255Y-114508464D01*
X153849971Y-114503449D01*
X153839547Y-114490576D01*
X153839544Y-114490573D01*
X153837472Y-114488014D01*
X153823427Y-114473969D01*
X153818886Y-114469184D01*
X153778856Y-114424726D01*
X153778855Y-114424725D01*
X153774434Y-114419815D01*
X153763574Y-114411925D01*
X153748546Y-114399088D01*
X152523053Y-113173595D01*
X152489027Y-113111283D01*
X152494092Y-113040468D01*
X152536639Y-112983632D01*
X152603159Y-112958821D01*
X152612148Y-112958500D01*
X155957413Y-112958500D01*
X156031472Y-112982563D01*
X156037902Y-112987235D01*
X156037909Y-112987239D01*
X156043248Y-112991118D01*
X156049276Y-112993802D01*
X156049278Y-112993803D01*
X156211681Y-113066109D01*
X156217712Y-113068794D01*
X156311112Y-113088647D01*
X156398056Y-113107128D01*
X156398061Y-113107128D01*
X156404513Y-113108500D01*
X156595487Y-113108500D01*
X156601939Y-113107128D01*
X156601944Y-113107128D01*
X156688888Y-113088647D01*
X156782288Y-113068794D01*
X156788319Y-113066109D01*
X156950722Y-112993803D01*
X156950724Y-112993802D01*
X156956752Y-112991118D01*
X156962097Y-112987235D01*
X157092150Y-112892745D01*
X157111253Y-112878866D01*
X157126850Y-112861544D01*
X157234621Y-112741852D01*
X157234622Y-112741851D01*
X157239040Y-112736944D01*
X157334527Y-112571556D01*
X157393542Y-112389928D01*
X157397443Y-112352817D01*
X157412814Y-112206565D01*
X157413504Y-112200000D01*
X157402408Y-112094427D01*
X157394232Y-112016635D01*
X157394232Y-112016633D01*
X157393542Y-112010072D01*
X157334527Y-111828444D01*
X157239040Y-111663056D01*
X157154954Y-111569669D01*
X164842001Y-111569669D01*
X164842371Y-111576490D01*
X164847895Y-111627352D01*
X164851521Y-111642604D01*
X164896676Y-111763054D01*
X164905214Y-111778649D01*
X164981715Y-111880724D01*
X164994276Y-111893285D01*
X165096351Y-111969786D01*
X165111946Y-111978324D01*
X165232394Y-112023478D01*
X165247649Y-112027105D01*
X165298514Y-112032631D01*
X165305328Y-112033000D01*
X165927885Y-112033000D01*
X165943124Y-112028525D01*
X165944329Y-112027135D01*
X165946000Y-112019452D01*
X165946000Y-110947115D01*
X165941525Y-110931876D01*
X165940135Y-110930671D01*
X165932452Y-110929000D01*
X164860116Y-110929000D01*
X164844877Y-110933475D01*
X164843672Y-110934865D01*
X164842001Y-110942548D01*
X164842001Y-111569669D01*
X157154954Y-111569669D01*
X157111253Y-111521134D01*
X156993814Y-111435809D01*
X156962094Y-111412763D01*
X156962093Y-111412762D01*
X156956752Y-111408882D01*
X156950724Y-111406198D01*
X156950722Y-111406197D01*
X156788319Y-111333891D01*
X156788318Y-111333891D01*
X156782288Y-111331206D01*
X156688888Y-111311353D01*
X156601944Y-111292872D01*
X156601939Y-111292872D01*
X156595487Y-111291500D01*
X156404513Y-111291500D01*
X156398061Y-111292872D01*
X156398056Y-111292872D01*
X156311112Y-111311353D01*
X156217712Y-111331206D01*
X156211682Y-111333891D01*
X156211681Y-111333891D01*
X156049278Y-111406197D01*
X156049276Y-111406198D01*
X156043248Y-111408882D01*
X156037909Y-111412761D01*
X156037902Y-111412765D01*
X156031472Y-111417437D01*
X155957413Y-111441500D01*
X152519595Y-111441500D01*
X152451474Y-111421498D01*
X152430499Y-111404595D01*
X151550640Y-110524735D01*
X151516615Y-110462423D01*
X151514814Y-110452085D01*
X151512581Y-110435118D01*
X151503803Y-110368439D01*
X151501125Y-110361974D01*
X151501125Y-110298026D01*
X151503803Y-110291561D01*
X151516601Y-110194351D01*
X151517962Y-110184012D01*
X151517962Y-110184011D01*
X151518500Y-110179925D01*
X151518499Y-109980076D01*
X151503803Y-109868439D01*
X151501125Y-109861974D01*
X151501125Y-109798026D01*
X151503803Y-109791561D01*
X151518500Y-109679925D01*
X151518499Y-109480076D01*
X151517078Y-109469276D01*
X151509229Y-109409656D01*
X151503803Y-109368439D01*
X151501125Y-109361974D01*
X151501125Y-109298026D01*
X151503803Y-109291561D01*
X151518500Y-109179925D01*
X151518499Y-108980076D01*
X151517961Y-108975984D01*
X151504881Y-108876629D01*
X151503803Y-108868439D01*
X151501125Y-108861974D01*
X151501125Y-108798026D01*
X151503803Y-108791561D01*
X151518500Y-108679925D01*
X151518499Y-108480076D01*
X151515614Y-108458156D01*
X151504881Y-108376629D01*
X151503803Y-108368439D01*
X151503761Y-108368337D01*
X151505359Y-108301137D01*
X151545152Y-108242340D01*
X151610416Y-108214391D01*
X151625377Y-108213500D01*
X152386582Y-108213500D01*
X152454703Y-108233502D01*
X152468161Y-108243475D01*
X152576285Y-108335333D01*
X152641119Y-108368439D01*
X152727292Y-108412442D01*
X152727294Y-108412443D01*
X152733808Y-108415769D01*
X152740913Y-108417508D01*
X152740917Y-108417509D01*
X152823238Y-108437652D01*
X152905610Y-108457808D01*
X152911212Y-108458156D01*
X152911215Y-108458156D01*
X152914825Y-108458380D01*
X152914835Y-108458380D01*
X152916764Y-108458500D01*
X152935020Y-108458500D01*
X153003141Y-108478502D01*
X153024115Y-108495405D01*
X154517621Y-109988911D01*
X154530007Y-110003323D01*
X154538540Y-110014918D01*
X154538545Y-110014923D01*
X154542883Y-110020818D01*
X154548461Y-110025557D01*
X154548464Y-110025560D01*
X154583159Y-110055035D01*
X154590675Y-110061965D01*
X154596370Y-110067660D01*
X154599252Y-110069940D01*
X154618642Y-110085281D01*
X154622046Y-110088072D01*
X154672094Y-110130591D01*
X154677676Y-110135333D01*
X154684192Y-110138661D01*
X154689241Y-110142028D01*
X154694370Y-110145195D01*
X154700107Y-110149734D01*
X154766266Y-110180655D01*
X154770160Y-110182558D01*
X154835199Y-110215769D01*
X154842307Y-110217508D01*
X154847950Y-110219607D01*
X154853713Y-110221524D01*
X154860341Y-110224622D01*
X154867503Y-110226112D01*
X154867504Y-110226112D01*
X154931803Y-110239486D01*
X154936087Y-110240456D01*
X155007001Y-110257808D01*
X155012603Y-110258156D01*
X155012606Y-110258156D01*
X155018155Y-110258500D01*
X155018153Y-110258536D01*
X155022146Y-110258775D01*
X155026338Y-110259149D01*
X155033506Y-110260640D01*
X155110911Y-110258546D01*
X155114319Y-110258500D01*
X160232930Y-110258500D01*
X160251880Y-110259933D01*
X160266115Y-110262099D01*
X160266119Y-110262099D01*
X160273349Y-110263199D01*
X160280641Y-110262606D01*
X160280644Y-110262606D01*
X160326018Y-110258915D01*
X160336233Y-110258500D01*
X160344293Y-110258500D01*
X160361680Y-110256473D01*
X160372507Y-110255211D01*
X160376882Y-110254778D01*
X160442339Y-110249454D01*
X160442342Y-110249453D01*
X160449637Y-110248860D01*
X160456601Y-110246604D01*
X160462560Y-110245413D01*
X160468415Y-110244029D01*
X160475681Y-110243182D01*
X160544327Y-110218265D01*
X160548455Y-110216848D01*
X160610936Y-110196607D01*
X160610938Y-110196606D01*
X160617899Y-110194351D01*
X160624154Y-110190555D01*
X160629628Y-110188049D01*
X160635058Y-110185330D01*
X160641937Y-110182833D01*
X160648572Y-110178483D01*
X160702976Y-110142814D01*
X160706680Y-110140477D01*
X160769107Y-110102595D01*
X160777484Y-110095197D01*
X160777508Y-110095224D01*
X160780500Y-110092571D01*
X160783733Y-110089868D01*
X160789852Y-110085856D01*
X160843128Y-110029617D01*
X160845506Y-110027175D01*
X162288911Y-108583770D01*
X162303323Y-108571384D01*
X162314918Y-108562851D01*
X162314923Y-108562846D01*
X162320818Y-108558508D01*
X162325557Y-108552930D01*
X162325560Y-108552927D01*
X162355035Y-108518232D01*
X162361965Y-108510716D01*
X162367660Y-108505021D01*
X162375268Y-108495405D01*
X162385281Y-108482749D01*
X162388072Y-108479345D01*
X162430591Y-108429297D01*
X162430592Y-108429295D01*
X162435333Y-108423715D01*
X162438661Y-108417199D01*
X162442028Y-108412150D01*
X162445195Y-108407021D01*
X162449734Y-108401284D01*
X162480655Y-108335125D01*
X162482561Y-108331225D01*
X162483187Y-108330000D01*
X162515769Y-108266192D01*
X162517508Y-108259084D01*
X162519607Y-108253441D01*
X162521524Y-108247678D01*
X162524622Y-108241050D01*
X162539487Y-108169583D01*
X162540457Y-108165299D01*
X162547871Y-108135000D01*
X162557808Y-108094390D01*
X162558500Y-108083236D01*
X162558536Y-108083238D01*
X162558775Y-108079245D01*
X162559149Y-108075053D01*
X162560640Y-108067885D01*
X162558546Y-107990479D01*
X162558500Y-107987072D01*
X162558500Y-105667070D01*
X162559933Y-105648120D01*
X162562099Y-105633885D01*
X162562099Y-105633881D01*
X162563199Y-105626651D01*
X162560387Y-105592072D01*
X162558915Y-105573982D01*
X162558500Y-105563767D01*
X162558500Y-105555707D01*
X162555209Y-105527480D01*
X162554778Y-105523121D01*
X162549454Y-105457662D01*
X162549453Y-105457659D01*
X162548860Y-105450364D01*
X162546604Y-105443400D01*
X162545417Y-105437461D01*
X162544030Y-105431590D01*
X162543182Y-105424319D01*
X162540686Y-105417443D01*
X162540684Y-105417434D01*
X162518275Y-105355702D01*
X162516865Y-105351598D01*
X162494352Y-105282101D01*
X162490556Y-105275846D01*
X162488057Y-105270387D01*
X162485329Y-105264939D01*
X162482833Y-105258063D01*
X162442805Y-105197010D01*
X162440481Y-105193327D01*
X162405500Y-105135680D01*
X162405499Y-105135679D01*
X162402595Y-105130893D01*
X162395198Y-105122517D01*
X162395225Y-105122493D01*
X162392570Y-105119499D01*
X162389868Y-105116268D01*
X162385856Y-105110148D01*
X162329617Y-105056872D01*
X162327175Y-105054494D01*
X161820244Y-104547563D01*
X161786218Y-104485251D01*
X161791283Y-104414436D01*
X161833830Y-104357600D01*
X161900350Y-104332789D01*
X161960587Y-104343361D01*
X162011677Y-104366108D01*
X162011685Y-104366111D01*
X162017712Y-104368794D01*
X162100372Y-104386364D01*
X162198056Y-104407128D01*
X162198061Y-104407128D01*
X162204513Y-104408500D01*
X162395487Y-104408500D01*
X162401939Y-104407128D01*
X162401944Y-104407128D01*
X162499628Y-104386364D01*
X162582288Y-104368794D01*
X162605409Y-104358500D01*
X162750722Y-104293803D01*
X162750724Y-104293802D01*
X162756752Y-104291118D01*
X162773097Y-104279243D01*
X162862240Y-104214476D01*
X162911253Y-104178866D01*
X162924072Y-104164629D01*
X163034621Y-104041852D01*
X163034622Y-104041851D01*
X163039040Y-104036944D01*
X163134527Y-103871556D01*
X163193542Y-103689928D01*
X163213504Y-103500000D01*
X163199655Y-103368232D01*
X163194232Y-103316635D01*
X163194232Y-103316633D01*
X163193542Y-103310072D01*
X163134527Y-103128444D01*
X163131217Y-103122710D01*
X163096775Y-103063056D01*
X163039040Y-102963056D01*
X163008597Y-102929245D01*
X162915675Y-102826045D01*
X162915674Y-102826044D01*
X162911253Y-102821134D01*
X162756752Y-102708882D01*
X162750724Y-102706198D01*
X162750722Y-102706197D01*
X162588319Y-102633891D01*
X162588318Y-102633891D01*
X162582288Y-102631206D01*
X162445737Y-102602181D01*
X162383266Y-102568454D01*
X162348944Y-102506304D01*
X162353672Y-102435465D01*
X162382841Y-102389840D01*
X162588911Y-102183770D01*
X162603323Y-102171384D01*
X162614918Y-102162851D01*
X162614923Y-102162846D01*
X162620818Y-102158508D01*
X162625557Y-102152930D01*
X162625560Y-102152927D01*
X162655035Y-102118232D01*
X162661965Y-102110716D01*
X162667660Y-102105021D01*
X162685281Y-102082749D01*
X162688072Y-102079345D01*
X162730591Y-102029297D01*
X162730592Y-102029295D01*
X162735333Y-102023715D01*
X162738661Y-102017199D01*
X162742028Y-102012150D01*
X162745195Y-102007021D01*
X162749734Y-102001284D01*
X162780655Y-101935125D01*
X162782561Y-101931225D01*
X162788498Y-101919598D01*
X162815769Y-101866192D01*
X162817508Y-101859084D01*
X162819607Y-101853441D01*
X162821524Y-101847678D01*
X162824622Y-101841050D01*
X162839487Y-101769583D01*
X162840450Y-101765328D01*
X162846922Y-101738878D01*
X162882543Y-101677464D01*
X162903007Y-101661685D01*
X162918117Y-101652334D01*
X162918118Y-101652333D01*
X162924348Y-101648478D01*
X163049305Y-101523303D01*
X163089250Y-101458500D01*
X163138275Y-101378968D01*
X163138276Y-101378966D01*
X163142115Y-101372738D01*
X163175092Y-101273316D01*
X163195632Y-101211389D01*
X163195632Y-101211387D01*
X163197797Y-101204861D01*
X163201031Y-101173303D01*
X163205055Y-101134020D01*
X163208500Y-101100400D01*
X163208500Y-100099600D01*
X163208163Y-100096350D01*
X163198238Y-100000692D01*
X163198237Y-100000688D01*
X163197526Y-99993834D01*
X163167399Y-99903531D01*
X163143868Y-99833002D01*
X163141550Y-99826054D01*
X163048478Y-99675652D01*
X162923303Y-99550695D01*
X162917072Y-99546854D01*
X162911327Y-99542317D01*
X162912377Y-99540987D01*
X162870892Y-99494893D01*
X162858500Y-99440403D01*
X162858500Y-99267063D01*
X162859933Y-99248114D01*
X162860537Y-99244144D01*
X162863198Y-99226651D01*
X162861385Y-99204352D01*
X162858915Y-99173991D01*
X162858500Y-99163777D01*
X162858500Y-99155707D01*
X162858078Y-99152087D01*
X162858077Y-99152069D01*
X162855208Y-99127461D01*
X162854775Y-99123086D01*
X162849454Y-99057661D01*
X162849453Y-99057658D01*
X162848860Y-99050363D01*
X162846604Y-99043399D01*
X162845413Y-99037440D01*
X162844029Y-99031585D01*
X162843182Y-99024319D01*
X162818265Y-98955673D01*
X162816848Y-98951546D01*
X162816248Y-98949692D01*
X162799609Y-98898331D01*
X162797643Y-98827362D01*
X162834359Y-98766596D01*
X162898098Y-98735327D01*
X162919476Y-98733500D01*
X165002491Y-98733500D01*
X165070612Y-98753502D01*
X165099402Y-98780595D01*
X165099987Y-98780088D01*
X165246250Y-98948938D01*
X165418126Y-99091632D01*
X165465464Y-99119294D01*
X165491445Y-99134476D01*
X165540169Y-99186114D01*
X165553240Y-99255897D01*
X165526509Y-99321669D01*
X165486055Y-99355027D01*
X165473607Y-99361507D01*
X165469474Y-99364610D01*
X165469471Y-99364612D01*
X165324876Y-99473177D01*
X165294965Y-99495635D01*
X165291393Y-99499373D01*
X165158814Y-99638109D01*
X165140629Y-99657138D01*
X165137715Y-99661410D01*
X165137714Y-99661411D01*
X165127287Y-99676697D01*
X165014743Y-99841680D01*
X164986033Y-99903531D01*
X164946542Y-99988608D01*
X164920688Y-100044305D01*
X164860989Y-100259570D01*
X164837251Y-100481695D01*
X164837548Y-100486848D01*
X164837548Y-100486851D01*
X164846156Y-100636136D01*
X164850110Y-100704715D01*
X164851247Y-100709761D01*
X164851248Y-100709767D01*
X164870564Y-100795477D01*
X164899222Y-100922639D01*
X164983266Y-101129616D01*
X165029376Y-101204861D01*
X165096557Y-101314490D01*
X165099987Y-101320088D01*
X165246250Y-101488938D01*
X165418126Y-101631632D01*
X165469556Y-101661685D01*
X165491445Y-101674476D01*
X165540169Y-101726114D01*
X165553240Y-101795897D01*
X165526509Y-101861669D01*
X165486055Y-101895027D01*
X165473607Y-101901507D01*
X165469474Y-101904610D01*
X165469471Y-101904612D01*
X165303406Y-102029297D01*
X165294965Y-102035635D01*
X165140629Y-102197138D01*
X165014743Y-102381680D01*
X164994937Y-102424348D01*
X164926064Y-102572724D01*
X164920688Y-102584305D01*
X164860989Y-102799570D01*
X164837251Y-103021695D01*
X164837548Y-103026848D01*
X164837548Y-103026851D01*
X164846626Y-103184294D01*
X164850110Y-103244715D01*
X164851247Y-103249761D01*
X164851248Y-103249767D01*
X164872275Y-103343069D01*
X164899222Y-103462639D01*
X164935614Y-103552262D01*
X164980828Y-103663611D01*
X164983266Y-103669616D01*
X165099987Y-103860088D01*
X165246250Y-104028938D01*
X165418126Y-104171632D01*
X165430506Y-104178866D01*
X165491445Y-104214476D01*
X165540169Y-104266114D01*
X165553240Y-104335897D01*
X165526509Y-104401669D01*
X165486055Y-104435027D01*
X165473607Y-104441507D01*
X165469474Y-104444610D01*
X165469471Y-104444612D01*
X165324246Y-104553650D01*
X165294965Y-104575635D01*
X165140629Y-104737138D01*
X165014743Y-104921680D01*
X164987894Y-104979521D01*
X164932293Y-105099305D01*
X164920688Y-105124305D01*
X164860989Y-105339570D01*
X164837251Y-105561695D01*
X164837548Y-105566848D01*
X164837548Y-105566851D01*
X164843327Y-105667070D01*
X164850110Y-105784715D01*
X164851247Y-105789761D01*
X164851248Y-105789767D01*
X164872372Y-105883500D01*
X164899222Y-106002639D01*
X164983266Y-106209616D01*
X165010664Y-106254325D01*
X165080593Y-106368439D01*
X165099987Y-106400088D01*
X165246250Y-106568938D01*
X165418126Y-106711632D01*
X165481047Y-106748400D01*
X165491445Y-106754476D01*
X165540169Y-106806114D01*
X165553240Y-106875897D01*
X165526509Y-106941669D01*
X165486055Y-106975027D01*
X165473607Y-106981507D01*
X165469474Y-106984610D01*
X165469471Y-106984612D01*
X165299100Y-107112530D01*
X165294965Y-107115635D01*
X165243840Y-107169134D01*
X165201905Y-107213017D01*
X165140629Y-107277138D01*
X165137715Y-107281410D01*
X165137714Y-107281411D01*
X165109064Y-107323410D01*
X165014743Y-107461680D01*
X164982628Y-107530866D01*
X164923383Y-107658500D01*
X164920688Y-107664305D01*
X164860989Y-107879570D01*
X164837251Y-108101695D01*
X164837548Y-108106848D01*
X164837548Y-108106851D01*
X164849812Y-108319547D01*
X164850110Y-108324715D01*
X164851247Y-108329761D01*
X164851248Y-108329767D01*
X164869880Y-108412442D01*
X164899222Y-108542639D01*
X164937461Y-108636811D01*
X164971849Y-108721498D01*
X164983266Y-108749616D01*
X165007577Y-108789288D01*
X165056081Y-108868439D01*
X165099987Y-108940088D01*
X165246250Y-109108938D01*
X165250225Y-109112238D01*
X165250231Y-109112244D01*
X165255425Y-109116556D01*
X165295059Y-109175460D01*
X165296555Y-109246441D01*
X165259439Y-109306962D01*
X165219168Y-109331480D01*
X165111946Y-109371676D01*
X165096351Y-109380214D01*
X164994276Y-109456715D01*
X164981715Y-109469276D01*
X164905214Y-109571351D01*
X164896676Y-109586946D01*
X164851522Y-109707394D01*
X164847895Y-109722649D01*
X164842369Y-109773514D01*
X164842000Y-109780328D01*
X164842000Y-110402885D01*
X164846475Y-110418124D01*
X164847865Y-110419329D01*
X164855548Y-110421000D01*
X166328000Y-110421000D01*
X166396121Y-110441002D01*
X166442614Y-110494658D01*
X166454000Y-110547000D01*
X166454000Y-112014884D01*
X166458475Y-112030123D01*
X166459865Y-112031328D01*
X166467548Y-112032999D01*
X167094669Y-112032999D01*
X167101490Y-112032629D01*
X167152352Y-112027105D01*
X167167604Y-112023479D01*
X167288054Y-111978324D01*
X167303649Y-111969786D01*
X167389935Y-111905118D01*
X167456442Y-111880270D01*
X167525824Y-111895323D01*
X167576054Y-111945497D01*
X167591500Y-112005944D01*
X167591500Y-126065500D01*
X167571498Y-126133621D01*
X167517842Y-126180114D01*
X167465500Y-126191500D01*
X128734500Y-126191500D01*
X128666379Y-126171498D01*
X128619886Y-126117842D01*
X128608500Y-126065500D01*
X128608500Y-123332703D01*
X129490743Y-123332703D01*
X129528268Y-123617734D01*
X129604129Y-123895036D01*
X129605813Y-123898984D01*
X129648658Y-123999431D01*
X129716923Y-124159476D01*
X129864561Y-124406161D01*
X130044313Y-124630528D01*
X130252851Y-124828423D01*
X130486317Y-124996186D01*
X130490112Y-124998195D01*
X130490113Y-124998196D01*
X130511869Y-125009715D01*
X130740392Y-125130712D01*
X131010373Y-125229511D01*
X131291264Y-125290755D01*
X131319841Y-125293004D01*
X131514282Y-125308307D01*
X131514291Y-125308307D01*
X131516739Y-125308500D01*
X131672271Y-125308500D01*
X131674407Y-125308354D01*
X131674418Y-125308354D01*
X131882548Y-125294165D01*
X131882554Y-125294164D01*
X131886825Y-125293873D01*
X131891020Y-125293004D01*
X131891022Y-125293004D01*
X132027583Y-125264724D01*
X132168342Y-125235574D01*
X132439343Y-125139607D01*
X132694812Y-125007750D01*
X132698313Y-125005289D01*
X132698317Y-125005287D01*
X132812418Y-124925095D01*
X132930023Y-124842441D01*
X133072151Y-124710367D01*
X133137479Y-124649661D01*
X133137481Y-124649658D01*
X133140622Y-124646740D01*
X133322713Y-124424268D01*
X133472927Y-124179142D01*
X133588483Y-123915898D01*
X133667244Y-123639406D01*
X133707751Y-123354784D01*
X133707845Y-123336951D01*
X133709235Y-123071583D01*
X133709235Y-123071576D01*
X133709257Y-123067297D01*
X133693556Y-122948032D01*
X133672292Y-122786522D01*
X133671732Y-122782266D01*
X133660084Y-122739686D01*
X133597003Y-122509103D01*
X133595871Y-122504964D01*
X133562522Y-122426778D01*
X133484763Y-122244476D01*
X133484761Y-122244472D01*
X133483077Y-122240524D01*
X133335439Y-121993839D01*
X133155687Y-121769472D01*
X132947149Y-121571577D01*
X132713683Y-121403814D01*
X132691843Y-121392250D01*
X132668654Y-121379972D01*
X132459608Y-121269288D01*
X132189627Y-121170489D01*
X131908736Y-121109245D01*
X131877685Y-121106801D01*
X131685718Y-121091693D01*
X131685709Y-121091693D01*
X131683261Y-121091500D01*
X131527729Y-121091500D01*
X131525593Y-121091646D01*
X131525582Y-121091646D01*
X131317452Y-121105835D01*
X131317446Y-121105836D01*
X131313175Y-121106127D01*
X131308980Y-121106996D01*
X131308978Y-121106996D01*
X131172416Y-121135277D01*
X131031658Y-121164426D01*
X130760657Y-121260393D01*
X130505188Y-121392250D01*
X130501687Y-121394711D01*
X130501683Y-121394713D01*
X130447125Y-121433057D01*
X130269977Y-121557559D01*
X130254892Y-121571577D01*
X130158749Y-121660919D01*
X130059378Y-121753260D01*
X129877287Y-121975732D01*
X129727073Y-122220858D01*
X129611517Y-122484102D01*
X129532756Y-122760594D01*
X129492249Y-123045216D01*
X129492227Y-123049505D01*
X129492226Y-123049512D01*
X129491031Y-123277689D01*
X129490743Y-123332703D01*
X128608500Y-123332703D01*
X128608500Y-94396187D01*
X128628502Y-94328066D01*
X128682158Y-94281573D01*
X128752432Y-94271469D01*
X128817012Y-94300963D01*
X128841933Y-94330352D01*
X128887080Y-94404025D01*
X128899987Y-94425088D01*
X129046250Y-94593938D01*
X129195985Y-94718250D01*
X129235620Y-94777152D01*
X129241500Y-94815194D01*
X129241500Y-98807930D01*
X129240067Y-98826880D01*
X129239252Y-98832240D01*
X129236801Y-98848349D01*
X129237394Y-98855641D01*
X129237394Y-98855644D01*
X129241085Y-98901018D01*
X129241500Y-98911233D01*
X129241500Y-98919293D01*
X129241925Y-98922937D01*
X129244789Y-98947507D01*
X129245222Y-98951882D01*
X129250452Y-99016173D01*
X129251140Y-99024637D01*
X129253396Y-99031601D01*
X129254587Y-99037560D01*
X129255971Y-99043415D01*
X129256818Y-99050681D01*
X129281735Y-99119327D01*
X129283152Y-99123455D01*
X129299524Y-99173991D01*
X129305649Y-99192899D01*
X129309445Y-99199154D01*
X129311951Y-99204628D01*
X129314670Y-99210058D01*
X129317167Y-99216937D01*
X129321180Y-99223057D01*
X129321180Y-99223058D01*
X129357186Y-99277976D01*
X129359523Y-99281680D01*
X129397405Y-99344107D01*
X129401121Y-99348315D01*
X129401122Y-99348316D01*
X129404803Y-99352484D01*
X129404776Y-99352508D01*
X129407429Y-99355500D01*
X129410132Y-99358733D01*
X129414144Y-99364852D01*
X129429710Y-99379598D01*
X129470383Y-99418128D01*
X129472825Y-99420506D01*
X130054595Y-100002276D01*
X130088621Y-100064588D01*
X130091500Y-100091371D01*
X130091500Y-100750400D01*
X130091837Y-100753646D01*
X130091837Y-100753650D01*
X130100654Y-100838621D01*
X130102474Y-100856166D01*
X130104655Y-100862702D01*
X130104655Y-100862704D01*
X130148728Y-100994806D01*
X130158450Y-101023946D01*
X130251522Y-101174348D01*
X130294326Y-101217077D01*
X130329518Y-101252208D01*
X130363597Y-101314490D01*
X130366500Y-101341381D01*
X130366500Y-103088219D01*
X130346498Y-103156340D01*
X130306803Y-103195363D01*
X130175652Y-103276522D01*
X130050695Y-103401697D01*
X130046855Y-103407927D01*
X130046854Y-103407928D01*
X129988706Y-103502262D01*
X129957885Y-103552262D01*
X129955581Y-103559209D01*
X129921389Y-103662296D01*
X129902203Y-103720139D01*
X129891500Y-103824600D01*
X129891500Y-105175400D01*
X129891837Y-105178646D01*
X129891837Y-105178650D01*
X129901725Y-105273946D01*
X129902474Y-105281166D01*
X129904655Y-105287702D01*
X129904655Y-105287704D01*
X129905942Y-105291561D01*
X129958450Y-105448946D01*
X130051522Y-105599348D01*
X130176697Y-105724305D01*
X130182927Y-105728145D01*
X130182928Y-105728146D01*
X130306616Y-105804389D01*
X130354110Y-105857162D01*
X130366500Y-105911649D01*
X130366500Y-107658563D01*
X130346498Y-107726684D01*
X130329673Y-107747581D01*
X130278158Y-107799186D01*
X130250695Y-107826697D01*
X130246855Y-107832927D01*
X130246854Y-107832928D01*
X130162276Y-107970139D01*
X130157885Y-107977262D01*
X130144826Y-108016635D01*
X130117706Y-108098400D01*
X130102203Y-108145139D01*
X130091500Y-108249600D01*
X130091500Y-109750400D01*
X130091837Y-109753646D01*
X130091837Y-109753650D01*
X130100196Y-109834209D01*
X130102474Y-109856166D01*
X130104655Y-109862702D01*
X130104655Y-109862704D01*
X130109301Y-109876629D01*
X130158450Y-110023946D01*
X130251522Y-110174348D01*
X130376697Y-110299305D01*
X130382927Y-110303145D01*
X130382928Y-110303146D01*
X130520090Y-110387694D01*
X130527262Y-110392115D01*
X130535520Y-110394854D01*
X130688611Y-110445632D01*
X130688613Y-110445632D01*
X130695139Y-110447797D01*
X130701975Y-110448497D01*
X130701978Y-110448498D01*
X130745031Y-110452909D01*
X130799600Y-110458500D01*
X131450400Y-110458500D01*
X131453646Y-110458163D01*
X131453650Y-110458163D01*
X131549308Y-110448238D01*
X131549312Y-110448237D01*
X131556166Y-110447526D01*
X131562702Y-110445345D01*
X131562704Y-110445345D01*
X131700204Y-110399471D01*
X131723946Y-110391550D01*
X131874348Y-110298478D01*
X131999305Y-110173303D01*
X132003146Y-110167072D01*
X132088275Y-110028968D01*
X132088276Y-110028966D01*
X132092115Y-110022738D01*
X132140577Y-109876629D01*
X132145632Y-109861389D01*
X132145632Y-109861387D01*
X132147797Y-109854861D01*
X132158500Y-109750400D01*
X132158500Y-108249600D01*
X132158163Y-108246350D01*
X132148238Y-108150692D01*
X132148237Y-108150688D01*
X132147526Y-108143834D01*
X132135188Y-108106851D01*
X132093868Y-107983002D01*
X132091550Y-107976054D01*
X131998478Y-107825652D01*
X131920482Y-107747791D01*
X131886403Y-107685510D01*
X131883500Y-107658619D01*
X131883500Y-105815683D01*
X131903502Y-105747562D01*
X131924855Y-105723984D01*
X131924348Y-105723478D01*
X132044134Y-105603483D01*
X132049305Y-105598303D01*
X132064297Y-105573982D01*
X132138275Y-105453968D01*
X132138276Y-105453966D01*
X132142115Y-105447738D01*
X132188894Y-105306704D01*
X132195632Y-105286389D01*
X132195632Y-105286387D01*
X132197797Y-105279861D01*
X132198742Y-105270645D01*
X132205172Y-105207881D01*
X132208500Y-105175400D01*
X132208500Y-103824600D01*
X132203312Y-103774600D01*
X132198238Y-103725692D01*
X132198237Y-103725688D01*
X132197526Y-103718834D01*
X132179509Y-103664829D01*
X132143868Y-103558002D01*
X132141550Y-103551054D01*
X132048478Y-103400652D01*
X131923303Y-103275695D01*
X131924941Y-103274055D01*
X131890344Y-103225256D01*
X131883500Y-103184294D01*
X131883500Y-101341437D01*
X131903502Y-101273316D01*
X131920327Y-101252419D01*
X131994134Y-101178483D01*
X131999305Y-101173303D01*
X132003146Y-101167072D01*
X132088275Y-101028968D01*
X132088276Y-101028966D01*
X132092115Y-101022738D01*
X132135771Y-100891118D01*
X132145632Y-100861389D01*
X132145632Y-100861387D01*
X132147797Y-100854861D01*
X132158500Y-100750400D01*
X132158500Y-99249600D01*
X132157934Y-99244144D01*
X132148238Y-99150692D01*
X132148237Y-99150688D01*
X132147526Y-99143834D01*
X132145228Y-99136944D01*
X132093868Y-98983002D01*
X132091550Y-98976054D01*
X131998478Y-98825652D01*
X131873303Y-98700695D01*
X131834988Y-98677077D01*
X131728968Y-98611725D01*
X131728966Y-98611724D01*
X131722738Y-98607885D01*
X131630735Y-98577369D01*
X131561389Y-98554368D01*
X131561387Y-98554368D01*
X131554861Y-98552203D01*
X131548025Y-98551503D01*
X131548022Y-98551502D01*
X131504969Y-98547091D01*
X131450400Y-98541500D01*
X130884500Y-98541500D01*
X130816379Y-98521498D01*
X130769886Y-98467842D01*
X130758500Y-98415500D01*
X130758500Y-94812632D01*
X130778502Y-94744511D01*
X130811331Y-94710054D01*
X130879860Y-94661173D01*
X130884552Y-94656498D01*
X131034435Y-94507137D01*
X131038096Y-94503489D01*
X131082374Y-94441870D01*
X131090203Y-94430974D01*
X131146198Y-94387326D01*
X131192526Y-94378500D01*
X133012930Y-94378500D01*
X133031880Y-94379933D01*
X133046115Y-94382099D01*
X133046119Y-94382099D01*
X133053349Y-94383199D01*
X133060641Y-94382606D01*
X133060644Y-94382606D01*
X133106018Y-94378915D01*
X133116233Y-94378500D01*
X133124293Y-94378500D01*
X133137583Y-94376951D01*
X133152507Y-94375211D01*
X133156882Y-94374778D01*
X133222339Y-94369454D01*
X133222342Y-94369453D01*
X133229637Y-94368860D01*
X133236601Y-94366604D01*
X133242560Y-94365413D01*
X133248415Y-94364029D01*
X133255681Y-94363182D01*
X133324327Y-94338265D01*
X133328455Y-94336848D01*
X133390936Y-94316607D01*
X133390938Y-94316606D01*
X133397899Y-94314351D01*
X133404154Y-94310555D01*
X133409628Y-94308049D01*
X133415058Y-94305330D01*
X133421937Y-94302833D01*
X133437652Y-94292530D01*
X133482976Y-94262814D01*
X133486680Y-94260477D01*
X133549107Y-94222595D01*
X133557484Y-94215197D01*
X133557508Y-94215224D01*
X133560500Y-94212571D01*
X133563733Y-94209868D01*
X133569852Y-94205856D01*
X133623128Y-94149617D01*
X133625506Y-94147175D01*
X135777276Y-91995405D01*
X135839588Y-91961379D01*
X135866371Y-91958500D01*
X136140500Y-91958500D01*
X136208621Y-91978502D01*
G37*
%TD.AperFunction*%
%TA.AperFunction,Conductor*%
G36*
X148106527Y-109789797D02*
G01*
X148151590Y-109818758D01*
X148256242Y-109923410D01*
X148290268Y-109985722D01*
X148285203Y-110056537D01*
X148256242Y-110101600D01*
X147962988Y-110394854D01*
X147900676Y-110428880D01*
X147890339Y-110430681D01*
X147857655Y-110434984D01*
X147848439Y-110436197D01*
X147841974Y-110438875D01*
X147778026Y-110438875D01*
X147771561Y-110436197D01*
X147659925Y-110421500D01*
X147660109Y-110420104D01*
X147599024Y-110397735D01*
X147556138Y-110341155D01*
X147550651Y-110270371D01*
X147584834Y-110207323D01*
X147675000Y-110117157D01*
X147973400Y-109818758D01*
X148035712Y-109784732D01*
X148106527Y-109789797D01*
G37*
%TD.AperFunction*%
%TA.AperFunction,Conductor*%
G36*
X148581537Y-109789797D02*
G01*
X148626600Y-109818758D01*
X149017350Y-110209508D01*
X149051376Y-110271820D01*
X149046311Y-110342635D01*
X149003764Y-110399471D01*
X148944700Y-110423525D01*
X148928672Y-110425635D01*
X148848439Y-110436197D01*
X148841974Y-110438875D01*
X148778026Y-110438875D01*
X148771561Y-110436197D01*
X148763375Y-110435119D01*
X148763370Y-110435118D01*
X148715982Y-110428880D01*
X148706629Y-110427649D01*
X148641702Y-110398927D01*
X148633980Y-110391822D01*
X148343758Y-110101600D01*
X148309732Y-110039288D01*
X148314797Y-109968473D01*
X148343758Y-109923410D01*
X148448410Y-109818758D01*
X148510722Y-109784732D01*
X148581537Y-109789797D01*
G37*
%TD.AperFunction*%
%TA.AperFunction,Conductor*%
G36*
X147330278Y-108551508D02*
G01*
X147351254Y-108568412D01*
X147637190Y-108854348D01*
X147651130Y-108861960D01*
X147652966Y-108861828D01*
X147659581Y-108857577D01*
X147948400Y-108568758D01*
X148010712Y-108534732D01*
X148081527Y-108539797D01*
X148126590Y-108568758D01*
X148231242Y-108673410D01*
X148265268Y-108735722D01*
X148260203Y-108806537D01*
X148231242Y-108851600D01*
X147945652Y-109137190D01*
X147938040Y-109151130D01*
X147938172Y-109152966D01*
X147942423Y-109159581D01*
X148231242Y-109448400D01*
X148265268Y-109510712D01*
X148260203Y-109581527D01*
X148231242Y-109626590D01*
X148126590Y-109731242D01*
X148064278Y-109765268D01*
X147993463Y-109760203D01*
X147948400Y-109731242D01*
X147662810Y-109445652D01*
X147648870Y-109438040D01*
X147647034Y-109438172D01*
X147640419Y-109442423D01*
X147351133Y-109731709D01*
X147288821Y-109765735D01*
X147218006Y-109760670D01*
X147201651Y-109753201D01*
X147173868Y-109738030D01*
X147172035Y-109738161D01*
X147155963Y-109748490D01*
X147087843Y-109768493D01*
X147019722Y-109748492D01*
X146998746Y-109731588D01*
X146721356Y-109454198D01*
X146687330Y-109391886D01*
X146685529Y-109381551D01*
X146684881Y-109376627D01*
X146684881Y-109376626D01*
X146683803Y-109368439D01*
X146681125Y-109361974D01*
X146681125Y-109298026D01*
X146683803Y-109291561D01*
X146698500Y-109179925D01*
X146698500Y-109151130D01*
X146988040Y-109151130D01*
X146988172Y-109152966D01*
X146992421Y-109159579D01*
X147162192Y-109329349D01*
X147176130Y-109336960D01*
X147177966Y-109336829D01*
X147184579Y-109332579D01*
X147354349Y-109162808D01*
X147361960Y-109148870D01*
X147361828Y-109147034D01*
X147357579Y-109140421D01*
X147187808Y-108970651D01*
X147173870Y-108963040D01*
X147172034Y-108963171D01*
X147165421Y-108967421D01*
X146995651Y-109137192D01*
X146988040Y-109151130D01*
X146698500Y-109151130D01*
X146698499Y-108980076D01*
X146697962Y-108975994D01*
X146697961Y-108975984D01*
X146693648Y-108943222D01*
X146704588Y-108873073D01*
X146729475Y-108837683D01*
X146998867Y-108568291D01*
X147061179Y-108534265D01*
X147131994Y-108539330D01*
X147148349Y-108546799D01*
X147176132Y-108561970D01*
X147177965Y-108561839D01*
X147194037Y-108551510D01*
X147262157Y-108531507D01*
X147330278Y-108551508D01*
G37*
%TD.AperFunction*%
%TA.AperFunction,Conductor*%
G36*
X149556537Y-108539797D02*
G01*
X149601600Y-108568758D01*
X149870525Y-108837683D01*
X149904551Y-108899995D01*
X149906352Y-108943221D01*
X149901500Y-108980075D01*
X149901501Y-109179924D01*
X149902039Y-109184009D01*
X149902039Y-109184013D01*
X149909108Y-109237707D01*
X149916197Y-109291561D01*
X149918875Y-109298026D01*
X149918874Y-109361976D01*
X149916197Y-109368439D01*
X149915119Y-109376627D01*
X149914471Y-109381548D01*
X149885750Y-109446476D01*
X149878644Y-109454200D01*
X149601600Y-109731243D01*
X149539288Y-109765268D01*
X149468472Y-109760203D01*
X149432343Y-109736983D01*
X149411368Y-109725530D01*
X149409535Y-109725661D01*
X149402920Y-109729912D01*
X149401590Y-109731242D01*
X149396671Y-109733928D01*
X149391527Y-109737234D01*
X149391291Y-109736866D01*
X149339278Y-109765268D01*
X149268463Y-109760203D01*
X149223400Y-109731242D01*
X148937810Y-109445652D01*
X148923870Y-109438040D01*
X148922034Y-109438172D01*
X148915419Y-109442423D01*
X148626600Y-109731242D01*
X148564288Y-109765268D01*
X148493473Y-109760203D01*
X148448410Y-109731242D01*
X148343758Y-109626590D01*
X148309732Y-109564278D01*
X148314797Y-109493463D01*
X148343758Y-109448400D01*
X148629348Y-109162810D01*
X148635726Y-109151130D01*
X149213040Y-109151130D01*
X149213172Y-109152966D01*
X149217421Y-109159578D01*
X149399692Y-109341849D01*
X149413630Y-109349460D01*
X149415466Y-109349329D01*
X149422079Y-109345079D01*
X149604349Y-109162808D01*
X149611960Y-109148870D01*
X149611828Y-109147034D01*
X149607579Y-109140422D01*
X149425308Y-108958151D01*
X149411370Y-108950540D01*
X149409534Y-108950671D01*
X149402921Y-108954921D01*
X149220651Y-109137192D01*
X149213040Y-109151130D01*
X148635726Y-109151130D01*
X148636960Y-109148870D01*
X148636828Y-109147034D01*
X148632577Y-109140419D01*
X148343758Y-108851600D01*
X148309732Y-108789288D01*
X148314797Y-108718473D01*
X148343758Y-108673410D01*
X148448410Y-108568758D01*
X148510722Y-108534732D01*
X148581537Y-108539797D01*
X148626600Y-108568758D01*
X148912190Y-108854348D01*
X148926130Y-108861960D01*
X148927966Y-108861828D01*
X148934581Y-108857577D01*
X149223400Y-108568758D01*
X149285712Y-108534732D01*
X149356527Y-108539797D01*
X149392655Y-108563016D01*
X149413632Y-108574470D01*
X149415465Y-108574339D01*
X149422080Y-108570088D01*
X149423410Y-108568758D01*
X149428329Y-108566072D01*
X149433473Y-108562766D01*
X149433709Y-108563134D01*
X149485722Y-108534732D01*
X149556537Y-108539797D01*
G37*
%TD.AperFunction*%
%TA.AperFunction,Conductor*%
G36*
X148106527Y-107189797D02*
G01*
X148151590Y-107218758D01*
X148256242Y-107323410D01*
X148290268Y-107385722D01*
X148285203Y-107456537D01*
X148256242Y-107501600D01*
X147970652Y-107787190D01*
X147963040Y-107801130D01*
X147963172Y-107802966D01*
X147967423Y-107809581D01*
X148256242Y-108098400D01*
X148290268Y-108160712D01*
X148285203Y-108231527D01*
X148256242Y-108276590D01*
X148151590Y-108381242D01*
X148089278Y-108415268D01*
X148018463Y-108410203D01*
X147973400Y-108381242D01*
X147687810Y-108095652D01*
X147673870Y-108088040D01*
X147672034Y-108088172D01*
X147665419Y-108092423D01*
X147376600Y-108381242D01*
X147314288Y-108415268D01*
X147243473Y-108410203D01*
X147207345Y-108386984D01*
X147186368Y-108375530D01*
X147184535Y-108375661D01*
X147177920Y-108379912D01*
X147176590Y-108381242D01*
X147171671Y-108383928D01*
X147166527Y-108387234D01*
X147166291Y-108386866D01*
X147114278Y-108415268D01*
X147043463Y-108410203D01*
X146998400Y-108381242D01*
X146735404Y-108118246D01*
X146701378Y-108055934D01*
X146698499Y-108029151D01*
X146698499Y-107980076D01*
X146697309Y-107971032D01*
X146689049Y-107908293D01*
X146683803Y-107868439D01*
X146681125Y-107861974D01*
X146681125Y-107801130D01*
X146988040Y-107801130D01*
X146988172Y-107802966D01*
X146992421Y-107809578D01*
X147174692Y-107991849D01*
X147188630Y-107999460D01*
X147190466Y-107999329D01*
X147197079Y-107995079D01*
X147379349Y-107812808D01*
X147386960Y-107798870D01*
X147386828Y-107797034D01*
X147382579Y-107790422D01*
X147200308Y-107608151D01*
X147186370Y-107600540D01*
X147184534Y-107600671D01*
X147177921Y-107604921D01*
X146995651Y-107787192D01*
X146988040Y-107801130D01*
X146681125Y-107801130D01*
X146681125Y-107798026D01*
X146683803Y-107791561D01*
X146698500Y-107679925D01*
X146698499Y-107570847D01*
X146718500Y-107502728D01*
X146735404Y-107481752D01*
X146998400Y-107218757D01*
X147060712Y-107184732D01*
X147131528Y-107189797D01*
X147167657Y-107213017D01*
X147188632Y-107224470D01*
X147190465Y-107224339D01*
X147197080Y-107220088D01*
X147198410Y-107218758D01*
X147203329Y-107216072D01*
X147208473Y-107212766D01*
X147208709Y-107213134D01*
X147260722Y-107184732D01*
X147331537Y-107189797D01*
X147376600Y-107218758D01*
X147662190Y-107504348D01*
X147676130Y-107511960D01*
X147677966Y-107511828D01*
X147684581Y-107507577D01*
X147973400Y-107218758D01*
X148035712Y-107184732D01*
X148106527Y-107189797D01*
G37*
%TD.AperFunction*%
%TA.AperFunction,Conductor*%
G36*
X149556537Y-107189797D02*
G01*
X149601600Y-107218758D01*
X149864595Y-107481753D01*
X149898621Y-107544065D01*
X149901500Y-107570847D01*
X149901501Y-107628298D01*
X149901501Y-107679924D01*
X149902039Y-107684009D01*
X149902039Y-107684013D01*
X149915119Y-107783374D01*
X149916197Y-107791561D01*
X149964550Y-107908295D01*
X149972139Y-107978883D01*
X149937236Y-108045607D01*
X149900000Y-108082843D01*
X149601600Y-108381242D01*
X149539288Y-108415268D01*
X149468473Y-108410203D01*
X149432345Y-108386984D01*
X149411368Y-108375530D01*
X149409535Y-108375661D01*
X149402920Y-108379912D01*
X149401590Y-108381242D01*
X149396671Y-108383928D01*
X149391527Y-108387234D01*
X149391291Y-108386866D01*
X149339278Y-108415268D01*
X149268463Y-108410203D01*
X149223400Y-108381242D01*
X148937810Y-108095652D01*
X148923870Y-108088040D01*
X148922034Y-108088172D01*
X148915419Y-108092423D01*
X148626600Y-108381242D01*
X148564288Y-108415268D01*
X148493473Y-108410203D01*
X148448410Y-108381242D01*
X148343758Y-108276590D01*
X148309732Y-108214278D01*
X148314797Y-108143463D01*
X148343758Y-108098400D01*
X148629348Y-107812810D01*
X148635726Y-107801130D01*
X149213040Y-107801130D01*
X149213172Y-107802966D01*
X149217421Y-107809578D01*
X149399692Y-107991849D01*
X149413630Y-107999460D01*
X149415466Y-107999329D01*
X149422079Y-107995079D01*
X149604349Y-107812808D01*
X149611960Y-107798870D01*
X149611828Y-107797034D01*
X149607579Y-107790422D01*
X149425308Y-107608151D01*
X149411370Y-107600540D01*
X149409534Y-107600671D01*
X149402921Y-107604921D01*
X149220651Y-107787192D01*
X149213040Y-107801130D01*
X148635726Y-107801130D01*
X148636960Y-107798870D01*
X148636828Y-107797034D01*
X148632577Y-107790419D01*
X148343758Y-107501600D01*
X148309732Y-107439288D01*
X148314797Y-107368473D01*
X148343758Y-107323410D01*
X148448410Y-107218758D01*
X148510722Y-107184732D01*
X148581537Y-107189797D01*
X148626600Y-107218758D01*
X148912190Y-107504348D01*
X148926130Y-107511960D01*
X148927966Y-107511828D01*
X148934581Y-107507577D01*
X149223400Y-107218758D01*
X149285712Y-107184732D01*
X149356527Y-107189797D01*
X149392655Y-107213016D01*
X149413632Y-107224470D01*
X149415465Y-107224339D01*
X149422080Y-107220088D01*
X149423410Y-107218758D01*
X149428329Y-107216072D01*
X149433473Y-107212766D01*
X149433709Y-107213134D01*
X149485722Y-107184732D01*
X149556537Y-107189797D01*
G37*
%TD.AperFunction*%
%TA.AperFunction,Conductor*%
G36*
X147848439Y-105223803D02*
G01*
X147922924Y-105233609D01*
X147955981Y-105237961D01*
X147960075Y-105238500D01*
X147979508Y-105238500D01*
X148047629Y-105258502D01*
X148068603Y-105275405D01*
X148291598Y-105498400D01*
X148299317Y-105512536D01*
X148308402Y-105498400D01*
X148531398Y-105275404D01*
X148593710Y-105241378D01*
X148620491Y-105238499D01*
X148659924Y-105238499D01*
X148664008Y-105237961D01*
X148664014Y-105237961D01*
X148738238Y-105228190D01*
X148771561Y-105223803D01*
X148778026Y-105221125D01*
X148841974Y-105221125D01*
X148848439Y-105223803D01*
X148908215Y-105231673D01*
X148922923Y-105233609D01*
X148987850Y-105262331D01*
X149026942Y-105321597D01*
X149027787Y-105392588D01*
X148995572Y-105447626D01*
X148626600Y-105816598D01*
X148582721Y-105840558D01*
X148626600Y-105868758D01*
X148912190Y-106154348D01*
X148926130Y-106161960D01*
X148927966Y-106161828D01*
X148934578Y-106157579D01*
X149225388Y-105866770D01*
X149287700Y-105832745D01*
X149358516Y-105837810D01*
X149374870Y-105845279D01*
X149395954Y-105856792D01*
X149397787Y-105856661D01*
X149404402Y-105852410D01*
X149423410Y-105833402D01*
X149485722Y-105799376D01*
X149556537Y-105804441D01*
X149601600Y-105833402D01*
X149864987Y-106096789D01*
X149899013Y-106159101D01*
X149901501Y-106176786D01*
X149901501Y-106179924D01*
X149916197Y-106291561D01*
X149918875Y-106298026D01*
X149918875Y-106361974D01*
X149916197Y-106368439D01*
X149901500Y-106480075D01*
X149901501Y-106679924D01*
X149903485Y-106694999D01*
X149892548Y-106765144D01*
X149867659Y-106800539D01*
X149601600Y-107066598D01*
X149539288Y-107100624D01*
X149468473Y-107095559D01*
X149423410Y-107066598D01*
X149407634Y-107050822D01*
X149393690Y-107043208D01*
X149391859Y-107043339D01*
X149382091Y-107049616D01*
X149313970Y-107069619D01*
X149245849Y-107049618D01*
X149224873Y-107032715D01*
X148937808Y-106745651D01*
X148923870Y-106738040D01*
X148922034Y-106738172D01*
X148915419Y-106742423D01*
X148626600Y-107031242D01*
X148564288Y-107065268D01*
X148493473Y-107060203D01*
X148448410Y-107031242D01*
X148343758Y-106926590D01*
X148309732Y-106864278D01*
X148314797Y-106793463D01*
X148343758Y-106748400D01*
X148629348Y-106462810D01*
X148635726Y-106451130D01*
X149213040Y-106451130D01*
X149213172Y-106452966D01*
X149217421Y-106459579D01*
X149382014Y-106624171D01*
X149395952Y-106631782D01*
X149397788Y-106631651D01*
X149404402Y-106627400D01*
X149568990Y-106462812D01*
X149576604Y-106448868D01*
X149576473Y-106447035D01*
X149572222Y-106440420D01*
X149407634Y-106275832D01*
X149393690Y-106268218D01*
X149391857Y-106268349D01*
X149385243Y-106272599D01*
X149220651Y-106437192D01*
X149213040Y-106451130D01*
X148635726Y-106451130D01*
X148636960Y-106448870D01*
X148636828Y-106447034D01*
X148632577Y-106440419D01*
X148343758Y-106151600D01*
X148309732Y-106089288D01*
X148314797Y-106018473D01*
X148343758Y-105973410D01*
X148448410Y-105868758D01*
X148492289Y-105844798D01*
X148448410Y-105816598D01*
X148308402Y-105676590D01*
X148300683Y-105662454D01*
X148291598Y-105676590D01*
X148151590Y-105816598D01*
X148107711Y-105840558D01*
X148151590Y-105868758D01*
X148256242Y-105973410D01*
X148290268Y-106035722D01*
X148285203Y-106106537D01*
X148256242Y-106151600D01*
X147970652Y-106437190D01*
X147963040Y-106451130D01*
X147963172Y-106452966D01*
X147967423Y-106459581D01*
X148256242Y-106748400D01*
X148290268Y-106810712D01*
X148285203Y-106881527D01*
X148256242Y-106926590D01*
X148151590Y-107031242D01*
X148089278Y-107065268D01*
X148018463Y-107060203D01*
X147973400Y-107031242D01*
X147687810Y-106745652D01*
X147673870Y-106738040D01*
X147672034Y-106738172D01*
X147665419Y-106742423D01*
X147376600Y-107031242D01*
X147314288Y-107065268D01*
X147243473Y-107060203D01*
X147207345Y-107036984D01*
X147186368Y-107025530D01*
X147184535Y-107025661D01*
X147177920Y-107029912D01*
X147176590Y-107031242D01*
X147171671Y-107033928D01*
X147166527Y-107037234D01*
X147166291Y-107036866D01*
X147114278Y-107065268D01*
X147043463Y-107060203D01*
X146998400Y-107031242D01*
X146735405Y-106768247D01*
X146701379Y-106705935D01*
X146698500Y-106679153D01*
X146698499Y-106484199D01*
X146698499Y-106480076D01*
X146696227Y-106462812D01*
X146694689Y-106451130D01*
X146988040Y-106451130D01*
X146988172Y-106452966D01*
X146992421Y-106459578D01*
X147174692Y-106641849D01*
X147188630Y-106649460D01*
X147190466Y-106649329D01*
X147197079Y-106645079D01*
X147379349Y-106462808D01*
X147386960Y-106448870D01*
X147386828Y-106447034D01*
X147382579Y-106440422D01*
X147200308Y-106258151D01*
X147186370Y-106250540D01*
X147184534Y-106250671D01*
X147177921Y-106254921D01*
X146995651Y-106437192D01*
X146988040Y-106451130D01*
X146694689Y-106451130D01*
X146684881Y-106376629D01*
X146683803Y-106368439D01*
X146681125Y-106361974D01*
X146681125Y-106298026D01*
X146683803Y-106291561D01*
X146693042Y-106221384D01*
X146694626Y-106209353D01*
X146723349Y-106144425D01*
X146730453Y-106136703D01*
X146998400Y-105868757D01*
X147060712Y-105834732D01*
X147131528Y-105839797D01*
X147167657Y-105863017D01*
X147188632Y-105874470D01*
X147190465Y-105874339D01*
X147197080Y-105870088D01*
X147198410Y-105868758D01*
X147203329Y-105866072D01*
X147208473Y-105862766D01*
X147208709Y-105863134D01*
X147260722Y-105834732D01*
X147331537Y-105839797D01*
X147376600Y-105868758D01*
X147662190Y-106154348D01*
X147676130Y-106161960D01*
X147677966Y-106161828D01*
X147684581Y-106157577D01*
X147973400Y-105868758D01*
X148017279Y-105844798D01*
X147973400Y-105816598D01*
X147606754Y-105449952D01*
X147572728Y-105387640D01*
X147577793Y-105316825D01*
X147620340Y-105259989D01*
X147679404Y-105235935D01*
X147740201Y-105227931D01*
X147771561Y-105223803D01*
X147778026Y-105221125D01*
X147841974Y-105221125D01*
X147848439Y-105223803D01*
G37*
%TD.AperFunction*%
%TA.AperFunction,Conductor*%
G36*
X141995978Y-88864907D02*
G01*
X142095139Y-88897797D01*
X142101975Y-88898497D01*
X142101978Y-88898498D01*
X142145031Y-88902909D01*
X142199600Y-88908500D01*
X143200400Y-88908500D01*
X143203646Y-88908163D01*
X143203650Y-88908163D01*
X143299308Y-88898238D01*
X143299312Y-88898237D01*
X143306166Y-88897526D01*
X143312702Y-88895345D01*
X143312704Y-88895345D01*
X143403730Y-88864976D01*
X143443606Y-88858500D01*
X146390500Y-88858500D01*
X146458621Y-88878502D01*
X146505114Y-88932158D01*
X146516500Y-88984500D01*
X146516500Y-90000400D01*
X146516837Y-90003646D01*
X146516837Y-90003650D01*
X146525473Y-90086876D01*
X146527474Y-90106165D01*
X146583450Y-90273945D01*
X146676522Y-90424348D01*
X146801697Y-90549305D01*
X146807927Y-90553145D01*
X146807928Y-90553146D01*
X146945090Y-90637694D01*
X146952262Y-90642115D01*
X147032005Y-90668564D01*
X147113611Y-90695632D01*
X147113613Y-90695632D01*
X147120139Y-90697797D01*
X147126975Y-90698497D01*
X147126978Y-90698498D01*
X147170031Y-90702909D01*
X147224600Y-90708500D01*
X148575400Y-90708500D01*
X148578646Y-90708163D01*
X148578650Y-90708163D01*
X148674307Y-90698238D01*
X148674311Y-90698237D01*
X148681165Y-90697526D01*
X148687701Y-90695345D01*
X148687703Y-90695345D01*
X148819805Y-90651272D01*
X148848945Y-90641550D01*
X148999348Y-90548478D01*
X149124305Y-90423303D01*
X149142587Y-90393645D01*
X149165104Y-90357117D01*
X149217876Y-90309624D01*
X149287948Y-90298202D01*
X149353072Y-90326476D01*
X149361458Y-90334139D01*
X151179875Y-92152556D01*
X151210613Y-92202714D01*
X151265473Y-92371556D01*
X151360960Y-92536944D01*
X151365378Y-92541851D01*
X151365379Y-92541852D01*
X151421673Y-92604373D01*
X151488747Y-92678866D01*
X151587843Y-92750864D01*
X151621064Y-92775000D01*
X151643248Y-92791118D01*
X151649276Y-92793802D01*
X151649278Y-92793803D01*
X151790238Y-92856562D01*
X151817712Y-92868794D01*
X151882984Y-92882668D01*
X151998056Y-92907128D01*
X151998061Y-92907128D01*
X152004513Y-92908500D01*
X152195487Y-92908500D01*
X152201939Y-92907128D01*
X152201944Y-92907128D01*
X152317016Y-92882668D01*
X152382288Y-92868794D01*
X152409762Y-92856562D01*
X152550722Y-92793803D01*
X152550724Y-92793802D01*
X152556752Y-92791118D01*
X152578937Y-92775000D01*
X152612157Y-92750864D01*
X152711253Y-92678866D01*
X152778327Y-92604373D01*
X152834621Y-92541852D01*
X152834622Y-92541851D01*
X152839040Y-92536944D01*
X152934527Y-92371556D01*
X152984865Y-92216633D01*
X153024939Y-92158027D01*
X153090335Y-92130390D01*
X153160292Y-92142497D01*
X153193793Y-92166474D01*
X154393721Y-93366402D01*
X154427747Y-93428714D01*
X154422682Y-93499529D01*
X154380135Y-93556365D01*
X154362181Y-93565352D01*
X154355671Y-93572865D01*
X154354000Y-93580548D01*
X154354000Y-94790500D01*
X154333998Y-94858621D01*
X154280342Y-94905114D01*
X154228000Y-94916500D01*
X152885116Y-94916500D01*
X152869877Y-94920975D01*
X152868672Y-94922365D01*
X152867001Y-94930048D01*
X152867001Y-95047095D01*
X152867338Y-95053614D01*
X152877257Y-95149206D01*
X152880149Y-95162600D01*
X152931588Y-95316784D01*
X152937761Y-95329962D01*
X153023063Y-95467807D01*
X153032099Y-95479208D01*
X153146828Y-95593738D01*
X153155762Y-95600794D01*
X153196823Y-95658712D01*
X153200053Y-95729635D01*
X153164426Y-95791046D01*
X153156593Y-95797846D01*
X153150652Y-95801522D01*
X153025695Y-95926697D01*
X153021855Y-95932927D01*
X153021854Y-95932928D01*
X152940270Y-96065282D01*
X152932885Y-96077262D01*
X152877203Y-96245139D01*
X152876503Y-96251975D01*
X152876502Y-96251978D01*
X152873116Y-96285031D01*
X152866500Y-96349600D01*
X152866500Y-97125400D01*
X152866837Y-97128646D01*
X152866837Y-97128650D01*
X152876629Y-97223021D01*
X152877474Y-97231166D01*
X152879655Y-97237702D01*
X152879655Y-97237704D01*
X152899173Y-97296206D01*
X152933450Y-97398946D01*
X153026522Y-97549348D01*
X153031704Y-97554521D01*
X153031708Y-97554526D01*
X153054517Y-97577295D01*
X153088597Y-97639577D01*
X153091500Y-97666468D01*
X153091500Y-100683694D01*
X153071498Y-100751815D01*
X153060317Y-100765702D01*
X153060404Y-100765771D01*
X153055866Y-100771517D01*
X153050695Y-100776697D01*
X153046855Y-100782927D01*
X153046854Y-100782928D01*
X152978510Y-100893803D01*
X152957885Y-100927262D01*
X152931436Y-101007005D01*
X152925817Y-101023946D01*
X152902203Y-101095139D01*
X152901503Y-101101975D01*
X152901502Y-101101978D01*
X152898219Y-101134020D01*
X152891500Y-101199600D01*
X152891500Y-102000400D01*
X152891837Y-102003646D01*
X152891837Y-102003650D01*
X152899865Y-102081018D01*
X152902474Y-102106166D01*
X152904655Y-102112702D01*
X152904655Y-102112704D01*
X152926115Y-102177026D01*
X152958450Y-102273946D01*
X153051522Y-102424348D01*
X153110907Y-102483629D01*
X153138109Y-102510784D01*
X153172188Y-102573066D01*
X153167185Y-102643886D01*
X153138264Y-102688975D01*
X153097476Y-102729834D01*
X153050695Y-102776697D01*
X153046855Y-102782927D01*
X153046854Y-102782928D01*
X153023304Y-102821134D01*
X152957885Y-102927262D01*
X152955581Y-102934209D01*
X152907359Y-103079595D01*
X152902203Y-103095139D01*
X152901503Y-103101975D01*
X152901502Y-103101978D01*
X152898278Y-103133450D01*
X152891500Y-103199600D01*
X152891500Y-104000400D01*
X152891837Y-104003646D01*
X152891837Y-104003650D01*
X152895292Y-104036944D01*
X152902474Y-104106166D01*
X152904655Y-104112702D01*
X152904655Y-104112704D01*
X152924315Y-104171632D01*
X152956162Y-104267087D01*
X152956162Y-104267089D01*
X152958450Y-104273946D01*
X152957276Y-104274338D01*
X152966939Y-104337227D01*
X152938071Y-104402089D01*
X152878718Y-104441048D01*
X152842054Y-104446500D01*
X150819500Y-104446500D01*
X150751379Y-104426498D01*
X150704886Y-104372842D01*
X150693500Y-104320500D01*
X150693500Y-101154594D01*
X150713502Y-101086473D01*
X150730405Y-101065499D01*
X150750499Y-101045405D01*
X150812811Y-101011379D01*
X150839594Y-101008500D01*
X150895487Y-101008500D01*
X150901939Y-101007128D01*
X150901944Y-101007128D01*
X150988888Y-100988647D01*
X151082288Y-100968794D01*
X151175571Y-100927262D01*
X151250722Y-100893803D01*
X151250724Y-100893802D01*
X151256752Y-100891118D01*
X151411253Y-100778866D01*
X151433958Y-100753650D01*
X151534621Y-100641852D01*
X151534622Y-100641851D01*
X151539040Y-100636944D01*
X151609445Y-100515000D01*
X151631223Y-100477279D01*
X151631224Y-100477278D01*
X151634527Y-100471556D01*
X151693542Y-100289928D01*
X151697257Y-100254588D01*
X151712814Y-100106565D01*
X151713504Y-100100000D01*
X151710950Y-100075702D01*
X151694232Y-99916635D01*
X151694232Y-99916633D01*
X151693542Y-99910072D01*
X151634527Y-99728444D01*
X151539040Y-99563056D01*
X151498518Y-99518051D01*
X151415675Y-99426045D01*
X151415674Y-99426044D01*
X151411253Y-99421134D01*
X151287046Y-99330892D01*
X151262094Y-99312763D01*
X151262093Y-99312762D01*
X151256752Y-99308882D01*
X151250724Y-99306198D01*
X151250722Y-99306197D01*
X151088319Y-99233891D01*
X151088318Y-99233891D01*
X151082288Y-99231206D01*
X150979624Y-99209384D01*
X150901944Y-99192872D01*
X150901939Y-99192872D01*
X150895487Y-99191500D01*
X150704513Y-99191500D01*
X150698061Y-99192872D01*
X150698056Y-99192872D01*
X150620376Y-99209384D01*
X150517712Y-99231206D01*
X150511682Y-99233891D01*
X150511681Y-99233891D01*
X150349278Y-99306197D01*
X150349276Y-99306198D01*
X150343248Y-99308882D01*
X150337907Y-99312762D01*
X150337906Y-99312763D01*
X150312954Y-99330892D01*
X150188747Y-99421134D01*
X150184326Y-99426044D01*
X150184325Y-99426045D01*
X150143636Y-99471235D01*
X150083190Y-99508475D01*
X150012207Y-99507123D01*
X149956364Y-99471235D01*
X149915675Y-99426045D01*
X149915674Y-99426044D01*
X149911253Y-99421134D01*
X149787046Y-99330892D01*
X149762094Y-99312763D01*
X149762093Y-99312762D01*
X149756752Y-99308882D01*
X149750724Y-99306198D01*
X149750722Y-99306197D01*
X149588319Y-99233891D01*
X149588318Y-99233891D01*
X149582288Y-99231206D01*
X149479624Y-99209384D01*
X149401944Y-99192872D01*
X149401939Y-99192872D01*
X149395487Y-99191500D01*
X149204513Y-99191500D01*
X149198061Y-99192872D01*
X149198056Y-99192872D01*
X149120376Y-99209384D01*
X149017712Y-99231206D01*
X149011682Y-99233891D01*
X149011681Y-99233891D01*
X148849278Y-99306197D01*
X148849276Y-99306198D01*
X148843248Y-99308882D01*
X148837907Y-99312762D01*
X148837906Y-99312763D01*
X148812954Y-99330892D01*
X148688747Y-99421134D01*
X148684326Y-99426044D01*
X148684325Y-99426045D01*
X148601483Y-99518051D01*
X148560960Y-99563056D01*
X148465473Y-99728444D01*
X148406458Y-99910072D01*
X148405768Y-99916633D01*
X148405768Y-99916635D01*
X148389050Y-100075702D01*
X148386496Y-100100000D01*
X148387186Y-100106565D01*
X148402744Y-100254588D01*
X148406458Y-100289928D01*
X148408498Y-100296206D01*
X148463431Y-100465271D01*
X148465473Y-100471556D01*
X148466500Y-100473335D01*
X148475709Y-100542031D01*
X148445600Y-100606327D01*
X148402416Y-100638016D01*
X148249281Y-100706195D01*
X148249274Y-100706199D01*
X148243248Y-100708882D01*
X148224060Y-100722823D01*
X148157192Y-100746681D01*
X148088041Y-100730600D01*
X148075940Y-100722823D01*
X148056752Y-100708882D01*
X148050724Y-100706198D01*
X148050722Y-100706197D01*
X147888319Y-100633891D01*
X147888318Y-100633891D01*
X147882288Y-100631206D01*
X147788888Y-100611353D01*
X147701944Y-100592872D01*
X147701939Y-100592872D01*
X147695487Y-100591500D01*
X147504513Y-100591500D01*
X147498061Y-100592872D01*
X147498056Y-100592872D01*
X147411113Y-100611353D01*
X147317712Y-100631206D01*
X147311682Y-100633891D01*
X147311681Y-100633891D01*
X147149278Y-100706197D01*
X147149276Y-100706198D01*
X147143248Y-100708882D01*
X147051348Y-100775652D01*
X147024061Y-100795477D01*
X146957194Y-100819335D01*
X146888042Y-100803255D01*
X146875939Y-100795477D01*
X146848653Y-100775652D01*
X146756752Y-100708882D01*
X146750723Y-100706198D01*
X146750720Y-100706196D01*
X146696634Y-100682116D01*
X146642538Y-100636136D01*
X146621888Y-100568209D01*
X146626127Y-100541364D01*
X146624622Y-100541051D01*
X146639490Y-100469571D01*
X146640461Y-100465282D01*
X146657808Y-100394390D01*
X146658500Y-100383236D01*
X146658535Y-100383238D01*
X146658775Y-100379266D01*
X146659152Y-100375045D01*
X146660641Y-100367885D01*
X146658546Y-100290458D01*
X146658500Y-100287050D01*
X146658500Y-100066371D01*
X146678502Y-99998250D01*
X146695405Y-99977276D01*
X148809412Y-97863269D01*
X148871724Y-97829243D01*
X148911349Y-97827020D01*
X148968945Y-97832921D01*
X148974600Y-97833500D01*
X150025400Y-97833500D01*
X150028646Y-97833163D01*
X150028650Y-97833163D01*
X150124308Y-97823238D01*
X150124312Y-97823237D01*
X150131166Y-97822526D01*
X150137702Y-97820345D01*
X150137704Y-97820345D01*
X150291998Y-97768868D01*
X150298946Y-97766550D01*
X150449348Y-97673478D01*
X150574305Y-97548303D01*
X150578146Y-97542072D01*
X150663275Y-97403968D01*
X150663276Y-97403966D01*
X150667115Y-97397738D01*
X150695341Y-97312639D01*
X150720632Y-97236389D01*
X150720632Y-97236387D01*
X150722797Y-97229861D01*
X150725192Y-97206492D01*
X150730854Y-97151221D01*
X150733500Y-97125400D01*
X150733500Y-96349600D01*
X150731431Y-96329655D01*
X150723238Y-96250692D01*
X150723237Y-96250688D01*
X150722526Y-96243834D01*
X150718320Y-96231225D01*
X150668868Y-96083002D01*
X150666550Y-96076054D01*
X150573478Y-95925652D01*
X150448303Y-95800695D01*
X150443765Y-95797898D01*
X150403176Y-95740647D01*
X150399946Y-95669724D01*
X150435572Y-95608313D01*
X150444068Y-95600938D01*
X150454207Y-95592902D01*
X150568739Y-95478171D01*
X150577751Y-95466760D01*
X150662816Y-95328757D01*
X150668963Y-95315576D01*
X150720138Y-95161290D01*
X150723005Y-95147914D01*
X150732672Y-95053562D01*
X150733000Y-95047146D01*
X150733000Y-94934615D01*
X150728525Y-94919376D01*
X150727135Y-94918171D01*
X150719452Y-94916500D01*
X149372000Y-94916500D01*
X149303879Y-94896498D01*
X149257386Y-94842842D01*
X149246000Y-94790500D01*
X149246000Y-94390385D01*
X149754000Y-94390385D01*
X149758475Y-94405624D01*
X149759865Y-94406829D01*
X149767548Y-94408500D01*
X150714884Y-94408500D01*
X150730123Y-94404025D01*
X150731328Y-94402635D01*
X150732999Y-94394952D01*
X150732999Y-94390385D01*
X152867000Y-94390385D01*
X152871475Y-94405624D01*
X152872865Y-94406829D01*
X152880548Y-94408500D01*
X153827885Y-94408500D01*
X153843124Y-94404025D01*
X153844329Y-94402635D01*
X153846000Y-94394952D01*
X153846000Y-93585116D01*
X153841525Y-93569877D01*
X153840135Y-93568672D01*
X153832452Y-93567001D01*
X153577905Y-93567001D01*
X153571386Y-93567338D01*
X153475794Y-93577257D01*
X153462400Y-93580149D01*
X153308216Y-93631588D01*
X153295038Y-93637761D01*
X153157193Y-93723063D01*
X153145792Y-93732099D01*
X153031261Y-93846829D01*
X153022249Y-93858240D01*
X152937184Y-93996243D01*
X152931037Y-94009424D01*
X152879862Y-94163710D01*
X152876995Y-94177086D01*
X152867328Y-94271438D01*
X152867000Y-94277855D01*
X152867000Y-94390385D01*
X150732999Y-94390385D01*
X150732999Y-94277905D01*
X150732662Y-94271386D01*
X150722743Y-94175794D01*
X150719851Y-94162400D01*
X150668412Y-94008216D01*
X150662239Y-93995038D01*
X150576937Y-93857193D01*
X150567901Y-93845792D01*
X150453171Y-93731261D01*
X150441760Y-93722249D01*
X150303757Y-93637184D01*
X150290576Y-93631037D01*
X150136290Y-93579862D01*
X150122914Y-93576995D01*
X150028562Y-93567328D01*
X150022145Y-93567000D01*
X149772115Y-93567000D01*
X149756876Y-93571475D01*
X149755671Y-93572865D01*
X149754000Y-93580548D01*
X149754000Y-94390385D01*
X149246000Y-94390385D01*
X149246000Y-93585116D01*
X149241525Y-93569877D01*
X149240135Y-93568672D01*
X149232452Y-93567001D01*
X148977905Y-93567001D01*
X148971386Y-93567338D01*
X148875794Y-93577257D01*
X148862400Y-93580149D01*
X148708216Y-93631588D01*
X148695038Y-93637761D01*
X148650803Y-93665135D01*
X148582352Y-93683973D01*
X148514582Y-93662812D01*
X148469011Y-93608371D01*
X148459537Y-93562962D01*
X148458712Y-93563010D01*
X148458500Y-93559357D01*
X148458500Y-93555707D01*
X148458078Y-93552087D01*
X148458077Y-93552069D01*
X148455208Y-93527461D01*
X148454775Y-93523086D01*
X148453680Y-93509616D01*
X148448860Y-93450363D01*
X148446604Y-93443399D01*
X148445413Y-93437440D01*
X148444029Y-93431585D01*
X148443182Y-93424319D01*
X148418265Y-93355673D01*
X148416848Y-93351545D01*
X148396607Y-93289064D01*
X148396606Y-93289062D01*
X148394351Y-93282101D01*
X148390555Y-93275846D01*
X148388049Y-93270372D01*
X148385330Y-93264942D01*
X148382833Y-93258063D01*
X148342809Y-93197016D01*
X148340472Y-93193312D01*
X148305509Y-93135693D01*
X148305505Y-93135688D01*
X148302595Y-93130892D01*
X148295197Y-93122516D01*
X148295223Y-93122493D01*
X148292574Y-93119503D01*
X148289866Y-93116264D01*
X148285856Y-93110148D01*
X148280549Y-93105121D01*
X148280546Y-93105117D01*
X148229617Y-93056872D01*
X148227175Y-93054494D01*
X145083770Y-89911089D01*
X145071384Y-89896677D01*
X145062851Y-89885082D01*
X145062846Y-89885077D01*
X145058508Y-89879182D01*
X145052930Y-89874443D01*
X145052927Y-89874440D01*
X145018232Y-89844965D01*
X145010716Y-89838035D01*
X145005021Y-89832340D01*
X144993667Y-89823357D01*
X144982749Y-89814719D01*
X144979345Y-89811928D01*
X144929297Y-89769409D01*
X144929295Y-89769408D01*
X144923715Y-89764667D01*
X144917199Y-89761339D01*
X144912150Y-89757972D01*
X144907021Y-89754805D01*
X144901284Y-89750266D01*
X144835125Y-89719345D01*
X144831225Y-89717439D01*
X144766192Y-89684231D01*
X144759084Y-89682492D01*
X144753441Y-89680393D01*
X144747678Y-89678476D01*
X144741050Y-89675378D01*
X144669583Y-89660513D01*
X144665299Y-89659543D01*
X144654163Y-89656818D01*
X144594390Y-89642192D01*
X144588788Y-89641844D01*
X144588785Y-89641844D01*
X144583236Y-89641500D01*
X144583238Y-89641464D01*
X144579245Y-89641225D01*
X144575053Y-89640851D01*
X144567885Y-89639360D01*
X144504120Y-89641085D01*
X144490479Y-89641454D01*
X144487072Y-89641500D01*
X132167069Y-89641500D01*
X132148121Y-89640067D01*
X132140780Y-89638950D01*
X132133883Y-89637901D01*
X132133881Y-89637901D01*
X132126651Y-89636801D01*
X132119359Y-89637394D01*
X132119356Y-89637394D01*
X132073982Y-89641085D01*
X132063767Y-89641500D01*
X132055707Y-89641500D01*
X132042417Y-89643049D01*
X132027493Y-89644789D01*
X132023118Y-89645222D01*
X131957661Y-89650546D01*
X131957658Y-89650547D01*
X131950363Y-89651140D01*
X131943399Y-89653396D01*
X131937440Y-89654587D01*
X131931585Y-89655971D01*
X131924319Y-89656818D01*
X131855673Y-89681735D01*
X131851545Y-89683152D01*
X131789064Y-89703393D01*
X131789062Y-89703394D01*
X131782101Y-89705649D01*
X131775846Y-89709445D01*
X131770372Y-89711951D01*
X131764942Y-89714670D01*
X131758063Y-89717167D01*
X131697016Y-89757191D01*
X131693327Y-89759518D01*
X131693287Y-89759543D01*
X131635693Y-89794491D01*
X131635688Y-89794495D01*
X131630892Y-89797405D01*
X131622516Y-89804803D01*
X131622493Y-89804777D01*
X131619503Y-89807426D01*
X131616264Y-89810134D01*
X131610148Y-89814144D01*
X131605121Y-89819451D01*
X131605117Y-89819454D01*
X131556872Y-89870383D01*
X131554494Y-89872825D01*
X131220590Y-90206729D01*
X131158278Y-90240755D01*
X131087463Y-90235690D01*
X131038302Y-90202434D01*
X130933152Y-90086876D01*
X130933142Y-90086867D01*
X130929670Y-90083051D01*
X130925619Y-90079852D01*
X130925615Y-90079848D01*
X130758414Y-89947800D01*
X130758410Y-89947798D01*
X130754359Y-89944598D01*
X130713053Y-89921796D01*
X130663084Y-89871364D01*
X130648312Y-89801921D01*
X130673428Y-89735516D01*
X130700780Y-89708909D01*
X130769251Y-89660069D01*
X130879860Y-89581173D01*
X131038096Y-89423489D01*
X131097594Y-89340689D01*
X131165435Y-89246277D01*
X131168453Y-89242077D01*
X131267430Y-89041811D01*
X131268937Y-89036852D01*
X131295972Y-88947871D01*
X131334913Y-88888507D01*
X131399767Y-88859620D01*
X131416530Y-88858500D01*
X141956312Y-88858500D01*
X141995978Y-88864907D01*
G37*
%TD.AperFunction*%
%TA.AperFunction,Conductor*%
G36*
X167533621Y-67228502D02*
G01*
X167580114Y-67282158D01*
X167591500Y-67334500D01*
X167591500Y-80644056D01*
X167571498Y-80712177D01*
X167517842Y-80758670D01*
X167447568Y-80768774D01*
X167389935Y-80744882D01*
X167303649Y-80680214D01*
X167288054Y-80671676D01*
X167167606Y-80626522D01*
X167152351Y-80622895D01*
X167101486Y-80617369D01*
X167094672Y-80617000D01*
X166472115Y-80617000D01*
X166456876Y-80621475D01*
X166455671Y-80622865D01*
X166454000Y-80630548D01*
X166454000Y-82103000D01*
X166433998Y-82171121D01*
X166380342Y-82217614D01*
X166328000Y-82229000D01*
X164860116Y-82229000D01*
X164844877Y-82233475D01*
X164843672Y-82234865D01*
X164842001Y-82242548D01*
X164842001Y-82869669D01*
X164842371Y-82876490D01*
X164847895Y-82927352D01*
X164851521Y-82942604D01*
X164896676Y-83063054D01*
X164905214Y-83078649D01*
X164981715Y-83180724D01*
X164994276Y-83193285D01*
X165096351Y-83269786D01*
X165111946Y-83278324D01*
X165220827Y-83319142D01*
X165277591Y-83361784D01*
X165302291Y-83428345D01*
X165287083Y-83497694D01*
X165267691Y-83524175D01*
X165144200Y-83653401D01*
X165140629Y-83657138D01*
X165014743Y-83841680D01*
X164920688Y-84044305D01*
X164860989Y-84259570D01*
X164837251Y-84481695D01*
X164850110Y-84704715D01*
X164851247Y-84709761D01*
X164851248Y-84709767D01*
X164867463Y-84781715D01*
X164899222Y-84922639D01*
X164983266Y-85129616D01*
X164985965Y-85134020D01*
X165082272Y-85291179D01*
X165099987Y-85320088D01*
X165246250Y-85488938D01*
X165418126Y-85631632D01*
X165488595Y-85672811D01*
X165491445Y-85674476D01*
X165540169Y-85726114D01*
X165553240Y-85795897D01*
X165526509Y-85861669D01*
X165486055Y-85895027D01*
X165473607Y-85901507D01*
X165469474Y-85904610D01*
X165469471Y-85904612D01*
X165445247Y-85922800D01*
X165294965Y-86035635D01*
X165140629Y-86197138D01*
X165137715Y-86201410D01*
X165137714Y-86201411D01*
X165089483Y-86272115D01*
X165014743Y-86381680D01*
X164989690Y-86435653D01*
X164923382Y-86578502D01*
X164920688Y-86584305D01*
X164860989Y-86799570D01*
X164837251Y-87021695D01*
X164837548Y-87026848D01*
X164837548Y-87026851D01*
X164846126Y-87175623D01*
X164850110Y-87244715D01*
X164851247Y-87249761D01*
X164851248Y-87249767D01*
X164866258Y-87316368D01*
X164899222Y-87462639D01*
X164983266Y-87669616D01*
X164993558Y-87686411D01*
X165096039Y-87853645D01*
X165099987Y-87860088D01*
X165246250Y-88028938D01*
X165418126Y-88171632D01*
X165611000Y-88284338D01*
X165819692Y-88364030D01*
X165824760Y-88365061D01*
X165824763Y-88365062D01*
X165932017Y-88386883D01*
X166038597Y-88408567D01*
X166043772Y-88408757D01*
X166043774Y-88408757D01*
X166256673Y-88416564D01*
X166256677Y-88416564D01*
X166261837Y-88416753D01*
X166266957Y-88416097D01*
X166266959Y-88416097D01*
X166478288Y-88389025D01*
X166478289Y-88389025D01*
X166483416Y-88388368D01*
X166488366Y-88386883D01*
X166692429Y-88325661D01*
X166692434Y-88325659D01*
X166697384Y-88324174D01*
X166897994Y-88225896D01*
X167079860Y-88096173D01*
X167238096Y-87938489D01*
X167363178Y-87764419D01*
X167419172Y-87720771D01*
X167489875Y-87714325D01*
X167552839Y-87747128D01*
X167588074Y-87808764D01*
X167591500Y-87837945D01*
X167591500Y-92118025D01*
X167571498Y-92186146D01*
X167517842Y-92232639D01*
X167447568Y-92242743D01*
X167382988Y-92213249D01*
X167359708Y-92186465D01*
X167282822Y-92067617D01*
X167282820Y-92067614D01*
X167280014Y-92063277D01*
X167129670Y-91898051D01*
X167125619Y-91894852D01*
X167125615Y-91894848D01*
X166958414Y-91762800D01*
X166958410Y-91762798D01*
X166954359Y-91759598D01*
X166941478Y-91752487D01*
X166887725Y-91722814D01*
X166758789Y-91651638D01*
X166753920Y-91649914D01*
X166753916Y-91649912D01*
X166553087Y-91578795D01*
X166553083Y-91578794D01*
X166548212Y-91577069D01*
X166543119Y-91576162D01*
X166543116Y-91576161D01*
X166333373Y-91538800D01*
X166333367Y-91538799D01*
X166328284Y-91537894D01*
X166254452Y-91536992D01*
X166110081Y-91535228D01*
X166110079Y-91535228D01*
X166104911Y-91535165D01*
X165884091Y-91568955D01*
X165671756Y-91638357D01*
X165473607Y-91741507D01*
X165469474Y-91744610D01*
X165469471Y-91744612D01*
X165332669Y-91847326D01*
X165294965Y-91875635D01*
X165140629Y-92037138D01*
X165014743Y-92221680D01*
X165000883Y-92251539D01*
X164942517Y-92377279D01*
X164920688Y-92424305D01*
X164860989Y-92639570D01*
X164837251Y-92861695D01*
X164837548Y-92866848D01*
X164837548Y-92866851D01*
X164848438Y-93055721D01*
X164850110Y-93084715D01*
X164851247Y-93089761D01*
X164851248Y-93089767D01*
X164864666Y-93149305D01*
X164899222Y-93302639D01*
X164983266Y-93509616D01*
X165019588Y-93568888D01*
X165092657Y-93688126D01*
X165099987Y-93700088D01*
X165246250Y-93868938D01*
X165418126Y-94011632D01*
X165445519Y-94027639D01*
X165491445Y-94054476D01*
X165540169Y-94106114D01*
X165553240Y-94175897D01*
X165526509Y-94241669D01*
X165486055Y-94275027D01*
X165473607Y-94281507D01*
X165469474Y-94284610D01*
X165469471Y-94284612D01*
X165299100Y-94412530D01*
X165294965Y-94415635D01*
X165140629Y-94577138D01*
X165110363Y-94621507D01*
X165055455Y-94666507D01*
X165006277Y-94676500D01*
X161201371Y-94676500D01*
X161133250Y-94656498D01*
X161112276Y-94639595D01*
X159567691Y-93095010D01*
X159533665Y-93032698D01*
X159538730Y-92961883D01*
X159581277Y-92905047D01*
X159647797Y-92880236D01*
X159682983Y-92882668D01*
X159798056Y-92907128D01*
X159798061Y-92907128D01*
X159804513Y-92908500D01*
X159995487Y-92908500D01*
X160001939Y-92907128D01*
X160001944Y-92907128D01*
X160117016Y-92882668D01*
X160182288Y-92868794D01*
X160209762Y-92856562D01*
X160350722Y-92793803D01*
X160350724Y-92793802D01*
X160356752Y-92791118D01*
X160378937Y-92775000D01*
X160412157Y-92750864D01*
X160511253Y-92678866D01*
X160578327Y-92604373D01*
X160634621Y-92541852D01*
X160634622Y-92541851D01*
X160639040Y-92536944D01*
X160734527Y-92371556D01*
X160793542Y-92189928D01*
X160795797Y-92168478D01*
X160812814Y-92006565D01*
X160813504Y-92000000D01*
X160811881Y-91984562D01*
X160794232Y-91816635D01*
X160794232Y-91816633D01*
X160793542Y-91810072D01*
X160734527Y-91628444D01*
X160639040Y-91463056D01*
X160619772Y-91441656D01*
X160515675Y-91326045D01*
X160515674Y-91326044D01*
X160511253Y-91321134D01*
X160399491Y-91239934D01*
X160362094Y-91212763D01*
X160362093Y-91212762D01*
X160356752Y-91208882D01*
X160350724Y-91206198D01*
X160350722Y-91206197D01*
X160188319Y-91133891D01*
X160188318Y-91133891D01*
X160182288Y-91131206D01*
X160175833Y-91129834D01*
X160175824Y-91129831D01*
X160119228Y-91117801D01*
X160056331Y-91083650D01*
X158983770Y-90011089D01*
X158971384Y-89996677D01*
X158962851Y-89985082D01*
X158962846Y-89985077D01*
X158958508Y-89979182D01*
X158952930Y-89974443D01*
X158952927Y-89974440D01*
X158918232Y-89944965D01*
X158910716Y-89938035D01*
X158905021Y-89932340D01*
X158889458Y-89920027D01*
X158882749Y-89914719D01*
X158879345Y-89911928D01*
X158829297Y-89869409D01*
X158829295Y-89869408D01*
X158823715Y-89864667D01*
X158817199Y-89861339D01*
X158812150Y-89857972D01*
X158807021Y-89854805D01*
X158801284Y-89850266D01*
X158735125Y-89819345D01*
X158731225Y-89817439D01*
X158666192Y-89784231D01*
X158659084Y-89782492D01*
X158653441Y-89780393D01*
X158647678Y-89778476D01*
X158641050Y-89775378D01*
X158569583Y-89760513D01*
X158565299Y-89759543D01*
X158565238Y-89759528D01*
X158494390Y-89742192D01*
X158488788Y-89741844D01*
X158488785Y-89741844D01*
X158483236Y-89741500D01*
X158483238Y-89741464D01*
X158479245Y-89741225D01*
X158475053Y-89740851D01*
X158467885Y-89739360D01*
X158401675Y-89741151D01*
X158390479Y-89741454D01*
X158387072Y-89741500D01*
X154966371Y-89741500D01*
X154898250Y-89721498D01*
X154877276Y-89704595D01*
X146875566Y-81702885D01*
X164842000Y-81702885D01*
X164846475Y-81718124D01*
X164847865Y-81719329D01*
X164855548Y-81721000D01*
X165927885Y-81721000D01*
X165943124Y-81716525D01*
X165944329Y-81715135D01*
X165946000Y-81707452D01*
X165946000Y-80635116D01*
X165941525Y-80619877D01*
X165940135Y-80618672D01*
X165932452Y-80617001D01*
X165305331Y-80617001D01*
X165298510Y-80617371D01*
X165247648Y-80622895D01*
X165232396Y-80626521D01*
X165111946Y-80671676D01*
X165096351Y-80680214D01*
X164994276Y-80756715D01*
X164981715Y-80769276D01*
X164905214Y-80871351D01*
X164896676Y-80886946D01*
X164851522Y-81007394D01*
X164847895Y-81022649D01*
X164842369Y-81073514D01*
X164842000Y-81080328D01*
X164842000Y-81702885D01*
X146875566Y-81702885D01*
X143783770Y-78611089D01*
X143771384Y-78596677D01*
X143762851Y-78585082D01*
X143762846Y-78585077D01*
X143758508Y-78579182D01*
X143752930Y-78574443D01*
X143752927Y-78574440D01*
X143718232Y-78544965D01*
X143710716Y-78538035D01*
X143705021Y-78532340D01*
X143698880Y-78527482D01*
X143682749Y-78514719D01*
X143679345Y-78511928D01*
X143629297Y-78469409D01*
X143629295Y-78469408D01*
X143623715Y-78464667D01*
X143617199Y-78461339D01*
X143612150Y-78457972D01*
X143607021Y-78454805D01*
X143601284Y-78450266D01*
X143535125Y-78419345D01*
X143531225Y-78417439D01*
X143523795Y-78413645D01*
X143466192Y-78384231D01*
X143459084Y-78382492D01*
X143453441Y-78380393D01*
X143447678Y-78378476D01*
X143441050Y-78375378D01*
X143369583Y-78360513D01*
X143365299Y-78359543D01*
X143294390Y-78342192D01*
X143288788Y-78341844D01*
X143288785Y-78341844D01*
X143283236Y-78341500D01*
X143283238Y-78341464D01*
X143279245Y-78341225D01*
X143275053Y-78340851D01*
X143267885Y-78339360D01*
X143201675Y-78341151D01*
X143190479Y-78341454D01*
X143187072Y-78341500D01*
X131195939Y-78341500D01*
X131127818Y-78321498D01*
X131090147Y-78283941D01*
X131082818Y-78272612D01*
X131080014Y-78268277D01*
X131076540Y-78264459D01*
X131076533Y-78264450D01*
X130932435Y-78106088D01*
X130901383Y-78042242D01*
X130909779Y-77971744D01*
X130954956Y-77916976D01*
X130981400Y-77903307D01*
X131088052Y-77863325D01*
X131103649Y-77854786D01*
X131205724Y-77778285D01*
X131218285Y-77765724D01*
X131294786Y-77663649D01*
X131303324Y-77648054D01*
X131348478Y-77527606D01*
X131352105Y-77512351D01*
X131357631Y-77461486D01*
X131358000Y-77454672D01*
X131358000Y-76832115D01*
X131353525Y-76816876D01*
X131352135Y-76815671D01*
X131344452Y-76814000D01*
X129872000Y-76814000D01*
X129803879Y-76793998D01*
X129757386Y-76740342D01*
X129746000Y-76688000D01*
X129746000Y-76287885D01*
X130254000Y-76287885D01*
X130258475Y-76303124D01*
X130259865Y-76304329D01*
X130267548Y-76306000D01*
X131339884Y-76306000D01*
X131355123Y-76301525D01*
X131356328Y-76300135D01*
X131357999Y-76292452D01*
X131357999Y-75665331D01*
X131357629Y-75658510D01*
X131352105Y-75607648D01*
X131348479Y-75592396D01*
X131303324Y-75471946D01*
X131294786Y-75456351D01*
X131218285Y-75354276D01*
X131205724Y-75341715D01*
X131103649Y-75265214D01*
X131088054Y-75256676D01*
X130967606Y-75211522D01*
X130952351Y-75207895D01*
X130901486Y-75202369D01*
X130894672Y-75202000D01*
X130272115Y-75202000D01*
X130256876Y-75206475D01*
X130255671Y-75207865D01*
X130254000Y-75215548D01*
X130254000Y-76287885D01*
X129746000Y-76287885D01*
X129746000Y-75220116D01*
X129741525Y-75204877D01*
X129740135Y-75203672D01*
X129732452Y-75202001D01*
X129105331Y-75202001D01*
X129098510Y-75202371D01*
X129047648Y-75207895D01*
X129032396Y-75211521D01*
X128911946Y-75256676D01*
X128896351Y-75265214D01*
X128810065Y-75329882D01*
X128743558Y-75354730D01*
X128674176Y-75339677D01*
X128623946Y-75289503D01*
X128608500Y-75229056D01*
X128608500Y-70332703D01*
X129490743Y-70332703D01*
X129528268Y-70617734D01*
X129604129Y-70895036D01*
X129605813Y-70898984D01*
X129697924Y-71114933D01*
X129716923Y-71159476D01*
X129864561Y-71406161D01*
X130044313Y-71630528D01*
X130252851Y-71828423D01*
X130486317Y-71996186D01*
X130490112Y-71998195D01*
X130490113Y-71998196D01*
X130511869Y-72009715D01*
X130740392Y-72130712D01*
X131010373Y-72229511D01*
X131291264Y-72290755D01*
X131319841Y-72293004D01*
X131514282Y-72308307D01*
X131514291Y-72308307D01*
X131516739Y-72308500D01*
X131672271Y-72308500D01*
X131674407Y-72308354D01*
X131674418Y-72308354D01*
X131882548Y-72294165D01*
X131882554Y-72294164D01*
X131886825Y-72293873D01*
X131891020Y-72293004D01*
X131891022Y-72293004D01*
X132027583Y-72264724D01*
X132168342Y-72235574D01*
X132439343Y-72139607D01*
X132694812Y-72007750D01*
X132698313Y-72005289D01*
X132698317Y-72005287D01*
X132883760Y-71874955D01*
X132930023Y-71842441D01*
X133140622Y-71646740D01*
X133322713Y-71424268D01*
X133472927Y-71179142D01*
X133588483Y-70915898D01*
X133621498Y-70800000D01*
X133627503Y-70778918D01*
X143546917Y-70778918D01*
X143562682Y-71052320D01*
X143563507Y-71056525D01*
X143563508Y-71056533D01*
X143587563Y-71179142D01*
X143615405Y-71321053D01*
X143616792Y-71325103D01*
X143616793Y-71325108D01*
X143702723Y-71576088D01*
X143704112Y-71580144D01*
X143827160Y-71824799D01*
X143829586Y-71828328D01*
X143829589Y-71828334D01*
X143952899Y-72007750D01*
X143982274Y-72050490D01*
X143985161Y-72053663D01*
X143985162Y-72053664D01*
X144151477Y-72236443D01*
X144166582Y-72253043D01*
X144376675Y-72428707D01*
X144380316Y-72430991D01*
X144605024Y-72571951D01*
X144605028Y-72571953D01*
X144608664Y-72574234D01*
X144676544Y-72604883D01*
X144854345Y-72685164D01*
X144854349Y-72685166D01*
X144858257Y-72686930D01*
X144862377Y-72688150D01*
X144862376Y-72688150D01*
X145116723Y-72763491D01*
X145116727Y-72763492D01*
X145120836Y-72764709D01*
X145125070Y-72765357D01*
X145125075Y-72765358D01*
X145387298Y-72805483D01*
X145387300Y-72805483D01*
X145391540Y-72806132D01*
X145530912Y-72808322D01*
X145661071Y-72810367D01*
X145661077Y-72810367D01*
X145665362Y-72810434D01*
X145937235Y-72777534D01*
X146202127Y-72708041D01*
X146206087Y-72706401D01*
X146206092Y-72706399D01*
X146328631Y-72655641D01*
X146455136Y-72603241D01*
X146691582Y-72465073D01*
X146840720Y-72348134D01*
X148631500Y-72348134D01*
X148638255Y-72410316D01*
X148689385Y-72546705D01*
X148776739Y-72663261D01*
X148893295Y-72750615D01*
X149029684Y-72801745D01*
X149091866Y-72808500D01*
X152188134Y-72808500D01*
X152250316Y-72801745D01*
X152386705Y-72750615D01*
X152503261Y-72663261D01*
X152590615Y-72546705D01*
X152641745Y-72410316D01*
X152648500Y-72348134D01*
X152648500Y-70332703D01*
X162490743Y-70332703D01*
X162528268Y-70617734D01*
X162604129Y-70895036D01*
X162605813Y-70898984D01*
X162697924Y-71114933D01*
X162716923Y-71159476D01*
X162864561Y-71406161D01*
X163044313Y-71630528D01*
X163252851Y-71828423D01*
X163486317Y-71996186D01*
X163490112Y-71998195D01*
X163490113Y-71998196D01*
X163511869Y-72009715D01*
X163740392Y-72130712D01*
X164010373Y-72229511D01*
X164291264Y-72290755D01*
X164319841Y-72293004D01*
X164514282Y-72308307D01*
X164514291Y-72308307D01*
X164516739Y-72308500D01*
X164672271Y-72308500D01*
X164674407Y-72308354D01*
X164674418Y-72308354D01*
X164882548Y-72294165D01*
X164882554Y-72294164D01*
X164886825Y-72293873D01*
X164891020Y-72293004D01*
X164891022Y-72293004D01*
X165027583Y-72264724D01*
X165168342Y-72235574D01*
X165439343Y-72139607D01*
X165694812Y-72007750D01*
X165698313Y-72005289D01*
X165698317Y-72005287D01*
X165883760Y-71874955D01*
X165930023Y-71842441D01*
X166140622Y-71646740D01*
X166322713Y-71424268D01*
X166472927Y-71179142D01*
X166588483Y-70915898D01*
X166621498Y-70800000D01*
X166666068Y-70643534D01*
X166667244Y-70639406D01*
X166707751Y-70354784D01*
X166707845Y-70336951D01*
X166709235Y-70071583D01*
X166709235Y-70071576D01*
X166709257Y-70067297D01*
X166700991Y-70004506D01*
X166672292Y-69786522D01*
X166671732Y-69782266D01*
X166660969Y-69742921D01*
X166599093Y-69516742D01*
X166595871Y-69504964D01*
X166521126Y-69329728D01*
X166484763Y-69244476D01*
X166484761Y-69244472D01*
X166483077Y-69240524D01*
X166335439Y-68993839D01*
X166155687Y-68769472D01*
X165947149Y-68571577D01*
X165713683Y-68403814D01*
X165691843Y-68392250D01*
X165668654Y-68379972D01*
X165459608Y-68269288D01*
X165189627Y-68170489D01*
X164908736Y-68109245D01*
X164877685Y-68106801D01*
X164685718Y-68091693D01*
X164685709Y-68091693D01*
X164683261Y-68091500D01*
X164527729Y-68091500D01*
X164525593Y-68091646D01*
X164525582Y-68091646D01*
X164317452Y-68105835D01*
X164317446Y-68105836D01*
X164313175Y-68106127D01*
X164308980Y-68106996D01*
X164308978Y-68106996D01*
X164172417Y-68135276D01*
X164031658Y-68164426D01*
X163760657Y-68260393D01*
X163505188Y-68392250D01*
X163501687Y-68394711D01*
X163501683Y-68394713D01*
X163491594Y-68401804D01*
X163269977Y-68557559D01*
X163059378Y-68753260D01*
X162877287Y-68975732D01*
X162727073Y-69220858D01*
X162725347Y-69224791D01*
X162725346Y-69224792D01*
X162684389Y-69318094D01*
X162611517Y-69484102D01*
X162610342Y-69488229D01*
X162610341Y-69488230D01*
X162597572Y-69533057D01*
X162532756Y-69760594D01*
X162492249Y-70045216D01*
X162492227Y-70049505D01*
X162492226Y-70049512D01*
X162491258Y-70234317D01*
X162490743Y-70332703D01*
X152648500Y-70332703D01*
X152648500Y-69251866D01*
X152641745Y-69189684D01*
X152590615Y-69053295D01*
X152503261Y-68936739D01*
X152386705Y-68849385D01*
X152250316Y-68798255D01*
X152188134Y-68791500D01*
X149091866Y-68791500D01*
X149029684Y-68798255D01*
X148893295Y-68849385D01*
X148776739Y-68936739D01*
X148689385Y-69053295D01*
X148638255Y-69189684D01*
X148631500Y-69251866D01*
X148631500Y-72348134D01*
X146840720Y-72348134D01*
X146907089Y-72296094D01*
X146910084Y-72293004D01*
X147065926Y-72132187D01*
X147097669Y-72099431D01*
X147100202Y-72095983D01*
X147100206Y-72095978D01*
X147257257Y-71882178D01*
X147259795Y-71878723D01*
X147279495Y-71842441D01*
X147388418Y-71641830D01*
X147388419Y-71641828D01*
X147390468Y-71638054D01*
X147487269Y-71381877D01*
X147537361Y-71163163D01*
X147547449Y-71119117D01*
X147547450Y-71119113D01*
X147548407Y-71114933D01*
X147568402Y-70890897D01*
X147572531Y-70844627D01*
X147572531Y-70844625D01*
X147572751Y-70842161D01*
X147573193Y-70800000D01*
X147571465Y-70774648D01*
X147554859Y-70531055D01*
X147554858Y-70531049D01*
X147554567Y-70526778D01*
X147499032Y-70258612D01*
X147407617Y-70000465D01*
X147282013Y-69757112D01*
X147272040Y-69742921D01*
X147127008Y-69536562D01*
X147124545Y-69533057D01*
X146938125Y-69332445D01*
X146934810Y-69329731D01*
X146934806Y-69329728D01*
X146773304Y-69197540D01*
X146726205Y-69158990D01*
X146492704Y-69015901D01*
X146488768Y-69014173D01*
X146245873Y-68907549D01*
X146245869Y-68907548D01*
X146241945Y-68905825D01*
X145978566Y-68830800D01*
X145974324Y-68830196D01*
X145974318Y-68830195D01*
X145769387Y-68801029D01*
X145707443Y-68792213D01*
X145563589Y-68791460D01*
X145437877Y-68790802D01*
X145437871Y-68790802D01*
X145433591Y-68790780D01*
X145429347Y-68791339D01*
X145429343Y-68791339D01*
X145355741Y-68801029D01*
X145162078Y-68826525D01*
X145157938Y-68827658D01*
X145157936Y-68827658D01*
X145090037Y-68846233D01*
X144897928Y-68898788D01*
X144893980Y-68900472D01*
X144649982Y-69004546D01*
X144649978Y-69004548D01*
X144646030Y-69006232D01*
X144626125Y-69018145D01*
X144414725Y-69144664D01*
X144414721Y-69144667D01*
X144411043Y-69146868D01*
X144197318Y-69318094D01*
X144180717Y-69335588D01*
X144043514Y-69480170D01*
X144008808Y-69516742D01*
X143849002Y-69739136D01*
X143720857Y-69981161D01*
X143719385Y-69985184D01*
X143719383Y-69985188D01*
X143712314Y-70004506D01*
X143626743Y-70238337D01*
X143568404Y-70505907D01*
X143546917Y-70778918D01*
X133627503Y-70778918D01*
X133666068Y-70643534D01*
X133667244Y-70639406D01*
X133707751Y-70354784D01*
X133707845Y-70336951D01*
X133709235Y-70071583D01*
X133709235Y-70071576D01*
X133709257Y-70067297D01*
X133700991Y-70004506D01*
X133672292Y-69786522D01*
X133671732Y-69782266D01*
X133660969Y-69742921D01*
X133599093Y-69516742D01*
X133595871Y-69504964D01*
X133521126Y-69329728D01*
X133484763Y-69244476D01*
X133484761Y-69244472D01*
X133483077Y-69240524D01*
X133335439Y-68993839D01*
X133155687Y-68769472D01*
X132947149Y-68571577D01*
X132713683Y-68403814D01*
X132691843Y-68392250D01*
X132668654Y-68379972D01*
X132459608Y-68269288D01*
X132189627Y-68170489D01*
X131908736Y-68109245D01*
X131877685Y-68106801D01*
X131685718Y-68091693D01*
X131685709Y-68091693D01*
X131683261Y-68091500D01*
X131527729Y-68091500D01*
X131525593Y-68091646D01*
X131525582Y-68091646D01*
X131317452Y-68105835D01*
X131317446Y-68105836D01*
X131313175Y-68106127D01*
X131308980Y-68106996D01*
X131308978Y-68106996D01*
X131172417Y-68135276D01*
X131031658Y-68164426D01*
X130760657Y-68260393D01*
X130505188Y-68392250D01*
X130501687Y-68394711D01*
X130501683Y-68394713D01*
X130491594Y-68401804D01*
X130269977Y-68557559D01*
X130059378Y-68753260D01*
X129877287Y-68975732D01*
X129727073Y-69220858D01*
X129725347Y-69224791D01*
X129725346Y-69224792D01*
X129684389Y-69318094D01*
X129611517Y-69484102D01*
X129610342Y-69488229D01*
X129610341Y-69488230D01*
X129597572Y-69533057D01*
X129532756Y-69760594D01*
X129492249Y-70045216D01*
X129492227Y-70049505D01*
X129492226Y-70049512D01*
X129491258Y-70234317D01*
X129490743Y-70332703D01*
X128608500Y-70332703D01*
X128608500Y-67334500D01*
X128628502Y-67266379D01*
X128682158Y-67219886D01*
X128734500Y-67208500D01*
X167465500Y-67208500D01*
X167533621Y-67228502D01*
G37*
%TD.AperFunction*%
%TA.AperFunction,Conductor*%
G36*
X128817012Y-82320963D02*
G01*
X128841933Y-82350352D01*
X128882277Y-82416187D01*
X128899987Y-82445088D01*
X129046250Y-82613938D01*
X129218126Y-82756632D01*
X129411000Y-82869338D01*
X129619692Y-82949030D01*
X129624760Y-82950061D01*
X129624763Y-82950062D01*
X129732017Y-82971883D01*
X129838597Y-82993567D01*
X129843772Y-82993757D01*
X129843774Y-82993757D01*
X130056673Y-83001564D01*
X130056677Y-83001564D01*
X130061837Y-83001753D01*
X130066957Y-83001097D01*
X130066959Y-83001097D01*
X130278288Y-82974025D01*
X130278289Y-82974025D01*
X130283416Y-82973368D01*
X130288366Y-82971883D01*
X130492429Y-82910661D01*
X130492434Y-82910659D01*
X130497384Y-82909174D01*
X130697994Y-82810896D01*
X130879860Y-82681173D01*
X131038096Y-82523489D01*
X131047090Y-82510973D01*
X131103084Y-82467326D01*
X131149412Y-82458500D01*
X142721129Y-82458500D01*
X142789250Y-82478502D01*
X142810224Y-82495405D01*
X145141224Y-84826405D01*
X145175250Y-84888717D01*
X145170185Y-84959532D01*
X145127638Y-85016368D01*
X145061118Y-85041179D01*
X145052129Y-85041500D01*
X143859428Y-85041500D01*
X143791307Y-85021498D01*
X143757505Y-84987112D01*
X143756875Y-84987612D01*
X143752332Y-84981880D01*
X143748478Y-84975652D01*
X143623303Y-84850695D01*
X143546040Y-84803069D01*
X143478968Y-84761725D01*
X143478966Y-84761724D01*
X143472738Y-84757885D01*
X143327666Y-84709767D01*
X143311389Y-84704368D01*
X143311387Y-84704368D01*
X143304861Y-84702203D01*
X143298025Y-84701503D01*
X143298022Y-84701502D01*
X143254969Y-84697091D01*
X143200400Y-84691500D01*
X142199600Y-84691500D01*
X142196354Y-84691837D01*
X142196350Y-84691837D01*
X142100692Y-84701762D01*
X142100688Y-84701763D01*
X142093834Y-84702474D01*
X142087298Y-84704655D01*
X142087296Y-84704655D01*
X142071974Y-84709767D01*
X141926054Y-84758450D01*
X141775652Y-84851522D01*
X141650695Y-84976697D01*
X141646855Y-84982927D01*
X141646854Y-84982928D01*
X141571404Y-85105331D01*
X141557885Y-85127262D01*
X141555581Y-85134209D01*
X141507496Y-85279182D01*
X141502203Y-85295139D01*
X141491500Y-85399600D01*
X141491500Y-86200400D01*
X141491837Y-86203646D01*
X141491837Y-86203650D01*
X141497360Y-86256876D01*
X141502474Y-86306166D01*
X141504655Y-86312702D01*
X141504655Y-86312704D01*
X141529234Y-86386375D01*
X141558450Y-86473946D01*
X141651522Y-86624348D01*
X141656704Y-86629521D01*
X141738109Y-86710784D01*
X141772188Y-86773066D01*
X141767185Y-86843886D01*
X141738264Y-86888975D01*
X141732577Y-86894672D01*
X141650695Y-86976697D01*
X141646855Y-86982927D01*
X141646854Y-86982928D01*
X141618671Y-87028650D01*
X141557885Y-87127262D01*
X141541775Y-87175833D01*
X141515461Y-87255167D01*
X141475031Y-87313527D01*
X141409466Y-87340764D01*
X141395868Y-87341500D01*
X131368417Y-87341500D01*
X131300296Y-87321498D01*
X131253803Y-87267842D01*
X131243699Y-87197568D01*
X131267591Y-87139935D01*
X131294786Y-87103649D01*
X131303324Y-87088054D01*
X131348478Y-86967606D01*
X131352105Y-86952351D01*
X131357631Y-86901486D01*
X131358000Y-86894672D01*
X131358000Y-86272115D01*
X131353525Y-86256876D01*
X131352135Y-86255671D01*
X131344452Y-86254000D01*
X129872000Y-86254000D01*
X129803879Y-86233998D01*
X129757386Y-86180342D01*
X129746000Y-86128000D01*
X129746000Y-85727885D01*
X130254000Y-85727885D01*
X130258475Y-85743124D01*
X130259865Y-85744329D01*
X130267548Y-85746000D01*
X131339884Y-85746000D01*
X131355123Y-85741525D01*
X131356328Y-85740135D01*
X131357999Y-85732452D01*
X131357999Y-85105331D01*
X131357629Y-85098510D01*
X131352105Y-85047648D01*
X131348479Y-85032396D01*
X131303324Y-84911946D01*
X131294786Y-84896351D01*
X131218285Y-84794276D01*
X131205724Y-84781715D01*
X131103649Y-84705214D01*
X131088054Y-84696676D01*
X130967606Y-84651522D01*
X130952351Y-84647895D01*
X130901486Y-84642369D01*
X130894672Y-84642000D01*
X130272115Y-84642000D01*
X130256876Y-84646475D01*
X130255671Y-84647865D01*
X130254000Y-84655548D01*
X130254000Y-85727885D01*
X129746000Y-85727885D01*
X129746000Y-84660116D01*
X129741525Y-84644877D01*
X129740135Y-84643672D01*
X129732452Y-84642001D01*
X129105331Y-84642001D01*
X129098510Y-84642371D01*
X129047648Y-84647895D01*
X129032396Y-84651521D01*
X128911946Y-84696676D01*
X128896351Y-84705214D01*
X128810065Y-84769882D01*
X128743558Y-84794730D01*
X128674176Y-84779677D01*
X128623946Y-84729503D01*
X128608500Y-84669056D01*
X128608500Y-82416187D01*
X128628502Y-82348066D01*
X128682158Y-82301573D01*
X128752432Y-82291469D01*
X128817012Y-82320963D01*
G37*
%TD.AperFunction*%
%TA.AperFunction,Conductor*%
G36*
X128810065Y-77790118D02*
G01*
X128896351Y-77854786D01*
X128911946Y-77863324D01*
X129020827Y-77904142D01*
X129077591Y-77946784D01*
X129102291Y-78013345D01*
X129087083Y-78082694D01*
X129067691Y-78109175D01*
X128944200Y-78238401D01*
X128940629Y-78242138D01*
X128850756Y-78373888D01*
X128838588Y-78391725D01*
X128783677Y-78436728D01*
X128713152Y-78444899D01*
X128649405Y-78413645D01*
X128612675Y-78352888D01*
X128608500Y-78320721D01*
X128608500Y-77890944D01*
X128628502Y-77822823D01*
X128682158Y-77776330D01*
X128752432Y-77766226D01*
X128810065Y-77790118D01*
G37*
%TD.AperFunction*%
%TD*%
M02*
