%TF.GenerationSoftware,KiCad,Pcbnew,(6.0.4)*%
%TF.CreationDate,2024-04-18T18:30:19+02:00*%
%TF.ProjectId,focBLDCdrv,666f6342-4c44-4436-9472-762e6b696361,rev?*%
%TF.SameCoordinates,Original*%
%TF.FileFunction,Paste,Top*%
%TF.FilePolarity,Positive*%
%FSLAX46Y46*%
G04 Gerber Fmt 4.6, Leading zero omitted, Abs format (unit mm)*
G04 Created by KiCad (PCBNEW (6.0.4)) date 2024-04-18 18:30:19*
%MOMM*%
%LPD*%
G01*
G04 APERTURE LIST*
G04 Aperture macros list*
%AMRoundRect*
0 Rectangle with rounded corners*
0 $1 Rounding radius*
0 $2 $3 $4 $5 $6 $7 $8 $9 X,Y pos of 4 corners*
0 Add a 4 corners polygon primitive as box body*
4,1,4,$2,$3,$4,$5,$6,$7,$8,$9,$2,$3,0*
0 Add four circle primitives for the rounded corners*
1,1,$1+$1,$2,$3*
1,1,$1+$1,$4,$5*
1,1,$1+$1,$6,$7*
1,1,$1+$1,$8,$9*
0 Add four rect primitives between the rounded corners*
20,1,$1+$1,$2,$3,$4,$5,0*
20,1,$1+$1,$4,$5,$6,$7,0*
20,1,$1+$1,$6,$7,$8,$9,0*
20,1,$1+$1,$8,$9,$2,$3,0*%
G04 Aperture macros list end*
%ADD10RoundRect,0.250000X-0.475000X0.337500X-0.475000X-0.337500X0.475000X-0.337500X0.475000X0.337500X0*%
%ADD11RoundRect,0.250000X-0.350000X-0.450000X0.350000X-0.450000X0.350000X0.450000X-0.350000X0.450000X0*%
%ADD12RoundRect,0.250000X-0.450000X0.350000X-0.450000X-0.350000X0.450000X-0.350000X0.450000X0.350000X0*%
%ADD13RoundRect,0.250000X0.475000X-0.337500X0.475000X0.337500X-0.475000X0.337500X-0.475000X-0.337500X0*%
%ADD14RoundRect,0.250000X0.450000X-0.350000X0.450000X0.350000X-0.450000X0.350000X-0.450000X-0.350000X0*%
%ADD15RoundRect,0.250001X0.624999X-0.462499X0.624999X0.462499X-0.624999X0.462499X-0.624999X-0.462499X0*%
%ADD16RoundRect,0.250000X-0.650000X0.412500X-0.650000X-0.412500X0.650000X-0.412500X0.650000X0.412500X0*%
%ADD17RoundRect,0.062500X-0.237500X-0.062500X0.237500X-0.062500X0.237500X0.062500X-0.237500X0.062500X0*%
%ADD18RoundRect,0.062500X0.062500X-0.237500X0.062500X0.237500X-0.062500X0.237500X-0.062500X-0.237500X0*%
%ADD19RoundRect,0.062500X0.237500X0.062500X-0.237500X0.062500X-0.237500X-0.062500X0.237500X-0.062500X0*%
%ADD20RoundRect,0.062500X-0.062500X0.237500X-0.062500X-0.237500X0.062500X-0.237500X0.062500X0.237500X0*%
%ADD21RoundRect,0.250000X-0.400000X-0.625000X0.400000X-0.625000X0.400000X0.625000X-0.400000X0.625000X0*%
%ADD22RoundRect,0.250000X-0.275000X-0.700000X0.275000X-0.700000X0.275000X0.700000X-0.275000X0.700000X0*%
%ADD23RoundRect,0.250000X0.337500X0.475000X-0.337500X0.475000X-0.337500X-0.475000X0.337500X-0.475000X0*%
%ADD24RoundRect,0.250000X-0.550000X1.050000X-0.550000X-1.050000X0.550000X-1.050000X0.550000X1.050000X0*%
G04 APERTURE END LIST*
D10*
%TO.C,C2*%
X143100000Y-110662500D03*
X143100000Y-112737500D03*
%TD*%
D11*
%TO.C,R4*%
X160100000Y-100600000D03*
X162100000Y-100600000D03*
%TD*%
D12*
%TO.C,R2*%
X142700000Y-85800000D03*
X142700000Y-87800000D03*
%TD*%
D13*
%TO.C,C7*%
X154100000Y-96737500D03*
X154100000Y-94662500D03*
%TD*%
%TO.C,C6*%
X149500000Y-96737500D03*
X149500000Y-94662500D03*
%TD*%
D14*
%TO.C,R1*%
X154100000Y-103600000D03*
X154100000Y-101600000D03*
%TD*%
D15*
%TO.C,D1*%
X147900000Y-89487500D03*
X147900000Y-86512500D03*
%TD*%
D16*
%TO.C,C5*%
X145300000Y-93537500D03*
X145300000Y-96662500D03*
%TD*%
D17*
%TO.C,U1*%
X145890000Y-105080000D03*
X145890000Y-105580000D03*
X145890000Y-106080000D03*
X145890000Y-106580000D03*
X145890000Y-107080000D03*
X145890000Y-107580000D03*
X145890000Y-108080000D03*
X145890000Y-108580000D03*
X145890000Y-109080000D03*
X145890000Y-109580000D03*
X145890000Y-110080000D03*
X145890000Y-110580000D03*
D18*
X146560000Y-111230000D03*
X147060000Y-111230000D03*
X147560000Y-111230000D03*
X148060000Y-111230000D03*
X148560000Y-111230000D03*
X149060000Y-111230000D03*
X149560000Y-111230000D03*
X150060000Y-111230000D03*
D19*
X150710000Y-110580000D03*
X150710000Y-110080000D03*
X150710000Y-109580000D03*
X150710000Y-109080000D03*
X150710000Y-108580000D03*
X150710000Y-108080000D03*
X150710000Y-107580000D03*
X150710000Y-107080000D03*
X150710000Y-106580000D03*
X150710000Y-106080000D03*
X150710000Y-105580000D03*
X150710000Y-105080000D03*
D20*
X150060000Y-104430000D03*
X149560000Y-104430000D03*
X149060000Y-104430000D03*
X148560000Y-104430000D03*
X148060000Y-104430000D03*
X147560000Y-104430000D03*
X147060000Y-104430000D03*
X146560000Y-104430000D03*
%TD*%
D21*
%TO.C,R3*%
X131050000Y-104500000D03*
X134150000Y-104500000D03*
%TD*%
D22*
%TO.C,L2*%
X131125000Y-109000000D03*
X134275000Y-109000000D03*
%TD*%
D13*
%TO.C,C4*%
X139900000Y-106237500D03*
X139900000Y-104162500D03*
%TD*%
D12*
%TO.C,R5*%
X160400000Y-104600000D03*
X160400000Y-106600000D03*
%TD*%
D22*
%TO.C,L1*%
X131125000Y-100000000D03*
X134275000Y-100000000D03*
%TD*%
D23*
%TO.C,C3*%
X143137500Y-108600000D03*
X141062500Y-108600000D03*
%TD*%
D24*
%TO.C,C1*%
X138100000Y-111200000D03*
X138100000Y-114800000D03*
%TD*%
M02*
