%TF.GenerationSoftware,KiCad,Pcbnew,(6.0.4)*%
%TF.CreationDate,2024-04-18T18:30:19+02:00*%
%TF.ProjectId,focBLDCdrv,666f6342-4c44-4436-9472-762e6b696361,rev?*%
%TF.SameCoordinates,Original*%
%TF.FileFunction,Copper,L2,Bot*%
%TF.FilePolarity,Positive*%
%FSLAX46Y46*%
G04 Gerber Fmt 4.6, Leading zero omitted, Abs format (unit mm)*
G04 Created by KiCad (PCBNEW (6.0.4)) date 2024-04-18 18:30:19*
%MOMM*%
%LPD*%
G01*
G04 APERTURE LIST*
%TA.AperFunction,ComponentPad*%
%ADD10R,1.700000X1.700000*%
%TD*%
%TA.AperFunction,ComponentPad*%
%ADD11O,1.700000X1.700000*%
%TD*%
%TA.AperFunction,ComponentPad*%
%ADD12R,3.000000X3.000000*%
%TD*%
%TA.AperFunction,ComponentPad*%
%ADD13C,3.000000*%
%TD*%
%TA.AperFunction,ComponentPad*%
%ADD14C,0.400000*%
%TD*%
%TA.AperFunction,ComponentPad*%
%ADD15C,0.450000*%
%TD*%
%TA.AperFunction,ViaPad*%
%ADD16C,0.800000*%
%TD*%
%TA.AperFunction,Conductor*%
%ADD17C,1.000000*%
%TD*%
%TA.AperFunction,Conductor*%
%ADD18C,0.500000*%
%TD*%
%TA.AperFunction,Conductor*%
%ADD19C,0.250000*%
%TD*%
G04 APERTURE END LIST*
D10*
%TO.P,J5,1,Pin_1*%
%TO.N,Net-(J5-Pad1)*%
X137625000Y-92775000D03*
D11*
%TO.P,J5,2,Pin_2*%
%TO.N,Net-(J5-Pad2)*%
X140165000Y-92775000D03*
%TO.P,J5,3,Pin_3*%
%TO.N,Net-(J5-Pad3)*%
X137625000Y-95315000D03*
%TO.P,J5,4,Pin_4*%
%TO.N,Net-(J5-Pad2)*%
X140165000Y-95315000D03*
%TO.P,J5,5,Pin_5*%
%TO.N,Net-(J5-Pad5)*%
X137625000Y-97855000D03*
%TO.P,J5,6,Pin_6*%
%TO.N,Net-(J5-Pad2)*%
X140165000Y-97855000D03*
%TD*%
D12*
%TO.P,J2,1,Pin_1*%
%TO.N,Net-(J2-Pad1)*%
X143020000Y-122700000D03*
D13*
%TO.P,J2,2,Pin_2*%
%TO.N,Net-(J2-Pad2)*%
X148100000Y-122700000D03*
%TO.P,J2,3,Pin_3*%
%TO.N,Net-(J2-Pad3)*%
X153180000Y-122700000D03*
%TD*%
D12*
%TO.P,J1,1,Pin_1*%
%TO.N,VM*%
X150640000Y-70800000D03*
D13*
%TO.P,J1,2,Pin_2*%
%TO.N,PNGD*%
X145560000Y-70800000D03*
%TD*%
D10*
%TO.P,J6,1,Pin_1*%
%TO.N,GNDA*%
X130000000Y-76560000D03*
D11*
%TO.P,J6,2,Pin_2*%
%TO.N,FG*%
X130000000Y-79100000D03*
%TO.P,J6,3,Pin_3*%
%TO.N,nFAULT*%
X130000000Y-81640000D03*
%TD*%
D10*
%TO.P,J7,1,Pin_1*%
%TO.N,GNDA*%
X130000000Y-86000000D03*
D11*
%TO.P,J7,2,Pin_2*%
%TO.N,AVDD*%
X130000000Y-88540000D03*
%TO.P,J7,3,Pin_3*%
%TO.N,DVDD*%
X130000000Y-91080000D03*
%TO.P,J7,4,Pin_4*%
%TO.N,BUCK*%
X130000000Y-93620000D03*
%TD*%
D10*
%TO.P,J3,1,Pin_1*%
%TO.N,GNDA*%
X166200000Y-110675000D03*
D11*
%TO.P,J3,2,Pin_2*%
%TO.N,DRVOFF*%
X166200000Y-108135000D03*
%TO.P,J3,3,Pin_3*%
%TO.N,BRAKE*%
X166200000Y-105595000D03*
%TO.P,J3,4,Pin_4*%
%TO.N,EXT_CLK*%
X166200000Y-103055000D03*
%TO.P,J3,5,Pin_5*%
%TO.N,EXT_WD*%
X166200000Y-100515000D03*
%TO.P,J3,6,Pin_6*%
%TO.N,SOX*%
X166200000Y-97975000D03*
%TO.P,J3,7,Pin_7*%
%TO.N,DIR*%
X166200000Y-95435000D03*
%TO.P,J3,8,Pin_8*%
%TO.N,SPEED*%
X166200000Y-92895000D03*
%TD*%
D10*
%TO.P,J4,1,Pin_1*%
%TO.N,GNDA*%
X166200000Y-81975000D03*
D11*
%TO.P,J4,2,Pin_2*%
%TO.N,SDA*%
X166200000Y-84515000D03*
%TO.P,J4,3,Pin_3*%
%TO.N,SCL*%
X166200000Y-87055000D03*
%TD*%
D14*
%TO.P,U1,41*%
%TO.N,GNDA*%
X148925000Y-110400000D03*
X146700000Y-106450000D03*
X148925000Y-107800000D03*
D15*
X149900000Y-106450000D03*
D14*
X148925000Y-109150000D03*
D15*
X147675000Y-105200000D03*
D14*
X147650000Y-109150000D03*
X147675000Y-106450000D03*
X146700000Y-107800000D03*
X147675000Y-110400000D03*
X148925000Y-106450000D03*
X147675000Y-107800000D03*
X149900000Y-107800000D03*
X146700000Y-109150000D03*
D15*
X148925000Y-105200000D03*
D14*
X149900000Y-109150000D03*
%TD*%
D16*
%TO.N,VM*%
X141000000Y-111100000D03*
%TO.N,PNGD*%
X146900000Y-113600000D03*
X134100000Y-112000000D03*
X144900000Y-112200000D03*
X149800000Y-113600000D03*
%TO.N,BUCK*%
X144049500Y-101500688D03*
X143699312Y-99399312D03*
%TO.N,Net-(D1-Pad1)*%
X146300000Y-101500000D03*
X152100000Y-92000000D03*
%TO.N,SOX*%
X155800000Y-92000000D03*
X147600000Y-101500000D03*
%TO.N,DIR*%
X149300000Y-100100000D03*
X158100000Y-92000000D03*
%TO.N,DRVOFF*%
X156500000Y-112200000D03*
%TO.N,EXT_CLK*%
X150800000Y-100100000D03*
%TO.N,EXT_WD*%
X159600000Y-102300000D03*
%TO.N,BRAKE*%
X148700000Y-101500000D03*
%TO.N,FG*%
X159900000Y-92000000D03*
X155600000Y-107000000D03*
X155700000Y-103600000D03*
%TO.N,AVDD*%
X158900000Y-98600000D03*
X162300000Y-103500000D03*
%TO.N,SCL*%
X157800000Y-97100000D03*
%TO.N,SDA*%
X156800000Y-106900000D03*
%TO.N,SPEED*%
X155300000Y-108200000D03*
%TO.N,GNDA*%
X154700000Y-110300000D03*
X139200000Y-86800000D03*
X139200000Y-89300000D03*
X152300000Y-93400000D03*
X152200000Y-100100000D03*
%TD*%
D17*
%TO.N,VM*%
X141000000Y-100400000D02*
X141000000Y-111100000D01*
X150640000Y-90760000D02*
X141000000Y-100400000D01*
X150640000Y-70800000D02*
X150640000Y-90760000D01*
D18*
%TO.N,PNGD*%
X145500000Y-112200000D02*
X144900000Y-112200000D01*
D17*
X133800000Y-75100000D02*
X133800000Y-111700000D01*
X145560000Y-70800000D02*
X138100000Y-70800000D01*
D18*
X149800000Y-113600000D02*
X146900000Y-113600000D01*
X146900000Y-113600000D02*
X145500000Y-112200000D01*
D17*
X138100000Y-70800000D02*
X133800000Y-75100000D01*
D19*
X133800000Y-111700000D02*
X134100000Y-112000000D01*
D18*
%TO.N,BUCK*%
X143699312Y-99399312D02*
X143699312Y-101150500D01*
X143699312Y-101150500D02*
X144049500Y-101500688D01*
%TO.N,Net-(D1-Pad1)*%
X146600000Y-97500000D02*
X152100000Y-92000000D01*
X146300000Y-101500000D02*
X146600000Y-101200000D01*
X146600000Y-101200000D02*
X146600000Y-97500000D01*
%TO.N,SOX*%
X155800000Y-92000000D02*
X155075386Y-92000000D01*
X147600000Y-99475386D02*
X147600000Y-101500000D01*
X155075386Y-92000000D02*
X147600000Y-99475386D01*
%TO.N,DIR*%
X157400000Y-92000000D02*
X158100000Y-92000000D01*
X149300000Y-100100000D02*
X157400000Y-92000000D01*
D19*
%TO.N,DRVOFF*%
X161700000Y-108100000D02*
X161735000Y-108135000D01*
D18*
X156500000Y-112200000D02*
X157600000Y-112200000D01*
X157600000Y-112200000D02*
X161700000Y-108100000D01*
X161735000Y-108135000D02*
X166200000Y-108135000D01*
%TO.N,EXT_CLK*%
X153400000Y-100000000D02*
X153400000Y-107800000D01*
X152600000Y-99200000D02*
X153400000Y-100000000D01*
X165205480Y-104049520D02*
X166200000Y-103055000D01*
X163150480Y-104049520D02*
X165205480Y-104049520D01*
X154800000Y-109200000D02*
X158000000Y-109200000D01*
X153400000Y-107800000D02*
X154800000Y-109200000D01*
X151700000Y-99200000D02*
X152600000Y-99200000D01*
X158000000Y-109200000D02*
X163150480Y-104049520D01*
X150800000Y-100100000D02*
X151700000Y-99200000D01*
%TO.N,EXT_WD*%
X164415000Y-102300000D02*
X166200000Y-100515000D01*
X159600000Y-102300000D02*
X164415000Y-102300000D01*
%TO.N,BRAKE*%
X150200000Y-101500000D02*
X151600000Y-102900000D01*
X151600000Y-102900000D02*
X151600000Y-108524614D01*
X157300000Y-111200000D02*
X162905000Y-105595000D01*
X151600000Y-108524614D02*
X154275386Y-111200000D01*
X154275386Y-111200000D02*
X157300000Y-111200000D01*
X162905000Y-105595000D02*
X166200000Y-105595000D01*
X148700000Y-101500000D02*
X150200000Y-101500000D01*
%TO.N,FG*%
X155700000Y-96200000D02*
X159900000Y-92000000D01*
X155700000Y-106900000D02*
X155700000Y-103600000D01*
D19*
X155600000Y-107000000D02*
X155700000Y-106900000D01*
D18*
X155700000Y-103600000D02*
X155700000Y-96200000D01*
%TO.N,AVDD*%
X158600000Y-98900000D02*
X158600000Y-102700000D01*
X158900000Y-98600000D02*
X158600000Y-98900000D01*
X162000000Y-103200000D02*
X162300000Y-103500000D01*
X159100000Y-103200000D02*
X162000000Y-103200000D01*
X158600000Y-102700000D02*
X159100000Y-103200000D01*
%TO.N,SCL*%
X166200000Y-87075000D02*
X166200000Y-89200000D01*
X160900000Y-94500000D02*
X160200000Y-94500000D01*
X166200000Y-89200000D02*
X160900000Y-94500000D01*
X160200000Y-94500000D02*
X157800000Y-96900000D01*
X157800000Y-96900000D02*
X157800000Y-97100000D01*
%TO.N,SDA*%
X156800000Y-96500000D02*
X162200000Y-91100000D01*
X162200000Y-88535000D02*
X166200000Y-84535000D01*
X162200000Y-91100000D02*
X162200000Y-88535000D01*
X156800000Y-106900000D02*
X156800000Y-96500000D01*
X166200000Y-84535000D02*
X166200000Y-84515000D01*
%TO.N,SPEED*%
X155300000Y-108200000D02*
X156800000Y-108200000D01*
X157800000Y-107200000D02*
X157800000Y-98400000D01*
X161900000Y-95400000D02*
X164405000Y-92895000D01*
X156800000Y-108200000D02*
X157800000Y-107200000D01*
X164405000Y-92895000D02*
X166200000Y-92895000D01*
X160800000Y-95400000D02*
X161900000Y-95400000D01*
X157800000Y-98400000D02*
X160800000Y-95400000D01*
%TO.N,GNDA*%
X163725000Y-81975000D02*
X152300000Y-93400000D01*
X154700000Y-110300000D02*
X154500000Y-110300000D01*
X139200000Y-89300000D02*
X139200000Y-86800000D01*
X166200000Y-81975000D02*
X163725000Y-81975000D01*
X152400000Y-108200000D02*
X152400000Y-100300000D01*
X154500000Y-110300000D02*
X152400000Y-108200000D01*
X152400000Y-100300000D02*
X152200000Y-100100000D01*
%TD*%
%TA.AperFunction,Conductor*%
%TO.N,GNDA*%
G36*
X147068463Y-109852680D02*
G01*
X147101772Y-109915378D01*
X147095895Y-109986131D01*
X147081438Y-110013199D01*
X147050826Y-110056755D01*
X147043694Y-110070057D01*
X146986966Y-110215554D01*
X146983214Y-110230168D01*
X146962830Y-110385001D01*
X146962673Y-110400082D01*
X146979810Y-110555310D01*
X146983255Y-110569996D01*
X146994235Y-110600000D01*
X146500000Y-110600000D01*
X146486656Y-109826025D01*
X146595858Y-109854673D01*
X146610809Y-109856720D01*
X146766953Y-109859174D01*
X146781954Y-109857597D01*
X146934187Y-109822731D01*
X146935676Y-109822195D01*
X146936830Y-109822126D01*
X146941588Y-109821036D01*
X146941770Y-109821829D01*
X147006545Y-109817943D01*
X147068463Y-109852680D01*
G37*
%TD.AperFunction*%
%TA.AperFunction,Conductor*%
G36*
X149652034Y-109816942D02*
G01*
X149795858Y-109854673D01*
X149810809Y-109856720D01*
X149966953Y-109859174D01*
X149981954Y-109857597D01*
X150113553Y-109827457D01*
X150100000Y-110600000D01*
X149607703Y-110600000D01*
X149611063Y-110591641D01*
X149614968Y-110577068D01*
X149637463Y-110419016D01*
X149638087Y-110410813D01*
X149638157Y-110404121D01*
X149637705Y-110395906D01*
X149618525Y-110237418D01*
X149614929Y-110222775D01*
X149559724Y-110076680D01*
X149552739Y-110063319D01*
X149516221Y-110010185D01*
X149494121Y-109942716D01*
X149512006Y-109874009D01*
X149564198Y-109825878D01*
X149634126Y-109813605D01*
X149652034Y-109816942D01*
G37*
%TD.AperFunction*%
%TA.AperFunction,Conductor*%
G36*
X148969032Y-104941936D02*
G01*
X149014095Y-104970897D01*
X149154103Y-105110905D01*
X149188129Y-105173217D01*
X149183064Y-105244032D01*
X149154103Y-105289095D01*
X148613332Y-105829866D01*
X148605718Y-105843810D01*
X148605849Y-105845643D01*
X148610100Y-105852257D01*
X148912192Y-106154349D01*
X148926130Y-106161960D01*
X148927966Y-106161828D01*
X148934578Y-106157579D01*
X149253866Y-105838292D01*
X149316178Y-105804267D01*
X149333972Y-105801709D01*
X149349031Y-105800632D01*
X149364923Y-105791159D01*
X149376076Y-105782693D01*
X149378352Y-105780526D01*
X149380152Y-105779599D01*
X149381689Y-105778433D01*
X149381894Y-105778703D01*
X149441477Y-105748034D01*
X149512148Y-105754827D01*
X149559689Y-105792263D01*
X149560383Y-105791630D01*
X149564213Y-105795825D01*
X149567927Y-105798750D01*
X149569193Y-105800995D01*
X150129103Y-106360905D01*
X150163129Y-106423217D01*
X150158064Y-106494032D01*
X150129103Y-106539095D01*
X149575620Y-107092578D01*
X149568006Y-107106522D01*
X149570167Y-107136737D01*
X149566951Y-107175373D01*
X149566334Y-107177923D01*
X149569288Y-107186447D01*
X150093747Y-107710906D01*
X150127773Y-107773218D01*
X150122708Y-107844033D01*
X150093747Y-107889096D01*
X149900000Y-108082843D01*
X149573965Y-108408877D01*
X149566351Y-108422821D01*
X149567998Y-108445849D01*
X149575316Y-108465473D01*
X149572100Y-108504105D01*
X149566334Y-108527923D01*
X149569289Y-108536448D01*
X150093747Y-109060906D01*
X150125966Y-109119910D01*
X150125302Y-109157759D01*
X150122708Y-109194033D01*
X150093747Y-109239096D01*
X149900000Y-109432843D01*
X149573964Y-109758878D01*
X149550406Y-109802020D01*
X149500203Y-109852222D01*
X149430829Y-109867313D01*
X149364309Y-109842501D01*
X149356000Y-109835710D01*
X149337706Y-109819410D01*
X149329999Y-109814054D01*
X149289516Y-109796037D01*
X149286211Y-109793596D01*
X149264458Y-109773128D01*
X149260199Y-109768041D01*
X148937808Y-109445651D01*
X148923870Y-109438040D01*
X148922034Y-109438172D01*
X148915422Y-109442421D01*
X148598963Y-109758879D01*
X148592397Y-109770904D01*
X148589136Y-109775156D01*
X148592702Y-109781870D01*
X148594289Y-109786448D01*
X149118747Y-110310906D01*
X149152773Y-110373218D01*
X149147708Y-110444033D01*
X149118747Y-110489096D01*
X149014096Y-110593747D01*
X149002645Y-110600000D01*
X148845636Y-110600000D01*
X148835906Y-110593747D01*
X148312850Y-110070691D01*
X148303039Y-110065334D01*
X148300290Y-110063493D01*
X148291640Y-110069030D01*
X148285723Y-110072118D01*
X147764094Y-110593747D01*
X147752643Y-110600000D01*
X147595634Y-110600000D01*
X147585904Y-110593747D01*
X147481253Y-110489096D01*
X147447227Y-110426784D01*
X147452292Y-110355969D01*
X147481253Y-110310906D01*
X147991846Y-109800313D01*
X147999460Y-109786368D01*
X147999329Y-109784534D01*
X147995078Y-109777921D01*
X147662808Y-109445651D01*
X147648870Y-109438040D01*
X147647034Y-109438172D01*
X147640422Y-109442421D01*
X147323963Y-109758880D01*
X147322507Y-109761546D01*
X147282746Y-109805368D01*
X147268398Y-109815119D01*
X147263107Y-109819735D01*
X147262908Y-109819507D01*
X147262226Y-109820021D01*
X147262465Y-109820295D01*
X147240315Y-109839618D01*
X147175833Y-109869327D01*
X147105526Y-109859458D01*
X147051715Y-109813144D01*
X147038009Y-109784689D01*
X147031040Y-109763883D01*
X146506252Y-109239095D01*
X146475567Y-109182902D01*
X146475019Y-109151130D01*
X146988040Y-109151130D01*
X146988172Y-109152966D01*
X146992421Y-109159579D01*
X147162192Y-109329349D01*
X147176130Y-109336960D01*
X147177966Y-109336829D01*
X147184579Y-109332579D01*
X147354349Y-109162808D01*
X147360726Y-109151130D01*
X147938040Y-109151130D01*
X147938172Y-109152966D01*
X147942421Y-109159578D01*
X148262586Y-109479744D01*
X148276529Y-109487357D01*
X148287402Y-109486580D01*
X148296126Y-109486802D01*
X148315095Y-109477063D01*
X148629349Y-109162808D01*
X148635726Y-109151130D01*
X149213040Y-109151130D01*
X149213172Y-109152966D01*
X149217421Y-109159578D01*
X149399692Y-109341849D01*
X149413630Y-109349460D01*
X149415466Y-109349329D01*
X149422079Y-109345079D01*
X149604349Y-109162808D01*
X149611960Y-109148870D01*
X149611828Y-109147034D01*
X149607579Y-109140422D01*
X149425308Y-108958151D01*
X149411370Y-108950540D01*
X149409534Y-108950671D01*
X149402921Y-108954921D01*
X149220651Y-109137192D01*
X149213040Y-109151130D01*
X148635726Y-109151130D01*
X148636960Y-109148870D01*
X148636828Y-109147034D01*
X148632579Y-109140422D01*
X148312848Y-108820690D01*
X148298905Y-108813077D01*
X148292703Y-108813520D01*
X148277889Y-108813220D01*
X148260662Y-108822180D01*
X147945651Y-109137192D01*
X147938040Y-109151130D01*
X147360726Y-109151130D01*
X147361960Y-109148870D01*
X147361828Y-109147034D01*
X147357579Y-109140421D01*
X147187808Y-108970651D01*
X147173870Y-108963040D01*
X147172034Y-108963171D01*
X147165421Y-108967421D01*
X146995651Y-109137192D01*
X146988040Y-109151130D01*
X146475019Y-109151130D01*
X146474833Y-109140330D01*
X146477291Y-109105968D01*
X146506252Y-109060905D01*
X146700000Y-108867157D01*
X147026073Y-108541085D01*
X147033260Y-108527923D01*
X147316334Y-108527923D01*
X147319288Y-108536446D01*
X147637192Y-108854349D01*
X147651130Y-108861960D01*
X147652966Y-108861828D01*
X147659578Y-108857579D01*
X147976074Y-108541084D01*
X147983261Y-108527923D01*
X148591334Y-108527923D01*
X148594288Y-108536446D01*
X148912192Y-108854349D01*
X148926130Y-108861960D01*
X148927966Y-108861828D01*
X148934578Y-108857579D01*
X149251074Y-108541084D01*
X149258687Y-108527141D01*
X149257050Y-108504251D01*
X149249640Y-108484383D01*
X149253174Y-108444468D01*
X149258818Y-108422177D01*
X149256040Y-108413883D01*
X148937812Y-108095655D01*
X148923868Y-108088041D01*
X148922033Y-108088172D01*
X148915423Y-108092420D01*
X148598964Y-108408878D01*
X148591351Y-108422821D01*
X148592998Y-108445849D01*
X148600316Y-108465473D01*
X148597100Y-108504105D01*
X148591334Y-108527923D01*
X147983261Y-108527923D01*
X147983687Y-108527142D01*
X147982366Y-108508671D01*
X147997458Y-108439297D01*
X148007889Y-108425842D01*
X148008818Y-108422176D01*
X148006040Y-108413883D01*
X147687812Y-108095655D01*
X147673868Y-108088041D01*
X147672033Y-108088172D01*
X147665423Y-108092420D01*
X147348964Y-108408878D01*
X147341351Y-108422821D01*
X147342706Y-108441778D01*
X147327613Y-108511151D01*
X147317064Y-108524906D01*
X147316334Y-108527923D01*
X147033260Y-108527923D01*
X147033687Y-108527141D01*
X147032050Y-108504251D01*
X147024640Y-108484383D01*
X147028174Y-108444468D01*
X147033818Y-108422177D01*
X147031040Y-108413883D01*
X146506252Y-107889095D01*
X146472226Y-107826783D01*
X146474061Y-107801130D01*
X146988040Y-107801130D01*
X146988172Y-107802966D01*
X146992421Y-107809578D01*
X147174692Y-107991849D01*
X147188630Y-107999460D01*
X147190466Y-107999329D01*
X147197079Y-107995079D01*
X147379349Y-107812808D01*
X147385726Y-107801130D01*
X147963040Y-107801130D01*
X147963172Y-107802966D01*
X147967421Y-107809578D01*
X148287190Y-108129348D01*
X148299023Y-108135809D01*
X148301706Y-108137639D01*
X148309580Y-108132578D01*
X148629349Y-107812808D01*
X148635726Y-107801130D01*
X149213040Y-107801130D01*
X149213172Y-107802966D01*
X149217421Y-107809578D01*
X149399692Y-107991849D01*
X149413630Y-107999460D01*
X149415466Y-107999329D01*
X149422079Y-107995079D01*
X149604349Y-107812808D01*
X149611960Y-107798870D01*
X149611828Y-107797034D01*
X149607579Y-107790422D01*
X149425308Y-107608151D01*
X149411370Y-107600540D01*
X149409534Y-107600671D01*
X149402921Y-107604921D01*
X149220651Y-107787192D01*
X149213040Y-107801130D01*
X148635726Y-107801130D01*
X148636960Y-107798870D01*
X148636828Y-107797034D01*
X148632579Y-107790422D01*
X148312848Y-107470690D01*
X148303039Y-107465334D01*
X148300290Y-107463493D01*
X148291640Y-107469030D01*
X148285725Y-107472117D01*
X147970651Y-107787192D01*
X147963040Y-107801130D01*
X147385726Y-107801130D01*
X147386960Y-107798870D01*
X147386828Y-107797034D01*
X147382579Y-107790422D01*
X147200308Y-107608151D01*
X147186370Y-107600540D01*
X147184534Y-107600671D01*
X147177921Y-107604921D01*
X146995651Y-107787192D01*
X146988040Y-107801130D01*
X146474061Y-107801130D01*
X146477291Y-107755968D01*
X146506252Y-107710905D01*
X146700000Y-107517157D01*
X147026073Y-107191085D01*
X147033260Y-107177923D01*
X147341334Y-107177923D01*
X147344288Y-107186446D01*
X147662192Y-107504349D01*
X147676130Y-107511960D01*
X147677966Y-107511828D01*
X147684578Y-107507579D01*
X148001074Y-107191084D01*
X148008260Y-107177923D01*
X148591334Y-107177923D01*
X148594288Y-107186446D01*
X148912192Y-107504349D01*
X148926130Y-107511960D01*
X148927966Y-107511828D01*
X148934578Y-107507579D01*
X149251074Y-107191084D01*
X149258687Y-107177141D01*
X149257050Y-107154251D01*
X149249640Y-107134383D01*
X149253174Y-107094468D01*
X149258818Y-107072177D01*
X149256040Y-107063883D01*
X148937812Y-106745655D01*
X148923868Y-106738041D01*
X148922033Y-106738172D01*
X148915423Y-106742420D01*
X148598964Y-107058878D01*
X148591351Y-107072821D01*
X148592998Y-107095849D01*
X148600316Y-107115473D01*
X148597100Y-107154105D01*
X148591334Y-107177923D01*
X148008260Y-107177923D01*
X148008687Y-107177141D01*
X148007050Y-107154251D01*
X147999640Y-107134383D01*
X148003174Y-107094468D01*
X148008818Y-107072177D01*
X148006040Y-107063883D01*
X147687812Y-106745655D01*
X147673868Y-106738041D01*
X147672033Y-106738172D01*
X147665423Y-106742420D01*
X147348964Y-107058878D01*
X147341351Y-107072821D01*
X147342998Y-107095849D01*
X147350316Y-107115473D01*
X147347100Y-107154105D01*
X147341334Y-107177923D01*
X147033260Y-107177923D01*
X147033687Y-107177141D01*
X147032050Y-107154251D01*
X147024640Y-107134383D01*
X147028174Y-107094468D01*
X147033818Y-107072177D01*
X147031040Y-107063883D01*
X146506252Y-106539095D01*
X146472226Y-106476783D01*
X146474061Y-106451130D01*
X146988040Y-106451130D01*
X146988172Y-106452966D01*
X146992421Y-106459578D01*
X147174692Y-106641849D01*
X147188630Y-106649460D01*
X147190466Y-106649329D01*
X147197079Y-106645079D01*
X147379349Y-106462808D01*
X147385726Y-106451130D01*
X147963040Y-106451130D01*
X147963172Y-106452966D01*
X147967421Y-106459578D01*
X148287190Y-106779348D01*
X148299023Y-106785809D01*
X148301706Y-106787639D01*
X148309580Y-106782578D01*
X148629349Y-106462808D01*
X148635726Y-106451130D01*
X149213040Y-106451130D01*
X149213172Y-106452966D01*
X149217421Y-106459579D01*
X149382014Y-106624171D01*
X149395952Y-106631782D01*
X149397788Y-106631651D01*
X149404402Y-106627400D01*
X149568990Y-106462812D01*
X149576604Y-106448868D01*
X149576473Y-106447035D01*
X149572222Y-106440420D01*
X149407634Y-106275832D01*
X149393690Y-106268218D01*
X149391857Y-106268349D01*
X149385243Y-106272599D01*
X149220651Y-106437192D01*
X149213040Y-106451130D01*
X148635726Y-106451130D01*
X148636960Y-106448870D01*
X148636828Y-106447034D01*
X148632579Y-106440422D01*
X148312848Y-106120690D01*
X148303039Y-106115334D01*
X148300290Y-106113493D01*
X148291640Y-106119030D01*
X148285725Y-106122117D01*
X147970651Y-106437192D01*
X147963040Y-106451130D01*
X147385726Y-106451130D01*
X147386960Y-106448870D01*
X147386828Y-106447034D01*
X147382579Y-106440422D01*
X147200308Y-106258151D01*
X147186370Y-106250540D01*
X147184534Y-106250671D01*
X147177921Y-106254921D01*
X146995651Y-106437192D01*
X146988040Y-106451130D01*
X146474061Y-106451130D01*
X146477291Y-106405968D01*
X146506252Y-106360905D01*
X146700000Y-106167157D01*
X147026074Y-105841084D01*
X147036987Y-105821099D01*
X147087190Y-105770897D01*
X147156564Y-105755806D01*
X147216565Y-105776051D01*
X147246471Y-105795620D01*
X147296578Y-105810783D01*
X147297503Y-105810790D01*
X147350149Y-105842307D01*
X147662192Y-106154349D01*
X147676130Y-106161960D01*
X147677966Y-106161828D01*
X147684578Y-106157579D01*
X147986669Y-105855489D01*
X147994282Y-105841546D01*
X147994151Y-105839712D01*
X147989900Y-105833098D01*
X147445897Y-105289095D01*
X147411871Y-105226783D01*
X147416936Y-105155968D01*
X147445897Y-105110905D01*
X147585905Y-104970897D01*
X147648217Y-104936871D01*
X147719032Y-104941936D01*
X147764095Y-104970897D01*
X148287188Y-105493990D01*
X148301132Y-105501604D01*
X148302965Y-105501473D01*
X148309580Y-105497222D01*
X148835905Y-104970897D01*
X148898217Y-104936871D01*
X148969032Y-104941936D01*
G37*
%TD.AperFunction*%
%TA.AperFunction,Conductor*%
G36*
X146401724Y-104900000D02*
G01*
X147004105Y-104900000D01*
X146960455Y-105019927D01*
X146957162Y-105033542D01*
X146938318Y-105182707D01*
X146938122Y-105196714D01*
X146952794Y-105346355D01*
X146955705Y-105360049D01*
X147003166Y-105502721D01*
X147009035Y-105515423D01*
X147051831Y-105586087D01*
X147070010Y-105654717D01*
X147048200Y-105722280D01*
X146993324Y-105767327D01*
X146922806Y-105775554D01*
X146913360Y-105773563D01*
X146796759Y-105744275D01*
X146781787Y-105742384D01*
X146625623Y-105741567D01*
X146610643Y-105743300D01*
X146458784Y-105779757D01*
X146444649Y-105785013D01*
X146417227Y-105799167D01*
X146401724Y-104900000D01*
X146400000Y-104900000D01*
X146400000Y-104800000D01*
X146401724Y-104900000D01*
G37*
%TD.AperFunction*%
%TA.AperFunction,Conductor*%
G36*
X150184680Y-105773242D02*
G01*
X150075075Y-105734213D01*
X150061450Y-105731017D01*
X149912143Y-105713214D01*
X149898146Y-105713116D01*
X149748609Y-105728833D01*
X149734929Y-105731840D01*
X149719328Y-105737151D01*
X149648395Y-105740168D01*
X149587092Y-105704358D01*
X149554881Y-105641088D01*
X149561990Y-105570449D01*
X149573778Y-105548142D01*
X149577170Y-105543038D01*
X149583569Y-105530585D01*
X149636961Y-105390032D01*
X149640445Y-105376463D01*
X149661800Y-105224506D01*
X149662405Y-105216649D01*
X149662583Y-105203961D01*
X149662196Y-105196063D01*
X149645092Y-105043576D01*
X149641990Y-105029923D01*
X149596746Y-104900000D01*
X150200000Y-104900000D01*
X150184680Y-105773242D01*
G37*
%TD.AperFunction*%
%TD*%
%TA.AperFunction,Conductor*%
%TO.N,GNDA*%
G36*
X146430777Y-109809492D02*
G01*
X146444803Y-109815045D01*
X146595858Y-109854673D01*
X146610809Y-109856720D01*
X146766953Y-109859174D01*
X146781954Y-109857597D01*
X146934187Y-109822731D01*
X146935676Y-109822195D01*
X146936830Y-109822126D01*
X146941588Y-109821036D01*
X146941770Y-109821829D01*
X147006545Y-109817943D01*
X147068463Y-109852680D01*
X147101772Y-109915378D01*
X147095895Y-109986131D01*
X147081438Y-110013199D01*
X147050826Y-110056755D01*
X147043694Y-110070057D01*
X146986966Y-110215554D01*
X146983214Y-110230168D01*
X146962830Y-110385001D01*
X146962673Y-110400082D01*
X146979810Y-110555310D01*
X146983254Y-110569993D01*
X147030829Y-110700000D01*
X146400000Y-110700000D01*
X146400000Y-109792781D01*
X146430777Y-109809492D01*
G37*
%TD.AperFunction*%
%TA.AperFunction,Conductor*%
G36*
X150200000Y-110700000D02*
G01*
X149567503Y-110700000D01*
X149611063Y-110591641D01*
X149614968Y-110577068D01*
X149637463Y-110419016D01*
X149638087Y-110410813D01*
X149638157Y-110404121D01*
X149637705Y-110395906D01*
X149618525Y-110237418D01*
X149614929Y-110222775D01*
X149559724Y-110076680D01*
X149552739Y-110063319D01*
X149516221Y-110010185D01*
X149494121Y-109942716D01*
X149512006Y-109874009D01*
X149564198Y-109825878D01*
X149634126Y-109813605D01*
X149652034Y-109816942D01*
X149795858Y-109854673D01*
X149810809Y-109856720D01*
X149966953Y-109859174D01*
X149981954Y-109857597D01*
X150134185Y-109822732D01*
X150148373Y-109817623D01*
X150200000Y-109791657D01*
X150200000Y-110700000D01*
G37*
%TD.AperFunction*%
%TA.AperFunction,Conductor*%
G36*
X148969032Y-104941936D02*
G01*
X149014095Y-104970897D01*
X149154103Y-105110905D01*
X149188129Y-105173217D01*
X149183064Y-105244032D01*
X149154103Y-105289095D01*
X148613332Y-105829866D01*
X148605718Y-105843810D01*
X148605849Y-105845643D01*
X148610100Y-105852257D01*
X148912192Y-106154349D01*
X148926130Y-106161960D01*
X148927966Y-106161828D01*
X148934578Y-106157579D01*
X149253866Y-105838292D01*
X149316178Y-105804267D01*
X149333972Y-105801709D01*
X149349031Y-105800632D01*
X149364923Y-105791159D01*
X149376076Y-105782693D01*
X149378352Y-105780526D01*
X149380152Y-105779599D01*
X149381689Y-105778433D01*
X149381894Y-105778703D01*
X149441477Y-105748034D01*
X149512148Y-105754827D01*
X149559689Y-105792263D01*
X149560383Y-105791630D01*
X149564213Y-105795825D01*
X149567927Y-105798750D01*
X149569193Y-105800995D01*
X150129103Y-106360905D01*
X150163129Y-106423217D01*
X150158064Y-106494032D01*
X150129103Y-106539095D01*
X149575620Y-107092578D01*
X149568006Y-107106522D01*
X149570167Y-107136737D01*
X149566951Y-107175373D01*
X149566334Y-107177923D01*
X149569288Y-107186447D01*
X150093747Y-107710906D01*
X150127773Y-107773218D01*
X150122708Y-107844033D01*
X150093747Y-107889096D01*
X149900000Y-108082843D01*
X149573965Y-108408877D01*
X149566351Y-108422821D01*
X149567998Y-108445849D01*
X149575316Y-108465473D01*
X149572100Y-108504105D01*
X149566334Y-108527923D01*
X149569289Y-108536448D01*
X150093747Y-109060906D01*
X150127773Y-109123218D01*
X150122708Y-109194033D01*
X150093747Y-109239096D01*
X149900000Y-109432843D01*
X149573964Y-109758878D01*
X149550406Y-109802020D01*
X149500203Y-109852222D01*
X149430829Y-109867313D01*
X149364309Y-109842501D01*
X149356000Y-109835710D01*
X149337706Y-109819410D01*
X149329999Y-109814054D01*
X149289516Y-109796037D01*
X149286211Y-109793596D01*
X149264458Y-109773128D01*
X149260199Y-109768041D01*
X148937808Y-109445651D01*
X148923870Y-109438040D01*
X148922034Y-109438172D01*
X148915422Y-109442421D01*
X148598963Y-109758879D01*
X148592397Y-109770904D01*
X148589136Y-109775156D01*
X148592702Y-109781870D01*
X148594289Y-109786448D01*
X149118747Y-110310906D01*
X149152773Y-110373218D01*
X149147708Y-110444033D01*
X149118747Y-110489096D01*
X149014096Y-110593747D01*
X148951784Y-110627773D01*
X148880969Y-110622708D01*
X148835906Y-110593747D01*
X148312850Y-110070691D01*
X148303039Y-110065334D01*
X148300290Y-110063493D01*
X148291640Y-110069030D01*
X148285723Y-110072118D01*
X147764094Y-110593747D01*
X147701782Y-110627773D01*
X147630967Y-110622708D01*
X147585904Y-110593747D01*
X147481253Y-110489096D01*
X147447227Y-110426784D01*
X147452292Y-110355969D01*
X147481253Y-110310906D01*
X147991846Y-109800313D01*
X147999460Y-109786368D01*
X147999329Y-109784534D01*
X147995078Y-109777921D01*
X147662808Y-109445651D01*
X147648870Y-109438040D01*
X147647034Y-109438172D01*
X147640422Y-109442421D01*
X147323963Y-109758880D01*
X147322507Y-109761546D01*
X147282746Y-109805368D01*
X147268398Y-109815119D01*
X147263107Y-109819735D01*
X147262908Y-109819507D01*
X147262226Y-109820021D01*
X147262465Y-109820295D01*
X147240315Y-109839618D01*
X147175833Y-109869327D01*
X147105526Y-109859458D01*
X147051715Y-109813144D01*
X147038009Y-109784689D01*
X147031040Y-109763883D01*
X146506252Y-109239095D01*
X146472226Y-109176783D01*
X146474061Y-109151130D01*
X146988040Y-109151130D01*
X146988172Y-109152966D01*
X146992421Y-109159579D01*
X147162192Y-109329349D01*
X147176130Y-109336960D01*
X147177966Y-109336829D01*
X147184579Y-109332579D01*
X147354349Y-109162808D01*
X147360726Y-109151130D01*
X147938040Y-109151130D01*
X147938172Y-109152966D01*
X147942421Y-109159578D01*
X148262586Y-109479744D01*
X148276529Y-109487357D01*
X148287402Y-109486580D01*
X148296126Y-109486802D01*
X148315095Y-109477063D01*
X148629349Y-109162808D01*
X148635726Y-109151130D01*
X149213040Y-109151130D01*
X149213172Y-109152966D01*
X149217421Y-109159578D01*
X149399692Y-109341849D01*
X149413630Y-109349460D01*
X149415466Y-109349329D01*
X149422079Y-109345079D01*
X149604349Y-109162808D01*
X149611960Y-109148870D01*
X149611828Y-109147034D01*
X149607579Y-109140422D01*
X149425308Y-108958151D01*
X149411370Y-108950540D01*
X149409534Y-108950671D01*
X149402921Y-108954921D01*
X149220651Y-109137192D01*
X149213040Y-109151130D01*
X148635726Y-109151130D01*
X148636960Y-109148870D01*
X148636828Y-109147034D01*
X148632579Y-109140422D01*
X148312848Y-108820690D01*
X148298905Y-108813077D01*
X148292703Y-108813520D01*
X148277889Y-108813220D01*
X148260662Y-108822180D01*
X147945651Y-109137192D01*
X147938040Y-109151130D01*
X147360726Y-109151130D01*
X147361960Y-109148870D01*
X147361828Y-109147034D01*
X147357579Y-109140421D01*
X147187808Y-108970651D01*
X147173870Y-108963040D01*
X147172034Y-108963171D01*
X147165421Y-108967421D01*
X146995651Y-109137192D01*
X146988040Y-109151130D01*
X146474061Y-109151130D01*
X146477291Y-109105968D01*
X146506252Y-109060905D01*
X146700000Y-108867157D01*
X147026073Y-108541085D01*
X147033260Y-108527923D01*
X147316334Y-108527923D01*
X147319288Y-108536446D01*
X147637192Y-108854349D01*
X147651130Y-108861960D01*
X147652966Y-108861828D01*
X147659578Y-108857579D01*
X147976074Y-108541084D01*
X147983261Y-108527923D01*
X148591334Y-108527923D01*
X148594288Y-108536446D01*
X148912192Y-108854349D01*
X148926130Y-108861960D01*
X148927966Y-108861828D01*
X148934578Y-108857579D01*
X149251074Y-108541084D01*
X149258687Y-108527141D01*
X149257050Y-108504251D01*
X149249640Y-108484383D01*
X149253174Y-108444468D01*
X149258818Y-108422177D01*
X149256040Y-108413883D01*
X148937812Y-108095655D01*
X148923868Y-108088041D01*
X148922033Y-108088172D01*
X148915423Y-108092420D01*
X148598964Y-108408878D01*
X148591351Y-108422821D01*
X148592998Y-108445849D01*
X148600316Y-108465473D01*
X148597100Y-108504105D01*
X148591334Y-108527923D01*
X147983261Y-108527923D01*
X147983687Y-108527142D01*
X147982366Y-108508671D01*
X147997458Y-108439297D01*
X148007889Y-108425842D01*
X148008818Y-108422176D01*
X148006040Y-108413883D01*
X147687812Y-108095655D01*
X147673868Y-108088041D01*
X147672033Y-108088172D01*
X147665423Y-108092420D01*
X147348964Y-108408878D01*
X147341351Y-108422821D01*
X147342706Y-108441778D01*
X147327613Y-108511151D01*
X147317064Y-108524906D01*
X147316334Y-108527923D01*
X147033260Y-108527923D01*
X147033687Y-108527141D01*
X147032050Y-108504251D01*
X147024640Y-108484383D01*
X147028174Y-108444468D01*
X147033818Y-108422177D01*
X147031040Y-108413883D01*
X146506252Y-107889095D01*
X146472226Y-107826783D01*
X146474061Y-107801130D01*
X146988040Y-107801130D01*
X146988172Y-107802966D01*
X146992421Y-107809578D01*
X147174692Y-107991849D01*
X147188630Y-107999460D01*
X147190466Y-107999329D01*
X147197079Y-107995079D01*
X147379349Y-107812808D01*
X147385726Y-107801130D01*
X147963040Y-107801130D01*
X147963172Y-107802966D01*
X147967421Y-107809578D01*
X148287190Y-108129348D01*
X148299023Y-108135809D01*
X148301706Y-108137639D01*
X148309580Y-108132578D01*
X148629349Y-107812808D01*
X148635726Y-107801130D01*
X149213040Y-107801130D01*
X149213172Y-107802966D01*
X149217421Y-107809578D01*
X149399692Y-107991849D01*
X149413630Y-107999460D01*
X149415466Y-107999329D01*
X149422079Y-107995079D01*
X149604349Y-107812808D01*
X149611960Y-107798870D01*
X149611828Y-107797034D01*
X149607579Y-107790422D01*
X149425308Y-107608151D01*
X149411370Y-107600540D01*
X149409534Y-107600671D01*
X149402921Y-107604921D01*
X149220651Y-107787192D01*
X149213040Y-107801130D01*
X148635726Y-107801130D01*
X148636960Y-107798870D01*
X148636828Y-107797034D01*
X148632579Y-107790422D01*
X148312848Y-107470690D01*
X148303039Y-107465334D01*
X148300290Y-107463493D01*
X148291640Y-107469030D01*
X148285725Y-107472117D01*
X147970651Y-107787192D01*
X147963040Y-107801130D01*
X147385726Y-107801130D01*
X147386960Y-107798870D01*
X147386828Y-107797034D01*
X147382579Y-107790422D01*
X147200308Y-107608151D01*
X147186370Y-107600540D01*
X147184534Y-107600671D01*
X147177921Y-107604921D01*
X146995651Y-107787192D01*
X146988040Y-107801130D01*
X146474061Y-107801130D01*
X146477291Y-107755968D01*
X146506252Y-107710905D01*
X146700000Y-107517157D01*
X147026073Y-107191085D01*
X147033260Y-107177923D01*
X147341334Y-107177923D01*
X147344288Y-107186446D01*
X147662192Y-107504349D01*
X147676130Y-107511960D01*
X147677966Y-107511828D01*
X147684578Y-107507579D01*
X148001074Y-107191084D01*
X148008260Y-107177923D01*
X148591334Y-107177923D01*
X148594288Y-107186446D01*
X148912192Y-107504349D01*
X148926130Y-107511960D01*
X148927966Y-107511828D01*
X148934578Y-107507579D01*
X149251074Y-107191084D01*
X149258687Y-107177141D01*
X149257050Y-107154251D01*
X149249640Y-107134383D01*
X149253174Y-107094468D01*
X149258818Y-107072177D01*
X149256040Y-107063883D01*
X148937812Y-106745655D01*
X148923868Y-106738041D01*
X148922033Y-106738172D01*
X148915423Y-106742420D01*
X148598964Y-107058878D01*
X148591351Y-107072821D01*
X148592998Y-107095849D01*
X148600316Y-107115473D01*
X148597100Y-107154105D01*
X148591334Y-107177923D01*
X148008260Y-107177923D01*
X148008687Y-107177141D01*
X148007050Y-107154251D01*
X147999640Y-107134383D01*
X148003174Y-107094468D01*
X148008818Y-107072177D01*
X148006040Y-107063883D01*
X147687812Y-106745655D01*
X147673868Y-106738041D01*
X147672033Y-106738172D01*
X147665423Y-106742420D01*
X147348964Y-107058878D01*
X147341351Y-107072821D01*
X147342998Y-107095849D01*
X147350316Y-107115473D01*
X147347100Y-107154105D01*
X147341334Y-107177923D01*
X147033260Y-107177923D01*
X147033687Y-107177141D01*
X147032050Y-107154251D01*
X147024640Y-107134383D01*
X147028174Y-107094468D01*
X147033818Y-107072177D01*
X147031040Y-107063883D01*
X146506252Y-106539095D01*
X146472226Y-106476783D01*
X146474061Y-106451130D01*
X146988040Y-106451130D01*
X146988172Y-106452966D01*
X146992421Y-106459578D01*
X147174692Y-106641849D01*
X147188630Y-106649460D01*
X147190466Y-106649329D01*
X147197079Y-106645079D01*
X147379349Y-106462808D01*
X147385726Y-106451130D01*
X147963040Y-106451130D01*
X147963172Y-106452966D01*
X147967421Y-106459578D01*
X148287190Y-106779348D01*
X148299023Y-106785809D01*
X148301706Y-106787639D01*
X148309580Y-106782578D01*
X148629349Y-106462808D01*
X148635726Y-106451130D01*
X149213040Y-106451130D01*
X149213172Y-106452966D01*
X149217421Y-106459579D01*
X149382014Y-106624171D01*
X149395952Y-106631782D01*
X149397788Y-106631651D01*
X149404402Y-106627400D01*
X149568990Y-106462812D01*
X149576604Y-106448868D01*
X149576473Y-106447035D01*
X149572222Y-106440420D01*
X149407634Y-106275832D01*
X149393690Y-106268218D01*
X149391857Y-106268349D01*
X149385243Y-106272599D01*
X149220651Y-106437192D01*
X149213040Y-106451130D01*
X148635726Y-106451130D01*
X148636960Y-106448870D01*
X148636828Y-106447034D01*
X148632579Y-106440422D01*
X148312848Y-106120690D01*
X148303039Y-106115334D01*
X148300290Y-106113493D01*
X148291640Y-106119030D01*
X148285725Y-106122117D01*
X147970651Y-106437192D01*
X147963040Y-106451130D01*
X147385726Y-106451130D01*
X147386960Y-106448870D01*
X147386828Y-106447034D01*
X147382579Y-106440422D01*
X147200308Y-106258151D01*
X147186370Y-106250540D01*
X147184534Y-106250671D01*
X147177921Y-106254921D01*
X146995651Y-106437192D01*
X146988040Y-106451130D01*
X146474061Y-106451130D01*
X146477291Y-106405968D01*
X146506252Y-106360905D01*
X146700000Y-106167157D01*
X147026074Y-105841084D01*
X147036987Y-105821099D01*
X147087190Y-105770897D01*
X147156564Y-105755806D01*
X147216565Y-105776051D01*
X147246471Y-105795620D01*
X147296578Y-105810783D01*
X147297503Y-105810790D01*
X147350149Y-105842307D01*
X147662192Y-106154349D01*
X147676130Y-106161960D01*
X147677966Y-106161828D01*
X147684578Y-106157579D01*
X147986669Y-105855489D01*
X147994282Y-105841546D01*
X147994151Y-105839712D01*
X147989900Y-105833098D01*
X147445897Y-105289095D01*
X147411871Y-105226783D01*
X147416936Y-105155968D01*
X147445897Y-105110905D01*
X147585905Y-104970897D01*
X147648217Y-104936871D01*
X147719032Y-104941936D01*
X147764095Y-104970897D01*
X148287188Y-105493990D01*
X148301132Y-105501604D01*
X148302965Y-105501473D01*
X148309580Y-105497222D01*
X148835905Y-104970897D01*
X148898217Y-104936871D01*
X148969032Y-104941936D01*
G37*
%TD.AperFunction*%
%TA.AperFunction,Conductor*%
G36*
X146960455Y-105019927D02*
G01*
X146957162Y-105033542D01*
X146938318Y-105182707D01*
X146938122Y-105196714D01*
X146952794Y-105346355D01*
X146955705Y-105360049D01*
X147003166Y-105502721D01*
X147009035Y-105515423D01*
X147051831Y-105586087D01*
X147070010Y-105654717D01*
X147048200Y-105722280D01*
X146993324Y-105767327D01*
X146922806Y-105775554D01*
X146913360Y-105773563D01*
X146796759Y-105744275D01*
X146781787Y-105742384D01*
X146625623Y-105741567D01*
X146610643Y-105743300D01*
X146458784Y-105779757D01*
X146444649Y-105785013D01*
X146400000Y-105808058D01*
X146400000Y-104900000D01*
X147004105Y-104900000D01*
X146960455Y-105019927D01*
G37*
%TD.AperFunction*%
%TA.AperFunction,Conductor*%
G36*
X150200000Y-105778697D02*
G01*
X150075075Y-105734213D01*
X150061450Y-105731017D01*
X149912143Y-105713214D01*
X149898146Y-105713116D01*
X149748609Y-105728833D01*
X149734929Y-105731840D01*
X149719328Y-105737151D01*
X149648395Y-105740168D01*
X149587092Y-105704358D01*
X149554881Y-105641088D01*
X149561990Y-105570449D01*
X149573778Y-105548142D01*
X149577170Y-105543038D01*
X149583569Y-105530585D01*
X149636961Y-105390032D01*
X149640445Y-105376463D01*
X149661800Y-105224506D01*
X149662405Y-105216649D01*
X149662583Y-105203961D01*
X149662196Y-105196063D01*
X149645092Y-105043576D01*
X149641990Y-105029923D01*
X149596746Y-104900000D01*
X150200000Y-104900000D01*
X150200000Y-105778697D01*
G37*
%TD.AperFunction*%
%TD*%
%TA.AperFunction,Conductor*%
%TO.N,GNDA*%
G36*
X167533621Y-67228502D02*
G01*
X167580114Y-67282158D01*
X167591500Y-67334500D01*
X167591500Y-83738025D01*
X167571498Y-83806146D01*
X167517842Y-83852639D01*
X167447568Y-83862743D01*
X167382988Y-83833249D01*
X167359708Y-83806465D01*
X167282822Y-83687617D01*
X167282820Y-83687614D01*
X167280014Y-83683277D01*
X167129670Y-83518051D01*
X167125619Y-83514852D01*
X167125615Y-83514848D01*
X166958414Y-83382800D01*
X166958410Y-83382798D01*
X166954359Y-83379598D01*
X166758789Y-83271638D01*
X166753920Y-83269914D01*
X166753916Y-83269912D01*
X166553087Y-83198795D01*
X166553083Y-83198794D01*
X166548212Y-83197069D01*
X166543119Y-83196162D01*
X166543116Y-83196161D01*
X166333373Y-83158800D01*
X166333367Y-83158799D01*
X166328284Y-83157894D01*
X166254452Y-83156992D01*
X166110081Y-83155228D01*
X166110079Y-83155228D01*
X166104911Y-83155165D01*
X165884091Y-83188955D01*
X165671756Y-83258357D01*
X165473607Y-83361507D01*
X165469474Y-83364610D01*
X165469471Y-83364612D01*
X165445247Y-83382800D01*
X165294965Y-83495635D01*
X165140629Y-83657138D01*
X165014743Y-83841680D01*
X164920688Y-84044305D01*
X164860989Y-84259570D01*
X164837251Y-84481695D01*
X164850110Y-84704715D01*
X164854620Y-84724726D01*
X164850085Y-84795574D01*
X164820798Y-84841521D01*
X161711089Y-87951230D01*
X161696677Y-87963616D01*
X161685082Y-87972149D01*
X161685077Y-87972154D01*
X161679182Y-87976492D01*
X161674443Y-87982070D01*
X161674440Y-87982073D01*
X161644965Y-88016768D01*
X161638035Y-88024284D01*
X161632340Y-88029979D01*
X161630060Y-88032861D01*
X161614719Y-88052251D01*
X161611928Y-88055655D01*
X161573658Y-88100702D01*
X161564667Y-88111285D01*
X161561339Y-88117801D01*
X161557972Y-88122850D01*
X161554805Y-88127979D01*
X161550266Y-88133716D01*
X161519345Y-88199875D01*
X161517442Y-88203769D01*
X161484231Y-88268808D01*
X161482492Y-88275916D01*
X161480393Y-88281559D01*
X161478476Y-88287322D01*
X161475378Y-88293950D01*
X161473888Y-88301112D01*
X161473888Y-88301113D01*
X161460514Y-88365412D01*
X161459544Y-88369696D01*
X161442192Y-88440610D01*
X161441500Y-88451764D01*
X161441464Y-88451762D01*
X161441225Y-88455755D01*
X161440851Y-88459947D01*
X161439360Y-88467115D01*
X161439558Y-88474432D01*
X161441454Y-88544521D01*
X161441500Y-88547928D01*
X161441500Y-90733629D01*
X161421498Y-90801750D01*
X161404595Y-90822724D01*
X160792257Y-91435062D01*
X160729945Y-91469088D01*
X160659130Y-91464023D01*
X160609528Y-91430279D01*
X160511253Y-91321134D01*
X160401285Y-91241237D01*
X160362094Y-91212763D01*
X160362093Y-91212762D01*
X160356752Y-91208882D01*
X160350724Y-91206198D01*
X160350722Y-91206197D01*
X160188319Y-91133891D01*
X160188318Y-91133891D01*
X160182288Y-91131206D01*
X160088888Y-91111353D01*
X160001944Y-91092872D01*
X160001939Y-91092872D01*
X159995487Y-91091500D01*
X159804513Y-91091500D01*
X159798061Y-91092872D01*
X159798056Y-91092872D01*
X159711112Y-91111353D01*
X159617712Y-91131206D01*
X159611682Y-91133891D01*
X159611681Y-91133891D01*
X159449278Y-91206197D01*
X159449276Y-91206198D01*
X159443248Y-91208882D01*
X159437907Y-91212762D01*
X159437906Y-91212763D01*
X159398715Y-91241237D01*
X159288747Y-91321134D01*
X159284329Y-91326041D01*
X159284325Y-91326045D01*
X159172210Y-91450562D01*
X159160960Y-91463056D01*
X159155320Y-91472825D01*
X159109119Y-91552847D01*
X159057736Y-91601840D01*
X158988023Y-91615276D01*
X158922112Y-91588890D01*
X158890881Y-91552847D01*
X158844680Y-91472825D01*
X158839040Y-91463056D01*
X158827791Y-91450562D01*
X158715675Y-91326045D01*
X158715671Y-91326041D01*
X158711253Y-91321134D01*
X158601285Y-91241237D01*
X158562094Y-91212763D01*
X158562093Y-91212762D01*
X158556752Y-91208882D01*
X158550724Y-91206198D01*
X158550722Y-91206197D01*
X158388319Y-91133891D01*
X158388318Y-91133891D01*
X158382288Y-91131206D01*
X158288888Y-91111353D01*
X158201944Y-91092872D01*
X158201939Y-91092872D01*
X158195487Y-91091500D01*
X158004513Y-91091500D01*
X157998061Y-91092872D01*
X157998056Y-91092872D01*
X157911112Y-91111353D01*
X157817712Y-91131206D01*
X157811682Y-91133891D01*
X157811681Y-91133891D01*
X157649278Y-91206197D01*
X157649276Y-91206198D01*
X157643248Y-91208882D01*
X157637909Y-91212761D01*
X157637902Y-91212765D01*
X157631472Y-91217437D01*
X157557413Y-91241500D01*
X157467070Y-91241500D01*
X157448120Y-91240067D01*
X157433885Y-91237901D01*
X157433881Y-91237901D01*
X157426651Y-91236801D01*
X157419359Y-91237394D01*
X157419356Y-91237394D01*
X157373982Y-91241085D01*
X157363767Y-91241500D01*
X157355707Y-91241500D01*
X157352073Y-91241924D01*
X157352067Y-91241924D01*
X157339042Y-91243443D01*
X157327480Y-91244791D01*
X157323132Y-91245221D01*
X157250364Y-91251140D01*
X157243403Y-91253395D01*
X157237463Y-91254582D01*
X157231588Y-91255971D01*
X157224319Y-91256818D01*
X157155670Y-91281736D01*
X157151542Y-91283153D01*
X157089064Y-91303393D01*
X157089062Y-91303394D01*
X157082101Y-91305649D01*
X157075846Y-91309445D01*
X157070372Y-91311951D01*
X157064942Y-91314670D01*
X157058063Y-91317167D01*
X157051943Y-91321180D01*
X157051942Y-91321180D01*
X156997024Y-91357186D01*
X156993320Y-91359523D01*
X156930893Y-91397405D01*
X156922516Y-91404803D01*
X156922492Y-91404776D01*
X156919500Y-91407429D01*
X156916267Y-91410132D01*
X156910148Y-91414144D01*
X156863813Y-91463056D01*
X156856872Y-91470383D01*
X156854494Y-91472825D01*
X156774191Y-91553128D01*
X156711879Y-91587154D01*
X156641064Y-91582089D01*
X156584228Y-91539542D01*
X156575977Y-91527033D01*
X156544680Y-91472825D01*
X156539040Y-91463056D01*
X156527791Y-91450562D01*
X156415675Y-91326045D01*
X156415671Y-91326041D01*
X156411253Y-91321134D01*
X156301285Y-91241237D01*
X156262094Y-91212763D01*
X156262093Y-91212762D01*
X156256752Y-91208882D01*
X156250724Y-91206198D01*
X156250722Y-91206197D01*
X156088319Y-91133891D01*
X156088318Y-91133891D01*
X156082288Y-91131206D01*
X155988888Y-91111353D01*
X155901944Y-91092872D01*
X155901939Y-91092872D01*
X155895487Y-91091500D01*
X155704513Y-91091500D01*
X155698061Y-91092872D01*
X155698056Y-91092872D01*
X155611112Y-91111353D01*
X155517712Y-91131206D01*
X155511682Y-91133891D01*
X155511681Y-91133891D01*
X155349278Y-91206197D01*
X155349276Y-91206198D01*
X155343248Y-91208882D01*
X155337909Y-91212761D01*
X155337902Y-91212765D01*
X155331472Y-91217437D01*
X155257413Y-91241500D01*
X155142455Y-91241500D01*
X155123507Y-91240067D01*
X155116166Y-91238950D01*
X155109269Y-91237901D01*
X155109267Y-91237901D01*
X155102037Y-91236801D01*
X155094745Y-91237394D01*
X155094742Y-91237394D01*
X155049368Y-91241085D01*
X155039153Y-91241500D01*
X155031093Y-91241500D01*
X155017803Y-91243049D01*
X155002879Y-91244789D01*
X154998504Y-91245222D01*
X154933047Y-91250546D01*
X154933044Y-91250547D01*
X154925749Y-91251140D01*
X154918785Y-91253396D01*
X154912826Y-91254587D01*
X154906971Y-91255971D01*
X154899705Y-91256818D01*
X154831059Y-91281735D01*
X154826931Y-91283152D01*
X154764450Y-91303393D01*
X154764448Y-91303394D01*
X154757487Y-91305649D01*
X154751232Y-91309445D01*
X154745758Y-91311951D01*
X154740328Y-91314670D01*
X154733449Y-91317167D01*
X154672410Y-91357186D01*
X154668713Y-91359518D01*
X154654622Y-91368069D01*
X154611079Y-91394491D01*
X154611074Y-91394495D01*
X154606278Y-91397405D01*
X154602071Y-91401121D01*
X154602070Y-91401122D01*
X154597902Y-91404803D01*
X154597879Y-91404777D01*
X154594889Y-91407426D01*
X154591650Y-91410134D01*
X154585534Y-91414144D01*
X154580507Y-91419451D01*
X154580503Y-91419454D01*
X154532258Y-91470383D01*
X154529880Y-91472825D01*
X147573595Y-98429110D01*
X147511283Y-98463136D01*
X147440468Y-98458071D01*
X147383632Y-98415524D01*
X147358821Y-98349004D01*
X147358500Y-98340015D01*
X147358500Y-97866371D01*
X147378502Y-97798250D01*
X147395405Y-97777276D01*
X152256331Y-92916350D01*
X152319228Y-92882199D01*
X152375824Y-92870169D01*
X152375833Y-92870166D01*
X152382288Y-92868794D01*
X152388319Y-92866109D01*
X152550722Y-92793803D01*
X152550724Y-92793802D01*
X152556752Y-92791118D01*
X152578937Y-92775000D01*
X152612157Y-92750864D01*
X152711253Y-92678866D01*
X152778327Y-92604373D01*
X152834621Y-92541852D01*
X152834622Y-92541851D01*
X152839040Y-92536944D01*
X152934527Y-92371556D01*
X152993542Y-92189928D01*
X152999158Y-92136500D01*
X153012814Y-92006565D01*
X153013504Y-92000000D01*
X153009667Y-91963489D01*
X152994232Y-91816635D01*
X152994232Y-91816633D01*
X152993542Y-91810072D01*
X152934527Y-91628444D01*
X152926925Y-91615276D01*
X152844680Y-91472825D01*
X152839040Y-91463056D01*
X152827791Y-91450562D01*
X152715675Y-91326045D01*
X152715671Y-91326041D01*
X152711253Y-91321134D01*
X152601285Y-91241237D01*
X152562094Y-91212763D01*
X152562093Y-91212762D01*
X152556752Y-91208882D01*
X152550724Y-91206198D01*
X152550722Y-91206197D01*
X152388319Y-91133891D01*
X152388318Y-91133891D01*
X152382288Y-91131206D01*
X152288888Y-91111353D01*
X152201944Y-91092872D01*
X152201939Y-91092872D01*
X152195487Y-91091500D01*
X152004513Y-91091500D01*
X151998061Y-91092872D01*
X151998056Y-91092872D01*
X151911112Y-91111353D01*
X151817712Y-91131206D01*
X151797401Y-91140249D01*
X151727035Y-91149685D01*
X151662738Y-91119579D01*
X151624923Y-91059491D01*
X151626048Y-90987048D01*
X151629370Y-90976575D01*
X151629371Y-90976569D01*
X151631235Y-90970694D01*
X151631828Y-90965403D01*
X151633388Y-90960302D01*
X151642795Y-90867689D01*
X151642915Y-90866569D01*
X151648500Y-90816773D01*
X151648500Y-90813244D01*
X151648555Y-90812261D01*
X151649004Y-90806556D01*
X151649493Y-90801750D01*
X151653374Y-90763537D01*
X151649059Y-90717888D01*
X151648500Y-90706031D01*
X151648500Y-72934500D01*
X151668502Y-72866379D01*
X151722158Y-72819886D01*
X151774500Y-72808500D01*
X152188134Y-72808500D01*
X152250316Y-72801745D01*
X152386705Y-72750615D01*
X152503261Y-72663261D01*
X152590615Y-72546705D01*
X152641745Y-72410316D01*
X152648500Y-72348134D01*
X152648500Y-70332703D01*
X162490743Y-70332703D01*
X162528268Y-70617734D01*
X162604129Y-70895036D01*
X162605813Y-70898984D01*
X162697924Y-71114933D01*
X162716923Y-71159476D01*
X162864561Y-71406161D01*
X163044313Y-71630528D01*
X163061397Y-71646740D01*
X163231857Y-71808500D01*
X163252851Y-71828423D01*
X163486317Y-71996186D01*
X163490112Y-71998195D01*
X163490113Y-71998196D01*
X163511869Y-72009715D01*
X163740392Y-72130712D01*
X164010373Y-72229511D01*
X164291264Y-72290755D01*
X164319841Y-72293004D01*
X164514282Y-72308307D01*
X164514291Y-72308307D01*
X164516739Y-72308500D01*
X164672271Y-72308500D01*
X164674407Y-72308354D01*
X164674418Y-72308354D01*
X164882548Y-72294165D01*
X164882554Y-72294164D01*
X164886825Y-72293873D01*
X164891020Y-72293004D01*
X164891022Y-72293004D01*
X165027583Y-72264724D01*
X165168342Y-72235574D01*
X165439343Y-72139607D01*
X165694812Y-72007750D01*
X165698313Y-72005289D01*
X165698317Y-72005287D01*
X165883760Y-71874955D01*
X165930023Y-71842441D01*
X166140622Y-71646740D01*
X166322713Y-71424268D01*
X166472927Y-71179142D01*
X166588483Y-70915898D01*
X166621498Y-70800000D01*
X166666068Y-70643534D01*
X166667244Y-70639406D01*
X166707751Y-70354784D01*
X166707845Y-70336951D01*
X166709235Y-70071583D01*
X166709235Y-70071576D01*
X166709257Y-70067297D01*
X166707455Y-70053604D01*
X166682503Y-69864080D01*
X166671732Y-69782266D01*
X166595871Y-69504964D01*
X166521126Y-69329728D01*
X166484763Y-69244476D01*
X166484761Y-69244472D01*
X166483077Y-69240524D01*
X166335439Y-68993839D01*
X166155687Y-68769472D01*
X165947149Y-68571577D01*
X165713683Y-68403814D01*
X165691843Y-68392250D01*
X165668654Y-68379972D01*
X165459608Y-68269288D01*
X165189627Y-68170489D01*
X164908736Y-68109245D01*
X164877685Y-68106801D01*
X164685718Y-68091693D01*
X164685709Y-68091693D01*
X164683261Y-68091500D01*
X164527729Y-68091500D01*
X164525593Y-68091646D01*
X164525582Y-68091646D01*
X164317452Y-68105835D01*
X164317446Y-68105836D01*
X164313175Y-68106127D01*
X164308980Y-68106996D01*
X164308978Y-68106996D01*
X164172417Y-68135276D01*
X164031658Y-68164426D01*
X163760657Y-68260393D01*
X163505188Y-68392250D01*
X163501687Y-68394711D01*
X163501683Y-68394713D01*
X163491594Y-68401804D01*
X163269977Y-68557559D01*
X163059378Y-68753260D01*
X162877287Y-68975732D01*
X162727073Y-69220858D01*
X162725347Y-69224791D01*
X162725346Y-69224792D01*
X162684389Y-69318094D01*
X162611517Y-69484102D01*
X162610342Y-69488229D01*
X162610341Y-69488230D01*
X162597572Y-69533057D01*
X162532756Y-69760594D01*
X162492249Y-70045216D01*
X162492227Y-70049505D01*
X162492226Y-70049512D01*
X162491152Y-70254574D01*
X162490743Y-70332703D01*
X152648500Y-70332703D01*
X152648500Y-69251866D01*
X152641745Y-69189684D01*
X152590615Y-69053295D01*
X152503261Y-68936739D01*
X152386705Y-68849385D01*
X152250316Y-68798255D01*
X152188134Y-68791500D01*
X149091866Y-68791500D01*
X149029684Y-68798255D01*
X148893295Y-68849385D01*
X148776739Y-68936739D01*
X148689385Y-69053295D01*
X148638255Y-69189684D01*
X148631500Y-69251866D01*
X148631500Y-72348134D01*
X148638255Y-72410316D01*
X148689385Y-72546705D01*
X148776739Y-72663261D01*
X148893295Y-72750615D01*
X149029684Y-72801745D01*
X149091866Y-72808500D01*
X149505500Y-72808500D01*
X149573621Y-72828502D01*
X149620114Y-72882158D01*
X149631500Y-72934500D01*
X149631500Y-90290076D01*
X149611498Y-90358197D01*
X149594595Y-90379171D01*
X141707589Y-98266177D01*
X141645277Y-98300203D01*
X141574462Y-98295138D01*
X141517626Y-98252591D01*
X141492815Y-98186071D01*
X141495340Y-98150454D01*
X141495868Y-98148013D01*
X141497370Y-98143069D01*
X141507152Y-98068774D01*
X141524558Y-97936562D01*
X141526529Y-97921590D01*
X141527878Y-97866371D01*
X141528074Y-97858365D01*
X141528074Y-97858361D01*
X141528156Y-97855000D01*
X141509852Y-97632361D01*
X141455431Y-97415702D01*
X141366354Y-97210840D01*
X141308500Y-97121411D01*
X141247822Y-97027617D01*
X141247820Y-97027614D01*
X141245014Y-97023277D01*
X141094670Y-96858051D01*
X141090619Y-96854852D01*
X141090615Y-96854848D01*
X140923414Y-96722800D01*
X140923410Y-96722798D01*
X140919359Y-96719598D01*
X140878053Y-96696796D01*
X140828084Y-96646364D01*
X140813312Y-96576921D01*
X140838428Y-96510516D01*
X140865780Y-96483909D01*
X140909603Y-96452650D01*
X141044860Y-96356173D01*
X141203096Y-96198489D01*
X141228881Y-96162606D01*
X141330435Y-96021277D01*
X141333453Y-96017077D01*
X141340611Y-96002595D01*
X141430136Y-95821453D01*
X141430137Y-95821451D01*
X141432430Y-95816811D01*
X141489259Y-95629767D01*
X141495865Y-95608023D01*
X141495865Y-95608021D01*
X141497370Y-95603069D01*
X141526529Y-95381590D01*
X141528156Y-95315000D01*
X141509852Y-95092361D01*
X141455431Y-94875702D01*
X141366354Y-94670840D01*
X141308500Y-94581411D01*
X141247822Y-94487617D01*
X141247820Y-94487614D01*
X141245014Y-94483277D01*
X141094670Y-94318051D01*
X141090619Y-94314852D01*
X141090615Y-94314848D01*
X140923414Y-94182800D01*
X140923410Y-94182798D01*
X140919359Y-94179598D01*
X140878053Y-94156796D01*
X140828084Y-94106364D01*
X140813312Y-94036921D01*
X140838428Y-93970516D01*
X140865780Y-93943909D01*
X140923218Y-93902939D01*
X141044860Y-93816173D01*
X141203096Y-93658489D01*
X141333453Y-93477077D01*
X141375332Y-93392342D01*
X141430136Y-93281453D01*
X141430137Y-93281451D01*
X141432430Y-93276811D01*
X141497370Y-93063069D01*
X141526529Y-92841590D01*
X141528156Y-92775000D01*
X141509852Y-92552361D01*
X141455431Y-92335702D01*
X141366354Y-92130840D01*
X141308495Y-92041403D01*
X141247822Y-91947617D01*
X141247820Y-91947614D01*
X141245014Y-91943277D01*
X141094670Y-91778051D01*
X141090619Y-91774852D01*
X141090615Y-91774848D01*
X140923414Y-91642800D01*
X140923410Y-91642798D01*
X140919359Y-91639598D01*
X140899154Y-91628444D01*
X140824356Y-91587154D01*
X140723789Y-91531638D01*
X140718920Y-91529914D01*
X140718916Y-91529912D01*
X140518087Y-91458795D01*
X140518083Y-91458794D01*
X140513212Y-91457069D01*
X140508119Y-91456162D01*
X140508116Y-91456161D01*
X140298373Y-91418800D01*
X140298367Y-91418799D01*
X140293284Y-91417894D01*
X140219452Y-91416992D01*
X140075081Y-91415228D01*
X140075079Y-91415228D01*
X140069911Y-91415165D01*
X139849091Y-91448955D01*
X139636756Y-91518357D01*
X139606443Y-91534137D01*
X139450577Y-91615276D01*
X139438607Y-91621507D01*
X139434474Y-91624610D01*
X139434471Y-91624612D01*
X139274646Y-91744612D01*
X139259965Y-91755635D01*
X139203537Y-91814684D01*
X139179283Y-91840064D01*
X139117759Y-91875494D01*
X139046846Y-91872037D01*
X138989060Y-91830791D01*
X138970207Y-91797243D01*
X138928767Y-91686703D01*
X138925615Y-91678295D01*
X138838261Y-91561739D01*
X138721705Y-91474385D01*
X138585316Y-91423255D01*
X138523134Y-91416500D01*
X136726866Y-91416500D01*
X136664684Y-91423255D01*
X136528295Y-91474385D01*
X136411739Y-91561739D01*
X136324385Y-91678295D01*
X136273255Y-91814684D01*
X136266500Y-91876866D01*
X136266500Y-93673134D01*
X136273255Y-93735316D01*
X136324385Y-93871705D01*
X136411739Y-93988261D01*
X136528295Y-94075615D01*
X136536704Y-94078767D01*
X136536705Y-94078768D01*
X136645451Y-94119535D01*
X136702216Y-94162176D01*
X136726916Y-94228738D01*
X136711709Y-94298087D01*
X136692316Y-94324568D01*
X136600461Y-94420689D01*
X136565629Y-94457138D01*
X136439743Y-94641680D01*
X136424003Y-94675590D01*
X136369423Y-94793173D01*
X136345688Y-94844305D01*
X136285989Y-95059570D01*
X136262251Y-95281695D01*
X136262548Y-95286848D01*
X136262548Y-95286851D01*
X136268011Y-95381590D01*
X136275110Y-95504715D01*
X136276247Y-95509761D01*
X136276248Y-95509767D01*
X136283940Y-95543898D01*
X136324222Y-95722639D01*
X136408266Y-95929616D01*
X136450710Y-95998878D01*
X136522291Y-96115688D01*
X136524987Y-96120088D01*
X136671250Y-96288938D01*
X136843126Y-96431632D01*
X136913113Y-96472529D01*
X136916445Y-96474476D01*
X136965169Y-96526114D01*
X136978240Y-96595897D01*
X136951509Y-96661669D01*
X136911055Y-96695027D01*
X136898607Y-96701507D01*
X136894474Y-96704610D01*
X136894471Y-96704612D01*
X136734646Y-96824612D01*
X136719965Y-96835635D01*
X136565629Y-96997138D01*
X136439743Y-97181680D01*
X136424003Y-97215590D01*
X136370506Y-97330840D01*
X136345688Y-97384305D01*
X136285989Y-97599570D01*
X136262251Y-97821695D01*
X136262548Y-97826848D01*
X136262548Y-97826851D01*
X136268011Y-97921590D01*
X136275110Y-98044715D01*
X136276247Y-98049761D01*
X136276248Y-98049767D01*
X136297275Y-98143069D01*
X136324222Y-98262639D01*
X136408266Y-98469616D01*
X136455792Y-98547171D01*
X136522291Y-98655688D01*
X136524987Y-98660088D01*
X136671250Y-98828938D01*
X136843126Y-98971632D01*
X137036000Y-99084338D01*
X137244692Y-99164030D01*
X137249760Y-99165061D01*
X137249763Y-99165062D01*
X137351729Y-99185807D01*
X137463597Y-99208567D01*
X137468772Y-99208757D01*
X137468774Y-99208757D01*
X137681673Y-99216564D01*
X137681677Y-99216564D01*
X137686837Y-99216753D01*
X137691957Y-99216097D01*
X137691959Y-99216097D01*
X137903288Y-99189025D01*
X137903289Y-99189025D01*
X137908416Y-99188368D01*
X137916952Y-99185807D01*
X138117429Y-99125661D01*
X138117434Y-99125659D01*
X138122384Y-99124174D01*
X138322994Y-99025896D01*
X138504860Y-98896173D01*
X138663096Y-98738489D01*
X138681589Y-98712754D01*
X138793453Y-98557077D01*
X138794776Y-98558028D01*
X138841645Y-98514857D01*
X138911580Y-98502625D01*
X138977026Y-98530144D01*
X139004875Y-98561994D01*
X139064987Y-98660088D01*
X139211250Y-98828938D01*
X139383126Y-98971632D01*
X139576000Y-99084338D01*
X139784692Y-99164030D01*
X139789760Y-99165061D01*
X139789763Y-99165062D01*
X139891729Y-99185807D01*
X140003597Y-99208567D01*
X140008772Y-99208757D01*
X140008774Y-99208757D01*
X140221673Y-99216564D01*
X140221677Y-99216564D01*
X140226837Y-99216753D01*
X140231957Y-99216097D01*
X140231959Y-99216097D01*
X140443288Y-99189025D01*
X140443289Y-99189025D01*
X140448416Y-99188368D01*
X140453366Y-99186883D01*
X140458428Y-99185807D01*
X140458789Y-99187507D01*
X140522137Y-99187143D01*
X140582083Y-99225182D01*
X140611947Y-99289592D01*
X140602248Y-99359923D01*
X140576430Y-99397336D01*
X140330621Y-99643145D01*
X140320478Y-99652247D01*
X140290975Y-99675968D01*
X140279986Y-99689064D01*
X140258709Y-99714421D01*
X140255528Y-99718069D01*
X140253885Y-99719881D01*
X140251691Y-99722075D01*
X140224358Y-99755349D01*
X140223696Y-99756147D01*
X140163846Y-99827474D01*
X140161278Y-99832144D01*
X140157897Y-99836261D01*
X140146423Y-99857660D01*
X140114023Y-99918086D01*
X140113394Y-99919245D01*
X140071538Y-99995381D01*
X140071535Y-99995389D01*
X140068567Y-100000787D01*
X140066955Y-100005869D01*
X140064438Y-100010563D01*
X140037238Y-100099531D01*
X140036931Y-100100518D01*
X140008765Y-100189306D01*
X140008171Y-100194602D01*
X140006613Y-100199698D01*
X139998733Y-100277276D01*
X139997218Y-100292187D01*
X139997089Y-100293393D01*
X139991500Y-100343227D01*
X139991500Y-100346754D01*
X139991445Y-100347739D01*
X139990998Y-100353419D01*
X139986626Y-100396462D01*
X139987206Y-100402593D01*
X139990941Y-100442109D01*
X139991500Y-100453967D01*
X139991500Y-111149769D01*
X139991800Y-111152825D01*
X139991800Y-111152832D01*
X139992530Y-111160273D01*
X140005920Y-111296833D01*
X140007702Y-111302734D01*
X140007702Y-111302736D01*
X140016298Y-111331206D01*
X140063084Y-111486169D01*
X140155934Y-111660796D01*
X140225985Y-111746687D01*
X140277040Y-111809287D01*
X140277043Y-111809290D01*
X140280935Y-111814062D01*
X140285682Y-111817989D01*
X140285684Y-111817991D01*
X140428575Y-111936201D01*
X140428579Y-111936203D01*
X140433325Y-111940130D01*
X140607299Y-112034198D01*
X140796232Y-112092682D01*
X140802357Y-112093326D01*
X140802358Y-112093326D01*
X140986796Y-112112711D01*
X140986798Y-112112711D01*
X140992925Y-112113355D01*
X141075424Y-112105847D01*
X141183749Y-112095989D01*
X141183752Y-112095988D01*
X141189888Y-112095430D01*
X141195794Y-112093692D01*
X141195798Y-112093691D01*
X141300924Y-112062751D01*
X141379619Y-112039590D01*
X141385077Y-112036737D01*
X141385081Y-112036735D01*
X141496469Y-111978502D01*
X141554890Y-111947960D01*
X141709025Y-111824032D01*
X141836154Y-111672526D01*
X141839121Y-111667128D01*
X141839125Y-111667123D01*
X141928467Y-111504608D01*
X141931433Y-111499213D01*
X141933846Y-111491608D01*
X141989373Y-111316564D01*
X141989373Y-111316563D01*
X141991235Y-111310694D01*
X142008500Y-111156773D01*
X142008500Y-100869925D01*
X142028502Y-100801804D01*
X142045405Y-100780830D01*
X142725717Y-100100518D01*
X142788029Y-100066492D01*
X142858844Y-100071557D01*
X142915680Y-100114104D01*
X142940491Y-100180624D01*
X142940812Y-100189613D01*
X142940812Y-101083430D01*
X142939379Y-101102380D01*
X142936113Y-101123849D01*
X142936706Y-101131141D01*
X142936706Y-101131144D01*
X142940397Y-101176518D01*
X142940812Y-101186733D01*
X142940812Y-101194793D01*
X142941237Y-101198437D01*
X142944101Y-101223007D01*
X142944534Y-101227382D01*
X142947806Y-101267603D01*
X142950452Y-101300137D01*
X142952708Y-101307101D01*
X142953899Y-101313060D01*
X142955283Y-101318915D01*
X142956130Y-101326181D01*
X142981047Y-101394827D01*
X142982464Y-101398955D01*
X142992468Y-101429834D01*
X143004961Y-101468399D01*
X143008757Y-101474654D01*
X143011263Y-101480128D01*
X143013982Y-101485558D01*
X143016479Y-101492437D01*
X143020492Y-101498557D01*
X143020492Y-101498558D01*
X143056498Y-101553476D01*
X143058835Y-101557180D01*
X143096717Y-101619607D01*
X143100433Y-101623815D01*
X143100434Y-101623816D01*
X143104115Y-101627984D01*
X143104088Y-101628008D01*
X143106741Y-101631000D01*
X143109444Y-101634233D01*
X143113456Y-101640352D01*
X143118767Y-101645383D01*
X143118771Y-101645388D01*
X143127989Y-101654120D01*
X143161170Y-101706657D01*
X143214973Y-101872244D01*
X143310460Y-102037632D01*
X143438247Y-102179554D01*
X143498553Y-102223369D01*
X143586461Y-102287238D01*
X143592748Y-102291806D01*
X143598776Y-102294490D01*
X143598778Y-102294491D01*
X143733548Y-102354494D01*
X143767212Y-102369482D01*
X143860613Y-102389335D01*
X143947556Y-102407816D01*
X143947561Y-102407816D01*
X143954013Y-102409188D01*
X144144987Y-102409188D01*
X144151439Y-102407816D01*
X144151444Y-102407816D01*
X144238387Y-102389335D01*
X144331788Y-102369482D01*
X144365452Y-102354494D01*
X144500222Y-102294491D01*
X144500224Y-102294490D01*
X144506252Y-102291806D01*
X144512540Y-102287238D01*
X144600447Y-102223369D01*
X144660753Y-102179554D01*
X144788540Y-102037632D01*
X144884027Y-101872244D01*
X144943042Y-101690616D01*
X144944210Y-101679509D01*
X144962314Y-101507253D01*
X144963004Y-101500688D01*
X144959610Y-101468399D01*
X144943732Y-101317323D01*
X144943732Y-101317321D01*
X144943042Y-101310760D01*
X144884027Y-101129132D01*
X144788540Y-100963744D01*
X144783502Y-100958148D01*
X144665175Y-100826733D01*
X144665174Y-100826732D01*
X144660753Y-100821822D01*
X144513837Y-100715081D01*
X144509751Y-100712112D01*
X144466397Y-100655889D01*
X144457812Y-100610176D01*
X144457812Y-99936311D01*
X144474693Y-99873311D01*
X144530535Y-99776591D01*
X144530536Y-99776590D01*
X144533839Y-99770868D01*
X144592854Y-99589240D01*
X144598987Y-99530893D01*
X144612126Y-99405877D01*
X144612816Y-99399312D01*
X144608676Y-99359923D01*
X144593544Y-99215947D01*
X144593544Y-99215945D01*
X144592854Y-99209384D01*
X144533839Y-99027756D01*
X144528883Y-99019171D01*
X144441653Y-98868086D01*
X144438352Y-98862368D01*
X144431081Y-98854292D01*
X144314986Y-98725356D01*
X144310565Y-98720446D01*
X144305223Y-98716565D01*
X144300991Y-98712754D01*
X144263753Y-98652306D01*
X144265107Y-98581323D01*
X144296209Y-98530025D01*
X145657903Y-97168331D01*
X145720215Y-97134305D01*
X145791030Y-97139370D01*
X145847866Y-97181917D01*
X145872677Y-97248437D01*
X145870358Y-97283085D01*
X145860514Y-97330412D01*
X145859544Y-97334696D01*
X145842192Y-97405610D01*
X145841500Y-97416764D01*
X145841464Y-97416762D01*
X145841225Y-97420755D01*
X145840851Y-97424947D01*
X145839360Y-97432115D01*
X145839558Y-97439432D01*
X145841454Y-97509521D01*
X145841500Y-97512928D01*
X145841500Y-100645952D01*
X145821498Y-100714073D01*
X145789561Y-100747888D01*
X145688747Y-100821134D01*
X145684326Y-100826044D01*
X145684325Y-100826045D01*
X145623316Y-100893803D01*
X145560960Y-100963056D01*
X145465473Y-101128444D01*
X145406458Y-101310072D01*
X145405768Y-101316633D01*
X145405768Y-101316635D01*
X145399094Y-101380140D01*
X145386496Y-101500000D01*
X145387186Y-101506565D01*
X145400324Y-101631562D01*
X145406458Y-101689928D01*
X145465473Y-101871556D01*
X145560960Y-102036944D01*
X145565378Y-102041851D01*
X145565379Y-102041852D01*
X145577081Y-102054848D01*
X145688747Y-102178866D01*
X145749873Y-102223277D01*
X145837904Y-102287235D01*
X145843248Y-102291118D01*
X145849276Y-102293802D01*
X145849278Y-102293803D01*
X146011681Y-102366109D01*
X146017712Y-102368794D01*
X146111113Y-102388647D01*
X146198056Y-102407128D01*
X146198061Y-102407128D01*
X146204513Y-102408500D01*
X146395487Y-102408500D01*
X146401939Y-102407128D01*
X146401944Y-102407128D01*
X146488887Y-102388647D01*
X146582288Y-102368794D01*
X146588319Y-102366109D01*
X146750722Y-102293803D01*
X146750724Y-102293802D01*
X146756752Y-102291118D01*
X146762097Y-102287235D01*
X146850127Y-102223277D01*
X146875940Y-102204523D01*
X146942806Y-102180665D01*
X147011958Y-102196745D01*
X147024058Y-102204521D01*
X147049873Y-102223277D01*
X147137904Y-102287235D01*
X147143248Y-102291118D01*
X147149276Y-102293802D01*
X147149278Y-102293803D01*
X147311681Y-102366109D01*
X147317712Y-102368794D01*
X147411113Y-102388647D01*
X147498056Y-102407128D01*
X147498061Y-102407128D01*
X147504513Y-102408500D01*
X147695487Y-102408500D01*
X147701939Y-102407128D01*
X147701944Y-102407128D01*
X147788887Y-102388647D01*
X147882288Y-102368794D01*
X147888319Y-102366109D01*
X148050722Y-102293803D01*
X148050724Y-102293802D01*
X148056752Y-102291118D01*
X148075940Y-102277177D01*
X148142808Y-102253319D01*
X148211959Y-102269400D01*
X148224060Y-102277177D01*
X148243248Y-102291118D01*
X148249276Y-102293802D01*
X148249278Y-102293803D01*
X148411681Y-102366109D01*
X148417712Y-102368794D01*
X148511113Y-102388647D01*
X148598056Y-102407128D01*
X148598061Y-102407128D01*
X148604513Y-102408500D01*
X148795487Y-102408500D01*
X148801939Y-102407128D01*
X148801944Y-102407128D01*
X148888887Y-102388647D01*
X148982288Y-102368794D01*
X148988319Y-102366109D01*
X149150722Y-102293803D01*
X149150724Y-102293802D01*
X149156752Y-102291118D01*
X149162091Y-102287239D01*
X149162098Y-102287235D01*
X149168528Y-102282563D01*
X149242587Y-102258500D01*
X149833629Y-102258500D01*
X149901750Y-102278502D01*
X149922724Y-102295405D01*
X150804595Y-103177276D01*
X150838621Y-103239588D01*
X150841500Y-103266371D01*
X150841500Y-108457544D01*
X150840067Y-108476494D01*
X150836801Y-108497963D01*
X150837394Y-108505255D01*
X150837394Y-108505258D01*
X150841085Y-108550632D01*
X150841500Y-108560847D01*
X150841500Y-108568907D01*
X150841925Y-108572551D01*
X150844789Y-108597121D01*
X150845222Y-108601496D01*
X150848095Y-108636811D01*
X150851140Y-108674251D01*
X150853396Y-108681215D01*
X150854587Y-108687174D01*
X150855971Y-108693029D01*
X150856818Y-108700295D01*
X150881735Y-108768941D01*
X150883152Y-108773069D01*
X150905649Y-108842513D01*
X150909445Y-108848768D01*
X150911951Y-108854242D01*
X150914670Y-108859672D01*
X150917167Y-108866551D01*
X150921180Y-108872671D01*
X150921180Y-108872672D01*
X150957186Y-108927590D01*
X150959523Y-108931294D01*
X150997405Y-108993721D01*
X151001121Y-108997929D01*
X151001122Y-108997930D01*
X151004803Y-109002098D01*
X151004776Y-109002122D01*
X151007429Y-109005114D01*
X151010132Y-109008347D01*
X151014144Y-109014466D01*
X151019456Y-109019498D01*
X151070383Y-109067742D01*
X151072825Y-109070120D01*
X153691616Y-111688911D01*
X153704002Y-111703323D01*
X153712535Y-111714918D01*
X153712540Y-111714923D01*
X153716878Y-111720818D01*
X153722456Y-111725557D01*
X153722459Y-111725560D01*
X153757154Y-111755035D01*
X153764670Y-111761965D01*
X153770365Y-111767660D01*
X153773247Y-111769940D01*
X153792637Y-111785281D01*
X153796041Y-111788072D01*
X153838369Y-111824032D01*
X153851671Y-111835333D01*
X153858187Y-111838661D01*
X153863236Y-111842028D01*
X153868365Y-111845195D01*
X153874102Y-111849734D01*
X153940261Y-111880655D01*
X153944155Y-111882558D01*
X154009194Y-111915769D01*
X154016302Y-111917508D01*
X154021945Y-111919607D01*
X154027708Y-111921524D01*
X154034336Y-111924622D01*
X154090005Y-111936201D01*
X154105798Y-111939486D01*
X154110082Y-111940456D01*
X154180996Y-111957808D01*
X154186598Y-111958156D01*
X154186601Y-111958156D01*
X154192150Y-111958500D01*
X154192148Y-111958536D01*
X154196141Y-111958775D01*
X154200333Y-111959149D01*
X154207501Y-111960640D01*
X154284906Y-111958546D01*
X154288314Y-111958500D01*
X155471941Y-111958500D01*
X155540062Y-111978502D01*
X155586555Y-112032158D01*
X155597251Y-112097670D01*
X155588244Y-112183365D01*
X155586496Y-112200000D01*
X155587186Y-112206565D01*
X155605129Y-112377279D01*
X155606458Y-112389928D01*
X155665473Y-112571556D01*
X155760960Y-112736944D01*
X155765378Y-112741851D01*
X155765379Y-112741852D01*
X155879678Y-112868794D01*
X155888747Y-112878866D01*
X155927646Y-112907128D01*
X156037904Y-112987235D01*
X156043248Y-112991118D01*
X156049276Y-112993802D01*
X156049278Y-112993803D01*
X156204824Y-113063056D01*
X156217712Y-113068794D01*
X156311112Y-113088647D01*
X156398056Y-113107128D01*
X156398061Y-113107128D01*
X156404513Y-113108500D01*
X156595487Y-113108500D01*
X156601939Y-113107128D01*
X156601944Y-113107128D01*
X156688888Y-113088647D01*
X156782288Y-113068794D01*
X156795176Y-113063056D01*
X156950722Y-112993803D01*
X156950724Y-112993802D01*
X156956752Y-112991118D01*
X156962091Y-112987239D01*
X156962098Y-112987235D01*
X156968528Y-112982563D01*
X157042587Y-112958500D01*
X157532930Y-112958500D01*
X157551880Y-112959933D01*
X157566115Y-112962099D01*
X157566119Y-112962099D01*
X157573349Y-112963199D01*
X157580641Y-112962606D01*
X157580644Y-112962606D01*
X157626018Y-112958915D01*
X157636233Y-112958500D01*
X157644293Y-112958500D01*
X157657583Y-112956951D01*
X157672507Y-112955211D01*
X157676882Y-112954778D01*
X157742339Y-112949454D01*
X157742342Y-112949453D01*
X157749637Y-112948860D01*
X157756601Y-112946604D01*
X157762560Y-112945413D01*
X157768415Y-112944029D01*
X157775681Y-112943182D01*
X157844327Y-112918265D01*
X157848455Y-112916848D01*
X157910936Y-112896607D01*
X157910938Y-112896606D01*
X157917899Y-112894351D01*
X157924154Y-112890555D01*
X157929628Y-112888049D01*
X157935058Y-112885330D01*
X157941937Y-112882833D01*
X158002976Y-112842814D01*
X158006680Y-112840477D01*
X158069107Y-112802595D01*
X158077484Y-112795197D01*
X158077508Y-112795224D01*
X158080500Y-112792571D01*
X158083733Y-112789868D01*
X158089852Y-112785856D01*
X158143128Y-112729617D01*
X158145506Y-112727175D01*
X161942276Y-108930405D01*
X162004588Y-108896379D01*
X162031371Y-108893500D01*
X165002491Y-108893500D01*
X165070612Y-108913502D01*
X165099402Y-108940595D01*
X165099987Y-108940088D01*
X165246250Y-109108938D01*
X165418126Y-109251632D01*
X165611000Y-109364338D01*
X165819692Y-109444030D01*
X165824760Y-109445061D01*
X165824763Y-109445062D01*
X165932017Y-109466883D01*
X166038597Y-109488567D01*
X166043772Y-109488757D01*
X166043774Y-109488757D01*
X166256673Y-109496564D01*
X166256677Y-109496564D01*
X166261837Y-109496753D01*
X166266957Y-109496097D01*
X166266959Y-109496097D01*
X166478288Y-109469025D01*
X166478289Y-109469025D01*
X166483416Y-109468368D01*
X166488366Y-109466883D01*
X166692429Y-109405661D01*
X166692434Y-109405659D01*
X166697384Y-109404174D01*
X166897994Y-109305896D01*
X167079860Y-109176173D01*
X167238096Y-109018489D01*
X167259341Y-108988924D01*
X167294068Y-108940595D01*
X167363178Y-108844419D01*
X167419172Y-108800771D01*
X167489875Y-108794325D01*
X167552839Y-108827128D01*
X167588074Y-108888764D01*
X167591500Y-108917945D01*
X167591500Y-126065500D01*
X167571498Y-126133621D01*
X167517842Y-126180114D01*
X167465500Y-126191500D01*
X128739016Y-126191500D01*
X128670895Y-126171498D01*
X128624402Y-126117842D01*
X128613018Y-126066131D01*
X128608502Y-125164396D01*
X128608500Y-125163765D01*
X128608500Y-123332703D01*
X129490743Y-123332703D01*
X129528268Y-123617734D01*
X129604129Y-123895036D01*
X129605813Y-123898984D01*
X129648658Y-123999431D01*
X129716923Y-124159476D01*
X129864561Y-124406161D01*
X130044313Y-124630528D01*
X130252851Y-124828423D01*
X130486317Y-124996186D01*
X130490112Y-124998195D01*
X130490113Y-124998196D01*
X130511869Y-125009715D01*
X130740392Y-125130712D01*
X131010373Y-125229511D01*
X131291264Y-125290755D01*
X131319841Y-125293004D01*
X131514282Y-125308307D01*
X131514291Y-125308307D01*
X131516739Y-125308500D01*
X131672271Y-125308500D01*
X131674407Y-125308354D01*
X131674418Y-125308354D01*
X131882548Y-125294165D01*
X131882554Y-125294164D01*
X131886825Y-125293873D01*
X131891020Y-125293004D01*
X131891022Y-125293004D01*
X132027583Y-125264724D01*
X132168342Y-125235574D01*
X132439343Y-125139607D01*
X132694812Y-125007750D01*
X132698313Y-125005289D01*
X132698317Y-125005287D01*
X132812418Y-124925095D01*
X132930023Y-124842441D01*
X133072151Y-124710367D01*
X133137479Y-124649661D01*
X133137481Y-124649658D01*
X133140622Y-124646740D01*
X133322713Y-124424268D01*
X133430648Y-124248134D01*
X141011500Y-124248134D01*
X141018255Y-124310316D01*
X141069385Y-124446705D01*
X141156739Y-124563261D01*
X141273295Y-124650615D01*
X141409684Y-124701745D01*
X141471866Y-124708500D01*
X144568134Y-124708500D01*
X144630316Y-124701745D01*
X144766705Y-124650615D01*
X144883261Y-124563261D01*
X144970615Y-124446705D01*
X145021745Y-124310316D01*
X145028500Y-124248134D01*
X145028500Y-122678918D01*
X146086917Y-122678918D01*
X146102682Y-122952320D01*
X146103507Y-122956525D01*
X146103508Y-122956533D01*
X146114127Y-123010657D01*
X146155405Y-123221053D01*
X146156792Y-123225103D01*
X146156793Y-123225108D01*
X146202647Y-123359036D01*
X146244112Y-123480144D01*
X146367160Y-123724799D01*
X146369586Y-123728328D01*
X146369589Y-123728334D01*
X146484161Y-123895036D01*
X146522274Y-123950490D01*
X146706582Y-124153043D01*
X146916675Y-124328707D01*
X146920316Y-124330991D01*
X147145024Y-124471951D01*
X147145028Y-124471953D01*
X147148664Y-124474234D01*
X147216544Y-124504883D01*
X147394345Y-124585164D01*
X147394349Y-124585166D01*
X147398257Y-124586930D01*
X147402377Y-124588150D01*
X147402376Y-124588150D01*
X147656723Y-124663491D01*
X147656727Y-124663492D01*
X147660836Y-124664709D01*
X147665070Y-124665357D01*
X147665075Y-124665358D01*
X147927298Y-124705483D01*
X147927300Y-124705483D01*
X147931540Y-124706132D01*
X148070912Y-124708322D01*
X148201071Y-124710367D01*
X148201077Y-124710367D01*
X148205362Y-124710434D01*
X148477235Y-124677534D01*
X148742127Y-124608041D01*
X148746087Y-124606401D01*
X148746092Y-124606399D01*
X148868631Y-124555641D01*
X148995136Y-124503241D01*
X149231582Y-124365073D01*
X149447089Y-124196094D01*
X149479002Y-124163163D01*
X149634686Y-124002509D01*
X149637669Y-123999431D01*
X149640202Y-123995983D01*
X149640206Y-123995978D01*
X149797257Y-123782178D01*
X149799795Y-123778723D01*
X149827154Y-123728334D01*
X149928418Y-123541830D01*
X149928419Y-123541828D01*
X149930468Y-123538054D01*
X150006458Y-123336951D01*
X150025751Y-123285895D01*
X150025752Y-123285891D01*
X150027269Y-123281877D01*
X150052107Y-123173427D01*
X150087449Y-123019117D01*
X150087450Y-123019113D01*
X150088407Y-123014933D01*
X150109542Y-122778124D01*
X150112531Y-122744627D01*
X150112531Y-122744625D01*
X150112751Y-122742161D01*
X150113193Y-122700000D01*
X150111756Y-122678918D01*
X151166917Y-122678918D01*
X151182682Y-122952320D01*
X151183507Y-122956525D01*
X151183508Y-122956533D01*
X151194127Y-123010657D01*
X151235405Y-123221053D01*
X151236792Y-123225103D01*
X151236793Y-123225108D01*
X151282647Y-123359036D01*
X151324112Y-123480144D01*
X151447160Y-123724799D01*
X151449586Y-123728328D01*
X151449589Y-123728334D01*
X151564161Y-123895036D01*
X151602274Y-123950490D01*
X151786582Y-124153043D01*
X151996675Y-124328707D01*
X152000316Y-124330991D01*
X152225024Y-124471951D01*
X152225028Y-124471953D01*
X152228664Y-124474234D01*
X152296544Y-124504883D01*
X152474345Y-124585164D01*
X152474349Y-124585166D01*
X152478257Y-124586930D01*
X152482377Y-124588150D01*
X152482376Y-124588150D01*
X152736723Y-124663491D01*
X152736727Y-124663492D01*
X152740836Y-124664709D01*
X152745070Y-124665357D01*
X152745075Y-124665358D01*
X153007298Y-124705483D01*
X153007300Y-124705483D01*
X153011540Y-124706132D01*
X153150912Y-124708322D01*
X153281071Y-124710367D01*
X153281077Y-124710367D01*
X153285362Y-124710434D01*
X153557235Y-124677534D01*
X153822127Y-124608041D01*
X153826087Y-124606401D01*
X153826092Y-124606399D01*
X153948631Y-124555641D01*
X154075136Y-124503241D01*
X154311582Y-124365073D01*
X154527089Y-124196094D01*
X154559002Y-124163163D01*
X154714686Y-124002509D01*
X154717669Y-123999431D01*
X154720202Y-123995983D01*
X154720206Y-123995978D01*
X154877257Y-123782178D01*
X154879795Y-123778723D01*
X154907154Y-123728334D01*
X155008418Y-123541830D01*
X155008419Y-123541828D01*
X155010468Y-123538054D01*
X155086458Y-123336951D01*
X155088063Y-123332703D01*
X162490743Y-123332703D01*
X162528268Y-123617734D01*
X162604129Y-123895036D01*
X162605813Y-123898984D01*
X162648658Y-123999431D01*
X162716923Y-124159476D01*
X162864561Y-124406161D01*
X163044313Y-124630528D01*
X163252851Y-124828423D01*
X163486317Y-124996186D01*
X163490112Y-124998195D01*
X163490113Y-124998196D01*
X163511869Y-125009715D01*
X163740392Y-125130712D01*
X164010373Y-125229511D01*
X164291264Y-125290755D01*
X164319841Y-125293004D01*
X164514282Y-125308307D01*
X164514291Y-125308307D01*
X164516739Y-125308500D01*
X164672271Y-125308500D01*
X164674407Y-125308354D01*
X164674418Y-125308354D01*
X164882548Y-125294165D01*
X164882554Y-125294164D01*
X164886825Y-125293873D01*
X164891020Y-125293004D01*
X164891022Y-125293004D01*
X165027583Y-125264724D01*
X165168342Y-125235574D01*
X165439343Y-125139607D01*
X165694812Y-125007750D01*
X165698313Y-125005289D01*
X165698317Y-125005287D01*
X165812418Y-124925095D01*
X165930023Y-124842441D01*
X166072151Y-124710367D01*
X166137479Y-124649661D01*
X166137481Y-124649658D01*
X166140622Y-124646740D01*
X166322713Y-124424268D01*
X166472927Y-124179142D01*
X166588483Y-123915898D01*
X166667244Y-123639406D01*
X166707751Y-123354784D01*
X166707845Y-123336951D01*
X166709235Y-123071583D01*
X166709235Y-123071576D01*
X166709257Y-123067297D01*
X166693556Y-122948032D01*
X166672292Y-122786522D01*
X166671732Y-122782266D01*
X166660084Y-122739686D01*
X166597003Y-122509103D01*
X166595871Y-122504964D01*
X166562522Y-122426778D01*
X166484763Y-122244476D01*
X166484761Y-122244472D01*
X166483077Y-122240524D01*
X166335439Y-121993839D01*
X166155687Y-121769472D01*
X165947149Y-121571577D01*
X165713683Y-121403814D01*
X165691843Y-121392250D01*
X165668654Y-121379972D01*
X165459608Y-121269288D01*
X165189627Y-121170489D01*
X164908736Y-121109245D01*
X164877685Y-121106801D01*
X164685718Y-121091693D01*
X164685709Y-121091693D01*
X164683261Y-121091500D01*
X164527729Y-121091500D01*
X164525593Y-121091646D01*
X164525582Y-121091646D01*
X164317452Y-121105835D01*
X164317446Y-121105836D01*
X164313175Y-121106127D01*
X164308980Y-121106996D01*
X164308978Y-121106996D01*
X164172416Y-121135277D01*
X164031658Y-121164426D01*
X163760657Y-121260393D01*
X163505188Y-121392250D01*
X163501687Y-121394711D01*
X163501683Y-121394713D01*
X163447125Y-121433057D01*
X163269977Y-121557559D01*
X163254892Y-121571577D01*
X163158749Y-121660919D01*
X163059378Y-121753260D01*
X162877287Y-121975732D01*
X162727073Y-122220858D01*
X162611517Y-122484102D01*
X162532756Y-122760594D01*
X162492249Y-123045216D01*
X162492227Y-123049505D01*
X162492226Y-123049512D01*
X162491031Y-123277689D01*
X162490743Y-123332703D01*
X155088063Y-123332703D01*
X155105751Y-123285895D01*
X155105752Y-123285891D01*
X155107269Y-123281877D01*
X155132107Y-123173427D01*
X155167449Y-123019117D01*
X155167450Y-123019113D01*
X155168407Y-123014933D01*
X155189542Y-122778124D01*
X155192531Y-122744627D01*
X155192531Y-122744625D01*
X155192751Y-122742161D01*
X155193193Y-122700000D01*
X155191465Y-122674648D01*
X155174859Y-122431055D01*
X155174858Y-122431049D01*
X155174567Y-122426778D01*
X155119032Y-122158612D01*
X155027617Y-121900465D01*
X154902013Y-121657112D01*
X154892040Y-121642921D01*
X154747008Y-121436562D01*
X154744545Y-121433057D01*
X154674466Y-121357643D01*
X154561046Y-121235588D01*
X154561043Y-121235585D01*
X154558125Y-121232445D01*
X154554810Y-121229731D01*
X154554806Y-121229728D01*
X154385924Y-121091500D01*
X154346205Y-121058990D01*
X154112704Y-120915901D01*
X154108768Y-120914173D01*
X153865873Y-120807549D01*
X153865869Y-120807548D01*
X153861945Y-120805825D01*
X153598566Y-120730800D01*
X153594324Y-120730196D01*
X153594318Y-120730195D01*
X153389387Y-120701029D01*
X153327443Y-120692213D01*
X153183589Y-120691460D01*
X153057877Y-120690802D01*
X153057871Y-120690802D01*
X153053591Y-120690780D01*
X153049347Y-120691339D01*
X153049343Y-120691339D01*
X152975741Y-120701029D01*
X152782078Y-120726525D01*
X152777938Y-120727658D01*
X152777936Y-120727658D01*
X152710037Y-120746233D01*
X152517928Y-120798788D01*
X152513980Y-120800472D01*
X152269982Y-120904546D01*
X152269978Y-120904548D01*
X152266030Y-120906232D01*
X152246125Y-120918145D01*
X152034725Y-121044664D01*
X152034721Y-121044667D01*
X152031043Y-121046868D01*
X151817318Y-121218094D01*
X151705964Y-121335436D01*
X151642984Y-121401804D01*
X151628808Y-121416742D01*
X151469002Y-121639136D01*
X151340857Y-121881161D01*
X151339385Y-121885184D01*
X151339383Y-121885188D01*
X151304911Y-121979386D01*
X151246743Y-122138337D01*
X151188404Y-122405907D01*
X151166917Y-122678918D01*
X150111756Y-122678918D01*
X150111465Y-122674648D01*
X150094859Y-122431055D01*
X150094858Y-122431049D01*
X150094567Y-122426778D01*
X150039032Y-122158612D01*
X149947617Y-121900465D01*
X149822013Y-121657112D01*
X149812040Y-121642921D01*
X149667008Y-121436562D01*
X149664545Y-121433057D01*
X149594466Y-121357643D01*
X149481046Y-121235588D01*
X149481043Y-121235585D01*
X149478125Y-121232445D01*
X149474810Y-121229731D01*
X149474806Y-121229728D01*
X149305924Y-121091500D01*
X149266205Y-121058990D01*
X149032704Y-120915901D01*
X149028768Y-120914173D01*
X148785873Y-120807549D01*
X148785869Y-120807548D01*
X148781945Y-120805825D01*
X148518566Y-120730800D01*
X148514324Y-120730196D01*
X148514318Y-120730195D01*
X148309387Y-120701029D01*
X148247443Y-120692213D01*
X148103589Y-120691460D01*
X147977877Y-120690802D01*
X147977871Y-120690802D01*
X147973591Y-120690780D01*
X147969347Y-120691339D01*
X147969343Y-120691339D01*
X147895741Y-120701029D01*
X147702078Y-120726525D01*
X147697938Y-120727658D01*
X147697936Y-120727658D01*
X147630037Y-120746233D01*
X147437928Y-120798788D01*
X147433980Y-120800472D01*
X147189982Y-120904546D01*
X147189978Y-120904548D01*
X147186030Y-120906232D01*
X147166125Y-120918145D01*
X146954725Y-121044664D01*
X146954721Y-121044667D01*
X146951043Y-121046868D01*
X146737318Y-121218094D01*
X146625964Y-121335436D01*
X146562984Y-121401804D01*
X146548808Y-121416742D01*
X146389002Y-121639136D01*
X146260857Y-121881161D01*
X146259385Y-121885184D01*
X146259383Y-121885188D01*
X146224911Y-121979386D01*
X146166743Y-122138337D01*
X146108404Y-122405907D01*
X146086917Y-122678918D01*
X145028500Y-122678918D01*
X145028500Y-121151866D01*
X145021745Y-121089684D01*
X144970615Y-120953295D01*
X144883261Y-120836739D01*
X144766705Y-120749385D01*
X144630316Y-120698255D01*
X144568134Y-120691500D01*
X141471866Y-120691500D01*
X141409684Y-120698255D01*
X141273295Y-120749385D01*
X141156739Y-120836739D01*
X141069385Y-120953295D01*
X141018255Y-121089684D01*
X141011500Y-121151866D01*
X141011500Y-124248134D01*
X133430648Y-124248134D01*
X133472927Y-124179142D01*
X133588483Y-123915898D01*
X133667244Y-123639406D01*
X133707751Y-123354784D01*
X133707845Y-123336951D01*
X133709235Y-123071583D01*
X133709235Y-123071576D01*
X133709257Y-123067297D01*
X133693556Y-122948032D01*
X133672292Y-122786522D01*
X133671732Y-122782266D01*
X133660084Y-122739686D01*
X133597003Y-122509103D01*
X133595871Y-122504964D01*
X133562522Y-122426778D01*
X133484763Y-122244476D01*
X133484761Y-122244472D01*
X133483077Y-122240524D01*
X133335439Y-121993839D01*
X133155687Y-121769472D01*
X132947149Y-121571577D01*
X132713683Y-121403814D01*
X132691843Y-121392250D01*
X132668654Y-121379972D01*
X132459608Y-121269288D01*
X132189627Y-121170489D01*
X131908736Y-121109245D01*
X131877685Y-121106801D01*
X131685718Y-121091693D01*
X131685709Y-121091693D01*
X131683261Y-121091500D01*
X131527729Y-121091500D01*
X131525593Y-121091646D01*
X131525582Y-121091646D01*
X131317452Y-121105835D01*
X131317446Y-121105836D01*
X131313175Y-121106127D01*
X131308980Y-121106996D01*
X131308978Y-121106996D01*
X131172416Y-121135277D01*
X131031658Y-121164426D01*
X130760657Y-121260393D01*
X130505188Y-121392250D01*
X130501687Y-121394711D01*
X130501683Y-121394713D01*
X130447125Y-121433057D01*
X130269977Y-121557559D01*
X130254892Y-121571577D01*
X130158749Y-121660919D01*
X130059378Y-121753260D01*
X129877287Y-121975732D01*
X129727073Y-122220858D01*
X129611517Y-122484102D01*
X129532756Y-122760594D01*
X129492249Y-123045216D01*
X129492227Y-123049505D01*
X129492226Y-123049512D01*
X129491031Y-123277689D01*
X129490743Y-123332703D01*
X128608500Y-123332703D01*
X128608500Y-94396187D01*
X128628502Y-94328066D01*
X128682158Y-94281573D01*
X128752432Y-94271469D01*
X128817012Y-94300963D01*
X128841933Y-94330352D01*
X128882277Y-94396187D01*
X128899987Y-94425088D01*
X129046250Y-94593938D01*
X129193610Y-94716279D01*
X129205496Y-94726146D01*
X129218126Y-94736632D01*
X129411000Y-94849338D01*
X129415825Y-94851180D01*
X129415826Y-94851181D01*
X129480040Y-94875702D01*
X129619692Y-94929030D01*
X129624760Y-94930061D01*
X129624763Y-94930062D01*
X129732017Y-94951883D01*
X129838597Y-94973567D01*
X129843772Y-94973757D01*
X129843774Y-94973757D01*
X130056673Y-94981564D01*
X130056677Y-94981564D01*
X130061837Y-94981753D01*
X130066957Y-94981097D01*
X130066959Y-94981097D01*
X130278288Y-94954025D01*
X130278289Y-94954025D01*
X130283416Y-94953368D01*
X130288366Y-94951883D01*
X130492429Y-94890661D01*
X130492434Y-94890659D01*
X130497384Y-94889174D01*
X130697994Y-94790896D01*
X130879860Y-94661173D01*
X130933604Y-94607617D01*
X131034435Y-94507137D01*
X131038096Y-94503489D01*
X131071403Y-94457138D01*
X131165435Y-94326277D01*
X131168453Y-94322077D01*
X131180796Y-94297104D01*
X131265136Y-94126453D01*
X131265137Y-94126451D01*
X131267430Y-94121811D01*
X131321481Y-93943909D01*
X131330865Y-93913023D01*
X131330865Y-93913021D01*
X131332370Y-93908069D01*
X131361529Y-93686590D01*
X131361941Y-93669717D01*
X131363074Y-93623365D01*
X131363074Y-93623361D01*
X131363156Y-93620000D01*
X131344852Y-93397361D01*
X131290431Y-93180702D01*
X131201354Y-92975840D01*
X131112337Y-92838240D01*
X131082822Y-92792617D01*
X131082820Y-92792614D01*
X131080014Y-92788277D01*
X130929670Y-92623051D01*
X130925619Y-92619852D01*
X130925615Y-92619848D01*
X130758414Y-92487800D01*
X130758410Y-92487798D01*
X130754359Y-92484598D01*
X130713053Y-92461796D01*
X130663084Y-92411364D01*
X130648312Y-92341921D01*
X130673428Y-92275516D01*
X130700780Y-92248909D01*
X130750773Y-92213249D01*
X130879860Y-92121173D01*
X130884552Y-92116498D01*
X131034435Y-91967137D01*
X131038096Y-91963489D01*
X131071403Y-91917138D01*
X131165435Y-91786277D01*
X131168453Y-91782077D01*
X131181522Y-91755635D01*
X131265136Y-91586453D01*
X131265137Y-91586451D01*
X131267430Y-91581811D01*
X131307795Y-91448955D01*
X131330865Y-91373023D01*
X131330865Y-91373021D01*
X131332370Y-91368069D01*
X131361529Y-91146590D01*
X131361905Y-91131206D01*
X131363074Y-91083365D01*
X131363074Y-91083361D01*
X131363156Y-91080000D01*
X131344852Y-90857361D01*
X131290431Y-90640702D01*
X131201354Y-90435840D01*
X131159876Y-90371725D01*
X131082822Y-90252617D01*
X131082820Y-90252614D01*
X131080014Y-90248277D01*
X130929670Y-90083051D01*
X130925619Y-90079852D01*
X130925615Y-90079848D01*
X130758414Y-89947800D01*
X130758410Y-89947798D01*
X130754359Y-89944598D01*
X130713053Y-89921796D01*
X130663084Y-89871364D01*
X130648312Y-89801921D01*
X130673428Y-89735516D01*
X130700780Y-89708909D01*
X130744603Y-89677650D01*
X130879860Y-89581173D01*
X131038096Y-89423489D01*
X131097594Y-89340689D01*
X131165435Y-89246277D01*
X131168453Y-89242077D01*
X131267430Y-89041811D01*
X131332370Y-88828069D01*
X131361529Y-88606590D01*
X131361611Y-88603240D01*
X131363074Y-88543365D01*
X131363074Y-88543361D01*
X131363156Y-88540000D01*
X131344852Y-88317361D01*
X131290431Y-88100702D01*
X131201354Y-87895840D01*
X131080014Y-87708277D01*
X130929670Y-87543051D01*
X130925619Y-87539852D01*
X130925615Y-87539848D01*
X130758414Y-87407800D01*
X130758410Y-87407798D01*
X130754359Y-87404598D01*
X130558789Y-87296638D01*
X130553920Y-87294914D01*
X130553916Y-87294912D01*
X130353087Y-87223795D01*
X130353083Y-87223794D01*
X130348212Y-87222069D01*
X130343119Y-87221162D01*
X130343116Y-87221161D01*
X130133373Y-87183800D01*
X130133367Y-87183799D01*
X130128284Y-87182894D01*
X130054452Y-87181992D01*
X129910081Y-87180228D01*
X129910079Y-87180228D01*
X129904911Y-87180165D01*
X129684091Y-87213955D01*
X129471756Y-87283357D01*
X129273607Y-87386507D01*
X129269474Y-87389610D01*
X129269471Y-87389612D01*
X129165834Y-87467425D01*
X129094965Y-87520635D01*
X128940629Y-87682138D01*
X128937715Y-87686410D01*
X128937714Y-87686411D01*
X128914275Y-87720771D01*
X128865081Y-87792888D01*
X128838588Y-87831725D01*
X128783677Y-87876728D01*
X128713152Y-87884899D01*
X128649405Y-87853645D01*
X128612675Y-87792888D01*
X128608500Y-87760721D01*
X128608500Y-82416187D01*
X128628502Y-82348066D01*
X128682158Y-82301573D01*
X128752432Y-82291469D01*
X128817012Y-82320963D01*
X128841933Y-82350352D01*
X128882277Y-82416187D01*
X128899987Y-82445088D01*
X129046250Y-82613938D01*
X129218126Y-82756632D01*
X129411000Y-82869338D01*
X129619692Y-82949030D01*
X129624760Y-82950061D01*
X129624763Y-82950062D01*
X129732017Y-82971883D01*
X129838597Y-82993567D01*
X129843772Y-82993757D01*
X129843774Y-82993757D01*
X130056673Y-83001564D01*
X130056677Y-83001564D01*
X130061837Y-83001753D01*
X130066957Y-83001097D01*
X130066959Y-83001097D01*
X130278288Y-82974025D01*
X130278289Y-82974025D01*
X130283416Y-82973368D01*
X130288366Y-82971883D01*
X130492429Y-82910661D01*
X130492434Y-82910659D01*
X130497384Y-82909174D01*
X130697994Y-82810896D01*
X130879860Y-82681173D01*
X131038096Y-82523489D01*
X131097594Y-82440689D01*
X131165435Y-82346277D01*
X131168453Y-82342077D01*
X131267430Y-82141811D01*
X131332370Y-81928069D01*
X131361529Y-81706590D01*
X131363156Y-81640000D01*
X131344852Y-81417361D01*
X131290431Y-81200702D01*
X131201354Y-80995840D01*
X131080014Y-80808277D01*
X130929670Y-80643051D01*
X130925619Y-80639852D01*
X130925615Y-80639848D01*
X130758414Y-80507800D01*
X130758410Y-80507798D01*
X130754359Y-80504598D01*
X130713053Y-80481796D01*
X130663084Y-80431364D01*
X130648312Y-80361921D01*
X130673428Y-80295516D01*
X130700780Y-80268909D01*
X130744603Y-80237650D01*
X130879860Y-80141173D01*
X131038096Y-79983489D01*
X131097594Y-79900689D01*
X131165435Y-79806277D01*
X131168453Y-79802077D01*
X131267430Y-79601811D01*
X131332370Y-79388069D01*
X131361529Y-79166590D01*
X131363156Y-79100000D01*
X131344852Y-78877361D01*
X131290431Y-78660702D01*
X131201354Y-78455840D01*
X131080014Y-78268277D01*
X130929670Y-78103051D01*
X130925619Y-78099852D01*
X130925615Y-78099848D01*
X130758414Y-77967800D01*
X130758410Y-77967798D01*
X130754359Y-77964598D01*
X130558789Y-77856638D01*
X130553920Y-77854914D01*
X130553916Y-77854912D01*
X130353087Y-77783795D01*
X130353083Y-77783794D01*
X130348212Y-77782069D01*
X130343119Y-77781162D01*
X130343116Y-77781161D01*
X130133373Y-77743800D01*
X130133367Y-77743799D01*
X130128284Y-77742894D01*
X130054452Y-77741992D01*
X129910081Y-77740228D01*
X129910079Y-77740228D01*
X129904911Y-77740165D01*
X129684091Y-77773955D01*
X129471756Y-77843357D01*
X129273607Y-77946507D01*
X129269474Y-77949610D01*
X129269471Y-77949612D01*
X129245247Y-77967800D01*
X129094965Y-78080635D01*
X128940629Y-78242138D01*
X128865081Y-78352888D01*
X128838588Y-78391725D01*
X128783677Y-78436728D01*
X128713152Y-78444899D01*
X128649405Y-78413645D01*
X128612675Y-78352888D01*
X128608500Y-78320721D01*
X128608500Y-75096462D01*
X132786626Y-75096462D01*
X132787206Y-75102593D01*
X132790941Y-75142109D01*
X132791500Y-75153967D01*
X132791500Y-111749769D01*
X132791800Y-111752825D01*
X132791800Y-111752832D01*
X132793254Y-111767660D01*
X132805920Y-111896833D01*
X132807702Y-111902734D01*
X132807702Y-111902736D01*
X132824538Y-111958500D01*
X132863084Y-112086169D01*
X132955934Y-112260796D01*
X133026291Y-112347062D01*
X133077040Y-112409287D01*
X133077043Y-112409290D01*
X133080935Y-112414062D01*
X133085682Y-112417989D01*
X133085684Y-112417991D01*
X133228575Y-112536201D01*
X133228579Y-112536203D01*
X133233325Y-112540130D01*
X133407299Y-112634198D01*
X133430101Y-112641256D01*
X133431305Y-112641629D01*
X133477783Y-112671357D01*
X133479420Y-112669539D01*
X133484329Y-112673959D01*
X133488747Y-112678866D01*
X133494089Y-112682747D01*
X133494091Y-112682749D01*
X133637906Y-112787237D01*
X133643248Y-112791118D01*
X133649276Y-112793802D01*
X133649278Y-112793803D01*
X133811681Y-112866109D01*
X133817712Y-112868794D01*
X133905251Y-112887401D01*
X133998056Y-112907128D01*
X133998061Y-112907128D01*
X134004513Y-112908500D01*
X134195487Y-112908500D01*
X134201939Y-112907128D01*
X134201944Y-112907128D01*
X134294749Y-112887401D01*
X134382288Y-112868794D01*
X134388319Y-112866109D01*
X134550722Y-112793803D01*
X134550724Y-112793802D01*
X134556752Y-112791118D01*
X134563995Y-112785856D01*
X134612157Y-112750864D01*
X134711253Y-112678866D01*
X134719651Y-112669539D01*
X134834621Y-112541852D01*
X134834622Y-112541851D01*
X134839040Y-112536944D01*
X134934527Y-112371556D01*
X134990269Y-112200000D01*
X143986496Y-112200000D01*
X143987186Y-112206565D01*
X144005129Y-112377279D01*
X144006458Y-112389928D01*
X144065473Y-112571556D01*
X144160960Y-112736944D01*
X144165378Y-112741851D01*
X144165379Y-112741852D01*
X144279678Y-112868794D01*
X144288747Y-112878866D01*
X144327646Y-112907128D01*
X144437904Y-112987235D01*
X144443248Y-112991118D01*
X144449276Y-112993802D01*
X144449278Y-112993803D01*
X144604824Y-113063056D01*
X144617712Y-113068794D01*
X144711112Y-113088647D01*
X144798056Y-113107128D01*
X144798061Y-113107128D01*
X144804513Y-113108500D01*
X144995487Y-113108500D01*
X145001939Y-113107128D01*
X145001944Y-113107128D01*
X145175833Y-113070166D01*
X145175832Y-113070166D01*
X145182288Y-113068794D01*
X145188319Y-113066109D01*
X145194215Y-113064193D01*
X145265183Y-113062164D01*
X145322249Y-113094930D01*
X145979875Y-113752556D01*
X146010613Y-113802714D01*
X146065473Y-113971556D01*
X146160960Y-114136944D01*
X146288747Y-114278866D01*
X146387843Y-114350864D01*
X146437904Y-114387235D01*
X146443248Y-114391118D01*
X146449276Y-114393802D01*
X146449278Y-114393803D01*
X146611681Y-114466109D01*
X146617712Y-114468794D01*
X146711113Y-114488647D01*
X146798056Y-114507128D01*
X146798061Y-114507128D01*
X146804513Y-114508500D01*
X146995487Y-114508500D01*
X147001939Y-114507128D01*
X147001944Y-114507128D01*
X147088887Y-114488647D01*
X147182288Y-114468794D01*
X147188319Y-114466109D01*
X147350722Y-114393803D01*
X147350724Y-114393802D01*
X147356752Y-114391118D01*
X147362091Y-114387239D01*
X147362098Y-114387235D01*
X147368528Y-114382563D01*
X147442587Y-114358500D01*
X149257413Y-114358500D01*
X149331472Y-114382563D01*
X149337902Y-114387235D01*
X149337909Y-114387239D01*
X149343248Y-114391118D01*
X149349276Y-114393802D01*
X149349278Y-114393803D01*
X149511681Y-114466109D01*
X149517712Y-114468794D01*
X149611113Y-114488647D01*
X149698056Y-114507128D01*
X149698061Y-114507128D01*
X149704513Y-114508500D01*
X149895487Y-114508500D01*
X149901939Y-114507128D01*
X149901944Y-114507128D01*
X149988887Y-114488647D01*
X150082288Y-114468794D01*
X150088319Y-114466109D01*
X150250722Y-114393803D01*
X150250724Y-114393802D01*
X150256752Y-114391118D01*
X150262097Y-114387235D01*
X150312157Y-114350864D01*
X150411253Y-114278866D01*
X150539040Y-114136944D01*
X150634527Y-113971556D01*
X150693542Y-113789928D01*
X150713504Y-113600000D01*
X150693542Y-113410072D01*
X150634527Y-113228444D01*
X150539040Y-113063056D01*
X150476685Y-112993803D01*
X150415675Y-112926045D01*
X150415674Y-112926044D01*
X150411253Y-112921134D01*
X150268527Y-112817437D01*
X150262094Y-112812763D01*
X150262093Y-112812762D01*
X150256752Y-112808882D01*
X150250724Y-112806198D01*
X150250722Y-112806197D01*
X150088319Y-112733891D01*
X150088318Y-112733891D01*
X150082288Y-112731206D01*
X149988888Y-112711353D01*
X149901944Y-112692872D01*
X149901939Y-112692872D01*
X149895487Y-112691500D01*
X149704513Y-112691500D01*
X149698061Y-112692872D01*
X149698056Y-112692872D01*
X149611112Y-112711353D01*
X149517712Y-112731206D01*
X149511682Y-112733891D01*
X149511681Y-112733891D01*
X149349278Y-112806197D01*
X149349276Y-112806198D01*
X149343248Y-112808882D01*
X149337909Y-112812761D01*
X149337902Y-112812765D01*
X149331472Y-112817437D01*
X149257413Y-112841500D01*
X147442587Y-112841500D01*
X147368528Y-112817437D01*
X147362098Y-112812765D01*
X147362091Y-112812761D01*
X147356752Y-112808882D01*
X147350724Y-112806198D01*
X147350722Y-112806197D01*
X147188319Y-112733891D01*
X147188318Y-112733891D01*
X147182288Y-112731206D01*
X147175833Y-112729834D01*
X147175824Y-112729831D01*
X147119228Y-112717801D01*
X147056331Y-112683650D01*
X146083770Y-111711089D01*
X146071384Y-111696677D01*
X146062851Y-111685082D01*
X146062846Y-111685077D01*
X146058508Y-111679182D01*
X146052930Y-111674443D01*
X146052927Y-111674440D01*
X146018232Y-111644965D01*
X146010716Y-111638035D01*
X146005021Y-111632340D01*
X145992863Y-111622721D01*
X145982749Y-111614719D01*
X145979345Y-111611928D01*
X145929297Y-111569409D01*
X145929295Y-111569408D01*
X145923715Y-111564667D01*
X145917199Y-111561339D01*
X145912150Y-111557972D01*
X145907021Y-111554805D01*
X145901284Y-111550266D01*
X145835125Y-111519345D01*
X145831225Y-111517439D01*
X145830857Y-111517251D01*
X145766192Y-111484231D01*
X145759084Y-111482492D01*
X145753441Y-111480393D01*
X145747678Y-111478476D01*
X145741050Y-111475378D01*
X145669583Y-111460513D01*
X145665299Y-111459543D01*
X145594390Y-111442192D01*
X145588788Y-111441844D01*
X145588785Y-111441844D01*
X145583236Y-111441500D01*
X145583238Y-111441464D01*
X145579245Y-111441225D01*
X145575053Y-111440851D01*
X145567885Y-111439360D01*
X145501675Y-111441151D01*
X145490479Y-111441454D01*
X145487072Y-111441500D01*
X145442587Y-111441500D01*
X145368528Y-111417437D01*
X145362098Y-111412765D01*
X145362091Y-111412761D01*
X145356752Y-111408882D01*
X145350724Y-111406198D01*
X145350722Y-111406197D01*
X145188319Y-111333891D01*
X145188318Y-111333891D01*
X145182288Y-111331206D01*
X145085787Y-111310694D01*
X145001944Y-111292872D01*
X145001939Y-111292872D01*
X144995487Y-111291500D01*
X144804513Y-111291500D01*
X144798061Y-111292872D01*
X144798056Y-111292872D01*
X144714213Y-111310694D01*
X144617712Y-111331206D01*
X144611682Y-111333891D01*
X144611681Y-111333891D01*
X144449278Y-111406197D01*
X144449276Y-111406198D01*
X144443248Y-111408882D01*
X144437907Y-111412762D01*
X144437906Y-111412763D01*
X144431473Y-111417437D01*
X144288747Y-111521134D01*
X144284326Y-111526044D01*
X144284325Y-111526045D01*
X144180229Y-111641656D01*
X144160960Y-111663056D01*
X144065473Y-111828444D01*
X144006458Y-112010072D01*
X144005768Y-112016633D01*
X144005768Y-112016635D01*
X144003173Y-112041330D01*
X143986496Y-112200000D01*
X134990269Y-112200000D01*
X134993542Y-112189928D01*
X135005068Y-112080269D01*
X135012814Y-112006565D01*
X135013504Y-112000000D01*
X135012814Y-111993435D01*
X134994232Y-111816635D01*
X134994232Y-111816633D01*
X134993542Y-111810072D01*
X134934527Y-111628444D01*
X134925813Y-111613350D01*
X134842342Y-111468775D01*
X134842341Y-111468774D01*
X134839040Y-111463056D01*
X134834621Y-111458148D01*
X134832564Y-111455317D01*
X134808705Y-111388449D01*
X134808500Y-111381256D01*
X134808500Y-75569925D01*
X134828502Y-75501804D01*
X134845405Y-75480830D01*
X138480829Y-71845405D01*
X138543141Y-71811379D01*
X138569924Y-71808500D01*
X143749666Y-71808500D01*
X143817787Y-71828502D01*
X143853505Y-71863131D01*
X143982274Y-72050490D01*
X143985161Y-72053663D01*
X143985162Y-72053664D01*
X144151477Y-72236443D01*
X144166582Y-72253043D01*
X144376675Y-72428707D01*
X144380316Y-72430991D01*
X144605024Y-72571951D01*
X144605028Y-72571953D01*
X144608664Y-72574234D01*
X144676544Y-72604883D01*
X144854345Y-72685164D01*
X144854349Y-72685166D01*
X144858257Y-72686930D01*
X144862377Y-72688150D01*
X144862376Y-72688150D01*
X145116723Y-72763491D01*
X145116727Y-72763492D01*
X145120836Y-72764709D01*
X145125070Y-72765357D01*
X145125075Y-72765358D01*
X145387298Y-72805483D01*
X145387300Y-72805483D01*
X145391540Y-72806132D01*
X145530912Y-72808322D01*
X145661071Y-72810367D01*
X145661077Y-72810367D01*
X145665362Y-72810434D01*
X145937235Y-72777534D01*
X146202127Y-72708041D01*
X146206087Y-72706401D01*
X146206092Y-72706399D01*
X146328631Y-72655641D01*
X146455136Y-72603241D01*
X146691582Y-72465073D01*
X146907089Y-72296094D01*
X146910084Y-72293004D01*
X147065926Y-72132187D01*
X147097669Y-72099431D01*
X147100202Y-72095983D01*
X147100206Y-72095978D01*
X147257257Y-71882178D01*
X147259795Y-71878723D01*
X147279495Y-71842441D01*
X147388418Y-71641830D01*
X147388419Y-71641828D01*
X147390468Y-71638054D01*
X147487269Y-71381877D01*
X147537361Y-71163163D01*
X147547449Y-71119117D01*
X147547450Y-71119113D01*
X147548407Y-71114933D01*
X147568402Y-70890897D01*
X147572531Y-70844627D01*
X147572531Y-70844625D01*
X147572751Y-70842161D01*
X147573193Y-70800000D01*
X147573024Y-70797519D01*
X147554859Y-70531055D01*
X147554858Y-70531049D01*
X147554567Y-70526778D01*
X147499032Y-70258612D01*
X147407617Y-70000465D01*
X147307623Y-69806730D01*
X147283978Y-69760919D01*
X147283978Y-69760918D01*
X147282013Y-69757112D01*
X147269380Y-69739136D01*
X147127008Y-69536562D01*
X147124545Y-69533057D01*
X146938125Y-69332445D01*
X146934810Y-69329731D01*
X146934806Y-69329728D01*
X146773304Y-69197540D01*
X146726205Y-69158990D01*
X146492704Y-69015901D01*
X146488768Y-69014173D01*
X146245873Y-68907549D01*
X146245869Y-68907548D01*
X146241945Y-68905825D01*
X145978566Y-68830800D01*
X145974324Y-68830196D01*
X145974318Y-68830195D01*
X145769387Y-68801029D01*
X145707443Y-68792213D01*
X145563589Y-68791460D01*
X145437877Y-68790802D01*
X145437871Y-68790802D01*
X145433591Y-68790780D01*
X145429347Y-68791339D01*
X145429343Y-68791339D01*
X145355741Y-68801029D01*
X145162078Y-68826525D01*
X145157938Y-68827658D01*
X145157936Y-68827658D01*
X145090037Y-68846233D01*
X144897928Y-68898788D01*
X144893980Y-68900472D01*
X144649982Y-69004546D01*
X144649978Y-69004548D01*
X144646030Y-69006232D01*
X144626125Y-69018145D01*
X144414725Y-69144664D01*
X144414721Y-69144667D01*
X144411043Y-69146868D01*
X144197318Y-69318094D01*
X144180717Y-69335588D01*
X144043514Y-69480170D01*
X144008808Y-69516742D01*
X143999342Y-69529916D01*
X143849081Y-69739026D01*
X143793086Y-69782674D01*
X143746758Y-69791500D01*
X138161842Y-69791500D01*
X138148235Y-69790763D01*
X138116737Y-69787341D01*
X138116732Y-69787341D01*
X138110611Y-69786676D01*
X138092611Y-69788251D01*
X138060609Y-69791050D01*
X138055784Y-69791379D01*
X138053313Y-69791500D01*
X138050231Y-69791500D01*
X138027763Y-69793703D01*
X138007489Y-69795691D01*
X138006174Y-69795813D01*
X137973913Y-69798636D01*
X137913587Y-69803913D01*
X137908468Y-69805400D01*
X137903167Y-69805920D01*
X137814194Y-69832782D01*
X137813054Y-69833120D01*
X137723663Y-69859091D01*
X137718929Y-69861545D01*
X137713831Y-69863084D01*
X137708387Y-69865978D01*
X137708386Y-69865979D01*
X137631831Y-69906684D01*
X137630663Y-69907298D01*
X137548074Y-69950108D01*
X137543911Y-69953431D01*
X137539204Y-69955934D01*
X137467082Y-70014755D01*
X137466226Y-70015446D01*
X137427027Y-70046738D01*
X137424523Y-70049242D01*
X137423805Y-70049884D01*
X137419472Y-70053585D01*
X137385938Y-70080935D01*
X137382011Y-70085682D01*
X137382009Y-70085684D01*
X137356713Y-70116262D01*
X137348723Y-70125042D01*
X135239622Y-72234144D01*
X133130621Y-74343145D01*
X133120478Y-74352247D01*
X133090975Y-74375968D01*
X133087008Y-74380696D01*
X133058709Y-74414421D01*
X133055528Y-74418069D01*
X133053885Y-74419881D01*
X133051691Y-74422075D01*
X133024358Y-74455349D01*
X133023696Y-74456147D01*
X132963846Y-74527474D01*
X132961278Y-74532144D01*
X132957897Y-74536261D01*
X132926860Y-74594145D01*
X132914023Y-74618086D01*
X132913394Y-74619245D01*
X132871538Y-74695381D01*
X132871535Y-74695389D01*
X132868567Y-74700787D01*
X132866955Y-74705869D01*
X132864438Y-74710563D01*
X132837238Y-74799531D01*
X132836918Y-74800559D01*
X132808765Y-74889306D01*
X132808171Y-74894602D01*
X132806613Y-74899698D01*
X132805990Y-74905834D01*
X132797218Y-74992187D01*
X132797089Y-74993393D01*
X132791500Y-75043227D01*
X132791500Y-75046754D01*
X132791445Y-75047739D01*
X132790998Y-75053419D01*
X132786626Y-75096462D01*
X128608500Y-75096462D01*
X128608500Y-70332703D01*
X129490743Y-70332703D01*
X129528268Y-70617734D01*
X129604129Y-70895036D01*
X129605813Y-70898984D01*
X129697924Y-71114933D01*
X129716923Y-71159476D01*
X129864561Y-71406161D01*
X130044313Y-71630528D01*
X130061397Y-71646740D01*
X130231857Y-71808500D01*
X130252851Y-71828423D01*
X130486317Y-71996186D01*
X130490112Y-71998195D01*
X130490113Y-71998196D01*
X130511869Y-72009715D01*
X130740392Y-72130712D01*
X131010373Y-72229511D01*
X131291264Y-72290755D01*
X131319841Y-72293004D01*
X131514282Y-72308307D01*
X131514291Y-72308307D01*
X131516739Y-72308500D01*
X131672271Y-72308500D01*
X131674407Y-72308354D01*
X131674418Y-72308354D01*
X131882548Y-72294165D01*
X131882554Y-72294164D01*
X131886825Y-72293873D01*
X131891020Y-72293004D01*
X131891022Y-72293004D01*
X132027583Y-72264724D01*
X132168342Y-72235574D01*
X132439343Y-72139607D01*
X132694812Y-72007750D01*
X132698313Y-72005289D01*
X132698317Y-72005287D01*
X132883760Y-71874955D01*
X132930023Y-71842441D01*
X133140622Y-71646740D01*
X133322713Y-71424268D01*
X133472927Y-71179142D01*
X133588483Y-70915898D01*
X133621498Y-70800000D01*
X133666068Y-70643534D01*
X133667244Y-70639406D01*
X133707751Y-70354784D01*
X133707845Y-70336951D01*
X133709235Y-70071583D01*
X133709235Y-70071576D01*
X133709257Y-70067297D01*
X133707455Y-70053604D01*
X133682503Y-69864080D01*
X133671732Y-69782266D01*
X133595871Y-69504964D01*
X133521126Y-69329728D01*
X133484763Y-69244476D01*
X133484761Y-69244472D01*
X133483077Y-69240524D01*
X133335439Y-68993839D01*
X133155687Y-68769472D01*
X132947149Y-68571577D01*
X132713683Y-68403814D01*
X132691843Y-68392250D01*
X132668654Y-68379972D01*
X132459608Y-68269288D01*
X132189627Y-68170489D01*
X131908736Y-68109245D01*
X131877685Y-68106801D01*
X131685718Y-68091693D01*
X131685709Y-68091693D01*
X131683261Y-68091500D01*
X131527729Y-68091500D01*
X131525593Y-68091646D01*
X131525582Y-68091646D01*
X131317452Y-68105835D01*
X131317446Y-68105836D01*
X131313175Y-68106127D01*
X131308980Y-68106996D01*
X131308978Y-68106996D01*
X131172417Y-68135276D01*
X131031658Y-68164426D01*
X130760657Y-68260393D01*
X130505188Y-68392250D01*
X130501687Y-68394711D01*
X130501683Y-68394713D01*
X130491594Y-68401804D01*
X130269977Y-68557559D01*
X130059378Y-68753260D01*
X129877287Y-68975732D01*
X129727073Y-69220858D01*
X129725347Y-69224791D01*
X129725346Y-69224792D01*
X129684389Y-69318094D01*
X129611517Y-69484102D01*
X129610342Y-69488229D01*
X129610341Y-69488230D01*
X129597572Y-69533057D01*
X129532756Y-69760594D01*
X129492249Y-70045216D01*
X129492227Y-70049505D01*
X129492226Y-70049512D01*
X129491152Y-70254574D01*
X129490743Y-70332703D01*
X128608500Y-70332703D01*
X128608500Y-67334500D01*
X128628502Y-67266379D01*
X128682158Y-67219886D01*
X128734500Y-67208500D01*
X167465500Y-67208500D01*
X167533621Y-67228502D01*
G37*
%TD.AperFunction*%
%TA.AperFunction,Conductor*%
G36*
X152301750Y-99978502D02*
G01*
X152322724Y-99995405D01*
X152604595Y-100277276D01*
X152638621Y-100339588D01*
X152641500Y-100366371D01*
X152641500Y-107732930D01*
X152640067Y-107751880D01*
X152639059Y-107758508D01*
X152636801Y-107773349D01*
X152637394Y-107780641D01*
X152637394Y-107780644D01*
X152641085Y-107826018D01*
X152641500Y-107836233D01*
X152641500Y-107844293D01*
X152641925Y-107847937D01*
X152644789Y-107872507D01*
X152645222Y-107876882D01*
X152651140Y-107949637D01*
X152653396Y-107956601D01*
X152654587Y-107962560D01*
X152655971Y-107968415D01*
X152656818Y-107975681D01*
X152681735Y-108044327D01*
X152683152Y-108048455D01*
X152705649Y-108117899D01*
X152709445Y-108124154D01*
X152711951Y-108129628D01*
X152714670Y-108135058D01*
X152717167Y-108141937D01*
X152721180Y-108148057D01*
X152721180Y-108148058D01*
X152757186Y-108202976D01*
X152759523Y-108206680D01*
X152797405Y-108269107D01*
X152801121Y-108273315D01*
X152801122Y-108273316D01*
X152804803Y-108277484D01*
X152804776Y-108277508D01*
X152807429Y-108280500D01*
X152810132Y-108283733D01*
X152814144Y-108289852D01*
X152819456Y-108294884D01*
X152870383Y-108343128D01*
X152872825Y-108345506D01*
X154216230Y-109688911D01*
X154228616Y-109703323D01*
X154237149Y-109714918D01*
X154237154Y-109714923D01*
X154241492Y-109720818D01*
X154247070Y-109725557D01*
X154247073Y-109725560D01*
X154281768Y-109755035D01*
X154289284Y-109761965D01*
X154294979Y-109767660D01*
X154297861Y-109769940D01*
X154317251Y-109785281D01*
X154320655Y-109788072D01*
X154370703Y-109830591D01*
X154376285Y-109835333D01*
X154382801Y-109838661D01*
X154387850Y-109842028D01*
X154392979Y-109845195D01*
X154398716Y-109849734D01*
X154464875Y-109880655D01*
X154468769Y-109882558D01*
X154533808Y-109915769D01*
X154540916Y-109917508D01*
X154546559Y-109919607D01*
X154552322Y-109921524D01*
X154558950Y-109924622D01*
X154566112Y-109926112D01*
X154566113Y-109926112D01*
X154630412Y-109939486D01*
X154634696Y-109940456D01*
X154705610Y-109957808D01*
X154711212Y-109958156D01*
X154711215Y-109958156D01*
X154716764Y-109958500D01*
X154716762Y-109958536D01*
X154720755Y-109958775D01*
X154724947Y-109959149D01*
X154732115Y-109960640D01*
X154809520Y-109958546D01*
X154812928Y-109958500D01*
X157164629Y-109958500D01*
X157232750Y-109978502D01*
X157279243Y-110032158D01*
X157289347Y-110102432D01*
X157259853Y-110167012D01*
X157253724Y-110173595D01*
X157022724Y-110404595D01*
X156960412Y-110438621D01*
X156933629Y-110441500D01*
X154641757Y-110441500D01*
X154573636Y-110421498D01*
X154552662Y-110404595D01*
X152395405Y-108247338D01*
X152361379Y-108185026D01*
X152358500Y-108158243D01*
X152358500Y-102967070D01*
X152359933Y-102948120D01*
X152362099Y-102933885D01*
X152362099Y-102933881D01*
X152363199Y-102926651D01*
X152358915Y-102873982D01*
X152358500Y-102863767D01*
X152358500Y-102855707D01*
X152355211Y-102827493D01*
X152354778Y-102823118D01*
X152349454Y-102757661D01*
X152349453Y-102757658D01*
X152348860Y-102750363D01*
X152346604Y-102743399D01*
X152345413Y-102737440D01*
X152344029Y-102731585D01*
X152343182Y-102724319D01*
X152318265Y-102655673D01*
X152316848Y-102651545D01*
X152296607Y-102589064D01*
X152296606Y-102589062D01*
X152294351Y-102582101D01*
X152290555Y-102575846D01*
X152288049Y-102570372D01*
X152285330Y-102564942D01*
X152282833Y-102558063D01*
X152242814Y-102497024D01*
X152240467Y-102493305D01*
X152202595Y-102430893D01*
X152195197Y-102422516D01*
X152195224Y-102422492D01*
X152192571Y-102419500D01*
X152189868Y-102416267D01*
X152185856Y-102410148D01*
X152129617Y-102356872D01*
X152127175Y-102354494D01*
X150965312Y-101192631D01*
X150931286Y-101130319D01*
X150936351Y-101059504D01*
X150978898Y-101002668D01*
X151028209Y-100980290D01*
X151075824Y-100970169D01*
X151075833Y-100970166D01*
X151082288Y-100968794D01*
X151095176Y-100963056D01*
X151250722Y-100893803D01*
X151250724Y-100893802D01*
X151256752Y-100891118D01*
X151411253Y-100778866D01*
X151439146Y-100747888D01*
X151534621Y-100641852D01*
X151534622Y-100641851D01*
X151539040Y-100636944D01*
X151609445Y-100515000D01*
X151631223Y-100477279D01*
X151631224Y-100477278D01*
X151634527Y-100471556D01*
X151689387Y-100302714D01*
X151720125Y-100252556D01*
X151977276Y-99995405D01*
X152039588Y-99961379D01*
X152066371Y-99958500D01*
X152233629Y-99958500D01*
X152301750Y-99978502D01*
G37*
%TD.AperFunction*%
%TD*%
M02*
