%TF.GenerationSoftware,KiCad,Pcbnew,8.0.1*%
%TF.CreationDate,2024-07-13T23:12:29+02:00*%
%TF.ProjectId,SignalsPort,5369676e-616c-4735-906f-72742e6b6963,rev?*%
%TF.SameCoordinates,Original*%
%TF.FileFunction,Copper,L1,Top*%
%TF.FilePolarity,Positive*%
%FSLAX46Y46*%
G04 Gerber Fmt 4.6, Leading zero omitted, Abs format (unit mm)*
G04 Created by KiCad (PCBNEW 8.0.1) date 2024-07-13 23:12:29*
%MOMM*%
%LPD*%
G01*
G04 APERTURE LIST*
G04 Aperture macros list*
%AMRoundRect*
0 Rectangle with rounded corners*
0 $1 Rounding radius*
0 $2 $3 $4 $5 $6 $7 $8 $9 X,Y pos of 4 corners*
0 Add a 4 corners polygon primitive as box body*
4,1,4,$2,$3,$4,$5,$6,$7,$8,$9,$2,$3,0*
0 Add four circle primitives for the rounded corners*
1,1,$1+$1,$2,$3*
1,1,$1+$1,$4,$5*
1,1,$1+$1,$6,$7*
1,1,$1+$1,$8,$9*
0 Add four rect primitives between the rounded corners*
20,1,$1+$1,$2,$3,$4,$5,0*
20,1,$1+$1,$4,$5,$6,$7,0*
20,1,$1+$1,$6,$7,$8,$9,0*
20,1,$1+$1,$8,$9,$2,$3,0*%
G04 Aperture macros list end*
%TA.AperFunction,SMDPad,CuDef*%
%ADD10RoundRect,0.250000X1.300000X-0.350000X1.300000X0.350000X-1.300000X0.350000X-1.300000X-0.350000X0*%
%TD*%
%TA.AperFunction,SMDPad,CuDef*%
%ADD11RoundRect,0.250001X1.399999X-0.899999X1.399999X0.899999X-1.399999X0.899999X-1.399999X-0.899999X0*%
%TD*%
%TA.AperFunction,SMDPad,CuDef*%
%ADD12RoundRect,0.250000X0.325000X0.450000X-0.325000X0.450000X-0.325000X-0.450000X0.325000X-0.450000X0*%
%TD*%
%TA.AperFunction,ComponentPad*%
%ADD13R,1.700000X1.700000*%
%TD*%
%TA.AperFunction,ComponentPad*%
%ADD14O,1.700000X1.700000*%
%TD*%
%TA.AperFunction,SMDPad,CuDef*%
%ADD15RoundRect,0.250000X0.625000X-0.400000X0.625000X0.400000X-0.625000X0.400000X-0.625000X-0.400000X0*%
%TD*%
%TA.AperFunction,Conductor*%
%ADD16C,1.000000*%
%TD*%
G04 APERTURE END LIST*
D10*
%TO.P,J3,1,Pin_1*%
%TO.N,Net-(D1-A)*%
X145900000Y-109000000D03*
%TO.P,J3,2,Pin_2*%
%TO.N,+6V*%
X145900000Y-107000000D03*
%TO.P,J3,3,Pin_3*%
%TO.N,Net-(J1-Pin_3)*%
X145900000Y-105000000D03*
%TO.P,J3,4,Pin_4*%
%TO.N,GNDREF*%
X145900000Y-103000000D03*
D11*
%TO.P,J3,MP*%
%TO.N,N/C*%
X151500000Y-113520000D03*
X151500000Y-98480000D03*
%TD*%
D12*
%TO.P,D1,1,K*%
%TO.N,GNDREF*%
X132925000Y-96500000D03*
%TO.P,D1,2,A*%
%TO.N,Net-(D1-A)*%
X130875000Y-96500000D03*
%TD*%
D13*
%TO.P,J2,1,Pin_1*%
%TO.N,GNDREF*%
X123175000Y-90575000D03*
D14*
%TO.P,J2,2,Pin_2*%
%TO.N,+6V*%
X125715000Y-90575000D03*
%TO.P,J2,3,Pin_3*%
%TO.N,Net-(J2-Pin_3)*%
X128255000Y-90575000D03*
%TD*%
D15*
%TO.P,R1,1*%
%TO.N,Net-(D1-A)*%
X128200000Y-96450000D03*
%TO.P,R1,2*%
%TO.N,Net-(J2-Pin_3)*%
X128200000Y-93350000D03*
%TD*%
D13*
%TO.P,J1,1,Pin_1*%
%TO.N,GNDREF*%
X139675000Y-90575000D03*
D14*
%TO.P,J1,2,Pin_2*%
%TO.N,+6V*%
X142215000Y-90575000D03*
%TO.P,J1,3,Pin_3*%
%TO.N,Net-(J1-Pin_3)*%
X144755000Y-90575000D03*
%TD*%
D16*
%TO.N,+6V*%
X144340000Y-96440000D02*
X150100000Y-102200000D01*
X138700000Y-111400000D02*
X125660000Y-98360000D01*
X142215000Y-94415000D02*
X144240000Y-96440000D01*
X125660000Y-90630000D02*
X125715000Y-90575000D01*
X150100000Y-109600000D02*
X148300000Y-111400000D01*
X145900000Y-107000000D02*
X150100000Y-107000000D01*
X150100000Y-107000000D02*
X150100000Y-109600000D01*
X125660000Y-98360000D02*
X125660000Y-90630000D01*
X142215000Y-90575000D02*
X142215000Y-94415000D01*
X148300000Y-111400000D02*
X138700000Y-111400000D01*
X144240000Y-96440000D02*
X144340000Y-96440000D01*
X150100000Y-102200000D02*
X150100000Y-107000000D01*
%TO.N,GNDREF*%
X139675000Y-99275000D02*
X139675000Y-90575000D01*
X151500000Y-113520000D02*
X138840102Y-113520000D01*
X123200000Y-88900000D02*
X123200000Y-89400000D01*
X138840102Y-113520000D02*
X123120000Y-97799898D01*
X132925000Y-90425000D02*
X130400000Y-87900000D01*
X123120000Y-97799898D02*
X123120000Y-90630000D01*
X123175000Y-89425000D02*
X123175000Y-90575000D01*
X130400000Y-87900000D02*
X124200000Y-87900000D01*
X123120000Y-90630000D02*
X123175000Y-90575000D01*
X124200000Y-87900000D02*
X123200000Y-88900000D01*
X151500000Y-113520000D02*
X151500000Y-98480000D01*
X123200000Y-89400000D02*
X123175000Y-89425000D01*
X132925000Y-96500000D02*
X132925000Y-90425000D01*
X143400000Y-103000000D02*
X139675000Y-99275000D01*
X145900000Y-103000000D02*
X143400000Y-103000000D01*
%TO.N,Net-(J1-Pin_3)*%
X137000000Y-99600000D02*
X142400000Y-105000000D01*
X144755000Y-89455000D02*
X143100000Y-87800000D01*
X143100000Y-87800000D02*
X139000000Y-87800000D01*
X139000000Y-87800000D02*
X137000000Y-89800000D01*
X144755000Y-90575000D02*
X144755000Y-89455000D01*
X142400000Y-105000000D02*
X145900000Y-105000000D01*
X137000000Y-89800000D02*
X137000000Y-99600000D01*
%TO.N,Net-(J2-Pin_3)*%
X128255000Y-90575000D02*
X128200000Y-90630000D01*
%TO.N,Net-(D1-A)*%
X128200000Y-98000000D02*
X139200000Y-109000000D01*
X139200000Y-109000000D02*
X145900000Y-109000000D01*
X128200000Y-98000000D02*
X128200000Y-96450000D01*
X130825000Y-96450000D02*
X130875000Y-96500000D01*
X128200000Y-96450000D02*
X130825000Y-96450000D01*
%TD*%
%TA.AperFunction,Conductor*%
%TO.N,GNDREF*%
G36*
X138353647Y-86820185D02*
G01*
X138399402Y-86872989D01*
X138409346Y-86942147D01*
X138380321Y-87005703D01*
X138365275Y-87020352D01*
X138362218Y-87022860D01*
X138292540Y-87092539D01*
X138222861Y-87162218D01*
X138222858Y-87162221D01*
X136362221Y-89022858D01*
X136362218Y-89022861D01*
X136301726Y-89083353D01*
X136222859Y-89162219D01*
X136113371Y-89326079D01*
X136113364Y-89326092D01*
X136037950Y-89508160D01*
X136037947Y-89508170D01*
X135999500Y-89701456D01*
X135999500Y-89701459D01*
X135999500Y-99698541D01*
X135999500Y-99698543D01*
X135999499Y-99698543D01*
X136037947Y-99891829D01*
X136037950Y-99891839D01*
X136113364Y-100073907D01*
X136113371Y-100073920D01*
X136222860Y-100237781D01*
X136222863Y-100237785D01*
X136366537Y-100381459D01*
X136366559Y-100381479D01*
X141619735Y-105634655D01*
X141619764Y-105634686D01*
X141762214Y-105777136D01*
X141762218Y-105777139D01*
X141926079Y-105886628D01*
X141926092Y-105886635D01*
X142054833Y-105939961D01*
X142097744Y-105957735D01*
X142108164Y-105962051D01*
X142204812Y-105981275D01*
X142240098Y-105988294D01*
X142301458Y-106000500D01*
X142301459Y-106000500D01*
X142301460Y-106000500D01*
X142498540Y-106000500D01*
X143896659Y-106000500D01*
X143963698Y-106020185D01*
X144009453Y-106072989D01*
X144019397Y-106142147D01*
X144002198Y-106189596D01*
X143915189Y-106330659D01*
X143915186Y-106330666D01*
X143860001Y-106497203D01*
X143860001Y-106497204D01*
X143860000Y-106497204D01*
X143849500Y-106599983D01*
X143849500Y-107400001D01*
X143849501Y-107400019D01*
X143860000Y-107502796D01*
X143860001Y-107502799D01*
X143915185Y-107669331D01*
X143915189Y-107669340D01*
X144002198Y-107810404D01*
X144020638Y-107877796D01*
X143999715Y-107944459D01*
X143946073Y-107989229D01*
X143896659Y-107999500D01*
X139665782Y-107999500D01*
X139598743Y-107979815D01*
X139578101Y-107963181D01*
X129277101Y-97662181D01*
X129243616Y-97600858D01*
X129248600Y-97531166D01*
X129290472Y-97475233D01*
X129355936Y-97450816D01*
X129364782Y-97450500D01*
X129937770Y-97450500D01*
X130004809Y-97470185D01*
X130025451Y-97486819D01*
X130081344Y-97542712D01*
X130230666Y-97634814D01*
X130397203Y-97689999D01*
X130499991Y-97700500D01*
X131250008Y-97700499D01*
X131250016Y-97700498D01*
X131250019Y-97700498D01*
X131306302Y-97694748D01*
X131352797Y-97689999D01*
X131519334Y-97634814D01*
X131668656Y-97542712D01*
X131792712Y-97418656D01*
X131794752Y-97415347D01*
X131796745Y-97413555D01*
X131797193Y-97412989D01*
X131797289Y-97413065D01*
X131846694Y-97368623D01*
X131915656Y-97357395D01*
X131979740Y-97385234D01*
X132005829Y-97415339D01*
X132007681Y-97418341D01*
X132007683Y-97418344D01*
X132131654Y-97542315D01*
X132280875Y-97634356D01*
X132280880Y-97634358D01*
X132447302Y-97689505D01*
X132447309Y-97689506D01*
X132550019Y-97699999D01*
X132674999Y-97699999D01*
X132675000Y-97699998D01*
X132675000Y-96750000D01*
X133175000Y-96750000D01*
X133175000Y-97699999D01*
X133299972Y-97699999D01*
X133299986Y-97699998D01*
X133402697Y-97689505D01*
X133569119Y-97634358D01*
X133569124Y-97634356D01*
X133718345Y-97542315D01*
X133842315Y-97418345D01*
X133934356Y-97269124D01*
X133934358Y-97269119D01*
X133989505Y-97102697D01*
X133989506Y-97102690D01*
X133999999Y-96999986D01*
X134000000Y-96999973D01*
X134000000Y-96750000D01*
X133175000Y-96750000D01*
X132675000Y-96750000D01*
X132675000Y-95300000D01*
X133175000Y-95300000D01*
X133175000Y-96250000D01*
X133999999Y-96250000D01*
X133999999Y-96000028D01*
X133999998Y-96000013D01*
X133989505Y-95897302D01*
X133934358Y-95730880D01*
X133934356Y-95730875D01*
X133842315Y-95581654D01*
X133718345Y-95457684D01*
X133569124Y-95365643D01*
X133569119Y-95365641D01*
X133402697Y-95310494D01*
X133402690Y-95310493D01*
X133299986Y-95300000D01*
X133175000Y-95300000D01*
X132675000Y-95300000D01*
X132550027Y-95300000D01*
X132550012Y-95300001D01*
X132447302Y-95310494D01*
X132280880Y-95365641D01*
X132280875Y-95365643D01*
X132131654Y-95457684D01*
X132007683Y-95581655D01*
X132007679Y-95581660D01*
X132005826Y-95584665D01*
X132004018Y-95586290D01*
X132003202Y-95587323D01*
X132003025Y-95587183D01*
X131953874Y-95631385D01*
X131884911Y-95642601D01*
X131820831Y-95614752D01*
X131794753Y-95584653D01*
X131794737Y-95584628D01*
X131792712Y-95581344D01*
X131668656Y-95457288D01*
X131519334Y-95365186D01*
X131352797Y-95310001D01*
X131352795Y-95310000D01*
X131250010Y-95299500D01*
X130499998Y-95299500D01*
X130499980Y-95299501D01*
X130397203Y-95310000D01*
X130397200Y-95310001D01*
X130230668Y-95365185D01*
X130230659Y-95365189D01*
X130123900Y-95431039D01*
X130058804Y-95449500D01*
X129316196Y-95449500D01*
X129251100Y-95431039D01*
X129144340Y-95365189D01*
X129144335Y-95365187D01*
X129144334Y-95365186D01*
X128977797Y-95310001D01*
X128977795Y-95310000D01*
X128875010Y-95299500D01*
X127524998Y-95299500D01*
X127524981Y-95299501D01*
X127422203Y-95310000D01*
X127422200Y-95310001D01*
X127255668Y-95365185D01*
X127255663Y-95365187D01*
X127106342Y-95457289D01*
X126982289Y-95581342D01*
X126979237Y-95586290D01*
X126907288Y-95702940D01*
X126890039Y-95730905D01*
X126838091Y-95777629D01*
X126769129Y-95788852D01*
X126705046Y-95761008D01*
X126666190Y-95702940D01*
X126660500Y-95665808D01*
X126660500Y-94134191D01*
X126680185Y-94067152D01*
X126732989Y-94021397D01*
X126802147Y-94011453D01*
X126865703Y-94040478D01*
X126890039Y-94069095D01*
X126890185Y-94069331D01*
X126890186Y-94069334D01*
X126982288Y-94218656D01*
X127106344Y-94342712D01*
X127255666Y-94434814D01*
X127422203Y-94489999D01*
X127524991Y-94500500D01*
X128875008Y-94500499D01*
X128977797Y-94489999D01*
X129144334Y-94434814D01*
X129293656Y-94342712D01*
X129417712Y-94218656D01*
X129509814Y-94069334D01*
X129564999Y-93902797D01*
X129575500Y-93800009D01*
X129575499Y-92899992D01*
X129564999Y-92797203D01*
X129509814Y-92630666D01*
X129417712Y-92481344D01*
X129293656Y-92357288D01*
X129144334Y-92265186D01*
X128977797Y-92210001D01*
X128977795Y-92210000D01*
X128875010Y-92199500D01*
X127524998Y-92199500D01*
X127524981Y-92199501D01*
X127422203Y-92210000D01*
X127422200Y-92210001D01*
X127255668Y-92265185D01*
X127255663Y-92265187D01*
X127106342Y-92357289D01*
X126982289Y-92481342D01*
X126982288Y-92481344D01*
X126907288Y-92602940D01*
X126890039Y-92630905D01*
X126838091Y-92677629D01*
X126769129Y-92688852D01*
X126705046Y-92661008D01*
X126666190Y-92602940D01*
X126660500Y-92565808D01*
X126660500Y-91590758D01*
X126680185Y-91523719D01*
X126696819Y-91503077D01*
X126715500Y-91484396D01*
X126753495Y-91446401D01*
X126883425Y-91260842D01*
X126938002Y-91217217D01*
X127007500Y-91210023D01*
X127069855Y-91241546D01*
X127086575Y-91260842D01*
X127216500Y-91446395D01*
X127216505Y-91446401D01*
X127383599Y-91613495D01*
X127460135Y-91667086D01*
X127577165Y-91749032D01*
X127577167Y-91749033D01*
X127577170Y-91749035D01*
X127791337Y-91848903D01*
X128019592Y-91910063D01*
X128190319Y-91925000D01*
X128254999Y-91930659D01*
X128255000Y-91930659D01*
X128255001Y-91930659D01*
X128319681Y-91925000D01*
X128490408Y-91910063D01*
X128718663Y-91848903D01*
X128932830Y-91749035D01*
X129126401Y-91613495D01*
X129293495Y-91446401D01*
X129429035Y-91252830D01*
X129528903Y-91038663D01*
X129590063Y-90810408D01*
X129610659Y-90575000D01*
X129590063Y-90339592D01*
X129528903Y-90111337D01*
X129429035Y-89897171D01*
X129423425Y-89889158D01*
X129293494Y-89703597D01*
X129126402Y-89536506D01*
X129126395Y-89536501D01*
X129115021Y-89528537D01*
X129083447Y-89506428D01*
X128932834Y-89400967D01*
X128932830Y-89400965D01*
X128861727Y-89367809D01*
X128718663Y-89301097D01*
X128718659Y-89301096D01*
X128718655Y-89301094D01*
X128490413Y-89239938D01*
X128490403Y-89239936D01*
X128255001Y-89219341D01*
X128254999Y-89219341D01*
X128019596Y-89239936D01*
X128019586Y-89239938D01*
X127791344Y-89301094D01*
X127791335Y-89301098D01*
X127577171Y-89400964D01*
X127577169Y-89400965D01*
X127383597Y-89536505D01*
X127216505Y-89703597D01*
X127086575Y-89889158D01*
X127031998Y-89932783D01*
X126962500Y-89939977D01*
X126900145Y-89908454D01*
X126883425Y-89889158D01*
X126753494Y-89703597D01*
X126586402Y-89536506D01*
X126586395Y-89536501D01*
X126575021Y-89528537D01*
X126543447Y-89506428D01*
X126392834Y-89400967D01*
X126392830Y-89400965D01*
X126321727Y-89367809D01*
X126178663Y-89301097D01*
X126178659Y-89301096D01*
X126178655Y-89301094D01*
X125950413Y-89239938D01*
X125950403Y-89239936D01*
X125715001Y-89219341D01*
X125714999Y-89219341D01*
X125479596Y-89239936D01*
X125479586Y-89239938D01*
X125251344Y-89301094D01*
X125251335Y-89301098D01*
X125037171Y-89400964D01*
X125037169Y-89400965D01*
X124843600Y-89536503D01*
X124721284Y-89658819D01*
X124659961Y-89692303D01*
X124590269Y-89687319D01*
X124534336Y-89645447D01*
X124517421Y-89614470D01*
X124468354Y-89482913D01*
X124468350Y-89482906D01*
X124382190Y-89367812D01*
X124382187Y-89367809D01*
X124267093Y-89281649D01*
X124267086Y-89281645D01*
X124132379Y-89231403D01*
X124132372Y-89231401D01*
X124072844Y-89225000D01*
X123425000Y-89225000D01*
X123425000Y-90141988D01*
X123367993Y-90109075D01*
X123240826Y-90075000D01*
X123109174Y-90075000D01*
X122982007Y-90109075D01*
X122925000Y-90141988D01*
X122925000Y-89225000D01*
X122277155Y-89225000D01*
X122217627Y-89231401D01*
X122217620Y-89231403D01*
X122082913Y-89281645D01*
X122082906Y-89281649D01*
X121967812Y-89367809D01*
X121967809Y-89367812D01*
X121881649Y-89482906D01*
X121881645Y-89482913D01*
X121831403Y-89617620D01*
X121831401Y-89617627D01*
X121825000Y-89677155D01*
X121825000Y-90325000D01*
X122741988Y-90325000D01*
X122709075Y-90382007D01*
X122675000Y-90509174D01*
X122675000Y-90640826D01*
X122709075Y-90767993D01*
X122741988Y-90825000D01*
X121825000Y-90825000D01*
X121825000Y-91472844D01*
X121831401Y-91532372D01*
X121831403Y-91532379D01*
X121881645Y-91667086D01*
X121881649Y-91667093D01*
X121967809Y-91782187D01*
X121967812Y-91782190D01*
X122082906Y-91868350D01*
X122082913Y-91868354D01*
X122217620Y-91918596D01*
X122217627Y-91918598D01*
X122277155Y-91924999D01*
X122277172Y-91925000D01*
X122925000Y-91925000D01*
X122925000Y-91008012D01*
X122982007Y-91040925D01*
X123109174Y-91075000D01*
X123240826Y-91075000D01*
X123367993Y-91040925D01*
X123425000Y-91008012D01*
X123425000Y-91925000D01*
X124072828Y-91925000D01*
X124072844Y-91924999D01*
X124132372Y-91918598D01*
X124132379Y-91918596D01*
X124267086Y-91868354D01*
X124267093Y-91868350D01*
X124382186Y-91782190D01*
X124436233Y-91709995D01*
X124492167Y-91668124D01*
X124561859Y-91663140D01*
X124623182Y-91696625D01*
X124656666Y-91757949D01*
X124659500Y-91784306D01*
X124659500Y-98458544D01*
X124695152Y-98637779D01*
X124697948Y-98651834D01*
X124697949Y-98651838D01*
X124773364Y-98833907D01*
X124773371Y-98833920D01*
X124882860Y-98997781D01*
X124882863Y-98997785D01*
X125026537Y-99141459D01*
X125026559Y-99141479D01*
X137919735Y-112034655D01*
X137919764Y-112034686D01*
X138062214Y-112177136D01*
X138062218Y-112177139D01*
X138226079Y-112286628D01*
X138226092Y-112286635D01*
X138354833Y-112339961D01*
X138397744Y-112357735D01*
X138408164Y-112362051D01*
X138504812Y-112381275D01*
X138553135Y-112390887D01*
X138601458Y-112400500D01*
X138601459Y-112400500D01*
X148398542Y-112400500D01*
X148417870Y-112396655D01*
X148495188Y-112381275D01*
X148591836Y-112362051D01*
X148645165Y-112339961D01*
X148773914Y-112286632D01*
X148937782Y-112177139D01*
X149077139Y-112037782D01*
X149077139Y-112037780D01*
X149087347Y-112027573D01*
X149087348Y-112027570D01*
X150877139Y-110237782D01*
X150986631Y-110073915D01*
X150986632Y-110073914D01*
X151062051Y-109891835D01*
X151100500Y-109698541D01*
X151100500Y-106901459D01*
X151100500Y-102101459D01*
X151100500Y-102101456D01*
X151062052Y-101908170D01*
X151062051Y-101908169D01*
X151062051Y-101908165D01*
X151058669Y-101900000D01*
X150986635Y-101726092D01*
X150986628Y-101726079D01*
X150877139Y-101562218D01*
X150877136Y-101562214D01*
X150734686Y-101419764D01*
X150734655Y-101419735D01*
X149484526Y-100169606D01*
X149451041Y-100108283D01*
X149456025Y-100038591D01*
X149497897Y-99982658D01*
X149563361Y-99958241D01*
X149631634Y-99973093D01*
X149637304Y-99976387D01*
X149780662Y-100064812D01*
X149780664Y-100064813D01*
X149780666Y-100064814D01*
X149947203Y-100119999D01*
X150049992Y-100130500D01*
X150049997Y-100130500D01*
X152950003Y-100130500D01*
X152950008Y-100130500D01*
X153052797Y-100119999D01*
X153219334Y-100064814D01*
X153368655Y-99972711D01*
X153387819Y-99953547D01*
X153449142Y-99920062D01*
X153518834Y-99925046D01*
X153574767Y-99966918D01*
X153599184Y-100032382D01*
X153599500Y-100041228D01*
X153599500Y-111958772D01*
X153579815Y-112025811D01*
X153527011Y-112071566D01*
X153457853Y-112081510D01*
X153394297Y-112052485D01*
X153387819Y-112046453D01*
X153368655Y-112027289D01*
X153368651Y-112027286D01*
X153219337Y-111935187D01*
X153219335Y-111935186D01*
X153136065Y-111907593D01*
X153052797Y-111880001D01*
X153052795Y-111880000D01*
X152950015Y-111869500D01*
X152950008Y-111869500D01*
X150049992Y-111869500D01*
X150049984Y-111869500D01*
X149947204Y-111880000D01*
X149947203Y-111880001D01*
X149780664Y-111935186D01*
X149780662Y-111935187D01*
X149631348Y-112027286D01*
X149631344Y-112027289D01*
X149507289Y-112151344D01*
X149507286Y-112151348D01*
X149415187Y-112300662D01*
X149415186Y-112300664D01*
X149360001Y-112467203D01*
X149360000Y-112467204D01*
X149349500Y-112569984D01*
X149349500Y-114470015D01*
X149360000Y-114572795D01*
X149360001Y-114572796D01*
X149415186Y-114739335D01*
X149415187Y-114739337D01*
X149507286Y-114888651D01*
X149507289Y-114888655D01*
X149631344Y-115012710D01*
X149631348Y-115012713D01*
X149780662Y-115104812D01*
X149780664Y-115104813D01*
X149780666Y-115104814D01*
X149947203Y-115159999D01*
X150049992Y-115170500D01*
X150049997Y-115170500D01*
X152950003Y-115170500D01*
X152950008Y-115170500D01*
X153052797Y-115159999D01*
X153219334Y-115104814D01*
X153368655Y-115012711D01*
X153387819Y-114993547D01*
X153449142Y-114960062D01*
X153518834Y-114965046D01*
X153574767Y-115006918D01*
X153599184Y-115072382D01*
X153599500Y-115081228D01*
X153599500Y-115375500D01*
X153579815Y-115442539D01*
X153527011Y-115488294D01*
X153475500Y-115499500D01*
X116724500Y-115499500D01*
X116657461Y-115479815D01*
X116611706Y-115427011D01*
X116600500Y-115375500D01*
X116600500Y-86924500D01*
X116620185Y-86857461D01*
X116672989Y-86811706D01*
X116724500Y-86800500D01*
X138286608Y-86800500D01*
X138353647Y-86820185D01*
G37*
%TD.AperFunction*%
%TA.AperFunction,Conductor*%
G36*
X138244334Y-90073100D02*
G01*
X138300267Y-90114972D01*
X138324684Y-90180436D01*
X138325000Y-90189282D01*
X138325000Y-90325000D01*
X139241988Y-90325000D01*
X139209075Y-90382007D01*
X139175000Y-90509174D01*
X139175000Y-90640826D01*
X139209075Y-90767993D01*
X139241988Y-90825000D01*
X138325000Y-90825000D01*
X138325000Y-91472844D01*
X138331401Y-91532372D01*
X138331403Y-91532379D01*
X138381645Y-91667086D01*
X138381649Y-91667093D01*
X138467809Y-91782187D01*
X138467812Y-91782190D01*
X138582906Y-91868350D01*
X138582913Y-91868354D01*
X138717620Y-91918596D01*
X138717627Y-91918598D01*
X138777155Y-91924999D01*
X138777172Y-91925000D01*
X139425000Y-91925000D01*
X139425000Y-91008012D01*
X139482007Y-91040925D01*
X139609174Y-91075000D01*
X139740826Y-91075000D01*
X139867993Y-91040925D01*
X139925000Y-91008012D01*
X139925000Y-91925000D01*
X140572828Y-91925000D01*
X140572844Y-91924999D01*
X140632372Y-91918598D01*
X140632379Y-91918596D01*
X140767086Y-91868354D01*
X140767093Y-91868350D01*
X140882187Y-91782190D01*
X140882190Y-91782187D01*
X140968350Y-91667093D01*
X140968354Y-91667086D01*
X140974318Y-91651097D01*
X141016189Y-91595163D01*
X141081653Y-91570746D01*
X141149926Y-91585597D01*
X141199332Y-91635002D01*
X141214500Y-91694430D01*
X141214500Y-94513541D01*
X141214500Y-94513543D01*
X141214499Y-94513543D01*
X141252947Y-94706829D01*
X141252950Y-94706839D01*
X141328364Y-94888907D01*
X141328371Y-94888920D01*
X141437859Y-95052780D01*
X141437860Y-95052781D01*
X141437861Y-95052782D01*
X141577218Y-95192139D01*
X141577219Y-95192139D01*
X141584286Y-95199206D01*
X141584285Y-95199206D01*
X141584288Y-95199208D01*
X143462860Y-97077781D01*
X143462861Y-97077782D01*
X143552231Y-97167152D01*
X143602219Y-97217140D01*
X143766079Y-97326628D01*
X143766086Y-97326632D01*
X143821187Y-97349455D01*
X143861415Y-97376335D01*
X149063181Y-102578101D01*
X149096666Y-102639424D01*
X149099500Y-102665782D01*
X149099500Y-105875500D01*
X149079815Y-105942539D01*
X149027011Y-105988294D01*
X148975500Y-105999500D01*
X147903341Y-105999500D01*
X147836302Y-105979815D01*
X147790547Y-105927011D01*
X147780603Y-105857853D01*
X147797802Y-105810404D01*
X147884810Y-105669340D01*
X147884814Y-105669334D01*
X147939999Y-105502797D01*
X147950500Y-105400009D01*
X147950499Y-104599992D01*
X147939999Y-104497203D01*
X147884814Y-104330666D01*
X147792712Y-104181344D01*
X147698695Y-104087327D01*
X147665210Y-104026004D01*
X147670194Y-103956312D01*
X147698695Y-103911964D01*
X147792317Y-103818342D01*
X147884356Y-103669124D01*
X147884358Y-103669119D01*
X147939505Y-103502697D01*
X147939506Y-103502690D01*
X147949999Y-103399986D01*
X147950000Y-103399973D01*
X147950000Y-103250000D01*
X143850001Y-103250000D01*
X143850001Y-103399986D01*
X143860494Y-103502697D01*
X143915641Y-103669119D01*
X143915643Y-103669124D01*
X144002785Y-103810403D01*
X144021225Y-103877796D01*
X144000302Y-103944459D01*
X143946660Y-103989229D01*
X143897246Y-103999500D01*
X142865782Y-103999500D01*
X142798743Y-103979815D01*
X142778101Y-103963181D01*
X141564920Y-102750000D01*
X143850000Y-102750000D01*
X145650000Y-102750000D01*
X145650000Y-101900000D01*
X146150000Y-101900000D01*
X146150000Y-102750000D01*
X147949999Y-102750000D01*
X147949999Y-102600028D01*
X147949998Y-102600013D01*
X147939505Y-102497302D01*
X147884358Y-102330880D01*
X147884356Y-102330875D01*
X147792315Y-102181654D01*
X147668345Y-102057684D01*
X147519124Y-101965643D01*
X147519119Y-101965641D01*
X147352697Y-101910494D01*
X147352690Y-101910493D01*
X147249986Y-101900000D01*
X146150000Y-101900000D01*
X145650000Y-101900000D01*
X144550028Y-101900000D01*
X144550012Y-101900001D01*
X144447302Y-101910494D01*
X144280880Y-101965641D01*
X144280875Y-101965643D01*
X144131654Y-102057684D01*
X144007684Y-102181654D01*
X143915643Y-102330875D01*
X143915641Y-102330880D01*
X143860494Y-102497302D01*
X143860493Y-102497309D01*
X143850000Y-102600013D01*
X143850000Y-102750000D01*
X141564920Y-102750000D01*
X138036819Y-99221899D01*
X138003334Y-99160576D01*
X138000500Y-99134218D01*
X138000500Y-90265782D01*
X138020185Y-90198743D01*
X138036819Y-90178101D01*
X138113319Y-90101601D01*
X138174642Y-90068116D01*
X138244334Y-90073100D01*
G37*
%TD.AperFunction*%
%TA.AperFunction,Conductor*%
G36*
X142701257Y-88820185D02*
G01*
X142721898Y-88836818D01*
X143202252Y-89317173D01*
X143235737Y-89378495D01*
X143230753Y-89448187D01*
X143188881Y-89504120D01*
X143123417Y-89528537D01*
X143055144Y-89513685D01*
X143043448Y-89506428D01*
X142892834Y-89400967D01*
X142892830Y-89400965D01*
X142821727Y-89367809D01*
X142678663Y-89301097D01*
X142678659Y-89301096D01*
X142678655Y-89301094D01*
X142450413Y-89239938D01*
X142450403Y-89239936D01*
X142215001Y-89219341D01*
X142214999Y-89219341D01*
X141979596Y-89239936D01*
X141979586Y-89239938D01*
X141751344Y-89301094D01*
X141751335Y-89301098D01*
X141537171Y-89400964D01*
X141537169Y-89400965D01*
X141343600Y-89536503D01*
X141221284Y-89658819D01*
X141159961Y-89692303D01*
X141090269Y-89687319D01*
X141034336Y-89645447D01*
X141017421Y-89614470D01*
X140968354Y-89482913D01*
X140968350Y-89482906D01*
X140882190Y-89367812D01*
X140882187Y-89367809D01*
X140767093Y-89281649D01*
X140767086Y-89281645D01*
X140632379Y-89231403D01*
X140632372Y-89231401D01*
X140572844Y-89225000D01*
X139925000Y-89225000D01*
X139925000Y-90141988D01*
X139867993Y-90109075D01*
X139740826Y-90075000D01*
X139609174Y-90075000D01*
X139482007Y-90109075D01*
X139425000Y-90141988D01*
X139425000Y-89225000D01*
X139289282Y-89225000D01*
X139222243Y-89205315D01*
X139176488Y-89152511D01*
X139166544Y-89083353D01*
X139195569Y-89019797D01*
X139201601Y-89013319D01*
X139378101Y-88836819D01*
X139439424Y-88803334D01*
X139465782Y-88800500D01*
X142634218Y-88800500D01*
X142701257Y-88820185D01*
G37*
%TD.AperFunction*%
%TD*%
M02*
