%TF.GenerationSoftware,KiCad,Pcbnew,8.0.1*%
%TF.CreationDate,2024-07-13T23:12:29+02:00*%
%TF.ProjectId,SignalsPort,5369676e-616c-4735-906f-72742e6b6963,rev?*%
%TF.SameCoordinates,Original*%
%TF.FileFunction,Legend,Top*%
%TF.FilePolarity,Positive*%
%FSLAX46Y46*%
G04 Gerber Fmt 4.6, Leading zero omitted, Abs format (unit mm)*
G04 Created by KiCad (PCBNEW 8.0.1) date 2024-07-13 23:12:29*
%MOMM*%
%LPD*%
G01*
G04 APERTURE LIST*
%ADD10C,0.150000*%
%ADD11C,0.120000*%
G04 APERTURE END LIST*
D10*
X142604819Y-106333333D02*
X143319104Y-106333333D01*
X143319104Y-106333333D02*
X143461961Y-106380952D01*
X143461961Y-106380952D02*
X143557200Y-106476190D01*
X143557200Y-106476190D02*
X143604819Y-106619047D01*
X143604819Y-106619047D02*
X143604819Y-106714285D01*
X142604819Y-105952380D02*
X142604819Y-105333333D01*
X142604819Y-105333333D02*
X142985771Y-105666666D01*
X142985771Y-105666666D02*
X142985771Y-105523809D01*
X142985771Y-105523809D02*
X143033390Y-105428571D01*
X143033390Y-105428571D02*
X143081009Y-105380952D01*
X143081009Y-105380952D02*
X143176247Y-105333333D01*
X143176247Y-105333333D02*
X143414342Y-105333333D01*
X143414342Y-105333333D02*
X143509580Y-105380952D01*
X143509580Y-105380952D02*
X143557200Y-105428571D01*
X143557200Y-105428571D02*
X143604819Y-105523809D01*
X143604819Y-105523809D02*
X143604819Y-105809523D01*
X143604819Y-105809523D02*
X143557200Y-105904761D01*
X143557200Y-105904761D02*
X143509580Y-105952380D01*
X131161905Y-98604819D02*
X131161905Y-97604819D01*
X131161905Y-97604819D02*
X131400000Y-97604819D01*
X131400000Y-97604819D02*
X131542857Y-97652438D01*
X131542857Y-97652438D02*
X131638095Y-97747676D01*
X131638095Y-97747676D02*
X131685714Y-97842914D01*
X131685714Y-97842914D02*
X131733333Y-98033390D01*
X131733333Y-98033390D02*
X131733333Y-98176247D01*
X131733333Y-98176247D02*
X131685714Y-98366723D01*
X131685714Y-98366723D02*
X131638095Y-98461961D01*
X131638095Y-98461961D02*
X131542857Y-98557200D01*
X131542857Y-98557200D02*
X131400000Y-98604819D01*
X131400000Y-98604819D02*
X131161905Y-98604819D01*
X132685714Y-98604819D02*
X132114286Y-98604819D01*
X132400000Y-98604819D02*
X132400000Y-97604819D01*
X132400000Y-97604819D02*
X132304762Y-97747676D01*
X132304762Y-97747676D02*
X132209524Y-97842914D01*
X132209524Y-97842914D02*
X132114286Y-97890533D01*
X119921666Y-87429819D02*
X119921666Y-88144104D01*
X119921666Y-88144104D02*
X119874047Y-88286961D01*
X119874047Y-88286961D02*
X119778809Y-88382200D01*
X119778809Y-88382200D02*
X119635952Y-88429819D01*
X119635952Y-88429819D02*
X119540714Y-88429819D01*
X120350238Y-87525057D02*
X120397857Y-87477438D01*
X120397857Y-87477438D02*
X120493095Y-87429819D01*
X120493095Y-87429819D02*
X120731190Y-87429819D01*
X120731190Y-87429819D02*
X120826428Y-87477438D01*
X120826428Y-87477438D02*
X120874047Y-87525057D01*
X120874047Y-87525057D02*
X120921666Y-87620295D01*
X120921666Y-87620295D02*
X120921666Y-87715533D01*
X120921666Y-87715533D02*
X120874047Y-87858390D01*
X120874047Y-87858390D02*
X120302619Y-88429819D01*
X120302619Y-88429819D02*
X120921666Y-88429819D01*
X126834819Y-95066666D02*
X126358628Y-95399999D01*
X126834819Y-95638094D02*
X125834819Y-95638094D01*
X125834819Y-95638094D02*
X125834819Y-95257142D01*
X125834819Y-95257142D02*
X125882438Y-95161904D01*
X125882438Y-95161904D02*
X125930057Y-95114285D01*
X125930057Y-95114285D02*
X126025295Y-95066666D01*
X126025295Y-95066666D02*
X126168152Y-95066666D01*
X126168152Y-95066666D02*
X126263390Y-95114285D01*
X126263390Y-95114285D02*
X126311009Y-95161904D01*
X126311009Y-95161904D02*
X126358628Y-95257142D01*
X126358628Y-95257142D02*
X126358628Y-95638094D01*
X126834819Y-94114285D02*
X126834819Y-94685713D01*
X126834819Y-94399999D02*
X125834819Y-94399999D01*
X125834819Y-94399999D02*
X125977676Y-94495237D01*
X125977676Y-94495237D02*
X126072914Y-94590475D01*
X126072914Y-94590475D02*
X126120533Y-94685713D01*
X136441666Y-87429819D02*
X136441666Y-88144104D01*
X136441666Y-88144104D02*
X136394047Y-88286961D01*
X136394047Y-88286961D02*
X136298809Y-88382200D01*
X136298809Y-88382200D02*
X136155952Y-88429819D01*
X136155952Y-88429819D02*
X136060714Y-88429819D01*
X137441666Y-88429819D02*
X136870238Y-88429819D01*
X137155952Y-88429819D02*
X137155952Y-87429819D01*
X137155952Y-87429819D02*
X137060714Y-87572676D01*
X137060714Y-87572676D02*
X136965476Y-87667914D01*
X136965476Y-87667914D02*
X136870238Y-87715533D01*
D11*
%TO.C,J3*%
X147590000Y-99640000D02*
X147590000Y-102140000D01*
X147590000Y-109860000D02*
X144350000Y-109860000D01*
X147590000Y-112360000D02*
X147590000Y-109860000D01*
X149590000Y-99640000D02*
X147590000Y-99640000D01*
X149590000Y-112360000D02*
X147590000Y-112360000D01*
X153710000Y-112250000D02*
X153710000Y-99750000D01*
%TO.C,D1*%
X130900000Y-97460000D02*
X133760000Y-97460000D01*
X133760000Y-95540000D02*
X130900000Y-95540000D01*
X133760000Y-97460000D02*
X133760000Y-95540000D01*
%TO.C,J2*%
X121845000Y-86475000D02*
X121845000Y-89135000D01*
X121845000Y-89135000D02*
X129585000Y-89135000D01*
X121905000Y-91845000D02*
X121905000Y-90575000D01*
X122795000Y-80475000D02*
X123555000Y-80475000D01*
X122795000Y-86475000D02*
X122795000Y-80475000D01*
X122795000Y-89465000D02*
X122795000Y-89135000D01*
X122855000Y-86475000D02*
X122855000Y-80475000D01*
X122975000Y-86475000D02*
X122975000Y-80475000D01*
X123095000Y-86475000D02*
X123095000Y-80475000D01*
X123175000Y-91845000D02*
X121905000Y-91845000D01*
X123215000Y-86475000D02*
X123215000Y-80475000D01*
X123335000Y-86475000D02*
X123335000Y-80475000D01*
X123455000Y-86475000D02*
X123455000Y-80475000D01*
X123555000Y-80475000D02*
X123555000Y-86475000D01*
X123555000Y-89465000D02*
X123555000Y-89135000D01*
X124445000Y-89135000D02*
X124445000Y-86475000D01*
X125335000Y-80475000D02*
X126095000Y-80475000D01*
X125335000Y-86475000D02*
X125335000Y-80475000D01*
X125335000Y-89532071D02*
X125335000Y-89135000D01*
X126095000Y-80475000D02*
X126095000Y-86475000D01*
X126095000Y-89532071D02*
X126095000Y-89135000D01*
X126985000Y-89135000D02*
X126985000Y-86475000D01*
X127875000Y-80475000D02*
X128635000Y-80475000D01*
X127875000Y-86475000D02*
X127875000Y-80475000D01*
X127875000Y-89532071D02*
X127875000Y-89135000D01*
X128635000Y-80475000D02*
X128635000Y-86475000D01*
X128635000Y-89532071D02*
X128635000Y-89135000D01*
X129585000Y-86475000D02*
X121845000Y-86475000D01*
X129585000Y-89135000D02*
X129585000Y-86475000D01*
%TO.C,R1*%
X127290000Y-95627064D02*
X127290000Y-94172936D01*
X129110000Y-95627064D02*
X129110000Y-94172936D01*
%TO.C,J1*%
X138345000Y-86475000D02*
X138345000Y-89135000D01*
X138345000Y-89135000D02*
X146085000Y-89135000D01*
X138405000Y-91845000D02*
X138405000Y-90575000D01*
X139295000Y-80475000D02*
X140055000Y-80475000D01*
X139295000Y-86475000D02*
X139295000Y-80475000D01*
X139295000Y-89465000D02*
X139295000Y-89135000D01*
X139355000Y-86475000D02*
X139355000Y-80475000D01*
X139475000Y-86475000D02*
X139475000Y-80475000D01*
X139595000Y-86475000D02*
X139595000Y-80475000D01*
X139675000Y-91845000D02*
X138405000Y-91845000D01*
X139715000Y-86475000D02*
X139715000Y-80475000D01*
X139835000Y-86475000D02*
X139835000Y-80475000D01*
X139955000Y-86475000D02*
X139955000Y-80475000D01*
X140055000Y-80475000D02*
X140055000Y-86475000D01*
X140055000Y-89465000D02*
X140055000Y-89135000D01*
X140945000Y-89135000D02*
X140945000Y-86475000D01*
X141835000Y-80475000D02*
X142595000Y-80475000D01*
X141835000Y-86475000D02*
X141835000Y-80475000D01*
X141835000Y-89532071D02*
X141835000Y-89135000D01*
X142595000Y-80475000D02*
X142595000Y-86475000D01*
X142595000Y-89532071D02*
X142595000Y-89135000D01*
X143485000Y-89135000D02*
X143485000Y-86475000D01*
X144375000Y-80475000D02*
X145135000Y-80475000D01*
X144375000Y-86475000D02*
X144375000Y-80475000D01*
X144375000Y-89532071D02*
X144375000Y-89135000D01*
X145135000Y-80475000D02*
X145135000Y-86475000D01*
X145135000Y-89532071D02*
X145135000Y-89135000D01*
X146085000Y-86475000D02*
X138345000Y-86475000D01*
X146085000Y-89135000D02*
X146085000Y-86475000D01*
%TD*%
M02*
