%TF.GenerationSoftware,KiCad,Pcbnew,9.0.0*%
%TF.CreationDate,2025-03-25T15:05:35+01:00*%
%TF.ProjectId,LEDstripCtrl,4c454473-7472-4697-9043-74726c2e6b69,rev?*%
%TF.SameCoordinates,Original*%
%TF.FileFunction,Copper,L1,Top*%
%TF.FilePolarity,Positive*%
%FSLAX46Y46*%
G04 Gerber Fmt 4.6, Leading zero omitted, Abs format (unit mm)*
G04 Created by KiCad (PCBNEW 9.0.0) date 2025-03-25 15:05:35*
%MOMM*%
%LPD*%
G01*
G04 APERTURE LIST*
G04 Aperture macros list*
%AMRoundRect*
0 Rectangle with rounded corners*
0 $1 Rounding radius*
0 $2 $3 $4 $5 $6 $7 $8 $9 X,Y pos of 4 corners*
0 Add a 4 corners polygon primitive as box body*
4,1,4,$2,$3,$4,$5,$6,$7,$8,$9,$2,$3,0*
0 Add four circle primitives for the rounded corners*
1,1,$1+$1,$2,$3*
1,1,$1+$1,$4,$5*
1,1,$1+$1,$6,$7*
1,1,$1+$1,$8,$9*
0 Add four rect primitives between the rounded corners*
20,1,$1+$1,$2,$3,$4,$5,0*
20,1,$1+$1,$4,$5,$6,$7,0*
20,1,$1+$1,$6,$7,$8,$9,0*
20,1,$1+$1,$8,$9,$2,$3,0*%
G04 Aperture macros list end*
%TA.AperFunction,ComponentPad*%
%ADD10R,1.750000X1.750000*%
%TD*%
%TA.AperFunction,ComponentPad*%
%ADD11C,1.750000*%
%TD*%
%TA.AperFunction,ComponentPad*%
%ADD12C,2.700000*%
%TD*%
%TA.AperFunction,ComponentPad*%
%ADD13R,1.800000X1.800000*%
%TD*%
%TA.AperFunction,ComponentPad*%
%ADD14C,1.800000*%
%TD*%
%TA.AperFunction,ComponentPad*%
%ADD15RoundRect,0.250000X1.050000X-1.050000X1.050000X1.050000X-1.050000X1.050000X-1.050000X-1.050000X0*%
%TD*%
%TA.AperFunction,ComponentPad*%
%ADD16C,2.600000*%
%TD*%
%TA.AperFunction,ComponentPad*%
%ADD17C,1.600000*%
%TD*%
%TA.AperFunction,ComponentPad*%
%ADD18O,1.600000X1.600000*%
%TD*%
G04 APERTURE END LIST*
D10*
%TO.P,RV1,1,1*%
%TO.N,+3.3V*%
X144000000Y-81550000D03*
D11*
X140500000Y-81550000D03*
%TO.P,RV1,2,2*%
%TO.N,Net-(J1-Pin_2)*%
X143220000Y-86930000D03*
X141260000Y-134930000D03*
%TO.P,RV1,3,3*%
%TO.N,GNDREF*%
X144000000Y-140050000D03*
X140403500Y-140050000D03*
D12*
%TO.P,RV1,MP,MountPin*%
X138050000Y-85700000D03*
X146450000Y-86900000D03*
X146450000Y-134700000D03*
X138050000Y-135900000D03*
%TD*%
D13*
%TO.P,D1,1,K*%
%TO.N,GNDREF*%
X129300000Y-112070000D03*
D14*
%TO.P,D1,2,A*%
%TO.N,Net-(D1-A)*%
X129300000Y-109530000D03*
%TD*%
D15*
%TO.P,J1,1,Pin_1*%
%TO.N,+3.3V*%
X168122500Y-118670000D03*
D16*
%TO.P,J1,2,Pin_2*%
%TO.N,Net-(J1-Pin_2)*%
X168122500Y-113590000D03*
%TO.P,J1,3,Pin_3*%
%TO.N,Net-(J1-Pin_3)*%
X168122500Y-108510000D03*
%TO.P,J1,4,Pin_4*%
%TO.N,GNDREF*%
X168122500Y-103430000D03*
%TD*%
D10*
%TO.P,RV2,1,1*%
%TO.N,+3.3V*%
X156450000Y-81550000D03*
D11*
X152950000Y-81550000D03*
%TO.P,RV2,2,2*%
%TO.N,Net-(J1-Pin_3)*%
X155670000Y-86930000D03*
X153710000Y-134930000D03*
%TO.P,RV2,3,3*%
%TO.N,GNDREF*%
X156450000Y-140050000D03*
X152853500Y-140050000D03*
D12*
%TO.P,RV2,MP,MountPin*%
X150500000Y-85700000D03*
X158900000Y-86900000D03*
X158900000Y-134700000D03*
X150500000Y-135900000D03*
%TD*%
D17*
%TO.P,R1,1*%
%TO.N,+3.3V*%
X129300000Y-89850000D03*
D18*
%TO.P,R1,2*%
%TO.N,Net-(D1-A)*%
X129300000Y-102550000D03*
%TD*%
%TA.AperFunction,Conductor*%
%TO.N,GNDREF*%
G36*
X148998436Y-78805236D02*
G01*
X149023705Y-78806099D01*
X150086293Y-78842398D01*
X150090413Y-78842610D01*
X151176364Y-78916890D01*
X151180546Y-78917248D01*
X152263332Y-79028562D01*
X152267445Y-79029056D01*
X153345799Y-79177272D01*
X153349927Y-79177911D01*
X154422564Y-79362853D01*
X154426723Y-79363644D01*
X154636222Y-79407178D01*
X155492401Y-79585094D01*
X155496455Y-79586009D01*
X156554006Y-79843727D01*
X156558012Y-79844776D01*
X156866100Y-79931098D01*
X156925343Y-79968140D01*
X156955154Y-80031330D01*
X156946070Y-80100607D01*
X156900974Y-80153975D01*
X156834185Y-80174490D01*
X156832645Y-80174500D01*
X155527129Y-80174500D01*
X155527123Y-80174501D01*
X155467516Y-80180908D01*
X155332671Y-80231202D01*
X155332664Y-80231206D01*
X155217455Y-80317452D01*
X155217452Y-80317455D01*
X155131206Y-80432664D01*
X155131202Y-80432671D01*
X155080908Y-80567517D01*
X155074501Y-80627116D01*
X155074501Y-80627123D01*
X155074500Y-80627135D01*
X155074500Y-82472870D01*
X155074501Y-82472876D01*
X155080908Y-82532483D01*
X155131202Y-82667328D01*
X155131206Y-82667335D01*
X155217452Y-82782544D01*
X155217455Y-82782547D01*
X155332664Y-82868793D01*
X155332671Y-82868797D01*
X155467517Y-82919091D01*
X155467516Y-82919091D01*
X155474444Y-82919835D01*
X155527127Y-82925500D01*
X157372872Y-82925499D01*
X157432483Y-82919091D01*
X157567331Y-82868796D01*
X157682546Y-82782546D01*
X157768796Y-82667331D01*
X157819091Y-82532483D01*
X157825500Y-82472873D01*
X157825499Y-80627128D01*
X157819091Y-80567517D01*
X157794218Y-80500830D01*
X157768797Y-80432671D01*
X157768793Y-80432664D01*
X157762159Y-80423802D01*
X157737741Y-80358338D01*
X157752592Y-80290065D01*
X157801997Y-80240659D01*
X157870270Y-80225807D01*
X157898933Y-80231300D01*
X158647645Y-80468930D01*
X158651625Y-80470269D01*
X159677226Y-80834768D01*
X159681150Y-80836239D01*
X160693723Y-81235547D01*
X160697635Y-81237167D01*
X161695937Y-81670791D01*
X161699791Y-81672544D01*
X161880723Y-81758591D01*
X162682727Y-82140006D01*
X162686476Y-82141868D01*
X163652914Y-82642636D01*
X163656613Y-82644634D01*
X164055286Y-82868797D01*
X164605375Y-83178097D01*
X164609029Y-83180235D01*
X165538973Y-83745746D01*
X165542553Y-83748007D01*
X166452705Y-84344975D01*
X166456198Y-84347353D01*
X167345406Y-84975024D01*
X167348787Y-84977498D01*
X167691282Y-85237220D01*
X168216075Y-85635184D01*
X168219405Y-85637800D01*
X169063715Y-86324697D01*
X169066953Y-86327425D01*
X169887280Y-87042714D01*
X169890424Y-87045550D01*
X170685924Y-87788494D01*
X170688968Y-87791437D01*
X171458562Y-88561031D01*
X171461505Y-88564075D01*
X172204449Y-89359575D01*
X172207285Y-89362719D01*
X172922574Y-90183046D01*
X172925302Y-90186284D01*
X173612199Y-91030594D01*
X173614815Y-91033924D01*
X174272488Y-91901194D01*
X174274988Y-91904611D01*
X174902641Y-92793794D01*
X174905024Y-92797294D01*
X175501992Y-93707446D01*
X175504253Y-93711026D01*
X176069764Y-94640970D01*
X176071902Y-94644624D01*
X176605358Y-95593373D01*
X176607370Y-95597099D01*
X177108120Y-96563502D01*
X177110003Y-96567294D01*
X177577455Y-97550208D01*
X177579208Y-97554062D01*
X178012832Y-98552364D01*
X178014452Y-98556276D01*
X178413760Y-99568849D01*
X178415246Y-99572814D01*
X178779724Y-100598358D01*
X178781074Y-100602371D01*
X179110340Y-101639803D01*
X179111552Y-101643860D01*
X179405211Y-102691942D01*
X179406282Y-102696034D01*
X179585145Y-103429999D01*
X179663980Y-103753500D01*
X179664912Y-103757631D01*
X179886355Y-104823276D01*
X179887146Y-104827435D01*
X180072083Y-105900044D01*
X180072731Y-105904228D01*
X180220937Y-106982509D01*
X180221442Y-106986713D01*
X180332749Y-108069435D01*
X180333110Y-108073654D01*
X180407386Y-109159530D01*
X180407603Y-109163758D01*
X180444764Y-110251563D01*
X180444836Y-110255797D01*
X180444836Y-111344202D01*
X180444764Y-111348436D01*
X180407603Y-112436241D01*
X180407386Y-112440469D01*
X180333110Y-113526345D01*
X180332749Y-113530564D01*
X180221442Y-114613286D01*
X180220937Y-114617490D01*
X180072731Y-115695771D01*
X180072083Y-115699955D01*
X179887146Y-116772564D01*
X179886355Y-116776723D01*
X179664912Y-117842368D01*
X179663980Y-117846499D01*
X179406283Y-118903961D01*
X179405211Y-118908057D01*
X179111552Y-119956139D01*
X179110340Y-119960196D01*
X178781074Y-120997628D01*
X178779724Y-121001641D01*
X178415246Y-122027185D01*
X178413760Y-122031150D01*
X178014452Y-123043723D01*
X178012832Y-123047635D01*
X177579208Y-124045937D01*
X177577455Y-124049791D01*
X177110003Y-125032705D01*
X177108120Y-125036497D01*
X176607370Y-126002900D01*
X176605358Y-126006626D01*
X176071902Y-126955375D01*
X176069764Y-126959029D01*
X175504253Y-127888973D01*
X175501992Y-127892553D01*
X174905024Y-128802705D01*
X174902641Y-128806205D01*
X174274988Y-129695388D01*
X174272488Y-129698805D01*
X173614815Y-130566075D01*
X173612199Y-130569405D01*
X172925302Y-131413715D01*
X172922574Y-131416953D01*
X172207285Y-132237280D01*
X172204449Y-132240424D01*
X171461505Y-133035924D01*
X171458562Y-133038968D01*
X170688968Y-133808562D01*
X170685924Y-133811505D01*
X169890424Y-134554449D01*
X169887280Y-134557285D01*
X169066953Y-135272574D01*
X169063715Y-135275302D01*
X168219405Y-135962199D01*
X168216075Y-135964815D01*
X167348805Y-136622488D01*
X167345388Y-136624988D01*
X166456205Y-137252641D01*
X166452705Y-137255024D01*
X165542553Y-137851992D01*
X165538973Y-137854253D01*
X164609029Y-138419764D01*
X164605375Y-138421902D01*
X163656626Y-138955358D01*
X163652900Y-138957370D01*
X162686497Y-139458120D01*
X162682705Y-139460003D01*
X161699791Y-139927455D01*
X161695937Y-139929208D01*
X160697635Y-140362832D01*
X160693723Y-140364452D01*
X159681150Y-140763760D01*
X159677185Y-140765246D01*
X158651641Y-141129724D01*
X158647628Y-141131074D01*
X157610196Y-141460340D01*
X157606139Y-141461552D01*
X156558057Y-141755211D01*
X156553961Y-141756283D01*
X155496499Y-142013980D01*
X155492368Y-142014912D01*
X154426723Y-142236355D01*
X154422564Y-142237146D01*
X153349955Y-142422083D01*
X153345771Y-142422731D01*
X152267490Y-142570937D01*
X152263286Y-142571442D01*
X151180564Y-142682749D01*
X151176345Y-142683110D01*
X150090469Y-142757386D01*
X150086241Y-142757603D01*
X148998437Y-142794764D01*
X148994203Y-142794836D01*
X147905797Y-142794836D01*
X147901563Y-142794764D01*
X146813758Y-142757603D01*
X146809530Y-142757386D01*
X145723654Y-142683110D01*
X145719435Y-142682749D01*
X144636713Y-142571442D01*
X144632509Y-142570937D01*
X143554228Y-142422731D01*
X143550044Y-142422083D01*
X142477435Y-142237146D01*
X142473276Y-142236355D01*
X141407631Y-142014912D01*
X141403500Y-142013980D01*
X140346038Y-141756283D01*
X140341942Y-141755211D01*
X139293860Y-141461552D01*
X139289803Y-141460340D01*
X138639991Y-141254099D01*
X138252371Y-141131074D01*
X138248358Y-141129724D01*
X137537576Y-140877112D01*
X137222805Y-140765242D01*
X137218849Y-140763760D01*
X136206276Y-140364452D01*
X136202364Y-140362832D01*
X135483642Y-140050647D01*
X135233003Y-139941779D01*
X139028500Y-139941779D01*
X139028500Y-140158220D01*
X139062357Y-140371981D01*
X139129235Y-140577814D01*
X139129236Y-140577817D01*
X139227496Y-140770660D01*
X139270329Y-140829615D01*
X139270330Y-140829616D01*
X139838887Y-140261059D01*
X139844389Y-140281591D01*
X139923381Y-140418408D01*
X140035092Y-140530119D01*
X140171909Y-140609111D01*
X140192439Y-140614612D01*
X139623882Y-141183168D01*
X139682842Y-141226005D01*
X139875682Y-141324263D01*
X139875685Y-141324264D01*
X140081518Y-141391142D01*
X140295280Y-141425000D01*
X140511720Y-141425000D01*
X140725481Y-141391142D01*
X140931314Y-141324264D01*
X140931317Y-141324263D01*
X141124156Y-141226006D01*
X141183115Y-141183168D01*
X141183116Y-141183168D01*
X140614559Y-140614612D01*
X140635091Y-140609111D01*
X140771908Y-140530119D01*
X140883619Y-140418408D01*
X140962611Y-140281591D01*
X140968112Y-140261060D01*
X141536668Y-140829616D01*
X141536668Y-140829615D01*
X141579506Y-140770656D01*
X141677763Y-140577817D01*
X141677764Y-140577814D01*
X141744642Y-140371981D01*
X141778500Y-140158220D01*
X141778500Y-139941779D01*
X142625000Y-139941779D01*
X142625000Y-140158220D01*
X142658857Y-140371981D01*
X142725735Y-140577814D01*
X142725736Y-140577817D01*
X142823996Y-140770660D01*
X142866829Y-140829615D01*
X142866830Y-140829616D01*
X143435387Y-140261059D01*
X143440889Y-140281591D01*
X143519881Y-140418408D01*
X143631592Y-140530119D01*
X143768409Y-140609111D01*
X143788939Y-140614612D01*
X143220382Y-141183168D01*
X143279342Y-141226005D01*
X143472182Y-141324263D01*
X143472185Y-141324264D01*
X143678018Y-141391142D01*
X143891780Y-141425000D01*
X144108220Y-141425000D01*
X144321981Y-141391142D01*
X144527814Y-141324264D01*
X144527817Y-141324263D01*
X144720656Y-141226006D01*
X144779615Y-141183168D01*
X144779616Y-141183168D01*
X144211059Y-140614612D01*
X144231591Y-140609111D01*
X144368408Y-140530119D01*
X144480119Y-140418408D01*
X144559111Y-140281591D01*
X144564612Y-140261060D01*
X145133168Y-140829616D01*
X145133168Y-140829615D01*
X145176006Y-140770656D01*
X145274263Y-140577817D01*
X145274264Y-140577814D01*
X145341142Y-140371981D01*
X145375000Y-140158220D01*
X145375000Y-139941779D01*
X151478500Y-139941779D01*
X151478500Y-140158220D01*
X151512357Y-140371981D01*
X151579235Y-140577814D01*
X151579236Y-140577817D01*
X151677496Y-140770660D01*
X151720329Y-140829615D01*
X151720330Y-140829616D01*
X152288887Y-140261059D01*
X152294389Y-140281591D01*
X152373381Y-140418408D01*
X152485092Y-140530119D01*
X152621909Y-140609111D01*
X152642439Y-140614612D01*
X152073882Y-141183168D01*
X152132842Y-141226005D01*
X152325682Y-141324263D01*
X152325685Y-141324264D01*
X152531518Y-141391142D01*
X152745280Y-141425000D01*
X152961720Y-141425000D01*
X153175481Y-141391142D01*
X153381314Y-141324264D01*
X153381317Y-141324263D01*
X153574156Y-141226006D01*
X153633115Y-141183168D01*
X153633116Y-141183168D01*
X153064559Y-140614612D01*
X153085091Y-140609111D01*
X153221908Y-140530119D01*
X153333619Y-140418408D01*
X153412611Y-140281591D01*
X153418112Y-140261060D01*
X153986668Y-140829616D01*
X153986668Y-140829615D01*
X154029506Y-140770656D01*
X154127763Y-140577817D01*
X154127764Y-140577814D01*
X154194642Y-140371981D01*
X154228500Y-140158220D01*
X154228500Y-139941779D01*
X155075000Y-139941779D01*
X155075000Y-140158220D01*
X155108857Y-140371981D01*
X155175735Y-140577814D01*
X155175736Y-140577817D01*
X155273996Y-140770660D01*
X155316829Y-140829615D01*
X155316830Y-140829616D01*
X155885387Y-140261059D01*
X155890889Y-140281591D01*
X155969881Y-140418408D01*
X156081592Y-140530119D01*
X156218409Y-140609111D01*
X156238939Y-140614612D01*
X155670382Y-141183168D01*
X155729342Y-141226005D01*
X155922182Y-141324263D01*
X155922185Y-141324264D01*
X156128018Y-141391142D01*
X156341780Y-141425000D01*
X156558220Y-141425000D01*
X156771981Y-141391142D01*
X156977814Y-141324264D01*
X156977817Y-141324263D01*
X157170656Y-141226006D01*
X157229615Y-141183168D01*
X157229616Y-141183168D01*
X156661059Y-140614612D01*
X156681591Y-140609111D01*
X156818408Y-140530119D01*
X156930119Y-140418408D01*
X157009111Y-140281591D01*
X157014612Y-140261059D01*
X157583168Y-140829616D01*
X157583168Y-140829615D01*
X157626006Y-140770656D01*
X157724263Y-140577817D01*
X157724264Y-140577814D01*
X157791142Y-140371981D01*
X157825000Y-140158220D01*
X157825000Y-139941779D01*
X157791142Y-139728018D01*
X157724264Y-139522185D01*
X157724263Y-139522182D01*
X157626005Y-139329342D01*
X157583168Y-139270383D01*
X157583168Y-139270382D01*
X157014612Y-139838939D01*
X157009111Y-139818409D01*
X156930119Y-139681592D01*
X156818408Y-139569881D01*
X156681591Y-139490889D01*
X156661058Y-139485387D01*
X157229616Y-138916830D01*
X157229615Y-138916829D01*
X157170660Y-138873996D01*
X156977817Y-138775736D01*
X156977814Y-138775735D01*
X156771981Y-138708857D01*
X156558220Y-138675000D01*
X156341780Y-138675000D01*
X156128018Y-138708857D01*
X155922185Y-138775735D01*
X155922182Y-138775736D01*
X155729346Y-138873992D01*
X155670383Y-138916830D01*
X156238941Y-139485387D01*
X156218409Y-139490889D01*
X156081592Y-139569881D01*
X155969881Y-139681592D01*
X155890889Y-139818409D01*
X155885387Y-139838940D01*
X155316830Y-139270383D01*
X155273992Y-139329346D01*
X155175736Y-139522182D01*
X155175735Y-139522185D01*
X155108857Y-139728018D01*
X155075000Y-139941779D01*
X154228500Y-139941779D01*
X154194642Y-139728018D01*
X154127764Y-139522185D01*
X154127763Y-139522182D01*
X154029505Y-139329342D01*
X153986668Y-139270383D01*
X153986668Y-139270382D01*
X153418112Y-139838939D01*
X153412611Y-139818409D01*
X153333619Y-139681592D01*
X153221908Y-139569881D01*
X153085091Y-139490889D01*
X153064558Y-139485387D01*
X153633116Y-138916830D01*
X153633115Y-138916829D01*
X153574160Y-138873996D01*
X153381317Y-138775736D01*
X153381314Y-138775735D01*
X153175481Y-138708857D01*
X152961720Y-138675000D01*
X152745280Y-138675000D01*
X152531518Y-138708857D01*
X152325685Y-138775735D01*
X152325682Y-138775736D01*
X152132846Y-138873992D01*
X152073883Y-138916830D01*
X152642441Y-139485387D01*
X152621909Y-139490889D01*
X152485092Y-139569881D01*
X152373381Y-139681592D01*
X152294389Y-139818409D01*
X152288887Y-139838940D01*
X151720330Y-139270383D01*
X151677492Y-139329346D01*
X151579236Y-139522182D01*
X151579235Y-139522185D01*
X151512357Y-139728018D01*
X151478500Y-139941779D01*
X145375000Y-139941779D01*
X145341142Y-139728018D01*
X145274264Y-139522185D01*
X145274263Y-139522182D01*
X145176005Y-139329342D01*
X145133168Y-139270383D01*
X145133168Y-139270382D01*
X144564612Y-139838939D01*
X144559111Y-139818409D01*
X144480119Y-139681592D01*
X144368408Y-139569881D01*
X144231591Y-139490889D01*
X144211058Y-139485387D01*
X144779616Y-138916830D01*
X144779615Y-138916829D01*
X144720660Y-138873996D01*
X144527817Y-138775736D01*
X144527814Y-138775735D01*
X144321981Y-138708857D01*
X144108220Y-138675000D01*
X143891780Y-138675000D01*
X143678018Y-138708857D01*
X143472185Y-138775735D01*
X143472182Y-138775736D01*
X143279346Y-138873992D01*
X143220383Y-138916830D01*
X143788941Y-139485387D01*
X143768409Y-139490889D01*
X143631592Y-139569881D01*
X143519881Y-139681592D01*
X143440889Y-139818409D01*
X143435387Y-139838940D01*
X142866830Y-139270383D01*
X142823992Y-139329346D01*
X142725736Y-139522182D01*
X142725735Y-139522185D01*
X142658857Y-139728018D01*
X142625000Y-139941779D01*
X141778500Y-139941779D01*
X141744642Y-139728018D01*
X141677764Y-139522185D01*
X141677763Y-139522182D01*
X141579505Y-139329342D01*
X141536668Y-139270383D01*
X141536668Y-139270382D01*
X140968112Y-139838939D01*
X140962611Y-139818409D01*
X140883619Y-139681592D01*
X140771908Y-139569881D01*
X140635091Y-139490889D01*
X140614558Y-139485387D01*
X141183116Y-138916830D01*
X141183115Y-138916829D01*
X141124160Y-138873996D01*
X140931317Y-138775736D01*
X140931314Y-138775735D01*
X140725481Y-138708857D01*
X140511720Y-138675000D01*
X140295280Y-138675000D01*
X140081518Y-138708857D01*
X139875685Y-138775735D01*
X139875682Y-138775736D01*
X139682846Y-138873992D01*
X139623883Y-138916830D01*
X140192441Y-139485387D01*
X140171909Y-139490889D01*
X140035092Y-139569881D01*
X139923381Y-139681592D01*
X139844389Y-139818409D01*
X139838887Y-139838940D01*
X139270330Y-139270383D01*
X139227492Y-139329346D01*
X139129236Y-139522182D01*
X139129235Y-139522185D01*
X139062357Y-139728018D01*
X139028500Y-139941779D01*
X135233003Y-139941779D01*
X135204062Y-139929208D01*
X135200208Y-139927455D01*
X134217294Y-139460003D01*
X134213502Y-139458120D01*
X133472545Y-139074187D01*
X133247099Y-138957370D01*
X133243373Y-138955358D01*
X132294624Y-138421902D01*
X132290970Y-138419764D01*
X131361026Y-137854253D01*
X131357446Y-137851992D01*
X130712040Y-137428671D01*
X130447294Y-137255024D01*
X130443794Y-137252641D01*
X129689201Y-136719992D01*
X129554603Y-136624982D01*
X129551194Y-136622488D01*
X129455604Y-136550000D01*
X129208708Y-136362772D01*
X128683924Y-135964815D01*
X128680594Y-135962199D01*
X128568340Y-135870874D01*
X128455106Y-135778751D01*
X136200000Y-135778751D01*
X136200000Y-136021248D01*
X136200001Y-136021264D01*
X136231653Y-136261687D01*
X136294421Y-136495939D01*
X136387220Y-136719978D01*
X136387227Y-136719992D01*
X136508481Y-136930010D01*
X136577061Y-137019384D01*
X137295884Y-136300560D01*
X137296740Y-136302626D01*
X137389762Y-136441844D01*
X137508156Y-136560238D01*
X137647374Y-136653260D01*
X137649437Y-136654114D01*
X136930614Y-137372936D01*
X136930614Y-137372937D01*
X137019989Y-137441517D01*
X137019996Y-137441522D01*
X137230007Y-137562772D01*
X137230021Y-137562779D01*
X137454060Y-137655578D01*
X137688312Y-137718346D01*
X137928735Y-137749998D01*
X137928752Y-137750000D01*
X138171248Y-137750000D01*
X138171264Y-137749998D01*
X138411687Y-137718346D01*
X138645939Y-137655578D01*
X138869978Y-137562779D01*
X138869992Y-137562772D01*
X139080016Y-137441515D01*
X139169384Y-137372939D01*
X139169384Y-137372936D01*
X138450562Y-136654114D01*
X138452626Y-136653260D01*
X138591844Y-136560238D01*
X138710238Y-136441844D01*
X138803260Y-136302626D01*
X138804114Y-136300562D01*
X139522936Y-137019384D01*
X139522939Y-137019384D01*
X139591515Y-136930016D01*
X139712772Y-136719992D01*
X139712779Y-136719978D01*
X139805578Y-136495939D01*
X139868346Y-136261687D01*
X139899998Y-136021264D01*
X139900000Y-136021248D01*
X139900000Y-135779893D01*
X139919685Y-135712854D01*
X139972489Y-135667099D01*
X140041647Y-135657155D01*
X140105203Y-135686180D01*
X140124315Y-135707004D01*
X140210828Y-135826078D01*
X140363922Y-135979172D01*
X140539081Y-136106433D01*
X140620535Y-136147936D01*
X140731990Y-136204726D01*
X140731993Y-136204727D01*
X140834947Y-136238178D01*
X140937903Y-136271630D01*
X141151746Y-136305500D01*
X141151747Y-136305500D01*
X141368253Y-136305500D01*
X141368254Y-136305500D01*
X141582097Y-136271630D01*
X141788009Y-136204726D01*
X141980919Y-136106433D01*
X142156078Y-135979172D01*
X142309172Y-135826078D01*
X142436433Y-135650919D01*
X142534726Y-135458009D01*
X142601630Y-135252097D01*
X142635500Y-135038254D01*
X142635500Y-134821746D01*
X142601630Y-134607903D01*
X142592158Y-134578751D01*
X144600000Y-134578751D01*
X144600000Y-134821248D01*
X144600001Y-134821264D01*
X144631653Y-135061687D01*
X144694421Y-135295939D01*
X144787220Y-135519978D01*
X144787227Y-135519992D01*
X144908481Y-135730010D01*
X144977061Y-135819384D01*
X145695884Y-135100560D01*
X145696740Y-135102626D01*
X145789762Y-135241844D01*
X145908156Y-135360238D01*
X146047374Y-135453260D01*
X146049437Y-135454114D01*
X145330614Y-136172936D01*
X145330614Y-136172937D01*
X145419989Y-136241517D01*
X145419996Y-136241522D01*
X145630007Y-136362772D01*
X145630021Y-136362779D01*
X145854060Y-136455578D01*
X146088312Y-136518346D01*
X146328735Y-136549998D01*
X146328752Y-136550000D01*
X146571248Y-136550000D01*
X146571264Y-136549998D01*
X146811687Y-136518346D01*
X147045939Y-136455578D01*
X147269978Y-136362779D01*
X147269992Y-136362772D01*
X147480016Y-136241515D01*
X147569384Y-136172939D01*
X147569384Y-136172936D01*
X146850562Y-135454114D01*
X146852626Y-135453260D01*
X146991844Y-135360238D01*
X147110238Y-135241844D01*
X147203260Y-135102626D01*
X147204114Y-135100562D01*
X147922936Y-135819384D01*
X147922939Y-135819384D01*
X147954118Y-135778751D01*
X148650000Y-135778751D01*
X148650000Y-136021248D01*
X148650001Y-136021264D01*
X148681653Y-136261687D01*
X148744421Y-136495939D01*
X148837220Y-136719978D01*
X148837227Y-136719992D01*
X148958481Y-136930010D01*
X149027061Y-137019384D01*
X149745884Y-136300560D01*
X149746740Y-136302626D01*
X149839762Y-136441844D01*
X149958156Y-136560238D01*
X150097374Y-136653260D01*
X150099437Y-136654114D01*
X149380614Y-137372936D01*
X149380614Y-137372937D01*
X149469989Y-137441517D01*
X149469996Y-137441522D01*
X149680007Y-137562772D01*
X149680021Y-137562779D01*
X149904060Y-137655578D01*
X150138312Y-137718346D01*
X150378735Y-137749998D01*
X150378752Y-137750000D01*
X150621248Y-137750000D01*
X150621264Y-137749998D01*
X150861687Y-137718346D01*
X151095939Y-137655578D01*
X151319978Y-137562779D01*
X151319992Y-137562772D01*
X151530016Y-137441515D01*
X151619384Y-137372939D01*
X151619384Y-137372936D01*
X150900562Y-136654114D01*
X150902626Y-136653260D01*
X151041844Y-136560238D01*
X151160238Y-136441844D01*
X151253260Y-136302626D01*
X151254114Y-136300562D01*
X151972936Y-137019384D01*
X151972939Y-137019384D01*
X152041515Y-136930016D01*
X152162772Y-136719992D01*
X152162779Y-136719978D01*
X152255578Y-136495939D01*
X152318346Y-136261687D01*
X152349998Y-136021264D01*
X152350000Y-136021248D01*
X152350000Y-135779893D01*
X152369685Y-135712854D01*
X152422489Y-135667099D01*
X152491647Y-135657155D01*
X152555203Y-135686180D01*
X152574315Y-135707004D01*
X152660828Y-135826078D01*
X152813922Y-135979172D01*
X152989081Y-136106433D01*
X153070535Y-136147936D01*
X153181990Y-136204726D01*
X153181993Y-136204727D01*
X153284947Y-136238178D01*
X153387903Y-136271630D01*
X153601746Y-136305500D01*
X153601747Y-136305500D01*
X153818253Y-136305500D01*
X153818254Y-136305500D01*
X154032097Y-136271630D01*
X154238009Y-136204726D01*
X154430919Y-136106433D01*
X154606078Y-135979172D01*
X154759172Y-135826078D01*
X154886433Y-135650919D01*
X154984726Y-135458009D01*
X155051630Y-135252097D01*
X155085500Y-135038254D01*
X155085500Y-134821746D01*
X155051630Y-134607903D01*
X155042158Y-134578751D01*
X157050000Y-134578751D01*
X157050000Y-134821248D01*
X157050001Y-134821264D01*
X157081653Y-135061687D01*
X157144421Y-135295939D01*
X157237220Y-135519978D01*
X157237227Y-135519992D01*
X157358481Y-135730010D01*
X157427061Y-135819384D01*
X158145884Y-135100560D01*
X158146740Y-135102626D01*
X158239762Y-135241844D01*
X158358156Y-135360238D01*
X158497374Y-135453260D01*
X158499437Y-135454114D01*
X157780614Y-136172936D01*
X157780614Y-136172937D01*
X157869989Y-136241517D01*
X157869996Y-136241522D01*
X158080007Y-136362772D01*
X158080021Y-136362779D01*
X158304060Y-136455578D01*
X158538312Y-136518346D01*
X158778735Y-136549998D01*
X158778752Y-136550000D01*
X159021248Y-136550000D01*
X159021264Y-136549998D01*
X159261687Y-136518346D01*
X159495939Y-136455578D01*
X159719978Y-136362779D01*
X159719992Y-136362772D01*
X159930016Y-136241515D01*
X160019384Y-136172939D01*
X160019384Y-136172936D01*
X159300562Y-135454114D01*
X159302626Y-135453260D01*
X159441844Y-135360238D01*
X159560238Y-135241844D01*
X159653260Y-135102626D01*
X159654114Y-135100562D01*
X160372936Y-135819384D01*
X160372939Y-135819384D01*
X160441515Y-135730016D01*
X160562772Y-135519992D01*
X160562779Y-135519978D01*
X160655578Y-135295939D01*
X160718346Y-135061687D01*
X160749998Y-134821264D01*
X160750000Y-134821248D01*
X160750000Y-134578751D01*
X160749998Y-134578735D01*
X160718346Y-134338312D01*
X160655578Y-134104060D01*
X160562779Y-133880021D01*
X160562772Y-133880007D01*
X160441522Y-133669996D01*
X160441517Y-133669989D01*
X160372937Y-133580614D01*
X160372936Y-133580614D01*
X159654114Y-134299436D01*
X159653260Y-134297374D01*
X159560238Y-134158156D01*
X159441844Y-134039762D01*
X159302626Y-133946740D01*
X159300560Y-133945884D01*
X160019384Y-133227061D01*
X159930010Y-133158481D01*
X159719992Y-133037227D01*
X159719978Y-133037220D01*
X159495939Y-132944421D01*
X159261687Y-132881653D01*
X159021264Y-132850001D01*
X159021248Y-132850000D01*
X158778752Y-132850000D01*
X158778735Y-132850001D01*
X158538312Y-132881653D01*
X158304060Y-132944421D01*
X158080021Y-133037220D01*
X158080006Y-133037227D01*
X157869990Y-133158480D01*
X157780614Y-133227060D01*
X157780614Y-133227061D01*
X158499438Y-133945885D01*
X158497374Y-133946740D01*
X158358156Y-134039762D01*
X158239762Y-134158156D01*
X158146740Y-134297374D01*
X158145885Y-134299438D01*
X157427061Y-133580614D01*
X157427060Y-133580614D01*
X157358480Y-133669990D01*
X157237227Y-133880006D01*
X157237220Y-133880021D01*
X157144421Y-134104060D01*
X157081653Y-134338312D01*
X157050001Y-134578735D01*
X157050000Y-134578751D01*
X155042158Y-134578751D01*
X155027401Y-134533333D01*
X154984727Y-134401993D01*
X154984726Y-134401990D01*
X154900774Y-134237227D01*
X154886433Y-134209081D01*
X154759172Y-134033922D01*
X154606078Y-133880828D01*
X154430919Y-133753567D01*
X154238009Y-133655273D01*
X154238006Y-133655272D01*
X154032098Y-133588370D01*
X153925175Y-133571435D01*
X153818254Y-133554500D01*
X153601746Y-133554500D01*
X153530465Y-133565790D01*
X153387901Y-133588370D01*
X153181993Y-133655272D01*
X153181990Y-133655273D01*
X152989080Y-133753567D01*
X152889145Y-133826174D01*
X152813922Y-133880828D01*
X152813920Y-133880830D01*
X152813919Y-133880830D01*
X152660830Y-134033919D01*
X152660830Y-134033920D01*
X152660828Y-134033922D01*
X152656585Y-134039762D01*
X152533567Y-134209080D01*
X152435273Y-134401990D01*
X152435272Y-134401993D01*
X152368370Y-134607901D01*
X152334500Y-134821746D01*
X152334500Y-134914674D01*
X152314815Y-134981713D01*
X152262011Y-135027468D01*
X152192853Y-135037412D01*
X152129297Y-135008387D01*
X152103113Y-134976674D01*
X152041522Y-134869996D01*
X152041517Y-134869989D01*
X151972937Y-134780614D01*
X151972936Y-134780614D01*
X151254114Y-135499436D01*
X151253260Y-135497374D01*
X151160238Y-135358156D01*
X151041844Y-135239762D01*
X150902626Y-135146740D01*
X150900560Y-135145884D01*
X151619384Y-134427061D01*
X151530010Y-134358481D01*
X151319992Y-134237227D01*
X151319978Y-134237220D01*
X151095939Y-134144421D01*
X150861687Y-134081653D01*
X150621264Y-134050001D01*
X150621248Y-134050000D01*
X150378752Y-134050000D01*
X150378735Y-134050001D01*
X150138312Y-134081653D01*
X149904060Y-134144421D01*
X149680021Y-134237220D01*
X149680006Y-134237227D01*
X149469990Y-134358480D01*
X149380614Y-134427060D01*
X149380614Y-134427061D01*
X150099438Y-135145885D01*
X150097374Y-135146740D01*
X149958156Y-135239762D01*
X149839762Y-135358156D01*
X149746740Y-135497374D01*
X149745885Y-135499438D01*
X149027061Y-134780614D01*
X149027060Y-134780614D01*
X148958480Y-134869990D01*
X148837227Y-135080006D01*
X148837220Y-135080021D01*
X148744421Y-135304060D01*
X148681653Y-135538312D01*
X148650001Y-135778735D01*
X148650000Y-135778751D01*
X147954118Y-135778751D01*
X147991515Y-135730016D01*
X148001521Y-135712686D01*
X148112772Y-135519992D01*
X148112779Y-135519978D01*
X148205578Y-135295939D01*
X148268346Y-135061687D01*
X148299998Y-134821264D01*
X148300000Y-134821248D01*
X148300000Y-134578751D01*
X148299999Y-134578737D01*
X148288474Y-134491200D01*
X148288474Y-134491199D01*
X148268346Y-134338312D01*
X148205578Y-134104060D01*
X148112779Y-133880021D01*
X148112772Y-133880007D01*
X147991522Y-133669996D01*
X147991517Y-133669989D01*
X147922937Y-133580614D01*
X147922936Y-133580614D01*
X147204114Y-134299436D01*
X147203260Y-134297374D01*
X147110238Y-134158156D01*
X146991844Y-134039762D01*
X146852626Y-133946740D01*
X146850560Y-133945884D01*
X147569384Y-133227061D01*
X147480010Y-133158481D01*
X147269992Y-133037227D01*
X147269978Y-133037220D01*
X147045939Y-132944421D01*
X146811687Y-132881653D01*
X146571264Y-132850001D01*
X146571248Y-132850000D01*
X146328752Y-132850000D01*
X146328735Y-132850001D01*
X146088312Y-132881653D01*
X145854060Y-132944421D01*
X145630021Y-133037220D01*
X145630006Y-133037227D01*
X145419990Y-133158480D01*
X145330614Y-133227060D01*
X145330614Y-133227061D01*
X146049438Y-133945885D01*
X146047374Y-133946740D01*
X145908156Y-134039762D01*
X145789762Y-134158156D01*
X145696740Y-134297374D01*
X145695885Y-134299438D01*
X144977061Y-133580614D01*
X144977060Y-133580614D01*
X144908480Y-133669990D01*
X144787227Y-133880006D01*
X144787220Y-133880021D01*
X144694421Y-134104060D01*
X144631653Y-134338312D01*
X144600001Y-134578735D01*
X144600000Y-134578751D01*
X142592158Y-134578751D01*
X142577401Y-134533333D01*
X142534727Y-134401993D01*
X142534726Y-134401990D01*
X142450774Y-134237227D01*
X142436433Y-134209081D01*
X142309172Y-134033922D01*
X142156078Y-133880828D01*
X141980919Y-133753567D01*
X141788009Y-133655273D01*
X141788006Y-133655272D01*
X141582098Y-133588370D01*
X141475175Y-133571435D01*
X141368254Y-133554500D01*
X141151746Y-133554500D01*
X141080465Y-133565790D01*
X140937901Y-133588370D01*
X140731993Y-133655272D01*
X140731990Y-133655273D01*
X140539080Y-133753567D01*
X140439145Y-133826174D01*
X140363922Y-133880828D01*
X140363920Y-133880830D01*
X140363919Y-133880830D01*
X140210830Y-134033919D01*
X140210830Y-134033920D01*
X140210828Y-134033922D01*
X140206585Y-134039762D01*
X140083567Y-134209080D01*
X139985273Y-134401990D01*
X139985272Y-134401993D01*
X139918370Y-134607901D01*
X139884500Y-134821746D01*
X139884500Y-134914674D01*
X139864815Y-134981713D01*
X139812011Y-135027468D01*
X139742853Y-135037412D01*
X139679297Y-135008387D01*
X139653113Y-134976674D01*
X139591522Y-134869996D01*
X139591517Y-134869989D01*
X139522937Y-134780614D01*
X139522936Y-134780614D01*
X138804114Y-135499436D01*
X138803260Y-135497374D01*
X138710238Y-135358156D01*
X138591844Y-135239762D01*
X138452626Y-135146740D01*
X138450560Y-135145884D01*
X139169384Y-134427061D01*
X139080010Y-134358481D01*
X138869992Y-134237227D01*
X138869978Y-134237220D01*
X138645939Y-134144421D01*
X138411687Y-134081653D01*
X138171264Y-134050001D01*
X138171248Y-134050000D01*
X137928752Y-134050000D01*
X137928735Y-134050001D01*
X137688312Y-134081653D01*
X137454060Y-134144421D01*
X137230021Y-134237220D01*
X137230006Y-134237227D01*
X137019990Y-134358480D01*
X136930614Y-134427060D01*
X136930614Y-134427061D01*
X137649438Y-135145885D01*
X137647374Y-135146740D01*
X137508156Y-135239762D01*
X137389762Y-135358156D01*
X137296740Y-135497374D01*
X137295885Y-135499438D01*
X136577061Y-134780614D01*
X136577060Y-134780614D01*
X136508480Y-134869990D01*
X136387227Y-135080006D01*
X136387220Y-135080021D01*
X136294421Y-135304060D01*
X136231653Y-135538312D01*
X136200001Y-135778735D01*
X136200000Y-135778751D01*
X128455106Y-135778751D01*
X127836284Y-135275302D01*
X127833046Y-135272574D01*
X127025557Y-134568479D01*
X127025550Y-134568474D01*
X127012718Y-134557285D01*
X127009575Y-134554449D01*
X126214075Y-133811505D01*
X126211031Y-133808562D01*
X125441437Y-133038968D01*
X125438494Y-133035924D01*
X124695550Y-132240424D01*
X124692714Y-132237280D01*
X123977425Y-131416953D01*
X123974697Y-131413715D01*
X123287800Y-130569405D01*
X123285184Y-130566075D01*
X122627511Y-129698805D01*
X122625011Y-129695388D01*
X121997358Y-128806205D01*
X121994975Y-128802705D01*
X121398007Y-127892553D01*
X121395746Y-127888973D01*
X120830235Y-126959029D01*
X120828097Y-126955375D01*
X120294641Y-126006626D01*
X120292629Y-126002900D01*
X119791868Y-125036476D01*
X119789996Y-125032705D01*
X119322544Y-124049791D01*
X119320791Y-124045937D01*
X118887167Y-123047635D01*
X118885547Y-123043723D01*
X118486239Y-122031150D01*
X118484768Y-122027226D01*
X118120269Y-121001625D01*
X118118925Y-120997628D01*
X117930774Y-120404814D01*
X117789657Y-119960192D01*
X117788447Y-119956139D01*
X117765096Y-119872797D01*
X117494776Y-118908012D01*
X117493727Y-118904006D01*
X117236009Y-117846455D01*
X117235094Y-117842401D01*
X117178485Y-117569983D01*
X166322000Y-117569983D01*
X166322000Y-119770001D01*
X166322001Y-119770018D01*
X166332500Y-119872796D01*
X166332501Y-119872799D01*
X166360118Y-119956139D01*
X166387686Y-120039334D01*
X166479788Y-120188656D01*
X166603844Y-120312712D01*
X166753166Y-120404814D01*
X166919703Y-120459999D01*
X167022491Y-120470500D01*
X169222508Y-120470499D01*
X169325297Y-120459999D01*
X169491834Y-120404814D01*
X169641156Y-120312712D01*
X169765212Y-120188656D01*
X169857314Y-120039334D01*
X169912499Y-119872797D01*
X169923000Y-119770009D01*
X169922999Y-117569992D01*
X169912499Y-117467203D01*
X169857314Y-117300666D01*
X169765212Y-117151344D01*
X169641156Y-117027288D01*
X169491834Y-116935186D01*
X169325297Y-116880001D01*
X169325295Y-116880000D01*
X169222510Y-116869500D01*
X167022498Y-116869500D01*
X167022481Y-116869501D01*
X166919703Y-116880000D01*
X166919700Y-116880001D01*
X166753168Y-116935185D01*
X166753163Y-116935187D01*
X166603842Y-117027289D01*
X166479789Y-117151342D01*
X166387687Y-117300663D01*
X166387686Y-117300666D01*
X166332501Y-117467203D01*
X166332501Y-117467204D01*
X166332500Y-117467204D01*
X166322000Y-117569983D01*
X117178485Y-117569983D01*
X117013644Y-116776723D01*
X117012853Y-116772564D01*
X116827911Y-115699927D01*
X116827272Y-115695799D01*
X116679056Y-114617445D01*
X116678562Y-114613332D01*
X116567248Y-113530546D01*
X116566889Y-113526345D01*
X116563171Y-113471995D01*
X166322000Y-113471995D01*
X166322000Y-113708004D01*
X166322001Y-113708020D01*
X166352806Y-113942010D01*
X166413894Y-114169993D01*
X166504214Y-114388045D01*
X166504219Y-114388056D01*
X166575177Y-114510957D01*
X166622227Y-114592450D01*
X166622229Y-114592453D01*
X166622230Y-114592454D01*
X166765906Y-114779697D01*
X166765912Y-114779704D01*
X166932795Y-114946587D01*
X166932801Y-114946592D01*
X167120050Y-115090273D01*
X167251418Y-115166118D01*
X167324443Y-115208280D01*
X167324448Y-115208282D01*
X167324451Y-115208284D01*
X167542507Y-115298606D01*
X167770486Y-115359693D01*
X168004489Y-115390500D01*
X168004496Y-115390500D01*
X168240504Y-115390500D01*
X168240511Y-115390500D01*
X168474514Y-115359693D01*
X168702493Y-115298606D01*
X168920549Y-115208284D01*
X169124950Y-115090273D01*
X169312199Y-114946592D01*
X169479092Y-114779699D01*
X169622773Y-114592450D01*
X169740784Y-114388049D01*
X169831106Y-114169993D01*
X169892193Y-113942014D01*
X169923000Y-113708011D01*
X169923000Y-113471989D01*
X169892193Y-113237986D01*
X169831106Y-113010007D01*
X169740784Y-112791951D01*
X169740782Y-112791948D01*
X169740780Y-112791943D01*
X169698618Y-112718918D01*
X169622773Y-112587550D01*
X169479092Y-112400301D01*
X169479087Y-112400295D01*
X169312204Y-112233412D01*
X169312197Y-112233406D01*
X169124954Y-112089730D01*
X169124953Y-112089729D01*
X169124950Y-112089727D01*
X169043457Y-112042677D01*
X168920556Y-111971719D01*
X168920545Y-111971714D01*
X168702493Y-111881394D01*
X168474510Y-111820306D01*
X168240520Y-111789501D01*
X168240517Y-111789500D01*
X168240511Y-111789500D01*
X168004489Y-111789500D01*
X168004483Y-111789500D01*
X168004479Y-111789501D01*
X167770489Y-111820306D01*
X167542506Y-111881394D01*
X167324454Y-111971714D01*
X167324443Y-111971719D01*
X167120045Y-112089730D01*
X166932802Y-112233406D01*
X166932795Y-112233412D01*
X166765912Y-112400295D01*
X166765906Y-112400302D01*
X166622230Y-112587545D01*
X166504219Y-112791943D01*
X166504214Y-112791954D01*
X166413894Y-113010006D01*
X166352806Y-113237989D01*
X166322001Y-113471979D01*
X166322000Y-113471995D01*
X116563171Y-113471995D01*
X116492610Y-112440413D01*
X116492398Y-112436296D01*
X116455236Y-111348435D01*
X116455164Y-111344202D01*
X116455164Y-110255797D01*
X116455236Y-110251564D01*
X116459447Y-110128284D01*
X116483650Y-109419778D01*
X127899500Y-109419778D01*
X127899500Y-109640221D01*
X127933985Y-109857952D01*
X128002103Y-110067603D01*
X128002104Y-110067606D01*
X128070122Y-110201096D01*
X128097994Y-110255797D01*
X128102187Y-110264025D01*
X128231752Y-110442358D01*
X128231756Y-110442363D01*
X128282316Y-110492923D01*
X128315801Y-110554246D01*
X128310817Y-110623938D01*
X128268945Y-110679871D01*
X128237969Y-110696785D01*
X128157918Y-110726643D01*
X128157906Y-110726649D01*
X128042812Y-110812809D01*
X128042809Y-110812812D01*
X127956649Y-110927906D01*
X127956645Y-110927913D01*
X127906403Y-111062620D01*
X127906401Y-111062627D01*
X127900000Y-111122155D01*
X127900000Y-111820000D01*
X128924722Y-111820000D01*
X128880667Y-111896306D01*
X128850000Y-112010756D01*
X128850000Y-112129244D01*
X128880667Y-112243694D01*
X128924722Y-112320000D01*
X127900000Y-112320000D01*
X127900000Y-113017844D01*
X127906401Y-113077372D01*
X127906403Y-113077379D01*
X127956645Y-113212086D01*
X127956649Y-113212093D01*
X128042809Y-113327187D01*
X128042812Y-113327190D01*
X128157906Y-113413350D01*
X128157913Y-113413354D01*
X128292620Y-113463596D01*
X128292627Y-113463598D01*
X128352155Y-113469999D01*
X128352172Y-113470000D01*
X129050000Y-113470000D01*
X129050000Y-112445277D01*
X129126306Y-112489333D01*
X129240756Y-112520000D01*
X129359244Y-112520000D01*
X129473694Y-112489333D01*
X129550000Y-112445277D01*
X129550000Y-113470000D01*
X130247828Y-113470000D01*
X130247844Y-113469999D01*
X130307372Y-113463598D01*
X130307379Y-113463596D01*
X130442086Y-113413354D01*
X130442089Y-113413352D01*
X130501785Y-113368664D01*
X130501786Y-113368663D01*
X130557190Y-113327186D01*
X130643350Y-113212093D01*
X130643354Y-113212086D01*
X130693596Y-113077379D01*
X130693598Y-113077372D01*
X130699999Y-113017844D01*
X130700000Y-113017827D01*
X130700000Y-112320000D01*
X129675278Y-112320000D01*
X129719333Y-112243694D01*
X129750000Y-112129244D01*
X129750000Y-112010756D01*
X129719333Y-111896306D01*
X129675278Y-111820000D01*
X130700000Y-111820000D01*
X130700000Y-111122172D01*
X130699999Y-111122155D01*
X130693598Y-111062627D01*
X130693596Y-111062620D01*
X130643354Y-110927913D01*
X130643350Y-110927906D01*
X130557190Y-110812812D01*
X130557187Y-110812809D01*
X130442093Y-110726649D01*
X130442087Y-110726646D01*
X130362030Y-110696786D01*
X130306097Y-110654914D01*
X130281680Y-110589450D01*
X130296532Y-110521177D01*
X130317681Y-110492925D01*
X130368242Y-110442365D01*
X130497815Y-110264022D01*
X130597895Y-110067606D01*
X130666015Y-109857951D01*
X130700500Y-109640222D01*
X130700500Y-109419778D01*
X130666015Y-109202049D01*
X130597895Y-108992394D01*
X130597895Y-108992393D01*
X130531460Y-108862010D01*
X130497815Y-108795978D01*
X130481260Y-108773192D01*
X130368247Y-108617641D01*
X130368243Y-108617636D01*
X130212363Y-108461756D01*
X130212358Y-108461752D01*
X130116345Y-108391995D01*
X166322000Y-108391995D01*
X166322000Y-108628004D01*
X166322001Y-108628020D01*
X166352806Y-108862010D01*
X166413894Y-109089993D01*
X166504214Y-109308045D01*
X166504219Y-109308056D01*
X166563465Y-109410672D01*
X166622227Y-109512450D01*
X166622229Y-109512453D01*
X166622230Y-109512454D01*
X166765906Y-109699697D01*
X166765912Y-109699704D01*
X166932795Y-109866587D01*
X166932801Y-109866592D01*
X167120050Y-110010273D01*
X167219354Y-110067606D01*
X167324443Y-110128280D01*
X167324448Y-110128282D01*
X167324451Y-110128284D01*
X167542507Y-110218606D01*
X167770486Y-110279693D01*
X168004489Y-110310500D01*
X168004496Y-110310500D01*
X168240504Y-110310500D01*
X168240511Y-110310500D01*
X168474514Y-110279693D01*
X168702493Y-110218606D01*
X168920549Y-110128284D01*
X169124950Y-110010273D01*
X169312199Y-109866592D01*
X169479092Y-109699699D01*
X169622773Y-109512450D01*
X169740784Y-109308049D01*
X169831106Y-109089993D01*
X169892193Y-108862014D01*
X169923000Y-108628011D01*
X169923000Y-108391989D01*
X169892193Y-108157986D01*
X169831106Y-107930007D01*
X169740784Y-107711951D01*
X169740782Y-107711948D01*
X169740780Y-107711943D01*
X169698618Y-107638918D01*
X169622773Y-107507550D01*
X169479092Y-107320301D01*
X169479087Y-107320295D01*
X169312204Y-107153412D01*
X169312197Y-107153406D01*
X169124954Y-107009730D01*
X169124953Y-107009729D01*
X169124950Y-107009727D01*
X169043457Y-106962677D01*
X168920556Y-106891719D01*
X168920545Y-106891714D01*
X168702493Y-106801394D01*
X168474510Y-106740306D01*
X168240520Y-106709501D01*
X168240517Y-106709500D01*
X168240511Y-106709500D01*
X168004489Y-106709500D01*
X168004483Y-106709500D01*
X168004479Y-106709501D01*
X167770489Y-106740306D01*
X167542506Y-106801394D01*
X167324454Y-106891714D01*
X167324443Y-106891719D01*
X167120045Y-107009730D01*
X166932802Y-107153406D01*
X166932795Y-107153412D01*
X166765912Y-107320295D01*
X166765906Y-107320302D01*
X166622230Y-107507545D01*
X166504219Y-107711943D01*
X166504214Y-107711954D01*
X166413894Y-107930006D01*
X166352806Y-108157989D01*
X166322001Y-108391979D01*
X166322000Y-108391995D01*
X130116345Y-108391995D01*
X130034025Y-108332187D01*
X130034024Y-108332186D01*
X130034022Y-108332185D01*
X129971096Y-108300122D01*
X129837606Y-108232104D01*
X129837603Y-108232103D01*
X129627952Y-108163985D01*
X129519086Y-108146742D01*
X129410222Y-108129500D01*
X129189778Y-108129500D01*
X129117201Y-108140995D01*
X128972047Y-108163985D01*
X128762396Y-108232103D01*
X128762393Y-108232104D01*
X128565974Y-108332187D01*
X128387641Y-108461752D01*
X128387636Y-108461756D01*
X128231756Y-108617636D01*
X128231752Y-108617641D01*
X128102187Y-108795974D01*
X128002104Y-108992393D01*
X128002103Y-108992396D01*
X127933985Y-109202047D01*
X127899500Y-109419778D01*
X116483650Y-109419778D01*
X116492398Y-109163700D01*
X116492609Y-109159589D01*
X116566890Y-108073630D01*
X116567250Y-108069435D01*
X116678563Y-106986660D01*
X116679055Y-106982561D01*
X116827273Y-105904191D01*
X116827910Y-105900081D01*
X117012855Y-104827421D01*
X117013633Y-104823324D01*
X117235099Y-103757573D01*
X117236006Y-103753557D01*
X117493731Y-102695978D01*
X117494772Y-102692001D01*
X117563236Y-102447648D01*
X127999500Y-102447648D01*
X127999500Y-102652351D01*
X128031522Y-102854534D01*
X128094781Y-103049223D01*
X128187715Y-103231613D01*
X128308028Y-103397213D01*
X128452786Y-103541971D01*
X128559633Y-103619598D01*
X128618390Y-103662287D01*
X128734607Y-103721503D01*
X128800776Y-103755218D01*
X128800778Y-103755218D01*
X128800781Y-103755220D01*
X128882937Y-103781914D01*
X128995465Y-103818477D01*
X129096557Y-103834488D01*
X129197648Y-103850500D01*
X129197649Y-103850500D01*
X129402351Y-103850500D01*
X129402352Y-103850500D01*
X129604534Y-103818477D01*
X129799219Y-103755220D01*
X129981610Y-103662287D01*
X130074590Y-103594732D01*
X130147213Y-103541971D01*
X130147215Y-103541968D01*
X130147219Y-103541966D01*
X130291966Y-103397219D01*
X130291968Y-103397215D01*
X130291971Y-103397213D01*
X130353871Y-103312014D01*
X166322500Y-103312014D01*
X166322500Y-103547985D01*
X166353299Y-103781914D01*
X166414370Y-104009837D01*
X166504660Y-104227819D01*
X166504665Y-104227828D01*
X166622644Y-104432171D01*
X166622645Y-104432172D01*
X166685221Y-104513723D01*
X167521458Y-103677487D01*
X167546478Y-103737890D01*
X167617612Y-103844351D01*
X167708149Y-103934888D01*
X167814610Y-104006022D01*
X167875011Y-104031041D01*
X167038775Y-104867277D01*
X167120327Y-104929854D01*
X167120328Y-104929855D01*
X167324671Y-105047834D01*
X167324680Y-105047839D01*
X167542663Y-105138129D01*
X167542661Y-105138129D01*
X167770585Y-105199200D01*
X168004514Y-105229999D01*
X168004529Y-105230000D01*
X168240471Y-105230000D01*
X168240485Y-105229999D01*
X168474414Y-105199200D01*
X168702337Y-105138129D01*
X168920319Y-105047839D01*
X168920328Y-105047834D01*
X169124681Y-104929850D01*
X169206223Y-104867279D01*
X169206223Y-104867276D01*
X168369987Y-104031041D01*
X168430390Y-104006022D01*
X168536851Y-103934888D01*
X168627388Y-103844351D01*
X168698522Y-103737890D01*
X168723541Y-103677488D01*
X169559776Y-104513723D01*
X169559779Y-104513723D01*
X169622350Y-104432181D01*
X169740334Y-104227828D01*
X169740339Y-104227819D01*
X169830629Y-104009837D01*
X169891700Y-103781914D01*
X169922499Y-103547985D01*
X169922500Y-103547971D01*
X169922500Y-103312028D01*
X169922499Y-103312014D01*
X169891700Y-103078085D01*
X169830629Y-102850162D01*
X169740339Y-102632180D01*
X169740334Y-102632171D01*
X169622355Y-102427828D01*
X169622354Y-102427827D01*
X169559777Y-102346275D01*
X168723541Y-103182511D01*
X168698522Y-103122110D01*
X168627388Y-103015649D01*
X168536851Y-102925112D01*
X168430390Y-102853978D01*
X168369988Y-102828958D01*
X169206223Y-101992721D01*
X169124672Y-101930145D01*
X169124671Y-101930144D01*
X168920328Y-101812165D01*
X168920319Y-101812160D01*
X168702336Y-101721870D01*
X168702338Y-101721870D01*
X168474414Y-101660799D01*
X168240485Y-101630000D01*
X168004514Y-101630000D01*
X167770585Y-101660799D01*
X167542662Y-101721870D01*
X167324680Y-101812160D01*
X167324671Y-101812165D01*
X167120328Y-101930144D01*
X167120318Y-101930150D01*
X167038775Y-101992720D01*
X167038775Y-101992721D01*
X167875012Y-102828958D01*
X167814610Y-102853978D01*
X167708149Y-102925112D01*
X167617612Y-103015649D01*
X167546478Y-103122110D01*
X167521458Y-103182511D01*
X166685221Y-102346275D01*
X166685220Y-102346275D01*
X166622650Y-102427818D01*
X166622644Y-102427828D01*
X166504665Y-102632171D01*
X166504660Y-102632180D01*
X166414370Y-102850162D01*
X166353299Y-103078085D01*
X166322500Y-103312014D01*
X130353871Y-103312014D01*
X130409768Y-103235078D01*
X130409768Y-103235077D01*
X130412287Y-103231610D01*
X130505220Y-103049219D01*
X130568477Y-102854534D01*
X130600500Y-102652352D01*
X130600500Y-102447648D01*
X130568477Y-102245466D01*
X130505220Y-102050781D01*
X130412287Y-101868390D01*
X130404556Y-101857749D01*
X130291971Y-101702786D01*
X130147213Y-101558028D01*
X129981613Y-101437715D01*
X129981612Y-101437714D01*
X129981610Y-101437713D01*
X129924653Y-101408691D01*
X129799223Y-101344781D01*
X129604534Y-101281522D01*
X129429995Y-101253878D01*
X129402352Y-101249500D01*
X129197648Y-101249500D01*
X129173329Y-101253351D01*
X128995465Y-101281522D01*
X128800776Y-101344781D01*
X128618386Y-101437715D01*
X128452786Y-101558028D01*
X128308028Y-101702786D01*
X128187715Y-101868386D01*
X128094781Y-102050776D01*
X128031522Y-102245465D01*
X127999500Y-102447648D01*
X117563236Y-102447648D01*
X117788453Y-101643839D01*
X117789659Y-101639803D01*
X118118936Y-100602337D01*
X118120263Y-100598391D01*
X118484775Y-99572754D01*
X118486239Y-99568849D01*
X118885547Y-98556276D01*
X118887167Y-98552364D01*
X119320791Y-97554062D01*
X119322544Y-97550208D01*
X119519668Y-97135715D01*
X119790018Y-96567249D01*
X119791857Y-96563546D01*
X120292649Y-95597061D01*
X120294620Y-95593410D01*
X120828106Y-94644608D01*
X120830235Y-94640970D01*
X121395746Y-93711026D01*
X121398007Y-93707446D01*
X121749204Y-93172003D01*
X121994998Y-92797259D01*
X121997334Y-92793828D01*
X122625044Y-91904564D01*
X122627477Y-91901239D01*
X123285197Y-91033906D01*
X123287800Y-91030594D01*
X123343375Y-90962284D01*
X123974710Y-90186268D01*
X123977425Y-90183046D01*
X124357073Y-89747648D01*
X127999500Y-89747648D01*
X127999500Y-89952351D01*
X128031522Y-90154534D01*
X128094781Y-90349223D01*
X128187715Y-90531613D01*
X128308028Y-90697213D01*
X128452786Y-90841971D01*
X128607749Y-90954556D01*
X128618390Y-90962287D01*
X128734607Y-91021503D01*
X128800776Y-91055218D01*
X128800778Y-91055218D01*
X128800781Y-91055220D01*
X128905137Y-91089127D01*
X128995465Y-91118477D01*
X129096557Y-91134488D01*
X129197648Y-91150500D01*
X129197649Y-91150500D01*
X129402351Y-91150500D01*
X129402352Y-91150500D01*
X129604534Y-91118477D01*
X129799219Y-91055220D01*
X129981610Y-90962287D01*
X130074590Y-90894732D01*
X130147213Y-90841971D01*
X130147215Y-90841968D01*
X130147219Y-90841966D01*
X130291966Y-90697219D01*
X130291968Y-90697215D01*
X130291971Y-90697213D01*
X130344732Y-90624590D01*
X130412287Y-90531610D01*
X130505220Y-90349219D01*
X130568477Y-90154534D01*
X130600500Y-89952352D01*
X130600500Y-89747648D01*
X130568477Y-89545466D01*
X130565618Y-89536668D01*
X130505218Y-89350776D01*
X130471503Y-89284607D01*
X130412287Y-89168390D01*
X130404556Y-89157749D01*
X130291971Y-89002786D01*
X130147213Y-88858028D01*
X129981613Y-88737715D01*
X129981612Y-88737714D01*
X129981610Y-88737713D01*
X129882536Y-88687232D01*
X129799223Y-88644781D01*
X129604534Y-88581522D01*
X129429995Y-88553878D01*
X129402352Y-88549500D01*
X129197648Y-88549500D01*
X129173329Y-88553351D01*
X128995465Y-88581522D01*
X128800776Y-88644781D01*
X128618386Y-88737715D01*
X128452786Y-88858028D01*
X128308028Y-89002786D01*
X128187715Y-89168386D01*
X128094781Y-89350776D01*
X128031522Y-89545465D01*
X127999500Y-89747648D01*
X124357073Y-89747648D01*
X124692719Y-89362713D01*
X124695550Y-89359575D01*
X124874108Y-89168386D01*
X125438521Y-88564046D01*
X125441407Y-88561061D01*
X126211061Y-87791407D01*
X126214046Y-87788521D01*
X127009580Y-87045544D01*
X127012683Y-87042745D01*
X127833062Y-86327411D01*
X127836268Y-86324710D01*
X128680611Y-85637786D01*
X128683906Y-85635197D01*
X128758341Y-85578751D01*
X136200000Y-85578751D01*
X136200000Y-85821248D01*
X136200001Y-85821264D01*
X136231653Y-86061687D01*
X136294421Y-86295939D01*
X136387220Y-86519978D01*
X136387227Y-86519992D01*
X136508481Y-86730010D01*
X136577061Y-86819384D01*
X137295884Y-86100560D01*
X137296740Y-86102626D01*
X137389762Y-86241844D01*
X137508156Y-86360238D01*
X137647374Y-86453260D01*
X137649437Y-86454114D01*
X136930614Y-87172936D01*
X136930614Y-87172937D01*
X137019989Y-87241517D01*
X137019996Y-87241522D01*
X137230007Y-87362772D01*
X137230021Y-87362779D01*
X137454060Y-87455578D01*
X137688312Y-87518346D01*
X137928735Y-87549998D01*
X137928752Y-87550000D01*
X138171248Y-87550000D01*
X138171264Y-87549998D01*
X138411687Y-87518346D01*
X138645939Y-87455578D01*
X138869978Y-87362779D01*
X138869992Y-87362772D01*
X139080016Y-87241515D01*
X139169384Y-87172939D01*
X139169384Y-87172936D01*
X138818194Y-86821746D01*
X141844500Y-86821746D01*
X141844500Y-87038254D01*
X141845430Y-87044125D01*
X141878370Y-87252098D01*
X141945272Y-87458006D01*
X141945273Y-87458009D01*
X142043567Y-87650919D01*
X142170828Y-87826078D01*
X142323922Y-87979172D01*
X142499081Y-88106433D01*
X142593697Y-88154642D01*
X142691990Y-88204726D01*
X142691993Y-88204727D01*
X142794947Y-88238178D01*
X142897903Y-88271630D01*
X143111746Y-88305500D01*
X143111747Y-88305500D01*
X143328253Y-88305500D01*
X143328254Y-88305500D01*
X143542097Y-88271630D01*
X143682563Y-88225990D01*
X143740848Y-88207053D01*
X143740848Y-88207052D01*
X143748009Y-88204726D01*
X143940919Y-88106433D01*
X144116078Y-87979172D01*
X144269172Y-87826078D01*
X144396433Y-87650919D01*
X144474097Y-87498494D01*
X144522072Y-87447699D01*
X144589893Y-87430904D01*
X144656028Y-87453441D01*
X144699143Y-87507338D01*
X144787220Y-87719978D01*
X144787227Y-87719992D01*
X144908481Y-87930010D01*
X144977061Y-88019384D01*
X145695884Y-87300560D01*
X145696740Y-87302626D01*
X145789762Y-87441844D01*
X145908156Y-87560238D01*
X146047374Y-87653260D01*
X146049437Y-87654114D01*
X145330614Y-88372936D01*
X145330614Y-88372937D01*
X145419989Y-88441517D01*
X145419996Y-88441522D01*
X145630007Y-88562772D01*
X145630021Y-88562779D01*
X145854060Y-88655578D01*
X146088312Y-88718346D01*
X146328735Y-88749998D01*
X146328752Y-88750000D01*
X146571248Y-88750000D01*
X146571264Y-88749998D01*
X146811687Y-88718346D01*
X147045939Y-88655578D01*
X147269978Y-88562779D01*
X147269992Y-88562772D01*
X147480016Y-88441515D01*
X147569384Y-88372939D01*
X147569384Y-88372936D01*
X146850562Y-87654114D01*
X146852626Y-87653260D01*
X146991844Y-87560238D01*
X147110238Y-87441844D01*
X147203260Y-87302626D01*
X147204114Y-87300562D01*
X147922936Y-88019384D01*
X147922939Y-88019384D01*
X147991515Y-87930016D01*
X148112772Y-87719992D01*
X148112779Y-87719978D01*
X148205578Y-87495939D01*
X148268346Y-87261687D01*
X148288475Y-87108798D01*
X148288475Y-87108797D01*
X148299998Y-87021265D01*
X148300000Y-87021248D01*
X148300000Y-86778751D01*
X148299998Y-86778735D01*
X148268346Y-86538312D01*
X148205578Y-86304060D01*
X148112779Y-86080021D01*
X148112772Y-86080007D01*
X147991522Y-85869996D01*
X147991517Y-85869989D01*
X147922937Y-85780614D01*
X147922936Y-85780614D01*
X147204114Y-86499436D01*
X147203260Y-86497374D01*
X147110238Y-86358156D01*
X146991844Y-86239762D01*
X146852626Y-86146740D01*
X146850560Y-86145884D01*
X147417695Y-85578751D01*
X148650000Y-85578751D01*
X148650000Y-85821248D01*
X148650001Y-85821264D01*
X148681653Y-86061687D01*
X148744421Y-86295939D01*
X148837220Y-86519978D01*
X148837227Y-86519992D01*
X148958481Y-86730010D01*
X149027061Y-86819384D01*
X149745884Y-86100560D01*
X149746740Y-86102626D01*
X149839762Y-86241844D01*
X149958156Y-86360238D01*
X150097374Y-86453260D01*
X150099437Y-86454114D01*
X149380614Y-87172936D01*
X149380614Y-87172937D01*
X149469989Y-87241517D01*
X149469996Y-87241522D01*
X149680007Y-87362772D01*
X149680021Y-87362779D01*
X149904060Y-87455578D01*
X150138312Y-87518346D01*
X150378735Y-87549998D01*
X150378752Y-87550000D01*
X150621248Y-87550000D01*
X150621264Y-87549998D01*
X150861687Y-87518346D01*
X151095939Y-87455578D01*
X151319978Y-87362779D01*
X151319992Y-87362772D01*
X151530016Y-87241515D01*
X151619384Y-87172939D01*
X151619384Y-87172936D01*
X151268194Y-86821746D01*
X154294500Y-86821746D01*
X154294500Y-87038254D01*
X154295430Y-87044125D01*
X154328370Y-87252098D01*
X154395272Y-87458006D01*
X154395273Y-87458009D01*
X154493567Y-87650919D01*
X154620828Y-87826078D01*
X154773922Y-87979172D01*
X154949081Y-88106433D01*
X155043697Y-88154642D01*
X155141990Y-88204726D01*
X155141993Y-88204727D01*
X155244947Y-88238178D01*
X155347903Y-88271630D01*
X155561746Y-88305500D01*
X155561747Y-88305500D01*
X155778253Y-88305500D01*
X155778254Y-88305500D01*
X155992097Y-88271630D01*
X156132563Y-88225990D01*
X156190848Y-88207053D01*
X156190848Y-88207052D01*
X156198009Y-88204726D01*
X156390919Y-88106433D01*
X156566078Y-87979172D01*
X156719172Y-87826078D01*
X156846433Y-87650919D01*
X156924097Y-87498494D01*
X156972072Y-87447699D01*
X157039893Y-87430904D01*
X157106028Y-87453441D01*
X157149143Y-87507338D01*
X157237220Y-87719978D01*
X157237227Y-87719992D01*
X157358481Y-87930010D01*
X157427061Y-88019384D01*
X158145884Y-87300560D01*
X158146740Y-87302626D01*
X158239762Y-87441844D01*
X158358156Y-87560238D01*
X158497374Y-87653260D01*
X158499437Y-87654114D01*
X157780614Y-88372936D01*
X157780614Y-88372937D01*
X157869989Y-88441517D01*
X157869996Y-88441522D01*
X158080007Y-88562772D01*
X158080021Y-88562779D01*
X158304060Y-88655578D01*
X158538312Y-88718346D01*
X158778735Y-88749998D01*
X158778752Y-88750000D01*
X159021248Y-88750000D01*
X159021264Y-88749998D01*
X159261687Y-88718346D01*
X159495939Y-88655578D01*
X159719978Y-88562779D01*
X159719992Y-88562772D01*
X159930016Y-88441515D01*
X160019384Y-88372939D01*
X160019384Y-88372936D01*
X159300562Y-87654114D01*
X159302626Y-87653260D01*
X159441844Y-87560238D01*
X159560238Y-87441844D01*
X159653260Y-87302626D01*
X159654114Y-87300562D01*
X160372936Y-88019384D01*
X160372939Y-88019384D01*
X160441515Y-87930016D01*
X160562772Y-87719992D01*
X160562779Y-87719978D01*
X160655578Y-87495939D01*
X160718346Y-87261687D01*
X160749998Y-87021264D01*
X160750000Y-87021248D01*
X160750000Y-86778751D01*
X160749998Y-86778735D01*
X160718346Y-86538312D01*
X160655578Y-86304060D01*
X160562779Y-86080021D01*
X160562772Y-86080007D01*
X160441522Y-85869996D01*
X160441517Y-85869989D01*
X160372937Y-85780614D01*
X160372936Y-85780614D01*
X159654114Y-86499436D01*
X159653260Y-86497374D01*
X159560238Y-86358156D01*
X159441844Y-86239762D01*
X159302626Y-86146740D01*
X159300560Y-86145884D01*
X160019384Y-85427061D01*
X159930010Y-85358481D01*
X159719992Y-85237227D01*
X159719978Y-85237220D01*
X159495939Y-85144421D01*
X159261687Y-85081653D01*
X159021264Y-85050001D01*
X159021248Y-85050000D01*
X158778752Y-85050000D01*
X158778735Y-85050001D01*
X158538312Y-85081653D01*
X158304060Y-85144421D01*
X158080021Y-85237220D01*
X158080006Y-85237227D01*
X157869990Y-85358480D01*
X157780614Y-85427060D01*
X157780614Y-85427061D01*
X158499438Y-86145885D01*
X158497374Y-86146740D01*
X158358156Y-86239762D01*
X158239762Y-86358156D01*
X158146740Y-86497374D01*
X158145885Y-86499438D01*
X157427061Y-85780614D01*
X157427060Y-85780614D01*
X157358480Y-85869990D01*
X157237227Y-86080006D01*
X157237220Y-86080021D01*
X157144419Y-86304065D01*
X157142007Y-86313068D01*
X157105641Y-86372728D01*
X157042794Y-86403256D01*
X156973419Y-86394960D01*
X156919541Y-86350474D01*
X156911748Y-86337268D01*
X156890690Y-86295939D01*
X156846433Y-86209081D01*
X156719172Y-86033922D01*
X156566078Y-85880828D01*
X156390919Y-85753567D01*
X156198009Y-85655273D01*
X156198006Y-85655272D01*
X156006179Y-85592945D01*
X156006178Y-85592944D01*
X155992100Y-85588370D01*
X155831714Y-85562967D01*
X155778254Y-85554500D01*
X155561746Y-85554500D01*
X155490465Y-85565790D01*
X155347901Y-85588370D01*
X155141993Y-85655272D01*
X155141990Y-85655273D01*
X154949080Y-85753567D01*
X154855926Y-85821248D01*
X154773922Y-85880828D01*
X154773920Y-85880830D01*
X154773919Y-85880830D01*
X154620830Y-86033919D01*
X154620830Y-86033920D01*
X154620828Y-86033922D01*
X154587346Y-86080006D01*
X154493567Y-86209080D01*
X154395273Y-86401990D01*
X154395272Y-86401993D01*
X154328370Y-86607901D01*
X154328370Y-86607903D01*
X154294500Y-86821746D01*
X151268194Y-86821746D01*
X150900562Y-86454114D01*
X150902626Y-86453260D01*
X151041844Y-86360238D01*
X151160238Y-86241844D01*
X151253260Y-86102626D01*
X151254114Y-86100562D01*
X151972936Y-86819384D01*
X151972939Y-86819384D01*
X152032790Y-86741387D01*
X152032790Y-86741386D01*
X152041517Y-86730012D01*
X152162772Y-86519992D01*
X152162779Y-86519978D01*
X152255578Y-86295939D01*
X152318346Y-86061687D01*
X152349998Y-85821264D01*
X152350000Y-85821248D01*
X152350000Y-85578751D01*
X152349998Y-85578735D01*
X152318346Y-85338312D01*
X152255578Y-85104060D01*
X152162779Y-84880021D01*
X152162772Y-84880007D01*
X152041522Y-84669996D01*
X152041517Y-84669989D01*
X151972937Y-84580614D01*
X151972936Y-84580614D01*
X151254114Y-85299436D01*
X151253260Y-85297374D01*
X151160238Y-85158156D01*
X151041844Y-85039762D01*
X150902626Y-84946740D01*
X150900560Y-84945884D01*
X151619384Y-84227061D01*
X151530010Y-84158481D01*
X151319992Y-84037227D01*
X151319978Y-84037220D01*
X151095939Y-83944421D01*
X150861687Y-83881653D01*
X150621264Y-83850001D01*
X150621248Y-83850000D01*
X150378752Y-83850000D01*
X150378735Y-83850001D01*
X150138312Y-83881653D01*
X149904060Y-83944421D01*
X149680021Y-84037220D01*
X149680006Y-84037227D01*
X149469990Y-84158480D01*
X149380614Y-84227060D01*
X149380614Y-84227061D01*
X150099438Y-84945885D01*
X150097374Y-84946740D01*
X149958156Y-85039762D01*
X149839762Y-85158156D01*
X149746740Y-85297374D01*
X149745885Y-85299438D01*
X149027061Y-84580614D01*
X149027060Y-84580614D01*
X148958480Y-84669990D01*
X148837227Y-84880006D01*
X148837220Y-84880021D01*
X148744421Y-85104060D01*
X148681653Y-85338312D01*
X148650001Y-85578735D01*
X148650000Y-85578751D01*
X147417695Y-85578751D01*
X147509441Y-85487005D01*
X147569384Y-85427061D01*
X147480010Y-85358481D01*
X147269992Y-85237227D01*
X147269978Y-85237220D01*
X147045939Y-85144421D01*
X146811687Y-85081653D01*
X146571264Y-85050001D01*
X146571248Y-85050000D01*
X146328752Y-85050000D01*
X146328735Y-85050001D01*
X146088312Y-85081653D01*
X145854060Y-85144421D01*
X145630021Y-85237220D01*
X145630006Y-85237227D01*
X145419990Y-85358480D01*
X145330614Y-85427060D01*
X145330614Y-85427061D01*
X146049438Y-86145885D01*
X146047374Y-86146740D01*
X145908156Y-86239762D01*
X145789762Y-86358156D01*
X145696740Y-86497374D01*
X145695885Y-86499438D01*
X144977061Y-85780614D01*
X144977060Y-85780614D01*
X144908480Y-85869990D01*
X144787227Y-86080006D01*
X144787220Y-86080021D01*
X144694419Y-86304065D01*
X144692007Y-86313068D01*
X144655641Y-86372728D01*
X144592794Y-86403256D01*
X144523419Y-86394960D01*
X144469541Y-86350474D01*
X144461748Y-86337268D01*
X144440690Y-86295939D01*
X144396433Y-86209081D01*
X144269172Y-86033922D01*
X144116078Y-85880828D01*
X143940919Y-85753567D01*
X143748009Y-85655273D01*
X143748006Y-85655272D01*
X143556179Y-85592945D01*
X143556178Y-85592944D01*
X143542100Y-85588370D01*
X143381714Y-85562967D01*
X143328254Y-85554500D01*
X143111746Y-85554500D01*
X143040465Y-85565790D01*
X142897901Y-85588370D01*
X142691993Y-85655272D01*
X142691990Y-85655273D01*
X142499080Y-85753567D01*
X142405926Y-85821248D01*
X142323922Y-85880828D01*
X142323920Y-85880830D01*
X142323919Y-85880830D01*
X142170830Y-86033919D01*
X142170830Y-86033920D01*
X142170828Y-86033922D01*
X142137346Y-86080006D01*
X142043567Y-86209080D01*
X141945273Y-86401990D01*
X141945272Y-86401993D01*
X141878370Y-86607901D01*
X141878370Y-86607903D01*
X141844500Y-86821746D01*
X138818194Y-86821746D01*
X138450562Y-86454114D01*
X138452626Y-86453260D01*
X138591844Y-86360238D01*
X138710238Y-86241844D01*
X138803260Y-86102626D01*
X138804114Y-86100562D01*
X139522936Y-86819384D01*
X139522939Y-86819384D01*
X139582790Y-86741387D01*
X139582790Y-86741386D01*
X139591517Y-86730012D01*
X139712772Y-86519992D01*
X139712779Y-86519978D01*
X139805578Y-86295939D01*
X139868346Y-86061687D01*
X139899998Y-85821264D01*
X139900000Y-85821248D01*
X139900000Y-85578751D01*
X139899998Y-85578735D01*
X139868346Y-85338312D01*
X139805578Y-85104060D01*
X139712779Y-84880021D01*
X139712772Y-84880007D01*
X139591522Y-84669996D01*
X139591517Y-84669989D01*
X139522937Y-84580614D01*
X139522936Y-84580614D01*
X138804114Y-85299436D01*
X138803260Y-85297374D01*
X138710238Y-85158156D01*
X138591844Y-85039762D01*
X138452626Y-84946740D01*
X138450560Y-84945884D01*
X139169384Y-84227061D01*
X139080010Y-84158481D01*
X138869992Y-84037227D01*
X138869978Y-84037220D01*
X138645939Y-83944421D01*
X138411687Y-83881653D01*
X138171264Y-83850001D01*
X138171248Y-83850000D01*
X137928752Y-83850000D01*
X137928735Y-83850001D01*
X137688312Y-83881653D01*
X137454060Y-83944421D01*
X137230021Y-84037220D01*
X137230006Y-84037227D01*
X137019990Y-84158480D01*
X136930614Y-84227060D01*
X136930614Y-84227061D01*
X137649438Y-84945885D01*
X137647374Y-84946740D01*
X137508156Y-85039762D01*
X137389762Y-85158156D01*
X137296740Y-85297374D01*
X137295885Y-85299438D01*
X136577061Y-84580614D01*
X136577060Y-84580614D01*
X136508480Y-84669990D01*
X136387227Y-84880006D01*
X136387220Y-84880021D01*
X136294421Y-85104060D01*
X136231653Y-85338312D01*
X136200001Y-85578735D01*
X136200000Y-85578751D01*
X128758341Y-85578751D01*
X129551239Y-84977477D01*
X129554564Y-84975044D01*
X130443828Y-84347334D01*
X130447259Y-84344998D01*
X131357463Y-83747996D01*
X131361008Y-83745757D01*
X132290986Y-83180225D01*
X132294608Y-83178106D01*
X133243410Y-82644620D01*
X133247061Y-82642649D01*
X134213546Y-82141857D01*
X134217249Y-82140018D01*
X135200218Y-81672539D01*
X135204062Y-81670791D01*
X135731376Y-81441746D01*
X139124500Y-81441746D01*
X139124500Y-81658253D01*
X139158370Y-81872098D01*
X139225272Y-82078006D01*
X139225273Y-82078009D01*
X139323567Y-82270919D01*
X139450828Y-82446078D01*
X139603922Y-82599172D01*
X139779081Y-82726433D01*
X139873697Y-82774642D01*
X139971990Y-82824726D01*
X139971993Y-82824727D01*
X140074947Y-82858178D01*
X140177903Y-82891630D01*
X140391746Y-82925500D01*
X140391747Y-82925500D01*
X140608253Y-82925500D01*
X140608254Y-82925500D01*
X140822097Y-82891630D01*
X141028009Y-82824726D01*
X141220919Y-82726433D01*
X141396078Y-82599172D01*
X141549172Y-82446078D01*
X141676433Y-82270919D01*
X141774726Y-82078009D01*
X141841630Y-81872097D01*
X141875500Y-81658254D01*
X141875500Y-81441746D01*
X141841630Y-81227903D01*
X141774726Y-81021991D01*
X141774726Y-81021990D01*
X141680080Y-80836239D01*
X141676433Y-80829081D01*
X141549172Y-80653922D01*
X141522385Y-80627135D01*
X142624500Y-80627135D01*
X142624500Y-82472870D01*
X142624501Y-82472876D01*
X142630908Y-82532483D01*
X142681202Y-82667328D01*
X142681206Y-82667335D01*
X142767452Y-82782544D01*
X142767455Y-82782547D01*
X142882664Y-82868793D01*
X142882671Y-82868797D01*
X143017517Y-82919091D01*
X143017516Y-82919091D01*
X143024444Y-82919835D01*
X143077127Y-82925500D01*
X144922872Y-82925499D01*
X144982483Y-82919091D01*
X145117331Y-82868796D01*
X145232546Y-82782546D01*
X145318796Y-82667331D01*
X145369091Y-82532483D01*
X145375500Y-82472873D01*
X145375499Y-81441746D01*
X151574500Y-81441746D01*
X151574500Y-81658253D01*
X151608370Y-81872098D01*
X151675272Y-82078006D01*
X151675273Y-82078009D01*
X151773567Y-82270919D01*
X151900828Y-82446078D01*
X152053922Y-82599172D01*
X152229081Y-82726433D01*
X152323697Y-82774642D01*
X152421990Y-82824726D01*
X152421993Y-82824727D01*
X152524947Y-82858178D01*
X152627903Y-82891630D01*
X152841746Y-82925500D01*
X152841747Y-82925500D01*
X153058253Y-82925500D01*
X153058254Y-82925500D01*
X153272097Y-82891630D01*
X153478009Y-82824726D01*
X153670919Y-82726433D01*
X153846078Y-82599172D01*
X153999172Y-82446078D01*
X154126433Y-82270919D01*
X154224726Y-82078009D01*
X154291630Y-81872097D01*
X154325500Y-81658254D01*
X154325500Y-81441746D01*
X154291630Y-81227903D01*
X154224726Y-81021991D01*
X154224726Y-81021990D01*
X154130080Y-80836239D01*
X154126433Y-80829081D01*
X153999172Y-80653922D01*
X153846078Y-80500828D01*
X153670919Y-80373567D01*
X153641031Y-80358338D01*
X153478009Y-80275273D01*
X153478006Y-80275272D01*
X153272098Y-80208370D01*
X153165175Y-80191435D01*
X153058254Y-80174500D01*
X152841746Y-80174500D01*
X152801282Y-80180909D01*
X152627901Y-80208370D01*
X152421993Y-80275272D01*
X152421990Y-80275273D01*
X152229080Y-80373567D01*
X152129145Y-80446174D01*
X152053922Y-80500828D01*
X152053920Y-80500830D01*
X152053919Y-80500830D01*
X151900830Y-80653919D01*
X151900830Y-80653920D01*
X151900828Y-80653922D01*
X151869754Y-80696692D01*
X151773567Y-80829080D01*
X151675273Y-81021990D01*
X151675272Y-81021993D01*
X151608370Y-81227901D01*
X151574500Y-81441746D01*
X145375499Y-81441746D01*
X145375499Y-80627128D01*
X145369091Y-80567517D01*
X145344218Y-80500830D01*
X145318797Y-80432671D01*
X145318793Y-80432664D01*
X145232547Y-80317455D01*
X145232544Y-80317452D01*
X145117335Y-80231206D01*
X145117328Y-80231202D01*
X144982482Y-80180908D01*
X144982483Y-80180908D01*
X144922883Y-80174501D01*
X144922881Y-80174500D01*
X144922873Y-80174500D01*
X144922864Y-80174500D01*
X143077129Y-80174500D01*
X143077123Y-80174501D01*
X143017516Y-80180908D01*
X142882671Y-80231202D01*
X142882664Y-80231206D01*
X142767455Y-80317452D01*
X142767452Y-80317455D01*
X142681206Y-80432664D01*
X142681202Y-80432671D01*
X142630908Y-80567517D01*
X142624501Y-80627116D01*
X142624501Y-80627123D01*
X142624500Y-80627135D01*
X141522385Y-80627135D01*
X141396078Y-80500828D01*
X141220919Y-80373567D01*
X141191031Y-80358338D01*
X141028009Y-80275273D01*
X141028006Y-80275272D01*
X140822098Y-80208370D01*
X140715175Y-80191435D01*
X140608254Y-80174500D01*
X140391746Y-80174500D01*
X140351282Y-80180909D01*
X140177901Y-80208370D01*
X139971993Y-80275272D01*
X139971990Y-80275273D01*
X139779080Y-80373567D01*
X139679145Y-80446174D01*
X139603922Y-80500828D01*
X139603920Y-80500830D01*
X139603919Y-80500830D01*
X139450830Y-80653919D01*
X139450830Y-80653920D01*
X139450828Y-80653922D01*
X139419754Y-80696692D01*
X139323567Y-80829080D01*
X139225273Y-81021990D01*
X139225272Y-81021993D01*
X139158370Y-81227901D01*
X139124500Y-81441746D01*
X135731376Y-81441746D01*
X136202387Y-81237157D01*
X136206276Y-81235547D01*
X137218849Y-80836239D01*
X137222754Y-80834775D01*
X138248391Y-80470263D01*
X138252337Y-80468936D01*
X139289823Y-80139652D01*
X139293839Y-80138453D01*
X140342001Y-79844772D01*
X140345978Y-79843731D01*
X141403557Y-79586006D01*
X141407585Y-79585097D01*
X142473279Y-79363643D01*
X142477421Y-79362855D01*
X143550081Y-79177910D01*
X143554191Y-79177273D01*
X144632561Y-79029055D01*
X144636660Y-79028563D01*
X145719458Y-78917248D01*
X145723630Y-78916890D01*
X146809589Y-78842609D01*
X146813703Y-78842398D01*
X147877179Y-78806068D01*
X147901564Y-78805236D01*
X147905797Y-78805164D01*
X148994203Y-78805164D01*
X148998436Y-78805236D01*
G37*
%TD.AperFunction*%
%TD*%
M02*
