%TF.GenerationSoftware,KiCad,Pcbnew,9.0.0*%
%TF.CreationDate,2025-03-25T15:05:36+01:00*%
%TF.ProjectId,LEDstripCtrl,4c454473-7472-4697-9043-74726c2e6b69,rev?*%
%TF.SameCoordinates,Original*%
%TF.FileFunction,Legend,Top*%
%TF.FilePolarity,Positive*%
%FSLAX46Y46*%
G04 Gerber Fmt 4.6, Leading zero omitted, Abs format (unit mm)*
G04 Created by KiCad (PCBNEW 9.0.0) date 2025-03-25 15:05:36*
%MOMM*%
%LPD*%
G01*
G04 APERTURE LIST*
%ADD10C,0.300000*%
%ADD11C,0.400000*%
%ADD12C,0.200000*%
%ADD13C,0.150000*%
%ADD14C,0.120000*%
G04 APERTURE END LIST*
D10*
X174354510Y-115000828D02*
X174354510Y-113500828D01*
X174354510Y-113500828D02*
X175211653Y-115000828D01*
X175211653Y-115000828D02*
X175211653Y-113500828D01*
X175783082Y-113500828D02*
X176140225Y-115000828D01*
X176140225Y-115000828D02*
X176425939Y-113929400D01*
X176425939Y-113929400D02*
X176711654Y-115000828D01*
X176711654Y-115000828D02*
X177068797Y-113500828D01*
D11*
X160544109Y-99239200D02*
X160829823Y-99334438D01*
X160829823Y-99334438D02*
X161306014Y-99334438D01*
X161306014Y-99334438D02*
X161496490Y-99239200D01*
X161496490Y-99239200D02*
X161591728Y-99143961D01*
X161591728Y-99143961D02*
X161686966Y-98953485D01*
X161686966Y-98953485D02*
X161686966Y-98763009D01*
X161686966Y-98763009D02*
X161591728Y-98572533D01*
X161591728Y-98572533D02*
X161496490Y-98477295D01*
X161496490Y-98477295D02*
X161306014Y-98382057D01*
X161306014Y-98382057D02*
X160925061Y-98286819D01*
X160925061Y-98286819D02*
X160734585Y-98191580D01*
X160734585Y-98191580D02*
X160639347Y-98096342D01*
X160639347Y-98096342D02*
X160544109Y-97905866D01*
X160544109Y-97905866D02*
X160544109Y-97715390D01*
X160544109Y-97715390D02*
X160639347Y-97524914D01*
X160639347Y-97524914D02*
X160734585Y-97429676D01*
X160734585Y-97429676D02*
X160925061Y-97334438D01*
X160925061Y-97334438D02*
X161401252Y-97334438D01*
X161401252Y-97334438D02*
X161686966Y-97429676D01*
X162544109Y-98286819D02*
X163210776Y-98286819D01*
X163496490Y-99334438D02*
X162544109Y-99334438D01*
X162544109Y-99334438D02*
X162544109Y-97334438D01*
X162544109Y-97334438D02*
X163496490Y-97334438D01*
D12*
X174693482Y-102814838D02*
X174598244Y-102767219D01*
X174598244Y-102767219D02*
X174455387Y-102767219D01*
X174455387Y-102767219D02*
X174312530Y-102814838D01*
X174312530Y-102814838D02*
X174217292Y-102910076D01*
X174217292Y-102910076D02*
X174169673Y-103005314D01*
X174169673Y-103005314D02*
X174122054Y-103195790D01*
X174122054Y-103195790D02*
X174122054Y-103338647D01*
X174122054Y-103338647D02*
X174169673Y-103529123D01*
X174169673Y-103529123D02*
X174217292Y-103624361D01*
X174217292Y-103624361D02*
X174312530Y-103719600D01*
X174312530Y-103719600D02*
X174455387Y-103767219D01*
X174455387Y-103767219D02*
X174550625Y-103767219D01*
X174550625Y-103767219D02*
X174693482Y-103719600D01*
X174693482Y-103719600D02*
X174741101Y-103671980D01*
X174741101Y-103671980D02*
X174741101Y-103338647D01*
X174741101Y-103338647D02*
X174550625Y-103338647D01*
X175169673Y-103767219D02*
X175169673Y-102767219D01*
X175169673Y-102767219D02*
X175741101Y-103767219D01*
X175741101Y-103767219D02*
X175741101Y-102767219D01*
X176217292Y-103767219D02*
X176217292Y-102767219D01*
X176217292Y-102767219D02*
X176455387Y-102767219D01*
X176455387Y-102767219D02*
X176598244Y-102814838D01*
X176598244Y-102814838D02*
X176693482Y-102910076D01*
X176693482Y-102910076D02*
X176741101Y-103005314D01*
X176741101Y-103005314D02*
X176788720Y-103195790D01*
X176788720Y-103195790D02*
X176788720Y-103338647D01*
X176788720Y-103338647D02*
X176741101Y-103529123D01*
X176741101Y-103529123D02*
X176693482Y-103624361D01*
X176693482Y-103624361D02*
X176598244Y-103719600D01*
X176598244Y-103719600D02*
X176455387Y-103767219D01*
X176455387Y-103767219D02*
X176217292Y-103767219D01*
D10*
X174383082Y-109129400D02*
X174597368Y-109200828D01*
X174597368Y-109200828D02*
X174954510Y-109200828D01*
X174954510Y-109200828D02*
X175097368Y-109129400D01*
X175097368Y-109129400D02*
X175168796Y-109057971D01*
X175168796Y-109057971D02*
X175240225Y-108915114D01*
X175240225Y-108915114D02*
X175240225Y-108772257D01*
X175240225Y-108772257D02*
X175168796Y-108629400D01*
X175168796Y-108629400D02*
X175097368Y-108557971D01*
X175097368Y-108557971D02*
X174954510Y-108486542D01*
X174954510Y-108486542D02*
X174668796Y-108415114D01*
X174668796Y-108415114D02*
X174525939Y-108343685D01*
X174525939Y-108343685D02*
X174454510Y-108272257D01*
X174454510Y-108272257D02*
X174383082Y-108129400D01*
X174383082Y-108129400D02*
X174383082Y-107986542D01*
X174383082Y-107986542D02*
X174454510Y-107843685D01*
X174454510Y-107843685D02*
X174525939Y-107772257D01*
X174525939Y-107772257D02*
X174668796Y-107700828D01*
X174668796Y-107700828D02*
X175025939Y-107700828D01*
X175025939Y-107700828D02*
X175240225Y-107772257D01*
X175883081Y-108415114D02*
X176383081Y-108415114D01*
X176597367Y-109200828D02*
X175883081Y-109200828D01*
X175883081Y-109200828D02*
X175883081Y-107700828D01*
X175883081Y-107700828D02*
X176597367Y-107700828D01*
D12*
X174574435Y-119167219D02*
X175193482Y-119167219D01*
X175193482Y-119167219D02*
X174860149Y-119548171D01*
X174860149Y-119548171D02*
X175003006Y-119548171D01*
X175003006Y-119548171D02*
X175098244Y-119595790D01*
X175098244Y-119595790D02*
X175145863Y-119643409D01*
X175145863Y-119643409D02*
X175193482Y-119738647D01*
X175193482Y-119738647D02*
X175193482Y-119976742D01*
X175193482Y-119976742D02*
X175145863Y-120071980D01*
X175145863Y-120071980D02*
X175098244Y-120119600D01*
X175098244Y-120119600D02*
X175003006Y-120167219D01*
X175003006Y-120167219D02*
X174717292Y-120167219D01*
X174717292Y-120167219D02*
X174622054Y-120119600D01*
X174622054Y-120119600D02*
X174574435Y-120071980D01*
X175479197Y-119167219D02*
X175812530Y-120167219D01*
X175812530Y-120167219D02*
X176145863Y-119167219D01*
X176383959Y-119167219D02*
X177003006Y-119167219D01*
X177003006Y-119167219D02*
X176669673Y-119548171D01*
X176669673Y-119548171D02*
X176812530Y-119548171D01*
X176812530Y-119548171D02*
X176907768Y-119595790D01*
X176907768Y-119595790D02*
X176955387Y-119643409D01*
X176955387Y-119643409D02*
X177003006Y-119738647D01*
X177003006Y-119738647D02*
X177003006Y-119976742D01*
X177003006Y-119976742D02*
X176955387Y-120071980D01*
X176955387Y-120071980D02*
X176907768Y-120119600D01*
X176907768Y-120119600D02*
X176812530Y-120167219D01*
X176812530Y-120167219D02*
X176526816Y-120167219D01*
X176526816Y-120167219D02*
X176431578Y-120119600D01*
X176431578Y-120119600D02*
X176383959Y-120071980D01*
D11*
X133239347Y-99634438D02*
X133239347Y-97634438D01*
X133239347Y-97634438D02*
X134382204Y-99634438D01*
X134382204Y-99634438D02*
X134382204Y-97634438D01*
X135144109Y-97634438D02*
X135620299Y-99634438D01*
X135620299Y-99634438D02*
X136001252Y-98205866D01*
X136001252Y-98205866D02*
X136382204Y-99634438D01*
X136382204Y-99634438D02*
X136858395Y-97634438D01*
D13*
X148454819Y-111395238D02*
X147978628Y-111728571D01*
X148454819Y-111966666D02*
X147454819Y-111966666D01*
X147454819Y-111966666D02*
X147454819Y-111585714D01*
X147454819Y-111585714D02*
X147502438Y-111490476D01*
X147502438Y-111490476D02*
X147550057Y-111442857D01*
X147550057Y-111442857D02*
X147645295Y-111395238D01*
X147645295Y-111395238D02*
X147788152Y-111395238D01*
X147788152Y-111395238D02*
X147883390Y-111442857D01*
X147883390Y-111442857D02*
X147931009Y-111490476D01*
X147931009Y-111490476D02*
X147978628Y-111585714D01*
X147978628Y-111585714D02*
X147978628Y-111966666D01*
X147454819Y-111109523D02*
X148454819Y-110776190D01*
X148454819Y-110776190D02*
X147454819Y-110442857D01*
X148454819Y-109585714D02*
X148454819Y-110157142D01*
X148454819Y-109871428D02*
X147454819Y-109871428D01*
X147454819Y-109871428D02*
X147597676Y-109966666D01*
X147597676Y-109966666D02*
X147692914Y-110061904D01*
X147692914Y-110061904D02*
X147740533Y-110157142D01*
X126794819Y-111538094D02*
X125794819Y-111538094D01*
X125794819Y-111538094D02*
X125794819Y-111299999D01*
X125794819Y-111299999D02*
X125842438Y-111157142D01*
X125842438Y-111157142D02*
X125937676Y-111061904D01*
X125937676Y-111061904D02*
X126032914Y-111014285D01*
X126032914Y-111014285D02*
X126223390Y-110966666D01*
X126223390Y-110966666D02*
X126366247Y-110966666D01*
X126366247Y-110966666D02*
X126556723Y-111014285D01*
X126556723Y-111014285D02*
X126651961Y-111061904D01*
X126651961Y-111061904D02*
X126747200Y-111157142D01*
X126747200Y-111157142D02*
X126794819Y-111299999D01*
X126794819Y-111299999D02*
X126794819Y-111538094D01*
X126794819Y-110014285D02*
X126794819Y-110585713D01*
X126794819Y-110299999D02*
X125794819Y-110299999D01*
X125794819Y-110299999D02*
X125937676Y-110395237D01*
X125937676Y-110395237D02*
X126032914Y-110490475D01*
X126032914Y-110490475D02*
X126080533Y-110585713D01*
X161257319Y-111383333D02*
X161971604Y-111383333D01*
X161971604Y-111383333D02*
X162114461Y-111430952D01*
X162114461Y-111430952D02*
X162209700Y-111526190D01*
X162209700Y-111526190D02*
X162257319Y-111669047D01*
X162257319Y-111669047D02*
X162257319Y-111764285D01*
X162257319Y-110383333D02*
X162257319Y-110954761D01*
X162257319Y-110669047D02*
X161257319Y-110669047D01*
X161257319Y-110669047D02*
X161400176Y-110764285D01*
X161400176Y-110764285D02*
X161495414Y-110859523D01*
X161495414Y-110859523D02*
X161543033Y-110954761D01*
X160904819Y-111395238D02*
X160428628Y-111728571D01*
X160904819Y-111966666D02*
X159904819Y-111966666D01*
X159904819Y-111966666D02*
X159904819Y-111585714D01*
X159904819Y-111585714D02*
X159952438Y-111490476D01*
X159952438Y-111490476D02*
X160000057Y-111442857D01*
X160000057Y-111442857D02*
X160095295Y-111395238D01*
X160095295Y-111395238D02*
X160238152Y-111395238D01*
X160238152Y-111395238D02*
X160333390Y-111442857D01*
X160333390Y-111442857D02*
X160381009Y-111490476D01*
X160381009Y-111490476D02*
X160428628Y-111585714D01*
X160428628Y-111585714D02*
X160428628Y-111966666D01*
X159904819Y-111109523D02*
X160904819Y-110776190D01*
X160904819Y-110776190D02*
X159904819Y-110442857D01*
X160000057Y-110157142D02*
X159952438Y-110109523D01*
X159952438Y-110109523D02*
X159904819Y-110014285D01*
X159904819Y-110014285D02*
X159904819Y-109776190D01*
X159904819Y-109776190D02*
X159952438Y-109680952D01*
X159952438Y-109680952D02*
X160000057Y-109633333D01*
X160000057Y-109633333D02*
X160095295Y-109585714D01*
X160095295Y-109585714D02*
X160190533Y-109585714D01*
X160190533Y-109585714D02*
X160333390Y-109633333D01*
X160333390Y-109633333D02*
X160904819Y-110204761D01*
X160904819Y-110204761D02*
X160904819Y-109585714D01*
X132474819Y-96366666D02*
X131998628Y-96699999D01*
X132474819Y-96938094D02*
X131474819Y-96938094D01*
X131474819Y-96938094D02*
X131474819Y-96557142D01*
X131474819Y-96557142D02*
X131522438Y-96461904D01*
X131522438Y-96461904D02*
X131570057Y-96414285D01*
X131570057Y-96414285D02*
X131665295Y-96366666D01*
X131665295Y-96366666D02*
X131808152Y-96366666D01*
X131808152Y-96366666D02*
X131903390Y-96414285D01*
X131903390Y-96414285D02*
X131951009Y-96461904D01*
X131951009Y-96461904D02*
X131998628Y-96557142D01*
X131998628Y-96557142D02*
X131998628Y-96938094D01*
X132474819Y-95414285D02*
X132474819Y-95985713D01*
X132474819Y-95699999D02*
X131474819Y-95699999D01*
X131474819Y-95699999D02*
X131617676Y-95795237D01*
X131617676Y-95795237D02*
X131712914Y-95890475D01*
X131712914Y-95890475D02*
X131760533Y-95985713D01*
D14*
%TO.C,RV1*%
X137630000Y-80680000D02*
X137630000Y-84065000D01*
X137630000Y-87336000D02*
X137630000Y-134265000D01*
X137630000Y-137536000D02*
X137630000Y-140920000D01*
X139677000Y-80680000D02*
X137630000Y-80680000D01*
X139710000Y-140920000D02*
X137630000Y-140920000D01*
X142250000Y-88300000D02*
X141500000Y-89050000D01*
X142250000Y-88300000D02*
X142250000Y-133300000D01*
X142250000Y-133300000D02*
X141500000Y-132550000D01*
X142825000Y-80680000D02*
X141322000Y-80680000D01*
X143000000Y-89050000D02*
X142250000Y-88300000D01*
X143000000Y-132550000D02*
X142250000Y-133300000D01*
X143500000Y-79875000D02*
X144000000Y-80375000D01*
X143750000Y-88300000D02*
X140750000Y-88300000D01*
X143750000Y-133300000D02*
X140750000Y-133300000D01*
X144000000Y-80375000D02*
X144500000Y-79875000D01*
X144500000Y-79875000D02*
X143500000Y-79875000D01*
X146870000Y-80680000D02*
X145175000Y-80680000D01*
X146870000Y-80680000D02*
X146870000Y-85265000D01*
X146870000Y-88536000D02*
X146870000Y-133065000D01*
X146870000Y-136336000D02*
X146870000Y-140920000D01*
X146870000Y-140920000D02*
X144823000Y-140920000D01*
%TO.C,D1*%
X128064000Y-112360000D02*
X128220000Y-112360000D01*
X130380000Y-112360000D02*
X130536000Y-112360000D01*
X128064484Y-112360000D02*
G75*
G02*
X128219939Y-109128603I1235516J1560000D01*
G01*
X128220000Y-111840961D02*
G75*
G02*
X128219951Y-109759090I1080000J1040961D01*
G01*
X130380049Y-109759090D02*
G75*
G02*
X130380000Y-111840961I-1080049J-1040910D01*
G01*
X130380061Y-109128603D02*
G75*
G02*
X130535516Y-112360000I-1080061J-1671397D01*
G01*
%TO.C,J1*%
X162802500Y-100770000D02*
X172842500Y-100770000D01*
X162802500Y-121330000D02*
X162802500Y-100770000D01*
X162802500Y-121330000D02*
X172842500Y-121330000D01*
X165822500Y-121330000D02*
X165822500Y-100770000D01*
X166711500Y-102246000D02*
X166755500Y-102290000D01*
X166711500Y-107326000D02*
X166755500Y-107370000D01*
X166711500Y-112406000D02*
X166755500Y-112450000D01*
X166938500Y-102019000D02*
X166982500Y-102063000D01*
X166938500Y-107099000D02*
X166982500Y-107143000D01*
X166938500Y-112179000D02*
X166982500Y-112223000D01*
X169262500Y-104797000D02*
X169305500Y-104841000D01*
X169262500Y-109877000D02*
X169305500Y-109921000D01*
X169262500Y-114957000D02*
X169305500Y-115001000D01*
X169489500Y-104570000D02*
X169532500Y-104614000D01*
X169489500Y-109650000D02*
X169532500Y-109694000D01*
X169489500Y-114730000D02*
X169532500Y-114774000D01*
X170722500Y-121330000D02*
X170722500Y-100770000D01*
X172222500Y-121330000D02*
X172222500Y-100770000D01*
X172842500Y-118370000D02*
X172842500Y-100770000D01*
X172842500Y-121330000D02*
X172842500Y-118970000D01*
X166342500Y-119210000D02*
G75*
G02*
X166342294Y-118130679I1780000J540000D01*
G01*
X167582500Y-116890000D02*
G75*
G02*
X168661821Y-116889794I540000J-1780013D01*
G01*
X168662500Y-120450000D02*
G75*
G02*
X167583179Y-120450206I-540000J1780000D01*
G01*
X169902500Y-118130000D02*
G75*
G02*
X169902706Y-119209321I-1780013J-540000D01*
G01*
X169982500Y-103430000D02*
G75*
G02*
X166262500Y-103430000I-1860000J0D01*
G01*
X166262500Y-103430000D02*
G75*
G02*
X169982500Y-103430000I1860000J0D01*
G01*
X169982500Y-108510000D02*
G75*
G02*
X166262500Y-108510000I-1860000J0D01*
G01*
X166262500Y-108510000D02*
G75*
G02*
X169982500Y-108510000I1860000J0D01*
G01*
X169982500Y-113590000D02*
G75*
G02*
X166262500Y-113590000I-1860000J0D01*
G01*
X166262500Y-113590000D02*
G75*
G02*
X169982500Y-113590000I1860000J0D01*
G01*
X173452500Y-119110000D02*
X172842500Y-118670000D01*
X173452500Y-118230000D01*
X173452500Y-119110000D01*
G36*
X173452500Y-119110000D02*
G01*
X172842500Y-118670000D01*
X173452500Y-118230000D01*
X173452500Y-119110000D01*
G37*
%TO.C,RV2*%
X150080000Y-80680000D02*
X150080000Y-84065000D01*
X150080000Y-87336000D02*
X150080000Y-134265000D01*
X150080000Y-137536000D02*
X150080000Y-140920000D01*
X152127000Y-80680000D02*
X150080000Y-80680000D01*
X152160000Y-140920000D02*
X150080000Y-140920000D01*
X154700000Y-88300000D02*
X153950000Y-89050000D01*
X154700000Y-88300000D02*
X154700000Y-133300000D01*
X154700000Y-133300000D02*
X153950000Y-132550000D01*
X155275000Y-80680000D02*
X153772000Y-80680000D01*
X155450000Y-89050000D02*
X154700000Y-88300000D01*
X155450000Y-132550000D02*
X154700000Y-133300000D01*
X155950000Y-79875000D02*
X156450000Y-80375000D01*
X156200000Y-88300000D02*
X153200000Y-88300000D01*
X156200000Y-133300000D02*
X153200000Y-133300000D01*
X156450000Y-80375000D02*
X156950000Y-79875000D01*
X156950000Y-79875000D02*
X155950000Y-79875000D01*
X159320000Y-80680000D02*
X157625000Y-80680000D01*
X159320000Y-80680000D02*
X159320000Y-85265000D01*
X159320000Y-88536000D02*
X159320000Y-133065000D01*
X159320000Y-136336000D02*
X159320000Y-140920000D01*
X159320000Y-140920000D02*
X157273000Y-140920000D01*
%TO.C,R1*%
X127580000Y-91580000D02*
X127580000Y-100820000D01*
X127580000Y-100820000D02*
X131020000Y-100820000D01*
X129300000Y-90890000D02*
X129300000Y-91580000D01*
X129300000Y-101510000D02*
X129300000Y-100820000D01*
X131020000Y-91580000D02*
X127580000Y-91580000D01*
X131020000Y-100820000D02*
X131020000Y-91580000D01*
%TD*%
M02*
