%TF.GenerationSoftware,KiCad,Pcbnew,8.0.1*%
%TF.CreationDate,2024-05-29T15:36:32+02:00*%
%TF.ProjectId,TargetHitDetector,54617267-6574-4486-9974-446574656374,rev?*%
%TF.SameCoordinates,Original*%
%TF.FileFunction,Legend,Top*%
%TF.FilePolarity,Positive*%
%FSLAX46Y46*%
G04 Gerber Fmt 4.6, Leading zero omitted, Abs format (unit mm)*
G04 Created by KiCad (PCBNEW 8.0.1) date 2024-05-29 15:36:32*
%MOMM*%
%LPD*%
G01*
G04 APERTURE LIST*
%ADD10C,0.300000*%
%ADD11C,0.150000*%
%ADD12C,0.120000*%
G04 APERTURE END LIST*
D10*
X145997368Y-104200828D02*
X145711653Y-104200828D01*
X145711653Y-104200828D02*
X145568796Y-104272257D01*
X145568796Y-104272257D02*
X145497368Y-104343685D01*
X145497368Y-104343685D02*
X145354510Y-104557971D01*
X145354510Y-104557971D02*
X145283082Y-104843685D01*
X145283082Y-104843685D02*
X145283082Y-105415114D01*
X145283082Y-105415114D02*
X145354510Y-105557971D01*
X145354510Y-105557971D02*
X145425939Y-105629400D01*
X145425939Y-105629400D02*
X145568796Y-105700828D01*
X145568796Y-105700828D02*
X145854510Y-105700828D01*
X145854510Y-105700828D02*
X145997368Y-105629400D01*
X145997368Y-105629400D02*
X146068796Y-105557971D01*
X146068796Y-105557971D02*
X146140225Y-105415114D01*
X146140225Y-105415114D02*
X146140225Y-105057971D01*
X146140225Y-105057971D02*
X146068796Y-104915114D01*
X146068796Y-104915114D02*
X145997368Y-104843685D01*
X145997368Y-104843685D02*
X145854510Y-104772257D01*
X145854510Y-104772257D02*
X145568796Y-104772257D01*
X145568796Y-104772257D02*
X145425939Y-104843685D01*
X145425939Y-104843685D02*
X145354510Y-104915114D01*
X145354510Y-104915114D02*
X145283082Y-105057971D01*
X146568796Y-104200828D02*
X147068796Y-105700828D01*
X147068796Y-105700828D02*
X147568796Y-104200828D01*
X136640225Y-107472257D02*
X136497368Y-107400828D01*
X136497368Y-107400828D02*
X136283082Y-107400828D01*
X136283082Y-107400828D02*
X136068796Y-107472257D01*
X136068796Y-107472257D02*
X135925939Y-107615114D01*
X135925939Y-107615114D02*
X135854510Y-107757971D01*
X135854510Y-107757971D02*
X135783082Y-108043685D01*
X135783082Y-108043685D02*
X135783082Y-108257971D01*
X135783082Y-108257971D02*
X135854510Y-108543685D01*
X135854510Y-108543685D02*
X135925939Y-108686542D01*
X135925939Y-108686542D02*
X136068796Y-108829400D01*
X136068796Y-108829400D02*
X136283082Y-108900828D01*
X136283082Y-108900828D02*
X136425939Y-108900828D01*
X136425939Y-108900828D02*
X136640225Y-108829400D01*
X136640225Y-108829400D02*
X136711653Y-108757971D01*
X136711653Y-108757971D02*
X136711653Y-108257971D01*
X136711653Y-108257971D02*
X136425939Y-108257971D01*
X137354510Y-107900828D02*
X137354510Y-108900828D01*
X137354510Y-108043685D02*
X137425939Y-107972257D01*
X137425939Y-107972257D02*
X137568796Y-107900828D01*
X137568796Y-107900828D02*
X137783082Y-107900828D01*
X137783082Y-107900828D02*
X137925939Y-107972257D01*
X137925939Y-107972257D02*
X137997368Y-108115114D01*
X137997368Y-108115114D02*
X137997368Y-108900828D01*
X139354511Y-108900828D02*
X139354511Y-107400828D01*
X139354511Y-108829400D02*
X139211653Y-108900828D01*
X139211653Y-108900828D02*
X138925939Y-108900828D01*
X138925939Y-108900828D02*
X138783082Y-108829400D01*
X138783082Y-108829400D02*
X138711653Y-108757971D01*
X138711653Y-108757971D02*
X138640225Y-108615114D01*
X138640225Y-108615114D02*
X138640225Y-108186542D01*
X138640225Y-108186542D02*
X138711653Y-108043685D01*
X138711653Y-108043685D02*
X138783082Y-107972257D01*
X138783082Y-107972257D02*
X138925939Y-107900828D01*
X138925939Y-107900828D02*
X139211653Y-107900828D01*
X139211653Y-107900828D02*
X139354511Y-107972257D01*
X152854510Y-108500828D02*
X152854510Y-107000828D01*
X152854510Y-107715114D02*
X153711653Y-107715114D01*
X153711653Y-108500828D02*
X153711653Y-107000828D01*
X154425939Y-108500828D02*
X154425939Y-107500828D01*
X154425939Y-107000828D02*
X154354511Y-107072257D01*
X154354511Y-107072257D02*
X154425939Y-107143685D01*
X154425939Y-107143685D02*
X154497368Y-107072257D01*
X154497368Y-107072257D02*
X154425939Y-107000828D01*
X154425939Y-107000828D02*
X154425939Y-107143685D01*
X154925940Y-107500828D02*
X155497368Y-107500828D01*
X155140225Y-107000828D02*
X155140225Y-108286542D01*
X155140225Y-108286542D02*
X155211654Y-108429400D01*
X155211654Y-108429400D02*
X155354511Y-108500828D01*
X155354511Y-108500828D02*
X155497368Y-108500828D01*
X155997368Y-107929400D02*
X157140226Y-107929400D01*
X157783083Y-108429400D02*
X157925940Y-108500828D01*
X157925940Y-108500828D02*
X158211654Y-108500828D01*
X158211654Y-108500828D02*
X158354511Y-108429400D01*
X158354511Y-108429400D02*
X158425940Y-108286542D01*
X158425940Y-108286542D02*
X158425940Y-108215114D01*
X158425940Y-108215114D02*
X158354511Y-108072257D01*
X158354511Y-108072257D02*
X158211654Y-108000828D01*
X158211654Y-108000828D02*
X157997369Y-108000828D01*
X157997369Y-108000828D02*
X157854511Y-107929400D01*
X157854511Y-107929400D02*
X157783083Y-107786542D01*
X157783083Y-107786542D02*
X157783083Y-107715114D01*
X157783083Y-107715114D02*
X157854511Y-107572257D01*
X157854511Y-107572257D02*
X157997369Y-107500828D01*
X157997369Y-107500828D02*
X158211654Y-107500828D01*
X158211654Y-107500828D02*
X158354511Y-107572257D01*
X159068797Y-108500828D02*
X159068797Y-107500828D01*
X159068797Y-107000828D02*
X158997369Y-107072257D01*
X158997369Y-107072257D02*
X159068797Y-107143685D01*
X159068797Y-107143685D02*
X159140226Y-107072257D01*
X159140226Y-107072257D02*
X159068797Y-107000828D01*
X159068797Y-107000828D02*
X159068797Y-107143685D01*
X160425941Y-107500828D02*
X160425941Y-108715114D01*
X160425941Y-108715114D02*
X160354512Y-108857971D01*
X160354512Y-108857971D02*
X160283083Y-108929400D01*
X160283083Y-108929400D02*
X160140226Y-109000828D01*
X160140226Y-109000828D02*
X159925941Y-109000828D01*
X159925941Y-109000828D02*
X159783083Y-108929400D01*
X160425941Y-108429400D02*
X160283083Y-108500828D01*
X160283083Y-108500828D02*
X159997369Y-108500828D01*
X159997369Y-108500828D02*
X159854512Y-108429400D01*
X159854512Y-108429400D02*
X159783083Y-108357971D01*
X159783083Y-108357971D02*
X159711655Y-108215114D01*
X159711655Y-108215114D02*
X159711655Y-107786542D01*
X159711655Y-107786542D02*
X159783083Y-107643685D01*
X159783083Y-107643685D02*
X159854512Y-107572257D01*
X159854512Y-107572257D02*
X159997369Y-107500828D01*
X159997369Y-107500828D02*
X160283083Y-107500828D01*
X160283083Y-107500828D02*
X160425941Y-107572257D01*
D11*
X133754819Y-99561904D02*
X134564342Y-99561904D01*
X134564342Y-99561904D02*
X134659580Y-99514285D01*
X134659580Y-99514285D02*
X134707200Y-99466666D01*
X134707200Y-99466666D02*
X134754819Y-99371428D01*
X134754819Y-99371428D02*
X134754819Y-99180952D01*
X134754819Y-99180952D02*
X134707200Y-99085714D01*
X134707200Y-99085714D02*
X134659580Y-99038095D01*
X134659580Y-99038095D02*
X134564342Y-98990476D01*
X134564342Y-98990476D02*
X133754819Y-98990476D01*
X134754819Y-97990476D02*
X134754819Y-98561904D01*
X134754819Y-98276190D02*
X133754819Y-98276190D01*
X133754819Y-98276190D02*
X133897676Y-98371428D01*
X133897676Y-98371428D02*
X133992914Y-98466666D01*
X133992914Y-98466666D02*
X134040533Y-98561904D01*
X137434819Y-92366666D02*
X136958628Y-92699999D01*
X137434819Y-92938094D02*
X136434819Y-92938094D01*
X136434819Y-92938094D02*
X136434819Y-92557142D01*
X136434819Y-92557142D02*
X136482438Y-92461904D01*
X136482438Y-92461904D02*
X136530057Y-92414285D01*
X136530057Y-92414285D02*
X136625295Y-92366666D01*
X136625295Y-92366666D02*
X136768152Y-92366666D01*
X136768152Y-92366666D02*
X136863390Y-92414285D01*
X136863390Y-92414285D02*
X136911009Y-92461904D01*
X136911009Y-92461904D02*
X136958628Y-92557142D01*
X136958628Y-92557142D02*
X136958628Y-92938094D01*
X136434819Y-92033332D02*
X136434819Y-91414285D01*
X136434819Y-91414285D02*
X136815771Y-91747618D01*
X136815771Y-91747618D02*
X136815771Y-91604761D01*
X136815771Y-91604761D02*
X136863390Y-91509523D01*
X136863390Y-91509523D02*
X136911009Y-91461904D01*
X136911009Y-91461904D02*
X137006247Y-91414285D01*
X137006247Y-91414285D02*
X137244342Y-91414285D01*
X137244342Y-91414285D02*
X137339580Y-91461904D01*
X137339580Y-91461904D02*
X137387200Y-91509523D01*
X137387200Y-91509523D02*
X137434819Y-91604761D01*
X137434819Y-91604761D02*
X137434819Y-91890475D01*
X137434819Y-91890475D02*
X137387200Y-91985713D01*
X137387200Y-91985713D02*
X137339580Y-92033332D01*
X136954819Y-106638094D02*
X135954819Y-106638094D01*
X135954819Y-106638094D02*
X135954819Y-106399999D01*
X135954819Y-106399999D02*
X136002438Y-106257142D01*
X136002438Y-106257142D02*
X136097676Y-106161904D01*
X136097676Y-106161904D02*
X136192914Y-106114285D01*
X136192914Y-106114285D02*
X136383390Y-106066666D01*
X136383390Y-106066666D02*
X136526247Y-106066666D01*
X136526247Y-106066666D02*
X136716723Y-106114285D01*
X136716723Y-106114285D02*
X136811961Y-106161904D01*
X136811961Y-106161904D02*
X136907200Y-106257142D01*
X136907200Y-106257142D02*
X136954819Y-106399999D01*
X136954819Y-106399999D02*
X136954819Y-106638094D01*
X136050057Y-105685713D02*
X136002438Y-105638094D01*
X136002438Y-105638094D02*
X135954819Y-105542856D01*
X135954819Y-105542856D02*
X135954819Y-105304761D01*
X135954819Y-105304761D02*
X136002438Y-105209523D01*
X136002438Y-105209523D02*
X136050057Y-105161904D01*
X136050057Y-105161904D02*
X136145295Y-105114285D01*
X136145295Y-105114285D02*
X136240533Y-105114285D01*
X136240533Y-105114285D02*
X136383390Y-105161904D01*
X136383390Y-105161904D02*
X136954819Y-105733332D01*
X136954819Y-105733332D02*
X136954819Y-105114285D01*
X132661905Y-94874819D02*
X132661905Y-93874819D01*
X132661905Y-93874819D02*
X132900000Y-93874819D01*
X132900000Y-93874819D02*
X133042857Y-93922438D01*
X133042857Y-93922438D02*
X133138095Y-94017676D01*
X133138095Y-94017676D02*
X133185714Y-94112914D01*
X133185714Y-94112914D02*
X133233333Y-94303390D01*
X133233333Y-94303390D02*
X133233333Y-94446247D01*
X133233333Y-94446247D02*
X133185714Y-94636723D01*
X133185714Y-94636723D02*
X133138095Y-94731961D01*
X133138095Y-94731961D02*
X133042857Y-94827200D01*
X133042857Y-94827200D02*
X132900000Y-94874819D01*
X132900000Y-94874819D02*
X132661905Y-94874819D01*
X134090476Y-94208152D02*
X134090476Y-94874819D01*
X133852381Y-93827200D02*
X133614286Y-94541485D01*
X133614286Y-94541485D02*
X134233333Y-94541485D01*
X151109580Y-100666666D02*
X151157200Y-100714285D01*
X151157200Y-100714285D02*
X151204819Y-100857142D01*
X151204819Y-100857142D02*
X151204819Y-100952380D01*
X151204819Y-100952380D02*
X151157200Y-101095237D01*
X151157200Y-101095237D02*
X151061961Y-101190475D01*
X151061961Y-101190475D02*
X150966723Y-101238094D01*
X150966723Y-101238094D02*
X150776247Y-101285713D01*
X150776247Y-101285713D02*
X150633390Y-101285713D01*
X150633390Y-101285713D02*
X150442914Y-101238094D01*
X150442914Y-101238094D02*
X150347676Y-101190475D01*
X150347676Y-101190475D02*
X150252438Y-101095237D01*
X150252438Y-101095237D02*
X150204819Y-100952380D01*
X150204819Y-100952380D02*
X150204819Y-100857142D01*
X150204819Y-100857142D02*
X150252438Y-100714285D01*
X150252438Y-100714285D02*
X150300057Y-100666666D01*
X151204819Y-99714285D02*
X151204819Y-100285713D01*
X151204819Y-99999999D02*
X150204819Y-99999999D01*
X150204819Y-99999999D02*
X150347676Y-100095237D01*
X150347676Y-100095237D02*
X150442914Y-100190475D01*
X150442914Y-100190475D02*
X150490533Y-100285713D01*
X150333333Y-89734819D02*
X150000000Y-89258628D01*
X149761905Y-89734819D02*
X149761905Y-88734819D01*
X149761905Y-88734819D02*
X150142857Y-88734819D01*
X150142857Y-88734819D02*
X150238095Y-88782438D01*
X150238095Y-88782438D02*
X150285714Y-88830057D01*
X150285714Y-88830057D02*
X150333333Y-88925295D01*
X150333333Y-88925295D02*
X150333333Y-89068152D01*
X150333333Y-89068152D02*
X150285714Y-89163390D01*
X150285714Y-89163390D02*
X150238095Y-89211009D01*
X150238095Y-89211009D02*
X150142857Y-89258628D01*
X150142857Y-89258628D02*
X149761905Y-89258628D01*
X151238095Y-88734819D02*
X150761905Y-88734819D01*
X150761905Y-88734819D02*
X150714286Y-89211009D01*
X150714286Y-89211009D02*
X150761905Y-89163390D01*
X150761905Y-89163390D02*
X150857143Y-89115771D01*
X150857143Y-89115771D02*
X151095238Y-89115771D01*
X151095238Y-89115771D02*
X151190476Y-89163390D01*
X151190476Y-89163390D02*
X151238095Y-89211009D01*
X151238095Y-89211009D02*
X151285714Y-89306247D01*
X151285714Y-89306247D02*
X151285714Y-89544342D01*
X151285714Y-89544342D02*
X151238095Y-89639580D01*
X151238095Y-89639580D02*
X151190476Y-89687200D01*
X151190476Y-89687200D02*
X151095238Y-89734819D01*
X151095238Y-89734819D02*
X150857143Y-89734819D01*
X150857143Y-89734819D02*
X150761905Y-89687200D01*
X150761905Y-89687200D02*
X150714286Y-89639580D01*
X145019047Y-93331009D02*
X145161904Y-93378628D01*
X145161904Y-93378628D02*
X145209523Y-93426247D01*
X145209523Y-93426247D02*
X145257142Y-93521485D01*
X145257142Y-93521485D02*
X145257142Y-93664342D01*
X145257142Y-93664342D02*
X145209523Y-93759580D01*
X145209523Y-93759580D02*
X145161904Y-93807200D01*
X145161904Y-93807200D02*
X145066666Y-93854819D01*
X145066666Y-93854819D02*
X144685714Y-93854819D01*
X144685714Y-93854819D02*
X144685714Y-92854819D01*
X144685714Y-92854819D02*
X145019047Y-92854819D01*
X145019047Y-92854819D02*
X145114285Y-92902438D01*
X145114285Y-92902438D02*
X145161904Y-92950057D01*
X145161904Y-92950057D02*
X145209523Y-93045295D01*
X145209523Y-93045295D02*
X145209523Y-93140533D01*
X145209523Y-93140533D02*
X145161904Y-93235771D01*
X145161904Y-93235771D02*
X145114285Y-93283390D01*
X145114285Y-93283390D02*
X145019047Y-93331009D01*
X145019047Y-93331009D02*
X144685714Y-93331009D01*
X145590476Y-92854819D02*
X146257142Y-92854819D01*
X146257142Y-92854819D02*
X145590476Y-93854819D01*
X145590476Y-93854819D02*
X146257142Y-93854819D01*
X147161904Y-93854819D02*
X146590476Y-93854819D01*
X146876190Y-93854819D02*
X146876190Y-92854819D01*
X146876190Y-92854819D02*
X146780952Y-92997676D01*
X146780952Y-92997676D02*
X146685714Y-93092914D01*
X146685714Y-93092914D02*
X146590476Y-93140533D01*
X134354819Y-106438094D02*
X133354819Y-106438094D01*
X133354819Y-106438094D02*
X133354819Y-106199999D01*
X133354819Y-106199999D02*
X133402438Y-106057142D01*
X133402438Y-106057142D02*
X133497676Y-105961904D01*
X133497676Y-105961904D02*
X133592914Y-105914285D01*
X133592914Y-105914285D02*
X133783390Y-105866666D01*
X133783390Y-105866666D02*
X133926247Y-105866666D01*
X133926247Y-105866666D02*
X134116723Y-105914285D01*
X134116723Y-105914285D02*
X134211961Y-105961904D01*
X134211961Y-105961904D02*
X134307200Y-106057142D01*
X134307200Y-106057142D02*
X134354819Y-106199999D01*
X134354819Y-106199999D02*
X134354819Y-106438094D01*
X134354819Y-104914285D02*
X134354819Y-105485713D01*
X134354819Y-105199999D02*
X133354819Y-105199999D01*
X133354819Y-105199999D02*
X133497676Y-105295237D01*
X133497676Y-105295237D02*
X133592914Y-105390475D01*
X133592914Y-105390475D02*
X133640533Y-105485713D01*
X146933333Y-89909580D02*
X146885714Y-89957200D01*
X146885714Y-89957200D02*
X146742857Y-90004819D01*
X146742857Y-90004819D02*
X146647619Y-90004819D01*
X146647619Y-90004819D02*
X146504762Y-89957200D01*
X146504762Y-89957200D02*
X146409524Y-89861961D01*
X146409524Y-89861961D02*
X146361905Y-89766723D01*
X146361905Y-89766723D02*
X146314286Y-89576247D01*
X146314286Y-89576247D02*
X146314286Y-89433390D01*
X146314286Y-89433390D02*
X146361905Y-89242914D01*
X146361905Y-89242914D02*
X146409524Y-89147676D01*
X146409524Y-89147676D02*
X146504762Y-89052438D01*
X146504762Y-89052438D02*
X146647619Y-89004819D01*
X146647619Y-89004819D02*
X146742857Y-89004819D01*
X146742857Y-89004819D02*
X146885714Y-89052438D01*
X146885714Y-89052438D02*
X146933333Y-89100057D01*
X147314286Y-89100057D02*
X147361905Y-89052438D01*
X147361905Y-89052438D02*
X147457143Y-89004819D01*
X147457143Y-89004819D02*
X147695238Y-89004819D01*
X147695238Y-89004819D02*
X147790476Y-89052438D01*
X147790476Y-89052438D02*
X147838095Y-89100057D01*
X147838095Y-89100057D02*
X147885714Y-89195295D01*
X147885714Y-89195295D02*
X147885714Y-89290533D01*
X147885714Y-89290533D02*
X147838095Y-89433390D01*
X147838095Y-89433390D02*
X147266667Y-90004819D01*
X147266667Y-90004819D02*
X147885714Y-90004819D01*
X158754819Y-105361904D02*
X159564342Y-105361904D01*
X159564342Y-105361904D02*
X159659580Y-105314285D01*
X159659580Y-105314285D02*
X159707200Y-105266666D01*
X159707200Y-105266666D02*
X159754819Y-105171428D01*
X159754819Y-105171428D02*
X159754819Y-104980952D01*
X159754819Y-104980952D02*
X159707200Y-104885714D01*
X159707200Y-104885714D02*
X159659580Y-104838095D01*
X159659580Y-104838095D02*
X159564342Y-104790476D01*
X159564342Y-104790476D02*
X158754819Y-104790476D01*
X158850057Y-104361904D02*
X158802438Y-104314285D01*
X158802438Y-104314285D02*
X158754819Y-104219047D01*
X158754819Y-104219047D02*
X158754819Y-103980952D01*
X158754819Y-103980952D02*
X158802438Y-103885714D01*
X158802438Y-103885714D02*
X158850057Y-103838095D01*
X158850057Y-103838095D02*
X158945295Y-103790476D01*
X158945295Y-103790476D02*
X159040533Y-103790476D01*
X159040533Y-103790476D02*
X159183390Y-103838095D01*
X159183390Y-103838095D02*
X159754819Y-104409523D01*
X159754819Y-104409523D02*
X159754819Y-103790476D01*
X140433333Y-89974819D02*
X140100000Y-89498628D01*
X139861905Y-89974819D02*
X139861905Y-88974819D01*
X139861905Y-88974819D02*
X140242857Y-88974819D01*
X140242857Y-88974819D02*
X140338095Y-89022438D01*
X140338095Y-89022438D02*
X140385714Y-89070057D01*
X140385714Y-89070057D02*
X140433333Y-89165295D01*
X140433333Y-89165295D02*
X140433333Y-89308152D01*
X140433333Y-89308152D02*
X140385714Y-89403390D01*
X140385714Y-89403390D02*
X140338095Y-89451009D01*
X140338095Y-89451009D02*
X140242857Y-89498628D01*
X140242857Y-89498628D02*
X139861905Y-89498628D01*
X140814286Y-89070057D02*
X140861905Y-89022438D01*
X140861905Y-89022438D02*
X140957143Y-88974819D01*
X140957143Y-88974819D02*
X141195238Y-88974819D01*
X141195238Y-88974819D02*
X141290476Y-89022438D01*
X141290476Y-89022438D02*
X141338095Y-89070057D01*
X141338095Y-89070057D02*
X141385714Y-89165295D01*
X141385714Y-89165295D02*
X141385714Y-89260533D01*
X141385714Y-89260533D02*
X141338095Y-89403390D01*
X141338095Y-89403390D02*
X140766667Y-89974819D01*
X140766667Y-89974819D02*
X141385714Y-89974819D01*
X159804761Y-102779819D02*
X159471428Y-102303628D01*
X159233333Y-102779819D02*
X159233333Y-101779819D01*
X159233333Y-101779819D02*
X159614285Y-101779819D01*
X159614285Y-101779819D02*
X159709523Y-101827438D01*
X159709523Y-101827438D02*
X159757142Y-101875057D01*
X159757142Y-101875057D02*
X159804761Y-101970295D01*
X159804761Y-101970295D02*
X159804761Y-102113152D01*
X159804761Y-102113152D02*
X159757142Y-102208390D01*
X159757142Y-102208390D02*
X159709523Y-102256009D01*
X159709523Y-102256009D02*
X159614285Y-102303628D01*
X159614285Y-102303628D02*
X159233333Y-102303628D01*
X160090476Y-101779819D02*
X160423809Y-102779819D01*
X160423809Y-102779819D02*
X160757142Y-101779819D01*
X161614285Y-102779819D02*
X161042857Y-102779819D01*
X161328571Y-102779819D02*
X161328571Y-101779819D01*
X161328571Y-101779819D02*
X161233333Y-101922676D01*
X161233333Y-101922676D02*
X161138095Y-102017914D01*
X161138095Y-102017914D02*
X161042857Y-102065533D01*
X134074819Y-98766666D02*
X133598628Y-99099999D01*
X134074819Y-99338094D02*
X133074819Y-99338094D01*
X133074819Y-99338094D02*
X133074819Y-98957142D01*
X133074819Y-98957142D02*
X133122438Y-98861904D01*
X133122438Y-98861904D02*
X133170057Y-98814285D01*
X133170057Y-98814285D02*
X133265295Y-98766666D01*
X133265295Y-98766666D02*
X133408152Y-98766666D01*
X133408152Y-98766666D02*
X133503390Y-98814285D01*
X133503390Y-98814285D02*
X133551009Y-98861904D01*
X133551009Y-98861904D02*
X133598628Y-98957142D01*
X133598628Y-98957142D02*
X133598628Y-99338094D01*
X134074819Y-97814285D02*
X134074819Y-98385713D01*
X134074819Y-98099999D02*
X133074819Y-98099999D01*
X133074819Y-98099999D02*
X133217676Y-98195237D01*
X133217676Y-98195237D02*
X133312914Y-98290475D01*
X133312914Y-98290475D02*
X133360533Y-98385713D01*
D12*
%TO.C,U1*%
X135140000Y-98800000D02*
X135140000Y-98000000D01*
X135140000Y-98800000D02*
X135140000Y-100600000D01*
X138260000Y-98800000D02*
X138260000Y-98000000D01*
X138260000Y-98800000D02*
X138260000Y-99600000D01*
%TO.C,J1*%
X139540000Y-105940000D02*
X139540000Y-114660000D01*
X139540000Y-114660000D02*
X152660000Y-114660000D01*
X140150000Y-106550000D02*
X140150000Y-113050000D01*
X140150000Y-113050000D02*
X152050000Y-113050000D01*
X142750000Y-106550000D02*
X140150000Y-106550000D01*
X142750000Y-107550000D02*
X142750000Y-106550000D01*
X147150000Y-106550000D02*
X147150000Y-107550000D01*
X147150000Y-107550000D02*
X142750000Y-107550000D01*
X149750000Y-106550000D02*
X147150000Y-106550000D01*
X149750000Y-107550000D02*
X149750000Y-106550000D01*
X152050000Y-107550000D02*
X149750000Y-107550000D01*
X152050000Y-113050000D02*
X152050000Y-107550000D01*
X152660000Y-105940000D02*
X139540000Y-105940000D01*
X152660000Y-114660000D02*
X152660000Y-105940000D01*
X152960000Y-112550000D02*
X152960000Y-114960000D01*
X152960000Y-114960000D02*
X150550000Y-114960000D01*
%TO.C,R3*%
X137890000Y-92927064D02*
X137890000Y-91472936D01*
X139710000Y-92927064D02*
X139710000Y-91472936D01*
%TO.C,D2*%
X135900000Y-102900000D02*
X135900000Y-104750000D01*
X135900000Y-104750000D02*
X137100000Y-104750000D01*
X137100000Y-102900000D02*
X137100000Y-104750000D01*
%TO.C,D4*%
X131800000Y-93735000D02*
X135860000Y-93735000D01*
X135860000Y-91465000D02*
X131800000Y-91465000D01*
X135860000Y-93735000D02*
X135860000Y-91465000D01*
%TO.C,C1*%
X151690000Y-101211252D02*
X151690000Y-99788748D01*
X153510000Y-101211252D02*
X153510000Y-99788748D01*
%TO.C,R5*%
X149772936Y-90190000D02*
X151227064Y-90190000D01*
X149772936Y-92010000D02*
X151227064Y-92010000D01*
%TO.C,BZ1*%
X141290000Y-94290000D02*
X150510000Y-94290000D01*
X141290000Y-96940000D02*
X140960000Y-96940000D01*
X141290000Y-96940000D02*
X141290000Y-94290000D01*
X141290000Y-103510000D02*
X141290000Y-100860000D01*
X150510000Y-94290000D02*
X150510000Y-96940000D01*
X150510000Y-100860000D02*
X150510000Y-103510000D01*
X150510000Y-103510000D02*
X141290000Y-103510000D01*
%TO.C,D1*%
X133200000Y-104300000D02*
X133200000Y-102450000D01*
X134400000Y-102450000D02*
X133200000Y-102450000D01*
X134400000Y-104300000D02*
X134400000Y-102450000D01*
%TO.C,C2*%
X147811252Y-86790000D02*
X146388748Y-86790000D01*
X147811252Y-88610000D02*
X146388748Y-88610000D01*
%TO.C,U2*%
X155340000Y-104600000D02*
X155340000Y-103800000D01*
X155340000Y-104600000D02*
X155340000Y-105400000D01*
X158460000Y-104600000D02*
X158460000Y-102800000D01*
X158460000Y-104600000D02*
X158460000Y-105400000D01*
%TO.C,R2*%
X141327064Y-86790000D02*
X139872936Y-86790000D01*
X141327064Y-88610000D02*
X139872936Y-88610000D01*
%TO.C,RV1*%
X155480000Y-94750000D02*
X155480000Y-91155000D01*
X155480000Y-94750000D02*
X155480000Y-94555000D01*
X155480000Y-97795000D02*
X155480000Y-97600000D01*
X155480000Y-101196000D02*
X155480000Y-97600000D01*
X159163000Y-94555000D02*
X155480000Y-94555000D01*
X159163000Y-97795000D02*
X155480000Y-97795000D01*
X160521000Y-91155000D02*
X155480000Y-91155000D01*
X160521000Y-92250000D02*
X160521000Y-91155000D01*
X160521000Y-97249000D02*
X160521000Y-95100000D01*
X160521000Y-97249000D02*
X160521000Y-95100000D01*
X160521000Y-101196000D02*
X155480000Y-101196000D01*
X160521000Y-101196000D02*
X160521000Y-100101000D01*
%TO.C,R1*%
X130890000Y-97872936D02*
X130890000Y-99327064D01*
X132710000Y-97872936D02*
X132710000Y-99327064D01*
%TD*%
M02*
