%TF.GenerationSoftware,KiCad,Pcbnew,9.0.2*%
%TF.CreationDate,2025-06-13T14:53:56+02:00*%
%TF.ProjectId,wli,776c692e-6b69-4636-9164-5f7063625858,rev?*%
%TF.SameCoordinates,Original*%
%TF.FileFunction,Copper,L2,Bot*%
%TF.FilePolarity,Positive*%
%FSLAX46Y46*%
G04 Gerber Fmt 4.6, Leading zero omitted, Abs format (unit mm)*
G04 Created by KiCad (PCBNEW 9.0.2) date 2025-06-13 14:53:56*
%MOMM*%
%LPD*%
G01*
G04 APERTURE LIST*
G04 Aperture macros list*
%AMRoundRect*
0 Rectangle with rounded corners*
0 $1 Rounding radius*
0 $2 $3 $4 $5 $6 $7 $8 $9 X,Y pos of 4 corners*
0 Add a 4 corners polygon primitive as box body*
4,1,4,$2,$3,$4,$5,$6,$7,$8,$9,$2,$3,0*
0 Add four circle primitives for the rounded corners*
1,1,$1+$1,$2,$3*
1,1,$1+$1,$4,$5*
1,1,$1+$1,$6,$7*
1,1,$1+$1,$8,$9*
0 Add four rect primitives between the rounded corners*
20,1,$1+$1,$2,$3,$4,$5,0*
20,1,$1+$1,$4,$5,$6,$7,0*
20,1,$1+$1,$6,$7,$8,$9,0*
20,1,$1+$1,$8,$9,$2,$3,0*%
G04 Aperture macros list end*
%TA.AperFunction,ComponentPad*%
%ADD10C,1.600000*%
%TD*%
%TA.AperFunction,ComponentPad*%
%ADD11RoundRect,0.250000X0.550000X0.550000X-0.550000X0.550000X-0.550000X-0.550000X0.550000X-0.550000X0*%
%TD*%
%TA.AperFunction,ComponentPad*%
%ADD12R,1.050000X1.500000*%
%TD*%
%TA.AperFunction,ComponentPad*%
%ADD13O,1.050000X1.500000*%
%TD*%
%TA.AperFunction,ComponentPad*%
%ADD14R,1.800000X1.800000*%
%TD*%
%TA.AperFunction,ComponentPad*%
%ADD15C,1.800000*%
%TD*%
%TA.AperFunction,ComponentPad*%
%ADD16RoundRect,0.250000X1.050000X1.050000X-1.050000X1.050000X-1.050000X-1.050000X1.050000X-1.050000X0*%
%TD*%
%TA.AperFunction,ComponentPad*%
%ADD17C,2.600000*%
%TD*%
%TA.AperFunction,ComponentPad*%
%ADD18R,1.500000X1.500000*%
%TD*%
%TA.AperFunction,ComponentPad*%
%ADD19C,1.500000*%
%TD*%
%TA.AperFunction,Conductor*%
%ADD20C,0.400000*%
%TD*%
G04 APERTURE END LIST*
D10*
%TO.P,R12,1*%
%TO.N,+5V*%
X165080000Y-116120000D03*
%TO.P,R12,2*%
%TO.N,Net-(D4-A)*%
X165080000Y-126280000D03*
%TD*%
D11*
%TO.P,D7,1,K*%
%TO.N,Net-(D1-K)*%
X153960000Y-109100000D03*
D10*
%TO.P,D7,2,A*%
%TO.N,GNDREF*%
X143800000Y-109100000D03*
%TD*%
%TO.P,R10,1*%
%TO.N,Net-(D3-A)*%
X169300000Y-120100000D03*
%TO.P,R10,2*%
%TO.N,Net-(D3-K)*%
X179460000Y-120100000D03*
%TD*%
%TO.P,R8,1*%
%TO.N,Net-(J2-Pin_2)*%
X129360000Y-103680000D03*
%TO.P,R8,2*%
%TO.N,Net-(Q3-B)*%
X129360000Y-93520000D03*
%TD*%
%TO.P,R9,1*%
%TO.N,+5V*%
X155380000Y-116120000D03*
%TO.P,R9,2*%
%TO.N,Net-(D3-A)*%
X155380000Y-126280000D03*
%TD*%
D12*
%TO.P,Q2,1,C*%
%TO.N,Net-(D2-K)*%
X149950000Y-102340000D03*
D13*
%TO.P,Q2,2,B*%
%TO.N,Net-(Q2-B)*%
X148680000Y-102340000D03*
%TO.P,Q2,3,E*%
%TO.N,GNDREF*%
X147410000Y-102340000D03*
%TD*%
D14*
%TO.P,D1,1,K*%
%TO.N,Net-(D1-K)*%
X140480000Y-96975000D03*
D15*
%TO.P,D1,2,A*%
%TO.N,Net-(D1-A)*%
X140480000Y-94435000D03*
%TD*%
D14*
%TO.P,D3,1,K*%
%TO.N,Net-(D3-K)*%
X156380000Y-96875000D03*
D15*
%TO.P,D3,2,A*%
%TO.N,Net-(D3-A)*%
X156380000Y-94335000D03*
%TD*%
D12*
%TO.P,Q1,1,C*%
%TO.N,Net-(D1-K)*%
X141980000Y-102400000D03*
D13*
%TO.P,Q1,2,B*%
%TO.N,Net-(Q1-B)*%
X140710000Y-102400000D03*
%TO.P,Q1,3,E*%
%TO.N,GNDREF*%
X139440000Y-102400000D03*
%TD*%
D10*
%TO.P,R2,1*%
%TO.N,+5V*%
X150380000Y-116200000D03*
%TO.P,R2,2*%
%TO.N,Net-(D1-A)*%
X150380000Y-126360000D03*
%TD*%
%TO.P,R6,1*%
%TO.N,+5V*%
X160280000Y-116120000D03*
%TO.P,R6,2*%
%TO.N,Net-(D2-A)*%
X160280000Y-126280000D03*
%TD*%
%TO.P,R7,1*%
%TO.N,Net-(D2-A)*%
X169300000Y-124600000D03*
%TO.P,R7,2*%
%TO.N,Net-(D2-K)*%
X179460000Y-124600000D03*
%TD*%
%TO.P,R11,1*%
%TO.N,Net-(J2-Pin_1)*%
X133860000Y-103680000D03*
%TO.P,R11,2*%
%TO.N,Net-(Q4-B)*%
X133860000Y-93520000D03*
%TD*%
D16*
%TO.P,J2,1,Pin_1*%
%TO.N,Net-(J2-Pin_1)*%
X144705000Y-121727500D03*
D17*
%TO.P,J2,2,Pin_2*%
%TO.N,Net-(J2-Pin_2)*%
X139625000Y-121727500D03*
%TD*%
D18*
%TO.P,J3,1*%
%TO.N,GNDREF*%
X181862500Y-106600000D03*
D19*
%TO.P,J3,2*%
X180592500Y-109140000D03*
%TO.P,J3,3*%
%TO.N,Net-(D1-K)*%
X179322500Y-106600000D03*
%TO.P,J3,4*%
%TO.N,Net-(D2-K)*%
X178052500Y-109140000D03*
%TO.P,J3,5*%
%TO.N,Net-(D3-K)*%
X176782500Y-106600000D03*
%TO.P,J3,6*%
%TO.N,Net-(D10-K)*%
X175512500Y-109140000D03*
%TO.P,J3,7*%
%TO.N,GNDREF*%
X174242500Y-106600000D03*
%TO.P,J3,8*%
%TO.N,+5V*%
X172972500Y-109140000D03*
%TD*%
D10*
%TO.P,R1,1*%
%TO.N,Net-(D1-A)*%
X182880000Y-125080000D03*
%TO.P,R1,2*%
%TO.N,Net-(D1-K)*%
X182880000Y-114920000D03*
%TD*%
D11*
%TO.P,D9,1,K*%
%TO.N,Net-(D3-K)*%
X167260000Y-109100000D03*
D10*
%TO.P,D9,2,A*%
%TO.N,GNDREF*%
X157100000Y-109100000D03*
%TD*%
D12*
%TO.P,Q4,1,C*%
%TO.N,Net-(D10-K)*%
X165750000Y-102240000D03*
D13*
%TO.P,Q4,2,B*%
%TO.N,Net-(Q4-B)*%
X164480000Y-102240000D03*
%TO.P,Q4,3,E*%
%TO.N,GNDREF*%
X163210000Y-102240000D03*
%TD*%
D16*
%TO.P,J1,1,Pin_1*%
%TO.N,Net-(J1-Pin_1)*%
X133360000Y-121700000D03*
D17*
%TO.P,J1,2,Pin_2*%
%TO.N,Net-(J1-Pin_2)*%
X128360000Y-121700000D03*
%TO.P,J1,3,Pin_3*%
%TO.N,Net-(J1-Pin_3)*%
X123360000Y-121700000D03*
%TD*%
D11*
%TO.P,D10,1,K*%
%TO.N,Net-(D10-K)*%
X167060000Y-113300000D03*
D10*
%TO.P,D10,2,A*%
%TO.N,GNDREF*%
X156900000Y-113300000D03*
%TD*%
%TO.P,R5,1*%
%TO.N,Net-(J1-Pin_1)*%
X124880000Y-103680000D03*
%TO.P,R5,2*%
%TO.N,Net-(Q2-B)*%
X124880000Y-93520000D03*
%TD*%
D14*
%TO.P,D4,1,K*%
%TO.N,Net-(D10-K)*%
X164380000Y-96775000D03*
D15*
%TO.P,D4,2,A*%
%TO.N,Net-(D4-A)*%
X164380000Y-94235000D03*
%TD*%
D11*
%TO.P,D8,1,K*%
%TO.N,Net-(D2-K)*%
X153760000Y-113300000D03*
D10*
%TO.P,D8,2,A*%
%TO.N,GNDREF*%
X143600000Y-113300000D03*
%TD*%
%TO.P,R4,1*%
%TO.N,Net-(J1-Pin_3)*%
X124800000Y-113100000D03*
%TO.P,R4,2*%
%TO.N,+5V*%
X134960000Y-113100000D03*
%TD*%
%TO.P,R13,1*%
%TO.N,Net-(D4-A)*%
X169300000Y-115400000D03*
%TO.P,R13,2*%
%TO.N,Net-(D10-K)*%
X179460000Y-115400000D03*
%TD*%
D12*
%TO.P,Q3,1,C*%
%TO.N,Net-(D3-K)*%
X157850000Y-102340000D03*
D13*
%TO.P,Q3,2,B*%
%TO.N,Net-(Q3-B)*%
X156580000Y-102340000D03*
%TO.P,Q3,3,E*%
%TO.N,GNDREF*%
X155310000Y-102340000D03*
%TD*%
D10*
%TO.P,R3,1*%
%TO.N,Net-(J1-Pin_2)*%
X124700000Y-108300000D03*
%TO.P,R3,2*%
%TO.N,Net-(Q1-B)*%
X134860000Y-108300000D03*
%TD*%
D14*
%TO.P,D2,1,K*%
%TO.N,Net-(D2-K)*%
X148480000Y-96875000D03*
D15*
%TO.P,D2,2,A*%
%TO.N,Net-(D2-A)*%
X148480000Y-94335000D03*
%TD*%
D20*
%TO.N,Net-(D1-A)*%
X178000000Y-126900000D02*
X169700000Y-118600000D01*
X140480000Y-94435000D02*
X142114000Y-92801000D01*
X172361000Y-92801000D02*
X184860000Y-105300000D01*
X181060000Y-126900000D02*
X178000000Y-126900000D01*
X158140000Y-118600000D02*
X150380000Y-126360000D01*
X184860000Y-123100000D02*
X182880000Y-125080000D01*
X184860000Y-105300000D02*
X184860000Y-123100000D01*
X142114000Y-92801000D02*
X172361000Y-92801000D01*
X169700000Y-118600000D02*
X158140000Y-118600000D01*
X182880000Y-125080000D02*
X181060000Y-126900000D01*
%TO.N,Net-(D1-K)*%
X182880000Y-114920000D02*
X182880000Y-113320000D01*
X141980000Y-109680000D02*
X143500000Y-111200000D01*
X143500000Y-111200000D02*
X151860000Y-111200000D01*
X151860000Y-111200000D02*
X153960000Y-109100000D01*
X179322500Y-109762500D02*
X179322500Y-106600000D01*
X141980000Y-102400000D02*
X141980000Y-109680000D01*
X182880000Y-113320000D02*
X179322500Y-109762500D01*
%TO.N,Net-(D2-A)*%
X161960000Y-124600000D02*
X160280000Y-126280000D01*
X169300000Y-124600000D02*
X161960000Y-124600000D01*
%TO.N,Net-(D2-K)*%
X179460000Y-124600000D02*
X172181000Y-117321000D01*
X178052500Y-109140000D02*
X178052500Y-111342558D01*
X157957471Y-112099000D02*
X154961000Y-112099000D01*
X154961000Y-112099000D02*
X153760000Y-113300000D01*
X163179471Y-117321000D02*
X157957471Y-112099000D01*
X149950000Y-103062420D02*
X149950000Y-102340000D01*
X181261000Y-122799000D02*
X179460000Y-124600000D01*
X178052500Y-111342558D02*
X181261000Y-114551058D01*
X153760000Y-113300000D02*
X155161000Y-111899000D01*
X172181000Y-117321000D02*
X163179471Y-117321000D01*
X155161000Y-111899000D02*
X155161000Y-108273420D01*
X181261000Y-114551058D02*
X181261000Y-122799000D01*
X155161000Y-108273420D02*
X149950000Y-103062420D01*
%TO.N,Net-(D3-K)*%
X180660000Y-118900000D02*
X179460000Y-120100000D01*
X175631500Y-105449000D02*
X176782500Y-106600000D01*
X176782500Y-110922500D02*
X180660000Y-114800000D01*
X167260000Y-109100000D02*
X170911000Y-105449000D01*
X170911000Y-105449000D02*
X175631500Y-105449000D01*
X180660000Y-114800000D02*
X180660000Y-118900000D01*
X176782500Y-106600000D02*
X176782500Y-110922500D01*
%TO.N,Net-(D3-A)*%
X161560000Y-120100000D02*
X155380000Y-126280000D01*
X169300000Y-120100000D02*
X161560000Y-120100000D01*
%TO.N,Net-(D10-K)*%
X162160000Y-111100000D02*
X164360000Y-113300000D01*
X167060000Y-113100000D02*
X167060000Y-113300000D01*
X164360000Y-113300000D02*
X167060000Y-113300000D01*
X175512500Y-109140000D02*
X174361500Y-107989000D01*
X175512500Y-113852500D02*
X175512500Y-109140000D01*
X172171000Y-107989000D02*
X167060000Y-113100000D01*
X165406000Y-102848562D02*
X164863562Y-103391000D01*
X164863562Y-103796438D02*
X162160000Y-106500000D01*
X164380000Y-96775000D02*
X165750000Y-98145000D01*
X165750000Y-98145000D02*
X165750000Y-102240000D01*
X174361500Y-107989000D02*
X172171000Y-107989000D01*
X179460000Y-115400000D02*
X177060000Y-115400000D01*
X177060000Y-115400000D02*
X175512500Y-113852500D01*
X164863562Y-103391000D02*
X164863562Y-103796438D01*
X165406000Y-102584000D02*
X165406000Y-102848562D01*
X165750000Y-102240000D02*
X165406000Y-102584000D01*
X162160000Y-106500000D02*
X162160000Y-111100000D01*
%TO.N,Net-(J1-Pin_1)*%
X128300000Y-116640000D02*
X133360000Y-121700000D01*
X128300000Y-107100000D02*
X128300000Y-116640000D01*
X124880000Y-103680000D02*
X128300000Y-107100000D01*
%TO.N,Net-(J1-Pin_2)*%
X128360000Y-121500000D02*
X128360000Y-121700000D01*
X124700000Y-108300000D02*
X127259000Y-110859000D01*
X127300000Y-117569942D02*
X127300000Y-120440000D01*
X127259000Y-117528942D02*
X127300000Y-117569942D01*
X127259000Y-110859000D02*
X127259000Y-117528942D01*
X127300000Y-120440000D02*
X128360000Y-121500000D01*
X127840000Y-121180000D02*
X128360000Y-121700000D01*
%TO.N,GNDREF*%
X139440000Y-102400000D02*
X139440000Y-101700000D01*
X139440000Y-101700000D02*
X139891000Y-101249000D01*
X166433420Y-110301000D02*
X166059000Y-109926580D01*
X181862500Y-106600000D02*
X181862500Y-107870000D01*
X163210000Y-102240000D02*
X163210000Y-102990000D01*
X157100000Y-105140000D02*
X157100000Y-109100000D01*
X123679000Y-94017471D02*
X132061529Y-102400000D01*
X160170000Y-99200000D02*
X136738471Y-99200000D01*
X143600000Y-113300000D02*
X144801000Y-114501000D01*
X178400000Y-126100000D02*
X180100000Y-126100000D01*
X160461529Y-118000000D02*
X170300000Y-118000000D01*
X155310000Y-103350000D02*
X157100000Y-105140000D01*
X144801000Y-114501000D02*
X155699000Y-114501000D01*
X180110500Y-104848000D02*
X181862500Y-106600000D01*
X155699000Y-114501000D02*
X156900000Y-113300000D01*
X184081000Y-122119000D02*
X184081000Y-108818500D01*
X166059000Y-109926580D02*
X166059000Y-108273420D01*
X146319000Y-101249000D02*
X147410000Y-102340000D01*
X171787580Y-106600000D02*
X168086580Y-110301000D01*
X136738471Y-99200000D02*
X129857471Y-92319000D01*
X166059000Y-108273420D02*
X169484420Y-104848000D01*
X180100000Y-126100000D02*
X184081000Y-122119000D01*
X132061529Y-102400000D02*
X139440000Y-102400000D01*
X156900000Y-114438471D02*
X160461529Y-118000000D01*
X147410000Y-102340000D02*
X147410000Y-105490000D01*
X139891000Y-101249000D02*
X146319000Y-101249000D01*
X155310000Y-102340000D02*
X155310000Y-103350000D01*
X163210000Y-102240000D02*
X160170000Y-99200000D01*
X123679000Y-93022529D02*
X123679000Y-94017471D01*
X168086580Y-110301000D02*
X166433420Y-110301000D01*
X169484420Y-104848000D02*
X180110500Y-104848000D01*
X174242500Y-106600000D02*
X171787580Y-106600000D01*
X156900000Y-113300000D02*
X156900000Y-114438471D01*
X147410000Y-105490000D02*
X143800000Y-109100000D01*
X163210000Y-102990000D02*
X157100000Y-109100000D01*
X129857471Y-92319000D02*
X124382529Y-92319000D01*
X170300000Y-118000000D02*
X178400000Y-126100000D01*
X184081000Y-108818500D02*
X181862500Y-106600000D01*
X143800000Y-113100000D02*
X143600000Y-113300000D01*
X124382529Y-92319000D02*
X123679000Y-93022529D01*
X181862500Y-107870000D02*
X180592500Y-109140000D01*
%TO.N,+5V*%
X170660000Y-116600000D02*
X172972500Y-114287500D01*
X165560000Y-116600000D02*
X170660000Y-116600000D01*
X172972500Y-114287500D02*
X172972500Y-109140000D01*
X165080000Y-116120000D02*
X165560000Y-116600000D01*
%TO.N,Net-(Q1-B)*%
X134860000Y-108300000D02*
X137800000Y-108300000D01*
X137800000Y-108300000D02*
X140710000Y-105390000D01*
X140710000Y-105390000D02*
X140710000Y-102400000D01*
%TO.N,Net-(Q2-B)*%
X147484000Y-100648000D02*
X148680000Y-101844000D01*
X124880000Y-93520000D02*
X132060000Y-100700000D01*
X132060000Y-100700000D02*
X139590058Y-100700000D01*
X139642058Y-100648000D02*
X147484000Y-100648000D01*
X148680000Y-101844000D02*
X148680000Y-102340000D01*
X139590058Y-100700000D02*
X139642058Y-100648000D01*
%TO.N,Net-(Q3-B)*%
X156580000Y-102075438D02*
X156580000Y-102340000D01*
X134708630Y-100000000D02*
X149003000Y-100000000D01*
X129360000Y-93520000D02*
X129360000Y-94651370D01*
X150192000Y-101189000D02*
X155693562Y-101189000D01*
X149003000Y-100000000D02*
X150192000Y-101189000D01*
X129360000Y-94651370D02*
X134708630Y-100000000D01*
X155693562Y-101189000D02*
X156580000Y-102075438D01*
%TO.N,Net-(Q4-B)*%
X133860000Y-93520000D02*
X138939000Y-98599000D01*
X138939000Y-98599000D02*
X161103562Y-98599000D01*
X161103562Y-98599000D02*
X164480000Y-101975438D01*
X164480000Y-101975438D02*
X164480000Y-102240000D01*
%TO.N,Net-(J2-Pin_2)*%
X136987500Y-121727500D02*
X139625000Y-121727500D01*
X129360000Y-103680000D02*
X129360000Y-114100000D01*
X129360000Y-114100000D02*
X136987500Y-121727500D01*
%TO.N,Net-(J2-Pin_1)*%
X133860000Y-103680000D02*
X132360000Y-105180000D01*
X142477500Y-119500000D02*
X144705000Y-121727500D01*
X132360000Y-114700000D02*
X137160000Y-119500000D01*
X137160000Y-119500000D02*
X142477500Y-119500000D01*
X132360000Y-105180000D02*
X132360000Y-114700000D01*
%TO.N,Net-(J1-Pin_3)*%
X124800000Y-120260000D02*
X123360000Y-121700000D01*
X124800000Y-113100000D02*
X124800000Y-120260000D01*
%TD*%
%TA.AperFunction,Conductor*%
%TO.N,GNDREF*%
G36*
X124351870Y-92120185D02*
G01*
X124397625Y-92172989D01*
X124407569Y-92242147D01*
X124378544Y-92305703D01*
X124341126Y-92334985D01*
X124198386Y-92407715D01*
X124032786Y-92528028D01*
X123888028Y-92672786D01*
X123767715Y-92838386D01*
X123674781Y-93020776D01*
X123611522Y-93215465D01*
X123579500Y-93417648D01*
X123579500Y-93622351D01*
X123611522Y-93824534D01*
X123674781Y-94019223D01*
X123767715Y-94201613D01*
X123888028Y-94367213D01*
X124032786Y-94511971D01*
X124128385Y-94581426D01*
X124198390Y-94632287D01*
X124295455Y-94681744D01*
X124380776Y-94725218D01*
X124380778Y-94725218D01*
X124380781Y-94725220D01*
X124485137Y-94759127D01*
X124575465Y-94788477D01*
X124676557Y-94804488D01*
X124777648Y-94820500D01*
X124777649Y-94820500D01*
X124982350Y-94820500D01*
X124982352Y-94820500D01*
X125099068Y-94802013D01*
X125168362Y-94810967D01*
X125206148Y-94836805D01*
X128401888Y-98032544D01*
X131515886Y-101146542D01*
X131587786Y-101218442D01*
X131613459Y-101244115D01*
X131728182Y-101320771D01*
X131728195Y-101320778D01*
X131780486Y-101342437D01*
X131793117Y-101347669D01*
X131855671Y-101373580D01*
X131880115Y-101378442D01*
X131946834Y-101391713D01*
X131991005Y-101400500D01*
X138492758Y-101400500D01*
X138559797Y-101420185D01*
X138605552Y-101472989D01*
X138615496Y-101542147D01*
X138595860Y-101593391D01*
X138531659Y-101689473D01*
X138531652Y-101689486D01*
X138454390Y-101876016D01*
X138454387Y-101876025D01*
X138415000Y-102074041D01*
X138415000Y-102150000D01*
X139159670Y-102150000D01*
X139139925Y-102169745D01*
X139090556Y-102255255D01*
X139065000Y-102350630D01*
X139065000Y-102449370D01*
X139090556Y-102544745D01*
X139139925Y-102630255D01*
X139159670Y-102650000D01*
X138415000Y-102650000D01*
X138415000Y-102725958D01*
X138454387Y-102923974D01*
X138454390Y-102923983D01*
X138531652Y-103110513D01*
X138531659Y-103110526D01*
X138643829Y-103278399D01*
X138643832Y-103278403D01*
X138786596Y-103421167D01*
X138786600Y-103421170D01*
X138954473Y-103533340D01*
X138954486Y-103533347D01*
X139141016Y-103610609D01*
X139141025Y-103610612D01*
X139190000Y-103620353D01*
X139190000Y-102680330D01*
X139209745Y-102700075D01*
X139295255Y-102749444D01*
X139390630Y-102775000D01*
X139489370Y-102775000D01*
X139584745Y-102749444D01*
X139670255Y-102700075D01*
X139684500Y-102685830D01*
X139684500Y-102726003D01*
X139689722Y-102752259D01*
X139689968Y-102763046D01*
X139689788Y-102763714D01*
X139690000Y-102765865D01*
X139690000Y-103620352D01*
X139738974Y-103610612D01*
X139738983Y-103610609D01*
X139838048Y-103569576D01*
X139907517Y-103562107D01*
X139969996Y-103593383D01*
X140005648Y-103653472D01*
X140009500Y-103684137D01*
X140009500Y-105048481D01*
X139989815Y-105115520D01*
X139973181Y-105136162D01*
X137546162Y-107563181D01*
X137484839Y-107596666D01*
X137458481Y-107599500D01*
X136021744Y-107599500D01*
X135954705Y-107579815D01*
X135921425Y-107548384D01*
X135851969Y-107452784D01*
X135707213Y-107308028D01*
X135541613Y-107187715D01*
X135541612Y-107187714D01*
X135541610Y-107187713D01*
X135484653Y-107158691D01*
X135359223Y-107094781D01*
X135164534Y-107031522D01*
X134989995Y-107003878D01*
X134962352Y-106999500D01*
X134757648Y-106999500D01*
X134733329Y-107003351D01*
X134555465Y-107031522D01*
X134360776Y-107094781D01*
X134178386Y-107187715D01*
X134012786Y-107308028D01*
X133868028Y-107452786D01*
X133747715Y-107618386D01*
X133654781Y-107800776D01*
X133591522Y-107995465D01*
X133559500Y-108197648D01*
X133559500Y-108402351D01*
X133591522Y-108604534D01*
X133654781Y-108799223D01*
X133716716Y-108920775D01*
X133743620Y-108973578D01*
X133747715Y-108981613D01*
X133868028Y-109147213D01*
X134012786Y-109291971D01*
X134147498Y-109389843D01*
X134178390Y-109412287D01*
X134294607Y-109471503D01*
X134360776Y-109505218D01*
X134360778Y-109505218D01*
X134360781Y-109505220D01*
X134415447Y-109522982D01*
X134555465Y-109568477D01*
X134656557Y-109584488D01*
X134757648Y-109600500D01*
X134757649Y-109600500D01*
X134962351Y-109600500D01*
X134962352Y-109600500D01*
X135164534Y-109568477D01*
X135359219Y-109505220D01*
X135541610Y-109412287D01*
X135636792Y-109343134D01*
X135707213Y-109291971D01*
X135707215Y-109291968D01*
X135707219Y-109291966D01*
X135851966Y-109147219D01*
X135921425Y-109051615D01*
X135976755Y-109008949D01*
X136021744Y-109000500D01*
X137868996Y-109000500D01*
X137963959Y-108981610D01*
X138004328Y-108973580D01*
X138071863Y-108945606D01*
X138131807Y-108920777D01*
X138131808Y-108920776D01*
X138131811Y-108920775D01*
X138246543Y-108844114D01*
X139738549Y-107352108D01*
X141067819Y-106022838D01*
X141129142Y-105989353D01*
X141198834Y-105994337D01*
X141254767Y-106036209D01*
X141279184Y-106101673D01*
X141279500Y-106110519D01*
X141279500Y-109611006D01*
X141279500Y-109748994D01*
X141279500Y-109748996D01*
X141279499Y-109748996D01*
X141306418Y-109884322D01*
X141306421Y-109884332D01*
X141359222Y-110011807D01*
X141435887Y-110126545D01*
X143053454Y-111744112D01*
X143053457Y-111744114D01*
X143168189Y-111820775D01*
X143199446Y-111833722D01*
X143253849Y-111877561D01*
X143275915Y-111943855D01*
X143258637Y-112011555D01*
X143207500Y-112059166D01*
X143190314Y-112066214D01*
X143100967Y-112095245D01*
X142918644Y-112188143D01*
X142874077Y-112220523D01*
X142874077Y-112220524D01*
X143553554Y-112900000D01*
X143547339Y-112900000D01*
X143445606Y-112927259D01*
X143354394Y-112979920D01*
X143279920Y-113054394D01*
X143227259Y-113145606D01*
X143200000Y-113247339D01*
X143200000Y-113253553D01*
X142520524Y-112574077D01*
X142520523Y-112574077D01*
X142488143Y-112618644D01*
X142395244Y-112800968D01*
X142332009Y-112995582D01*
X142300000Y-113197682D01*
X142300000Y-113402317D01*
X142332009Y-113604417D01*
X142395244Y-113799031D01*
X142488141Y-113981350D01*
X142488147Y-113981359D01*
X142520523Y-114025921D01*
X142520524Y-114025922D01*
X143200000Y-113346446D01*
X143200000Y-113352661D01*
X143227259Y-113454394D01*
X143279920Y-113545606D01*
X143354394Y-113620080D01*
X143445606Y-113672741D01*
X143547339Y-113700000D01*
X143553553Y-113700000D01*
X142874076Y-114379474D01*
X142918650Y-114411859D01*
X143100968Y-114504755D01*
X143295582Y-114567990D01*
X143497683Y-114600000D01*
X143702317Y-114600000D01*
X143904417Y-114567990D01*
X144099031Y-114504755D01*
X144281349Y-114411859D01*
X144325921Y-114379474D01*
X143646447Y-113700000D01*
X143652661Y-113700000D01*
X143754394Y-113672741D01*
X143845606Y-113620080D01*
X143920080Y-113545606D01*
X143972741Y-113454394D01*
X144000000Y-113352661D01*
X144000000Y-113346448D01*
X144679474Y-114025922D01*
X144679474Y-114025921D01*
X144711859Y-113981349D01*
X144804755Y-113799031D01*
X144867990Y-113604417D01*
X144900000Y-113402317D01*
X144900000Y-113197682D01*
X144867990Y-112995582D01*
X144804755Y-112800968D01*
X144711859Y-112618650D01*
X144679474Y-112574077D01*
X144679474Y-112574076D01*
X144000000Y-113253551D01*
X144000000Y-113247339D01*
X143972741Y-113145606D01*
X143920080Y-113054394D01*
X143845606Y-112979920D01*
X143754394Y-112927259D01*
X143652661Y-112900000D01*
X143646446Y-112900000D01*
X144325922Y-112220524D01*
X144325921Y-112220523D01*
X144281359Y-112188147D01*
X144281350Y-112188141D01*
X144177025Y-112134985D01*
X144126229Y-112087011D01*
X144109434Y-112019190D01*
X144131971Y-111953055D01*
X144186686Y-111909603D01*
X144233320Y-111900500D01*
X151928996Y-111900500D01*
X152044314Y-111877561D01*
X152064328Y-111873580D01*
X152128069Y-111847177D01*
X152191807Y-111820777D01*
X152191808Y-111820776D01*
X152191811Y-111820775D01*
X152306543Y-111744114D01*
X153613837Y-110436817D01*
X153675160Y-110403333D01*
X153701518Y-110400499D01*
X154336500Y-110400499D01*
X154403539Y-110420184D01*
X154449294Y-110472988D01*
X154460500Y-110524499D01*
X154460500Y-111557480D01*
X154440815Y-111624519D01*
X154424181Y-111645161D01*
X154106161Y-111963181D01*
X154044838Y-111996666D01*
X154018480Y-111999500D01*
X153159998Y-111999500D01*
X153159980Y-111999501D01*
X153057203Y-112010000D01*
X153057200Y-112010001D01*
X152890668Y-112065185D01*
X152890663Y-112065187D01*
X152741342Y-112157289D01*
X152617289Y-112281342D01*
X152525187Y-112430663D01*
X152525186Y-112430666D01*
X152470001Y-112597203D01*
X152470001Y-112597204D01*
X152470000Y-112597204D01*
X152459500Y-112699983D01*
X152459500Y-113900001D01*
X152459501Y-113900018D01*
X152470000Y-114002796D01*
X152470001Y-114002799D01*
X152525185Y-114169331D01*
X152525187Y-114169336D01*
X152550048Y-114209642D01*
X152617288Y-114318656D01*
X152741344Y-114442712D01*
X152890666Y-114534814D01*
X153057203Y-114589999D01*
X153159991Y-114600500D01*
X154360008Y-114600499D01*
X154462797Y-114589999D01*
X154629334Y-114534814D01*
X154778656Y-114442712D01*
X154902712Y-114318656D01*
X154994814Y-114169334D01*
X155049999Y-114002797D01*
X155060500Y-113900009D01*
X155060499Y-113041518D01*
X155069145Y-113012072D01*
X155075667Y-112982092D01*
X155079420Y-112977078D01*
X155080183Y-112974480D01*
X155096813Y-112953843D01*
X155214839Y-112835817D01*
X155276161Y-112802334D01*
X155302519Y-112799500D01*
X155525049Y-112799500D01*
X155592088Y-112819185D01*
X155637843Y-112871989D01*
X155647787Y-112941147D01*
X155642980Y-112961817D01*
X155632011Y-112995574D01*
X155632010Y-112995581D01*
X155600000Y-113197682D01*
X155600000Y-113402317D01*
X155632009Y-113604417D01*
X155695244Y-113799031D01*
X155788141Y-113981350D01*
X155788147Y-113981359D01*
X155820523Y-114025921D01*
X155820524Y-114025922D01*
X156500000Y-113346446D01*
X156500000Y-113352661D01*
X156527259Y-113454394D01*
X156579920Y-113545606D01*
X156654394Y-113620080D01*
X156745606Y-113672741D01*
X156847339Y-113700000D01*
X156853553Y-113700000D01*
X156174076Y-114379474D01*
X156218650Y-114411859D01*
X156400968Y-114504755D01*
X156595582Y-114567990D01*
X156797683Y-114600000D01*
X157002317Y-114600000D01*
X157204417Y-114567990D01*
X157399031Y-114504755D01*
X157581349Y-114411859D01*
X157625921Y-114379474D01*
X156946447Y-113700000D01*
X156952661Y-113700000D01*
X157054394Y-113672741D01*
X157145606Y-113620080D01*
X157220080Y-113545606D01*
X157272741Y-113454394D01*
X157300000Y-113352661D01*
X157300000Y-113346447D01*
X157979474Y-114025921D01*
X158011859Y-113981349D01*
X158104755Y-113799031D01*
X158167988Y-113604422D01*
X158171517Y-113582143D01*
X158201446Y-113519007D01*
X158260757Y-113482076D01*
X158330620Y-113483072D01*
X158381672Y-113513858D01*
X159661299Y-114793485D01*
X159694784Y-114854808D01*
X159689800Y-114924500D01*
X159647928Y-114980433D01*
X159629914Y-114991650D01*
X159598388Y-115007713D01*
X159432786Y-115128028D01*
X159288028Y-115272786D01*
X159167715Y-115438386D01*
X159074781Y-115620776D01*
X159011522Y-115815465D01*
X158979500Y-116017648D01*
X158979500Y-116222351D01*
X159011522Y-116424534D01*
X159074781Y-116619223D01*
X159117211Y-116702495D01*
X159155116Y-116776888D01*
X159167715Y-116801613D01*
X159288028Y-116967213D01*
X159432786Y-117111971D01*
X159542892Y-117191966D01*
X159598390Y-117232287D01*
X159711966Y-117290157D01*
X159780776Y-117325218D01*
X159780778Y-117325218D01*
X159780781Y-117325220D01*
X159885137Y-117359127D01*
X159975465Y-117388477D01*
X160076557Y-117404488D01*
X160177648Y-117420500D01*
X160177649Y-117420500D01*
X160382351Y-117420500D01*
X160382352Y-117420500D01*
X160584534Y-117388477D01*
X160779219Y-117325220D01*
X160961610Y-117232287D01*
X161054590Y-117164732D01*
X161127213Y-117111971D01*
X161127215Y-117111968D01*
X161127219Y-117111966D01*
X161271966Y-116967219D01*
X161271968Y-116967215D01*
X161271971Y-116967213D01*
X161392286Y-116801612D01*
X161392670Y-116800857D01*
X161408348Y-116770087D01*
X161456320Y-116719292D01*
X161524140Y-116702495D01*
X161590276Y-116725031D01*
X161606514Y-116738700D01*
X162555632Y-117687819D01*
X162589117Y-117749142D01*
X162584133Y-117818834D01*
X162542261Y-117874767D01*
X162476797Y-117899184D01*
X162467951Y-117899500D01*
X158071003Y-117899500D01*
X157962590Y-117921065D01*
X157962589Y-117921065D01*
X157935671Y-117926420D01*
X157808190Y-117979224D01*
X157693454Y-118055887D01*
X150706147Y-125043194D01*
X150644824Y-125076679D01*
X150599068Y-125077986D01*
X150549969Y-125070209D01*
X150482352Y-125059500D01*
X150277648Y-125059500D01*
X150263196Y-125061789D01*
X150075465Y-125091522D01*
X149880776Y-125154781D01*
X149698386Y-125247715D01*
X149532786Y-125368028D01*
X149388028Y-125512786D01*
X149267715Y-125678386D01*
X149174781Y-125860776D01*
X149111522Y-126055465D01*
X149079500Y-126257648D01*
X149079500Y-126462351D01*
X149111522Y-126664534D01*
X149174781Y-126859223D01*
X149267715Y-127041613D01*
X149388028Y-127207213D01*
X149532786Y-127351971D01*
X149702331Y-127475151D01*
X149700861Y-127477173D01*
X149740967Y-127521181D01*
X149752638Y-127590069D01*
X149725213Y-127654332D01*
X149667399Y-127693565D01*
X149629497Y-127699500D01*
X113824500Y-127699500D01*
X113757461Y-127679815D01*
X113711706Y-127627011D01*
X113700500Y-127575500D01*
X113700500Y-124578711D01*
X114849500Y-124578711D01*
X114849500Y-124821288D01*
X114880860Y-125059500D01*
X114881162Y-125061789D01*
X114906079Y-125154780D01*
X114943947Y-125296104D01*
X115006541Y-125447219D01*
X115036776Y-125520212D01*
X115158064Y-125730289D01*
X115158066Y-125730292D01*
X115158067Y-125730293D01*
X115305733Y-125922736D01*
X115305739Y-125922743D01*
X115477256Y-126094260D01*
X115477262Y-126094265D01*
X115669711Y-126241936D01*
X115879788Y-126363224D01*
X116103900Y-126456054D01*
X116338211Y-126518838D01*
X116518586Y-126542584D01*
X116578711Y-126550500D01*
X116578712Y-126550500D01*
X116821289Y-126550500D01*
X116869388Y-126544167D01*
X117061789Y-126518838D01*
X117296100Y-126456054D01*
X117520212Y-126363224D01*
X117730289Y-126241936D01*
X117922738Y-126094265D01*
X118094265Y-125922738D01*
X118241936Y-125730289D01*
X118363224Y-125520212D01*
X118456054Y-125296100D01*
X118518838Y-125061789D01*
X118550500Y-124821288D01*
X118550500Y-124578712D01*
X118518838Y-124338211D01*
X118456054Y-124103900D01*
X118363224Y-123879788D01*
X118241936Y-123669711D01*
X118112096Y-123500500D01*
X118094266Y-123477263D01*
X118094260Y-123477256D01*
X117922743Y-123305739D01*
X117922736Y-123305733D01*
X117730293Y-123158067D01*
X117730292Y-123158066D01*
X117730289Y-123158064D01*
X117520212Y-123036776D01*
X117506282Y-123031006D01*
X117296104Y-122943947D01*
X117061785Y-122881161D01*
X116821289Y-122849500D01*
X116821288Y-122849500D01*
X116578712Y-122849500D01*
X116578711Y-122849500D01*
X116338214Y-122881161D01*
X116103895Y-122943947D01*
X115879794Y-123036773D01*
X115879785Y-123036777D01*
X115669706Y-123158067D01*
X115477263Y-123305733D01*
X115477256Y-123305739D01*
X115305739Y-123477256D01*
X115305733Y-123477263D01*
X115158067Y-123669706D01*
X115036777Y-123879785D01*
X115036773Y-123879794D01*
X114943947Y-124103895D01*
X114881161Y-124338214D01*
X114849500Y-124578711D01*
X113700500Y-124578711D01*
X113700500Y-121581995D01*
X121559500Y-121581995D01*
X121559500Y-121818004D01*
X121559501Y-121818020D01*
X121590306Y-122052010D01*
X121651394Y-122279993D01*
X121741714Y-122498045D01*
X121741719Y-122498056D01*
X121812677Y-122620957D01*
X121859727Y-122702450D01*
X121859729Y-122702453D01*
X121859730Y-122702454D01*
X122003406Y-122889697D01*
X122003412Y-122889704D01*
X122170295Y-123056587D01*
X122170302Y-123056593D01*
X122222745Y-123096834D01*
X122357550Y-123200273D01*
X122488918Y-123276118D01*
X122561943Y-123318280D01*
X122561948Y-123318282D01*
X122561951Y-123318284D01*
X122780007Y-123408606D01*
X123007986Y-123469693D01*
X123241989Y-123500500D01*
X123241996Y-123500500D01*
X123478004Y-123500500D01*
X123478011Y-123500500D01*
X123712014Y-123469693D01*
X123939993Y-123408606D01*
X124158049Y-123318284D01*
X124362450Y-123200273D01*
X124549699Y-123056592D01*
X124716592Y-122889699D01*
X124860273Y-122702450D01*
X124978284Y-122498049D01*
X125068606Y-122279993D01*
X125129693Y-122052014D01*
X125160500Y-121818011D01*
X125160500Y-121581989D01*
X125129693Y-121347986D01*
X125068606Y-121120007D01*
X125059905Y-121099003D01*
X125052437Y-121029534D01*
X125083712Y-120967055D01*
X125086753Y-120963902D01*
X125344114Y-120706543D01*
X125420775Y-120591811D01*
X125429177Y-120571528D01*
X125473578Y-120464332D01*
X125473580Y-120464328D01*
X125497633Y-120343406D01*
X125500500Y-120328995D01*
X125500500Y-114261744D01*
X125520185Y-114194705D01*
X125551615Y-114161426D01*
X125647215Y-114091969D01*
X125647215Y-114091968D01*
X125647219Y-114091966D01*
X125791966Y-113947219D01*
X125791968Y-113947215D01*
X125791971Y-113947213D01*
X125844732Y-113874590D01*
X125912287Y-113781610D01*
X126005220Y-113599219D01*
X126068477Y-113404534D01*
X126100500Y-113202352D01*
X126100500Y-112997648D01*
X126097242Y-112977078D01*
X126068477Y-112795465D01*
X126005218Y-112600776D01*
X125971503Y-112534607D01*
X125912287Y-112418390D01*
X125904556Y-112407749D01*
X125791971Y-112252786D01*
X125647213Y-112108028D01*
X125481613Y-111987715D01*
X125481612Y-111987714D01*
X125481610Y-111987713D01*
X125395534Y-111943855D01*
X125299223Y-111894781D01*
X125104534Y-111831522D01*
X124929995Y-111803878D01*
X124902352Y-111799500D01*
X124697648Y-111799500D01*
X124673329Y-111803351D01*
X124495465Y-111831522D01*
X124300776Y-111894781D01*
X124118386Y-111987715D01*
X123952786Y-112108028D01*
X123808028Y-112252786D01*
X123687715Y-112418386D01*
X123594781Y-112600776D01*
X123531522Y-112795465D01*
X123499500Y-112997648D01*
X123499500Y-113202351D01*
X123531522Y-113404534D01*
X123594781Y-113599223D01*
X123687715Y-113781613D01*
X123808028Y-113947213D01*
X123952784Y-114091969D01*
X124048385Y-114161426D01*
X124091051Y-114216755D01*
X124099500Y-114261744D01*
X124099500Y-119872533D01*
X124079815Y-119939572D01*
X124027011Y-119985327D01*
X123957853Y-119995271D01*
X123943407Y-119992308D01*
X123712012Y-119930306D01*
X123478020Y-119899501D01*
X123478017Y-119899500D01*
X123478011Y-119899500D01*
X123241989Y-119899500D01*
X123241983Y-119899500D01*
X123241979Y-119899501D01*
X123007989Y-119930306D01*
X122780006Y-119991394D01*
X122561954Y-120081714D01*
X122561943Y-120081719D01*
X122357545Y-120199730D01*
X122170302Y-120343406D01*
X122170295Y-120343412D01*
X122003412Y-120510295D01*
X122003406Y-120510302D01*
X121859730Y-120697545D01*
X121741719Y-120901943D01*
X121741714Y-120901954D01*
X121651394Y-121120006D01*
X121590306Y-121347989D01*
X121559501Y-121581979D01*
X121559500Y-121581995D01*
X113700500Y-121581995D01*
X113700500Y-108197648D01*
X123399500Y-108197648D01*
X123399500Y-108402351D01*
X123431522Y-108604534D01*
X123494781Y-108799223D01*
X123556716Y-108920775D01*
X123583620Y-108973578D01*
X123587715Y-108981613D01*
X123708028Y-109147213D01*
X123852786Y-109291971D01*
X123987498Y-109389843D01*
X124018390Y-109412287D01*
X124134607Y-109471503D01*
X124200776Y-109505218D01*
X124200778Y-109505218D01*
X124200781Y-109505220D01*
X124255447Y-109522982D01*
X124395465Y-109568477D01*
X124496557Y-109584488D01*
X124597648Y-109600500D01*
X124597649Y-109600500D01*
X124802350Y-109600500D01*
X124802352Y-109600500D01*
X124919068Y-109582013D01*
X124988362Y-109590967D01*
X125026148Y-109616805D01*
X126522181Y-111112838D01*
X126555666Y-111174161D01*
X126558500Y-111200519D01*
X126558500Y-117459948D01*
X126558500Y-117597936D01*
X126558500Y-117597938D01*
X126558499Y-117597938D01*
X126585418Y-117733264D01*
X126585421Y-117733274D01*
X126590061Y-117744475D01*
X126599500Y-117791927D01*
X126599500Y-120371006D01*
X126599500Y-120508994D01*
X126599500Y-120508996D01*
X126599499Y-120508996D01*
X126626418Y-120644322D01*
X126626421Y-120644332D01*
X126659856Y-120725050D01*
X126679225Y-120771811D01*
X126700288Y-120803334D01*
X126714256Y-120824239D01*
X126735133Y-120890917D01*
X126725714Y-120940581D01*
X126651395Y-121120003D01*
X126590306Y-121347989D01*
X126559501Y-121581979D01*
X126559500Y-121581995D01*
X126559500Y-121818004D01*
X126559501Y-121818020D01*
X126590306Y-122052010D01*
X126651394Y-122279993D01*
X126741714Y-122498045D01*
X126741719Y-122498056D01*
X126812677Y-122620957D01*
X126859727Y-122702450D01*
X126859729Y-122702453D01*
X126859730Y-122702454D01*
X127003406Y-122889697D01*
X127003412Y-122889704D01*
X127170295Y-123056587D01*
X127170302Y-123056593D01*
X127222745Y-123096834D01*
X127357550Y-123200273D01*
X127488918Y-123276118D01*
X127561943Y-123318280D01*
X127561948Y-123318282D01*
X127561951Y-123318284D01*
X127780007Y-123408606D01*
X128007986Y-123469693D01*
X128241989Y-123500500D01*
X128241996Y-123500500D01*
X128478004Y-123500500D01*
X128478011Y-123500500D01*
X128712014Y-123469693D01*
X128939993Y-123408606D01*
X129158049Y-123318284D01*
X129362450Y-123200273D01*
X129549699Y-123056592D01*
X129716592Y-122889699D01*
X129860273Y-122702450D01*
X129978284Y-122498049D01*
X130068606Y-122279993D01*
X130129693Y-122052014D01*
X130160500Y-121818011D01*
X130160500Y-121581989D01*
X130129693Y-121347986D01*
X130068606Y-121120007D01*
X129978284Y-120901951D01*
X129978282Y-120901948D01*
X129978280Y-120901943D01*
X129908807Y-120781614D01*
X129860273Y-120697550D01*
X129737694Y-120537802D01*
X129716593Y-120510302D01*
X129716587Y-120510295D01*
X129549704Y-120343412D01*
X129549697Y-120343406D01*
X129362454Y-120199730D01*
X129362453Y-120199729D01*
X129362450Y-120199727D01*
X129225705Y-120120777D01*
X129158056Y-120081719D01*
X129158045Y-120081714D01*
X128939993Y-119991394D01*
X128738862Y-119937501D01*
X128712014Y-119930307D01*
X128712013Y-119930306D01*
X128712010Y-119930306D01*
X128478020Y-119899501D01*
X128478017Y-119899500D01*
X128478011Y-119899500D01*
X128241989Y-119899500D01*
X128241984Y-119899500D01*
X128241976Y-119899501D01*
X128140684Y-119912836D01*
X128071649Y-119902070D01*
X128019394Y-119855690D01*
X128000500Y-119789897D01*
X128000500Y-117630519D01*
X128020185Y-117563480D01*
X128072989Y-117517725D01*
X128142147Y-117507781D01*
X128205703Y-117536806D01*
X128212181Y-117542838D01*
X131523181Y-120853838D01*
X131556666Y-120915161D01*
X131559500Y-120941519D01*
X131559500Y-122800001D01*
X131559501Y-122800018D01*
X131570000Y-122902796D01*
X131570001Y-122902799D01*
X131625185Y-123069331D01*
X131625187Y-123069336D01*
X131634289Y-123084092D01*
X131717288Y-123218656D01*
X131841344Y-123342712D01*
X131990666Y-123434814D01*
X132157203Y-123489999D01*
X132259991Y-123500500D01*
X134460008Y-123500499D01*
X134562797Y-123489999D01*
X134729334Y-123434814D01*
X134878656Y-123342712D01*
X135002712Y-123218656D01*
X135094814Y-123069334D01*
X135149999Y-122902797D01*
X135160500Y-122800009D01*
X135160499Y-121190517D01*
X135180184Y-121123479D01*
X135232987Y-121077724D01*
X135302146Y-121067780D01*
X135365702Y-121096805D01*
X135372180Y-121102837D01*
X136540953Y-122271611D01*
X136540954Y-122271612D01*
X136655692Y-122348277D01*
X136783167Y-122401078D01*
X136783172Y-122401080D01*
X136783176Y-122401080D01*
X136783177Y-122401081D01*
X136918503Y-122428000D01*
X136918506Y-122428000D01*
X136918507Y-122428000D01*
X137883455Y-122428000D01*
X137950494Y-122447685D01*
X137996249Y-122500489D01*
X137998015Y-122504546D01*
X138006708Y-122525534D01*
X138006714Y-122525545D01*
X138006716Y-122525549D01*
X138124727Y-122729950D01*
X138124729Y-122729953D01*
X138124730Y-122729954D01*
X138268406Y-122917197D01*
X138268412Y-122917204D01*
X138435295Y-123084087D01*
X138435302Y-123084093D01*
X138451909Y-123096836D01*
X138622550Y-123227773D01*
X138718542Y-123283194D01*
X138826943Y-123345780D01*
X138826948Y-123345782D01*
X138826951Y-123345784D01*
X139045007Y-123436106D01*
X139272986Y-123497193D01*
X139506989Y-123528000D01*
X139506996Y-123528000D01*
X139743004Y-123528000D01*
X139743011Y-123528000D01*
X139977014Y-123497193D01*
X140204993Y-123436106D01*
X140423049Y-123345784D01*
X140627450Y-123227773D01*
X140814699Y-123084092D01*
X140981592Y-122917199D01*
X141125273Y-122729950D01*
X141243284Y-122525549D01*
X141333606Y-122307493D01*
X141394693Y-122079514D01*
X141425500Y-121845511D01*
X141425500Y-121609489D01*
X141394693Y-121375486D01*
X141333606Y-121147507D01*
X141243284Y-120929451D01*
X141243282Y-120929448D01*
X141243280Y-120929443D01*
X141157930Y-120781614D01*
X141125273Y-120725050D01*
X141023032Y-120591807D01*
X140981593Y-120537802D01*
X140981587Y-120537795D01*
X140855973Y-120412181D01*
X140822488Y-120350858D01*
X140827472Y-120281166D01*
X140869344Y-120225233D01*
X140934808Y-120200816D01*
X140943654Y-120200500D01*
X142135981Y-120200500D01*
X142203020Y-120220185D01*
X142223662Y-120236819D01*
X142868181Y-120881338D01*
X142901666Y-120942661D01*
X142904500Y-120969019D01*
X142904500Y-122827501D01*
X142904501Y-122827518D01*
X142915000Y-122930296D01*
X142915001Y-122930299D01*
X142970185Y-123096831D01*
X142970187Y-123096836D01*
X142991143Y-123130811D01*
X143062288Y-123246156D01*
X143186344Y-123370212D01*
X143335666Y-123462314D01*
X143502203Y-123517499D01*
X143604991Y-123528000D01*
X145805008Y-123527999D01*
X145907797Y-123517499D01*
X146074334Y-123462314D01*
X146223656Y-123370212D01*
X146347712Y-123246156D01*
X146439814Y-123096834D01*
X146494999Y-122930297D01*
X146505500Y-122827509D01*
X146505499Y-120627492D01*
X146494999Y-120524703D01*
X146439814Y-120358166D01*
X146347712Y-120208844D01*
X146223656Y-120084788D01*
X146074334Y-119992686D01*
X145907797Y-119937501D01*
X145907795Y-119937500D01*
X145805016Y-119927000D01*
X145805009Y-119927000D01*
X143946519Y-119927000D01*
X143879480Y-119907315D01*
X143858838Y-119890681D01*
X142924046Y-118955888D01*
X142924045Y-118955887D01*
X142809307Y-118879222D01*
X142681832Y-118826421D01*
X142681822Y-118826418D01*
X142546496Y-118799500D01*
X142546494Y-118799500D01*
X142546493Y-118799500D01*
X137501519Y-118799500D01*
X137434480Y-118779815D01*
X137413838Y-118763181D01*
X134748305Y-116097648D01*
X149079500Y-116097648D01*
X149079500Y-116302351D01*
X149111522Y-116504534D01*
X149174781Y-116699223D01*
X149267715Y-116881613D01*
X149388028Y-117047213D01*
X149532786Y-117191971D01*
X149667930Y-117290157D01*
X149698390Y-117312287D01*
X149803050Y-117365614D01*
X149880776Y-117405218D01*
X149880778Y-117405218D01*
X149880781Y-117405220D01*
X149985137Y-117439127D01*
X150075465Y-117468477D01*
X150176557Y-117484488D01*
X150277648Y-117500500D01*
X150277649Y-117500500D01*
X150482351Y-117500500D01*
X150482352Y-117500500D01*
X150684534Y-117468477D01*
X150879219Y-117405220D01*
X151061610Y-117312287D01*
X151154590Y-117244732D01*
X151227213Y-117191971D01*
X151227215Y-117191968D01*
X151227219Y-117191966D01*
X151371966Y-117047219D01*
X151371968Y-117047215D01*
X151371971Y-117047213D01*
X151430093Y-116967213D01*
X151492287Y-116881610D01*
X151585220Y-116699219D01*
X151648477Y-116504534D01*
X151680500Y-116302352D01*
X151680500Y-116097648D01*
X151668324Y-116020775D01*
X151667829Y-116017648D01*
X154079500Y-116017648D01*
X154079500Y-116222351D01*
X154111522Y-116424534D01*
X154174781Y-116619223D01*
X154217211Y-116702495D01*
X154255116Y-116776888D01*
X154267715Y-116801613D01*
X154388028Y-116967213D01*
X154532786Y-117111971D01*
X154642892Y-117191966D01*
X154698390Y-117232287D01*
X154811966Y-117290157D01*
X154880776Y-117325218D01*
X154880778Y-117325218D01*
X154880781Y-117325220D01*
X154985137Y-117359127D01*
X155075465Y-117388477D01*
X155176557Y-117404488D01*
X155277648Y-117420500D01*
X155277649Y-117420500D01*
X155482351Y-117420500D01*
X155482352Y-117420500D01*
X155684534Y-117388477D01*
X155879219Y-117325220D01*
X156061610Y-117232287D01*
X156154590Y-117164732D01*
X156227213Y-117111971D01*
X156227215Y-117111968D01*
X156227219Y-117111966D01*
X156371966Y-116967219D01*
X156371968Y-116967215D01*
X156371971Y-116967213D01*
X156434164Y-116881610D01*
X156492287Y-116801610D01*
X156585220Y-116619219D01*
X156648477Y-116424534D01*
X156680500Y-116222352D01*
X156680500Y-116017648D01*
X156653399Y-115846542D01*
X156648477Y-115815465D01*
X156612433Y-115704534D01*
X156585220Y-115620781D01*
X156585218Y-115620778D01*
X156585218Y-115620776D01*
X156524877Y-115502352D01*
X156492287Y-115438390D01*
X156478359Y-115419219D01*
X156371971Y-115272786D01*
X156227213Y-115128028D01*
X156061613Y-115007715D01*
X156061612Y-115007714D01*
X156061610Y-115007713D01*
X155974798Y-114963480D01*
X155879223Y-114914781D01*
X155684534Y-114851522D01*
X155509995Y-114823878D01*
X155482352Y-114819500D01*
X155277648Y-114819500D01*
X155253329Y-114823351D01*
X155075465Y-114851522D01*
X154880776Y-114914781D01*
X154698386Y-115007715D01*
X154532786Y-115128028D01*
X154388028Y-115272786D01*
X154267715Y-115438386D01*
X154174781Y-115620776D01*
X154111522Y-115815465D01*
X154079500Y-116017648D01*
X151667829Y-116017648D01*
X151648477Y-115895465D01*
X151602218Y-115753095D01*
X151585220Y-115700781D01*
X151585218Y-115700778D01*
X151585218Y-115700776D01*
X151534690Y-115601610D01*
X151492287Y-115518390D01*
X151447802Y-115457161D01*
X151371971Y-115352786D01*
X151227213Y-115208028D01*
X151061613Y-115087715D01*
X151061612Y-115087714D01*
X151061610Y-115087713D01*
X151004653Y-115058691D01*
X150879223Y-114994781D01*
X150684534Y-114931522D01*
X150509995Y-114903878D01*
X150482352Y-114899500D01*
X150277648Y-114899500D01*
X150253329Y-114903351D01*
X150075465Y-114931522D01*
X149880776Y-114994781D01*
X149698386Y-115087715D01*
X149532786Y-115208028D01*
X149388028Y-115352786D01*
X149267715Y-115518386D01*
X149174781Y-115700776D01*
X149111522Y-115895465D01*
X149079500Y-116097648D01*
X134748305Y-116097648D01*
X133096819Y-114446162D01*
X133063334Y-114384839D01*
X133060500Y-114358481D01*
X133060500Y-112997648D01*
X133659500Y-112997648D01*
X133659500Y-113202351D01*
X133691522Y-113404534D01*
X133754781Y-113599223D01*
X133847715Y-113781613D01*
X133968028Y-113947213D01*
X134112786Y-114091971D01*
X134239884Y-114184311D01*
X134278390Y-114212287D01*
X134375455Y-114261744D01*
X134460776Y-114305218D01*
X134460778Y-114305218D01*
X134460781Y-114305220D01*
X134565137Y-114339127D01*
X134655465Y-114368477D01*
X134724897Y-114379474D01*
X134857648Y-114400500D01*
X134857649Y-114400500D01*
X135062351Y-114400500D01*
X135062352Y-114400500D01*
X135264534Y-114368477D01*
X135459219Y-114305220D01*
X135641610Y-114212287D01*
X135752773Y-114131523D01*
X135807213Y-114091971D01*
X135807215Y-114091968D01*
X135807219Y-114091966D01*
X135951966Y-113947219D01*
X135951968Y-113947215D01*
X135951971Y-113947213D01*
X136004732Y-113874590D01*
X136072287Y-113781610D01*
X136165220Y-113599219D01*
X136228477Y-113404534D01*
X136260500Y-113202352D01*
X136260500Y-112997648D01*
X136257242Y-112977078D01*
X136228477Y-112795465D01*
X136165218Y-112600776D01*
X136131503Y-112534607D01*
X136072287Y-112418390D01*
X136064556Y-112407749D01*
X135951971Y-112252786D01*
X135807213Y-112108028D01*
X135641613Y-111987715D01*
X135641612Y-111987714D01*
X135641610Y-111987713D01*
X135555534Y-111943855D01*
X135459223Y-111894781D01*
X135264534Y-111831522D01*
X135089995Y-111803878D01*
X135062352Y-111799500D01*
X134857648Y-111799500D01*
X134833329Y-111803351D01*
X134655465Y-111831522D01*
X134460776Y-111894781D01*
X134278386Y-111987715D01*
X134112786Y-112108028D01*
X133968028Y-112252786D01*
X133847715Y-112418386D01*
X133754781Y-112600776D01*
X133691522Y-112795465D01*
X133659500Y-112997648D01*
X133060500Y-112997648D01*
X133060500Y-105521517D01*
X133080185Y-105454478D01*
X133096815Y-105433840D01*
X133533852Y-104996802D01*
X133595173Y-104963319D01*
X133640923Y-104962012D01*
X133757648Y-104980500D01*
X133757650Y-104980500D01*
X133962351Y-104980500D01*
X133962352Y-104980500D01*
X134164534Y-104948477D01*
X134359219Y-104885220D01*
X134541610Y-104792287D01*
X134634590Y-104724732D01*
X134707213Y-104671971D01*
X134707215Y-104671968D01*
X134707219Y-104671966D01*
X134851966Y-104527219D01*
X134851968Y-104527215D01*
X134851971Y-104527213D01*
X134904732Y-104454590D01*
X134972287Y-104361610D01*
X135065220Y-104179219D01*
X135128477Y-103984534D01*
X135160500Y-103782352D01*
X135160500Y-103577648D01*
X135139893Y-103447544D01*
X135128477Y-103375465D01*
X135081971Y-103232335D01*
X135065220Y-103180781D01*
X135065218Y-103180778D01*
X135065218Y-103180776D01*
X135009924Y-103072257D01*
X134972287Y-102998390D01*
X134937503Y-102950513D01*
X134851971Y-102832786D01*
X134707213Y-102688028D01*
X134541613Y-102567715D01*
X134541612Y-102567714D01*
X134541610Y-102567713D01*
X134484547Y-102538638D01*
X134359223Y-102474781D01*
X134164534Y-102411522D01*
X133989995Y-102383878D01*
X133962352Y-102379500D01*
X133757648Y-102379500D01*
X133733329Y-102383351D01*
X133555465Y-102411522D01*
X133360776Y-102474781D01*
X133178386Y-102567715D01*
X133012786Y-102688028D01*
X132868028Y-102832786D01*
X132747715Y-102998386D01*
X132654781Y-103180776D01*
X132591522Y-103375465D01*
X132559500Y-103577648D01*
X132559500Y-103782351D01*
X132577986Y-103899069D01*
X132569031Y-103968363D01*
X132543194Y-104006148D01*
X131815888Y-104733453D01*
X131815887Y-104733454D01*
X131739222Y-104848192D01*
X131686421Y-104975667D01*
X131686418Y-104975679D01*
X131662551Y-105095665D01*
X131662551Y-105095671D01*
X131659500Y-105111007D01*
X131659500Y-114631006D01*
X131659500Y-114768994D01*
X131659500Y-114768996D01*
X131659499Y-114768996D01*
X131686418Y-114904322D01*
X131686421Y-114904332D01*
X131739222Y-115031807D01*
X131815887Y-115146545D01*
X136713454Y-120044112D01*
X136828192Y-120120777D01*
X136955667Y-120173578D01*
X136955672Y-120173580D01*
X136955676Y-120173580D01*
X136955677Y-120173581D01*
X137091003Y-120200500D01*
X137091006Y-120200500D01*
X137091007Y-120200500D01*
X138306346Y-120200500D01*
X138373385Y-120220185D01*
X138419140Y-120272989D01*
X138429084Y-120342147D01*
X138400059Y-120405703D01*
X138394027Y-120412181D01*
X138268412Y-120537795D01*
X138268406Y-120537802D01*
X138124730Y-120725045D01*
X138006717Y-120929448D01*
X138006708Y-120929465D01*
X137998015Y-120950454D01*
X137954174Y-121004857D01*
X137887879Y-121026921D01*
X137883455Y-121027000D01*
X137329019Y-121027000D01*
X137261980Y-121007315D01*
X137241338Y-120990681D01*
X130096819Y-113846162D01*
X130063334Y-113784839D01*
X130060500Y-113758481D01*
X130060500Y-104841744D01*
X130080185Y-104774705D01*
X130111615Y-104741426D01*
X130207215Y-104671969D01*
X130207215Y-104671968D01*
X130207219Y-104671966D01*
X130351966Y-104527219D01*
X130351968Y-104527215D01*
X130351971Y-104527213D01*
X130404732Y-104454590D01*
X130472287Y-104361610D01*
X130565220Y-104179219D01*
X130628477Y-103984534D01*
X130660500Y-103782352D01*
X130660500Y-103577648D01*
X130639893Y-103447544D01*
X130628477Y-103375465D01*
X130581971Y-103232335D01*
X130565220Y-103180781D01*
X130565218Y-103180778D01*
X130565218Y-103180776D01*
X130509924Y-103072257D01*
X130472287Y-102998390D01*
X130437503Y-102950513D01*
X130351971Y-102832786D01*
X130207213Y-102688028D01*
X130041613Y-102567715D01*
X130041612Y-102567714D01*
X130041610Y-102567713D01*
X129984547Y-102538638D01*
X129859223Y-102474781D01*
X129664534Y-102411522D01*
X129489995Y-102383878D01*
X129462352Y-102379500D01*
X129257648Y-102379500D01*
X129233329Y-102383351D01*
X129055465Y-102411522D01*
X128860776Y-102474781D01*
X128678386Y-102567715D01*
X128512786Y-102688028D01*
X128368028Y-102832786D01*
X128247715Y-102998386D01*
X128154781Y-103180776D01*
X128091522Y-103375465D01*
X128059500Y-103577648D01*
X128059500Y-103782351D01*
X128091522Y-103984534D01*
X128154781Y-104179223D01*
X128247715Y-104361613D01*
X128368028Y-104527213D01*
X128512784Y-104671969D01*
X128608385Y-104741426D01*
X128651051Y-104796755D01*
X128659500Y-104841744D01*
X128659500Y-106169481D01*
X128639815Y-106236520D01*
X128587011Y-106282275D01*
X128517853Y-106292219D01*
X128454297Y-106263194D01*
X128447819Y-106257162D01*
X126196805Y-104006148D01*
X126163320Y-103944825D01*
X126162013Y-103899068D01*
X126180500Y-103782352D01*
X126180500Y-103577648D01*
X126159893Y-103447544D01*
X126148477Y-103375465D01*
X126101971Y-103232335D01*
X126085220Y-103180781D01*
X126085218Y-103180778D01*
X126085218Y-103180776D01*
X126029924Y-103072257D01*
X125992287Y-102998390D01*
X125957503Y-102950513D01*
X125871971Y-102832786D01*
X125727213Y-102688028D01*
X125561613Y-102567715D01*
X125561612Y-102567714D01*
X125561610Y-102567713D01*
X125504547Y-102538638D01*
X125379223Y-102474781D01*
X125184534Y-102411522D01*
X125009995Y-102383878D01*
X124982352Y-102379500D01*
X124777648Y-102379500D01*
X124753329Y-102383351D01*
X124575465Y-102411522D01*
X124380776Y-102474781D01*
X124198386Y-102567715D01*
X124032786Y-102688028D01*
X123888028Y-102832786D01*
X123767715Y-102998386D01*
X123674781Y-103180776D01*
X123611522Y-103375465D01*
X123579500Y-103577648D01*
X123579500Y-103782351D01*
X123611522Y-103984534D01*
X123674781Y-104179223D01*
X123767715Y-104361613D01*
X123888028Y-104527213D01*
X124032786Y-104671971D01*
X124175174Y-104775420D01*
X124198390Y-104792287D01*
X124295455Y-104841744D01*
X124380776Y-104885218D01*
X124380778Y-104885218D01*
X124380781Y-104885220D01*
X124441307Y-104904886D01*
X124575465Y-104948477D01*
X124669173Y-104963319D01*
X124777648Y-104980500D01*
X124777649Y-104980500D01*
X124982350Y-104980500D01*
X124982352Y-104980500D01*
X125099068Y-104962013D01*
X125168362Y-104970967D01*
X125206148Y-104996805D01*
X127563181Y-107353837D01*
X127596666Y-107415160D01*
X127599500Y-107441518D01*
X127599500Y-109909481D01*
X127579815Y-109976520D01*
X127527011Y-110022275D01*
X127457853Y-110032219D01*
X127394297Y-110003194D01*
X127387819Y-109997162D01*
X126016805Y-108626148D01*
X125983320Y-108564825D01*
X125982013Y-108519068D01*
X125985036Y-108499983D01*
X126000500Y-108402352D01*
X126000500Y-108197648D01*
X125980140Y-108069099D01*
X125968477Y-107995465D01*
X125934209Y-107890000D01*
X125905220Y-107800781D01*
X125905218Y-107800778D01*
X125905218Y-107800776D01*
X125853839Y-107699940D01*
X125812287Y-107618390D01*
X125772176Y-107563181D01*
X125691971Y-107452786D01*
X125547213Y-107308028D01*
X125381613Y-107187715D01*
X125381612Y-107187714D01*
X125381610Y-107187713D01*
X125324653Y-107158691D01*
X125199223Y-107094781D01*
X125004534Y-107031522D01*
X124829995Y-107003878D01*
X124802352Y-106999500D01*
X124597648Y-106999500D01*
X124573329Y-107003351D01*
X124395465Y-107031522D01*
X124200776Y-107094781D01*
X124018386Y-107187715D01*
X123852786Y-107308028D01*
X123708028Y-107452786D01*
X123587715Y-107618386D01*
X123494781Y-107800776D01*
X123431522Y-107995465D01*
X123399500Y-108197648D01*
X113700500Y-108197648D01*
X113700500Y-94978711D01*
X114849500Y-94978711D01*
X114849500Y-95221288D01*
X114881161Y-95461785D01*
X114943947Y-95696104D01*
X115036773Y-95920205D01*
X115036777Y-95920214D01*
X115040773Y-95927135D01*
X115158064Y-96130289D01*
X115158066Y-96130292D01*
X115158067Y-96130293D01*
X115305733Y-96322736D01*
X115305739Y-96322743D01*
X115477256Y-96494260D01*
X115477262Y-96494265D01*
X115669711Y-96641936D01*
X115879788Y-96763224D01*
X116103900Y-96856054D01*
X116338211Y-96918838D01*
X116518586Y-96942584D01*
X116578711Y-96950500D01*
X116578712Y-96950500D01*
X116821289Y-96950500D01*
X116869388Y-96944167D01*
X117061789Y-96918838D01*
X117296100Y-96856054D01*
X117520212Y-96763224D01*
X117730289Y-96641936D01*
X117922738Y-96494265D01*
X118094265Y-96322738D01*
X118241936Y-96130289D01*
X118363224Y-95920212D01*
X118456054Y-95696100D01*
X118518838Y-95461789D01*
X118550500Y-95221288D01*
X118550500Y-94978712D01*
X118518838Y-94738211D01*
X118456054Y-94503900D01*
X118363224Y-94279788D01*
X118241936Y-94069711D01*
X118117120Y-93907047D01*
X118094266Y-93877263D01*
X118094260Y-93877256D01*
X117922743Y-93705739D01*
X117922736Y-93705733D01*
X117730293Y-93558067D01*
X117730292Y-93558066D01*
X117730289Y-93558064D01*
X117520212Y-93436776D01*
X117474033Y-93417648D01*
X117296104Y-93343947D01*
X117061785Y-93281161D01*
X116821289Y-93249500D01*
X116821288Y-93249500D01*
X116578712Y-93249500D01*
X116578711Y-93249500D01*
X116338214Y-93281161D01*
X116103895Y-93343947D01*
X115879794Y-93436773D01*
X115879785Y-93436777D01*
X115669706Y-93558067D01*
X115477263Y-93705733D01*
X115477256Y-93705739D01*
X115305739Y-93877256D01*
X115305733Y-93877263D01*
X115158067Y-94069706D01*
X115036777Y-94279785D01*
X115036773Y-94279794D01*
X114943947Y-94503895D01*
X114881161Y-94738214D01*
X114849500Y-94978711D01*
X113700500Y-94978711D01*
X113700500Y-92224500D01*
X113720185Y-92157461D01*
X113772989Y-92111706D01*
X113824500Y-92100500D01*
X124284831Y-92100500D01*
X124351870Y-92120185D01*
G37*
%TD.AperFunction*%
%TA.AperFunction,Conductor*%
G36*
X184121920Y-115664170D02*
G01*
X184156277Y-115725009D01*
X184159500Y-115753095D01*
X184159500Y-122758480D01*
X184139815Y-122825519D01*
X184123181Y-122846161D01*
X183206147Y-123763194D01*
X183144824Y-123796679D01*
X183099068Y-123797986D01*
X183049969Y-123790209D01*
X182982352Y-123779500D01*
X182777648Y-123779500D01*
X182753329Y-123783351D01*
X182575465Y-123811522D01*
X182380776Y-123874781D01*
X182198386Y-123967715D01*
X182032786Y-124088028D01*
X181888028Y-124232786D01*
X181767715Y-124398386D01*
X181674781Y-124580776D01*
X181611522Y-124775465D01*
X181579500Y-124977648D01*
X181579500Y-125182351D01*
X181597986Y-125299068D01*
X181589031Y-125368362D01*
X181563194Y-125406147D01*
X180806162Y-126163181D01*
X180744839Y-126196666D01*
X180718481Y-126199500D01*
X178341519Y-126199500D01*
X178274480Y-126179815D01*
X178253838Y-126163181D01*
X170323839Y-118233181D01*
X170290354Y-118171858D01*
X170295338Y-118102166D01*
X170337210Y-118046233D01*
X170402674Y-118021816D01*
X170411520Y-118021500D01*
X171839481Y-118021500D01*
X171906520Y-118041185D01*
X171927162Y-118057819D01*
X178143194Y-124273851D01*
X178176679Y-124335174D01*
X178177986Y-124380929D01*
X178159500Y-124497647D01*
X178159500Y-124702351D01*
X178191522Y-124904534D01*
X178254781Y-125099223D01*
X178347715Y-125281613D01*
X178468028Y-125447213D01*
X178612786Y-125591971D01*
X178731734Y-125678390D01*
X178778390Y-125712287D01*
X178875192Y-125761610D01*
X178960776Y-125805218D01*
X178960778Y-125805218D01*
X178960781Y-125805220D01*
X179065137Y-125839127D01*
X179155465Y-125868477D01*
X179256557Y-125884488D01*
X179357648Y-125900500D01*
X179357649Y-125900500D01*
X179562351Y-125900500D01*
X179562352Y-125900500D01*
X179764534Y-125868477D01*
X179959219Y-125805220D01*
X180141610Y-125712287D01*
X180234590Y-125644732D01*
X180307213Y-125591971D01*
X180307215Y-125591968D01*
X180307219Y-125591966D01*
X180451966Y-125447219D01*
X180451968Y-125447215D01*
X180451971Y-125447213D01*
X180521425Y-125351616D01*
X180572287Y-125281610D01*
X180665220Y-125099219D01*
X180728477Y-124904534D01*
X180760500Y-124702352D01*
X180760500Y-124497648D01*
X180742013Y-124380929D01*
X180750967Y-124311637D01*
X180776805Y-124273851D01*
X181271157Y-123779500D01*
X181805114Y-123245543D01*
X181881775Y-123130811D01*
X181934580Y-123003328D01*
X181949107Y-122930296D01*
X181961500Y-122867996D01*
X181961500Y-116103540D01*
X181981185Y-116036501D01*
X182033989Y-115990746D01*
X182103147Y-115980802D01*
X182158384Y-116003221D01*
X182198390Y-116032287D01*
X182279432Y-116073580D01*
X182380776Y-116125218D01*
X182380778Y-116125218D01*
X182380781Y-116125220D01*
X182462020Y-116151616D01*
X182575465Y-116188477D01*
X182676557Y-116204488D01*
X182777648Y-116220500D01*
X182777649Y-116220500D01*
X182982351Y-116220500D01*
X182982352Y-116220500D01*
X183184534Y-116188477D01*
X183379219Y-116125220D01*
X183561610Y-116032287D01*
X183654590Y-115964732D01*
X183727213Y-115911971D01*
X183727215Y-115911968D01*
X183727219Y-115911966D01*
X183871966Y-115767219D01*
X183935181Y-115680209D01*
X183990511Y-115637544D01*
X184060125Y-115631565D01*
X184121920Y-115664170D01*
G37*
%TD.AperFunction*%
%TA.AperFunction,Conductor*%
G36*
X160829082Y-99319185D02*
G01*
X160849724Y-99335819D01*
X162125694Y-100611789D01*
X162556986Y-101043080D01*
X162590471Y-101104403D01*
X162585487Y-101174095D01*
X162556987Y-101218442D01*
X162413829Y-101361600D01*
X162301659Y-101529473D01*
X162301652Y-101529486D01*
X162224390Y-101716016D01*
X162224387Y-101716025D01*
X162185000Y-101914041D01*
X162185000Y-101990000D01*
X162929670Y-101990000D01*
X162909925Y-102009745D01*
X162860556Y-102095255D01*
X162835000Y-102190630D01*
X162835000Y-102289370D01*
X162860556Y-102384745D01*
X162909925Y-102470255D01*
X162929670Y-102490000D01*
X162185000Y-102490000D01*
X162185000Y-102565958D01*
X162224387Y-102763974D01*
X162224390Y-102763983D01*
X162301652Y-102950513D01*
X162301659Y-102950526D01*
X162413829Y-103118399D01*
X162413832Y-103118403D01*
X162556596Y-103261167D01*
X162556600Y-103261170D01*
X162724473Y-103373340D01*
X162724486Y-103373347D01*
X162911016Y-103450609D01*
X162911025Y-103450612D01*
X162960000Y-103460353D01*
X162960000Y-102520330D01*
X162979745Y-102540075D01*
X163065255Y-102589444D01*
X163160630Y-102615000D01*
X163259370Y-102615000D01*
X163354745Y-102589444D01*
X163440255Y-102540075D01*
X163454500Y-102525830D01*
X163454500Y-102566003D01*
X163459722Y-102592259D01*
X163459968Y-102603046D01*
X163459788Y-102603714D01*
X163460000Y-102605865D01*
X163460000Y-103460352D01*
X163508974Y-103450612D01*
X163508983Y-103450609D01*
X163695515Y-103373346D01*
X163695518Y-103373344D01*
X163775658Y-103319796D01*
X163790832Y-103315044D01*
X163803769Y-103305795D01*
X163823491Y-103304817D01*
X163842335Y-103298917D01*
X163858518Y-103303082D01*
X163873553Y-103302337D01*
X163899146Y-103313538D01*
X163906344Y-103315391D01*
X163909959Y-103317468D01*
X163994244Y-103373786D01*
X164043255Y-103394087D01*
X164050193Y-103398075D01*
X164069036Y-103417761D01*
X164090254Y-103434860D01*
X164092841Y-103442632D01*
X164098505Y-103448550D01*
X164103713Y-103475295D01*
X164112320Y-103501153D01*
X164110294Y-103509090D01*
X164111860Y-103517131D01*
X164101781Y-103542446D01*
X164095042Y-103568853D01*
X164087301Y-103578816D01*
X164086016Y-103582046D01*
X164083265Y-103584012D01*
X164076080Y-103593262D01*
X161615888Y-106053453D01*
X161615887Y-106053454D01*
X161539222Y-106168192D01*
X161486421Y-106295667D01*
X161486418Y-106295679D01*
X161466529Y-106395670D01*
X161466529Y-106395672D01*
X161459500Y-106431007D01*
X161459500Y-111031006D01*
X161459500Y-111168994D01*
X161459500Y-111168996D01*
X161459499Y-111168996D01*
X161486418Y-111304322D01*
X161486421Y-111304332D01*
X161539222Y-111431807D01*
X161615887Y-111546545D01*
X163913454Y-113844112D01*
X164028192Y-113920777D01*
X164155667Y-113973578D01*
X164155672Y-113973580D01*
X164155676Y-113973580D01*
X164155677Y-113973581D01*
X164291003Y-114000500D01*
X164291006Y-114000500D01*
X164291007Y-114000500D01*
X165679699Y-114000500D01*
X165746738Y-114020185D01*
X165792493Y-114072989D01*
X165797403Y-114085492D01*
X165802045Y-114099500D01*
X165825185Y-114169331D01*
X165825187Y-114169336D01*
X165850048Y-114209642D01*
X165917288Y-114318656D01*
X166041344Y-114442712D01*
X166190666Y-114534814D01*
X166357203Y-114589999D01*
X166459991Y-114600500D01*
X167660008Y-114600499D01*
X167762797Y-114589999D01*
X167929334Y-114534814D01*
X168078656Y-114442712D01*
X168202712Y-114318656D01*
X168294814Y-114169334D01*
X168349999Y-114002797D01*
X168360500Y-113900009D01*
X168360499Y-112841517D01*
X168380183Y-112774479D01*
X168396813Y-112753842D01*
X171601137Y-109549518D01*
X171603550Y-109548201D01*
X171604971Y-109545845D01*
X171634034Y-109531555D01*
X171662458Y-109516035D01*
X171665202Y-109516231D01*
X171667672Y-109515017D01*
X171699844Y-109518708D01*
X171732150Y-109521019D01*
X171734353Y-109522668D01*
X171737086Y-109522982D01*
X171762153Y-109543480D01*
X171788083Y-109562891D01*
X171789696Y-109566001D01*
X171791175Y-109567211D01*
X171806745Y-109598880D01*
X171813616Y-109620025D01*
X171902976Y-109795405D01*
X172018672Y-109954646D01*
X172157854Y-110093828D01*
X172220888Y-110139624D01*
X172263551Y-110194951D01*
X172272000Y-110239940D01*
X172272000Y-113945980D01*
X172252315Y-114013019D01*
X172235681Y-114033661D01*
X170812181Y-115457161D01*
X170750858Y-115490646D01*
X170681166Y-115485662D01*
X170625233Y-115443790D01*
X170600816Y-115378326D01*
X170600500Y-115369480D01*
X170600500Y-115297648D01*
X170568477Y-115095465D01*
X170534745Y-114991650D01*
X170505220Y-114900781D01*
X170505218Y-114900778D01*
X170505218Y-114900776D01*
X170438071Y-114768994D01*
X170412287Y-114718390D01*
X170372176Y-114663181D01*
X170291971Y-114552786D01*
X170147213Y-114408028D01*
X169981613Y-114287715D01*
X169981612Y-114287714D01*
X169981610Y-114287713D01*
X169924653Y-114258691D01*
X169799223Y-114194781D01*
X169604534Y-114131522D01*
X169429995Y-114103878D01*
X169402352Y-114099500D01*
X169197648Y-114099500D01*
X169173329Y-114103351D01*
X168995465Y-114131522D01*
X168800776Y-114194781D01*
X168618386Y-114287715D01*
X168452786Y-114408028D01*
X168452782Y-114408032D01*
X168408229Y-114452584D01*
X168408205Y-114452609D01*
X168308034Y-114552781D01*
X168279545Y-114591992D01*
X168279533Y-114592006D01*
X168187714Y-114718387D01*
X168094781Y-114900776D01*
X168031522Y-115095465D01*
X167999500Y-115297648D01*
X167999500Y-115502351D01*
X168031523Y-115704535D01*
X168031524Y-115704542D01*
X168042130Y-115737183D01*
X168044125Y-115807024D01*
X168008044Y-115866857D01*
X167945343Y-115897684D01*
X167924199Y-115899500D01*
X166465872Y-115899500D01*
X166398833Y-115879815D01*
X166353078Y-115827011D01*
X166347944Y-115813826D01*
X166285220Y-115620781D01*
X166192287Y-115438390D01*
X166178359Y-115419219D01*
X166071971Y-115272786D01*
X165927213Y-115128028D01*
X165761613Y-115007715D01*
X165761612Y-115007714D01*
X165761610Y-115007713D01*
X165674798Y-114963480D01*
X165579223Y-114914781D01*
X165384534Y-114851522D01*
X165209995Y-114823878D01*
X165182352Y-114819500D01*
X164977648Y-114819500D01*
X164953329Y-114823351D01*
X164775465Y-114851522D01*
X164580776Y-114914781D01*
X164398386Y-115007715D01*
X164232786Y-115128028D01*
X164088028Y-115272786D01*
X163967715Y-115438386D01*
X163874781Y-115620776D01*
X163811522Y-115815465D01*
X163779500Y-116017648D01*
X163779500Y-116222351D01*
X163811523Y-116424535D01*
X163811524Y-116424542D01*
X163822455Y-116458183D01*
X163823258Y-116486301D01*
X163827262Y-116514147D01*
X163824242Y-116520758D01*
X163824450Y-116528024D01*
X163809923Y-116552112D01*
X163798237Y-116577703D01*
X163792121Y-116581633D01*
X163788369Y-116587856D01*
X163763126Y-116600266D01*
X163739459Y-116615477D01*
X163729186Y-116616953D01*
X163725668Y-116618684D01*
X163704524Y-116620500D01*
X163520990Y-116620500D01*
X163453951Y-116600815D01*
X163433309Y-116584181D01*
X158404017Y-111554888D01*
X158404016Y-111554887D01*
X158289278Y-111478222D01*
X158161803Y-111425421D01*
X158161793Y-111425418D01*
X158026467Y-111398500D01*
X158026465Y-111398500D01*
X158026464Y-111398500D01*
X155985500Y-111398500D01*
X155918461Y-111378815D01*
X155872706Y-111326011D01*
X155861500Y-111274500D01*
X155861500Y-109947549D01*
X155881185Y-109880510D01*
X155933989Y-109834755D01*
X155995229Y-109823931D01*
X156020525Y-109825921D01*
X156700000Y-109146446D01*
X156700000Y-109152661D01*
X156727259Y-109254394D01*
X156779920Y-109345606D01*
X156854394Y-109420080D01*
X156945606Y-109472741D01*
X157047339Y-109500000D01*
X157053553Y-109500000D01*
X156374076Y-110179474D01*
X156418650Y-110211859D01*
X156600968Y-110304755D01*
X156795582Y-110367990D01*
X156997683Y-110400000D01*
X157202317Y-110400000D01*
X157404417Y-110367990D01*
X157599031Y-110304755D01*
X157781349Y-110211859D01*
X157825921Y-110179474D01*
X157146447Y-109500000D01*
X157152661Y-109500000D01*
X157254394Y-109472741D01*
X157345606Y-109420080D01*
X157420080Y-109345606D01*
X157472741Y-109254394D01*
X157500000Y-109152661D01*
X157500000Y-109146447D01*
X158179474Y-109825921D01*
X158211859Y-109781349D01*
X158304755Y-109599031D01*
X158367990Y-109404417D01*
X158400000Y-109202317D01*
X158400000Y-108997682D01*
X158367990Y-108795582D01*
X158304755Y-108600968D01*
X158211859Y-108418650D01*
X158179474Y-108374077D01*
X158179474Y-108374076D01*
X157500000Y-109053551D01*
X157500000Y-109047339D01*
X157472741Y-108945606D01*
X157420080Y-108854394D01*
X157345606Y-108779920D01*
X157254394Y-108727259D01*
X157152661Y-108700000D01*
X157146446Y-108700000D01*
X157825922Y-108020524D01*
X157825921Y-108020523D01*
X157781359Y-107988147D01*
X157781350Y-107988141D01*
X157599031Y-107895244D01*
X157404417Y-107832009D01*
X157202317Y-107800000D01*
X156997683Y-107800000D01*
X156795582Y-107832009D01*
X156600968Y-107895244D01*
X156418644Y-107988143D01*
X156374077Y-108020523D01*
X156374077Y-108020524D01*
X157053554Y-108700000D01*
X157047339Y-108700000D01*
X156945606Y-108727259D01*
X156854394Y-108779920D01*
X156779920Y-108854394D01*
X156727259Y-108945606D01*
X156700000Y-109047339D01*
X156700000Y-109053553D01*
X156020524Y-108374077D01*
X155995229Y-108376068D01*
X155989724Y-108374911D01*
X155984314Y-108376444D01*
X155955909Y-108367808D01*
X155926852Y-108361704D01*
X155922847Y-108357756D01*
X155917466Y-108356120D01*
X155898238Y-108333496D01*
X155877095Y-108312653D01*
X155874902Y-108306038D01*
X155872218Y-108302880D01*
X155869292Y-108289114D01*
X155862599Y-108268922D01*
X155861500Y-108260722D01*
X155861500Y-108204427D01*
X155834580Y-108069092D01*
X155790545Y-107962781D01*
X155781776Y-107941611D01*
X155776175Y-107933229D01*
X155746957Y-107889500D01*
X155746957Y-107889499D01*
X155746955Y-107889498D01*
X155705114Y-107826877D01*
X155705111Y-107826873D01*
X151011818Y-103133580D01*
X150978333Y-103072257D01*
X150975499Y-103045899D01*
X150975499Y-102013500D01*
X150995184Y-101946461D01*
X151047988Y-101900706D01*
X151099499Y-101889500D01*
X154161000Y-101889500D01*
X154228039Y-101909185D01*
X154273794Y-101961989D01*
X154285000Y-102013500D01*
X154285000Y-102090000D01*
X155029670Y-102090000D01*
X155009925Y-102109745D01*
X154960556Y-102195255D01*
X154935000Y-102290630D01*
X154935000Y-102389370D01*
X154960556Y-102484745D01*
X155009925Y-102570255D01*
X155029670Y-102590000D01*
X154285000Y-102590000D01*
X154285000Y-102665958D01*
X154324387Y-102863974D01*
X154324390Y-102863983D01*
X154401652Y-103050513D01*
X154401659Y-103050526D01*
X154513829Y-103218399D01*
X154513832Y-103218403D01*
X154656596Y-103361167D01*
X154656600Y-103361170D01*
X154824473Y-103473340D01*
X154824486Y-103473347D01*
X155011016Y-103550609D01*
X155011025Y-103550612D01*
X155060000Y-103560353D01*
X155060000Y-102620330D01*
X155079745Y-102640075D01*
X155165255Y-102689444D01*
X155260630Y-102715000D01*
X155359370Y-102715000D01*
X155454745Y-102689444D01*
X155540255Y-102640075D01*
X155554500Y-102625830D01*
X155554500Y-102666003D01*
X155559722Y-102692259D01*
X155559968Y-102703046D01*
X155559788Y-102703714D01*
X155560000Y-102705865D01*
X155560000Y-103560352D01*
X155608974Y-103550612D01*
X155608983Y-103550609D01*
X155795515Y-103473346D01*
X155795518Y-103473344D01*
X155875658Y-103419796D01*
X155942335Y-103398917D01*
X156009716Y-103417401D01*
X156013422Y-103419783D01*
X156094244Y-103473786D01*
X156280873Y-103551091D01*
X156446777Y-103584091D01*
X156478992Y-103590499D01*
X156478996Y-103590500D01*
X156478997Y-103590500D01*
X156681004Y-103590500D01*
X156681005Y-103590499D01*
X156879127Y-103551091D01*
X156880284Y-103550612D01*
X156922879Y-103532968D01*
X156959798Y-103517674D01*
X157029267Y-103510205D01*
X157074658Y-103529962D01*
X157074886Y-103529546D01*
X157079540Y-103532087D01*
X157081562Y-103532967D01*
X157082669Y-103533796D01*
X157082670Y-103533796D01*
X157082671Y-103533797D01*
X157217517Y-103584091D01*
X157217516Y-103584091D01*
X157224444Y-103584835D01*
X157277127Y-103590500D01*
X158422872Y-103590499D01*
X158482483Y-103584091D01*
X158617331Y-103533796D01*
X158732546Y-103447546D01*
X158818796Y-103332331D01*
X158869091Y-103197483D01*
X158875500Y-103137873D01*
X158875499Y-102340000D01*
X158875499Y-101542129D01*
X158875498Y-101542123D01*
X158875419Y-101541391D01*
X158869091Y-101482517D01*
X158865537Y-101472989D01*
X158818796Y-101347669D01*
X158818793Y-101347664D01*
X158732547Y-101232455D01*
X158732544Y-101232452D01*
X158617335Y-101146206D01*
X158617328Y-101146202D01*
X158482482Y-101095908D01*
X158482483Y-101095908D01*
X158422883Y-101089501D01*
X158422881Y-101089500D01*
X158422873Y-101089500D01*
X158422864Y-101089500D01*
X157277129Y-101089500D01*
X157277123Y-101089501D01*
X157217516Y-101095908D01*
X157082672Y-101146202D01*
X157082665Y-101146206D01*
X157081556Y-101147037D01*
X157080258Y-101147520D01*
X157074887Y-101150454D01*
X157074465Y-101149681D01*
X157016090Y-101171449D01*
X156959800Y-101162325D01*
X156879127Y-101128909D01*
X156879119Y-101128907D01*
X156681007Y-101089500D01*
X156681003Y-101089500D01*
X156636081Y-101089500D01*
X156569042Y-101069815D01*
X156548400Y-101053181D01*
X156140108Y-100644888D01*
X156140107Y-100644887D01*
X156025369Y-100568222D01*
X155897894Y-100515421D01*
X155897884Y-100515418D01*
X155762558Y-100488500D01*
X155762556Y-100488500D01*
X155762555Y-100488500D01*
X150533519Y-100488500D01*
X150466480Y-100468815D01*
X150445838Y-100452181D01*
X149504839Y-99511181D01*
X149471354Y-99449858D01*
X149476338Y-99380166D01*
X149518210Y-99324233D01*
X149583674Y-99299816D01*
X149592520Y-99299500D01*
X160762043Y-99299500D01*
X160829082Y-99319185D01*
G37*
%TD.AperFunction*%
%TA.AperFunction,Conductor*%
G36*
X172086520Y-93521185D02*
G01*
X172107162Y-93537819D01*
X184123181Y-105553837D01*
X184156666Y-105615160D01*
X184159500Y-105641518D01*
X184159500Y-114086904D01*
X184139815Y-114153943D01*
X184087011Y-114199698D01*
X184017853Y-114209642D01*
X183954297Y-114180617D01*
X183935182Y-114159789D01*
X183871971Y-114072787D01*
X183871967Y-114072782D01*
X183727217Y-113928032D01*
X183727212Y-113928028D01*
X183631615Y-113858573D01*
X183588949Y-113803243D01*
X183580500Y-113758255D01*
X183580500Y-113251005D01*
X183570821Y-113202351D01*
X183568104Y-113188691D01*
X183553580Y-113115672D01*
X183500775Y-112988189D01*
X183424114Y-112873457D01*
X183424112Y-112873454D01*
X181045118Y-110494460D01*
X181011633Y-110433137D01*
X181016617Y-110363445D01*
X181058489Y-110307512D01*
X181076505Y-110296294D01*
X181247641Y-110209097D01*
X181282625Y-110183678D01*
X181282626Y-110183678D01*
X180618947Y-109520000D01*
X180642528Y-109520000D01*
X180739175Y-109494104D01*
X180825825Y-109444076D01*
X180896576Y-109373325D01*
X180946604Y-109286675D01*
X180972500Y-109190028D01*
X180972500Y-109166448D01*
X181636178Y-109830126D01*
X181636178Y-109830125D01*
X181661595Y-109795143D01*
X181750918Y-109619835D01*
X181811721Y-109432705D01*
X181842500Y-109238382D01*
X181842500Y-109041617D01*
X181811721Y-108847294D01*
X181750918Y-108660164D01*
X181661596Y-108484858D01*
X181636178Y-108449873D01*
X181636177Y-108449873D01*
X180972500Y-109113551D01*
X180972500Y-109089972D01*
X180946604Y-108993325D01*
X180896576Y-108906675D01*
X180825825Y-108835924D01*
X180739175Y-108785896D01*
X180642528Y-108760000D01*
X180618946Y-108760000D01*
X181282625Y-108096320D01*
X181282625Y-108096319D01*
X181252343Y-108074319D01*
X181209677Y-108018990D01*
X181203696Y-107949377D01*
X181236301Y-107887581D01*
X181297139Y-107853223D01*
X181325227Y-107850000D01*
X181612500Y-107850000D01*
X181612500Y-106887401D01*
X181629175Y-106904076D01*
X181715825Y-106954104D01*
X181812472Y-106980000D01*
X181912528Y-106980000D01*
X182009175Y-106954104D01*
X182095825Y-106904076D01*
X182112500Y-106887401D01*
X182112500Y-107850000D01*
X182660328Y-107850000D01*
X182660344Y-107849999D01*
X182719872Y-107843598D01*
X182719879Y-107843596D01*
X182854586Y-107793354D01*
X182854593Y-107793350D01*
X182969687Y-107707190D01*
X182969690Y-107707187D01*
X183055850Y-107592093D01*
X183055854Y-107592086D01*
X183106096Y-107457379D01*
X183106098Y-107457372D01*
X183112499Y-107397844D01*
X183112500Y-107397827D01*
X183112500Y-106850000D01*
X182149901Y-106850000D01*
X182166576Y-106833325D01*
X182216604Y-106746675D01*
X182242500Y-106650028D01*
X182242500Y-106549972D01*
X182216604Y-106453325D01*
X182166576Y-106366675D01*
X182149901Y-106350000D01*
X183112500Y-106350000D01*
X183112500Y-105802172D01*
X183112499Y-105802155D01*
X183106098Y-105742627D01*
X183106096Y-105742620D01*
X183055854Y-105607913D01*
X183055850Y-105607906D01*
X182969690Y-105492812D01*
X182969687Y-105492809D01*
X182854593Y-105406649D01*
X182854586Y-105406645D01*
X182719879Y-105356403D01*
X182719872Y-105356401D01*
X182660344Y-105350000D01*
X182112500Y-105350000D01*
X182112500Y-106312599D01*
X182095825Y-106295924D01*
X182009175Y-106245896D01*
X181912528Y-106220000D01*
X181812472Y-106220000D01*
X181715825Y-106245896D01*
X181629175Y-106295924D01*
X181612500Y-106312599D01*
X181612500Y-105350000D01*
X181064655Y-105350000D01*
X181005127Y-105356401D01*
X181005120Y-105356403D01*
X180870413Y-105406645D01*
X180870406Y-105406649D01*
X180755312Y-105492809D01*
X180755309Y-105492812D01*
X180669149Y-105607906D01*
X180669145Y-105607913D01*
X180618903Y-105742620D01*
X180618901Y-105742627D01*
X180612500Y-105802155D01*
X180612500Y-105866421D01*
X180592815Y-105933460D01*
X180540011Y-105979215D01*
X180470853Y-105989159D01*
X180407297Y-105960134D01*
X180388182Y-105939307D01*
X180383934Y-105933460D01*
X180276328Y-105785354D01*
X180137146Y-105646172D01*
X179977905Y-105530476D01*
X179960322Y-105521517D01*
X179802529Y-105441117D01*
X179615326Y-105380290D01*
X179420922Y-105349500D01*
X179420917Y-105349500D01*
X179224083Y-105349500D01*
X179224078Y-105349500D01*
X179029673Y-105380290D01*
X178842470Y-105441117D01*
X178667094Y-105530476D01*
X178584953Y-105590156D01*
X178507854Y-105646172D01*
X178507852Y-105646174D01*
X178507851Y-105646174D01*
X178368674Y-105785351D01*
X178368674Y-105785352D01*
X178368672Y-105785354D01*
X178356453Y-105802172D01*
X178252976Y-105944594D01*
X178162985Y-106121213D01*
X178115011Y-106172009D01*
X178047190Y-106188804D01*
X177981055Y-106166267D01*
X177942015Y-106121213D01*
X177898703Y-106036209D01*
X177852024Y-105944595D01*
X177736328Y-105785354D01*
X177597146Y-105646172D01*
X177437905Y-105530476D01*
X177420322Y-105521517D01*
X177262529Y-105441117D01*
X177075326Y-105380290D01*
X176880922Y-105349500D01*
X176880917Y-105349500D01*
X176684083Y-105349500D01*
X176684077Y-105349500D01*
X176607130Y-105361687D01*
X176537837Y-105352732D01*
X176500052Y-105326895D01*
X176078046Y-104904888D01*
X176078045Y-104904887D01*
X175963307Y-104828222D01*
X175835832Y-104775421D01*
X175835822Y-104775418D01*
X175700496Y-104748500D01*
X175700494Y-104748500D01*
X175700493Y-104748500D01*
X170979994Y-104748500D01*
X170842006Y-104748500D01*
X170842004Y-104748500D01*
X170706677Y-104775418D01*
X170706667Y-104775421D01*
X170579192Y-104828222D01*
X170464454Y-104904887D01*
X167606160Y-107763181D01*
X167544837Y-107796666D01*
X167518479Y-107799500D01*
X166659998Y-107799500D01*
X166659980Y-107799501D01*
X166557203Y-107810000D01*
X166557200Y-107810001D01*
X166390668Y-107865185D01*
X166390663Y-107865187D01*
X166241342Y-107957289D01*
X166117289Y-108081342D01*
X166025187Y-108230663D01*
X166025185Y-108230668D01*
X166005818Y-108289114D01*
X165970001Y-108397203D01*
X165970001Y-108397204D01*
X165970000Y-108397204D01*
X165959500Y-108499983D01*
X165959500Y-109700001D01*
X165959501Y-109700018D01*
X165970000Y-109802796D01*
X165970001Y-109802799D01*
X166025185Y-109969331D01*
X166025186Y-109969334D01*
X166117288Y-110118656D01*
X166241344Y-110242712D01*
X166390666Y-110334814D01*
X166557203Y-110389999D01*
X166659991Y-110400500D01*
X167860008Y-110400499D01*
X167962797Y-110389999D01*
X168129334Y-110334814D01*
X168278656Y-110242712D01*
X168402712Y-110118656D01*
X168494814Y-109969334D01*
X168549999Y-109802797D01*
X168560500Y-109700009D01*
X168560499Y-108841517D01*
X168580183Y-108774479D01*
X168596813Y-108753842D01*
X171164838Y-106185819D01*
X171226161Y-106152334D01*
X171252519Y-106149500D01*
X172903877Y-106149500D01*
X172970916Y-106169185D01*
X173016671Y-106221989D01*
X173026615Y-106291147D01*
X173024007Y-106302457D01*
X173024416Y-106302556D01*
X173023278Y-106307294D01*
X172992500Y-106501617D01*
X172992500Y-106698382D01*
X173023278Y-106892705D01*
X173084081Y-107079835D01*
X173098536Y-107108205D01*
X173111432Y-107176875D01*
X173085155Y-107241615D01*
X173028049Y-107281872D01*
X172988051Y-107288500D01*
X172102005Y-107288500D01*
X171966677Y-107315418D01*
X171966667Y-107315421D01*
X171839192Y-107368222D01*
X171724454Y-107444887D01*
X167206160Y-111963181D01*
X167144837Y-111996666D01*
X167118479Y-111999500D01*
X166459998Y-111999500D01*
X166459980Y-111999501D01*
X166357203Y-112010000D01*
X166357200Y-112010001D01*
X166190668Y-112065185D01*
X166190663Y-112065187D01*
X166041342Y-112157289D01*
X165917289Y-112281342D01*
X165825187Y-112430663D01*
X165825185Y-112430668D01*
X165797405Y-112514504D01*
X165757632Y-112571949D01*
X165693116Y-112598772D01*
X165679699Y-112599500D01*
X164701519Y-112599500D01*
X164634480Y-112579815D01*
X164613838Y-112563181D01*
X162896819Y-110846162D01*
X162863334Y-110784839D01*
X162860500Y-110758481D01*
X162860500Y-106841519D01*
X162880185Y-106774480D01*
X162896819Y-106753838D01*
X165407674Y-104242983D01*
X165407676Y-104242981D01*
X165484337Y-104128249D01*
X165537142Y-104000766D01*
X165557371Y-103899069D01*
X165564062Y-103865434D01*
X165564062Y-103732518D01*
X165572706Y-103703077D01*
X165579230Y-103673091D01*
X165582984Y-103668075D01*
X165583747Y-103665479D01*
X165600377Y-103644841D01*
X165718400Y-103526817D01*
X165779723Y-103493333D01*
X165806081Y-103490499D01*
X166322871Y-103490499D01*
X166322872Y-103490499D01*
X166382483Y-103484091D01*
X166517331Y-103433796D01*
X166632546Y-103347546D01*
X166718796Y-103232331D01*
X166769091Y-103097483D01*
X166775500Y-103037873D01*
X166775499Y-101442128D01*
X166769091Y-101382517D01*
X166768177Y-101380067D01*
X166718797Y-101247671D01*
X166718793Y-101247664D01*
X166632547Y-101132455D01*
X166632544Y-101132452D01*
X166517329Y-101046202D01*
X166515068Y-101044967D01*
X166513246Y-101043145D01*
X166510231Y-101040888D01*
X166510555Y-101040454D01*
X166465665Y-100995559D01*
X166450500Y-100936138D01*
X166450500Y-100128711D01*
X169852000Y-100128711D01*
X169852000Y-100371288D01*
X169883661Y-100611785D01*
X169946447Y-100846104D01*
X170039273Y-101070205D01*
X170039277Y-101070214D01*
X170054112Y-101095908D01*
X170160564Y-101280289D01*
X170160566Y-101280292D01*
X170160567Y-101280293D01*
X170308233Y-101472736D01*
X170308239Y-101472743D01*
X170479756Y-101644260D01*
X170479762Y-101644265D01*
X170672211Y-101791936D01*
X170882288Y-101913224D01*
X171106400Y-102006054D01*
X171340711Y-102068838D01*
X171521086Y-102092584D01*
X171581211Y-102100500D01*
X171581212Y-102100500D01*
X171823789Y-102100500D01*
X171881927Y-102092846D01*
X172064289Y-102068838D01*
X172298600Y-102006054D01*
X172522712Y-101913224D01*
X172732789Y-101791936D01*
X172925238Y-101644265D01*
X173096765Y-101472738D01*
X173244436Y-101280289D01*
X173365724Y-101070212D01*
X173458554Y-100846100D01*
X173521338Y-100611789D01*
X173553000Y-100371288D01*
X173553000Y-100128712D01*
X173521338Y-99888211D01*
X173458554Y-99653900D01*
X173365724Y-99429788D01*
X173244436Y-99219711D01*
X173096765Y-99027262D01*
X173096760Y-99027256D01*
X172925243Y-98855739D01*
X172925236Y-98855733D01*
X172732793Y-98708067D01*
X172732792Y-98708066D01*
X172732789Y-98708064D01*
X172522712Y-98586776D01*
X172522705Y-98586773D01*
X172298604Y-98493947D01*
X172064285Y-98431161D01*
X171823789Y-98399500D01*
X171823788Y-98399500D01*
X171581212Y-98399500D01*
X171581211Y-98399500D01*
X171340714Y-98431161D01*
X171106395Y-98493947D01*
X170882294Y-98586773D01*
X170882285Y-98586777D01*
X170672206Y-98708067D01*
X170479763Y-98855733D01*
X170479756Y-98855739D01*
X170308239Y-99027256D01*
X170308233Y-99027263D01*
X170160567Y-99219706D01*
X170039277Y-99429785D01*
X170039273Y-99429794D01*
X169946447Y-99653895D01*
X169883661Y-99888214D01*
X169852000Y-100128711D01*
X166450500Y-100128711D01*
X166450500Y-98076004D01*
X166423581Y-97940677D01*
X166423580Y-97940676D01*
X166423580Y-97940672D01*
X166417263Y-97925421D01*
X166370776Y-97813191D01*
X166350258Y-97782483D01*
X166306719Y-97717322D01*
X166294114Y-97698457D01*
X166294109Y-97698451D01*
X165816818Y-97221160D01*
X165783333Y-97159837D01*
X165780499Y-97133479D01*
X165780499Y-95827129D01*
X165780498Y-95827123D01*
X165780497Y-95827116D01*
X165774091Y-95767517D01*
X165761094Y-95732671D01*
X165723797Y-95632671D01*
X165723793Y-95632664D01*
X165637547Y-95517455D01*
X165637544Y-95517452D01*
X165522335Y-95431206D01*
X165522328Y-95431202D01*
X165442419Y-95401398D01*
X165386485Y-95359527D01*
X165362068Y-95294062D01*
X165376920Y-95225789D01*
X165398069Y-95197537D01*
X165448242Y-95147365D01*
X165577815Y-94969022D01*
X165677895Y-94772606D01*
X165746015Y-94562951D01*
X165780500Y-94345222D01*
X165780500Y-94124778D01*
X165746015Y-93907049D01*
X165706303Y-93784825D01*
X165677896Y-93697396D01*
X165677895Y-93697393D01*
X165669947Y-93681795D01*
X165657051Y-93613126D01*
X165683327Y-93548385D01*
X165740434Y-93508128D01*
X165780432Y-93501500D01*
X172019481Y-93501500D01*
X172086520Y-93521185D01*
G37*
%TD.AperFunction*%
%TA.AperFunction,Conductor*%
G36*
X146524452Y-101368185D02*
G01*
X146570207Y-101420989D01*
X146580151Y-101490147D01*
X146560515Y-101541391D01*
X146501659Y-101629473D01*
X146501652Y-101629486D01*
X146424390Y-101816016D01*
X146424387Y-101816025D01*
X146385000Y-102014041D01*
X146385000Y-102090000D01*
X147129670Y-102090000D01*
X147109925Y-102109745D01*
X147060556Y-102195255D01*
X147035000Y-102290630D01*
X147035000Y-102389370D01*
X147060556Y-102484745D01*
X147109925Y-102570255D01*
X147129670Y-102590000D01*
X146385000Y-102590000D01*
X146385000Y-102665958D01*
X146424387Y-102863974D01*
X146424390Y-102863983D01*
X146501652Y-103050513D01*
X146501659Y-103050526D01*
X146613829Y-103218399D01*
X146613832Y-103218403D01*
X146756596Y-103361167D01*
X146756600Y-103361170D01*
X146924473Y-103473340D01*
X146924486Y-103473347D01*
X147111016Y-103550609D01*
X147111025Y-103550612D01*
X147160000Y-103560353D01*
X147160000Y-102620330D01*
X147179745Y-102640075D01*
X147265255Y-102689444D01*
X147360630Y-102715000D01*
X147459370Y-102715000D01*
X147554745Y-102689444D01*
X147640255Y-102640075D01*
X147654500Y-102625830D01*
X147654500Y-102666003D01*
X147659722Y-102692259D01*
X147659968Y-102703046D01*
X147659788Y-102703714D01*
X147660000Y-102705865D01*
X147660000Y-103560352D01*
X147708974Y-103550612D01*
X147708983Y-103550609D01*
X147895515Y-103473346D01*
X147895518Y-103473344D01*
X147975658Y-103419796D01*
X148042335Y-103398917D01*
X148109716Y-103417401D01*
X148113422Y-103419783D01*
X148194244Y-103473786D01*
X148380873Y-103551091D01*
X148546777Y-103584091D01*
X148578992Y-103590499D01*
X148578996Y-103590500D01*
X148578997Y-103590500D01*
X148781004Y-103590500D01*
X148781005Y-103590499D01*
X148979127Y-103551091D01*
X148980284Y-103550612D01*
X149022879Y-103532968D01*
X149059798Y-103517674D01*
X149129267Y-103510205D01*
X149174658Y-103529962D01*
X149174886Y-103529546D01*
X149179540Y-103532087D01*
X149181562Y-103532967D01*
X149182669Y-103533796D01*
X149182670Y-103533796D01*
X149182671Y-103533797D01*
X149317516Y-103584091D01*
X149343419Y-103586875D01*
X149377127Y-103590500D01*
X149436059Y-103590499D01*
X149503098Y-103610182D01*
X149523741Y-103626818D01*
X153484742Y-107587819D01*
X153518227Y-107649142D01*
X153513243Y-107718834D01*
X153471371Y-107774767D01*
X153405907Y-107799184D01*
X153397064Y-107799500D01*
X153360000Y-107799500D01*
X153359980Y-107799501D01*
X153257203Y-107810000D01*
X153257200Y-107810001D01*
X153090668Y-107865185D01*
X153090663Y-107865187D01*
X152941342Y-107957289D01*
X152817289Y-108081342D01*
X152725187Y-108230663D01*
X152725185Y-108230668D01*
X152705818Y-108289114D01*
X152670001Y-108397203D01*
X152670001Y-108397204D01*
X152670000Y-108397204D01*
X152659500Y-108499983D01*
X152659500Y-109358480D01*
X152639815Y-109425519D01*
X152623181Y-109446161D01*
X151606162Y-110463181D01*
X151544839Y-110496666D01*
X151518481Y-110499500D01*
X144433321Y-110499500D01*
X144366282Y-110479815D01*
X144320527Y-110427011D01*
X144310583Y-110357853D01*
X144339608Y-110294297D01*
X144377026Y-110265015D01*
X144481349Y-110211859D01*
X144525921Y-110179474D01*
X143846446Y-109500000D01*
X143852661Y-109500000D01*
X143954394Y-109472741D01*
X144045606Y-109420080D01*
X144120080Y-109345606D01*
X144172741Y-109254394D01*
X144200000Y-109152661D01*
X144200000Y-109146447D01*
X144879474Y-109825921D01*
X144911859Y-109781349D01*
X145004755Y-109599031D01*
X145067990Y-109404417D01*
X145100000Y-109202317D01*
X145100000Y-108997682D01*
X145067990Y-108795582D01*
X145004755Y-108600968D01*
X144911859Y-108418650D01*
X144879474Y-108374077D01*
X144879474Y-108374076D01*
X144200000Y-109053551D01*
X144200000Y-109047339D01*
X144172741Y-108945606D01*
X144120080Y-108854394D01*
X144045606Y-108779920D01*
X143954394Y-108727259D01*
X143852661Y-108700000D01*
X143846446Y-108700000D01*
X144525922Y-108020524D01*
X144525921Y-108020523D01*
X144481359Y-107988147D01*
X144481350Y-107988141D01*
X144299031Y-107895244D01*
X144104417Y-107832009D01*
X143902317Y-107800000D01*
X143697683Y-107800000D01*
X143495582Y-107832009D01*
X143300968Y-107895244D01*
X143118644Y-107988143D01*
X143074077Y-108020523D01*
X143074077Y-108020524D01*
X143753554Y-108700000D01*
X143747339Y-108700000D01*
X143645606Y-108727259D01*
X143554394Y-108779920D01*
X143479920Y-108854394D01*
X143427259Y-108945606D01*
X143400000Y-109047339D01*
X143400000Y-109053553D01*
X142716819Y-108370372D01*
X142683334Y-108309049D01*
X142680500Y-108282691D01*
X142680500Y-103703861D01*
X142700185Y-103636822D01*
X142740418Y-103599362D01*
X142740231Y-103599112D01*
X142742565Y-103597364D01*
X142745076Y-103595027D01*
X142747323Y-103593798D01*
X142747331Y-103593796D01*
X142862546Y-103507546D01*
X142948796Y-103392331D01*
X142999091Y-103257483D01*
X143005500Y-103197873D01*
X143005499Y-102400000D01*
X143005499Y-101602129D01*
X143005498Y-101602123D01*
X142999091Y-101542517D01*
X142991171Y-101521282D01*
X142989139Y-101515832D01*
X142984155Y-101446141D01*
X143017641Y-101384818D01*
X143078964Y-101351333D01*
X143105321Y-101348500D01*
X146457413Y-101348500D01*
X146524452Y-101368185D01*
G37*
%TD.AperFunction*%
%TA.AperFunction,Conductor*%
G36*
X175286178Y-107290126D02*
G01*
X175286178Y-107290125D01*
X175311597Y-107255141D01*
X175401734Y-107078236D01*
X175449708Y-107027439D01*
X175517529Y-107010644D01*
X175583664Y-107033181D01*
X175622704Y-107078235D01*
X175623615Y-107080024D01*
X175623616Y-107080025D01*
X175712976Y-107255405D01*
X175828672Y-107414646D01*
X175967854Y-107553828D01*
X176030888Y-107599624D01*
X176034226Y-107603954D01*
X176039203Y-107606227D01*
X176055331Y-107631323D01*
X176073551Y-107654951D01*
X176074804Y-107661624D01*
X176076977Y-107665005D01*
X176082000Y-107699940D01*
X176082000Y-107839516D01*
X176062315Y-107906555D01*
X176009511Y-107952310D01*
X175940353Y-107962254D01*
X175919682Y-107957447D01*
X175805328Y-107920291D01*
X175610922Y-107889500D01*
X175610917Y-107889500D01*
X175414083Y-107889500D01*
X175414077Y-107889500D01*
X175337130Y-107901687D01*
X175267837Y-107892732D01*
X175230052Y-107866895D01*
X174808046Y-107444888D01*
X174808043Y-107444885D01*
X174693317Y-107368228D01*
X174693312Y-107368226D01*
X174693311Y-107368225D01*
X174674031Y-107360239D01*
X174654402Y-107352108D01*
X174614175Y-107325228D01*
X174268947Y-106980000D01*
X174292528Y-106980000D01*
X174389175Y-106954104D01*
X174475825Y-106904076D01*
X174546576Y-106833325D01*
X174596604Y-106746675D01*
X174622500Y-106650028D01*
X174622500Y-106626447D01*
X175286178Y-107290126D01*
G37*
%TD.AperFunction*%
%TA.AperFunction,Conductor*%
G36*
X128831870Y-92120185D02*
G01*
X128877625Y-92172989D01*
X128887569Y-92242147D01*
X128858544Y-92305703D01*
X128821126Y-92334985D01*
X128678386Y-92407715D01*
X128512786Y-92528028D01*
X128368028Y-92672786D01*
X128247715Y-92838386D01*
X128154781Y-93020776D01*
X128091522Y-93215465D01*
X128059500Y-93417648D01*
X128059500Y-93622351D01*
X128091522Y-93824534D01*
X128154781Y-94019223D01*
X128247715Y-94201613D01*
X128368028Y-94367213D01*
X128512784Y-94511969D01*
X128608385Y-94581426D01*
X128651051Y-94636755D01*
X128659500Y-94681744D01*
X128659500Y-94720364D01*
X128659500Y-94720366D01*
X128659499Y-94720366D01*
X128686418Y-94855692D01*
X128686421Y-94855702D01*
X128739222Y-94983177D01*
X128815887Y-95097915D01*
X128815888Y-95097916D01*
X133505792Y-99787819D01*
X133539277Y-99849142D01*
X133534293Y-99918834D01*
X133492421Y-99974767D01*
X133426957Y-99999184D01*
X133418111Y-99999500D01*
X132401518Y-99999500D01*
X132334479Y-99979815D01*
X132313837Y-99963181D01*
X126196805Y-93846148D01*
X126163320Y-93784825D01*
X126162013Y-93739068D01*
X126168047Y-93700974D01*
X126180500Y-93622352D01*
X126180500Y-93417648D01*
X126148477Y-93215466D01*
X126085220Y-93020781D01*
X126085218Y-93020778D01*
X126085218Y-93020776D01*
X126051503Y-92954607D01*
X125992287Y-92838390D01*
X125984556Y-92827749D01*
X125871971Y-92672786D01*
X125727213Y-92528028D01*
X125561613Y-92407715D01*
X125561612Y-92407714D01*
X125561610Y-92407713D01*
X125469983Y-92361026D01*
X125418874Y-92334985D01*
X125368078Y-92287010D01*
X125351283Y-92219189D01*
X125373821Y-92153054D01*
X125428536Y-92109603D01*
X125475169Y-92100500D01*
X128764831Y-92100500D01*
X128831870Y-92120185D01*
G37*
%TD.AperFunction*%
%TA.AperFunction,Conductor*%
G36*
X133270943Y-92102294D02*
G01*
X133277205Y-92101119D01*
X133304064Y-92112020D01*
X133331870Y-92120185D01*
X133336040Y-92124998D01*
X133341946Y-92127395D01*
X133358651Y-92151092D01*
X133377625Y-92172989D01*
X133378531Y-92179292D01*
X133382203Y-92184501D01*
X133383444Y-92213460D01*
X133387569Y-92242147D01*
X133384922Y-92247942D01*
X133385195Y-92254307D01*
X133370585Y-92279336D01*
X133358544Y-92305703D01*
X133352378Y-92310527D01*
X133349973Y-92314649D01*
X133321126Y-92334985D01*
X133178386Y-92407715D01*
X133012786Y-92528028D01*
X132868028Y-92672786D01*
X132747715Y-92838386D01*
X132654781Y-93020776D01*
X132591522Y-93215465D01*
X132559500Y-93417648D01*
X132559500Y-93622351D01*
X132591522Y-93824534D01*
X132654781Y-94019223D01*
X132747715Y-94201613D01*
X132868028Y-94367213D01*
X133012786Y-94511971D01*
X133108385Y-94581426D01*
X133178390Y-94632287D01*
X133275455Y-94681744D01*
X133360776Y-94725218D01*
X133360778Y-94725218D01*
X133360781Y-94725220D01*
X133465137Y-94759127D01*
X133555465Y-94788477D01*
X133656557Y-94804488D01*
X133757648Y-94820500D01*
X133757649Y-94820500D01*
X133962350Y-94820500D01*
X133962352Y-94820500D01*
X134079068Y-94802013D01*
X134148362Y-94810967D01*
X134186148Y-94836805D01*
X138437161Y-99087819D01*
X138470646Y-99149142D01*
X138465662Y-99218834D01*
X138423790Y-99274767D01*
X138358326Y-99299184D01*
X138349480Y-99299500D01*
X135050149Y-99299500D01*
X134983110Y-99279815D01*
X134962468Y-99263181D01*
X130296917Y-94597630D01*
X130263432Y-94536307D01*
X130268416Y-94466615D01*
X130296917Y-94422268D01*
X130351966Y-94367219D01*
X130351968Y-94367215D01*
X130351971Y-94367213D01*
X130415490Y-94279785D01*
X130472287Y-94201610D01*
X130565220Y-94019219D01*
X130628477Y-93824534D01*
X130660500Y-93622352D01*
X130660500Y-93417648D01*
X130628477Y-93215466D01*
X130565220Y-93020781D01*
X130565218Y-93020778D01*
X130565218Y-93020776D01*
X130531503Y-92954607D01*
X130472287Y-92838390D01*
X130464556Y-92827749D01*
X130351971Y-92672786D01*
X130207213Y-92528028D01*
X130041613Y-92407715D01*
X130041612Y-92407714D01*
X130041610Y-92407713D01*
X129949983Y-92361026D01*
X129898874Y-92334985D01*
X129848078Y-92287010D01*
X129831283Y-92219189D01*
X129853821Y-92153054D01*
X129908536Y-92109603D01*
X129955169Y-92100500D01*
X133264831Y-92100500D01*
X133270943Y-92102294D01*
G37*
%TD.AperFunction*%
%TD*%
M02*
