%TF.GenerationSoftware,KiCad,Pcbnew,9.0.2*%
%TF.CreationDate,2025-06-13T14:53:57+02:00*%
%TF.ProjectId,wli,776c692e-6b69-4636-9164-5f7063625858,rev?*%
%TF.SameCoordinates,Original*%
%TF.FileFunction,Legend,Top*%
%TF.FilePolarity,Positive*%
%FSLAX46Y46*%
G04 Gerber Fmt 4.6, Leading zero omitted, Abs format (unit mm)*
G04 Created by KiCad (PCBNEW 9.0.2) date 2025-06-13 14:53:57*
%MOMM*%
%LPD*%
G01*
G04 APERTURE LIST*
%ADD10C,0.150000*%
%ADD11C,0.120000*%
G04 APERTURE END LIST*
D10*
X189038095Y-99854819D02*
X189038095Y-98854819D01*
X189038095Y-99331009D02*
X189609523Y-99331009D01*
X189609523Y-99854819D02*
X189609523Y-98854819D01*
X190514285Y-99188152D02*
X190514285Y-99854819D01*
X190276190Y-98807200D02*
X190038095Y-99521485D01*
X190038095Y-99521485D02*
X190657142Y-99521485D01*
X188938095Y-121004819D02*
X188938095Y-120004819D01*
X188938095Y-120481009D02*
X189509523Y-120481009D01*
X189509523Y-121004819D02*
X189509523Y-120004819D01*
X189890476Y-120004819D02*
X190509523Y-120004819D01*
X190509523Y-120004819D02*
X190176190Y-120385771D01*
X190176190Y-120385771D02*
X190319047Y-120385771D01*
X190319047Y-120385771D02*
X190414285Y-120433390D01*
X190414285Y-120433390D02*
X190461904Y-120481009D01*
X190461904Y-120481009D02*
X190509523Y-120576247D01*
X190509523Y-120576247D02*
X190509523Y-120814342D01*
X190509523Y-120814342D02*
X190461904Y-120909580D01*
X190461904Y-120909580D02*
X190414285Y-120957200D01*
X190414285Y-120957200D02*
X190319047Y-121004819D01*
X190319047Y-121004819D02*
X190033333Y-121004819D01*
X190033333Y-121004819D02*
X189938095Y-120957200D01*
X189938095Y-120957200D02*
X189890476Y-120909580D01*
X115938095Y-121004819D02*
X115938095Y-120004819D01*
X115938095Y-120481009D02*
X116509523Y-120481009D01*
X116509523Y-121004819D02*
X116509523Y-120004819D01*
X116938095Y-120100057D02*
X116985714Y-120052438D01*
X116985714Y-120052438D02*
X117080952Y-120004819D01*
X117080952Y-120004819D02*
X117319047Y-120004819D01*
X117319047Y-120004819D02*
X117414285Y-120052438D01*
X117414285Y-120052438D02*
X117461904Y-120100057D01*
X117461904Y-120100057D02*
X117509523Y-120195295D01*
X117509523Y-120195295D02*
X117509523Y-120290533D01*
X117509523Y-120290533D02*
X117461904Y-120433390D01*
X117461904Y-120433390D02*
X116890476Y-121004819D01*
X116890476Y-121004819D02*
X117509523Y-121004819D01*
X115738095Y-99954819D02*
X115738095Y-98954819D01*
X115738095Y-99431009D02*
X116309523Y-99431009D01*
X116309523Y-99954819D02*
X116309523Y-98954819D01*
X117309523Y-99954819D02*
X116738095Y-99954819D01*
X117023809Y-99954819D02*
X117023809Y-98954819D01*
X117023809Y-98954819D02*
X116928571Y-99097676D01*
X116928571Y-99097676D02*
X116833333Y-99192914D01*
X116833333Y-99192914D02*
X116738095Y-99240533D01*
X153698095Y-111354819D02*
X153698095Y-110354819D01*
X154269523Y-111354819D02*
X153840952Y-110783390D01*
X154269523Y-110354819D02*
X153698095Y-110926247D01*
X148584761Y-106450057D02*
X148489523Y-106402438D01*
X148489523Y-106402438D02*
X148394285Y-106307200D01*
X148394285Y-106307200D02*
X148251428Y-106164342D01*
X148251428Y-106164342D02*
X148156190Y-106116723D01*
X148156190Y-106116723D02*
X148060952Y-106116723D01*
X148108571Y-106354819D02*
X148013333Y-106307200D01*
X148013333Y-106307200D02*
X147918095Y-106211961D01*
X147918095Y-106211961D02*
X147870476Y-106021485D01*
X147870476Y-106021485D02*
X147870476Y-105688152D01*
X147870476Y-105688152D02*
X147918095Y-105497676D01*
X147918095Y-105497676D02*
X148013333Y-105402438D01*
X148013333Y-105402438D02*
X148108571Y-105354819D01*
X148108571Y-105354819D02*
X148299047Y-105354819D01*
X148299047Y-105354819D02*
X148394285Y-105402438D01*
X148394285Y-105402438D02*
X148489523Y-105497676D01*
X148489523Y-105497676D02*
X148537142Y-105688152D01*
X148537142Y-105688152D02*
X148537142Y-106021485D01*
X148537142Y-106021485D02*
X148489523Y-106211961D01*
X148489523Y-106211961D02*
X148394285Y-106307200D01*
X148394285Y-106307200D02*
X148299047Y-106354819D01*
X148299047Y-106354819D02*
X148108571Y-106354819D01*
X148918095Y-105450057D02*
X148965714Y-105402438D01*
X148965714Y-105402438D02*
X149060952Y-105354819D01*
X149060952Y-105354819D02*
X149299047Y-105354819D01*
X149299047Y-105354819D02*
X149394285Y-105402438D01*
X149394285Y-105402438D02*
X149441904Y-105450057D01*
X149441904Y-105450057D02*
X149489523Y-105545295D01*
X149489523Y-105545295D02*
X149489523Y-105640533D01*
X149489523Y-105640533D02*
X149441904Y-105783390D01*
X149441904Y-105783390D02*
X148870476Y-106354819D01*
X148870476Y-106354819D02*
X149489523Y-106354819D01*
X136974819Y-96443094D02*
X135974819Y-96443094D01*
X135974819Y-96443094D02*
X135974819Y-96204999D01*
X135974819Y-96204999D02*
X136022438Y-96062142D01*
X136022438Y-96062142D02*
X136117676Y-95966904D01*
X136117676Y-95966904D02*
X136212914Y-95919285D01*
X136212914Y-95919285D02*
X136403390Y-95871666D01*
X136403390Y-95871666D02*
X136546247Y-95871666D01*
X136546247Y-95871666D02*
X136736723Y-95919285D01*
X136736723Y-95919285D02*
X136831961Y-95966904D01*
X136831961Y-95966904D02*
X136927200Y-96062142D01*
X136927200Y-96062142D02*
X136974819Y-96204999D01*
X136974819Y-96204999D02*
X136974819Y-96443094D01*
X136974819Y-94919285D02*
X136974819Y-95490713D01*
X136974819Y-95204999D02*
X135974819Y-95204999D01*
X135974819Y-95204999D02*
X136117676Y-95300237D01*
X136117676Y-95300237D02*
X136212914Y-95395475D01*
X136212914Y-95395475D02*
X136260533Y-95490713D01*
X152874819Y-96343094D02*
X151874819Y-96343094D01*
X151874819Y-96343094D02*
X151874819Y-96104999D01*
X151874819Y-96104999D02*
X151922438Y-95962142D01*
X151922438Y-95962142D02*
X152017676Y-95866904D01*
X152017676Y-95866904D02*
X152112914Y-95819285D01*
X152112914Y-95819285D02*
X152303390Y-95771666D01*
X152303390Y-95771666D02*
X152446247Y-95771666D01*
X152446247Y-95771666D02*
X152636723Y-95819285D01*
X152636723Y-95819285D02*
X152731961Y-95866904D01*
X152731961Y-95866904D02*
X152827200Y-95962142D01*
X152827200Y-95962142D02*
X152874819Y-96104999D01*
X152874819Y-96104999D02*
X152874819Y-96343094D01*
X151874819Y-95438332D02*
X151874819Y-94819285D01*
X151874819Y-94819285D02*
X152255771Y-95152618D01*
X152255771Y-95152618D02*
X152255771Y-95009761D01*
X152255771Y-95009761D02*
X152303390Y-94914523D01*
X152303390Y-94914523D02*
X152351009Y-94866904D01*
X152351009Y-94866904D02*
X152446247Y-94819285D01*
X152446247Y-94819285D02*
X152684342Y-94819285D01*
X152684342Y-94819285D02*
X152779580Y-94866904D01*
X152779580Y-94866904D02*
X152827200Y-94914523D01*
X152827200Y-94914523D02*
X152874819Y-95009761D01*
X152874819Y-95009761D02*
X152874819Y-95295475D01*
X152874819Y-95295475D02*
X152827200Y-95390713D01*
X152827200Y-95390713D02*
X152779580Y-95438332D01*
X140614761Y-106510057D02*
X140519523Y-106462438D01*
X140519523Y-106462438D02*
X140424285Y-106367200D01*
X140424285Y-106367200D02*
X140281428Y-106224342D01*
X140281428Y-106224342D02*
X140186190Y-106176723D01*
X140186190Y-106176723D02*
X140090952Y-106176723D01*
X140138571Y-106414819D02*
X140043333Y-106367200D01*
X140043333Y-106367200D02*
X139948095Y-106271961D01*
X139948095Y-106271961D02*
X139900476Y-106081485D01*
X139900476Y-106081485D02*
X139900476Y-105748152D01*
X139900476Y-105748152D02*
X139948095Y-105557676D01*
X139948095Y-105557676D02*
X140043333Y-105462438D01*
X140043333Y-105462438D02*
X140138571Y-105414819D01*
X140138571Y-105414819D02*
X140329047Y-105414819D01*
X140329047Y-105414819D02*
X140424285Y-105462438D01*
X140424285Y-105462438D02*
X140519523Y-105557676D01*
X140519523Y-105557676D02*
X140567142Y-105748152D01*
X140567142Y-105748152D02*
X140567142Y-106081485D01*
X140567142Y-106081485D02*
X140519523Y-106271961D01*
X140519523Y-106271961D02*
X140424285Y-106367200D01*
X140424285Y-106367200D02*
X140329047Y-106414819D01*
X140329047Y-106414819D02*
X140138571Y-106414819D01*
X141519523Y-106414819D02*
X140948095Y-106414819D01*
X141233809Y-106414819D02*
X141233809Y-105414819D01*
X141233809Y-105414819D02*
X141138571Y-105557676D01*
X141138571Y-105557676D02*
X141043333Y-105652914D01*
X141043333Y-105652914D02*
X140948095Y-105700533D01*
X141826666Y-124854819D02*
X141826666Y-125569104D01*
X141826666Y-125569104D02*
X141779047Y-125711961D01*
X141779047Y-125711961D02*
X141683809Y-125807200D01*
X141683809Y-125807200D02*
X141540952Y-125854819D01*
X141540952Y-125854819D02*
X141445714Y-125854819D01*
X142255238Y-124950057D02*
X142302857Y-124902438D01*
X142302857Y-124902438D02*
X142398095Y-124854819D01*
X142398095Y-124854819D02*
X142636190Y-124854819D01*
X142636190Y-124854819D02*
X142731428Y-124902438D01*
X142731428Y-124902438D02*
X142779047Y-124950057D01*
X142779047Y-124950057D02*
X142826666Y-125045295D01*
X142826666Y-125045295D02*
X142826666Y-125140533D01*
X142826666Y-125140533D02*
X142779047Y-125283390D01*
X142779047Y-125283390D02*
X142207619Y-125854819D01*
X142207619Y-125854819D02*
X142826666Y-125854819D01*
X177084166Y-111054819D02*
X177084166Y-111769104D01*
X177084166Y-111769104D02*
X177036547Y-111911961D01*
X177036547Y-111911961D02*
X176941309Y-112007200D01*
X176941309Y-112007200D02*
X176798452Y-112054819D01*
X176798452Y-112054819D02*
X176703214Y-112054819D01*
X177465119Y-111054819D02*
X178084166Y-111054819D01*
X178084166Y-111054819D02*
X177750833Y-111435771D01*
X177750833Y-111435771D02*
X177893690Y-111435771D01*
X177893690Y-111435771D02*
X177988928Y-111483390D01*
X177988928Y-111483390D02*
X178036547Y-111531009D01*
X178036547Y-111531009D02*
X178084166Y-111626247D01*
X178084166Y-111626247D02*
X178084166Y-111864342D01*
X178084166Y-111864342D02*
X178036547Y-111959580D01*
X178036547Y-111959580D02*
X177988928Y-112007200D01*
X177988928Y-112007200D02*
X177893690Y-112054819D01*
X177893690Y-112054819D02*
X177607976Y-112054819D01*
X177607976Y-112054819D02*
X177512738Y-112007200D01*
X177512738Y-112007200D02*
X177465119Y-111959580D01*
X166998095Y-111354819D02*
X166998095Y-110354819D01*
X167569523Y-111354819D02*
X167140952Y-110783390D01*
X167569523Y-110354819D02*
X166998095Y-110926247D01*
X164384761Y-106350057D02*
X164289523Y-106302438D01*
X164289523Y-106302438D02*
X164194285Y-106207200D01*
X164194285Y-106207200D02*
X164051428Y-106064342D01*
X164051428Y-106064342D02*
X163956190Y-106016723D01*
X163956190Y-106016723D02*
X163860952Y-106016723D01*
X163908571Y-106254819D02*
X163813333Y-106207200D01*
X163813333Y-106207200D02*
X163718095Y-106111961D01*
X163718095Y-106111961D02*
X163670476Y-105921485D01*
X163670476Y-105921485D02*
X163670476Y-105588152D01*
X163670476Y-105588152D02*
X163718095Y-105397676D01*
X163718095Y-105397676D02*
X163813333Y-105302438D01*
X163813333Y-105302438D02*
X163908571Y-105254819D01*
X163908571Y-105254819D02*
X164099047Y-105254819D01*
X164099047Y-105254819D02*
X164194285Y-105302438D01*
X164194285Y-105302438D02*
X164289523Y-105397676D01*
X164289523Y-105397676D02*
X164337142Y-105588152D01*
X164337142Y-105588152D02*
X164337142Y-105921485D01*
X164337142Y-105921485D02*
X164289523Y-106111961D01*
X164289523Y-106111961D02*
X164194285Y-106207200D01*
X164194285Y-106207200D02*
X164099047Y-106254819D01*
X164099047Y-106254819D02*
X163908571Y-106254819D01*
X165194285Y-105588152D02*
X165194285Y-106254819D01*
X164956190Y-105207200D02*
X164718095Y-105921485D01*
X164718095Y-105921485D02*
X165337142Y-105921485D01*
X128226666Y-125054819D02*
X128226666Y-125769104D01*
X128226666Y-125769104D02*
X128179047Y-125911961D01*
X128179047Y-125911961D02*
X128083809Y-126007200D01*
X128083809Y-126007200D02*
X127940952Y-126054819D01*
X127940952Y-126054819D02*
X127845714Y-126054819D01*
X129226666Y-126054819D02*
X128655238Y-126054819D01*
X128940952Y-126054819D02*
X128940952Y-125054819D01*
X128940952Y-125054819D02*
X128845714Y-125197676D01*
X128845714Y-125197676D02*
X128750476Y-125292914D01*
X128750476Y-125292914D02*
X128655238Y-125340533D01*
X166798095Y-115554819D02*
X166798095Y-114554819D01*
X167369523Y-115554819D02*
X166940952Y-114983390D01*
X167369523Y-114554819D02*
X166798095Y-115126247D01*
X160874819Y-96243094D02*
X159874819Y-96243094D01*
X159874819Y-96243094D02*
X159874819Y-96004999D01*
X159874819Y-96004999D02*
X159922438Y-95862142D01*
X159922438Y-95862142D02*
X160017676Y-95766904D01*
X160017676Y-95766904D02*
X160112914Y-95719285D01*
X160112914Y-95719285D02*
X160303390Y-95671666D01*
X160303390Y-95671666D02*
X160446247Y-95671666D01*
X160446247Y-95671666D02*
X160636723Y-95719285D01*
X160636723Y-95719285D02*
X160731961Y-95766904D01*
X160731961Y-95766904D02*
X160827200Y-95862142D01*
X160827200Y-95862142D02*
X160874819Y-96004999D01*
X160874819Y-96004999D02*
X160874819Y-96243094D01*
X160208152Y-94814523D02*
X160874819Y-94814523D01*
X159827200Y-95052618D02*
X160541485Y-95290713D01*
X160541485Y-95290713D02*
X160541485Y-94671666D01*
X153498095Y-115554819D02*
X153498095Y-114554819D01*
X154069523Y-115554819D02*
X153640952Y-114983390D01*
X154069523Y-114554819D02*
X153498095Y-115126247D01*
X156484761Y-106450057D02*
X156389523Y-106402438D01*
X156389523Y-106402438D02*
X156294285Y-106307200D01*
X156294285Y-106307200D02*
X156151428Y-106164342D01*
X156151428Y-106164342D02*
X156056190Y-106116723D01*
X156056190Y-106116723D02*
X155960952Y-106116723D01*
X156008571Y-106354819D02*
X155913333Y-106307200D01*
X155913333Y-106307200D02*
X155818095Y-106211961D01*
X155818095Y-106211961D02*
X155770476Y-106021485D01*
X155770476Y-106021485D02*
X155770476Y-105688152D01*
X155770476Y-105688152D02*
X155818095Y-105497676D01*
X155818095Y-105497676D02*
X155913333Y-105402438D01*
X155913333Y-105402438D02*
X156008571Y-105354819D01*
X156008571Y-105354819D02*
X156199047Y-105354819D01*
X156199047Y-105354819D02*
X156294285Y-105402438D01*
X156294285Y-105402438D02*
X156389523Y-105497676D01*
X156389523Y-105497676D02*
X156437142Y-105688152D01*
X156437142Y-105688152D02*
X156437142Y-106021485D01*
X156437142Y-106021485D02*
X156389523Y-106211961D01*
X156389523Y-106211961D02*
X156294285Y-106307200D01*
X156294285Y-106307200D02*
X156199047Y-106354819D01*
X156199047Y-106354819D02*
X156008571Y-106354819D01*
X156770476Y-105354819D02*
X157389523Y-105354819D01*
X157389523Y-105354819D02*
X157056190Y-105735771D01*
X157056190Y-105735771D02*
X157199047Y-105735771D01*
X157199047Y-105735771D02*
X157294285Y-105783390D01*
X157294285Y-105783390D02*
X157341904Y-105831009D01*
X157341904Y-105831009D02*
X157389523Y-105926247D01*
X157389523Y-105926247D02*
X157389523Y-106164342D01*
X157389523Y-106164342D02*
X157341904Y-106259580D01*
X157341904Y-106259580D02*
X157294285Y-106307200D01*
X157294285Y-106307200D02*
X157199047Y-106354819D01*
X157199047Y-106354819D02*
X156913333Y-106354819D01*
X156913333Y-106354819D02*
X156818095Y-106307200D01*
X156818095Y-106307200D02*
X156770476Y-106259580D01*
X144974819Y-96343094D02*
X143974819Y-96343094D01*
X143974819Y-96343094D02*
X143974819Y-96104999D01*
X143974819Y-96104999D02*
X144022438Y-95962142D01*
X144022438Y-95962142D02*
X144117676Y-95866904D01*
X144117676Y-95866904D02*
X144212914Y-95819285D01*
X144212914Y-95819285D02*
X144403390Y-95771666D01*
X144403390Y-95771666D02*
X144546247Y-95771666D01*
X144546247Y-95771666D02*
X144736723Y-95819285D01*
X144736723Y-95819285D02*
X144831961Y-95866904D01*
X144831961Y-95866904D02*
X144927200Y-95962142D01*
X144927200Y-95962142D02*
X144974819Y-96104999D01*
X144974819Y-96104999D02*
X144974819Y-96343094D01*
X144070057Y-95390713D02*
X144022438Y-95343094D01*
X144022438Y-95343094D02*
X143974819Y-95247856D01*
X143974819Y-95247856D02*
X143974819Y-95009761D01*
X143974819Y-95009761D02*
X144022438Y-94914523D01*
X144022438Y-94914523D02*
X144070057Y-94866904D01*
X144070057Y-94866904D02*
X144165295Y-94819285D01*
X144165295Y-94819285D02*
X144260533Y-94819285D01*
X144260533Y-94819285D02*
X144403390Y-94866904D01*
X144403390Y-94866904D02*
X144974819Y-95438332D01*
X144974819Y-95438332D02*
X144974819Y-94819285D01*
D11*
%TO.C,R12*%
X165080000Y-117160000D02*
X165080000Y-117930000D01*
X165080000Y-125240000D02*
X165080000Y-124470000D01*
X166450000Y-117930000D02*
X163710000Y-117930000D01*
X163710000Y-124470000D01*
X166450000Y-124470000D01*
X166450000Y-117930000D01*
%TO.C,D7*%
X144840000Y-109100000D02*
X146760000Y-109100000D01*
X150160000Y-110220000D02*
X150160000Y-107980000D01*
X150280000Y-110220000D02*
X150280000Y-107980000D01*
X150400000Y-110220000D02*
X150400000Y-107980000D01*
X152920000Y-109100000D02*
X151000000Y-109100000D01*
X151000000Y-110220000D02*
X146760000Y-110220000D01*
X146760000Y-107980000D01*
X151000000Y-107980000D01*
X151000000Y-110220000D01*
%TO.C,R10*%
X170340000Y-120100000D02*
X171110000Y-120100000D01*
X178420000Y-120100000D02*
X177650000Y-120100000D01*
X171110000Y-118730000D02*
X177650000Y-118730000D01*
X177650000Y-121470000D01*
X171110000Y-121470000D01*
X171110000Y-118730000D01*
%TO.C,R8*%
X129360000Y-94560000D02*
X129360000Y-95330000D01*
X129360000Y-102640000D02*
X129360000Y-101870000D01*
X127990000Y-101870000D02*
X130730000Y-101870000D01*
X130730000Y-95330000D01*
X127990000Y-95330000D01*
X127990000Y-101870000D01*
%TO.C,R9*%
X155380000Y-117160000D02*
X155380000Y-117930000D01*
X155380000Y-125240000D02*
X155380000Y-124470000D01*
X156750000Y-117930000D02*
X154010000Y-117930000D01*
X154010000Y-124470000D01*
X156750000Y-124470000D01*
X156750000Y-117930000D01*
%TO.C,Q2*%
X150480000Y-100490000D02*
X146880000Y-100490000D01*
X148680000Y-104940000D02*
G75*
G02*
X146841522Y-100501522I0J2600000D01*
G01*
X150518478Y-100501522D02*
G75*
G02*
X148680000Y-104940001I-1838478J-1838478D01*
G01*
%TO.C,D1*%
X138935000Y-98265000D02*
X142025000Y-98265000D01*
X138935170Y-98265000D02*
G75*
G02*
X140480000Y-92715000I1544830J2560000D01*
G01*
X140480000Y-92715000D02*
G75*
G02*
X142024830Y-98265000I0J-2990000D01*
G01*
X142980000Y-95705000D02*
G75*
G02*
X137980000Y-95705000I-2500000J0D01*
G01*
X137980000Y-95705000D02*
G75*
G02*
X142980000Y-95705000I2500000J0D01*
G01*
%TO.C,D3*%
X154835000Y-98165000D02*
X157925000Y-98165000D01*
X154835170Y-98165000D02*
G75*
G02*
X156380000Y-92615000I1544830J2560000D01*
G01*
X156380000Y-92615000D02*
G75*
G02*
X157924830Y-98165000I0J-2990000D01*
G01*
X158880000Y-95605000D02*
G75*
G02*
X153880000Y-95605000I-2500000J0D01*
G01*
X153880000Y-95605000D02*
G75*
G02*
X158880000Y-95605000I2500000J0D01*
G01*
%TO.C,Q1*%
X142510000Y-100550000D02*
X138910000Y-100550000D01*
X140710000Y-105000000D02*
G75*
G02*
X138871522Y-100561522I0J2600000D01*
G01*
X142548478Y-100561522D02*
G75*
G02*
X140710000Y-105000001I-1838478J-1838478D01*
G01*
%TO.C,R2*%
X150380000Y-117240000D02*
X150380000Y-118010000D01*
X150380000Y-125320000D02*
X150380000Y-124550000D01*
X151750000Y-118010000D02*
X149010000Y-118010000D01*
X149010000Y-124550000D01*
X151750000Y-124550000D01*
X151750000Y-118010000D01*
%TO.C,R6*%
X160280000Y-117160000D02*
X160280000Y-117930000D01*
X160280000Y-125240000D02*
X160280000Y-124470000D01*
X161650000Y-117930000D02*
X158910000Y-117930000D01*
X158910000Y-124470000D01*
X161650000Y-124470000D01*
X161650000Y-117930000D01*
%TO.C,R7*%
X170340000Y-124600000D02*
X171110000Y-124600000D01*
X178420000Y-124600000D02*
X177650000Y-124600000D01*
X171110000Y-123230000D02*
X177650000Y-123230000D01*
X177650000Y-125970000D01*
X171110000Y-125970000D01*
X171110000Y-123230000D01*
%TO.C,R11*%
X133860000Y-94560000D02*
X133860000Y-95330000D01*
X133860000Y-102640000D02*
X133860000Y-101870000D01*
X132490000Y-101870000D02*
X135230000Y-101870000D01*
X135230000Y-95330000D01*
X132490000Y-95330000D01*
X132490000Y-101870000D01*
%TO.C,J2*%
X136965000Y-127047500D02*
X136965000Y-117007500D01*
X144405000Y-117007500D02*
X136965000Y-117007500D01*
X147365000Y-117007500D02*
X145005000Y-117007500D01*
X147365000Y-117627500D02*
X136965000Y-117627500D01*
X147365000Y-119127500D02*
X136965000Y-119127500D01*
X147365000Y-124027500D02*
X136965000Y-124027500D01*
X147365000Y-127047500D02*
X136965000Y-127047500D01*
X147365000Y-127047500D02*
X147365000Y-117007500D01*
X144705000Y-117007500D02*
X144265000Y-116397500D01*
X145145000Y-116397500D01*
X144705000Y-117007500D01*
G36*
X144705000Y-117007500D02*
G01*
X144265000Y-116397500D01*
X145145000Y-116397500D01*
X144705000Y-117007500D01*
G37*
%TO.C,J3*%
X169657500Y-110480000D02*
X169657500Y-92520000D01*
X169657500Y-110480000D02*
X185177500Y-110480000D01*
X185177500Y-92520000D02*
X169657500Y-92520000D01*
X185177500Y-110480000D02*
X185177500Y-92520000D01*
X185362500Y-106600000D02*
X185862500Y-107100000D01*
X185862500Y-106100000D02*
X185362500Y-106600000D01*
X185862500Y-107100000D02*
X185862500Y-106100000D01*
%TO.C,R1*%
X182880000Y-115960000D02*
X182880000Y-116730000D01*
X182880000Y-124040000D02*
X182880000Y-123270000D01*
X181510000Y-123270000D02*
X184250000Y-123270000D01*
X184250000Y-116730000D01*
X181510000Y-116730000D01*
X181510000Y-123270000D01*
%TO.C,D9*%
X158140000Y-109100000D02*
X160060000Y-109100000D01*
X163460000Y-110220000D02*
X163460000Y-107980000D01*
X163580000Y-110220000D02*
X163580000Y-107980000D01*
X163700000Y-110220000D02*
X163700000Y-107980000D01*
X166220000Y-109100000D02*
X164300000Y-109100000D01*
X164300000Y-110220000D02*
X160060000Y-110220000D01*
X160060000Y-107980000D01*
X164300000Y-107980000D01*
X164300000Y-110220000D01*
%TO.C,Q4*%
X166280000Y-100390000D02*
X162680000Y-100390000D01*
X164480000Y-104840000D02*
G75*
G02*
X162641522Y-100401522I0J2600000D01*
G01*
X166318478Y-100401522D02*
G75*
G02*
X164480000Y-104840001I-1838478J-1838478D01*
G01*
%TO.C,J1*%
X120740000Y-127020000D02*
X120740000Y-116980000D01*
X133060000Y-116980000D02*
X120740000Y-116980000D01*
X135980000Y-116980000D02*
X133660000Y-116980000D01*
X135980000Y-117600000D02*
X120740000Y-117600000D01*
X135980000Y-119100000D02*
X120740000Y-119100000D01*
X135980000Y-124000000D02*
X120740000Y-124000000D01*
X135980000Y-127020000D02*
X120740000Y-127020000D01*
X135980000Y-127020000D02*
X135980000Y-116980000D01*
X133360000Y-116980000D02*
X132920000Y-116370000D01*
X133800000Y-116370000D01*
X133360000Y-116980000D01*
G36*
X133360000Y-116980000D02*
G01*
X132920000Y-116370000D01*
X133800000Y-116370000D01*
X133360000Y-116980000D01*
G37*
%TO.C,D10*%
X157940000Y-113300000D02*
X159860000Y-113300000D01*
X163260000Y-114420000D02*
X163260000Y-112180000D01*
X163380000Y-114420000D02*
X163380000Y-112180000D01*
X163500000Y-114420000D02*
X163500000Y-112180000D01*
X166020000Y-113300000D02*
X164100000Y-113300000D01*
X164100000Y-114420000D02*
X159860000Y-114420000D01*
X159860000Y-112180000D01*
X164100000Y-112180000D01*
X164100000Y-114420000D01*
%TO.C,R5*%
X124880000Y-94560000D02*
X124880000Y-95330000D01*
X124880000Y-102640000D02*
X124880000Y-101870000D01*
X123510000Y-101870000D02*
X126250000Y-101870000D01*
X126250000Y-95330000D01*
X123510000Y-95330000D01*
X123510000Y-101870000D01*
%TO.C,D4*%
X162835000Y-98065000D02*
X165925000Y-98065000D01*
X162835170Y-98065000D02*
G75*
G02*
X164380000Y-92515000I1544830J2560000D01*
G01*
X164380000Y-92515000D02*
G75*
G02*
X165924830Y-98065000I0J-2990000D01*
G01*
X166880000Y-95505000D02*
G75*
G02*
X161880000Y-95505000I-2500000J0D01*
G01*
X161880000Y-95505000D02*
G75*
G02*
X166880000Y-95505000I2500000J0D01*
G01*
%TO.C,D8*%
X144640000Y-113300000D02*
X146560000Y-113300000D01*
X149960000Y-114420000D02*
X149960000Y-112180000D01*
X150080000Y-114420000D02*
X150080000Y-112180000D01*
X150200000Y-114420000D02*
X150200000Y-112180000D01*
X152720000Y-113300000D02*
X150800000Y-113300000D01*
X150800000Y-114420000D02*
X146560000Y-114420000D01*
X146560000Y-112180000D01*
X150800000Y-112180000D01*
X150800000Y-114420000D01*
%TO.C,R4*%
X125840000Y-113100000D02*
X126610000Y-113100000D01*
X133920000Y-113100000D02*
X133150000Y-113100000D01*
X126610000Y-111730000D02*
X133150000Y-111730000D01*
X133150000Y-114470000D01*
X126610000Y-114470000D01*
X126610000Y-111730000D01*
%TO.C,R13*%
X170340000Y-115400000D02*
X171110000Y-115400000D01*
X178420000Y-115400000D02*
X177650000Y-115400000D01*
X171110000Y-114030000D02*
X177650000Y-114030000D01*
X177650000Y-116770000D01*
X171110000Y-116770000D01*
X171110000Y-114030000D01*
%TO.C,Q3*%
X158380000Y-100490000D02*
X154780000Y-100490000D01*
X156580000Y-104940000D02*
G75*
G02*
X154741522Y-100501522I0J2600000D01*
G01*
X158418478Y-100501522D02*
G75*
G02*
X156580000Y-104940001I-1838478J-1838478D01*
G01*
%TO.C,R3*%
X125740000Y-108300000D02*
X126510000Y-108300000D01*
X133820000Y-108300000D02*
X133050000Y-108300000D01*
X126510000Y-106930000D02*
X133050000Y-106930000D01*
X133050000Y-109670000D01*
X126510000Y-109670000D01*
X126510000Y-106930000D01*
%TO.C,D2*%
X146935000Y-98165000D02*
X150025000Y-98165000D01*
X146935170Y-98165000D02*
G75*
G02*
X148480000Y-92615000I1544830J2560000D01*
G01*
X148480000Y-92615000D02*
G75*
G02*
X150024830Y-98165000I0J-2990000D01*
G01*
X150980000Y-95605000D02*
G75*
G02*
X145980000Y-95605000I-2500000J0D01*
G01*
X145980000Y-95605000D02*
G75*
G02*
X150980000Y-95605000I2500000J0D01*
G01*
%TD*%
M02*
