%TF.GenerationSoftware,KiCad,Pcbnew,9.0.2*%
%TF.CreationDate,2025-06-13T14:53:56+02:00*%
%TF.ProjectId,wli,776c692e-6b69-4636-9164-5f7063625858,rev?*%
%TF.SameCoordinates,Original*%
%TF.FileFunction,Copper,L1,Top*%
%TF.FilePolarity,Positive*%
%FSLAX46Y46*%
G04 Gerber Fmt 4.6, Leading zero omitted, Abs format (unit mm)*
G04 Created by KiCad (PCBNEW 9.0.2) date 2025-06-13 14:53:56*
%MOMM*%
%LPD*%
G01*
G04 APERTURE LIST*
G04 Aperture macros list*
%AMRoundRect*
0 Rectangle with rounded corners*
0 $1 Rounding radius*
0 $2 $3 $4 $5 $6 $7 $8 $9 X,Y pos of 4 corners*
0 Add a 4 corners polygon primitive as box body*
4,1,4,$2,$3,$4,$5,$6,$7,$8,$9,$2,$3,0*
0 Add four circle primitives for the rounded corners*
1,1,$1+$1,$2,$3*
1,1,$1+$1,$4,$5*
1,1,$1+$1,$6,$7*
1,1,$1+$1,$8,$9*
0 Add four rect primitives between the rounded corners*
20,1,$1+$1,$2,$3,$4,$5,0*
20,1,$1+$1,$4,$5,$6,$7,0*
20,1,$1+$1,$6,$7,$8,$9,0*
20,1,$1+$1,$8,$9,$2,$3,0*%
G04 Aperture macros list end*
%TA.AperFunction,ComponentPad*%
%ADD10C,1.600000*%
%TD*%
%TA.AperFunction,ComponentPad*%
%ADD11RoundRect,0.250000X0.550000X0.550000X-0.550000X0.550000X-0.550000X-0.550000X0.550000X-0.550000X0*%
%TD*%
%TA.AperFunction,ComponentPad*%
%ADD12R,1.050000X1.500000*%
%TD*%
%TA.AperFunction,ComponentPad*%
%ADD13O,1.050000X1.500000*%
%TD*%
%TA.AperFunction,ComponentPad*%
%ADD14R,1.800000X1.800000*%
%TD*%
%TA.AperFunction,ComponentPad*%
%ADD15C,1.800000*%
%TD*%
%TA.AperFunction,ComponentPad*%
%ADD16RoundRect,0.250000X1.050000X1.050000X-1.050000X1.050000X-1.050000X-1.050000X1.050000X-1.050000X0*%
%TD*%
%TA.AperFunction,ComponentPad*%
%ADD17C,2.600000*%
%TD*%
%TA.AperFunction,ComponentPad*%
%ADD18R,1.500000X1.500000*%
%TD*%
%TA.AperFunction,ComponentPad*%
%ADD19C,1.500000*%
%TD*%
%TA.AperFunction,Conductor*%
%ADD20C,0.400000*%
%TD*%
G04 APERTURE END LIST*
D10*
%TO.P,R12,1*%
%TO.N,+5V*%
X165080000Y-116120000D03*
%TO.P,R12,2*%
%TO.N,Net-(D4-A)*%
X165080000Y-126280000D03*
%TD*%
D11*
%TO.P,D7,1,K*%
%TO.N,Net-(D1-K)*%
X153960000Y-109100000D03*
D10*
%TO.P,D7,2,A*%
%TO.N,GNDREF*%
X143800000Y-109100000D03*
%TD*%
%TO.P,R10,1*%
%TO.N,Net-(D3-A)*%
X169300000Y-120100000D03*
%TO.P,R10,2*%
%TO.N,Net-(D3-K)*%
X179460000Y-120100000D03*
%TD*%
%TO.P,R8,1*%
%TO.N,Net-(J2-Pin_2)*%
X129360000Y-103680000D03*
%TO.P,R8,2*%
%TO.N,Net-(Q3-B)*%
X129360000Y-93520000D03*
%TD*%
%TO.P,R9,1*%
%TO.N,+5V*%
X155380000Y-116120000D03*
%TO.P,R9,2*%
%TO.N,Net-(D3-A)*%
X155380000Y-126280000D03*
%TD*%
D12*
%TO.P,Q2,1,C*%
%TO.N,Net-(D2-K)*%
X149950000Y-102340000D03*
D13*
%TO.P,Q2,2,B*%
%TO.N,Net-(Q2-B)*%
X148680000Y-102340000D03*
%TO.P,Q2,3,E*%
%TO.N,GNDREF*%
X147410000Y-102340000D03*
%TD*%
D14*
%TO.P,D1,1,K*%
%TO.N,Net-(D1-K)*%
X140480000Y-96975000D03*
D15*
%TO.P,D1,2,A*%
%TO.N,Net-(D1-A)*%
X140480000Y-94435000D03*
%TD*%
D14*
%TO.P,D3,1,K*%
%TO.N,Net-(D3-K)*%
X156380000Y-96875000D03*
D15*
%TO.P,D3,2,A*%
%TO.N,Net-(D3-A)*%
X156380000Y-94335000D03*
%TD*%
D12*
%TO.P,Q1,1,C*%
%TO.N,Net-(D1-K)*%
X141980000Y-102400000D03*
D13*
%TO.P,Q1,2,B*%
%TO.N,Net-(Q1-B)*%
X140710000Y-102400000D03*
%TO.P,Q1,3,E*%
%TO.N,GNDREF*%
X139440000Y-102400000D03*
%TD*%
D10*
%TO.P,R2,1*%
%TO.N,+5V*%
X150380000Y-116200000D03*
%TO.P,R2,2*%
%TO.N,Net-(D1-A)*%
X150380000Y-126360000D03*
%TD*%
%TO.P,R6,1*%
%TO.N,+5V*%
X160280000Y-116120000D03*
%TO.P,R6,2*%
%TO.N,Net-(D2-A)*%
X160280000Y-126280000D03*
%TD*%
%TO.P,R7,1*%
%TO.N,Net-(D2-A)*%
X169300000Y-124600000D03*
%TO.P,R7,2*%
%TO.N,Net-(D2-K)*%
X179460000Y-124600000D03*
%TD*%
%TO.P,R11,1*%
%TO.N,Net-(J2-Pin_1)*%
X133860000Y-103680000D03*
%TO.P,R11,2*%
%TO.N,Net-(Q4-B)*%
X133860000Y-93520000D03*
%TD*%
D16*
%TO.P,J2,1,Pin_1*%
%TO.N,Net-(J2-Pin_1)*%
X144705000Y-121727500D03*
D17*
%TO.P,J2,2,Pin_2*%
%TO.N,Net-(J2-Pin_2)*%
X139625000Y-121727500D03*
%TD*%
D18*
%TO.P,J3,1*%
%TO.N,GNDREF*%
X181862500Y-106600000D03*
D19*
%TO.P,J3,2*%
X180592500Y-109140000D03*
%TO.P,J3,3*%
%TO.N,Net-(D1-K)*%
X179322500Y-106600000D03*
%TO.P,J3,4*%
%TO.N,Net-(D2-K)*%
X178052500Y-109140000D03*
%TO.P,J3,5*%
%TO.N,Net-(D3-K)*%
X176782500Y-106600000D03*
%TO.P,J3,6*%
%TO.N,Net-(D10-K)*%
X175512500Y-109140000D03*
%TO.P,J3,7*%
%TO.N,GNDREF*%
X174242500Y-106600000D03*
%TO.P,J3,8*%
%TO.N,+5V*%
X172972500Y-109140000D03*
%TD*%
D10*
%TO.P,R1,1*%
%TO.N,Net-(D1-A)*%
X182880000Y-125080000D03*
%TO.P,R1,2*%
%TO.N,Net-(D1-K)*%
X182880000Y-114920000D03*
%TD*%
D11*
%TO.P,D9,1,K*%
%TO.N,Net-(D3-K)*%
X167260000Y-109100000D03*
D10*
%TO.P,D9,2,A*%
%TO.N,GNDREF*%
X157100000Y-109100000D03*
%TD*%
D12*
%TO.P,Q4,1,C*%
%TO.N,Net-(D10-K)*%
X165750000Y-102240000D03*
D13*
%TO.P,Q4,2,B*%
%TO.N,Net-(Q4-B)*%
X164480000Y-102240000D03*
%TO.P,Q4,3,E*%
%TO.N,GNDREF*%
X163210000Y-102240000D03*
%TD*%
D16*
%TO.P,J1,1,Pin_1*%
%TO.N,Net-(J1-Pin_1)*%
X133360000Y-121700000D03*
D17*
%TO.P,J1,2,Pin_2*%
%TO.N,Net-(J1-Pin_2)*%
X128360000Y-121700000D03*
%TO.P,J1,3,Pin_3*%
%TO.N,Net-(J1-Pin_3)*%
X123360000Y-121700000D03*
%TD*%
D11*
%TO.P,D10,1,K*%
%TO.N,Net-(D10-K)*%
X167060000Y-113300000D03*
D10*
%TO.P,D10,2,A*%
%TO.N,GNDREF*%
X156900000Y-113300000D03*
%TD*%
%TO.P,R5,1*%
%TO.N,Net-(J1-Pin_1)*%
X124880000Y-103680000D03*
%TO.P,R5,2*%
%TO.N,Net-(Q2-B)*%
X124880000Y-93520000D03*
%TD*%
D14*
%TO.P,D4,1,K*%
%TO.N,Net-(D10-K)*%
X164380000Y-96775000D03*
D15*
%TO.P,D4,2,A*%
%TO.N,Net-(D4-A)*%
X164380000Y-94235000D03*
%TD*%
D11*
%TO.P,D8,1,K*%
%TO.N,Net-(D2-K)*%
X153760000Y-113300000D03*
D10*
%TO.P,D8,2,A*%
%TO.N,GNDREF*%
X143600000Y-113300000D03*
%TD*%
%TO.P,R4,1*%
%TO.N,Net-(J1-Pin_3)*%
X124800000Y-113100000D03*
%TO.P,R4,2*%
%TO.N,+5V*%
X134960000Y-113100000D03*
%TD*%
%TO.P,R13,1*%
%TO.N,Net-(D4-A)*%
X169300000Y-115400000D03*
%TO.P,R13,2*%
%TO.N,Net-(D10-K)*%
X179460000Y-115400000D03*
%TD*%
D12*
%TO.P,Q3,1,C*%
%TO.N,Net-(D3-K)*%
X157850000Y-102340000D03*
D13*
%TO.P,Q3,2,B*%
%TO.N,Net-(Q3-B)*%
X156580000Y-102340000D03*
%TO.P,Q3,3,E*%
%TO.N,GNDREF*%
X155310000Y-102340000D03*
%TD*%
D10*
%TO.P,R3,1*%
%TO.N,Net-(J1-Pin_2)*%
X124700000Y-108300000D03*
%TO.P,R3,2*%
%TO.N,Net-(Q1-B)*%
X134860000Y-108300000D03*
%TD*%
D14*
%TO.P,D2,1,K*%
%TO.N,Net-(D2-K)*%
X148480000Y-96875000D03*
D15*
%TO.P,D2,2,A*%
%TO.N,Net-(D2-A)*%
X148480000Y-94335000D03*
%TD*%
D20*
%TO.N,Net-(D1-K)*%
X163841108Y-92934000D02*
X163775108Y-93000000D01*
X182880000Y-114920000D02*
X183160000Y-114640000D01*
X152605000Y-109100000D02*
X153960000Y-109100000D01*
X140480000Y-96975000D02*
X152605000Y-109100000D01*
X183160000Y-114640000D02*
X183160000Y-105700000D01*
X164918892Y-92934000D02*
X163841108Y-92934000D01*
X164984892Y-93000000D02*
X164918892Y-92934000D01*
X163775108Y-93000000D02*
X144455000Y-93000000D01*
X144455000Y-93000000D02*
X140480000Y-96975000D01*
X170460000Y-93000000D02*
X164984892Y-93000000D01*
X183160000Y-105700000D02*
X170460000Y-93000000D01*
%TO.N,Net-(D2-A)*%
X154179000Y-126777471D02*
X154882529Y-127481000D01*
X153783000Y-106895420D02*
X155699000Y-108811420D01*
X155699000Y-113797471D02*
X156820529Y-114919000D01*
X159079000Y-127481000D02*
X160280000Y-126280000D01*
X148480000Y-94335000D02*
X153783000Y-99638000D01*
X154882529Y-125079000D02*
X154179000Y-125782529D01*
X157819471Y-125079000D02*
X154882529Y-125079000D01*
X166281000Y-116617471D02*
X157819471Y-125079000D01*
X153783000Y-99638000D02*
X153783000Y-106895420D01*
X165577471Y-114919000D02*
X166281000Y-115622529D01*
X156820529Y-114919000D02*
X165577471Y-114919000D01*
X154882529Y-127481000D02*
X159079000Y-127481000D01*
X154179000Y-125782529D02*
X154179000Y-126777471D01*
X155699000Y-108811420D02*
X155699000Y-113797471D01*
X166281000Y-115622529D02*
X166281000Y-116617471D01*
%TO.N,Net-(D2-K)*%
X149950000Y-98345000D02*
X149950000Y-102340000D01*
X148480000Y-96875000D02*
X149950000Y-98345000D01*
%TO.N,Net-(D3-K)*%
X157900000Y-102340000D02*
X164660000Y-109100000D01*
X157850000Y-98345000D02*
X157850000Y-102340000D01*
X157850000Y-102340000D02*
X157900000Y-102340000D01*
X156380000Y-96875000D02*
X157850000Y-98345000D01*
X164660000Y-109100000D02*
X167260000Y-109100000D01*
%TO.N,Net-(D3-A)*%
X168660000Y-113800000D02*
X167959000Y-114501000D01*
X167959000Y-114501000D02*
X167960000Y-114501000D01*
X155079000Y-95574000D02*
X155079000Y-95636000D01*
X156380000Y-94335000D02*
X155141000Y-95574000D01*
X154384000Y-102948562D02*
X163235438Y-111800000D01*
X155079000Y-95636000D02*
X154384000Y-96331000D01*
X158180000Y-126280000D02*
X155380000Y-126280000D01*
X167960000Y-116500000D02*
X158180000Y-126280000D01*
X155141000Y-95574000D02*
X155079000Y-95574000D01*
X168660000Y-112400000D02*
X168660000Y-113800000D01*
X168060000Y-111800000D02*
X168660000Y-112400000D01*
X167960000Y-114501000D02*
X167960000Y-116500000D01*
X163235438Y-111800000D02*
X168060000Y-111800000D01*
X154384000Y-96331000D02*
X154384000Y-102948562D01*
%TO.N,Net-(D4-A)*%
X164380000Y-94235000D02*
X169651500Y-99506500D01*
X170760000Y-102208052D02*
X170760000Y-113940000D01*
X165080000Y-122180000D02*
X165080000Y-126280000D01*
X169300000Y-115400000D02*
X169300000Y-117960000D01*
X169651500Y-99506500D02*
X169651500Y-101099552D01*
X169651500Y-101099552D02*
X170760000Y-102208052D01*
X169300000Y-117960000D02*
X165080000Y-122180000D01*
X170760000Y-113940000D02*
X169300000Y-115400000D01*
%TO.N,GNDREF*%
X157100000Y-109100000D02*
X157100000Y-113100000D01*
X157100000Y-113100000D02*
X156900000Y-113300000D01*
X143800000Y-109100000D02*
X143800000Y-113100000D01*
%TO.N,+5V*%
X160280000Y-116120000D02*
X165080000Y-116120000D01*
X150380000Y-116200000D02*
X155300000Y-116200000D01*
X134960000Y-113100000D02*
X138060000Y-116200000D01*
X155380000Y-116120000D02*
X160280000Y-116120000D01*
X155300000Y-116200000D02*
X155380000Y-116120000D01*
X138060000Y-116200000D02*
X150380000Y-116200000D01*
%TD*%
%TA.AperFunction,Conductor*%
%TO.N,GNDREF*%
G36*
X124351870Y-92120185D02*
G01*
X124397625Y-92172989D01*
X124407569Y-92242147D01*
X124378544Y-92305703D01*
X124341126Y-92334985D01*
X124198386Y-92407715D01*
X124032786Y-92528028D01*
X123888028Y-92672786D01*
X123767715Y-92838386D01*
X123674781Y-93020776D01*
X123611522Y-93215465D01*
X123579500Y-93417648D01*
X123579500Y-93622351D01*
X123611522Y-93824534D01*
X123674781Y-94019223D01*
X123767715Y-94201613D01*
X123888028Y-94367213D01*
X124032786Y-94511971D01*
X124152205Y-94598732D01*
X124198390Y-94632287D01*
X124294344Y-94681178D01*
X124380776Y-94725218D01*
X124380778Y-94725218D01*
X124380781Y-94725220D01*
X124485137Y-94759127D01*
X124575465Y-94788477D01*
X124676557Y-94804488D01*
X124777648Y-94820500D01*
X124777649Y-94820500D01*
X124982351Y-94820500D01*
X124982352Y-94820500D01*
X125184534Y-94788477D01*
X125379219Y-94725220D01*
X125561610Y-94632287D01*
X125681447Y-94545221D01*
X125727213Y-94511971D01*
X125727215Y-94511968D01*
X125727219Y-94511966D01*
X125871966Y-94367219D01*
X125871968Y-94367215D01*
X125871971Y-94367213D01*
X125935490Y-94279785D01*
X125992287Y-94201610D01*
X126085220Y-94019219D01*
X126148477Y-93824534D01*
X126180500Y-93622352D01*
X126180500Y-93417648D01*
X126148477Y-93215466D01*
X126085220Y-93020781D01*
X126085218Y-93020778D01*
X126085218Y-93020776D01*
X126051503Y-92954607D01*
X125992287Y-92838390D01*
X125984556Y-92827749D01*
X125871971Y-92672786D01*
X125727213Y-92528028D01*
X125561613Y-92407715D01*
X125561612Y-92407714D01*
X125561610Y-92407713D01*
X125469983Y-92361026D01*
X125418874Y-92334985D01*
X125368078Y-92287010D01*
X125351283Y-92219189D01*
X125373821Y-92153054D01*
X125428536Y-92109603D01*
X125475169Y-92100500D01*
X128764831Y-92100500D01*
X128831870Y-92120185D01*
X128877625Y-92172989D01*
X128887569Y-92242147D01*
X128858544Y-92305703D01*
X128821126Y-92334985D01*
X128678386Y-92407715D01*
X128512786Y-92528028D01*
X128368028Y-92672786D01*
X128247715Y-92838386D01*
X128154781Y-93020776D01*
X128091522Y-93215465D01*
X128059500Y-93417648D01*
X128059500Y-93622351D01*
X128091522Y-93824534D01*
X128154781Y-94019223D01*
X128247715Y-94201613D01*
X128368028Y-94367213D01*
X128512786Y-94511971D01*
X128632205Y-94598732D01*
X128678390Y-94632287D01*
X128774344Y-94681178D01*
X128860776Y-94725218D01*
X128860778Y-94725218D01*
X128860781Y-94725220D01*
X128965137Y-94759127D01*
X129055465Y-94788477D01*
X129156557Y-94804488D01*
X129257648Y-94820500D01*
X129257649Y-94820500D01*
X129462351Y-94820500D01*
X129462352Y-94820500D01*
X129664534Y-94788477D01*
X129859219Y-94725220D01*
X130041610Y-94632287D01*
X130161447Y-94545221D01*
X130207213Y-94511971D01*
X130207215Y-94511968D01*
X130207219Y-94511966D01*
X130351966Y-94367219D01*
X130351968Y-94367215D01*
X130351971Y-94367213D01*
X130415490Y-94279785D01*
X130472287Y-94201610D01*
X130565220Y-94019219D01*
X130628477Y-93824534D01*
X130660500Y-93622352D01*
X130660500Y-93417648D01*
X130628477Y-93215466D01*
X130565220Y-93020781D01*
X130565218Y-93020778D01*
X130565218Y-93020776D01*
X130531503Y-92954607D01*
X130472287Y-92838390D01*
X130464556Y-92827749D01*
X130351971Y-92672786D01*
X130207213Y-92528028D01*
X130041613Y-92407715D01*
X130041612Y-92407714D01*
X130041610Y-92407713D01*
X129949983Y-92361026D01*
X129898874Y-92334985D01*
X129848078Y-92287010D01*
X129831283Y-92219189D01*
X129853821Y-92153054D01*
X129908536Y-92109603D01*
X129955169Y-92100500D01*
X133264831Y-92100500D01*
X133331870Y-92120185D01*
X133377625Y-92172989D01*
X133387569Y-92242147D01*
X133358544Y-92305703D01*
X133321126Y-92334985D01*
X133178386Y-92407715D01*
X133012786Y-92528028D01*
X132868028Y-92672786D01*
X132747715Y-92838386D01*
X132654781Y-93020776D01*
X132591522Y-93215465D01*
X132559500Y-93417648D01*
X132559500Y-93622351D01*
X132591522Y-93824534D01*
X132654781Y-94019223D01*
X132747715Y-94201613D01*
X132868028Y-94367213D01*
X133012786Y-94511971D01*
X133132205Y-94598732D01*
X133178390Y-94632287D01*
X133274344Y-94681178D01*
X133360776Y-94725218D01*
X133360778Y-94725218D01*
X133360781Y-94725220D01*
X133465137Y-94759127D01*
X133555465Y-94788477D01*
X133656557Y-94804488D01*
X133757648Y-94820500D01*
X133757649Y-94820500D01*
X133962351Y-94820500D01*
X133962352Y-94820500D01*
X134164534Y-94788477D01*
X134359219Y-94725220D01*
X134541610Y-94632287D01*
X134661447Y-94545221D01*
X134707213Y-94511971D01*
X134707215Y-94511968D01*
X134707219Y-94511966D01*
X134851966Y-94367219D01*
X134851968Y-94367215D01*
X134851971Y-94367213D01*
X134915490Y-94279785D01*
X134972287Y-94201610D01*
X135065220Y-94019219D01*
X135128477Y-93824534D01*
X135160500Y-93622352D01*
X135160500Y-93417648D01*
X135128477Y-93215466D01*
X135065220Y-93020781D01*
X135065218Y-93020778D01*
X135065218Y-93020776D01*
X135031503Y-92954607D01*
X134972287Y-92838390D01*
X134964556Y-92827749D01*
X134851971Y-92672786D01*
X134707213Y-92528028D01*
X134541613Y-92407715D01*
X134541612Y-92407714D01*
X134541610Y-92407713D01*
X134449983Y-92361026D01*
X134398874Y-92334985D01*
X134348078Y-92287010D01*
X134331283Y-92219189D01*
X134353821Y-92153054D01*
X134408536Y-92109603D01*
X134455169Y-92100500D01*
X144172701Y-92100500D01*
X144239740Y-92120185D01*
X144285495Y-92172989D01*
X144295439Y-92242147D01*
X144266414Y-92305703D01*
X144220153Y-92339061D01*
X144123192Y-92379222D01*
X144008454Y-92455887D01*
X142088005Y-94376336D01*
X142026682Y-94409821D01*
X141956990Y-94404837D01*
X141901057Y-94362965D01*
X141877851Y-94308053D01*
X141873374Y-94279785D01*
X141846015Y-94107049D01*
X141781032Y-93907049D01*
X141777896Y-93897396D01*
X141777895Y-93897393D01*
X141724691Y-93792976D01*
X141677815Y-93700978D01*
X141620690Y-93622352D01*
X141548247Y-93522641D01*
X141548243Y-93522636D01*
X141392363Y-93366756D01*
X141392358Y-93366752D01*
X141214025Y-93237187D01*
X141214024Y-93237186D01*
X141214022Y-93237185D01*
X141151096Y-93205122D01*
X141017606Y-93137104D01*
X141017603Y-93137103D01*
X140807952Y-93068985D01*
X140699086Y-93051742D01*
X140590222Y-93034500D01*
X140369778Y-93034500D01*
X140297201Y-93045995D01*
X140152047Y-93068985D01*
X139942396Y-93137103D01*
X139942393Y-93137104D01*
X139745974Y-93237187D01*
X139567641Y-93366752D01*
X139567636Y-93366756D01*
X139411756Y-93522636D01*
X139411752Y-93522641D01*
X139282187Y-93700974D01*
X139182104Y-93897393D01*
X139182103Y-93897396D01*
X139113985Y-94107047D01*
X139079500Y-94324778D01*
X139079500Y-94545221D01*
X139113985Y-94762952D01*
X139182103Y-94972603D01*
X139182104Y-94972606D01*
X139282187Y-95169025D01*
X139411752Y-95347358D01*
X139411756Y-95347363D01*
X139461928Y-95397535D01*
X139495413Y-95458858D01*
X139490429Y-95528550D01*
X139448557Y-95584483D01*
X139417581Y-95601398D01*
X139337669Y-95631203D01*
X139337664Y-95631206D01*
X139222455Y-95717452D01*
X139222452Y-95717455D01*
X139136206Y-95832664D01*
X139136202Y-95832671D01*
X139085908Y-95967517D01*
X139079501Y-96027116D01*
X139079500Y-96027135D01*
X139079500Y-97922870D01*
X139079501Y-97922876D01*
X139085908Y-97982483D01*
X139136202Y-98117328D01*
X139136206Y-98117335D01*
X139222452Y-98232544D01*
X139222455Y-98232547D01*
X139337664Y-98318793D01*
X139337671Y-98318797D01*
X139472517Y-98369091D01*
X139472516Y-98369091D01*
X139479444Y-98369835D01*
X139532127Y-98375500D01*
X140838480Y-98375499D01*
X140905519Y-98395184D01*
X140926161Y-98411818D01*
X152060886Y-109546542D01*
X152113375Y-109599031D01*
X152158459Y-109644115D01*
X152273182Y-109720771D01*
X152273186Y-109720773D01*
X152273189Y-109720775D01*
X152347866Y-109751707D01*
X152400671Y-109773580D01*
X152427591Y-109778934D01*
X152524630Y-109798237D01*
X152536006Y-109800500D01*
X152536007Y-109800500D01*
X152579699Y-109800500D01*
X152646738Y-109820185D01*
X152692493Y-109872989D01*
X152697403Y-109885492D01*
X152725186Y-109969334D01*
X152817288Y-110118656D01*
X152941344Y-110242712D01*
X153090666Y-110334814D01*
X153257203Y-110389999D01*
X153359991Y-110400500D01*
X154560008Y-110400499D01*
X154662797Y-110389999D01*
X154829334Y-110334814D01*
X154829338Y-110334810D01*
X154835495Y-110332771D01*
X154905324Y-110330369D01*
X154965366Y-110366100D01*
X154996559Y-110428620D01*
X154998500Y-110450477D01*
X154998500Y-112077770D01*
X154978815Y-112144809D01*
X154926011Y-112190564D01*
X154856853Y-112200508D01*
X154793297Y-112171483D01*
X154786819Y-112165451D01*
X154778657Y-112157289D01*
X154778656Y-112157288D01*
X154649736Y-112077770D01*
X154629336Y-112065187D01*
X154629331Y-112065185D01*
X154568341Y-112044975D01*
X154462797Y-112010001D01*
X154462795Y-112010000D01*
X154360010Y-111999500D01*
X153159998Y-111999500D01*
X153159981Y-111999501D01*
X153057203Y-112010000D01*
X153057200Y-112010001D01*
X152890668Y-112065185D01*
X152890663Y-112065187D01*
X152741342Y-112157289D01*
X152617289Y-112281342D01*
X152525187Y-112430663D01*
X152525186Y-112430666D01*
X152470001Y-112597203D01*
X152470001Y-112597204D01*
X152470000Y-112597204D01*
X152459500Y-112699983D01*
X152459500Y-113900001D01*
X152459501Y-113900018D01*
X152470000Y-114002796D01*
X152470001Y-114002799D01*
X152525185Y-114169331D01*
X152525187Y-114169336D01*
X152540881Y-114194780D01*
X152617288Y-114318656D01*
X152741344Y-114442712D01*
X152890666Y-114534814D01*
X153057203Y-114589999D01*
X153159991Y-114600500D01*
X154360008Y-114600499D01*
X154462797Y-114589999D01*
X154629334Y-114534814D01*
X154778656Y-114442712D01*
X154902712Y-114318656D01*
X154946330Y-114247938D01*
X154998277Y-114201213D01*
X155067239Y-114189990D01*
X155131322Y-114217833D01*
X155150793Y-114239493D01*
X155151022Y-114239306D01*
X155154888Y-114244017D01*
X155518691Y-114607819D01*
X155552176Y-114669142D01*
X155547192Y-114738833D01*
X155505321Y-114794767D01*
X155439856Y-114819184D01*
X155431010Y-114819500D01*
X155277648Y-114819500D01*
X155253329Y-114823351D01*
X155075465Y-114851522D01*
X154880776Y-114914781D01*
X154698386Y-115007715D01*
X154532786Y-115128028D01*
X154388028Y-115272786D01*
X154267716Y-115438383D01*
X154266548Y-115440291D01*
X154265915Y-115440863D01*
X154264849Y-115442331D01*
X154264540Y-115442107D01*
X154214735Y-115487166D01*
X154160821Y-115499500D01*
X151541744Y-115499500D01*
X151474705Y-115479815D01*
X151441425Y-115448384D01*
X151437027Y-115442331D01*
X151420236Y-115419219D01*
X151371969Y-115352784D01*
X151227213Y-115208028D01*
X151061613Y-115087715D01*
X151061612Y-115087714D01*
X151061610Y-115087713D01*
X151004653Y-115058691D01*
X150879223Y-114994781D01*
X150684534Y-114931522D01*
X150509995Y-114903878D01*
X150482352Y-114899500D01*
X150277648Y-114899500D01*
X150253329Y-114903351D01*
X150075465Y-114931522D01*
X149880776Y-114994781D01*
X149698386Y-115087715D01*
X149532786Y-115208028D01*
X149388030Y-115352784D01*
X149339764Y-115419219D01*
X149322973Y-115442331D01*
X149318575Y-115448384D01*
X149263245Y-115491051D01*
X149218256Y-115499500D01*
X138401519Y-115499500D01*
X138334480Y-115479815D01*
X138313838Y-115463181D01*
X136276805Y-113426148D01*
X136274805Y-113422486D01*
X136271282Y-113420253D01*
X136258204Y-113392082D01*
X136243320Y-113364825D01*
X136243116Y-113359584D01*
X136241861Y-113356880D01*
X136241968Y-113330050D01*
X136241640Y-113321587D01*
X136241808Y-113320359D01*
X136260500Y-113202352D01*
X136260500Y-113197682D01*
X142300000Y-113197682D01*
X142300000Y-113402317D01*
X142332009Y-113604417D01*
X142395244Y-113799031D01*
X142488141Y-113981350D01*
X142488147Y-113981359D01*
X142520523Y-114025921D01*
X142520524Y-114025922D01*
X143200000Y-113346446D01*
X143200000Y-113352661D01*
X143227259Y-113454394D01*
X143279920Y-113545606D01*
X143354394Y-113620080D01*
X143445606Y-113672741D01*
X143547339Y-113700000D01*
X143553553Y-113700000D01*
X142874076Y-114379474D01*
X142918650Y-114411859D01*
X143100968Y-114504755D01*
X143295582Y-114567990D01*
X143497683Y-114600000D01*
X143702317Y-114600000D01*
X143904417Y-114567990D01*
X144099031Y-114504755D01*
X144281349Y-114411859D01*
X144325921Y-114379474D01*
X143646447Y-113700000D01*
X143652661Y-113700000D01*
X143754394Y-113672741D01*
X143845606Y-113620080D01*
X143920080Y-113545606D01*
X143972741Y-113454394D01*
X144000000Y-113352661D01*
X144000000Y-113346448D01*
X144679474Y-114025922D01*
X144679474Y-114025921D01*
X144711859Y-113981349D01*
X144804755Y-113799031D01*
X144867990Y-113604417D01*
X144900000Y-113402317D01*
X144900000Y-113197682D01*
X144867990Y-112995582D01*
X144804755Y-112800968D01*
X144711859Y-112618650D01*
X144679474Y-112574077D01*
X144679474Y-112574076D01*
X144000000Y-113253551D01*
X144000000Y-113247339D01*
X143972741Y-113145606D01*
X143920080Y-113054394D01*
X143845606Y-112979920D01*
X143754394Y-112927259D01*
X143652661Y-112900000D01*
X143646446Y-112900000D01*
X144325922Y-112220524D01*
X144325921Y-112220523D01*
X144281359Y-112188147D01*
X144281350Y-112188141D01*
X144099031Y-112095244D01*
X143904417Y-112032009D01*
X143702317Y-112000000D01*
X143497683Y-112000000D01*
X143295582Y-112032009D01*
X143100968Y-112095244D01*
X142918644Y-112188143D01*
X142874077Y-112220523D01*
X142874077Y-112220524D01*
X143553554Y-112900000D01*
X143547339Y-112900000D01*
X143445606Y-112927259D01*
X143354394Y-112979920D01*
X143279920Y-113054394D01*
X143227259Y-113145606D01*
X143200000Y-113247339D01*
X143200000Y-113253553D01*
X142520524Y-112574077D01*
X142520523Y-112574077D01*
X142488143Y-112618644D01*
X142395244Y-112800968D01*
X142332009Y-112995582D01*
X142300000Y-113197682D01*
X136260500Y-113197682D01*
X136260500Y-112997648D01*
X136245034Y-112900000D01*
X136228477Y-112795465D01*
X136197453Y-112699983D01*
X136165220Y-112600781D01*
X136165218Y-112600778D01*
X136165218Y-112600776D01*
X136100408Y-112473581D01*
X136072287Y-112418390D01*
X136066829Y-112410878D01*
X136015820Y-112340668D01*
X135951971Y-112252786D01*
X135807213Y-112108028D01*
X135641613Y-111987715D01*
X135641612Y-111987714D01*
X135641610Y-111987713D01*
X135560123Y-111946193D01*
X135459223Y-111894781D01*
X135264534Y-111831522D01*
X135089995Y-111803878D01*
X135062352Y-111799500D01*
X134857648Y-111799500D01*
X134833329Y-111803351D01*
X134655465Y-111831522D01*
X134460776Y-111894781D01*
X134278386Y-111987715D01*
X134112786Y-112108028D01*
X133968028Y-112252786D01*
X133847715Y-112418386D01*
X133754781Y-112600776D01*
X133691522Y-112795465D01*
X133659500Y-112997648D01*
X133659500Y-113202351D01*
X133691522Y-113404534D01*
X133754781Y-113599223D01*
X133847715Y-113781613D01*
X133968028Y-113947213D01*
X134112786Y-114091971D01*
X134254293Y-114194780D01*
X134278390Y-114212287D01*
X134394607Y-114271503D01*
X134460776Y-114305218D01*
X134460778Y-114305218D01*
X134460781Y-114305220D01*
X134565137Y-114339127D01*
X134655465Y-114368477D01*
X134756557Y-114384488D01*
X134857648Y-114400500D01*
X134857649Y-114400500D01*
X135062350Y-114400500D01*
X135062352Y-114400500D01*
X135179068Y-114382013D01*
X135248362Y-114390967D01*
X135286148Y-114416805D01*
X137613453Y-116744111D01*
X137613454Y-116744112D01*
X137728192Y-116820777D01*
X137850930Y-116871616D01*
X137855672Y-116873580D01*
X137855676Y-116873580D01*
X137855677Y-116873581D01*
X137991003Y-116900500D01*
X137991006Y-116900500D01*
X137991007Y-116900500D01*
X149218256Y-116900500D01*
X149285295Y-116920185D01*
X149318574Y-116951615D01*
X149329911Y-116967219D01*
X149388030Y-117047215D01*
X149532786Y-117191971D01*
X149676416Y-117296322D01*
X149698390Y-117312287D01*
X149800163Y-117364143D01*
X149880776Y-117405218D01*
X149880778Y-117405218D01*
X149880781Y-117405220D01*
X149957902Y-117430278D01*
X150075465Y-117468477D01*
X150176557Y-117484488D01*
X150277648Y-117500500D01*
X150277649Y-117500500D01*
X150482351Y-117500500D01*
X150482352Y-117500500D01*
X150684534Y-117468477D01*
X150879219Y-117405220D01*
X151061610Y-117312287D01*
X151154590Y-117244732D01*
X151227213Y-117191971D01*
X151227215Y-117191968D01*
X151227219Y-117191966D01*
X151371966Y-117047219D01*
X151441425Y-116951615D01*
X151496755Y-116908949D01*
X151541744Y-116900500D01*
X154276378Y-116900500D01*
X154343417Y-116920185D01*
X154376696Y-116951615D01*
X154388028Y-116967212D01*
X154388032Y-116967217D01*
X154532786Y-117111971D01*
X154642892Y-117191966D01*
X154698390Y-117232287D01*
X154814607Y-117291503D01*
X154880776Y-117325218D01*
X154880778Y-117325218D01*
X154880781Y-117325220D01*
X154985137Y-117359127D01*
X155075465Y-117388477D01*
X155176557Y-117404488D01*
X155277648Y-117420500D01*
X155277649Y-117420500D01*
X155482351Y-117420500D01*
X155482352Y-117420500D01*
X155684534Y-117388477D01*
X155879219Y-117325220D01*
X156061610Y-117232287D01*
X156174155Y-117150519D01*
X156227213Y-117111971D01*
X156227215Y-117111968D01*
X156227219Y-117111966D01*
X156371966Y-116967219D01*
X156441425Y-116871615D01*
X156496755Y-116828949D01*
X156541744Y-116820500D01*
X159118256Y-116820500D01*
X159185295Y-116840185D01*
X159218574Y-116871615D01*
X159231863Y-116889906D01*
X159288030Y-116967215D01*
X159432786Y-117111971D01*
X159542892Y-117191966D01*
X159598390Y-117232287D01*
X159714607Y-117291503D01*
X159780776Y-117325218D01*
X159780778Y-117325218D01*
X159780781Y-117325220D01*
X159885137Y-117359127D01*
X159975465Y-117388477D01*
X160076557Y-117404488D01*
X160177648Y-117420500D01*
X160177649Y-117420500D01*
X160382351Y-117420500D01*
X160382352Y-117420500D01*
X160584534Y-117388477D01*
X160779219Y-117325220D01*
X160961610Y-117232287D01*
X161074155Y-117150519D01*
X161127213Y-117111971D01*
X161127215Y-117111968D01*
X161127219Y-117111966D01*
X161271966Y-116967219D01*
X161341425Y-116871615D01*
X161396755Y-116828949D01*
X161441744Y-116820500D01*
X163918256Y-116820500D01*
X163985295Y-116840185D01*
X164018574Y-116871615D01*
X164031863Y-116889906D01*
X164088030Y-116967215D01*
X164232786Y-117111971D01*
X164398385Y-117232284D01*
X164398387Y-117232285D01*
X164398390Y-117232287D01*
X164429912Y-117248348D01*
X164480708Y-117296322D01*
X164497503Y-117364143D01*
X164474966Y-117430278D01*
X164461298Y-117446514D01*
X157565633Y-124342181D01*
X157504310Y-124375666D01*
X157477952Y-124378500D01*
X154813534Y-124378500D01*
X154746874Y-124391760D01*
X154713543Y-124398390D01*
X154678200Y-124405420D01*
X154678199Y-124405420D01*
X154550719Y-124458224D01*
X154435983Y-124534887D01*
X153634887Y-125335983D01*
X153558223Y-125450721D01*
X153505421Y-125578197D01*
X153505418Y-125578208D01*
X153502681Y-125591971D01*
X153490336Y-125654035D01*
X153478500Y-125713536D01*
X153478500Y-126708477D01*
X153478500Y-126846465D01*
X153478500Y-126846467D01*
X153478499Y-126846467D01*
X153505418Y-126981793D01*
X153505421Y-126981803D01*
X153558222Y-127109278D01*
X153634887Y-127224016D01*
X153634888Y-127224017D01*
X153898691Y-127487819D01*
X153932176Y-127549142D01*
X153927192Y-127618833D01*
X153885321Y-127674767D01*
X153819856Y-127699184D01*
X153811010Y-127699500D01*
X151130503Y-127699500D01*
X151063464Y-127679815D01*
X151017709Y-127627011D01*
X151007765Y-127557853D01*
X151036790Y-127494297D01*
X151058347Y-127476084D01*
X151057669Y-127475151D01*
X151227213Y-127351971D01*
X151227215Y-127351968D01*
X151227219Y-127351966D01*
X151371966Y-127207219D01*
X151371968Y-127207215D01*
X151371971Y-127207213D01*
X151443121Y-127109282D01*
X151492287Y-127041610D01*
X151585220Y-126859219D01*
X151648477Y-126664534D01*
X151680500Y-126462352D01*
X151680500Y-126257648D01*
X151667829Y-126177648D01*
X151648477Y-126055465D01*
X151598125Y-125900500D01*
X151585220Y-125860781D01*
X151585218Y-125860778D01*
X151585218Y-125860776D01*
X151534690Y-125761610D01*
X151492287Y-125678390D01*
X151474592Y-125654035D01*
X151371971Y-125512786D01*
X151227213Y-125368028D01*
X151061613Y-125247715D01*
X151061612Y-125247714D01*
X151061610Y-125247713D01*
X151004420Y-125218573D01*
X150879223Y-125154781D01*
X150684534Y-125091522D01*
X150509995Y-125063878D01*
X150482352Y-125059500D01*
X150277648Y-125059500D01*
X150263196Y-125061789D01*
X150075465Y-125091522D01*
X149880776Y-125154781D01*
X149698386Y-125247715D01*
X149532786Y-125368028D01*
X149388028Y-125512786D01*
X149267715Y-125678386D01*
X149174781Y-125860776D01*
X149111522Y-126055465D01*
X149079500Y-126257648D01*
X149079500Y-126462351D01*
X149111522Y-126664534D01*
X149174781Y-126859223D01*
X149267715Y-127041613D01*
X149388028Y-127207213D01*
X149532786Y-127351971D01*
X149702331Y-127475151D01*
X149700861Y-127477173D01*
X149740967Y-127521181D01*
X149752638Y-127590069D01*
X149725213Y-127654332D01*
X149667399Y-127693565D01*
X149629497Y-127699500D01*
X113824500Y-127699500D01*
X113757461Y-127679815D01*
X113711706Y-127627011D01*
X113700500Y-127575500D01*
X113700500Y-124578711D01*
X114849500Y-124578711D01*
X114849500Y-124821288D01*
X114880860Y-125059500D01*
X114881162Y-125061789D01*
X114896292Y-125118255D01*
X114943947Y-125296104D01*
X115007992Y-125450721D01*
X115036776Y-125520212D01*
X115158064Y-125730289D01*
X115158066Y-125730292D01*
X115158067Y-125730293D01*
X115305733Y-125922736D01*
X115305739Y-125922743D01*
X115477256Y-126094260D01*
X115477262Y-126094265D01*
X115669711Y-126241936D01*
X115879788Y-126363224D01*
X116103900Y-126456054D01*
X116338211Y-126518838D01*
X116518586Y-126542584D01*
X116578711Y-126550500D01*
X116578712Y-126550500D01*
X116821289Y-126550500D01*
X116869388Y-126544167D01*
X117061789Y-126518838D01*
X117296100Y-126456054D01*
X117520212Y-126363224D01*
X117730289Y-126241936D01*
X117922738Y-126094265D01*
X118094265Y-125922738D01*
X118241936Y-125730289D01*
X118363224Y-125520212D01*
X118456054Y-125296100D01*
X118518838Y-125061789D01*
X118550500Y-124821288D01*
X118550500Y-124578712D01*
X118518838Y-124338211D01*
X118456054Y-124103900D01*
X118363224Y-123879788D01*
X118241936Y-123669711D01*
X118112096Y-123500500D01*
X118094266Y-123477263D01*
X118094260Y-123477256D01*
X117922743Y-123305739D01*
X117922736Y-123305733D01*
X117730293Y-123158067D01*
X117730292Y-123158066D01*
X117730289Y-123158064D01*
X117520212Y-123036776D01*
X117520205Y-123036773D01*
X117296104Y-122943947D01*
X117061785Y-122881161D01*
X116821289Y-122849500D01*
X116821288Y-122849500D01*
X116578712Y-122849500D01*
X116578711Y-122849500D01*
X116338214Y-122881161D01*
X116103895Y-122943947D01*
X115879794Y-123036773D01*
X115879785Y-123036777D01*
X115669706Y-123158067D01*
X115477263Y-123305733D01*
X115477256Y-123305739D01*
X115305739Y-123477256D01*
X115305733Y-123477263D01*
X115158067Y-123669706D01*
X115036777Y-123879785D01*
X115036773Y-123879794D01*
X114943947Y-124103895D01*
X114881161Y-124338214D01*
X114849500Y-124578711D01*
X113700500Y-124578711D01*
X113700500Y-121581995D01*
X121559500Y-121581995D01*
X121559500Y-121818004D01*
X121559501Y-121818020D01*
X121590306Y-122052010D01*
X121651394Y-122279993D01*
X121741714Y-122498045D01*
X121741719Y-122498056D01*
X121812677Y-122620957D01*
X121859727Y-122702450D01*
X121859729Y-122702453D01*
X121859730Y-122702454D01*
X122003406Y-122889697D01*
X122003412Y-122889704D01*
X122170295Y-123056587D01*
X122170302Y-123056593D01*
X122222745Y-123096834D01*
X122357550Y-123200273D01*
X122488918Y-123276118D01*
X122561943Y-123318280D01*
X122561948Y-123318282D01*
X122561951Y-123318284D01*
X122780007Y-123408606D01*
X123007986Y-123469693D01*
X123241989Y-123500500D01*
X123241996Y-123500500D01*
X123478004Y-123500500D01*
X123478011Y-123500500D01*
X123712014Y-123469693D01*
X123939993Y-123408606D01*
X124158049Y-123318284D01*
X124362450Y-123200273D01*
X124549699Y-123056592D01*
X124716592Y-122889699D01*
X124860273Y-122702450D01*
X124978284Y-122498049D01*
X125068606Y-122279993D01*
X125129693Y-122052014D01*
X125160500Y-121818011D01*
X125160500Y-121581995D01*
X126559500Y-121581995D01*
X126559500Y-121818004D01*
X126559501Y-121818020D01*
X126590306Y-122052010D01*
X126651394Y-122279993D01*
X126741714Y-122498045D01*
X126741719Y-122498056D01*
X126812677Y-122620957D01*
X126859727Y-122702450D01*
X126859729Y-122702453D01*
X126859730Y-122702454D01*
X127003406Y-122889697D01*
X127003412Y-122889704D01*
X127170295Y-123056587D01*
X127170302Y-123056593D01*
X127222745Y-123096834D01*
X127357550Y-123200273D01*
X127488918Y-123276118D01*
X127561943Y-123318280D01*
X127561948Y-123318282D01*
X127561951Y-123318284D01*
X127780007Y-123408606D01*
X128007986Y-123469693D01*
X128241989Y-123500500D01*
X128241996Y-123500500D01*
X128478004Y-123500500D01*
X128478011Y-123500500D01*
X128712014Y-123469693D01*
X128939993Y-123408606D01*
X129158049Y-123318284D01*
X129362450Y-123200273D01*
X129549699Y-123056592D01*
X129716592Y-122889699D01*
X129860273Y-122702450D01*
X129978284Y-122498049D01*
X130068606Y-122279993D01*
X130129693Y-122052014D01*
X130160500Y-121818011D01*
X130160500Y-121581989D01*
X130129693Y-121347986D01*
X130068606Y-121120007D01*
X129978284Y-120901951D01*
X129978282Y-120901948D01*
X129978280Y-120901943D01*
X129876150Y-120725050D01*
X129860273Y-120697550D01*
X129785414Y-120599992D01*
X129785407Y-120599983D01*
X131559500Y-120599983D01*
X131559500Y-122800001D01*
X131559501Y-122800018D01*
X131570000Y-122902796D01*
X131570001Y-122902799D01*
X131625185Y-123069331D01*
X131625187Y-123069336D01*
X131634289Y-123084092D01*
X131717288Y-123218656D01*
X131841344Y-123342712D01*
X131990666Y-123434814D01*
X132157203Y-123489999D01*
X132259991Y-123500500D01*
X134460008Y-123500499D01*
X134562797Y-123489999D01*
X134729334Y-123434814D01*
X134878656Y-123342712D01*
X135002712Y-123218656D01*
X135094814Y-123069334D01*
X135149999Y-122902797D01*
X135160500Y-122800009D01*
X135160499Y-121609495D01*
X137824500Y-121609495D01*
X137824500Y-121845504D01*
X137824501Y-121845520D01*
X137855306Y-122079510D01*
X137916394Y-122307493D01*
X138006714Y-122525545D01*
X138006719Y-122525556D01*
X138077677Y-122648457D01*
X138124727Y-122729950D01*
X138124729Y-122729953D01*
X138124730Y-122729954D01*
X138268406Y-122917197D01*
X138268412Y-122917204D01*
X138435295Y-123084087D01*
X138435302Y-123084093D01*
X138451909Y-123096836D01*
X138622550Y-123227773D01*
X138746785Y-123299500D01*
X138826943Y-123345780D01*
X138826948Y-123345782D01*
X138826951Y-123345784D01*
X139045007Y-123436106D01*
X139272986Y-123497193D01*
X139506989Y-123528000D01*
X139506996Y-123528000D01*
X139743004Y-123528000D01*
X139743011Y-123528000D01*
X139977014Y-123497193D01*
X140204993Y-123436106D01*
X140423049Y-123345784D01*
X140627450Y-123227773D01*
X140814699Y-123084092D01*
X140981592Y-122917199D01*
X141125273Y-122729950D01*
X141243284Y-122525549D01*
X141333606Y-122307493D01*
X141394693Y-122079514D01*
X141425500Y-121845511D01*
X141425500Y-121609489D01*
X141394693Y-121375486D01*
X141333606Y-121147507D01*
X141243284Y-120929451D01*
X141243282Y-120929448D01*
X141243280Y-120929443D01*
X141187510Y-120832848D01*
X141125273Y-120725050D01*
X141104172Y-120697550D01*
X141050408Y-120627483D01*
X142904500Y-120627483D01*
X142904500Y-122827501D01*
X142904501Y-122827518D01*
X142915000Y-122930296D01*
X142915001Y-122930299D01*
X142950285Y-123036777D01*
X142970186Y-123096834D01*
X143062288Y-123246156D01*
X143186344Y-123370212D01*
X143335666Y-123462314D01*
X143502203Y-123517499D01*
X143604991Y-123528000D01*
X145805008Y-123527999D01*
X145907797Y-123517499D01*
X146074334Y-123462314D01*
X146223656Y-123370212D01*
X146347712Y-123246156D01*
X146439814Y-123096834D01*
X146494999Y-122930297D01*
X146505500Y-122827509D01*
X146505499Y-120627492D01*
X146502690Y-120599998D01*
X146494999Y-120524703D01*
X146494998Y-120524700D01*
X146456222Y-120407683D01*
X146439814Y-120358166D01*
X146347712Y-120208844D01*
X146223656Y-120084788D01*
X146074334Y-119992686D01*
X145907797Y-119937501D01*
X145907795Y-119937500D01*
X145805010Y-119927000D01*
X143604998Y-119927000D01*
X143604981Y-119927001D01*
X143502203Y-119937500D01*
X143502200Y-119937501D01*
X143335668Y-119992685D01*
X143335663Y-119992687D01*
X143186342Y-120084789D01*
X143062289Y-120208842D01*
X142970187Y-120358163D01*
X142970185Y-120358168D01*
X142963222Y-120379182D01*
X142915001Y-120524703D01*
X142915001Y-120524704D01*
X142915000Y-120524704D01*
X142904500Y-120627483D01*
X141050408Y-120627483D01*
X140981593Y-120537802D01*
X140981587Y-120537795D01*
X140814704Y-120370912D01*
X140814697Y-120370906D01*
X140627454Y-120227230D01*
X140627453Y-120227229D01*
X140627450Y-120227227D01*
X140545957Y-120180177D01*
X140423056Y-120109219D01*
X140423045Y-120109214D01*
X140204993Y-120018894D01*
X140004556Y-119965187D01*
X139977014Y-119957807D01*
X139977013Y-119957806D01*
X139977010Y-119957806D01*
X139743020Y-119927001D01*
X139743017Y-119927000D01*
X139743011Y-119927000D01*
X139506989Y-119927000D01*
X139506983Y-119927000D01*
X139506979Y-119927001D01*
X139272989Y-119957806D01*
X139045006Y-120018894D01*
X138826954Y-120109214D01*
X138826943Y-120109219D01*
X138622545Y-120227230D01*
X138435302Y-120370906D01*
X138435295Y-120370912D01*
X138268412Y-120537795D01*
X138268406Y-120537802D01*
X138124730Y-120725045D01*
X138006719Y-120929443D01*
X138006714Y-120929454D01*
X137916394Y-121147506D01*
X137855306Y-121375489D01*
X137824501Y-121609479D01*
X137824500Y-121609495D01*
X135160499Y-121609495D01*
X135160499Y-120599992D01*
X135160420Y-120599223D01*
X135149999Y-120497203D01*
X135149998Y-120497200D01*
X135136692Y-120457045D01*
X135094814Y-120330666D01*
X135002712Y-120181344D01*
X134878656Y-120057288D01*
X134781964Y-119997648D01*
X134729336Y-119965187D01*
X134729331Y-119965185D01*
X134727862Y-119964698D01*
X134562797Y-119910001D01*
X134562795Y-119910000D01*
X134460010Y-119899500D01*
X132259998Y-119899500D01*
X132259981Y-119899501D01*
X132157203Y-119910000D01*
X132157200Y-119910001D01*
X131990668Y-119965185D01*
X131990663Y-119965187D01*
X131841342Y-120057289D01*
X131717289Y-120181342D01*
X131625187Y-120330663D01*
X131625185Y-120330668D01*
X131599665Y-120407683D01*
X131570001Y-120497203D01*
X131570001Y-120497204D01*
X131570000Y-120497204D01*
X131559500Y-120599983D01*
X129785407Y-120599983D01*
X129716593Y-120510302D01*
X129716587Y-120510295D01*
X129549704Y-120343412D01*
X129549697Y-120343406D01*
X129362454Y-120199730D01*
X129362453Y-120199729D01*
X129362450Y-120199727D01*
X129280957Y-120152677D01*
X129158056Y-120081719D01*
X129158045Y-120081714D01*
X128939993Y-119991394D01*
X128738862Y-119937501D01*
X128712014Y-119930307D01*
X128712013Y-119930306D01*
X128712010Y-119930306D01*
X128478020Y-119899501D01*
X128478017Y-119899500D01*
X128478011Y-119899500D01*
X128241989Y-119899500D01*
X128241983Y-119899500D01*
X128241979Y-119899501D01*
X128007989Y-119930306D01*
X127780006Y-119991394D01*
X127561954Y-120081714D01*
X127561943Y-120081719D01*
X127357545Y-120199730D01*
X127170302Y-120343406D01*
X127170295Y-120343412D01*
X127003412Y-120510295D01*
X127003406Y-120510302D01*
X126859730Y-120697545D01*
X126741719Y-120901943D01*
X126741714Y-120901954D01*
X126651394Y-121120006D01*
X126590306Y-121347989D01*
X126559501Y-121581979D01*
X126559500Y-121581995D01*
X125160500Y-121581995D01*
X125160500Y-121581989D01*
X125129693Y-121347986D01*
X125068606Y-121120007D01*
X124978284Y-120901951D01*
X124978282Y-120901948D01*
X124978280Y-120901943D01*
X124936118Y-120828918D01*
X124860273Y-120697550D01*
X124737694Y-120537802D01*
X124716593Y-120510302D01*
X124716587Y-120510295D01*
X124549704Y-120343412D01*
X124549697Y-120343406D01*
X124362454Y-120199730D01*
X124362453Y-120199729D01*
X124362450Y-120199727D01*
X124280957Y-120152677D01*
X124158056Y-120081719D01*
X124158045Y-120081714D01*
X123939993Y-119991394D01*
X123738862Y-119937501D01*
X123712014Y-119930307D01*
X123712013Y-119930306D01*
X123712010Y-119930306D01*
X123478020Y-119899501D01*
X123478017Y-119899500D01*
X123478011Y-119899500D01*
X123241989Y-119899500D01*
X123241983Y-119899500D01*
X123241979Y-119899501D01*
X123007989Y-119930306D01*
X122780006Y-119991394D01*
X122561954Y-120081714D01*
X122561943Y-120081719D01*
X122357545Y-120199730D01*
X122170302Y-120343406D01*
X122170295Y-120343412D01*
X122003412Y-120510295D01*
X122003406Y-120510302D01*
X121859730Y-120697545D01*
X121741719Y-120901943D01*
X121741714Y-120901954D01*
X121651394Y-121120006D01*
X121590306Y-121347989D01*
X121559501Y-121581979D01*
X121559500Y-121581995D01*
X113700500Y-121581995D01*
X113700500Y-112997648D01*
X123499500Y-112997648D01*
X123499500Y-113202351D01*
X123531522Y-113404534D01*
X123594781Y-113599223D01*
X123687715Y-113781613D01*
X123808028Y-113947213D01*
X123952786Y-114091971D01*
X124094293Y-114194780D01*
X124118390Y-114212287D01*
X124234607Y-114271503D01*
X124300776Y-114305218D01*
X124300778Y-114305218D01*
X124300781Y-114305220D01*
X124405137Y-114339127D01*
X124495465Y-114368477D01*
X124596557Y-114384488D01*
X124697648Y-114400500D01*
X124697649Y-114400500D01*
X124902351Y-114400500D01*
X124902352Y-114400500D01*
X125104534Y-114368477D01*
X125299219Y-114305220D01*
X125481610Y-114212287D01*
X125592773Y-114131523D01*
X125647213Y-114091971D01*
X125647215Y-114091968D01*
X125647219Y-114091966D01*
X125791966Y-113947219D01*
X125791968Y-113947215D01*
X125791971Y-113947213D01*
X125848799Y-113868994D01*
X125912287Y-113781610D01*
X126005220Y-113599219D01*
X126068477Y-113404534D01*
X126100500Y-113202352D01*
X126100500Y-112997648D01*
X126085034Y-112900000D01*
X126068477Y-112795465D01*
X126037453Y-112699983D01*
X126005220Y-112600781D01*
X126005218Y-112600778D01*
X126005218Y-112600776D01*
X125940408Y-112473581D01*
X125912287Y-112418390D01*
X125858323Y-112344114D01*
X125791971Y-112252786D01*
X125647213Y-112108028D01*
X125481613Y-111987715D01*
X125481612Y-111987714D01*
X125481610Y-111987713D01*
X125400123Y-111946193D01*
X125299223Y-111894781D01*
X125104534Y-111831522D01*
X124929995Y-111803878D01*
X124902352Y-111799500D01*
X124697648Y-111799500D01*
X124673329Y-111803351D01*
X124495465Y-111831522D01*
X124300776Y-111894781D01*
X124118386Y-111987715D01*
X123952786Y-112108028D01*
X123808028Y-112252786D01*
X123687715Y-112418386D01*
X123594781Y-112600776D01*
X123531522Y-112795465D01*
X123499500Y-112997648D01*
X113700500Y-112997648D01*
X113700500Y-108197648D01*
X123399500Y-108197648D01*
X123399500Y-108402352D01*
X123402081Y-108418650D01*
X123431522Y-108604534D01*
X123494781Y-108799223D01*
X123587715Y-108981613D01*
X123708028Y-109147213D01*
X123852786Y-109291971D01*
X124007558Y-109404417D01*
X124018390Y-109412287D01*
X124134607Y-109471503D01*
X124200776Y-109505218D01*
X124200778Y-109505218D01*
X124200781Y-109505220D01*
X124305137Y-109539127D01*
X124395465Y-109568477D01*
X124425165Y-109573181D01*
X124597648Y-109600500D01*
X124597649Y-109600500D01*
X124802351Y-109600500D01*
X124802352Y-109600500D01*
X125004534Y-109568477D01*
X125199219Y-109505220D01*
X125381610Y-109412287D01*
X125474590Y-109344732D01*
X125547213Y-109291971D01*
X125547215Y-109291968D01*
X125547219Y-109291966D01*
X125691966Y-109147219D01*
X125691968Y-109147215D01*
X125691971Y-109147213D01*
X125764532Y-109047339D01*
X125812287Y-108981610D01*
X125905220Y-108799219D01*
X125968477Y-108604534D01*
X126000500Y-108402352D01*
X126000500Y-108197648D01*
X133559500Y-108197648D01*
X133559500Y-108402352D01*
X133562081Y-108418650D01*
X133591522Y-108604534D01*
X133654781Y-108799223D01*
X133747715Y-108981613D01*
X133868028Y-109147213D01*
X134012786Y-109291971D01*
X134167558Y-109404417D01*
X134178390Y-109412287D01*
X134294607Y-109471503D01*
X134360776Y-109505218D01*
X134360778Y-109505218D01*
X134360781Y-109505220D01*
X134465137Y-109539127D01*
X134555465Y-109568477D01*
X134585165Y-109573181D01*
X134757648Y-109600500D01*
X134757649Y-109600500D01*
X134962351Y-109600500D01*
X134962352Y-109600500D01*
X135164534Y-109568477D01*
X135359219Y-109505220D01*
X135541610Y-109412287D01*
X135634590Y-109344732D01*
X135707213Y-109291971D01*
X135707215Y-109291968D01*
X135707219Y-109291966D01*
X135851966Y-109147219D01*
X135851968Y-109147215D01*
X135851971Y-109147213D01*
X135924532Y-109047339D01*
X135960610Y-108997682D01*
X142500000Y-108997682D01*
X142500000Y-109202317D01*
X142532009Y-109404417D01*
X142595244Y-109599031D01*
X142688141Y-109781350D01*
X142688147Y-109781359D01*
X142720523Y-109825921D01*
X142720524Y-109825922D01*
X143400000Y-109146446D01*
X143400000Y-109152661D01*
X143427259Y-109254394D01*
X143479920Y-109345606D01*
X143554394Y-109420080D01*
X143645606Y-109472741D01*
X143747339Y-109500000D01*
X143753553Y-109500000D01*
X143074076Y-110179474D01*
X143118650Y-110211859D01*
X143300968Y-110304755D01*
X143495582Y-110367990D01*
X143697683Y-110400000D01*
X143902317Y-110400000D01*
X144104417Y-110367990D01*
X144299031Y-110304755D01*
X144481349Y-110211859D01*
X144525921Y-110179474D01*
X143846447Y-109500000D01*
X143852661Y-109500000D01*
X143954394Y-109472741D01*
X144045606Y-109420080D01*
X144120080Y-109345606D01*
X144172741Y-109254394D01*
X144200000Y-109152661D01*
X144200000Y-109146447D01*
X144879474Y-109825921D01*
X144911859Y-109781349D01*
X145004755Y-109599031D01*
X145067990Y-109404417D01*
X145100000Y-109202317D01*
X145100000Y-108997682D01*
X145067990Y-108795582D01*
X145004755Y-108600968D01*
X144911859Y-108418650D01*
X144879474Y-108374077D01*
X144879474Y-108374076D01*
X144200000Y-109053551D01*
X144200000Y-109047339D01*
X144172741Y-108945606D01*
X144120080Y-108854394D01*
X144045606Y-108779920D01*
X143954394Y-108727259D01*
X143852661Y-108700000D01*
X143846446Y-108700000D01*
X144525922Y-108020524D01*
X144525921Y-108020523D01*
X144481359Y-107988147D01*
X144481350Y-107988141D01*
X144299031Y-107895244D01*
X144104417Y-107832009D01*
X143902317Y-107800000D01*
X143697683Y-107800000D01*
X143495582Y-107832009D01*
X143300968Y-107895244D01*
X143118644Y-107988143D01*
X143074077Y-108020523D01*
X143074077Y-108020524D01*
X143753554Y-108700000D01*
X143747339Y-108700000D01*
X143645606Y-108727259D01*
X143554394Y-108779920D01*
X143479920Y-108854394D01*
X143427259Y-108945606D01*
X143400000Y-109047339D01*
X143400000Y-109053553D01*
X142720524Y-108374077D01*
X142720523Y-108374077D01*
X142688143Y-108418644D01*
X142595244Y-108600968D01*
X142532009Y-108795582D01*
X142500000Y-108997682D01*
X135960610Y-108997682D01*
X135972287Y-108981610D01*
X136065220Y-108799219D01*
X136128477Y-108604534D01*
X136160500Y-108402352D01*
X136160500Y-108197648D01*
X136128477Y-107995466D01*
X136123814Y-107981116D01*
X136094209Y-107890000D01*
X136065220Y-107800781D01*
X136065218Y-107800778D01*
X136065218Y-107800776D01*
X136023465Y-107718833D01*
X135972287Y-107618390D01*
X135950076Y-107587819D01*
X135851971Y-107452786D01*
X135707213Y-107308028D01*
X135541613Y-107187715D01*
X135541612Y-107187714D01*
X135541610Y-107187713D01*
X135484653Y-107158691D01*
X135359223Y-107094781D01*
X135164534Y-107031522D01*
X134989995Y-107003878D01*
X134962352Y-106999500D01*
X134757648Y-106999500D01*
X134733329Y-107003351D01*
X134555465Y-107031522D01*
X134360776Y-107094781D01*
X134178386Y-107187715D01*
X134012786Y-107308028D01*
X133868028Y-107452786D01*
X133747715Y-107618386D01*
X133654781Y-107800776D01*
X133591522Y-107995465D01*
X133561318Y-108186172D01*
X133559500Y-108197648D01*
X126000500Y-108197648D01*
X125984451Y-108096319D01*
X125968477Y-107995465D01*
X125934209Y-107890000D01*
X125905220Y-107800781D01*
X125905218Y-107800778D01*
X125905218Y-107800776D01*
X125863465Y-107718833D01*
X125812287Y-107618390D01*
X125790076Y-107587819D01*
X125691971Y-107452786D01*
X125547213Y-107308028D01*
X125381613Y-107187715D01*
X125381612Y-107187714D01*
X125381610Y-107187713D01*
X125324653Y-107158691D01*
X125199223Y-107094781D01*
X125004534Y-107031522D01*
X124829995Y-107003878D01*
X124802352Y-106999500D01*
X124597648Y-106999500D01*
X124573329Y-107003351D01*
X124395465Y-107031522D01*
X124200776Y-107094781D01*
X124018386Y-107187715D01*
X123852786Y-107308028D01*
X123708028Y-107452786D01*
X123587715Y-107618386D01*
X123494781Y-107800776D01*
X123431522Y-107995465D01*
X123401318Y-108186172D01*
X123399500Y-108197648D01*
X113700500Y-108197648D01*
X113700500Y-103577648D01*
X123579500Y-103577648D01*
X123579500Y-103782351D01*
X123611522Y-103984534D01*
X123674781Y-104179223D01*
X123721566Y-104271042D01*
X123755724Y-104338081D01*
X123767715Y-104361613D01*
X123888028Y-104527213D01*
X124032786Y-104671971D01*
X124187749Y-104784556D01*
X124198390Y-104792287D01*
X124314607Y-104851503D01*
X124380776Y-104885218D01*
X124380778Y-104885218D01*
X124380781Y-104885220D01*
X124485137Y-104919127D01*
X124575465Y-104948477D01*
X124676557Y-104964488D01*
X124777648Y-104980500D01*
X124777649Y-104980500D01*
X124982351Y-104980500D01*
X124982352Y-104980500D01*
X125184534Y-104948477D01*
X125379219Y-104885220D01*
X125561610Y-104792287D01*
X125654590Y-104724732D01*
X125727213Y-104671971D01*
X125727215Y-104671968D01*
X125727219Y-104671966D01*
X125871966Y-104527219D01*
X125871968Y-104527215D01*
X125871971Y-104527213D01*
X125924732Y-104454590D01*
X125992287Y-104361610D01*
X126085220Y-104179219D01*
X126148477Y-103984534D01*
X126180500Y-103782352D01*
X126180500Y-103577648D01*
X128059500Y-103577648D01*
X128059500Y-103782351D01*
X128091522Y-103984534D01*
X128154781Y-104179223D01*
X128201566Y-104271042D01*
X128235724Y-104338081D01*
X128247715Y-104361613D01*
X128368028Y-104527213D01*
X128512786Y-104671971D01*
X128667749Y-104784556D01*
X128678390Y-104792287D01*
X128794607Y-104851503D01*
X128860776Y-104885218D01*
X128860778Y-104885218D01*
X128860781Y-104885220D01*
X128965137Y-104919127D01*
X129055465Y-104948477D01*
X129156557Y-104964488D01*
X129257648Y-104980500D01*
X129257649Y-104980500D01*
X129462351Y-104980500D01*
X129462352Y-104980500D01*
X129664534Y-104948477D01*
X129859219Y-104885220D01*
X130041610Y-104792287D01*
X130134590Y-104724732D01*
X130207213Y-104671971D01*
X130207215Y-104671968D01*
X130207219Y-104671966D01*
X130351966Y-104527219D01*
X130351968Y-104527215D01*
X130351971Y-104527213D01*
X130404732Y-104454590D01*
X130472287Y-104361610D01*
X130565220Y-104179219D01*
X130628477Y-103984534D01*
X130660500Y-103782352D01*
X130660500Y-103577648D01*
X132559500Y-103577648D01*
X132559500Y-103782351D01*
X132591522Y-103984534D01*
X132654781Y-104179223D01*
X132701566Y-104271042D01*
X132735724Y-104338081D01*
X132747715Y-104361613D01*
X132868028Y-104527213D01*
X133012786Y-104671971D01*
X133167749Y-104784556D01*
X133178390Y-104792287D01*
X133294607Y-104851503D01*
X133360776Y-104885218D01*
X133360778Y-104885218D01*
X133360781Y-104885220D01*
X133465137Y-104919127D01*
X133555465Y-104948477D01*
X133656557Y-104964488D01*
X133757648Y-104980500D01*
X133757649Y-104980500D01*
X133962351Y-104980500D01*
X133962352Y-104980500D01*
X134164534Y-104948477D01*
X134359219Y-104885220D01*
X134541610Y-104792287D01*
X134634590Y-104724732D01*
X134707213Y-104671971D01*
X134707215Y-104671968D01*
X134707219Y-104671966D01*
X134851966Y-104527219D01*
X134851968Y-104527215D01*
X134851971Y-104527213D01*
X134904732Y-104454590D01*
X134972287Y-104361610D01*
X135065220Y-104179219D01*
X135128477Y-103984534D01*
X135160500Y-103782352D01*
X135160500Y-103577648D01*
X135137445Y-103432087D01*
X135128477Y-103375465D01*
X135081971Y-103232335D01*
X135065220Y-103180781D01*
X135065218Y-103180778D01*
X135065218Y-103180776D01*
X135022777Y-103097482D01*
X134972287Y-102998390D01*
X134937503Y-102950513D01*
X134851971Y-102832786D01*
X134707213Y-102688028D01*
X134541613Y-102567715D01*
X134541612Y-102567714D01*
X134541610Y-102567713D01*
X134454274Y-102523213D01*
X134359223Y-102474781D01*
X134164534Y-102411522D01*
X133989995Y-102383878D01*
X133962352Y-102379500D01*
X133757648Y-102379500D01*
X133733329Y-102383351D01*
X133555465Y-102411522D01*
X133360776Y-102474781D01*
X133178386Y-102567715D01*
X133012786Y-102688028D01*
X132868028Y-102832786D01*
X132747715Y-102998386D01*
X132654781Y-103180776D01*
X132591522Y-103375465D01*
X132559500Y-103577648D01*
X130660500Y-103577648D01*
X130637445Y-103432087D01*
X130628477Y-103375465D01*
X130581971Y-103232335D01*
X130565220Y-103180781D01*
X130565218Y-103180778D01*
X130565218Y-103180776D01*
X130522777Y-103097482D01*
X130472287Y-102998390D01*
X130437503Y-102950513D01*
X130351971Y-102832786D01*
X130207213Y-102688028D01*
X130041613Y-102567715D01*
X130041612Y-102567714D01*
X130041610Y-102567713D01*
X129954274Y-102523213D01*
X129859223Y-102474781D01*
X129664534Y-102411522D01*
X129489995Y-102383878D01*
X129462352Y-102379500D01*
X129257648Y-102379500D01*
X129233329Y-102383351D01*
X129055465Y-102411522D01*
X128860776Y-102474781D01*
X128678386Y-102567715D01*
X128512786Y-102688028D01*
X128368028Y-102832786D01*
X128247715Y-102998386D01*
X128154781Y-103180776D01*
X128091522Y-103375465D01*
X128059500Y-103577648D01*
X126180500Y-103577648D01*
X126157445Y-103432087D01*
X126148477Y-103375465D01*
X126101971Y-103232335D01*
X126085220Y-103180781D01*
X126085218Y-103180778D01*
X126085218Y-103180776D01*
X126042777Y-103097482D01*
X125992287Y-102998390D01*
X125957503Y-102950513D01*
X125871971Y-102832786D01*
X125727213Y-102688028D01*
X125561613Y-102567715D01*
X125561612Y-102567714D01*
X125561610Y-102567713D01*
X125474274Y-102523213D01*
X125379223Y-102474781D01*
X125184534Y-102411522D01*
X125009995Y-102383878D01*
X124982352Y-102379500D01*
X124777648Y-102379500D01*
X124753329Y-102383351D01*
X124575465Y-102411522D01*
X124380776Y-102474781D01*
X124198386Y-102567715D01*
X124032786Y-102688028D01*
X123888028Y-102832786D01*
X123767715Y-102998386D01*
X123674781Y-103180776D01*
X123611522Y-103375465D01*
X123579500Y-103577648D01*
X113700500Y-103577648D01*
X113700500Y-102074041D01*
X138415000Y-102074041D01*
X138415000Y-102150000D01*
X139159670Y-102150000D01*
X139139925Y-102169745D01*
X139090556Y-102255255D01*
X139065000Y-102350630D01*
X139065000Y-102449370D01*
X139090556Y-102544745D01*
X139139925Y-102630255D01*
X139159670Y-102650000D01*
X138415000Y-102650000D01*
X138415000Y-102725958D01*
X138454387Y-102923974D01*
X138454390Y-102923983D01*
X138531652Y-103110513D01*
X138531659Y-103110526D01*
X138643829Y-103278399D01*
X138643832Y-103278403D01*
X138786596Y-103421167D01*
X138786600Y-103421170D01*
X138954473Y-103533340D01*
X138954486Y-103533347D01*
X139141016Y-103610609D01*
X139141025Y-103610612D01*
X139190000Y-103620353D01*
X139190000Y-102680330D01*
X139209745Y-102700075D01*
X139295255Y-102749444D01*
X139390630Y-102775000D01*
X139489370Y-102775000D01*
X139584745Y-102749444D01*
X139670255Y-102700075D01*
X139684500Y-102685830D01*
X139684500Y-102726002D01*
X139687617Y-102741671D01*
X139690000Y-102765865D01*
X139690000Y-103620352D01*
X139738974Y-103610612D01*
X139738983Y-103610609D01*
X139925515Y-103533346D01*
X139925518Y-103533344D01*
X140005658Y-103479796D01*
X140072335Y-103458917D01*
X140139716Y-103477401D01*
X140143422Y-103479783D01*
X140224244Y-103533786D01*
X140410873Y-103611091D01*
X140576777Y-103644091D01*
X140608992Y-103650499D01*
X140608996Y-103650500D01*
X140608997Y-103650500D01*
X140811004Y-103650500D01*
X140811005Y-103650499D01*
X141009127Y-103611091D01*
X141010284Y-103610612D01*
X141052879Y-103592968D01*
X141089798Y-103577674D01*
X141159267Y-103570205D01*
X141204658Y-103589962D01*
X141204886Y-103589546D01*
X141209540Y-103592087D01*
X141211562Y-103592967D01*
X141212669Y-103593796D01*
X141212670Y-103593796D01*
X141212671Y-103593797D01*
X141347517Y-103644091D01*
X141347516Y-103644091D01*
X141354444Y-103644835D01*
X141407127Y-103650500D01*
X142552872Y-103650499D01*
X142612483Y-103644091D01*
X142747331Y-103593796D01*
X142862546Y-103507546D01*
X142948796Y-103392331D01*
X142999091Y-103257483D01*
X143005500Y-103197873D01*
X143005499Y-101602128D01*
X142999091Y-101542517D01*
X142998946Y-101542129D01*
X142948797Y-101407671D01*
X142948793Y-101407664D01*
X142862547Y-101292455D01*
X142862544Y-101292452D01*
X142747335Y-101206206D01*
X142747328Y-101206202D01*
X142612482Y-101155908D01*
X142612483Y-101155908D01*
X142552883Y-101149501D01*
X142552881Y-101149500D01*
X142552873Y-101149500D01*
X142552864Y-101149500D01*
X141407129Y-101149500D01*
X141407123Y-101149501D01*
X141347516Y-101155908D01*
X141212672Y-101206202D01*
X141212665Y-101206206D01*
X141211556Y-101207037D01*
X141210258Y-101207520D01*
X141204887Y-101210454D01*
X141204465Y-101209681D01*
X141146090Y-101231449D01*
X141089800Y-101222325D01*
X141009127Y-101188909D01*
X141009119Y-101188907D01*
X140811007Y-101149500D01*
X140811003Y-101149500D01*
X140608997Y-101149500D01*
X140608992Y-101149500D01*
X140410880Y-101188907D01*
X140410872Y-101188909D01*
X140224243Y-101266214D01*
X140143439Y-101320204D01*
X140076761Y-101341081D01*
X140009382Y-101322595D01*
X140005659Y-101320203D01*
X139925526Y-101266659D01*
X139925513Y-101266652D01*
X139738984Y-101189390D01*
X139738977Y-101189388D01*
X139690000Y-101179645D01*
X139690000Y-102034134D01*
X139687617Y-102058326D01*
X139684500Y-102073995D01*
X139684500Y-102114170D01*
X139670255Y-102099925D01*
X139584745Y-102050556D01*
X139489370Y-102025000D01*
X139390630Y-102025000D01*
X139295255Y-102050556D01*
X139209745Y-102099925D01*
X139190000Y-102119670D01*
X139190000Y-101179646D01*
X139189999Y-101179645D01*
X139141022Y-101189388D01*
X139141015Y-101189390D01*
X138954486Y-101266652D01*
X138954473Y-101266659D01*
X138786600Y-101378829D01*
X138786596Y-101378832D01*
X138643832Y-101521596D01*
X138643829Y-101521600D01*
X138531659Y-101689473D01*
X138531652Y-101689486D01*
X138454390Y-101876016D01*
X138454387Y-101876025D01*
X138415000Y-102074041D01*
X113700500Y-102074041D01*
X113700500Y-94978711D01*
X114849500Y-94978711D01*
X114849500Y-95221288D01*
X114881161Y-95461785D01*
X114943947Y-95696104D01*
X115036773Y-95920205D01*
X115036777Y-95920214D01*
X115040773Y-95927135D01*
X115158064Y-96130289D01*
X115158066Y-96130292D01*
X115158067Y-96130293D01*
X115305733Y-96322736D01*
X115305739Y-96322743D01*
X115477256Y-96494260D01*
X115477263Y-96494266D01*
X115549220Y-96549480D01*
X115669711Y-96641936D01*
X115879788Y-96763224D01*
X116103900Y-96856054D01*
X116338211Y-96918838D01*
X116518586Y-96942584D01*
X116578711Y-96950500D01*
X116578712Y-96950500D01*
X116821289Y-96950500D01*
X116869388Y-96944167D01*
X117061789Y-96918838D01*
X117296100Y-96856054D01*
X117520212Y-96763224D01*
X117730289Y-96641936D01*
X117922738Y-96494265D01*
X118094265Y-96322738D01*
X118241936Y-96130289D01*
X118363224Y-95920212D01*
X118456054Y-95696100D01*
X118518838Y-95461789D01*
X118550500Y-95221288D01*
X118550500Y-94978712D01*
X118518838Y-94738211D01*
X118456054Y-94503900D01*
X118363224Y-94279788D01*
X118241936Y-94069711D01*
X118117120Y-93907047D01*
X118094266Y-93877263D01*
X118094260Y-93877256D01*
X117922743Y-93705739D01*
X117922736Y-93705733D01*
X117730293Y-93558067D01*
X117730292Y-93558066D01*
X117730289Y-93558064D01*
X117520212Y-93436776D01*
X117474033Y-93417648D01*
X117296104Y-93343947D01*
X117061785Y-93281161D01*
X116821289Y-93249500D01*
X116821288Y-93249500D01*
X116578712Y-93249500D01*
X116578711Y-93249500D01*
X116338214Y-93281161D01*
X116103895Y-93343947D01*
X115879794Y-93436773D01*
X115879785Y-93436777D01*
X115669706Y-93558067D01*
X115477263Y-93705733D01*
X115477256Y-93705739D01*
X115305739Y-93877256D01*
X115305733Y-93877263D01*
X115158067Y-94069706D01*
X115036777Y-94279785D01*
X115036773Y-94279794D01*
X114943947Y-94503895D01*
X114881161Y-94738214D01*
X114849500Y-94978711D01*
X113700500Y-94978711D01*
X113700500Y-92224500D01*
X113720185Y-92157461D01*
X113772989Y-92111706D01*
X113824500Y-92100500D01*
X124284831Y-92100500D01*
X124351870Y-92120185D01*
G37*
%TD.AperFunction*%
%TA.AperFunction,Conductor*%
G36*
X192642539Y-92120185D02*
G01*
X192688294Y-92172989D01*
X192699500Y-92224500D01*
X192699500Y-127575500D01*
X192679815Y-127642539D01*
X192627011Y-127688294D01*
X192575500Y-127699500D01*
X165675169Y-127699500D01*
X165608130Y-127679815D01*
X165562375Y-127627011D01*
X165552431Y-127557853D01*
X165581456Y-127494297D01*
X165618874Y-127465015D01*
X165640514Y-127453988D01*
X165761610Y-127392287D01*
X165854590Y-127324732D01*
X165927213Y-127271971D01*
X165927215Y-127271968D01*
X165927219Y-127271966D01*
X166071966Y-127127219D01*
X166071968Y-127127215D01*
X166071971Y-127127213D01*
X166134164Y-127041610D01*
X166192287Y-126961610D01*
X166285220Y-126779219D01*
X166348477Y-126584534D01*
X166380500Y-126382352D01*
X166380500Y-126177648D01*
X166348477Y-125975466D01*
X166285220Y-125780781D01*
X166285218Y-125780778D01*
X166285218Y-125780776D01*
X166250956Y-125713534D01*
X166192287Y-125598390D01*
X166184556Y-125587749D01*
X166071971Y-125432786D01*
X165927217Y-125288032D01*
X165927212Y-125288028D01*
X165831615Y-125218573D01*
X165788949Y-125163243D01*
X165780500Y-125118255D01*
X165780500Y-124497648D01*
X167999500Y-124497648D01*
X167999500Y-124702351D01*
X168031522Y-124904534D01*
X168094781Y-125099223D01*
X168187715Y-125281613D01*
X168308028Y-125447213D01*
X168452786Y-125591971D01*
X168571734Y-125678390D01*
X168618390Y-125712287D01*
X168715192Y-125761610D01*
X168800776Y-125805218D01*
X168800778Y-125805218D01*
X168800781Y-125805220D01*
X168905137Y-125839127D01*
X168995465Y-125868477D01*
X169096557Y-125884488D01*
X169197648Y-125900500D01*
X169197649Y-125900500D01*
X169402351Y-125900500D01*
X169402352Y-125900500D01*
X169604534Y-125868477D01*
X169799219Y-125805220D01*
X169981610Y-125712287D01*
X170074590Y-125644732D01*
X170147213Y-125591971D01*
X170147215Y-125591968D01*
X170147219Y-125591966D01*
X170291966Y-125447219D01*
X170291968Y-125447215D01*
X170291971Y-125447213D01*
X170372783Y-125335983D01*
X170412287Y-125281610D01*
X170505220Y-125099219D01*
X170568477Y-124904534D01*
X170600500Y-124702352D01*
X170600500Y-124497648D01*
X178159500Y-124497648D01*
X178159500Y-124702351D01*
X178191522Y-124904534D01*
X178254781Y-125099223D01*
X178347715Y-125281613D01*
X178468028Y-125447213D01*
X178612786Y-125591971D01*
X178731734Y-125678390D01*
X178778390Y-125712287D01*
X178875192Y-125761610D01*
X178960776Y-125805218D01*
X178960778Y-125805218D01*
X178960781Y-125805220D01*
X179065137Y-125839127D01*
X179155465Y-125868477D01*
X179256557Y-125884488D01*
X179357648Y-125900500D01*
X179357649Y-125900500D01*
X179562351Y-125900500D01*
X179562352Y-125900500D01*
X179764534Y-125868477D01*
X179959219Y-125805220D01*
X180141610Y-125712287D01*
X180234590Y-125644732D01*
X180307213Y-125591971D01*
X180307215Y-125591968D01*
X180307219Y-125591966D01*
X180451966Y-125447219D01*
X180451968Y-125447215D01*
X180451971Y-125447213D01*
X180532783Y-125335983D01*
X180572287Y-125281610D01*
X180665220Y-125099219D01*
X180694652Y-125008634D01*
X180704721Y-124977648D01*
X181579500Y-124977648D01*
X181579500Y-125182351D01*
X181611522Y-125384534D01*
X181674781Y-125579223D01*
X181767715Y-125761613D01*
X181888028Y-125927213D01*
X182032786Y-126071971D01*
X182178241Y-126177648D01*
X182198390Y-126192287D01*
X182314607Y-126251503D01*
X182380776Y-126285218D01*
X182380778Y-126285218D01*
X182380781Y-126285220D01*
X182485137Y-126319127D01*
X182575465Y-126348477D01*
X182668561Y-126363222D01*
X182777648Y-126380500D01*
X182777649Y-126380500D01*
X182982351Y-126380500D01*
X182982352Y-126380500D01*
X183184534Y-126348477D01*
X183379219Y-126285220D01*
X183561610Y-126192287D01*
X183654590Y-126124732D01*
X183727213Y-126071971D01*
X183727215Y-126071968D01*
X183727219Y-126071966D01*
X183871966Y-125927219D01*
X183871968Y-125927215D01*
X183871971Y-125927213D01*
X183924732Y-125854590D01*
X183992287Y-125761610D01*
X184085220Y-125579219D01*
X184148477Y-125384534D01*
X184180500Y-125182352D01*
X184180500Y-124977648D01*
X184148477Y-124775466D01*
X184085220Y-124580781D01*
X184085218Y-124580778D01*
X184085218Y-124580776D01*
X184084166Y-124578711D01*
X187849500Y-124578711D01*
X187849500Y-124821288D01*
X187880860Y-125059500D01*
X187881162Y-125061789D01*
X187896292Y-125118255D01*
X187943947Y-125296104D01*
X188007992Y-125450721D01*
X188036776Y-125520212D01*
X188158064Y-125730289D01*
X188158066Y-125730292D01*
X188158067Y-125730293D01*
X188305733Y-125922736D01*
X188305739Y-125922743D01*
X188477256Y-126094260D01*
X188477262Y-126094265D01*
X188669711Y-126241936D01*
X188879788Y-126363224D01*
X189103900Y-126456054D01*
X189338211Y-126518838D01*
X189518586Y-126542584D01*
X189578711Y-126550500D01*
X189578712Y-126550500D01*
X189821289Y-126550500D01*
X189869388Y-126544167D01*
X190061789Y-126518838D01*
X190296100Y-126456054D01*
X190520212Y-126363224D01*
X190730289Y-126241936D01*
X190922738Y-126094265D01*
X191094265Y-125922738D01*
X191241936Y-125730289D01*
X191363224Y-125520212D01*
X191456054Y-125296100D01*
X191518838Y-125061789D01*
X191550500Y-124821288D01*
X191550500Y-124578712D01*
X191518838Y-124338211D01*
X191456054Y-124103900D01*
X191363224Y-123879788D01*
X191241936Y-123669711D01*
X191112096Y-123500500D01*
X191094266Y-123477263D01*
X191094260Y-123477256D01*
X190922743Y-123305739D01*
X190922736Y-123305733D01*
X190730293Y-123158067D01*
X190730292Y-123158066D01*
X190730289Y-123158064D01*
X190520212Y-123036776D01*
X190520205Y-123036773D01*
X190296104Y-122943947D01*
X190061785Y-122881161D01*
X189821289Y-122849500D01*
X189821288Y-122849500D01*
X189578712Y-122849500D01*
X189578711Y-122849500D01*
X189338214Y-122881161D01*
X189103895Y-122943947D01*
X188879794Y-123036773D01*
X188879785Y-123036777D01*
X188669706Y-123158067D01*
X188477263Y-123305733D01*
X188477256Y-123305739D01*
X188305739Y-123477256D01*
X188305733Y-123477263D01*
X188158067Y-123669706D01*
X188036777Y-123879785D01*
X188036773Y-123879794D01*
X187943947Y-124103895D01*
X187881161Y-124338214D01*
X187849500Y-124578711D01*
X184084166Y-124578711D01*
X184051503Y-124514607D01*
X183992287Y-124398390D01*
X183975777Y-124375666D01*
X183871971Y-124232786D01*
X183727213Y-124088028D01*
X183561613Y-123967715D01*
X183561612Y-123967714D01*
X183561610Y-123967713D01*
X183504653Y-123938691D01*
X183379223Y-123874781D01*
X183184534Y-123811522D01*
X183009995Y-123783878D01*
X182982352Y-123779500D01*
X182777648Y-123779500D01*
X182753329Y-123783351D01*
X182575465Y-123811522D01*
X182380776Y-123874781D01*
X182198386Y-123967715D01*
X182032786Y-124088028D01*
X181888028Y-124232786D01*
X181767715Y-124398386D01*
X181674781Y-124580776D01*
X181611522Y-124775465D01*
X181579500Y-124977648D01*
X180704721Y-124977648D01*
X180718755Y-124934457D01*
X180718756Y-124934455D01*
X180728475Y-124904542D01*
X180728475Y-124904538D01*
X180728477Y-124904534D01*
X180760500Y-124702352D01*
X180760500Y-124497648D01*
X180728477Y-124295466D01*
X180708109Y-124232781D01*
X180666233Y-124103900D01*
X180665220Y-124100781D01*
X180665218Y-124100778D01*
X180665218Y-124100776D01*
X180597418Y-123967713D01*
X180572287Y-123918390D01*
X180544239Y-123879785D01*
X180451971Y-123752786D01*
X180307213Y-123608028D01*
X180141613Y-123487715D01*
X180141612Y-123487714D01*
X180141610Y-123487713D01*
X180040324Y-123436105D01*
X179959223Y-123394781D01*
X179764534Y-123331522D01*
X179589995Y-123303878D01*
X179562352Y-123299500D01*
X179357648Y-123299500D01*
X179333329Y-123303351D01*
X179155465Y-123331522D01*
X178960776Y-123394781D01*
X178778386Y-123487715D01*
X178612786Y-123608028D01*
X178468028Y-123752786D01*
X178347715Y-123918386D01*
X178254781Y-124100776D01*
X178191522Y-124295465D01*
X178159500Y-124497648D01*
X170600500Y-124497648D01*
X170568477Y-124295466D01*
X170548109Y-124232781D01*
X170506233Y-124103900D01*
X170505220Y-124100781D01*
X170505218Y-124100778D01*
X170505218Y-124100776D01*
X170437418Y-123967713D01*
X170412287Y-123918390D01*
X170384239Y-123879785D01*
X170291971Y-123752786D01*
X170147213Y-123608028D01*
X169981613Y-123487715D01*
X169981612Y-123487714D01*
X169981610Y-123487713D01*
X169880324Y-123436105D01*
X169799223Y-123394781D01*
X169604534Y-123331522D01*
X169429995Y-123303878D01*
X169402352Y-123299500D01*
X169197648Y-123299500D01*
X169173329Y-123303351D01*
X168995465Y-123331522D01*
X168800776Y-123394781D01*
X168618386Y-123487715D01*
X168452786Y-123608028D01*
X168308028Y-123752786D01*
X168187715Y-123918386D01*
X168094781Y-124100776D01*
X168031522Y-124295465D01*
X167999500Y-124497648D01*
X165780500Y-124497648D01*
X165780500Y-122521518D01*
X165800185Y-122454479D01*
X165816814Y-122433842D01*
X167842974Y-120407681D01*
X167904295Y-120374198D01*
X167973987Y-120379182D01*
X168029920Y-120421054D01*
X168048584Y-120457045D01*
X168094781Y-120599223D01*
X168187715Y-120781613D01*
X168308028Y-120947213D01*
X168452786Y-121091971D01*
X168607749Y-121204556D01*
X168618390Y-121212287D01*
X168734607Y-121271503D01*
X168800776Y-121305218D01*
X168800778Y-121305218D01*
X168800781Y-121305220D01*
X168905137Y-121339127D01*
X168995465Y-121368477D01*
X169039718Y-121375486D01*
X169197648Y-121400500D01*
X169197649Y-121400500D01*
X169402351Y-121400500D01*
X169402352Y-121400500D01*
X169604534Y-121368477D01*
X169799219Y-121305220D01*
X169981610Y-121212287D01*
X170108625Y-121120006D01*
X170147213Y-121091971D01*
X170147215Y-121091968D01*
X170147219Y-121091966D01*
X170291966Y-120947219D01*
X170291968Y-120947215D01*
X170291971Y-120947213D01*
X170344732Y-120874590D01*
X170412287Y-120781610D01*
X170505220Y-120599219D01*
X170568477Y-120404534D01*
X170600500Y-120202352D01*
X170600500Y-119997648D01*
X178159500Y-119997648D01*
X178159500Y-120202351D01*
X178191522Y-120404534D01*
X178254781Y-120599223D01*
X178347715Y-120781613D01*
X178468028Y-120947213D01*
X178612786Y-121091971D01*
X178767749Y-121204556D01*
X178778390Y-121212287D01*
X178894607Y-121271503D01*
X178960776Y-121305218D01*
X178960778Y-121305218D01*
X178960781Y-121305220D01*
X179065137Y-121339127D01*
X179155465Y-121368477D01*
X179199718Y-121375486D01*
X179357648Y-121400500D01*
X179357649Y-121400500D01*
X179562351Y-121400500D01*
X179562352Y-121400500D01*
X179764534Y-121368477D01*
X179959219Y-121305220D01*
X180141610Y-121212287D01*
X180268625Y-121120006D01*
X180307213Y-121091971D01*
X180307215Y-121091968D01*
X180307219Y-121091966D01*
X180451966Y-120947219D01*
X180451968Y-120947215D01*
X180451971Y-120947213D01*
X180504732Y-120874590D01*
X180572287Y-120781610D01*
X180665220Y-120599219D01*
X180728477Y-120404534D01*
X180760500Y-120202352D01*
X180760500Y-119997648D01*
X180754190Y-119957806D01*
X180728477Y-119795465D01*
X180665218Y-119600776D01*
X180631503Y-119534607D01*
X180572287Y-119418390D01*
X180564556Y-119407749D01*
X180451971Y-119252786D01*
X180307213Y-119108028D01*
X180141613Y-118987715D01*
X180141612Y-118987714D01*
X180141610Y-118987713D01*
X180084653Y-118958691D01*
X179959223Y-118894781D01*
X179764534Y-118831522D01*
X179589995Y-118803878D01*
X179562352Y-118799500D01*
X179357648Y-118799500D01*
X179333329Y-118803351D01*
X179155465Y-118831522D01*
X178960776Y-118894781D01*
X178778386Y-118987715D01*
X178612786Y-119108028D01*
X178468028Y-119252786D01*
X178347715Y-119418386D01*
X178254781Y-119600776D01*
X178191522Y-119795465D01*
X178159500Y-119997648D01*
X170600500Y-119997648D01*
X170594190Y-119957806D01*
X170568477Y-119795465D01*
X170505218Y-119600776D01*
X170471503Y-119534607D01*
X170412287Y-119418390D01*
X170404556Y-119407749D01*
X170291971Y-119252786D01*
X170147213Y-119108028D01*
X169981613Y-118987715D01*
X169981612Y-118987714D01*
X169981610Y-118987713D01*
X169799219Y-118894780D01*
X169706281Y-118864582D01*
X169657046Y-118848585D01*
X169599370Y-118809147D01*
X169572172Y-118744789D01*
X169584087Y-118675942D01*
X169607679Y-118642976D01*
X169844114Y-118406543D01*
X169920775Y-118291811D01*
X169973580Y-118164329D01*
X169973580Y-118164325D01*
X169973582Y-118164322D01*
X169978934Y-118137411D01*
X169978934Y-118137409D01*
X170000500Y-118028993D01*
X170000500Y-116561744D01*
X170020185Y-116494705D01*
X170051615Y-116461426D01*
X170147215Y-116391969D01*
X170147215Y-116391968D01*
X170147219Y-116391966D01*
X170291966Y-116247219D01*
X170291968Y-116247215D01*
X170291971Y-116247213D01*
X170356437Y-116158481D01*
X170412287Y-116081610D01*
X170505220Y-115899219D01*
X170568477Y-115704534D01*
X170600500Y-115502352D01*
X170600500Y-115297648D01*
X178159500Y-115297648D01*
X178159500Y-115502351D01*
X178191522Y-115704534D01*
X178254781Y-115899223D01*
X178347715Y-116081613D01*
X178468028Y-116247213D01*
X178612786Y-116391971D01*
X178708385Y-116461426D01*
X178778390Y-116512287D01*
X178875455Y-116561744D01*
X178960776Y-116605218D01*
X178960778Y-116605218D01*
X178960781Y-116605220D01*
X179065137Y-116639127D01*
X179155465Y-116668477D01*
X179256557Y-116684488D01*
X179357648Y-116700500D01*
X179357649Y-116700500D01*
X179562351Y-116700500D01*
X179562352Y-116700500D01*
X179764534Y-116668477D01*
X179959219Y-116605220D01*
X180141610Y-116512287D01*
X180234590Y-116444732D01*
X180307213Y-116391971D01*
X180307215Y-116391968D01*
X180307219Y-116391966D01*
X180451966Y-116247219D01*
X180451968Y-116247215D01*
X180451971Y-116247213D01*
X180516437Y-116158481D01*
X180572287Y-116081610D01*
X180665220Y-115899219D01*
X180728477Y-115704534D01*
X180760500Y-115502352D01*
X180760500Y-115297648D01*
X180733635Y-115128034D01*
X180728477Y-115095465D01*
X180695762Y-114994780D01*
X180665220Y-114900781D01*
X180665218Y-114900778D01*
X180665218Y-114900776D01*
X180623644Y-114819184D01*
X180572287Y-114718390D01*
X180536507Y-114669142D01*
X180451971Y-114552786D01*
X180307213Y-114408028D01*
X180141613Y-114287715D01*
X180141612Y-114287714D01*
X180141610Y-114287713D01*
X180084653Y-114258691D01*
X179959223Y-114194781D01*
X179764534Y-114131522D01*
X179580535Y-114102380D01*
X179562352Y-114099500D01*
X179357648Y-114099500D01*
X179339465Y-114102380D01*
X179155465Y-114131522D01*
X178960776Y-114194781D01*
X178778386Y-114287715D01*
X178612786Y-114408028D01*
X178468028Y-114552786D01*
X178347715Y-114718386D01*
X178254781Y-114900776D01*
X178191522Y-115095465D01*
X178159500Y-115297648D01*
X170600500Y-115297648D01*
X170581945Y-115180504D01*
X170581903Y-115180225D01*
X170586538Y-115145904D01*
X170590967Y-115111637D01*
X170591217Y-115111271D01*
X170591256Y-115110984D01*
X170592055Y-115110045D01*
X170616805Y-115073851D01*
X170939800Y-114750857D01*
X171304114Y-114386543D01*
X171380775Y-114271811D01*
X171391707Y-114245420D01*
X171433578Y-114144332D01*
X171433580Y-114144328D01*
X171445219Y-114085815D01*
X171460500Y-114008996D01*
X171460500Y-102224500D01*
X171480185Y-102157461D01*
X171532989Y-102111706D01*
X171584500Y-102100500D01*
X171823789Y-102100500D01*
X171871888Y-102094167D01*
X172064289Y-102068838D01*
X172298600Y-102006054D01*
X172522712Y-101913224D01*
X172732789Y-101791936D01*
X172925238Y-101644265D01*
X173096765Y-101472738D01*
X173244436Y-101280289D01*
X173365724Y-101070212D01*
X173458554Y-100846100D01*
X173521338Y-100611789D01*
X173553000Y-100371288D01*
X173553000Y-100128712D01*
X173521338Y-99888211D01*
X173458554Y-99653900D01*
X173365724Y-99429788D01*
X173244436Y-99219711D01*
X173096765Y-99027262D01*
X173096760Y-99027256D01*
X172925243Y-98855739D01*
X172925236Y-98855733D01*
X172732793Y-98708067D01*
X172732792Y-98708066D01*
X172732789Y-98708064D01*
X172522712Y-98586776D01*
X172522705Y-98586773D01*
X172298604Y-98493947D01*
X172064285Y-98431161D01*
X171823789Y-98399500D01*
X171823788Y-98399500D01*
X171581212Y-98399500D01*
X171581211Y-98399500D01*
X171340714Y-98431161D01*
X171106395Y-98493947D01*
X170882294Y-98586773D01*
X170882285Y-98586777D01*
X170672206Y-98708067D01*
X170479764Y-98855732D01*
X170323257Y-99012239D01*
X170261934Y-99045723D01*
X170192242Y-99040739D01*
X170147895Y-99012238D01*
X165784208Y-94648551D01*
X165750723Y-94587228D01*
X165749416Y-94541477D01*
X165780500Y-94345222D01*
X165780500Y-94124778D01*
X165746015Y-93907049D01*
X165731644Y-93862818D01*
X165729649Y-93792976D01*
X165765730Y-93733144D01*
X165828431Y-93702316D01*
X165849575Y-93700500D01*
X170118481Y-93700500D01*
X170185520Y-93720185D01*
X170206162Y-93736819D01*
X181607662Y-105138319D01*
X181641147Y-105199642D01*
X181636163Y-105269334D01*
X181594291Y-105325267D01*
X181528827Y-105349684D01*
X181519981Y-105350000D01*
X181064655Y-105350000D01*
X181005127Y-105356401D01*
X181005120Y-105356403D01*
X180870413Y-105406645D01*
X180870406Y-105406649D01*
X180755312Y-105492809D01*
X180755309Y-105492812D01*
X180669149Y-105607906D01*
X180669145Y-105607913D01*
X180618903Y-105742620D01*
X180618901Y-105742627D01*
X180612500Y-105802155D01*
X180612500Y-105866421D01*
X180592815Y-105933460D01*
X180540011Y-105979215D01*
X180470853Y-105989159D01*
X180407297Y-105960134D01*
X180388182Y-105939307D01*
X180366796Y-105909872D01*
X180276328Y-105785354D01*
X180137146Y-105646172D01*
X179977905Y-105530476D01*
X179909608Y-105495677D01*
X179802529Y-105441117D01*
X179615326Y-105380290D01*
X179420922Y-105349500D01*
X179420917Y-105349500D01*
X179224083Y-105349500D01*
X179224078Y-105349500D01*
X179029673Y-105380290D01*
X178842470Y-105441117D01*
X178667094Y-105530476D01*
X178576241Y-105596485D01*
X178507854Y-105646172D01*
X178507852Y-105646174D01*
X178507851Y-105646174D01*
X178368674Y-105785351D01*
X178368674Y-105785352D01*
X178368672Y-105785354D01*
X178318985Y-105853741D01*
X178252976Y-105944594D01*
X178162985Y-106121213D01*
X178115011Y-106172009D01*
X178047190Y-106188804D01*
X177981055Y-106166267D01*
X177942015Y-106121213D01*
X177874730Y-105989159D01*
X177852024Y-105944595D01*
X177736328Y-105785354D01*
X177597146Y-105646172D01*
X177437905Y-105530476D01*
X177369608Y-105495677D01*
X177262529Y-105441117D01*
X177075326Y-105380290D01*
X176880922Y-105349500D01*
X176880917Y-105349500D01*
X176684083Y-105349500D01*
X176684078Y-105349500D01*
X176489673Y-105380290D01*
X176302470Y-105441117D01*
X176127094Y-105530476D01*
X176036241Y-105596485D01*
X175967854Y-105646172D01*
X175967852Y-105646174D01*
X175967851Y-105646174D01*
X175828674Y-105785351D01*
X175828674Y-105785352D01*
X175828672Y-105785354D01*
X175778985Y-105853741D01*
X175712976Y-105944594D01*
X175622704Y-106121764D01*
X175574729Y-106172560D01*
X175506908Y-106189355D01*
X175440774Y-106166818D01*
X175401734Y-106121764D01*
X175311596Y-105944858D01*
X175286178Y-105909873D01*
X175286177Y-105909873D01*
X174622500Y-106573551D01*
X174622500Y-106549972D01*
X174596604Y-106453325D01*
X174546576Y-106366675D01*
X174475825Y-106295924D01*
X174389175Y-106245896D01*
X174292528Y-106220000D01*
X174268947Y-106220000D01*
X174932625Y-105556320D01*
X174932625Y-105556319D01*
X174897645Y-105530905D01*
X174722335Y-105441581D01*
X174535205Y-105380778D01*
X174340882Y-105350000D01*
X174144118Y-105350000D01*
X173949794Y-105380778D01*
X173762661Y-105441582D01*
X173587363Y-105530899D01*
X173587359Y-105530902D01*
X173552373Y-105556320D01*
X173552372Y-105556320D01*
X174216054Y-106220000D01*
X174192472Y-106220000D01*
X174095825Y-106245896D01*
X174009175Y-106295924D01*
X173938424Y-106366675D01*
X173888396Y-106453325D01*
X173862500Y-106549972D01*
X173862500Y-106573552D01*
X173198820Y-105909872D01*
X173198820Y-105909873D01*
X173173402Y-105944859D01*
X173173399Y-105944863D01*
X173084082Y-106120161D01*
X173023278Y-106307294D01*
X172992500Y-106501617D01*
X172992500Y-106698382D01*
X173023278Y-106892705D01*
X173084081Y-107079835D01*
X173173405Y-107255145D01*
X173198819Y-107290125D01*
X173198820Y-107290125D01*
X173862500Y-106626445D01*
X173862500Y-106650028D01*
X173888396Y-106746675D01*
X173938424Y-106833325D01*
X174009175Y-106904076D01*
X174095825Y-106954104D01*
X174192472Y-106980000D01*
X174216053Y-106980000D01*
X173552373Y-107643677D01*
X173552373Y-107643678D01*
X173587358Y-107669096D01*
X173762664Y-107758418D01*
X173949794Y-107819221D01*
X174144118Y-107850000D01*
X174340882Y-107850000D01*
X174535205Y-107819221D01*
X174722335Y-107758418D01*
X174897643Y-107669095D01*
X174932625Y-107643678D01*
X174932626Y-107643678D01*
X174268948Y-106980000D01*
X174292528Y-106980000D01*
X174389175Y-106954104D01*
X174475825Y-106904076D01*
X174546576Y-106833325D01*
X174596604Y-106746675D01*
X174622500Y-106650028D01*
X174622500Y-106626448D01*
X175286178Y-107290126D01*
X175286178Y-107290125D01*
X175311597Y-107255141D01*
X175401734Y-107078236D01*
X175449708Y-107027439D01*
X175517529Y-107010644D01*
X175583664Y-107033181D01*
X175622704Y-107078235D01*
X175623615Y-107080024D01*
X175623616Y-107080025D01*
X175712976Y-107255405D01*
X175828672Y-107414646D01*
X175967854Y-107553828D01*
X176127095Y-107669524D01*
X176170597Y-107691689D01*
X176302470Y-107758882D01*
X176302472Y-107758882D01*
X176302475Y-107758884D01*
X176351358Y-107774767D01*
X176489673Y-107819709D01*
X176684078Y-107850500D01*
X176684083Y-107850500D01*
X176880922Y-107850500D01*
X177075326Y-107819709D01*
X177105207Y-107810000D01*
X177262525Y-107758884D01*
X177437905Y-107669524D01*
X177597146Y-107553828D01*
X177736328Y-107414646D01*
X177852024Y-107255405D01*
X177931338Y-107099742D01*
X177942015Y-107078787D01*
X177989989Y-107027990D01*
X178057810Y-107011195D01*
X178123945Y-107033732D01*
X178162985Y-107078787D01*
X178252974Y-107255403D01*
X178256817Y-107260692D01*
X178368672Y-107414646D01*
X178507854Y-107553828D01*
X178667095Y-107669524D01*
X178710597Y-107691689D01*
X178842470Y-107758882D01*
X178842472Y-107758882D01*
X178842475Y-107758884D01*
X178891358Y-107774767D01*
X179029673Y-107819709D01*
X179224078Y-107850500D01*
X179224083Y-107850500D01*
X179420922Y-107850500D01*
X179615326Y-107819709D01*
X179645207Y-107810000D01*
X179802525Y-107758884D01*
X179977905Y-107669524D01*
X180137146Y-107553828D01*
X180276328Y-107414646D01*
X180388183Y-107260690D01*
X180443512Y-107218027D01*
X180513126Y-107212048D01*
X180574920Y-107244654D01*
X180609278Y-107305493D01*
X180612500Y-107333578D01*
X180612500Y-107397844D01*
X180618901Y-107457372D01*
X180618903Y-107457379D01*
X180669145Y-107592086D01*
X180669149Y-107592093D01*
X180743707Y-107691689D01*
X180768125Y-107757153D01*
X180753274Y-107825426D01*
X180703869Y-107874832D01*
X180644441Y-107890000D01*
X180494118Y-107890000D01*
X180299794Y-107920778D01*
X180112661Y-107981582D01*
X179937363Y-108070899D01*
X179937359Y-108070902D01*
X179902373Y-108096320D01*
X179902372Y-108096320D01*
X180566054Y-108760000D01*
X180542472Y-108760000D01*
X180445825Y-108785896D01*
X180359175Y-108835924D01*
X180288424Y-108906675D01*
X180238396Y-108993325D01*
X180212500Y-109089972D01*
X180212500Y-109113552D01*
X179548820Y-108449872D01*
X179548820Y-108449873D01*
X179523402Y-108484859D01*
X179433265Y-108661764D01*
X179385290Y-108712560D01*
X179317469Y-108729355D01*
X179251335Y-108706818D01*
X179212295Y-108661763D01*
X179122025Y-108484596D01*
X179096796Y-108449872D01*
X179006328Y-108325354D01*
X178867146Y-108186172D01*
X178707905Y-108070476D01*
X178532529Y-107981117D01*
X178345326Y-107920290D01*
X178150922Y-107889500D01*
X178150917Y-107889500D01*
X177954083Y-107889500D01*
X177954078Y-107889500D01*
X177759673Y-107920290D01*
X177572470Y-107981117D01*
X177397094Y-108070476D01*
X177330210Y-108119071D01*
X177237854Y-108186172D01*
X177237852Y-108186174D01*
X177237851Y-108186174D01*
X177098674Y-108325351D01*
X177098674Y-108325352D01*
X177098672Y-108325354D01*
X177059104Y-108379815D01*
X176982976Y-108484594D01*
X176892985Y-108661213D01*
X176845011Y-108712009D01*
X176777190Y-108728804D01*
X176711055Y-108706267D01*
X176672015Y-108661213D01*
X176589869Y-108499992D01*
X176582024Y-108484595D01*
X176466328Y-108325354D01*
X176327146Y-108186172D01*
X176167905Y-108070476D01*
X175992529Y-107981117D01*
X175805326Y-107920290D01*
X175610922Y-107889500D01*
X175610917Y-107889500D01*
X175414083Y-107889500D01*
X175414078Y-107889500D01*
X175219673Y-107920290D01*
X175032470Y-107981117D01*
X174857094Y-108070476D01*
X174790210Y-108119071D01*
X174697854Y-108186172D01*
X174697852Y-108186174D01*
X174697851Y-108186174D01*
X174558674Y-108325351D01*
X174558674Y-108325352D01*
X174558672Y-108325354D01*
X174519104Y-108379815D01*
X174442976Y-108484594D01*
X174352985Y-108661213D01*
X174305011Y-108712009D01*
X174237190Y-108728804D01*
X174171055Y-108706267D01*
X174132015Y-108661213D01*
X174049869Y-108499992D01*
X174042024Y-108484595D01*
X173926328Y-108325354D01*
X173787146Y-108186172D01*
X173627905Y-108070476D01*
X173452529Y-107981117D01*
X173265326Y-107920290D01*
X173070922Y-107889500D01*
X173070917Y-107889500D01*
X172874083Y-107889500D01*
X172874078Y-107889500D01*
X172679673Y-107920290D01*
X172492470Y-107981117D01*
X172317094Y-108070476D01*
X172250210Y-108119071D01*
X172157854Y-108186172D01*
X172157852Y-108186174D01*
X172157851Y-108186174D01*
X172018674Y-108325351D01*
X172018674Y-108325352D01*
X172018672Y-108325354D01*
X171979104Y-108379815D01*
X171902976Y-108484594D01*
X171813617Y-108659970D01*
X171752790Y-108847173D01*
X171722000Y-109041577D01*
X171722000Y-109238422D01*
X171752790Y-109432826D01*
X171813617Y-109620029D01*
X171880711Y-109751707D01*
X171902976Y-109795405D01*
X172018672Y-109954646D01*
X172157854Y-110093828D01*
X172317095Y-110209524D01*
X172382227Y-110242710D01*
X172492470Y-110298882D01*
X172492472Y-110298882D01*
X172492475Y-110298884D01*
X172589375Y-110330369D01*
X172679673Y-110359709D01*
X172874078Y-110390500D01*
X172874083Y-110390500D01*
X173070922Y-110390500D01*
X173265326Y-110359709D01*
X173266828Y-110359221D01*
X173452525Y-110298884D01*
X173627905Y-110209524D01*
X173787146Y-110093828D01*
X173926328Y-109954646D01*
X174042024Y-109795405D01*
X174131384Y-109620025D01*
X174132015Y-109618787D01*
X174179989Y-109567990D01*
X174247810Y-109551195D01*
X174313945Y-109573732D01*
X174352985Y-109618787D01*
X174442974Y-109795403D01*
X174460980Y-109820185D01*
X174558672Y-109954646D01*
X174697854Y-110093828D01*
X174857095Y-110209524D01*
X174922227Y-110242710D01*
X175032470Y-110298882D01*
X175032472Y-110298882D01*
X175032475Y-110298884D01*
X175129375Y-110330369D01*
X175219673Y-110359709D01*
X175414078Y-110390500D01*
X175414083Y-110390500D01*
X175610922Y-110390500D01*
X175805326Y-110359709D01*
X175806828Y-110359221D01*
X175992525Y-110298884D01*
X176167905Y-110209524D01*
X176327146Y-110093828D01*
X176466328Y-109954646D01*
X176582024Y-109795405D01*
X176671384Y-109620025D01*
X176672015Y-109618787D01*
X176719989Y-109567990D01*
X176787810Y-109551195D01*
X176853945Y-109573732D01*
X176892985Y-109618787D01*
X176982974Y-109795403D01*
X177000980Y-109820185D01*
X177098672Y-109954646D01*
X177237854Y-110093828D01*
X177397095Y-110209524D01*
X177462227Y-110242710D01*
X177572470Y-110298882D01*
X177572472Y-110298882D01*
X177572475Y-110298884D01*
X177669375Y-110330369D01*
X177759673Y-110359709D01*
X177954078Y-110390500D01*
X177954083Y-110390500D01*
X178150922Y-110390500D01*
X178345326Y-110359709D01*
X178346828Y-110359221D01*
X178532525Y-110298884D01*
X178707905Y-110209524D01*
X178867146Y-110093828D01*
X179006328Y-109954646D01*
X179122024Y-109795405D01*
X179211384Y-109620025D01*
X179211384Y-109620022D01*
X179212295Y-109618236D01*
X179260269Y-109567440D01*
X179328090Y-109550644D01*
X179394225Y-109573181D01*
X179433265Y-109618235D01*
X179523405Y-109795145D01*
X179548819Y-109830125D01*
X179548820Y-109830125D01*
X180212500Y-109166445D01*
X180212500Y-109190028D01*
X180238396Y-109286675D01*
X180288424Y-109373325D01*
X180359175Y-109444076D01*
X180445825Y-109494104D01*
X180542472Y-109520000D01*
X180566053Y-109520000D01*
X179902373Y-110183677D01*
X179902373Y-110183678D01*
X179937358Y-110209096D01*
X180112664Y-110298418D01*
X180299794Y-110359221D01*
X180494118Y-110390000D01*
X180690882Y-110390000D01*
X180885205Y-110359221D01*
X181072335Y-110298418D01*
X181247643Y-110209095D01*
X181282625Y-110183678D01*
X181282626Y-110183678D01*
X180618948Y-109520000D01*
X180642528Y-109520000D01*
X180739175Y-109494104D01*
X180825825Y-109444076D01*
X180896576Y-109373325D01*
X180946604Y-109286675D01*
X180972500Y-109190028D01*
X180972500Y-109166448D01*
X181636178Y-109830126D01*
X181636178Y-109830125D01*
X181661595Y-109795143D01*
X181750918Y-109619835D01*
X181811721Y-109432705D01*
X181842500Y-109238382D01*
X181842500Y-109041617D01*
X181811721Y-108847294D01*
X181750918Y-108660164D01*
X181661596Y-108484858D01*
X181636178Y-108449873D01*
X181636177Y-108449873D01*
X180972500Y-109113551D01*
X180972500Y-109089972D01*
X180946604Y-108993325D01*
X180896576Y-108906675D01*
X180825825Y-108835924D01*
X180739175Y-108785896D01*
X180642528Y-108760000D01*
X180618947Y-108760000D01*
X181282625Y-108096320D01*
X181282625Y-108096319D01*
X181252343Y-108074319D01*
X181209677Y-108018990D01*
X181203696Y-107949377D01*
X181236301Y-107887581D01*
X181297139Y-107853223D01*
X181325227Y-107850000D01*
X181612500Y-107850000D01*
X181612500Y-106887401D01*
X181629175Y-106904076D01*
X181715825Y-106954104D01*
X181812472Y-106980000D01*
X181912528Y-106980000D01*
X182009175Y-106954104D01*
X182095825Y-106904076D01*
X182112500Y-106887401D01*
X182112500Y-107850000D01*
X182335500Y-107850000D01*
X182402539Y-107869685D01*
X182448294Y-107922489D01*
X182459500Y-107974000D01*
X182459500Y-113599319D01*
X182439815Y-113666358D01*
X182387011Y-113712113D01*
X182382952Y-113713880D01*
X182380787Y-113714776D01*
X182198386Y-113807715D01*
X182032786Y-113928028D01*
X181888028Y-114072786D01*
X181767715Y-114238386D01*
X181674781Y-114420776D01*
X181611522Y-114615465D01*
X181579500Y-114817648D01*
X181579500Y-115022351D01*
X181611522Y-115224534D01*
X181674781Y-115419223D01*
X181767715Y-115601613D01*
X181888028Y-115767213D01*
X182032786Y-115911971D01*
X182187749Y-116024556D01*
X182198390Y-116032287D01*
X182295192Y-116081610D01*
X182380776Y-116125218D01*
X182380778Y-116125218D01*
X182380781Y-116125220D01*
X182483148Y-116158481D01*
X182575465Y-116188477D01*
X182676557Y-116204488D01*
X182777648Y-116220500D01*
X182777649Y-116220500D01*
X182982351Y-116220500D01*
X182982352Y-116220500D01*
X183184534Y-116188477D01*
X183379219Y-116125220D01*
X183561610Y-116032287D01*
X183654590Y-115964732D01*
X183727213Y-115911971D01*
X183727215Y-115911968D01*
X183727219Y-115911966D01*
X183871966Y-115767219D01*
X183871968Y-115767215D01*
X183871971Y-115767213D01*
X183924732Y-115694590D01*
X183992287Y-115601610D01*
X184085220Y-115419219D01*
X184148477Y-115224534D01*
X184180500Y-115022352D01*
X184180500Y-114817648D01*
X184148477Y-114615466D01*
X184145992Y-114607819D01*
X184085218Y-114420776D01*
X183992287Y-114238390D01*
X183884181Y-114089593D01*
X183860702Y-114023786D01*
X183860500Y-114016708D01*
X183860500Y-105631004D01*
X183833581Y-105495677D01*
X183833580Y-105495676D01*
X183833580Y-105495672D01*
X183785788Y-105380291D01*
X183780777Y-105368193D01*
X183780773Y-105368186D01*
X183780606Y-105367937D01*
X183768288Y-105349501D01*
X183768287Y-105349500D01*
X183704114Y-105253457D01*
X183704112Y-105253454D01*
X178579369Y-100128711D01*
X181282000Y-100128711D01*
X181282000Y-100371288D01*
X181313661Y-100611785D01*
X181376447Y-100846104D01*
X181459877Y-101047520D01*
X181469276Y-101070212D01*
X181590564Y-101280289D01*
X181590566Y-101280292D01*
X181590567Y-101280293D01*
X181738233Y-101472736D01*
X181738239Y-101472743D01*
X181909756Y-101644260D01*
X181909762Y-101644265D01*
X182102211Y-101791936D01*
X182312288Y-101913224D01*
X182536400Y-102006054D01*
X182770711Y-102068838D01*
X182951086Y-102092584D01*
X183011211Y-102100500D01*
X183011212Y-102100500D01*
X183253789Y-102100500D01*
X183301888Y-102094167D01*
X183494289Y-102068838D01*
X183728600Y-102006054D01*
X183952712Y-101913224D01*
X184162789Y-101791936D01*
X184355238Y-101644265D01*
X184526765Y-101472738D01*
X184674436Y-101280289D01*
X184795724Y-101070212D01*
X184888554Y-100846100D01*
X184951338Y-100611789D01*
X184983000Y-100371288D01*
X184983000Y-100128712D01*
X184951338Y-99888211D01*
X184888554Y-99653900D01*
X184795724Y-99429788D01*
X184674436Y-99219711D01*
X184526765Y-99027262D01*
X184526760Y-99027256D01*
X184355243Y-98855739D01*
X184355236Y-98855733D01*
X184162793Y-98708067D01*
X184162792Y-98708066D01*
X184162789Y-98708064D01*
X183952712Y-98586776D01*
X183952705Y-98586773D01*
X183728604Y-98493947D01*
X183494285Y-98431161D01*
X183253789Y-98399500D01*
X183253788Y-98399500D01*
X183011212Y-98399500D01*
X183011211Y-98399500D01*
X182770714Y-98431161D01*
X182536395Y-98493947D01*
X182312294Y-98586773D01*
X182312285Y-98586777D01*
X182102206Y-98708067D01*
X181909763Y-98855733D01*
X181909756Y-98855739D01*
X181738239Y-99027256D01*
X181738233Y-99027263D01*
X181590567Y-99219706D01*
X181469277Y-99429785D01*
X181469273Y-99429794D01*
X181376447Y-99653895D01*
X181313661Y-99888214D01*
X181282000Y-100128711D01*
X178579369Y-100128711D01*
X173429369Y-94978711D01*
X187849500Y-94978711D01*
X187849500Y-95221288D01*
X187881161Y-95461785D01*
X187943947Y-95696104D01*
X188036773Y-95920205D01*
X188036777Y-95920214D01*
X188040773Y-95927135D01*
X188158064Y-96130289D01*
X188158066Y-96130292D01*
X188158067Y-96130293D01*
X188305733Y-96322736D01*
X188305739Y-96322743D01*
X188477256Y-96494260D01*
X188477263Y-96494266D01*
X188549220Y-96549480D01*
X188669711Y-96641936D01*
X188879788Y-96763224D01*
X189103900Y-96856054D01*
X189338211Y-96918838D01*
X189518586Y-96942584D01*
X189578711Y-96950500D01*
X189578712Y-96950500D01*
X189821289Y-96950500D01*
X189869388Y-96944167D01*
X190061789Y-96918838D01*
X190296100Y-96856054D01*
X190520212Y-96763224D01*
X190730289Y-96641936D01*
X190922738Y-96494265D01*
X191094265Y-96322738D01*
X191241936Y-96130289D01*
X191363224Y-95920212D01*
X191456054Y-95696100D01*
X191518838Y-95461789D01*
X191550500Y-95221288D01*
X191550500Y-94978712D01*
X191518838Y-94738211D01*
X191456054Y-94503900D01*
X191363224Y-94279788D01*
X191241936Y-94069711D01*
X191117120Y-93907047D01*
X191094266Y-93877263D01*
X191094260Y-93877256D01*
X190922743Y-93705739D01*
X190922736Y-93705733D01*
X190730293Y-93558067D01*
X190730292Y-93558066D01*
X190730289Y-93558064D01*
X190520212Y-93436776D01*
X190474033Y-93417648D01*
X190296104Y-93343947D01*
X190061785Y-93281161D01*
X189821289Y-93249500D01*
X189821288Y-93249500D01*
X189578712Y-93249500D01*
X189578711Y-93249500D01*
X189338214Y-93281161D01*
X189103895Y-93343947D01*
X188879794Y-93436773D01*
X188879785Y-93436777D01*
X188669706Y-93558067D01*
X188477263Y-93705733D01*
X188477256Y-93705739D01*
X188305739Y-93877256D01*
X188305733Y-93877263D01*
X188158067Y-94069706D01*
X188036777Y-94279785D01*
X188036773Y-94279794D01*
X187943947Y-94503895D01*
X187881161Y-94738214D01*
X187849500Y-94978711D01*
X173429369Y-94978711D01*
X170906545Y-92455887D01*
X170791807Y-92379222D01*
X170694847Y-92339061D01*
X170640443Y-92295220D01*
X170618378Y-92228926D01*
X170635657Y-92161227D01*
X170686794Y-92113616D01*
X170742299Y-92100500D01*
X192575500Y-92100500D01*
X192642539Y-92120185D01*
G37*
%TD.AperFunction*%
%TA.AperFunction,Conductor*%
G36*
X154688703Y-104244368D02*
G01*
X154695181Y-104250400D01*
X162788891Y-112344111D01*
X162788892Y-112344112D01*
X162903630Y-112420777D01*
X163031105Y-112473578D01*
X163031110Y-112473580D01*
X163031114Y-112473580D01*
X163031115Y-112473581D01*
X163166441Y-112500500D01*
X163166444Y-112500500D01*
X163166445Y-112500500D01*
X165642567Y-112500500D01*
X165709606Y-112520185D01*
X165755361Y-112572989D01*
X165765925Y-112637103D01*
X165759500Y-112699983D01*
X165759500Y-113900001D01*
X165759501Y-113900018D01*
X165770000Y-114002796D01*
X165770001Y-114002799D01*
X165788245Y-114057855D01*
X165790647Y-114127684D01*
X165754915Y-114187725D01*
X165692394Y-114218918D01*
X165652585Y-114218535D01*
X165652530Y-114219097D01*
X165646468Y-114218500D01*
X165646465Y-114218500D01*
X165646464Y-114218500D01*
X158082924Y-114218500D01*
X158015885Y-114198815D01*
X157970130Y-114146011D01*
X157960186Y-114076853D01*
X157982606Y-114021615D01*
X158011857Y-113981353D01*
X158104755Y-113799031D01*
X158167990Y-113604417D01*
X158200000Y-113402317D01*
X158200000Y-113197682D01*
X158167990Y-112995582D01*
X158104755Y-112800968D01*
X158011859Y-112618650D01*
X157979474Y-112574077D01*
X157979474Y-112574076D01*
X157300000Y-113253551D01*
X157300000Y-113247339D01*
X157272741Y-113145606D01*
X157220080Y-113054394D01*
X157145606Y-112979920D01*
X157054394Y-112927259D01*
X156952661Y-112900000D01*
X156946446Y-112900000D01*
X157625922Y-112220524D01*
X157625921Y-112220523D01*
X157581359Y-112188147D01*
X157581350Y-112188141D01*
X157399031Y-112095244D01*
X157204417Y-112032009D01*
X157002317Y-112000000D01*
X156797683Y-112000000D01*
X156595581Y-112032010D01*
X156595574Y-112032011D01*
X156561817Y-112042980D01*
X156491976Y-112044975D01*
X156432144Y-112008894D01*
X156401316Y-111946193D01*
X156399500Y-111925049D01*
X156399500Y-110404451D01*
X156419185Y-110337412D01*
X156471989Y-110291657D01*
X156541147Y-110281713D01*
X156579796Y-110293967D01*
X156600966Y-110304754D01*
X156795582Y-110367990D01*
X156997683Y-110400000D01*
X157202317Y-110400000D01*
X157404417Y-110367990D01*
X157599031Y-110304755D01*
X157781349Y-110211859D01*
X157825921Y-110179474D01*
X157146446Y-109500000D01*
X157152661Y-109500000D01*
X157254394Y-109472741D01*
X157345606Y-109420080D01*
X157420080Y-109345606D01*
X157472741Y-109254394D01*
X157500000Y-109152661D01*
X157500000Y-109146447D01*
X158179474Y-109825921D01*
X158211859Y-109781349D01*
X158304755Y-109599031D01*
X158367990Y-109404417D01*
X158400000Y-109202317D01*
X158400000Y-108997682D01*
X158367990Y-108795582D01*
X158304755Y-108600968D01*
X158211859Y-108418650D01*
X158179474Y-108374077D01*
X158179474Y-108374076D01*
X157500000Y-109053551D01*
X157500000Y-109047339D01*
X157472741Y-108945606D01*
X157420080Y-108854394D01*
X157345606Y-108779920D01*
X157254394Y-108727259D01*
X157152661Y-108700000D01*
X157146446Y-108700000D01*
X157825922Y-108020524D01*
X157825921Y-108020523D01*
X157781359Y-107988147D01*
X157781350Y-107988141D01*
X157599031Y-107895244D01*
X157404417Y-107832009D01*
X157202317Y-107800000D01*
X156997683Y-107800000D01*
X156795582Y-107832009D01*
X156600968Y-107895244D01*
X156418644Y-107988143D01*
X156374077Y-108020523D01*
X156374077Y-108020524D01*
X157053554Y-108700000D01*
X157047339Y-108700000D01*
X156945606Y-108727259D01*
X156854394Y-108779920D01*
X156779920Y-108854394D01*
X156727259Y-108945606D01*
X156700000Y-109047339D01*
X156700000Y-109053553D01*
X156428736Y-108782289D01*
X156395251Y-108720966D01*
X156394800Y-108718799D01*
X156372580Y-108607092D01*
X156372580Y-108607091D01*
X156371521Y-108604536D01*
X156371513Y-108604516D01*
X156319778Y-108479616D01*
X156319777Y-108479615D01*
X156319775Y-108479609D01*
X156243114Y-108364877D01*
X156243112Y-108364874D01*
X154519819Y-106641581D01*
X154486334Y-106580258D01*
X154483500Y-106553900D01*
X154483500Y-104338081D01*
X154503185Y-104271042D01*
X154555989Y-104225287D01*
X154625147Y-104215343D01*
X154688703Y-104244368D01*
G37*
%TD.AperFunction*%
%TA.AperFunction,Conductor*%
G36*
X162937411Y-93708424D02*
G01*
X162965136Y-93713222D01*
X162970492Y-93718137D01*
X162977464Y-93720185D01*
X162995881Y-93741439D01*
X163016612Y-93760466D01*
X163018460Y-93767496D01*
X163023219Y-93772989D01*
X163027222Y-93800833D01*
X163034374Y-93828040D01*
X163032604Y-93838264D01*
X163033163Y-93842147D01*
X163028356Y-93862818D01*
X163013985Y-93907047D01*
X162988222Y-94069711D01*
X162979500Y-94124778D01*
X162979500Y-94345222D01*
X162996742Y-94454086D01*
X163013985Y-94562952D01*
X163082103Y-94772603D01*
X163082104Y-94772606D01*
X163133058Y-94872606D01*
X163174136Y-94953226D01*
X163182187Y-94969025D01*
X163311752Y-95147358D01*
X163311756Y-95147363D01*
X163361928Y-95197535D01*
X163395413Y-95258858D01*
X163390429Y-95328550D01*
X163348557Y-95384483D01*
X163317581Y-95401398D01*
X163237669Y-95431203D01*
X163237664Y-95431206D01*
X163122455Y-95517452D01*
X163122452Y-95517455D01*
X163036206Y-95632664D01*
X163036202Y-95632671D01*
X162985908Y-95767517D01*
X162979501Y-95827116D01*
X162979500Y-95827135D01*
X162979500Y-97722870D01*
X162979501Y-97722876D01*
X162985908Y-97782483D01*
X163036202Y-97917328D01*
X163036206Y-97917335D01*
X163122452Y-98032544D01*
X163122455Y-98032547D01*
X163237664Y-98118793D01*
X163237671Y-98118797D01*
X163372517Y-98169091D01*
X163372516Y-98169091D01*
X163379444Y-98169835D01*
X163432127Y-98175500D01*
X165327872Y-98175499D01*
X165387483Y-98169091D01*
X165522331Y-98118796D01*
X165637546Y-98032546D01*
X165723796Y-97917331D01*
X165774091Y-97782483D01*
X165780500Y-97722873D01*
X165780499Y-96925517D01*
X165800183Y-96858479D01*
X165852987Y-96812724D01*
X165922146Y-96802780D01*
X165985702Y-96831805D01*
X165992180Y-96837837D01*
X168914681Y-99760338D01*
X168948166Y-99821661D01*
X168951000Y-99848019D01*
X168951000Y-101030558D01*
X168951000Y-101168546D01*
X168951000Y-101168548D01*
X168950999Y-101168548D01*
X168977918Y-101303874D01*
X168977921Y-101303884D01*
X169030722Y-101431359D01*
X169107387Y-101546097D01*
X169107388Y-101546098D01*
X170023181Y-102461890D01*
X170056666Y-102523213D01*
X170059500Y-102549571D01*
X170059500Y-113598480D01*
X170039815Y-113665519D01*
X170023181Y-113686161D01*
X169626147Y-114083194D01*
X169621345Y-114085815D01*
X169618322Y-114090376D01*
X169591009Y-114102380D01*
X169564824Y-114116679D01*
X169558037Y-114116872D01*
X169554358Y-114118490D01*
X169519068Y-114117986D01*
X169444707Y-114106208D01*
X169381572Y-114076278D01*
X169344641Y-114016967D01*
X169342488Y-113959544D01*
X169360500Y-113868994D01*
X169360500Y-113731006D01*
X169360500Y-112331007D01*
X169360500Y-112331004D01*
X169338934Y-112222591D01*
X169333580Y-112195671D01*
X169312512Y-112144809D01*
X169280776Y-112068190D01*
X169204112Y-111953454D01*
X168506545Y-111255887D01*
X168391807Y-111179222D01*
X168264332Y-111126421D01*
X168264322Y-111126418D01*
X168128996Y-111099500D01*
X168128994Y-111099500D01*
X168128993Y-111099500D01*
X163576957Y-111099500D01*
X163509918Y-111079815D01*
X163489276Y-111063181D01*
X156190825Y-103764730D01*
X156157340Y-103703407D01*
X156162324Y-103633715D01*
X156204196Y-103577782D01*
X156269660Y-103553365D01*
X156302696Y-103555431D01*
X156478994Y-103590499D01*
X156478996Y-103590500D01*
X156478997Y-103590500D01*
X156681004Y-103590500D01*
X156681005Y-103590499D01*
X156879127Y-103551091D01*
X156959798Y-103517674D01*
X157029267Y-103510205D01*
X157074658Y-103529962D01*
X157074886Y-103529546D01*
X157079540Y-103532087D01*
X157081562Y-103532967D01*
X157082669Y-103533796D01*
X157082670Y-103533796D01*
X157082671Y-103533797D01*
X157217517Y-103584091D01*
X157217516Y-103584091D01*
X157224444Y-103584835D01*
X157277127Y-103590500D01*
X158108480Y-103590499D01*
X158175519Y-103610183D01*
X158196161Y-103626818D01*
X164213453Y-109644111D01*
X164213454Y-109644112D01*
X164328192Y-109720777D01*
X164455667Y-109773578D01*
X164455672Y-109773580D01*
X164455676Y-109773580D01*
X164455677Y-109773581D01*
X164591003Y-109800500D01*
X164591006Y-109800500D01*
X164591007Y-109800500D01*
X165879699Y-109800500D01*
X165946738Y-109820185D01*
X165992493Y-109872989D01*
X165997403Y-109885492D01*
X166025186Y-109969334D01*
X166117288Y-110118656D01*
X166241344Y-110242712D01*
X166390666Y-110334814D01*
X166557203Y-110389999D01*
X166659991Y-110400500D01*
X167860008Y-110400499D01*
X167962797Y-110389999D01*
X168129334Y-110334814D01*
X168278656Y-110242712D01*
X168402712Y-110118656D01*
X168494814Y-109969334D01*
X168549999Y-109802797D01*
X168560500Y-109700009D01*
X168560499Y-108499992D01*
X168558416Y-108479605D01*
X168549999Y-108397203D01*
X168549998Y-108397200D01*
X168538725Y-108363181D01*
X168494814Y-108230666D01*
X168402712Y-108081344D01*
X168278656Y-107957288D01*
X168129334Y-107865186D01*
X167962797Y-107810001D01*
X167962795Y-107810000D01*
X167860010Y-107799500D01*
X166659998Y-107799500D01*
X166659981Y-107799501D01*
X166557203Y-107810000D01*
X166557200Y-107810001D01*
X166390668Y-107865185D01*
X166390663Y-107865187D01*
X166241342Y-107957289D01*
X166117289Y-108081342D01*
X166025187Y-108230663D01*
X166025185Y-108230668D01*
X165997405Y-108314504D01*
X165957632Y-108371949D01*
X165893116Y-108398772D01*
X165879699Y-108399500D01*
X165001519Y-108399500D01*
X164934480Y-108379815D01*
X164913838Y-108363181D01*
X158911818Y-102361161D01*
X158878333Y-102299838D01*
X158875499Y-102273480D01*
X158875499Y-101914041D01*
X162185000Y-101914041D01*
X162185000Y-101990000D01*
X162929670Y-101990000D01*
X162909925Y-102009745D01*
X162860556Y-102095255D01*
X162835000Y-102190630D01*
X162835000Y-102289370D01*
X162860556Y-102384745D01*
X162909925Y-102470255D01*
X162929670Y-102490000D01*
X162185000Y-102490000D01*
X162185000Y-102565958D01*
X162224387Y-102763974D01*
X162224390Y-102763983D01*
X162301652Y-102950513D01*
X162301659Y-102950526D01*
X162413829Y-103118399D01*
X162413832Y-103118403D01*
X162556596Y-103261167D01*
X162556600Y-103261170D01*
X162724473Y-103373340D01*
X162724486Y-103373347D01*
X162911016Y-103450609D01*
X162911025Y-103450612D01*
X162960000Y-103460353D01*
X162960000Y-102520330D01*
X162979745Y-102540075D01*
X163065255Y-102589444D01*
X163160630Y-102615000D01*
X163259370Y-102615000D01*
X163354745Y-102589444D01*
X163440255Y-102540075D01*
X163454500Y-102525830D01*
X163454500Y-102566002D01*
X163457617Y-102581671D01*
X163460000Y-102605865D01*
X163460000Y-103460352D01*
X163508974Y-103450612D01*
X163508983Y-103450609D01*
X163695515Y-103373346D01*
X163695518Y-103373344D01*
X163775658Y-103319796D01*
X163842335Y-103298917D01*
X163909716Y-103317401D01*
X163913422Y-103319783D01*
X163994244Y-103373786D01*
X164180873Y-103451091D01*
X164325179Y-103479795D01*
X164378992Y-103490499D01*
X164378996Y-103490500D01*
X164378997Y-103490500D01*
X164581004Y-103490500D01*
X164581005Y-103490499D01*
X164779127Y-103451091D01*
X164780284Y-103450612D01*
X164822879Y-103432968D01*
X164859798Y-103417674D01*
X164929267Y-103410205D01*
X164974658Y-103429962D01*
X164974886Y-103429546D01*
X164979540Y-103432087D01*
X164981562Y-103432967D01*
X164982669Y-103433796D01*
X164982670Y-103433796D01*
X164982671Y-103433797D01*
X165117517Y-103484091D01*
X165117516Y-103484091D01*
X165124444Y-103484835D01*
X165177127Y-103490500D01*
X166322872Y-103490499D01*
X166382483Y-103484091D01*
X166517331Y-103433796D01*
X166632546Y-103347546D01*
X166718796Y-103232331D01*
X166769091Y-103097483D01*
X166775500Y-103037873D01*
X166775499Y-101442128D01*
X166769091Y-101382517D01*
X166767715Y-101378829D01*
X166718797Y-101247671D01*
X166718793Y-101247664D01*
X166632547Y-101132455D01*
X166632544Y-101132452D01*
X166517335Y-101046206D01*
X166517328Y-101046202D01*
X166382482Y-100995908D01*
X166382483Y-100995908D01*
X166322883Y-100989501D01*
X166322881Y-100989500D01*
X166322873Y-100989500D01*
X166322864Y-100989500D01*
X165177129Y-100989500D01*
X165177123Y-100989501D01*
X165117516Y-100995908D01*
X164982672Y-101046202D01*
X164982665Y-101046206D01*
X164981556Y-101047037D01*
X164980258Y-101047520D01*
X164974887Y-101050454D01*
X164974465Y-101049681D01*
X164916090Y-101071449D01*
X164859800Y-101062325D01*
X164779127Y-101028909D01*
X164779119Y-101028907D01*
X164581007Y-100989500D01*
X164581003Y-100989500D01*
X164378997Y-100989500D01*
X164378992Y-100989500D01*
X164180880Y-101028907D01*
X164180872Y-101028909D01*
X163994243Y-101106214D01*
X163913439Y-101160204D01*
X163846761Y-101181081D01*
X163779382Y-101162595D01*
X163775659Y-101160203D01*
X163695526Y-101106659D01*
X163695513Y-101106652D01*
X163508984Y-101029390D01*
X163508977Y-101029388D01*
X163460000Y-101019645D01*
X163460000Y-101874134D01*
X163457617Y-101898326D01*
X163454500Y-101913995D01*
X163454500Y-101954170D01*
X163440255Y-101939925D01*
X163354745Y-101890556D01*
X163259370Y-101865000D01*
X163160630Y-101865000D01*
X163065255Y-101890556D01*
X162979745Y-101939925D01*
X162960000Y-101959670D01*
X162960000Y-101019646D01*
X162959999Y-101019645D01*
X162911022Y-101029388D01*
X162911015Y-101029390D01*
X162724486Y-101106652D01*
X162724473Y-101106659D01*
X162556600Y-101218829D01*
X162556596Y-101218832D01*
X162413832Y-101361596D01*
X162413829Y-101361600D01*
X162301659Y-101529473D01*
X162301652Y-101529486D01*
X162224390Y-101716016D01*
X162224387Y-101716025D01*
X162185000Y-101914041D01*
X158875499Y-101914041D01*
X158875499Y-101542129D01*
X158875498Y-101542123D01*
X158874138Y-101529473D01*
X158869091Y-101482517D01*
X158861289Y-101461600D01*
X158818797Y-101347671D01*
X158818793Y-101347664D01*
X158732547Y-101232455D01*
X158732544Y-101232452D01*
X158617329Y-101146202D01*
X158615068Y-101144967D01*
X158613246Y-101143145D01*
X158610231Y-101140888D01*
X158610555Y-101140454D01*
X158565665Y-101095559D01*
X158550500Y-101036138D01*
X158550500Y-98276006D01*
X158549124Y-98269091D01*
X158549123Y-98269085D01*
X158539119Y-98218793D01*
X158523580Y-98140672D01*
X158514519Y-98118796D01*
X158470777Y-98013192D01*
X158394112Y-97898454D01*
X157816818Y-97321160D01*
X157783333Y-97259837D01*
X157780499Y-97233479D01*
X157780499Y-95927129D01*
X157780498Y-95927123D01*
X157780497Y-95927116D01*
X157774091Y-95867517D01*
X157761094Y-95832671D01*
X157723797Y-95732671D01*
X157723793Y-95732664D01*
X157637547Y-95617455D01*
X157637544Y-95617452D01*
X157522335Y-95531206D01*
X157522328Y-95531202D01*
X157442419Y-95501398D01*
X157386485Y-95459527D01*
X157362068Y-95394062D01*
X157376920Y-95325789D01*
X157398069Y-95297537D01*
X157448242Y-95247365D01*
X157577815Y-95069022D01*
X157677895Y-94872606D01*
X157746015Y-94662951D01*
X157780500Y-94445222D01*
X157780500Y-94224778D01*
X157746015Y-94007049D01*
X157713524Y-93907049D01*
X157699153Y-93862817D01*
X157697158Y-93792976D01*
X157733239Y-93733144D01*
X157795940Y-93702316D01*
X157817084Y-93700500D01*
X162910425Y-93700500D01*
X162937411Y-93708424D01*
G37*
%TD.AperFunction*%
%TA.AperFunction,Conductor*%
G36*
X147109955Y-93720185D02*
G01*
X147155710Y-93772989D01*
X147165654Y-93842147D01*
X147160847Y-93862817D01*
X147113985Y-94007045D01*
X147095338Y-94124778D01*
X147079500Y-94224778D01*
X147079500Y-94445222D01*
X147096742Y-94554086D01*
X147113985Y-94662952D01*
X147182103Y-94872603D01*
X147182104Y-94872606D01*
X147282187Y-95069025D01*
X147411752Y-95247358D01*
X147411756Y-95247363D01*
X147461928Y-95297535D01*
X147495413Y-95358858D01*
X147490429Y-95428550D01*
X147448557Y-95484483D01*
X147417581Y-95501398D01*
X147337669Y-95531203D01*
X147337664Y-95531206D01*
X147222455Y-95617452D01*
X147222452Y-95617455D01*
X147136206Y-95732664D01*
X147136202Y-95732671D01*
X147085908Y-95867517D01*
X147080244Y-95920205D01*
X147079501Y-95927123D01*
X147079500Y-95927135D01*
X147079500Y-97822870D01*
X147079501Y-97822876D01*
X147085908Y-97882483D01*
X147136202Y-98017328D01*
X147136206Y-98017335D01*
X147222452Y-98132544D01*
X147222455Y-98132547D01*
X147337664Y-98218793D01*
X147337671Y-98218797D01*
X147472517Y-98269091D01*
X147472516Y-98269091D01*
X147479444Y-98269835D01*
X147532127Y-98275500D01*
X148838480Y-98275499D01*
X148905519Y-98295184D01*
X148926161Y-98311818D01*
X149213181Y-98598838D01*
X149246666Y-98660161D01*
X149249500Y-98686519D01*
X149249500Y-101036139D01*
X149246880Y-101045061D01*
X149248167Y-101054271D01*
X149237193Y-101078050D01*
X149229815Y-101103178D01*
X149222009Y-101110952D01*
X149218891Y-101117711D01*
X149200016Y-101132860D01*
X149192127Y-101140719D01*
X149184715Y-101145440D01*
X149182669Y-101146204D01*
X149177820Y-101149833D01*
X149173880Y-101152344D01*
X149144625Y-101160808D01*
X149116090Y-101171449D01*
X149110807Y-101170592D01*
X149106763Y-101171763D01*
X149093321Y-101167758D01*
X149059800Y-101162325D01*
X148979127Y-101128909D01*
X148979119Y-101128907D01*
X148781007Y-101089500D01*
X148781003Y-101089500D01*
X148578997Y-101089500D01*
X148578992Y-101089500D01*
X148380880Y-101128907D01*
X148380872Y-101128909D01*
X148194243Y-101206214D01*
X148113439Y-101260204D01*
X148046761Y-101281081D01*
X147979382Y-101262595D01*
X147975659Y-101260203D01*
X147895526Y-101206659D01*
X147895513Y-101206652D01*
X147708984Y-101129390D01*
X147708977Y-101129388D01*
X147660000Y-101119645D01*
X147660000Y-101974134D01*
X147659968Y-101976953D01*
X147659722Y-101987740D01*
X147654500Y-102013997D01*
X147654500Y-102054170D01*
X147640255Y-102039925D01*
X147554745Y-101990556D01*
X147459370Y-101965000D01*
X147360630Y-101965000D01*
X147265255Y-101990556D01*
X147179745Y-102039925D01*
X147160000Y-102059670D01*
X147160000Y-101119646D01*
X147159999Y-101119645D01*
X147111022Y-101129388D01*
X147111015Y-101129390D01*
X146924486Y-101206652D01*
X146924473Y-101206659D01*
X146756600Y-101318829D01*
X146756596Y-101318832D01*
X146613832Y-101461596D01*
X146613829Y-101461600D01*
X146501659Y-101629473D01*
X146501652Y-101629486D01*
X146462394Y-101724266D01*
X146418553Y-101778670D01*
X146352259Y-101800735D01*
X146284560Y-101783456D01*
X146260152Y-101764495D01*
X141916818Y-97421161D01*
X141883333Y-97359838D01*
X141880499Y-97333480D01*
X141880499Y-96616519D01*
X141900184Y-96549480D01*
X141916818Y-96528838D01*
X144708838Y-93736819D01*
X144770161Y-93703334D01*
X144796519Y-93700500D01*
X147042916Y-93700500D01*
X147109955Y-93720185D01*
G37*
%TD.AperFunction*%
%TA.AperFunction,Conductor*%
G36*
X155251833Y-98224079D02*
G01*
X155372517Y-98269091D01*
X155372516Y-98269091D01*
X155379444Y-98269835D01*
X155432127Y-98275500D01*
X156738480Y-98275499D01*
X156805519Y-98295184D01*
X156826161Y-98311818D01*
X157113181Y-98598838D01*
X157146666Y-98660161D01*
X157149500Y-98686519D01*
X157149500Y-101036139D01*
X157146880Y-101045061D01*
X157148167Y-101054271D01*
X157137193Y-101078050D01*
X157129815Y-101103178D01*
X157122009Y-101110952D01*
X157118891Y-101117711D01*
X157100016Y-101132860D01*
X157092127Y-101140719D01*
X157084715Y-101145440D01*
X157082669Y-101146204D01*
X157077820Y-101149833D01*
X157073880Y-101152344D01*
X157044625Y-101160808D01*
X157016090Y-101171449D01*
X157010807Y-101170592D01*
X157006763Y-101171763D01*
X156993321Y-101167758D01*
X156959800Y-101162325D01*
X156879127Y-101128909D01*
X156879119Y-101128907D01*
X156681007Y-101089500D01*
X156681003Y-101089500D01*
X156478997Y-101089500D01*
X156478992Y-101089500D01*
X156280880Y-101128907D01*
X156280872Y-101128909D01*
X156094243Y-101206214D01*
X156013439Y-101260204D01*
X155946761Y-101281081D01*
X155879382Y-101262595D01*
X155875659Y-101260203D01*
X155795526Y-101206659D01*
X155795513Y-101206652D01*
X155608984Y-101129390D01*
X155608977Y-101129388D01*
X155560000Y-101119645D01*
X155560000Y-101974134D01*
X155559968Y-101976953D01*
X155559722Y-101987740D01*
X155554500Y-102013997D01*
X155554500Y-102054170D01*
X155540255Y-102039925D01*
X155454745Y-101990556D01*
X155359370Y-101965000D01*
X155260630Y-101965000D01*
X155165255Y-101990556D01*
X155084500Y-102037179D01*
X155084500Y-98340261D01*
X155104185Y-98273222D01*
X155156989Y-98227467D01*
X155226147Y-98217523D01*
X155251833Y-98224079D01*
G37*
%TD.AperFunction*%
%TD*%
M02*
