M48
; DRILL file {KiCad 8.0.1} date 2024-05-23T13:36:46+0200
; FORMAT={-:-/ absolute / metric / decimal}
; #@! TF.CreationDate,2024-05-23T13:36:46+02:00
; #@! TF.GenerationSoftware,Kicad,Pcbnew,8.0.1
; #@! TF.FileFunction,Plated,1,2,PTH
FMAT,2
METRIC
; #@! TA.AperFunction,Plated,PTH,ViaDrill
T1C0.400
; #@! TA.AperFunction,Plated,PTH,ComponentDrill
T2C1.000
; #@! TA.AperFunction,Plated,PTH,ComponentDrill
T3C1.100
; #@! TA.AperFunction,Plated,PTH,ComponentDrill
T4C1.520
; #@! TA.AperFunction,Plated,PTH,ComponentDrill
T5C3.200
%
G90
G05
T1
X91.3Y-98.3
X93.5Y-95.7
X93.5Y-97.0
X95.6Y-93.2
X96.1Y-98.7
X98.0Y-77.4
X98.6Y-95.3
X100.3Y-102.65
X101.5Y-90.4
X103.0Y-86.2
X104.9Y-94.5
X105.7Y-93.7
X105.7Y-107.1
X106.5Y-107.9
X107.2Y-80.6
X107.55Y-101.55
X107.6Y-107.1
X108.7Y-78.4
X108.8Y-101.3
X108.9Y-98.5
X108.9Y-107.1
X109.3Y-76.8
X109.6Y-79.3
X110.2Y-107.1
X110.5Y-76.8
X111.0Y-80.9
X112.2Y-69.9
X112.3Y-72.1
X112.4Y-80.9
X113.0Y-105.8
X113.1Y-87.8
X113.1Y-97.0
X113.4Y-71.4
X114.0Y-73.6
X114.467Y-67.2
X114.8Y-71.8
X114.9Y-72.9
X114.9Y-97.0
X115.0Y-102.0
X115.3Y-71.0
X115.5Y-75.3
X115.6Y-77.6
X115.6Y-100.1
X115.9Y-73.5
X116.0Y-69.1
X116.0Y-70.2
X117.3Y-68.5
X117.5Y-76.6
X118.4Y-69.3
X118.5Y-76.9
X118.8Y-85.6
X119.1Y-106.2
X119.6Y-68.3
X119.8Y-73.5
X119.8Y-79.3
X120.7Y-68.3
X120.7Y-80.2
X121.5Y-104.2
X121.9Y-80.2
X122.0Y-68.3
X122.8Y-70.6
X122.8Y-79.5
X123.1Y-78.5
X123.4Y-72.3
X123.5Y-76.2
X123.8Y-66.082
X123.8Y-91.5
X123.9Y-70.2
X123.9Y-77.8
X124.0Y-100.1
X124.3Y-74.0
X124.8Y-69.6
X125.0Y-77.8
X125.95Y-67.95
X126.6Y-70.1
X128.0Y-85.5
X128.1Y-70.5
X128.3Y-73.2
X129.5Y-87.0
X129.55Y-80.45
X129.921Y-72.779
X131.0Y-81.0
X132.7Y-77.3
X132.9Y-73.3
X133.2Y-74.3
X134.2Y-74.7
X134.4Y-100.5
X135.9Y-75.5
X136.4Y-76.5
X138.0Y-77.0
X139.5Y-94.8
X142.9Y-73.2
X143.0Y-95.4
X145.2Y-76.5
X146.2Y-68.7
X146.2Y-72.1
X146.2Y-75.5
X148.7Y-66.1
X150.3Y-71.4
X162.7Y-67.5
X164.7Y-75.9
X164.8Y-69.7
X164.98Y-79.42
X170.4Y-90.7
T2
X93.425Y-101.72
X93.425Y-104.26
X93.425Y-106.8
X93.425Y-109.34
X93.425Y-111.88
X93.425Y-114.42
X93.425Y-116.96
X93.425Y-119.5
X95.965Y-101.72
X95.965Y-104.26
X95.965Y-106.8
X95.965Y-109.34
X95.965Y-111.88
X95.965Y-114.42
X95.965Y-116.96
X95.965Y-119.5
X99.1Y-83.945
X99.1Y-86.485
X99.1Y-89.025
X109.8Y-83.945
X109.8Y-86.485
X109.8Y-89.025
X116.6Y-111.92
X116.6Y-114.46
X116.6Y-117.0
X116.6Y-119.54
X127.5Y-95.3
X127.5Y-97.84
X127.5Y-100.38
X127.5Y-102.92
X132.22Y-109.92
X133.605Y-112.76
X134.99Y-109.92
X136.375Y-112.76
X137.76Y-109.92
X139.145Y-112.76
X140.53Y-109.92
X141.915Y-112.76
X143.3Y-109.92
X159.5Y-95.3
X159.5Y-97.84
X159.5Y-100.38
X159.5Y-102.92
X165.17Y-109.92
X166.555Y-112.76
X167.94Y-109.92
X169.325Y-112.76
X170.71Y-109.92
X172.095Y-112.76
X173.48Y-109.92
X174.865Y-112.76
X176.25Y-109.92
T3
X101.05Y-115.27
X101.05Y-119.77
X107.55Y-115.27
X107.55Y-119.77
X137.735Y-64.68
X137.735Y-67.22
X137.735Y-69.76
X137.735Y-79.58
X137.735Y-82.12
X137.735Y-84.66
X156.485Y-64.68
X156.485Y-67.22
X156.485Y-69.76
X156.485Y-79.58
X156.485Y-82.12
X156.485Y-84.66
X175.235Y-64.68
X175.235Y-67.22
X175.235Y-69.76
X175.235Y-79.58
X175.235Y-82.12
X175.235Y-84.66
T4
X93.6Y-68.08
X93.6Y-73.16
X191.5Y-69.12
X191.5Y-74.2
X191.5Y-79.28
T5
X125.26Y-111.34
X150.26Y-111.34
X158.21Y-111.34
X183.21Y-111.34
M30
