%TF.GenerationSoftware,KiCad,Pcbnew,8.0.1*%
%TF.CreationDate,2024-05-23T13:36:51+02:00*%
%TF.ProjectId,BLDCsensDrv,424c4443-7365-46e7-9344-72762e6b6963,rev?*%
%TF.SameCoordinates,Original*%
%TF.FileFunction,Paste,Top*%
%TF.FilePolarity,Positive*%
%FSLAX46Y46*%
G04 Gerber Fmt 4.6, Leading zero omitted, Abs format (unit mm)*
G04 Created by KiCad (PCBNEW 8.0.1) date 2024-05-23 13:36:51*
%MOMM*%
%LPD*%
G01*
G04 APERTURE LIST*
G04 Aperture macros list*
%AMRoundRect*
0 Rectangle with rounded corners*
0 $1 Rounding radius*
0 $2 $3 $4 $5 $6 $7 $8 $9 X,Y pos of 4 corners*
0 Add a 4 corners polygon primitive as box body*
4,1,4,$2,$3,$4,$5,$6,$7,$8,$9,$2,$3,0*
0 Add four circle primitives for the rounded corners*
1,1,$1+$1,$2,$3*
1,1,$1+$1,$4,$5*
1,1,$1+$1,$6,$7*
1,1,$1+$1,$8,$9*
0 Add four rect primitives between the rounded corners*
20,1,$1+$1,$2,$3,$4,$5,0*
20,1,$1+$1,$4,$5,$6,$7,0*
20,1,$1+$1,$6,$7,$8,$9,0*
20,1,$1+$1,$8,$9,$2,$3,0*%
G04 Aperture macros list end*
%ADD10C,0.000000*%
%ADD11RoundRect,0.250000X0.650000X-0.412500X0.650000X0.412500X-0.650000X0.412500X-0.650000X-0.412500X0*%
%ADD12RoundRect,0.250000X-0.625000X0.400000X-0.625000X-0.400000X0.625000X-0.400000X0.625000X0.400000X0*%
%ADD13RoundRect,0.250000X0.400000X0.625000X-0.400000X0.625000X-0.400000X-0.625000X0.400000X-0.625000X0*%
%ADD14RoundRect,0.250001X-0.462499X-0.624999X0.462499X-0.624999X0.462499X0.624999X-0.462499X0.624999X0*%
%ADD15RoundRect,0.250000X0.625000X-0.400000X0.625000X0.400000X-0.625000X0.400000X-0.625000X-0.400000X0*%
%ADD16RoundRect,0.250000X-0.650000X0.412500X-0.650000X-0.412500X0.650000X-0.412500X0.650000X0.412500X0*%
%ADD17R,1.475000X0.600000*%
%ADD18R,0.600000X1.475000*%
%ADD19RoundRect,0.250000X-0.400000X-0.625000X0.400000X-0.625000X0.400000X0.625000X-0.400000X0.625000X0*%
%ADD20RoundRect,0.250001X-0.624999X0.462499X-0.624999X-0.462499X0.624999X-0.462499X0.624999X0.462499X0*%
%ADD21RoundRect,0.162500X-0.837500X-0.162500X0.837500X-0.162500X0.837500X0.162500X-0.837500X0.162500X0*%
%ADD22R,0.203200X0.812800*%
%ADD23R,0.812800X0.203200*%
%ADD24R,3.810000X2.794000*%
%ADD25RoundRect,0.250000X0.412500X0.650000X-0.412500X0.650000X-0.412500X-0.650000X0.412500X-0.650000X0*%
%ADD26RoundRect,0.250000X-0.475000X0.337500X-0.475000X-0.337500X0.475000X-0.337500X0.475000X0.337500X0*%
%ADD27RoundRect,0.250000X-0.412500X-0.650000X0.412500X-0.650000X0.412500X0.650000X-0.412500X0.650000X0*%
%ADD28RoundRect,0.250001X0.624999X-0.462499X0.624999X0.462499X-0.624999X0.462499X-0.624999X-0.462499X0*%
G04 APERTURE END LIST*
D10*
%TO.C,U1*%
G36*
X119065000Y-73400000D02*
G01*
X117995000Y-73400000D01*
X117995000Y-72203000D01*
X119065000Y-72203000D01*
X119065000Y-73400000D01*
G37*
G36*
X119065000Y-74797000D02*
G01*
X117995000Y-74797000D01*
X117995000Y-73600000D01*
X119065000Y-73600000D01*
X119065000Y-74797000D01*
G37*
G36*
X120335000Y-73400000D02*
G01*
X119265000Y-73400000D01*
X119265000Y-72203000D01*
X120335000Y-72203000D01*
X120335000Y-73400000D01*
G37*
G36*
X120335000Y-74797000D02*
G01*
X119265000Y-74797000D01*
X119265000Y-73600000D01*
X120335000Y-73600000D01*
X120335000Y-74797000D01*
G37*
G36*
X121605000Y-73400000D02*
G01*
X120535000Y-73400000D01*
X120535000Y-72203000D01*
X121605000Y-72203000D01*
X121605000Y-73400000D01*
G37*
G36*
X121605000Y-74797000D02*
G01*
X120535000Y-74797000D01*
X120535000Y-73600000D01*
X121605000Y-73600000D01*
X121605000Y-74797000D01*
G37*
%TD*%
D11*
%TO.C,C111*%
X109000000Y-71882500D03*
X109000000Y-68757500D03*
%TD*%
D12*
%TO.C,R208*%
X164200000Y-101040000D03*
X164200000Y-104140000D03*
%TD*%
D11*
%TO.C,C112*%
X125400000Y-66082500D03*
X125400000Y-62957500D03*
%TD*%
D13*
%TO.C,R106*%
X170730000Y-79420000D03*
X167630000Y-79420000D03*
%TD*%
%TO.C,R101*%
X151830000Y-64320000D03*
X148730000Y-64320000D03*
%TD*%
D14*
%TO.C,D21*%
X143505000Y-97820000D03*
X146480000Y-97820000D03*
%TD*%
D15*
%TO.C,R204*%
X132400000Y-103640000D03*
X132400000Y-100540000D03*
%TD*%
D13*
%TO.C,R105*%
X153400000Y-77300000D03*
X150300000Y-77300000D03*
%TD*%
D16*
%TO.C,C113*%
X144500000Y-62887500D03*
X144500000Y-66012500D03*
%TD*%
D13*
%TO.C,R209*%
X178550000Y-103920000D03*
X175450000Y-103920000D03*
%TD*%
%TO.C,R102*%
X170730000Y-64320000D03*
X167630000Y-64320000D03*
%TD*%
D17*
%TO.C,U2*%
X102662000Y-97700000D03*
X102662000Y-98500000D03*
X102662000Y-99300000D03*
X102662000Y-100100000D03*
X102662000Y-100900000D03*
X102662000Y-101700000D03*
X102662000Y-102500000D03*
X102662000Y-103300000D03*
D18*
X104100000Y-104738000D03*
X104900000Y-104738000D03*
X105700000Y-104738000D03*
X106500000Y-104738000D03*
X107300000Y-104738000D03*
X108100000Y-104738000D03*
X108900000Y-104738000D03*
X109700000Y-104738000D03*
D17*
X111138000Y-103300000D03*
X111138000Y-102500000D03*
X111138000Y-101700000D03*
X111138000Y-100900000D03*
X111138000Y-100100000D03*
X111138000Y-99300000D03*
X111138000Y-98500000D03*
X111138000Y-97700000D03*
D18*
X109700000Y-96262000D03*
X108900000Y-96262000D03*
X108100000Y-96262000D03*
X107300000Y-96262000D03*
X106500000Y-96262000D03*
X105700000Y-96262000D03*
X104900000Y-96262000D03*
X104100000Y-96262000D03*
%TD*%
D19*
%TO.C,R116*%
X102950000Y-89000000D03*
X106050000Y-89000000D03*
%TD*%
D13*
%TO.C,R201*%
X121650000Y-91120000D03*
X118550000Y-91120000D03*
%TD*%
D20*
%TO.C,D20*%
X114900000Y-91032500D03*
X114900000Y-94007500D03*
%TD*%
D15*
%TO.C,R205*%
X132400000Y-97870000D03*
X132400000Y-94770000D03*
%TD*%
%TO.C,R107*%
X131200000Y-76100000D03*
X131200000Y-73000000D03*
%TD*%
D13*
%TO.C,R203*%
X146520000Y-103420000D03*
X143420000Y-103420000D03*
%TD*%
D21*
%TO.C,Q20*%
X136790000Y-96970000D03*
X136790000Y-97920000D03*
X136790000Y-98870000D03*
X140210000Y-98870000D03*
X140210000Y-97920000D03*
X140210000Y-96970000D03*
%TD*%
D22*
%TO.C,U1*%
X118000001Y-75443100D03*
X118400000Y-75443100D03*
X118799999Y-75443100D03*
X119200001Y-75443100D03*
X119600000Y-75443100D03*
X120000000Y-75443100D03*
X120399999Y-75443100D03*
X120800001Y-75443100D03*
X121200000Y-75443100D03*
X121599999Y-75443100D03*
D23*
X122251100Y-74900000D03*
X122251100Y-74500001D03*
X122251100Y-74099999D03*
X122251100Y-73700000D03*
X122251100Y-73300000D03*
X122251100Y-72900001D03*
X122251100Y-72499999D03*
X122251100Y-72100000D03*
D22*
X121599999Y-71556900D03*
X121200000Y-71556900D03*
X120800001Y-71556900D03*
X120399999Y-71556900D03*
X120000000Y-71556900D03*
X119600000Y-71556900D03*
X119200001Y-71556900D03*
X118799999Y-71556900D03*
X118400000Y-71556900D03*
X118000001Y-71556900D03*
D23*
X117348900Y-72100000D03*
X117348900Y-72499999D03*
X117348900Y-72900001D03*
X117348900Y-73300000D03*
X117348900Y-73700000D03*
X117348900Y-74099999D03*
X117348900Y-74500001D03*
X117348900Y-74900000D03*
D24*
X119800000Y-73500000D03*
%TD*%
D15*
%TO.C,R114*%
X121300000Y-86970000D03*
X121300000Y-83870000D03*
%TD*%
D21*
%TO.C,Q21*%
X168690000Y-97070000D03*
X168690000Y-98020000D03*
X168690000Y-98970000D03*
X172110000Y-98970000D03*
X172110000Y-98020000D03*
X172110000Y-97070000D03*
%TD*%
D16*
%TO.C,C114*%
X163300000Y-62887500D03*
X163300000Y-66012500D03*
%TD*%
D25*
%TO.C,C24*%
X178562500Y-92320000D03*
X175437500Y-92320000D03*
%TD*%
D26*
%TO.C,C20*%
X112000000Y-113082500D03*
X112000000Y-115157500D03*
%TD*%
D16*
%TO.C,C119*%
X119933332Y-62957500D03*
X119933332Y-66082500D03*
%TD*%
D27*
%TO.C,C115*%
X129987500Y-69720000D03*
X133112500Y-69720000D03*
%TD*%
D12*
%TO.C,R109*%
X126400000Y-89450000D03*
X126400000Y-92550000D03*
%TD*%
D19*
%TO.C,R115*%
X103050000Y-84000000D03*
X106150000Y-84000000D03*
%TD*%
D13*
%TO.C,R207*%
X140200000Y-92400000D03*
X137100000Y-92400000D03*
%TD*%
D19*
%TO.C,R200*%
X118450000Y-96720000D03*
X121550000Y-96720000D03*
%TD*%
D25*
%TO.C,C23*%
X146532500Y-92220000D03*
X143407500Y-92220000D03*
%TD*%
D15*
%TO.C,R212*%
X164200000Y-97970000D03*
X164200000Y-94870000D03*
%TD*%
D14*
%TO.C,D22*%
X175535000Y-97420000D03*
X178510000Y-97420000D03*
%TD*%
D13*
%TO.C,R211*%
X172050000Y-103920000D03*
X168950000Y-103920000D03*
%TD*%
D28*
%TO.C,D100*%
X126900000Y-75992500D03*
X126900000Y-73017500D03*
%TD*%
D25*
%TO.C,C22*%
X121462500Y-102400000D03*
X118337500Y-102400000D03*
%TD*%
D11*
%TO.C,C118*%
X109000000Y-66082500D03*
X109000000Y-62957500D03*
%TD*%
%TO.C,C110*%
X114466666Y-66082500D03*
X114466666Y-62957500D03*
%TD*%
D13*
%TO.C,R206*%
X140250000Y-103420000D03*
X137150000Y-103420000D03*
%TD*%
D15*
%TO.C,R104*%
X134500000Y-79600000D03*
X134500000Y-76500000D03*
%TD*%
%TO.C,R108*%
X126400000Y-87070000D03*
X126400000Y-83970000D03*
%TD*%
D19*
%TO.C,R210*%
X168950000Y-92290000D03*
X172050000Y-92290000D03*
%TD*%
D27*
%TO.C,C117*%
X167647500Y-69720000D03*
X170772500Y-69720000D03*
%TD*%
D13*
%TO.C,R100*%
X133130000Y-64320000D03*
X130030000Y-64320000D03*
%TD*%
D19*
%TO.C,R110*%
X124150000Y-79900000D03*
X127250000Y-79900000D03*
%TD*%
%TO.C,R112*%
X114650000Y-80100000D03*
X117750000Y-80100000D03*
%TD*%
D27*
%TO.C,C116*%
X148687500Y-69720000D03*
X151812500Y-69720000D03*
%TD*%
D15*
%TO.C,R113*%
X116200000Y-87170000D03*
X116200000Y-84070000D03*
%TD*%
D26*
%TO.C,C21*%
X112000000Y-117882500D03*
X112000000Y-119957500D03*
%TD*%
M02*
