%TF.GenerationSoftware,KiCad,Pcbnew,8.0.1*%
%TF.CreationDate,2024-05-23T13:36:51+02:00*%
%TF.ProjectId,BLDCsensDrv,424c4443-7365-46e7-9344-72762e6b6963,rev?*%
%TF.SameCoordinates,Original*%
%TF.FileFunction,Legend,Top*%
%TF.FilePolarity,Positive*%
%FSLAX46Y46*%
G04 Gerber Fmt 4.6, Leading zero omitted, Abs format (unit mm)*
G04 Created by KiCad (PCBNEW 8.0.1) date 2024-05-23 13:36:51*
%MOMM*%
%LPD*%
G01*
G04 APERTURE LIST*
%ADD10C,0.300000*%
%ADD11C,0.150000*%
%ADD12C,0.254000*%
%ADD13C,0.120000*%
%ADD14C,0.000000*%
%ADD15C,0.200000*%
%ADD16C,0.400000*%
%ADD17C,0.152400*%
G04 APERTURE END LIST*
D10*
X194600828Y-95145489D02*
X193100828Y-95145489D01*
X194457971Y-93574060D02*
X194529400Y-93645488D01*
X194529400Y-93645488D02*
X194600828Y-93859774D01*
X194600828Y-93859774D02*
X194600828Y-94002631D01*
X194600828Y-94002631D02*
X194529400Y-94216917D01*
X194529400Y-94216917D02*
X194386542Y-94359774D01*
X194386542Y-94359774D02*
X194243685Y-94431203D01*
X194243685Y-94431203D02*
X193957971Y-94502631D01*
X193957971Y-94502631D02*
X193743685Y-94502631D01*
X193743685Y-94502631D02*
X193457971Y-94431203D01*
X193457971Y-94431203D02*
X193315114Y-94359774D01*
X193315114Y-94359774D02*
X193172257Y-94216917D01*
X193172257Y-94216917D02*
X193100828Y-94002631D01*
X193100828Y-94002631D02*
X193100828Y-93859774D01*
X193100828Y-93859774D02*
X193172257Y-93645488D01*
X193172257Y-93645488D02*
X193243685Y-93574060D01*
X193100828Y-93145488D02*
X193100828Y-92288346D01*
X194600828Y-92716917D02*
X193100828Y-92716917D01*
X193886542Y-90859774D02*
X193815114Y-90931203D01*
X193815114Y-90931203D02*
X193743685Y-91074060D01*
X193743685Y-91074060D02*
X193743685Y-91216917D01*
X193743685Y-91216917D02*
X193815114Y-91359774D01*
X193815114Y-91359774D02*
X193886542Y-91431203D01*
X193886542Y-91431203D02*
X194029400Y-91502631D01*
X194029400Y-91502631D02*
X194172257Y-91502631D01*
X194172257Y-91502631D02*
X194315114Y-91431203D01*
X194315114Y-91431203D02*
X194386542Y-91359774D01*
X194386542Y-91359774D02*
X194457971Y-91216917D01*
X194457971Y-91216917D02*
X194457971Y-91074060D01*
X194457971Y-91074060D02*
X194386542Y-90931203D01*
X194386542Y-90931203D02*
X194315114Y-90859774D01*
X193743685Y-90859774D02*
X194315114Y-90859774D01*
X194315114Y-90859774D02*
X194386542Y-90788346D01*
X194386542Y-90788346D02*
X194386542Y-90716917D01*
X194386542Y-90716917D02*
X194315114Y-90574060D01*
X194315114Y-90574060D02*
X194172257Y-90502631D01*
X194172257Y-90502631D02*
X193815114Y-90502631D01*
X193815114Y-90502631D02*
X193600828Y-90645489D01*
X193600828Y-90645489D02*
X193457971Y-90859774D01*
X193457971Y-90859774D02*
X193386542Y-91145489D01*
X193386542Y-91145489D02*
X193457971Y-91431203D01*
X193457971Y-91431203D02*
X193600828Y-91645489D01*
X193600828Y-91645489D02*
X193815114Y-91788346D01*
X193815114Y-91788346D02*
X194100828Y-91859774D01*
X194100828Y-91859774D02*
X194386542Y-91788346D01*
X194386542Y-91788346D02*
X194600828Y-91645489D01*
X194600828Y-91645489D02*
X194743685Y-91431203D01*
X194743685Y-91431203D02*
X194815114Y-91145489D01*
X194815114Y-91145489D02*
X194743685Y-90859774D01*
X194743685Y-90859774D02*
X194600828Y-90645489D01*
X193243685Y-89931203D02*
X193172257Y-89859775D01*
X193172257Y-89859775D02*
X193100828Y-89716918D01*
X193100828Y-89716918D02*
X193100828Y-89359775D01*
X193100828Y-89359775D02*
X193172257Y-89216918D01*
X193172257Y-89216918D02*
X193243685Y-89145489D01*
X193243685Y-89145489D02*
X193386542Y-89074060D01*
X193386542Y-89074060D02*
X193529400Y-89074060D01*
X193529400Y-89074060D02*
X193743685Y-89145489D01*
X193743685Y-89145489D02*
X194600828Y-90002632D01*
X194600828Y-90002632D02*
X194600828Y-89074060D01*
X193100828Y-88145489D02*
X193100828Y-88002632D01*
X193100828Y-88002632D02*
X193172257Y-87859775D01*
X193172257Y-87859775D02*
X193243685Y-87788347D01*
X193243685Y-87788347D02*
X193386542Y-87716918D01*
X193386542Y-87716918D02*
X193672257Y-87645489D01*
X193672257Y-87645489D02*
X194029400Y-87645489D01*
X194029400Y-87645489D02*
X194315114Y-87716918D01*
X194315114Y-87716918D02*
X194457971Y-87788347D01*
X194457971Y-87788347D02*
X194529400Y-87859775D01*
X194529400Y-87859775D02*
X194600828Y-88002632D01*
X194600828Y-88002632D02*
X194600828Y-88145489D01*
X194600828Y-88145489D02*
X194529400Y-88288347D01*
X194529400Y-88288347D02*
X194457971Y-88359775D01*
X194457971Y-88359775D02*
X194315114Y-88431204D01*
X194315114Y-88431204D02*
X194029400Y-88502632D01*
X194029400Y-88502632D02*
X193672257Y-88502632D01*
X193672257Y-88502632D02*
X193386542Y-88431204D01*
X193386542Y-88431204D02*
X193243685Y-88359775D01*
X193243685Y-88359775D02*
X193172257Y-88288347D01*
X193172257Y-88288347D02*
X193100828Y-88145489D01*
X193243685Y-87074061D02*
X193172257Y-87002633D01*
X193172257Y-87002633D02*
X193100828Y-86859776D01*
X193100828Y-86859776D02*
X193100828Y-86502633D01*
X193100828Y-86502633D02*
X193172257Y-86359776D01*
X193172257Y-86359776D02*
X193243685Y-86288347D01*
X193243685Y-86288347D02*
X193386542Y-86216918D01*
X193386542Y-86216918D02*
X193529400Y-86216918D01*
X193529400Y-86216918D02*
X193743685Y-86288347D01*
X193743685Y-86288347D02*
X194600828Y-87145490D01*
X194600828Y-87145490D02*
X194600828Y-86216918D01*
X193600828Y-84931205D02*
X194600828Y-84931205D01*
X193029400Y-85288347D02*
X194100828Y-85645490D01*
X194100828Y-85645490D02*
X194100828Y-84716919D01*
X99254510Y-60100828D02*
X99254510Y-58600828D01*
X99254510Y-59315114D02*
X100111653Y-59315114D01*
X100111653Y-60100828D02*
X100111653Y-58600828D01*
X100825939Y-60100828D02*
X100825939Y-59100828D01*
X100825939Y-58600828D02*
X100754511Y-58672257D01*
X100754511Y-58672257D02*
X100825939Y-58743685D01*
X100825939Y-58743685D02*
X100897368Y-58672257D01*
X100897368Y-58672257D02*
X100825939Y-58600828D01*
X100825939Y-58600828D02*
X100825939Y-58743685D01*
X102183083Y-59100828D02*
X102183083Y-60315114D01*
X102183083Y-60315114D02*
X102111654Y-60457971D01*
X102111654Y-60457971D02*
X102040225Y-60529400D01*
X102040225Y-60529400D02*
X101897368Y-60600828D01*
X101897368Y-60600828D02*
X101683083Y-60600828D01*
X101683083Y-60600828D02*
X101540225Y-60529400D01*
X102183083Y-60029400D02*
X102040225Y-60100828D01*
X102040225Y-60100828D02*
X101754511Y-60100828D01*
X101754511Y-60100828D02*
X101611654Y-60029400D01*
X101611654Y-60029400D02*
X101540225Y-59957971D01*
X101540225Y-59957971D02*
X101468797Y-59815114D01*
X101468797Y-59815114D02*
X101468797Y-59386542D01*
X101468797Y-59386542D02*
X101540225Y-59243685D01*
X101540225Y-59243685D02*
X101611654Y-59172257D01*
X101611654Y-59172257D02*
X101754511Y-59100828D01*
X101754511Y-59100828D02*
X102040225Y-59100828D01*
X102040225Y-59100828D02*
X102183083Y-59172257D01*
X102897368Y-60100828D02*
X102897368Y-58600828D01*
X103540226Y-60100828D02*
X103540226Y-59315114D01*
X103540226Y-59315114D02*
X103468797Y-59172257D01*
X103468797Y-59172257D02*
X103325940Y-59100828D01*
X103325940Y-59100828D02*
X103111654Y-59100828D01*
X103111654Y-59100828D02*
X102968797Y-59172257D01*
X102968797Y-59172257D02*
X102897368Y-59243685D01*
X105325940Y-60029400D02*
X105540226Y-60100828D01*
X105540226Y-60100828D02*
X105897368Y-60100828D01*
X105897368Y-60100828D02*
X106040226Y-60029400D01*
X106040226Y-60029400D02*
X106111654Y-59957971D01*
X106111654Y-59957971D02*
X106183083Y-59815114D01*
X106183083Y-59815114D02*
X106183083Y-59672257D01*
X106183083Y-59672257D02*
X106111654Y-59529400D01*
X106111654Y-59529400D02*
X106040226Y-59457971D01*
X106040226Y-59457971D02*
X105897368Y-59386542D01*
X105897368Y-59386542D02*
X105611654Y-59315114D01*
X105611654Y-59315114D02*
X105468797Y-59243685D01*
X105468797Y-59243685D02*
X105397368Y-59172257D01*
X105397368Y-59172257D02*
X105325940Y-59029400D01*
X105325940Y-59029400D02*
X105325940Y-58886542D01*
X105325940Y-58886542D02*
X105397368Y-58743685D01*
X105397368Y-58743685D02*
X105468797Y-58672257D01*
X105468797Y-58672257D02*
X105611654Y-58600828D01*
X105611654Y-58600828D02*
X105968797Y-58600828D01*
X105968797Y-58600828D02*
X106183083Y-58672257D01*
X106825939Y-59100828D02*
X106825939Y-60600828D01*
X106825939Y-59172257D02*
X106968797Y-59100828D01*
X106968797Y-59100828D02*
X107254511Y-59100828D01*
X107254511Y-59100828D02*
X107397368Y-59172257D01*
X107397368Y-59172257D02*
X107468797Y-59243685D01*
X107468797Y-59243685D02*
X107540225Y-59386542D01*
X107540225Y-59386542D02*
X107540225Y-59815114D01*
X107540225Y-59815114D02*
X107468797Y-59957971D01*
X107468797Y-59957971D02*
X107397368Y-60029400D01*
X107397368Y-60029400D02*
X107254511Y-60100828D01*
X107254511Y-60100828D02*
X106968797Y-60100828D01*
X106968797Y-60100828D02*
X106825939Y-60029400D01*
X108754511Y-60029400D02*
X108611654Y-60100828D01*
X108611654Y-60100828D02*
X108325940Y-60100828D01*
X108325940Y-60100828D02*
X108183082Y-60029400D01*
X108183082Y-60029400D02*
X108111654Y-59886542D01*
X108111654Y-59886542D02*
X108111654Y-59315114D01*
X108111654Y-59315114D02*
X108183082Y-59172257D01*
X108183082Y-59172257D02*
X108325940Y-59100828D01*
X108325940Y-59100828D02*
X108611654Y-59100828D01*
X108611654Y-59100828D02*
X108754511Y-59172257D01*
X108754511Y-59172257D02*
X108825940Y-59315114D01*
X108825940Y-59315114D02*
X108825940Y-59457971D01*
X108825940Y-59457971D02*
X108111654Y-59600828D01*
X110040225Y-60029400D02*
X109897368Y-60100828D01*
X109897368Y-60100828D02*
X109611654Y-60100828D01*
X109611654Y-60100828D02*
X109468796Y-60029400D01*
X109468796Y-60029400D02*
X109397368Y-59886542D01*
X109397368Y-59886542D02*
X109397368Y-59315114D01*
X109397368Y-59315114D02*
X109468796Y-59172257D01*
X109468796Y-59172257D02*
X109611654Y-59100828D01*
X109611654Y-59100828D02*
X109897368Y-59100828D01*
X109897368Y-59100828D02*
X110040225Y-59172257D01*
X110040225Y-59172257D02*
X110111654Y-59315114D01*
X110111654Y-59315114D02*
X110111654Y-59457971D01*
X110111654Y-59457971D02*
X109397368Y-59600828D01*
X111397368Y-60100828D02*
X111397368Y-58600828D01*
X111397368Y-60029400D02*
X111254510Y-60100828D01*
X111254510Y-60100828D02*
X110968796Y-60100828D01*
X110968796Y-60100828D02*
X110825939Y-60029400D01*
X110825939Y-60029400D02*
X110754510Y-59957971D01*
X110754510Y-59957971D02*
X110683082Y-59815114D01*
X110683082Y-59815114D02*
X110683082Y-59386542D01*
X110683082Y-59386542D02*
X110754510Y-59243685D01*
X110754510Y-59243685D02*
X110825939Y-59172257D01*
X110825939Y-59172257D02*
X110968796Y-59100828D01*
X110968796Y-59100828D02*
X111254510Y-59100828D01*
X111254510Y-59100828D02*
X111397368Y-59172257D01*
X113183082Y-60029400D02*
X113397368Y-60100828D01*
X113397368Y-60100828D02*
X113754510Y-60100828D01*
X113754510Y-60100828D02*
X113897368Y-60029400D01*
X113897368Y-60029400D02*
X113968796Y-59957971D01*
X113968796Y-59957971D02*
X114040225Y-59815114D01*
X114040225Y-59815114D02*
X114040225Y-59672257D01*
X114040225Y-59672257D02*
X113968796Y-59529400D01*
X113968796Y-59529400D02*
X113897368Y-59457971D01*
X113897368Y-59457971D02*
X113754510Y-59386542D01*
X113754510Y-59386542D02*
X113468796Y-59315114D01*
X113468796Y-59315114D02*
X113325939Y-59243685D01*
X113325939Y-59243685D02*
X113254510Y-59172257D01*
X113254510Y-59172257D02*
X113183082Y-59029400D01*
X113183082Y-59029400D02*
X113183082Y-58886542D01*
X113183082Y-58886542D02*
X113254510Y-58743685D01*
X113254510Y-58743685D02*
X113325939Y-58672257D01*
X113325939Y-58672257D02*
X113468796Y-58600828D01*
X113468796Y-58600828D02*
X113825939Y-58600828D01*
X113825939Y-58600828D02*
X114040225Y-58672257D01*
X115254510Y-60029400D02*
X115111653Y-60100828D01*
X115111653Y-60100828D02*
X114825939Y-60100828D01*
X114825939Y-60100828D02*
X114683081Y-60029400D01*
X114683081Y-60029400D02*
X114611653Y-59886542D01*
X114611653Y-59886542D02*
X114611653Y-59315114D01*
X114611653Y-59315114D02*
X114683081Y-59172257D01*
X114683081Y-59172257D02*
X114825939Y-59100828D01*
X114825939Y-59100828D02*
X115111653Y-59100828D01*
X115111653Y-59100828D02*
X115254510Y-59172257D01*
X115254510Y-59172257D02*
X115325939Y-59315114D01*
X115325939Y-59315114D02*
X115325939Y-59457971D01*
X115325939Y-59457971D02*
X114611653Y-59600828D01*
X115968795Y-59100828D02*
X115968795Y-60100828D01*
X115968795Y-59243685D02*
X116040224Y-59172257D01*
X116040224Y-59172257D02*
X116183081Y-59100828D01*
X116183081Y-59100828D02*
X116397367Y-59100828D01*
X116397367Y-59100828D02*
X116540224Y-59172257D01*
X116540224Y-59172257D02*
X116611653Y-59315114D01*
X116611653Y-59315114D02*
X116611653Y-60100828D01*
X117254510Y-60029400D02*
X117397367Y-60100828D01*
X117397367Y-60100828D02*
X117683081Y-60100828D01*
X117683081Y-60100828D02*
X117825938Y-60029400D01*
X117825938Y-60029400D02*
X117897367Y-59886542D01*
X117897367Y-59886542D02*
X117897367Y-59815114D01*
X117897367Y-59815114D02*
X117825938Y-59672257D01*
X117825938Y-59672257D02*
X117683081Y-59600828D01*
X117683081Y-59600828D02*
X117468796Y-59600828D01*
X117468796Y-59600828D02*
X117325938Y-59529400D01*
X117325938Y-59529400D02*
X117254510Y-59386542D01*
X117254510Y-59386542D02*
X117254510Y-59315114D01*
X117254510Y-59315114D02*
X117325938Y-59172257D01*
X117325938Y-59172257D02*
X117468796Y-59100828D01*
X117468796Y-59100828D02*
X117683081Y-59100828D01*
X117683081Y-59100828D02*
X117825938Y-59172257D01*
X118754510Y-60100828D02*
X118611653Y-60029400D01*
X118611653Y-60029400D02*
X118540224Y-59957971D01*
X118540224Y-59957971D02*
X118468796Y-59815114D01*
X118468796Y-59815114D02*
X118468796Y-59386542D01*
X118468796Y-59386542D02*
X118540224Y-59243685D01*
X118540224Y-59243685D02*
X118611653Y-59172257D01*
X118611653Y-59172257D02*
X118754510Y-59100828D01*
X118754510Y-59100828D02*
X118968796Y-59100828D01*
X118968796Y-59100828D02*
X119111653Y-59172257D01*
X119111653Y-59172257D02*
X119183082Y-59243685D01*
X119183082Y-59243685D02*
X119254510Y-59386542D01*
X119254510Y-59386542D02*
X119254510Y-59815114D01*
X119254510Y-59815114D02*
X119183082Y-59957971D01*
X119183082Y-59957971D02*
X119111653Y-60029400D01*
X119111653Y-60029400D02*
X118968796Y-60100828D01*
X118968796Y-60100828D02*
X118754510Y-60100828D01*
X119897367Y-60100828D02*
X119897367Y-59100828D01*
X119897367Y-59386542D02*
X119968796Y-59243685D01*
X119968796Y-59243685D02*
X120040225Y-59172257D01*
X120040225Y-59172257D02*
X120183082Y-59100828D01*
X120183082Y-59100828D02*
X120325939Y-59100828D01*
X121040224Y-60100828D02*
X120897367Y-60029400D01*
X120897367Y-60029400D02*
X120825938Y-59886542D01*
X120825938Y-59886542D02*
X120825938Y-58600828D01*
X122183081Y-60029400D02*
X122040224Y-60100828D01*
X122040224Y-60100828D02*
X121754510Y-60100828D01*
X121754510Y-60100828D02*
X121611652Y-60029400D01*
X121611652Y-60029400D02*
X121540224Y-59886542D01*
X121540224Y-59886542D02*
X121540224Y-59315114D01*
X121540224Y-59315114D02*
X121611652Y-59172257D01*
X121611652Y-59172257D02*
X121754510Y-59100828D01*
X121754510Y-59100828D02*
X122040224Y-59100828D01*
X122040224Y-59100828D02*
X122183081Y-59172257D01*
X122183081Y-59172257D02*
X122254510Y-59315114D01*
X122254510Y-59315114D02*
X122254510Y-59457971D01*
X122254510Y-59457971D02*
X121540224Y-59600828D01*
X122825938Y-60029400D02*
X122968795Y-60100828D01*
X122968795Y-60100828D02*
X123254509Y-60100828D01*
X123254509Y-60100828D02*
X123397366Y-60029400D01*
X123397366Y-60029400D02*
X123468795Y-59886542D01*
X123468795Y-59886542D02*
X123468795Y-59815114D01*
X123468795Y-59815114D02*
X123397366Y-59672257D01*
X123397366Y-59672257D02*
X123254509Y-59600828D01*
X123254509Y-59600828D02*
X123040224Y-59600828D01*
X123040224Y-59600828D02*
X122897366Y-59529400D01*
X122897366Y-59529400D02*
X122825938Y-59386542D01*
X122825938Y-59386542D02*
X122825938Y-59315114D01*
X122825938Y-59315114D02*
X122897366Y-59172257D01*
X122897366Y-59172257D02*
X123040224Y-59100828D01*
X123040224Y-59100828D02*
X123254509Y-59100828D01*
X123254509Y-59100828D02*
X123397366Y-59172257D01*
X124040224Y-60029400D02*
X124183081Y-60100828D01*
X124183081Y-60100828D02*
X124468795Y-60100828D01*
X124468795Y-60100828D02*
X124611652Y-60029400D01*
X124611652Y-60029400D02*
X124683081Y-59886542D01*
X124683081Y-59886542D02*
X124683081Y-59815114D01*
X124683081Y-59815114D02*
X124611652Y-59672257D01*
X124611652Y-59672257D02*
X124468795Y-59600828D01*
X124468795Y-59600828D02*
X124254510Y-59600828D01*
X124254510Y-59600828D02*
X124111652Y-59529400D01*
X124111652Y-59529400D02*
X124040224Y-59386542D01*
X124040224Y-59386542D02*
X124040224Y-59315114D01*
X124040224Y-59315114D02*
X124111652Y-59172257D01*
X124111652Y-59172257D02*
X124254510Y-59100828D01*
X124254510Y-59100828D02*
X124468795Y-59100828D01*
X124468795Y-59100828D02*
X124611652Y-59172257D01*
X126254510Y-58600828D02*
X127111653Y-58600828D01*
X126683081Y-60100828D02*
X126683081Y-58600828D01*
X127611652Y-60100828D02*
X127611652Y-59100828D01*
X127611652Y-59386542D02*
X127683081Y-59243685D01*
X127683081Y-59243685D02*
X127754510Y-59172257D01*
X127754510Y-59172257D02*
X127897367Y-59100828D01*
X127897367Y-59100828D02*
X128040224Y-59100828D01*
X129183081Y-60100828D02*
X129183081Y-59315114D01*
X129183081Y-59315114D02*
X129111652Y-59172257D01*
X129111652Y-59172257D02*
X128968795Y-59100828D01*
X128968795Y-59100828D02*
X128683081Y-59100828D01*
X128683081Y-59100828D02*
X128540223Y-59172257D01*
X129183081Y-60029400D02*
X129040223Y-60100828D01*
X129040223Y-60100828D02*
X128683081Y-60100828D01*
X128683081Y-60100828D02*
X128540223Y-60029400D01*
X128540223Y-60029400D02*
X128468795Y-59886542D01*
X128468795Y-59886542D02*
X128468795Y-59743685D01*
X128468795Y-59743685D02*
X128540223Y-59600828D01*
X128540223Y-59600828D02*
X128683081Y-59529400D01*
X128683081Y-59529400D02*
X129040223Y-59529400D01*
X129040223Y-59529400D02*
X129183081Y-59457971D01*
X129897366Y-59100828D02*
X129897366Y-60600828D01*
X129897366Y-59172257D02*
X130040224Y-59100828D01*
X130040224Y-59100828D02*
X130325938Y-59100828D01*
X130325938Y-59100828D02*
X130468795Y-59172257D01*
X130468795Y-59172257D02*
X130540224Y-59243685D01*
X130540224Y-59243685D02*
X130611652Y-59386542D01*
X130611652Y-59386542D02*
X130611652Y-59815114D01*
X130611652Y-59815114D02*
X130540224Y-59957971D01*
X130540224Y-59957971D02*
X130468795Y-60029400D01*
X130468795Y-60029400D02*
X130325938Y-60100828D01*
X130325938Y-60100828D02*
X130040224Y-60100828D01*
X130040224Y-60100828D02*
X129897366Y-60029400D01*
X131825938Y-60029400D02*
X131683081Y-60100828D01*
X131683081Y-60100828D02*
X131397367Y-60100828D01*
X131397367Y-60100828D02*
X131254509Y-60029400D01*
X131254509Y-60029400D02*
X131183081Y-59886542D01*
X131183081Y-59886542D02*
X131183081Y-59315114D01*
X131183081Y-59315114D02*
X131254509Y-59172257D01*
X131254509Y-59172257D02*
X131397367Y-59100828D01*
X131397367Y-59100828D02*
X131683081Y-59100828D01*
X131683081Y-59100828D02*
X131825938Y-59172257D01*
X131825938Y-59172257D02*
X131897367Y-59315114D01*
X131897367Y-59315114D02*
X131897367Y-59457971D01*
X131897367Y-59457971D02*
X131183081Y-59600828D01*
X132397366Y-59100828D02*
X133183081Y-59100828D01*
X133183081Y-59100828D02*
X132397366Y-60100828D01*
X132397366Y-60100828D02*
X133183081Y-60100828D01*
X133968795Y-60100828D02*
X133825938Y-60029400D01*
X133825938Y-60029400D02*
X133754509Y-59957971D01*
X133754509Y-59957971D02*
X133683081Y-59815114D01*
X133683081Y-59815114D02*
X133683081Y-59386542D01*
X133683081Y-59386542D02*
X133754509Y-59243685D01*
X133754509Y-59243685D02*
X133825938Y-59172257D01*
X133825938Y-59172257D02*
X133968795Y-59100828D01*
X133968795Y-59100828D02*
X134183081Y-59100828D01*
X134183081Y-59100828D02*
X134325938Y-59172257D01*
X134325938Y-59172257D02*
X134397367Y-59243685D01*
X134397367Y-59243685D02*
X134468795Y-59386542D01*
X134468795Y-59386542D02*
X134468795Y-59815114D01*
X134468795Y-59815114D02*
X134397367Y-59957971D01*
X134397367Y-59957971D02*
X134325938Y-60029400D01*
X134325938Y-60029400D02*
X134183081Y-60100828D01*
X134183081Y-60100828D02*
X133968795Y-60100828D01*
X135111652Y-60100828D02*
X135111652Y-59100828D01*
X135111652Y-58600828D02*
X135040224Y-58672257D01*
X135040224Y-58672257D02*
X135111652Y-58743685D01*
X135111652Y-58743685D02*
X135183081Y-58672257D01*
X135183081Y-58672257D02*
X135111652Y-58600828D01*
X135111652Y-58600828D02*
X135111652Y-58743685D01*
X136468796Y-60100828D02*
X136468796Y-58600828D01*
X136468796Y-60029400D02*
X136325938Y-60100828D01*
X136325938Y-60100828D02*
X136040224Y-60100828D01*
X136040224Y-60100828D02*
X135897367Y-60029400D01*
X135897367Y-60029400D02*
X135825938Y-59957971D01*
X135825938Y-59957971D02*
X135754510Y-59815114D01*
X135754510Y-59815114D02*
X135754510Y-59386542D01*
X135754510Y-59386542D02*
X135825938Y-59243685D01*
X135825938Y-59243685D02*
X135897367Y-59172257D01*
X135897367Y-59172257D02*
X136040224Y-59100828D01*
X136040224Y-59100828D02*
X136325938Y-59100828D01*
X136325938Y-59100828D02*
X136468796Y-59172257D01*
X137825939Y-60100828D02*
X137825939Y-59315114D01*
X137825939Y-59315114D02*
X137754510Y-59172257D01*
X137754510Y-59172257D02*
X137611653Y-59100828D01*
X137611653Y-59100828D02*
X137325939Y-59100828D01*
X137325939Y-59100828D02*
X137183081Y-59172257D01*
X137825939Y-60029400D02*
X137683081Y-60100828D01*
X137683081Y-60100828D02*
X137325939Y-60100828D01*
X137325939Y-60100828D02*
X137183081Y-60029400D01*
X137183081Y-60029400D02*
X137111653Y-59886542D01*
X137111653Y-59886542D02*
X137111653Y-59743685D01*
X137111653Y-59743685D02*
X137183081Y-59600828D01*
X137183081Y-59600828D02*
X137325939Y-59529400D01*
X137325939Y-59529400D02*
X137683081Y-59529400D01*
X137683081Y-59529400D02*
X137825939Y-59457971D01*
X138754510Y-60100828D02*
X138611653Y-60029400D01*
X138611653Y-60029400D02*
X138540224Y-59886542D01*
X138540224Y-59886542D02*
X138540224Y-58600828D01*
X141325938Y-59957971D02*
X141254510Y-60029400D01*
X141254510Y-60029400D02*
X141040224Y-60100828D01*
X141040224Y-60100828D02*
X140897367Y-60100828D01*
X140897367Y-60100828D02*
X140683081Y-60029400D01*
X140683081Y-60029400D02*
X140540224Y-59886542D01*
X140540224Y-59886542D02*
X140468795Y-59743685D01*
X140468795Y-59743685D02*
X140397367Y-59457971D01*
X140397367Y-59457971D02*
X140397367Y-59243685D01*
X140397367Y-59243685D02*
X140468795Y-58957971D01*
X140468795Y-58957971D02*
X140540224Y-58815114D01*
X140540224Y-58815114D02*
X140683081Y-58672257D01*
X140683081Y-58672257D02*
X140897367Y-58600828D01*
X140897367Y-58600828D02*
X141040224Y-58600828D01*
X141040224Y-58600828D02*
X141254510Y-58672257D01*
X141254510Y-58672257D02*
X141325938Y-58743685D01*
X142183081Y-60100828D02*
X142040224Y-60029400D01*
X142040224Y-60029400D02*
X141968795Y-59957971D01*
X141968795Y-59957971D02*
X141897367Y-59815114D01*
X141897367Y-59815114D02*
X141897367Y-59386542D01*
X141897367Y-59386542D02*
X141968795Y-59243685D01*
X141968795Y-59243685D02*
X142040224Y-59172257D01*
X142040224Y-59172257D02*
X142183081Y-59100828D01*
X142183081Y-59100828D02*
X142397367Y-59100828D01*
X142397367Y-59100828D02*
X142540224Y-59172257D01*
X142540224Y-59172257D02*
X142611653Y-59243685D01*
X142611653Y-59243685D02*
X142683081Y-59386542D01*
X142683081Y-59386542D02*
X142683081Y-59815114D01*
X142683081Y-59815114D02*
X142611653Y-59957971D01*
X142611653Y-59957971D02*
X142540224Y-60029400D01*
X142540224Y-60029400D02*
X142397367Y-60100828D01*
X142397367Y-60100828D02*
X142183081Y-60100828D01*
X143325938Y-59100828D02*
X143325938Y-60100828D01*
X143325938Y-59243685D02*
X143397367Y-59172257D01*
X143397367Y-59172257D02*
X143540224Y-59100828D01*
X143540224Y-59100828D02*
X143754510Y-59100828D01*
X143754510Y-59100828D02*
X143897367Y-59172257D01*
X143897367Y-59172257D02*
X143968796Y-59315114D01*
X143968796Y-59315114D02*
X143968796Y-60100828D01*
X144468796Y-59100828D02*
X145040224Y-59100828D01*
X144683081Y-58600828D02*
X144683081Y-59886542D01*
X144683081Y-59886542D02*
X144754510Y-60029400D01*
X144754510Y-60029400D02*
X144897367Y-60100828D01*
X144897367Y-60100828D02*
X145040224Y-60100828D01*
X145540224Y-60100828D02*
X145540224Y-59100828D01*
X145540224Y-59386542D02*
X145611653Y-59243685D01*
X145611653Y-59243685D02*
X145683082Y-59172257D01*
X145683082Y-59172257D02*
X145825939Y-59100828D01*
X145825939Y-59100828D02*
X145968796Y-59100828D01*
X146683081Y-60100828D02*
X146540224Y-60029400D01*
X146540224Y-60029400D02*
X146468795Y-59957971D01*
X146468795Y-59957971D02*
X146397367Y-59815114D01*
X146397367Y-59815114D02*
X146397367Y-59386542D01*
X146397367Y-59386542D02*
X146468795Y-59243685D01*
X146468795Y-59243685D02*
X146540224Y-59172257D01*
X146540224Y-59172257D02*
X146683081Y-59100828D01*
X146683081Y-59100828D02*
X146897367Y-59100828D01*
X146897367Y-59100828D02*
X147040224Y-59172257D01*
X147040224Y-59172257D02*
X147111653Y-59243685D01*
X147111653Y-59243685D02*
X147183081Y-59386542D01*
X147183081Y-59386542D02*
X147183081Y-59815114D01*
X147183081Y-59815114D02*
X147111653Y-59957971D01*
X147111653Y-59957971D02*
X147040224Y-60029400D01*
X147040224Y-60029400D02*
X146897367Y-60100828D01*
X146897367Y-60100828D02*
X146683081Y-60100828D01*
X148040224Y-60100828D02*
X147897367Y-60029400D01*
X147897367Y-60029400D02*
X147825938Y-59886542D01*
X147825938Y-59886542D02*
X147825938Y-58600828D01*
X149540224Y-58600828D02*
X150397367Y-58600828D01*
X149968795Y-60100828D02*
X149968795Y-58600828D01*
X150897366Y-60100828D02*
X150897366Y-58600828D01*
X151540224Y-60100828D02*
X151540224Y-59315114D01*
X151540224Y-59315114D02*
X151468795Y-59172257D01*
X151468795Y-59172257D02*
X151325938Y-59100828D01*
X151325938Y-59100828D02*
X151111652Y-59100828D01*
X151111652Y-59100828D02*
X150968795Y-59172257D01*
X150968795Y-59172257D02*
X150897366Y-59243685D01*
X152254509Y-60100828D02*
X152254509Y-59100828D01*
X152254509Y-59386542D02*
X152325938Y-59243685D01*
X152325938Y-59243685D02*
X152397367Y-59172257D01*
X152397367Y-59172257D02*
X152540224Y-59100828D01*
X152540224Y-59100828D02*
X152683081Y-59100828D01*
X153754509Y-60029400D02*
X153611652Y-60100828D01*
X153611652Y-60100828D02*
X153325938Y-60100828D01*
X153325938Y-60100828D02*
X153183080Y-60029400D01*
X153183080Y-60029400D02*
X153111652Y-59886542D01*
X153111652Y-59886542D02*
X153111652Y-59315114D01*
X153111652Y-59315114D02*
X153183080Y-59172257D01*
X153183080Y-59172257D02*
X153325938Y-59100828D01*
X153325938Y-59100828D02*
X153611652Y-59100828D01*
X153611652Y-59100828D02*
X153754509Y-59172257D01*
X153754509Y-59172257D02*
X153825938Y-59315114D01*
X153825938Y-59315114D02*
X153825938Y-59457971D01*
X153825938Y-59457971D02*
X153111652Y-59600828D01*
X155040223Y-60029400D02*
X154897366Y-60100828D01*
X154897366Y-60100828D02*
X154611652Y-60100828D01*
X154611652Y-60100828D02*
X154468794Y-60029400D01*
X154468794Y-60029400D02*
X154397366Y-59886542D01*
X154397366Y-59886542D02*
X154397366Y-59315114D01*
X154397366Y-59315114D02*
X154468794Y-59172257D01*
X154468794Y-59172257D02*
X154611652Y-59100828D01*
X154611652Y-59100828D02*
X154897366Y-59100828D01*
X154897366Y-59100828D02*
X155040223Y-59172257D01*
X155040223Y-59172257D02*
X155111652Y-59315114D01*
X155111652Y-59315114D02*
X155111652Y-59457971D01*
X155111652Y-59457971D02*
X154397366Y-59600828D01*
X155754508Y-59529400D02*
X156897366Y-59529400D01*
X157611651Y-59100828D02*
X157611651Y-60600828D01*
X157611651Y-59172257D02*
X157754509Y-59100828D01*
X157754509Y-59100828D02*
X158040223Y-59100828D01*
X158040223Y-59100828D02*
X158183080Y-59172257D01*
X158183080Y-59172257D02*
X158254509Y-59243685D01*
X158254509Y-59243685D02*
X158325937Y-59386542D01*
X158325937Y-59386542D02*
X158325937Y-59815114D01*
X158325937Y-59815114D02*
X158254509Y-59957971D01*
X158254509Y-59957971D02*
X158183080Y-60029400D01*
X158183080Y-60029400D02*
X158040223Y-60100828D01*
X158040223Y-60100828D02*
X157754509Y-60100828D01*
X157754509Y-60100828D02*
X157611651Y-60029400D01*
X158968794Y-60100828D02*
X158968794Y-58600828D01*
X159611652Y-60100828D02*
X159611652Y-59315114D01*
X159611652Y-59315114D02*
X159540223Y-59172257D01*
X159540223Y-59172257D02*
X159397366Y-59100828D01*
X159397366Y-59100828D02*
X159183080Y-59100828D01*
X159183080Y-59100828D02*
X159040223Y-59172257D01*
X159040223Y-59172257D02*
X158968794Y-59243685D01*
X160968795Y-60100828D02*
X160968795Y-59315114D01*
X160968795Y-59315114D02*
X160897366Y-59172257D01*
X160897366Y-59172257D02*
X160754509Y-59100828D01*
X160754509Y-59100828D02*
X160468795Y-59100828D01*
X160468795Y-59100828D02*
X160325937Y-59172257D01*
X160968795Y-60029400D02*
X160825937Y-60100828D01*
X160825937Y-60100828D02*
X160468795Y-60100828D01*
X160468795Y-60100828D02*
X160325937Y-60029400D01*
X160325937Y-60029400D02*
X160254509Y-59886542D01*
X160254509Y-59886542D02*
X160254509Y-59743685D01*
X160254509Y-59743685D02*
X160325937Y-59600828D01*
X160325937Y-59600828D02*
X160468795Y-59529400D01*
X160468795Y-59529400D02*
X160825937Y-59529400D01*
X160825937Y-59529400D02*
X160968795Y-59457971D01*
X161611652Y-60029400D02*
X161754509Y-60100828D01*
X161754509Y-60100828D02*
X162040223Y-60100828D01*
X162040223Y-60100828D02*
X162183080Y-60029400D01*
X162183080Y-60029400D02*
X162254509Y-59886542D01*
X162254509Y-59886542D02*
X162254509Y-59815114D01*
X162254509Y-59815114D02*
X162183080Y-59672257D01*
X162183080Y-59672257D02*
X162040223Y-59600828D01*
X162040223Y-59600828D02*
X161825938Y-59600828D01*
X161825938Y-59600828D02*
X161683080Y-59529400D01*
X161683080Y-59529400D02*
X161611652Y-59386542D01*
X161611652Y-59386542D02*
X161611652Y-59315114D01*
X161611652Y-59315114D02*
X161683080Y-59172257D01*
X161683080Y-59172257D02*
X161825938Y-59100828D01*
X161825938Y-59100828D02*
X162040223Y-59100828D01*
X162040223Y-59100828D02*
X162183080Y-59172257D01*
X163468795Y-60029400D02*
X163325938Y-60100828D01*
X163325938Y-60100828D02*
X163040224Y-60100828D01*
X163040224Y-60100828D02*
X162897366Y-60029400D01*
X162897366Y-60029400D02*
X162825938Y-59886542D01*
X162825938Y-59886542D02*
X162825938Y-59315114D01*
X162825938Y-59315114D02*
X162897366Y-59172257D01*
X162897366Y-59172257D02*
X163040224Y-59100828D01*
X163040224Y-59100828D02*
X163325938Y-59100828D01*
X163325938Y-59100828D02*
X163468795Y-59172257D01*
X163468795Y-59172257D02*
X163540224Y-59315114D01*
X163540224Y-59315114D02*
X163540224Y-59457971D01*
X163540224Y-59457971D02*
X162825938Y-59600828D01*
X165825937Y-59315114D02*
X166040223Y-59386542D01*
X166040223Y-59386542D02*
X166111652Y-59457971D01*
X166111652Y-59457971D02*
X166183080Y-59600828D01*
X166183080Y-59600828D02*
X166183080Y-59815114D01*
X166183080Y-59815114D02*
X166111652Y-59957971D01*
X166111652Y-59957971D02*
X166040223Y-60029400D01*
X166040223Y-60029400D02*
X165897366Y-60100828D01*
X165897366Y-60100828D02*
X165325937Y-60100828D01*
X165325937Y-60100828D02*
X165325937Y-58600828D01*
X165325937Y-58600828D02*
X165825937Y-58600828D01*
X165825937Y-58600828D02*
X165968795Y-58672257D01*
X165968795Y-58672257D02*
X166040223Y-58743685D01*
X166040223Y-58743685D02*
X166111652Y-58886542D01*
X166111652Y-58886542D02*
X166111652Y-59029400D01*
X166111652Y-59029400D02*
X166040223Y-59172257D01*
X166040223Y-59172257D02*
X165968795Y-59243685D01*
X165968795Y-59243685D02*
X165825937Y-59315114D01*
X165825937Y-59315114D02*
X165325937Y-59315114D01*
X167540223Y-60100828D02*
X166825937Y-60100828D01*
X166825937Y-60100828D02*
X166825937Y-58600828D01*
X168040223Y-60100828D02*
X168040223Y-58600828D01*
X168040223Y-58600828D02*
X168397366Y-58600828D01*
X168397366Y-58600828D02*
X168611652Y-58672257D01*
X168611652Y-58672257D02*
X168754509Y-58815114D01*
X168754509Y-58815114D02*
X168825938Y-58957971D01*
X168825938Y-58957971D02*
X168897366Y-59243685D01*
X168897366Y-59243685D02*
X168897366Y-59457971D01*
X168897366Y-59457971D02*
X168825938Y-59743685D01*
X168825938Y-59743685D02*
X168754509Y-59886542D01*
X168754509Y-59886542D02*
X168611652Y-60029400D01*
X168611652Y-60029400D02*
X168397366Y-60100828D01*
X168397366Y-60100828D02*
X168040223Y-60100828D01*
X170397366Y-59957971D02*
X170325938Y-60029400D01*
X170325938Y-60029400D02*
X170111652Y-60100828D01*
X170111652Y-60100828D02*
X169968795Y-60100828D01*
X169968795Y-60100828D02*
X169754509Y-60029400D01*
X169754509Y-60029400D02*
X169611652Y-59886542D01*
X169611652Y-59886542D02*
X169540223Y-59743685D01*
X169540223Y-59743685D02*
X169468795Y-59457971D01*
X169468795Y-59457971D02*
X169468795Y-59243685D01*
X169468795Y-59243685D02*
X169540223Y-58957971D01*
X169540223Y-58957971D02*
X169611652Y-58815114D01*
X169611652Y-58815114D02*
X169754509Y-58672257D01*
X169754509Y-58672257D02*
X169968795Y-58600828D01*
X169968795Y-58600828D02*
X170111652Y-58600828D01*
X170111652Y-58600828D02*
X170325938Y-58672257D01*
X170325938Y-58672257D02*
X170397366Y-58743685D01*
X172968795Y-58672257D02*
X172825938Y-58600828D01*
X172825938Y-58600828D02*
X172611652Y-58600828D01*
X172611652Y-58600828D02*
X172397366Y-58672257D01*
X172397366Y-58672257D02*
X172254509Y-58815114D01*
X172254509Y-58815114D02*
X172183080Y-58957971D01*
X172183080Y-58957971D02*
X172111652Y-59243685D01*
X172111652Y-59243685D02*
X172111652Y-59457971D01*
X172111652Y-59457971D02*
X172183080Y-59743685D01*
X172183080Y-59743685D02*
X172254509Y-59886542D01*
X172254509Y-59886542D02*
X172397366Y-60029400D01*
X172397366Y-60029400D02*
X172611652Y-60100828D01*
X172611652Y-60100828D02*
X172754509Y-60100828D01*
X172754509Y-60100828D02*
X172968795Y-60029400D01*
X172968795Y-60029400D02*
X173040223Y-59957971D01*
X173040223Y-59957971D02*
X173040223Y-59457971D01*
X173040223Y-59457971D02*
X172754509Y-59457971D01*
X174325938Y-60100828D02*
X174325938Y-59315114D01*
X174325938Y-59315114D02*
X174254509Y-59172257D01*
X174254509Y-59172257D02*
X174111652Y-59100828D01*
X174111652Y-59100828D02*
X173825938Y-59100828D01*
X173825938Y-59100828D02*
X173683080Y-59172257D01*
X174325938Y-60029400D02*
X174183080Y-60100828D01*
X174183080Y-60100828D02*
X173825938Y-60100828D01*
X173825938Y-60100828D02*
X173683080Y-60029400D01*
X173683080Y-60029400D02*
X173611652Y-59886542D01*
X173611652Y-59886542D02*
X173611652Y-59743685D01*
X173611652Y-59743685D02*
X173683080Y-59600828D01*
X173683080Y-59600828D02*
X173825938Y-59529400D01*
X173825938Y-59529400D02*
X174183080Y-59529400D01*
X174183080Y-59529400D02*
X174325938Y-59457971D01*
X174825938Y-59100828D02*
X175397366Y-59100828D01*
X175040223Y-58600828D02*
X175040223Y-59886542D01*
X175040223Y-59886542D02*
X175111652Y-60029400D01*
X175111652Y-60029400D02*
X175254509Y-60100828D01*
X175254509Y-60100828D02*
X175397366Y-60100828D01*
X176468795Y-60029400D02*
X176325938Y-60100828D01*
X176325938Y-60100828D02*
X176040224Y-60100828D01*
X176040224Y-60100828D02*
X175897366Y-60029400D01*
X175897366Y-60029400D02*
X175825938Y-59886542D01*
X175825938Y-59886542D02*
X175825938Y-59315114D01*
X175825938Y-59315114D02*
X175897366Y-59172257D01*
X175897366Y-59172257D02*
X176040224Y-59100828D01*
X176040224Y-59100828D02*
X176325938Y-59100828D01*
X176325938Y-59100828D02*
X176468795Y-59172257D01*
X176468795Y-59172257D02*
X176540224Y-59315114D01*
X176540224Y-59315114D02*
X176540224Y-59457971D01*
X176540224Y-59457971D02*
X175825938Y-59600828D01*
X178325937Y-60100828D02*
X178325937Y-58600828D01*
X178325937Y-58600828D02*
X178683080Y-58600828D01*
X178683080Y-58600828D02*
X178897366Y-58672257D01*
X178897366Y-58672257D02*
X179040223Y-58815114D01*
X179040223Y-58815114D02*
X179111652Y-58957971D01*
X179111652Y-58957971D02*
X179183080Y-59243685D01*
X179183080Y-59243685D02*
X179183080Y-59457971D01*
X179183080Y-59457971D02*
X179111652Y-59743685D01*
X179111652Y-59743685D02*
X179040223Y-59886542D01*
X179040223Y-59886542D02*
X178897366Y-60029400D01*
X178897366Y-60029400D02*
X178683080Y-60100828D01*
X178683080Y-60100828D02*
X178325937Y-60100828D01*
X179825937Y-60100828D02*
X179825937Y-59100828D01*
X179825937Y-59386542D02*
X179897366Y-59243685D01*
X179897366Y-59243685D02*
X179968795Y-59172257D01*
X179968795Y-59172257D02*
X180111652Y-59100828D01*
X180111652Y-59100828D02*
X180254509Y-59100828D01*
X180754508Y-60100828D02*
X180754508Y-59100828D01*
X180754508Y-58600828D02*
X180683080Y-58672257D01*
X180683080Y-58672257D02*
X180754508Y-58743685D01*
X180754508Y-58743685D02*
X180825937Y-58672257D01*
X180825937Y-58672257D02*
X180754508Y-58600828D01*
X180754508Y-58600828D02*
X180754508Y-58743685D01*
X181325937Y-59100828D02*
X181683080Y-60100828D01*
X181683080Y-60100828D02*
X182040223Y-59100828D01*
X183183080Y-60029400D02*
X183040223Y-60100828D01*
X183040223Y-60100828D02*
X182754509Y-60100828D01*
X182754509Y-60100828D02*
X182611651Y-60029400D01*
X182611651Y-60029400D02*
X182540223Y-59886542D01*
X182540223Y-59886542D02*
X182540223Y-59315114D01*
X182540223Y-59315114D02*
X182611651Y-59172257D01*
X182611651Y-59172257D02*
X182754509Y-59100828D01*
X182754509Y-59100828D02*
X183040223Y-59100828D01*
X183040223Y-59100828D02*
X183183080Y-59172257D01*
X183183080Y-59172257D02*
X183254509Y-59315114D01*
X183254509Y-59315114D02*
X183254509Y-59457971D01*
X183254509Y-59457971D02*
X182540223Y-59600828D01*
X183897365Y-60100828D02*
X183897365Y-59100828D01*
X183897365Y-59386542D02*
X183968794Y-59243685D01*
X183968794Y-59243685D02*
X184040223Y-59172257D01*
X184040223Y-59172257D02*
X184183080Y-59100828D01*
X184183080Y-59100828D02*
X184325937Y-59100828D01*
D11*
X107509580Y-71439047D02*
X107557200Y-71486666D01*
X107557200Y-71486666D02*
X107604819Y-71629523D01*
X107604819Y-71629523D02*
X107604819Y-71724761D01*
X107604819Y-71724761D02*
X107557200Y-71867618D01*
X107557200Y-71867618D02*
X107461961Y-71962856D01*
X107461961Y-71962856D02*
X107366723Y-72010475D01*
X107366723Y-72010475D02*
X107176247Y-72058094D01*
X107176247Y-72058094D02*
X107033390Y-72058094D01*
X107033390Y-72058094D02*
X106842914Y-72010475D01*
X106842914Y-72010475D02*
X106747676Y-71962856D01*
X106747676Y-71962856D02*
X106652438Y-71867618D01*
X106652438Y-71867618D02*
X106604819Y-71724761D01*
X106604819Y-71724761D02*
X106604819Y-71629523D01*
X106604819Y-71629523D02*
X106652438Y-71486666D01*
X106652438Y-71486666D02*
X106700057Y-71439047D01*
X107604819Y-70486666D02*
X107604819Y-71058094D01*
X107604819Y-70772380D02*
X106604819Y-70772380D01*
X106604819Y-70772380D02*
X106747676Y-70867618D01*
X106747676Y-70867618D02*
X106842914Y-70962856D01*
X106842914Y-70962856D02*
X106890533Y-71058094D01*
X107604819Y-69534285D02*
X107604819Y-70105713D01*
X107604819Y-69819999D02*
X106604819Y-69819999D01*
X106604819Y-69819999D02*
X106747676Y-69915237D01*
X106747676Y-69915237D02*
X106842914Y-70010475D01*
X106842914Y-70010475D02*
X106890533Y-70105713D01*
X107604819Y-68581904D02*
X107604819Y-69153332D01*
X107604819Y-68867618D02*
X106604819Y-68867618D01*
X106604819Y-68867618D02*
X106747676Y-68962856D01*
X106747676Y-68962856D02*
X106842914Y-69058094D01*
X106842914Y-69058094D02*
X106890533Y-69153332D01*
X166474819Y-103709047D02*
X165998628Y-104042380D01*
X166474819Y-104280475D02*
X165474819Y-104280475D01*
X165474819Y-104280475D02*
X165474819Y-103899523D01*
X165474819Y-103899523D02*
X165522438Y-103804285D01*
X165522438Y-103804285D02*
X165570057Y-103756666D01*
X165570057Y-103756666D02*
X165665295Y-103709047D01*
X165665295Y-103709047D02*
X165808152Y-103709047D01*
X165808152Y-103709047D02*
X165903390Y-103756666D01*
X165903390Y-103756666D02*
X165951009Y-103804285D01*
X165951009Y-103804285D02*
X165998628Y-103899523D01*
X165998628Y-103899523D02*
X165998628Y-104280475D01*
X165570057Y-103328094D02*
X165522438Y-103280475D01*
X165522438Y-103280475D02*
X165474819Y-103185237D01*
X165474819Y-103185237D02*
X165474819Y-102947142D01*
X165474819Y-102947142D02*
X165522438Y-102851904D01*
X165522438Y-102851904D02*
X165570057Y-102804285D01*
X165570057Y-102804285D02*
X165665295Y-102756666D01*
X165665295Y-102756666D02*
X165760533Y-102756666D01*
X165760533Y-102756666D02*
X165903390Y-102804285D01*
X165903390Y-102804285D02*
X166474819Y-103375713D01*
X166474819Y-103375713D02*
X166474819Y-102756666D01*
X165474819Y-102137618D02*
X165474819Y-102042380D01*
X165474819Y-102042380D02*
X165522438Y-101947142D01*
X165522438Y-101947142D02*
X165570057Y-101899523D01*
X165570057Y-101899523D02*
X165665295Y-101851904D01*
X165665295Y-101851904D02*
X165855771Y-101804285D01*
X165855771Y-101804285D02*
X166093866Y-101804285D01*
X166093866Y-101804285D02*
X166284342Y-101851904D01*
X166284342Y-101851904D02*
X166379580Y-101899523D01*
X166379580Y-101899523D02*
X166427200Y-101947142D01*
X166427200Y-101947142D02*
X166474819Y-102042380D01*
X166474819Y-102042380D02*
X166474819Y-102137618D01*
X166474819Y-102137618D02*
X166427200Y-102232856D01*
X166427200Y-102232856D02*
X166379580Y-102280475D01*
X166379580Y-102280475D02*
X166284342Y-102328094D01*
X166284342Y-102328094D02*
X166093866Y-102375713D01*
X166093866Y-102375713D02*
X165855771Y-102375713D01*
X165855771Y-102375713D02*
X165665295Y-102328094D01*
X165665295Y-102328094D02*
X165570057Y-102280475D01*
X165570057Y-102280475D02*
X165522438Y-102232856D01*
X165522438Y-102232856D02*
X165474819Y-102137618D01*
X165903390Y-101232856D02*
X165855771Y-101328094D01*
X165855771Y-101328094D02*
X165808152Y-101375713D01*
X165808152Y-101375713D02*
X165712914Y-101423332D01*
X165712914Y-101423332D02*
X165665295Y-101423332D01*
X165665295Y-101423332D02*
X165570057Y-101375713D01*
X165570057Y-101375713D02*
X165522438Y-101328094D01*
X165522438Y-101328094D02*
X165474819Y-101232856D01*
X165474819Y-101232856D02*
X165474819Y-101042380D01*
X165474819Y-101042380D02*
X165522438Y-100947142D01*
X165522438Y-100947142D02*
X165570057Y-100899523D01*
X165570057Y-100899523D02*
X165665295Y-100851904D01*
X165665295Y-100851904D02*
X165712914Y-100851904D01*
X165712914Y-100851904D02*
X165808152Y-100899523D01*
X165808152Y-100899523D02*
X165855771Y-100947142D01*
X165855771Y-100947142D02*
X165903390Y-101042380D01*
X165903390Y-101042380D02*
X165903390Y-101232856D01*
X165903390Y-101232856D02*
X165951009Y-101328094D01*
X165951009Y-101328094D02*
X165998628Y-101375713D01*
X165998628Y-101375713D02*
X166093866Y-101423332D01*
X166093866Y-101423332D02*
X166284342Y-101423332D01*
X166284342Y-101423332D02*
X166379580Y-101375713D01*
X166379580Y-101375713D02*
X166427200Y-101328094D01*
X166427200Y-101328094D02*
X166474819Y-101232856D01*
X166474819Y-101232856D02*
X166474819Y-101042380D01*
X166474819Y-101042380D02*
X166427200Y-100947142D01*
X166427200Y-100947142D02*
X166379580Y-100899523D01*
X166379580Y-100899523D02*
X166284342Y-100851904D01*
X166284342Y-100851904D02*
X166093866Y-100851904D01*
X166093866Y-100851904D02*
X165998628Y-100899523D01*
X165998628Y-100899523D02*
X165951009Y-100947142D01*
X165951009Y-100947142D02*
X165903390Y-101042380D01*
X123909580Y-65639047D02*
X123957200Y-65686666D01*
X123957200Y-65686666D02*
X124004819Y-65829523D01*
X124004819Y-65829523D02*
X124004819Y-65924761D01*
X124004819Y-65924761D02*
X123957200Y-66067618D01*
X123957200Y-66067618D02*
X123861961Y-66162856D01*
X123861961Y-66162856D02*
X123766723Y-66210475D01*
X123766723Y-66210475D02*
X123576247Y-66258094D01*
X123576247Y-66258094D02*
X123433390Y-66258094D01*
X123433390Y-66258094D02*
X123242914Y-66210475D01*
X123242914Y-66210475D02*
X123147676Y-66162856D01*
X123147676Y-66162856D02*
X123052438Y-66067618D01*
X123052438Y-66067618D02*
X123004819Y-65924761D01*
X123004819Y-65924761D02*
X123004819Y-65829523D01*
X123004819Y-65829523D02*
X123052438Y-65686666D01*
X123052438Y-65686666D02*
X123100057Y-65639047D01*
X124004819Y-64686666D02*
X124004819Y-65258094D01*
X124004819Y-64972380D02*
X123004819Y-64972380D01*
X123004819Y-64972380D02*
X123147676Y-65067618D01*
X123147676Y-65067618D02*
X123242914Y-65162856D01*
X123242914Y-65162856D02*
X123290533Y-65258094D01*
X124004819Y-63734285D02*
X124004819Y-64305713D01*
X124004819Y-64019999D02*
X123004819Y-64019999D01*
X123004819Y-64019999D02*
X123147676Y-64115237D01*
X123147676Y-64115237D02*
X123242914Y-64210475D01*
X123242914Y-64210475D02*
X123290533Y-64305713D01*
X123100057Y-63353332D02*
X123052438Y-63305713D01*
X123052438Y-63305713D02*
X123004819Y-63210475D01*
X123004819Y-63210475D02*
X123004819Y-62972380D01*
X123004819Y-62972380D02*
X123052438Y-62877142D01*
X123052438Y-62877142D02*
X123100057Y-62829523D01*
X123100057Y-62829523D02*
X123195295Y-62781904D01*
X123195295Y-62781904D02*
X123290533Y-62781904D01*
X123290533Y-62781904D02*
X123433390Y-62829523D01*
X123433390Y-62829523D02*
X124004819Y-63400951D01*
X124004819Y-63400951D02*
X124004819Y-62781904D01*
X168060952Y-81694819D02*
X167727619Y-81218628D01*
X167489524Y-81694819D02*
X167489524Y-80694819D01*
X167489524Y-80694819D02*
X167870476Y-80694819D01*
X167870476Y-80694819D02*
X167965714Y-80742438D01*
X167965714Y-80742438D02*
X168013333Y-80790057D01*
X168013333Y-80790057D02*
X168060952Y-80885295D01*
X168060952Y-80885295D02*
X168060952Y-81028152D01*
X168060952Y-81028152D02*
X168013333Y-81123390D01*
X168013333Y-81123390D02*
X167965714Y-81171009D01*
X167965714Y-81171009D02*
X167870476Y-81218628D01*
X167870476Y-81218628D02*
X167489524Y-81218628D01*
X169013333Y-81694819D02*
X168441905Y-81694819D01*
X168727619Y-81694819D02*
X168727619Y-80694819D01*
X168727619Y-80694819D02*
X168632381Y-80837676D01*
X168632381Y-80837676D02*
X168537143Y-80932914D01*
X168537143Y-80932914D02*
X168441905Y-80980533D01*
X169632381Y-80694819D02*
X169727619Y-80694819D01*
X169727619Y-80694819D02*
X169822857Y-80742438D01*
X169822857Y-80742438D02*
X169870476Y-80790057D01*
X169870476Y-80790057D02*
X169918095Y-80885295D01*
X169918095Y-80885295D02*
X169965714Y-81075771D01*
X169965714Y-81075771D02*
X169965714Y-81313866D01*
X169965714Y-81313866D02*
X169918095Y-81504342D01*
X169918095Y-81504342D02*
X169870476Y-81599580D01*
X169870476Y-81599580D02*
X169822857Y-81647200D01*
X169822857Y-81647200D02*
X169727619Y-81694819D01*
X169727619Y-81694819D02*
X169632381Y-81694819D01*
X169632381Y-81694819D02*
X169537143Y-81647200D01*
X169537143Y-81647200D02*
X169489524Y-81599580D01*
X169489524Y-81599580D02*
X169441905Y-81504342D01*
X169441905Y-81504342D02*
X169394286Y-81313866D01*
X169394286Y-81313866D02*
X169394286Y-81075771D01*
X169394286Y-81075771D02*
X169441905Y-80885295D01*
X169441905Y-80885295D02*
X169489524Y-80790057D01*
X169489524Y-80790057D02*
X169537143Y-80742438D01*
X169537143Y-80742438D02*
X169632381Y-80694819D01*
X170822857Y-80694819D02*
X170632381Y-80694819D01*
X170632381Y-80694819D02*
X170537143Y-80742438D01*
X170537143Y-80742438D02*
X170489524Y-80790057D01*
X170489524Y-80790057D02*
X170394286Y-80932914D01*
X170394286Y-80932914D02*
X170346667Y-81123390D01*
X170346667Y-81123390D02*
X170346667Y-81504342D01*
X170346667Y-81504342D02*
X170394286Y-81599580D01*
X170394286Y-81599580D02*
X170441905Y-81647200D01*
X170441905Y-81647200D02*
X170537143Y-81694819D01*
X170537143Y-81694819D02*
X170727619Y-81694819D01*
X170727619Y-81694819D02*
X170822857Y-81647200D01*
X170822857Y-81647200D02*
X170870476Y-81599580D01*
X170870476Y-81599580D02*
X170918095Y-81504342D01*
X170918095Y-81504342D02*
X170918095Y-81266247D01*
X170918095Y-81266247D02*
X170870476Y-81171009D01*
X170870476Y-81171009D02*
X170822857Y-81123390D01*
X170822857Y-81123390D02*
X170727619Y-81075771D01*
X170727619Y-81075771D02*
X170537143Y-81075771D01*
X170537143Y-81075771D02*
X170441905Y-81123390D01*
X170441905Y-81123390D02*
X170394286Y-81171009D01*
X170394286Y-81171009D02*
X170346667Y-81266247D01*
X149160952Y-66594819D02*
X148827619Y-66118628D01*
X148589524Y-66594819D02*
X148589524Y-65594819D01*
X148589524Y-65594819D02*
X148970476Y-65594819D01*
X148970476Y-65594819D02*
X149065714Y-65642438D01*
X149065714Y-65642438D02*
X149113333Y-65690057D01*
X149113333Y-65690057D02*
X149160952Y-65785295D01*
X149160952Y-65785295D02*
X149160952Y-65928152D01*
X149160952Y-65928152D02*
X149113333Y-66023390D01*
X149113333Y-66023390D02*
X149065714Y-66071009D01*
X149065714Y-66071009D02*
X148970476Y-66118628D01*
X148970476Y-66118628D02*
X148589524Y-66118628D01*
X150113333Y-66594819D02*
X149541905Y-66594819D01*
X149827619Y-66594819D02*
X149827619Y-65594819D01*
X149827619Y-65594819D02*
X149732381Y-65737676D01*
X149732381Y-65737676D02*
X149637143Y-65832914D01*
X149637143Y-65832914D02*
X149541905Y-65880533D01*
X150732381Y-65594819D02*
X150827619Y-65594819D01*
X150827619Y-65594819D02*
X150922857Y-65642438D01*
X150922857Y-65642438D02*
X150970476Y-65690057D01*
X150970476Y-65690057D02*
X151018095Y-65785295D01*
X151018095Y-65785295D02*
X151065714Y-65975771D01*
X151065714Y-65975771D02*
X151065714Y-66213866D01*
X151065714Y-66213866D02*
X151018095Y-66404342D01*
X151018095Y-66404342D02*
X150970476Y-66499580D01*
X150970476Y-66499580D02*
X150922857Y-66547200D01*
X150922857Y-66547200D02*
X150827619Y-66594819D01*
X150827619Y-66594819D02*
X150732381Y-66594819D01*
X150732381Y-66594819D02*
X150637143Y-66547200D01*
X150637143Y-66547200D02*
X150589524Y-66499580D01*
X150589524Y-66499580D02*
X150541905Y-66404342D01*
X150541905Y-66404342D02*
X150494286Y-66213866D01*
X150494286Y-66213866D02*
X150494286Y-65975771D01*
X150494286Y-65975771D02*
X150541905Y-65785295D01*
X150541905Y-65785295D02*
X150589524Y-65690057D01*
X150589524Y-65690057D02*
X150637143Y-65642438D01*
X150637143Y-65642438D02*
X150732381Y-65594819D01*
X152018095Y-66594819D02*
X151446667Y-66594819D01*
X151732381Y-66594819D02*
X151732381Y-65594819D01*
X151732381Y-65594819D02*
X151637143Y-65737676D01*
X151637143Y-65737676D02*
X151541905Y-65832914D01*
X151541905Y-65832914D02*
X151446667Y-65880533D01*
X143778214Y-96454819D02*
X143778214Y-95454819D01*
X143778214Y-95454819D02*
X144016309Y-95454819D01*
X144016309Y-95454819D02*
X144159166Y-95502438D01*
X144159166Y-95502438D02*
X144254404Y-95597676D01*
X144254404Y-95597676D02*
X144302023Y-95692914D01*
X144302023Y-95692914D02*
X144349642Y-95883390D01*
X144349642Y-95883390D02*
X144349642Y-96026247D01*
X144349642Y-96026247D02*
X144302023Y-96216723D01*
X144302023Y-96216723D02*
X144254404Y-96311961D01*
X144254404Y-96311961D02*
X144159166Y-96407200D01*
X144159166Y-96407200D02*
X144016309Y-96454819D01*
X144016309Y-96454819D02*
X143778214Y-96454819D01*
X144730595Y-95550057D02*
X144778214Y-95502438D01*
X144778214Y-95502438D02*
X144873452Y-95454819D01*
X144873452Y-95454819D02*
X145111547Y-95454819D01*
X145111547Y-95454819D02*
X145206785Y-95502438D01*
X145206785Y-95502438D02*
X145254404Y-95550057D01*
X145254404Y-95550057D02*
X145302023Y-95645295D01*
X145302023Y-95645295D02*
X145302023Y-95740533D01*
X145302023Y-95740533D02*
X145254404Y-95883390D01*
X145254404Y-95883390D02*
X144682976Y-96454819D01*
X144682976Y-96454819D02*
X145302023Y-96454819D01*
X146254404Y-96454819D02*
X145682976Y-96454819D01*
X145968690Y-96454819D02*
X145968690Y-95454819D01*
X145968690Y-95454819D02*
X145873452Y-95597676D01*
X145873452Y-95597676D02*
X145778214Y-95692914D01*
X145778214Y-95692914D02*
X145682976Y-95740533D01*
X131034819Y-103209047D02*
X130558628Y-103542380D01*
X131034819Y-103780475D02*
X130034819Y-103780475D01*
X130034819Y-103780475D02*
X130034819Y-103399523D01*
X130034819Y-103399523D02*
X130082438Y-103304285D01*
X130082438Y-103304285D02*
X130130057Y-103256666D01*
X130130057Y-103256666D02*
X130225295Y-103209047D01*
X130225295Y-103209047D02*
X130368152Y-103209047D01*
X130368152Y-103209047D02*
X130463390Y-103256666D01*
X130463390Y-103256666D02*
X130511009Y-103304285D01*
X130511009Y-103304285D02*
X130558628Y-103399523D01*
X130558628Y-103399523D02*
X130558628Y-103780475D01*
X130130057Y-102828094D02*
X130082438Y-102780475D01*
X130082438Y-102780475D02*
X130034819Y-102685237D01*
X130034819Y-102685237D02*
X130034819Y-102447142D01*
X130034819Y-102447142D02*
X130082438Y-102351904D01*
X130082438Y-102351904D02*
X130130057Y-102304285D01*
X130130057Y-102304285D02*
X130225295Y-102256666D01*
X130225295Y-102256666D02*
X130320533Y-102256666D01*
X130320533Y-102256666D02*
X130463390Y-102304285D01*
X130463390Y-102304285D02*
X131034819Y-102875713D01*
X131034819Y-102875713D02*
X131034819Y-102256666D01*
X130034819Y-101637618D02*
X130034819Y-101542380D01*
X130034819Y-101542380D02*
X130082438Y-101447142D01*
X130082438Y-101447142D02*
X130130057Y-101399523D01*
X130130057Y-101399523D02*
X130225295Y-101351904D01*
X130225295Y-101351904D02*
X130415771Y-101304285D01*
X130415771Y-101304285D02*
X130653866Y-101304285D01*
X130653866Y-101304285D02*
X130844342Y-101351904D01*
X130844342Y-101351904D02*
X130939580Y-101399523D01*
X130939580Y-101399523D02*
X130987200Y-101447142D01*
X130987200Y-101447142D02*
X131034819Y-101542380D01*
X131034819Y-101542380D02*
X131034819Y-101637618D01*
X131034819Y-101637618D02*
X130987200Y-101732856D01*
X130987200Y-101732856D02*
X130939580Y-101780475D01*
X130939580Y-101780475D02*
X130844342Y-101828094D01*
X130844342Y-101828094D02*
X130653866Y-101875713D01*
X130653866Y-101875713D02*
X130415771Y-101875713D01*
X130415771Y-101875713D02*
X130225295Y-101828094D01*
X130225295Y-101828094D02*
X130130057Y-101780475D01*
X130130057Y-101780475D02*
X130082438Y-101732856D01*
X130082438Y-101732856D02*
X130034819Y-101637618D01*
X130368152Y-100447142D02*
X131034819Y-100447142D01*
X129987200Y-100685237D02*
X130701485Y-100923332D01*
X130701485Y-100923332D02*
X130701485Y-100304285D01*
X150730952Y-79574819D02*
X150397619Y-79098628D01*
X150159524Y-79574819D02*
X150159524Y-78574819D01*
X150159524Y-78574819D02*
X150540476Y-78574819D01*
X150540476Y-78574819D02*
X150635714Y-78622438D01*
X150635714Y-78622438D02*
X150683333Y-78670057D01*
X150683333Y-78670057D02*
X150730952Y-78765295D01*
X150730952Y-78765295D02*
X150730952Y-78908152D01*
X150730952Y-78908152D02*
X150683333Y-79003390D01*
X150683333Y-79003390D02*
X150635714Y-79051009D01*
X150635714Y-79051009D02*
X150540476Y-79098628D01*
X150540476Y-79098628D02*
X150159524Y-79098628D01*
X151683333Y-79574819D02*
X151111905Y-79574819D01*
X151397619Y-79574819D02*
X151397619Y-78574819D01*
X151397619Y-78574819D02*
X151302381Y-78717676D01*
X151302381Y-78717676D02*
X151207143Y-78812914D01*
X151207143Y-78812914D02*
X151111905Y-78860533D01*
X152302381Y-78574819D02*
X152397619Y-78574819D01*
X152397619Y-78574819D02*
X152492857Y-78622438D01*
X152492857Y-78622438D02*
X152540476Y-78670057D01*
X152540476Y-78670057D02*
X152588095Y-78765295D01*
X152588095Y-78765295D02*
X152635714Y-78955771D01*
X152635714Y-78955771D02*
X152635714Y-79193866D01*
X152635714Y-79193866D02*
X152588095Y-79384342D01*
X152588095Y-79384342D02*
X152540476Y-79479580D01*
X152540476Y-79479580D02*
X152492857Y-79527200D01*
X152492857Y-79527200D02*
X152397619Y-79574819D01*
X152397619Y-79574819D02*
X152302381Y-79574819D01*
X152302381Y-79574819D02*
X152207143Y-79527200D01*
X152207143Y-79527200D02*
X152159524Y-79479580D01*
X152159524Y-79479580D02*
X152111905Y-79384342D01*
X152111905Y-79384342D02*
X152064286Y-79193866D01*
X152064286Y-79193866D02*
X152064286Y-78955771D01*
X152064286Y-78955771D02*
X152111905Y-78765295D01*
X152111905Y-78765295D02*
X152159524Y-78670057D01*
X152159524Y-78670057D02*
X152207143Y-78622438D01*
X152207143Y-78622438D02*
X152302381Y-78574819D01*
X153540476Y-78574819D02*
X153064286Y-78574819D01*
X153064286Y-78574819D02*
X153016667Y-79051009D01*
X153016667Y-79051009D02*
X153064286Y-79003390D01*
X153064286Y-79003390D02*
X153159524Y-78955771D01*
X153159524Y-78955771D02*
X153397619Y-78955771D01*
X153397619Y-78955771D02*
X153492857Y-79003390D01*
X153492857Y-79003390D02*
X153540476Y-79051009D01*
X153540476Y-79051009D02*
X153588095Y-79146247D01*
X153588095Y-79146247D02*
X153588095Y-79384342D01*
X153588095Y-79384342D02*
X153540476Y-79479580D01*
X153540476Y-79479580D02*
X153492857Y-79527200D01*
X153492857Y-79527200D02*
X153397619Y-79574819D01*
X153397619Y-79574819D02*
X153159524Y-79574819D01*
X153159524Y-79574819D02*
X153064286Y-79527200D01*
X153064286Y-79527200D02*
X153016667Y-79479580D01*
X146709580Y-65569047D02*
X146757200Y-65616666D01*
X146757200Y-65616666D02*
X146804819Y-65759523D01*
X146804819Y-65759523D02*
X146804819Y-65854761D01*
X146804819Y-65854761D02*
X146757200Y-65997618D01*
X146757200Y-65997618D02*
X146661961Y-66092856D01*
X146661961Y-66092856D02*
X146566723Y-66140475D01*
X146566723Y-66140475D02*
X146376247Y-66188094D01*
X146376247Y-66188094D02*
X146233390Y-66188094D01*
X146233390Y-66188094D02*
X146042914Y-66140475D01*
X146042914Y-66140475D02*
X145947676Y-66092856D01*
X145947676Y-66092856D02*
X145852438Y-65997618D01*
X145852438Y-65997618D02*
X145804819Y-65854761D01*
X145804819Y-65854761D02*
X145804819Y-65759523D01*
X145804819Y-65759523D02*
X145852438Y-65616666D01*
X145852438Y-65616666D02*
X145900057Y-65569047D01*
X146804819Y-64616666D02*
X146804819Y-65188094D01*
X146804819Y-64902380D02*
X145804819Y-64902380D01*
X145804819Y-64902380D02*
X145947676Y-64997618D01*
X145947676Y-64997618D02*
X146042914Y-65092856D01*
X146042914Y-65092856D02*
X146090533Y-65188094D01*
X146804819Y-63664285D02*
X146804819Y-64235713D01*
X146804819Y-63949999D02*
X145804819Y-63949999D01*
X145804819Y-63949999D02*
X145947676Y-64045237D01*
X145947676Y-64045237D02*
X146042914Y-64140475D01*
X146042914Y-64140475D02*
X146090533Y-64235713D01*
X145804819Y-63330951D02*
X145804819Y-62711904D01*
X145804819Y-62711904D02*
X146185771Y-63045237D01*
X146185771Y-63045237D02*
X146185771Y-62902380D01*
X146185771Y-62902380D02*
X146233390Y-62807142D01*
X146233390Y-62807142D02*
X146281009Y-62759523D01*
X146281009Y-62759523D02*
X146376247Y-62711904D01*
X146376247Y-62711904D02*
X146614342Y-62711904D01*
X146614342Y-62711904D02*
X146709580Y-62759523D01*
X146709580Y-62759523D02*
X146757200Y-62807142D01*
X146757200Y-62807142D02*
X146804819Y-62902380D01*
X146804819Y-62902380D02*
X146804819Y-63188094D01*
X146804819Y-63188094D02*
X146757200Y-63283332D01*
X146757200Y-63283332D02*
X146709580Y-63330951D01*
X180055057Y-82215238D02*
X180007438Y-82310476D01*
X180007438Y-82310476D02*
X179912200Y-82405714D01*
X179912200Y-82405714D02*
X179769342Y-82548571D01*
X179769342Y-82548571D02*
X179721723Y-82643809D01*
X179721723Y-82643809D02*
X179721723Y-82739047D01*
X179959819Y-82691428D02*
X179912200Y-82786666D01*
X179912200Y-82786666D02*
X179816961Y-82881904D01*
X179816961Y-82881904D02*
X179626485Y-82929523D01*
X179626485Y-82929523D02*
X179293152Y-82929523D01*
X179293152Y-82929523D02*
X179102676Y-82881904D01*
X179102676Y-82881904D02*
X179007438Y-82786666D01*
X179007438Y-82786666D02*
X178959819Y-82691428D01*
X178959819Y-82691428D02*
X178959819Y-82500952D01*
X178959819Y-82500952D02*
X179007438Y-82405714D01*
X179007438Y-82405714D02*
X179102676Y-82310476D01*
X179102676Y-82310476D02*
X179293152Y-82262857D01*
X179293152Y-82262857D02*
X179626485Y-82262857D01*
X179626485Y-82262857D02*
X179816961Y-82310476D01*
X179816961Y-82310476D02*
X179912200Y-82405714D01*
X179912200Y-82405714D02*
X179959819Y-82500952D01*
X179959819Y-82500952D02*
X179959819Y-82691428D01*
X178959819Y-81405714D02*
X178959819Y-81596190D01*
X178959819Y-81596190D02*
X179007438Y-81691428D01*
X179007438Y-81691428D02*
X179055057Y-81739047D01*
X179055057Y-81739047D02*
X179197914Y-81834285D01*
X179197914Y-81834285D02*
X179388390Y-81881904D01*
X179388390Y-81881904D02*
X179769342Y-81881904D01*
X179769342Y-81881904D02*
X179864580Y-81834285D01*
X179864580Y-81834285D02*
X179912200Y-81786666D01*
X179912200Y-81786666D02*
X179959819Y-81691428D01*
X179959819Y-81691428D02*
X179959819Y-81500952D01*
X179959819Y-81500952D02*
X179912200Y-81405714D01*
X179912200Y-81405714D02*
X179864580Y-81358095D01*
X179864580Y-81358095D02*
X179769342Y-81310476D01*
X179769342Y-81310476D02*
X179531247Y-81310476D01*
X179531247Y-81310476D02*
X179436009Y-81358095D01*
X179436009Y-81358095D02*
X179388390Y-81405714D01*
X179388390Y-81405714D02*
X179340771Y-81500952D01*
X179340771Y-81500952D02*
X179340771Y-81691428D01*
X179340771Y-81691428D02*
X179388390Y-81786666D01*
X179388390Y-81786666D02*
X179436009Y-81834285D01*
X179436009Y-81834285D02*
X179531247Y-81881904D01*
X175880952Y-106194819D02*
X175547619Y-105718628D01*
X175309524Y-106194819D02*
X175309524Y-105194819D01*
X175309524Y-105194819D02*
X175690476Y-105194819D01*
X175690476Y-105194819D02*
X175785714Y-105242438D01*
X175785714Y-105242438D02*
X175833333Y-105290057D01*
X175833333Y-105290057D02*
X175880952Y-105385295D01*
X175880952Y-105385295D02*
X175880952Y-105528152D01*
X175880952Y-105528152D02*
X175833333Y-105623390D01*
X175833333Y-105623390D02*
X175785714Y-105671009D01*
X175785714Y-105671009D02*
X175690476Y-105718628D01*
X175690476Y-105718628D02*
X175309524Y-105718628D01*
X176261905Y-105290057D02*
X176309524Y-105242438D01*
X176309524Y-105242438D02*
X176404762Y-105194819D01*
X176404762Y-105194819D02*
X176642857Y-105194819D01*
X176642857Y-105194819D02*
X176738095Y-105242438D01*
X176738095Y-105242438D02*
X176785714Y-105290057D01*
X176785714Y-105290057D02*
X176833333Y-105385295D01*
X176833333Y-105385295D02*
X176833333Y-105480533D01*
X176833333Y-105480533D02*
X176785714Y-105623390D01*
X176785714Y-105623390D02*
X176214286Y-106194819D01*
X176214286Y-106194819D02*
X176833333Y-106194819D01*
X177452381Y-105194819D02*
X177547619Y-105194819D01*
X177547619Y-105194819D02*
X177642857Y-105242438D01*
X177642857Y-105242438D02*
X177690476Y-105290057D01*
X177690476Y-105290057D02*
X177738095Y-105385295D01*
X177738095Y-105385295D02*
X177785714Y-105575771D01*
X177785714Y-105575771D02*
X177785714Y-105813866D01*
X177785714Y-105813866D02*
X177738095Y-106004342D01*
X177738095Y-106004342D02*
X177690476Y-106099580D01*
X177690476Y-106099580D02*
X177642857Y-106147200D01*
X177642857Y-106147200D02*
X177547619Y-106194819D01*
X177547619Y-106194819D02*
X177452381Y-106194819D01*
X177452381Y-106194819D02*
X177357143Y-106147200D01*
X177357143Y-106147200D02*
X177309524Y-106099580D01*
X177309524Y-106099580D02*
X177261905Y-106004342D01*
X177261905Y-106004342D02*
X177214286Y-105813866D01*
X177214286Y-105813866D02*
X177214286Y-105575771D01*
X177214286Y-105575771D02*
X177261905Y-105385295D01*
X177261905Y-105385295D02*
X177309524Y-105290057D01*
X177309524Y-105290057D02*
X177357143Y-105242438D01*
X177357143Y-105242438D02*
X177452381Y-105194819D01*
X178261905Y-106194819D02*
X178452381Y-106194819D01*
X178452381Y-106194819D02*
X178547619Y-106147200D01*
X178547619Y-106147200D02*
X178595238Y-106099580D01*
X178595238Y-106099580D02*
X178690476Y-105956723D01*
X178690476Y-105956723D02*
X178738095Y-105766247D01*
X178738095Y-105766247D02*
X178738095Y-105385295D01*
X178738095Y-105385295D02*
X178690476Y-105290057D01*
X178690476Y-105290057D02*
X178642857Y-105242438D01*
X178642857Y-105242438D02*
X178547619Y-105194819D01*
X178547619Y-105194819D02*
X178357143Y-105194819D01*
X178357143Y-105194819D02*
X178261905Y-105242438D01*
X178261905Y-105242438D02*
X178214286Y-105290057D01*
X178214286Y-105290057D02*
X178166667Y-105385295D01*
X178166667Y-105385295D02*
X178166667Y-105623390D01*
X178166667Y-105623390D02*
X178214286Y-105718628D01*
X178214286Y-105718628D02*
X178261905Y-105766247D01*
X178261905Y-105766247D02*
X178357143Y-105813866D01*
X178357143Y-105813866D02*
X178547619Y-105813866D01*
X178547619Y-105813866D02*
X178642857Y-105766247D01*
X178642857Y-105766247D02*
X178690476Y-105718628D01*
X178690476Y-105718628D02*
X178738095Y-105623390D01*
X168060952Y-66594819D02*
X167727619Y-66118628D01*
X167489524Y-66594819D02*
X167489524Y-65594819D01*
X167489524Y-65594819D02*
X167870476Y-65594819D01*
X167870476Y-65594819D02*
X167965714Y-65642438D01*
X167965714Y-65642438D02*
X168013333Y-65690057D01*
X168013333Y-65690057D02*
X168060952Y-65785295D01*
X168060952Y-65785295D02*
X168060952Y-65928152D01*
X168060952Y-65928152D02*
X168013333Y-66023390D01*
X168013333Y-66023390D02*
X167965714Y-66071009D01*
X167965714Y-66071009D02*
X167870476Y-66118628D01*
X167870476Y-66118628D02*
X167489524Y-66118628D01*
X169013333Y-66594819D02*
X168441905Y-66594819D01*
X168727619Y-66594819D02*
X168727619Y-65594819D01*
X168727619Y-65594819D02*
X168632381Y-65737676D01*
X168632381Y-65737676D02*
X168537143Y-65832914D01*
X168537143Y-65832914D02*
X168441905Y-65880533D01*
X169632381Y-65594819D02*
X169727619Y-65594819D01*
X169727619Y-65594819D02*
X169822857Y-65642438D01*
X169822857Y-65642438D02*
X169870476Y-65690057D01*
X169870476Y-65690057D02*
X169918095Y-65785295D01*
X169918095Y-65785295D02*
X169965714Y-65975771D01*
X169965714Y-65975771D02*
X169965714Y-66213866D01*
X169965714Y-66213866D02*
X169918095Y-66404342D01*
X169918095Y-66404342D02*
X169870476Y-66499580D01*
X169870476Y-66499580D02*
X169822857Y-66547200D01*
X169822857Y-66547200D02*
X169727619Y-66594819D01*
X169727619Y-66594819D02*
X169632381Y-66594819D01*
X169632381Y-66594819D02*
X169537143Y-66547200D01*
X169537143Y-66547200D02*
X169489524Y-66499580D01*
X169489524Y-66499580D02*
X169441905Y-66404342D01*
X169441905Y-66404342D02*
X169394286Y-66213866D01*
X169394286Y-66213866D02*
X169394286Y-65975771D01*
X169394286Y-65975771D02*
X169441905Y-65785295D01*
X169441905Y-65785295D02*
X169489524Y-65690057D01*
X169489524Y-65690057D02*
X169537143Y-65642438D01*
X169537143Y-65642438D02*
X169632381Y-65594819D01*
X170346667Y-65690057D02*
X170394286Y-65642438D01*
X170394286Y-65642438D02*
X170489524Y-65594819D01*
X170489524Y-65594819D02*
X170727619Y-65594819D01*
X170727619Y-65594819D02*
X170822857Y-65642438D01*
X170822857Y-65642438D02*
X170870476Y-65690057D01*
X170870476Y-65690057D02*
X170918095Y-65785295D01*
X170918095Y-65785295D02*
X170918095Y-65880533D01*
X170918095Y-65880533D02*
X170870476Y-66023390D01*
X170870476Y-66023390D02*
X170299048Y-66594819D01*
X170299048Y-66594819D02*
X170918095Y-66594819D01*
X109466666Y-90809819D02*
X109466666Y-91524104D01*
X109466666Y-91524104D02*
X109419047Y-91666961D01*
X109419047Y-91666961D02*
X109323809Y-91762200D01*
X109323809Y-91762200D02*
X109180952Y-91809819D01*
X109180952Y-91809819D02*
X109085714Y-91809819D01*
X110419047Y-90809819D02*
X109942857Y-90809819D01*
X109942857Y-90809819D02*
X109895238Y-91286009D01*
X109895238Y-91286009D02*
X109942857Y-91238390D01*
X109942857Y-91238390D02*
X110038095Y-91190771D01*
X110038095Y-91190771D02*
X110276190Y-91190771D01*
X110276190Y-91190771D02*
X110371428Y-91238390D01*
X110371428Y-91238390D02*
X110419047Y-91286009D01*
X110419047Y-91286009D02*
X110466666Y-91381247D01*
X110466666Y-91381247D02*
X110466666Y-91619342D01*
X110466666Y-91619342D02*
X110419047Y-91714580D01*
X110419047Y-91714580D02*
X110371428Y-91762200D01*
X110371428Y-91762200D02*
X110276190Y-91809819D01*
X110276190Y-91809819D02*
X110038095Y-91809819D01*
X110038095Y-91809819D02*
X109942857Y-91762200D01*
X109942857Y-91762200D02*
X109895238Y-91714580D01*
D12*
X105932380Y-99804318D02*
X105932380Y-100832413D01*
X105932380Y-100832413D02*
X105992857Y-100953365D01*
X105992857Y-100953365D02*
X106053333Y-101013842D01*
X106053333Y-101013842D02*
X106174285Y-101074318D01*
X106174285Y-101074318D02*
X106416190Y-101074318D01*
X106416190Y-101074318D02*
X106537142Y-101013842D01*
X106537142Y-101013842D02*
X106597619Y-100953365D01*
X106597619Y-100953365D02*
X106658095Y-100832413D01*
X106658095Y-100832413D02*
X106658095Y-99804318D01*
X107202380Y-99925270D02*
X107262856Y-99864794D01*
X107262856Y-99864794D02*
X107383809Y-99804318D01*
X107383809Y-99804318D02*
X107686190Y-99804318D01*
X107686190Y-99804318D02*
X107807142Y-99864794D01*
X107807142Y-99864794D02*
X107867618Y-99925270D01*
X107867618Y-99925270D02*
X107928095Y-100046222D01*
X107928095Y-100046222D02*
X107928095Y-100167175D01*
X107928095Y-100167175D02*
X107867618Y-100348603D01*
X107867618Y-100348603D02*
X107141904Y-101074318D01*
X107141904Y-101074318D02*
X107928095Y-101074318D01*
D11*
X103380952Y-87634819D02*
X103047619Y-87158628D01*
X102809524Y-87634819D02*
X102809524Y-86634819D01*
X102809524Y-86634819D02*
X103190476Y-86634819D01*
X103190476Y-86634819D02*
X103285714Y-86682438D01*
X103285714Y-86682438D02*
X103333333Y-86730057D01*
X103333333Y-86730057D02*
X103380952Y-86825295D01*
X103380952Y-86825295D02*
X103380952Y-86968152D01*
X103380952Y-86968152D02*
X103333333Y-87063390D01*
X103333333Y-87063390D02*
X103285714Y-87111009D01*
X103285714Y-87111009D02*
X103190476Y-87158628D01*
X103190476Y-87158628D02*
X102809524Y-87158628D01*
X104333333Y-87634819D02*
X103761905Y-87634819D01*
X104047619Y-87634819D02*
X104047619Y-86634819D01*
X104047619Y-86634819D02*
X103952381Y-86777676D01*
X103952381Y-86777676D02*
X103857143Y-86872914D01*
X103857143Y-86872914D02*
X103761905Y-86920533D01*
X105285714Y-87634819D02*
X104714286Y-87634819D01*
X105000000Y-87634819D02*
X105000000Y-86634819D01*
X105000000Y-86634819D02*
X104904762Y-86777676D01*
X104904762Y-86777676D02*
X104809524Y-86872914D01*
X104809524Y-86872914D02*
X104714286Y-86920533D01*
X106142857Y-86634819D02*
X105952381Y-86634819D01*
X105952381Y-86634819D02*
X105857143Y-86682438D01*
X105857143Y-86682438D02*
X105809524Y-86730057D01*
X105809524Y-86730057D02*
X105714286Y-86872914D01*
X105714286Y-86872914D02*
X105666667Y-87063390D01*
X105666667Y-87063390D02*
X105666667Y-87444342D01*
X105666667Y-87444342D02*
X105714286Y-87539580D01*
X105714286Y-87539580D02*
X105761905Y-87587200D01*
X105761905Y-87587200D02*
X105857143Y-87634819D01*
X105857143Y-87634819D02*
X106047619Y-87634819D01*
X106047619Y-87634819D02*
X106142857Y-87587200D01*
X106142857Y-87587200D02*
X106190476Y-87539580D01*
X106190476Y-87539580D02*
X106238095Y-87444342D01*
X106238095Y-87444342D02*
X106238095Y-87206247D01*
X106238095Y-87206247D02*
X106190476Y-87111009D01*
X106190476Y-87111009D02*
X106142857Y-87063390D01*
X106142857Y-87063390D02*
X106047619Y-87015771D01*
X106047619Y-87015771D02*
X105857143Y-87015771D01*
X105857143Y-87015771D02*
X105761905Y-87063390D01*
X105761905Y-87063390D02*
X105714286Y-87111009D01*
X105714286Y-87111009D02*
X105666667Y-87206247D01*
X118980952Y-93394819D02*
X118647619Y-92918628D01*
X118409524Y-93394819D02*
X118409524Y-92394819D01*
X118409524Y-92394819D02*
X118790476Y-92394819D01*
X118790476Y-92394819D02*
X118885714Y-92442438D01*
X118885714Y-92442438D02*
X118933333Y-92490057D01*
X118933333Y-92490057D02*
X118980952Y-92585295D01*
X118980952Y-92585295D02*
X118980952Y-92728152D01*
X118980952Y-92728152D02*
X118933333Y-92823390D01*
X118933333Y-92823390D02*
X118885714Y-92871009D01*
X118885714Y-92871009D02*
X118790476Y-92918628D01*
X118790476Y-92918628D02*
X118409524Y-92918628D01*
X119361905Y-92490057D02*
X119409524Y-92442438D01*
X119409524Y-92442438D02*
X119504762Y-92394819D01*
X119504762Y-92394819D02*
X119742857Y-92394819D01*
X119742857Y-92394819D02*
X119838095Y-92442438D01*
X119838095Y-92442438D02*
X119885714Y-92490057D01*
X119885714Y-92490057D02*
X119933333Y-92585295D01*
X119933333Y-92585295D02*
X119933333Y-92680533D01*
X119933333Y-92680533D02*
X119885714Y-92823390D01*
X119885714Y-92823390D02*
X119314286Y-93394819D01*
X119314286Y-93394819D02*
X119933333Y-93394819D01*
X120552381Y-92394819D02*
X120647619Y-92394819D01*
X120647619Y-92394819D02*
X120742857Y-92442438D01*
X120742857Y-92442438D02*
X120790476Y-92490057D01*
X120790476Y-92490057D02*
X120838095Y-92585295D01*
X120838095Y-92585295D02*
X120885714Y-92775771D01*
X120885714Y-92775771D02*
X120885714Y-93013866D01*
X120885714Y-93013866D02*
X120838095Y-93204342D01*
X120838095Y-93204342D02*
X120790476Y-93299580D01*
X120790476Y-93299580D02*
X120742857Y-93347200D01*
X120742857Y-93347200D02*
X120647619Y-93394819D01*
X120647619Y-93394819D02*
X120552381Y-93394819D01*
X120552381Y-93394819D02*
X120457143Y-93347200D01*
X120457143Y-93347200D02*
X120409524Y-93299580D01*
X120409524Y-93299580D02*
X120361905Y-93204342D01*
X120361905Y-93204342D02*
X120314286Y-93013866D01*
X120314286Y-93013866D02*
X120314286Y-92775771D01*
X120314286Y-92775771D02*
X120361905Y-92585295D01*
X120361905Y-92585295D02*
X120409524Y-92490057D01*
X120409524Y-92490057D02*
X120457143Y-92442438D01*
X120457143Y-92442438D02*
X120552381Y-92394819D01*
X121838095Y-93394819D02*
X121266667Y-93394819D01*
X121552381Y-93394819D02*
X121552381Y-92394819D01*
X121552381Y-92394819D02*
X121457143Y-92537676D01*
X121457143Y-92537676D02*
X121361905Y-92632914D01*
X121361905Y-92632914D02*
X121266667Y-92680533D01*
X191054819Y-65733333D02*
X191769104Y-65733333D01*
X191769104Y-65733333D02*
X191911961Y-65780952D01*
X191911961Y-65780952D02*
X192007200Y-65876190D01*
X192007200Y-65876190D02*
X192054819Y-66019047D01*
X192054819Y-66019047D02*
X192054819Y-66114285D01*
X191054819Y-64828571D02*
X191054819Y-65019047D01*
X191054819Y-65019047D02*
X191102438Y-65114285D01*
X191102438Y-65114285D02*
X191150057Y-65161904D01*
X191150057Y-65161904D02*
X191292914Y-65257142D01*
X191292914Y-65257142D02*
X191483390Y-65304761D01*
X191483390Y-65304761D02*
X191864342Y-65304761D01*
X191864342Y-65304761D02*
X191959580Y-65257142D01*
X191959580Y-65257142D02*
X192007200Y-65209523D01*
X192007200Y-65209523D02*
X192054819Y-65114285D01*
X192054819Y-65114285D02*
X192054819Y-64923809D01*
X192054819Y-64923809D02*
X192007200Y-64828571D01*
X192007200Y-64828571D02*
X191959580Y-64780952D01*
X191959580Y-64780952D02*
X191864342Y-64733333D01*
X191864342Y-64733333D02*
X191626247Y-64733333D01*
X191626247Y-64733333D02*
X191531009Y-64780952D01*
X191531009Y-64780952D02*
X191483390Y-64828571D01*
X191483390Y-64828571D02*
X191435771Y-64923809D01*
X191435771Y-64923809D02*
X191435771Y-65114285D01*
X191435771Y-65114285D02*
X191483390Y-65209523D01*
X191483390Y-65209523D02*
X191531009Y-65257142D01*
X191531009Y-65257142D02*
X191626247Y-65304761D01*
X115790476Y-109044819D02*
X115790476Y-109759104D01*
X115790476Y-109759104D02*
X115742857Y-109901961D01*
X115742857Y-109901961D02*
X115647619Y-109997200D01*
X115647619Y-109997200D02*
X115504762Y-110044819D01*
X115504762Y-110044819D02*
X115409524Y-110044819D01*
X116219048Y-109140057D02*
X116266667Y-109092438D01*
X116266667Y-109092438D02*
X116361905Y-109044819D01*
X116361905Y-109044819D02*
X116600000Y-109044819D01*
X116600000Y-109044819D02*
X116695238Y-109092438D01*
X116695238Y-109092438D02*
X116742857Y-109140057D01*
X116742857Y-109140057D02*
X116790476Y-109235295D01*
X116790476Y-109235295D02*
X116790476Y-109330533D01*
X116790476Y-109330533D02*
X116742857Y-109473390D01*
X116742857Y-109473390D02*
X116171429Y-110044819D01*
X116171429Y-110044819D02*
X116790476Y-110044819D01*
X117695238Y-109044819D02*
X117219048Y-109044819D01*
X117219048Y-109044819D02*
X117171429Y-109521009D01*
X117171429Y-109521009D02*
X117219048Y-109473390D01*
X117219048Y-109473390D02*
X117314286Y-109425771D01*
X117314286Y-109425771D02*
X117552381Y-109425771D01*
X117552381Y-109425771D02*
X117647619Y-109473390D01*
X117647619Y-109473390D02*
X117695238Y-109521009D01*
X117695238Y-109521009D02*
X117742857Y-109616247D01*
X117742857Y-109616247D02*
X117742857Y-109854342D01*
X117742857Y-109854342D02*
X117695238Y-109949580D01*
X117695238Y-109949580D02*
X117647619Y-109997200D01*
X117647619Y-109997200D02*
X117552381Y-110044819D01*
X117552381Y-110044819D02*
X117314286Y-110044819D01*
X117314286Y-110044819D02*
X117219048Y-109997200D01*
X117219048Y-109997200D02*
X117171429Y-109949580D01*
X117174819Y-93734285D02*
X116174819Y-93734285D01*
X116174819Y-93734285D02*
X116174819Y-93496190D01*
X116174819Y-93496190D02*
X116222438Y-93353333D01*
X116222438Y-93353333D02*
X116317676Y-93258095D01*
X116317676Y-93258095D02*
X116412914Y-93210476D01*
X116412914Y-93210476D02*
X116603390Y-93162857D01*
X116603390Y-93162857D02*
X116746247Y-93162857D01*
X116746247Y-93162857D02*
X116936723Y-93210476D01*
X116936723Y-93210476D02*
X117031961Y-93258095D01*
X117031961Y-93258095D02*
X117127200Y-93353333D01*
X117127200Y-93353333D02*
X117174819Y-93496190D01*
X117174819Y-93496190D02*
X117174819Y-93734285D01*
X116270057Y-92781904D02*
X116222438Y-92734285D01*
X116222438Y-92734285D02*
X116174819Y-92639047D01*
X116174819Y-92639047D02*
X116174819Y-92400952D01*
X116174819Y-92400952D02*
X116222438Y-92305714D01*
X116222438Y-92305714D02*
X116270057Y-92258095D01*
X116270057Y-92258095D02*
X116365295Y-92210476D01*
X116365295Y-92210476D02*
X116460533Y-92210476D01*
X116460533Y-92210476D02*
X116603390Y-92258095D01*
X116603390Y-92258095D02*
X117174819Y-92829523D01*
X117174819Y-92829523D02*
X117174819Y-92210476D01*
X116174819Y-91591428D02*
X116174819Y-91496190D01*
X116174819Y-91496190D02*
X116222438Y-91400952D01*
X116222438Y-91400952D02*
X116270057Y-91353333D01*
X116270057Y-91353333D02*
X116365295Y-91305714D01*
X116365295Y-91305714D02*
X116555771Y-91258095D01*
X116555771Y-91258095D02*
X116793866Y-91258095D01*
X116793866Y-91258095D02*
X116984342Y-91305714D01*
X116984342Y-91305714D02*
X117079580Y-91353333D01*
X117079580Y-91353333D02*
X117127200Y-91400952D01*
X117127200Y-91400952D02*
X117174819Y-91496190D01*
X117174819Y-91496190D02*
X117174819Y-91591428D01*
X117174819Y-91591428D02*
X117127200Y-91686666D01*
X117127200Y-91686666D02*
X117079580Y-91734285D01*
X117079580Y-91734285D02*
X116984342Y-91781904D01*
X116984342Y-91781904D02*
X116793866Y-91829523D01*
X116793866Y-91829523D02*
X116555771Y-91829523D01*
X116555771Y-91829523D02*
X116365295Y-91781904D01*
X116365295Y-91781904D02*
X116270057Y-91734285D01*
X116270057Y-91734285D02*
X116222438Y-91686666D01*
X116222438Y-91686666D02*
X116174819Y-91591428D01*
X180055057Y-67315238D02*
X180007438Y-67410476D01*
X180007438Y-67410476D02*
X179912200Y-67505714D01*
X179912200Y-67505714D02*
X179769342Y-67648571D01*
X179769342Y-67648571D02*
X179721723Y-67743809D01*
X179721723Y-67743809D02*
X179721723Y-67839047D01*
X179959819Y-67791428D02*
X179912200Y-67886666D01*
X179912200Y-67886666D02*
X179816961Y-67981904D01*
X179816961Y-67981904D02*
X179626485Y-68029523D01*
X179626485Y-68029523D02*
X179293152Y-68029523D01*
X179293152Y-68029523D02*
X179102676Y-67981904D01*
X179102676Y-67981904D02*
X179007438Y-67886666D01*
X179007438Y-67886666D02*
X178959819Y-67791428D01*
X178959819Y-67791428D02*
X178959819Y-67600952D01*
X178959819Y-67600952D02*
X179007438Y-67505714D01*
X179007438Y-67505714D02*
X179102676Y-67410476D01*
X179102676Y-67410476D02*
X179293152Y-67362857D01*
X179293152Y-67362857D02*
X179626485Y-67362857D01*
X179626485Y-67362857D02*
X179816961Y-67410476D01*
X179816961Y-67410476D02*
X179912200Y-67505714D01*
X179912200Y-67505714D02*
X179959819Y-67600952D01*
X179959819Y-67600952D02*
X179959819Y-67791428D01*
X178959819Y-66458095D02*
X178959819Y-66934285D01*
X178959819Y-66934285D02*
X179436009Y-66981904D01*
X179436009Y-66981904D02*
X179388390Y-66934285D01*
X179388390Y-66934285D02*
X179340771Y-66839047D01*
X179340771Y-66839047D02*
X179340771Y-66600952D01*
X179340771Y-66600952D02*
X179388390Y-66505714D01*
X179388390Y-66505714D02*
X179436009Y-66458095D01*
X179436009Y-66458095D02*
X179531247Y-66410476D01*
X179531247Y-66410476D02*
X179769342Y-66410476D01*
X179769342Y-66410476D02*
X179864580Y-66458095D01*
X179864580Y-66458095D02*
X179912200Y-66505714D01*
X179912200Y-66505714D02*
X179959819Y-66600952D01*
X179959819Y-66600952D02*
X179959819Y-66839047D01*
X179959819Y-66839047D02*
X179912200Y-66934285D01*
X179912200Y-66934285D02*
X179864580Y-66981904D01*
X158690476Y-104704819D02*
X158690476Y-105419104D01*
X158690476Y-105419104D02*
X158642857Y-105561961D01*
X158642857Y-105561961D02*
X158547619Y-105657200D01*
X158547619Y-105657200D02*
X158404762Y-105704819D01*
X158404762Y-105704819D02*
X158309524Y-105704819D01*
X159119048Y-104800057D02*
X159166667Y-104752438D01*
X159166667Y-104752438D02*
X159261905Y-104704819D01*
X159261905Y-104704819D02*
X159500000Y-104704819D01*
X159500000Y-104704819D02*
X159595238Y-104752438D01*
X159595238Y-104752438D02*
X159642857Y-104800057D01*
X159642857Y-104800057D02*
X159690476Y-104895295D01*
X159690476Y-104895295D02*
X159690476Y-104990533D01*
X159690476Y-104990533D02*
X159642857Y-105133390D01*
X159642857Y-105133390D02*
X159071429Y-105704819D01*
X159071429Y-105704819D02*
X159690476Y-105704819D01*
X160071429Y-104800057D02*
X160119048Y-104752438D01*
X160119048Y-104752438D02*
X160214286Y-104704819D01*
X160214286Y-104704819D02*
X160452381Y-104704819D01*
X160452381Y-104704819D02*
X160547619Y-104752438D01*
X160547619Y-104752438D02*
X160595238Y-104800057D01*
X160595238Y-104800057D02*
X160642857Y-104895295D01*
X160642857Y-104895295D02*
X160642857Y-104990533D01*
X160642857Y-104990533D02*
X160595238Y-105133390D01*
X160595238Y-105133390D02*
X160023810Y-105704819D01*
X160023810Y-105704819D02*
X160642857Y-105704819D01*
X131034819Y-97439047D02*
X130558628Y-97772380D01*
X131034819Y-98010475D02*
X130034819Y-98010475D01*
X130034819Y-98010475D02*
X130034819Y-97629523D01*
X130034819Y-97629523D02*
X130082438Y-97534285D01*
X130082438Y-97534285D02*
X130130057Y-97486666D01*
X130130057Y-97486666D02*
X130225295Y-97439047D01*
X130225295Y-97439047D02*
X130368152Y-97439047D01*
X130368152Y-97439047D02*
X130463390Y-97486666D01*
X130463390Y-97486666D02*
X130511009Y-97534285D01*
X130511009Y-97534285D02*
X130558628Y-97629523D01*
X130558628Y-97629523D02*
X130558628Y-98010475D01*
X130130057Y-97058094D02*
X130082438Y-97010475D01*
X130082438Y-97010475D02*
X130034819Y-96915237D01*
X130034819Y-96915237D02*
X130034819Y-96677142D01*
X130034819Y-96677142D02*
X130082438Y-96581904D01*
X130082438Y-96581904D02*
X130130057Y-96534285D01*
X130130057Y-96534285D02*
X130225295Y-96486666D01*
X130225295Y-96486666D02*
X130320533Y-96486666D01*
X130320533Y-96486666D02*
X130463390Y-96534285D01*
X130463390Y-96534285D02*
X131034819Y-97105713D01*
X131034819Y-97105713D02*
X131034819Y-96486666D01*
X130034819Y-95867618D02*
X130034819Y-95772380D01*
X130034819Y-95772380D02*
X130082438Y-95677142D01*
X130082438Y-95677142D02*
X130130057Y-95629523D01*
X130130057Y-95629523D02*
X130225295Y-95581904D01*
X130225295Y-95581904D02*
X130415771Y-95534285D01*
X130415771Y-95534285D02*
X130653866Y-95534285D01*
X130653866Y-95534285D02*
X130844342Y-95581904D01*
X130844342Y-95581904D02*
X130939580Y-95629523D01*
X130939580Y-95629523D02*
X130987200Y-95677142D01*
X130987200Y-95677142D02*
X131034819Y-95772380D01*
X131034819Y-95772380D02*
X131034819Y-95867618D01*
X131034819Y-95867618D02*
X130987200Y-95962856D01*
X130987200Y-95962856D02*
X130939580Y-96010475D01*
X130939580Y-96010475D02*
X130844342Y-96058094D01*
X130844342Y-96058094D02*
X130653866Y-96105713D01*
X130653866Y-96105713D02*
X130415771Y-96105713D01*
X130415771Y-96105713D02*
X130225295Y-96058094D01*
X130225295Y-96058094D02*
X130130057Y-96010475D01*
X130130057Y-96010475D02*
X130082438Y-95962856D01*
X130082438Y-95962856D02*
X130034819Y-95867618D01*
X130034819Y-94629523D02*
X130034819Y-95105713D01*
X130034819Y-95105713D02*
X130511009Y-95153332D01*
X130511009Y-95153332D02*
X130463390Y-95105713D01*
X130463390Y-95105713D02*
X130415771Y-95010475D01*
X130415771Y-95010475D02*
X130415771Y-94772380D01*
X130415771Y-94772380D02*
X130463390Y-94677142D01*
X130463390Y-94677142D02*
X130511009Y-94629523D01*
X130511009Y-94629523D02*
X130606247Y-94581904D01*
X130606247Y-94581904D02*
X130844342Y-94581904D01*
X130844342Y-94581904D02*
X130939580Y-94629523D01*
X130939580Y-94629523D02*
X130987200Y-94677142D01*
X130987200Y-94677142D02*
X131034819Y-94772380D01*
X131034819Y-94772380D02*
X131034819Y-95010475D01*
X131034819Y-95010475D02*
X130987200Y-95105713D01*
X130987200Y-95105713D02*
X130939580Y-95153332D01*
X129834819Y-75669047D02*
X129358628Y-76002380D01*
X129834819Y-76240475D02*
X128834819Y-76240475D01*
X128834819Y-76240475D02*
X128834819Y-75859523D01*
X128834819Y-75859523D02*
X128882438Y-75764285D01*
X128882438Y-75764285D02*
X128930057Y-75716666D01*
X128930057Y-75716666D02*
X129025295Y-75669047D01*
X129025295Y-75669047D02*
X129168152Y-75669047D01*
X129168152Y-75669047D02*
X129263390Y-75716666D01*
X129263390Y-75716666D02*
X129311009Y-75764285D01*
X129311009Y-75764285D02*
X129358628Y-75859523D01*
X129358628Y-75859523D02*
X129358628Y-76240475D01*
X129834819Y-74716666D02*
X129834819Y-75288094D01*
X129834819Y-75002380D02*
X128834819Y-75002380D01*
X128834819Y-75002380D02*
X128977676Y-75097618D01*
X128977676Y-75097618D02*
X129072914Y-75192856D01*
X129072914Y-75192856D02*
X129120533Y-75288094D01*
X128834819Y-74097618D02*
X128834819Y-74002380D01*
X128834819Y-74002380D02*
X128882438Y-73907142D01*
X128882438Y-73907142D02*
X128930057Y-73859523D01*
X128930057Y-73859523D02*
X129025295Y-73811904D01*
X129025295Y-73811904D02*
X129215771Y-73764285D01*
X129215771Y-73764285D02*
X129453866Y-73764285D01*
X129453866Y-73764285D02*
X129644342Y-73811904D01*
X129644342Y-73811904D02*
X129739580Y-73859523D01*
X129739580Y-73859523D02*
X129787200Y-73907142D01*
X129787200Y-73907142D02*
X129834819Y-74002380D01*
X129834819Y-74002380D02*
X129834819Y-74097618D01*
X129834819Y-74097618D02*
X129787200Y-74192856D01*
X129787200Y-74192856D02*
X129739580Y-74240475D01*
X129739580Y-74240475D02*
X129644342Y-74288094D01*
X129644342Y-74288094D02*
X129453866Y-74335713D01*
X129453866Y-74335713D02*
X129215771Y-74335713D01*
X129215771Y-74335713D02*
X129025295Y-74288094D01*
X129025295Y-74288094D02*
X128930057Y-74240475D01*
X128930057Y-74240475D02*
X128882438Y-74192856D01*
X128882438Y-74192856D02*
X128834819Y-74097618D01*
X128834819Y-73430951D02*
X128834819Y-72764285D01*
X128834819Y-72764285D02*
X129834819Y-73192856D01*
X143850952Y-105694819D02*
X143517619Y-105218628D01*
X143279524Y-105694819D02*
X143279524Y-104694819D01*
X143279524Y-104694819D02*
X143660476Y-104694819D01*
X143660476Y-104694819D02*
X143755714Y-104742438D01*
X143755714Y-104742438D02*
X143803333Y-104790057D01*
X143803333Y-104790057D02*
X143850952Y-104885295D01*
X143850952Y-104885295D02*
X143850952Y-105028152D01*
X143850952Y-105028152D02*
X143803333Y-105123390D01*
X143803333Y-105123390D02*
X143755714Y-105171009D01*
X143755714Y-105171009D02*
X143660476Y-105218628D01*
X143660476Y-105218628D02*
X143279524Y-105218628D01*
X144231905Y-104790057D02*
X144279524Y-104742438D01*
X144279524Y-104742438D02*
X144374762Y-104694819D01*
X144374762Y-104694819D02*
X144612857Y-104694819D01*
X144612857Y-104694819D02*
X144708095Y-104742438D01*
X144708095Y-104742438D02*
X144755714Y-104790057D01*
X144755714Y-104790057D02*
X144803333Y-104885295D01*
X144803333Y-104885295D02*
X144803333Y-104980533D01*
X144803333Y-104980533D02*
X144755714Y-105123390D01*
X144755714Y-105123390D02*
X144184286Y-105694819D01*
X144184286Y-105694819D02*
X144803333Y-105694819D01*
X145422381Y-104694819D02*
X145517619Y-104694819D01*
X145517619Y-104694819D02*
X145612857Y-104742438D01*
X145612857Y-104742438D02*
X145660476Y-104790057D01*
X145660476Y-104790057D02*
X145708095Y-104885295D01*
X145708095Y-104885295D02*
X145755714Y-105075771D01*
X145755714Y-105075771D02*
X145755714Y-105313866D01*
X145755714Y-105313866D02*
X145708095Y-105504342D01*
X145708095Y-105504342D02*
X145660476Y-105599580D01*
X145660476Y-105599580D02*
X145612857Y-105647200D01*
X145612857Y-105647200D02*
X145517619Y-105694819D01*
X145517619Y-105694819D02*
X145422381Y-105694819D01*
X145422381Y-105694819D02*
X145327143Y-105647200D01*
X145327143Y-105647200D02*
X145279524Y-105599580D01*
X145279524Y-105599580D02*
X145231905Y-105504342D01*
X145231905Y-105504342D02*
X145184286Y-105313866D01*
X145184286Y-105313866D02*
X145184286Y-105075771D01*
X145184286Y-105075771D02*
X145231905Y-104885295D01*
X145231905Y-104885295D02*
X145279524Y-104790057D01*
X145279524Y-104790057D02*
X145327143Y-104742438D01*
X145327143Y-104742438D02*
X145422381Y-104694819D01*
X146089048Y-104694819D02*
X146708095Y-104694819D01*
X146708095Y-104694819D02*
X146374762Y-105075771D01*
X146374762Y-105075771D02*
X146517619Y-105075771D01*
X146517619Y-105075771D02*
X146612857Y-105123390D01*
X146612857Y-105123390D02*
X146660476Y-105171009D01*
X146660476Y-105171009D02*
X146708095Y-105266247D01*
X146708095Y-105266247D02*
X146708095Y-105504342D01*
X146708095Y-105504342D02*
X146660476Y-105599580D01*
X146660476Y-105599580D02*
X146612857Y-105647200D01*
X146612857Y-105647200D02*
X146517619Y-105694819D01*
X146517619Y-105694819D02*
X146231905Y-105694819D01*
X146231905Y-105694819D02*
X146136667Y-105647200D01*
X146136667Y-105647200D02*
X146089048Y-105599580D01*
X137928571Y-96020057D02*
X137833333Y-95972438D01*
X137833333Y-95972438D02*
X137738095Y-95877200D01*
X137738095Y-95877200D02*
X137595238Y-95734342D01*
X137595238Y-95734342D02*
X137500000Y-95686723D01*
X137500000Y-95686723D02*
X137404762Y-95686723D01*
X137452381Y-95924819D02*
X137357143Y-95877200D01*
X137357143Y-95877200D02*
X137261905Y-95781961D01*
X137261905Y-95781961D02*
X137214286Y-95591485D01*
X137214286Y-95591485D02*
X137214286Y-95258152D01*
X137214286Y-95258152D02*
X137261905Y-95067676D01*
X137261905Y-95067676D02*
X137357143Y-94972438D01*
X137357143Y-94972438D02*
X137452381Y-94924819D01*
X137452381Y-94924819D02*
X137642857Y-94924819D01*
X137642857Y-94924819D02*
X137738095Y-94972438D01*
X137738095Y-94972438D02*
X137833333Y-95067676D01*
X137833333Y-95067676D02*
X137880952Y-95258152D01*
X137880952Y-95258152D02*
X137880952Y-95591485D01*
X137880952Y-95591485D02*
X137833333Y-95781961D01*
X137833333Y-95781961D02*
X137738095Y-95877200D01*
X137738095Y-95877200D02*
X137642857Y-95924819D01*
X137642857Y-95924819D02*
X137452381Y-95924819D01*
X138261905Y-95020057D02*
X138309524Y-94972438D01*
X138309524Y-94972438D02*
X138404762Y-94924819D01*
X138404762Y-94924819D02*
X138642857Y-94924819D01*
X138642857Y-94924819D02*
X138738095Y-94972438D01*
X138738095Y-94972438D02*
X138785714Y-95020057D01*
X138785714Y-95020057D02*
X138833333Y-95115295D01*
X138833333Y-95115295D02*
X138833333Y-95210533D01*
X138833333Y-95210533D02*
X138785714Y-95353390D01*
X138785714Y-95353390D02*
X138214286Y-95924819D01*
X138214286Y-95924819D02*
X138833333Y-95924819D01*
X139452381Y-94924819D02*
X139547619Y-94924819D01*
X139547619Y-94924819D02*
X139642857Y-94972438D01*
X139642857Y-94972438D02*
X139690476Y-95020057D01*
X139690476Y-95020057D02*
X139738095Y-95115295D01*
X139738095Y-95115295D02*
X139785714Y-95305771D01*
X139785714Y-95305771D02*
X139785714Y-95543866D01*
X139785714Y-95543866D02*
X139738095Y-95734342D01*
X139738095Y-95734342D02*
X139690476Y-95829580D01*
X139690476Y-95829580D02*
X139642857Y-95877200D01*
X139642857Y-95877200D02*
X139547619Y-95924819D01*
X139547619Y-95924819D02*
X139452381Y-95924819D01*
X139452381Y-95924819D02*
X139357143Y-95877200D01*
X139357143Y-95877200D02*
X139309524Y-95829580D01*
X139309524Y-95829580D02*
X139261905Y-95734342D01*
X139261905Y-95734342D02*
X139214286Y-95543866D01*
X139214286Y-95543866D02*
X139214286Y-95305771D01*
X139214286Y-95305771D02*
X139261905Y-95115295D01*
X139261905Y-95115295D02*
X139309524Y-95020057D01*
X139309524Y-95020057D02*
X139357143Y-94972438D01*
X139357143Y-94972438D02*
X139452381Y-94924819D01*
X120738095Y-76954819D02*
X120738095Y-77764342D01*
X120738095Y-77764342D02*
X120785714Y-77859580D01*
X120785714Y-77859580D02*
X120833333Y-77907200D01*
X120833333Y-77907200D02*
X120928571Y-77954819D01*
X120928571Y-77954819D02*
X121119047Y-77954819D01*
X121119047Y-77954819D02*
X121214285Y-77907200D01*
X121214285Y-77907200D02*
X121261904Y-77859580D01*
X121261904Y-77859580D02*
X121309523Y-77764342D01*
X121309523Y-77764342D02*
X121309523Y-76954819D01*
X122309523Y-77954819D02*
X121738095Y-77954819D01*
X122023809Y-77954819D02*
X122023809Y-76954819D01*
X122023809Y-76954819D02*
X121928571Y-77097676D01*
X121928571Y-77097676D02*
X121833333Y-77192914D01*
X121833333Y-77192914D02*
X121738095Y-77240533D01*
X119934819Y-86539047D02*
X119458628Y-86872380D01*
X119934819Y-87110475D02*
X118934819Y-87110475D01*
X118934819Y-87110475D02*
X118934819Y-86729523D01*
X118934819Y-86729523D02*
X118982438Y-86634285D01*
X118982438Y-86634285D02*
X119030057Y-86586666D01*
X119030057Y-86586666D02*
X119125295Y-86539047D01*
X119125295Y-86539047D02*
X119268152Y-86539047D01*
X119268152Y-86539047D02*
X119363390Y-86586666D01*
X119363390Y-86586666D02*
X119411009Y-86634285D01*
X119411009Y-86634285D02*
X119458628Y-86729523D01*
X119458628Y-86729523D02*
X119458628Y-87110475D01*
X119934819Y-85586666D02*
X119934819Y-86158094D01*
X119934819Y-85872380D02*
X118934819Y-85872380D01*
X118934819Y-85872380D02*
X119077676Y-85967618D01*
X119077676Y-85967618D02*
X119172914Y-86062856D01*
X119172914Y-86062856D02*
X119220533Y-86158094D01*
X119934819Y-84634285D02*
X119934819Y-85205713D01*
X119934819Y-84919999D02*
X118934819Y-84919999D01*
X118934819Y-84919999D02*
X119077676Y-85015237D01*
X119077676Y-85015237D02*
X119172914Y-85110475D01*
X119172914Y-85110475D02*
X119220533Y-85205713D01*
X119268152Y-83777142D02*
X119934819Y-83777142D01*
X118887200Y-84015237D02*
X119601485Y-84253332D01*
X119601485Y-84253332D02*
X119601485Y-83634285D01*
X168028571Y-96150057D02*
X167933333Y-96102438D01*
X167933333Y-96102438D02*
X167838095Y-96007200D01*
X167838095Y-96007200D02*
X167695238Y-95864342D01*
X167695238Y-95864342D02*
X167600000Y-95816723D01*
X167600000Y-95816723D02*
X167504762Y-95816723D01*
X167552381Y-96054819D02*
X167457143Y-96007200D01*
X167457143Y-96007200D02*
X167361905Y-95911961D01*
X167361905Y-95911961D02*
X167314286Y-95721485D01*
X167314286Y-95721485D02*
X167314286Y-95388152D01*
X167314286Y-95388152D02*
X167361905Y-95197676D01*
X167361905Y-95197676D02*
X167457143Y-95102438D01*
X167457143Y-95102438D02*
X167552381Y-95054819D01*
X167552381Y-95054819D02*
X167742857Y-95054819D01*
X167742857Y-95054819D02*
X167838095Y-95102438D01*
X167838095Y-95102438D02*
X167933333Y-95197676D01*
X167933333Y-95197676D02*
X167980952Y-95388152D01*
X167980952Y-95388152D02*
X167980952Y-95721485D01*
X167980952Y-95721485D02*
X167933333Y-95911961D01*
X167933333Y-95911961D02*
X167838095Y-96007200D01*
X167838095Y-96007200D02*
X167742857Y-96054819D01*
X167742857Y-96054819D02*
X167552381Y-96054819D01*
X168361905Y-95150057D02*
X168409524Y-95102438D01*
X168409524Y-95102438D02*
X168504762Y-95054819D01*
X168504762Y-95054819D02*
X168742857Y-95054819D01*
X168742857Y-95054819D02*
X168838095Y-95102438D01*
X168838095Y-95102438D02*
X168885714Y-95150057D01*
X168885714Y-95150057D02*
X168933333Y-95245295D01*
X168933333Y-95245295D02*
X168933333Y-95340533D01*
X168933333Y-95340533D02*
X168885714Y-95483390D01*
X168885714Y-95483390D02*
X168314286Y-96054819D01*
X168314286Y-96054819D02*
X168933333Y-96054819D01*
X169885714Y-96054819D02*
X169314286Y-96054819D01*
X169600000Y-96054819D02*
X169600000Y-95054819D01*
X169600000Y-95054819D02*
X169504762Y-95197676D01*
X169504762Y-95197676D02*
X169409524Y-95292914D01*
X169409524Y-95292914D02*
X169314286Y-95340533D01*
X165509580Y-65569047D02*
X165557200Y-65616666D01*
X165557200Y-65616666D02*
X165604819Y-65759523D01*
X165604819Y-65759523D02*
X165604819Y-65854761D01*
X165604819Y-65854761D02*
X165557200Y-65997618D01*
X165557200Y-65997618D02*
X165461961Y-66092856D01*
X165461961Y-66092856D02*
X165366723Y-66140475D01*
X165366723Y-66140475D02*
X165176247Y-66188094D01*
X165176247Y-66188094D02*
X165033390Y-66188094D01*
X165033390Y-66188094D02*
X164842914Y-66140475D01*
X164842914Y-66140475D02*
X164747676Y-66092856D01*
X164747676Y-66092856D02*
X164652438Y-65997618D01*
X164652438Y-65997618D02*
X164604819Y-65854761D01*
X164604819Y-65854761D02*
X164604819Y-65759523D01*
X164604819Y-65759523D02*
X164652438Y-65616666D01*
X164652438Y-65616666D02*
X164700057Y-65569047D01*
X165604819Y-64616666D02*
X165604819Y-65188094D01*
X165604819Y-64902380D02*
X164604819Y-64902380D01*
X164604819Y-64902380D02*
X164747676Y-64997618D01*
X164747676Y-64997618D02*
X164842914Y-65092856D01*
X164842914Y-65092856D02*
X164890533Y-65188094D01*
X165604819Y-63664285D02*
X165604819Y-64235713D01*
X165604819Y-63949999D02*
X164604819Y-63949999D01*
X164604819Y-63949999D02*
X164747676Y-64045237D01*
X164747676Y-64045237D02*
X164842914Y-64140475D01*
X164842914Y-64140475D02*
X164890533Y-64235713D01*
X164938152Y-62807142D02*
X165604819Y-62807142D01*
X164557200Y-63045237D02*
X165271485Y-63283332D01*
X165271485Y-63283332D02*
X165271485Y-62664285D01*
X180357142Y-92559580D02*
X180309523Y-92607200D01*
X180309523Y-92607200D02*
X180166666Y-92654819D01*
X180166666Y-92654819D02*
X180071428Y-92654819D01*
X180071428Y-92654819D02*
X179928571Y-92607200D01*
X179928571Y-92607200D02*
X179833333Y-92511961D01*
X179833333Y-92511961D02*
X179785714Y-92416723D01*
X179785714Y-92416723D02*
X179738095Y-92226247D01*
X179738095Y-92226247D02*
X179738095Y-92083390D01*
X179738095Y-92083390D02*
X179785714Y-91892914D01*
X179785714Y-91892914D02*
X179833333Y-91797676D01*
X179833333Y-91797676D02*
X179928571Y-91702438D01*
X179928571Y-91702438D02*
X180071428Y-91654819D01*
X180071428Y-91654819D02*
X180166666Y-91654819D01*
X180166666Y-91654819D02*
X180309523Y-91702438D01*
X180309523Y-91702438D02*
X180357142Y-91750057D01*
X180738095Y-91750057D02*
X180785714Y-91702438D01*
X180785714Y-91702438D02*
X180880952Y-91654819D01*
X180880952Y-91654819D02*
X181119047Y-91654819D01*
X181119047Y-91654819D02*
X181214285Y-91702438D01*
X181214285Y-91702438D02*
X181261904Y-91750057D01*
X181261904Y-91750057D02*
X181309523Y-91845295D01*
X181309523Y-91845295D02*
X181309523Y-91940533D01*
X181309523Y-91940533D02*
X181261904Y-92083390D01*
X181261904Y-92083390D02*
X180690476Y-92654819D01*
X180690476Y-92654819D02*
X181309523Y-92654819D01*
X182166666Y-91988152D02*
X182166666Y-92654819D01*
X181928571Y-91607200D02*
X181690476Y-92321485D01*
X181690476Y-92321485D02*
X182309523Y-92321485D01*
X114039580Y-114762857D02*
X114087200Y-114810476D01*
X114087200Y-114810476D02*
X114134819Y-114953333D01*
X114134819Y-114953333D02*
X114134819Y-115048571D01*
X114134819Y-115048571D02*
X114087200Y-115191428D01*
X114087200Y-115191428D02*
X113991961Y-115286666D01*
X113991961Y-115286666D02*
X113896723Y-115334285D01*
X113896723Y-115334285D02*
X113706247Y-115381904D01*
X113706247Y-115381904D02*
X113563390Y-115381904D01*
X113563390Y-115381904D02*
X113372914Y-115334285D01*
X113372914Y-115334285D02*
X113277676Y-115286666D01*
X113277676Y-115286666D02*
X113182438Y-115191428D01*
X113182438Y-115191428D02*
X113134819Y-115048571D01*
X113134819Y-115048571D02*
X113134819Y-114953333D01*
X113134819Y-114953333D02*
X113182438Y-114810476D01*
X113182438Y-114810476D02*
X113230057Y-114762857D01*
X113230057Y-114381904D02*
X113182438Y-114334285D01*
X113182438Y-114334285D02*
X113134819Y-114239047D01*
X113134819Y-114239047D02*
X113134819Y-114000952D01*
X113134819Y-114000952D02*
X113182438Y-113905714D01*
X113182438Y-113905714D02*
X113230057Y-113858095D01*
X113230057Y-113858095D02*
X113325295Y-113810476D01*
X113325295Y-113810476D02*
X113420533Y-113810476D01*
X113420533Y-113810476D02*
X113563390Y-113858095D01*
X113563390Y-113858095D02*
X114134819Y-114429523D01*
X114134819Y-114429523D02*
X114134819Y-113810476D01*
X113134819Y-113191428D02*
X113134819Y-113096190D01*
X113134819Y-113096190D02*
X113182438Y-113000952D01*
X113182438Y-113000952D02*
X113230057Y-112953333D01*
X113230057Y-112953333D02*
X113325295Y-112905714D01*
X113325295Y-112905714D02*
X113515771Y-112858095D01*
X113515771Y-112858095D02*
X113753866Y-112858095D01*
X113753866Y-112858095D02*
X113944342Y-112905714D01*
X113944342Y-112905714D02*
X114039580Y-112953333D01*
X114039580Y-112953333D02*
X114087200Y-113000952D01*
X114087200Y-113000952D02*
X114134819Y-113096190D01*
X114134819Y-113096190D02*
X114134819Y-113191428D01*
X114134819Y-113191428D02*
X114087200Y-113286666D01*
X114087200Y-113286666D02*
X114039580Y-113334285D01*
X114039580Y-113334285D02*
X113944342Y-113381904D01*
X113944342Y-113381904D02*
X113753866Y-113429523D01*
X113753866Y-113429523D02*
X113515771Y-113429523D01*
X113515771Y-113429523D02*
X113325295Y-113381904D01*
X113325295Y-113381904D02*
X113230057Y-113334285D01*
X113230057Y-113334285D02*
X113182438Y-113286666D01*
X113182438Y-113286666D02*
X113134819Y-113191428D01*
X122142912Y-65639047D02*
X122190532Y-65686666D01*
X122190532Y-65686666D02*
X122238151Y-65829523D01*
X122238151Y-65829523D02*
X122238151Y-65924761D01*
X122238151Y-65924761D02*
X122190532Y-66067618D01*
X122190532Y-66067618D02*
X122095293Y-66162856D01*
X122095293Y-66162856D02*
X122000055Y-66210475D01*
X122000055Y-66210475D02*
X121809579Y-66258094D01*
X121809579Y-66258094D02*
X121666722Y-66258094D01*
X121666722Y-66258094D02*
X121476246Y-66210475D01*
X121476246Y-66210475D02*
X121381008Y-66162856D01*
X121381008Y-66162856D02*
X121285770Y-66067618D01*
X121285770Y-66067618D02*
X121238151Y-65924761D01*
X121238151Y-65924761D02*
X121238151Y-65829523D01*
X121238151Y-65829523D02*
X121285770Y-65686666D01*
X121285770Y-65686666D02*
X121333389Y-65639047D01*
X122238151Y-64686666D02*
X122238151Y-65258094D01*
X122238151Y-64972380D02*
X121238151Y-64972380D01*
X121238151Y-64972380D02*
X121381008Y-65067618D01*
X121381008Y-65067618D02*
X121476246Y-65162856D01*
X121476246Y-65162856D02*
X121523865Y-65258094D01*
X122238151Y-63734285D02*
X122238151Y-64305713D01*
X122238151Y-64019999D02*
X121238151Y-64019999D01*
X121238151Y-64019999D02*
X121381008Y-64115237D01*
X121381008Y-64115237D02*
X121476246Y-64210475D01*
X121476246Y-64210475D02*
X121523865Y-64305713D01*
X122238151Y-63258094D02*
X122238151Y-63067618D01*
X122238151Y-63067618D02*
X122190532Y-62972380D01*
X122190532Y-62972380D02*
X122142912Y-62924761D01*
X122142912Y-62924761D02*
X122000055Y-62829523D01*
X122000055Y-62829523D02*
X121809579Y-62781904D01*
X121809579Y-62781904D02*
X121428627Y-62781904D01*
X121428627Y-62781904D02*
X121333389Y-62829523D01*
X121333389Y-62829523D02*
X121285770Y-62877142D01*
X121285770Y-62877142D02*
X121238151Y-62972380D01*
X121238151Y-62972380D02*
X121238151Y-63162856D01*
X121238151Y-63162856D02*
X121285770Y-63258094D01*
X121285770Y-63258094D02*
X121333389Y-63305713D01*
X121333389Y-63305713D02*
X121428627Y-63353332D01*
X121428627Y-63353332D02*
X121666722Y-63353332D01*
X121666722Y-63353332D02*
X121761960Y-63305713D01*
X121761960Y-63305713D02*
X121809579Y-63258094D01*
X121809579Y-63258094D02*
X121857198Y-63162856D01*
X121857198Y-63162856D02*
X121857198Y-62972380D01*
X121857198Y-62972380D02*
X121809579Y-62877142D01*
X121809579Y-62877142D02*
X121761960Y-62829523D01*
X121761960Y-62829523D02*
X121666722Y-62781904D01*
X98766666Y-90809819D02*
X98766666Y-91524104D01*
X98766666Y-91524104D02*
X98719047Y-91666961D01*
X98719047Y-91666961D02*
X98623809Y-91762200D01*
X98623809Y-91762200D02*
X98480952Y-91809819D01*
X98480952Y-91809819D02*
X98385714Y-91809819D01*
X99671428Y-91143152D02*
X99671428Y-91809819D01*
X99433333Y-90762200D02*
X99195238Y-91476485D01*
X99195238Y-91476485D02*
X99814285Y-91476485D01*
X142555057Y-82215238D02*
X142507438Y-82310476D01*
X142507438Y-82310476D02*
X142412200Y-82405714D01*
X142412200Y-82405714D02*
X142269342Y-82548571D01*
X142269342Y-82548571D02*
X142221723Y-82643809D01*
X142221723Y-82643809D02*
X142221723Y-82739047D01*
X142459819Y-82691428D02*
X142412200Y-82786666D01*
X142412200Y-82786666D02*
X142316961Y-82881904D01*
X142316961Y-82881904D02*
X142126485Y-82929523D01*
X142126485Y-82929523D02*
X141793152Y-82929523D01*
X141793152Y-82929523D02*
X141602676Y-82881904D01*
X141602676Y-82881904D02*
X141507438Y-82786666D01*
X141507438Y-82786666D02*
X141459819Y-82691428D01*
X141459819Y-82691428D02*
X141459819Y-82500952D01*
X141459819Y-82500952D02*
X141507438Y-82405714D01*
X141507438Y-82405714D02*
X141602676Y-82310476D01*
X141602676Y-82310476D02*
X141793152Y-82262857D01*
X141793152Y-82262857D02*
X142126485Y-82262857D01*
X142126485Y-82262857D02*
X142316961Y-82310476D01*
X142316961Y-82310476D02*
X142412200Y-82405714D01*
X142412200Y-82405714D02*
X142459819Y-82500952D01*
X142459819Y-82500952D02*
X142459819Y-82691428D01*
X141555057Y-81881904D02*
X141507438Y-81834285D01*
X141507438Y-81834285D02*
X141459819Y-81739047D01*
X141459819Y-81739047D02*
X141459819Y-81500952D01*
X141459819Y-81500952D02*
X141507438Y-81405714D01*
X141507438Y-81405714D02*
X141555057Y-81358095D01*
X141555057Y-81358095D02*
X141650295Y-81310476D01*
X141650295Y-81310476D02*
X141745533Y-81310476D01*
X141745533Y-81310476D02*
X141888390Y-81358095D01*
X141888390Y-81358095D02*
X142459819Y-81929523D01*
X142459819Y-81929523D02*
X142459819Y-81310476D01*
X102966667Y-113677200D02*
X103109524Y-113724819D01*
X103109524Y-113724819D02*
X103347619Y-113724819D01*
X103347619Y-113724819D02*
X103442857Y-113677200D01*
X103442857Y-113677200D02*
X103490476Y-113629580D01*
X103490476Y-113629580D02*
X103538095Y-113534342D01*
X103538095Y-113534342D02*
X103538095Y-113439104D01*
X103538095Y-113439104D02*
X103490476Y-113343866D01*
X103490476Y-113343866D02*
X103442857Y-113296247D01*
X103442857Y-113296247D02*
X103347619Y-113248628D01*
X103347619Y-113248628D02*
X103157143Y-113201009D01*
X103157143Y-113201009D02*
X103061905Y-113153390D01*
X103061905Y-113153390D02*
X103014286Y-113105771D01*
X103014286Y-113105771D02*
X102966667Y-113010533D01*
X102966667Y-113010533D02*
X102966667Y-112915295D01*
X102966667Y-112915295D02*
X103014286Y-112820057D01*
X103014286Y-112820057D02*
X103061905Y-112772438D01*
X103061905Y-112772438D02*
X103157143Y-112724819D01*
X103157143Y-112724819D02*
X103395238Y-112724819D01*
X103395238Y-112724819D02*
X103538095Y-112772438D01*
X103871429Y-112724819D02*
X104109524Y-113724819D01*
X104109524Y-113724819D02*
X104300000Y-113010533D01*
X104300000Y-113010533D02*
X104490476Y-113724819D01*
X104490476Y-113724819D02*
X104728572Y-112724819D01*
X105633333Y-113724819D02*
X105061905Y-113724819D01*
X105347619Y-113724819D02*
X105347619Y-112724819D01*
X105347619Y-112724819D02*
X105252381Y-112867676D01*
X105252381Y-112867676D02*
X105157143Y-112962914D01*
X105157143Y-112962914D02*
X105061905Y-113010533D01*
X130430952Y-68229580D02*
X130383333Y-68277200D01*
X130383333Y-68277200D02*
X130240476Y-68324819D01*
X130240476Y-68324819D02*
X130145238Y-68324819D01*
X130145238Y-68324819D02*
X130002381Y-68277200D01*
X130002381Y-68277200D02*
X129907143Y-68181961D01*
X129907143Y-68181961D02*
X129859524Y-68086723D01*
X129859524Y-68086723D02*
X129811905Y-67896247D01*
X129811905Y-67896247D02*
X129811905Y-67753390D01*
X129811905Y-67753390D02*
X129859524Y-67562914D01*
X129859524Y-67562914D02*
X129907143Y-67467676D01*
X129907143Y-67467676D02*
X130002381Y-67372438D01*
X130002381Y-67372438D02*
X130145238Y-67324819D01*
X130145238Y-67324819D02*
X130240476Y-67324819D01*
X130240476Y-67324819D02*
X130383333Y-67372438D01*
X130383333Y-67372438D02*
X130430952Y-67420057D01*
X131383333Y-68324819D02*
X130811905Y-68324819D01*
X131097619Y-68324819D02*
X131097619Y-67324819D01*
X131097619Y-67324819D02*
X131002381Y-67467676D01*
X131002381Y-67467676D02*
X130907143Y-67562914D01*
X130907143Y-67562914D02*
X130811905Y-67610533D01*
X132335714Y-68324819D02*
X131764286Y-68324819D01*
X132050000Y-68324819D02*
X132050000Y-67324819D01*
X132050000Y-67324819D02*
X131954762Y-67467676D01*
X131954762Y-67467676D02*
X131859524Y-67562914D01*
X131859524Y-67562914D02*
X131764286Y-67610533D01*
X133240476Y-67324819D02*
X132764286Y-67324819D01*
X132764286Y-67324819D02*
X132716667Y-67801009D01*
X132716667Y-67801009D02*
X132764286Y-67753390D01*
X132764286Y-67753390D02*
X132859524Y-67705771D01*
X132859524Y-67705771D02*
X133097619Y-67705771D01*
X133097619Y-67705771D02*
X133192857Y-67753390D01*
X133192857Y-67753390D02*
X133240476Y-67801009D01*
X133240476Y-67801009D02*
X133288095Y-67896247D01*
X133288095Y-67896247D02*
X133288095Y-68134342D01*
X133288095Y-68134342D02*
X133240476Y-68229580D01*
X133240476Y-68229580D02*
X133192857Y-68277200D01*
X133192857Y-68277200D02*
X133097619Y-68324819D01*
X133097619Y-68324819D02*
X132859524Y-68324819D01*
X132859524Y-68324819D02*
X132764286Y-68277200D01*
X132764286Y-68277200D02*
X132716667Y-68229580D01*
X128674819Y-92119047D02*
X128198628Y-92452380D01*
X128674819Y-92690475D02*
X127674819Y-92690475D01*
X127674819Y-92690475D02*
X127674819Y-92309523D01*
X127674819Y-92309523D02*
X127722438Y-92214285D01*
X127722438Y-92214285D02*
X127770057Y-92166666D01*
X127770057Y-92166666D02*
X127865295Y-92119047D01*
X127865295Y-92119047D02*
X128008152Y-92119047D01*
X128008152Y-92119047D02*
X128103390Y-92166666D01*
X128103390Y-92166666D02*
X128151009Y-92214285D01*
X128151009Y-92214285D02*
X128198628Y-92309523D01*
X128198628Y-92309523D02*
X128198628Y-92690475D01*
X128674819Y-91166666D02*
X128674819Y-91738094D01*
X128674819Y-91452380D02*
X127674819Y-91452380D01*
X127674819Y-91452380D02*
X127817676Y-91547618D01*
X127817676Y-91547618D02*
X127912914Y-91642856D01*
X127912914Y-91642856D02*
X127960533Y-91738094D01*
X127674819Y-90547618D02*
X127674819Y-90452380D01*
X127674819Y-90452380D02*
X127722438Y-90357142D01*
X127722438Y-90357142D02*
X127770057Y-90309523D01*
X127770057Y-90309523D02*
X127865295Y-90261904D01*
X127865295Y-90261904D02*
X128055771Y-90214285D01*
X128055771Y-90214285D02*
X128293866Y-90214285D01*
X128293866Y-90214285D02*
X128484342Y-90261904D01*
X128484342Y-90261904D02*
X128579580Y-90309523D01*
X128579580Y-90309523D02*
X128627200Y-90357142D01*
X128627200Y-90357142D02*
X128674819Y-90452380D01*
X128674819Y-90452380D02*
X128674819Y-90547618D01*
X128674819Y-90547618D02*
X128627200Y-90642856D01*
X128627200Y-90642856D02*
X128579580Y-90690475D01*
X128579580Y-90690475D02*
X128484342Y-90738094D01*
X128484342Y-90738094D02*
X128293866Y-90785713D01*
X128293866Y-90785713D02*
X128055771Y-90785713D01*
X128055771Y-90785713D02*
X127865295Y-90738094D01*
X127865295Y-90738094D02*
X127770057Y-90690475D01*
X127770057Y-90690475D02*
X127722438Y-90642856D01*
X127722438Y-90642856D02*
X127674819Y-90547618D01*
X128674819Y-89738094D02*
X128674819Y-89547618D01*
X128674819Y-89547618D02*
X128627200Y-89452380D01*
X128627200Y-89452380D02*
X128579580Y-89404761D01*
X128579580Y-89404761D02*
X128436723Y-89309523D01*
X128436723Y-89309523D02*
X128246247Y-89261904D01*
X128246247Y-89261904D02*
X127865295Y-89261904D01*
X127865295Y-89261904D02*
X127770057Y-89309523D01*
X127770057Y-89309523D02*
X127722438Y-89357142D01*
X127722438Y-89357142D02*
X127674819Y-89452380D01*
X127674819Y-89452380D02*
X127674819Y-89642856D01*
X127674819Y-89642856D02*
X127722438Y-89738094D01*
X127722438Y-89738094D02*
X127770057Y-89785713D01*
X127770057Y-89785713D02*
X127865295Y-89833332D01*
X127865295Y-89833332D02*
X128103390Y-89833332D01*
X128103390Y-89833332D02*
X128198628Y-89785713D01*
X128198628Y-89785713D02*
X128246247Y-89738094D01*
X128246247Y-89738094D02*
X128293866Y-89642856D01*
X128293866Y-89642856D02*
X128293866Y-89452380D01*
X128293866Y-89452380D02*
X128246247Y-89357142D01*
X128246247Y-89357142D02*
X128198628Y-89309523D01*
X128198628Y-89309523D02*
X128103390Y-89261904D01*
X103480952Y-82634819D02*
X103147619Y-82158628D01*
X102909524Y-82634819D02*
X102909524Y-81634819D01*
X102909524Y-81634819D02*
X103290476Y-81634819D01*
X103290476Y-81634819D02*
X103385714Y-81682438D01*
X103385714Y-81682438D02*
X103433333Y-81730057D01*
X103433333Y-81730057D02*
X103480952Y-81825295D01*
X103480952Y-81825295D02*
X103480952Y-81968152D01*
X103480952Y-81968152D02*
X103433333Y-82063390D01*
X103433333Y-82063390D02*
X103385714Y-82111009D01*
X103385714Y-82111009D02*
X103290476Y-82158628D01*
X103290476Y-82158628D02*
X102909524Y-82158628D01*
X104433333Y-82634819D02*
X103861905Y-82634819D01*
X104147619Y-82634819D02*
X104147619Y-81634819D01*
X104147619Y-81634819D02*
X104052381Y-81777676D01*
X104052381Y-81777676D02*
X103957143Y-81872914D01*
X103957143Y-81872914D02*
X103861905Y-81920533D01*
X105385714Y-82634819D02*
X104814286Y-82634819D01*
X105100000Y-82634819D02*
X105100000Y-81634819D01*
X105100000Y-81634819D02*
X105004762Y-81777676D01*
X105004762Y-81777676D02*
X104909524Y-81872914D01*
X104909524Y-81872914D02*
X104814286Y-81920533D01*
X106290476Y-81634819D02*
X105814286Y-81634819D01*
X105814286Y-81634819D02*
X105766667Y-82111009D01*
X105766667Y-82111009D02*
X105814286Y-82063390D01*
X105814286Y-82063390D02*
X105909524Y-82015771D01*
X105909524Y-82015771D02*
X106147619Y-82015771D01*
X106147619Y-82015771D02*
X106242857Y-82063390D01*
X106242857Y-82063390D02*
X106290476Y-82111009D01*
X106290476Y-82111009D02*
X106338095Y-82206247D01*
X106338095Y-82206247D02*
X106338095Y-82444342D01*
X106338095Y-82444342D02*
X106290476Y-82539580D01*
X106290476Y-82539580D02*
X106242857Y-82587200D01*
X106242857Y-82587200D02*
X106147619Y-82634819D01*
X106147619Y-82634819D02*
X105909524Y-82634819D01*
X105909524Y-82634819D02*
X105814286Y-82587200D01*
X105814286Y-82587200D02*
X105766667Y-82539580D01*
X98134819Y-70953333D02*
X98849104Y-70953333D01*
X98849104Y-70953333D02*
X98991961Y-71000952D01*
X98991961Y-71000952D02*
X99087200Y-71096190D01*
X99087200Y-71096190D02*
X99134819Y-71239047D01*
X99134819Y-71239047D02*
X99134819Y-71334285D01*
X99134819Y-69953333D02*
X99134819Y-70524761D01*
X99134819Y-70239047D02*
X98134819Y-70239047D01*
X98134819Y-70239047D02*
X98277676Y-70334285D01*
X98277676Y-70334285D02*
X98372914Y-70429523D01*
X98372914Y-70429523D02*
X98420533Y-70524761D01*
X137530952Y-94674819D02*
X137197619Y-94198628D01*
X136959524Y-94674819D02*
X136959524Y-93674819D01*
X136959524Y-93674819D02*
X137340476Y-93674819D01*
X137340476Y-93674819D02*
X137435714Y-93722438D01*
X137435714Y-93722438D02*
X137483333Y-93770057D01*
X137483333Y-93770057D02*
X137530952Y-93865295D01*
X137530952Y-93865295D02*
X137530952Y-94008152D01*
X137530952Y-94008152D02*
X137483333Y-94103390D01*
X137483333Y-94103390D02*
X137435714Y-94151009D01*
X137435714Y-94151009D02*
X137340476Y-94198628D01*
X137340476Y-94198628D02*
X136959524Y-94198628D01*
X137911905Y-93770057D02*
X137959524Y-93722438D01*
X137959524Y-93722438D02*
X138054762Y-93674819D01*
X138054762Y-93674819D02*
X138292857Y-93674819D01*
X138292857Y-93674819D02*
X138388095Y-93722438D01*
X138388095Y-93722438D02*
X138435714Y-93770057D01*
X138435714Y-93770057D02*
X138483333Y-93865295D01*
X138483333Y-93865295D02*
X138483333Y-93960533D01*
X138483333Y-93960533D02*
X138435714Y-94103390D01*
X138435714Y-94103390D02*
X137864286Y-94674819D01*
X137864286Y-94674819D02*
X138483333Y-94674819D01*
X139102381Y-93674819D02*
X139197619Y-93674819D01*
X139197619Y-93674819D02*
X139292857Y-93722438D01*
X139292857Y-93722438D02*
X139340476Y-93770057D01*
X139340476Y-93770057D02*
X139388095Y-93865295D01*
X139388095Y-93865295D02*
X139435714Y-94055771D01*
X139435714Y-94055771D02*
X139435714Y-94293866D01*
X139435714Y-94293866D02*
X139388095Y-94484342D01*
X139388095Y-94484342D02*
X139340476Y-94579580D01*
X139340476Y-94579580D02*
X139292857Y-94627200D01*
X139292857Y-94627200D02*
X139197619Y-94674819D01*
X139197619Y-94674819D02*
X139102381Y-94674819D01*
X139102381Y-94674819D02*
X139007143Y-94627200D01*
X139007143Y-94627200D02*
X138959524Y-94579580D01*
X138959524Y-94579580D02*
X138911905Y-94484342D01*
X138911905Y-94484342D02*
X138864286Y-94293866D01*
X138864286Y-94293866D02*
X138864286Y-94055771D01*
X138864286Y-94055771D02*
X138911905Y-93865295D01*
X138911905Y-93865295D02*
X138959524Y-93770057D01*
X138959524Y-93770057D02*
X139007143Y-93722438D01*
X139007143Y-93722438D02*
X139102381Y-93674819D01*
X139769048Y-93674819D02*
X140435714Y-93674819D01*
X140435714Y-93674819D02*
X140007143Y-94674819D01*
X118880952Y-95354819D02*
X118547619Y-94878628D01*
X118309524Y-95354819D02*
X118309524Y-94354819D01*
X118309524Y-94354819D02*
X118690476Y-94354819D01*
X118690476Y-94354819D02*
X118785714Y-94402438D01*
X118785714Y-94402438D02*
X118833333Y-94450057D01*
X118833333Y-94450057D02*
X118880952Y-94545295D01*
X118880952Y-94545295D02*
X118880952Y-94688152D01*
X118880952Y-94688152D02*
X118833333Y-94783390D01*
X118833333Y-94783390D02*
X118785714Y-94831009D01*
X118785714Y-94831009D02*
X118690476Y-94878628D01*
X118690476Y-94878628D02*
X118309524Y-94878628D01*
X119261905Y-94450057D02*
X119309524Y-94402438D01*
X119309524Y-94402438D02*
X119404762Y-94354819D01*
X119404762Y-94354819D02*
X119642857Y-94354819D01*
X119642857Y-94354819D02*
X119738095Y-94402438D01*
X119738095Y-94402438D02*
X119785714Y-94450057D01*
X119785714Y-94450057D02*
X119833333Y-94545295D01*
X119833333Y-94545295D02*
X119833333Y-94640533D01*
X119833333Y-94640533D02*
X119785714Y-94783390D01*
X119785714Y-94783390D02*
X119214286Y-95354819D01*
X119214286Y-95354819D02*
X119833333Y-95354819D01*
X120452381Y-94354819D02*
X120547619Y-94354819D01*
X120547619Y-94354819D02*
X120642857Y-94402438D01*
X120642857Y-94402438D02*
X120690476Y-94450057D01*
X120690476Y-94450057D02*
X120738095Y-94545295D01*
X120738095Y-94545295D02*
X120785714Y-94735771D01*
X120785714Y-94735771D02*
X120785714Y-94973866D01*
X120785714Y-94973866D02*
X120738095Y-95164342D01*
X120738095Y-95164342D02*
X120690476Y-95259580D01*
X120690476Y-95259580D02*
X120642857Y-95307200D01*
X120642857Y-95307200D02*
X120547619Y-95354819D01*
X120547619Y-95354819D02*
X120452381Y-95354819D01*
X120452381Y-95354819D02*
X120357143Y-95307200D01*
X120357143Y-95307200D02*
X120309524Y-95259580D01*
X120309524Y-95259580D02*
X120261905Y-95164342D01*
X120261905Y-95164342D02*
X120214286Y-94973866D01*
X120214286Y-94973866D02*
X120214286Y-94735771D01*
X120214286Y-94735771D02*
X120261905Y-94545295D01*
X120261905Y-94545295D02*
X120309524Y-94450057D01*
X120309524Y-94450057D02*
X120357143Y-94402438D01*
X120357143Y-94402438D02*
X120452381Y-94354819D01*
X121404762Y-94354819D02*
X121500000Y-94354819D01*
X121500000Y-94354819D02*
X121595238Y-94402438D01*
X121595238Y-94402438D02*
X121642857Y-94450057D01*
X121642857Y-94450057D02*
X121690476Y-94545295D01*
X121690476Y-94545295D02*
X121738095Y-94735771D01*
X121738095Y-94735771D02*
X121738095Y-94973866D01*
X121738095Y-94973866D02*
X121690476Y-95164342D01*
X121690476Y-95164342D02*
X121642857Y-95259580D01*
X121642857Y-95259580D02*
X121595238Y-95307200D01*
X121595238Y-95307200D02*
X121500000Y-95354819D01*
X121500000Y-95354819D02*
X121404762Y-95354819D01*
X121404762Y-95354819D02*
X121309524Y-95307200D01*
X121309524Y-95307200D02*
X121261905Y-95259580D01*
X121261905Y-95259580D02*
X121214286Y-95164342D01*
X121214286Y-95164342D02*
X121166667Y-94973866D01*
X121166667Y-94973866D02*
X121166667Y-94735771D01*
X121166667Y-94735771D02*
X121214286Y-94545295D01*
X121214286Y-94545295D02*
X121261905Y-94450057D01*
X121261905Y-94450057D02*
X121309524Y-94402438D01*
X121309524Y-94402438D02*
X121404762Y-94354819D01*
X144327142Y-94429580D02*
X144279523Y-94477200D01*
X144279523Y-94477200D02*
X144136666Y-94524819D01*
X144136666Y-94524819D02*
X144041428Y-94524819D01*
X144041428Y-94524819D02*
X143898571Y-94477200D01*
X143898571Y-94477200D02*
X143803333Y-94381961D01*
X143803333Y-94381961D02*
X143755714Y-94286723D01*
X143755714Y-94286723D02*
X143708095Y-94096247D01*
X143708095Y-94096247D02*
X143708095Y-93953390D01*
X143708095Y-93953390D02*
X143755714Y-93762914D01*
X143755714Y-93762914D02*
X143803333Y-93667676D01*
X143803333Y-93667676D02*
X143898571Y-93572438D01*
X143898571Y-93572438D02*
X144041428Y-93524819D01*
X144041428Y-93524819D02*
X144136666Y-93524819D01*
X144136666Y-93524819D02*
X144279523Y-93572438D01*
X144279523Y-93572438D02*
X144327142Y-93620057D01*
X144708095Y-93620057D02*
X144755714Y-93572438D01*
X144755714Y-93572438D02*
X144850952Y-93524819D01*
X144850952Y-93524819D02*
X145089047Y-93524819D01*
X145089047Y-93524819D02*
X145184285Y-93572438D01*
X145184285Y-93572438D02*
X145231904Y-93620057D01*
X145231904Y-93620057D02*
X145279523Y-93715295D01*
X145279523Y-93715295D02*
X145279523Y-93810533D01*
X145279523Y-93810533D02*
X145231904Y-93953390D01*
X145231904Y-93953390D02*
X144660476Y-94524819D01*
X144660476Y-94524819D02*
X145279523Y-94524819D01*
X145612857Y-93524819D02*
X146231904Y-93524819D01*
X146231904Y-93524819D02*
X145898571Y-93905771D01*
X145898571Y-93905771D02*
X146041428Y-93905771D01*
X146041428Y-93905771D02*
X146136666Y-93953390D01*
X146136666Y-93953390D02*
X146184285Y-94001009D01*
X146184285Y-94001009D02*
X146231904Y-94096247D01*
X146231904Y-94096247D02*
X146231904Y-94334342D01*
X146231904Y-94334342D02*
X146184285Y-94429580D01*
X146184285Y-94429580D02*
X146136666Y-94477200D01*
X146136666Y-94477200D02*
X146041428Y-94524819D01*
X146041428Y-94524819D02*
X145755714Y-94524819D01*
X145755714Y-94524819D02*
X145660476Y-94477200D01*
X145660476Y-94477200D02*
X145612857Y-94429580D01*
X142555057Y-67315238D02*
X142507438Y-67410476D01*
X142507438Y-67410476D02*
X142412200Y-67505714D01*
X142412200Y-67505714D02*
X142269342Y-67648571D01*
X142269342Y-67648571D02*
X142221723Y-67743809D01*
X142221723Y-67743809D02*
X142221723Y-67839047D01*
X142459819Y-67791428D02*
X142412200Y-67886666D01*
X142412200Y-67886666D02*
X142316961Y-67981904D01*
X142316961Y-67981904D02*
X142126485Y-68029523D01*
X142126485Y-68029523D02*
X141793152Y-68029523D01*
X141793152Y-68029523D02*
X141602676Y-67981904D01*
X141602676Y-67981904D02*
X141507438Y-67886666D01*
X141507438Y-67886666D02*
X141459819Y-67791428D01*
X141459819Y-67791428D02*
X141459819Y-67600952D01*
X141459819Y-67600952D02*
X141507438Y-67505714D01*
X141507438Y-67505714D02*
X141602676Y-67410476D01*
X141602676Y-67410476D02*
X141793152Y-67362857D01*
X141793152Y-67362857D02*
X142126485Y-67362857D01*
X142126485Y-67362857D02*
X142316961Y-67410476D01*
X142316961Y-67410476D02*
X142412200Y-67505714D01*
X142412200Y-67505714D02*
X142459819Y-67600952D01*
X142459819Y-67600952D02*
X142459819Y-67791428D01*
X142459819Y-66410476D02*
X142459819Y-66981904D01*
X142459819Y-66696190D02*
X141459819Y-66696190D01*
X141459819Y-66696190D02*
X141602676Y-66791428D01*
X141602676Y-66791428D02*
X141697914Y-66886666D01*
X141697914Y-66886666D02*
X141745533Y-66981904D01*
X162834819Y-97539047D02*
X162358628Y-97872380D01*
X162834819Y-98110475D02*
X161834819Y-98110475D01*
X161834819Y-98110475D02*
X161834819Y-97729523D01*
X161834819Y-97729523D02*
X161882438Y-97634285D01*
X161882438Y-97634285D02*
X161930057Y-97586666D01*
X161930057Y-97586666D02*
X162025295Y-97539047D01*
X162025295Y-97539047D02*
X162168152Y-97539047D01*
X162168152Y-97539047D02*
X162263390Y-97586666D01*
X162263390Y-97586666D02*
X162311009Y-97634285D01*
X162311009Y-97634285D02*
X162358628Y-97729523D01*
X162358628Y-97729523D02*
X162358628Y-98110475D01*
X161930057Y-97158094D02*
X161882438Y-97110475D01*
X161882438Y-97110475D02*
X161834819Y-97015237D01*
X161834819Y-97015237D02*
X161834819Y-96777142D01*
X161834819Y-96777142D02*
X161882438Y-96681904D01*
X161882438Y-96681904D02*
X161930057Y-96634285D01*
X161930057Y-96634285D02*
X162025295Y-96586666D01*
X162025295Y-96586666D02*
X162120533Y-96586666D01*
X162120533Y-96586666D02*
X162263390Y-96634285D01*
X162263390Y-96634285D02*
X162834819Y-97205713D01*
X162834819Y-97205713D02*
X162834819Y-96586666D01*
X162834819Y-95634285D02*
X162834819Y-96205713D01*
X162834819Y-95919999D02*
X161834819Y-95919999D01*
X161834819Y-95919999D02*
X161977676Y-96015237D01*
X161977676Y-96015237D02*
X162072914Y-96110475D01*
X162072914Y-96110475D02*
X162120533Y-96205713D01*
X161930057Y-95253332D02*
X161882438Y-95205713D01*
X161882438Y-95205713D02*
X161834819Y-95110475D01*
X161834819Y-95110475D02*
X161834819Y-94872380D01*
X161834819Y-94872380D02*
X161882438Y-94777142D01*
X161882438Y-94777142D02*
X161930057Y-94729523D01*
X161930057Y-94729523D02*
X162025295Y-94681904D01*
X162025295Y-94681904D02*
X162120533Y-94681904D01*
X162120533Y-94681904D02*
X162263390Y-94729523D01*
X162263390Y-94729523D02*
X162834819Y-95300951D01*
X162834819Y-95300951D02*
X162834819Y-94681904D01*
X161305057Y-82215238D02*
X161257438Y-82310476D01*
X161257438Y-82310476D02*
X161162200Y-82405714D01*
X161162200Y-82405714D02*
X161019342Y-82548571D01*
X161019342Y-82548571D02*
X160971723Y-82643809D01*
X160971723Y-82643809D02*
X160971723Y-82739047D01*
X161209819Y-82691428D02*
X161162200Y-82786666D01*
X161162200Y-82786666D02*
X161066961Y-82881904D01*
X161066961Y-82881904D02*
X160876485Y-82929523D01*
X160876485Y-82929523D02*
X160543152Y-82929523D01*
X160543152Y-82929523D02*
X160352676Y-82881904D01*
X160352676Y-82881904D02*
X160257438Y-82786666D01*
X160257438Y-82786666D02*
X160209819Y-82691428D01*
X160209819Y-82691428D02*
X160209819Y-82500952D01*
X160209819Y-82500952D02*
X160257438Y-82405714D01*
X160257438Y-82405714D02*
X160352676Y-82310476D01*
X160352676Y-82310476D02*
X160543152Y-82262857D01*
X160543152Y-82262857D02*
X160876485Y-82262857D01*
X160876485Y-82262857D02*
X161066961Y-82310476D01*
X161066961Y-82310476D02*
X161162200Y-82405714D01*
X161162200Y-82405714D02*
X161209819Y-82500952D01*
X161209819Y-82500952D02*
X161209819Y-82691428D01*
X160543152Y-81405714D02*
X161209819Y-81405714D01*
X160162200Y-81643809D02*
X160876485Y-81881904D01*
X160876485Y-81881904D02*
X160876485Y-81262857D01*
X179685714Y-97854819D02*
X179685714Y-96854819D01*
X179685714Y-96854819D02*
X179923809Y-96854819D01*
X179923809Y-96854819D02*
X180066666Y-96902438D01*
X180066666Y-96902438D02*
X180161904Y-96997676D01*
X180161904Y-96997676D02*
X180209523Y-97092914D01*
X180209523Y-97092914D02*
X180257142Y-97283390D01*
X180257142Y-97283390D02*
X180257142Y-97426247D01*
X180257142Y-97426247D02*
X180209523Y-97616723D01*
X180209523Y-97616723D02*
X180161904Y-97711961D01*
X180161904Y-97711961D02*
X180066666Y-97807200D01*
X180066666Y-97807200D02*
X179923809Y-97854819D01*
X179923809Y-97854819D02*
X179685714Y-97854819D01*
X180638095Y-96950057D02*
X180685714Y-96902438D01*
X180685714Y-96902438D02*
X180780952Y-96854819D01*
X180780952Y-96854819D02*
X181019047Y-96854819D01*
X181019047Y-96854819D02*
X181114285Y-96902438D01*
X181114285Y-96902438D02*
X181161904Y-96950057D01*
X181161904Y-96950057D02*
X181209523Y-97045295D01*
X181209523Y-97045295D02*
X181209523Y-97140533D01*
X181209523Y-97140533D02*
X181161904Y-97283390D01*
X181161904Y-97283390D02*
X180590476Y-97854819D01*
X180590476Y-97854819D02*
X181209523Y-97854819D01*
X181590476Y-96950057D02*
X181638095Y-96902438D01*
X181638095Y-96902438D02*
X181733333Y-96854819D01*
X181733333Y-96854819D02*
X181971428Y-96854819D01*
X181971428Y-96854819D02*
X182066666Y-96902438D01*
X182066666Y-96902438D02*
X182114285Y-96950057D01*
X182114285Y-96950057D02*
X182161904Y-97045295D01*
X182161904Y-97045295D02*
X182161904Y-97140533D01*
X182161904Y-97140533D02*
X182114285Y-97283390D01*
X182114285Y-97283390D02*
X181542857Y-97854819D01*
X181542857Y-97854819D02*
X182161904Y-97854819D01*
X169380952Y-106194819D02*
X169047619Y-105718628D01*
X168809524Y-106194819D02*
X168809524Y-105194819D01*
X168809524Y-105194819D02*
X169190476Y-105194819D01*
X169190476Y-105194819D02*
X169285714Y-105242438D01*
X169285714Y-105242438D02*
X169333333Y-105290057D01*
X169333333Y-105290057D02*
X169380952Y-105385295D01*
X169380952Y-105385295D02*
X169380952Y-105528152D01*
X169380952Y-105528152D02*
X169333333Y-105623390D01*
X169333333Y-105623390D02*
X169285714Y-105671009D01*
X169285714Y-105671009D02*
X169190476Y-105718628D01*
X169190476Y-105718628D02*
X168809524Y-105718628D01*
X169761905Y-105290057D02*
X169809524Y-105242438D01*
X169809524Y-105242438D02*
X169904762Y-105194819D01*
X169904762Y-105194819D02*
X170142857Y-105194819D01*
X170142857Y-105194819D02*
X170238095Y-105242438D01*
X170238095Y-105242438D02*
X170285714Y-105290057D01*
X170285714Y-105290057D02*
X170333333Y-105385295D01*
X170333333Y-105385295D02*
X170333333Y-105480533D01*
X170333333Y-105480533D02*
X170285714Y-105623390D01*
X170285714Y-105623390D02*
X169714286Y-106194819D01*
X169714286Y-106194819D02*
X170333333Y-106194819D01*
X171285714Y-106194819D02*
X170714286Y-106194819D01*
X171000000Y-106194819D02*
X171000000Y-105194819D01*
X171000000Y-105194819D02*
X170904762Y-105337676D01*
X170904762Y-105337676D02*
X170809524Y-105432914D01*
X170809524Y-105432914D02*
X170714286Y-105480533D01*
X172238095Y-106194819D02*
X171666667Y-106194819D01*
X171952381Y-106194819D02*
X171952381Y-105194819D01*
X171952381Y-105194819D02*
X171857143Y-105337676D01*
X171857143Y-105337676D02*
X171761905Y-105432914D01*
X171761905Y-105432914D02*
X171666667Y-105480533D01*
X161305057Y-67315238D02*
X161257438Y-67410476D01*
X161257438Y-67410476D02*
X161162200Y-67505714D01*
X161162200Y-67505714D02*
X161019342Y-67648571D01*
X161019342Y-67648571D02*
X160971723Y-67743809D01*
X160971723Y-67743809D02*
X160971723Y-67839047D01*
X161209819Y-67791428D02*
X161162200Y-67886666D01*
X161162200Y-67886666D02*
X161066961Y-67981904D01*
X161066961Y-67981904D02*
X160876485Y-68029523D01*
X160876485Y-68029523D02*
X160543152Y-68029523D01*
X160543152Y-68029523D02*
X160352676Y-67981904D01*
X160352676Y-67981904D02*
X160257438Y-67886666D01*
X160257438Y-67886666D02*
X160209819Y-67791428D01*
X160209819Y-67791428D02*
X160209819Y-67600952D01*
X160209819Y-67600952D02*
X160257438Y-67505714D01*
X160257438Y-67505714D02*
X160352676Y-67410476D01*
X160352676Y-67410476D02*
X160543152Y-67362857D01*
X160543152Y-67362857D02*
X160876485Y-67362857D01*
X160876485Y-67362857D02*
X161066961Y-67410476D01*
X161066961Y-67410476D02*
X161162200Y-67505714D01*
X161162200Y-67505714D02*
X161209819Y-67600952D01*
X161209819Y-67600952D02*
X161209819Y-67791428D01*
X160209819Y-67029523D02*
X160209819Y-66410476D01*
X160209819Y-66410476D02*
X160590771Y-66743809D01*
X160590771Y-66743809D02*
X160590771Y-66600952D01*
X160590771Y-66600952D02*
X160638390Y-66505714D01*
X160638390Y-66505714D02*
X160686009Y-66458095D01*
X160686009Y-66458095D02*
X160781247Y-66410476D01*
X160781247Y-66410476D02*
X161019342Y-66410476D01*
X161019342Y-66410476D02*
X161114580Y-66458095D01*
X161114580Y-66458095D02*
X161162200Y-66505714D01*
X161162200Y-66505714D02*
X161209819Y-66600952D01*
X161209819Y-66600952D02*
X161209819Y-66886666D01*
X161209819Y-66886666D02*
X161162200Y-66981904D01*
X161162200Y-66981904D02*
X161114580Y-67029523D01*
X125534819Y-76195475D02*
X124534819Y-76195475D01*
X124534819Y-76195475D02*
X124534819Y-75957380D01*
X124534819Y-75957380D02*
X124582438Y-75814523D01*
X124582438Y-75814523D02*
X124677676Y-75719285D01*
X124677676Y-75719285D02*
X124772914Y-75671666D01*
X124772914Y-75671666D02*
X124963390Y-75624047D01*
X124963390Y-75624047D02*
X125106247Y-75624047D01*
X125106247Y-75624047D02*
X125296723Y-75671666D01*
X125296723Y-75671666D02*
X125391961Y-75719285D01*
X125391961Y-75719285D02*
X125487200Y-75814523D01*
X125487200Y-75814523D02*
X125534819Y-75957380D01*
X125534819Y-75957380D02*
X125534819Y-76195475D01*
X125534819Y-74671666D02*
X125534819Y-75243094D01*
X125534819Y-74957380D02*
X124534819Y-74957380D01*
X124534819Y-74957380D02*
X124677676Y-75052618D01*
X124677676Y-75052618D02*
X124772914Y-75147856D01*
X124772914Y-75147856D02*
X124820533Y-75243094D01*
X124534819Y-74052618D02*
X124534819Y-73957380D01*
X124534819Y-73957380D02*
X124582438Y-73862142D01*
X124582438Y-73862142D02*
X124630057Y-73814523D01*
X124630057Y-73814523D02*
X124725295Y-73766904D01*
X124725295Y-73766904D02*
X124915771Y-73719285D01*
X124915771Y-73719285D02*
X125153866Y-73719285D01*
X125153866Y-73719285D02*
X125344342Y-73766904D01*
X125344342Y-73766904D02*
X125439580Y-73814523D01*
X125439580Y-73814523D02*
X125487200Y-73862142D01*
X125487200Y-73862142D02*
X125534819Y-73957380D01*
X125534819Y-73957380D02*
X125534819Y-74052618D01*
X125534819Y-74052618D02*
X125487200Y-74147856D01*
X125487200Y-74147856D02*
X125439580Y-74195475D01*
X125439580Y-74195475D02*
X125344342Y-74243094D01*
X125344342Y-74243094D02*
X125153866Y-74290713D01*
X125153866Y-74290713D02*
X124915771Y-74290713D01*
X124915771Y-74290713D02*
X124725295Y-74243094D01*
X124725295Y-74243094D02*
X124630057Y-74195475D01*
X124630057Y-74195475D02*
X124582438Y-74147856D01*
X124582438Y-74147856D02*
X124534819Y-74052618D01*
X124534819Y-73100237D02*
X124534819Y-73004999D01*
X124534819Y-73004999D02*
X124582438Y-72909761D01*
X124582438Y-72909761D02*
X124630057Y-72862142D01*
X124630057Y-72862142D02*
X124725295Y-72814523D01*
X124725295Y-72814523D02*
X124915771Y-72766904D01*
X124915771Y-72766904D02*
X125153866Y-72766904D01*
X125153866Y-72766904D02*
X125344342Y-72814523D01*
X125344342Y-72814523D02*
X125439580Y-72862142D01*
X125439580Y-72862142D02*
X125487200Y-72909761D01*
X125487200Y-72909761D02*
X125534819Y-73004999D01*
X125534819Y-73004999D02*
X125534819Y-73100237D01*
X125534819Y-73100237D02*
X125487200Y-73195475D01*
X125487200Y-73195475D02*
X125439580Y-73243094D01*
X125439580Y-73243094D02*
X125344342Y-73290713D01*
X125344342Y-73290713D02*
X125153866Y-73338332D01*
X125153866Y-73338332D02*
X124915771Y-73338332D01*
X124915771Y-73338332D02*
X124725295Y-73290713D01*
X124725295Y-73290713D02*
X124630057Y-73243094D01*
X124630057Y-73243094D02*
X124582438Y-73195475D01*
X124582438Y-73195475D02*
X124534819Y-73100237D01*
X123590476Y-94854819D02*
X123590476Y-95569104D01*
X123590476Y-95569104D02*
X123542857Y-95711961D01*
X123542857Y-95711961D02*
X123447619Y-95807200D01*
X123447619Y-95807200D02*
X123304762Y-95854819D01*
X123304762Y-95854819D02*
X123209524Y-95854819D01*
X124019048Y-94950057D02*
X124066667Y-94902438D01*
X124066667Y-94902438D02*
X124161905Y-94854819D01*
X124161905Y-94854819D02*
X124400000Y-94854819D01*
X124400000Y-94854819D02*
X124495238Y-94902438D01*
X124495238Y-94902438D02*
X124542857Y-94950057D01*
X124542857Y-94950057D02*
X124590476Y-95045295D01*
X124590476Y-95045295D02*
X124590476Y-95140533D01*
X124590476Y-95140533D02*
X124542857Y-95283390D01*
X124542857Y-95283390D02*
X123971429Y-95854819D01*
X123971429Y-95854819D02*
X124590476Y-95854819D01*
X125542857Y-95854819D02*
X124971429Y-95854819D01*
X125257143Y-95854819D02*
X125257143Y-94854819D01*
X125257143Y-94854819D02*
X125161905Y-94997676D01*
X125161905Y-94997676D02*
X125066667Y-95092914D01*
X125066667Y-95092914D02*
X124971429Y-95140533D01*
X119257142Y-104609580D02*
X119209523Y-104657200D01*
X119209523Y-104657200D02*
X119066666Y-104704819D01*
X119066666Y-104704819D02*
X118971428Y-104704819D01*
X118971428Y-104704819D02*
X118828571Y-104657200D01*
X118828571Y-104657200D02*
X118733333Y-104561961D01*
X118733333Y-104561961D02*
X118685714Y-104466723D01*
X118685714Y-104466723D02*
X118638095Y-104276247D01*
X118638095Y-104276247D02*
X118638095Y-104133390D01*
X118638095Y-104133390D02*
X118685714Y-103942914D01*
X118685714Y-103942914D02*
X118733333Y-103847676D01*
X118733333Y-103847676D02*
X118828571Y-103752438D01*
X118828571Y-103752438D02*
X118971428Y-103704819D01*
X118971428Y-103704819D02*
X119066666Y-103704819D01*
X119066666Y-103704819D02*
X119209523Y-103752438D01*
X119209523Y-103752438D02*
X119257142Y-103800057D01*
X119638095Y-103800057D02*
X119685714Y-103752438D01*
X119685714Y-103752438D02*
X119780952Y-103704819D01*
X119780952Y-103704819D02*
X120019047Y-103704819D01*
X120019047Y-103704819D02*
X120114285Y-103752438D01*
X120114285Y-103752438D02*
X120161904Y-103800057D01*
X120161904Y-103800057D02*
X120209523Y-103895295D01*
X120209523Y-103895295D02*
X120209523Y-103990533D01*
X120209523Y-103990533D02*
X120161904Y-104133390D01*
X120161904Y-104133390D02*
X119590476Y-104704819D01*
X119590476Y-104704819D02*
X120209523Y-104704819D01*
X120590476Y-103800057D02*
X120638095Y-103752438D01*
X120638095Y-103752438D02*
X120733333Y-103704819D01*
X120733333Y-103704819D02*
X120971428Y-103704819D01*
X120971428Y-103704819D02*
X121066666Y-103752438D01*
X121066666Y-103752438D02*
X121114285Y-103800057D01*
X121114285Y-103800057D02*
X121161904Y-103895295D01*
X121161904Y-103895295D02*
X121161904Y-103990533D01*
X121161904Y-103990533D02*
X121114285Y-104133390D01*
X121114285Y-104133390D02*
X120542857Y-104704819D01*
X120542857Y-104704819D02*
X121161904Y-104704819D01*
X107509580Y-65639047D02*
X107557200Y-65686666D01*
X107557200Y-65686666D02*
X107604819Y-65829523D01*
X107604819Y-65829523D02*
X107604819Y-65924761D01*
X107604819Y-65924761D02*
X107557200Y-66067618D01*
X107557200Y-66067618D02*
X107461961Y-66162856D01*
X107461961Y-66162856D02*
X107366723Y-66210475D01*
X107366723Y-66210475D02*
X107176247Y-66258094D01*
X107176247Y-66258094D02*
X107033390Y-66258094D01*
X107033390Y-66258094D02*
X106842914Y-66210475D01*
X106842914Y-66210475D02*
X106747676Y-66162856D01*
X106747676Y-66162856D02*
X106652438Y-66067618D01*
X106652438Y-66067618D02*
X106604819Y-65924761D01*
X106604819Y-65924761D02*
X106604819Y-65829523D01*
X106604819Y-65829523D02*
X106652438Y-65686666D01*
X106652438Y-65686666D02*
X106700057Y-65639047D01*
X107604819Y-64686666D02*
X107604819Y-65258094D01*
X107604819Y-64972380D02*
X106604819Y-64972380D01*
X106604819Y-64972380D02*
X106747676Y-65067618D01*
X106747676Y-65067618D02*
X106842914Y-65162856D01*
X106842914Y-65162856D02*
X106890533Y-65258094D01*
X107604819Y-63734285D02*
X107604819Y-64305713D01*
X107604819Y-64019999D02*
X106604819Y-64019999D01*
X106604819Y-64019999D02*
X106747676Y-64115237D01*
X106747676Y-64115237D02*
X106842914Y-64210475D01*
X106842914Y-64210475D02*
X106890533Y-64305713D01*
X107033390Y-63162856D02*
X106985771Y-63258094D01*
X106985771Y-63258094D02*
X106938152Y-63305713D01*
X106938152Y-63305713D02*
X106842914Y-63353332D01*
X106842914Y-63353332D02*
X106795295Y-63353332D01*
X106795295Y-63353332D02*
X106700057Y-63305713D01*
X106700057Y-63305713D02*
X106652438Y-63258094D01*
X106652438Y-63258094D02*
X106604819Y-63162856D01*
X106604819Y-63162856D02*
X106604819Y-62972380D01*
X106604819Y-62972380D02*
X106652438Y-62877142D01*
X106652438Y-62877142D02*
X106700057Y-62829523D01*
X106700057Y-62829523D02*
X106795295Y-62781904D01*
X106795295Y-62781904D02*
X106842914Y-62781904D01*
X106842914Y-62781904D02*
X106938152Y-62829523D01*
X106938152Y-62829523D02*
X106985771Y-62877142D01*
X106985771Y-62877142D02*
X107033390Y-62972380D01*
X107033390Y-62972380D02*
X107033390Y-63162856D01*
X107033390Y-63162856D02*
X107081009Y-63258094D01*
X107081009Y-63258094D02*
X107128628Y-63305713D01*
X107128628Y-63305713D02*
X107223866Y-63353332D01*
X107223866Y-63353332D02*
X107414342Y-63353332D01*
X107414342Y-63353332D02*
X107509580Y-63305713D01*
X107509580Y-63305713D02*
X107557200Y-63258094D01*
X107557200Y-63258094D02*
X107604819Y-63162856D01*
X107604819Y-63162856D02*
X107604819Y-62972380D01*
X107604819Y-62972380D02*
X107557200Y-62877142D01*
X107557200Y-62877142D02*
X107509580Y-62829523D01*
X107509580Y-62829523D02*
X107414342Y-62781904D01*
X107414342Y-62781904D02*
X107223866Y-62781904D01*
X107223866Y-62781904D02*
X107128628Y-62829523D01*
X107128628Y-62829523D02*
X107081009Y-62877142D01*
X107081009Y-62877142D02*
X107033390Y-62972380D01*
X136950476Y-106574819D02*
X136950476Y-107289104D01*
X136950476Y-107289104D02*
X136902857Y-107431961D01*
X136902857Y-107431961D02*
X136807619Y-107527200D01*
X136807619Y-107527200D02*
X136664762Y-107574819D01*
X136664762Y-107574819D02*
X136569524Y-107574819D01*
X137379048Y-106670057D02*
X137426667Y-106622438D01*
X137426667Y-106622438D02*
X137521905Y-106574819D01*
X137521905Y-106574819D02*
X137760000Y-106574819D01*
X137760000Y-106574819D02*
X137855238Y-106622438D01*
X137855238Y-106622438D02*
X137902857Y-106670057D01*
X137902857Y-106670057D02*
X137950476Y-106765295D01*
X137950476Y-106765295D02*
X137950476Y-106860533D01*
X137950476Y-106860533D02*
X137902857Y-107003390D01*
X137902857Y-107003390D02*
X137331429Y-107574819D01*
X137331429Y-107574819D02*
X137950476Y-107574819D01*
X138283810Y-106574819D02*
X138902857Y-106574819D01*
X138902857Y-106574819D02*
X138569524Y-106955771D01*
X138569524Y-106955771D02*
X138712381Y-106955771D01*
X138712381Y-106955771D02*
X138807619Y-107003390D01*
X138807619Y-107003390D02*
X138855238Y-107051009D01*
X138855238Y-107051009D02*
X138902857Y-107146247D01*
X138902857Y-107146247D02*
X138902857Y-107384342D01*
X138902857Y-107384342D02*
X138855238Y-107479580D01*
X138855238Y-107479580D02*
X138807619Y-107527200D01*
X138807619Y-107527200D02*
X138712381Y-107574819D01*
X138712381Y-107574819D02*
X138426667Y-107574819D01*
X138426667Y-107574819D02*
X138331429Y-107527200D01*
X138331429Y-107527200D02*
X138283810Y-107479580D01*
X112976246Y-65639047D02*
X113023866Y-65686666D01*
X113023866Y-65686666D02*
X113071485Y-65829523D01*
X113071485Y-65829523D02*
X113071485Y-65924761D01*
X113071485Y-65924761D02*
X113023866Y-66067618D01*
X113023866Y-66067618D02*
X112928627Y-66162856D01*
X112928627Y-66162856D02*
X112833389Y-66210475D01*
X112833389Y-66210475D02*
X112642913Y-66258094D01*
X112642913Y-66258094D02*
X112500056Y-66258094D01*
X112500056Y-66258094D02*
X112309580Y-66210475D01*
X112309580Y-66210475D02*
X112214342Y-66162856D01*
X112214342Y-66162856D02*
X112119104Y-66067618D01*
X112119104Y-66067618D02*
X112071485Y-65924761D01*
X112071485Y-65924761D02*
X112071485Y-65829523D01*
X112071485Y-65829523D02*
X112119104Y-65686666D01*
X112119104Y-65686666D02*
X112166723Y-65639047D01*
X113071485Y-64686666D02*
X113071485Y-65258094D01*
X113071485Y-64972380D02*
X112071485Y-64972380D01*
X112071485Y-64972380D02*
X112214342Y-65067618D01*
X112214342Y-65067618D02*
X112309580Y-65162856D01*
X112309580Y-65162856D02*
X112357199Y-65258094D01*
X113071485Y-63734285D02*
X113071485Y-64305713D01*
X113071485Y-64019999D02*
X112071485Y-64019999D01*
X112071485Y-64019999D02*
X112214342Y-64115237D01*
X112214342Y-64115237D02*
X112309580Y-64210475D01*
X112309580Y-64210475D02*
X112357199Y-64305713D01*
X112071485Y-63115237D02*
X112071485Y-63019999D01*
X112071485Y-63019999D02*
X112119104Y-62924761D01*
X112119104Y-62924761D02*
X112166723Y-62877142D01*
X112166723Y-62877142D02*
X112261961Y-62829523D01*
X112261961Y-62829523D02*
X112452437Y-62781904D01*
X112452437Y-62781904D02*
X112690532Y-62781904D01*
X112690532Y-62781904D02*
X112881008Y-62829523D01*
X112881008Y-62829523D02*
X112976246Y-62877142D01*
X112976246Y-62877142D02*
X113023866Y-62924761D01*
X113023866Y-62924761D02*
X113071485Y-63019999D01*
X113071485Y-63019999D02*
X113071485Y-63115237D01*
X113071485Y-63115237D02*
X113023866Y-63210475D01*
X113023866Y-63210475D02*
X112976246Y-63258094D01*
X112976246Y-63258094D02*
X112881008Y-63305713D01*
X112881008Y-63305713D02*
X112690532Y-63353332D01*
X112690532Y-63353332D02*
X112452437Y-63353332D01*
X112452437Y-63353332D02*
X112261961Y-63305713D01*
X112261961Y-63305713D02*
X112166723Y-63258094D01*
X112166723Y-63258094D02*
X112119104Y-63210475D01*
X112119104Y-63210475D02*
X112071485Y-63115237D01*
X137580952Y-105694819D02*
X137247619Y-105218628D01*
X137009524Y-105694819D02*
X137009524Y-104694819D01*
X137009524Y-104694819D02*
X137390476Y-104694819D01*
X137390476Y-104694819D02*
X137485714Y-104742438D01*
X137485714Y-104742438D02*
X137533333Y-104790057D01*
X137533333Y-104790057D02*
X137580952Y-104885295D01*
X137580952Y-104885295D02*
X137580952Y-105028152D01*
X137580952Y-105028152D02*
X137533333Y-105123390D01*
X137533333Y-105123390D02*
X137485714Y-105171009D01*
X137485714Y-105171009D02*
X137390476Y-105218628D01*
X137390476Y-105218628D02*
X137009524Y-105218628D01*
X137961905Y-104790057D02*
X138009524Y-104742438D01*
X138009524Y-104742438D02*
X138104762Y-104694819D01*
X138104762Y-104694819D02*
X138342857Y-104694819D01*
X138342857Y-104694819D02*
X138438095Y-104742438D01*
X138438095Y-104742438D02*
X138485714Y-104790057D01*
X138485714Y-104790057D02*
X138533333Y-104885295D01*
X138533333Y-104885295D02*
X138533333Y-104980533D01*
X138533333Y-104980533D02*
X138485714Y-105123390D01*
X138485714Y-105123390D02*
X137914286Y-105694819D01*
X137914286Y-105694819D02*
X138533333Y-105694819D01*
X139152381Y-104694819D02*
X139247619Y-104694819D01*
X139247619Y-104694819D02*
X139342857Y-104742438D01*
X139342857Y-104742438D02*
X139390476Y-104790057D01*
X139390476Y-104790057D02*
X139438095Y-104885295D01*
X139438095Y-104885295D02*
X139485714Y-105075771D01*
X139485714Y-105075771D02*
X139485714Y-105313866D01*
X139485714Y-105313866D02*
X139438095Y-105504342D01*
X139438095Y-105504342D02*
X139390476Y-105599580D01*
X139390476Y-105599580D02*
X139342857Y-105647200D01*
X139342857Y-105647200D02*
X139247619Y-105694819D01*
X139247619Y-105694819D02*
X139152381Y-105694819D01*
X139152381Y-105694819D02*
X139057143Y-105647200D01*
X139057143Y-105647200D02*
X139009524Y-105599580D01*
X139009524Y-105599580D02*
X138961905Y-105504342D01*
X138961905Y-105504342D02*
X138914286Y-105313866D01*
X138914286Y-105313866D02*
X138914286Y-105075771D01*
X138914286Y-105075771D02*
X138961905Y-104885295D01*
X138961905Y-104885295D02*
X139009524Y-104790057D01*
X139009524Y-104790057D02*
X139057143Y-104742438D01*
X139057143Y-104742438D02*
X139152381Y-104694819D01*
X140342857Y-104694819D02*
X140152381Y-104694819D01*
X140152381Y-104694819D02*
X140057143Y-104742438D01*
X140057143Y-104742438D02*
X140009524Y-104790057D01*
X140009524Y-104790057D02*
X139914286Y-104932914D01*
X139914286Y-104932914D02*
X139866667Y-105123390D01*
X139866667Y-105123390D02*
X139866667Y-105504342D01*
X139866667Y-105504342D02*
X139914286Y-105599580D01*
X139914286Y-105599580D02*
X139961905Y-105647200D01*
X139961905Y-105647200D02*
X140057143Y-105694819D01*
X140057143Y-105694819D02*
X140247619Y-105694819D01*
X140247619Y-105694819D02*
X140342857Y-105647200D01*
X140342857Y-105647200D02*
X140390476Y-105599580D01*
X140390476Y-105599580D02*
X140438095Y-105504342D01*
X140438095Y-105504342D02*
X140438095Y-105266247D01*
X140438095Y-105266247D02*
X140390476Y-105171009D01*
X140390476Y-105171009D02*
X140342857Y-105123390D01*
X140342857Y-105123390D02*
X140247619Y-105075771D01*
X140247619Y-105075771D02*
X140057143Y-105075771D01*
X140057143Y-105075771D02*
X139961905Y-105123390D01*
X139961905Y-105123390D02*
X139914286Y-105171009D01*
X139914286Y-105171009D02*
X139866667Y-105266247D01*
X129380952Y-78254819D02*
X129047619Y-77778628D01*
X128809524Y-78254819D02*
X128809524Y-77254819D01*
X128809524Y-77254819D02*
X129190476Y-77254819D01*
X129190476Y-77254819D02*
X129285714Y-77302438D01*
X129285714Y-77302438D02*
X129333333Y-77350057D01*
X129333333Y-77350057D02*
X129380952Y-77445295D01*
X129380952Y-77445295D02*
X129380952Y-77588152D01*
X129380952Y-77588152D02*
X129333333Y-77683390D01*
X129333333Y-77683390D02*
X129285714Y-77731009D01*
X129285714Y-77731009D02*
X129190476Y-77778628D01*
X129190476Y-77778628D02*
X128809524Y-77778628D01*
X130333333Y-78254819D02*
X129761905Y-78254819D01*
X130047619Y-78254819D02*
X130047619Y-77254819D01*
X130047619Y-77254819D02*
X129952381Y-77397676D01*
X129952381Y-77397676D02*
X129857143Y-77492914D01*
X129857143Y-77492914D02*
X129761905Y-77540533D01*
X130952381Y-77254819D02*
X131047619Y-77254819D01*
X131047619Y-77254819D02*
X131142857Y-77302438D01*
X131142857Y-77302438D02*
X131190476Y-77350057D01*
X131190476Y-77350057D02*
X131238095Y-77445295D01*
X131238095Y-77445295D02*
X131285714Y-77635771D01*
X131285714Y-77635771D02*
X131285714Y-77873866D01*
X131285714Y-77873866D02*
X131238095Y-78064342D01*
X131238095Y-78064342D02*
X131190476Y-78159580D01*
X131190476Y-78159580D02*
X131142857Y-78207200D01*
X131142857Y-78207200D02*
X131047619Y-78254819D01*
X131047619Y-78254819D02*
X130952381Y-78254819D01*
X130952381Y-78254819D02*
X130857143Y-78207200D01*
X130857143Y-78207200D02*
X130809524Y-78159580D01*
X130809524Y-78159580D02*
X130761905Y-78064342D01*
X130761905Y-78064342D02*
X130714286Y-77873866D01*
X130714286Y-77873866D02*
X130714286Y-77635771D01*
X130714286Y-77635771D02*
X130761905Y-77445295D01*
X130761905Y-77445295D02*
X130809524Y-77350057D01*
X130809524Y-77350057D02*
X130857143Y-77302438D01*
X130857143Y-77302438D02*
X130952381Y-77254819D01*
X132142857Y-77588152D02*
X132142857Y-78254819D01*
X131904762Y-77207200D02*
X131666667Y-77921485D01*
X131666667Y-77921485D02*
X132285714Y-77921485D01*
X169900476Y-106574819D02*
X169900476Y-107289104D01*
X169900476Y-107289104D02*
X169852857Y-107431961D01*
X169852857Y-107431961D02*
X169757619Y-107527200D01*
X169757619Y-107527200D02*
X169614762Y-107574819D01*
X169614762Y-107574819D02*
X169519524Y-107574819D01*
X170329048Y-106670057D02*
X170376667Y-106622438D01*
X170376667Y-106622438D02*
X170471905Y-106574819D01*
X170471905Y-106574819D02*
X170710000Y-106574819D01*
X170710000Y-106574819D02*
X170805238Y-106622438D01*
X170805238Y-106622438D02*
X170852857Y-106670057D01*
X170852857Y-106670057D02*
X170900476Y-106765295D01*
X170900476Y-106765295D02*
X170900476Y-106860533D01*
X170900476Y-106860533D02*
X170852857Y-107003390D01*
X170852857Y-107003390D02*
X170281429Y-107574819D01*
X170281429Y-107574819D02*
X170900476Y-107574819D01*
X171757619Y-106908152D02*
X171757619Y-107574819D01*
X171519524Y-106527200D02*
X171281429Y-107241485D01*
X171281429Y-107241485D02*
X171900476Y-107241485D01*
X125034819Y-86639047D02*
X124558628Y-86972380D01*
X125034819Y-87210475D02*
X124034819Y-87210475D01*
X124034819Y-87210475D02*
X124034819Y-86829523D01*
X124034819Y-86829523D02*
X124082438Y-86734285D01*
X124082438Y-86734285D02*
X124130057Y-86686666D01*
X124130057Y-86686666D02*
X124225295Y-86639047D01*
X124225295Y-86639047D02*
X124368152Y-86639047D01*
X124368152Y-86639047D02*
X124463390Y-86686666D01*
X124463390Y-86686666D02*
X124511009Y-86734285D01*
X124511009Y-86734285D02*
X124558628Y-86829523D01*
X124558628Y-86829523D02*
X124558628Y-87210475D01*
X125034819Y-85686666D02*
X125034819Y-86258094D01*
X125034819Y-85972380D02*
X124034819Y-85972380D01*
X124034819Y-85972380D02*
X124177676Y-86067618D01*
X124177676Y-86067618D02*
X124272914Y-86162856D01*
X124272914Y-86162856D02*
X124320533Y-86258094D01*
X124034819Y-85067618D02*
X124034819Y-84972380D01*
X124034819Y-84972380D02*
X124082438Y-84877142D01*
X124082438Y-84877142D02*
X124130057Y-84829523D01*
X124130057Y-84829523D02*
X124225295Y-84781904D01*
X124225295Y-84781904D02*
X124415771Y-84734285D01*
X124415771Y-84734285D02*
X124653866Y-84734285D01*
X124653866Y-84734285D02*
X124844342Y-84781904D01*
X124844342Y-84781904D02*
X124939580Y-84829523D01*
X124939580Y-84829523D02*
X124987200Y-84877142D01*
X124987200Y-84877142D02*
X125034819Y-84972380D01*
X125034819Y-84972380D02*
X125034819Y-85067618D01*
X125034819Y-85067618D02*
X124987200Y-85162856D01*
X124987200Y-85162856D02*
X124939580Y-85210475D01*
X124939580Y-85210475D02*
X124844342Y-85258094D01*
X124844342Y-85258094D02*
X124653866Y-85305713D01*
X124653866Y-85305713D02*
X124415771Y-85305713D01*
X124415771Y-85305713D02*
X124225295Y-85258094D01*
X124225295Y-85258094D02*
X124130057Y-85210475D01*
X124130057Y-85210475D02*
X124082438Y-85162856D01*
X124082438Y-85162856D02*
X124034819Y-85067618D01*
X124463390Y-84162856D02*
X124415771Y-84258094D01*
X124415771Y-84258094D02*
X124368152Y-84305713D01*
X124368152Y-84305713D02*
X124272914Y-84353332D01*
X124272914Y-84353332D02*
X124225295Y-84353332D01*
X124225295Y-84353332D02*
X124130057Y-84305713D01*
X124130057Y-84305713D02*
X124082438Y-84258094D01*
X124082438Y-84258094D02*
X124034819Y-84162856D01*
X124034819Y-84162856D02*
X124034819Y-83972380D01*
X124034819Y-83972380D02*
X124082438Y-83877142D01*
X124082438Y-83877142D02*
X124130057Y-83829523D01*
X124130057Y-83829523D02*
X124225295Y-83781904D01*
X124225295Y-83781904D02*
X124272914Y-83781904D01*
X124272914Y-83781904D02*
X124368152Y-83829523D01*
X124368152Y-83829523D02*
X124415771Y-83877142D01*
X124415771Y-83877142D02*
X124463390Y-83972380D01*
X124463390Y-83972380D02*
X124463390Y-84162856D01*
X124463390Y-84162856D02*
X124511009Y-84258094D01*
X124511009Y-84258094D02*
X124558628Y-84305713D01*
X124558628Y-84305713D02*
X124653866Y-84353332D01*
X124653866Y-84353332D02*
X124844342Y-84353332D01*
X124844342Y-84353332D02*
X124939580Y-84305713D01*
X124939580Y-84305713D02*
X124987200Y-84258094D01*
X124987200Y-84258094D02*
X125034819Y-84162856D01*
X125034819Y-84162856D02*
X125034819Y-83972380D01*
X125034819Y-83972380D02*
X124987200Y-83877142D01*
X124987200Y-83877142D02*
X124939580Y-83829523D01*
X124939580Y-83829523D02*
X124844342Y-83781904D01*
X124844342Y-83781904D02*
X124653866Y-83781904D01*
X124653866Y-83781904D02*
X124558628Y-83829523D01*
X124558628Y-83829523D02*
X124511009Y-83877142D01*
X124511009Y-83877142D02*
X124463390Y-83972380D01*
X164980952Y-91854819D02*
X164647619Y-91378628D01*
X164409524Y-91854819D02*
X164409524Y-90854819D01*
X164409524Y-90854819D02*
X164790476Y-90854819D01*
X164790476Y-90854819D02*
X164885714Y-90902438D01*
X164885714Y-90902438D02*
X164933333Y-90950057D01*
X164933333Y-90950057D02*
X164980952Y-91045295D01*
X164980952Y-91045295D02*
X164980952Y-91188152D01*
X164980952Y-91188152D02*
X164933333Y-91283390D01*
X164933333Y-91283390D02*
X164885714Y-91331009D01*
X164885714Y-91331009D02*
X164790476Y-91378628D01*
X164790476Y-91378628D02*
X164409524Y-91378628D01*
X165361905Y-90950057D02*
X165409524Y-90902438D01*
X165409524Y-90902438D02*
X165504762Y-90854819D01*
X165504762Y-90854819D02*
X165742857Y-90854819D01*
X165742857Y-90854819D02*
X165838095Y-90902438D01*
X165838095Y-90902438D02*
X165885714Y-90950057D01*
X165885714Y-90950057D02*
X165933333Y-91045295D01*
X165933333Y-91045295D02*
X165933333Y-91140533D01*
X165933333Y-91140533D02*
X165885714Y-91283390D01*
X165885714Y-91283390D02*
X165314286Y-91854819D01*
X165314286Y-91854819D02*
X165933333Y-91854819D01*
X166885714Y-91854819D02*
X166314286Y-91854819D01*
X166600000Y-91854819D02*
X166600000Y-90854819D01*
X166600000Y-90854819D02*
X166504762Y-90997676D01*
X166504762Y-90997676D02*
X166409524Y-91092914D01*
X166409524Y-91092914D02*
X166314286Y-91140533D01*
X167504762Y-90854819D02*
X167600000Y-90854819D01*
X167600000Y-90854819D02*
X167695238Y-90902438D01*
X167695238Y-90902438D02*
X167742857Y-90950057D01*
X167742857Y-90950057D02*
X167790476Y-91045295D01*
X167790476Y-91045295D02*
X167838095Y-91235771D01*
X167838095Y-91235771D02*
X167838095Y-91473866D01*
X167838095Y-91473866D02*
X167790476Y-91664342D01*
X167790476Y-91664342D02*
X167742857Y-91759580D01*
X167742857Y-91759580D02*
X167695238Y-91807200D01*
X167695238Y-91807200D02*
X167600000Y-91854819D01*
X167600000Y-91854819D02*
X167504762Y-91854819D01*
X167504762Y-91854819D02*
X167409524Y-91807200D01*
X167409524Y-91807200D02*
X167361905Y-91759580D01*
X167361905Y-91759580D02*
X167314286Y-91664342D01*
X167314286Y-91664342D02*
X167266667Y-91473866D01*
X167266667Y-91473866D02*
X167266667Y-91235771D01*
X167266667Y-91235771D02*
X167314286Y-91045295D01*
X167314286Y-91045295D02*
X167361905Y-90950057D01*
X167361905Y-90950057D02*
X167409524Y-90902438D01*
X167409524Y-90902438D02*
X167504762Y-90854819D01*
X168090952Y-68229580D02*
X168043333Y-68277200D01*
X168043333Y-68277200D02*
X167900476Y-68324819D01*
X167900476Y-68324819D02*
X167805238Y-68324819D01*
X167805238Y-68324819D02*
X167662381Y-68277200D01*
X167662381Y-68277200D02*
X167567143Y-68181961D01*
X167567143Y-68181961D02*
X167519524Y-68086723D01*
X167519524Y-68086723D02*
X167471905Y-67896247D01*
X167471905Y-67896247D02*
X167471905Y-67753390D01*
X167471905Y-67753390D02*
X167519524Y-67562914D01*
X167519524Y-67562914D02*
X167567143Y-67467676D01*
X167567143Y-67467676D02*
X167662381Y-67372438D01*
X167662381Y-67372438D02*
X167805238Y-67324819D01*
X167805238Y-67324819D02*
X167900476Y-67324819D01*
X167900476Y-67324819D02*
X168043333Y-67372438D01*
X168043333Y-67372438D02*
X168090952Y-67420057D01*
X169043333Y-68324819D02*
X168471905Y-68324819D01*
X168757619Y-68324819D02*
X168757619Y-67324819D01*
X168757619Y-67324819D02*
X168662381Y-67467676D01*
X168662381Y-67467676D02*
X168567143Y-67562914D01*
X168567143Y-67562914D02*
X168471905Y-67610533D01*
X169995714Y-68324819D02*
X169424286Y-68324819D01*
X169710000Y-68324819D02*
X169710000Y-67324819D01*
X169710000Y-67324819D02*
X169614762Y-67467676D01*
X169614762Y-67467676D02*
X169519524Y-67562914D01*
X169519524Y-67562914D02*
X169424286Y-67610533D01*
X170329048Y-67324819D02*
X170995714Y-67324819D01*
X170995714Y-67324819D02*
X170567143Y-68324819D01*
X130460952Y-66594819D02*
X130127619Y-66118628D01*
X129889524Y-66594819D02*
X129889524Y-65594819D01*
X129889524Y-65594819D02*
X130270476Y-65594819D01*
X130270476Y-65594819D02*
X130365714Y-65642438D01*
X130365714Y-65642438D02*
X130413333Y-65690057D01*
X130413333Y-65690057D02*
X130460952Y-65785295D01*
X130460952Y-65785295D02*
X130460952Y-65928152D01*
X130460952Y-65928152D02*
X130413333Y-66023390D01*
X130413333Y-66023390D02*
X130365714Y-66071009D01*
X130365714Y-66071009D02*
X130270476Y-66118628D01*
X130270476Y-66118628D02*
X129889524Y-66118628D01*
X131413333Y-66594819D02*
X130841905Y-66594819D01*
X131127619Y-66594819D02*
X131127619Y-65594819D01*
X131127619Y-65594819D02*
X131032381Y-65737676D01*
X131032381Y-65737676D02*
X130937143Y-65832914D01*
X130937143Y-65832914D02*
X130841905Y-65880533D01*
X132032381Y-65594819D02*
X132127619Y-65594819D01*
X132127619Y-65594819D02*
X132222857Y-65642438D01*
X132222857Y-65642438D02*
X132270476Y-65690057D01*
X132270476Y-65690057D02*
X132318095Y-65785295D01*
X132318095Y-65785295D02*
X132365714Y-65975771D01*
X132365714Y-65975771D02*
X132365714Y-66213866D01*
X132365714Y-66213866D02*
X132318095Y-66404342D01*
X132318095Y-66404342D02*
X132270476Y-66499580D01*
X132270476Y-66499580D02*
X132222857Y-66547200D01*
X132222857Y-66547200D02*
X132127619Y-66594819D01*
X132127619Y-66594819D02*
X132032381Y-66594819D01*
X132032381Y-66594819D02*
X131937143Y-66547200D01*
X131937143Y-66547200D02*
X131889524Y-66499580D01*
X131889524Y-66499580D02*
X131841905Y-66404342D01*
X131841905Y-66404342D02*
X131794286Y-66213866D01*
X131794286Y-66213866D02*
X131794286Y-65975771D01*
X131794286Y-65975771D02*
X131841905Y-65785295D01*
X131841905Y-65785295D02*
X131889524Y-65690057D01*
X131889524Y-65690057D02*
X131937143Y-65642438D01*
X131937143Y-65642438D02*
X132032381Y-65594819D01*
X132984762Y-65594819D02*
X133080000Y-65594819D01*
X133080000Y-65594819D02*
X133175238Y-65642438D01*
X133175238Y-65642438D02*
X133222857Y-65690057D01*
X133222857Y-65690057D02*
X133270476Y-65785295D01*
X133270476Y-65785295D02*
X133318095Y-65975771D01*
X133318095Y-65975771D02*
X133318095Y-66213866D01*
X133318095Y-66213866D02*
X133270476Y-66404342D01*
X133270476Y-66404342D02*
X133222857Y-66499580D01*
X133222857Y-66499580D02*
X133175238Y-66547200D01*
X133175238Y-66547200D02*
X133080000Y-66594819D01*
X133080000Y-66594819D02*
X132984762Y-66594819D01*
X132984762Y-66594819D02*
X132889524Y-66547200D01*
X132889524Y-66547200D02*
X132841905Y-66499580D01*
X132841905Y-66499580D02*
X132794286Y-66404342D01*
X132794286Y-66404342D02*
X132746667Y-66213866D01*
X132746667Y-66213866D02*
X132746667Y-65975771D01*
X132746667Y-65975771D02*
X132794286Y-65785295D01*
X132794286Y-65785295D02*
X132841905Y-65690057D01*
X132841905Y-65690057D02*
X132889524Y-65642438D01*
X132889524Y-65642438D02*
X132984762Y-65594819D01*
X124580952Y-78534819D02*
X124247619Y-78058628D01*
X124009524Y-78534819D02*
X124009524Y-77534819D01*
X124009524Y-77534819D02*
X124390476Y-77534819D01*
X124390476Y-77534819D02*
X124485714Y-77582438D01*
X124485714Y-77582438D02*
X124533333Y-77630057D01*
X124533333Y-77630057D02*
X124580952Y-77725295D01*
X124580952Y-77725295D02*
X124580952Y-77868152D01*
X124580952Y-77868152D02*
X124533333Y-77963390D01*
X124533333Y-77963390D02*
X124485714Y-78011009D01*
X124485714Y-78011009D02*
X124390476Y-78058628D01*
X124390476Y-78058628D02*
X124009524Y-78058628D01*
X125533333Y-78534819D02*
X124961905Y-78534819D01*
X125247619Y-78534819D02*
X125247619Y-77534819D01*
X125247619Y-77534819D02*
X125152381Y-77677676D01*
X125152381Y-77677676D02*
X125057143Y-77772914D01*
X125057143Y-77772914D02*
X124961905Y-77820533D01*
X126485714Y-78534819D02*
X125914286Y-78534819D01*
X126200000Y-78534819D02*
X126200000Y-77534819D01*
X126200000Y-77534819D02*
X126104762Y-77677676D01*
X126104762Y-77677676D02*
X126009524Y-77772914D01*
X126009524Y-77772914D02*
X125914286Y-77820533D01*
X127104762Y-77534819D02*
X127200000Y-77534819D01*
X127200000Y-77534819D02*
X127295238Y-77582438D01*
X127295238Y-77582438D02*
X127342857Y-77630057D01*
X127342857Y-77630057D02*
X127390476Y-77725295D01*
X127390476Y-77725295D02*
X127438095Y-77915771D01*
X127438095Y-77915771D02*
X127438095Y-78153866D01*
X127438095Y-78153866D02*
X127390476Y-78344342D01*
X127390476Y-78344342D02*
X127342857Y-78439580D01*
X127342857Y-78439580D02*
X127295238Y-78487200D01*
X127295238Y-78487200D02*
X127200000Y-78534819D01*
X127200000Y-78534819D02*
X127104762Y-78534819D01*
X127104762Y-78534819D02*
X127009524Y-78487200D01*
X127009524Y-78487200D02*
X126961905Y-78439580D01*
X126961905Y-78439580D02*
X126914286Y-78344342D01*
X126914286Y-78344342D02*
X126866667Y-78153866D01*
X126866667Y-78153866D02*
X126866667Y-77915771D01*
X126866667Y-77915771D02*
X126914286Y-77725295D01*
X126914286Y-77725295D02*
X126961905Y-77630057D01*
X126961905Y-77630057D02*
X127009524Y-77582438D01*
X127009524Y-77582438D02*
X127104762Y-77534819D01*
X115080952Y-78734819D02*
X114747619Y-78258628D01*
X114509524Y-78734819D02*
X114509524Y-77734819D01*
X114509524Y-77734819D02*
X114890476Y-77734819D01*
X114890476Y-77734819D02*
X114985714Y-77782438D01*
X114985714Y-77782438D02*
X115033333Y-77830057D01*
X115033333Y-77830057D02*
X115080952Y-77925295D01*
X115080952Y-77925295D02*
X115080952Y-78068152D01*
X115080952Y-78068152D02*
X115033333Y-78163390D01*
X115033333Y-78163390D02*
X114985714Y-78211009D01*
X114985714Y-78211009D02*
X114890476Y-78258628D01*
X114890476Y-78258628D02*
X114509524Y-78258628D01*
X116033333Y-78734819D02*
X115461905Y-78734819D01*
X115747619Y-78734819D02*
X115747619Y-77734819D01*
X115747619Y-77734819D02*
X115652381Y-77877676D01*
X115652381Y-77877676D02*
X115557143Y-77972914D01*
X115557143Y-77972914D02*
X115461905Y-78020533D01*
X116985714Y-78734819D02*
X116414286Y-78734819D01*
X116700000Y-78734819D02*
X116700000Y-77734819D01*
X116700000Y-77734819D02*
X116604762Y-77877676D01*
X116604762Y-77877676D02*
X116509524Y-77972914D01*
X116509524Y-77972914D02*
X116414286Y-78020533D01*
X117366667Y-77830057D02*
X117414286Y-77782438D01*
X117414286Y-77782438D02*
X117509524Y-77734819D01*
X117509524Y-77734819D02*
X117747619Y-77734819D01*
X117747619Y-77734819D02*
X117842857Y-77782438D01*
X117842857Y-77782438D02*
X117890476Y-77830057D01*
X117890476Y-77830057D02*
X117938095Y-77925295D01*
X117938095Y-77925295D02*
X117938095Y-78020533D01*
X117938095Y-78020533D02*
X117890476Y-78163390D01*
X117890476Y-78163390D02*
X117319048Y-78734819D01*
X117319048Y-78734819D02*
X117938095Y-78734819D01*
X93885476Y-98844819D02*
X93885476Y-99559104D01*
X93885476Y-99559104D02*
X93837857Y-99701961D01*
X93837857Y-99701961D02*
X93742619Y-99797200D01*
X93742619Y-99797200D02*
X93599762Y-99844819D01*
X93599762Y-99844819D02*
X93504524Y-99844819D01*
X94314048Y-98940057D02*
X94361667Y-98892438D01*
X94361667Y-98892438D02*
X94456905Y-98844819D01*
X94456905Y-98844819D02*
X94695000Y-98844819D01*
X94695000Y-98844819D02*
X94790238Y-98892438D01*
X94790238Y-98892438D02*
X94837857Y-98940057D01*
X94837857Y-98940057D02*
X94885476Y-99035295D01*
X94885476Y-99035295D02*
X94885476Y-99130533D01*
X94885476Y-99130533D02*
X94837857Y-99273390D01*
X94837857Y-99273390D02*
X94266429Y-99844819D01*
X94266429Y-99844819D02*
X94885476Y-99844819D01*
X95504524Y-98844819D02*
X95599762Y-98844819D01*
X95599762Y-98844819D02*
X95695000Y-98892438D01*
X95695000Y-98892438D02*
X95742619Y-98940057D01*
X95742619Y-98940057D02*
X95790238Y-99035295D01*
X95790238Y-99035295D02*
X95837857Y-99225771D01*
X95837857Y-99225771D02*
X95837857Y-99463866D01*
X95837857Y-99463866D02*
X95790238Y-99654342D01*
X95790238Y-99654342D02*
X95742619Y-99749580D01*
X95742619Y-99749580D02*
X95695000Y-99797200D01*
X95695000Y-99797200D02*
X95599762Y-99844819D01*
X95599762Y-99844819D02*
X95504524Y-99844819D01*
X95504524Y-99844819D02*
X95409286Y-99797200D01*
X95409286Y-99797200D02*
X95361667Y-99749580D01*
X95361667Y-99749580D02*
X95314048Y-99654342D01*
X95314048Y-99654342D02*
X95266429Y-99463866D01*
X95266429Y-99463866D02*
X95266429Y-99225771D01*
X95266429Y-99225771D02*
X95314048Y-99035295D01*
X95314048Y-99035295D02*
X95361667Y-98940057D01*
X95361667Y-98940057D02*
X95409286Y-98892438D01*
X95409286Y-98892438D02*
X95504524Y-98844819D01*
X149130952Y-68229580D02*
X149083333Y-68277200D01*
X149083333Y-68277200D02*
X148940476Y-68324819D01*
X148940476Y-68324819D02*
X148845238Y-68324819D01*
X148845238Y-68324819D02*
X148702381Y-68277200D01*
X148702381Y-68277200D02*
X148607143Y-68181961D01*
X148607143Y-68181961D02*
X148559524Y-68086723D01*
X148559524Y-68086723D02*
X148511905Y-67896247D01*
X148511905Y-67896247D02*
X148511905Y-67753390D01*
X148511905Y-67753390D02*
X148559524Y-67562914D01*
X148559524Y-67562914D02*
X148607143Y-67467676D01*
X148607143Y-67467676D02*
X148702381Y-67372438D01*
X148702381Y-67372438D02*
X148845238Y-67324819D01*
X148845238Y-67324819D02*
X148940476Y-67324819D01*
X148940476Y-67324819D02*
X149083333Y-67372438D01*
X149083333Y-67372438D02*
X149130952Y-67420057D01*
X150083333Y-68324819D02*
X149511905Y-68324819D01*
X149797619Y-68324819D02*
X149797619Y-67324819D01*
X149797619Y-67324819D02*
X149702381Y-67467676D01*
X149702381Y-67467676D02*
X149607143Y-67562914D01*
X149607143Y-67562914D02*
X149511905Y-67610533D01*
X151035714Y-68324819D02*
X150464286Y-68324819D01*
X150750000Y-68324819D02*
X150750000Y-67324819D01*
X150750000Y-67324819D02*
X150654762Y-67467676D01*
X150654762Y-67467676D02*
X150559524Y-67562914D01*
X150559524Y-67562914D02*
X150464286Y-67610533D01*
X151892857Y-67324819D02*
X151702381Y-67324819D01*
X151702381Y-67324819D02*
X151607143Y-67372438D01*
X151607143Y-67372438D02*
X151559524Y-67420057D01*
X151559524Y-67420057D02*
X151464286Y-67562914D01*
X151464286Y-67562914D02*
X151416667Y-67753390D01*
X151416667Y-67753390D02*
X151416667Y-68134342D01*
X151416667Y-68134342D02*
X151464286Y-68229580D01*
X151464286Y-68229580D02*
X151511905Y-68277200D01*
X151511905Y-68277200D02*
X151607143Y-68324819D01*
X151607143Y-68324819D02*
X151797619Y-68324819D01*
X151797619Y-68324819D02*
X151892857Y-68277200D01*
X151892857Y-68277200D02*
X151940476Y-68229580D01*
X151940476Y-68229580D02*
X151988095Y-68134342D01*
X151988095Y-68134342D02*
X151988095Y-67896247D01*
X151988095Y-67896247D02*
X151940476Y-67801009D01*
X151940476Y-67801009D02*
X151892857Y-67753390D01*
X151892857Y-67753390D02*
X151797619Y-67705771D01*
X151797619Y-67705771D02*
X151607143Y-67705771D01*
X151607143Y-67705771D02*
X151511905Y-67753390D01*
X151511905Y-67753390D02*
X151464286Y-67801009D01*
X151464286Y-67801009D02*
X151416667Y-67896247D01*
X114834819Y-86739047D02*
X114358628Y-87072380D01*
X114834819Y-87310475D02*
X113834819Y-87310475D01*
X113834819Y-87310475D02*
X113834819Y-86929523D01*
X113834819Y-86929523D02*
X113882438Y-86834285D01*
X113882438Y-86834285D02*
X113930057Y-86786666D01*
X113930057Y-86786666D02*
X114025295Y-86739047D01*
X114025295Y-86739047D02*
X114168152Y-86739047D01*
X114168152Y-86739047D02*
X114263390Y-86786666D01*
X114263390Y-86786666D02*
X114311009Y-86834285D01*
X114311009Y-86834285D02*
X114358628Y-86929523D01*
X114358628Y-86929523D02*
X114358628Y-87310475D01*
X114834819Y-85786666D02*
X114834819Y-86358094D01*
X114834819Y-86072380D02*
X113834819Y-86072380D01*
X113834819Y-86072380D02*
X113977676Y-86167618D01*
X113977676Y-86167618D02*
X114072914Y-86262856D01*
X114072914Y-86262856D02*
X114120533Y-86358094D01*
X114834819Y-84834285D02*
X114834819Y-85405713D01*
X114834819Y-85119999D02*
X113834819Y-85119999D01*
X113834819Y-85119999D02*
X113977676Y-85215237D01*
X113977676Y-85215237D02*
X114072914Y-85310475D01*
X114072914Y-85310475D02*
X114120533Y-85405713D01*
X113834819Y-84500951D02*
X113834819Y-83881904D01*
X113834819Y-83881904D02*
X114215771Y-84215237D01*
X114215771Y-84215237D02*
X114215771Y-84072380D01*
X114215771Y-84072380D02*
X114263390Y-83977142D01*
X114263390Y-83977142D02*
X114311009Y-83929523D01*
X114311009Y-83929523D02*
X114406247Y-83881904D01*
X114406247Y-83881904D02*
X114644342Y-83881904D01*
X114644342Y-83881904D02*
X114739580Y-83929523D01*
X114739580Y-83929523D02*
X114787200Y-83977142D01*
X114787200Y-83977142D02*
X114834819Y-84072380D01*
X114834819Y-84072380D02*
X114834819Y-84358094D01*
X114834819Y-84358094D02*
X114787200Y-84453332D01*
X114787200Y-84453332D02*
X114739580Y-84500951D01*
X114039580Y-119562857D02*
X114087200Y-119610476D01*
X114087200Y-119610476D02*
X114134819Y-119753333D01*
X114134819Y-119753333D02*
X114134819Y-119848571D01*
X114134819Y-119848571D02*
X114087200Y-119991428D01*
X114087200Y-119991428D02*
X113991961Y-120086666D01*
X113991961Y-120086666D02*
X113896723Y-120134285D01*
X113896723Y-120134285D02*
X113706247Y-120181904D01*
X113706247Y-120181904D02*
X113563390Y-120181904D01*
X113563390Y-120181904D02*
X113372914Y-120134285D01*
X113372914Y-120134285D02*
X113277676Y-120086666D01*
X113277676Y-120086666D02*
X113182438Y-119991428D01*
X113182438Y-119991428D02*
X113134819Y-119848571D01*
X113134819Y-119848571D02*
X113134819Y-119753333D01*
X113134819Y-119753333D02*
X113182438Y-119610476D01*
X113182438Y-119610476D02*
X113230057Y-119562857D01*
X113230057Y-119181904D02*
X113182438Y-119134285D01*
X113182438Y-119134285D02*
X113134819Y-119039047D01*
X113134819Y-119039047D02*
X113134819Y-118800952D01*
X113134819Y-118800952D02*
X113182438Y-118705714D01*
X113182438Y-118705714D02*
X113230057Y-118658095D01*
X113230057Y-118658095D02*
X113325295Y-118610476D01*
X113325295Y-118610476D02*
X113420533Y-118610476D01*
X113420533Y-118610476D02*
X113563390Y-118658095D01*
X113563390Y-118658095D02*
X114134819Y-119229523D01*
X114134819Y-119229523D02*
X114134819Y-118610476D01*
X114134819Y-117658095D02*
X114134819Y-118229523D01*
X114134819Y-117943809D02*
X113134819Y-117943809D01*
X113134819Y-117943809D02*
X113277676Y-118039047D01*
X113277676Y-118039047D02*
X113372914Y-118134285D01*
X113372914Y-118134285D02*
X113420533Y-118229523D01*
D13*
%TO.C,C111*%
X108090000Y-71031252D02*
X108090000Y-69608748D01*
X109910000Y-71031252D02*
X109910000Y-69608748D01*
%TO.C,R208*%
X163290000Y-101862936D02*
X163290000Y-103317064D01*
X165110000Y-101862936D02*
X165110000Y-103317064D01*
%TO.C,C112*%
X124490000Y-65231252D02*
X124490000Y-63808748D01*
X126310000Y-65231252D02*
X126310000Y-63808748D01*
%TO.C,R106*%
X169907064Y-78510000D02*
X168452936Y-78510000D01*
X169907064Y-80330000D02*
X168452936Y-80330000D01*
%TO.C,R101*%
X151007064Y-63410000D02*
X149552936Y-63410000D01*
X151007064Y-65230000D02*
X149552936Y-65230000D01*
D14*
%TO.C,G\u002A\u002A\u002A*%
G36*
X188360667Y-90512666D02*
G01*
X187429333Y-90512666D01*
X187429333Y-89581333D01*
X188360667Y-89581333D01*
X188360667Y-90512666D01*
G37*
G36*
X194287333Y-99233333D02*
G01*
X189546000Y-99233333D01*
X189546000Y-98386666D01*
X194287333Y-98386666D01*
X194287333Y-99233333D01*
G37*
G36*
X194287333Y-100757333D02*
G01*
X189546000Y-100757333D01*
X189546000Y-99995333D01*
X194287333Y-99995333D01*
X194287333Y-100757333D01*
G37*
G36*
X185990000Y-104990666D02*
G01*
X187535167Y-104992193D01*
X189080333Y-104993719D01*
X189360281Y-105330859D01*
X189640228Y-105668000D01*
X185312667Y-105668000D01*
X185312667Y-98386666D01*
X185990000Y-98386666D01*
X185990000Y-104990666D01*
G37*
G36*
X188868667Y-99574657D02*
G01*
X188865319Y-100065749D01*
X188853750Y-100411189D01*
X188831670Y-100634555D01*
X188796788Y-100759423D01*
X188748819Y-100808638D01*
X188578664Y-100833723D01*
X188388985Y-100827147D01*
X188149000Y-100799666D01*
X188125509Y-99593166D01*
X188102017Y-98386666D01*
X188868667Y-98386666D01*
X188868667Y-99574657D01*
G37*
G36*
X192509333Y-90005606D02*
G01*
X192487707Y-90297692D01*
X192426743Y-90456685D01*
X192401004Y-90474884D01*
X192285818Y-90486655D01*
X192029400Y-90494745D01*
X191659821Y-90498854D01*
X191205149Y-90498688D01*
X190693454Y-90493947D01*
X190653182Y-90493393D01*
X189013688Y-90470333D01*
X189013695Y-90047000D01*
X189013702Y-89623666D01*
X190761518Y-89600782D01*
X192509333Y-89577898D01*
X192509333Y-90005606D01*
G37*
G36*
X187514000Y-99863465D02*
G01*
X187515317Y-100402864D01*
X187521047Y-100799029D01*
X187533858Y-101078051D01*
X187556418Y-101266018D01*
X187591395Y-101389022D01*
X187641457Y-101473153D01*
X187683333Y-101519333D01*
X187944574Y-101660837D01*
X188191333Y-101688666D01*
X188408108Y-101696882D01*
X188504431Y-101753746D01*
X188529186Y-101907587D01*
X188530000Y-102023497D01*
X188517498Y-102242412D01*
X188452119Y-102349691D01*
X188292055Y-102402668D01*
X188247148Y-102411390D01*
X187888661Y-102419418D01*
X187518406Y-102333887D01*
X187208813Y-102175232D01*
X187114368Y-102091785D01*
X186982667Y-101915663D01*
X186885524Y-101696015D01*
X186819187Y-101408257D01*
X186779906Y-101027808D01*
X186763929Y-100530082D01*
X186767505Y-99890498D01*
X186768641Y-99826000D01*
X186794333Y-98429000D01*
X187154167Y-98402965D01*
X187514000Y-98376930D01*
X187514000Y-99863465D01*
G37*
G36*
X189861906Y-91448627D02*
G01*
X190432352Y-91465646D01*
X190879851Y-91499762D01*
X191227511Y-91555680D01*
X191498437Y-91638107D01*
X191715736Y-91751748D01*
X191902514Y-91901307D01*
X192028618Y-92031158D01*
X192225211Y-92293163D01*
X192377664Y-92574273D01*
X192418560Y-92686841D01*
X192482840Y-93064352D01*
X192501827Y-93518367D01*
X192476994Y-93975536D01*
X192409816Y-94362513D01*
X192383140Y-94449666D01*
X192183366Y-94806003D01*
X191868146Y-95134061D01*
X191490337Y-95386916D01*
X191202452Y-95497795D01*
X190989871Y-95529292D01*
X190638199Y-95555900D01*
X190177640Y-95576239D01*
X189638398Y-95588927D01*
X189127508Y-95592666D01*
X187429333Y-95592666D01*
X187429333Y-94576666D01*
X189167719Y-94576666D01*
X189844022Y-94573155D01*
X190372607Y-94559611D01*
X190775001Y-94531518D01*
X191072730Y-94484360D01*
X191287319Y-94413620D01*
X191440295Y-94314783D01*
X191553183Y-94183332D01*
X191624135Y-94061315D01*
X191725843Y-93729057D01*
X191726129Y-93369774D01*
X191675810Y-93085535D01*
X191574297Y-92858857D01*
X191404959Y-92683898D01*
X191151168Y-92554816D01*
X190796295Y-92465769D01*
X190323709Y-92410913D01*
X189716782Y-92384407D01*
X188958885Y-92380409D01*
X188911000Y-92380737D01*
X187471667Y-92391329D01*
X187446275Y-91917665D01*
X187420883Y-91444000D01*
X189145408Y-91444000D01*
X189861906Y-91448627D01*
G37*
G36*
X192471883Y-84300108D02*
G01*
X192497577Y-84471780D01*
X192492392Y-84731452D01*
X192467000Y-85215571D01*
X191810833Y-85462151D01*
X191154667Y-85708731D01*
X191154667Y-87535328D01*
X191556833Y-87683051D01*
X191957727Y-87830165D01*
X192227121Y-87936764D01*
X192391021Y-88024509D01*
X192475433Y-88115057D01*
X192506364Y-88230069D01*
X192509819Y-88391204D01*
X192509333Y-88476346D01*
X192492368Y-88756758D01*
X192438391Y-88888454D01*
X192396278Y-88904000D01*
X192290437Y-88877099D01*
X192045553Y-88800980D01*
X191682356Y-88682524D01*
X191221573Y-88528608D01*
X190683935Y-88346112D01*
X190329167Y-88224106D01*
X190090169Y-88141913D01*
X189877445Y-88068159D01*
X187471667Y-87232317D01*
X187471667Y-86649425D01*
X188242743Y-86649425D01*
X189254205Y-86970550D01*
X189643994Y-87092916D01*
X189974653Y-87194109D01*
X190213118Y-87264197D01*
X190326325Y-87293245D01*
X190329167Y-87293505D01*
X190358648Y-87216427D01*
X190380851Y-87009972D01*
X190392025Y-86714059D01*
X190392667Y-86618000D01*
X190387902Y-86303432D01*
X190375240Y-86066561D01*
X190357130Y-85947458D01*
X190351281Y-85940666D01*
X190260078Y-85966621D01*
X190040264Y-86037579D01*
X189723257Y-86143183D01*
X189340474Y-86273076D01*
X189276319Y-86295046D01*
X188242743Y-86649425D01*
X187471667Y-86649425D01*
X187471667Y-86004538D01*
X189884667Y-85128039D01*
X190492183Y-84908573D01*
X191050828Y-84709073D01*
X191540094Y-84536680D01*
X191939473Y-84398534D01*
X192228458Y-84301777D01*
X192386542Y-84253550D01*
X192407725Y-84249437D01*
X192471883Y-84300108D01*
G37*
G36*
X194287333Y-102697269D02*
G01*
X194286061Y-103167529D01*
X194278120Y-103506826D01*
X194257324Y-103753532D01*
X194217489Y-103946018D01*
X194152429Y-104122654D01*
X194055957Y-104321810D01*
X194011563Y-104407922D01*
X193655272Y-104927377D01*
X193202981Y-105324893D01*
X192680624Y-105595718D01*
X192114133Y-105735100D01*
X191529441Y-105738285D01*
X190952481Y-105600522D01*
X190409188Y-105317057D01*
X190153529Y-105114951D01*
X189714617Y-104634795D01*
X189434773Y-104118754D01*
X189304449Y-103546497D01*
X189292000Y-103280709D01*
X189292000Y-102704666D01*
X190054000Y-102704666D01*
X190054000Y-103173053D01*
X190128241Y-103748101D01*
X190343596Y-104248543D01*
X190689012Y-104654925D01*
X191027667Y-104886755D01*
X191412577Y-105012296D01*
X191857587Y-105034803D01*
X192318504Y-104965320D01*
X192751135Y-104814891D01*
X193111287Y-104594561D01*
X193354769Y-104315373D01*
X193361221Y-104303577D01*
X193389193Y-104226036D01*
X193330238Y-104226538D01*
X193155898Y-104307507D01*
X193123810Y-104323796D01*
X192670242Y-104465365D01*
X192192079Y-104459773D01*
X191726616Y-104317478D01*
X191311145Y-104048938D01*
X191030347Y-103736742D01*
X190880582Y-103491747D01*
X190803569Y-103261650D01*
X190776832Y-102967841D01*
X190775214Y-102844355D01*
X190806466Y-102399292D01*
X190909726Y-102096664D01*
X191094659Y-101921465D01*
X191370932Y-101858690D01*
X191410618Y-101858000D01*
X191646327Y-101872423D01*
X191730993Y-101931645D01*
X191681619Y-102059589D01*
X191617640Y-102149349D01*
X191529875Y-102370062D01*
X191497087Y-102679327D01*
X191518704Y-103005734D01*
X191594150Y-103277873D01*
X191627201Y-103338266D01*
X191858383Y-103557038D01*
X192184067Y-103706082D01*
X192536026Y-103762513D01*
X192786282Y-103727064D01*
X193130410Y-103545396D01*
X193377536Y-103252953D01*
X193533448Y-102837932D01*
X193603938Y-102288525D01*
X193609528Y-102048500D01*
X193610000Y-101519333D01*
X194287333Y-101519333D01*
X194287333Y-102697269D01*
G37*
D13*
%TO.C,D21*%
X142532500Y-96685000D02*
X142532500Y-98955000D01*
X142532500Y-98955000D02*
X146592500Y-98955000D01*
X146592500Y-96685000D02*
X142532500Y-96685000D01*
%TO.C,R204*%
X131490000Y-102817064D02*
X131490000Y-101362936D01*
X133310000Y-102817064D02*
X133310000Y-101362936D01*
%TO.C,R105*%
X152577064Y-76390000D02*
X151122936Y-76390000D01*
X152577064Y-78210000D02*
X151122936Y-78210000D01*
%TO.C,C113*%
X143590000Y-63738748D02*
X143590000Y-65161252D01*
X145410000Y-63738748D02*
X145410000Y-65161252D01*
%TO.C,Q6*%
X173864000Y-77000000D02*
X173864000Y-87240000D01*
X176995000Y-77000000D02*
X176995000Y-87240000D01*
X178505000Y-77000000D02*
X173864000Y-77000000D01*
X178505000Y-77000000D02*
X178505000Y-87240000D01*
X178505000Y-80270000D02*
X176995000Y-80270000D01*
X178505000Y-83971000D02*
X176995000Y-83971000D01*
X178505000Y-87240000D02*
X173864000Y-87240000D01*
%TO.C,R209*%
X177727064Y-103010000D02*
X176272936Y-103010000D01*
X177727064Y-104830000D02*
X176272936Y-104830000D01*
%TO.C,R102*%
X169907064Y-63410000D02*
X168452936Y-63410000D01*
X169907064Y-65230000D02*
X168452936Y-65230000D01*
%TO.C,J5*%
X108470000Y-87755000D02*
X108470000Y-82615000D01*
X111130000Y-82615000D02*
X108470000Y-82615000D01*
X111130000Y-87755000D02*
X108470000Y-87755000D01*
X111130000Y-87755000D02*
X111130000Y-82615000D01*
X111130000Y-89025000D02*
X111130000Y-90355000D01*
X111130000Y-90355000D02*
X109800000Y-90355000D01*
D15*
%TO.C,U2*%
X103750000Y-97350000D02*
X110050000Y-97350000D01*
X103750000Y-103650000D02*
X103750000Y-97350000D01*
X110050000Y-97350000D02*
X110050000Y-103650000D01*
X110050000Y-103650000D02*
X103750000Y-103650000D01*
D16*
X102525000Y-96500000D02*
G75*
G02*
X102125000Y-96500000I-200000J0D01*
G01*
X102125000Y-96500000D02*
G75*
G02*
X102525000Y-96500000I200000J0D01*
G01*
D13*
%TO.C,R116*%
X103772936Y-88090000D02*
X105227064Y-88090000D01*
X103772936Y-89910000D02*
X105227064Y-89910000D01*
%TO.C,R201*%
X120827064Y-90210000D02*
X119372936Y-90210000D01*
X120827064Y-92030000D02*
X119372936Y-92030000D01*
%TO.C,J6*%
X187690000Y-66580000D02*
X187690000Y-81820000D01*
X187690000Y-66580000D02*
X195310000Y-66580000D01*
X187690000Y-81820000D02*
X195310000Y-81820000D01*
X188960000Y-66580000D02*
X188960000Y-81820000D01*
X195310000Y-66580000D02*
X195310000Y-81820000D01*
%TO.C,J25*%
X115270000Y-110590000D02*
X116600000Y-110590000D01*
X115270000Y-111920000D02*
X115270000Y-110590000D01*
X115270000Y-113190000D02*
X115270000Y-120870000D01*
X115270000Y-113190000D02*
X117930000Y-113190000D01*
X115270000Y-120870000D02*
X117930000Y-120870000D01*
X117930000Y-113190000D02*
X117930000Y-120870000D01*
%TO.C,D20*%
X113765000Y-90060000D02*
X113765000Y-94120000D01*
X116035000Y-90060000D02*
X113765000Y-90060000D01*
X116035000Y-94120000D02*
X116035000Y-90060000D01*
%TO.C,Q5*%
X173864000Y-62100000D02*
X173864000Y-72340000D01*
X176995000Y-62100000D02*
X176995000Y-72340000D01*
X178505000Y-62100000D02*
X173864000Y-62100000D01*
X178505000Y-62100000D02*
X178505000Y-72340000D01*
X178505000Y-65370000D02*
X176995000Y-65370000D01*
X178505000Y-69071000D02*
X176995000Y-69071000D01*
X178505000Y-72340000D02*
X173864000Y-72340000D01*
%TO.C,J22*%
X158170000Y-101650000D02*
X158170000Y-93970000D01*
X160830000Y-93970000D02*
X158170000Y-93970000D01*
X160830000Y-101650000D02*
X158170000Y-101650000D01*
X160830000Y-101650000D02*
X160830000Y-93970000D01*
X160830000Y-102920000D02*
X160830000Y-104250000D01*
X160830000Y-104250000D02*
X159500000Y-104250000D01*
%TO.C,R205*%
X131490000Y-97047064D02*
X131490000Y-95592936D01*
X133310000Y-97047064D02*
X133310000Y-95592936D01*
%TO.C,R107*%
X130290000Y-75277064D02*
X130290000Y-73822936D01*
X132110000Y-75277064D02*
X132110000Y-73822936D01*
%TO.C,R203*%
X145697064Y-102510000D02*
X144242936Y-102510000D01*
X145697064Y-104330000D02*
X144242936Y-104330000D01*
%TO.C,Q20*%
X137620000Y-99480000D02*
X139380000Y-99480000D01*
X138580000Y-96410000D02*
X137780000Y-96410000D01*
X138580000Y-96410000D02*
X139380000Y-96410000D01*
X137280000Y-96460000D02*
X137040000Y-96130000D01*
X137520000Y-96130000D01*
X137280000Y-96460000D01*
G36*
X137280000Y-96460000D02*
G01*
X137040000Y-96130000D01*
X137520000Y-96130000D01*
X137280000Y-96460000D01*
G37*
D17*
%TO.C,U1*%
X117120300Y-71328300D02*
X117120300Y-71665660D01*
X117120300Y-75334340D02*
X117120300Y-75671700D01*
X117120300Y-75671700D02*
X117565661Y-75671700D01*
X117565661Y-71328300D02*
X117120300Y-71328300D01*
X122034339Y-75671700D02*
X122479700Y-75671700D01*
X122479700Y-71328300D02*
X122034339Y-71328300D01*
X122479700Y-71665660D02*
X122479700Y-71328300D01*
X122479700Y-75671700D02*
X122479700Y-75334340D01*
D14*
G36*
X116688500Y-72690499D02*
G01*
X116434500Y-72690499D01*
X116434500Y-72309499D01*
X116688500Y-72309499D01*
X116688500Y-72690499D01*
G37*
G36*
X121390500Y-70896500D02*
G01*
X121009500Y-70896500D01*
X121009500Y-70642500D01*
X121390500Y-70642500D01*
X121390500Y-70896500D01*
G37*
G36*
X121790499Y-76357500D02*
G01*
X121409499Y-76357500D01*
X121409499Y-76103500D01*
X121790499Y-76103500D01*
X121790499Y-76357500D01*
G37*
D13*
%TO.C,R114*%
X120390000Y-86147064D02*
X120390000Y-84692936D01*
X122210000Y-86147064D02*
X122210000Y-84692936D01*
%TO.C,Q21*%
X169520000Y-99580000D02*
X171280000Y-99580000D01*
X170480000Y-96510000D02*
X169680000Y-96510000D01*
X170480000Y-96510000D02*
X171280000Y-96510000D01*
X169180000Y-96560000D02*
X168940000Y-96230000D01*
X169420000Y-96230000D01*
X169180000Y-96560000D01*
G36*
X169180000Y-96560000D02*
G01*
X168940000Y-96230000D01*
X169420000Y-96230000D01*
X169180000Y-96560000D01*
G37*
%TO.C,C114*%
X162390000Y-63738748D02*
X162390000Y-65161252D01*
X164210000Y-63738748D02*
X164210000Y-65161252D01*
%TO.C,C24*%
X177711252Y-91410000D02*
X176288748Y-91410000D01*
X177711252Y-93230000D02*
X176288748Y-93230000D01*
%TO.C,C20*%
X111265000Y-113858748D02*
X111265000Y-114381252D01*
X112735000Y-113858748D02*
X112735000Y-114381252D01*
%TO.C,C119*%
X119023332Y-63808748D02*
X119023332Y-65231252D01*
X120843332Y-63808748D02*
X120843332Y-65231252D01*
%TO.C,J4*%
X97770000Y-87755000D02*
X97770000Y-82615000D01*
X100430000Y-82615000D02*
X97770000Y-82615000D01*
X100430000Y-87755000D02*
X97770000Y-87755000D01*
X100430000Y-87755000D02*
X100430000Y-82615000D01*
X100430000Y-89025000D02*
X100430000Y-90355000D01*
X100430000Y-90355000D02*
X99100000Y-90355000D01*
%TO.C,Q2*%
X136364000Y-77000000D02*
X136364000Y-87240000D01*
X139495000Y-77000000D02*
X139495000Y-87240000D01*
X141005000Y-77000000D02*
X136364000Y-77000000D01*
X141005000Y-77000000D02*
X141005000Y-87240000D01*
X141005000Y-80270000D02*
X139495000Y-80270000D01*
X141005000Y-83971000D02*
X139495000Y-83971000D01*
X141005000Y-87240000D02*
X136364000Y-87240000D01*
%TO.C,SW1*%
X100800000Y-116770000D02*
X100800000Y-118270000D01*
X102050000Y-120770000D02*
X106550000Y-120770000D01*
X106550000Y-114270000D02*
X102050000Y-114270000D01*
X107800000Y-118270000D02*
X107800000Y-116770000D01*
%TO.C,C115*%
X130838748Y-68810000D02*
X132261252Y-68810000D01*
X130838748Y-70630000D02*
X132261252Y-70630000D01*
%TO.C,R109*%
X125490000Y-90272936D02*
X125490000Y-91727064D01*
X127310000Y-90272936D02*
X127310000Y-91727064D01*
%TO.C,R115*%
X103872936Y-83090000D02*
X105327064Y-83090000D01*
X103872936Y-84910000D02*
X105327064Y-84910000D01*
%TO.C,J1*%
X89790000Y-65540000D02*
X89790000Y-75700000D01*
X89790000Y-75700000D02*
X97410000Y-75700000D01*
X91060000Y-75700000D02*
X91060000Y-65540000D01*
X97410000Y-65540000D02*
X89790000Y-65540000D01*
X97410000Y-75700000D02*
X97410000Y-65540000D01*
%TO.C,R207*%
X139377064Y-91490000D02*
X137922936Y-91490000D01*
X139377064Y-93310000D02*
X137922936Y-93310000D01*
%TO.C,R200*%
X119272936Y-95810000D02*
X120727064Y-95810000D01*
X119272936Y-97630000D02*
X120727064Y-97630000D01*
%TO.C,C23*%
X145681252Y-91310000D02*
X144258748Y-91310000D01*
X145681252Y-93130000D02*
X144258748Y-93130000D01*
%TO.C,Q1*%
X136364000Y-62100000D02*
X136364000Y-72340000D01*
X139495000Y-62100000D02*
X139495000Y-72340000D01*
X141005000Y-62100000D02*
X136364000Y-62100000D01*
X141005000Y-62100000D02*
X141005000Y-72340000D01*
X141005000Y-65370000D02*
X139495000Y-65370000D01*
X141005000Y-69071000D02*
X139495000Y-69071000D01*
X141005000Y-72340000D02*
X136364000Y-72340000D01*
%TO.C,R212*%
X163290000Y-97147064D02*
X163290000Y-95692936D01*
X165110000Y-97147064D02*
X165110000Y-95692936D01*
%TO.C,Q4*%
X155114000Y-77000000D02*
X155114000Y-87240000D01*
X158245000Y-77000000D02*
X158245000Y-87240000D01*
X159755000Y-77000000D02*
X155114000Y-77000000D01*
X159755000Y-77000000D02*
X159755000Y-87240000D01*
X159755000Y-80270000D02*
X158245000Y-80270000D01*
X159755000Y-83971000D02*
X158245000Y-83971000D01*
X159755000Y-87240000D02*
X155114000Y-87240000D01*
%TO.C,D22*%
X174562500Y-96285000D02*
X174562500Y-98555000D01*
X174562500Y-98555000D02*
X178622500Y-98555000D01*
X178622500Y-96285000D02*
X174562500Y-96285000D01*
%TO.C,R211*%
X171227064Y-103010000D02*
X169772936Y-103010000D01*
X171227064Y-104830000D02*
X169772936Y-104830000D01*
%TO.C,Q3*%
X155114000Y-62100000D02*
X155114000Y-72340000D01*
X158245000Y-62100000D02*
X158245000Y-72340000D01*
X159755000Y-62100000D02*
X155114000Y-62100000D01*
X159755000Y-62100000D02*
X159755000Y-72340000D01*
X159755000Y-65370000D02*
X158245000Y-65370000D01*
X159755000Y-69071000D02*
X158245000Y-69071000D01*
X159755000Y-72340000D02*
X155114000Y-72340000D01*
%TO.C,D100*%
X125765000Y-72905000D02*
X125765000Y-76965000D01*
X125765000Y-76965000D02*
X128035000Y-76965000D01*
X128035000Y-76965000D02*
X128035000Y-72905000D01*
%TO.C,J21*%
X126170000Y-101650000D02*
X126170000Y-93970000D01*
X128830000Y-93970000D02*
X126170000Y-93970000D01*
X128830000Y-101650000D02*
X126170000Y-101650000D01*
X128830000Y-101650000D02*
X128830000Y-93970000D01*
X128830000Y-102920000D02*
X128830000Y-104250000D01*
X128830000Y-104250000D02*
X127500000Y-104250000D01*
%TO.C,C22*%
X120611252Y-101490000D02*
X119188748Y-101490000D01*
X120611252Y-103310000D02*
X119188748Y-103310000D01*
%TO.C,C118*%
X108090000Y-65231252D02*
X108090000Y-63808748D01*
X109910000Y-65231252D02*
X109910000Y-63808748D01*
%TO.C,J23*%
X122275000Y-108060000D02*
X153245000Y-108060000D01*
X122275000Y-122600000D02*
X122275000Y-108060000D01*
X143050000Y-107165662D02*
X143550000Y-107165662D01*
X143300000Y-107598675D02*
X143050000Y-107165662D01*
X143550000Y-107165662D02*
X143300000Y-107598675D01*
X153245000Y-108060000D02*
X153245000Y-122600000D01*
%TO.C,C110*%
X113556666Y-65231252D02*
X113556666Y-63808748D01*
X115376666Y-65231252D02*
X115376666Y-63808748D01*
%TO.C,R206*%
X139427064Y-102510000D02*
X137972936Y-102510000D01*
X139427064Y-104330000D02*
X137972936Y-104330000D01*
%TO.C,R104*%
X133590000Y-78777064D02*
X133590000Y-77322936D01*
X135410000Y-78777064D02*
X135410000Y-77322936D01*
%TO.C,J24*%
X155225000Y-108060000D02*
X186195000Y-108060000D01*
X155225000Y-122600000D02*
X155225000Y-108060000D01*
X176000000Y-107165662D02*
X176500000Y-107165662D01*
X176250000Y-107598675D02*
X176000000Y-107165662D01*
X176500000Y-107165662D02*
X176250000Y-107598675D01*
X186195000Y-108060000D02*
X186195000Y-122600000D01*
%TO.C,R108*%
X125490000Y-86247064D02*
X125490000Y-84792936D01*
X127310000Y-86247064D02*
X127310000Y-84792936D01*
%TO.C,R210*%
X169772936Y-91380000D02*
X171227064Y-91380000D01*
X169772936Y-93200000D02*
X171227064Y-93200000D01*
%TO.C,C117*%
X168498748Y-68810000D02*
X169921252Y-68810000D01*
X168498748Y-70630000D02*
X169921252Y-70630000D01*
%TO.C,R100*%
X132307064Y-63410000D02*
X130852936Y-63410000D01*
X132307064Y-65230000D02*
X130852936Y-65230000D01*
%TO.C,R110*%
X124972936Y-78990000D02*
X126427064Y-78990000D01*
X124972936Y-80810000D02*
X126427064Y-80810000D01*
%TO.C,R112*%
X115472936Y-79190000D02*
X116927064Y-79190000D01*
X115472936Y-81010000D02*
X116927064Y-81010000D01*
%TO.C,J20*%
X92095000Y-100390000D02*
X93425000Y-100390000D01*
X92095000Y-101720000D02*
X92095000Y-100390000D01*
X92095000Y-102990000D02*
X92095000Y-120830000D01*
X92095000Y-102990000D02*
X94695000Y-102990000D01*
X92095000Y-120830000D02*
X97295000Y-120830000D01*
X94695000Y-100390000D02*
X97295000Y-100390000D01*
X94695000Y-102990000D02*
X94695000Y-100390000D01*
X97295000Y-100390000D02*
X97295000Y-120830000D01*
%TO.C,C116*%
X149538748Y-68810000D02*
X150961252Y-68810000D01*
X149538748Y-70630000D02*
X150961252Y-70630000D01*
%TO.C,R113*%
X115290000Y-86347064D02*
X115290000Y-84892936D01*
X117110000Y-86347064D02*
X117110000Y-84892936D01*
%TO.C,C21*%
X111265000Y-118658748D02*
X111265000Y-119181252D01*
X112735000Y-118658748D02*
X112735000Y-119181252D01*
%TD*%
M02*
