%TF.GenerationSoftware,KiCad,Pcbnew,8.0.1*%
%TF.CreationDate,2024-05-23T13:33:55+02:00*%
%TF.ProjectId,focBLDCdrv,666f6342-4c44-4436-9472-762e6b696361,rev?*%
%TF.SameCoordinates,Original*%
%TF.FileFunction,Copper,L2,Bot*%
%TF.FilePolarity,Positive*%
%FSLAX46Y46*%
G04 Gerber Fmt 4.6, Leading zero omitted, Abs format (unit mm)*
G04 Created by KiCad (PCBNEW 8.0.1) date 2024-05-23 13:33:55*
%MOMM*%
%LPD*%
G01*
G04 APERTURE LIST*
%TA.AperFunction,ComponentPad*%
%ADD10R,1.700000X1.700000*%
%TD*%
%TA.AperFunction,ComponentPad*%
%ADD11O,1.700000X1.700000*%
%TD*%
%TA.AperFunction,ComponentPad*%
%ADD12R,3.000000X3.000000*%
%TD*%
%TA.AperFunction,ComponentPad*%
%ADD13C,3.000000*%
%TD*%
%TA.AperFunction,ComponentPad*%
%ADD14C,0.400000*%
%TD*%
%TA.AperFunction,ComponentPad*%
%ADD15C,0.450000*%
%TD*%
%TA.AperFunction,ViaPad*%
%ADD16C,0.800000*%
%TD*%
%TA.AperFunction,Conductor*%
%ADD17C,1.000000*%
%TD*%
%TA.AperFunction,Conductor*%
%ADD18C,0.500000*%
%TD*%
%TA.AperFunction,Conductor*%
%ADD19C,0.250000*%
%TD*%
G04 APERTURE END LIST*
D10*
%TO.P,J5,1,Pin_1*%
%TO.N,Net-(J5-Pad1)*%
X137625000Y-92775000D03*
D11*
%TO.P,J5,2,Pin_2*%
%TO.N,Net-(J5-Pad2)*%
X140165000Y-92775000D03*
%TO.P,J5,3,Pin_3*%
%TO.N,Net-(J5-Pad3)*%
X137625000Y-95315000D03*
%TO.P,J5,4,Pin_4*%
%TO.N,Net-(J5-Pad2)*%
X140165000Y-95315000D03*
%TO.P,J5,5,Pin_5*%
%TO.N,Net-(J5-Pad5)*%
X137625000Y-97855000D03*
%TO.P,J5,6,Pin_6*%
%TO.N,Net-(J5-Pad2)*%
X140165000Y-97855000D03*
%TD*%
D12*
%TO.P,J2,1,Pin_1*%
%TO.N,Net-(J2-Pad1)*%
X143020000Y-122700000D03*
D13*
%TO.P,J2,2,Pin_2*%
%TO.N,Net-(J2-Pad2)*%
X148100000Y-122700000D03*
%TO.P,J2,3,Pin_3*%
%TO.N,Net-(J2-Pad3)*%
X153180000Y-122700000D03*
%TD*%
D12*
%TO.P,J1,1,Pin_1*%
%TO.N,VM*%
X150640000Y-70800000D03*
D13*
%TO.P,J1,2,Pin_2*%
%TO.N,PNGD*%
X145560000Y-70800000D03*
%TD*%
D10*
%TO.P,J6,1,Pin_1*%
%TO.N,GNDA*%
X130000000Y-76560000D03*
D11*
%TO.P,J6,2,Pin_2*%
%TO.N,FG*%
X130000000Y-79100000D03*
%TO.P,J6,3,Pin_3*%
%TO.N,nFAULT*%
X130000000Y-81640000D03*
%TD*%
D10*
%TO.P,J7,1,Pin_1*%
%TO.N,GNDA*%
X130000000Y-86000000D03*
D11*
%TO.P,J7,2,Pin_2*%
%TO.N,AVDD*%
X130000000Y-88540000D03*
%TO.P,J7,3,Pin_3*%
%TO.N,DVDD*%
X130000000Y-91080000D03*
%TO.P,J7,4,Pin_4*%
%TO.N,BUCK*%
X130000000Y-93620000D03*
%TD*%
D10*
%TO.P,J3,1,Pin_1*%
%TO.N,GNDA*%
X166200000Y-110675000D03*
D11*
%TO.P,J3,2,Pin_2*%
%TO.N,DRVOFF*%
X166200000Y-108135000D03*
%TO.P,J3,3,Pin_3*%
%TO.N,BRAKE*%
X166200000Y-105595000D03*
%TO.P,J3,4,Pin_4*%
%TO.N,EXT_CLK*%
X166200000Y-103055000D03*
%TO.P,J3,5,Pin_5*%
%TO.N,EXT_WD*%
X166200000Y-100515000D03*
%TO.P,J3,6,Pin_6*%
%TO.N,SOX*%
X166200000Y-97975000D03*
%TO.P,J3,7,Pin_7*%
%TO.N,DIR*%
X166200000Y-95435000D03*
%TO.P,J3,8,Pin_8*%
%TO.N,SPEED*%
X166200000Y-92895000D03*
%TD*%
D10*
%TO.P,J4,1,Pin_1*%
%TO.N,GNDA*%
X166200000Y-81975000D03*
D11*
%TO.P,J4,2,Pin_2*%
%TO.N,SDA*%
X166200000Y-84515000D03*
%TO.P,J4,3,Pin_3*%
%TO.N,SCL*%
X166200000Y-87055000D03*
%TD*%
D14*
%TO.P,U1,41*%
%TO.N,GNDA*%
X148925000Y-110400000D03*
X146700000Y-106450000D03*
X148925000Y-107800000D03*
D15*
X149900000Y-106450000D03*
D14*
X148925000Y-109150000D03*
D15*
X147675000Y-105200000D03*
D14*
X147650000Y-109150000D03*
X147675000Y-106450000D03*
X146700000Y-107800000D03*
X147675000Y-110400000D03*
X148925000Y-106450000D03*
X147675000Y-107800000D03*
X149900000Y-107800000D03*
X146700000Y-109150000D03*
D15*
X148925000Y-105200000D03*
D14*
X149900000Y-109150000D03*
%TD*%
D16*
%TO.N,VM*%
X141000000Y-111100000D03*
%TO.N,PNGD*%
X146900000Y-113600000D03*
X134100000Y-112000000D03*
X144900000Y-112200000D03*
X149800000Y-113600000D03*
%TO.N,BUCK*%
X144049500Y-101500688D03*
X143699312Y-99399312D03*
%TO.N,Net-(D1-Pad1)*%
X146300000Y-101500000D03*
X152100000Y-92000000D03*
%TO.N,SOX*%
X155800000Y-92000000D03*
X147600000Y-101500000D03*
%TO.N,DIR*%
X149300000Y-100100000D03*
X158100000Y-92000000D03*
%TO.N,DRVOFF*%
X156500000Y-112200000D03*
%TO.N,EXT_CLK*%
X150800000Y-100100000D03*
%TO.N,EXT_WD*%
X159600000Y-102300000D03*
%TO.N,BRAKE*%
X148700000Y-101500000D03*
%TO.N,FG*%
X159900000Y-92000000D03*
X155600000Y-107000000D03*
X155700000Y-103600000D03*
%TO.N,AVDD*%
X158900000Y-98600000D03*
X162300000Y-103500000D03*
%TO.N,SCL*%
X157800000Y-97100000D03*
%TO.N,SDA*%
X156800000Y-106900000D03*
%TO.N,SPEED*%
X155300000Y-108200000D03*
%TO.N,GNDA*%
X154700000Y-110300000D03*
X139200000Y-86800000D03*
X139200000Y-89300000D03*
X152300000Y-93400000D03*
X152200000Y-100100000D03*
%TD*%
D17*
%TO.N,VM*%
X141000000Y-100400000D02*
X141000000Y-111100000D01*
X150640000Y-90760000D02*
X141000000Y-100400000D01*
X150640000Y-70800000D02*
X150640000Y-90760000D01*
D18*
%TO.N,PNGD*%
X145500000Y-112200000D02*
X144900000Y-112200000D01*
D17*
X133800000Y-75100000D02*
X133800000Y-111700000D01*
X145560000Y-70800000D02*
X138100000Y-70800000D01*
D18*
X149800000Y-113600000D02*
X146900000Y-113600000D01*
X146900000Y-113600000D02*
X145500000Y-112200000D01*
D17*
X138100000Y-70800000D02*
X133800000Y-75100000D01*
D19*
X133800000Y-111700000D02*
X134100000Y-112000000D01*
D18*
%TO.N,BUCK*%
X143699312Y-99399312D02*
X143699312Y-101150500D01*
X143699312Y-101150500D02*
X144049500Y-101500688D01*
%TO.N,Net-(D1-Pad1)*%
X146600000Y-97500000D02*
X152100000Y-92000000D01*
X146300000Y-101500000D02*
X146600000Y-101200000D01*
X146600000Y-101200000D02*
X146600000Y-97500000D01*
%TO.N,SOX*%
X155800000Y-92000000D02*
X155075386Y-92000000D01*
X147600000Y-99475386D02*
X147600000Y-101500000D01*
X155075386Y-92000000D02*
X147600000Y-99475386D01*
%TO.N,DIR*%
X157400000Y-92000000D02*
X158100000Y-92000000D01*
X149300000Y-100100000D02*
X157400000Y-92000000D01*
D19*
%TO.N,DRVOFF*%
X161700000Y-108100000D02*
X161735000Y-108135000D01*
D18*
X156500000Y-112200000D02*
X157600000Y-112200000D01*
X157600000Y-112200000D02*
X161700000Y-108100000D01*
X161735000Y-108135000D02*
X166200000Y-108135000D01*
%TO.N,EXT_CLK*%
X153400000Y-100000000D02*
X153400000Y-107800000D01*
X152600000Y-99200000D02*
X153400000Y-100000000D01*
X165205480Y-104049520D02*
X166200000Y-103055000D01*
X163150480Y-104049520D02*
X165205480Y-104049520D01*
X154800000Y-109200000D02*
X158000000Y-109200000D01*
X153400000Y-107800000D02*
X154800000Y-109200000D01*
X151700000Y-99200000D02*
X152600000Y-99200000D01*
X158000000Y-109200000D02*
X163150480Y-104049520D01*
X150800000Y-100100000D02*
X151700000Y-99200000D01*
%TO.N,EXT_WD*%
X164415000Y-102300000D02*
X166200000Y-100515000D01*
X159600000Y-102300000D02*
X164415000Y-102300000D01*
%TO.N,BRAKE*%
X150200000Y-101500000D02*
X151600000Y-102900000D01*
X151600000Y-102900000D02*
X151600000Y-108524614D01*
X157300000Y-111200000D02*
X162905000Y-105595000D01*
X151600000Y-108524614D02*
X154275386Y-111200000D01*
X154275386Y-111200000D02*
X157300000Y-111200000D01*
X162905000Y-105595000D02*
X166200000Y-105595000D01*
X148700000Y-101500000D02*
X150200000Y-101500000D01*
%TO.N,FG*%
X155700000Y-96200000D02*
X159900000Y-92000000D01*
X155700000Y-106900000D02*
X155700000Y-103600000D01*
D19*
X155600000Y-107000000D02*
X155700000Y-106900000D01*
D18*
X155700000Y-103600000D02*
X155700000Y-96200000D01*
%TO.N,AVDD*%
X158600000Y-98900000D02*
X158600000Y-102700000D01*
X158900000Y-98600000D02*
X158600000Y-98900000D01*
X162000000Y-103200000D02*
X162300000Y-103500000D01*
X159100000Y-103200000D02*
X162000000Y-103200000D01*
X158600000Y-102700000D02*
X159100000Y-103200000D01*
%TO.N,SCL*%
X166200000Y-87075000D02*
X166200000Y-89200000D01*
X160900000Y-94500000D02*
X160200000Y-94500000D01*
X166200000Y-89200000D02*
X160900000Y-94500000D01*
X160200000Y-94500000D02*
X157800000Y-96900000D01*
X157800000Y-96900000D02*
X157800000Y-97100000D01*
%TO.N,SDA*%
X156800000Y-96500000D02*
X162200000Y-91100000D01*
X162200000Y-88535000D02*
X166200000Y-84535000D01*
X162200000Y-91100000D02*
X162200000Y-88535000D01*
X156800000Y-106900000D02*
X156800000Y-96500000D01*
X166200000Y-84535000D02*
X166200000Y-84515000D01*
%TO.N,SPEED*%
X155300000Y-108200000D02*
X156800000Y-108200000D01*
X157800000Y-107200000D02*
X157800000Y-98400000D01*
X161900000Y-95400000D02*
X164405000Y-92895000D01*
X156800000Y-108200000D02*
X157800000Y-107200000D01*
X164405000Y-92895000D02*
X166200000Y-92895000D01*
X160800000Y-95400000D02*
X161900000Y-95400000D01*
X157800000Y-98400000D02*
X160800000Y-95400000D01*
%TO.N,GNDA*%
X163725000Y-81975000D02*
X152300000Y-93400000D01*
X154700000Y-110300000D02*
X154500000Y-110300000D01*
X139200000Y-89300000D02*
X139200000Y-86800000D01*
X166200000Y-81975000D02*
X163725000Y-81975000D01*
X152400000Y-108200000D02*
X152400000Y-100300000D01*
X154500000Y-110300000D02*
X152400000Y-108200000D01*
X152400000Y-100300000D02*
X152200000Y-100100000D01*
%TD*%
%TA.AperFunction,Conductor*%
%TO.N,GNDA*%
G36*
X147019769Y-109820974D02*
G01*
X147077752Y-109861944D01*
X147104380Y-109927758D01*
X147091199Y-109997520D01*
X147082692Y-110011769D01*
X147043494Y-110068557D01*
X147043492Y-110068561D01*
X146982522Y-110229322D01*
X146961800Y-110399997D01*
X146961800Y-110400002D01*
X146982522Y-110570677D01*
X146993643Y-110600000D01*
X146500000Y-110600000D01*
X146486665Y-109826606D01*
X146614031Y-109857999D01*
X146614034Y-109858000D01*
X146785966Y-109858000D01*
X146785968Y-109857999D01*
X146948841Y-109817855D01*
X147019769Y-109820974D01*
G37*
%TD.AperFunction*%
%TA.AperFunction,Conductor*%
G36*
X147719031Y-104941936D02*
G01*
X147764094Y-104970897D01*
X148299999Y-105506802D01*
X148300000Y-105506802D01*
X148586910Y-105219891D01*
X148825000Y-105219891D01*
X148840224Y-105256645D01*
X148868355Y-105284776D01*
X148905109Y-105300000D01*
X148944891Y-105300000D01*
X148981645Y-105284776D01*
X149009776Y-105256645D01*
X149025000Y-105219891D01*
X149025000Y-105180109D01*
X149009776Y-105143355D01*
X148981645Y-105115224D01*
X148944891Y-105100000D01*
X148905109Y-105100000D01*
X148868355Y-105115224D01*
X148840224Y-105143355D01*
X148825000Y-105180109D01*
X148825000Y-105219891D01*
X148586910Y-105219891D01*
X148835904Y-104970897D01*
X148898217Y-104936872D01*
X148969032Y-104941936D01*
X149014095Y-104970897D01*
X149154102Y-105110904D01*
X149188128Y-105173216D01*
X149183063Y-105244031D01*
X149154102Y-105289094D01*
X148600520Y-105842676D01*
X148600520Y-105842678D01*
X148924999Y-106167157D01*
X148925000Y-106167157D01*
X149250485Y-105841670D01*
X149312797Y-105807645D01*
X149337694Y-105806374D01*
X149384909Y-105776709D01*
X149385889Y-105775928D01*
X149386641Y-105775620D01*
X149390902Y-105772944D01*
X149391370Y-105773690D01*
X149451619Y-105749095D01*
X149521422Y-105762058D01*
X149553542Y-105785344D01*
X149900000Y-106131801D01*
X149900000Y-106131802D01*
X150129102Y-106360904D01*
X150163128Y-106423216D01*
X150158063Y-106494031D01*
X150129102Y-106539094D01*
X149563772Y-107104423D01*
X149565555Y-107120243D01*
X149564913Y-107153309D01*
X149561113Y-107178270D01*
X149900000Y-107517156D01*
X149900000Y-107517157D01*
X150093747Y-107710904D01*
X150127773Y-107773216D01*
X150122708Y-107844031D01*
X150093747Y-107889094D01*
X149561114Y-108421726D01*
X149566337Y-108456042D01*
X149566337Y-108493956D01*
X149561114Y-108528271D01*
X150093747Y-109060904D01*
X150125966Y-109119907D01*
X150125302Y-109157756D01*
X150122708Y-109194031D01*
X150093747Y-109239094D01*
X149516057Y-109816784D01*
X149514473Y-109815200D01*
X149496439Y-109836360D01*
X149428484Y-109856919D01*
X149360202Y-109837474D01*
X149343901Y-109825235D01*
X149330148Y-109813050D01*
X149294625Y-109794404D01*
X149264093Y-109771935D01*
X148925001Y-109432843D01*
X148925000Y-109432843D01*
X148585903Y-109771938D01*
X148583727Y-109773538D01*
X148583727Y-109776457D01*
X148585893Y-109778051D01*
X149118747Y-110310905D01*
X149152773Y-110373217D01*
X149147708Y-110444032D01*
X149118747Y-110489095D01*
X149014095Y-110593747D01*
X149002644Y-110600000D01*
X148845635Y-110600000D01*
X148835905Y-110593747D01*
X148662049Y-110419891D01*
X148825000Y-110419891D01*
X148840224Y-110456645D01*
X148868355Y-110484776D01*
X148905109Y-110500000D01*
X148944891Y-110500000D01*
X148981645Y-110484776D01*
X149009776Y-110456645D01*
X149025000Y-110419891D01*
X149025000Y-110380109D01*
X149009776Y-110343355D01*
X148981645Y-110315224D01*
X148944891Y-110300000D01*
X148905109Y-110300000D01*
X148868355Y-110315224D01*
X148840224Y-110343355D01*
X148825000Y-110380109D01*
X148825000Y-110419891D01*
X148662049Y-110419891D01*
X148305264Y-110063106D01*
X148300484Y-110057367D01*
X148299501Y-110057367D01*
X148294682Y-110063159D01*
X147764094Y-110593747D01*
X147752643Y-110600000D01*
X147595634Y-110600000D01*
X147585904Y-110593747D01*
X147481252Y-110489095D01*
X147447226Y-110426783D01*
X147447719Y-110419891D01*
X147575000Y-110419891D01*
X147590224Y-110456645D01*
X147618355Y-110484776D01*
X147655109Y-110500000D01*
X147694891Y-110500000D01*
X147731645Y-110484776D01*
X147759776Y-110456645D01*
X147775000Y-110419891D01*
X147775000Y-110380109D01*
X147759776Y-110343355D01*
X147731645Y-110315224D01*
X147694891Y-110300000D01*
X147655109Y-110300000D01*
X147618355Y-110315224D01*
X147590224Y-110343355D01*
X147575000Y-110380109D01*
X147575000Y-110419891D01*
X147447719Y-110419891D01*
X147452291Y-110355968D01*
X147481252Y-110310904D01*
X148004657Y-109787499D01*
X147650001Y-109432843D01*
X147650000Y-109432843D01*
X147272012Y-109810829D01*
X147266472Y-109816044D01*
X147256099Y-109825234D01*
X147191847Y-109855436D01*
X147121466Y-109846106D01*
X147085283Y-109815443D01*
X147083942Y-109816785D01*
X147067701Y-109800544D01*
X147067302Y-109800206D01*
X147067275Y-109800118D01*
X146506252Y-109239096D01*
X146475567Y-109182900D01*
X146475343Y-109169891D01*
X146600000Y-109169891D01*
X146615224Y-109206645D01*
X146643355Y-109234776D01*
X146680109Y-109250000D01*
X146719891Y-109250000D01*
X146756645Y-109234776D01*
X146784776Y-109206645D01*
X146800000Y-109169891D01*
X146800000Y-109150001D01*
X146982843Y-109150001D01*
X147174999Y-109342157D01*
X147175001Y-109342157D01*
X147347267Y-109169891D01*
X147550000Y-109169891D01*
X147565224Y-109206645D01*
X147593355Y-109234776D01*
X147630109Y-109250000D01*
X147669891Y-109250000D01*
X147706645Y-109234776D01*
X147734776Y-109206645D01*
X147750000Y-109169891D01*
X147750000Y-109150001D01*
X147932843Y-109150001D01*
X148274472Y-109491630D01*
X148276103Y-109491482D01*
X148298906Y-109491482D01*
X148300525Y-109491629D01*
X148622265Y-109169891D01*
X148825000Y-109169891D01*
X148840224Y-109206645D01*
X148868355Y-109234776D01*
X148905109Y-109250000D01*
X148944891Y-109250000D01*
X148981645Y-109234776D01*
X149009776Y-109206645D01*
X149025000Y-109169891D01*
X149025000Y-109150001D01*
X149207843Y-109150001D01*
X149412499Y-109354657D01*
X149412501Y-109354657D01*
X149597267Y-109169891D01*
X149800000Y-109169891D01*
X149815224Y-109206645D01*
X149843355Y-109234776D01*
X149880109Y-109250000D01*
X149919891Y-109250000D01*
X149956645Y-109234776D01*
X149984776Y-109206645D01*
X150000000Y-109169891D01*
X150000000Y-109130109D01*
X149984776Y-109093355D01*
X149956645Y-109065224D01*
X149919891Y-109050000D01*
X149880109Y-109050000D01*
X149843355Y-109065224D01*
X149815224Y-109093355D01*
X149800000Y-109130109D01*
X149800000Y-109169891D01*
X149597267Y-109169891D01*
X149617157Y-109150001D01*
X149617157Y-109149999D01*
X149412501Y-108945343D01*
X149412499Y-108945343D01*
X149207843Y-109149999D01*
X149207843Y-109150001D01*
X149025000Y-109150001D01*
X149025000Y-109130109D01*
X149009776Y-109093355D01*
X148981645Y-109065224D01*
X148944891Y-109050000D01*
X148905109Y-109050000D01*
X148868355Y-109065224D01*
X148840224Y-109093355D01*
X148825000Y-109130109D01*
X148825000Y-109169891D01*
X148622265Y-109169891D01*
X148642157Y-109149999D01*
X148300526Y-108808368D01*
X148298902Y-108808516D01*
X148276096Y-108808516D01*
X148274473Y-108808368D01*
X147932843Y-109149999D01*
X147932843Y-109150001D01*
X147750000Y-109150001D01*
X147750000Y-109130109D01*
X147734776Y-109093355D01*
X147706645Y-109065224D01*
X147669891Y-109050000D01*
X147630109Y-109050000D01*
X147593355Y-109065224D01*
X147565224Y-109093355D01*
X147550000Y-109130109D01*
X147550000Y-109169891D01*
X147347267Y-109169891D01*
X147367157Y-109150001D01*
X147367157Y-109149999D01*
X147175001Y-108957843D01*
X147174999Y-108957843D01*
X146982843Y-109149999D01*
X146982843Y-109150001D01*
X146800000Y-109150001D01*
X146800000Y-109130109D01*
X146784776Y-109093355D01*
X146756645Y-109065224D01*
X146719891Y-109050000D01*
X146680109Y-109050000D01*
X146643355Y-109065224D01*
X146615224Y-109093355D01*
X146600000Y-109130109D01*
X146600000Y-109169891D01*
X146475343Y-109169891D01*
X146474833Y-109140335D01*
X146477291Y-109105968D01*
X146506252Y-109060904D01*
X146700001Y-108867156D01*
X147038883Y-108528271D01*
X147311115Y-108528271D01*
X147649999Y-108867156D01*
X147988884Y-108528270D01*
X148586114Y-108528270D01*
X148924999Y-108867156D01*
X149263883Y-108528271D01*
X149258661Y-108493957D01*
X149258661Y-108456041D01*
X149263883Y-108421725D01*
X148925001Y-108082843D01*
X148925000Y-108082843D01*
X148586114Y-108421727D01*
X148591337Y-108456042D01*
X148591337Y-108493956D01*
X148586114Y-108528270D01*
X147988884Y-108528270D01*
X147989640Y-108527514D01*
X147998754Y-108460193D01*
X148010045Y-108446941D01*
X148013883Y-108421725D01*
X147675001Y-108082843D01*
X147675000Y-108082843D01*
X147335358Y-108422483D01*
X147326244Y-108489806D01*
X147314953Y-108503055D01*
X147311115Y-108528271D01*
X147038883Y-108528271D01*
X147033661Y-108493957D01*
X147033661Y-108456041D01*
X147038883Y-108421726D01*
X146506252Y-107889096D01*
X146472227Y-107826783D01*
X146472720Y-107819891D01*
X146600000Y-107819891D01*
X146615224Y-107856645D01*
X146643355Y-107884776D01*
X146680109Y-107900000D01*
X146719891Y-107900000D01*
X146756645Y-107884776D01*
X146784776Y-107856645D01*
X146800000Y-107819891D01*
X146800000Y-107800001D01*
X146982843Y-107800001D01*
X147187499Y-108004657D01*
X147187501Y-108004657D01*
X147372267Y-107819891D01*
X147575000Y-107819891D01*
X147590224Y-107856645D01*
X147618355Y-107884776D01*
X147655109Y-107900000D01*
X147694891Y-107900000D01*
X147731645Y-107884776D01*
X147759776Y-107856645D01*
X147775000Y-107819891D01*
X147775000Y-107800001D01*
X147957843Y-107800001D01*
X148294777Y-108136935D01*
X148299508Y-108142612D01*
X148300475Y-108142612D01*
X148305165Y-108136990D01*
X148622265Y-107819891D01*
X148825000Y-107819891D01*
X148840224Y-107856645D01*
X148868355Y-107884776D01*
X148905109Y-107900000D01*
X148944891Y-107900000D01*
X148981645Y-107884776D01*
X149009776Y-107856645D01*
X149025000Y-107819891D01*
X149025000Y-107800001D01*
X149207843Y-107800001D01*
X149412499Y-108004657D01*
X149412501Y-108004657D01*
X149597267Y-107819891D01*
X149800000Y-107819891D01*
X149815224Y-107856645D01*
X149843355Y-107884776D01*
X149880109Y-107900000D01*
X149919891Y-107900000D01*
X149956645Y-107884776D01*
X149984776Y-107856645D01*
X150000000Y-107819891D01*
X150000000Y-107780109D01*
X149984776Y-107743355D01*
X149956645Y-107715224D01*
X149919891Y-107700000D01*
X149880109Y-107700000D01*
X149843355Y-107715224D01*
X149815224Y-107743355D01*
X149800000Y-107780109D01*
X149800000Y-107819891D01*
X149597267Y-107819891D01*
X149617157Y-107800001D01*
X149617157Y-107799999D01*
X149412501Y-107595343D01*
X149412499Y-107595343D01*
X149207843Y-107799999D01*
X149207843Y-107800001D01*
X149025000Y-107800001D01*
X149025000Y-107780109D01*
X149009776Y-107743355D01*
X148981645Y-107715224D01*
X148944891Y-107700000D01*
X148905109Y-107700000D01*
X148868355Y-107715224D01*
X148840224Y-107743355D01*
X148825000Y-107780109D01*
X148825000Y-107819891D01*
X148622265Y-107819891D01*
X148642157Y-107799999D01*
X148305264Y-107463106D01*
X148300484Y-107457367D01*
X148299501Y-107457367D01*
X148294682Y-107463159D01*
X147957843Y-107799999D01*
X147957843Y-107800001D01*
X147775000Y-107800001D01*
X147775000Y-107780109D01*
X147759776Y-107743355D01*
X147731645Y-107715224D01*
X147694891Y-107700000D01*
X147655109Y-107700000D01*
X147618355Y-107715224D01*
X147590224Y-107743355D01*
X147575000Y-107780109D01*
X147575000Y-107819891D01*
X147372267Y-107819891D01*
X147392157Y-107800001D01*
X147392157Y-107799999D01*
X147187501Y-107595343D01*
X147187499Y-107595343D01*
X146982843Y-107799999D01*
X146982843Y-107800001D01*
X146800000Y-107800001D01*
X146800000Y-107780109D01*
X146784776Y-107743355D01*
X146756645Y-107715224D01*
X146719891Y-107700000D01*
X146680109Y-107700000D01*
X146643355Y-107715224D01*
X146615224Y-107743355D01*
X146600000Y-107780109D01*
X146600000Y-107819891D01*
X146472720Y-107819891D01*
X146477291Y-107755968D01*
X146506252Y-107710904D01*
X146700001Y-107517156D01*
X147038883Y-107178271D01*
X147038883Y-107178270D01*
X147336114Y-107178270D01*
X147674999Y-107517156D01*
X148013883Y-107178271D01*
X148013883Y-107178270D01*
X148586114Y-107178270D01*
X148924999Y-107517156D01*
X149263883Y-107178271D01*
X149258661Y-107143957D01*
X149258661Y-107106041D01*
X149263883Y-107071725D01*
X148925001Y-106732843D01*
X148925000Y-106732843D01*
X148586114Y-107071727D01*
X148591337Y-107106042D01*
X148591337Y-107143956D01*
X148586114Y-107178270D01*
X148013883Y-107178270D01*
X148008661Y-107143957D01*
X148008661Y-107106041D01*
X148013883Y-107071725D01*
X147675001Y-106732843D01*
X147675000Y-106732843D01*
X147336114Y-107071727D01*
X147341337Y-107106042D01*
X147341337Y-107143956D01*
X147336114Y-107178270D01*
X147038883Y-107178270D01*
X147033661Y-107143957D01*
X147033661Y-107106041D01*
X147038883Y-107071726D01*
X146506252Y-106539096D01*
X146472227Y-106476783D01*
X146472720Y-106469891D01*
X146600000Y-106469891D01*
X146615224Y-106506645D01*
X146643355Y-106534776D01*
X146680109Y-106550000D01*
X146719891Y-106550000D01*
X146756645Y-106534776D01*
X146784776Y-106506645D01*
X146800000Y-106469891D01*
X146800000Y-106450001D01*
X146982843Y-106450001D01*
X147187499Y-106654657D01*
X147187501Y-106654657D01*
X147372267Y-106469891D01*
X147575000Y-106469891D01*
X147590224Y-106506645D01*
X147618355Y-106534776D01*
X147655109Y-106550000D01*
X147694891Y-106550000D01*
X147731645Y-106534776D01*
X147759776Y-106506645D01*
X147775000Y-106469891D01*
X147775000Y-106450001D01*
X147957843Y-106450001D01*
X148294777Y-106786935D01*
X148299508Y-106792612D01*
X148300475Y-106792612D01*
X148305165Y-106786990D01*
X148622265Y-106469891D01*
X148825000Y-106469891D01*
X148840224Y-106506645D01*
X148868355Y-106534776D01*
X148905109Y-106550000D01*
X148944891Y-106550000D01*
X148981645Y-106534776D01*
X149009776Y-106506645D01*
X149025000Y-106469891D01*
X149025000Y-106450001D01*
X149207843Y-106450001D01*
X149394821Y-106636979D01*
X149394822Y-106636979D01*
X149561910Y-106469891D01*
X149800000Y-106469891D01*
X149815224Y-106506645D01*
X149843355Y-106534776D01*
X149880109Y-106550000D01*
X149919891Y-106550000D01*
X149956645Y-106534776D01*
X149984776Y-106506645D01*
X150000000Y-106469891D01*
X150000000Y-106430109D01*
X149984776Y-106393355D01*
X149956645Y-106365224D01*
X149919891Y-106350000D01*
X149880109Y-106350000D01*
X149843355Y-106365224D01*
X149815224Y-106393355D01*
X149800000Y-106430109D01*
X149800000Y-106469891D01*
X149561910Y-106469891D01*
X149581802Y-106449999D01*
X149394823Y-106263020D01*
X149394822Y-106263020D01*
X149207843Y-106449999D01*
X149207843Y-106450001D01*
X149025000Y-106450001D01*
X149025000Y-106430109D01*
X149009776Y-106393355D01*
X148981645Y-106365224D01*
X148944891Y-106350000D01*
X148905109Y-106350000D01*
X148868355Y-106365224D01*
X148840224Y-106393355D01*
X148825000Y-106430109D01*
X148825000Y-106469891D01*
X148622265Y-106469891D01*
X148642157Y-106449999D01*
X148305264Y-106113106D01*
X148300484Y-106107367D01*
X148299501Y-106107367D01*
X148294682Y-106113159D01*
X147957843Y-106449999D01*
X147957843Y-106450001D01*
X147775000Y-106450001D01*
X147775000Y-106430109D01*
X147759776Y-106393355D01*
X147731645Y-106365224D01*
X147694891Y-106350000D01*
X147655109Y-106350000D01*
X147618355Y-106365224D01*
X147590224Y-106393355D01*
X147575000Y-106430109D01*
X147575000Y-106469891D01*
X147372267Y-106469891D01*
X147392157Y-106450001D01*
X147392157Y-106449999D01*
X147187501Y-106245343D01*
X147187499Y-106245343D01*
X146982843Y-106449999D01*
X146982843Y-106450001D01*
X146800000Y-106450001D01*
X146800000Y-106430109D01*
X146784776Y-106393355D01*
X146756645Y-106365224D01*
X146719891Y-106350000D01*
X146680109Y-106350000D01*
X146643355Y-106365224D01*
X146615224Y-106393355D01*
X146600000Y-106430109D01*
X146600000Y-106469891D01*
X146472720Y-106469891D01*
X146477291Y-106405968D01*
X146506252Y-106360904D01*
X146700001Y-106167156D01*
X147067492Y-105799662D01*
X147129804Y-105765637D01*
X147200620Y-105770701D01*
X147223624Y-105782070D01*
X147266682Y-105809125D01*
X147316241Y-105817806D01*
X147349514Y-105841670D01*
X147675000Y-106167156D01*
X147999479Y-105842677D01*
X147999479Y-105842676D01*
X147445897Y-105289094D01*
X147411871Y-105226782D01*
X147412364Y-105219891D01*
X147575000Y-105219891D01*
X147590224Y-105256645D01*
X147618355Y-105284776D01*
X147655109Y-105300000D01*
X147694891Y-105300000D01*
X147731645Y-105284776D01*
X147759776Y-105256645D01*
X147775000Y-105219891D01*
X147775000Y-105180109D01*
X147759776Y-105143355D01*
X147731645Y-105115224D01*
X147694891Y-105100000D01*
X147655109Y-105100000D01*
X147618355Y-105115224D01*
X147590224Y-105143355D01*
X147575000Y-105180109D01*
X147575000Y-105219891D01*
X147412364Y-105219891D01*
X147416936Y-105155967D01*
X147445897Y-105110904D01*
X147585904Y-104970897D01*
X147648216Y-104936871D01*
X147719031Y-104941936D01*
G37*
%TD.AperFunction*%
%TA.AperFunction,Conductor*%
G36*
X149651158Y-109817855D02*
G01*
X149814031Y-109857999D01*
X149814034Y-109858000D01*
X149985966Y-109858000D01*
X149985968Y-109857999D01*
X150113569Y-109826548D01*
X150100000Y-110600000D01*
X149606356Y-110600000D01*
X149617477Y-110570677D01*
X149638200Y-110400002D01*
X149638200Y-110399997D01*
X149617477Y-110229322D01*
X149556507Y-110068561D01*
X149556504Y-110068555D01*
X149517308Y-110011770D01*
X149495072Y-109944346D01*
X149512819Y-109875603D01*
X149564914Y-109827367D01*
X149634817Y-109814953D01*
X149651158Y-109817855D01*
G37*
%TD.AperFunction*%
%TA.AperFunction,Conductor*%
G36*
X146955857Y-105035857D02*
G01*
X146937362Y-105200000D01*
X146955857Y-105364142D01*
X147010410Y-105520047D01*
X147050684Y-105584144D01*
X147069989Y-105652465D01*
X147049293Y-105720378D01*
X146995165Y-105766321D01*
X146924792Y-105775707D01*
X146913842Y-105773518D01*
X146785968Y-105742000D01*
X146614031Y-105742000D01*
X146447097Y-105783145D01*
X146447093Y-105783147D01*
X146417221Y-105798824D01*
X146401724Y-104900000D01*
X147003395Y-104900000D01*
X146955857Y-105035857D01*
G37*
%TD.AperFunction*%
%TA.AperFunction,Conductor*%
G36*
X150184683Y-105773035D02*
G01*
X150064142Y-105730857D01*
X149900000Y-105712362D01*
X149735859Y-105730856D01*
X149718454Y-105736947D01*
X149647549Y-105740565D01*
X149585945Y-105705275D01*
X149553198Y-105642282D01*
X149559708Y-105571584D01*
X149570153Y-105550981D01*
X149589589Y-105520048D01*
X149644142Y-105364142D01*
X149662637Y-105200000D01*
X149644142Y-105035857D01*
X149596604Y-104900000D01*
X150200000Y-104900000D01*
X150184683Y-105773035D01*
G37*
%TD.AperFunction*%
%TA.AperFunction,Conductor*%
G36*
X146401724Y-104900000D02*
G01*
X146400000Y-104900000D01*
X146400000Y-104800000D01*
X146401724Y-104900000D01*
G37*
%TD.AperFunction*%
%TD*%
%TA.AperFunction,Conductor*%
%TO.N,GNDA*%
G36*
X146447095Y-109816853D02*
G01*
X146447097Y-109816854D01*
X146614031Y-109857999D01*
X146614034Y-109858000D01*
X146785966Y-109858000D01*
X146785968Y-109857999D01*
X146948841Y-109817855D01*
X147019769Y-109820974D01*
X147077752Y-109861944D01*
X147104380Y-109927758D01*
X147091199Y-109997520D01*
X147082692Y-110011769D01*
X147043494Y-110068557D01*
X147043492Y-110068561D01*
X146982522Y-110229322D01*
X146961800Y-110399997D01*
X146961800Y-110400002D01*
X146982522Y-110570677D01*
X147031569Y-110700000D01*
X146400000Y-110700000D01*
X146400000Y-109792135D01*
X146447095Y-109816853D01*
G37*
%TD.AperFunction*%
%TA.AperFunction,Conductor*%
G36*
X150200000Y-110700000D02*
G01*
X149568430Y-110700000D01*
X149617477Y-110570677D01*
X149638200Y-110400002D01*
X149638200Y-110399997D01*
X149617477Y-110229322D01*
X149556507Y-110068561D01*
X149556504Y-110068555D01*
X149517308Y-110011770D01*
X149495072Y-109944346D01*
X149512819Y-109875603D01*
X149564914Y-109827367D01*
X149634817Y-109814953D01*
X149651158Y-109817855D01*
X149814031Y-109857999D01*
X149814034Y-109858000D01*
X149985966Y-109858000D01*
X149985968Y-109857999D01*
X150152902Y-109816854D01*
X150152904Y-109816853D01*
X150200000Y-109792135D01*
X150200000Y-110700000D01*
G37*
%TD.AperFunction*%
%TA.AperFunction,Conductor*%
G36*
X147719031Y-104941936D02*
G01*
X147764094Y-104970897D01*
X148299999Y-105506802D01*
X148300000Y-105506802D01*
X148586910Y-105219891D01*
X148825000Y-105219891D01*
X148840224Y-105256645D01*
X148868355Y-105284776D01*
X148905109Y-105300000D01*
X148944891Y-105300000D01*
X148981645Y-105284776D01*
X149009776Y-105256645D01*
X149025000Y-105219891D01*
X149025000Y-105180109D01*
X149009776Y-105143355D01*
X148981645Y-105115224D01*
X148944891Y-105100000D01*
X148905109Y-105100000D01*
X148868355Y-105115224D01*
X148840224Y-105143355D01*
X148825000Y-105180109D01*
X148825000Y-105219891D01*
X148586910Y-105219891D01*
X148835904Y-104970897D01*
X148898217Y-104936872D01*
X148969032Y-104941936D01*
X149014095Y-104970897D01*
X149154102Y-105110904D01*
X149188128Y-105173216D01*
X149183063Y-105244031D01*
X149154102Y-105289094D01*
X148600520Y-105842676D01*
X148600520Y-105842678D01*
X148924999Y-106167157D01*
X148925000Y-106167157D01*
X149250485Y-105841670D01*
X149312797Y-105807645D01*
X149337694Y-105806374D01*
X149384909Y-105776709D01*
X149385889Y-105775928D01*
X149386641Y-105775620D01*
X149390902Y-105772944D01*
X149391370Y-105773690D01*
X149451619Y-105749095D01*
X149521422Y-105762058D01*
X149553542Y-105785344D01*
X149900000Y-106131801D01*
X149900000Y-106131802D01*
X150129102Y-106360904D01*
X150163128Y-106423216D01*
X150158063Y-106494031D01*
X150129102Y-106539094D01*
X149563772Y-107104423D01*
X149565555Y-107120243D01*
X149564913Y-107153309D01*
X149561113Y-107178270D01*
X149900000Y-107517156D01*
X149900000Y-107517157D01*
X150093747Y-107710904D01*
X150127773Y-107773216D01*
X150122708Y-107844031D01*
X150093747Y-107889094D01*
X149561114Y-108421726D01*
X149566337Y-108456042D01*
X149566337Y-108493956D01*
X149561114Y-108528271D01*
X150093747Y-109060904D01*
X150127773Y-109123216D01*
X150122708Y-109194031D01*
X150093747Y-109239094D01*
X149516057Y-109816784D01*
X149514473Y-109815200D01*
X149496439Y-109836360D01*
X149428484Y-109856919D01*
X149360202Y-109837474D01*
X149343901Y-109825235D01*
X149330148Y-109813050D01*
X149294625Y-109794404D01*
X149264093Y-109771935D01*
X148925001Y-109432843D01*
X148925000Y-109432843D01*
X148585903Y-109771938D01*
X148583727Y-109773538D01*
X148583727Y-109776457D01*
X148585893Y-109778051D01*
X149118747Y-110310905D01*
X149152773Y-110373217D01*
X149147708Y-110444032D01*
X149118747Y-110489095D01*
X149014095Y-110593747D01*
X148951783Y-110627773D01*
X148880968Y-110622708D01*
X148835905Y-110593747D01*
X148662049Y-110419891D01*
X148825000Y-110419891D01*
X148840224Y-110456645D01*
X148868355Y-110484776D01*
X148905109Y-110500000D01*
X148944891Y-110500000D01*
X148981645Y-110484776D01*
X149009776Y-110456645D01*
X149025000Y-110419891D01*
X149025000Y-110380109D01*
X149009776Y-110343355D01*
X148981645Y-110315224D01*
X148944891Y-110300000D01*
X148905109Y-110300000D01*
X148868355Y-110315224D01*
X148840224Y-110343355D01*
X148825000Y-110380109D01*
X148825000Y-110419891D01*
X148662049Y-110419891D01*
X148305264Y-110063106D01*
X148300484Y-110057367D01*
X148299501Y-110057367D01*
X148294682Y-110063159D01*
X147764094Y-110593747D01*
X147701782Y-110627773D01*
X147630967Y-110622708D01*
X147585904Y-110593747D01*
X147481252Y-110489095D01*
X147447226Y-110426783D01*
X147447719Y-110419891D01*
X147575000Y-110419891D01*
X147590224Y-110456645D01*
X147618355Y-110484776D01*
X147655109Y-110500000D01*
X147694891Y-110500000D01*
X147731645Y-110484776D01*
X147759776Y-110456645D01*
X147775000Y-110419891D01*
X147775000Y-110380109D01*
X147759776Y-110343355D01*
X147731645Y-110315224D01*
X147694891Y-110300000D01*
X147655109Y-110300000D01*
X147618355Y-110315224D01*
X147590224Y-110343355D01*
X147575000Y-110380109D01*
X147575000Y-110419891D01*
X147447719Y-110419891D01*
X147452291Y-110355968D01*
X147481252Y-110310904D01*
X148004657Y-109787499D01*
X147650001Y-109432843D01*
X147650000Y-109432843D01*
X147272012Y-109810829D01*
X147266472Y-109816044D01*
X147256099Y-109825234D01*
X147191847Y-109855436D01*
X147121466Y-109846106D01*
X147085283Y-109815443D01*
X147083942Y-109816785D01*
X147067701Y-109800544D01*
X147067302Y-109800206D01*
X147067275Y-109800118D01*
X146506252Y-109239096D01*
X146472227Y-109176783D01*
X146472720Y-109169891D01*
X146600000Y-109169891D01*
X146615224Y-109206645D01*
X146643355Y-109234776D01*
X146680109Y-109250000D01*
X146719891Y-109250000D01*
X146756645Y-109234776D01*
X146784776Y-109206645D01*
X146800000Y-109169891D01*
X146800000Y-109150001D01*
X146982843Y-109150001D01*
X147174999Y-109342157D01*
X147175001Y-109342157D01*
X147347267Y-109169891D01*
X147550000Y-109169891D01*
X147565224Y-109206645D01*
X147593355Y-109234776D01*
X147630109Y-109250000D01*
X147669891Y-109250000D01*
X147706645Y-109234776D01*
X147734776Y-109206645D01*
X147750000Y-109169891D01*
X147750000Y-109150001D01*
X147932843Y-109150001D01*
X148274472Y-109491630D01*
X148276103Y-109491482D01*
X148298906Y-109491482D01*
X148300525Y-109491629D01*
X148622265Y-109169891D01*
X148825000Y-109169891D01*
X148840224Y-109206645D01*
X148868355Y-109234776D01*
X148905109Y-109250000D01*
X148944891Y-109250000D01*
X148981645Y-109234776D01*
X149009776Y-109206645D01*
X149025000Y-109169891D01*
X149025000Y-109150001D01*
X149207843Y-109150001D01*
X149412499Y-109354657D01*
X149412501Y-109354657D01*
X149597267Y-109169891D01*
X149800000Y-109169891D01*
X149815224Y-109206645D01*
X149843355Y-109234776D01*
X149880109Y-109250000D01*
X149919891Y-109250000D01*
X149956645Y-109234776D01*
X149984776Y-109206645D01*
X150000000Y-109169891D01*
X150000000Y-109130109D01*
X149984776Y-109093355D01*
X149956645Y-109065224D01*
X149919891Y-109050000D01*
X149880109Y-109050000D01*
X149843355Y-109065224D01*
X149815224Y-109093355D01*
X149800000Y-109130109D01*
X149800000Y-109169891D01*
X149597267Y-109169891D01*
X149617157Y-109150001D01*
X149617157Y-109149999D01*
X149412501Y-108945343D01*
X149412499Y-108945343D01*
X149207843Y-109149999D01*
X149207843Y-109150001D01*
X149025000Y-109150001D01*
X149025000Y-109130109D01*
X149009776Y-109093355D01*
X148981645Y-109065224D01*
X148944891Y-109050000D01*
X148905109Y-109050000D01*
X148868355Y-109065224D01*
X148840224Y-109093355D01*
X148825000Y-109130109D01*
X148825000Y-109169891D01*
X148622265Y-109169891D01*
X148642157Y-109149999D01*
X148300526Y-108808368D01*
X148298902Y-108808516D01*
X148276096Y-108808516D01*
X148274473Y-108808368D01*
X147932843Y-109149999D01*
X147932843Y-109150001D01*
X147750000Y-109150001D01*
X147750000Y-109130109D01*
X147734776Y-109093355D01*
X147706645Y-109065224D01*
X147669891Y-109050000D01*
X147630109Y-109050000D01*
X147593355Y-109065224D01*
X147565224Y-109093355D01*
X147550000Y-109130109D01*
X147550000Y-109169891D01*
X147347267Y-109169891D01*
X147367157Y-109150001D01*
X147367157Y-109149999D01*
X147175001Y-108957843D01*
X147174999Y-108957843D01*
X146982843Y-109149999D01*
X146982843Y-109150001D01*
X146800000Y-109150001D01*
X146800000Y-109130109D01*
X146784776Y-109093355D01*
X146756645Y-109065224D01*
X146719891Y-109050000D01*
X146680109Y-109050000D01*
X146643355Y-109065224D01*
X146615224Y-109093355D01*
X146600000Y-109130109D01*
X146600000Y-109169891D01*
X146472720Y-109169891D01*
X146477291Y-109105968D01*
X146506252Y-109060904D01*
X146700001Y-108867156D01*
X147038883Y-108528271D01*
X147311115Y-108528271D01*
X147649999Y-108867156D01*
X147988884Y-108528270D01*
X148586114Y-108528270D01*
X148924999Y-108867156D01*
X149263883Y-108528271D01*
X149258661Y-108493957D01*
X149258661Y-108456041D01*
X149263883Y-108421725D01*
X148925001Y-108082843D01*
X148925000Y-108082843D01*
X148586114Y-108421727D01*
X148591337Y-108456042D01*
X148591337Y-108493956D01*
X148586114Y-108528270D01*
X147988884Y-108528270D01*
X147989640Y-108527514D01*
X147998754Y-108460193D01*
X148010045Y-108446941D01*
X148013883Y-108421725D01*
X147675001Y-108082843D01*
X147675000Y-108082843D01*
X147335358Y-108422483D01*
X147326244Y-108489806D01*
X147314953Y-108503055D01*
X147311115Y-108528271D01*
X147038883Y-108528271D01*
X147033661Y-108493957D01*
X147033661Y-108456041D01*
X147038883Y-108421726D01*
X146506252Y-107889096D01*
X146472227Y-107826783D01*
X146472720Y-107819891D01*
X146600000Y-107819891D01*
X146615224Y-107856645D01*
X146643355Y-107884776D01*
X146680109Y-107900000D01*
X146719891Y-107900000D01*
X146756645Y-107884776D01*
X146784776Y-107856645D01*
X146800000Y-107819891D01*
X146800000Y-107800001D01*
X146982843Y-107800001D01*
X147187499Y-108004657D01*
X147187501Y-108004657D01*
X147372267Y-107819891D01*
X147575000Y-107819891D01*
X147590224Y-107856645D01*
X147618355Y-107884776D01*
X147655109Y-107900000D01*
X147694891Y-107900000D01*
X147731645Y-107884776D01*
X147759776Y-107856645D01*
X147775000Y-107819891D01*
X147775000Y-107800001D01*
X147957843Y-107800001D01*
X148294777Y-108136935D01*
X148299508Y-108142612D01*
X148300475Y-108142612D01*
X148305165Y-108136990D01*
X148622265Y-107819891D01*
X148825000Y-107819891D01*
X148840224Y-107856645D01*
X148868355Y-107884776D01*
X148905109Y-107900000D01*
X148944891Y-107900000D01*
X148981645Y-107884776D01*
X149009776Y-107856645D01*
X149025000Y-107819891D01*
X149025000Y-107800001D01*
X149207843Y-107800001D01*
X149412499Y-108004657D01*
X149412501Y-108004657D01*
X149597267Y-107819891D01*
X149800000Y-107819891D01*
X149815224Y-107856645D01*
X149843355Y-107884776D01*
X149880109Y-107900000D01*
X149919891Y-107900000D01*
X149956645Y-107884776D01*
X149984776Y-107856645D01*
X150000000Y-107819891D01*
X150000000Y-107780109D01*
X149984776Y-107743355D01*
X149956645Y-107715224D01*
X149919891Y-107700000D01*
X149880109Y-107700000D01*
X149843355Y-107715224D01*
X149815224Y-107743355D01*
X149800000Y-107780109D01*
X149800000Y-107819891D01*
X149597267Y-107819891D01*
X149617157Y-107800001D01*
X149617157Y-107799999D01*
X149412501Y-107595343D01*
X149412499Y-107595343D01*
X149207843Y-107799999D01*
X149207843Y-107800001D01*
X149025000Y-107800001D01*
X149025000Y-107780109D01*
X149009776Y-107743355D01*
X148981645Y-107715224D01*
X148944891Y-107700000D01*
X148905109Y-107700000D01*
X148868355Y-107715224D01*
X148840224Y-107743355D01*
X148825000Y-107780109D01*
X148825000Y-107819891D01*
X148622265Y-107819891D01*
X148642157Y-107799999D01*
X148305264Y-107463106D01*
X148300484Y-107457367D01*
X148299501Y-107457367D01*
X148294682Y-107463159D01*
X147957843Y-107799999D01*
X147957843Y-107800001D01*
X147775000Y-107800001D01*
X147775000Y-107780109D01*
X147759776Y-107743355D01*
X147731645Y-107715224D01*
X147694891Y-107700000D01*
X147655109Y-107700000D01*
X147618355Y-107715224D01*
X147590224Y-107743355D01*
X147575000Y-107780109D01*
X147575000Y-107819891D01*
X147372267Y-107819891D01*
X147392157Y-107800001D01*
X147392157Y-107799999D01*
X147187501Y-107595343D01*
X147187499Y-107595343D01*
X146982843Y-107799999D01*
X146982843Y-107800001D01*
X146800000Y-107800001D01*
X146800000Y-107780109D01*
X146784776Y-107743355D01*
X146756645Y-107715224D01*
X146719891Y-107700000D01*
X146680109Y-107700000D01*
X146643355Y-107715224D01*
X146615224Y-107743355D01*
X146600000Y-107780109D01*
X146600000Y-107819891D01*
X146472720Y-107819891D01*
X146477291Y-107755968D01*
X146506252Y-107710904D01*
X146700001Y-107517156D01*
X147038883Y-107178271D01*
X147038883Y-107178270D01*
X147336114Y-107178270D01*
X147674999Y-107517156D01*
X148013883Y-107178271D01*
X148013883Y-107178270D01*
X148586114Y-107178270D01*
X148924999Y-107517156D01*
X149263883Y-107178271D01*
X149258661Y-107143957D01*
X149258661Y-107106041D01*
X149263883Y-107071725D01*
X148925001Y-106732843D01*
X148925000Y-106732843D01*
X148586114Y-107071727D01*
X148591337Y-107106042D01*
X148591337Y-107143956D01*
X148586114Y-107178270D01*
X148013883Y-107178270D01*
X148008661Y-107143957D01*
X148008661Y-107106041D01*
X148013883Y-107071725D01*
X147675001Y-106732843D01*
X147675000Y-106732843D01*
X147336114Y-107071727D01*
X147341337Y-107106042D01*
X147341337Y-107143956D01*
X147336114Y-107178270D01*
X147038883Y-107178270D01*
X147033661Y-107143957D01*
X147033661Y-107106041D01*
X147038883Y-107071726D01*
X146506252Y-106539096D01*
X146472227Y-106476783D01*
X146472720Y-106469891D01*
X146600000Y-106469891D01*
X146615224Y-106506645D01*
X146643355Y-106534776D01*
X146680109Y-106550000D01*
X146719891Y-106550000D01*
X146756645Y-106534776D01*
X146784776Y-106506645D01*
X146800000Y-106469891D01*
X146800000Y-106450001D01*
X146982843Y-106450001D01*
X147187499Y-106654657D01*
X147187501Y-106654657D01*
X147372267Y-106469891D01*
X147575000Y-106469891D01*
X147590224Y-106506645D01*
X147618355Y-106534776D01*
X147655109Y-106550000D01*
X147694891Y-106550000D01*
X147731645Y-106534776D01*
X147759776Y-106506645D01*
X147775000Y-106469891D01*
X147775000Y-106450001D01*
X147957843Y-106450001D01*
X148294777Y-106786935D01*
X148299508Y-106792612D01*
X148300475Y-106792612D01*
X148305165Y-106786990D01*
X148622265Y-106469891D01*
X148825000Y-106469891D01*
X148840224Y-106506645D01*
X148868355Y-106534776D01*
X148905109Y-106550000D01*
X148944891Y-106550000D01*
X148981645Y-106534776D01*
X149009776Y-106506645D01*
X149025000Y-106469891D01*
X149025000Y-106450001D01*
X149207843Y-106450001D01*
X149394821Y-106636979D01*
X149394822Y-106636979D01*
X149561910Y-106469891D01*
X149800000Y-106469891D01*
X149815224Y-106506645D01*
X149843355Y-106534776D01*
X149880109Y-106550000D01*
X149919891Y-106550000D01*
X149956645Y-106534776D01*
X149984776Y-106506645D01*
X150000000Y-106469891D01*
X150000000Y-106430109D01*
X149984776Y-106393355D01*
X149956645Y-106365224D01*
X149919891Y-106350000D01*
X149880109Y-106350000D01*
X149843355Y-106365224D01*
X149815224Y-106393355D01*
X149800000Y-106430109D01*
X149800000Y-106469891D01*
X149561910Y-106469891D01*
X149581802Y-106449999D01*
X149394823Y-106263020D01*
X149394822Y-106263020D01*
X149207843Y-106449999D01*
X149207843Y-106450001D01*
X149025000Y-106450001D01*
X149025000Y-106430109D01*
X149009776Y-106393355D01*
X148981645Y-106365224D01*
X148944891Y-106350000D01*
X148905109Y-106350000D01*
X148868355Y-106365224D01*
X148840224Y-106393355D01*
X148825000Y-106430109D01*
X148825000Y-106469891D01*
X148622265Y-106469891D01*
X148642157Y-106449999D01*
X148305264Y-106113106D01*
X148300484Y-106107367D01*
X148299501Y-106107367D01*
X148294682Y-106113159D01*
X147957843Y-106449999D01*
X147957843Y-106450001D01*
X147775000Y-106450001D01*
X147775000Y-106430109D01*
X147759776Y-106393355D01*
X147731645Y-106365224D01*
X147694891Y-106350000D01*
X147655109Y-106350000D01*
X147618355Y-106365224D01*
X147590224Y-106393355D01*
X147575000Y-106430109D01*
X147575000Y-106469891D01*
X147372267Y-106469891D01*
X147392157Y-106450001D01*
X147392157Y-106449999D01*
X147187501Y-106245343D01*
X147187499Y-106245343D01*
X146982843Y-106449999D01*
X146982843Y-106450001D01*
X146800000Y-106450001D01*
X146800000Y-106430109D01*
X146784776Y-106393355D01*
X146756645Y-106365224D01*
X146719891Y-106350000D01*
X146680109Y-106350000D01*
X146643355Y-106365224D01*
X146615224Y-106393355D01*
X146600000Y-106430109D01*
X146600000Y-106469891D01*
X146472720Y-106469891D01*
X146477291Y-106405968D01*
X146506252Y-106360904D01*
X146700001Y-106167156D01*
X147067492Y-105799662D01*
X147129804Y-105765637D01*
X147200620Y-105770701D01*
X147223624Y-105782070D01*
X147266682Y-105809125D01*
X147316241Y-105817806D01*
X147349514Y-105841670D01*
X147675000Y-106167156D01*
X147999479Y-105842677D01*
X147999479Y-105842676D01*
X147445897Y-105289094D01*
X147411871Y-105226782D01*
X147412364Y-105219891D01*
X147575000Y-105219891D01*
X147590224Y-105256645D01*
X147618355Y-105284776D01*
X147655109Y-105300000D01*
X147694891Y-105300000D01*
X147731645Y-105284776D01*
X147759776Y-105256645D01*
X147775000Y-105219891D01*
X147775000Y-105180109D01*
X147759776Y-105143355D01*
X147731645Y-105115224D01*
X147694891Y-105100000D01*
X147655109Y-105100000D01*
X147618355Y-105115224D01*
X147590224Y-105143355D01*
X147575000Y-105180109D01*
X147575000Y-105219891D01*
X147412364Y-105219891D01*
X147416936Y-105155967D01*
X147445897Y-105110904D01*
X147585904Y-104970897D01*
X147648216Y-104936871D01*
X147719031Y-104941936D01*
G37*
%TD.AperFunction*%
%TA.AperFunction,Conductor*%
G36*
X146955857Y-105035857D02*
G01*
X146937362Y-105200000D01*
X146955857Y-105364142D01*
X147010410Y-105520047D01*
X147050684Y-105584144D01*
X147069989Y-105652465D01*
X147049293Y-105720378D01*
X146995165Y-105766321D01*
X146924792Y-105775707D01*
X146913842Y-105773518D01*
X146785968Y-105742000D01*
X146614031Y-105742000D01*
X146447097Y-105783145D01*
X146447091Y-105783148D01*
X146400000Y-105807863D01*
X146400000Y-104900000D01*
X147003395Y-104900000D01*
X146955857Y-105035857D01*
G37*
%TD.AperFunction*%
%TA.AperFunction,Conductor*%
G36*
X150200000Y-105778395D02*
G01*
X150064142Y-105730857D01*
X149900000Y-105712362D01*
X149735859Y-105730856D01*
X149718454Y-105736947D01*
X149647549Y-105740565D01*
X149585945Y-105705275D01*
X149553198Y-105642282D01*
X149559708Y-105571584D01*
X149570153Y-105550981D01*
X149589589Y-105520048D01*
X149644142Y-105364142D01*
X149662637Y-105200000D01*
X149644142Y-105035857D01*
X149596604Y-104900000D01*
X150200000Y-104900000D01*
X150200000Y-105778395D01*
G37*
%TD.AperFunction*%
%TD*%
%TA.AperFunction,Conductor*%
%TO.N,GNDA*%
G36*
X152301750Y-99978502D02*
G01*
X152322724Y-99995405D01*
X152604595Y-100277276D01*
X152638621Y-100339588D01*
X152641500Y-100366371D01*
X152641500Y-107874711D01*
X152648644Y-107910624D01*
X152656074Y-107947976D01*
X152670649Y-108021247D01*
X152727826Y-108159284D01*
X152810834Y-108283515D01*
X154316485Y-109789166D01*
X154440716Y-109872174D01*
X154578753Y-109929351D01*
X154652022Y-109943924D01*
X154652023Y-109943925D01*
X154666598Y-109946824D01*
X154725294Y-109958500D01*
X154725295Y-109958500D01*
X154874705Y-109958500D01*
X157164629Y-109958500D01*
X157232750Y-109978502D01*
X157279243Y-110032158D01*
X157289347Y-110102432D01*
X157259853Y-110167012D01*
X157253724Y-110173595D01*
X157022724Y-110404595D01*
X156960412Y-110438621D01*
X156933629Y-110441500D01*
X154641756Y-110441500D01*
X154573635Y-110421498D01*
X154552661Y-110404595D01*
X152395405Y-108247338D01*
X152361379Y-108185026D01*
X152358500Y-108158243D01*
X152358500Y-102825298D01*
X152358500Y-102825294D01*
X152343925Y-102752024D01*
X152329351Y-102678753D01*
X152272174Y-102540716D01*
X152189166Y-102416485D01*
X150965311Y-101192630D01*
X150931285Y-101130318D01*
X150936350Y-101059503D01*
X150978897Y-101002667D01*
X151028208Y-100980288D01*
X151082288Y-100968794D01*
X151256752Y-100891118D01*
X151411253Y-100778866D01*
X151439147Y-100747887D01*
X151539034Y-100636951D01*
X151539035Y-100636949D01*
X151539040Y-100636944D01*
X151634527Y-100471556D01*
X151689388Y-100302712D01*
X151720123Y-100252556D01*
X151977277Y-99995404D01*
X152039589Y-99961379D01*
X152066372Y-99958500D01*
X152233629Y-99958500D01*
X152301750Y-99978502D01*
G37*
%TD.AperFunction*%
%TA.AperFunction,Conductor*%
G36*
X167942541Y-66720002D02*
G01*
X167989034Y-66773658D01*
X168000418Y-66825578D01*
X168099989Y-96696485D01*
X168099999Y-96699580D01*
X168100000Y-96700000D01*
X168100000Y-126573274D01*
X168079998Y-126641395D01*
X168026342Y-126687888D01*
X167973596Y-126699273D01*
X128740525Y-126573445D01*
X128672469Y-126553225D01*
X128626148Y-126499420D01*
X128614931Y-126448077D01*
X128599271Y-123321290D01*
X129749500Y-123321290D01*
X129781160Y-123561782D01*
X129843944Y-123796095D01*
X129843945Y-123796097D01*
X129843946Y-123796100D01*
X129936776Y-124020212D01*
X129936777Y-124020213D01*
X129936782Y-124020224D01*
X130058061Y-124230285D01*
X130058063Y-124230288D01*
X130058064Y-124230289D01*
X130205735Y-124422738D01*
X130205739Y-124422742D01*
X130205744Y-124422748D01*
X130377251Y-124594255D01*
X130377256Y-124594259D01*
X130377262Y-124594265D01*
X130569711Y-124741936D01*
X130569714Y-124741938D01*
X130779775Y-124863217D01*
X130779779Y-124863218D01*
X130779788Y-124863224D01*
X131003900Y-124956054D01*
X131238211Y-125018838D01*
X131238215Y-125018838D01*
X131238217Y-125018839D01*
X131300202Y-125026999D01*
X131478712Y-125050500D01*
X131478719Y-125050500D01*
X131721281Y-125050500D01*
X131721288Y-125050500D01*
X131938637Y-125021885D01*
X131961782Y-125018839D01*
X131961782Y-125018838D01*
X131961789Y-125018838D01*
X132196100Y-124956054D01*
X132420212Y-124863224D01*
X132630289Y-124741936D01*
X132822738Y-124594265D01*
X132994265Y-124422738D01*
X133127848Y-124248649D01*
X141011500Y-124248649D01*
X141018009Y-124309196D01*
X141018011Y-124309204D01*
X141069110Y-124446202D01*
X141069112Y-124446207D01*
X141156738Y-124563261D01*
X141273792Y-124650887D01*
X141273794Y-124650888D01*
X141273796Y-124650889D01*
X141327943Y-124671085D01*
X141410795Y-124701988D01*
X141410803Y-124701990D01*
X141471350Y-124708499D01*
X141471355Y-124708499D01*
X141471362Y-124708500D01*
X141471368Y-124708500D01*
X144568632Y-124708500D01*
X144568638Y-124708500D01*
X144568645Y-124708499D01*
X144568649Y-124708499D01*
X144629196Y-124701990D01*
X144629199Y-124701989D01*
X144629201Y-124701989D01*
X144766204Y-124650889D01*
X144883261Y-124563261D01*
X144970887Y-124446207D01*
X144970887Y-124446206D01*
X144970889Y-124446204D01*
X145021989Y-124309201D01*
X145028500Y-124248638D01*
X145028500Y-122700004D01*
X146086807Y-122700004D01*
X146105556Y-122974116D01*
X146105557Y-122974122D01*
X146105558Y-122974130D01*
X146127290Y-123078709D01*
X146161460Y-123243146D01*
X146161462Y-123243154D01*
X146253477Y-123502058D01*
X146379892Y-123746028D01*
X146415236Y-123796099D01*
X146538343Y-123970502D01*
X146725889Y-124171314D01*
X146939031Y-124344718D01*
X147173800Y-124487484D01*
X147425823Y-124596953D01*
X147690404Y-124671085D01*
X147785504Y-124684156D01*
X147962604Y-124708499D01*
X147962615Y-124708500D01*
X148237385Y-124708500D01*
X148237395Y-124708499D01*
X148366945Y-124690692D01*
X148509596Y-124671085D01*
X148774177Y-124596953D01*
X149026200Y-124487484D01*
X149260969Y-124344718D01*
X149474111Y-124171314D01*
X149661657Y-123970502D01*
X149820111Y-123746023D01*
X149946523Y-123502058D01*
X150038538Y-123243153D01*
X150094442Y-122974130D01*
X150113193Y-122700004D01*
X151166807Y-122700004D01*
X151185556Y-122974116D01*
X151185557Y-122974122D01*
X151185558Y-122974130D01*
X151207290Y-123078709D01*
X151241460Y-123243146D01*
X151241462Y-123243154D01*
X151333477Y-123502058D01*
X151459892Y-123746028D01*
X151495236Y-123796099D01*
X151618343Y-123970502D01*
X151805889Y-124171314D01*
X152019031Y-124344718D01*
X152253800Y-124487484D01*
X152505823Y-124596953D01*
X152770404Y-124671085D01*
X152865504Y-124684156D01*
X153042604Y-124708499D01*
X153042615Y-124708500D01*
X153317385Y-124708500D01*
X153317395Y-124708499D01*
X153446945Y-124690692D01*
X153589596Y-124671085D01*
X153854177Y-124596953D01*
X154106200Y-124487484D01*
X154340969Y-124344718D01*
X154554111Y-124171314D01*
X154741657Y-123970502D01*
X154900111Y-123746023D01*
X155026523Y-123502058D01*
X155090768Y-123321290D01*
X162749500Y-123321290D01*
X162781160Y-123561782D01*
X162843944Y-123796095D01*
X162843945Y-123796097D01*
X162843946Y-123796100D01*
X162936776Y-124020212D01*
X162936777Y-124020213D01*
X162936782Y-124020224D01*
X163058061Y-124230285D01*
X163058063Y-124230288D01*
X163058064Y-124230289D01*
X163205735Y-124422738D01*
X163205739Y-124422742D01*
X163205744Y-124422748D01*
X163377251Y-124594255D01*
X163377256Y-124594259D01*
X163377262Y-124594265D01*
X163569711Y-124741936D01*
X163569714Y-124741938D01*
X163779775Y-124863217D01*
X163779779Y-124863218D01*
X163779788Y-124863224D01*
X164003900Y-124956054D01*
X164238211Y-125018838D01*
X164238215Y-125018838D01*
X164238217Y-125018839D01*
X164300202Y-125026999D01*
X164478712Y-125050500D01*
X164478719Y-125050500D01*
X164721281Y-125050500D01*
X164721288Y-125050500D01*
X164938637Y-125021885D01*
X164961782Y-125018839D01*
X164961782Y-125018838D01*
X164961789Y-125018838D01*
X165196100Y-124956054D01*
X165420212Y-124863224D01*
X165630289Y-124741936D01*
X165822738Y-124594265D01*
X165994265Y-124422738D01*
X166141936Y-124230289D01*
X166263224Y-124020212D01*
X166356054Y-123796100D01*
X166418838Y-123561789D01*
X166450500Y-123321288D01*
X166450500Y-123078712D01*
X166418838Y-122838211D01*
X166356054Y-122603900D01*
X166263224Y-122379788D01*
X166263218Y-122379779D01*
X166263217Y-122379775D01*
X166141938Y-122169714D01*
X166141936Y-122169711D01*
X165994265Y-121977262D01*
X165994259Y-121977256D01*
X165994255Y-121977251D01*
X165822748Y-121805744D01*
X165822742Y-121805739D01*
X165822738Y-121805735D01*
X165630289Y-121658064D01*
X165630288Y-121658063D01*
X165630285Y-121658061D01*
X165420224Y-121536782D01*
X165420216Y-121536778D01*
X165420212Y-121536776D01*
X165196100Y-121443946D01*
X165196097Y-121443945D01*
X165196095Y-121443944D01*
X164961782Y-121381160D01*
X164721290Y-121349500D01*
X164721288Y-121349500D01*
X164478712Y-121349500D01*
X164478709Y-121349500D01*
X164238217Y-121381160D01*
X164003904Y-121443944D01*
X164003900Y-121443946D01*
X163779786Y-121536777D01*
X163779775Y-121536782D01*
X163569714Y-121658061D01*
X163377262Y-121805735D01*
X163377251Y-121805744D01*
X163205744Y-121977251D01*
X163205735Y-121977262D01*
X163058061Y-122169714D01*
X162936782Y-122379775D01*
X162936777Y-122379786D01*
X162843946Y-122603900D01*
X162843944Y-122603904D01*
X162781160Y-122838217D01*
X162749500Y-123078709D01*
X162749500Y-123321290D01*
X155090768Y-123321290D01*
X155118538Y-123243153D01*
X155174442Y-122974130D01*
X155193193Y-122700000D01*
X155174442Y-122425870D01*
X155118538Y-122156847D01*
X155026523Y-121897942D01*
X154900111Y-121653977D01*
X154741657Y-121429498D01*
X154554111Y-121228686D01*
X154340969Y-121055282D01*
X154106200Y-120912516D01*
X154106201Y-120912516D01*
X154106197Y-120912514D01*
X153854180Y-120803048D01*
X153854178Y-120803047D01*
X153854177Y-120803047D01*
X153661673Y-120749110D01*
X153589593Y-120728914D01*
X153317395Y-120691500D01*
X153317385Y-120691500D01*
X153042615Y-120691500D01*
X153042604Y-120691500D01*
X152770406Y-120728914D01*
X152505819Y-120803048D01*
X152253802Y-120912514D01*
X152019028Y-121055284D01*
X151805886Y-121228688D01*
X151618343Y-121429498D01*
X151459892Y-121653971D01*
X151333477Y-121897941D01*
X151241462Y-122156845D01*
X151241460Y-122156853D01*
X151206599Y-122324614D01*
X151195135Y-122379786D01*
X151185557Y-122425877D01*
X151185556Y-122425883D01*
X151166807Y-122699995D01*
X151166807Y-122700004D01*
X150113193Y-122700004D01*
X150113193Y-122700000D01*
X150094442Y-122425870D01*
X150038538Y-122156847D01*
X149946523Y-121897942D01*
X149820111Y-121653977D01*
X149661657Y-121429498D01*
X149474111Y-121228686D01*
X149260969Y-121055282D01*
X149026200Y-120912516D01*
X149026201Y-120912516D01*
X149026197Y-120912514D01*
X148774180Y-120803048D01*
X148774178Y-120803047D01*
X148774177Y-120803047D01*
X148581673Y-120749110D01*
X148509593Y-120728914D01*
X148237395Y-120691500D01*
X148237385Y-120691500D01*
X147962615Y-120691500D01*
X147962604Y-120691500D01*
X147690406Y-120728914D01*
X147425819Y-120803048D01*
X147173802Y-120912514D01*
X146939028Y-121055284D01*
X146725886Y-121228688D01*
X146538343Y-121429498D01*
X146379892Y-121653971D01*
X146253477Y-121897941D01*
X146161462Y-122156845D01*
X146161460Y-122156853D01*
X146126599Y-122324614D01*
X146115135Y-122379786D01*
X146105557Y-122425877D01*
X146105556Y-122425883D01*
X146086807Y-122699995D01*
X146086807Y-122700004D01*
X145028500Y-122700004D01*
X145028500Y-121151362D01*
X145028499Y-121151350D01*
X145021990Y-121090803D01*
X145021988Y-121090795D01*
X144970889Y-120953797D01*
X144970887Y-120953792D01*
X144883261Y-120836738D01*
X144766207Y-120749112D01*
X144766202Y-120749110D01*
X144629204Y-120698011D01*
X144629196Y-120698009D01*
X144568649Y-120691500D01*
X144568638Y-120691500D01*
X141471362Y-120691500D01*
X141471350Y-120691500D01*
X141410803Y-120698009D01*
X141410795Y-120698011D01*
X141273797Y-120749110D01*
X141273792Y-120749112D01*
X141156738Y-120836738D01*
X141069112Y-120953792D01*
X141069110Y-120953797D01*
X141018011Y-121090795D01*
X141018009Y-121090803D01*
X141011500Y-121151350D01*
X141011500Y-124248649D01*
X133127848Y-124248649D01*
X133141936Y-124230289D01*
X133263224Y-124020212D01*
X133356054Y-123796100D01*
X133418838Y-123561789D01*
X133450500Y-123321288D01*
X133450500Y-123078712D01*
X133418838Y-122838211D01*
X133356054Y-122603900D01*
X133263224Y-122379788D01*
X133263218Y-122379779D01*
X133263217Y-122379775D01*
X133141938Y-122169714D01*
X133141936Y-122169711D01*
X132994265Y-121977262D01*
X132994259Y-121977256D01*
X132994255Y-121977251D01*
X132822748Y-121805744D01*
X132822742Y-121805739D01*
X132822738Y-121805735D01*
X132630289Y-121658064D01*
X132630288Y-121658063D01*
X132630285Y-121658061D01*
X132420224Y-121536782D01*
X132420216Y-121536778D01*
X132420212Y-121536776D01*
X132196100Y-121443946D01*
X132196097Y-121443945D01*
X132196095Y-121443944D01*
X131961782Y-121381160D01*
X131721290Y-121349500D01*
X131721288Y-121349500D01*
X131478712Y-121349500D01*
X131478709Y-121349500D01*
X131238217Y-121381160D01*
X131003904Y-121443944D01*
X131003900Y-121443946D01*
X130779786Y-121536777D01*
X130779775Y-121536782D01*
X130569714Y-121658061D01*
X130377262Y-121805735D01*
X130377251Y-121805744D01*
X130205744Y-121977251D01*
X130205735Y-121977262D01*
X130058061Y-122169714D01*
X129936782Y-122379775D01*
X129936777Y-122379786D01*
X129843946Y-122603900D01*
X129843944Y-122603904D01*
X129781160Y-122838217D01*
X129749500Y-123078709D01*
X129749500Y-123321290D01*
X128599271Y-123321290D01*
X128541565Y-111799331D01*
X132791500Y-111799331D01*
X132808213Y-111883350D01*
X132830256Y-111994169D01*
X132906279Y-112177704D01*
X133016647Y-112342881D01*
X133157119Y-112483353D01*
X133322296Y-112593721D01*
X133439145Y-112642121D01*
X133484565Y-112674222D01*
X133488745Y-112678864D01*
X133488747Y-112678866D01*
X133643248Y-112791118D01*
X133817712Y-112868794D01*
X134004513Y-112908500D01*
X134195487Y-112908500D01*
X134382288Y-112868794D01*
X134556752Y-112791118D01*
X134711253Y-112678866D01*
X134711255Y-112678864D01*
X134839034Y-112536951D01*
X134839035Y-112536949D01*
X134839040Y-112536944D01*
X134934527Y-112371556D01*
X134990269Y-112200000D01*
X143986496Y-112200000D01*
X144006457Y-112389927D01*
X144036526Y-112482470D01*
X144065473Y-112571556D01*
X144065476Y-112571561D01*
X144160958Y-112736941D01*
X144160965Y-112736951D01*
X144288744Y-112878864D01*
X144346924Y-112921134D01*
X144443248Y-112991118D01*
X144617712Y-113068794D01*
X144804513Y-113108500D01*
X144995487Y-113108500D01*
X145182288Y-113068794D01*
X145182290Y-113068792D01*
X145188563Y-113066755D01*
X145188971Y-113068011D01*
X145252283Y-113059512D01*
X145316585Y-113089608D01*
X145322280Y-113094961D01*
X145979874Y-113752555D01*
X146010612Y-113802713D01*
X146065473Y-113971556D01*
X146065476Y-113971561D01*
X146160958Y-114136941D01*
X146160965Y-114136951D01*
X146288744Y-114278864D01*
X146288747Y-114278866D01*
X146443248Y-114391118D01*
X146617712Y-114468794D01*
X146804513Y-114508500D01*
X146995487Y-114508500D01*
X147182288Y-114468794D01*
X147356752Y-114391118D01*
X147368524Y-114382564D01*
X147435391Y-114358706D01*
X147442587Y-114358500D01*
X149257413Y-114358500D01*
X149325534Y-114378502D01*
X149331471Y-114382562D01*
X149343248Y-114391118D01*
X149517712Y-114468794D01*
X149704513Y-114508500D01*
X149895487Y-114508500D01*
X150082288Y-114468794D01*
X150256752Y-114391118D01*
X150411253Y-114278866D01*
X150539040Y-114136944D01*
X150634527Y-113971556D01*
X150693542Y-113789928D01*
X150713504Y-113600000D01*
X150693542Y-113410072D01*
X150634527Y-113228444D01*
X150539040Y-113063056D01*
X150539038Y-113063054D01*
X150539034Y-113063048D01*
X150411255Y-112921135D01*
X150256752Y-112808882D01*
X150082288Y-112731206D01*
X149895487Y-112691500D01*
X149704513Y-112691500D01*
X149517711Y-112731206D01*
X149343245Y-112808883D01*
X149331476Y-112817435D01*
X149264609Y-112841294D01*
X149257413Y-112841500D01*
X147442587Y-112841500D01*
X147374466Y-112821498D01*
X147368524Y-112817435D01*
X147356754Y-112808883D01*
X147182288Y-112731206D01*
X147119227Y-112717801D01*
X147056754Y-112684072D01*
X147056331Y-112683650D01*
X145983519Y-111610838D01*
X145983515Y-111610834D01*
X145859284Y-111527826D01*
X145721247Y-111470649D01*
X145647976Y-111456074D01*
X145647975Y-111456073D01*
X145574711Y-111441500D01*
X145574706Y-111441500D01*
X145442587Y-111441500D01*
X145374466Y-111421498D01*
X145368524Y-111417435D01*
X145356754Y-111408883D01*
X145182288Y-111331206D01*
X144995487Y-111291500D01*
X144804513Y-111291500D01*
X144617711Y-111331206D01*
X144443247Y-111408882D01*
X144288744Y-111521135D01*
X144160965Y-111663048D01*
X144160958Y-111663058D01*
X144065476Y-111828438D01*
X144065473Y-111828445D01*
X144006457Y-112010072D01*
X143986496Y-112200000D01*
X134990269Y-112200000D01*
X134993542Y-112189928D01*
X135013504Y-112000000D01*
X134993542Y-111810072D01*
X134934527Y-111628444D01*
X134870869Y-111518185D01*
X134839042Y-111463059D01*
X134835158Y-111457713D01*
X134836763Y-111456546D01*
X134810144Y-111401055D01*
X134808500Y-111380770D01*
X134808500Y-97855000D01*
X136261844Y-97855000D01*
X136279084Y-98063058D01*
X136280437Y-98079375D01*
X136335702Y-98297612D01*
X136335703Y-98297613D01*
X136335704Y-98297616D01*
X136390043Y-98421498D01*
X136426141Y-98503793D01*
X136549275Y-98692265D01*
X136549279Y-98692270D01*
X136701762Y-98857908D01*
X136707495Y-98862370D01*
X136879424Y-98996189D01*
X137077426Y-99103342D01*
X137077427Y-99103342D01*
X137077428Y-99103343D01*
X137175305Y-99136944D01*
X137290365Y-99176444D01*
X137512431Y-99213500D01*
X137512435Y-99213500D01*
X137737565Y-99213500D01*
X137737569Y-99213500D01*
X137959635Y-99176444D01*
X138172574Y-99103342D01*
X138370576Y-98996189D01*
X138548240Y-98857906D01*
X138700722Y-98692268D01*
X138789518Y-98556354D01*
X138843520Y-98510268D01*
X138913868Y-98500692D01*
X138978225Y-98530669D01*
X139000480Y-98556353D01*
X139025086Y-98594014D01*
X139089275Y-98692265D01*
X139089279Y-98692270D01*
X139241762Y-98857908D01*
X139247495Y-98862370D01*
X139419424Y-98996189D01*
X139617426Y-99103342D01*
X139617427Y-99103342D01*
X139617428Y-99103343D01*
X139715305Y-99136944D01*
X139830365Y-99176444D01*
X140052431Y-99213500D01*
X140052435Y-99213500D01*
X140277564Y-99213500D01*
X140277569Y-99213500D01*
X140469003Y-99181555D01*
X140539483Y-99190072D01*
X140594173Y-99235344D01*
X140615706Y-99302996D01*
X140597245Y-99371551D01*
X140578834Y-99394931D01*
X140357119Y-99616647D01*
X140216649Y-99757116D01*
X140216644Y-99757123D01*
X140106279Y-99922296D01*
X140030258Y-100105825D01*
X140030256Y-100105830D01*
X139991500Y-100300668D01*
X139991500Y-100300671D01*
X139991500Y-111199329D01*
X140030256Y-111394169D01*
X140106279Y-111577704D01*
X140216647Y-111742881D01*
X140357119Y-111883353D01*
X140522296Y-111993721D01*
X140705831Y-112069744D01*
X140900671Y-112108500D01*
X140900672Y-112108500D01*
X141099328Y-112108500D01*
X141099329Y-112108500D01*
X141294169Y-112069744D01*
X141477704Y-111993721D01*
X141642881Y-111883353D01*
X141783353Y-111742881D01*
X141893721Y-111577704D01*
X141969744Y-111394169D01*
X142008500Y-111199329D01*
X142008500Y-100869924D01*
X142028502Y-100801803D01*
X142045405Y-100780829D01*
X142725717Y-100100517D01*
X142788029Y-100066491D01*
X142858844Y-100071556D01*
X142915680Y-100114103D01*
X142940491Y-100180623D01*
X142940812Y-100189612D01*
X142940812Y-101225206D01*
X142951600Y-101279442D01*
X142969961Y-101371747D01*
X143027138Y-101509784D01*
X143110146Y-101634015D01*
X143110150Y-101634019D01*
X143129374Y-101653243D01*
X143160112Y-101703401D01*
X143214973Y-101872244D01*
X143214976Y-101872249D01*
X143310458Y-102037629D01*
X143310465Y-102037639D01*
X143438244Y-102179552D01*
X143438247Y-102179554D01*
X143592748Y-102291806D01*
X143767212Y-102369482D01*
X143954013Y-102409188D01*
X144144987Y-102409188D01*
X144331788Y-102369482D01*
X144506252Y-102291806D01*
X144660753Y-102179554D01*
X144660755Y-102179552D01*
X144788534Y-102037639D01*
X144788535Y-102037637D01*
X144788540Y-102037632D01*
X144884027Y-101872244D01*
X144943042Y-101690616D01*
X144963004Y-101500688D01*
X144943042Y-101310760D01*
X144884027Y-101129132D01*
X144788540Y-100963744D01*
X144788538Y-100963742D01*
X144788534Y-100963736D01*
X144660755Y-100821823D01*
X144509751Y-100712112D01*
X144466397Y-100655890D01*
X144457812Y-100610176D01*
X144457812Y-99936311D01*
X144474692Y-99873312D01*
X144533839Y-99770868D01*
X144592854Y-99589240D01*
X144612816Y-99399312D01*
X144592854Y-99209384D01*
X144533839Y-99027756D01*
X144438352Y-98862368D01*
X144438350Y-98862366D01*
X144438346Y-98862360D01*
X144310567Y-98720447D01*
X144305660Y-98716029D01*
X144306642Y-98714938D01*
X144267952Y-98664751D01*
X144261884Y-98594014D01*
X144295024Y-98531226D01*
X144296203Y-98530030D01*
X145657187Y-97169046D01*
X145719497Y-97135022D01*
X145790312Y-97140087D01*
X145847148Y-97182634D01*
X145871959Y-97249154D01*
X145869859Y-97282725D01*
X145841500Y-97425290D01*
X145841500Y-100645951D01*
X145821498Y-100714072D01*
X145789562Y-100747887D01*
X145688742Y-100821137D01*
X145560965Y-100963048D01*
X145560958Y-100963058D01*
X145505276Y-101059503D01*
X145465473Y-101128444D01*
X145465249Y-101129133D01*
X145406457Y-101310072D01*
X145386496Y-101500000D01*
X145406457Y-101689927D01*
X145412938Y-101709872D01*
X145465473Y-101871556D01*
X145465476Y-101871561D01*
X145560958Y-102036941D01*
X145560965Y-102036951D01*
X145688744Y-102178864D01*
X145688747Y-102178866D01*
X145843248Y-102291118D01*
X146017712Y-102368794D01*
X146204513Y-102408500D01*
X146395487Y-102408500D01*
X146582288Y-102368794D01*
X146756752Y-102291118D01*
X146875939Y-102204522D01*
X146942807Y-102180665D01*
X147011958Y-102196745D01*
X147024058Y-102204521D01*
X147143248Y-102291118D01*
X147317712Y-102368794D01*
X147504513Y-102408500D01*
X147695487Y-102408500D01*
X147882288Y-102368794D01*
X148056752Y-102291118D01*
X148075940Y-102277176D01*
X148142805Y-102253319D01*
X148211956Y-102269398D01*
X148224048Y-102277168D01*
X148243248Y-102291118D01*
X148417712Y-102368794D01*
X148604513Y-102408500D01*
X148795487Y-102408500D01*
X148982288Y-102368794D01*
X149156752Y-102291118D01*
X149168524Y-102282564D01*
X149235391Y-102258706D01*
X149242587Y-102258500D01*
X149833629Y-102258500D01*
X149901750Y-102278502D01*
X149922724Y-102295405D01*
X150804595Y-103177276D01*
X150838621Y-103239588D01*
X150841500Y-103266371D01*
X150841500Y-108599320D01*
X150847020Y-108627071D01*
X150870649Y-108745861D01*
X150927826Y-108883898D01*
X151010834Y-109008129D01*
X151010837Y-109008132D01*
X151010838Y-109008133D01*
X153681810Y-111679104D01*
X153681820Y-111679115D01*
X153686220Y-111683515D01*
X153686221Y-111683516D01*
X153791870Y-111789165D01*
X153916102Y-111872174D01*
X153996962Y-111905667D01*
X154054139Y-111929351D01*
X154095640Y-111937606D01*
X154200680Y-111958500D01*
X154200681Y-111958500D01*
X154350091Y-111958500D01*
X155471941Y-111958500D01*
X155540062Y-111978502D01*
X155586555Y-112032158D01*
X155597251Y-112097670D01*
X155586496Y-112199999D01*
X155606457Y-112389927D01*
X155636526Y-112482470D01*
X155665473Y-112571556D01*
X155665476Y-112571561D01*
X155760958Y-112736941D01*
X155760965Y-112736951D01*
X155888744Y-112878864D01*
X155946924Y-112921134D01*
X156043248Y-112991118D01*
X156217712Y-113068794D01*
X156404513Y-113108500D01*
X156595487Y-113108500D01*
X156782288Y-113068794D01*
X156956752Y-112991118D01*
X156968524Y-112982564D01*
X157035391Y-112958706D01*
X157042587Y-112958500D01*
X157674701Y-112958500D01*
X157674705Y-112958500D01*
X157674706Y-112958500D01*
X157747976Y-112943925D01*
X157821247Y-112929351D01*
X157959284Y-112872174D01*
X158083515Y-112789166D01*
X161942276Y-108930405D01*
X162004588Y-108896379D01*
X162031371Y-108893500D01*
X165004628Y-108893500D01*
X165072749Y-108913502D01*
X165110110Y-108950583D01*
X165124278Y-108972268D01*
X165276760Y-109137906D01*
X165276762Y-109137908D01*
X165331331Y-109180381D01*
X165454424Y-109276189D01*
X165652426Y-109383342D01*
X165652427Y-109383342D01*
X165652428Y-109383343D01*
X165764227Y-109421723D01*
X165865365Y-109456444D01*
X166087431Y-109493500D01*
X166087435Y-109493500D01*
X166312565Y-109493500D01*
X166312569Y-109493500D01*
X166534635Y-109456444D01*
X166747574Y-109383342D01*
X166945576Y-109276189D01*
X167123240Y-109137906D01*
X167275722Y-108972268D01*
X167398860Y-108783791D01*
X167489296Y-108577616D01*
X167544564Y-108359368D01*
X167563156Y-108135000D01*
X167544564Y-107910632D01*
X167489296Y-107692384D01*
X167398860Y-107486209D01*
X167382006Y-107460412D01*
X167275724Y-107297734D01*
X167275720Y-107297729D01*
X167123237Y-107132091D01*
X167041382Y-107068381D01*
X166945576Y-106993811D01*
X166912319Y-106975813D01*
X166861929Y-106925802D01*
X166846576Y-106856485D01*
X166871136Y-106789872D01*
X166912320Y-106754186D01*
X166945576Y-106736189D01*
X167123240Y-106597906D01*
X167275722Y-106432268D01*
X167398860Y-106243791D01*
X167489296Y-106037616D01*
X167544564Y-105819368D01*
X167563156Y-105595000D01*
X167544564Y-105370632D01*
X167489296Y-105152384D01*
X167398860Y-104946209D01*
X167308577Y-104808020D01*
X167275724Y-104757734D01*
X167275720Y-104757729D01*
X167123237Y-104592091D01*
X167041382Y-104528381D01*
X166945576Y-104453811D01*
X166912319Y-104435813D01*
X166861929Y-104385802D01*
X166846576Y-104316485D01*
X166871136Y-104249872D01*
X166912320Y-104214186D01*
X166945576Y-104196189D01*
X167123240Y-104057906D01*
X167275722Y-103892268D01*
X167398860Y-103703791D01*
X167489296Y-103497616D01*
X167544564Y-103279368D01*
X167563156Y-103055000D01*
X167544564Y-102830632D01*
X167524658Y-102752024D01*
X167489297Y-102612387D01*
X167489296Y-102612386D01*
X167489296Y-102612384D01*
X167398860Y-102406209D01*
X167374865Y-102369482D01*
X167275724Y-102217734D01*
X167275720Y-102217729D01*
X167123237Y-102052091D01*
X167041382Y-101988381D01*
X166945576Y-101913811D01*
X166912319Y-101895813D01*
X166861929Y-101845802D01*
X166846576Y-101776485D01*
X166871136Y-101709872D01*
X166912320Y-101674186D01*
X166945576Y-101656189D01*
X167123240Y-101517906D01*
X167275722Y-101352268D01*
X167398860Y-101163791D01*
X167489296Y-100957616D01*
X167544564Y-100739368D01*
X167563156Y-100515000D01*
X167544564Y-100290632D01*
X167544386Y-100289928D01*
X167489297Y-100072387D01*
X167489296Y-100072386D01*
X167489296Y-100072384D01*
X167398860Y-99866209D01*
X167392140Y-99855924D01*
X167275724Y-99677734D01*
X167275720Y-99677729D01*
X167127282Y-99516485D01*
X167123240Y-99512094D01*
X167123239Y-99512093D01*
X167123237Y-99512091D01*
X166978339Y-99399312D01*
X166945576Y-99373811D01*
X166912319Y-99355813D01*
X166861929Y-99305802D01*
X166846576Y-99236485D01*
X166871136Y-99169872D01*
X166912320Y-99134186D01*
X166945576Y-99116189D01*
X167123240Y-98977906D01*
X167275722Y-98812268D01*
X167398860Y-98623791D01*
X167489296Y-98417616D01*
X167544564Y-98199368D01*
X167563156Y-97975000D01*
X167544564Y-97750632D01*
X167489296Y-97532384D01*
X167398860Y-97326209D01*
X167322484Y-97209306D01*
X167275724Y-97137734D01*
X167275720Y-97137729D01*
X167123237Y-96972091D01*
X167041382Y-96908381D01*
X166945576Y-96833811D01*
X166912319Y-96815813D01*
X166861929Y-96765802D01*
X166846576Y-96696485D01*
X166871136Y-96629872D01*
X166912320Y-96594186D01*
X166913558Y-96593516D01*
X166945576Y-96576189D01*
X167123240Y-96437906D01*
X167275722Y-96272268D01*
X167398860Y-96083791D01*
X167489296Y-95877616D01*
X167544564Y-95659368D01*
X167563156Y-95435000D01*
X167544564Y-95210632D01*
X167489296Y-94992384D01*
X167398860Y-94786209D01*
X167322484Y-94669306D01*
X167275724Y-94597734D01*
X167275720Y-94597729D01*
X167146416Y-94457270D01*
X167123240Y-94432094D01*
X167123239Y-94432093D01*
X167123237Y-94432091D01*
X167041382Y-94368381D01*
X166945576Y-94293811D01*
X166912319Y-94275813D01*
X166861929Y-94225802D01*
X166846576Y-94156485D01*
X166871136Y-94089872D01*
X166912320Y-94054186D01*
X166913558Y-94053516D01*
X166945576Y-94036189D01*
X167123240Y-93897906D01*
X167275722Y-93732268D01*
X167398860Y-93543791D01*
X167489296Y-93337616D01*
X167544564Y-93119368D01*
X167563156Y-92895000D01*
X167544564Y-92670632D01*
X167489296Y-92452384D01*
X167398860Y-92246209D01*
X167327184Y-92136500D01*
X167275724Y-92057734D01*
X167275720Y-92057729D01*
X167146416Y-91917270D01*
X167123240Y-91892094D01*
X167123239Y-91892093D01*
X167123237Y-91892091D01*
X167017859Y-91810072D01*
X166945576Y-91753811D01*
X166747574Y-91646658D01*
X166747572Y-91646657D01*
X166747571Y-91646656D01*
X166534639Y-91573557D01*
X166534630Y-91573555D01*
X166463813Y-91561738D01*
X166312569Y-91536500D01*
X166087431Y-91536500D01*
X165939211Y-91561233D01*
X165865369Y-91573555D01*
X165865360Y-91573557D01*
X165652428Y-91646656D01*
X165652426Y-91646658D01*
X165454426Y-91753810D01*
X165454424Y-91753811D01*
X165276762Y-91892091D01*
X165124277Y-92057733D01*
X165110110Y-92079417D01*
X165056105Y-92125505D01*
X165004628Y-92136500D01*
X164640371Y-92136500D01*
X164572250Y-92116498D01*
X164525757Y-92062842D01*
X164515653Y-91992568D01*
X164545147Y-91927988D01*
X164551276Y-91921405D01*
X165669097Y-90803584D01*
X166789166Y-89683515D01*
X166872174Y-89559284D01*
X166929351Y-89421247D01*
X166948823Y-89323353D01*
X166958500Y-89274706D01*
X166958500Y-88247726D01*
X166978502Y-88179605D01*
X167007106Y-88148297D01*
X167123240Y-88057906D01*
X167275722Y-87892268D01*
X167398860Y-87703791D01*
X167489296Y-87497616D01*
X167544564Y-87279368D01*
X167563156Y-87055000D01*
X167544564Y-86830632D01*
X167489296Y-86612384D01*
X167398860Y-86406209D01*
X167392140Y-86395924D01*
X167275724Y-86217734D01*
X167275720Y-86217729D01*
X167123237Y-86052091D01*
X167041382Y-85988381D01*
X166945576Y-85913811D01*
X166912319Y-85895813D01*
X166861929Y-85845802D01*
X166846576Y-85776485D01*
X166871136Y-85709872D01*
X166912320Y-85674186D01*
X166945576Y-85656189D01*
X167123240Y-85517906D01*
X167275722Y-85352268D01*
X167398860Y-85163791D01*
X167489296Y-84957616D01*
X167544564Y-84739368D01*
X167563156Y-84515000D01*
X167544564Y-84290632D01*
X167489296Y-84072384D01*
X167398860Y-83866209D01*
X167392140Y-83855924D01*
X167275724Y-83677734D01*
X167275720Y-83677729D01*
X167123237Y-83512091D01*
X167041382Y-83448381D01*
X166945576Y-83373811D01*
X166747574Y-83266658D01*
X166747572Y-83266657D01*
X166747571Y-83266656D01*
X166534639Y-83193557D01*
X166534630Y-83193555D01*
X166490476Y-83186187D01*
X166312569Y-83156500D01*
X166087431Y-83156500D01*
X165939211Y-83181233D01*
X165865369Y-83193555D01*
X165865360Y-83193557D01*
X165652428Y-83266656D01*
X165652426Y-83266658D01*
X165454426Y-83373810D01*
X165454424Y-83373811D01*
X165276762Y-83512091D01*
X165124279Y-83677729D01*
X165124275Y-83677734D01*
X165001141Y-83866206D01*
X164910703Y-84072386D01*
X164910702Y-84072387D01*
X164855437Y-84290624D01*
X164855436Y-84290630D01*
X164855436Y-84290632D01*
X164836844Y-84515000D01*
X164855436Y-84739368D01*
X164855436Y-84739371D01*
X164855780Y-84743512D01*
X164841471Y-84813052D01*
X164819305Y-84843012D01*
X161610840Y-88051477D01*
X161610835Y-88051483D01*
X161527826Y-88175715D01*
X161474963Y-88303340D01*
X161474962Y-88303342D01*
X161470650Y-88313750D01*
X161470649Y-88313754D01*
X161441500Y-88460290D01*
X161441500Y-90733627D01*
X161421498Y-90801748D01*
X161404595Y-90822723D01*
X160792256Y-91435061D01*
X160729944Y-91469086D01*
X160659128Y-91464021D01*
X160609525Y-91430275D01*
X160511255Y-91321135D01*
X160356752Y-91208882D01*
X160182288Y-91131206D01*
X159995487Y-91091500D01*
X159804513Y-91091500D01*
X159617711Y-91131206D01*
X159443247Y-91208882D01*
X159288744Y-91321135D01*
X159160965Y-91463048D01*
X159160958Y-91463058D01*
X159109119Y-91552847D01*
X159057736Y-91601840D01*
X158988023Y-91615276D01*
X158922112Y-91588890D01*
X158890881Y-91552847D01*
X158845423Y-91474112D01*
X158839040Y-91463056D01*
X158839038Y-91463054D01*
X158839034Y-91463048D01*
X158711255Y-91321135D01*
X158556752Y-91208882D01*
X158382288Y-91131206D01*
X158195487Y-91091500D01*
X158004513Y-91091500D01*
X157817711Y-91131206D01*
X157643245Y-91208883D01*
X157631476Y-91217435D01*
X157564609Y-91241294D01*
X157557413Y-91241500D01*
X157325288Y-91241500D01*
X157252024Y-91256073D01*
X157252024Y-91256074D01*
X157178753Y-91270649D01*
X157178751Y-91270649D01*
X157178750Y-91270650D01*
X157128417Y-91291499D01*
X157040719Y-91327825D01*
X157040714Y-91327827D01*
X156916483Y-91410835D01*
X156916482Y-91410836D01*
X156774190Y-91553127D01*
X156711877Y-91587152D01*
X156641062Y-91582086D01*
X156584226Y-91539539D01*
X156575976Y-91527031D01*
X156575761Y-91526658D01*
X156539040Y-91463056D01*
X156539038Y-91463054D01*
X156539034Y-91463048D01*
X156411255Y-91321135D01*
X156256752Y-91208882D01*
X156082288Y-91131206D01*
X155895487Y-91091500D01*
X155704513Y-91091500D01*
X155517711Y-91131206D01*
X155343245Y-91208883D01*
X155331476Y-91217435D01*
X155264609Y-91241294D01*
X155257413Y-91241500D01*
X155000674Y-91241500D01*
X154927410Y-91256073D01*
X154927410Y-91256074D01*
X154890774Y-91263361D01*
X154854138Y-91270649D01*
X154854134Y-91270650D01*
X154803799Y-91291499D01*
X154803800Y-91291500D01*
X154716102Y-91327825D01*
X154705783Y-91334721D01*
X154705775Y-91334725D01*
X154614442Y-91395753D01*
X154591870Y-91410835D01*
X154591868Y-91410836D01*
X154591865Y-91410839D01*
X147573595Y-98429110D01*
X147511283Y-98463136D01*
X147440468Y-98458071D01*
X147383632Y-98415524D01*
X147358821Y-98349004D01*
X147358500Y-98340015D01*
X147358500Y-97866370D01*
X147378502Y-97798249D01*
X147395400Y-97777280D01*
X152256332Y-92916347D01*
X152318642Y-92882323D01*
X152318999Y-92882246D01*
X152382288Y-92868794D01*
X152556752Y-92791118D01*
X152711253Y-92678866D01*
X152766873Y-92617094D01*
X152839034Y-92536951D01*
X152839035Y-92536949D01*
X152839040Y-92536944D01*
X152934527Y-92371556D01*
X152993542Y-92189928D01*
X153013504Y-92000000D01*
X152993542Y-91810072D01*
X152934527Y-91628444D01*
X152839040Y-91463056D01*
X152839038Y-91463054D01*
X152839034Y-91463048D01*
X152711255Y-91321135D01*
X152556752Y-91208882D01*
X152382288Y-91131206D01*
X152195487Y-91091500D01*
X152004513Y-91091500D01*
X151817707Y-91131206D01*
X151795022Y-91141307D01*
X151724655Y-91150741D01*
X151660359Y-91120634D01*
X151622546Y-91060544D01*
X151620196Y-91001621D01*
X151648500Y-90859329D01*
X151648500Y-90660671D01*
X151648500Y-72934500D01*
X151668502Y-72866379D01*
X151722158Y-72819886D01*
X151774500Y-72808500D01*
X152188632Y-72808500D01*
X152188638Y-72808500D01*
X152188645Y-72808499D01*
X152188649Y-72808499D01*
X152249196Y-72801990D01*
X152249199Y-72801989D01*
X152249201Y-72801989D01*
X152386204Y-72750889D01*
X152503261Y-72663261D01*
X152590887Y-72546207D01*
X152590887Y-72546206D01*
X152590889Y-72546204D01*
X152641989Y-72409201D01*
X152648500Y-72348638D01*
X152648500Y-70321290D01*
X162749500Y-70321290D01*
X162781160Y-70561782D01*
X162843944Y-70796095D01*
X162843945Y-70796097D01*
X162843946Y-70796100D01*
X162936776Y-71020212D01*
X162936777Y-71020213D01*
X162936782Y-71020224D01*
X163058061Y-71230285D01*
X163058063Y-71230288D01*
X163058064Y-71230289D01*
X163205735Y-71422738D01*
X163205739Y-71422742D01*
X163205744Y-71422748D01*
X163377251Y-71594255D01*
X163377256Y-71594259D01*
X163377262Y-71594265D01*
X163569711Y-71741936D01*
X163569714Y-71741938D01*
X163779775Y-71863217D01*
X163779779Y-71863218D01*
X163779788Y-71863224D01*
X164003900Y-71956054D01*
X164238211Y-72018838D01*
X164238215Y-72018838D01*
X164238217Y-72018839D01*
X164300202Y-72026999D01*
X164478712Y-72050500D01*
X164478719Y-72050500D01*
X164721281Y-72050500D01*
X164721288Y-72050500D01*
X164938637Y-72021885D01*
X164961782Y-72018839D01*
X164961782Y-72018838D01*
X164961789Y-72018838D01*
X165196100Y-71956054D01*
X165420212Y-71863224D01*
X165630289Y-71741936D01*
X165822738Y-71594265D01*
X165994265Y-71422738D01*
X166141936Y-71230289D01*
X166263224Y-71020212D01*
X166356054Y-70796100D01*
X166418838Y-70561789D01*
X166450500Y-70321288D01*
X166450500Y-70078712D01*
X166418838Y-69838211D01*
X166356054Y-69603900D01*
X166263224Y-69379788D01*
X166263218Y-69379779D01*
X166263217Y-69379775D01*
X166141938Y-69169714D01*
X166141936Y-69169711D01*
X165994265Y-68977262D01*
X165994259Y-68977256D01*
X165994255Y-68977251D01*
X165822748Y-68805744D01*
X165822742Y-68805739D01*
X165822738Y-68805735D01*
X165630289Y-68658064D01*
X165630288Y-68658063D01*
X165630285Y-68658061D01*
X165420224Y-68536782D01*
X165420216Y-68536778D01*
X165420212Y-68536776D01*
X165196100Y-68443946D01*
X165196097Y-68443945D01*
X165196095Y-68443944D01*
X164961782Y-68381160D01*
X164721290Y-68349500D01*
X164721288Y-68349500D01*
X164478712Y-68349500D01*
X164478709Y-68349500D01*
X164238217Y-68381160D01*
X164003904Y-68443944D01*
X164003900Y-68443946D01*
X163779786Y-68536777D01*
X163779775Y-68536782D01*
X163569714Y-68658061D01*
X163377262Y-68805735D01*
X163377251Y-68805744D01*
X163205744Y-68977251D01*
X163205735Y-68977262D01*
X163058061Y-69169714D01*
X162936782Y-69379775D01*
X162936777Y-69379786D01*
X162843946Y-69603900D01*
X162843944Y-69603904D01*
X162781160Y-69838217D01*
X162749500Y-70078709D01*
X162749500Y-70321290D01*
X152648500Y-70321290D01*
X152648500Y-69251362D01*
X152648499Y-69251350D01*
X152641990Y-69190803D01*
X152641988Y-69190795D01*
X152590889Y-69053797D01*
X152590887Y-69053792D01*
X152503261Y-68936738D01*
X152386207Y-68849112D01*
X152386202Y-68849110D01*
X152249204Y-68798011D01*
X152249196Y-68798009D01*
X152188649Y-68791500D01*
X152188638Y-68791500D01*
X149091362Y-68791500D01*
X149091350Y-68791500D01*
X149030803Y-68798009D01*
X149030795Y-68798011D01*
X148893797Y-68849110D01*
X148893792Y-68849112D01*
X148776738Y-68936738D01*
X148689112Y-69053792D01*
X148689110Y-69053797D01*
X148638011Y-69190795D01*
X148638009Y-69190803D01*
X148631500Y-69251350D01*
X148631500Y-72348649D01*
X148638009Y-72409196D01*
X148638011Y-72409204D01*
X148689110Y-72546202D01*
X148689112Y-72546207D01*
X148776738Y-72663261D01*
X148893792Y-72750887D01*
X148893794Y-72750888D01*
X148893796Y-72750889D01*
X148947943Y-72771085D01*
X149030795Y-72801988D01*
X149030803Y-72801990D01*
X149091350Y-72808499D01*
X149091355Y-72808499D01*
X149091362Y-72808500D01*
X149505500Y-72808500D01*
X149573621Y-72828502D01*
X149620114Y-72882158D01*
X149631500Y-72934500D01*
X149631500Y-90290075D01*
X149611498Y-90358196D01*
X149594595Y-90379170D01*
X141702638Y-98271127D01*
X141640326Y-98305153D01*
X141569511Y-98300088D01*
X141512675Y-98257541D01*
X141487864Y-98191021D01*
X141491399Y-98151100D01*
X141492391Y-98147181D01*
X141509564Y-98079368D01*
X141528156Y-97855000D01*
X141509564Y-97630632D01*
X141454296Y-97412384D01*
X141363860Y-97206209D01*
X141348458Y-97182634D01*
X141240724Y-97017734D01*
X141240720Y-97017729D01*
X141088237Y-96852091D01*
X140977373Y-96765802D01*
X140910576Y-96713811D01*
X140877319Y-96695813D01*
X140826929Y-96645802D01*
X140811576Y-96576485D01*
X140836136Y-96509872D01*
X140877320Y-96474186D01*
X140910576Y-96456189D01*
X141088240Y-96317906D01*
X141240722Y-96152268D01*
X141363860Y-95963791D01*
X141454296Y-95757616D01*
X141509564Y-95539368D01*
X141528156Y-95315000D01*
X141509564Y-95090632D01*
X141481168Y-94978500D01*
X141454297Y-94872387D01*
X141454296Y-94872386D01*
X141454296Y-94872384D01*
X141363860Y-94666209D01*
X141357140Y-94655924D01*
X141240724Y-94477734D01*
X141240720Y-94477729D01*
X141088237Y-94312091D01*
X140977373Y-94225802D01*
X140910576Y-94173811D01*
X140877319Y-94155813D01*
X140826929Y-94105802D01*
X140811576Y-94036485D01*
X140836136Y-93969872D01*
X140877320Y-93934186D01*
X140910576Y-93916189D01*
X141088240Y-93777906D01*
X141240722Y-93612268D01*
X141363860Y-93423791D01*
X141454296Y-93217616D01*
X141509564Y-92999368D01*
X141528156Y-92775000D01*
X141509564Y-92550632D01*
X141509562Y-92550624D01*
X141454297Y-92332387D01*
X141454296Y-92332386D01*
X141454296Y-92332384D01*
X141363860Y-92126209D01*
X141333289Y-92079417D01*
X141240724Y-91937734D01*
X141240720Y-91937729D01*
X141088237Y-91772091D01*
X140968367Y-91678792D01*
X140910576Y-91633811D01*
X140712574Y-91526658D01*
X140712572Y-91526657D01*
X140712571Y-91526656D01*
X140499639Y-91453557D01*
X140499630Y-91453555D01*
X140455476Y-91446187D01*
X140277569Y-91416500D01*
X140052431Y-91416500D01*
X139904211Y-91441233D01*
X139830369Y-91453555D01*
X139830360Y-91453557D01*
X139617428Y-91526656D01*
X139617426Y-91526658D01*
X139429342Y-91628444D01*
X139419426Y-91633810D01*
X139419424Y-91633811D01*
X139241762Y-91772091D01*
X139180754Y-91838363D01*
X139119901Y-91874933D01*
X139048936Y-91872798D01*
X138990391Y-91832636D01*
X138969999Y-91797057D01*
X138925889Y-91678797D01*
X138925887Y-91678792D01*
X138838261Y-91561738D01*
X138721207Y-91474112D01*
X138721202Y-91474110D01*
X138584204Y-91423011D01*
X138584196Y-91423009D01*
X138523649Y-91416500D01*
X138523638Y-91416500D01*
X136726362Y-91416500D01*
X136726350Y-91416500D01*
X136665803Y-91423009D01*
X136665795Y-91423011D01*
X136528797Y-91474110D01*
X136528792Y-91474112D01*
X136411738Y-91561738D01*
X136324112Y-91678792D01*
X136324110Y-91678797D01*
X136273011Y-91815795D01*
X136273009Y-91815803D01*
X136266500Y-91876350D01*
X136266500Y-93673649D01*
X136273009Y-93734196D01*
X136273011Y-93734204D01*
X136324110Y-93871202D01*
X136324112Y-93871207D01*
X136411738Y-93988261D01*
X136528791Y-94075886D01*
X136528792Y-94075886D01*
X136528796Y-94075889D01*
X136643810Y-94118787D01*
X136700642Y-94161332D01*
X136725453Y-94227852D01*
X136710362Y-94297226D01*
X136692475Y-94322179D01*
X136549280Y-94477729D01*
X136549275Y-94477734D01*
X136426141Y-94666206D01*
X136335703Y-94872386D01*
X136335702Y-94872387D01*
X136280437Y-95090624D01*
X136280436Y-95090630D01*
X136280436Y-95090632D01*
X136261844Y-95315000D01*
X136279109Y-95523357D01*
X136280437Y-95539375D01*
X136335702Y-95757612D01*
X136335703Y-95757613D01*
X136335704Y-95757616D01*
X136424781Y-95960692D01*
X136426140Y-95963791D01*
X136549275Y-96152265D01*
X136549279Y-96152270D01*
X136701762Y-96317908D01*
X136756331Y-96360381D01*
X136879424Y-96456189D01*
X136912680Y-96474186D01*
X136963071Y-96524200D01*
X136978423Y-96593516D01*
X136953862Y-96660129D01*
X136912680Y-96695813D01*
X136879426Y-96713810D01*
X136879424Y-96713811D01*
X136701762Y-96852091D01*
X136549279Y-97017729D01*
X136549275Y-97017734D01*
X136426141Y-97206206D01*
X136335703Y-97412386D01*
X136335702Y-97412387D01*
X136280437Y-97630624D01*
X136280436Y-97630630D01*
X136280436Y-97630632D01*
X136261844Y-97855000D01*
X134808500Y-97855000D01*
X134808500Y-75569924D01*
X134828502Y-75501803D01*
X134845405Y-75480829D01*
X138480829Y-71845405D01*
X138543141Y-71811379D01*
X138569924Y-71808500D01*
X143748115Y-71808500D01*
X143816236Y-71828502D01*
X143851053Y-71861839D01*
X143998343Y-72070502D01*
X144185889Y-72271314D01*
X144399031Y-72444718D01*
X144633800Y-72587484D01*
X144885823Y-72696953D01*
X145150404Y-72771085D01*
X145245504Y-72784156D01*
X145422604Y-72808499D01*
X145422615Y-72808500D01*
X145697385Y-72808500D01*
X145697395Y-72808499D01*
X145826945Y-72790692D01*
X145969596Y-72771085D01*
X146234177Y-72696953D01*
X146486200Y-72587484D01*
X146720969Y-72444718D01*
X146934111Y-72271314D01*
X147121657Y-72070502D01*
X147280111Y-71846023D01*
X147406523Y-71602058D01*
X147498538Y-71343153D01*
X147554442Y-71074130D01*
X147573193Y-70800000D01*
X147572926Y-70796100D01*
X147554443Y-70525883D01*
X147554442Y-70525877D01*
X147554442Y-70525870D01*
X147498538Y-70256847D01*
X147406523Y-69997942D01*
X147280111Y-69753977D01*
X147121657Y-69529498D01*
X146934111Y-69328686D01*
X146720969Y-69155282D01*
X146486200Y-69012516D01*
X146486201Y-69012516D01*
X146486197Y-69012514D01*
X146234180Y-68903048D01*
X146234178Y-68903047D01*
X146234177Y-68903047D01*
X146041673Y-68849110D01*
X145969593Y-68828914D01*
X145697395Y-68791500D01*
X145697385Y-68791500D01*
X145422615Y-68791500D01*
X145422604Y-68791500D01*
X145150406Y-68828914D01*
X144885819Y-68903048D01*
X144633802Y-69012514D01*
X144399028Y-69155284D01*
X144185886Y-69328688D01*
X143998340Y-69529501D01*
X143851053Y-69738161D01*
X143795429Y-69782279D01*
X143748115Y-69791500D01*
X138000668Y-69791500D01*
X137805830Y-69830256D01*
X137805825Y-69830258D01*
X137622296Y-69906279D01*
X137457123Y-70016644D01*
X137457116Y-70016649D01*
X133016649Y-74457116D01*
X133016644Y-74457123D01*
X132906279Y-74622296D01*
X132830258Y-74805825D01*
X132830256Y-74805830D01*
X132791500Y-75000668D01*
X132791500Y-111799331D01*
X128541565Y-111799331D01*
X128452696Y-94055219D01*
X128472356Y-93987001D01*
X128525778Y-93940240D01*
X128596001Y-93929784D01*
X128660729Y-93958954D01*
X128699411Y-94018487D01*
X128700838Y-94023658D01*
X128710702Y-94062612D01*
X128710704Y-94062616D01*
X128782283Y-94225802D01*
X128801141Y-94268793D01*
X128924275Y-94457265D01*
X128924279Y-94457270D01*
X129076762Y-94622908D01*
X129097860Y-94639329D01*
X129254424Y-94761189D01*
X129452426Y-94868342D01*
X129452427Y-94868342D01*
X129452428Y-94868343D01*
X129564227Y-94906723D01*
X129665365Y-94941444D01*
X129887431Y-94978500D01*
X129887435Y-94978500D01*
X130112565Y-94978500D01*
X130112569Y-94978500D01*
X130334635Y-94941444D01*
X130547574Y-94868342D01*
X130745576Y-94761189D01*
X130923240Y-94622906D01*
X131075722Y-94457268D01*
X131198860Y-94268791D01*
X131289296Y-94062616D01*
X131344564Y-93844368D01*
X131363156Y-93620000D01*
X131344564Y-93395632D01*
X131299484Y-93217616D01*
X131289297Y-93177387D01*
X131289296Y-93177386D01*
X131289296Y-93177384D01*
X131198860Y-92971209D01*
X131163018Y-92916349D01*
X131075724Y-92782734D01*
X131075720Y-92782729D01*
X130923237Y-92617091D01*
X130820264Y-92536944D01*
X130745576Y-92478811D01*
X130712319Y-92460813D01*
X130661929Y-92410802D01*
X130646576Y-92341485D01*
X130671136Y-92274872D01*
X130712320Y-92239186D01*
X130745576Y-92221189D01*
X130923240Y-92082906D01*
X131075722Y-91917268D01*
X131198860Y-91728791D01*
X131289296Y-91522616D01*
X131344564Y-91304368D01*
X131363156Y-91080000D01*
X131344564Y-90855632D01*
X131326318Y-90783580D01*
X131289297Y-90637387D01*
X131289296Y-90637386D01*
X131289296Y-90637384D01*
X131198860Y-90431209D01*
X131164861Y-90379170D01*
X131075724Y-90242734D01*
X131075720Y-90242729D01*
X130923237Y-90077091D01*
X130841382Y-90013381D01*
X130745576Y-89938811D01*
X130712319Y-89920813D01*
X130661929Y-89870802D01*
X130646576Y-89801485D01*
X130671136Y-89734872D01*
X130712320Y-89699186D01*
X130745576Y-89681189D01*
X130923240Y-89542906D01*
X131075722Y-89377268D01*
X131198860Y-89188791D01*
X131289296Y-88982616D01*
X131344564Y-88764368D01*
X131363156Y-88540000D01*
X131344564Y-88315632D01*
X131310117Y-88179605D01*
X131289297Y-88097387D01*
X131289296Y-88097386D01*
X131289296Y-88097384D01*
X131198860Y-87891209D01*
X131192140Y-87880924D01*
X131075724Y-87702734D01*
X131075720Y-87702729D01*
X130923237Y-87537091D01*
X130841382Y-87473381D01*
X130745576Y-87398811D01*
X130547574Y-87291658D01*
X130547572Y-87291657D01*
X130547571Y-87291656D01*
X130334639Y-87218557D01*
X130334630Y-87218555D01*
X130290476Y-87211187D01*
X130112569Y-87181500D01*
X129887431Y-87181500D01*
X129739211Y-87206233D01*
X129665369Y-87218555D01*
X129665360Y-87218557D01*
X129452428Y-87291656D01*
X129452426Y-87291658D01*
X129254426Y-87398810D01*
X129254424Y-87398811D01*
X129076762Y-87537091D01*
X128924279Y-87702729D01*
X128924275Y-87702734D01*
X128801141Y-87891206D01*
X128710703Y-88097385D01*
X128671620Y-88251718D01*
X128635507Y-88312844D01*
X128572080Y-88344742D01*
X128501476Y-88337285D01*
X128446112Y-88292840D01*
X128423565Y-88225519D01*
X128423478Y-88221462D01*
X128390912Y-81719050D01*
X128410572Y-81650833D01*
X128413978Y-81647851D01*
X128615231Y-81647851D01*
X128637627Y-81682319D01*
X128642480Y-81708016D01*
X128655437Y-81864375D01*
X128710702Y-82082612D01*
X128710703Y-82082613D01*
X128801141Y-82288793D01*
X128924275Y-82477265D01*
X128924279Y-82477270D01*
X129076762Y-82642908D01*
X129131331Y-82685381D01*
X129254424Y-82781189D01*
X129452426Y-82888342D01*
X129452427Y-82888342D01*
X129452428Y-82888343D01*
X129564227Y-82926723D01*
X129665365Y-82961444D01*
X129887431Y-82998500D01*
X129887435Y-82998500D01*
X130112565Y-82998500D01*
X130112569Y-82998500D01*
X130334635Y-82961444D01*
X130547574Y-82888342D01*
X130745576Y-82781189D01*
X130923240Y-82642906D01*
X131075722Y-82477268D01*
X131198860Y-82288791D01*
X131289296Y-82082616D01*
X131344564Y-81864368D01*
X131363156Y-81640000D01*
X131344564Y-81415632D01*
X131289296Y-81197384D01*
X131198860Y-80991209D01*
X131192140Y-80980924D01*
X131075724Y-80802734D01*
X131075720Y-80802729D01*
X130923237Y-80637091D01*
X130841382Y-80573381D01*
X130745576Y-80498811D01*
X130712319Y-80480813D01*
X130661929Y-80430802D01*
X130646576Y-80361485D01*
X130671136Y-80294872D01*
X130712320Y-80259186D01*
X130745576Y-80241189D01*
X130923240Y-80102906D01*
X131075722Y-79937268D01*
X131198860Y-79748791D01*
X131289296Y-79542616D01*
X131344564Y-79324368D01*
X131363156Y-79100000D01*
X131344564Y-78875632D01*
X131289296Y-78657384D01*
X131198860Y-78451209D01*
X131192140Y-78440924D01*
X131075724Y-78262734D01*
X131075720Y-78262729D01*
X130923237Y-78097091D01*
X130841382Y-78033381D01*
X130745576Y-77958811D01*
X130547574Y-77851658D01*
X130547572Y-77851657D01*
X130547571Y-77851656D01*
X130334639Y-77778557D01*
X130334630Y-77778555D01*
X130290476Y-77771187D01*
X130112569Y-77741500D01*
X129887431Y-77741500D01*
X129739211Y-77766233D01*
X129665369Y-77778555D01*
X129665360Y-77778557D01*
X129452428Y-77851656D01*
X129452426Y-77851658D01*
X129254426Y-77958810D01*
X129254424Y-77958811D01*
X129076762Y-78097091D01*
X128924279Y-78262729D01*
X128924275Y-78262734D01*
X128801141Y-78451206D01*
X128710703Y-78657386D01*
X128710702Y-78657387D01*
X128655437Y-78875624D01*
X128636844Y-79100000D01*
X128655437Y-79324375D01*
X128710702Y-79542612D01*
X128710703Y-79542613D01*
X128801141Y-79748793D01*
X128924275Y-79937265D01*
X128924279Y-79937270D01*
X129076762Y-80102908D01*
X129131331Y-80145381D01*
X129254424Y-80241189D01*
X129287680Y-80259186D01*
X129338071Y-80309200D01*
X129353423Y-80378516D01*
X129328862Y-80445129D01*
X129287680Y-80480813D01*
X129254426Y-80498810D01*
X129254424Y-80498811D01*
X129076762Y-80637091D01*
X128924279Y-80802729D01*
X128924275Y-80802734D01*
X128801141Y-80991206D01*
X128710703Y-81197386D01*
X128710702Y-81197387D01*
X128655437Y-81415624D01*
X128641739Y-81580923D01*
X128616179Y-81647159D01*
X128615231Y-81647851D01*
X128413978Y-81647851D01*
X128418333Y-81644038D01*
X128392754Y-81595910D01*
X128390171Y-81571156D01*
X128333828Y-70321290D01*
X129749500Y-70321290D01*
X129781160Y-70561782D01*
X129843944Y-70796095D01*
X129843945Y-70796097D01*
X129843946Y-70796100D01*
X129936776Y-71020212D01*
X129936777Y-71020213D01*
X129936782Y-71020224D01*
X130058061Y-71230285D01*
X130058063Y-71230288D01*
X130058064Y-71230289D01*
X130205735Y-71422738D01*
X130205739Y-71422742D01*
X130205744Y-71422748D01*
X130377251Y-71594255D01*
X130377256Y-71594259D01*
X130377262Y-71594265D01*
X130569711Y-71741936D01*
X130569714Y-71741938D01*
X130779775Y-71863217D01*
X130779779Y-71863218D01*
X130779788Y-71863224D01*
X131003900Y-71956054D01*
X131238211Y-72018838D01*
X131238215Y-72018838D01*
X131238217Y-72018839D01*
X131300202Y-72026999D01*
X131478712Y-72050500D01*
X131478719Y-72050500D01*
X131721281Y-72050500D01*
X131721288Y-72050500D01*
X131938637Y-72021885D01*
X131961782Y-72018839D01*
X131961782Y-72018838D01*
X131961789Y-72018838D01*
X132196100Y-71956054D01*
X132420212Y-71863224D01*
X132630289Y-71741936D01*
X132822738Y-71594265D01*
X132994265Y-71422738D01*
X133141936Y-71230289D01*
X133263224Y-71020212D01*
X133356054Y-70796100D01*
X133418838Y-70561789D01*
X133450500Y-70321288D01*
X133450500Y-70078712D01*
X133418838Y-69838211D01*
X133356054Y-69603900D01*
X133263224Y-69379788D01*
X133263218Y-69379779D01*
X133263217Y-69379775D01*
X133141938Y-69169714D01*
X133141936Y-69169711D01*
X132994265Y-68977262D01*
X132994259Y-68977256D01*
X132994255Y-68977251D01*
X132822748Y-68805744D01*
X132822742Y-68805739D01*
X132822738Y-68805735D01*
X132630289Y-68658064D01*
X132630288Y-68658063D01*
X132630285Y-68658061D01*
X132420224Y-68536782D01*
X132420216Y-68536778D01*
X132420212Y-68536776D01*
X132196100Y-68443946D01*
X132196097Y-68443945D01*
X132196095Y-68443944D01*
X131961782Y-68381160D01*
X131721290Y-68349500D01*
X131721288Y-68349500D01*
X131478712Y-68349500D01*
X131478709Y-68349500D01*
X131238217Y-68381160D01*
X131003904Y-68443944D01*
X131003900Y-68443946D01*
X130779786Y-68536777D01*
X130779775Y-68536782D01*
X130569714Y-68658061D01*
X130377262Y-68805735D01*
X130377251Y-68805744D01*
X130205744Y-68977251D01*
X130205735Y-68977262D01*
X130058061Y-69169714D01*
X129936782Y-69379775D01*
X129936777Y-69379786D01*
X129843946Y-69603900D01*
X129843944Y-69603904D01*
X129781160Y-69838217D01*
X129749500Y-70078709D01*
X129749500Y-70321290D01*
X128333828Y-70321290D01*
X128316326Y-66826630D01*
X128335986Y-66758411D01*
X128389408Y-66711650D01*
X128442324Y-66700000D01*
X167874420Y-66700000D01*
X167942541Y-66720002D01*
G37*
%TD.AperFunction*%
%TD*%
M02*
