M48
; DRILL file {KiCad 8.0.1} date 2024-05-23T13:33:49+0200
; FORMAT={-:-/ absolute / metric / decimal}
; #@! TF.CreationDate,2024-05-23T13:33:49+02:00
; #@! TF.GenerationSoftware,Kicad,Pcbnew,8.0.1
; #@! TF.FileFunction,Plated,1,2,PTH
FMAT,2
METRIC
; #@! TA.AperFunction,Plated,PTH,ComponentDrill
T1C0.200
; #@! TA.AperFunction,Plated,PTH,ViaDrill
T2C0.400
; #@! TA.AperFunction,Plated,PTH,ComponentDrill
T3C1.000
; #@! TA.AperFunction,Plated,PTH,ComponentDrill
T4C1.520
%
G90
G05
T1
X146.7Y-106.45
X146.7Y-107.8
X146.7Y-109.15
X147.65Y-109.15
X147.675Y-105.2
X147.675Y-106.45
X147.675Y-107.8
X147.675Y-110.4
X148.925Y-105.2
X148.925Y-106.45
X148.925Y-107.8
X148.925Y-109.15
X148.925Y-110.4
X149.9Y-106.45
X149.9Y-107.8
X149.9Y-109.15
T2
X134.1Y-112.0
X139.2Y-86.8
X139.2Y-89.3
X141.0Y-111.1
X143.699Y-99.399
X144.049Y-101.501
X144.9Y-112.2
X146.3Y-101.5
X146.9Y-113.6
X147.6Y-101.5
X148.7Y-101.5
X149.3Y-100.1
X149.8Y-113.6
X150.8Y-100.1
X152.1Y-92.0
X152.2Y-100.1
X152.3Y-93.4
X154.7Y-110.3
X155.3Y-108.2
X155.6Y-107.0
X155.7Y-103.6
X155.8Y-92.0
X156.5Y-112.2
X156.8Y-106.9
X157.8Y-97.1
X158.1Y-92.0
X158.9Y-98.6
X159.6Y-102.3
X159.9Y-92.0
X162.3Y-103.5
T3
X130.0Y-76.56
X130.0Y-79.1
X130.0Y-81.64
X130.0Y-86.0
X130.0Y-88.54
X130.0Y-91.08
X130.0Y-93.62
X137.625Y-92.775
X137.625Y-95.315
X137.625Y-97.855
X140.165Y-92.775
X140.165Y-95.315
X140.165Y-97.855
X166.2Y-81.975
X166.2Y-84.515
X166.2Y-87.055
X166.2Y-92.895
X166.2Y-95.435
X166.2Y-97.975
X166.2Y-100.515
X166.2Y-103.055
X166.2Y-105.595
X166.2Y-108.135
X166.2Y-110.675
T4
X143.02Y-122.7
X145.56Y-70.8
X148.1Y-122.7
X150.64Y-70.8
X153.18Y-122.7
M30
