%TF.GenerationSoftware,KiCad,Pcbnew,8.0.1*%
%TF.CreationDate,2024-05-23T13:33:55+02:00*%
%TF.ProjectId,focBLDCdrv,666f6342-4c44-4436-9472-762e6b696361,rev?*%
%TF.SameCoordinates,Original*%
%TF.FileFunction,Legend,Top*%
%TF.FilePolarity,Positive*%
%FSLAX46Y46*%
G04 Gerber Fmt 4.6, Leading zero omitted, Abs format (unit mm)*
G04 Created by KiCad (PCBNEW 8.0.1) date 2024-05-23 13:33:55*
%MOMM*%
%LPD*%
G01*
G04 APERTURE LIST*
%ADD10C,0.200000*%
%ADD11C,0.150000*%
%ADD12C,0.300000*%
%ADD13C,0.120000*%
%ADD14C,0.000000*%
G04 APERTURE END LIST*
D10*
X161709524Y-87704600D02*
X161852381Y-87752219D01*
X161852381Y-87752219D02*
X162090476Y-87752219D01*
X162090476Y-87752219D02*
X162185714Y-87704600D01*
X162185714Y-87704600D02*
X162233333Y-87656980D01*
X162233333Y-87656980D02*
X162280952Y-87561742D01*
X162280952Y-87561742D02*
X162280952Y-87466504D01*
X162280952Y-87466504D02*
X162233333Y-87371266D01*
X162233333Y-87371266D02*
X162185714Y-87323647D01*
X162185714Y-87323647D02*
X162090476Y-87276028D01*
X162090476Y-87276028D02*
X161900000Y-87228409D01*
X161900000Y-87228409D02*
X161804762Y-87180790D01*
X161804762Y-87180790D02*
X161757143Y-87133171D01*
X161757143Y-87133171D02*
X161709524Y-87037933D01*
X161709524Y-87037933D02*
X161709524Y-86942695D01*
X161709524Y-86942695D02*
X161757143Y-86847457D01*
X161757143Y-86847457D02*
X161804762Y-86799838D01*
X161804762Y-86799838D02*
X161900000Y-86752219D01*
X161900000Y-86752219D02*
X162138095Y-86752219D01*
X162138095Y-86752219D02*
X162280952Y-86799838D01*
X163280952Y-87656980D02*
X163233333Y-87704600D01*
X163233333Y-87704600D02*
X163090476Y-87752219D01*
X163090476Y-87752219D02*
X162995238Y-87752219D01*
X162995238Y-87752219D02*
X162852381Y-87704600D01*
X162852381Y-87704600D02*
X162757143Y-87609361D01*
X162757143Y-87609361D02*
X162709524Y-87514123D01*
X162709524Y-87514123D02*
X162661905Y-87323647D01*
X162661905Y-87323647D02*
X162661905Y-87180790D01*
X162661905Y-87180790D02*
X162709524Y-86990314D01*
X162709524Y-86990314D02*
X162757143Y-86895076D01*
X162757143Y-86895076D02*
X162852381Y-86799838D01*
X162852381Y-86799838D02*
X162995238Y-86752219D01*
X162995238Y-86752219D02*
X163090476Y-86752219D01*
X163090476Y-86752219D02*
X163233333Y-86799838D01*
X163233333Y-86799838D02*
X163280952Y-86847457D01*
X164185714Y-87752219D02*
X163709524Y-87752219D01*
X163709524Y-87752219D02*
X163709524Y-86752219D01*
X161109523Y-81599838D02*
X161014285Y-81552219D01*
X161014285Y-81552219D02*
X160871428Y-81552219D01*
X160871428Y-81552219D02*
X160728571Y-81599838D01*
X160728571Y-81599838D02*
X160633333Y-81695076D01*
X160633333Y-81695076D02*
X160585714Y-81790314D01*
X160585714Y-81790314D02*
X160538095Y-81980790D01*
X160538095Y-81980790D02*
X160538095Y-82123647D01*
X160538095Y-82123647D02*
X160585714Y-82314123D01*
X160585714Y-82314123D02*
X160633333Y-82409361D01*
X160633333Y-82409361D02*
X160728571Y-82504600D01*
X160728571Y-82504600D02*
X160871428Y-82552219D01*
X160871428Y-82552219D02*
X160966666Y-82552219D01*
X160966666Y-82552219D02*
X161109523Y-82504600D01*
X161109523Y-82504600D02*
X161157142Y-82456980D01*
X161157142Y-82456980D02*
X161157142Y-82123647D01*
X161157142Y-82123647D02*
X160966666Y-82123647D01*
X161585714Y-82552219D02*
X161585714Y-81552219D01*
X161585714Y-81552219D02*
X162157142Y-82552219D01*
X162157142Y-82552219D02*
X162157142Y-81552219D01*
X162633333Y-82552219D02*
X162633333Y-81552219D01*
X162633333Y-81552219D02*
X162871428Y-81552219D01*
X162871428Y-81552219D02*
X163014285Y-81599838D01*
X163014285Y-81599838D02*
X163109523Y-81695076D01*
X163109523Y-81695076D02*
X163157142Y-81790314D01*
X163157142Y-81790314D02*
X163204761Y-81980790D01*
X163204761Y-81980790D02*
X163204761Y-82123647D01*
X163204761Y-82123647D02*
X163157142Y-82314123D01*
X163157142Y-82314123D02*
X163109523Y-82409361D01*
X163109523Y-82409361D02*
X163014285Y-82504600D01*
X163014285Y-82504600D02*
X162871428Y-82552219D01*
X162871428Y-82552219D02*
X162633333Y-82552219D01*
X163585714Y-82266504D02*
X164061904Y-82266504D01*
X163490476Y-82552219D02*
X163823809Y-81552219D01*
X163823809Y-81552219D02*
X164157142Y-82552219D01*
D11*
X151571429Y-84354819D02*
X151571429Y-83354819D01*
X152619047Y-84259580D02*
X152571428Y-84307200D01*
X152571428Y-84307200D02*
X152428571Y-84354819D01*
X152428571Y-84354819D02*
X152333333Y-84354819D01*
X152333333Y-84354819D02*
X152190476Y-84307200D01*
X152190476Y-84307200D02*
X152095238Y-84211961D01*
X152095238Y-84211961D02*
X152047619Y-84116723D01*
X152047619Y-84116723D02*
X152000000Y-83926247D01*
X152000000Y-83926247D02*
X152000000Y-83783390D01*
X152000000Y-83783390D02*
X152047619Y-83592914D01*
X152047619Y-83592914D02*
X152095238Y-83497676D01*
X152095238Y-83497676D02*
X152190476Y-83402438D01*
X152190476Y-83402438D02*
X152333333Y-83354819D01*
X152333333Y-83354819D02*
X152428571Y-83354819D01*
X152428571Y-83354819D02*
X152571428Y-83402438D01*
X152571428Y-83402438D02*
X152619047Y-83450057D01*
X152904762Y-83354819D02*
X153476190Y-83354819D01*
X153190476Y-84354819D02*
X153190476Y-83354819D01*
X154428571Y-83878628D02*
X154380952Y-83831009D01*
X154380952Y-83831009D02*
X154285714Y-83783390D01*
X154285714Y-83783390D02*
X154190476Y-83783390D01*
X154190476Y-83783390D02*
X154095238Y-83831009D01*
X154095238Y-83831009D02*
X154047619Y-83878628D01*
X154047619Y-83878628D02*
X154000000Y-83973866D01*
X154000000Y-83973866D02*
X154000000Y-84069104D01*
X154000000Y-84069104D02*
X154047619Y-84164342D01*
X154047619Y-84164342D02*
X154095238Y-84211961D01*
X154095238Y-84211961D02*
X154190476Y-84259580D01*
X154190476Y-84259580D02*
X154285714Y-84259580D01*
X154285714Y-84259580D02*
X154380952Y-84211961D01*
X154380952Y-84211961D02*
X154428571Y-84164342D01*
X154428571Y-83783390D02*
X154428571Y-84164342D01*
X154428571Y-84164342D02*
X154476190Y-84211961D01*
X154476190Y-84211961D02*
X154523809Y-84211961D01*
X154523809Y-84211961D02*
X154619048Y-84164342D01*
X154619048Y-84164342D02*
X154666667Y-84069104D01*
X154666667Y-84069104D02*
X154666667Y-83831009D01*
X154666667Y-83831009D02*
X154571429Y-83688152D01*
X154571429Y-83688152D02*
X154428571Y-83592914D01*
X154428571Y-83592914D02*
X154238095Y-83545295D01*
X154238095Y-83545295D02*
X154047619Y-83592914D01*
X154047619Y-83592914D02*
X153904762Y-83688152D01*
X153904762Y-83688152D02*
X153809524Y-83831009D01*
X153809524Y-83831009D02*
X153761905Y-84021485D01*
X153761905Y-84021485D02*
X153809524Y-84211961D01*
X153809524Y-84211961D02*
X153904762Y-84354819D01*
X153904762Y-84354819D02*
X154047619Y-84450057D01*
X154047619Y-84450057D02*
X154238095Y-84497676D01*
X154238095Y-84497676D02*
X154428571Y-84450057D01*
X154428571Y-84450057D02*
X154571429Y-84354819D01*
X155047619Y-83450057D02*
X155095238Y-83402438D01*
X155095238Y-83402438D02*
X155190476Y-83354819D01*
X155190476Y-83354819D02*
X155428571Y-83354819D01*
X155428571Y-83354819D02*
X155523809Y-83402438D01*
X155523809Y-83402438D02*
X155571428Y-83450057D01*
X155571428Y-83450057D02*
X155619047Y-83545295D01*
X155619047Y-83545295D02*
X155619047Y-83640533D01*
X155619047Y-83640533D02*
X155571428Y-83783390D01*
X155571428Y-83783390D02*
X155000000Y-84354819D01*
X155000000Y-84354819D02*
X155619047Y-84354819D01*
X156238095Y-83354819D02*
X156333333Y-83354819D01*
X156333333Y-83354819D02*
X156428571Y-83402438D01*
X156428571Y-83402438D02*
X156476190Y-83450057D01*
X156476190Y-83450057D02*
X156523809Y-83545295D01*
X156523809Y-83545295D02*
X156571428Y-83735771D01*
X156571428Y-83735771D02*
X156571428Y-83973866D01*
X156571428Y-83973866D02*
X156523809Y-84164342D01*
X156523809Y-84164342D02*
X156476190Y-84259580D01*
X156476190Y-84259580D02*
X156428571Y-84307200D01*
X156428571Y-84307200D02*
X156333333Y-84354819D01*
X156333333Y-84354819D02*
X156238095Y-84354819D01*
X156238095Y-84354819D02*
X156142857Y-84307200D01*
X156142857Y-84307200D02*
X156095238Y-84259580D01*
X156095238Y-84259580D02*
X156047619Y-84164342D01*
X156047619Y-84164342D02*
X156000000Y-83973866D01*
X156000000Y-83973866D02*
X156000000Y-83735771D01*
X156000000Y-83735771D02*
X156047619Y-83545295D01*
X156047619Y-83545295D02*
X156095238Y-83450057D01*
X156095238Y-83450057D02*
X156142857Y-83402438D01*
X156142857Y-83402438D02*
X156238095Y-83354819D01*
X156952381Y-83450057D02*
X157000000Y-83402438D01*
X157000000Y-83402438D02*
X157095238Y-83354819D01*
X157095238Y-83354819D02*
X157333333Y-83354819D01*
X157333333Y-83354819D02*
X157428571Y-83402438D01*
X157428571Y-83402438D02*
X157476190Y-83450057D01*
X157476190Y-83450057D02*
X157523809Y-83545295D01*
X157523809Y-83545295D02*
X157523809Y-83640533D01*
X157523809Y-83640533D02*
X157476190Y-83783390D01*
X157476190Y-83783390D02*
X156904762Y-84354819D01*
X156904762Y-84354819D02*
X157523809Y-84354819D01*
X158380952Y-83688152D02*
X158380952Y-84354819D01*
X158142857Y-83307200D02*
X157904762Y-84021485D01*
X157904762Y-84021485D02*
X158523809Y-84021485D01*
X132004761Y-81388152D02*
X132004761Y-82054819D01*
X132004761Y-81483390D02*
X132052380Y-81435771D01*
X132052380Y-81435771D02*
X132147618Y-81388152D01*
X132147618Y-81388152D02*
X132290475Y-81388152D01*
X132290475Y-81388152D02*
X132385713Y-81435771D01*
X132385713Y-81435771D02*
X132433332Y-81531009D01*
X132433332Y-81531009D02*
X132433332Y-82054819D01*
X133242856Y-81531009D02*
X132909523Y-81531009D01*
X132909523Y-82054819D02*
X132909523Y-81054819D01*
X132909523Y-81054819D02*
X133385713Y-81054819D01*
X134195237Y-82054819D02*
X134195237Y-81531009D01*
X134195237Y-81531009D02*
X134147618Y-81435771D01*
X134147618Y-81435771D02*
X134052380Y-81388152D01*
X134052380Y-81388152D02*
X133861904Y-81388152D01*
X133861904Y-81388152D02*
X133766666Y-81435771D01*
X134195237Y-82007200D02*
X134099999Y-82054819D01*
X134099999Y-82054819D02*
X133861904Y-82054819D01*
X133861904Y-82054819D02*
X133766666Y-82007200D01*
X133766666Y-82007200D02*
X133719047Y-81911961D01*
X133719047Y-81911961D02*
X133719047Y-81816723D01*
X133719047Y-81816723D02*
X133766666Y-81721485D01*
X133766666Y-81721485D02*
X133861904Y-81673866D01*
X133861904Y-81673866D02*
X134099999Y-81673866D01*
X134099999Y-81673866D02*
X134195237Y-81626247D01*
X135099999Y-81388152D02*
X135099999Y-82054819D01*
X134671428Y-81388152D02*
X134671428Y-81911961D01*
X134671428Y-81911961D02*
X134719047Y-82007200D01*
X134719047Y-82007200D02*
X134814285Y-82054819D01*
X134814285Y-82054819D02*
X134957142Y-82054819D01*
X134957142Y-82054819D02*
X135052380Y-82007200D01*
X135052380Y-82007200D02*
X135099999Y-81959580D01*
X135719047Y-82054819D02*
X135623809Y-82007200D01*
X135623809Y-82007200D02*
X135576190Y-81911961D01*
X135576190Y-81911961D02*
X135576190Y-81054819D01*
X135957143Y-81388152D02*
X136338095Y-81388152D01*
X136100000Y-81054819D02*
X136100000Y-81911961D01*
X136100000Y-81911961D02*
X136147619Y-82007200D01*
X136147619Y-82007200D02*
X136242857Y-82054819D01*
X136242857Y-82054819D02*
X136338095Y-82054819D01*
D10*
X162490476Y-95752219D02*
X162490476Y-94752219D01*
X162490476Y-94752219D02*
X162728571Y-94752219D01*
X162728571Y-94752219D02*
X162871428Y-94799838D01*
X162871428Y-94799838D02*
X162966666Y-94895076D01*
X162966666Y-94895076D02*
X163014285Y-94990314D01*
X163014285Y-94990314D02*
X163061904Y-95180790D01*
X163061904Y-95180790D02*
X163061904Y-95323647D01*
X163061904Y-95323647D02*
X163014285Y-95514123D01*
X163014285Y-95514123D02*
X162966666Y-95609361D01*
X162966666Y-95609361D02*
X162871428Y-95704600D01*
X162871428Y-95704600D02*
X162728571Y-95752219D01*
X162728571Y-95752219D02*
X162490476Y-95752219D01*
X163490476Y-95752219D02*
X163490476Y-95085552D01*
X163490476Y-94752219D02*
X163442857Y-94799838D01*
X163442857Y-94799838D02*
X163490476Y-94847457D01*
X163490476Y-94847457D02*
X163538095Y-94799838D01*
X163538095Y-94799838D02*
X163490476Y-94752219D01*
X163490476Y-94752219D02*
X163490476Y-94847457D01*
X163966666Y-95752219D02*
X163966666Y-95085552D01*
X163966666Y-95276028D02*
X164014285Y-95180790D01*
X164014285Y-95180790D02*
X164061904Y-95133171D01*
X164061904Y-95133171D02*
X164157142Y-95085552D01*
X164157142Y-95085552D02*
X164252380Y-95085552D01*
X160152381Y-93304600D02*
X160295238Y-93352219D01*
X160295238Y-93352219D02*
X160533333Y-93352219D01*
X160533333Y-93352219D02*
X160628571Y-93304600D01*
X160628571Y-93304600D02*
X160676190Y-93256980D01*
X160676190Y-93256980D02*
X160723809Y-93161742D01*
X160723809Y-93161742D02*
X160723809Y-93066504D01*
X160723809Y-93066504D02*
X160676190Y-92971266D01*
X160676190Y-92971266D02*
X160628571Y-92923647D01*
X160628571Y-92923647D02*
X160533333Y-92876028D01*
X160533333Y-92876028D02*
X160342857Y-92828409D01*
X160342857Y-92828409D02*
X160247619Y-92780790D01*
X160247619Y-92780790D02*
X160200000Y-92733171D01*
X160200000Y-92733171D02*
X160152381Y-92637933D01*
X160152381Y-92637933D02*
X160152381Y-92542695D01*
X160152381Y-92542695D02*
X160200000Y-92447457D01*
X160200000Y-92447457D02*
X160247619Y-92399838D01*
X160247619Y-92399838D02*
X160342857Y-92352219D01*
X160342857Y-92352219D02*
X160580952Y-92352219D01*
X160580952Y-92352219D02*
X160723809Y-92399838D01*
X161152381Y-92685552D02*
X161152381Y-93685552D01*
X161152381Y-92733171D02*
X161247619Y-92685552D01*
X161247619Y-92685552D02*
X161438095Y-92685552D01*
X161438095Y-92685552D02*
X161533333Y-92733171D01*
X161533333Y-92733171D02*
X161580952Y-92780790D01*
X161580952Y-92780790D02*
X161628571Y-92876028D01*
X161628571Y-92876028D02*
X161628571Y-93161742D01*
X161628571Y-93161742D02*
X161580952Y-93256980D01*
X161580952Y-93256980D02*
X161533333Y-93304600D01*
X161533333Y-93304600D02*
X161438095Y-93352219D01*
X161438095Y-93352219D02*
X161247619Y-93352219D01*
X161247619Y-93352219D02*
X161152381Y-93304600D01*
X162438095Y-93304600D02*
X162342857Y-93352219D01*
X162342857Y-93352219D02*
X162152381Y-93352219D01*
X162152381Y-93352219D02*
X162057143Y-93304600D01*
X162057143Y-93304600D02*
X162009524Y-93209361D01*
X162009524Y-93209361D02*
X162009524Y-92828409D01*
X162009524Y-92828409D02*
X162057143Y-92733171D01*
X162057143Y-92733171D02*
X162152381Y-92685552D01*
X162152381Y-92685552D02*
X162342857Y-92685552D01*
X162342857Y-92685552D02*
X162438095Y-92733171D01*
X162438095Y-92733171D02*
X162485714Y-92828409D01*
X162485714Y-92828409D02*
X162485714Y-92923647D01*
X162485714Y-92923647D02*
X162009524Y-93018885D01*
X163295238Y-93304600D02*
X163200000Y-93352219D01*
X163200000Y-93352219D02*
X163009524Y-93352219D01*
X163009524Y-93352219D02*
X162914286Y-93304600D01*
X162914286Y-93304600D02*
X162866667Y-93209361D01*
X162866667Y-93209361D02*
X162866667Y-92828409D01*
X162866667Y-92828409D02*
X162914286Y-92733171D01*
X162914286Y-92733171D02*
X163009524Y-92685552D01*
X163009524Y-92685552D02*
X163200000Y-92685552D01*
X163200000Y-92685552D02*
X163295238Y-92733171D01*
X163295238Y-92733171D02*
X163342857Y-92828409D01*
X163342857Y-92828409D02*
X163342857Y-92923647D01*
X163342857Y-92923647D02*
X162866667Y-93018885D01*
X164200000Y-93352219D02*
X164200000Y-92352219D01*
X164200000Y-93304600D02*
X164104762Y-93352219D01*
X164104762Y-93352219D02*
X163914286Y-93352219D01*
X163914286Y-93352219D02*
X163819048Y-93304600D01*
X163819048Y-93304600D02*
X163771429Y-93256980D01*
X163771429Y-93256980D02*
X163723810Y-93161742D01*
X163723810Y-93161742D02*
X163723810Y-92876028D01*
X163723810Y-92876028D02*
X163771429Y-92780790D01*
X163771429Y-92780790D02*
X163819048Y-92733171D01*
X163819048Y-92733171D02*
X163914286Y-92685552D01*
X163914286Y-92685552D02*
X164104762Y-92685552D01*
X164104762Y-92685552D02*
X164200000Y-92733171D01*
X161585714Y-85204600D02*
X161728571Y-85252219D01*
X161728571Y-85252219D02*
X161966666Y-85252219D01*
X161966666Y-85252219D02*
X162061904Y-85204600D01*
X162061904Y-85204600D02*
X162109523Y-85156980D01*
X162109523Y-85156980D02*
X162157142Y-85061742D01*
X162157142Y-85061742D02*
X162157142Y-84966504D01*
X162157142Y-84966504D02*
X162109523Y-84871266D01*
X162109523Y-84871266D02*
X162061904Y-84823647D01*
X162061904Y-84823647D02*
X161966666Y-84776028D01*
X161966666Y-84776028D02*
X161776190Y-84728409D01*
X161776190Y-84728409D02*
X161680952Y-84680790D01*
X161680952Y-84680790D02*
X161633333Y-84633171D01*
X161633333Y-84633171D02*
X161585714Y-84537933D01*
X161585714Y-84537933D02*
X161585714Y-84442695D01*
X161585714Y-84442695D02*
X161633333Y-84347457D01*
X161633333Y-84347457D02*
X161680952Y-84299838D01*
X161680952Y-84299838D02*
X161776190Y-84252219D01*
X161776190Y-84252219D02*
X162014285Y-84252219D01*
X162014285Y-84252219D02*
X162157142Y-84299838D01*
X162585714Y-85252219D02*
X162585714Y-84252219D01*
X162585714Y-84252219D02*
X162823809Y-84252219D01*
X162823809Y-84252219D02*
X162966666Y-84299838D01*
X162966666Y-84299838D02*
X163061904Y-84395076D01*
X163061904Y-84395076D02*
X163109523Y-84490314D01*
X163109523Y-84490314D02*
X163157142Y-84680790D01*
X163157142Y-84680790D02*
X163157142Y-84823647D01*
X163157142Y-84823647D02*
X163109523Y-85014123D01*
X163109523Y-85014123D02*
X163061904Y-85109361D01*
X163061904Y-85109361D02*
X162966666Y-85204600D01*
X162966666Y-85204600D02*
X162823809Y-85252219D01*
X162823809Y-85252219D02*
X162585714Y-85252219D01*
X163538095Y-84966504D02*
X164014285Y-84966504D01*
X163442857Y-85252219D02*
X163776190Y-84252219D01*
X163776190Y-84252219D02*
X164109523Y-85252219D01*
D12*
X153535713Y-70599442D02*
X154678571Y-70599442D01*
X154107142Y-71170870D02*
X154107142Y-70028013D01*
X156535713Y-71170870D02*
X156535713Y-69670870D01*
X157249999Y-70170870D02*
X157249999Y-71170870D01*
X157249999Y-70313727D02*
X157321428Y-70242299D01*
X157321428Y-70242299D02*
X157464285Y-70170870D01*
X157464285Y-70170870D02*
X157678571Y-70170870D01*
X157678571Y-70170870D02*
X157821428Y-70242299D01*
X157821428Y-70242299D02*
X157892857Y-70385156D01*
X157892857Y-70385156D02*
X157892857Y-71170870D01*
X158607142Y-70170870D02*
X158607142Y-71670870D01*
X158607142Y-70242299D02*
X158750000Y-70170870D01*
X158750000Y-70170870D02*
X159035714Y-70170870D01*
X159035714Y-70170870D02*
X159178571Y-70242299D01*
X159178571Y-70242299D02*
X159250000Y-70313727D01*
X159250000Y-70313727D02*
X159321428Y-70456584D01*
X159321428Y-70456584D02*
X159321428Y-70885156D01*
X159321428Y-70885156D02*
X159250000Y-71028013D01*
X159250000Y-71028013D02*
X159178571Y-71099442D01*
X159178571Y-71099442D02*
X159035714Y-71170870D01*
X159035714Y-71170870D02*
X158750000Y-71170870D01*
X158750000Y-71170870D02*
X158607142Y-71099442D01*
X160607143Y-70170870D02*
X160607143Y-71170870D01*
X159964285Y-70170870D02*
X159964285Y-70956584D01*
X159964285Y-70956584D02*
X160035714Y-71099442D01*
X160035714Y-71099442D02*
X160178571Y-71170870D01*
X160178571Y-71170870D02*
X160392857Y-71170870D01*
X160392857Y-71170870D02*
X160535714Y-71099442D01*
X160535714Y-71099442D02*
X160607143Y-71028013D01*
X161107143Y-70170870D02*
X161678571Y-70170870D01*
X161321428Y-69670870D02*
X161321428Y-70956584D01*
X161321428Y-70956584D02*
X161392857Y-71099442D01*
X161392857Y-71099442D02*
X161535714Y-71170870D01*
X161535714Y-71170870D02*
X161678571Y-71170870D01*
X155214286Y-73514358D02*
X155357143Y-73585786D01*
X155357143Y-73585786D02*
X155642857Y-73585786D01*
X155642857Y-73585786D02*
X155785714Y-73514358D01*
X155785714Y-73514358D02*
X155857143Y-73371500D01*
X155857143Y-73371500D02*
X155857143Y-73300072D01*
X155857143Y-73300072D02*
X155785714Y-73157215D01*
X155785714Y-73157215D02*
X155642857Y-73085786D01*
X155642857Y-73085786D02*
X155428572Y-73085786D01*
X155428572Y-73085786D02*
X155285714Y-73014358D01*
X155285714Y-73014358D02*
X155214286Y-72871500D01*
X155214286Y-72871500D02*
X155214286Y-72800072D01*
X155214286Y-72800072D02*
X155285714Y-72657215D01*
X155285714Y-72657215D02*
X155428572Y-72585786D01*
X155428572Y-72585786D02*
X155642857Y-72585786D01*
X155642857Y-72585786D02*
X155785714Y-72657215D01*
X156714286Y-73585786D02*
X156571429Y-73514358D01*
X156571429Y-73514358D02*
X156500000Y-73442929D01*
X156500000Y-73442929D02*
X156428572Y-73300072D01*
X156428572Y-73300072D02*
X156428572Y-72871500D01*
X156428572Y-72871500D02*
X156500000Y-72728643D01*
X156500000Y-72728643D02*
X156571429Y-72657215D01*
X156571429Y-72657215D02*
X156714286Y-72585786D01*
X156714286Y-72585786D02*
X156928572Y-72585786D01*
X156928572Y-72585786D02*
X157071429Y-72657215D01*
X157071429Y-72657215D02*
X157142858Y-72728643D01*
X157142858Y-72728643D02*
X157214286Y-72871500D01*
X157214286Y-72871500D02*
X157214286Y-73300072D01*
X157214286Y-73300072D02*
X157142858Y-73442929D01*
X157142858Y-73442929D02*
X157071429Y-73514358D01*
X157071429Y-73514358D02*
X156928572Y-73585786D01*
X156928572Y-73585786D02*
X156714286Y-73585786D01*
X158500001Y-72585786D02*
X158500001Y-73585786D01*
X157857143Y-72585786D02*
X157857143Y-73371500D01*
X157857143Y-73371500D02*
X157928572Y-73514358D01*
X157928572Y-73514358D02*
X158071429Y-73585786D01*
X158071429Y-73585786D02*
X158285715Y-73585786D01*
X158285715Y-73585786D02*
X158428572Y-73514358D01*
X158428572Y-73514358D02*
X158500001Y-73442929D01*
X159214286Y-73585786D02*
X159214286Y-72585786D01*
X159214286Y-72871500D02*
X159285715Y-72728643D01*
X159285715Y-72728643D02*
X159357144Y-72657215D01*
X159357144Y-72657215D02*
X159500001Y-72585786D01*
X159500001Y-72585786D02*
X159642858Y-72585786D01*
X160785715Y-73514358D02*
X160642857Y-73585786D01*
X160642857Y-73585786D02*
X160357143Y-73585786D01*
X160357143Y-73585786D02*
X160214286Y-73514358D01*
X160214286Y-73514358D02*
X160142857Y-73442929D01*
X160142857Y-73442929D02*
X160071429Y-73300072D01*
X160071429Y-73300072D02*
X160071429Y-72871500D01*
X160071429Y-72871500D02*
X160142857Y-72728643D01*
X160142857Y-72728643D02*
X160214286Y-72657215D01*
X160214286Y-72657215D02*
X160357143Y-72585786D01*
X160357143Y-72585786D02*
X160642857Y-72585786D01*
X160642857Y-72585786D02*
X160785715Y-72657215D01*
X162000000Y-73514358D02*
X161857143Y-73585786D01*
X161857143Y-73585786D02*
X161571429Y-73585786D01*
X161571429Y-73585786D02*
X161428571Y-73514358D01*
X161428571Y-73514358D02*
X161357143Y-73371500D01*
X161357143Y-73371500D02*
X161357143Y-72800072D01*
X161357143Y-72800072D02*
X161428571Y-72657215D01*
X161428571Y-72657215D02*
X161571429Y-72585786D01*
X161571429Y-72585786D02*
X161857143Y-72585786D01*
X161857143Y-72585786D02*
X162000000Y-72657215D01*
X162000000Y-72657215D02*
X162071429Y-72800072D01*
X162071429Y-72800072D02*
X162071429Y-72942929D01*
X162071429Y-72942929D02*
X161357143Y-73085786D01*
D11*
X132133333Y-88869104D02*
X132609523Y-88869104D01*
X132038095Y-89154819D02*
X132371428Y-88154819D01*
X132371428Y-88154819D02*
X132704761Y-89154819D01*
X132895238Y-88154819D02*
X133228571Y-89154819D01*
X133228571Y-89154819D02*
X133561904Y-88154819D01*
X133895238Y-89154819D02*
X133895238Y-88154819D01*
X133895238Y-88154819D02*
X134133333Y-88154819D01*
X134133333Y-88154819D02*
X134276190Y-88202438D01*
X134276190Y-88202438D02*
X134371428Y-88297676D01*
X134371428Y-88297676D02*
X134419047Y-88392914D01*
X134419047Y-88392914D02*
X134466666Y-88583390D01*
X134466666Y-88583390D02*
X134466666Y-88726247D01*
X134466666Y-88726247D02*
X134419047Y-88916723D01*
X134419047Y-88916723D02*
X134371428Y-89011961D01*
X134371428Y-89011961D02*
X134276190Y-89107200D01*
X134276190Y-89107200D02*
X134133333Y-89154819D01*
X134133333Y-89154819D02*
X133895238Y-89154819D01*
X134895238Y-89154819D02*
X134895238Y-88154819D01*
X134895238Y-88154819D02*
X135133333Y-88154819D01*
X135133333Y-88154819D02*
X135276190Y-88202438D01*
X135276190Y-88202438D02*
X135371428Y-88297676D01*
X135371428Y-88297676D02*
X135419047Y-88392914D01*
X135419047Y-88392914D02*
X135466666Y-88583390D01*
X135466666Y-88583390D02*
X135466666Y-88726247D01*
X135466666Y-88726247D02*
X135419047Y-88916723D01*
X135419047Y-88916723D02*
X135371428Y-89011961D01*
X135371428Y-89011961D02*
X135276190Y-89107200D01*
X135276190Y-89107200D02*
X135133333Y-89154819D01*
X135133333Y-89154819D02*
X134895238Y-89154819D01*
D12*
X129685714Y-116870870D02*
X130614286Y-116870870D01*
X130614286Y-116870870D02*
X130114286Y-117442299D01*
X130114286Y-117442299D02*
X130328571Y-117442299D01*
X130328571Y-117442299D02*
X130471429Y-117513727D01*
X130471429Y-117513727D02*
X130542857Y-117585156D01*
X130542857Y-117585156D02*
X130614286Y-117728013D01*
X130614286Y-117728013D02*
X130614286Y-118085156D01*
X130614286Y-118085156D02*
X130542857Y-118228013D01*
X130542857Y-118228013D02*
X130471429Y-118299442D01*
X130471429Y-118299442D02*
X130328571Y-118370870D01*
X130328571Y-118370870D02*
X129900000Y-118370870D01*
X129900000Y-118370870D02*
X129757143Y-118299442D01*
X129757143Y-118299442D02*
X129685714Y-118228013D01*
X131257142Y-117799442D02*
X132400000Y-117799442D01*
X133114285Y-117370870D02*
X133114285Y-118870870D01*
X133114285Y-117442299D02*
X133257143Y-117370870D01*
X133257143Y-117370870D02*
X133542857Y-117370870D01*
X133542857Y-117370870D02*
X133685714Y-117442299D01*
X133685714Y-117442299D02*
X133757143Y-117513727D01*
X133757143Y-117513727D02*
X133828571Y-117656584D01*
X133828571Y-117656584D02*
X133828571Y-118085156D01*
X133828571Y-118085156D02*
X133757143Y-118228013D01*
X133757143Y-118228013D02*
X133685714Y-118299442D01*
X133685714Y-118299442D02*
X133542857Y-118370870D01*
X133542857Y-118370870D02*
X133257143Y-118370870D01*
X133257143Y-118370870D02*
X133114285Y-118299442D01*
X134471428Y-118370870D02*
X134471428Y-116870870D01*
X135114286Y-118370870D02*
X135114286Y-117585156D01*
X135114286Y-117585156D02*
X135042857Y-117442299D01*
X135042857Y-117442299D02*
X134900000Y-117370870D01*
X134900000Y-117370870D02*
X134685714Y-117370870D01*
X134685714Y-117370870D02*
X134542857Y-117442299D01*
X134542857Y-117442299D02*
X134471428Y-117513727D01*
X136471429Y-118370870D02*
X136471429Y-117585156D01*
X136471429Y-117585156D02*
X136400000Y-117442299D01*
X136400000Y-117442299D02*
X136257143Y-117370870D01*
X136257143Y-117370870D02*
X135971429Y-117370870D01*
X135971429Y-117370870D02*
X135828571Y-117442299D01*
X136471429Y-118299442D02*
X136328571Y-118370870D01*
X136328571Y-118370870D02*
X135971429Y-118370870D01*
X135971429Y-118370870D02*
X135828571Y-118299442D01*
X135828571Y-118299442D02*
X135757143Y-118156584D01*
X135757143Y-118156584D02*
X135757143Y-118013727D01*
X135757143Y-118013727D02*
X135828571Y-117870870D01*
X135828571Y-117870870D02*
X135971429Y-117799442D01*
X135971429Y-117799442D02*
X136328571Y-117799442D01*
X136328571Y-117799442D02*
X136471429Y-117728013D01*
X137114286Y-118299442D02*
X137257143Y-118370870D01*
X137257143Y-118370870D02*
X137542857Y-118370870D01*
X137542857Y-118370870D02*
X137685714Y-118299442D01*
X137685714Y-118299442D02*
X137757143Y-118156584D01*
X137757143Y-118156584D02*
X137757143Y-118085156D01*
X137757143Y-118085156D02*
X137685714Y-117942299D01*
X137685714Y-117942299D02*
X137542857Y-117870870D01*
X137542857Y-117870870D02*
X137328572Y-117870870D01*
X137328572Y-117870870D02*
X137185714Y-117799442D01*
X137185714Y-117799442D02*
X137114286Y-117656584D01*
X137114286Y-117656584D02*
X137114286Y-117585156D01*
X137114286Y-117585156D02*
X137185714Y-117442299D01*
X137185714Y-117442299D02*
X137328572Y-117370870D01*
X137328572Y-117370870D02*
X137542857Y-117370870D01*
X137542857Y-117370870D02*
X137685714Y-117442299D01*
X138971429Y-118299442D02*
X138828572Y-118370870D01*
X138828572Y-118370870D02*
X138542858Y-118370870D01*
X138542858Y-118370870D02*
X138400000Y-118299442D01*
X138400000Y-118299442D02*
X138328572Y-118156584D01*
X138328572Y-118156584D02*
X138328572Y-117585156D01*
X138328572Y-117585156D02*
X138400000Y-117442299D01*
X138400000Y-117442299D02*
X138542858Y-117370870D01*
X138542858Y-117370870D02*
X138828572Y-117370870D01*
X138828572Y-117370870D02*
X138971429Y-117442299D01*
X138971429Y-117442299D02*
X139042858Y-117585156D01*
X139042858Y-117585156D02*
X139042858Y-117728013D01*
X139042858Y-117728013D02*
X138328572Y-117870870D01*
X131399999Y-120785786D02*
X131257142Y-120714358D01*
X131257142Y-120714358D02*
X131185713Y-120642929D01*
X131185713Y-120642929D02*
X131114285Y-120500072D01*
X131114285Y-120500072D02*
X131114285Y-120071500D01*
X131114285Y-120071500D02*
X131185713Y-119928643D01*
X131185713Y-119928643D02*
X131257142Y-119857215D01*
X131257142Y-119857215D02*
X131399999Y-119785786D01*
X131399999Y-119785786D02*
X131614285Y-119785786D01*
X131614285Y-119785786D02*
X131757142Y-119857215D01*
X131757142Y-119857215D02*
X131828571Y-119928643D01*
X131828571Y-119928643D02*
X131899999Y-120071500D01*
X131899999Y-120071500D02*
X131899999Y-120500072D01*
X131899999Y-120500072D02*
X131828571Y-120642929D01*
X131828571Y-120642929D02*
X131757142Y-120714358D01*
X131757142Y-120714358D02*
X131614285Y-120785786D01*
X131614285Y-120785786D02*
X131399999Y-120785786D01*
X133185714Y-119785786D02*
X133185714Y-120785786D01*
X132542856Y-119785786D02*
X132542856Y-120571500D01*
X132542856Y-120571500D02*
X132614285Y-120714358D01*
X132614285Y-120714358D02*
X132757142Y-120785786D01*
X132757142Y-120785786D02*
X132971428Y-120785786D01*
X132971428Y-120785786D02*
X133114285Y-120714358D01*
X133114285Y-120714358D02*
X133185714Y-120642929D01*
X133685714Y-119785786D02*
X134257142Y-119785786D01*
X133899999Y-119285786D02*
X133899999Y-120571500D01*
X133899999Y-120571500D02*
X133971428Y-120714358D01*
X133971428Y-120714358D02*
X134114285Y-120785786D01*
X134114285Y-120785786D02*
X134257142Y-120785786D01*
X134757142Y-119785786D02*
X134757142Y-121285786D01*
X134757142Y-119857215D02*
X134900000Y-119785786D01*
X134900000Y-119785786D02*
X135185714Y-119785786D01*
X135185714Y-119785786D02*
X135328571Y-119857215D01*
X135328571Y-119857215D02*
X135400000Y-119928643D01*
X135400000Y-119928643D02*
X135471428Y-120071500D01*
X135471428Y-120071500D02*
X135471428Y-120500072D01*
X135471428Y-120500072D02*
X135400000Y-120642929D01*
X135400000Y-120642929D02*
X135328571Y-120714358D01*
X135328571Y-120714358D02*
X135185714Y-120785786D01*
X135185714Y-120785786D02*
X134900000Y-120785786D01*
X134900000Y-120785786D02*
X134757142Y-120714358D01*
X136757143Y-119785786D02*
X136757143Y-120785786D01*
X136114285Y-119785786D02*
X136114285Y-120571500D01*
X136114285Y-120571500D02*
X136185714Y-120714358D01*
X136185714Y-120714358D02*
X136328571Y-120785786D01*
X136328571Y-120785786D02*
X136542857Y-120785786D01*
X136542857Y-120785786D02*
X136685714Y-120714358D01*
X136685714Y-120714358D02*
X136757143Y-120642929D01*
X137257143Y-119785786D02*
X137828571Y-119785786D01*
X137471428Y-119285786D02*
X137471428Y-120571500D01*
X137471428Y-120571500D02*
X137542857Y-120714358D01*
X137542857Y-120714358D02*
X137685714Y-120785786D01*
X137685714Y-120785786D02*
X137828571Y-120785786D01*
D11*
X132542857Y-79131009D02*
X132209524Y-79131009D01*
X132209524Y-79654819D02*
X132209524Y-78654819D01*
X132209524Y-78654819D02*
X132685714Y-78654819D01*
X133590476Y-78702438D02*
X133495238Y-78654819D01*
X133495238Y-78654819D02*
X133352381Y-78654819D01*
X133352381Y-78654819D02*
X133209524Y-78702438D01*
X133209524Y-78702438D02*
X133114286Y-78797676D01*
X133114286Y-78797676D02*
X133066667Y-78892914D01*
X133066667Y-78892914D02*
X133019048Y-79083390D01*
X133019048Y-79083390D02*
X133019048Y-79226247D01*
X133019048Y-79226247D02*
X133066667Y-79416723D01*
X133066667Y-79416723D02*
X133114286Y-79511961D01*
X133114286Y-79511961D02*
X133209524Y-79607200D01*
X133209524Y-79607200D02*
X133352381Y-79654819D01*
X133352381Y-79654819D02*
X133447619Y-79654819D01*
X133447619Y-79654819D02*
X133590476Y-79607200D01*
X133590476Y-79607200D02*
X133638095Y-79559580D01*
X133638095Y-79559580D02*
X133638095Y-79226247D01*
X133638095Y-79226247D02*
X133447619Y-79226247D01*
X132009524Y-91554819D02*
X132009524Y-90554819D01*
X132009524Y-90554819D02*
X132247619Y-90554819D01*
X132247619Y-90554819D02*
X132390476Y-90602438D01*
X132390476Y-90602438D02*
X132485714Y-90697676D01*
X132485714Y-90697676D02*
X132533333Y-90792914D01*
X132533333Y-90792914D02*
X132580952Y-90983390D01*
X132580952Y-90983390D02*
X132580952Y-91126247D01*
X132580952Y-91126247D02*
X132533333Y-91316723D01*
X132533333Y-91316723D02*
X132485714Y-91411961D01*
X132485714Y-91411961D02*
X132390476Y-91507200D01*
X132390476Y-91507200D02*
X132247619Y-91554819D01*
X132247619Y-91554819D02*
X132009524Y-91554819D01*
X132866667Y-90554819D02*
X133200000Y-91554819D01*
X133200000Y-91554819D02*
X133533333Y-90554819D01*
X133866667Y-91554819D02*
X133866667Y-90554819D01*
X133866667Y-90554819D02*
X134104762Y-90554819D01*
X134104762Y-90554819D02*
X134247619Y-90602438D01*
X134247619Y-90602438D02*
X134342857Y-90697676D01*
X134342857Y-90697676D02*
X134390476Y-90792914D01*
X134390476Y-90792914D02*
X134438095Y-90983390D01*
X134438095Y-90983390D02*
X134438095Y-91126247D01*
X134438095Y-91126247D02*
X134390476Y-91316723D01*
X134390476Y-91316723D02*
X134342857Y-91411961D01*
X134342857Y-91411961D02*
X134247619Y-91507200D01*
X134247619Y-91507200D02*
X134104762Y-91554819D01*
X134104762Y-91554819D02*
X133866667Y-91554819D01*
X134866667Y-91554819D02*
X134866667Y-90554819D01*
X134866667Y-90554819D02*
X135104762Y-90554819D01*
X135104762Y-90554819D02*
X135247619Y-90602438D01*
X135247619Y-90602438D02*
X135342857Y-90697676D01*
X135342857Y-90697676D02*
X135390476Y-90792914D01*
X135390476Y-90792914D02*
X135438095Y-90983390D01*
X135438095Y-90983390D02*
X135438095Y-91126247D01*
X135438095Y-91126247D02*
X135390476Y-91316723D01*
X135390476Y-91316723D02*
X135342857Y-91411961D01*
X135342857Y-91411961D02*
X135247619Y-91507200D01*
X135247619Y-91507200D02*
X135104762Y-91554819D01*
X135104762Y-91554819D02*
X134866667Y-91554819D01*
D10*
X132609523Y-85499838D02*
X132514285Y-85452219D01*
X132514285Y-85452219D02*
X132371428Y-85452219D01*
X132371428Y-85452219D02*
X132228571Y-85499838D01*
X132228571Y-85499838D02*
X132133333Y-85595076D01*
X132133333Y-85595076D02*
X132085714Y-85690314D01*
X132085714Y-85690314D02*
X132038095Y-85880790D01*
X132038095Y-85880790D02*
X132038095Y-86023647D01*
X132038095Y-86023647D02*
X132085714Y-86214123D01*
X132085714Y-86214123D02*
X132133333Y-86309361D01*
X132133333Y-86309361D02*
X132228571Y-86404600D01*
X132228571Y-86404600D02*
X132371428Y-86452219D01*
X132371428Y-86452219D02*
X132466666Y-86452219D01*
X132466666Y-86452219D02*
X132609523Y-86404600D01*
X132609523Y-86404600D02*
X132657142Y-86356980D01*
X132657142Y-86356980D02*
X132657142Y-86023647D01*
X132657142Y-86023647D02*
X132466666Y-86023647D01*
X133085714Y-86452219D02*
X133085714Y-85452219D01*
X133085714Y-85452219D02*
X133657142Y-86452219D01*
X133657142Y-86452219D02*
X133657142Y-85452219D01*
X134133333Y-86452219D02*
X134133333Y-85452219D01*
X134133333Y-85452219D02*
X134371428Y-85452219D01*
X134371428Y-85452219D02*
X134514285Y-85499838D01*
X134514285Y-85499838D02*
X134609523Y-85595076D01*
X134609523Y-85595076D02*
X134657142Y-85690314D01*
X134657142Y-85690314D02*
X134704761Y-85880790D01*
X134704761Y-85880790D02*
X134704761Y-86023647D01*
X134704761Y-86023647D02*
X134657142Y-86214123D01*
X134657142Y-86214123D02*
X134609523Y-86309361D01*
X134609523Y-86309361D02*
X134514285Y-86404600D01*
X134514285Y-86404600D02*
X134371428Y-86452219D01*
X134371428Y-86452219D02*
X134133333Y-86452219D01*
X135085714Y-86166504D02*
X135561904Y-86166504D01*
X134990476Y-86452219D02*
X135323809Y-85452219D01*
X135323809Y-85452219D02*
X135657142Y-86452219D01*
X162757142Y-105428409D02*
X162899999Y-105476028D01*
X162899999Y-105476028D02*
X162947618Y-105523647D01*
X162947618Y-105523647D02*
X162995237Y-105618885D01*
X162995237Y-105618885D02*
X162995237Y-105761742D01*
X162995237Y-105761742D02*
X162947618Y-105856980D01*
X162947618Y-105856980D02*
X162899999Y-105904600D01*
X162899999Y-105904600D02*
X162804761Y-105952219D01*
X162804761Y-105952219D02*
X162423809Y-105952219D01*
X162423809Y-105952219D02*
X162423809Y-104952219D01*
X162423809Y-104952219D02*
X162757142Y-104952219D01*
X162757142Y-104952219D02*
X162852380Y-104999838D01*
X162852380Y-104999838D02*
X162899999Y-105047457D01*
X162899999Y-105047457D02*
X162947618Y-105142695D01*
X162947618Y-105142695D02*
X162947618Y-105237933D01*
X162947618Y-105237933D02*
X162899999Y-105333171D01*
X162899999Y-105333171D02*
X162852380Y-105380790D01*
X162852380Y-105380790D02*
X162757142Y-105428409D01*
X162757142Y-105428409D02*
X162423809Y-105428409D01*
X163423809Y-105952219D02*
X163423809Y-105285552D01*
X163423809Y-105476028D02*
X163471428Y-105380790D01*
X163471428Y-105380790D02*
X163519047Y-105333171D01*
X163519047Y-105333171D02*
X163614285Y-105285552D01*
X163614285Y-105285552D02*
X163709523Y-105285552D01*
X164042857Y-105952219D02*
X164042857Y-104952219D01*
X164138095Y-105571266D02*
X164423809Y-105952219D01*
X164423809Y-105285552D02*
X164042857Y-105666504D01*
D11*
X132285714Y-93531009D02*
X132428571Y-93578628D01*
X132428571Y-93578628D02*
X132476190Y-93626247D01*
X132476190Y-93626247D02*
X132523809Y-93721485D01*
X132523809Y-93721485D02*
X132523809Y-93864342D01*
X132523809Y-93864342D02*
X132476190Y-93959580D01*
X132476190Y-93959580D02*
X132428571Y-94007200D01*
X132428571Y-94007200D02*
X132333333Y-94054819D01*
X132333333Y-94054819D02*
X131952381Y-94054819D01*
X131952381Y-94054819D02*
X131952381Y-93054819D01*
X131952381Y-93054819D02*
X132285714Y-93054819D01*
X132285714Y-93054819D02*
X132380952Y-93102438D01*
X132380952Y-93102438D02*
X132428571Y-93150057D01*
X132428571Y-93150057D02*
X132476190Y-93245295D01*
X132476190Y-93245295D02*
X132476190Y-93340533D01*
X132476190Y-93340533D02*
X132428571Y-93435771D01*
X132428571Y-93435771D02*
X132380952Y-93483390D01*
X132380952Y-93483390D02*
X132285714Y-93531009D01*
X132285714Y-93531009D02*
X131952381Y-93531009D01*
X133380952Y-93388152D02*
X133380952Y-94054819D01*
X132952381Y-93388152D02*
X132952381Y-93911961D01*
X132952381Y-93911961D02*
X133000000Y-94007200D01*
X133000000Y-94007200D02*
X133095238Y-94054819D01*
X133095238Y-94054819D02*
X133238095Y-94054819D01*
X133238095Y-94054819D02*
X133333333Y-94007200D01*
X133333333Y-94007200D02*
X133380952Y-93959580D01*
X134285714Y-94007200D02*
X134190476Y-94054819D01*
X134190476Y-94054819D02*
X134000000Y-94054819D01*
X134000000Y-94054819D02*
X133904762Y-94007200D01*
X133904762Y-94007200D02*
X133857143Y-93959580D01*
X133857143Y-93959580D02*
X133809524Y-93864342D01*
X133809524Y-93864342D02*
X133809524Y-93578628D01*
X133809524Y-93578628D02*
X133857143Y-93483390D01*
X133857143Y-93483390D02*
X133904762Y-93435771D01*
X133904762Y-93435771D02*
X134000000Y-93388152D01*
X134000000Y-93388152D02*
X134190476Y-93388152D01*
X134190476Y-93388152D02*
X134285714Y-93435771D01*
X134714286Y-94054819D02*
X134714286Y-93054819D01*
X134809524Y-93673866D02*
X135095238Y-94054819D01*
X135095238Y-93388152D02*
X134714286Y-93769104D01*
D12*
X154478572Y-115991984D02*
X154692858Y-116063412D01*
X154692858Y-116063412D02*
X155050000Y-116063412D01*
X155050000Y-116063412D02*
X155192858Y-115991984D01*
X155192858Y-115991984D02*
X155264286Y-115920555D01*
X155264286Y-115920555D02*
X155335715Y-115777698D01*
X155335715Y-115777698D02*
X155335715Y-115634841D01*
X155335715Y-115634841D02*
X155264286Y-115491984D01*
X155264286Y-115491984D02*
X155192858Y-115420555D01*
X155192858Y-115420555D02*
X155050000Y-115349126D01*
X155050000Y-115349126D02*
X154764286Y-115277698D01*
X154764286Y-115277698D02*
X154621429Y-115206269D01*
X154621429Y-115206269D02*
X154550000Y-115134841D01*
X154550000Y-115134841D02*
X154478572Y-114991984D01*
X154478572Y-114991984D02*
X154478572Y-114849126D01*
X154478572Y-114849126D02*
X154550000Y-114706269D01*
X154550000Y-114706269D02*
X154621429Y-114634841D01*
X154621429Y-114634841D02*
X154764286Y-114563412D01*
X154764286Y-114563412D02*
X155121429Y-114563412D01*
X155121429Y-114563412D02*
X155335715Y-114634841D01*
X156550000Y-115991984D02*
X156407143Y-116063412D01*
X156407143Y-116063412D02*
X156121429Y-116063412D01*
X156121429Y-116063412D02*
X155978571Y-115991984D01*
X155978571Y-115991984D02*
X155907143Y-115849126D01*
X155907143Y-115849126D02*
X155907143Y-115277698D01*
X155907143Y-115277698D02*
X155978571Y-115134841D01*
X155978571Y-115134841D02*
X156121429Y-115063412D01*
X156121429Y-115063412D02*
X156407143Y-115063412D01*
X156407143Y-115063412D02*
X156550000Y-115134841D01*
X156550000Y-115134841D02*
X156621429Y-115277698D01*
X156621429Y-115277698D02*
X156621429Y-115420555D01*
X156621429Y-115420555D02*
X155907143Y-115563412D01*
X157264285Y-115063412D02*
X157264285Y-116063412D01*
X157264285Y-115206269D02*
X157335714Y-115134841D01*
X157335714Y-115134841D02*
X157478571Y-115063412D01*
X157478571Y-115063412D02*
X157692857Y-115063412D01*
X157692857Y-115063412D02*
X157835714Y-115134841D01*
X157835714Y-115134841D02*
X157907143Y-115277698D01*
X157907143Y-115277698D02*
X157907143Y-116063412D01*
X158550000Y-115991984D02*
X158692857Y-116063412D01*
X158692857Y-116063412D02*
X158978571Y-116063412D01*
X158978571Y-116063412D02*
X159121428Y-115991984D01*
X159121428Y-115991984D02*
X159192857Y-115849126D01*
X159192857Y-115849126D02*
X159192857Y-115777698D01*
X159192857Y-115777698D02*
X159121428Y-115634841D01*
X159121428Y-115634841D02*
X158978571Y-115563412D01*
X158978571Y-115563412D02*
X158764286Y-115563412D01*
X158764286Y-115563412D02*
X158621428Y-115491984D01*
X158621428Y-115491984D02*
X158550000Y-115349126D01*
X158550000Y-115349126D02*
X158550000Y-115277698D01*
X158550000Y-115277698D02*
X158621428Y-115134841D01*
X158621428Y-115134841D02*
X158764286Y-115063412D01*
X158764286Y-115063412D02*
X158978571Y-115063412D01*
X158978571Y-115063412D02*
X159121428Y-115134841D01*
X160050000Y-116063412D02*
X159907143Y-115991984D01*
X159907143Y-115991984D02*
X159835714Y-115920555D01*
X159835714Y-115920555D02*
X159764286Y-115777698D01*
X159764286Y-115777698D02*
X159764286Y-115349126D01*
X159764286Y-115349126D02*
X159835714Y-115206269D01*
X159835714Y-115206269D02*
X159907143Y-115134841D01*
X159907143Y-115134841D02*
X160050000Y-115063412D01*
X160050000Y-115063412D02*
X160264286Y-115063412D01*
X160264286Y-115063412D02*
X160407143Y-115134841D01*
X160407143Y-115134841D02*
X160478572Y-115206269D01*
X160478572Y-115206269D02*
X160550000Y-115349126D01*
X160550000Y-115349126D02*
X160550000Y-115777698D01*
X160550000Y-115777698D02*
X160478572Y-115920555D01*
X160478572Y-115920555D02*
X160407143Y-115991984D01*
X160407143Y-115991984D02*
X160264286Y-116063412D01*
X160264286Y-116063412D02*
X160050000Y-116063412D01*
X161192857Y-116063412D02*
X161192857Y-115063412D01*
X161192857Y-115349126D02*
X161264286Y-115206269D01*
X161264286Y-115206269D02*
X161335715Y-115134841D01*
X161335715Y-115134841D02*
X161478572Y-115063412D01*
X161478572Y-115063412D02*
X161621429Y-115063412D01*
X162335714Y-116063412D02*
X162192857Y-115991984D01*
X162192857Y-115991984D02*
X162121428Y-115849126D01*
X162121428Y-115849126D02*
X162121428Y-114563412D01*
X163478571Y-115991984D02*
X163335714Y-116063412D01*
X163335714Y-116063412D02*
X163050000Y-116063412D01*
X163050000Y-116063412D02*
X162907142Y-115991984D01*
X162907142Y-115991984D02*
X162835714Y-115849126D01*
X162835714Y-115849126D02*
X162835714Y-115277698D01*
X162835714Y-115277698D02*
X162907142Y-115134841D01*
X162907142Y-115134841D02*
X163050000Y-115063412D01*
X163050000Y-115063412D02*
X163335714Y-115063412D01*
X163335714Y-115063412D02*
X163478571Y-115134841D01*
X163478571Y-115134841D02*
X163550000Y-115277698D01*
X163550000Y-115277698D02*
X163550000Y-115420555D01*
X163550000Y-115420555D02*
X162835714Y-115563412D01*
X164121428Y-115991984D02*
X164264285Y-116063412D01*
X164264285Y-116063412D02*
X164549999Y-116063412D01*
X164549999Y-116063412D02*
X164692856Y-115991984D01*
X164692856Y-115991984D02*
X164764285Y-115849126D01*
X164764285Y-115849126D02*
X164764285Y-115777698D01*
X164764285Y-115777698D02*
X164692856Y-115634841D01*
X164692856Y-115634841D02*
X164549999Y-115563412D01*
X164549999Y-115563412D02*
X164335714Y-115563412D01*
X164335714Y-115563412D02*
X164192856Y-115491984D01*
X164192856Y-115491984D02*
X164121428Y-115349126D01*
X164121428Y-115349126D02*
X164121428Y-115277698D01*
X164121428Y-115277698D02*
X164192856Y-115134841D01*
X164192856Y-115134841D02*
X164335714Y-115063412D01*
X164335714Y-115063412D02*
X164549999Y-115063412D01*
X164549999Y-115063412D02*
X164692856Y-115134841D01*
X165335714Y-115991984D02*
X165478571Y-116063412D01*
X165478571Y-116063412D02*
X165764285Y-116063412D01*
X165764285Y-116063412D02*
X165907142Y-115991984D01*
X165907142Y-115991984D02*
X165978571Y-115849126D01*
X165978571Y-115849126D02*
X165978571Y-115777698D01*
X165978571Y-115777698D02*
X165907142Y-115634841D01*
X165907142Y-115634841D02*
X165764285Y-115563412D01*
X165764285Y-115563412D02*
X165550000Y-115563412D01*
X165550000Y-115563412D02*
X165407142Y-115491984D01*
X165407142Y-115491984D02*
X165335714Y-115349126D01*
X165335714Y-115349126D02*
X165335714Y-115277698D01*
X165335714Y-115277698D02*
X165407142Y-115134841D01*
X165407142Y-115134841D02*
X165550000Y-115063412D01*
X165550000Y-115063412D02*
X165764285Y-115063412D01*
X165764285Y-115063412D02*
X165907142Y-115134841D01*
X155121428Y-117692614D02*
X155335714Y-117764042D01*
X155335714Y-117764042D02*
X155407143Y-117835471D01*
X155407143Y-117835471D02*
X155478571Y-117978328D01*
X155478571Y-117978328D02*
X155478571Y-118192614D01*
X155478571Y-118192614D02*
X155407143Y-118335471D01*
X155407143Y-118335471D02*
X155335714Y-118406900D01*
X155335714Y-118406900D02*
X155192857Y-118478328D01*
X155192857Y-118478328D02*
X154621428Y-118478328D01*
X154621428Y-118478328D02*
X154621428Y-116978328D01*
X154621428Y-116978328D02*
X155121428Y-116978328D01*
X155121428Y-116978328D02*
X155264286Y-117049757D01*
X155264286Y-117049757D02*
X155335714Y-117121185D01*
X155335714Y-117121185D02*
X155407143Y-117264042D01*
X155407143Y-117264042D02*
X155407143Y-117406900D01*
X155407143Y-117406900D02*
X155335714Y-117549757D01*
X155335714Y-117549757D02*
X155264286Y-117621185D01*
X155264286Y-117621185D02*
X155121428Y-117692614D01*
X155121428Y-117692614D02*
X154621428Y-117692614D01*
X156835714Y-118478328D02*
X156121428Y-118478328D01*
X156121428Y-118478328D02*
X156121428Y-116978328D01*
X157335714Y-118478328D02*
X157335714Y-116978328D01*
X157335714Y-116978328D02*
X157692857Y-116978328D01*
X157692857Y-116978328D02*
X157907143Y-117049757D01*
X157907143Y-117049757D02*
X158050000Y-117192614D01*
X158050000Y-117192614D02*
X158121429Y-117335471D01*
X158121429Y-117335471D02*
X158192857Y-117621185D01*
X158192857Y-117621185D02*
X158192857Y-117835471D01*
X158192857Y-117835471D02*
X158121429Y-118121185D01*
X158121429Y-118121185D02*
X158050000Y-118264042D01*
X158050000Y-118264042D02*
X157907143Y-118406900D01*
X157907143Y-118406900D02*
X157692857Y-118478328D01*
X157692857Y-118478328D02*
X157335714Y-118478328D01*
X159692857Y-118335471D02*
X159621429Y-118406900D01*
X159621429Y-118406900D02*
X159407143Y-118478328D01*
X159407143Y-118478328D02*
X159264286Y-118478328D01*
X159264286Y-118478328D02*
X159050000Y-118406900D01*
X159050000Y-118406900D02*
X158907143Y-118264042D01*
X158907143Y-118264042D02*
X158835714Y-118121185D01*
X158835714Y-118121185D02*
X158764286Y-117835471D01*
X158764286Y-117835471D02*
X158764286Y-117621185D01*
X158764286Y-117621185D02*
X158835714Y-117335471D01*
X158835714Y-117335471D02*
X158907143Y-117192614D01*
X158907143Y-117192614D02*
X159050000Y-117049757D01*
X159050000Y-117049757D02*
X159264286Y-116978328D01*
X159264286Y-116978328D02*
X159407143Y-116978328D01*
X159407143Y-116978328D02*
X159621429Y-117049757D01*
X159621429Y-117049757D02*
X159692857Y-117121185D01*
X161478571Y-118478328D02*
X161478571Y-116978328D01*
X161478571Y-116978328D02*
X161978571Y-118049757D01*
X161978571Y-118049757D02*
X162478571Y-116978328D01*
X162478571Y-116978328D02*
X162478571Y-118478328D01*
X163407143Y-118478328D02*
X163264286Y-118406900D01*
X163264286Y-118406900D02*
X163192857Y-118335471D01*
X163192857Y-118335471D02*
X163121429Y-118192614D01*
X163121429Y-118192614D02*
X163121429Y-117764042D01*
X163121429Y-117764042D02*
X163192857Y-117621185D01*
X163192857Y-117621185D02*
X163264286Y-117549757D01*
X163264286Y-117549757D02*
X163407143Y-117478328D01*
X163407143Y-117478328D02*
X163621429Y-117478328D01*
X163621429Y-117478328D02*
X163764286Y-117549757D01*
X163764286Y-117549757D02*
X163835715Y-117621185D01*
X163835715Y-117621185D02*
X163907143Y-117764042D01*
X163907143Y-117764042D02*
X163907143Y-118192614D01*
X163907143Y-118192614D02*
X163835715Y-118335471D01*
X163835715Y-118335471D02*
X163764286Y-118406900D01*
X163764286Y-118406900D02*
X163621429Y-118478328D01*
X163621429Y-118478328D02*
X163407143Y-118478328D01*
X164335715Y-117478328D02*
X164907143Y-117478328D01*
X164550000Y-116978328D02*
X164550000Y-118264042D01*
X164550000Y-118264042D02*
X164621429Y-118406900D01*
X164621429Y-118406900D02*
X164764286Y-118478328D01*
X164764286Y-118478328D02*
X164907143Y-118478328D01*
X165621429Y-118478328D02*
X165478572Y-118406900D01*
X165478572Y-118406900D02*
X165407143Y-118335471D01*
X165407143Y-118335471D02*
X165335715Y-118192614D01*
X165335715Y-118192614D02*
X165335715Y-117764042D01*
X165335715Y-117764042D02*
X165407143Y-117621185D01*
X165407143Y-117621185D02*
X165478572Y-117549757D01*
X165478572Y-117549757D02*
X165621429Y-117478328D01*
X165621429Y-117478328D02*
X165835715Y-117478328D01*
X165835715Y-117478328D02*
X165978572Y-117549757D01*
X165978572Y-117549757D02*
X166050001Y-117621185D01*
X166050001Y-117621185D02*
X166121429Y-117764042D01*
X166121429Y-117764042D02*
X166121429Y-118192614D01*
X166121429Y-118192614D02*
X166050001Y-118335471D01*
X166050001Y-118335471D02*
X165978572Y-118406900D01*
X165978572Y-118406900D02*
X165835715Y-118478328D01*
X165835715Y-118478328D02*
X165621429Y-118478328D01*
X166764286Y-118478328D02*
X166764286Y-117478328D01*
X166764286Y-117764042D02*
X166835715Y-117621185D01*
X166835715Y-117621185D02*
X166907144Y-117549757D01*
X166907144Y-117549757D02*
X167050001Y-117478328D01*
X167050001Y-117478328D02*
X167192858Y-117478328D01*
X158371428Y-120893244D02*
X158371428Y-119393244D01*
X158371428Y-119393244D02*
X158728571Y-119393244D01*
X158728571Y-119393244D02*
X158942857Y-119464673D01*
X158942857Y-119464673D02*
X159085714Y-119607530D01*
X159085714Y-119607530D02*
X159157143Y-119750387D01*
X159157143Y-119750387D02*
X159228571Y-120036101D01*
X159228571Y-120036101D02*
X159228571Y-120250387D01*
X159228571Y-120250387D02*
X159157143Y-120536101D01*
X159157143Y-120536101D02*
X159085714Y-120678958D01*
X159085714Y-120678958D02*
X158942857Y-120821816D01*
X158942857Y-120821816D02*
X158728571Y-120893244D01*
X158728571Y-120893244D02*
X158371428Y-120893244D01*
X159871428Y-120893244D02*
X159871428Y-119893244D01*
X159871428Y-120178958D02*
X159942857Y-120036101D01*
X159942857Y-120036101D02*
X160014286Y-119964673D01*
X160014286Y-119964673D02*
X160157143Y-119893244D01*
X160157143Y-119893244D02*
X160300000Y-119893244D01*
X160799999Y-120893244D02*
X160799999Y-119893244D01*
X160799999Y-119393244D02*
X160728571Y-119464673D01*
X160728571Y-119464673D02*
X160799999Y-119536101D01*
X160799999Y-119536101D02*
X160871428Y-119464673D01*
X160871428Y-119464673D02*
X160799999Y-119393244D01*
X160799999Y-119393244D02*
X160799999Y-119536101D01*
X161371428Y-119893244D02*
X161728571Y-120893244D01*
X161728571Y-120893244D02*
X162085714Y-119893244D01*
X163228571Y-120821816D02*
X163085714Y-120893244D01*
X163085714Y-120893244D02*
X162800000Y-120893244D01*
X162800000Y-120893244D02*
X162657142Y-120821816D01*
X162657142Y-120821816D02*
X162585714Y-120678958D01*
X162585714Y-120678958D02*
X162585714Y-120107530D01*
X162585714Y-120107530D02*
X162657142Y-119964673D01*
X162657142Y-119964673D02*
X162800000Y-119893244D01*
X162800000Y-119893244D02*
X163085714Y-119893244D01*
X163085714Y-119893244D02*
X163228571Y-119964673D01*
X163228571Y-119964673D02*
X163300000Y-120107530D01*
X163300000Y-120107530D02*
X163300000Y-120250387D01*
X163300000Y-120250387D02*
X162585714Y-120393244D01*
D10*
X132709523Y-76099838D02*
X132614285Y-76052219D01*
X132614285Y-76052219D02*
X132471428Y-76052219D01*
X132471428Y-76052219D02*
X132328571Y-76099838D01*
X132328571Y-76099838D02*
X132233333Y-76195076D01*
X132233333Y-76195076D02*
X132185714Y-76290314D01*
X132185714Y-76290314D02*
X132138095Y-76480790D01*
X132138095Y-76480790D02*
X132138095Y-76623647D01*
X132138095Y-76623647D02*
X132185714Y-76814123D01*
X132185714Y-76814123D02*
X132233333Y-76909361D01*
X132233333Y-76909361D02*
X132328571Y-77004600D01*
X132328571Y-77004600D02*
X132471428Y-77052219D01*
X132471428Y-77052219D02*
X132566666Y-77052219D01*
X132566666Y-77052219D02*
X132709523Y-77004600D01*
X132709523Y-77004600D02*
X132757142Y-76956980D01*
X132757142Y-76956980D02*
X132757142Y-76623647D01*
X132757142Y-76623647D02*
X132566666Y-76623647D01*
X133185714Y-77052219D02*
X133185714Y-76052219D01*
X133185714Y-76052219D02*
X133757142Y-77052219D01*
X133757142Y-77052219D02*
X133757142Y-76052219D01*
X134233333Y-77052219D02*
X134233333Y-76052219D01*
X134233333Y-76052219D02*
X134471428Y-76052219D01*
X134471428Y-76052219D02*
X134614285Y-76099838D01*
X134614285Y-76099838D02*
X134709523Y-76195076D01*
X134709523Y-76195076D02*
X134757142Y-76290314D01*
X134757142Y-76290314D02*
X134804761Y-76480790D01*
X134804761Y-76480790D02*
X134804761Y-76623647D01*
X134804761Y-76623647D02*
X134757142Y-76814123D01*
X134757142Y-76814123D02*
X134709523Y-76909361D01*
X134709523Y-76909361D02*
X134614285Y-77004600D01*
X134614285Y-77004600D02*
X134471428Y-77052219D01*
X134471428Y-77052219D02*
X134233333Y-77052219D01*
X135185714Y-76766504D02*
X135661904Y-76766504D01*
X135090476Y-77052219D02*
X135423809Y-76052219D01*
X135423809Y-76052219D02*
X135757142Y-77052219D01*
X161009523Y-110199838D02*
X160914285Y-110152219D01*
X160914285Y-110152219D02*
X160771428Y-110152219D01*
X160771428Y-110152219D02*
X160628571Y-110199838D01*
X160628571Y-110199838D02*
X160533333Y-110295076D01*
X160533333Y-110295076D02*
X160485714Y-110390314D01*
X160485714Y-110390314D02*
X160438095Y-110580790D01*
X160438095Y-110580790D02*
X160438095Y-110723647D01*
X160438095Y-110723647D02*
X160485714Y-110914123D01*
X160485714Y-110914123D02*
X160533333Y-111009361D01*
X160533333Y-111009361D02*
X160628571Y-111104600D01*
X160628571Y-111104600D02*
X160771428Y-111152219D01*
X160771428Y-111152219D02*
X160866666Y-111152219D01*
X160866666Y-111152219D02*
X161009523Y-111104600D01*
X161009523Y-111104600D02*
X161057142Y-111056980D01*
X161057142Y-111056980D02*
X161057142Y-110723647D01*
X161057142Y-110723647D02*
X160866666Y-110723647D01*
X161485714Y-111152219D02*
X161485714Y-110152219D01*
X161485714Y-110152219D02*
X162057142Y-111152219D01*
X162057142Y-111152219D02*
X162057142Y-110152219D01*
X162533333Y-111152219D02*
X162533333Y-110152219D01*
X162533333Y-110152219D02*
X162771428Y-110152219D01*
X162771428Y-110152219D02*
X162914285Y-110199838D01*
X162914285Y-110199838D02*
X163009523Y-110295076D01*
X163009523Y-110295076D02*
X163057142Y-110390314D01*
X163057142Y-110390314D02*
X163104761Y-110580790D01*
X163104761Y-110580790D02*
X163104761Y-110723647D01*
X163104761Y-110723647D02*
X163057142Y-110914123D01*
X163057142Y-110914123D02*
X163009523Y-111009361D01*
X163009523Y-111009361D02*
X162914285Y-111104600D01*
X162914285Y-111104600D02*
X162771428Y-111152219D01*
X162771428Y-111152219D02*
X162533333Y-111152219D01*
X163485714Y-110866504D02*
X163961904Y-110866504D01*
X163390476Y-111152219D02*
X163723809Y-110152219D01*
X163723809Y-110152219D02*
X164057142Y-111152219D01*
X160352380Y-108652219D02*
X160352380Y-107652219D01*
X160352380Y-107652219D02*
X160590475Y-107652219D01*
X160590475Y-107652219D02*
X160733332Y-107699838D01*
X160733332Y-107699838D02*
X160828570Y-107795076D01*
X160828570Y-107795076D02*
X160876189Y-107890314D01*
X160876189Y-107890314D02*
X160923808Y-108080790D01*
X160923808Y-108080790D02*
X160923808Y-108223647D01*
X160923808Y-108223647D02*
X160876189Y-108414123D01*
X160876189Y-108414123D02*
X160828570Y-108509361D01*
X160828570Y-108509361D02*
X160733332Y-108604600D01*
X160733332Y-108604600D02*
X160590475Y-108652219D01*
X160590475Y-108652219D02*
X160352380Y-108652219D01*
X161352380Y-108652219D02*
X161352380Y-107985552D01*
X161352380Y-108176028D02*
X161399999Y-108080790D01*
X161399999Y-108080790D02*
X161447618Y-108033171D01*
X161447618Y-108033171D02*
X161542856Y-107985552D01*
X161542856Y-107985552D02*
X161638094Y-107985552D01*
X161876190Y-107985552D02*
X162114285Y-108652219D01*
X162114285Y-108652219D02*
X162352380Y-107985552D01*
X162923809Y-107652219D02*
X163114285Y-107652219D01*
X163114285Y-107652219D02*
X163209523Y-107699838D01*
X163209523Y-107699838D02*
X163304761Y-107795076D01*
X163304761Y-107795076D02*
X163352380Y-107985552D01*
X163352380Y-107985552D02*
X163352380Y-108318885D01*
X163352380Y-108318885D02*
X163304761Y-108509361D01*
X163304761Y-108509361D02*
X163209523Y-108604600D01*
X163209523Y-108604600D02*
X163114285Y-108652219D01*
X163114285Y-108652219D02*
X162923809Y-108652219D01*
X162923809Y-108652219D02*
X162828571Y-108604600D01*
X162828571Y-108604600D02*
X162733333Y-108509361D01*
X162733333Y-108509361D02*
X162685714Y-108318885D01*
X162685714Y-108318885D02*
X162685714Y-107985552D01*
X162685714Y-107985552D02*
X162733333Y-107795076D01*
X162733333Y-107795076D02*
X162828571Y-107699838D01*
X162828571Y-107699838D02*
X162923809Y-107652219D01*
X163638095Y-107985552D02*
X164019047Y-107985552D01*
X163780952Y-108652219D02*
X163780952Y-107795076D01*
X163780952Y-107795076D02*
X163828571Y-107699838D01*
X163828571Y-107699838D02*
X163923809Y-107652219D01*
X163923809Y-107652219D02*
X164019047Y-107652219D01*
X164209524Y-107985552D02*
X164590476Y-107985552D01*
X164352381Y-108652219D02*
X164352381Y-107795076D01*
X164352381Y-107795076D02*
X164400000Y-107699838D01*
X164400000Y-107699838D02*
X164495238Y-107652219D01*
X164495238Y-107652219D02*
X164590476Y-107652219D01*
D11*
X143559580Y-114766666D02*
X143607200Y-114814285D01*
X143607200Y-114814285D02*
X143654819Y-114957142D01*
X143654819Y-114957142D02*
X143654819Y-115052380D01*
X143654819Y-115052380D02*
X143607200Y-115195237D01*
X143607200Y-115195237D02*
X143511961Y-115290475D01*
X143511961Y-115290475D02*
X143416723Y-115338094D01*
X143416723Y-115338094D02*
X143226247Y-115385713D01*
X143226247Y-115385713D02*
X143083390Y-115385713D01*
X143083390Y-115385713D02*
X142892914Y-115338094D01*
X142892914Y-115338094D02*
X142797676Y-115290475D01*
X142797676Y-115290475D02*
X142702438Y-115195237D01*
X142702438Y-115195237D02*
X142654819Y-115052380D01*
X142654819Y-115052380D02*
X142654819Y-114957142D01*
X142654819Y-114957142D02*
X142702438Y-114814285D01*
X142702438Y-114814285D02*
X142750057Y-114766666D01*
X142750057Y-114385713D02*
X142702438Y-114338094D01*
X142702438Y-114338094D02*
X142654819Y-114242856D01*
X142654819Y-114242856D02*
X142654819Y-114004761D01*
X142654819Y-114004761D02*
X142702438Y-113909523D01*
X142702438Y-113909523D02*
X142750057Y-113861904D01*
X142750057Y-113861904D02*
X142845295Y-113814285D01*
X142845295Y-113814285D02*
X142940533Y-113814285D01*
X142940533Y-113814285D02*
X143083390Y-113861904D01*
X143083390Y-113861904D02*
X143654819Y-114433332D01*
X143654819Y-114433332D02*
X143654819Y-113814285D01*
X160933333Y-99404819D02*
X160600000Y-98928628D01*
X160361905Y-99404819D02*
X160361905Y-98404819D01*
X160361905Y-98404819D02*
X160742857Y-98404819D01*
X160742857Y-98404819D02*
X160838095Y-98452438D01*
X160838095Y-98452438D02*
X160885714Y-98500057D01*
X160885714Y-98500057D02*
X160933333Y-98595295D01*
X160933333Y-98595295D02*
X160933333Y-98738152D01*
X160933333Y-98738152D02*
X160885714Y-98833390D01*
X160885714Y-98833390D02*
X160838095Y-98881009D01*
X160838095Y-98881009D02*
X160742857Y-98928628D01*
X160742857Y-98928628D02*
X160361905Y-98928628D01*
X161790476Y-98738152D02*
X161790476Y-99404819D01*
X161552381Y-98357200D02*
X161314286Y-99071485D01*
X161314286Y-99071485D02*
X161933333Y-99071485D01*
X144804819Y-86966666D02*
X144328628Y-87299999D01*
X144804819Y-87538094D02*
X143804819Y-87538094D01*
X143804819Y-87538094D02*
X143804819Y-87157142D01*
X143804819Y-87157142D02*
X143852438Y-87061904D01*
X143852438Y-87061904D02*
X143900057Y-87014285D01*
X143900057Y-87014285D02*
X143995295Y-86966666D01*
X143995295Y-86966666D02*
X144138152Y-86966666D01*
X144138152Y-86966666D02*
X144233390Y-87014285D01*
X144233390Y-87014285D02*
X144281009Y-87061904D01*
X144281009Y-87061904D02*
X144328628Y-87157142D01*
X144328628Y-87157142D02*
X144328628Y-87538094D01*
X143900057Y-86585713D02*
X143852438Y-86538094D01*
X143852438Y-86538094D02*
X143804819Y-86442856D01*
X143804819Y-86442856D02*
X143804819Y-86204761D01*
X143804819Y-86204761D02*
X143852438Y-86109523D01*
X143852438Y-86109523D02*
X143900057Y-86061904D01*
X143900057Y-86061904D02*
X143995295Y-86014285D01*
X143995295Y-86014285D02*
X144090533Y-86014285D01*
X144090533Y-86014285D02*
X144233390Y-86061904D01*
X144233390Y-86061904D02*
X144804819Y-86633332D01*
X144804819Y-86633332D02*
X144804819Y-86014285D01*
X138561666Y-89899819D02*
X138561666Y-90614104D01*
X138561666Y-90614104D02*
X138514047Y-90756961D01*
X138514047Y-90756961D02*
X138418809Y-90852200D01*
X138418809Y-90852200D02*
X138275952Y-90899819D01*
X138275952Y-90899819D02*
X138180714Y-90899819D01*
X139514047Y-89899819D02*
X139037857Y-89899819D01*
X139037857Y-89899819D02*
X138990238Y-90376009D01*
X138990238Y-90376009D02*
X139037857Y-90328390D01*
X139037857Y-90328390D02*
X139133095Y-90280771D01*
X139133095Y-90280771D02*
X139371190Y-90280771D01*
X139371190Y-90280771D02*
X139466428Y-90328390D01*
X139466428Y-90328390D02*
X139514047Y-90376009D01*
X139514047Y-90376009D02*
X139561666Y-90471247D01*
X139561666Y-90471247D02*
X139561666Y-90709342D01*
X139561666Y-90709342D02*
X139514047Y-90804580D01*
X139514047Y-90804580D02*
X139466428Y-90852200D01*
X139466428Y-90852200D02*
X139371190Y-90899819D01*
X139371190Y-90899819D02*
X139133095Y-90899819D01*
X139133095Y-90899819D02*
X139037857Y-90852200D01*
X139037857Y-90852200D02*
X138990238Y-90804580D01*
X140566666Y-117254819D02*
X140566666Y-117969104D01*
X140566666Y-117969104D02*
X140519047Y-118111961D01*
X140519047Y-118111961D02*
X140423809Y-118207200D01*
X140423809Y-118207200D02*
X140280952Y-118254819D01*
X140280952Y-118254819D02*
X140185714Y-118254819D01*
X140995238Y-117350057D02*
X141042857Y-117302438D01*
X141042857Y-117302438D02*
X141138095Y-117254819D01*
X141138095Y-117254819D02*
X141376190Y-117254819D01*
X141376190Y-117254819D02*
X141471428Y-117302438D01*
X141471428Y-117302438D02*
X141519047Y-117350057D01*
X141519047Y-117350057D02*
X141566666Y-117445295D01*
X141566666Y-117445295D02*
X141566666Y-117540533D01*
X141566666Y-117540533D02*
X141519047Y-117683390D01*
X141519047Y-117683390D02*
X140947619Y-118254819D01*
X140947619Y-118254819D02*
X141566666Y-118254819D01*
X141566666Y-68454819D02*
X141566666Y-69169104D01*
X141566666Y-69169104D02*
X141519047Y-69311961D01*
X141519047Y-69311961D02*
X141423809Y-69407200D01*
X141423809Y-69407200D02*
X141280952Y-69454819D01*
X141280952Y-69454819D02*
X141185714Y-69454819D01*
X142566666Y-69454819D02*
X141995238Y-69454819D01*
X142280952Y-69454819D02*
X142280952Y-68454819D01*
X142280952Y-68454819D02*
X142185714Y-68597676D01*
X142185714Y-68597676D02*
X142090476Y-68692914D01*
X142090476Y-68692914D02*
X141995238Y-68740533D01*
X152779580Y-95866666D02*
X152827200Y-95914285D01*
X152827200Y-95914285D02*
X152874819Y-96057142D01*
X152874819Y-96057142D02*
X152874819Y-96152380D01*
X152874819Y-96152380D02*
X152827200Y-96295237D01*
X152827200Y-96295237D02*
X152731961Y-96390475D01*
X152731961Y-96390475D02*
X152636723Y-96438094D01*
X152636723Y-96438094D02*
X152446247Y-96485713D01*
X152446247Y-96485713D02*
X152303390Y-96485713D01*
X152303390Y-96485713D02*
X152112914Y-96438094D01*
X152112914Y-96438094D02*
X152017676Y-96390475D01*
X152017676Y-96390475D02*
X151922438Y-96295237D01*
X151922438Y-96295237D02*
X151874819Y-96152380D01*
X151874819Y-96152380D02*
X151874819Y-96057142D01*
X151874819Y-96057142D02*
X151922438Y-95914285D01*
X151922438Y-95914285D02*
X151970057Y-95866666D01*
X151874819Y-95533332D02*
X151874819Y-94866666D01*
X151874819Y-94866666D02*
X152874819Y-95295237D01*
X129666666Y-73684819D02*
X129666666Y-74399104D01*
X129666666Y-74399104D02*
X129619047Y-74541961D01*
X129619047Y-74541961D02*
X129523809Y-74637200D01*
X129523809Y-74637200D02*
X129380952Y-74684819D01*
X129380952Y-74684819D02*
X129285714Y-74684819D01*
X130571428Y-73684819D02*
X130380952Y-73684819D01*
X130380952Y-73684819D02*
X130285714Y-73732438D01*
X130285714Y-73732438D02*
X130238095Y-73780057D01*
X130238095Y-73780057D02*
X130142857Y-73922914D01*
X130142857Y-73922914D02*
X130095238Y-74113390D01*
X130095238Y-74113390D02*
X130095238Y-74494342D01*
X130095238Y-74494342D02*
X130142857Y-74589580D01*
X130142857Y-74589580D02*
X130190476Y-74637200D01*
X130190476Y-74637200D02*
X130285714Y-74684819D01*
X130285714Y-74684819D02*
X130476190Y-74684819D01*
X130476190Y-74684819D02*
X130571428Y-74637200D01*
X130571428Y-74637200D02*
X130619047Y-74589580D01*
X130619047Y-74589580D02*
X130666666Y-74494342D01*
X130666666Y-74494342D02*
X130666666Y-74256247D01*
X130666666Y-74256247D02*
X130619047Y-74161009D01*
X130619047Y-74161009D02*
X130571428Y-74113390D01*
X130571428Y-74113390D02*
X130476190Y-74065771D01*
X130476190Y-74065771D02*
X130285714Y-74065771D01*
X130285714Y-74065771D02*
X130190476Y-74113390D01*
X130190476Y-74113390D02*
X130142857Y-74161009D01*
X130142857Y-74161009D02*
X130095238Y-74256247D01*
X148179580Y-95866666D02*
X148227200Y-95914285D01*
X148227200Y-95914285D02*
X148274819Y-96057142D01*
X148274819Y-96057142D02*
X148274819Y-96152380D01*
X148274819Y-96152380D02*
X148227200Y-96295237D01*
X148227200Y-96295237D02*
X148131961Y-96390475D01*
X148131961Y-96390475D02*
X148036723Y-96438094D01*
X148036723Y-96438094D02*
X147846247Y-96485713D01*
X147846247Y-96485713D02*
X147703390Y-96485713D01*
X147703390Y-96485713D02*
X147512914Y-96438094D01*
X147512914Y-96438094D02*
X147417676Y-96390475D01*
X147417676Y-96390475D02*
X147322438Y-96295237D01*
X147322438Y-96295237D02*
X147274819Y-96152380D01*
X147274819Y-96152380D02*
X147274819Y-96057142D01*
X147274819Y-96057142D02*
X147322438Y-95914285D01*
X147322438Y-95914285D02*
X147370057Y-95866666D01*
X147274819Y-95009523D02*
X147274819Y-95199999D01*
X147274819Y-95199999D02*
X147322438Y-95295237D01*
X147322438Y-95295237D02*
X147370057Y-95342856D01*
X147370057Y-95342856D02*
X147512914Y-95438094D01*
X147512914Y-95438094D02*
X147703390Y-95485713D01*
X147703390Y-95485713D02*
X148084342Y-95485713D01*
X148084342Y-95485713D02*
X148179580Y-95438094D01*
X148179580Y-95438094D02*
X148227200Y-95390475D01*
X148227200Y-95390475D02*
X148274819Y-95295237D01*
X148274819Y-95295237D02*
X148274819Y-95104761D01*
X148274819Y-95104761D02*
X148227200Y-95009523D01*
X148227200Y-95009523D02*
X148179580Y-94961904D01*
X148179580Y-94961904D02*
X148084342Y-94914285D01*
X148084342Y-94914285D02*
X147846247Y-94914285D01*
X147846247Y-94914285D02*
X147751009Y-94961904D01*
X147751009Y-94961904D02*
X147703390Y-95009523D01*
X147703390Y-95009523D02*
X147655771Y-95104761D01*
X147655771Y-95104761D02*
X147655771Y-95295237D01*
X147655771Y-95295237D02*
X147703390Y-95390475D01*
X147703390Y-95390475D02*
X147751009Y-95438094D01*
X147751009Y-95438094D02*
X147846247Y-95485713D01*
X129666666Y-83124819D02*
X129666666Y-83839104D01*
X129666666Y-83839104D02*
X129619047Y-83981961D01*
X129619047Y-83981961D02*
X129523809Y-84077200D01*
X129523809Y-84077200D02*
X129380952Y-84124819D01*
X129380952Y-84124819D02*
X129285714Y-84124819D01*
X130047619Y-83124819D02*
X130714285Y-83124819D01*
X130714285Y-83124819D02*
X130285714Y-84124819D01*
X165866666Y-112459819D02*
X165866666Y-113174104D01*
X165866666Y-113174104D02*
X165819047Y-113316961D01*
X165819047Y-113316961D02*
X165723809Y-113412200D01*
X165723809Y-113412200D02*
X165580952Y-113459819D01*
X165580952Y-113459819D02*
X165485714Y-113459819D01*
X166247619Y-112459819D02*
X166866666Y-112459819D01*
X166866666Y-112459819D02*
X166533333Y-112840771D01*
X166533333Y-112840771D02*
X166676190Y-112840771D01*
X166676190Y-112840771D02*
X166771428Y-112888390D01*
X166771428Y-112888390D02*
X166819047Y-112936009D01*
X166819047Y-112936009D02*
X166866666Y-113031247D01*
X166866666Y-113031247D02*
X166866666Y-113269342D01*
X166866666Y-113269342D02*
X166819047Y-113364580D01*
X166819047Y-113364580D02*
X166771428Y-113412200D01*
X166771428Y-113412200D02*
X166676190Y-113459819D01*
X166676190Y-113459819D02*
X166390476Y-113459819D01*
X166390476Y-113459819D02*
X166295238Y-113412200D01*
X166295238Y-113412200D02*
X166247619Y-113364580D01*
X152904819Y-102766666D02*
X152428628Y-103099999D01*
X152904819Y-103338094D02*
X151904819Y-103338094D01*
X151904819Y-103338094D02*
X151904819Y-102957142D01*
X151904819Y-102957142D02*
X151952438Y-102861904D01*
X151952438Y-102861904D02*
X152000057Y-102814285D01*
X152000057Y-102814285D02*
X152095295Y-102766666D01*
X152095295Y-102766666D02*
X152238152Y-102766666D01*
X152238152Y-102766666D02*
X152333390Y-102814285D01*
X152333390Y-102814285D02*
X152381009Y-102861904D01*
X152381009Y-102861904D02*
X152428628Y-102957142D01*
X152428628Y-102957142D02*
X152428628Y-103338094D01*
X152904819Y-101814285D02*
X152904819Y-102385713D01*
X152904819Y-102099999D02*
X151904819Y-102099999D01*
X151904819Y-102099999D02*
X152047676Y-102195237D01*
X152047676Y-102195237D02*
X152142914Y-102290475D01*
X152142914Y-102290475D02*
X152190533Y-102385713D01*
X146534819Y-88738094D02*
X145534819Y-88738094D01*
X145534819Y-88738094D02*
X145534819Y-88499999D01*
X145534819Y-88499999D02*
X145582438Y-88357142D01*
X145582438Y-88357142D02*
X145677676Y-88261904D01*
X145677676Y-88261904D02*
X145772914Y-88214285D01*
X145772914Y-88214285D02*
X145963390Y-88166666D01*
X145963390Y-88166666D02*
X146106247Y-88166666D01*
X146106247Y-88166666D02*
X146296723Y-88214285D01*
X146296723Y-88214285D02*
X146391961Y-88261904D01*
X146391961Y-88261904D02*
X146487200Y-88357142D01*
X146487200Y-88357142D02*
X146534819Y-88499999D01*
X146534819Y-88499999D02*
X146534819Y-88738094D01*
X146534819Y-87214285D02*
X146534819Y-87785713D01*
X146534819Y-87499999D02*
X145534819Y-87499999D01*
X145534819Y-87499999D02*
X145677676Y-87595237D01*
X145677676Y-87595237D02*
X145772914Y-87690475D01*
X145772914Y-87690475D02*
X145820533Y-87785713D01*
X145659580Y-91366666D02*
X145707200Y-91414285D01*
X145707200Y-91414285D02*
X145754819Y-91557142D01*
X145754819Y-91557142D02*
X145754819Y-91652380D01*
X145754819Y-91652380D02*
X145707200Y-91795237D01*
X145707200Y-91795237D02*
X145611961Y-91890475D01*
X145611961Y-91890475D02*
X145516723Y-91938094D01*
X145516723Y-91938094D02*
X145326247Y-91985713D01*
X145326247Y-91985713D02*
X145183390Y-91985713D01*
X145183390Y-91985713D02*
X144992914Y-91938094D01*
X144992914Y-91938094D02*
X144897676Y-91890475D01*
X144897676Y-91890475D02*
X144802438Y-91795237D01*
X144802438Y-91795237D02*
X144754819Y-91652380D01*
X144754819Y-91652380D02*
X144754819Y-91557142D01*
X144754819Y-91557142D02*
X144802438Y-91414285D01*
X144802438Y-91414285D02*
X144850057Y-91366666D01*
X144754819Y-90461904D02*
X144754819Y-90938094D01*
X144754819Y-90938094D02*
X145231009Y-90985713D01*
X145231009Y-90985713D02*
X145183390Y-90938094D01*
X145183390Y-90938094D02*
X145135771Y-90842856D01*
X145135771Y-90842856D02*
X145135771Y-90604761D01*
X145135771Y-90604761D02*
X145183390Y-90509523D01*
X145183390Y-90509523D02*
X145231009Y-90461904D01*
X145231009Y-90461904D02*
X145326247Y-90414285D01*
X145326247Y-90414285D02*
X145564342Y-90414285D01*
X145564342Y-90414285D02*
X145659580Y-90461904D01*
X145659580Y-90461904D02*
X145707200Y-90509523D01*
X145707200Y-90509523D02*
X145754819Y-90604761D01*
X145754819Y-90604761D02*
X145754819Y-90842856D01*
X145754819Y-90842856D02*
X145707200Y-90938094D01*
X145707200Y-90938094D02*
X145659580Y-90985713D01*
X165866666Y-79099819D02*
X165866666Y-79814104D01*
X165866666Y-79814104D02*
X165819047Y-79956961D01*
X165819047Y-79956961D02*
X165723809Y-80052200D01*
X165723809Y-80052200D02*
X165580952Y-80099819D01*
X165580952Y-80099819D02*
X165485714Y-80099819D01*
X166771428Y-79433152D02*
X166771428Y-80099819D01*
X166533333Y-79052200D02*
X166295238Y-79766485D01*
X166295238Y-79766485D02*
X166914285Y-79766485D01*
X147568095Y-102284819D02*
X147568095Y-103094342D01*
X147568095Y-103094342D02*
X147615714Y-103189580D01*
X147615714Y-103189580D02*
X147663333Y-103237200D01*
X147663333Y-103237200D02*
X147758571Y-103284819D01*
X147758571Y-103284819D02*
X147949047Y-103284819D01*
X147949047Y-103284819D02*
X148044285Y-103237200D01*
X148044285Y-103237200D02*
X148091904Y-103189580D01*
X148091904Y-103189580D02*
X148139523Y-103094342D01*
X148139523Y-103094342D02*
X148139523Y-102284819D01*
X149139523Y-103284819D02*
X148568095Y-103284819D01*
X148853809Y-103284819D02*
X148853809Y-102284819D01*
X148853809Y-102284819D02*
X148758571Y-102427676D01*
X148758571Y-102427676D02*
X148663333Y-102522914D01*
X148663333Y-102522914D02*
X148568095Y-102570533D01*
X128833333Y-105054819D02*
X128500000Y-104578628D01*
X128261905Y-105054819D02*
X128261905Y-104054819D01*
X128261905Y-104054819D02*
X128642857Y-104054819D01*
X128642857Y-104054819D02*
X128738095Y-104102438D01*
X128738095Y-104102438D02*
X128785714Y-104150057D01*
X128785714Y-104150057D02*
X128833333Y-104245295D01*
X128833333Y-104245295D02*
X128833333Y-104388152D01*
X128833333Y-104388152D02*
X128785714Y-104483390D01*
X128785714Y-104483390D02*
X128738095Y-104531009D01*
X128738095Y-104531009D02*
X128642857Y-104578628D01*
X128642857Y-104578628D02*
X128261905Y-104578628D01*
X129166667Y-104054819D02*
X129785714Y-104054819D01*
X129785714Y-104054819D02*
X129452381Y-104435771D01*
X129452381Y-104435771D02*
X129595238Y-104435771D01*
X129595238Y-104435771D02*
X129690476Y-104483390D01*
X129690476Y-104483390D02*
X129738095Y-104531009D01*
X129738095Y-104531009D02*
X129785714Y-104626247D01*
X129785714Y-104626247D02*
X129785714Y-104864342D01*
X129785714Y-104864342D02*
X129738095Y-104959580D01*
X129738095Y-104959580D02*
X129690476Y-105007200D01*
X129690476Y-105007200D02*
X129595238Y-105054819D01*
X129595238Y-105054819D02*
X129309524Y-105054819D01*
X129309524Y-105054819D02*
X129214286Y-105007200D01*
X129214286Y-105007200D02*
X129166667Y-104959580D01*
X129233333Y-109454819D02*
X128757143Y-109454819D01*
X128757143Y-109454819D02*
X128757143Y-108454819D01*
X129519048Y-108550057D02*
X129566667Y-108502438D01*
X129566667Y-108502438D02*
X129661905Y-108454819D01*
X129661905Y-108454819D02*
X129900000Y-108454819D01*
X129900000Y-108454819D02*
X129995238Y-108502438D01*
X129995238Y-108502438D02*
X130042857Y-108550057D01*
X130042857Y-108550057D02*
X130090476Y-108645295D01*
X130090476Y-108645295D02*
X130090476Y-108740533D01*
X130090476Y-108740533D02*
X130042857Y-108883390D01*
X130042857Y-108883390D02*
X129471429Y-109454819D01*
X129471429Y-109454819D02*
X130090476Y-109454819D01*
X138459580Y-106266666D02*
X138507200Y-106314285D01*
X138507200Y-106314285D02*
X138554819Y-106457142D01*
X138554819Y-106457142D02*
X138554819Y-106552380D01*
X138554819Y-106552380D02*
X138507200Y-106695237D01*
X138507200Y-106695237D02*
X138411961Y-106790475D01*
X138411961Y-106790475D02*
X138316723Y-106838094D01*
X138316723Y-106838094D02*
X138126247Y-106885713D01*
X138126247Y-106885713D02*
X137983390Y-106885713D01*
X137983390Y-106885713D02*
X137792914Y-106838094D01*
X137792914Y-106838094D02*
X137697676Y-106790475D01*
X137697676Y-106790475D02*
X137602438Y-106695237D01*
X137602438Y-106695237D02*
X137554819Y-106552380D01*
X137554819Y-106552380D02*
X137554819Y-106457142D01*
X137554819Y-106457142D02*
X137602438Y-106314285D01*
X137602438Y-106314285D02*
X137650057Y-106266666D01*
X137888152Y-105409523D02*
X138554819Y-105409523D01*
X137507200Y-105647618D02*
X138221485Y-105885713D01*
X138221485Y-105885713D02*
X138221485Y-105266666D01*
X162354819Y-107066666D02*
X161878628Y-107399999D01*
X162354819Y-107638094D02*
X161354819Y-107638094D01*
X161354819Y-107638094D02*
X161354819Y-107257142D01*
X161354819Y-107257142D02*
X161402438Y-107161904D01*
X161402438Y-107161904D02*
X161450057Y-107114285D01*
X161450057Y-107114285D02*
X161545295Y-107066666D01*
X161545295Y-107066666D02*
X161688152Y-107066666D01*
X161688152Y-107066666D02*
X161783390Y-107114285D01*
X161783390Y-107114285D02*
X161831009Y-107161904D01*
X161831009Y-107161904D02*
X161878628Y-107257142D01*
X161878628Y-107257142D02*
X161878628Y-107638094D01*
X161354819Y-106161904D02*
X161354819Y-106638094D01*
X161354819Y-106638094D02*
X161831009Y-106685713D01*
X161831009Y-106685713D02*
X161783390Y-106638094D01*
X161783390Y-106638094D02*
X161735771Y-106542856D01*
X161735771Y-106542856D02*
X161735771Y-106304761D01*
X161735771Y-106304761D02*
X161783390Y-106209523D01*
X161783390Y-106209523D02*
X161831009Y-106161904D01*
X161831009Y-106161904D02*
X161926247Y-106114285D01*
X161926247Y-106114285D02*
X162164342Y-106114285D01*
X162164342Y-106114285D02*
X162259580Y-106161904D01*
X162259580Y-106161904D02*
X162307200Y-106209523D01*
X162307200Y-106209523D02*
X162354819Y-106304761D01*
X162354819Y-106304761D02*
X162354819Y-106542856D01*
X162354819Y-106542856D02*
X162307200Y-106638094D01*
X162307200Y-106638094D02*
X162259580Y-106685713D01*
X129433333Y-100454819D02*
X128957143Y-100454819D01*
X128957143Y-100454819D02*
X128957143Y-99454819D01*
X130290476Y-100454819D02*
X129719048Y-100454819D01*
X130004762Y-100454819D02*
X130004762Y-99454819D01*
X130004762Y-99454819D02*
X129909524Y-99597676D01*
X129909524Y-99597676D02*
X129814286Y-99692914D01*
X129814286Y-99692914D02*
X129719048Y-99740533D01*
X138933333Y-108959580D02*
X138885714Y-109007200D01*
X138885714Y-109007200D02*
X138742857Y-109054819D01*
X138742857Y-109054819D02*
X138647619Y-109054819D01*
X138647619Y-109054819D02*
X138504762Y-109007200D01*
X138504762Y-109007200D02*
X138409524Y-108911961D01*
X138409524Y-108911961D02*
X138361905Y-108816723D01*
X138361905Y-108816723D02*
X138314286Y-108626247D01*
X138314286Y-108626247D02*
X138314286Y-108483390D01*
X138314286Y-108483390D02*
X138361905Y-108292914D01*
X138361905Y-108292914D02*
X138409524Y-108197676D01*
X138409524Y-108197676D02*
X138504762Y-108102438D01*
X138504762Y-108102438D02*
X138647619Y-108054819D01*
X138647619Y-108054819D02*
X138742857Y-108054819D01*
X138742857Y-108054819D02*
X138885714Y-108102438D01*
X138885714Y-108102438D02*
X138933333Y-108150057D01*
X139266667Y-108054819D02*
X139885714Y-108054819D01*
X139885714Y-108054819D02*
X139552381Y-108435771D01*
X139552381Y-108435771D02*
X139695238Y-108435771D01*
X139695238Y-108435771D02*
X139790476Y-108483390D01*
X139790476Y-108483390D02*
X139838095Y-108531009D01*
X139838095Y-108531009D02*
X139885714Y-108626247D01*
X139885714Y-108626247D02*
X139885714Y-108864342D01*
X139885714Y-108864342D02*
X139838095Y-108959580D01*
X139838095Y-108959580D02*
X139790476Y-109007200D01*
X139790476Y-109007200D02*
X139695238Y-109054819D01*
X139695238Y-109054819D02*
X139409524Y-109054819D01*
X139409524Y-109054819D02*
X139314286Y-109007200D01*
X139314286Y-109007200D02*
X139266667Y-108959580D01*
X141659580Y-113166666D02*
X141707200Y-113214285D01*
X141707200Y-113214285D02*
X141754819Y-113357142D01*
X141754819Y-113357142D02*
X141754819Y-113452380D01*
X141754819Y-113452380D02*
X141707200Y-113595237D01*
X141707200Y-113595237D02*
X141611961Y-113690475D01*
X141611961Y-113690475D02*
X141516723Y-113738094D01*
X141516723Y-113738094D02*
X141326247Y-113785713D01*
X141326247Y-113785713D02*
X141183390Y-113785713D01*
X141183390Y-113785713D02*
X140992914Y-113738094D01*
X140992914Y-113738094D02*
X140897676Y-113690475D01*
X140897676Y-113690475D02*
X140802438Y-113595237D01*
X140802438Y-113595237D02*
X140754819Y-113452380D01*
X140754819Y-113452380D02*
X140754819Y-113357142D01*
X140754819Y-113357142D02*
X140802438Y-113214285D01*
X140802438Y-113214285D02*
X140850057Y-113166666D01*
X141754819Y-112214285D02*
X141754819Y-112785713D01*
X141754819Y-112499999D02*
X140754819Y-112499999D01*
X140754819Y-112499999D02*
X140897676Y-112595237D01*
X140897676Y-112595237D02*
X140992914Y-112690475D01*
X140992914Y-112690475D02*
X141040533Y-112785713D01*
D13*
%TO.C,C2*%
X143835000Y-111438748D02*
X143835000Y-111961252D01*
X142365000Y-111438748D02*
X142365000Y-111961252D01*
%TO.C,R4*%
X160872936Y-101335000D02*
X161327064Y-101335000D01*
X160872936Y-99865000D02*
X161327064Y-99865000D01*
%TO.C,R2*%
X143435000Y-86572936D02*
X143435000Y-87027064D01*
X141965000Y-86572936D02*
X141965000Y-87027064D01*
%TO.C,J5*%
X136295000Y-92775000D02*
X136295000Y-91445000D01*
X136295000Y-94045000D02*
X138895000Y-94045000D01*
X136295000Y-94045000D02*
X136295000Y-99185000D01*
X136295000Y-91445000D02*
X137625000Y-91445000D01*
X138895000Y-94045000D02*
X138895000Y-91445000D01*
X141495000Y-91445000D02*
X141495000Y-99185000D01*
X136295000Y-99185000D02*
X141495000Y-99185000D01*
X138895000Y-91445000D02*
X141495000Y-91445000D01*
%TO.C,J2*%
X155720000Y-126510000D02*
X155720000Y-118890000D01*
X140480000Y-126510000D02*
X155720000Y-126510000D01*
X140480000Y-126510000D02*
X140480000Y-118890000D01*
X140480000Y-118890000D02*
X155720000Y-118890000D01*
X140480000Y-125240000D02*
X155720000Y-125240000D01*
%TO.C,J1*%
X153180000Y-66990000D02*
X143020000Y-66990000D01*
X143020000Y-68260000D02*
X153180000Y-68260000D01*
X143020000Y-74610000D02*
X153180000Y-74610000D01*
X143020000Y-66990000D02*
X143020000Y-74610000D01*
X153180000Y-74610000D02*
X153180000Y-66990000D01*
%TO.C,C7*%
X153365000Y-95961252D02*
X153365000Y-95438748D01*
X154835000Y-95961252D02*
X154835000Y-95438748D01*
%TO.C,J6*%
X128670000Y-77830000D02*
X128670000Y-82970000D01*
X131330000Y-77830000D02*
X131330000Y-82970000D01*
X128670000Y-76560000D02*
X128670000Y-75230000D01*
X128670000Y-75230000D02*
X130000000Y-75230000D01*
X128670000Y-77830000D02*
X131330000Y-77830000D01*
X128670000Y-82970000D02*
X131330000Y-82970000D01*
%TO.C,C6*%
X150235000Y-95961252D02*
X150235000Y-95438748D01*
X148765000Y-95961252D02*
X148765000Y-95438748D01*
%TO.C,J7*%
X128670000Y-87270000D02*
X131330000Y-87270000D01*
X128670000Y-94950000D02*
X131330000Y-94950000D01*
X131330000Y-87270000D02*
X131330000Y-94950000D01*
X128670000Y-84670000D02*
X130000000Y-84670000D01*
X128670000Y-87270000D02*
X128670000Y-94950000D01*
X128670000Y-86000000D02*
X128670000Y-84670000D01*
%TO.C,J3*%
X164870000Y-109405000D02*
X164870000Y-91565000D01*
X167530000Y-91565000D02*
X164870000Y-91565000D01*
X167530000Y-109405000D02*
X167530000Y-91565000D01*
X167530000Y-112005000D02*
X166200000Y-112005000D01*
X167530000Y-109405000D02*
X164870000Y-109405000D01*
X167530000Y-110675000D02*
X167530000Y-112005000D01*
%TO.C,R1*%
X153365000Y-102827064D02*
X153365000Y-102372936D01*
X154835000Y-102827064D02*
X154835000Y-102372936D01*
%TO.C,D1*%
X146765000Y-86400000D02*
X146765000Y-90460000D01*
X146765000Y-90460000D02*
X149035000Y-90460000D01*
X149035000Y-90460000D02*
X149035000Y-86400000D01*
%TO.C,C5*%
X144390000Y-94388748D02*
X144390000Y-95811252D01*
X146210000Y-94388748D02*
X146210000Y-95811252D01*
%TO.C,J4*%
X164870000Y-83245000D02*
X164870000Y-88385000D01*
X164870000Y-83245000D02*
X167530000Y-83245000D01*
X164870000Y-88385000D02*
X167530000Y-88385000D01*
X164870000Y-81975000D02*
X164870000Y-80645000D01*
X167530000Y-83245000D02*
X167530000Y-88385000D01*
X164870000Y-80645000D02*
X166200000Y-80645000D01*
D14*
%TO.C,G\u002A\u002A\u002A*%
G36*
X159371961Y-80084667D02*
G01*
X159591427Y-80692183D01*
X159790927Y-81250828D01*
X159963320Y-81740094D01*
X160101466Y-82139473D01*
X160198223Y-82428458D01*
X160246450Y-82586542D01*
X160250563Y-82607725D01*
X160199892Y-82671883D01*
X160028220Y-82697577D01*
X159768548Y-82692392D01*
X159284429Y-82667000D01*
X159037849Y-82010833D01*
X158791269Y-81354667D01*
X156964672Y-81354667D01*
X156816949Y-81756833D01*
X156669835Y-82157727D01*
X156563236Y-82427121D01*
X156475491Y-82591021D01*
X156384943Y-82675433D01*
X156269931Y-82706364D01*
X156108796Y-82709819D01*
X156023654Y-82709333D01*
X155743242Y-82692368D01*
X155611546Y-82638391D01*
X155596000Y-82596278D01*
X155622901Y-82490437D01*
X155699020Y-82245553D01*
X155817476Y-81882356D01*
X155971392Y-81421573D01*
X156153888Y-80883935D01*
X156275894Y-80529167D01*
X157206495Y-80529167D01*
X157283573Y-80558648D01*
X157490028Y-80580851D01*
X157785941Y-80592025D01*
X157882000Y-80592667D01*
X158196568Y-80587902D01*
X158433439Y-80575240D01*
X158552542Y-80557130D01*
X158559334Y-80551281D01*
X158533379Y-80460078D01*
X158462421Y-80240264D01*
X158356817Y-79923257D01*
X158226924Y-79540474D01*
X158204954Y-79476319D01*
X157850575Y-78442743D01*
X157529450Y-79454205D01*
X157407084Y-79843994D01*
X157305891Y-80174653D01*
X157235803Y-80413118D01*
X157206755Y-80526325D01*
X157206495Y-80529167D01*
X156275894Y-80529167D01*
X156358087Y-80290169D01*
X156431841Y-80077445D01*
X157267683Y-77671667D01*
X158495462Y-77671667D01*
X159371961Y-80084667D01*
G37*
G36*
X144504667Y-84487333D02*
G01*
X143742667Y-84487333D01*
X143742667Y-79746000D01*
X144504667Y-79746000D01*
X144504667Y-84487333D01*
G37*
G36*
X146113334Y-84487333D02*
G01*
X145266667Y-84487333D01*
X145266667Y-79746000D01*
X146113334Y-79746000D01*
X146113334Y-84487333D01*
G37*
G36*
X153056000Y-79345408D02*
G01*
X153051373Y-80061906D01*
X153034354Y-80632352D01*
X153000238Y-81079851D01*
X152944320Y-81427511D01*
X152861893Y-81698437D01*
X152748252Y-81915736D01*
X152598693Y-82102514D01*
X152468842Y-82228618D01*
X152206837Y-82425211D01*
X151925727Y-82577664D01*
X151813159Y-82618560D01*
X151435648Y-82682840D01*
X150981633Y-82701827D01*
X150524464Y-82676994D01*
X150137487Y-82609816D01*
X150050334Y-82583140D01*
X149693997Y-82383366D01*
X149365939Y-82068146D01*
X149113084Y-81690337D01*
X149002205Y-81402452D01*
X148970708Y-81189871D01*
X148944100Y-80838199D01*
X148923761Y-80377640D01*
X148911073Y-79838398D01*
X148907334Y-79327508D01*
X148907334Y-77629333D01*
X149923334Y-77629333D01*
X149923334Y-79367719D01*
X149926845Y-80044022D01*
X149940389Y-80572607D01*
X149968482Y-80975001D01*
X150015640Y-81272730D01*
X150086380Y-81487319D01*
X150185217Y-81640295D01*
X150316668Y-81753183D01*
X150438685Y-81824135D01*
X150770943Y-81925843D01*
X151130226Y-81926129D01*
X151414465Y-81875810D01*
X151641143Y-81774297D01*
X151816102Y-81604959D01*
X151945184Y-81351168D01*
X152034231Y-80996295D01*
X152089087Y-80523709D01*
X152115593Y-79916782D01*
X152119591Y-79158885D01*
X152119263Y-79111000D01*
X152108671Y-77671667D01*
X152582335Y-77646275D01*
X153056000Y-77620883D01*
X153056000Y-79345408D01*
G37*
G36*
X141795334Y-80254000D02*
G01*
X141326947Y-80254000D01*
X140751899Y-80328241D01*
X140251457Y-80543596D01*
X139845075Y-80889012D01*
X139613245Y-81227667D01*
X139487704Y-81612577D01*
X139465197Y-82057587D01*
X139534680Y-82518504D01*
X139685109Y-82951135D01*
X139905439Y-83311287D01*
X140184627Y-83554769D01*
X140196423Y-83561221D01*
X140273964Y-83589193D01*
X140273462Y-83530238D01*
X140192493Y-83355898D01*
X140176204Y-83323810D01*
X140034635Y-82870242D01*
X140040227Y-82392079D01*
X140182522Y-81926616D01*
X140451062Y-81511145D01*
X140763258Y-81230347D01*
X141008253Y-81080582D01*
X141238350Y-81003569D01*
X141532159Y-80976832D01*
X141655645Y-80975214D01*
X142100708Y-81006466D01*
X142403336Y-81109726D01*
X142578535Y-81294659D01*
X142641310Y-81570932D01*
X142642000Y-81610618D01*
X142627577Y-81846327D01*
X142568355Y-81930993D01*
X142440411Y-81881619D01*
X142350651Y-81817640D01*
X142129938Y-81729875D01*
X141820673Y-81697087D01*
X141494266Y-81718704D01*
X141222127Y-81794150D01*
X141161734Y-81827201D01*
X140942962Y-82058383D01*
X140793918Y-82384067D01*
X140737487Y-82736026D01*
X140772936Y-82986282D01*
X140954604Y-83330410D01*
X141247047Y-83577536D01*
X141662068Y-83733448D01*
X142211475Y-83803938D01*
X142451500Y-83809528D01*
X142980667Y-83810000D01*
X142980667Y-84487333D01*
X141802731Y-84487333D01*
X141332471Y-84486061D01*
X140993174Y-84478120D01*
X140746468Y-84457324D01*
X140553982Y-84417489D01*
X140377346Y-84352429D01*
X140178190Y-84255957D01*
X140092078Y-84211563D01*
X139572623Y-83855272D01*
X139175107Y-83402981D01*
X138904282Y-82880624D01*
X138764900Y-82314133D01*
X138761715Y-81729441D01*
X138899478Y-81152481D01*
X139182943Y-80609188D01*
X139385049Y-80353529D01*
X139865205Y-79914617D01*
X140381246Y-79634773D01*
X140953503Y-79504449D01*
X141219291Y-79492000D01*
X141795334Y-79492000D01*
X141795334Y-80254000D01*
G37*
G36*
X146113334Y-76190000D02*
G01*
X139509334Y-76190000D01*
X139507807Y-77735167D01*
X139506281Y-79280333D01*
X139169141Y-79560281D01*
X138832000Y-79840228D01*
X138832000Y-75512667D01*
X146113334Y-75512667D01*
X146113334Y-76190000D01*
G37*
G36*
X154918667Y-78560667D02*
G01*
X153987334Y-78560667D01*
X153987334Y-77629333D01*
X154918667Y-77629333D01*
X154918667Y-78560667D01*
G37*
G36*
X144609502Y-76967505D02*
G01*
X144674000Y-76968641D01*
X146071000Y-76994333D01*
X146097035Y-77354167D01*
X146123070Y-77714000D01*
X144636535Y-77714000D01*
X144097136Y-77715317D01*
X143700971Y-77721047D01*
X143421949Y-77733858D01*
X143233982Y-77756418D01*
X143110978Y-77791395D01*
X143026847Y-77841457D01*
X142980667Y-77883333D01*
X142839163Y-78144574D01*
X142811334Y-78391333D01*
X142803118Y-78608108D01*
X142746254Y-78704431D01*
X142592413Y-78729186D01*
X142476503Y-78730000D01*
X142257588Y-78717498D01*
X142150309Y-78652119D01*
X142097332Y-78492055D01*
X142088610Y-78447148D01*
X142080582Y-78088661D01*
X142166113Y-77718406D01*
X142324768Y-77408813D01*
X142408215Y-77314368D01*
X142584337Y-77182667D01*
X142803985Y-77085524D01*
X143091743Y-77019187D01*
X143472192Y-76979906D01*
X143969918Y-76963929D01*
X144609502Y-76967505D01*
G37*
G36*
X154453000Y-79213695D02*
G01*
X154876334Y-79213702D01*
X154899218Y-80961518D01*
X154922102Y-82709333D01*
X154494394Y-82709333D01*
X154202308Y-82687707D01*
X154043315Y-82626743D01*
X154025116Y-82601004D01*
X154013345Y-82485818D01*
X154005255Y-82229400D01*
X154001146Y-81859821D01*
X154001312Y-81405149D01*
X154006053Y-80893454D01*
X154006607Y-80853182D01*
X154029667Y-79213688D01*
X154453000Y-79213695D01*
G37*
G36*
X146113334Y-79068667D02*
G01*
X144925343Y-79068667D01*
X144434251Y-79065319D01*
X144088811Y-79053750D01*
X143865445Y-79031670D01*
X143740577Y-78996788D01*
X143691362Y-78948819D01*
X143666277Y-78778664D01*
X143672853Y-78588985D01*
X143700334Y-78349000D01*
X144906834Y-78325509D01*
X146113334Y-78302017D01*
X146113334Y-79068667D01*
G37*
D13*
%TO.C,U1*%
X151020000Y-111400000D02*
X151020000Y-110925000D01*
X150545000Y-111400000D02*
X151020000Y-111400000D01*
X150535000Y-104195000D02*
X151010000Y-104195000D01*
X146080000Y-111410000D02*
X145605000Y-111410000D01*
X145605000Y-111410000D02*
X145605000Y-110935000D01*
X151010000Y-104195000D02*
X151010000Y-104670000D01*
X146130000Y-104200000D02*
X145655000Y-104200000D01*
%TO.C,R3*%
X131872936Y-105410000D02*
X133327064Y-105410000D01*
X131872936Y-103590000D02*
X133327064Y-103590000D01*
%TO.C,L2*%
X131864758Y-108090000D02*
X133535242Y-108090000D01*
X131864758Y-109910000D02*
X133535242Y-109910000D01*
%TO.C,C4*%
X140635000Y-105461252D02*
X140635000Y-104938748D01*
X139165000Y-105461252D02*
X139165000Y-104938748D01*
%TO.C,R5*%
X161135000Y-105372936D02*
X161135000Y-105827064D01*
X159665000Y-105372936D02*
X159665000Y-105827064D01*
%TO.C,L1*%
X131864758Y-100910000D02*
X133535242Y-100910000D01*
X131864758Y-99090000D02*
X133535242Y-99090000D01*
%TO.C,C3*%
X142361252Y-109335000D02*
X141838748Y-109335000D01*
X142361252Y-107865000D02*
X141838748Y-107865000D01*
%TO.C,C1*%
X140360000Y-111804437D02*
X140360000Y-115260000D01*
X139910000Y-110250000D02*
X139410000Y-110250000D01*
X135840000Y-111804437D02*
X135840000Y-115260000D01*
X139660000Y-110000000D02*
X139660000Y-110500000D01*
X136904437Y-110740000D02*
X137040000Y-110740000D01*
X136904437Y-110740000D02*
X135840000Y-111804437D01*
X139295563Y-110740000D02*
X139160000Y-110740000D01*
X140360000Y-115260000D02*
X139160000Y-115260000D01*
X135840000Y-115260000D02*
X137040000Y-115260000D01*
X139295563Y-110740000D02*
X140360000Y-111804437D01*
%TD*%
M02*
