%TF.GenerationSoftware,KiCad,Pcbnew,8.0.1*%
%TF.CreationDate,2024-05-23T13:32:17+02:00*%
%TF.ProjectId,BLDCdrv,424c4443-6472-4762-9e6b-696361645f70,2*%
%TF.SameCoordinates,PXb71b000PY69618a0*%
%TF.FileFunction,Copper,L1,Top*%
%TF.FilePolarity,Positive*%
%FSLAX46Y46*%
G04 Gerber Fmt 4.6, Leading zero omitted, Abs format (unit mm)*
G04 Created by KiCad (PCBNEW 8.0.1) date 2024-05-23 13:32:17*
%MOMM*%
%LPD*%
G01*
G04 APERTURE LIST*
%TA.AperFunction,ComponentPad*%
%ADD10C,1.600000*%
%TD*%
%TA.AperFunction,ComponentPad*%
%ADD11O,1.600000X1.600000*%
%TD*%
%TA.AperFunction,SMDPad,CuDef*%
%ADD12R,1.200000X2.200000*%
%TD*%
%TA.AperFunction,SMDPad,CuDef*%
%ADD13R,5.800000X6.400000*%
%TD*%
%TA.AperFunction,ComponentPad*%
%ADD14R,3.000000X3.000000*%
%TD*%
%TA.AperFunction,ComponentPad*%
%ADD15C,3.000000*%
%TD*%
%TA.AperFunction,ComponentPad*%
%ADD16R,2.000000X1.905000*%
%TD*%
%TA.AperFunction,ComponentPad*%
%ADD17O,2.000000X1.905000*%
%TD*%
%TA.AperFunction,SMDPad,CuDef*%
%ADD18R,1.475000X0.450000*%
%TD*%
%TA.AperFunction,ComponentPad*%
%ADD19R,1.700000X1.700000*%
%TD*%
%TA.AperFunction,ComponentPad*%
%ADD20O,1.700000X1.700000*%
%TD*%
%TA.AperFunction,ViaPad*%
%ADD21C,1.300000*%
%TD*%
%TA.AperFunction,Conductor*%
%ADD22C,0.600000*%
%TD*%
%TA.AperFunction,Conductor*%
%ADD23C,0.400000*%
%TD*%
%TA.AperFunction,Conductor*%
%ADD24C,0.350000*%
%TD*%
%TA.AperFunction,Conductor*%
%ADD25C,0.800000*%
%TD*%
%TA.AperFunction,Conductor*%
%ADD26C,2.000000*%
%TD*%
G04 APERTURE END LIST*
D10*
%TO.P,R1,1*%
%TO.N,Net-(Q1-Pad1)*%
X-81620000Y39500000D03*
D11*
%TO.P,R1,2*%
%TO.N,Net-(IC1-Pad19)*%
X-91780000Y39500000D03*
%TD*%
D10*
%TO.P,C7,1*%
%TO.N,Net-(C7-Pad1)*%
X-76500000Y-9750000D03*
D11*
%TO.P,C7,2*%
%TO.N,Net-(C7-Pad2)*%
X-76500000Y-2250000D03*
%TD*%
D10*
%TO.P,R8,1*%
%TO.N,Net-(Q6-Pad1)*%
X-21220000Y11500000D03*
D11*
%TO.P,R8,2*%
%TO.N,Net-(IC1-Pad9)*%
X-21220000Y1340000D03*
%TD*%
D12*
%TO.P,U1,1,VI*%
%TO.N,+BATT*%
X-99880000Y-2300000D03*
D13*
%TO.P,U1,2,GND*%
%TO.N,GNDREF*%
X-97600000Y4000000D03*
D12*
%TO.P,U1,3,VO*%
%TO.N,Net-(JP1-Pad1)*%
X-95320000Y-2300000D03*
%TD*%
D14*
%TO.P,J3,1,Pin_1*%
%TO.N,Net-(C5-Pad2)*%
X200000Y9620000D03*
D15*
%TO.P,J3,2,Pin_2*%
%TO.N,Net-(C6-Pad2)*%
X200000Y14700000D03*
%TO.P,J3,3,Pin_3*%
%TO.N,Net-(C7-Pad2)*%
X200000Y19780000D03*
%TD*%
D10*
%TO.P,C3,1*%
%TO.N,+BATT*%
X-38050000Y37050000D03*
D11*
%TO.P,C3,2*%
%TO.N,GNDREF*%
X-38050000Y29550000D03*
%TD*%
D10*
%TO.P,R7,1*%
%TO.N,Net-(Q5-Pad1)*%
X-21620000Y39400000D03*
D11*
%TO.P,R7,2*%
%TO.N,Net-(IC1-Pad13)*%
X-31780000Y39400000D03*
%TD*%
D10*
%TO.P,R3,1*%
%TO.N,Net-(Q2-Pad3)*%
X-69100000Y6320000D03*
D11*
%TO.P,R3,2*%
%TO.N,GNDREF*%
X-69100000Y16480000D03*
%TD*%
D10*
%TO.P,C6,1*%
%TO.N,Net-(C6-Pad1)*%
X-82950000Y-9750000D03*
D11*
%TO.P,C6,2*%
%TO.N,Net-(C6-Pad2)*%
X-82950000Y-2250000D03*
%TD*%
D10*
%TO.P,R6,1*%
%TO.N,Net-(Q4-Pad3)*%
X-38000000Y6520000D03*
D11*
%TO.P,R6,2*%
%TO.N,GNDREF*%
X-38000000Y16680000D03*
%TD*%
D10*
%TO.P,R4,1*%
%TO.N,Net-(Q3-Pad1)*%
X-52020000Y39400000D03*
D11*
%TO.P,R4,2*%
%TO.N,Net-(IC1-Pad16)*%
X-62180000Y39400000D03*
%TD*%
D16*
%TO.P,Q4,1,G*%
%TO.N,Net-(Q4-Pad1)*%
X-46245000Y11540000D03*
D17*
%TO.P,Q4,2,D*%
%TO.N,Net-(C6-Pad2)*%
X-46245000Y9000000D03*
%TO.P,Q4,3,S*%
%TO.N,Net-(Q4-Pad3)*%
X-46245000Y6460000D03*
%TD*%
D14*
%TO.P,J1,1,Pin_1*%
%TO.N,+BATT*%
X-101400000Y17040000D03*
D15*
%TO.P,J1,2,Pin_2*%
%TO.N,GNDREF*%
X-101400000Y11960000D03*
%TD*%
D18*
%TO.P,IC1,1,INHA*%
%TO.N,Net-(IC1-Pad1)*%
X-59162000Y-6125000D03*
%TO.P,IC1,2,INHB*%
%TO.N,Net-(IC1-Pad2)*%
X-59162000Y-5475000D03*
%TO.P,IC1,3,INHC*%
%TO.N,Net-(IC1-Pad3)*%
X-59162000Y-4825000D03*
%TO.P,IC1,4,INLA*%
%TO.N,Net-(IC1-Pad4)*%
X-59162000Y-4175000D03*
%TO.P,IC1,5,INLB*%
%TO.N,Net-(IC1-Pad5)*%
X-59162000Y-3525000D03*
%TO.P,IC1,6,INLC*%
%TO.N,Net-(IC1-Pad6)*%
X-59162000Y-2875000D03*
%TO.P,IC1,7,GVDD*%
%TO.N,Net-(C1-Pad1)*%
X-59162000Y-2225000D03*
%TO.P,IC1,8,GND*%
%TO.N,GNDREF*%
X-59162000Y-1575000D03*
%TO.P,IC1,9,GLC*%
%TO.N,Net-(IC1-Pad9)*%
X-59162000Y-925000D03*
%TO.P,IC1,10,GLB*%
%TO.N,Net-(IC1-Pad10)*%
X-59162000Y-275000D03*
%TO.P,IC1,11,GLA*%
%TO.N,Net-(IC1-Pad11)*%
X-65038000Y-275000D03*
%TO.P,IC1,12,SHC*%
%TO.N,Net-(C7-Pad2)*%
X-65038000Y-925000D03*
%TO.P,IC1,13,GHC*%
%TO.N,Net-(IC1-Pad13)*%
X-65038000Y-1575000D03*
%TO.P,IC1,14,BSTC*%
%TO.N,Net-(C7-Pad1)*%
X-65038000Y-2225000D03*
%TO.P,IC1,15,SHB*%
%TO.N,Net-(C6-Pad2)*%
X-65038000Y-2875000D03*
%TO.P,IC1,16,GHB*%
%TO.N,Net-(IC1-Pad16)*%
X-65038000Y-3525000D03*
%TO.P,IC1,17,BSTB*%
%TO.N,Net-(C6-Pad1)*%
X-65038000Y-4175000D03*
%TO.P,IC1,18,SHA*%
%TO.N,Net-(C5-Pad2)*%
X-65038000Y-4825000D03*
%TO.P,IC1,19,GHA*%
%TO.N,Net-(IC1-Pad19)*%
X-65038000Y-5475000D03*
%TO.P,IC1,20,BSTA*%
%TO.N,Net-(C5-Pad1)*%
X-65038000Y-6125000D03*
%TD*%
D16*
%TO.P,Q2,1,G*%
%TO.N,Net-(Q2-Pad1)*%
X-77375000Y11540000D03*
D17*
%TO.P,Q2,2,D*%
%TO.N,Net-(C5-Pad2)*%
X-77375000Y9000000D03*
%TO.P,Q2,3,S*%
%TO.N,Net-(Q2-Pad3)*%
X-77375000Y6460000D03*
%TD*%
D16*
%TO.P,Q6,1,G*%
%TO.N,Net-(Q6-Pad1)*%
X-15780000Y11540000D03*
D17*
%TO.P,Q6,2,D*%
%TO.N,Net-(C7-Pad2)*%
X-15780000Y9000000D03*
%TO.P,Q6,3,S*%
%TO.N,Net-(Q6-Pad3)*%
X-15780000Y6460000D03*
%TD*%
D10*
%TO.P,C2,1*%
%TO.N,+BATT*%
X-69100000Y37050000D03*
D11*
%TO.P,C2,2*%
%TO.N,GNDREF*%
X-69100000Y29550000D03*
%TD*%
D16*
%TO.P,Q5,1,G*%
%TO.N,Net-(Q5-Pad1)*%
X-15780000Y39380000D03*
D17*
%TO.P,Q5,2,D*%
%TO.N,+BATT*%
X-15780000Y36840000D03*
%TO.P,Q5,3,S*%
%TO.N,Net-(C7-Pad2)*%
X-15780000Y34300000D03*
%TD*%
D10*
%TO.P,C4,1*%
%TO.N,+BATT*%
X-8400000Y37050000D03*
D11*
%TO.P,C4,2*%
%TO.N,GNDREF*%
X-8400000Y29550000D03*
%TD*%
D10*
%TO.P,C1,1*%
%TO.N,Net-(C1-Pad1)*%
X-45000000Y-5600000D03*
%TO.P,C1,2*%
%TO.N,GNDREF*%
X-45000000Y-600000D03*
%TD*%
D16*
%TO.P,Q1,1,G*%
%TO.N,Net-(Q1-Pad1)*%
X-77375000Y39380000D03*
D17*
%TO.P,Q1,2,D*%
%TO.N,+BATT*%
X-77375000Y36840000D03*
%TO.P,Q1,3,S*%
%TO.N,Net-(C5-Pad2)*%
X-77375000Y34300000D03*
%TD*%
D19*
%TO.P,JP1,1,A*%
%TO.N,Net-(JP1-Pad1)*%
X-88100000Y5475000D03*
D20*
%TO.P,JP1,2,B*%
%TO.N,Net-(C1-Pad1)*%
X-88100000Y2935000D03*
%TD*%
D10*
%TO.P,R9,1*%
%TO.N,Net-(Q6-Pad3)*%
X-9800000Y6480000D03*
D11*
%TO.P,R9,2*%
%TO.N,GNDREF*%
X-9800000Y-3680000D03*
%TD*%
D16*
%TO.P,Q3,1,G*%
%TO.N,Net-(Q3-Pad1)*%
X-46245000Y39380000D03*
D17*
%TO.P,Q3,2,D*%
%TO.N,+BATT*%
X-46245000Y36840000D03*
%TO.P,Q3,3,S*%
%TO.N,Net-(C6-Pad2)*%
X-46245000Y34300000D03*
%TD*%
D10*
%TO.P,R2,1*%
%TO.N,Net-(Q2-Pad1)*%
X-81820000Y11500000D03*
D11*
%TO.P,R2,2*%
%TO.N,Net-(IC1-Pad11)*%
X-81820000Y1340000D03*
%TD*%
D10*
%TO.P,R5,1*%
%TO.N,Net-(Q4-Pad1)*%
X-51320000Y11500000D03*
D11*
%TO.P,R5,2*%
%TO.N,Net-(IC1-Pad10)*%
X-51320000Y1340000D03*
%TD*%
D10*
%TO.P,C5,1*%
%TO.N,Net-(C5-Pad1)*%
X-89400000Y-9750000D03*
D11*
%TO.P,C5,2*%
%TO.N,Net-(C5-Pad2)*%
X-89400000Y-2250000D03*
%TD*%
D19*
%TO.P,J2,1,Pin_1*%
%TO.N,Net-(IC1-Pad1)*%
X-56075000Y-13075000D03*
D20*
%TO.P,J2,2,Pin_2*%
%TO.N,Net-(IC1-Pad4)*%
X-53535000Y-13075000D03*
%TO.P,J2,3,Pin_3*%
%TO.N,Net-(IC1-Pad2)*%
X-50995000Y-13075000D03*
%TO.P,J2,4,Pin_4*%
%TO.N,Net-(IC1-Pad5)*%
X-48455000Y-13075000D03*
%TO.P,J2,5,Pin_5*%
%TO.N,Net-(IC1-Pad3)*%
X-45915000Y-13075000D03*
%TO.P,J2,6,Pin_6*%
%TO.N,Net-(IC1-Pad6)*%
X-43375000Y-13075000D03*
%TO.P,J2,7,Pin_7*%
%TO.N,Net-(C1-Pad1)*%
X-40835000Y-13075000D03*
%TO.P,J2,8,Pin_8*%
%TO.N,GNDREF*%
X-38295000Y-13075000D03*
%TD*%
D21*
%TO.N,Net-(IC1-Pad2)*%
X-56600000Y-7800000D03*
%TO.N,Net-(IC1-Pad3)*%
X-55000000Y-6200000D03*
%TO.N,Net-(IC1-Pad13)*%
X-53700000Y3200000D03*
X-68300000Y-600000D03*
X-31800000Y8500000D03*
%TO.N,Net-(IC1-Pad16)*%
X-62200000Y34600000D03*
X-71100000Y-3000000D03*
X-64400000Y1800000D03*
%TO.N,Net-(IC1-Pad19)*%
X-70000000Y-8200000D03*
%TO.N,GNDREF*%
X-33600000Y22800000D03*
X-56700000Y31800000D03*
X-88200000Y12100000D03*
X-56700000Y24600000D03*
X-25700000Y22700000D03*
X-56700000Y13000000D03*
%TO.N,Net-(C5-Pad2)*%
X-39900000Y20400000D03*
X-72000000Y-9800000D03*
%TO.N,Net-(C6-Pad2)*%
X-60100000Y4900000D03*
X-73300000Y-4300000D03*
%TO.N,Net-(C7-Pad2)*%
X-49200000Y500000D03*
X-73700000Y600000D03*
%TD*%
D22*
%TO.N,Net-(IC1-Pad1)*%
X-59162000Y-9988000D02*
X-56075000Y-13075000D01*
D23*
X-59162000Y-6125000D02*
X-59162000Y-9988000D01*
D24*
%TO.N,Net-(IC1-Pad2)*%
X-56600000Y-7800000D02*
X-56600000Y-6100000D01*
X-56600000Y-6100000D02*
X-57225000Y-5475000D01*
X-57225000Y-5475000D02*
X-59162000Y-5475000D01*
%TO.N,Net-(IC1-Pad3)*%
X-56375000Y-4825000D02*
X-59162000Y-4825000D01*
X-55000000Y-6200000D02*
X-56375000Y-4825000D01*
D22*
%TO.N,Net-(IC1-Pad4)*%
X-53535000Y-5565000D02*
X-53535000Y-13075000D01*
D24*
X-59162000Y-4175000D02*
X-54925000Y-4175000D01*
X-54925000Y-4175000D02*
X-53535000Y-5565000D01*
%TO.N,Net-(IC1-Pad5)*%
X-59162000Y-3525000D02*
X-52575000Y-3525000D01*
D22*
X-48455000Y-7545000D02*
X-48455000Y-13075000D01*
X-52500000Y-3600000D02*
X-52400000Y-3600000D01*
X-52400000Y-3600000D02*
X-48455000Y-7545000D01*
D24*
%TO.N,Net-(IC1-Pad6)*%
X-51600000Y-3000000D02*
X-51749520Y-2850480D01*
X-51749520Y-2850480D02*
X-59137480Y-2850480D01*
X-59137480Y-2850480D02*
X-59162000Y-2875000D01*
D22*
X-51600000Y-3000000D02*
X-50600000Y-3000000D01*
X-43375000Y-10225000D02*
X-43375000Y-13075000D01*
X-50600000Y-3000000D02*
X-43375000Y-10225000D01*
D25*
%TO.N,Net-(IC1-Pad9)*%
X-21220000Y1340000D02*
X-21660000Y900000D01*
D24*
X-48425000Y-925000D02*
X-59162000Y-925000D01*
D25*
X-21660000Y900000D02*
X-46600000Y900000D01*
D24*
X-46800000Y700000D02*
X-48425000Y-925000D01*
D25*
X-46600000Y900000D02*
X-46800000Y700000D01*
D24*
%TO.N,Net-(IC1-Pad10)*%
X-52960000Y-300000D02*
X-51320000Y1340000D01*
X-59162000Y-275000D02*
X-59137000Y-300000D01*
X-59137000Y-300000D02*
X-52960000Y-300000D01*
%TO.N,Net-(IC1-Pad11)*%
X-81820000Y1340000D02*
X-80960000Y2200000D01*
X-67513000Y2200000D02*
X-65038000Y-275000D01*
X-80960000Y2200000D02*
X-67513000Y2200000D01*
%TO.N,Net-(IC1-Pad13)*%
X-65038000Y-1575000D02*
X-67325000Y-1575000D01*
D25*
X-31800000Y8500000D02*
X-36800000Y3500000D01*
D24*
X-67325000Y-1575000D02*
X-68300000Y-600000D01*
D25*
X-53400000Y3500000D02*
X-53700000Y3200000D01*
X-36800000Y3500000D02*
X-53400000Y3500000D01*
%TO.N,Net-(IC1-Pad16)*%
X-64100000Y1800000D02*
X-62200000Y3700000D01*
D24*
X-71100000Y-3000000D02*
X-70575000Y-3525000D01*
D25*
X-62200000Y3700000D02*
X-62200000Y34600000D01*
X-64400000Y1800000D02*
X-64100000Y1800000D01*
D24*
X-70575000Y-3525000D02*
X-65038000Y-3525000D01*
%TO.N,Net-(IC1-Pad19)*%
X-70000000Y-8200000D02*
X-67275000Y-5475000D01*
X-67275000Y-5475000D02*
X-65038000Y-5475000D01*
%TO.N,Net-(C1-Pad1)*%
X-48375000Y-2225000D02*
X-59162000Y-2225000D01*
X-45000000Y-5600000D02*
X-48375000Y-2225000D01*
%TO.N,Net-(C5-Pad1)*%
X-65038000Y-6125000D02*
X-71513000Y-12600000D01*
X-71513000Y-12600000D02*
X-86550000Y-12600000D01*
X-86550000Y-12600000D02*
X-89400000Y-9750000D01*
%TO.N,GNDREF*%
X-94295000Y5475000D02*
X-94700000Y5880000D01*
D26*
X-38050000Y29550000D02*
X-8400000Y29550000D01*
D24*
X-88200000Y12100000D02*
X-88225000Y12075000D01*
D26*
X-101285000Y12075000D02*
X-101400000Y11960000D01*
X-101400000Y11960000D02*
X-97600000Y8160000D01*
D24*
X-45000000Y-600000D02*
X-45975000Y-1575000D01*
D26*
X-88225000Y12075000D02*
X-101285000Y12075000D01*
X-97600000Y8160000D02*
X-97600000Y4000000D01*
D24*
X-45975000Y-1575000D02*
X-59162000Y-1575000D01*
D26*
%TO.N,+BATT*%
X-46245000Y36840000D02*
X-45985000Y37100000D01*
X-81600000Y36840000D02*
X-101285000Y17155000D01*
D25*
X-104200000Y2020000D02*
X-99880000Y-2300000D01*
D26*
X-77215000Y37000000D02*
X-69470000Y37000000D01*
X-38050000Y37050000D02*
X-37900000Y36900000D01*
X-16140000Y36900000D02*
X-15990000Y37050000D01*
D24*
X-15990000Y37050000D02*
X-15780000Y36840000D01*
D26*
X-69100000Y37050000D02*
X-68950000Y36900000D01*
D25*
X-104200000Y14240000D02*
X-104200000Y2020000D01*
D26*
X-37900000Y36900000D02*
X-16140000Y36900000D01*
D24*
X-38260000Y36840000D02*
X-38050000Y37050000D01*
D26*
X-45985000Y37100000D02*
X-38520000Y37100000D01*
X-38520000Y37100000D02*
X-38260000Y36840000D01*
D24*
X-101285000Y17155000D02*
X-102465000Y17155000D01*
D26*
X-46605000Y36900000D02*
X-46455000Y37050000D01*
X-68950000Y36900000D02*
X-46605000Y36900000D01*
X-77375000Y36840000D02*
X-81600000Y36840000D01*
X-15780000Y36840000D02*
X-8610000Y36840000D01*
D24*
X-46455000Y37050000D02*
X-46245000Y36840000D01*
X-8610000Y36840000D02*
X-8400000Y37050000D01*
D25*
X-101285000Y17155000D02*
X-104200000Y14240000D01*
D26*
X-77375000Y36840000D02*
X-77215000Y37000000D01*
D24*
X-69310000Y36840000D02*
X-69100000Y37050000D01*
D26*
X-69470000Y37000000D02*
X-69310000Y36840000D01*
D24*
%TO.N,Net-(C5-Pad2)*%
X-72000000Y-7200000D02*
X-69625000Y-4825000D01*
D25*
X-84300000Y4900000D02*
X-80200000Y9000000D01*
D24*
X-72000000Y-9800000D02*
X-72000000Y-7200000D01*
X-69625000Y-4825000D02*
X-65038000Y-4825000D01*
D26*
X-77375000Y34300000D02*
X-72600000Y29525000D01*
D25*
X-84300000Y2850000D02*
X-84300000Y4900000D01*
D26*
X-72600000Y29525000D02*
X-72600000Y11400000D01*
D25*
X-80200000Y9000000D02*
X-77375000Y9000000D01*
X-89400000Y-2250000D02*
X-84300000Y2850000D01*
D26*
X-39900000Y20400000D02*
X-12400000Y20400000D01*
X-72600000Y11400000D02*
X-75000000Y9000000D01*
X-75000000Y9000000D02*
X-77375000Y9000000D01*
X-1535000Y9535000D02*
X115000Y9535000D01*
X-12400000Y20400000D02*
X-1535000Y9535000D01*
D25*
%TO.N,Net-(C6-Pad1)*%
X-74300000Y-8200000D02*
X-74300000Y-10700000D01*
X-75200000Y-11600000D02*
X-75600000Y-11600000D01*
D24*
X-65038000Y-4175000D02*
X-70275000Y-4175000D01*
D25*
X-74300000Y-10700000D02*
X-75200000Y-11600000D01*
D24*
X-70275000Y-4175000D02*
X-74300000Y-8200000D01*
D25*
X-81100000Y-11600000D02*
X-82950000Y-9750000D01*
X-75600000Y-11600000D02*
X-81100000Y-11600000D01*
D26*
%TO.N,Net-(C6-Pad2)*%
X-1015000Y14615000D02*
X-11800000Y25400000D01*
X115000Y14615000D02*
X-1015000Y14615000D01*
D25*
X-59100000Y4900000D02*
X-55000000Y9000000D01*
D26*
X-40000000Y25400000D02*
X-37600000Y25400000D01*
X-42600000Y23800000D02*
X-41000000Y25400000D01*
X-46245000Y9000000D02*
X-43700000Y9000000D01*
X-40000000Y25400000D02*
X-46245000Y31645000D01*
D24*
X-68925000Y-2875000D02*
X-65038000Y-2875000D01*
D26*
X-46245000Y31645000D02*
X-46245000Y34300000D01*
X-41000000Y25400000D02*
X-40000000Y25400000D01*
X-42600000Y10100000D02*
X-42600000Y23800000D01*
D24*
X-70100000Y-1700000D02*
X-68925000Y-2875000D01*
D25*
X-55000000Y9000000D02*
X-46245000Y9000000D01*
D24*
X-73300000Y-4300000D02*
X-73300000Y-2900000D01*
D26*
X-11800000Y25400000D02*
X-37600000Y25400000D01*
D24*
X-73300000Y-2900000D02*
X-72100000Y-1700000D01*
X-72100000Y-1700000D02*
X-70100000Y-1700000D01*
D25*
X-60100000Y4900000D02*
X-59100000Y4900000D01*
D26*
X-43700000Y9000000D02*
X-42600000Y10100000D01*
D24*
%TO.N,Net-(C7-Pad1)*%
X-65038000Y-2225000D02*
X-68575000Y-2225000D01*
X-68575000Y-2225000D02*
X-70200000Y-600000D01*
X-70200000Y-600000D02*
X-72500000Y-600000D01*
D25*
X-76500000Y-4600000D02*
X-76500000Y-9750000D01*
D24*
X-72500000Y-600000D02*
X-76500000Y-4600000D01*
%TO.N,Net-(C7-Pad2)*%
X-66175000Y-925000D02*
X-65038000Y-925000D01*
D25*
X-47500000Y2200000D02*
X-32500000Y2200000D01*
X-32500000Y2200000D02*
X-25700000Y9000000D01*
X-25700000Y9000000D02*
X-15780000Y9000000D01*
D24*
X-67700000Y600000D02*
X-66175000Y-925000D01*
D25*
X-49200000Y500000D02*
X-47500000Y2200000D01*
D24*
X-73700000Y600000D02*
X-67700000Y600000D01*
D25*
%TO.N,Net-(JP1-Pad1)*%
X-89525000Y5475000D02*
X-88100000Y5475000D01*
X-95320000Y-2300000D02*
X-93800000Y-2300000D01*
X-91700000Y3300000D02*
X-89525000Y5475000D01*
X-91700000Y-200000D02*
X-91700000Y3300000D01*
X-93800000Y-2300000D02*
X-91700000Y-200000D01*
%TD*%
%TA.AperFunction,Conductor*%
%TO.N,GNDREF*%
G36*
X-79397166Y34819498D02*
G01*
X-79350673Y34765842D01*
X-79340569Y34695568D01*
X-79341072Y34692636D01*
X-79375499Y34431124D01*
X-79375500Y34431097D01*
X-79375500Y34168904D01*
X-79375499Y34168877D01*
X-79341273Y33908892D01*
X-79273400Y33655586D01*
X-79273399Y33655584D01*
X-79273398Y33655581D01*
X-79173043Y33413303D01*
X-79173042Y33413302D01*
X-79173037Y33413291D01*
X-79041927Y33186202D01*
X-78882283Y32978149D01*
X-78882274Y32978139D01*
X-74637405Y28733271D01*
X-74603379Y28670959D01*
X-74600500Y28644176D01*
X-74600500Y12280826D01*
X-74620502Y12212705D01*
X-74637405Y12191731D01*
X-75159406Y11669730D01*
X-75221718Y11635704D01*
X-75292533Y11640769D01*
X-75349369Y11683316D01*
X-75374180Y11749836D01*
X-75374501Y11758825D01*
X-75374501Y12550528D01*
X-75374501Y12550531D01*
X-75374501Y12550536D01*
X-75385114Y12669913D01*
X-75385113Y12669913D01*
X-75387532Y12678367D01*
X-75441091Y12865549D01*
X-75535302Y13045907D01*
X-75663891Y13203609D01*
X-75821593Y13332198D01*
X-75821595Y13332199D01*
X-75821596Y13332200D01*
X-76001949Y13426408D01*
X-76001950Y13426409D01*
X-76001951Y13426409D01*
X-76197582Y13482386D01*
X-76316963Y13493000D01*
X-76316968Y13493000D01*
X-78433028Y13493000D01*
X-78433038Y13492999D01*
X-78552412Y13482387D01*
X-78552415Y13482387D01*
X-78552418Y13482386D01*
X-78748049Y13426409D01*
X-78748052Y13426408D01*
X-78928405Y13332200D01*
X-79086109Y13203609D01*
X-79214700Y13045905D01*
X-79308908Y12865552D01*
X-79308909Y12865550D01*
X-79308909Y12865549D01*
X-79364886Y12669918D01*
X-79372472Y12584587D01*
X-79375500Y12550535D01*
X-79375500Y12550531D01*
X-79375499Y10526671D01*
X-79377021Y10526671D01*
X-79392425Y10463407D01*
X-79443850Y10414458D01*
X-79501491Y10400500D01*
X-80084561Y10400500D01*
X-80084585Y10400501D01*
X-80089778Y10400501D01*
X-80157519Y10400501D01*
X-80225640Y10420503D01*
X-80272133Y10474159D01*
X-80282237Y10544433D01*
X-80266638Y10589501D01*
X-80193259Y10716598D01*
X-80193257Y10716602D01*
X-80094666Y10967805D01*
X-80034617Y11230897D01*
X-80014451Y11500000D01*
X-80034617Y11769103D01*
X-80094666Y12032195D01*
X-80193257Y12283398D01*
X-80193258Y12283399D01*
X-80193259Y12283403D01*
X-80328183Y12517099D01*
X-80354842Y12550528D01*
X-80496439Y12728085D01*
X-80694259Y12911635D01*
X-80694266Y12911640D01*
X-80917223Y13063650D01*
X-80917231Y13063655D01*
X-81160350Y13180735D01*
X-81160368Y13180742D01*
X-81418218Y13260278D01*
X-81418226Y13260280D01*
X-81418228Y13260280D01*
X-81685071Y13300500D01*
X-81954929Y13300500D01*
X-82221772Y13260280D01*
X-82221774Y13260280D01*
X-82221783Y13260278D01*
X-82479633Y13180742D01*
X-82479645Y13180737D01*
X-82722777Y13063650D01*
X-82722784Y13063646D01*
X-82945735Y12911640D01*
X-82945740Y12911636D01*
X-83143561Y12728086D01*
X-83311818Y12517099D01*
X-83446742Y12283403D01*
X-83446745Y12283395D01*
X-83545335Y12032194D01*
X-83605383Y11769107D01*
X-83625549Y11500000D01*
X-83605383Y11230894D01*
X-83545335Y10967807D01*
X-83446745Y10716606D01*
X-83446742Y10716598D01*
X-83311818Y10482902D01*
X-83311816Y10482899D01*
X-83311815Y10482898D01*
X-83143561Y10271915D01*
X-82945741Y10088365D01*
X-82945735Y10088361D01*
X-82722784Y9936355D01*
X-82722777Y9936351D01*
X-82722774Y9936349D01*
X-82479641Y9819262D01*
X-82479638Y9819262D01*
X-82479633Y9819259D01*
X-82221783Y9739723D01*
X-82221781Y9739723D01*
X-82221772Y9739720D01*
X-81954929Y9699500D01*
X-81954925Y9699500D01*
X-81785297Y9699500D01*
X-81717176Y9679498D01*
X-81670683Y9625842D01*
X-81660579Y9555568D01*
X-81690073Y9490988D01*
X-81696202Y9484405D01*
X-85212362Y5968245D01*
X-85212365Y5968242D01*
X-85290304Y5890304D01*
X-85368242Y5812366D01*
X-85488125Y5647362D01*
X-85488124Y5647361D01*
X-85497813Y5634026D01*
X-85597894Y5437608D01*
X-85597897Y5437602D01*
X-85666014Y5227956D01*
X-85666015Y5227953D01*
X-85666015Y5227951D01*
X-85693680Y5053283D01*
X-85700501Y5010220D01*
X-85700501Y4784586D01*
X-85700500Y4784561D01*
X-85700500Y3482298D01*
X-85720502Y3414177D01*
X-85737405Y3393202D01*
X-86046401Y3084207D01*
X-86108713Y3050182D01*
X-86179529Y3055247D01*
X-86236364Y3097794D01*
X-86261175Y3164312D01*
X-86263657Y3199026D01*
X-86319923Y3457678D01*
X-86412426Y3705689D01*
X-86415659Y3711610D01*
X-86490638Y3848923D01*
X-86505730Y3918297D01*
X-86480919Y3984818D01*
X-86477716Y3988918D01*
X-86410302Y4071593D01*
X-86316091Y4251951D01*
X-86260114Y4447582D01*
X-86249500Y4566963D01*
X-86249501Y6383036D01*
X-86260114Y6502418D01*
X-86316091Y6698049D01*
X-86410302Y6878407D01*
X-86538891Y7036109D01*
X-86696593Y7164698D01*
X-86696595Y7164699D01*
X-86696596Y7164700D01*
X-86876949Y7258908D01*
X-86876950Y7258909D01*
X-86876951Y7258909D01*
X-87072582Y7314886D01*
X-87191963Y7325500D01*
X-87191968Y7325500D01*
X-89008028Y7325500D01*
X-89008038Y7325499D01*
X-89127412Y7314887D01*
X-89127415Y7314887D01*
X-89127418Y7314886D01*
X-89323049Y7258909D01*
X-89323052Y7258908D01*
X-89503405Y7164700D01*
X-89661110Y7036109D01*
X-89785334Y6883760D01*
X-89843885Y6843606D01*
X-89852329Y6841218D01*
X-90012722Y6789103D01*
X-90062602Y6772897D01*
X-90062608Y6772894D01*
X-90259026Y6672813D01*
X-90437366Y6543242D01*
X-90478189Y6502418D01*
X-90593242Y6387365D01*
X-90593245Y6387362D01*
X-92612362Y4368245D01*
X-92612365Y4368242D01*
X-92660713Y4319894D01*
X-92768242Y4212366D01*
X-92895210Y4037607D01*
X-92895212Y4037605D01*
X-92897812Y4034028D01*
X-92897814Y4034024D01*
X-92997894Y3837608D01*
X-92997897Y3837602D01*
X-93066014Y3627956D01*
X-93066015Y3627953D01*
X-93066015Y3627951D01*
X-93099874Y3414177D01*
X-93100501Y3410220D01*
X-93100501Y3184586D01*
X-93100500Y3184561D01*
X-93100500Y432298D01*
X-93120502Y364177D01*
X-93137405Y343202D01*
X-93906698Y-426090D01*
X-93969010Y-460115D01*
X-94039826Y-455050D01*
X-94075416Y-434647D01*
X-94166593Y-360302D01*
X-94166595Y-360301D01*
X-94166596Y-360300D01*
X-94346949Y-266092D01*
X-94346950Y-266091D01*
X-94346951Y-266091D01*
X-94542582Y-210114D01*
X-94661963Y-199500D01*
X-94661968Y-199500D01*
X-95978028Y-199500D01*
X-95978038Y-199501D01*
X-96097412Y-210113D01*
X-96097415Y-210113D01*
X-96097418Y-210114D01*
X-96293049Y-266091D01*
X-96293052Y-266092D01*
X-96473405Y-360300D01*
X-96631109Y-488891D01*
X-96759700Y-646595D01*
X-96853908Y-826948D01*
X-96853909Y-826950D01*
X-96853909Y-826951D01*
X-96909886Y-1022582D01*
X-96909886Y-1022588D01*
X-96920500Y-1141965D01*
X-96920500Y-3458027D01*
X-96920499Y-3458034D01*
X-96920499Y-3458036D01*
X-96909886Y-3577418D01*
X-96853909Y-3773049D01*
X-96853908Y-3773051D01*
X-96769836Y-3934000D01*
X-96759698Y-3953407D01*
X-96631109Y-4111109D01*
X-96473407Y-4239698D01*
X-96293049Y-4333909D01*
X-96097418Y-4389886D01*
X-95978037Y-4400500D01*
X-94661964Y-4400499D01*
X-94542582Y-4389886D01*
X-94346951Y-4333909D01*
X-94166593Y-4239698D01*
X-94008891Y-4111109D01*
X-93880302Y-3953407D01*
X-93807300Y-3813651D01*
X-93783132Y-3767385D01*
X-93780602Y-3768706D01*
X-93744452Y-3722601D01*
X-93690926Y-3700682D01*
X-93689783Y-3700501D01*
X-93689778Y-3700501D01*
X-93472049Y-3666015D01*
X-93262394Y-3597895D01*
X-93065978Y-3497815D01*
X-93038822Y-3478085D01*
X-92887635Y-3368242D01*
X-92731758Y-3212365D01*
X-92724585Y-3205192D01*
X-92724574Y-3205178D01*
X-91399990Y-1880594D01*
X-91337680Y-1846570D01*
X-91266865Y-1851635D01*
X-91210029Y-1894182D01*
X-91185218Y-1960702D01*
X-91185249Y-1979107D01*
X-91205549Y-2249999D01*
X-91185383Y-2519106D01*
X-91125335Y-2782193D01*
X-91026745Y-3033394D01*
X-91026742Y-3033402D01*
X-90891818Y-3267098D01*
X-90891816Y-3267101D01*
X-90891815Y-3267102D01*
X-90723561Y-3478085D01*
X-90525741Y-3661635D01*
X-90525735Y-3661639D01*
X-90302784Y-3813645D01*
X-90302777Y-3813649D01*
X-90302774Y-3813651D01*
X-90059641Y-3930738D01*
X-90059638Y-3930738D01*
X-90059633Y-3930741D01*
X-89801783Y-4010277D01*
X-89801781Y-4010277D01*
X-89801772Y-4010280D01*
X-89534929Y-4050500D01*
X-89534925Y-4050500D01*
X-89265075Y-4050500D01*
X-89265071Y-4050500D01*
X-88998228Y-4010280D01*
X-88813840Y-3953404D01*
X-88740368Y-3930741D01*
X-88740366Y-3930739D01*
X-88740359Y-3930738D01*
X-88740354Y-3930735D01*
X-88740350Y-3930734D01*
X-88497231Y-3813654D01*
X-88497231Y-3813653D01*
X-88497225Y-3813651D01*
X-88274259Y-3661635D01*
X-88076439Y-3478085D01*
X-87908185Y-3267102D01*
X-87773257Y-3033398D01*
X-87674666Y-2782195D01*
X-87614617Y-2519103D01*
X-87612126Y-2485858D01*
X-87587090Y-2419422D01*
X-87575580Y-2406184D01*
X-83833976Y1335420D01*
X-83771666Y1369444D01*
X-83700851Y1364379D01*
X-83644015Y1321832D01*
X-83619235Y1255739D01*
X-83605383Y1070894D01*
X-83545335Y807807D01*
X-83446745Y556606D01*
X-83446742Y556598D01*
X-83311818Y322902D01*
X-83311816Y322899D01*
X-83311815Y322898D01*
X-83143561Y111915D01*
X-82945741Y-71635D01*
X-82945735Y-71639D01*
X-82727420Y-220484D01*
X-82682403Y-275384D01*
X-82674214Y-345907D01*
X-82705453Y-409662D01*
X-82766201Y-446407D01*
X-82810298Y-448810D01*
X-82810376Y-449852D01*
X-82815070Y-449500D01*
X-82815071Y-449500D01*
X-83084929Y-449500D01*
X-83351772Y-489720D01*
X-83351774Y-489720D01*
X-83351783Y-489722D01*
X-83609633Y-569258D01*
X-83609645Y-569263D01*
X-83852777Y-686350D01*
X-83852784Y-686354D01*
X-84075735Y-838360D01*
X-84075740Y-838364D01*
X-84273561Y-1021914D01*
X-84441818Y-1232901D01*
X-84576742Y-1466597D01*
X-84576745Y-1466605D01*
X-84675335Y-1717806D01*
X-84735383Y-1980893D01*
X-84755549Y-2250000D01*
X-84735383Y-2519106D01*
X-84675335Y-2782193D01*
X-84576745Y-3033394D01*
X-84576742Y-3033402D01*
X-84441818Y-3267098D01*
X-84441816Y-3267101D01*
X-84441815Y-3267102D01*
X-84273561Y-3478085D01*
X-84075741Y-3661635D01*
X-84075735Y-3661639D01*
X-83852784Y-3813645D01*
X-83852777Y-3813649D01*
X-83852774Y-3813651D01*
X-83609641Y-3930738D01*
X-83609638Y-3930738D01*
X-83609633Y-3930741D01*
X-83351783Y-4010277D01*
X-83351781Y-4010277D01*
X-83351772Y-4010280D01*
X-83084929Y-4050500D01*
X-83084925Y-4050500D01*
X-82815075Y-4050500D01*
X-82815071Y-4050500D01*
X-82548228Y-4010280D01*
X-82363840Y-3953404D01*
X-82290368Y-3930741D01*
X-82290366Y-3930739D01*
X-82290359Y-3930738D01*
X-82290354Y-3930735D01*
X-82290350Y-3930734D01*
X-82047231Y-3813654D01*
X-82047231Y-3813653D01*
X-82047225Y-3813651D01*
X-81824259Y-3661635D01*
X-81626439Y-3478085D01*
X-81458185Y-3267102D01*
X-81323257Y-3033398D01*
X-81224666Y-2782195D01*
X-81164617Y-2519103D01*
X-81144451Y-2250000D01*
X-81164617Y-1980897D01*
X-81224666Y-1717805D01*
X-81323257Y-1466602D01*
X-81323258Y-1466601D01*
X-81323259Y-1466597D01*
X-81458183Y-1232901D01*
X-81530697Y-1141972D01*
X-81626439Y-1021915D01*
X-81824259Y-838365D01*
X-81839459Y-828002D01*
X-82042581Y-689515D01*
X-82087597Y-634614D01*
X-82095786Y-564092D01*
X-82064547Y-500337D01*
X-82003799Y-463592D01*
X-81959703Y-461197D01*
X-81959624Y-460148D01*
X-81954930Y-460500D01*
X-81954929Y-460500D01*
X-81685075Y-460500D01*
X-81685071Y-460500D01*
X-81418228Y-420280D01*
X-81265413Y-373143D01*
X-81160368Y-340741D01*
X-81160366Y-340739D01*
X-81160359Y-340738D01*
X-81160354Y-340735D01*
X-81160350Y-340734D01*
X-80917231Y-223654D01*
X-80917231Y-223653D01*
X-80917225Y-223651D01*
X-80694259Y-71635D01*
X-80496439Y111915D01*
X-80328185Y322898D01*
X-80193257Y556602D01*
X-80094666Y807805D01*
X-80067566Y926538D01*
X-80032907Y988500D01*
X-79970251Y1021887D01*
X-79944725Y1024500D01*
X-75455317Y1024500D01*
X-75387196Y1004498D01*
X-75340703Y950842D01*
X-75330599Y880568D01*
X-75332798Y869089D01*
X-75335219Y859005D01*
X-75335221Y858996D01*
X-75345396Y729704D01*
X-75355604Y600000D01*
X-75335221Y341006D01*
X-75274573Y88390D01*
X-75175154Y-151628D01*
X-75119002Y-243260D01*
X-75039415Y-373136D01*
X-75039410Y-373143D01*
X-74870690Y-570689D01*
X-74675255Y-737606D01*
X-74673140Y-739412D01*
X-74579185Y-796987D01*
X-74531554Y-849635D01*
X-74519947Y-919676D01*
X-74548050Y-984874D01*
X-74555925Y-993515D01*
X-74814352Y-1251942D01*
X-74876664Y-1285968D01*
X-74947479Y-1280903D01*
X-75004315Y-1238356D01*
X-75007556Y-1233821D01*
X-75008184Y-1232900D01*
X-75008185Y-1232898D01*
X-75176439Y-1021915D01*
X-75374259Y-838365D01*
X-75374266Y-838360D01*
X-75597223Y-686350D01*
X-75597231Y-686345D01*
X-75840350Y-569265D01*
X-75840368Y-569258D01*
X-76098218Y-489722D01*
X-76098226Y-489720D01*
X-76098228Y-489720D01*
X-76365071Y-449500D01*
X-76634929Y-449500D01*
X-76901772Y-489720D01*
X-76901774Y-489720D01*
X-76901783Y-489722D01*
X-77159633Y-569258D01*
X-77159645Y-569263D01*
X-77402777Y-686350D01*
X-77402784Y-686354D01*
X-77625735Y-838360D01*
X-77625740Y-838364D01*
X-77823561Y-1021914D01*
X-77991818Y-1232901D01*
X-78126742Y-1466597D01*
X-78126745Y-1466605D01*
X-78225335Y-1717806D01*
X-78285383Y-1980893D01*
X-78305549Y-2250000D01*
X-78285383Y-2519106D01*
X-78225335Y-2782193D01*
X-78126745Y-3033394D01*
X-78126742Y-3033402D01*
X-77991818Y-3267098D01*
X-77991816Y-3267101D01*
X-77991815Y-3267102D01*
X-77823561Y-3478085D01*
X-77694436Y-3597895D01*
X-77662035Y-3627959D01*
X-77625704Y-3688956D01*
X-77628117Y-3759911D01*
X-77645800Y-3794383D01*
X-77697811Y-3865972D01*
X-77697816Y-3865979D01*
X-77797894Y-4062392D01*
X-77797897Y-4062398D01*
X-77838825Y-4188364D01*
X-77866015Y-4272049D01*
X-77900351Y-4488842D01*
X-77900500Y-4489781D01*
X-77900500Y-8574303D01*
X-77920502Y-8642424D01*
X-77927989Y-8652863D01*
X-77991818Y-8732901D01*
X-78126742Y-8966597D01*
X-78126745Y-8966605D01*
X-78225335Y-9217806D01*
X-78285383Y-9480893D01*
X-78285383Y-9480897D01*
X-78305549Y-9750000D01*
X-78285383Y-10019103D01*
X-78285383Y-10019106D01*
X-78285382Y-10019109D01*
X-78279367Y-10045464D01*
X-78283710Y-10116328D01*
X-78325676Y-10173594D01*
X-78391940Y-10199081D01*
X-78402208Y-10199500D01*
X-80467704Y-10199500D01*
X-80535825Y-10179498D01*
X-80556799Y-10162595D01*
X-81125574Y-9593820D01*
X-81159600Y-9531508D01*
X-81162126Y-9514143D01*
X-81164617Y-9480897D01*
X-81224666Y-9217805D01*
X-81323257Y-8966602D01*
X-81323258Y-8966601D01*
X-81323259Y-8966597D01*
X-81458183Y-8732901D01*
X-81626440Y-8521914D01*
X-81677798Y-8474261D01*
X-81824259Y-8338365D01*
X-81902993Y-8284685D01*
X-82047223Y-8186350D01*
X-82047231Y-8186345D01*
X-82290350Y-8069265D01*
X-82290368Y-8069258D01*
X-82548218Y-7989722D01*
X-82548226Y-7989720D01*
X-82548228Y-7989720D01*
X-82815071Y-7949500D01*
X-83084929Y-7949500D01*
X-83351772Y-7989720D01*
X-83351774Y-7989720D01*
X-83351783Y-7989722D01*
X-83609633Y-8069258D01*
X-83609645Y-8069263D01*
X-83852777Y-8186350D01*
X-83852784Y-8186354D01*
X-84075735Y-8338360D01*
X-84075740Y-8338364D01*
X-84273561Y-8521914D01*
X-84441818Y-8732901D01*
X-84576742Y-8966597D01*
X-84576745Y-8966605D01*
X-84675335Y-9217806D01*
X-84735383Y-9480893D01*
X-84755549Y-9750000D01*
X-84735383Y-10019106D01*
X-84675335Y-10282193D01*
X-84576745Y-10533394D01*
X-84576742Y-10533402D01*
X-84441818Y-10767098D01*
X-84441816Y-10767101D01*
X-84441815Y-10767102D01*
X-84273561Y-10978085D01*
X-84075741Y-11161635D01*
X-84037665Y-11187595D01*
X-84027692Y-11194394D01*
X-83982676Y-11249294D01*
X-83974487Y-11319817D01*
X-84005726Y-11383572D01*
X-84066474Y-11420317D01*
X-84098671Y-11424500D01*
X-86010902Y-11424500D01*
X-86079023Y-11404498D01*
X-86099997Y-11387595D01*
X-87563558Y-9924034D01*
X-87597584Y-9861722D01*
X-87600111Y-9825523D01*
X-87594451Y-9750000D01*
X-87614617Y-9480897D01*
X-87674666Y-9217805D01*
X-87773257Y-8966602D01*
X-87773258Y-8966601D01*
X-87773259Y-8966597D01*
X-87908183Y-8732901D01*
X-88076440Y-8521914D01*
X-88127798Y-8474261D01*
X-88274259Y-8338365D01*
X-88352993Y-8284685D01*
X-88497223Y-8186350D01*
X-88497231Y-8186345D01*
X-88740350Y-8069265D01*
X-88740368Y-8069258D01*
X-88998218Y-7989722D01*
X-88998226Y-7989720D01*
X-88998228Y-7989720D01*
X-89265071Y-7949500D01*
X-89534929Y-7949500D01*
X-89801772Y-7989720D01*
X-89801774Y-7989720D01*
X-89801783Y-7989722D01*
X-90059633Y-8069258D01*
X-90059645Y-8069263D01*
X-90302777Y-8186350D01*
X-90302784Y-8186354D01*
X-90525735Y-8338360D01*
X-90525740Y-8338364D01*
X-90723561Y-8521914D01*
X-90891818Y-8732901D01*
X-91026742Y-8966597D01*
X-91026745Y-8966605D01*
X-91125335Y-9217806D01*
X-91185383Y-9480893D01*
X-91205549Y-9750000D01*
X-91185383Y-10019106D01*
X-91125335Y-10282193D01*
X-91026745Y-10533394D01*
X-91026742Y-10533402D01*
X-90891818Y-10767098D01*
X-90891816Y-10767101D01*
X-90891815Y-10767102D01*
X-90723561Y-10978085D01*
X-90525741Y-11161635D01*
X-90525735Y-11161639D01*
X-90302784Y-11313645D01*
X-90302777Y-11313649D01*
X-90302774Y-11313651D01*
X-90059641Y-11430738D01*
X-90059638Y-11430738D01*
X-90059633Y-11430741D01*
X-89801783Y-11510277D01*
X-89801781Y-11510277D01*
X-89801772Y-11510280D01*
X-89534929Y-11550500D01*
X-89534925Y-11550500D01*
X-89314098Y-11550500D01*
X-89245977Y-11570502D01*
X-89225003Y-11587405D01*
X-87315792Y-13496617D01*
X-87315789Y-13496619D01*
X-87315786Y-13496622D01*
X-87166096Y-13605378D01*
X-87001236Y-13689379D01*
X-86825264Y-13746556D01*
X-86667501Y-13771542D01*
X-86642514Y-13775500D01*
X-86642513Y-13775500D01*
X-86642508Y-13775500D01*
X-71420489Y-13775500D01*
X-71420486Y-13775500D01*
X-71237736Y-13746555D01*
X-71061764Y-13689379D01*
X-70896904Y-13605378D01*
X-70747213Y-13496621D01*
X-64637997Y-7387403D01*
X-64575685Y-7353378D01*
X-64548902Y-7350499D01*
X-64242472Y-7350499D01*
X-64242464Y-7350499D01*
X-64123082Y-7339886D01*
X-63927451Y-7283909D01*
X-63747093Y-7189698D01*
X-63589391Y-7061109D01*
X-63460802Y-6903407D01*
X-63366591Y-6723049D01*
X-63310614Y-6527418D01*
X-63300000Y-6408037D01*
X-63300001Y-5841964D01*
X-63302740Y-5811159D01*
X-63302740Y-5788848D01*
X-63300000Y-5758037D01*
X-63300001Y-5191964D01*
X-63302740Y-5161159D01*
X-63302740Y-5138848D01*
X-63300000Y-5108037D01*
X-63300001Y-4541964D01*
X-63302740Y-4511159D01*
X-63302740Y-4488848D01*
X-63300000Y-4458037D01*
X-63300001Y-3891964D01*
X-63302740Y-3861159D01*
X-63302740Y-3838848D01*
X-63300000Y-3808037D01*
X-63300001Y-3241964D01*
X-63302740Y-3211159D01*
X-63302740Y-3188848D01*
X-63300000Y-3158037D01*
X-63300001Y-2591964D01*
X-63302740Y-2561159D01*
X-63302740Y-2538848D01*
X-63300000Y-2508037D01*
X-63300001Y-1941964D01*
X-63302740Y-1911159D01*
X-63302740Y-1888848D01*
X-63300000Y-1858037D01*
X-63300001Y-1291964D01*
X-63302740Y-1261159D01*
X-63302740Y-1238848D01*
X-63300000Y-1208037D01*
X-63300001Y-641964D01*
X-63302740Y-611159D01*
X-63302740Y-588848D01*
X-63300000Y-558037D01*
X-63300001Y8036D01*
X-63310614Y127418D01*
X-63366591Y323049D01*
X-63388395Y364790D01*
X-63402205Y434427D01*
X-63376174Y500479D01*
X-63358552Y518929D01*
X-63229311Y629311D01*
X-63060588Y826860D01*
X-63017821Y896653D01*
X-62999487Y919909D01*
X-61294822Y2624574D01*
X-61294808Y2624585D01*
X-61131763Y2787630D01*
X-61131758Y2787635D01*
X-61002185Y2965978D01*
X-60902105Y3162394D01*
X-60863079Y3282509D01*
X-60823006Y3341113D01*
X-60757610Y3368751D01*
X-60695028Y3359981D01*
X-60611610Y3325427D01*
X-60358994Y3264779D01*
X-60100000Y3244396D01*
X-59841006Y3264779D01*
X-59588390Y3325427D01*
X-59348372Y3424846D01*
X-59256847Y3480932D01*
X-59191013Y3499499D01*
X-58989780Y3499499D01*
X-58989778Y3499499D01*
X-58772049Y3533985D01*
X-58562394Y3602105D01*
X-58365978Y3702185D01*
X-58303333Y3747699D01*
X-58187635Y3831758D01*
X-58031758Y3987635D01*
X-58024585Y3994808D01*
X-58024574Y3994822D01*
X-54456799Y7562595D01*
X-54394487Y7596621D01*
X-54367704Y7599500D01*
X-48107978Y7599500D01*
X-48039857Y7579498D01*
X-47993364Y7525842D01*
X-47983260Y7455568D01*
X-47998859Y7410500D01*
X-48047844Y7325656D01*
X-48047849Y7325645D01*
X-48047850Y7325643D01*
X-48145822Y7089118D01*
X-48155716Y7052194D01*
X-48212085Y6841822D01*
X-48245500Y6588009D01*
X-48245500Y6331992D01*
X-48212085Y6078179D01*
X-48212084Y6078173D01*
X-48212083Y6078171D01*
X-48145822Y5830882D01*
X-48047850Y5594357D01*
X-48047849Y5594356D01*
X-48047844Y5594345D01*
X-47919847Y5372647D01*
X-47919842Y5372640D01*
X-47764001Y5169544D01*
X-47763982Y5169523D01*
X-47710054Y5115595D01*
X-47676028Y5053283D01*
X-47681093Y4982468D01*
X-47723640Y4925632D01*
X-47790160Y4900821D01*
X-47799149Y4900500D01*
X-53284561Y4900500D01*
X-53284585Y4900501D01*
X-53289778Y4900501D01*
X-53510222Y4900501D01*
X-53673519Y4874637D01*
X-53727952Y4866015D01*
X-53727959Y4866013D01*
X-53764991Y4853982D01*
X-53794034Y4848206D01*
X-53958984Y4835223D01*
X-53958995Y4835221D01*
X-54211611Y4774573D01*
X-54451630Y4675153D01*
X-54673137Y4539415D01*
X-54673144Y4539410D01*
X-54870690Y4370690D01*
X-55039410Y4173144D01*
X-55039415Y4173137D01*
X-55175153Y3951630D01*
X-55274573Y3711611D01*
X-55300863Y3602105D01*
X-55335221Y3458994D01*
X-55355604Y3200000D01*
X-55335221Y2941006D01*
X-55274573Y2688390D01*
X-55175154Y2448372D01*
X-55129676Y2374158D01*
X-55039415Y2226864D01*
X-55039410Y2226857D01*
X-54870690Y2029311D01*
X-54686729Y1872194D01*
X-54673140Y1860588D01*
X-54451628Y1724846D01*
X-54211610Y1625427D01*
X-53958994Y1564779D01*
X-53700000Y1544396D01*
X-53441006Y1564779D01*
X-53270585Y1605694D01*
X-53199679Y1602147D01*
X-53141945Y1560827D01*
X-53115715Y1494854D01*
X-53115526Y1473764D01*
X-53123722Y1364379D01*
X-53125549Y1340000D01*
X-53119890Y1264478D01*
X-53134746Y1195053D01*
X-53156442Y1165968D01*
X-53410003Y912405D01*
X-53472315Y878380D01*
X-53499099Y875500D01*
X-58006164Y875500D01*
X-58045069Y882983D01*
X-58045307Y882151D01*
X-58095979Y896650D01*
X-58247082Y939886D01*
X-58366463Y950500D01*
X-58366468Y950500D01*
X-59957528Y950500D01*
X-59957538Y950499D01*
X-60076912Y939887D01*
X-60076915Y939887D01*
X-60076918Y939886D01*
X-60272549Y883909D01*
X-60272552Y883908D01*
X-60452905Y789700D01*
X-60610609Y661109D01*
X-60739200Y503405D01*
X-60833408Y323052D01*
X-60833409Y323050D01*
X-60833409Y323049D01*
X-60889386Y127418D01*
X-60889386Y127412D01*
X-60900000Y8035D01*
X-60900000Y-558026D01*
X-60899999Y-558041D01*
X-60897261Y-588839D01*
X-60897261Y-611150D01*
X-60900000Y-641959D01*
X-60900000Y-1208027D01*
X-60899999Y-1208037D01*
X-60892538Y-1291971D01*
X-60889386Y-1327418D01*
X-60838296Y-1505968D01*
X-60833407Y-1523056D01*
X-60831327Y-1528263D01*
X-60824634Y-1598943D01*
X-60831327Y-1621737D01*
X-60833407Y-1626943D01*
X-60850620Y-1687100D01*
X-60889386Y-1822582D01*
X-60890384Y-1833813D01*
X-60900000Y-1941965D01*
X-60900000Y-2508026D01*
X-60899999Y-2508041D01*
X-60897261Y-2538839D01*
X-60897261Y-2561150D01*
X-60900000Y-2591959D01*
X-60900000Y-3158026D01*
X-60899999Y-3158041D01*
X-60897261Y-3188839D01*
X-60897261Y-3211150D01*
X-60900000Y-3241959D01*
X-60900000Y-3808026D01*
X-60899999Y-3808041D01*
X-60897261Y-3838839D01*
X-60897261Y-3861150D01*
X-60900000Y-3891959D01*
X-60900000Y-4458026D01*
X-60899999Y-4458041D01*
X-60897261Y-4488839D01*
X-60897261Y-4511150D01*
X-60900000Y-4541959D01*
X-60900000Y-5108026D01*
X-60899999Y-5108041D01*
X-60897261Y-5138839D01*
X-60897261Y-5161150D01*
X-60900000Y-5191959D01*
X-60900000Y-5758026D01*
X-60899999Y-5758041D01*
X-60897261Y-5788839D01*
X-60897261Y-5811150D01*
X-60900000Y-5841959D01*
X-60900000Y-6408027D01*
X-60899999Y-6408034D01*
X-60899999Y-6408036D01*
X-60889386Y-6527418D01*
X-60833409Y-6723049D01*
X-60833408Y-6723051D01*
X-60739879Y-6902105D01*
X-60739198Y-6903407D01*
X-60610609Y-7061109D01*
X-60452907Y-7189698D01*
X-60430163Y-7201578D01*
X-60379044Y-7250847D01*
X-60362500Y-7313260D01*
X-60362500Y-9454300D01*
X-60368667Y-9493233D01*
X-60384962Y-9543385D01*
X-60430477Y-9683462D01*
X-60437319Y-9726664D01*
X-60462500Y-9885648D01*
X-60462500Y-10090352D01*
X-60445279Y-10199081D01*
X-60430477Y-10292537D01*
X-60367220Y-10487219D01*
X-60274290Y-10669607D01*
X-60274287Y-10669611D01*
X-60153966Y-10835219D01*
X-60153964Y-10835221D01*
X-60153962Y-10835224D01*
X-57962405Y-13026780D01*
X-57928380Y-13089092D01*
X-57925500Y-13115875D01*
X-57925500Y-13983027D01*
X-57925499Y-13983036D01*
X-57914886Y-14102418D01*
X-57858909Y-14298049D01*
X-57858908Y-14298051D01*
X-57794162Y-14422002D01*
X-57764698Y-14478407D01*
X-57636109Y-14636109D01*
X-57478407Y-14764698D01*
X-57478405Y-14764699D01*
X-57426487Y-14791819D01*
X-57375369Y-14841087D01*
X-57359002Y-14910172D01*
X-57382583Y-14977138D01*
X-57438625Y-15020724D01*
X-57484825Y-15029500D01*
X-105068500Y-15029500D01*
X-105136621Y-15009498D01*
X-105183114Y-14955842D01*
X-105194500Y-14903500D01*
X-105194500Y-11821290D01*
X-103750500Y-11821290D01*
X-103718840Y-12061782D01*
X-103656056Y-12296095D01*
X-103656055Y-12296097D01*
X-103656054Y-12296100D01*
X-103563224Y-12520212D01*
X-103563223Y-12520213D01*
X-103563218Y-12520224D01*
X-103441939Y-12730285D01*
X-103441937Y-12730288D01*
X-103441936Y-12730289D01*
X-103294265Y-12922738D01*
X-103294261Y-12922742D01*
X-103294256Y-12922748D01*
X-103122749Y-13094255D01*
X-103122744Y-13094259D01*
X-103122738Y-13094265D01*
X-102930289Y-13241936D01*
X-102930286Y-13241938D01*
X-102720225Y-13363217D01*
X-102720221Y-13363218D01*
X-102720212Y-13363224D01*
X-102496100Y-13456054D01*
X-102261789Y-13518838D01*
X-102261785Y-13518838D01*
X-102261783Y-13518839D01*
X-102199798Y-13526999D01*
X-102021288Y-13550500D01*
X-102021281Y-13550500D01*
X-101778719Y-13550500D01*
X-101778712Y-13550500D01*
X-101561363Y-13521885D01*
X-101538218Y-13518839D01*
X-101538218Y-13518838D01*
X-101538211Y-13518838D01*
X-101303900Y-13456054D01*
X-101079788Y-13363224D01*
X-100869711Y-13241936D01*
X-100677262Y-13094265D01*
X-100505735Y-12922738D01*
X-100358064Y-12730289D01*
X-100236776Y-12520212D01*
X-100143946Y-12296100D01*
X-100081162Y-12061789D01*
X-100049500Y-11821288D01*
X-100049500Y-11578712D01*
X-100081162Y-11338211D01*
X-100143946Y-11103900D01*
X-100236776Y-10879788D01*
X-100236782Y-10879779D01*
X-100236783Y-10879775D01*
X-100358062Y-10669714D01*
X-100358144Y-10669607D01*
X-100505735Y-10477262D01*
X-100505741Y-10477256D01*
X-100505745Y-10477251D01*
X-100677252Y-10305744D01*
X-100677258Y-10305739D01*
X-100677262Y-10305735D01*
X-100869711Y-10158064D01*
X-100869712Y-10158063D01*
X-100869715Y-10158061D01*
X-101079776Y-10036782D01*
X-101079784Y-10036778D01*
X-101079788Y-10036776D01*
X-101303900Y-9943946D01*
X-101303903Y-9943945D01*
X-101303905Y-9943944D01*
X-101538218Y-9881160D01*
X-101778710Y-9849500D01*
X-101778712Y-9849500D01*
X-102021288Y-9849500D01*
X-102021291Y-9849500D01*
X-102261783Y-9881160D01*
X-102496096Y-9943944D01*
X-102496100Y-9943946D01*
X-102677552Y-10019106D01*
X-102720214Y-10036777D01*
X-102720225Y-10036782D01*
X-102930286Y-10158061D01*
X-103122738Y-10305735D01*
X-103122749Y-10305744D01*
X-103294256Y-10477251D01*
X-103294265Y-10477262D01*
X-103441939Y-10669714D01*
X-103563218Y-10879775D01*
X-103563223Y-10879786D01*
X-103656054Y-11103900D01*
X-103656056Y-11103904D01*
X-103718840Y-11338217D01*
X-103750500Y-11578709D01*
X-103750500Y-11821290D01*
X-105194500Y-11821290D01*
X-105194500Y729704D01*
X-105174498Y797825D01*
X-105120842Y844318D01*
X-105050568Y854422D01*
X-104985988Y824928D01*
X-104979405Y818799D01*
X-101517405Y-2643201D01*
X-101483379Y-2705513D01*
X-101480500Y-2732296D01*
X-101480500Y-3458027D01*
X-101480499Y-3458034D01*
X-101480499Y-3458036D01*
X-101469886Y-3577418D01*
X-101413909Y-3773049D01*
X-101413908Y-3773051D01*
X-101329836Y-3934000D01*
X-101319698Y-3953407D01*
X-101191109Y-4111109D01*
X-101033407Y-4239698D01*
X-100853049Y-4333909D01*
X-100657418Y-4389886D01*
X-100538037Y-4400500D01*
X-99221964Y-4400499D01*
X-99102582Y-4389886D01*
X-98906951Y-4333909D01*
X-98726593Y-4239698D01*
X-98568891Y-4111109D01*
X-98440302Y-3953407D01*
X-98346091Y-3773049D01*
X-98290114Y-3577418D01*
X-98279500Y-3458037D01*
X-98279501Y-1141964D01*
X-98290114Y-1022582D01*
X-98346091Y-826951D01*
X-98440302Y-646593D01*
X-98568891Y-488891D01*
X-98726593Y-360302D01*
X-98726595Y-360301D01*
X-98726596Y-360300D01*
X-98906949Y-266092D01*
X-98906950Y-266091D01*
X-98906951Y-266091D01*
X-99102582Y-210114D01*
X-99221963Y-199500D01*
X-99221966Y-199500D01*
X-99947704Y-199500D01*
X-100015825Y-179498D01*
X-100036799Y-162595D01*
X-100276299Y76905D01*
X-100310325Y139217D01*
X-100305260Y210032D01*
X-100262713Y266868D01*
X-100196193Y291679D01*
X-100187204Y292000D01*
X-97854000Y292000D01*
X-97854000Y3746000D01*
X-97346000Y3746000D01*
X-97346000Y292000D01*
X-94651415Y292000D01*
X-94651403Y292001D01*
X-94590907Y298506D01*
X-94454036Y349556D01*
X-94454035Y349556D01*
X-94337096Y437096D01*
X-94249556Y554035D01*
X-94249556Y554036D01*
X-94198506Y690907D01*
X-94192001Y751403D01*
X-94192000Y751415D01*
X-94192000Y3746000D01*
X-97346000Y3746000D01*
X-97854000Y3746000D01*
X-101008000Y3746000D01*
X-101008000Y1112796D01*
X-101028002Y1044675D01*
X-101081658Y998182D01*
X-101151932Y988078D01*
X-101216512Y1017572D01*
X-101223095Y1023701D01*
X-102762595Y2563201D01*
X-102796621Y2625513D01*
X-102799500Y2652296D01*
X-102799500Y4254000D01*
X-101008000Y4254000D01*
X-97854000Y4254000D01*
X-97854000Y7708000D01*
X-97346000Y7708000D01*
X-97346000Y4254000D01*
X-94192000Y4254000D01*
X-94192000Y7248586D01*
X-94192001Y7248598D01*
X-94198506Y7309094D01*
X-94249556Y7445965D01*
X-94249556Y7445966D01*
X-94337096Y7562905D01*
X-94454035Y7650445D01*
X-94590907Y7701495D01*
X-94651403Y7708000D01*
X-97346000Y7708000D01*
X-97854000Y7708000D01*
X-100548598Y7708000D01*
X-100609094Y7701495D01*
X-100745965Y7650445D01*
X-100745966Y7650445D01*
X-100862905Y7562905D01*
X-100950445Y7445966D01*
X-100950445Y7445965D01*
X-101001495Y7309094D01*
X-101008000Y7248598D01*
X-101008000Y4254000D01*
X-102799500Y4254000D01*
X-102799500Y10245046D01*
X-102779498Y10313167D01*
X-102725842Y10359660D01*
X-102655568Y10369764D01*
X-102593982Y10342785D01*
X-102560676Y10315688D01*
X-102325970Y10172962D01*
X-102074011Y10063520D01*
X-101809491Y9989405D01*
X-101537365Y9952001D01*
X-101537351Y9952000D01*
X-101262649Y9952000D01*
X-101262636Y9952001D01*
X-100990510Y9989405D01*
X-100725990Y10063520D01*
X-100474031Y10172962D01*
X-100239321Y10315691D01*
X-100170717Y10371507D01*
X-100170717Y10371508D01*
X-101072321Y11273112D01*
X-101040005Y11286497D01*
X-100915528Y11369670D01*
X-100809670Y11475528D01*
X-100726497Y11600005D01*
X-100713112Y11632322D01*
X-99810543Y10729753D01*
X-99680318Y10914238D01*
X-99680315Y10914244D01*
X-99553939Y11158135D01*
X-99461945Y11416981D01*
X-99461943Y11416989D01*
X-99406054Y11685946D01*
X-99406053Y11685952D01*
X-99387308Y11959996D01*
X-99387308Y11960005D01*
X-99406053Y12234049D01*
X-99406054Y12234055D01*
X-99461943Y12503012D01*
X-99461945Y12503020D01*
X-99553939Y12761866D01*
X-99680315Y13005757D01*
X-99680319Y13005763D01*
X-99810543Y13190250D01*
X-100713112Y12287681D01*
X-100726497Y12319995D01*
X-100809670Y12444472D01*
X-100915528Y12550330D01*
X-101040005Y12633503D01*
X-101072323Y12646890D01*
X-100170717Y13548495D01*
X-100170717Y13548496D01*
X-100239320Y13604309D01*
X-100474031Y13747039D01*
X-100725990Y13856481D01*
X-100990510Y13930596D01*
X-101262636Y13968000D01*
X-101537365Y13968000D01*
X-101809491Y13930596D01*
X-102074011Y13856481D01*
X-102325968Y13747040D01*
X-102415462Y13692618D01*
X-102484058Y13674315D01*
X-102551661Y13696003D01*
X-102596807Y13750797D01*
X-102605162Y13821300D01*
X-102574073Y13885129D01*
X-102570023Y13889371D01*
X-101956798Y14502596D01*
X-101894486Y14536622D01*
X-101867703Y14539501D01*
X-99841972Y14539501D01*
X-99841964Y14539501D01*
X-99722582Y14550114D01*
X-99526951Y14606091D01*
X-99346593Y14700302D01*
X-99188891Y14828891D01*
X-99060302Y14986593D01*
X-98966091Y15166951D01*
X-98910114Y15362582D01*
X-98899500Y15481963D01*
X-98899501Y16659178D01*
X-98879499Y16727298D01*
X-98862601Y16748267D01*
X-80808271Y34802595D01*
X-80745959Y34836621D01*
X-80719176Y34839500D01*
X-79465287Y34839500D01*
X-79397166Y34819498D01*
G37*
%TD.AperFunction*%
%TA.AperFunction,Conductor*%
G36*
X4346621Y44549498D02*
G01*
X4393114Y44495842D01*
X4404500Y44443500D01*
X4404500Y-14903500D01*
X4384498Y-14971621D01*
X4330842Y-15018114D01*
X4278500Y-15029500D01*
X-40081597Y-15029500D01*
X-40149718Y-15009498D01*
X-40196211Y-14955842D01*
X-40206315Y-14885568D01*
X-40176821Y-14820988D01*
X-40125631Y-14785444D01*
X-40064311Y-14762574D01*
X-39831989Y-14635716D01*
X-39620085Y-14477087D01*
X-39432913Y-14289915D01*
X-39330242Y-14152761D01*
X-39273409Y-14110217D01*
X-39202593Y-14105151D01*
X-39151985Y-14128841D01*
X-39040310Y-14215762D01*
X-39040301Y-14215768D01*
X-38842372Y-14322882D01*
X-38842370Y-14322883D01*
X-38629517Y-14395955D01*
X-38629508Y-14395957D01*
X-38549000Y-14409391D01*
X-38549000Y-13505702D01*
X-38487993Y-13540925D01*
X-38360826Y-13575000D01*
X-38229174Y-13575000D01*
X-38102007Y-13540925D01*
X-38041000Y-13505702D01*
X-38041000Y-14409390D01*
X-37960493Y-14395957D01*
X-37960484Y-14395955D01*
X-37747631Y-14322883D01*
X-37747629Y-14322882D01*
X-37549700Y-14215768D01*
X-37549699Y-14215767D01*
X-37372098Y-14077534D01*
X-37219675Y-13911958D01*
X-37096581Y-13723548D01*
X-37006180Y-13517456D01*
X-37006177Y-13517449D01*
X-36958456Y-13329000D01*
X-37864297Y-13329000D01*
X-37829075Y-13267993D01*
X-37795000Y-13140826D01*
X-37795000Y-13009174D01*
X-37829075Y-12882007D01*
X-37864297Y-12821000D01*
X-36958456Y-12821000D01*
X-36958456Y-12820999D01*
X-37006177Y-12632550D01*
X-37006180Y-12632543D01*
X-37096581Y-12426451D01*
X-37219675Y-12238041D01*
X-37372098Y-12072465D01*
X-37549699Y-11934232D01*
X-37549700Y-11934231D01*
X-37747629Y-11827117D01*
X-37747631Y-11827116D01*
X-37764602Y-11821290D01*
X-750500Y-11821290D01*
X-718840Y-12061782D01*
X-656056Y-12296095D01*
X-656055Y-12296097D01*
X-656054Y-12296100D01*
X-563224Y-12520212D01*
X-563223Y-12520213D01*
X-563218Y-12520224D01*
X-441939Y-12730285D01*
X-441937Y-12730288D01*
X-441936Y-12730289D01*
X-294265Y-12922738D01*
X-294261Y-12922742D01*
X-294256Y-12922748D01*
X-122749Y-13094255D01*
X-122744Y-13094259D01*
X-122738Y-13094265D01*
X69711Y-13241936D01*
X69714Y-13241938D01*
X279775Y-13363217D01*
X279779Y-13363218D01*
X279788Y-13363224D01*
X503900Y-13456054D01*
X738211Y-13518838D01*
X738215Y-13518838D01*
X738217Y-13518839D01*
X800202Y-13526999D01*
X978712Y-13550500D01*
X978719Y-13550500D01*
X1221281Y-13550500D01*
X1221288Y-13550500D01*
X1438637Y-13521885D01*
X1461782Y-13518839D01*
X1461782Y-13518838D01*
X1461789Y-13518838D01*
X1696100Y-13456054D01*
X1920212Y-13363224D01*
X2130289Y-13241936D01*
X2322738Y-13094265D01*
X2494265Y-12922738D01*
X2641936Y-12730289D01*
X2763224Y-12520212D01*
X2856054Y-12296100D01*
X2918838Y-12061789D01*
X2950500Y-11821288D01*
X2950500Y-11578712D01*
X2918838Y-11338211D01*
X2856054Y-11103900D01*
X2763224Y-10879788D01*
X2763218Y-10879779D01*
X2763217Y-10879775D01*
X2641938Y-10669714D01*
X2641856Y-10669607D01*
X2494265Y-10477262D01*
X2494259Y-10477256D01*
X2494255Y-10477251D01*
X2322748Y-10305744D01*
X2322742Y-10305739D01*
X2322738Y-10305735D01*
X2130289Y-10158064D01*
X2130288Y-10158063D01*
X2130285Y-10158061D01*
X1920224Y-10036782D01*
X1920216Y-10036778D01*
X1920212Y-10036776D01*
X1696100Y-9943946D01*
X1696097Y-9943945D01*
X1696095Y-9943944D01*
X1461782Y-9881160D01*
X1221290Y-9849500D01*
X1221288Y-9849500D01*
X978712Y-9849500D01*
X978709Y-9849500D01*
X738217Y-9881160D01*
X503904Y-9943944D01*
X503900Y-9943946D01*
X322448Y-10019106D01*
X279786Y-10036777D01*
X279775Y-10036782D01*
X69714Y-10158061D01*
X-122738Y-10305735D01*
X-122749Y-10305744D01*
X-294256Y-10477251D01*
X-294265Y-10477262D01*
X-441939Y-10669714D01*
X-563218Y-10879775D01*
X-563223Y-10879786D01*
X-656054Y-11103900D01*
X-656056Y-11103904D01*
X-718840Y-11338217D01*
X-750500Y-11578709D01*
X-750500Y-11821290D01*
X-37764602Y-11821290D01*
X-37960488Y-11754043D01*
X-37960499Y-11754040D01*
X-38041000Y-11740606D01*
X-38041000Y-12644297D01*
X-38102007Y-12609075D01*
X-38229174Y-12575000D01*
X-38360826Y-12575000D01*
X-38487993Y-12609075D01*
X-38549000Y-12644297D01*
X-38549000Y-11740607D01*
X-38549001Y-11740606D01*
X-38629502Y-11754040D01*
X-38629513Y-11754043D01*
X-38842370Y-11827116D01*
X-38842372Y-11827117D01*
X-39040301Y-11934231D01*
X-39040309Y-11934237D01*
X-39151986Y-12021158D01*
X-39218029Y-12047214D01*
X-39287674Y-12033428D01*
X-39330244Y-11997235D01*
X-39377404Y-11934237D01*
X-39432913Y-11860085D01*
X-39432915Y-11860083D01*
X-39432923Y-11860074D01*
X-39620075Y-11672922D01*
X-39620084Y-11672914D01*
X-39756891Y-11570502D01*
X-39831989Y-11514284D01*
X-39831991Y-11514283D01*
X-39831992Y-11514282D01*
X-40064308Y-11387427D01*
X-40064311Y-11387426D01*
X-40312322Y-11294923D01*
X-40570978Y-11238656D01*
X-40835000Y-11219773D01*
X-41099023Y-11238656D01*
X-41357679Y-11294923D01*
X-41605689Y-11387426D01*
X-41605693Y-11387427D01*
X-41838008Y-11514281D01*
X-41872992Y-11540470D01*
X-41939513Y-11565280D01*
X-42008887Y-11550188D01*
X-42059088Y-11499985D01*
X-42074500Y-11439601D01*
X-42074500Y-10122651D01*
X-42075501Y-10116328D01*
X-42106523Y-9920466D01*
X-42119294Y-9881162D01*
X-42168255Y-9730476D01*
X-42169330Y-9726664D01*
X-42217687Y-9631757D01*
X-42217687Y-9631758D01*
X-42262713Y-9543389D01*
X-42383034Y-9377781D01*
X-42383037Y-9377778D01*
X-42383039Y-9377775D01*
X-44309095Y-7451720D01*
X-44343120Y-7389408D01*
X-44338056Y-7318593D01*
X-44295509Y-7261757D01*
X-44274673Y-7249104D01*
X-44097225Y-7163651D01*
X-43874259Y-7011635D01*
X-43676439Y-6828085D01*
X-43508185Y-6617102D01*
X-43387482Y-6408037D01*
X-43373259Y-6383402D01*
X-43373257Y-6383398D01*
X-43274666Y-6132195D01*
X-43214617Y-5869103D01*
X-43194451Y-5600000D01*
X-43214617Y-5330897D01*
X-43274666Y-5067805D01*
X-43373257Y-4816602D01*
X-43373258Y-4816601D01*
X-43373259Y-4816597D01*
X-43508183Y-4582901D01*
X-43540824Y-4541971D01*
X-43676439Y-4371915D01*
X-43874259Y-4188365D01*
X-43961224Y-4129073D01*
X-44097223Y-4036350D01*
X-44097231Y-4036345D01*
X-44340350Y-3919265D01*
X-44340368Y-3919258D01*
X-44598218Y-3839722D01*
X-44598226Y-3839720D01*
X-44598228Y-3839720D01*
X-44865071Y-3799500D01*
X-45085902Y-3799500D01*
X-45154023Y-3779498D01*
X-45174997Y-3762595D01*
X-45511592Y-3426000D01*
X-11086083Y-3426000D01*
X-10111686Y-3426000D01*
X-10120080Y-3434394D01*
X-10172741Y-3525606D01*
X-10200000Y-3627339D01*
X-10200000Y-3732661D01*
X-10172741Y-3834394D01*
X-10120080Y-3925606D01*
X-10111686Y-3934000D01*
X-11086082Y-3934000D01*
X-11033814Y-4129068D01*
X-11033812Y-4129073D01*
X-10937088Y-4336498D01*
X-10805816Y-4523974D01*
X-10805811Y-4523980D01*
X-10643981Y-4685810D01*
X-10643975Y-4685815D01*
X-10456499Y-4817087D01*
X-10249074Y-4913811D01*
X-10249069Y-4913813D01*
X-10054000Y-4966081D01*
X-10054000Y-3991686D01*
X-10045606Y-4000080D01*
X-9954394Y-4052741D01*
X-9852661Y-4080000D01*
X-9747339Y-4080000D01*
X-9645606Y-4052741D01*
X-9554394Y-4000080D01*
X-9546000Y-3991686D01*
X-9546000Y-4966081D01*
X-9350932Y-4913813D01*
X-9350927Y-4913811D01*
X-9143502Y-4817087D01*
X-8956026Y-4685815D01*
X-8956020Y-4685810D01*
X-8794190Y-4523980D01*
X-8794185Y-4523974D01*
X-8662913Y-4336498D01*
X-8566189Y-4129073D01*
X-8566187Y-4129068D01*
X-8513918Y-3934000D01*
X-9488314Y-3934000D01*
X-9479920Y-3925606D01*
X-9427259Y-3834394D01*
X-9400000Y-3732661D01*
X-9400000Y-3627339D01*
X-9427259Y-3525606D01*
X-9479920Y-3434394D01*
X-9488314Y-3426000D01*
X-8513918Y-3426000D01*
X-8566187Y-3230931D01*
X-8566189Y-3230926D01*
X-8662913Y-3023501D01*
X-8794185Y-2836025D01*
X-8794190Y-2836019D01*
X-8956020Y-2674189D01*
X-8956026Y-2674184D01*
X-9143502Y-2542912D01*
X-9350927Y-2446188D01*
X-9350929Y-2446187D01*
X-9546000Y-2393917D01*
X-9546000Y-3368314D01*
X-9554394Y-3359920D01*
X-9645606Y-3307259D01*
X-9747339Y-3280000D01*
X-9852661Y-3280000D01*
X-9954394Y-3307259D01*
X-10045606Y-3359920D01*
X-10054000Y-3368314D01*
X-10054000Y-2393917D01*
X-10054001Y-2393917D01*
X-10249072Y-2446187D01*
X-10249074Y-2446188D01*
X-10456499Y-2542912D01*
X-10643975Y-2674184D01*
X-10643981Y-2674189D01*
X-10805811Y-2836019D01*
X-10805816Y-2836025D01*
X-10937088Y-3023501D01*
X-11033812Y-3230926D01*
X-11033814Y-3230931D01*
X-11086083Y-3426000D01*
X-45511592Y-3426000D01*
X-47298497Y-1639095D01*
X-47332523Y-1576783D01*
X-47327458Y-1505968D01*
X-47298497Y-1460905D01*
X-46538495Y-700903D01*
X-46476841Y-667236D01*
X-46476857Y-667169D01*
X-46476609Y-667109D01*
X-46476183Y-666877D01*
X-46473692Y-666409D01*
X-46472054Y-666016D01*
X-46472053Y-666015D01*
X-46472049Y-666015D01*
X-46462428Y-662888D01*
X-46391462Y-660861D01*
X-46330664Y-697523D01*
X-46299338Y-761234D01*
X-46297972Y-771739D01*
X-46293051Y-827989D01*
X-46293050Y-827994D01*
X-46233814Y-1049069D01*
X-46233812Y-1049073D01*
X-46137087Y-1256501D01*
X-46087101Y-1327888D01*
X-45400000Y-640789D01*
X-45400000Y-652661D01*
X-45372741Y-754394D01*
X-45320080Y-845606D01*
X-45245606Y-920080D01*
X-45154394Y-972741D01*
X-45052661Y-1000000D01*
X-45040790Y-1000000D01*
X-45727890Y-1687098D01*
X-45727890Y-1687100D01*
X-45656502Y-1737086D01*
X-45449074Y-1833811D01*
X-45449069Y-1833813D01*
X-45228001Y-1893048D01*
X-45228005Y-1893048D01*
X-45000000Y-1912995D01*
X-44771998Y-1893048D01*
X-44550932Y-1833813D01*
X-44550927Y-1833811D01*
X-44343503Y-1737088D01*
X-44272112Y-1687099D01*
X-44272112Y-1687097D01*
X-44959209Y-1000000D01*
X-44947339Y-1000000D01*
X-44845606Y-972741D01*
X-44754394Y-920080D01*
X-44679920Y-845606D01*
X-44627259Y-754394D01*
X-44600000Y-652661D01*
X-44600000Y-640789D01*
X-43912902Y-1327888D01*
X-43912901Y-1327888D01*
X-43862912Y-1256497D01*
X-43766189Y-1049073D01*
X-43766187Y-1049068D01*
X-43706952Y-828002D01*
X-43688362Y-615518D01*
X-43662499Y-549400D01*
X-43604995Y-507761D01*
X-43562841Y-500500D01*
X-21775439Y-500500D01*
X-21775415Y-500501D01*
X-21770222Y-500501D01*
X-21549781Y-500501D01*
X-21549778Y-500501D01*
X-21332049Y-466015D01*
X-21332041Y-466012D01*
X-21332039Y-466012D01*
X-21327233Y-464859D01*
X-21327066Y-465558D01*
X-21295119Y-460500D01*
X-21085075Y-460500D01*
X-21085071Y-460500D01*
X-20818228Y-420280D01*
X-20665413Y-373143D01*
X-20560368Y-340741D01*
X-20560366Y-340739D01*
X-20560359Y-340738D01*
X-20560354Y-340735D01*
X-20560350Y-340734D01*
X-20317231Y-223654D01*
X-20317231Y-223653D01*
X-20317225Y-223651D01*
X-20094259Y-71635D01*
X-19896439Y111915D01*
X-19728185Y322898D01*
X-19593257Y556602D01*
X-19494666Y807805D01*
X-19434617Y1070897D01*
X-19414451Y1340000D01*
X-19434617Y1609103D01*
X-19494666Y1872195D01*
X-19593257Y2123398D01*
X-19593258Y2123399D01*
X-19593259Y2123403D01*
X-19728183Y2357099D01*
X-19793732Y2439294D01*
X-19896439Y2568085D01*
X-20094259Y2751635D01*
X-20101833Y2756799D01*
X-20317223Y2903650D01*
X-20317231Y2903655D01*
X-20560350Y3020735D01*
X-20560368Y3020742D01*
X-20818218Y3100278D01*
X-20818226Y3100280D01*
X-20818228Y3100280D01*
X-21085071Y3140500D01*
X-21354929Y3140500D01*
X-21621772Y3100280D01*
X-21621774Y3100280D01*
X-21621783Y3100278D01*
X-21879633Y3020742D01*
X-21879645Y3020737D01*
X-22122777Y2903650D01*
X-22122784Y2903646D01*
X-22345735Y2751640D01*
X-22345740Y2751636D01*
X-22543561Y2568086D01*
X-22711824Y2357091D01*
X-22712898Y2355515D01*
X-22713425Y2355084D01*
X-22714754Y2353416D01*
X-22715111Y2353701D01*
X-22767801Y2310502D01*
X-22816999Y2300500D01*
X-30114704Y2300500D01*
X-30182825Y2320502D01*
X-30229318Y2374158D01*
X-30239422Y2444432D01*
X-30209928Y2509012D01*
X-30203799Y2515595D01*
X-25156799Y7562595D01*
X-25094487Y7596621D01*
X-25067704Y7599500D01*
X-17642978Y7599500D01*
X-17574857Y7579498D01*
X-17528364Y7525842D01*
X-17518260Y7455568D01*
X-17533859Y7410500D01*
X-17582844Y7325656D01*
X-17582849Y7325645D01*
X-17582850Y7325643D01*
X-17680822Y7089118D01*
X-17690716Y7052194D01*
X-17747085Y6841822D01*
X-17780500Y6588009D01*
X-17780500Y6331992D01*
X-17747085Y6078179D01*
X-17747084Y6078173D01*
X-17747083Y6078171D01*
X-17680822Y5830882D01*
X-17582850Y5594357D01*
X-17582849Y5594356D01*
X-17582844Y5594345D01*
X-17454847Y5372647D01*
X-17454842Y5372640D01*
X-17299001Y5169544D01*
X-17298982Y5169523D01*
X-17117978Y4988519D01*
X-17117957Y4988500D01*
X-16914861Y4832659D01*
X-16914854Y4832654D01*
X-16693156Y4704657D01*
X-16693152Y4704656D01*
X-16693143Y4704650D01*
X-16456618Y4606678D01*
X-16209329Y4540417D01*
X-16209323Y4540417D01*
X-16209322Y4540416D01*
X-16180201Y4536583D01*
X-15955506Y4507000D01*
X-15955499Y4507000D01*
X-15604501Y4507000D01*
X-15604494Y4507000D01*
X-15350671Y4540417D01*
X-15103382Y4606678D01*
X-14866857Y4704650D01*
X-14645143Y4832656D01*
X-14442035Y4988507D01*
X-14261007Y5169535D01*
X-14105156Y5372643D01*
X-13977150Y5594357D01*
X-13879178Y5830882D01*
X-13812917Y6078171D01*
X-13779500Y6331994D01*
X-13779500Y6480000D01*
X-11605549Y6480000D01*
X-11585383Y6210894D01*
X-11525335Y5947807D01*
X-11426745Y5696606D01*
X-11426742Y5696598D01*
X-11291818Y5462902D01*
X-11291816Y5462899D01*
X-11291815Y5462898D01*
X-11123561Y5251915D01*
X-10925741Y5068365D01*
X-10925735Y5068361D01*
X-10702784Y4916355D01*
X-10702777Y4916351D01*
X-10702774Y4916349D01*
X-10459641Y4799262D01*
X-10459638Y4799262D01*
X-10459633Y4799259D01*
X-10201783Y4719723D01*
X-10201781Y4719723D01*
X-10201772Y4719720D01*
X-9934929Y4679500D01*
X-9934925Y4679500D01*
X-9665075Y4679500D01*
X-9665071Y4679500D01*
X-9398228Y4719720D01*
X-9279489Y4756346D01*
X-9140368Y4799259D01*
X-9140366Y4799261D01*
X-9140359Y4799262D01*
X-9140354Y4799265D01*
X-9140350Y4799266D01*
X-8897231Y4916346D01*
X-8897231Y4916347D01*
X-8897225Y4916349D01*
X-8674259Y5068365D01*
X-8476439Y5251915D01*
X-8308185Y5462898D01*
X-8201686Y5647361D01*
X-8173259Y5696598D01*
X-8173257Y5696602D01*
X-8074666Y5947805D01*
X-8014617Y6210897D01*
X-7994451Y6480000D01*
X-8014617Y6749103D01*
X-8074666Y7012195D01*
X-8173257Y7263398D01*
X-8173258Y7263399D01*
X-8173259Y7263403D01*
X-8308183Y7497099D01*
X-8331105Y7525842D01*
X-8476439Y7708085D01*
X-8674259Y7891635D01*
X-8732928Y7931635D01*
X-8897223Y8043650D01*
X-8897231Y8043655D01*
X-9140350Y8160735D01*
X-9140368Y8160742D01*
X-9398218Y8240278D01*
X-9398226Y8240280D01*
X-9398228Y8240280D01*
X-9665071Y8280500D01*
X-9934929Y8280500D01*
X-10201772Y8240280D01*
X-10201774Y8240280D01*
X-10201783Y8240278D01*
X-10459633Y8160742D01*
X-10459645Y8160737D01*
X-10702777Y8043650D01*
X-10702784Y8043646D01*
X-10925735Y7891640D01*
X-10925740Y7891636D01*
X-11123561Y7708086D01*
X-11291818Y7497099D01*
X-11426742Y7263403D01*
X-11426745Y7263395D01*
X-11525335Y7012194D01*
X-11585383Y6749107D01*
X-11605549Y6480000D01*
X-13779500Y6480000D01*
X-13779500Y6588006D01*
X-13812810Y6841015D01*
X-13812916Y6841822D01*
X-13812917Y6841827D01*
X-13812917Y6841829D01*
X-13879178Y7089118D01*
X-13977150Y7325643D01*
X-13977156Y7325652D01*
X-13977157Y7325656D01*
X-14076140Y7497099D01*
X-14105156Y7547357D01*
X-14186449Y7653299D01*
X-14212048Y7719515D01*
X-14197784Y7789064D01*
X-14186454Y7806695D01*
X-14105156Y7912643D01*
X-13977150Y8134357D01*
X-13879178Y8370882D01*
X-13812917Y8618171D01*
X-13779500Y8871994D01*
X-13779500Y9128006D01*
X-13812917Y9381829D01*
X-13879178Y9629118D01*
X-13977150Y9865643D01*
X-13977157Y9865656D01*
X-13978979Y9869352D01*
X-13977213Y9870224D01*
X-13992098Y9931491D01*
X-13968902Y9998591D01*
X-13963898Y10005156D01*
X-13940302Y10034093D01*
X-13846091Y10214451D01*
X-13790114Y10410082D01*
X-13779500Y10529463D01*
X-13779501Y12550536D01*
X-13790114Y12669913D01*
X-13790113Y12669913D01*
X-13792532Y12678367D01*
X-13846091Y12865549D01*
X-13940302Y13045907D01*
X-14068891Y13203609D01*
X-14226593Y13332198D01*
X-14226595Y13332199D01*
X-14226596Y13332200D01*
X-14406949Y13426408D01*
X-14406950Y13426409D01*
X-14406951Y13426409D01*
X-14602582Y13482386D01*
X-14721963Y13493000D01*
X-14721968Y13493000D01*
X-16838028Y13493000D01*
X-16838038Y13492999D01*
X-16957412Y13482387D01*
X-16957415Y13482387D01*
X-16957418Y13482386D01*
X-17153049Y13426409D01*
X-17153052Y13426408D01*
X-17333405Y13332200D01*
X-17491109Y13203609D01*
X-17619700Y13045905D01*
X-17713908Y12865552D01*
X-17713909Y12865550D01*
X-17713909Y12865549D01*
X-17769886Y12669918D01*
X-17777472Y12584587D01*
X-17780500Y12550535D01*
X-17780500Y12550531D01*
X-17780499Y10526671D01*
X-17782021Y10526671D01*
X-17797425Y10463407D01*
X-17848850Y10414458D01*
X-17906491Y10400500D01*
X-19557519Y10400500D01*
X-19625640Y10420502D01*
X-19672133Y10474158D01*
X-19682237Y10544432D01*
X-19666638Y10589500D01*
X-19593259Y10716598D01*
X-19593257Y10716602D01*
X-19494666Y10967805D01*
X-19434617Y11230897D01*
X-19414451Y11500000D01*
X-19434617Y11769103D01*
X-19494666Y12032195D01*
X-19593257Y12283398D01*
X-19593258Y12283399D01*
X-19593259Y12283403D01*
X-19728183Y12517099D01*
X-19754842Y12550528D01*
X-19896439Y12728085D01*
X-20094259Y12911635D01*
X-20094266Y12911640D01*
X-20317223Y13063650D01*
X-20317231Y13063655D01*
X-20560350Y13180735D01*
X-20560368Y13180742D01*
X-20818218Y13260278D01*
X-20818226Y13260280D01*
X-20818228Y13260280D01*
X-21085071Y13300500D01*
X-21354929Y13300500D01*
X-21621772Y13260280D01*
X-21621774Y13260280D01*
X-21621783Y13260278D01*
X-21879633Y13180742D01*
X-21879645Y13180737D01*
X-22122777Y13063650D01*
X-22122784Y13063646D01*
X-22345735Y12911640D01*
X-22345740Y12911636D01*
X-22543561Y12728086D01*
X-22711818Y12517099D01*
X-22846742Y12283403D01*
X-22846745Y12283395D01*
X-22945335Y12032194D01*
X-23005383Y11769107D01*
X-23025549Y11500000D01*
X-23005383Y11230894D01*
X-22945335Y10967807D01*
X-22846745Y10716606D01*
X-22846742Y10716598D01*
X-22773362Y10589500D01*
X-22756624Y10520504D01*
X-22779845Y10453412D01*
X-22835652Y10409525D01*
X-22882481Y10400500D01*
X-25810222Y10400500D01*
X-26027951Y10366015D01*
X-26027954Y10366015D01*
X-26027955Y10366014D01*
X-26237602Y10297897D01*
X-26237608Y10297894D01*
X-26434026Y10197813D01*
X-26612366Y10068242D01*
X-26675440Y10005167D01*
X-26768242Y9912365D01*
X-26768245Y9912362D01*
X-29907712Y6772894D01*
X-33043201Y3637405D01*
X-33105513Y3603379D01*
X-33132296Y3600500D01*
X-34414704Y3600500D01*
X-34482825Y3620502D01*
X-34529318Y3674158D01*
X-34539422Y3744432D01*
X-34509928Y3809012D01*
X-34503799Y3815595D01*
X-33752428Y4566966D01*
X-31452449Y6866947D01*
X-31392772Y6900368D01*
X-31288390Y6925427D01*
X-31048372Y7024846D01*
X-30826860Y7160588D01*
X-30629311Y7329311D01*
X-30460588Y7526860D01*
X-30324846Y7748372D01*
X-30225427Y7988390D01*
X-30164779Y8241006D01*
X-30144396Y8500000D01*
X-30164779Y8758994D01*
X-30225427Y9011610D01*
X-30324846Y9251628D01*
X-30460588Y9473140D01*
X-30470209Y9484405D01*
X-30629311Y9670690D01*
X-30826857Y9839410D01*
X-30826864Y9839415D01*
X-30985051Y9936351D01*
X-31048372Y9975154D01*
X-31288390Y10074573D01*
X-31541006Y10135221D01*
X-31800000Y10155604D01*
X-32058994Y10135221D01*
X-32311611Y10074573D01*
X-32551630Y9975153D01*
X-32773137Y9839415D01*
X-32773144Y9839410D01*
X-32970690Y9670690D01*
X-33139410Y9473144D01*
X-33139415Y9473137D01*
X-33275153Y9251630D01*
X-33374575Y9011606D01*
X-33399633Y8907232D01*
X-33433056Y8847552D01*
X-35989478Y6291130D01*
X-36051790Y6257104D01*
X-36122605Y6262169D01*
X-36179441Y6304716D01*
X-36204252Y6371236D01*
X-36204222Y6389625D01*
X-36194451Y6520000D01*
X-36214617Y6789103D01*
X-36274666Y7052195D01*
X-36373257Y7303398D01*
X-36373258Y7303399D01*
X-36373259Y7303403D01*
X-36508183Y7537099D01*
X-36516364Y7547357D01*
X-36676439Y7748085D01*
X-36874259Y7931635D01*
X-36890315Y7942582D01*
X-37097223Y8083650D01*
X-37097231Y8083655D01*
X-37340350Y8200735D01*
X-37340368Y8200742D01*
X-37598218Y8280278D01*
X-37598226Y8280280D01*
X-37598228Y8280280D01*
X-37865071Y8320500D01*
X-38134929Y8320500D01*
X-38401772Y8280280D01*
X-38401774Y8280280D01*
X-38401783Y8280278D01*
X-38659633Y8200742D01*
X-38659645Y8200737D01*
X-38902777Y8083650D01*
X-38902784Y8083646D01*
X-39125735Y7931640D01*
X-39125740Y7931636D01*
X-39323561Y7748086D01*
X-39491818Y7537099D01*
X-39626742Y7303403D01*
X-39626745Y7303395D01*
X-39725335Y7052194D01*
X-39785383Y6789107D01*
X-39805549Y6520000D01*
X-39785383Y6250894D01*
X-39725335Y5987807D01*
X-39626745Y5736606D01*
X-39626742Y5736598D01*
X-39491818Y5502902D01*
X-39491816Y5502899D01*
X-39491815Y5502898D01*
X-39323561Y5291915D01*
X-39191654Y5169523D01*
X-39137057Y5118865D01*
X-39100726Y5057868D01*
X-39103139Y4986913D01*
X-39143531Y4928526D01*
X-39209077Y4901245D01*
X-39222759Y4900500D01*
X-44690851Y4900500D01*
X-44758972Y4920502D01*
X-44805465Y4974158D01*
X-44815569Y5044432D01*
X-44786075Y5109012D01*
X-44779946Y5115595D01*
X-44726019Y5169523D01*
X-44726007Y5169535D01*
X-44570156Y5372643D01*
X-44442150Y5594357D01*
X-44344178Y5830882D01*
X-44277917Y6078171D01*
X-44244500Y6331994D01*
X-44244500Y6588006D01*
X-44277917Y6841829D01*
X-44277919Y6841835D01*
X-44278720Y6845866D01*
X-44278455Y6845919D01*
X-44278452Y6845920D01*
X-44277539Y6846102D01*
X-44275980Y6911852D01*
X-44236193Y6970652D01*
X-44170932Y6998607D01*
X-44155959Y6999500D01*
X-43568887Y6999500D01*
X-43568880Y6999500D01*
X-43438882Y7016615D01*
X-43308884Y7033729D01*
X-43055581Y7101602D01*
X-42813303Y7201957D01*
X-42730644Y7249680D01*
X-42586197Y7333076D01*
X-42434471Y7449500D01*
X-42378149Y7492717D01*
X-41092717Y8778149D01*
X-40956954Y8955079D01*
X-40933076Y8986197D01*
X-40801957Y9213303D01*
X-40701602Y9455581D01*
X-40689271Y9501602D01*
X-40633729Y9708884D01*
X-40619198Y9819262D01*
X-40610320Y9886696D01*
X-40603783Y9936351D01*
X-40599500Y9968880D01*
X-40599500Y16934000D01*
X-39286083Y16934000D01*
X-38311686Y16934000D01*
X-38320080Y16925606D01*
X-38372741Y16834394D01*
X-38400000Y16732661D01*
X-38400000Y16627339D01*
X-38372741Y16525606D01*
X-38320080Y16434394D01*
X-38311686Y16426000D01*
X-39286082Y16426000D01*
X-39233814Y16230932D01*
X-39233812Y16230927D01*
X-39137088Y16023502D01*
X-39005816Y15836026D01*
X-39005811Y15836020D01*
X-38843981Y15674190D01*
X-38843975Y15674185D01*
X-38656499Y15542913D01*
X-38449074Y15446189D01*
X-38449069Y15446187D01*
X-38254000Y15393919D01*
X-38254000Y16368314D01*
X-38245606Y16359920D01*
X-38154394Y16307259D01*
X-38052661Y16280000D01*
X-37947339Y16280000D01*
X-37845606Y16307259D01*
X-37754394Y16359920D01*
X-37746000Y16368314D01*
X-37746000Y15393919D01*
X-37550932Y15446187D01*
X-37550927Y15446189D01*
X-37343502Y15542913D01*
X-37156026Y15674185D01*
X-37156020Y15674190D01*
X-36994190Y15836020D01*
X-36994185Y15836026D01*
X-36862913Y16023502D01*
X-36766189Y16230927D01*
X-36766187Y16230932D01*
X-36713918Y16426000D01*
X-37688314Y16426000D01*
X-37679920Y16434394D01*
X-37627259Y16525606D01*
X-37600000Y16627339D01*
X-37600000Y16732661D01*
X-37627259Y16834394D01*
X-37679920Y16925606D01*
X-37688314Y16934000D01*
X-36713918Y16934000D01*
X-36766187Y17129069D01*
X-36766189Y17129074D01*
X-36862913Y17336499D01*
X-36994185Y17523975D01*
X-36994190Y17523981D01*
X-37156020Y17685811D01*
X-37156026Y17685816D01*
X-37343502Y17817088D01*
X-37550927Y17913812D01*
X-37550929Y17913813D01*
X-37746000Y17966083D01*
X-37746000Y16991686D01*
X-37754394Y17000080D01*
X-37845606Y17052741D01*
X-37947339Y17080000D01*
X-38052661Y17080000D01*
X-38154394Y17052741D01*
X-38245606Y17000080D01*
X-38254000Y16991686D01*
X-38254000Y17966083D01*
X-38254001Y17966083D01*
X-38449072Y17913813D01*
X-38449074Y17913812D01*
X-38656499Y17817088D01*
X-38843975Y17685816D01*
X-38843981Y17685811D01*
X-39005811Y17523981D01*
X-39005816Y17523975D01*
X-39137088Y17336499D01*
X-39233812Y17129074D01*
X-39233814Y17129069D01*
X-39286083Y16934000D01*
X-40599500Y16934000D01*
X-40599500Y18352155D01*
X-40579498Y18420276D01*
X-40525842Y18466769D01*
X-40455568Y18476873D01*
X-40440900Y18473865D01*
X-40291116Y18433730D01*
X-40291110Y18433730D01*
X-40291109Y18433729D01*
X-40266100Y18430437D01*
X-40031120Y18399500D01*
X-13280824Y18399500D01*
X-13212703Y18379498D01*
X-13191729Y18362595D01*
X-2856863Y8027727D01*
X-2856846Y8027712D01*
X-2752827Y7947897D01*
X-2752826Y7947896D01*
X-2669100Y7883650D01*
X-2648803Y7868076D01*
X-2441468Y7748372D01*
X-2421697Y7736957D01*
X-2336084Y7701495D01*
X-2217675Y7652448D01*
X-2162394Y7607899D01*
X-2154213Y7594378D01*
X-2139702Y7566598D01*
X-2139700Y7566596D01*
X-2139698Y7566593D01*
X-2011109Y7408891D01*
X-1853407Y7280302D01*
X-1673049Y7186091D01*
X-1477418Y7130114D01*
X-1358037Y7119500D01*
X1758036Y7119501D01*
X1877418Y7130114D01*
X2073049Y7186091D01*
X2253407Y7280302D01*
X2411109Y7408891D01*
X2539698Y7566593D01*
X2633909Y7746951D01*
X2689886Y7942582D01*
X2700500Y8061963D01*
X2700499Y11178036D01*
X2689886Y11297418D01*
X2633909Y11493049D01*
X2539698Y11673407D01*
X2411109Y11831109D01*
X2253407Y11959698D01*
X2253405Y11959699D01*
X2253404Y11959700D01*
X2073051Y12053908D01*
X2073050Y12053909D01*
X2073049Y12053909D01*
X1877418Y12109886D01*
X1758037Y12120500D01*
X1758034Y12120500D01*
X1137981Y12120500D01*
X1069860Y12140502D01*
X1023367Y12194158D01*
X1013263Y12264432D01*
X1042757Y12329012D01*
X1091596Y12363652D01*
X1266766Y12433006D01*
X1542484Y12584584D01*
X1797030Y12769522D01*
X2026390Y12984906D01*
X2226947Y13227337D01*
X2395537Y13492993D01*
X2529503Y13777685D01*
X2626731Y14076921D01*
X2685688Y14385985D01*
X2690820Y14467562D01*
X2705444Y14699994D01*
X2705444Y14700007D01*
X2685689Y15013998D01*
X2685688Y15014015D01*
X2626731Y15323079D01*
X2529503Y15622315D01*
X2395537Y15907007D01*
X2395531Y15907017D01*
X2226949Y16172661D01*
X2026393Y16415091D01*
X1797033Y16630476D01*
X1542486Y16815415D01*
X1457805Y16861969D01*
X1266766Y16966994D01*
X1182564Y17000332D01*
X974230Y17082818D01*
X974227Y17082819D01*
X914796Y17098078D01*
X837363Y17117960D01*
X776359Y17154273D01*
X744670Y17217805D01*
X752360Y17288384D01*
X796987Y17343601D01*
X837361Y17362041D01*
X974225Y17397181D01*
X1266766Y17513006D01*
X1542484Y17664584D01*
X1797030Y17849522D01*
X2026390Y18064906D01*
X2226947Y18307337D01*
X2395537Y18572993D01*
X2529503Y18857685D01*
X2626731Y19156921D01*
X2685688Y19465985D01*
X2705444Y19780000D01*
X2685688Y20094015D01*
X2626731Y20403079D01*
X2529503Y20702315D01*
X2395537Y20987007D01*
X2395531Y20987017D01*
X2226949Y21252661D01*
X2026393Y21495091D01*
X1797033Y21710476D01*
X1542486Y21895415D01*
X1500225Y21918648D01*
X1266766Y22046994D01*
X1182405Y22080395D01*
X974230Y22162818D01*
X974227Y22162819D01*
X771057Y22214984D01*
X669473Y22241066D01*
X669467Y22241067D01*
X669459Y22241068D01*
X357332Y22280499D01*
X357321Y22280500D01*
X357318Y22280500D01*
X42682Y22280500D01*
X42679Y22280500D01*
X42667Y22280499D01*
X-269460Y22241068D01*
X-269473Y22241066D01*
X-574228Y22162819D01*
X-574231Y22162818D01*
X-866766Y22046994D01*
X-1142487Y21895415D01*
X-1397034Y21710476D01*
X-1626394Y21495091D01*
X-1826950Y21252661D01*
X-1995532Y20987017D01*
X-1995540Y20987003D01*
X-2129500Y20702322D01*
X-2129502Y20702318D01*
X-2226730Y20403083D01*
X-2226732Y20403075D01*
X-2285687Y20094022D01*
X-2285690Y20093998D01*
X-2305444Y19780007D01*
X-2305444Y19779994D01*
X-2285690Y19466003D01*
X-2285687Y19465979D01*
X-2226732Y19156926D01*
X-2226729Y19156913D01*
X-2147750Y18913843D01*
X-2145722Y18842876D01*
X-2182385Y18782078D01*
X-2246097Y18750752D01*
X-2316631Y18758845D01*
X-2356678Y18785812D01*
X-10478139Y26907274D01*
X-10478149Y26907283D01*
X-10595869Y26997612D01*
X-10595869Y26997613D01*
X-10686194Y27066922D01*
X-10686201Y27066927D01*
X-10913291Y27198037D01*
X-10913299Y27198041D01*
X-10913303Y27198043D01*
X-11155581Y27298398D01*
X-11155584Y27298399D01*
X-11155586Y27298400D01*
X-11363638Y27354147D01*
X-11408884Y27366271D01*
X-11408886Y27366272D01*
X-11408892Y27366273D01*
X-11538881Y27383385D01*
X-11668878Y27400500D01*
X-11668880Y27400500D01*
X-37468880Y27400500D01*
X-39119176Y27400500D01*
X-39187297Y27420502D01*
X-39208271Y27437405D01*
X-41574866Y29804000D01*
X-39336083Y29804000D01*
X-38361686Y29804000D01*
X-38370080Y29795606D01*
X-38422741Y29704394D01*
X-38450000Y29602661D01*
X-38450000Y29497339D01*
X-38422741Y29395606D01*
X-38370080Y29304394D01*
X-38361686Y29296000D01*
X-39336082Y29296000D01*
X-39283814Y29100932D01*
X-39283812Y29100927D01*
X-39187088Y28893502D01*
X-39055816Y28706026D01*
X-39055811Y28706020D01*
X-38893981Y28544190D01*
X-38893975Y28544185D01*
X-38706499Y28412913D01*
X-38499074Y28316189D01*
X-38499069Y28316187D01*
X-38304000Y28263919D01*
X-38304000Y29238314D01*
X-38295606Y29229920D01*
X-38204394Y29177259D01*
X-38102661Y29150000D01*
X-37997339Y29150000D01*
X-37895606Y29177259D01*
X-37804394Y29229920D01*
X-37796000Y29238314D01*
X-37796000Y28263919D01*
X-37600932Y28316187D01*
X-37600927Y28316189D01*
X-37393502Y28412913D01*
X-37206026Y28544185D01*
X-37206020Y28544190D01*
X-37044190Y28706020D01*
X-37044185Y28706026D01*
X-36912913Y28893502D01*
X-36816189Y29100927D01*
X-36816187Y29100932D01*
X-36763918Y29296000D01*
X-37738314Y29296000D01*
X-37729920Y29304394D01*
X-37677259Y29395606D01*
X-37650000Y29497339D01*
X-37650000Y29602661D01*
X-37677259Y29704394D01*
X-37729920Y29795606D01*
X-37738314Y29804000D01*
X-36763918Y29804000D01*
X-9686083Y29804000D01*
X-8711686Y29804000D01*
X-8720080Y29795606D01*
X-8772741Y29704394D01*
X-8800000Y29602661D01*
X-8800000Y29497339D01*
X-8772741Y29395606D01*
X-8720080Y29304394D01*
X-8711686Y29296000D01*
X-9686082Y29296000D01*
X-9633814Y29100932D01*
X-9633812Y29100927D01*
X-9537088Y28893502D01*
X-9405816Y28706026D01*
X-9405811Y28706020D01*
X-9243981Y28544190D01*
X-9243975Y28544185D01*
X-9056499Y28412913D01*
X-8849074Y28316189D01*
X-8849069Y28316187D01*
X-8654000Y28263919D01*
X-8654000Y29238314D01*
X-8645606Y29229920D01*
X-8554394Y29177259D01*
X-8452661Y29150000D01*
X-8347339Y29150000D01*
X-8245606Y29177259D01*
X-8154394Y29229920D01*
X-8146000Y29238314D01*
X-8146000Y28263919D01*
X-7950932Y28316187D01*
X-7950927Y28316189D01*
X-7743502Y28412913D01*
X-7556026Y28544185D01*
X-7556020Y28544190D01*
X-7394190Y28706020D01*
X-7394185Y28706026D01*
X-7262913Y28893502D01*
X-7166189Y29100927D01*
X-7166187Y29100932D01*
X-7113918Y29296000D01*
X-8088314Y29296000D01*
X-8079920Y29304394D01*
X-8027259Y29395606D01*
X-8000000Y29497339D01*
X-8000000Y29602661D01*
X-8027259Y29704394D01*
X-8079920Y29795606D01*
X-8088314Y29804000D01*
X-7113918Y29804000D01*
X-7166187Y29999069D01*
X-7166189Y29999074D01*
X-7262913Y30206499D01*
X-7394185Y30393975D01*
X-7394190Y30393981D01*
X-7556020Y30555811D01*
X-7556026Y30555816D01*
X-7743502Y30687088D01*
X-7950927Y30783812D01*
X-7950929Y30783813D01*
X-8146000Y30836083D01*
X-8146000Y29861686D01*
X-8154394Y29870080D01*
X-8245606Y29922741D01*
X-8347339Y29950000D01*
X-8452661Y29950000D01*
X-8554394Y29922741D01*
X-8645606Y29870080D01*
X-8654000Y29861686D01*
X-8654000Y30836083D01*
X-8654001Y30836083D01*
X-8849072Y30783813D01*
X-8849074Y30783812D01*
X-9056499Y30687088D01*
X-9243975Y30555816D01*
X-9243981Y30555811D01*
X-9405811Y30393981D01*
X-9405816Y30393975D01*
X-9537088Y30206499D01*
X-9633812Y29999074D01*
X-9633814Y29999069D01*
X-9686083Y29804000D01*
X-36763918Y29804000D01*
X-36816187Y29999069D01*
X-36816189Y29999074D01*
X-36912913Y30206499D01*
X-37044185Y30393975D01*
X-37044190Y30393981D01*
X-37206020Y30555811D01*
X-37206026Y30555816D01*
X-37393502Y30687088D01*
X-37600927Y30783812D01*
X-37600929Y30783813D01*
X-37796000Y30836083D01*
X-37796000Y29861686D01*
X-37804394Y29870080D01*
X-37895606Y29922741D01*
X-37997339Y29950000D01*
X-38102661Y29950000D01*
X-38204394Y29922741D01*
X-38295606Y29870080D01*
X-38304000Y29861686D01*
X-38304000Y30836083D01*
X-38304001Y30836083D01*
X-38499072Y30783813D01*
X-38499074Y30783812D01*
X-38706499Y30687088D01*
X-38893975Y30555816D01*
X-38893981Y30555811D01*
X-39055811Y30393981D01*
X-39055816Y30393975D01*
X-39187088Y30206499D01*
X-39283812Y29999074D01*
X-39283814Y29999069D01*
X-39336083Y29804000D01*
X-41574866Y29804000D01*
X-44207595Y32436729D01*
X-44241621Y32499041D01*
X-44244500Y32525824D01*
X-44244500Y34431113D01*
X-44244500Y34431120D01*
X-44278730Y34691116D01*
X-44345657Y34940892D01*
X-44343967Y35011865D01*
X-44304173Y35070661D01*
X-44238909Y35098609D01*
X-44223950Y35099500D01*
X-39280126Y35099500D01*
X-39217128Y35082620D01*
X-39146697Y35041957D01*
X-38904419Y34941602D01*
X-38651115Y34873729D01*
X-38391119Y34839501D01*
X-38391111Y34839501D01*
X-38128888Y34839501D01*
X-38128880Y34839501D01*
X-37868884Y34873729D01*
X-37788728Y34895208D01*
X-37756117Y34899500D01*
X-17852964Y34899500D01*
X-17784843Y34879498D01*
X-17738350Y34825842D01*
X-17728246Y34755568D01*
X-17731258Y34740888D01*
X-17747084Y34681828D01*
X-17747084Y34681827D01*
X-17780500Y34428009D01*
X-17780500Y34171992D01*
X-17747085Y33918179D01*
X-17747084Y33918173D01*
X-17747083Y33918171D01*
X-17680822Y33670882D01*
X-17582850Y33434357D01*
X-17582849Y33434356D01*
X-17582844Y33434345D01*
X-17454847Y33212647D01*
X-17454842Y33212640D01*
X-17299001Y33009544D01*
X-17298982Y33009523D01*
X-17117978Y32828519D01*
X-17117957Y32828500D01*
X-16914861Y32672659D01*
X-16914854Y32672654D01*
X-16693156Y32544657D01*
X-16693152Y32544656D01*
X-16693143Y32544650D01*
X-16456618Y32446678D01*
X-16209329Y32380417D01*
X-16209323Y32380417D01*
X-16209322Y32380416D01*
X-16180201Y32376583D01*
X-15955506Y32347000D01*
X-15955499Y32347000D01*
X-15604501Y32347000D01*
X-15604494Y32347000D01*
X-15350671Y32380417D01*
X-15103382Y32446678D01*
X-14866857Y32544650D01*
X-14645143Y32672656D01*
X-14442035Y32828507D01*
X-14261007Y33009535D01*
X-14105156Y33212643D01*
X-13977150Y33434357D01*
X-13879178Y33670882D01*
X-13812917Y33918171D01*
X-13779500Y34171994D01*
X-13779500Y34428006D01*
X-13812917Y34681829D01*
X-13812919Y34681835D01*
X-13813720Y34685866D01*
X-13813455Y34685919D01*
X-13813452Y34685920D01*
X-13812539Y34686102D01*
X-13810980Y34751852D01*
X-13771193Y34810652D01*
X-13705932Y34838607D01*
X-13690959Y34839500D01*
X-8478887Y34839500D01*
X-8478880Y34839500D01*
X-8218884Y34873730D01*
X-7965581Y34941602D01*
X-7723303Y35041957D01*
X-7496197Y35173076D01*
X-7288149Y35332718D01*
X-7102718Y35518149D01*
X-6943076Y35726197D01*
X-6811957Y35953303D01*
X-6711602Y36195581D01*
X-6643730Y36448884D01*
X-6609500Y36708880D01*
X-6609500Y36844463D01*
X-6609148Y36853879D01*
X-6594451Y37050000D01*
X-6614617Y37319103D01*
X-6674666Y37582195D01*
X-6773257Y37833398D01*
X-6773258Y37833399D01*
X-6773259Y37833403D01*
X-6908183Y38067099D01*
X-7076440Y38278086D01*
X-7126001Y38324072D01*
X-7274259Y38461635D01*
X-7305452Y38482902D01*
X-7497223Y38613650D01*
X-7497231Y38613655D01*
X-7740350Y38730735D01*
X-7740368Y38730742D01*
X-7998218Y38810278D01*
X-7998226Y38810280D01*
X-7998228Y38810280D01*
X-8265071Y38850500D01*
X-8534929Y38850500D01*
X-8578985Y38843860D01*
X-8591941Y38841907D01*
X-8610719Y38840500D01*
X-13653500Y38840500D01*
X-13721621Y38860502D01*
X-13768114Y38914158D01*
X-13779500Y38966500D01*
X-13779501Y40390528D01*
X-13779501Y40390531D01*
X-13779501Y40390536D01*
X-13790114Y40509918D01*
X-13846091Y40705549D01*
X-13940302Y40885907D01*
X-14068891Y41043609D01*
X-14226593Y41172198D01*
X-14226595Y41172199D01*
X-14226596Y41172200D01*
X-14239059Y41178710D01*
X-750500Y41178710D01*
X-718840Y40938218D01*
X-656056Y40703905D01*
X-656055Y40703903D01*
X-656054Y40703900D01*
X-563224Y40479788D01*
X-563223Y40479787D01*
X-563218Y40479776D01*
X-441939Y40269715D01*
X-441937Y40269712D01*
X-441936Y40269711D01*
X-294265Y40077262D01*
X-294261Y40077258D01*
X-294256Y40077252D01*
X-122749Y39905745D01*
X-122744Y39905741D01*
X-122738Y39905735D01*
X55325Y39769103D01*
X69714Y39758062D01*
X279775Y39636783D01*
X279779Y39636782D01*
X279788Y39636776D01*
X503900Y39543946D01*
X738211Y39481162D01*
X738215Y39481162D01*
X738217Y39481161D01*
X800202Y39473001D01*
X978712Y39449500D01*
X978719Y39449500D01*
X1221281Y39449500D01*
X1221288Y39449500D01*
X1438637Y39478115D01*
X1461782Y39481161D01*
X1461782Y39481162D01*
X1461789Y39481162D01*
X1696100Y39543946D01*
X1920212Y39636776D01*
X2130289Y39758064D01*
X2322738Y39905735D01*
X2494265Y40077262D01*
X2641936Y40269711D01*
X2763224Y40479788D01*
X2856054Y40703900D01*
X2918838Y40938211D01*
X2950500Y41178712D01*
X2950500Y41421288D01*
X2918838Y41661789D01*
X2856054Y41896100D01*
X2763224Y42120212D01*
X2763218Y42120221D01*
X2763217Y42120225D01*
X2641938Y42330286D01*
X2641936Y42330289D01*
X2494265Y42522738D01*
X2494259Y42522744D01*
X2494255Y42522749D01*
X2322748Y42694256D01*
X2322742Y42694261D01*
X2322738Y42694265D01*
X2130289Y42841936D01*
X2130288Y42841937D01*
X2130285Y42841939D01*
X1920224Y42963218D01*
X1920216Y42963222D01*
X1920212Y42963224D01*
X1696100Y43056054D01*
X1696097Y43056055D01*
X1696095Y43056056D01*
X1461782Y43118840D01*
X1221290Y43150500D01*
X1221288Y43150500D01*
X978712Y43150500D01*
X978709Y43150500D01*
X738217Y43118840D01*
X503904Y43056056D01*
X503900Y43056054D01*
X279786Y42963223D01*
X279775Y42963218D01*
X69714Y42841939D01*
X-122738Y42694265D01*
X-122749Y42694256D01*
X-294256Y42522749D01*
X-294265Y42522738D01*
X-441939Y42330286D01*
X-563218Y42120225D01*
X-563223Y42120214D01*
X-656054Y41896100D01*
X-656056Y41896096D01*
X-718840Y41661783D01*
X-750500Y41421291D01*
X-750500Y41178710D01*
X-14239059Y41178710D01*
X-14406949Y41266408D01*
X-14406950Y41266409D01*
X-14406951Y41266409D01*
X-14602582Y41322386D01*
X-14721963Y41333000D01*
X-14721968Y41333000D01*
X-16838028Y41333000D01*
X-16838038Y41332999D01*
X-16957412Y41322387D01*
X-16957415Y41322387D01*
X-16957418Y41322386D01*
X-17153049Y41266409D01*
X-17153052Y41266408D01*
X-17333405Y41172200D01*
X-17491109Y41043609D01*
X-17619700Y40885905D01*
X-17713908Y40705552D01*
X-17713909Y40705550D01*
X-17713909Y40705549D01*
X-17769886Y40509918D01*
X-17780500Y40390537D01*
X-17780500Y39669103D01*
X-17780499Y39026500D01*
X-17800501Y38958379D01*
X-17854157Y38911886D01*
X-17906499Y38900500D01*
X-19729205Y38900500D01*
X-19797326Y38920502D01*
X-19843819Y38974158D01*
X-19853923Y39044432D01*
X-19852046Y39054538D01*
X-19849368Y39066271D01*
X-19834617Y39130897D01*
X-19814451Y39400000D01*
X-19834617Y39669103D01*
X-19894666Y39932195D01*
X-19993257Y40183398D01*
X-19993258Y40183399D01*
X-19993259Y40183403D01*
X-20128183Y40417099D01*
X-20207931Y40517099D01*
X-20296439Y40628085D01*
X-20494259Y40811635D01*
X-20494266Y40811640D01*
X-20717223Y40963650D01*
X-20717231Y40963655D01*
X-20960350Y41080735D01*
X-20960368Y41080742D01*
X-21218218Y41160278D01*
X-21218226Y41160280D01*
X-21218228Y41160280D01*
X-21485071Y41200500D01*
X-21754929Y41200500D01*
X-22021772Y41160280D01*
X-22021774Y41160280D01*
X-22021783Y41160278D01*
X-22279633Y41080742D01*
X-22279645Y41080737D01*
X-22522777Y40963650D01*
X-22522784Y40963646D01*
X-22745735Y40811640D01*
X-22745740Y40811636D01*
X-22943561Y40628086D01*
X-23111818Y40417099D01*
X-23246742Y40183403D01*
X-23246745Y40183395D01*
X-23345335Y39932194D01*
X-23405383Y39669107D01*
X-23425549Y39400000D01*
X-23405383Y39130895D01*
X-23398445Y39100500D01*
X-23392433Y39074158D01*
X-23387954Y39054538D01*
X-23392296Y38983674D01*
X-23434261Y38926408D01*
X-23500524Y38900919D01*
X-23510795Y38900500D01*
X-29889205Y38900500D01*
X-29957326Y38920502D01*
X-30003819Y38974158D01*
X-30013923Y39044432D01*
X-30012046Y39054538D01*
X-30009368Y39066271D01*
X-29994617Y39130897D01*
X-29974451Y39400000D01*
X-29994617Y39669103D01*
X-30054666Y39932195D01*
X-30153257Y40183398D01*
X-30153258Y40183399D01*
X-30153259Y40183403D01*
X-30288183Y40417099D01*
X-30367931Y40517099D01*
X-30456439Y40628085D01*
X-30654259Y40811635D01*
X-30654266Y40811640D01*
X-30877223Y40963650D01*
X-30877231Y40963655D01*
X-31120350Y41080735D01*
X-31120368Y41080742D01*
X-31378218Y41160278D01*
X-31378226Y41160280D01*
X-31378228Y41160280D01*
X-31645071Y41200500D01*
X-31914929Y41200500D01*
X-32181772Y41160280D01*
X-32181774Y41160280D01*
X-32181783Y41160278D01*
X-32439633Y41080742D01*
X-32439645Y41080737D01*
X-32682777Y40963650D01*
X-32682784Y40963646D01*
X-32905735Y40811640D01*
X-32905740Y40811636D01*
X-33103561Y40628086D01*
X-33271818Y40417099D01*
X-33406742Y40183403D01*
X-33406745Y40183395D01*
X-33505335Y39932194D01*
X-33565383Y39669107D01*
X-33585549Y39400000D01*
X-33565383Y39130895D01*
X-33558445Y39100500D01*
X-33552433Y39074158D01*
X-33547954Y39054538D01*
X-33552296Y38983674D01*
X-33594261Y38926408D01*
X-33660524Y38900919D01*
X-33670795Y38900500D01*
X-37264882Y38900500D01*
X-37313100Y38910091D01*
X-37405581Y38948398D01*
X-37405584Y38948399D01*
X-37405586Y38948400D01*
X-37616048Y39004793D01*
X-37658884Y39016271D01*
X-37658886Y39016272D01*
X-37658892Y39016273D01*
X-37918877Y39050499D01*
X-37918880Y39050499D01*
X-38053433Y39050499D01*
X-38086043Y39054792D01*
X-38117314Y39063171D01*
X-38128884Y39066271D01*
X-38128886Y39066272D01*
X-38128892Y39066273D01*
X-38128888Y39066273D01*
X-38258881Y39083385D01*
X-38388878Y39100500D01*
X-38388880Y39100500D01*
X-44118500Y39100500D01*
X-44186621Y39120502D01*
X-44233114Y39174158D01*
X-44244500Y39226500D01*
X-44244501Y40390528D01*
X-44244501Y40390531D01*
X-44244501Y40390536D01*
X-44255114Y40509918D01*
X-44311091Y40705549D01*
X-44405302Y40885907D01*
X-44533891Y41043609D01*
X-44691593Y41172198D01*
X-44691595Y41172199D01*
X-44691596Y41172200D01*
X-44871949Y41266408D01*
X-44871950Y41266409D01*
X-44871951Y41266409D01*
X-45067582Y41322386D01*
X-45186963Y41333000D01*
X-45186968Y41333000D01*
X-47303028Y41333000D01*
X-47303038Y41332999D01*
X-47422412Y41322387D01*
X-47422415Y41322387D01*
X-47422418Y41322386D01*
X-47618049Y41266409D01*
X-47618052Y41266408D01*
X-47798405Y41172200D01*
X-47956109Y41043609D01*
X-48084700Y40885905D01*
X-48178908Y40705552D01*
X-48178909Y40705550D01*
X-48178909Y40705549D01*
X-48234886Y40509918D01*
X-48245500Y40390537D01*
X-48245500Y39669103D01*
X-48245499Y39026500D01*
X-48265501Y38958379D01*
X-48319157Y38911886D01*
X-48371499Y38900500D01*
X-50129205Y38900500D01*
X-50197326Y38920502D01*
X-50243819Y38974158D01*
X-50253923Y39044432D01*
X-50252046Y39054538D01*
X-50249368Y39066271D01*
X-50234617Y39130897D01*
X-50214451Y39400000D01*
X-50234617Y39669103D01*
X-50294666Y39932195D01*
X-50393257Y40183398D01*
X-50393258Y40183399D01*
X-50393259Y40183403D01*
X-50528183Y40417099D01*
X-50607931Y40517099D01*
X-50696439Y40628085D01*
X-50894259Y40811635D01*
X-50894266Y40811640D01*
X-51117223Y40963650D01*
X-51117231Y40963655D01*
X-51360350Y41080735D01*
X-51360368Y41080742D01*
X-51618218Y41160278D01*
X-51618226Y41160280D01*
X-51618228Y41160280D01*
X-51885071Y41200500D01*
X-52154929Y41200500D01*
X-52421772Y41160280D01*
X-52421774Y41160280D01*
X-52421783Y41160278D01*
X-52679633Y41080742D01*
X-52679645Y41080737D01*
X-52922777Y40963650D01*
X-52922784Y40963646D01*
X-53145735Y40811640D01*
X-53145740Y40811636D01*
X-53343561Y40628086D01*
X-53511818Y40417099D01*
X-53646742Y40183403D01*
X-53646745Y40183395D01*
X-53745335Y39932194D01*
X-53805383Y39669107D01*
X-53825549Y39400000D01*
X-53805383Y39130895D01*
X-53798445Y39100500D01*
X-53792433Y39074158D01*
X-53787954Y39054538D01*
X-53792296Y38983674D01*
X-53834261Y38926408D01*
X-53900524Y38900919D01*
X-53910795Y38900500D01*
X-60289205Y38900500D01*
X-60357326Y38920502D01*
X-60403819Y38974158D01*
X-60413923Y39044432D01*
X-60412046Y39054538D01*
X-60409368Y39066271D01*
X-60394617Y39130897D01*
X-60374451Y39400000D01*
X-60394617Y39669103D01*
X-60454666Y39932195D01*
X-60553257Y40183398D01*
X-60553258Y40183399D01*
X-60553259Y40183403D01*
X-60688183Y40417099D01*
X-60767931Y40517099D01*
X-60856439Y40628085D01*
X-61054259Y40811635D01*
X-61054266Y40811640D01*
X-61277223Y40963650D01*
X-61277231Y40963655D01*
X-61520350Y41080735D01*
X-61520368Y41080742D01*
X-61778218Y41160278D01*
X-61778226Y41160280D01*
X-61778228Y41160280D01*
X-62045071Y41200500D01*
X-62314929Y41200500D01*
X-62581772Y41160280D01*
X-62581774Y41160280D01*
X-62581783Y41160278D01*
X-62839633Y41080742D01*
X-62839645Y41080737D01*
X-63082777Y40963650D01*
X-63082784Y40963646D01*
X-63305735Y40811640D01*
X-63305740Y40811636D01*
X-63503561Y40628086D01*
X-63671818Y40417099D01*
X-63806742Y40183403D01*
X-63806745Y40183395D01*
X-63905335Y39932194D01*
X-63965383Y39669107D01*
X-63985549Y39400000D01*
X-63965383Y39130895D01*
X-63958445Y39100500D01*
X-63952433Y39074158D01*
X-63947954Y39054538D01*
X-63952296Y38983674D01*
X-63994261Y38926408D01*
X-64060524Y38900919D01*
X-64070795Y38900500D01*
X-68314882Y38900500D01*
X-68363100Y38910091D01*
X-68455581Y38948398D01*
X-68455584Y38948399D01*
X-68455586Y38948400D01*
X-68666048Y39004793D01*
X-68708884Y39016271D01*
X-68708886Y39016272D01*
X-68708892Y39016273D01*
X-68968877Y39050499D01*
X-68968880Y39050499D01*
X-69231120Y39050499D01*
X-69231124Y39050499D01*
X-69491107Y39016273D01*
X-69491116Y39016271D01*
X-69533953Y39004793D01*
X-69566563Y39000500D01*
X-75248500Y39000500D01*
X-75316621Y39020502D01*
X-75363114Y39074158D01*
X-75374500Y39126500D01*
X-75374501Y40390528D01*
X-75374501Y40390531D01*
X-75374501Y40390536D01*
X-75385114Y40509918D01*
X-75441091Y40705549D01*
X-75535302Y40885907D01*
X-75663891Y41043609D01*
X-75821593Y41172198D01*
X-75821595Y41172199D01*
X-75821596Y41172200D01*
X-76001949Y41266408D01*
X-76001950Y41266409D01*
X-76001951Y41266409D01*
X-76197582Y41322386D01*
X-76316963Y41333000D01*
X-76316968Y41333000D01*
X-78433028Y41333000D01*
X-78433038Y41332999D01*
X-78552412Y41322387D01*
X-78552415Y41322387D01*
X-78552418Y41322386D01*
X-78748049Y41266409D01*
X-78748052Y41266408D01*
X-78928405Y41172200D01*
X-79086109Y41043609D01*
X-79214700Y40885905D01*
X-79308908Y40705552D01*
X-79308909Y40705550D01*
X-79308909Y40705549D01*
X-79364886Y40509918D01*
X-79375500Y40390537D01*
X-79375500Y39636776D01*
X-79375499Y38966500D01*
X-79395501Y38898379D01*
X-79449157Y38851886D01*
X-79501499Y38840500D01*
X-79765723Y38840500D01*
X-79833844Y38860502D01*
X-79880337Y38914158D01*
X-79890441Y38984432D01*
X-79888564Y38994537D01*
X-79857442Y39130895D01*
X-79834617Y39230897D01*
X-79814451Y39500000D01*
X-79834617Y39769103D01*
X-79894666Y40032195D01*
X-79993257Y40283398D01*
X-79993258Y40283399D01*
X-79993259Y40283403D01*
X-80128183Y40517099D01*
X-80216692Y40628085D01*
X-80296439Y40728085D01*
X-80494259Y40911635D01*
X-80494266Y40911640D01*
X-80717223Y41063650D01*
X-80717231Y41063655D01*
X-80960350Y41180735D01*
X-80960368Y41180742D01*
X-81218218Y41260278D01*
X-81218226Y41260280D01*
X-81218228Y41260280D01*
X-81485071Y41300500D01*
X-81754929Y41300500D01*
X-82021772Y41260280D01*
X-82021774Y41260280D01*
X-82021783Y41260278D01*
X-82279633Y41180742D01*
X-82279645Y41180737D01*
X-82522777Y41063650D01*
X-82522784Y41063646D01*
X-82745735Y40911640D01*
X-82745740Y40911636D01*
X-82943561Y40728086D01*
X-83111818Y40517099D01*
X-83246742Y40283403D01*
X-83246745Y40283395D01*
X-83345335Y40032194D01*
X-83405383Y39769107D01*
X-83425549Y39500000D01*
X-83405383Y39230894D01*
X-83345335Y38967807D01*
X-83246745Y38716606D01*
X-83246742Y38716598D01*
X-83111818Y38482902D01*
X-83037573Y38389802D01*
X-83010739Y38324072D01*
X-83023701Y38254268D01*
X-83046989Y38222147D01*
X-101691731Y19577405D01*
X-101754043Y19543379D01*
X-101780826Y19540500D01*
X-102958028Y19540500D01*
X-102958038Y19540499D01*
X-103077412Y19529887D01*
X-103077415Y19529887D01*
X-103077418Y19529886D01*
X-103273049Y19473909D01*
X-103273052Y19473908D01*
X-103453405Y19379700D01*
X-103611109Y19251109D01*
X-103739700Y19093405D01*
X-103833908Y18913052D01*
X-103889886Y18717418D01*
X-103889886Y18717416D01*
X-103900500Y18598035D01*
X-103900500Y16572297D01*
X-103920502Y16504176D01*
X-103937405Y16483202D01*
X-104979405Y15441202D01*
X-105041717Y15407176D01*
X-105112532Y15412241D01*
X-105169368Y15454788D01*
X-105194179Y15521308D01*
X-105194500Y15530297D01*
X-105194500Y41178710D01*
X-103750500Y41178710D01*
X-103718840Y40938218D01*
X-103656056Y40703905D01*
X-103656055Y40703903D01*
X-103656054Y40703900D01*
X-103563224Y40479788D01*
X-103563223Y40479787D01*
X-103563218Y40479776D01*
X-103441939Y40269715D01*
X-103441937Y40269712D01*
X-103441936Y40269711D01*
X-103294265Y40077262D01*
X-103294261Y40077258D01*
X-103294256Y40077252D01*
X-103122749Y39905745D01*
X-103122744Y39905741D01*
X-103122738Y39905735D01*
X-102944675Y39769103D01*
X-102930286Y39758062D01*
X-102720225Y39636783D01*
X-102720221Y39636782D01*
X-102720212Y39636776D01*
X-102496100Y39543946D01*
X-102261789Y39481162D01*
X-102261785Y39481162D01*
X-102261783Y39481161D01*
X-102199798Y39473001D01*
X-102021288Y39449500D01*
X-102021281Y39449500D01*
X-101778719Y39449500D01*
X-101778712Y39449500D01*
X-101561363Y39478115D01*
X-101538218Y39481161D01*
X-101538218Y39481162D01*
X-101538211Y39481162D01*
X-101467907Y39500000D01*
X-93585549Y39500000D01*
X-93565383Y39230894D01*
X-93505335Y38967807D01*
X-93406745Y38716606D01*
X-93406742Y38716598D01*
X-93271818Y38482902D01*
X-93271816Y38482899D01*
X-93271815Y38482898D01*
X-93103561Y38271915D01*
X-92905741Y38088365D01*
X-92905735Y38088361D01*
X-92682784Y37936355D01*
X-92682777Y37936351D01*
X-92682774Y37936349D01*
X-92439641Y37819262D01*
X-92439638Y37819262D01*
X-92439633Y37819259D01*
X-92181783Y37739723D01*
X-92181781Y37739723D01*
X-92181772Y37739720D01*
X-91914929Y37699500D01*
X-91914925Y37699500D01*
X-91645075Y37699500D01*
X-91645071Y37699500D01*
X-91378228Y37739720D01*
X-91378218Y37739723D01*
X-91120368Y37819259D01*
X-91120366Y37819261D01*
X-91120359Y37819262D01*
X-91120354Y37819265D01*
X-91120350Y37819266D01*
X-90877231Y37936346D01*
X-90877231Y37936347D01*
X-90877225Y37936349D01*
X-90654259Y38088365D01*
X-90456439Y38271915D01*
X-90288185Y38482898D01*
X-90153257Y38716602D01*
X-90054666Y38967805D01*
X-89994617Y39230897D01*
X-89974451Y39500000D01*
X-89994617Y39769103D01*
X-90054666Y40032195D01*
X-90153257Y40283398D01*
X-90153258Y40283399D01*
X-90153259Y40283403D01*
X-90288183Y40517099D01*
X-90376692Y40628085D01*
X-90456439Y40728085D01*
X-90654259Y40911635D01*
X-90654266Y40911640D01*
X-90877223Y41063650D01*
X-90877231Y41063655D01*
X-91120350Y41180735D01*
X-91120368Y41180742D01*
X-91378218Y41260278D01*
X-91378226Y41260280D01*
X-91378228Y41260280D01*
X-91645071Y41300500D01*
X-91914929Y41300500D01*
X-92181772Y41260280D01*
X-92181774Y41260280D01*
X-92181783Y41260278D01*
X-92439633Y41180742D01*
X-92439645Y41180737D01*
X-92682777Y41063650D01*
X-92682784Y41063646D01*
X-92905735Y40911640D01*
X-92905740Y40911636D01*
X-93103561Y40728086D01*
X-93271818Y40517099D01*
X-93406742Y40283403D01*
X-93406745Y40283395D01*
X-93505335Y40032194D01*
X-93565383Y39769107D01*
X-93585549Y39500000D01*
X-101467907Y39500000D01*
X-101303900Y39543946D01*
X-101079788Y39636776D01*
X-100869711Y39758064D01*
X-100677262Y39905735D01*
X-100505735Y40077262D01*
X-100358064Y40269711D01*
X-100236776Y40479788D01*
X-100143946Y40703900D01*
X-100081162Y40938211D01*
X-100049500Y41178712D01*
X-100049500Y41421288D01*
X-100081162Y41661789D01*
X-100143946Y41896100D01*
X-100236776Y42120212D01*
X-100236782Y42120221D01*
X-100236783Y42120225D01*
X-100358062Y42330286D01*
X-100358064Y42330289D01*
X-100505735Y42522738D01*
X-100505741Y42522744D01*
X-100505745Y42522749D01*
X-100677252Y42694256D01*
X-100677258Y42694261D01*
X-100677262Y42694265D01*
X-100869711Y42841936D01*
X-100869712Y42841937D01*
X-100869715Y42841939D01*
X-101079776Y42963218D01*
X-101079784Y42963222D01*
X-101079788Y42963224D01*
X-101303900Y43056054D01*
X-101303903Y43056055D01*
X-101303905Y43056056D01*
X-101538218Y43118840D01*
X-101778710Y43150500D01*
X-101778712Y43150500D01*
X-102021288Y43150500D01*
X-102021291Y43150500D01*
X-102261783Y43118840D01*
X-102496096Y43056056D01*
X-102496100Y43056054D01*
X-102720214Y42963223D01*
X-102720225Y42963218D01*
X-102930286Y42841939D01*
X-103122738Y42694265D01*
X-103122749Y42694256D01*
X-103294256Y42522749D01*
X-103294265Y42522738D01*
X-103441939Y42330286D01*
X-103563218Y42120225D01*
X-103563223Y42120214D01*
X-103656054Y41896100D01*
X-103656056Y41896096D01*
X-103718840Y41661783D01*
X-103750500Y41421291D01*
X-103750500Y41178710D01*
X-105194500Y41178710D01*
X-105194500Y44443500D01*
X-105174498Y44511621D01*
X-105120842Y44558114D01*
X-105068500Y44569500D01*
X4278500Y44569500D01*
X4346621Y44549498D01*
G37*
%TD.AperFunction*%
%TA.AperFunction,Conductor*%
G36*
X-70071043Y34989910D02*
G01*
X-69954419Y34941602D01*
X-69701116Y34873729D01*
X-69701110Y34873729D01*
X-69701109Y34873728D01*
X-69664146Y34868862D01*
X-69441120Y34839501D01*
X-69441112Y34839501D01*
X-69178889Y34839501D01*
X-69178881Y34839501D01*
X-68918885Y34873729D01*
X-68838729Y34895208D01*
X-68806118Y34899500D01*
X-63968339Y34899500D01*
X-63900218Y34879498D01*
X-63853725Y34825842D01*
X-63842728Y34763616D01*
X-63848828Y34686102D01*
X-63855604Y34600001D01*
X-63835221Y34341007D01*
X-63774573Y34088390D01*
X-63675155Y33848374D01*
X-63619067Y33756847D01*
X-63600500Y33691012D01*
X-63600500Y4332298D01*
X-63620502Y4264177D01*
X-63637405Y4243202D01*
X-64394270Y3486338D01*
X-64456582Y3452313D01*
X-64473478Y3449822D01*
X-64658995Y3435221D01*
X-64911611Y3374573D01*
X-65151630Y3275153D01*
X-65373137Y3139415D01*
X-65373144Y3139410D01*
X-65570690Y2970690D01*
X-65739410Y2773144D01*
X-65739415Y2773137D01*
X-65875155Y2551628D01*
X-65875156Y2551626D01*
X-65898787Y2494575D01*
X-65943335Y2439294D01*
X-66010699Y2416874D01*
X-66079490Y2434433D01*
X-66104290Y2453699D01*
X-66747208Y3096617D01*
X-66747211Y3096619D01*
X-66747213Y3096621D01*
X-66837740Y3162393D01*
X-66896901Y3205377D01*
X-66982416Y3248949D01*
X-67061764Y3289379D01*
X-67061767Y3289380D01*
X-67061769Y3289381D01*
X-67237732Y3346554D01*
X-67237729Y3346554D01*
X-67271755Y3351944D01*
X-67420486Y3375500D01*
X-81052514Y3375500D01*
X-81235264Y3346555D01*
X-81235270Y3346554D01*
X-81411232Y3289381D01*
X-81411238Y3289378D01*
X-81576095Y3205379D01*
X-81576102Y3205374D01*
X-81632275Y3164563D01*
X-81699143Y3140705D01*
X-81706334Y3140500D01*
X-81954929Y3140500D01*
X-82221772Y3100280D01*
X-82221774Y3100280D01*
X-82221783Y3100278D01*
X-82479633Y3020742D01*
X-82479651Y3020735D01*
X-82718831Y2905551D01*
X-82788884Y2894016D01*
X-82854053Y2922185D01*
X-82893647Y2981116D01*
X-82899500Y3019073D01*
X-82899500Y4267704D01*
X-82879498Y4335825D01*
X-82862595Y4356799D01*
X-79656799Y7562595D01*
X-79594487Y7596621D01*
X-79567704Y7599500D01*
X-79237978Y7599500D01*
X-79169857Y7579498D01*
X-79123364Y7525842D01*
X-79113260Y7455568D01*
X-79128859Y7410500D01*
X-79177844Y7325656D01*
X-79177849Y7325645D01*
X-79177850Y7325643D01*
X-79275822Y7089118D01*
X-79285716Y7052194D01*
X-79342085Y6841822D01*
X-79375500Y6588009D01*
X-79375500Y6331992D01*
X-79342085Y6078179D01*
X-79342084Y6078173D01*
X-79342083Y6078171D01*
X-79275822Y5830882D01*
X-79177850Y5594357D01*
X-79177849Y5594356D01*
X-79177844Y5594345D01*
X-79049847Y5372647D01*
X-79049842Y5372640D01*
X-78894001Y5169544D01*
X-78893982Y5169523D01*
X-78712978Y4988519D01*
X-78712957Y4988500D01*
X-78509861Y4832659D01*
X-78509854Y4832654D01*
X-78288156Y4704657D01*
X-78288152Y4704656D01*
X-78288143Y4704650D01*
X-78051618Y4606678D01*
X-77804329Y4540417D01*
X-77804323Y4540417D01*
X-77804322Y4540416D01*
X-77775201Y4536583D01*
X-77550506Y4507000D01*
X-77550499Y4507000D01*
X-77199501Y4507000D01*
X-77199494Y4507000D01*
X-76945671Y4540417D01*
X-76698382Y4606678D01*
X-76461857Y4704650D01*
X-76240143Y4832656D01*
X-76037035Y4988507D01*
X-75856007Y5169535D01*
X-75700156Y5372643D01*
X-75572150Y5594357D01*
X-75474178Y5830882D01*
X-75407917Y6078171D01*
X-75376079Y6320000D01*
X-70905549Y6320000D01*
X-70885383Y6050894D01*
X-70825335Y5787807D01*
X-70726745Y5536606D01*
X-70726742Y5536598D01*
X-70591818Y5302902D01*
X-70591816Y5302899D01*
X-70591815Y5302898D01*
X-70423561Y5091915D01*
X-70225741Y4908365D01*
X-70225735Y4908361D01*
X-70002784Y4756355D01*
X-70002777Y4756351D01*
X-70002774Y4756349D01*
X-69759641Y4639262D01*
X-69759638Y4639262D01*
X-69759633Y4639259D01*
X-69501783Y4559723D01*
X-69501781Y4559723D01*
X-69501772Y4559720D01*
X-69234929Y4519500D01*
X-69234925Y4519500D01*
X-68965075Y4519500D01*
X-68965071Y4519500D01*
X-68698228Y4559720D01*
X-68698218Y4559723D01*
X-68440368Y4639259D01*
X-68440366Y4639261D01*
X-68440359Y4639262D01*
X-68440354Y4639265D01*
X-68440350Y4639266D01*
X-68197231Y4756346D01*
X-68197231Y4756347D01*
X-68197225Y4756349D01*
X-67974259Y4908365D01*
X-67776439Y5091915D01*
X-67608185Y5302898D01*
X-67492716Y5502898D01*
X-67473259Y5536598D01*
X-67473257Y5536602D01*
X-67374666Y5787805D01*
X-67314617Y6050897D01*
X-67294451Y6320000D01*
X-67314617Y6589103D01*
X-67374666Y6852195D01*
X-67473257Y7103398D01*
X-67473258Y7103399D01*
X-67473259Y7103403D01*
X-67608183Y7337099D01*
X-67666719Y7410500D01*
X-67776439Y7548085D01*
X-67974259Y7731635D01*
X-67996723Y7746951D01*
X-68197223Y7883650D01*
X-68197231Y7883655D01*
X-68440350Y8000735D01*
X-68440368Y8000742D01*
X-68698218Y8080278D01*
X-68698226Y8080280D01*
X-68698228Y8080280D01*
X-68965071Y8120500D01*
X-69234929Y8120500D01*
X-69501772Y8080280D01*
X-69501774Y8080280D01*
X-69501783Y8080278D01*
X-69759633Y8000742D01*
X-69759645Y8000737D01*
X-70002777Y7883650D01*
X-70002784Y7883646D01*
X-70225735Y7731640D01*
X-70225740Y7731636D01*
X-70423561Y7548086D01*
X-70591818Y7337099D01*
X-70726742Y7103403D01*
X-70726745Y7103395D01*
X-70825335Y6852194D01*
X-70885383Y6589107D01*
X-70905549Y6320000D01*
X-75376079Y6320000D01*
X-75374500Y6331994D01*
X-75374500Y6588006D01*
X-75407917Y6841829D01*
X-75407919Y6841835D01*
X-75408720Y6845866D01*
X-75408455Y6845919D01*
X-75408452Y6845920D01*
X-75407539Y6846102D01*
X-75405980Y6911852D01*
X-75366193Y6970652D01*
X-75300932Y6998607D01*
X-75285959Y6999500D01*
X-74868887Y6999500D01*
X-74868880Y6999500D01*
X-74738882Y7016615D01*
X-74608884Y7033729D01*
X-74355581Y7101602D01*
X-74113303Y7201957D01*
X-74030644Y7249680D01*
X-73886197Y7333076D01*
X-73734471Y7449500D01*
X-73678149Y7492717D01*
X-71092717Y10078149D01*
X-70997603Y10202105D01*
X-70933076Y10286197D01*
X-70801957Y10513303D01*
X-70701602Y10755581D01*
X-70700585Y10759379D01*
X-70690223Y10798044D01*
X-70659088Y10914244D01*
X-70633729Y11008885D01*
X-70618869Y11121768D01*
X-70599500Y11268880D01*
X-70599500Y16065421D01*
X-70579498Y16133542D01*
X-70525842Y16180035D01*
X-70455568Y16190139D01*
X-70390988Y16160645D01*
X-70352604Y16100919D01*
X-70351793Y16098032D01*
X-70333814Y16030932D01*
X-70333812Y16030927D01*
X-70237088Y15823502D01*
X-70105816Y15636026D01*
X-70105811Y15636020D01*
X-69943981Y15474190D01*
X-69943975Y15474185D01*
X-69756499Y15342913D01*
X-69549074Y15246189D01*
X-69549069Y15246187D01*
X-69354000Y15193919D01*
X-69354000Y16168314D01*
X-69345606Y16159920D01*
X-69254394Y16107259D01*
X-69152661Y16080000D01*
X-69047339Y16080000D01*
X-68945606Y16107259D01*
X-68854394Y16159920D01*
X-68846000Y16168314D01*
X-68846000Y15193919D01*
X-68650932Y15246187D01*
X-68650927Y15246189D01*
X-68443502Y15342913D01*
X-68256026Y15474185D01*
X-68256020Y15474190D01*
X-68094190Y15636020D01*
X-68094185Y15636026D01*
X-67962913Y15823502D01*
X-67866189Y16030927D01*
X-67866187Y16030932D01*
X-67813918Y16226000D01*
X-68788314Y16226000D01*
X-68779920Y16234394D01*
X-68727259Y16325606D01*
X-68700000Y16427339D01*
X-68700000Y16532661D01*
X-68727259Y16634394D01*
X-68779920Y16725606D01*
X-68788314Y16734000D01*
X-67813918Y16734000D01*
X-67866187Y16929069D01*
X-67866189Y16929074D01*
X-67962913Y17136499D01*
X-68094185Y17323975D01*
X-68094190Y17323981D01*
X-68256020Y17485811D01*
X-68256026Y17485816D01*
X-68443502Y17617088D01*
X-68650927Y17713812D01*
X-68650929Y17713813D01*
X-68846000Y17766083D01*
X-68846000Y16791686D01*
X-68854394Y16800080D01*
X-68945606Y16852741D01*
X-69047339Y16880000D01*
X-69152661Y16880000D01*
X-69254394Y16852741D01*
X-69345606Y16800080D01*
X-69354000Y16791686D01*
X-69354000Y17766083D01*
X-69354001Y17766083D01*
X-69549072Y17713813D01*
X-69549074Y17713812D01*
X-69756499Y17617088D01*
X-69943975Y17485816D01*
X-69943981Y17485811D01*
X-70105811Y17323981D01*
X-70105816Y17323975D01*
X-70237088Y17136499D01*
X-70333812Y16929074D01*
X-70333814Y16929069D01*
X-70351793Y16861969D01*
X-70388745Y16801346D01*
X-70452606Y16770324D01*
X-70523100Y16778753D01*
X-70577847Y16823956D01*
X-70599464Y16891582D01*
X-70599500Y16894580D01*
X-70599500Y29135421D01*
X-70579498Y29203542D01*
X-70525842Y29250035D01*
X-70455568Y29260139D01*
X-70390988Y29230645D01*
X-70352604Y29170919D01*
X-70351793Y29168032D01*
X-70333814Y29100932D01*
X-70333812Y29100927D01*
X-70237088Y28893502D01*
X-70105816Y28706026D01*
X-70105811Y28706020D01*
X-69943981Y28544190D01*
X-69943975Y28544185D01*
X-69756499Y28412913D01*
X-69549074Y28316189D01*
X-69549069Y28316187D01*
X-69354000Y28263919D01*
X-69354000Y29238314D01*
X-69345606Y29229920D01*
X-69254394Y29177259D01*
X-69152661Y29150000D01*
X-69047339Y29150000D01*
X-68945606Y29177259D01*
X-68854394Y29229920D01*
X-68846000Y29238314D01*
X-68846000Y28263919D01*
X-68650932Y28316187D01*
X-68650927Y28316189D01*
X-68443502Y28412913D01*
X-68256026Y28544185D01*
X-68256020Y28544190D01*
X-68094190Y28706020D01*
X-68094185Y28706026D01*
X-67962913Y28893502D01*
X-67866189Y29100927D01*
X-67866187Y29100932D01*
X-67813918Y29296000D01*
X-68788314Y29296000D01*
X-68779920Y29304394D01*
X-68727259Y29395606D01*
X-68700000Y29497339D01*
X-68700000Y29602661D01*
X-68727259Y29704394D01*
X-68779920Y29795606D01*
X-68788314Y29804000D01*
X-67813918Y29804000D01*
X-67866187Y29999069D01*
X-67866189Y29999074D01*
X-67962913Y30206499D01*
X-68094185Y30393975D01*
X-68094190Y30393981D01*
X-68256020Y30555811D01*
X-68256026Y30555816D01*
X-68443502Y30687088D01*
X-68650927Y30783812D01*
X-68650929Y30783813D01*
X-68846000Y30836083D01*
X-68846000Y29861686D01*
X-68854394Y29870080D01*
X-68945606Y29922741D01*
X-69047339Y29950000D01*
X-69152661Y29950000D01*
X-69254394Y29922741D01*
X-69345606Y29870080D01*
X-69354000Y29861686D01*
X-69354000Y30836083D01*
X-69354001Y30836083D01*
X-69549072Y30783813D01*
X-69549074Y30783812D01*
X-69756499Y30687088D01*
X-69943975Y30555816D01*
X-69943981Y30555811D01*
X-70105811Y30393981D01*
X-70105816Y30393975D01*
X-70237088Y30206499D01*
X-70333812Y29999074D01*
X-70333814Y29999069D01*
X-70378295Y29833063D01*
X-70415247Y29772440D01*
X-70479108Y29741419D01*
X-70549602Y29749847D01*
X-70604349Y29795050D01*
X-70624924Y29849230D01*
X-70633728Y29916105D01*
X-70633729Y29916115D01*
X-70701602Y30169419D01*
X-70801957Y30411697D01*
X-70870951Y30531198D01*
X-70933076Y30638803D01*
X-71024772Y30758303D01*
X-71092717Y30846851D01*
X-71092723Y30846857D01*
X-71092727Y30846862D01*
X-75030271Y34784405D01*
X-75064297Y34846717D01*
X-75059232Y34917532D01*
X-75016685Y34974368D01*
X-74950165Y34999179D01*
X-74941176Y34999500D01*
X-70119260Y34999500D01*
X-70071043Y34989910D01*
G37*
%TD.AperFunction*%
%TA.AperFunction,Conductor*%
G36*
X-48251519Y34879498D02*
G01*
X-48205026Y34825842D01*
X-48194922Y34755568D01*
X-48197932Y34740897D01*
X-48208345Y34702034D01*
X-48211272Y34691109D01*
X-48245500Y34431122D01*
X-48245500Y31513878D01*
X-48228385Y31383881D01*
X-48228385Y31383880D01*
X-48211273Y31253892D01*
X-48151893Y31032283D01*
X-48143400Y31000587D01*
X-48143398Y31000581D01*
X-48053610Y30783813D01*
X-48043043Y30758303D01*
X-48043037Y30758291D01*
X-47926138Y30555816D01*
X-47911924Y30531197D01*
X-47842612Y30440869D01*
X-47752283Y30323149D01*
X-47752274Y30323139D01*
X-43418230Y25989096D01*
X-43384204Y25926784D01*
X-43389269Y25855969D01*
X-43418229Y25810906D01*
X-44107281Y25121854D01*
X-44107283Y25121851D01*
X-44193965Y25008884D01*
X-44193966Y25008884D01*
X-44266922Y24913807D01*
X-44266927Y24913800D01*
X-44358273Y24755581D01*
X-44373956Y24728419D01*
X-44398041Y24686702D01*
X-44398042Y24686699D01*
X-44498398Y24444419D01*
X-44498400Y24444415D01*
X-44566273Y24191110D01*
X-44581143Y24078150D01*
X-44600500Y23931123D01*
X-44600500Y13492587D01*
X-44620502Y13424466D01*
X-44674158Y13377973D01*
X-44744432Y13367869D01*
X-44784837Y13380905D01*
X-44871951Y13426409D01*
X-45067582Y13482386D01*
X-45186963Y13493000D01*
X-45186968Y13493000D01*
X-47303028Y13493000D01*
X-47303038Y13492999D01*
X-47422412Y13482387D01*
X-47422415Y13482387D01*
X-47422418Y13482386D01*
X-47618049Y13426409D01*
X-47618052Y13426408D01*
X-47798405Y13332200D01*
X-47956109Y13203609D01*
X-48084700Y13045905D01*
X-48178908Y12865552D01*
X-48178909Y12865550D01*
X-48178909Y12865549D01*
X-48234886Y12669918D01*
X-48242472Y12584587D01*
X-48245500Y12550535D01*
X-48245500Y12550531D01*
X-48245499Y10526671D01*
X-48247021Y10526671D01*
X-48262425Y10463407D01*
X-48313850Y10414458D01*
X-48371491Y10400500D01*
X-49657519Y10400500D01*
X-49725640Y10420502D01*
X-49772133Y10474158D01*
X-49782237Y10544432D01*
X-49766638Y10589500D01*
X-49693259Y10716598D01*
X-49693257Y10716602D01*
X-49594666Y10967805D01*
X-49534617Y11230897D01*
X-49514451Y11500000D01*
X-49534617Y11769103D01*
X-49594666Y12032195D01*
X-49693257Y12283398D01*
X-49693258Y12283399D01*
X-49693259Y12283403D01*
X-49828183Y12517099D01*
X-49854842Y12550528D01*
X-49996439Y12728085D01*
X-50194259Y12911635D01*
X-50194266Y12911640D01*
X-50417223Y13063650D01*
X-50417231Y13063655D01*
X-50660350Y13180735D01*
X-50660368Y13180742D01*
X-50918218Y13260278D01*
X-50918226Y13260280D01*
X-50918228Y13260280D01*
X-51185071Y13300500D01*
X-51454929Y13300500D01*
X-51721772Y13260280D01*
X-51721774Y13260280D01*
X-51721783Y13260278D01*
X-51979633Y13180742D01*
X-51979645Y13180737D01*
X-52222777Y13063650D01*
X-52222784Y13063646D01*
X-52445735Y12911640D01*
X-52445740Y12911636D01*
X-52643561Y12728086D01*
X-52811818Y12517099D01*
X-52946742Y12283403D01*
X-52946745Y12283395D01*
X-53045335Y12032194D01*
X-53105383Y11769107D01*
X-53125549Y11500000D01*
X-53105383Y11230894D01*
X-53045335Y10967807D01*
X-52946745Y10716606D01*
X-52946742Y10716598D01*
X-52873362Y10589500D01*
X-52856624Y10520504D01*
X-52879845Y10453412D01*
X-52935652Y10409525D01*
X-52982481Y10400500D01*
X-54884561Y10400500D01*
X-54884585Y10400501D01*
X-54889778Y10400501D01*
X-55110221Y10400501D01*
X-55327951Y10366015D01*
X-55327953Y10366015D01*
X-55327956Y10366014D01*
X-55537602Y10297897D01*
X-55537608Y10297894D01*
X-55734026Y10197813D01*
X-55912366Y10068242D01*
X-55975440Y10005167D01*
X-56068242Y9912365D01*
X-56068245Y9912362D01*
X-59472082Y6508526D01*
X-59534394Y6474500D01*
X-59590591Y6475102D01*
X-59777606Y6520000D01*
X-59841006Y6535221D01*
X-60100000Y6555604D01*
X-60358994Y6535221D01*
X-60611610Y6474573D01*
X-60611616Y6474571D01*
X-60625286Y6468909D01*
X-60695876Y6461322D01*
X-60759362Y6493103D01*
X-60795587Y6554163D01*
X-60799500Y6585319D01*
X-60799500Y33691012D01*
X-60780933Y33756847D01*
X-60724846Y33848372D01*
X-60625427Y34088390D01*
X-60564779Y34341006D01*
X-60544396Y34600000D01*
X-60557273Y34763616D01*
X-60542677Y34833094D01*
X-60492834Y34883654D01*
X-60431661Y34899500D01*
X-48319640Y34899500D01*
X-48251519Y34879498D01*
G37*
%TD.AperFunction*%
%TA.AperFunction,Conductor*%
G36*
X-12612703Y23379498D02*
G01*
X-12591729Y23362595D01*
X-11776569Y22547435D01*
X-11742543Y22485123D01*
X-11747608Y22414308D01*
X-11790155Y22357472D01*
X-11856675Y22332661D01*
X-11898275Y22336633D01*
X-12008884Y22366271D01*
X-12008886Y22366272D01*
X-12008892Y22366273D01*
X-12138881Y22383385D01*
X-12268878Y22400500D01*
X-12268880Y22400500D01*
X-40031120Y22400500D01*
X-40031122Y22400500D01*
X-40291112Y22366272D01*
X-40440890Y22326139D01*
X-40511866Y22327829D01*
X-40570662Y22367624D01*
X-40598609Y22432888D01*
X-40599500Y22447846D01*
X-40599500Y22919176D01*
X-40579498Y22987297D01*
X-40562595Y23008271D01*
X-40208271Y23362595D01*
X-40145959Y23396621D01*
X-40119176Y23399500D01*
X-37731120Y23399500D01*
X-12680824Y23399500D01*
X-12612703Y23379498D01*
G37*
%TD.AperFunction*%
%TD*%
M02*
