M48
; DRILL file {KiCad 8.0.1} date 2024-05-23T13:32:04+0200
; FORMAT={-:-/ absolute / metric / decimal}
; #@! TF.CreationDate,2024-05-23T13:32:04+02:00
; #@! TF.GenerationSoftware,Kicad,Pcbnew,8.0.1
; #@! TF.FileFunction,Plated,1,2,PTH
FMAT,2
METRIC
; #@! TA.AperFunction,Plated,PTH,ViaDrill
T1C0.650
; #@! TA.AperFunction,Plated,PTH,ComponentDrill
T2C0.800
; #@! TA.AperFunction,Plated,PTH,ComponentDrill
T3C1.000
; #@! TA.AperFunction,Plated,PTH,ComponentDrill
T4C1.100
; #@! TA.AperFunction,Plated,PTH,ComponentDrill
T5C1.520
%
G90
G05
T1
X-88.2Y12.1
X-73.7Y0.6
X-73.3Y-4.3
X-72.0Y-9.8
X-71.1Y-3.0
X-70.0Y-8.2
X-68.3Y-0.6
X-64.4Y1.8
X-62.2Y34.6
X-60.1Y4.9
X-56.7Y31.8
X-56.7Y24.6
X-56.7Y13.0
X-56.6Y-7.8
X-55.0Y-6.2
X-53.7Y3.2
X-49.2Y0.5
X-39.9Y20.4
X-33.6Y22.8
X-31.8Y8.5
X-25.7Y22.7
T2
X-91.78Y39.5
X-89.4Y-2.25
X-89.4Y-9.75
X-82.95Y-2.25
X-82.95Y-9.75
X-81.82Y11.5
X-81.82Y1.34
X-81.62Y39.5
X-76.5Y-2.25
X-76.5Y-9.75
X-69.1Y37.05
X-69.1Y29.55
X-69.1Y16.48
X-69.1Y6.32
X-62.18Y39.4
X-52.02Y39.4
X-51.32Y11.5
X-51.32Y1.34
X-45.0Y-0.6
X-45.0Y-5.6
X-38.05Y37.05
X-38.05Y29.55
X-38.0Y16.68
X-38.0Y6.52
X-31.78Y39.4
X-21.62Y39.4
X-21.22Y11.5
X-21.22Y1.34
X-9.8Y6.48
X-9.8Y-3.68
X-8.4Y37.05
X-8.4Y29.55
T3
X-88.1Y5.475
X-88.1Y2.935
X-56.075Y-13.075
X-53.535Y-13.075
X-50.995Y-13.075
X-48.455Y-13.075
X-45.915Y-13.075
X-43.375Y-13.075
X-40.835Y-13.075
X-38.295Y-13.075
T4
X-77.375Y39.38
X-77.375Y36.84
X-77.375Y34.3
X-77.375Y11.54
X-77.375Y9.0
X-77.375Y6.46
X-46.245Y39.38
X-46.245Y36.84
X-46.245Y34.3
X-46.245Y11.54
X-46.245Y9.0
X-46.245Y6.46
X-15.78Y39.38
X-15.78Y36.84
X-15.78Y34.3
X-15.78Y11.54
X-15.78Y9.0
X-15.78Y6.46
T5
X-101.4Y17.04
X-101.4Y11.96
X0.2Y19.78
X0.2Y14.7
X0.2Y9.62
M30
