%TF.GenerationSoftware,KiCad,Pcbnew,8.0.1*%
%TF.CreationDate,2024-05-23T13:32:17+02:00*%
%TF.ProjectId,BLDCdrv,424c4443-6472-4762-9e6b-696361645f70,2*%
%TF.SameCoordinates,PXb71b000PY69618a0*%
%TF.FileFunction,Copper,L2,Bot*%
%TF.FilePolarity,Positive*%
%FSLAX46Y46*%
G04 Gerber Fmt 4.6, Leading zero omitted, Abs format (unit mm)*
G04 Created by KiCad (PCBNEW 8.0.1) date 2024-05-23 13:32:17*
%MOMM*%
%LPD*%
G01*
G04 APERTURE LIST*
%TA.AperFunction,ComponentPad*%
%ADD10C,1.600000*%
%TD*%
%TA.AperFunction,ComponentPad*%
%ADD11O,1.600000X1.600000*%
%TD*%
%TA.AperFunction,ComponentPad*%
%ADD12R,3.000000X3.000000*%
%TD*%
%TA.AperFunction,ComponentPad*%
%ADD13C,3.000000*%
%TD*%
%TA.AperFunction,ComponentPad*%
%ADD14R,2.000000X1.905000*%
%TD*%
%TA.AperFunction,ComponentPad*%
%ADD15O,2.000000X1.905000*%
%TD*%
%TA.AperFunction,ComponentPad*%
%ADD16R,1.700000X1.700000*%
%TD*%
%TA.AperFunction,ComponentPad*%
%ADD17O,1.700000X1.700000*%
%TD*%
%TA.AperFunction,ViaPad*%
%ADD18C,1.300000*%
%TD*%
%TA.AperFunction,Conductor*%
%ADD19C,0.800000*%
%TD*%
%TA.AperFunction,Conductor*%
%ADD20C,0.350000*%
%TD*%
%TA.AperFunction,Conductor*%
%ADD21C,2.000000*%
%TD*%
G04 APERTURE END LIST*
D10*
%TO.P,R1,1*%
%TO.N,Net-(Q1-Pad1)*%
X-81620000Y39500000D03*
D11*
%TO.P,R1,2*%
%TO.N,Net-(IC1-Pad19)*%
X-91780000Y39500000D03*
%TD*%
D10*
%TO.P,C7,1*%
%TO.N,Net-(C7-Pad1)*%
X-76500000Y-9750000D03*
D11*
%TO.P,C7,2*%
%TO.N,Net-(C7-Pad2)*%
X-76500000Y-2250000D03*
%TD*%
D10*
%TO.P,R8,1*%
%TO.N,Net-(Q6-Pad1)*%
X-21220000Y11500000D03*
D11*
%TO.P,R8,2*%
%TO.N,Net-(IC1-Pad9)*%
X-21220000Y1340000D03*
%TD*%
D12*
%TO.P,J3,1,Pin_1*%
%TO.N,Net-(C5-Pad2)*%
X200000Y9620000D03*
D13*
%TO.P,J3,2,Pin_2*%
%TO.N,Net-(C6-Pad2)*%
X200000Y14700000D03*
%TO.P,J3,3,Pin_3*%
%TO.N,Net-(C7-Pad2)*%
X200000Y19780000D03*
%TD*%
D10*
%TO.P,C3,1*%
%TO.N,+BATT*%
X-38050000Y37050000D03*
D11*
%TO.P,C3,2*%
%TO.N,GNDREF*%
X-38050000Y29550000D03*
%TD*%
D10*
%TO.P,R7,1*%
%TO.N,Net-(Q5-Pad1)*%
X-21620000Y39400000D03*
D11*
%TO.P,R7,2*%
%TO.N,Net-(IC1-Pad13)*%
X-31780000Y39400000D03*
%TD*%
D10*
%TO.P,R3,1*%
%TO.N,Net-(Q2-Pad3)*%
X-69100000Y6320000D03*
D11*
%TO.P,R3,2*%
%TO.N,GNDREF*%
X-69100000Y16480000D03*
%TD*%
D10*
%TO.P,C6,1*%
%TO.N,Net-(C6-Pad1)*%
X-82950000Y-9750000D03*
D11*
%TO.P,C6,2*%
%TO.N,Net-(C6-Pad2)*%
X-82950000Y-2250000D03*
%TD*%
D10*
%TO.P,R6,1*%
%TO.N,Net-(Q4-Pad3)*%
X-38000000Y6520000D03*
D11*
%TO.P,R6,2*%
%TO.N,GNDREF*%
X-38000000Y16680000D03*
%TD*%
D10*
%TO.P,R4,1*%
%TO.N,Net-(Q3-Pad1)*%
X-52020000Y39400000D03*
D11*
%TO.P,R4,2*%
%TO.N,Net-(IC1-Pad16)*%
X-62180000Y39400000D03*
%TD*%
D14*
%TO.P,Q4,1,G*%
%TO.N,Net-(Q4-Pad1)*%
X-46245000Y11540000D03*
D15*
%TO.P,Q4,2,D*%
%TO.N,Net-(C6-Pad2)*%
X-46245000Y9000000D03*
%TO.P,Q4,3,S*%
%TO.N,Net-(Q4-Pad3)*%
X-46245000Y6460000D03*
%TD*%
D12*
%TO.P,J1,1,Pin_1*%
%TO.N,+BATT*%
X-101400000Y17040000D03*
D13*
%TO.P,J1,2,Pin_2*%
%TO.N,GNDREF*%
X-101400000Y11960000D03*
%TD*%
D14*
%TO.P,Q2,1,G*%
%TO.N,Net-(Q2-Pad1)*%
X-77375000Y11540000D03*
D15*
%TO.P,Q2,2,D*%
%TO.N,Net-(C5-Pad2)*%
X-77375000Y9000000D03*
%TO.P,Q2,3,S*%
%TO.N,Net-(Q2-Pad3)*%
X-77375000Y6460000D03*
%TD*%
D14*
%TO.P,Q6,1,G*%
%TO.N,Net-(Q6-Pad1)*%
X-15780000Y11540000D03*
D15*
%TO.P,Q6,2,D*%
%TO.N,Net-(C7-Pad2)*%
X-15780000Y9000000D03*
%TO.P,Q6,3,S*%
%TO.N,Net-(Q6-Pad3)*%
X-15780000Y6460000D03*
%TD*%
D10*
%TO.P,C2,1*%
%TO.N,+BATT*%
X-69100000Y37050000D03*
D11*
%TO.P,C2,2*%
%TO.N,GNDREF*%
X-69100000Y29550000D03*
%TD*%
D14*
%TO.P,Q5,1,G*%
%TO.N,Net-(Q5-Pad1)*%
X-15780000Y39380000D03*
D15*
%TO.P,Q5,2,D*%
%TO.N,+BATT*%
X-15780000Y36840000D03*
%TO.P,Q5,3,S*%
%TO.N,Net-(C7-Pad2)*%
X-15780000Y34300000D03*
%TD*%
D10*
%TO.P,C4,1*%
%TO.N,+BATT*%
X-8400000Y37050000D03*
D11*
%TO.P,C4,2*%
%TO.N,GNDREF*%
X-8400000Y29550000D03*
%TD*%
D10*
%TO.P,C1,1*%
%TO.N,Net-(C1-Pad1)*%
X-45000000Y-5600000D03*
%TO.P,C1,2*%
%TO.N,GNDREF*%
X-45000000Y-600000D03*
%TD*%
D14*
%TO.P,Q1,1,G*%
%TO.N,Net-(Q1-Pad1)*%
X-77375000Y39380000D03*
D15*
%TO.P,Q1,2,D*%
%TO.N,+BATT*%
X-77375000Y36840000D03*
%TO.P,Q1,3,S*%
%TO.N,Net-(C5-Pad2)*%
X-77375000Y34300000D03*
%TD*%
D16*
%TO.P,JP1,1,A*%
%TO.N,Net-(JP1-Pad1)*%
X-88100000Y5475000D03*
D17*
%TO.P,JP1,2,B*%
%TO.N,Net-(C1-Pad1)*%
X-88100000Y2935000D03*
%TD*%
D10*
%TO.P,R9,1*%
%TO.N,Net-(Q6-Pad3)*%
X-9800000Y6480000D03*
D11*
%TO.P,R9,2*%
%TO.N,GNDREF*%
X-9800000Y-3680000D03*
%TD*%
D14*
%TO.P,Q3,1,G*%
%TO.N,Net-(Q3-Pad1)*%
X-46245000Y39380000D03*
D15*
%TO.P,Q3,2,D*%
%TO.N,+BATT*%
X-46245000Y36840000D03*
%TO.P,Q3,3,S*%
%TO.N,Net-(C6-Pad2)*%
X-46245000Y34300000D03*
%TD*%
D10*
%TO.P,R2,1*%
%TO.N,Net-(Q2-Pad1)*%
X-81820000Y11500000D03*
D11*
%TO.P,R2,2*%
%TO.N,Net-(IC1-Pad11)*%
X-81820000Y1340000D03*
%TD*%
D10*
%TO.P,R5,1*%
%TO.N,Net-(Q4-Pad1)*%
X-51320000Y11500000D03*
D11*
%TO.P,R5,2*%
%TO.N,Net-(IC1-Pad10)*%
X-51320000Y1340000D03*
%TD*%
D10*
%TO.P,C5,1*%
%TO.N,Net-(C5-Pad1)*%
X-89400000Y-9750000D03*
D11*
%TO.P,C5,2*%
%TO.N,Net-(C5-Pad2)*%
X-89400000Y-2250000D03*
%TD*%
D16*
%TO.P,J2,1,Pin_1*%
%TO.N,Net-(IC1-Pad1)*%
X-56075000Y-13075000D03*
D17*
%TO.P,J2,2,Pin_2*%
%TO.N,Net-(IC1-Pad4)*%
X-53535000Y-13075000D03*
%TO.P,J2,3,Pin_3*%
%TO.N,Net-(IC1-Pad2)*%
X-50995000Y-13075000D03*
%TO.P,J2,4,Pin_4*%
%TO.N,Net-(IC1-Pad5)*%
X-48455000Y-13075000D03*
%TO.P,J2,5,Pin_5*%
%TO.N,Net-(IC1-Pad3)*%
X-45915000Y-13075000D03*
%TO.P,J2,6,Pin_6*%
%TO.N,Net-(IC1-Pad6)*%
X-43375000Y-13075000D03*
%TO.P,J2,7,Pin_7*%
%TO.N,Net-(C1-Pad1)*%
X-40835000Y-13075000D03*
%TO.P,J2,8,Pin_8*%
%TO.N,GNDREF*%
X-38295000Y-13075000D03*
%TD*%
D18*
%TO.N,Net-(IC1-Pad2)*%
X-56600000Y-7800000D03*
%TO.N,Net-(IC1-Pad3)*%
X-55000000Y-6200000D03*
%TO.N,Net-(IC1-Pad13)*%
X-53700000Y3200000D03*
X-68300000Y-600000D03*
X-31800000Y8500000D03*
%TO.N,Net-(IC1-Pad16)*%
X-62200000Y34600000D03*
X-71100000Y-3000000D03*
X-64400000Y1800000D03*
%TO.N,Net-(IC1-Pad19)*%
X-70000000Y-8200000D03*
%TO.N,GNDREF*%
X-33600000Y22800000D03*
X-56700000Y31800000D03*
X-88200000Y12100000D03*
X-56700000Y24600000D03*
X-25700000Y22700000D03*
X-56700000Y13000000D03*
%TO.N,Net-(C5-Pad2)*%
X-39900000Y20400000D03*
X-72000000Y-9800000D03*
%TO.N,Net-(C6-Pad2)*%
X-60100000Y4900000D03*
X-73300000Y-4300000D03*
%TO.N,Net-(C7-Pad2)*%
X-49200000Y500000D03*
X-73700000Y600000D03*
%TD*%
D19*
%TO.N,Net-(IC1-Pad2)*%
X-56600000Y-7800000D02*
X-53500000Y-7800000D01*
X-53500000Y-7800000D02*
X-50995000Y-10305000D01*
X-50995000Y-10305000D02*
X-50995000Y-13075000D01*
%TO.N,Net-(IC1-Pad3)*%
X-51300000Y-6200000D02*
X-55000000Y-6200000D01*
X-45915000Y-13075000D02*
X-45915000Y-11585000D01*
X-45915000Y-11585000D02*
X-51300000Y-6200000D01*
%TO.N,Net-(IC1-Pad13)*%
X-31800000Y8500000D02*
X-31780000Y8520000D01*
X-31780000Y8520000D02*
X-31780000Y39400000D01*
X-68300000Y-600000D02*
X-57500000Y-600000D01*
X-57500000Y-600000D02*
X-53700000Y3200000D01*
D20*
X-34500000Y5800000D02*
X-31800000Y8500000D01*
D19*
%TO.N,Net-(IC1-Pad16)*%
X-62180000Y39400000D02*
X-62180000Y34620000D01*
X-68900000Y900000D02*
X-71100000Y-1300000D01*
X-64400000Y1800000D02*
X-66000000Y1800000D01*
X-71100000Y-1300000D02*
X-71100000Y-3000000D01*
X-66000000Y1800000D02*
X-66900000Y900000D01*
D20*
X-62180000Y34620000D02*
X-62200000Y34600000D01*
D19*
X-66900000Y900000D02*
X-68900000Y900000D01*
%TO.N,Net-(IC1-Pad19)*%
X-91780000Y4883279D02*
X-91780000Y39500000D01*
D20*
X-91780000Y3230000D02*
X-91780000Y3380000D01*
D19*
X-70000000Y-8200000D02*
X-72000000Y-6200000D01*
X-72000000Y-6200000D02*
X-82350000Y-6200000D01*
X-91780000Y3380000D02*
X-91780000Y4883279D01*
X-82350000Y-6200000D02*
X-91780000Y3230000D01*
D20*
%TO.N,Net-(Q2-Pad3)*%
X-69240000Y6460000D02*
X-69100000Y6320000D01*
D21*
X-77375000Y6460000D02*
X-69240000Y6460000D01*
D20*
%TO.N,Net-(Q3-Pad1)*%
X-46265000Y39400000D02*
X-46245000Y39380000D01*
D19*
X-52020000Y39400000D02*
X-46265000Y39400000D01*
%TO.N,Net-(Q4-Pad1)*%
X-51320000Y11500000D02*
X-46285000Y11500000D01*
D20*
X-46285000Y11500000D02*
X-46245000Y11540000D01*
%TO.N,Net-(Q4-Pad3)*%
X-38060000Y6460000D02*
X-38000000Y6520000D01*
D21*
X-46245000Y6460000D02*
X-38060000Y6460000D01*
D20*
%TO.N,Net-(Q5-Pad1)*%
X-21620000Y39400000D02*
X-15800000Y39400000D01*
X-15800000Y39400000D02*
X-15780000Y39380000D01*
D19*
%TO.N,Net-(Q6-Pad1)*%
X-21220000Y11500000D02*
X-15820000Y11500000D01*
D20*
X-15820000Y11500000D02*
X-15780000Y11540000D01*
D21*
%TO.N,Net-(Q6-Pad3)*%
X-9800000Y6480000D02*
X-15760000Y6480000D01*
D20*
X-15760000Y6480000D02*
X-15780000Y6460000D01*
D19*
%TO.N,Net-(C1-Pad1)*%
X-47600000Y-1288012D02*
X-47600000Y3000000D01*
X-68100000Y4100000D02*
X-68500000Y3700000D01*
X-85200000Y3700000D02*
X-85965000Y2935000D01*
X-65100000Y6500000D02*
X-65700000Y6500000D01*
X-47600000Y3000000D02*
X-51100000Y6500000D01*
X-51100000Y6500000D02*
X-65100000Y6500000D01*
X-65700000Y6500000D02*
X-68100000Y4100000D01*
X-45000000Y-5600000D02*
X-40835000Y-9765000D01*
X-85965000Y2935000D02*
X-88100000Y2935000D01*
X-68500000Y3700000D02*
X-85200000Y3700000D01*
X-40835000Y-9765000D02*
X-40835000Y-13075000D01*
X-45000000Y-5600000D02*
X-46300000Y-4300000D01*
X-46300000Y-2588012D02*
X-47600000Y-1288012D01*
X-46300000Y-4300000D02*
X-46300000Y-2588012D01*
%TO.N,Net-(Q1-Pad1)*%
X-81620000Y39500000D02*
X-77495000Y39500000D01*
D20*
X-77495000Y39500000D02*
X-77375000Y39380000D01*
D19*
%TO.N,Net-(Q2-Pad1)*%
X-81820000Y11500000D02*
X-77415000Y11500000D01*
D20*
X-77415000Y11500000D02*
X-77375000Y11540000D01*
D21*
%TO.N,GNDREF*%
X-19195000Y-13075000D02*
X-38295000Y-13075000D01*
D19*
X-38295000Y-13075000D02*
X-38295000Y-7305000D01*
D21*
X-69100000Y16480000D02*
X-83820000Y16480000D01*
X-69100000Y29550000D02*
X-38050000Y29550000D01*
X-83820000Y16480000D02*
X-88200000Y12100000D01*
X-69100000Y29550000D02*
X-69100000Y16480000D01*
D19*
X-38295000Y-7305000D02*
X-45000000Y-600000D01*
D21*
X-37400000Y17380000D02*
X-38050000Y16730000D01*
X-9800000Y-3680000D02*
X-19195000Y-13075000D01*
X-38050000Y29550000D02*
X-37400000Y28900000D01*
X-37400000Y28900000D02*
X-37400000Y17380000D01*
D19*
X-38050000Y16730000D02*
X-38000000Y16680000D01*
%TO.N,Net-(C5-Pad2)*%
X-72000000Y-9800000D02*
X-73950480Y-7849520D01*
D21*
X-39900000Y20400000D02*
X-55900000Y20400000D01*
D19*
X-89400000Y-4500000D02*
X-89400000Y-2250000D01*
X-86050480Y-7849520D02*
X-89400000Y-4500000D01*
D21*
X-67300000Y9000000D02*
X-77375000Y9000000D01*
D19*
X-73950480Y-7849520D02*
X-86050480Y-7849520D01*
D21*
X-55900000Y20400000D02*
X-67300000Y9000000D01*
D19*
%TO.N,Net-(C6-Pad2)*%
X-80450000Y-2250000D02*
X-82950000Y-2250000D01*
X-80600000Y-4600000D02*
X-82950000Y-2250000D01*
X-73600000Y-4600000D02*
X-80600000Y-4600000D01*
X-60100000Y4900000D02*
X-65000000Y4900000D01*
D20*
X-73300000Y-4300000D02*
X-73600000Y-4600000D01*
D19*
X-65000000Y4900000D02*
X-67500000Y2400000D01*
X-75800000Y2400000D02*
X-80450000Y-2250000D01*
X-67500000Y2400000D02*
X-75800000Y2400000D01*
D20*
%TO.N,Net-(C7-Pad2)*%
X-49200000Y500000D02*
X-49500000Y500000D01*
X-73700000Y-2100000D02*
X-73700000Y600000D01*
X-2020000Y19780000D02*
X200000Y19780000D01*
X-54600000Y-4600000D02*
X-71200000Y-4600000D01*
X-73700000Y600000D02*
X-73934500Y365500D01*
D19*
X-73934500Y315500D02*
X-76500000Y-2250000D01*
D20*
X-49500000Y500000D02*
X-54600000Y-4600000D01*
D21*
X-15780000Y29180000D02*
X-15780000Y34300000D01*
X200000Y19780000D02*
X-6380000Y19780000D01*
X-15780000Y9000000D02*
X-12800000Y9000000D01*
D20*
X-2220000Y19780000D02*
X200000Y19780000D01*
D21*
X-12800000Y9000000D02*
X-2020000Y19780000D01*
D20*
X-73934500Y365500D02*
X-73934500Y315500D01*
D21*
X-6380000Y19780000D02*
X-15780000Y29180000D01*
D20*
X-71200000Y-4600000D02*
X-73700000Y-2100000D01*
%TD*%
%TA.AperFunction,Conductor*%
%TO.N,GNDREF*%
G36*
X4346621Y44549498D02*
G01*
X4393114Y44495842D01*
X4404500Y44443500D01*
X4404500Y-14903500D01*
X4384498Y-14971621D01*
X4330842Y-15018114D01*
X4278500Y-15029500D01*
X-40081597Y-15029500D01*
X-40149718Y-15009498D01*
X-40196211Y-14955842D01*
X-40206315Y-14885568D01*
X-40176821Y-14820988D01*
X-40125631Y-14785444D01*
X-40064311Y-14762574D01*
X-39831989Y-14635716D01*
X-39620085Y-14477087D01*
X-39432913Y-14289915D01*
X-39330242Y-14152761D01*
X-39273409Y-14110217D01*
X-39202593Y-14105151D01*
X-39151985Y-14128841D01*
X-39040310Y-14215762D01*
X-39040301Y-14215768D01*
X-38842372Y-14322882D01*
X-38842370Y-14322883D01*
X-38629517Y-14395955D01*
X-38629508Y-14395957D01*
X-38549000Y-14409391D01*
X-38549000Y-13505702D01*
X-38487993Y-13540925D01*
X-38360826Y-13575000D01*
X-38229174Y-13575000D01*
X-38102007Y-13540925D01*
X-38041000Y-13505702D01*
X-38041000Y-14409390D01*
X-37960493Y-14395957D01*
X-37960484Y-14395955D01*
X-37747631Y-14322883D01*
X-37747629Y-14322882D01*
X-37549700Y-14215768D01*
X-37549699Y-14215767D01*
X-37372098Y-14077534D01*
X-37219675Y-13911958D01*
X-37096581Y-13723548D01*
X-37006180Y-13517456D01*
X-37006177Y-13517449D01*
X-36958456Y-13329000D01*
X-37864297Y-13329000D01*
X-37829075Y-13267993D01*
X-37795000Y-13140826D01*
X-37795000Y-13009174D01*
X-37829075Y-12882007D01*
X-37864297Y-12821000D01*
X-36958456Y-12821000D01*
X-36958456Y-12820999D01*
X-37006177Y-12632550D01*
X-37006180Y-12632543D01*
X-37096581Y-12426451D01*
X-37219675Y-12238041D01*
X-37372098Y-12072465D01*
X-37549699Y-11934232D01*
X-37549700Y-11934231D01*
X-37747629Y-11827117D01*
X-37747631Y-11827116D01*
X-37764602Y-11821290D01*
X-750500Y-11821290D01*
X-718840Y-12061782D01*
X-656056Y-12296095D01*
X-656055Y-12296097D01*
X-656054Y-12296100D01*
X-563224Y-12520212D01*
X-563223Y-12520213D01*
X-563218Y-12520224D01*
X-441939Y-12730285D01*
X-441937Y-12730288D01*
X-441936Y-12730289D01*
X-294265Y-12922738D01*
X-294261Y-12922742D01*
X-294256Y-12922748D01*
X-122749Y-13094255D01*
X-122744Y-13094259D01*
X-122738Y-13094265D01*
X69711Y-13241936D01*
X69714Y-13241938D01*
X279775Y-13363217D01*
X279779Y-13363218D01*
X279788Y-13363224D01*
X503900Y-13456054D01*
X738211Y-13518838D01*
X738215Y-13518838D01*
X738217Y-13518839D01*
X800202Y-13526999D01*
X978712Y-13550500D01*
X978719Y-13550500D01*
X1221281Y-13550500D01*
X1221288Y-13550500D01*
X1438637Y-13521885D01*
X1461782Y-13518839D01*
X1461782Y-13518838D01*
X1461789Y-13518838D01*
X1696100Y-13456054D01*
X1920212Y-13363224D01*
X2130289Y-13241936D01*
X2322738Y-13094265D01*
X2494265Y-12922738D01*
X2641936Y-12730289D01*
X2763224Y-12520212D01*
X2856054Y-12296100D01*
X2918838Y-12061789D01*
X2950500Y-11821288D01*
X2950500Y-11578712D01*
X2918838Y-11338211D01*
X2856054Y-11103900D01*
X2763224Y-10879788D01*
X2763218Y-10879779D01*
X2763217Y-10879775D01*
X2641938Y-10669714D01*
X2641936Y-10669711D01*
X2494265Y-10477262D01*
X2494259Y-10477256D01*
X2494255Y-10477251D01*
X2322748Y-10305744D01*
X2322742Y-10305739D01*
X2322738Y-10305735D01*
X2130289Y-10158064D01*
X2130288Y-10158063D01*
X2130285Y-10158061D01*
X1920224Y-10036782D01*
X1920216Y-10036778D01*
X1920212Y-10036776D01*
X1696100Y-9943946D01*
X1696097Y-9943945D01*
X1696095Y-9943944D01*
X1461782Y-9881160D01*
X1221290Y-9849500D01*
X1221288Y-9849500D01*
X978712Y-9849500D01*
X978709Y-9849500D01*
X738217Y-9881160D01*
X503904Y-9943944D01*
X503900Y-9943946D01*
X322448Y-10019106D01*
X279786Y-10036777D01*
X279775Y-10036782D01*
X69714Y-10158061D01*
X-122738Y-10305735D01*
X-122749Y-10305744D01*
X-294256Y-10477251D01*
X-294265Y-10477262D01*
X-441939Y-10669714D01*
X-563218Y-10879775D01*
X-563223Y-10879786D01*
X-563224Y-10879788D01*
X-632650Y-11047398D01*
X-656054Y-11103900D01*
X-656056Y-11103904D01*
X-718840Y-11338217D01*
X-750500Y-11578709D01*
X-750500Y-11821290D01*
X-37764602Y-11821290D01*
X-37960488Y-11754043D01*
X-37960499Y-11754040D01*
X-38041000Y-11740606D01*
X-38041000Y-12644297D01*
X-38102007Y-12609075D01*
X-38229174Y-12575000D01*
X-38360826Y-12575000D01*
X-38487993Y-12609075D01*
X-38549000Y-12644297D01*
X-38549000Y-11740607D01*
X-38549001Y-11740606D01*
X-38629502Y-11754040D01*
X-38629513Y-11754043D01*
X-38842370Y-11827116D01*
X-38842372Y-11827117D01*
X-39040301Y-11934231D01*
X-39040309Y-11934237D01*
X-39151986Y-12021158D01*
X-39218029Y-12047214D01*
X-39287674Y-12033428D01*
X-39330244Y-11997235D01*
X-39377404Y-11934237D01*
X-39409369Y-11891537D01*
X-39434179Y-11825018D01*
X-39434500Y-11816029D01*
X-39434500Y-9654780D01*
X-39462040Y-9480896D01*
X-39462040Y-9480895D01*
X-39468985Y-9437051D01*
X-39468985Y-9437048D01*
X-39537105Y-9227394D01*
X-39637185Y-9030978D01*
X-39661279Y-8997815D01*
X-39766758Y-8852635D01*
X-39766761Y-8852632D01*
X-39766763Y-8852629D01*
X-39925781Y-8693611D01*
X-39925812Y-8693582D01*
X-43175574Y-5443820D01*
X-43209600Y-5381508D01*
X-43212126Y-5364143D01*
X-43214617Y-5330897D01*
X-43274666Y-5067805D01*
X-43373257Y-4816602D01*
X-43373258Y-4816601D01*
X-43373259Y-4816597D01*
X-43508183Y-4582901D01*
X-43645893Y-4410219D01*
X-43676439Y-4371915D01*
X-43874259Y-4188365D01*
X-43874266Y-4188360D01*
X-44097223Y-4036350D01*
X-44097231Y-4036345D01*
X-44340350Y-3919265D01*
X-44340368Y-3919258D01*
X-44598224Y-3839720D01*
X-44770881Y-3813696D01*
X-44835260Y-3783764D01*
X-44841196Y-3778198D01*
X-44862595Y-3756799D01*
X-44896621Y-3694487D01*
X-44899500Y-3667704D01*
X-44899500Y-3426000D01*
X-11086083Y-3426000D01*
X-10111686Y-3426000D01*
X-10120080Y-3434394D01*
X-10172741Y-3525606D01*
X-10200000Y-3627339D01*
X-10200000Y-3732661D01*
X-10172741Y-3834394D01*
X-10120080Y-3925606D01*
X-10111686Y-3934000D01*
X-11086082Y-3934000D01*
X-11033814Y-4129068D01*
X-11033812Y-4129073D01*
X-10937088Y-4336498D01*
X-10805816Y-4523974D01*
X-10805811Y-4523980D01*
X-10643981Y-4685810D01*
X-10643975Y-4685815D01*
X-10456499Y-4817087D01*
X-10249074Y-4913811D01*
X-10249069Y-4913813D01*
X-10054000Y-4966081D01*
X-10054000Y-3991686D01*
X-10045606Y-4000080D01*
X-9954394Y-4052741D01*
X-9852661Y-4080000D01*
X-9747339Y-4080000D01*
X-9645606Y-4052741D01*
X-9554394Y-4000080D01*
X-9546000Y-3991686D01*
X-9546000Y-4966081D01*
X-9350932Y-4913813D01*
X-9350927Y-4913811D01*
X-9143502Y-4817087D01*
X-8956026Y-4685815D01*
X-8956020Y-4685810D01*
X-8794190Y-4523980D01*
X-8794185Y-4523974D01*
X-8662913Y-4336498D01*
X-8566189Y-4129073D01*
X-8566187Y-4129068D01*
X-8513918Y-3934000D01*
X-9488314Y-3934000D01*
X-9479920Y-3925606D01*
X-9427259Y-3834394D01*
X-9400000Y-3732661D01*
X-9400000Y-3627339D01*
X-9427259Y-3525606D01*
X-9479920Y-3434394D01*
X-9488314Y-3426000D01*
X-8513918Y-3426000D01*
X-8566187Y-3230931D01*
X-8566189Y-3230926D01*
X-8662913Y-3023501D01*
X-8794185Y-2836025D01*
X-8794190Y-2836019D01*
X-8956020Y-2674189D01*
X-8956026Y-2674184D01*
X-9143502Y-2542912D01*
X-9350927Y-2446188D01*
X-9350929Y-2446187D01*
X-9546000Y-2393917D01*
X-9546000Y-3368314D01*
X-9554394Y-3359920D01*
X-9645606Y-3307259D01*
X-9747339Y-3280000D01*
X-9852661Y-3280000D01*
X-9954394Y-3307259D01*
X-10045606Y-3359920D01*
X-10054000Y-3368314D01*
X-10054000Y-2393917D01*
X-10054001Y-2393917D01*
X-10249072Y-2446187D01*
X-10249074Y-2446188D01*
X-10456499Y-2542912D01*
X-10643975Y-2674184D01*
X-10643981Y-2674189D01*
X-10805811Y-2836019D01*
X-10805816Y-2836025D01*
X-10937088Y-3023501D01*
X-11033812Y-3230926D01*
X-11033814Y-3230931D01*
X-11086083Y-3426000D01*
X-44899500Y-3426000D01*
X-44899500Y-2703451D01*
X-44899499Y-2703426D01*
X-44899499Y-2477793D01*
X-44918749Y-2356256D01*
X-44933985Y-2260061D01*
X-44942056Y-2235221D01*
X-44996512Y-2067622D01*
X-44998538Y-1996656D01*
X-44961876Y-1935858D01*
X-44898163Y-1904533D01*
X-44887659Y-1903167D01*
X-44771998Y-1893048D01*
X-44550932Y-1833813D01*
X-44550927Y-1833811D01*
X-44343503Y-1737088D01*
X-44272112Y-1687099D01*
X-44272112Y-1687098D01*
X-44959211Y-1000000D01*
X-44947339Y-1000000D01*
X-44845606Y-972741D01*
X-44754394Y-920080D01*
X-44679920Y-845606D01*
X-44627259Y-754394D01*
X-44600000Y-652661D01*
X-44600000Y-640791D01*
X-43912903Y-1327888D01*
X-43912901Y-1327888D01*
X-43862912Y-1256497D01*
X-43766189Y-1049073D01*
X-43766187Y-1049068D01*
X-43706952Y-828002D01*
X-43687005Y-600000D01*
X-43706952Y-371997D01*
X-43766187Y-150931D01*
X-43766189Y-150926D01*
X-43862914Y56502D01*
X-43912900Y127890D01*
X-43912902Y127890D01*
X-44600000Y-559208D01*
X-44600000Y-547339D01*
X-44627259Y-445606D01*
X-44679920Y-354394D01*
X-44754394Y-279920D01*
X-44845606Y-227259D01*
X-44947339Y-200000D01*
X-44959210Y-200000D01*
X-44272112Y487101D01*
X-44272112Y487102D01*
X-44343499Y537087D01*
X-44550927Y633812D01*
X-44550932Y633814D01*
X-44772000Y693049D01*
X-44771996Y693049D01*
X-45000000Y712996D01*
X-45228003Y693049D01*
X-45449069Y633814D01*
X-45449074Y633812D01*
X-45656500Y537087D01*
X-45727891Y487100D01*
X-45040791Y-200000D01*
X-45052661Y-200000D01*
X-45154394Y-227259D01*
X-45245606Y-279920D01*
X-45320080Y-354394D01*
X-45372741Y-445606D01*
X-45400000Y-547339D01*
X-45400000Y-559209D01*
X-46095975Y136766D01*
X-46132124Y144031D01*
X-46183116Y193430D01*
X-46199500Y255562D01*
X-46199500Y1340000D01*
X-23025549Y1340000D01*
X-23005383Y1070894D01*
X-22945335Y807807D01*
X-22846745Y556606D01*
X-22846742Y556598D01*
X-22711818Y322902D01*
X-22711816Y322899D01*
X-22711815Y322898D01*
X-22543561Y111915D01*
X-22345741Y-71635D01*
X-22345735Y-71639D01*
X-22122784Y-223645D01*
X-22122777Y-223649D01*
X-22122774Y-223651D01*
X-21879641Y-340738D01*
X-21879638Y-340738D01*
X-21879633Y-340741D01*
X-21621783Y-420277D01*
X-21621781Y-420277D01*
X-21621772Y-420280D01*
X-21354929Y-460500D01*
X-21354925Y-460500D01*
X-21085075Y-460500D01*
X-21085071Y-460500D01*
X-20818228Y-420280D01*
X-20818218Y-420277D01*
X-20560368Y-340741D01*
X-20560366Y-340739D01*
X-20560359Y-340738D01*
X-20560354Y-340735D01*
X-20560350Y-340734D01*
X-20317231Y-223654D01*
X-20317231Y-223653D01*
X-20317225Y-223651D01*
X-20094259Y-71635D01*
X-19896439Y111915D01*
X-19728185Y322898D01*
X-19633383Y487101D01*
X-19593259Y556598D01*
X-19593257Y556602D01*
X-19494666Y807805D01*
X-19434617Y1070897D01*
X-19414451Y1340000D01*
X-19434617Y1609103D01*
X-19494666Y1872195D01*
X-19593257Y2123398D01*
X-19593258Y2123399D01*
X-19593259Y2123403D01*
X-19728183Y2357099D01*
X-19838936Y2495978D01*
X-19896439Y2568085D01*
X-20094259Y2751635D01*
X-20094266Y2751640D01*
X-20317223Y2903650D01*
X-20317231Y2903655D01*
X-20560350Y3020735D01*
X-20560368Y3020742D01*
X-20818218Y3100278D01*
X-20818226Y3100280D01*
X-20818228Y3100280D01*
X-21085071Y3140500D01*
X-21354929Y3140500D01*
X-21621772Y3100280D01*
X-21621774Y3100280D01*
X-21621783Y3100278D01*
X-21879633Y3020742D01*
X-21879645Y3020737D01*
X-22122777Y2903650D01*
X-22122784Y2903646D01*
X-22345735Y2751640D01*
X-22345740Y2751636D01*
X-22543561Y2568086D01*
X-22711818Y2357099D01*
X-22846742Y2123403D01*
X-22846745Y2123395D01*
X-22945335Y1872194D01*
X-23005383Y1609107D01*
X-23025549Y1340000D01*
X-46199500Y1340000D01*
X-46199500Y3110220D01*
X-46204124Y3139412D01*
X-46223690Y3262951D01*
X-46233985Y3327952D01*
X-46236908Y3336947D01*
X-46279411Y3467759D01*
X-46302105Y3537606D01*
X-46402185Y3734022D01*
X-46450485Y3800501D01*
X-46531758Y3912365D01*
X-46531759Y3912367D01*
X-46690781Y4071389D01*
X-46690812Y4071418D01*
X-46955213Y4335819D01*
X-46989239Y4398131D01*
X-46984174Y4468946D01*
X-46941627Y4525782D01*
X-46875107Y4550593D01*
X-46833510Y4546622D01*
X-46636116Y4493730D01*
X-46636110Y4493730D01*
X-46636109Y4493729D01*
X-46611100Y4490437D01*
X-46376120Y4459500D01*
X-46376113Y4459500D01*
X-37928887Y4459500D01*
X-37928880Y4459500D01*
X-37668884Y4493730D01*
X-37415581Y4561602D01*
X-37173303Y4661957D01*
X-36946197Y4793076D01*
X-36738149Y4952718D01*
X-36552718Y5138149D01*
X-36528634Y5169535D01*
X-36476878Y5236985D01*
X-36393076Y5346197D01*
X-36261957Y5573303D01*
X-36206376Y5707486D01*
X-35675500Y5707486D01*
X-35657580Y5594345D01*
X-35646554Y5524731D01*
X-35595043Y5366195D01*
X-35589379Y5348764D01*
X-35588073Y5346201D01*
X-35505377Y5183901D01*
X-35444055Y5099500D01*
X-35396621Y5034213D01*
X-35396619Y5034211D01*
X-35396617Y5034208D01*
X-35265793Y4903384D01*
X-35265790Y4903382D01*
X-35265787Y4903379D01*
X-35224212Y4873173D01*
X-35116100Y4794624D01*
X-35116096Y4794622D01*
X-34951236Y4710621D01*
X-34775270Y4653447D01*
X-34775269Y4653447D01*
X-34775264Y4653445D01*
X-34592514Y4624500D01*
X-34592511Y4624500D01*
X-34407489Y4624500D01*
X-34407486Y4624500D01*
X-34224736Y4653445D01*
X-34048764Y4710621D01*
X-33883904Y4794622D01*
X-33734213Y4903379D01*
X-31825483Y6812111D01*
X-31763174Y6846133D01*
X-31746282Y6848625D01*
X-31541006Y6864779D01*
X-31288390Y6925427D01*
X-31048372Y7024846D01*
X-30826860Y7160588D01*
X-30629311Y7329311D01*
X-30460588Y7526860D01*
X-30324846Y7748372D01*
X-30225427Y7988390D01*
X-30164779Y8241006D01*
X-30144396Y8500000D01*
X-30164779Y8758994D01*
X-30225427Y9011610D01*
X-30324846Y9251628D01*
X-30360934Y9310518D01*
X-30379500Y9376351D01*
X-30379500Y38224305D01*
X-30359498Y38292426D01*
X-30352018Y38302856D01*
X-30288185Y38382898D01*
X-30220721Y38499750D01*
X-30153259Y38616598D01*
X-30153257Y38616602D01*
X-30054666Y38867805D01*
X-29994617Y39130897D01*
X-29974451Y39400000D01*
X-23425549Y39400000D01*
X-23405383Y39130894D01*
X-23345335Y38867807D01*
X-23246745Y38616606D01*
X-23246742Y38616598D01*
X-23111818Y38382902D01*
X-23111817Y38382901D01*
X-23111815Y38382898D01*
X-22943561Y38171915D01*
X-22745741Y37988365D01*
X-22745735Y37988361D01*
X-22522784Y37836355D01*
X-22522777Y37836351D01*
X-22522774Y37836349D01*
X-22279641Y37719262D01*
X-22279638Y37719262D01*
X-22279633Y37719259D01*
X-22021783Y37639723D01*
X-22021781Y37639723D01*
X-22021772Y37639720D01*
X-21754929Y37599500D01*
X-21754925Y37599500D01*
X-21485075Y37599500D01*
X-21485071Y37599500D01*
X-21218228Y37639720D01*
X-21218218Y37639723D01*
X-20960368Y37719259D01*
X-20960366Y37719261D01*
X-20960359Y37719262D01*
X-20960354Y37719265D01*
X-20960350Y37719266D01*
X-20717231Y37836346D01*
X-20717231Y37836347D01*
X-20717225Y37836349D01*
X-20494259Y37988365D01*
X-20296439Y38171915D01*
X-20294848Y38173912D01*
X-20292333Y38177063D01*
X-20234221Y38217849D01*
X-20193825Y38224500D01*
X-17857570Y38224500D01*
X-17789449Y38204498D01*
X-17742956Y38150842D01*
X-17736432Y38133162D01*
X-17713911Y38054453D01*
X-17619698Y37874093D01*
X-17596110Y37845164D01*
X-17568563Y37779729D01*
X-17580767Y37709789D01*
X-17581273Y37708842D01*
X-17582851Y37705642D01*
X-17680822Y37469118D01*
X-17680823Y37469114D01*
X-17747085Y37221822D01*
X-17780500Y36968009D01*
X-17780500Y36711992D01*
X-17747085Y36458179D01*
X-17747084Y36458173D01*
X-17747083Y36458171D01*
X-17680822Y36210882D01*
X-17582850Y35974357D01*
X-17582849Y35974356D01*
X-17582844Y35974345D01*
X-17494838Y35821915D01*
X-17454844Y35752643D01*
X-17379741Y35654768D01*
X-17354140Y35588549D01*
X-17368404Y35519000D01*
X-17379740Y35501361D01*
X-17446925Y35413804D01*
X-17578037Y35186710D01*
X-17578042Y35186699D01*
X-17678398Y34944419D01*
X-17746272Y34691109D01*
X-17780500Y34431122D01*
X-17780500Y29048878D01*
X-17763385Y28918881D01*
X-17763385Y28918880D01*
X-17746273Y28788892D01*
X-17678400Y28535586D01*
X-17678399Y28535584D01*
X-17678398Y28535581D01*
X-17578043Y28293303D01*
X-17578042Y28293302D01*
X-17578037Y28293291D01*
X-17446927Y28066202D01*
X-17446924Y28066197D01*
X-17377612Y27975869D01*
X-17287283Y27858149D01*
X-17287274Y27858139D01*
X-7701863Y18272727D01*
X-7701846Y18272712D01*
X-7611344Y18203269D01*
X-7611343Y18203268D01*
X-7493806Y18113078D01*
X-7493800Y18113074D01*
X-7266710Y17981964D01*
X-7266706Y17981963D01*
X-7266697Y17981957D01*
X-7024419Y17881602D01*
X-7016851Y17879574D01*
X-6956228Y17842625D01*
X-6925204Y17778766D01*
X-6933631Y17708271D01*
X-6960364Y17668772D01*
X-13564406Y11064729D01*
X-13626718Y11030703D01*
X-13697533Y11035768D01*
X-13754369Y11078315D01*
X-13779180Y11144835D01*
X-13779501Y11153799D01*
X-13779501Y12550536D01*
X-13790114Y12669913D01*
X-13790113Y12669913D01*
X-13790114Y12669918D01*
X-13846091Y12865549D01*
X-13940302Y13045907D01*
X-14068891Y13203609D01*
X-14226593Y13332198D01*
X-14226595Y13332199D01*
X-14226596Y13332200D01*
X-14406949Y13426408D01*
X-14406950Y13426409D01*
X-14406951Y13426409D01*
X-14602582Y13482386D01*
X-14721963Y13493000D01*
X-14721968Y13493000D01*
X-16838028Y13493000D01*
X-16838038Y13492999D01*
X-16957412Y13482387D01*
X-16957415Y13482387D01*
X-16957418Y13482386D01*
X-17153049Y13426409D01*
X-17153052Y13426408D01*
X-17333405Y13332200D01*
X-17421610Y13260278D01*
X-17491109Y13203609D01*
X-17619698Y13045907D01*
X-17660310Y12968161D01*
X-17709576Y12917044D01*
X-17771989Y12900500D01*
X-20039062Y12900500D01*
X-20107183Y12920502D01*
X-20109990Y12922361D01*
X-20317225Y13063651D01*
X-20317228Y13063652D01*
X-20317230Y13063654D01*
X-20317231Y13063655D01*
X-20560350Y13180735D01*
X-20560368Y13180742D01*
X-20818218Y13260278D01*
X-20818226Y13260280D01*
X-20818228Y13260280D01*
X-21085071Y13300500D01*
X-21354929Y13300500D01*
X-21621772Y13260280D01*
X-21621774Y13260280D01*
X-21621783Y13260278D01*
X-21879633Y13180742D01*
X-21879645Y13180737D01*
X-22122777Y13063650D01*
X-22122784Y13063646D01*
X-22345735Y12911640D01*
X-22345740Y12911636D01*
X-22543561Y12728086D01*
X-22711818Y12517099D01*
X-22846742Y12283403D01*
X-22846745Y12283395D01*
X-22945335Y12032194D01*
X-23005383Y11769107D01*
X-23025549Y11500000D01*
X-23005383Y11230894D01*
X-22945335Y10967807D01*
X-22846745Y10716606D01*
X-22846742Y10716598D01*
X-22711818Y10482902D01*
X-22711816Y10482899D01*
X-22711815Y10482898D01*
X-22543561Y10271915D01*
X-22345741Y10088365D01*
X-22345735Y10088361D01*
X-22122784Y9936355D01*
X-22122777Y9936351D01*
X-22122774Y9936349D01*
X-21879641Y9819262D01*
X-21879638Y9819262D01*
X-21879633Y9819259D01*
X-21621783Y9739723D01*
X-21621781Y9739723D01*
X-21621772Y9739720D01*
X-21354929Y9699500D01*
X-21354925Y9699500D01*
X-21085075Y9699500D01*
X-21085071Y9699500D01*
X-20818228Y9739720D01*
X-20818218Y9739723D01*
X-20560368Y9819259D01*
X-20560366Y9819261D01*
X-20560359Y9819262D01*
X-20560354Y9819265D01*
X-20560350Y9819266D01*
X-20317231Y9936346D01*
X-20317231Y9936347D01*
X-20317225Y9936349D01*
X-20110039Y10077607D01*
X-20042489Y10099453D01*
X-20039062Y10099500D01*
X-17730202Y10099500D01*
X-17662081Y10079498D01*
X-17624618Y10038512D01*
X-17623219Y10039434D01*
X-17619704Y10034101D01*
X-17619700Y10034096D01*
X-17619698Y10034093D01*
X-17599143Y10008884D01*
X-17571597Y9943450D01*
X-17580386Y9881042D01*
X-17678398Y9644419D01*
X-17746272Y9391109D01*
X-17780500Y9131122D01*
X-17780500Y8868879D01*
X-17746272Y8608892D01*
X-17746271Y8608886D01*
X-17746270Y8608884D01*
X-17678398Y8355581D01*
X-17578043Y8113303D01*
X-17578042Y8113302D01*
X-17578037Y8113291D01*
X-17446924Y7886196D01*
X-17446922Y7886194D01*
X-17383601Y7803673D01*
X-17358000Y7737454D01*
X-17372264Y7667905D01*
X-17383600Y7650266D01*
X-17426920Y7593811D01*
X-17446255Y7560321D01*
X-17452602Y7550822D01*
X-17452551Y7550788D01*
X-17454847Y7547353D01*
X-17582844Y7325656D01*
X-17582849Y7325645D01*
X-17582850Y7325643D01*
X-17668237Y7119501D01*
X-17680822Y7089118D01*
X-17680823Y7089114D01*
X-17747085Y6841822D01*
X-17780500Y6588009D01*
X-17780500Y6331992D01*
X-17747085Y6078179D01*
X-17747084Y6078173D01*
X-17747083Y6078171D01*
X-17680822Y5830882D01*
X-17582850Y5594357D01*
X-17582849Y5594356D01*
X-17582844Y5594345D01*
X-17454847Y5372647D01*
X-17454842Y5372640D01*
X-17299001Y5169544D01*
X-17298982Y5169523D01*
X-17117978Y4988519D01*
X-17117957Y4988500D01*
X-16914861Y4832659D01*
X-16914854Y4832654D01*
X-16848980Y4794622D01*
X-16693143Y4704650D01*
X-16675502Y4697343D01*
X-16660720Y4690053D01*
X-16646707Y4681962D01*
X-16646704Y4681961D01*
X-16646697Y4681957D01*
X-16404419Y4581602D01*
X-16151116Y4513730D01*
X-16151110Y4513730D01*
X-16151109Y4513729D01*
X-16126100Y4510437D01*
X-15891120Y4479500D01*
X-15891113Y4479500D01*
X-9668887Y4479500D01*
X-9668880Y4479500D01*
X-9408884Y4513730D01*
X-9155581Y4581602D01*
X-8913303Y4681957D01*
X-8686197Y4813076D01*
X-8478149Y4972718D01*
X-8292718Y5158149D01*
X-8133076Y5366197D01*
X-8001957Y5593303D01*
X-7901602Y5835581D01*
X-7833730Y6088884D01*
X-7799500Y6348880D01*
X-7799500Y6611120D01*
X-7833730Y6871116D01*
X-7901602Y7124419D01*
X-8001957Y7366697D01*
X-8001963Y7366706D01*
X-8001964Y7366710D01*
X-8133074Y7593800D01*
X-8133078Y7593806D01*
X-8292711Y7801843D01*
X-8292730Y7801864D01*
X-8478137Y7987271D01*
X-8478158Y7987290D01*
X-8686195Y8146923D01*
X-8686201Y8146927D01*
X-8913291Y8278037D01*
X-8913299Y8278041D01*
X-8913303Y8278043D01*
X-9155581Y8378398D01*
X-9408884Y8446270D01*
X-9408886Y8446271D01*
X-9408892Y8446272D01*
X-9668879Y8480500D01*
X-9668880Y8480500D01*
X-10186176Y8480500D01*
X-10254297Y8500502D01*
X-10300790Y8554158D01*
X-10310894Y8624432D01*
X-10281400Y8689012D01*
X-10275271Y8695595D01*
X-8056622Y10914244D01*
X-1313448Y17657420D01*
X-1251138Y17691444D01*
X-1180323Y17686379D01*
X-1150296Y17670260D01*
X-1142484Y17664584D01*
X-866766Y17513006D01*
X-654101Y17428806D01*
X-574231Y17397183D01*
X-574228Y17397183D01*
X-574225Y17397181D01*
X-574213Y17397178D01*
X-437366Y17362041D01*
X-376360Y17325727D01*
X-344671Y17262195D01*
X-352361Y17191616D01*
X-396988Y17136399D01*
X-437366Y17117959D01*
X-574213Y17082823D01*
X-574231Y17082818D01*
X-866766Y16966994D01*
X-1142487Y16815415D01*
X-1397034Y16630476D01*
X-1626394Y16415091D01*
X-1826950Y16172661D01*
X-1995532Y15907017D01*
X-1995540Y15907003D01*
X-2129500Y15622322D01*
X-2129502Y15622318D01*
X-2226730Y15323083D01*
X-2226732Y15323075D01*
X-2285687Y15014022D01*
X-2285690Y15013998D01*
X-2305444Y14700007D01*
X-2305444Y14699994D01*
X-2285690Y14386003D01*
X-2285687Y14385979D01*
X-2226732Y14076926D01*
X-2226730Y14076918D01*
X-2129502Y13777683D01*
X-2129500Y13777679D01*
X-1995540Y13492999D01*
X-1995532Y13492984D01*
X-1826950Y13227340D01*
X-1626394Y12984910D01*
X-1626391Y12984908D01*
X-1626390Y12984906D01*
X-1570490Y12932413D01*
X-1397034Y12769525D01*
X-1209816Y12633503D01*
X-1142484Y12584584D01*
X-866766Y12433006D01*
X-691595Y12363651D01*
X-635623Y12319978D01*
X-612146Y12252975D01*
X-628622Y12183916D01*
X-679817Y12134727D01*
X-737980Y12120500D01*
X-1358028Y12120500D01*
X-1358038Y12120499D01*
X-1477412Y12109887D01*
X-1477415Y12109887D01*
X-1477418Y12109886D01*
X-1673049Y12053909D01*
X-1673052Y12053908D01*
X-1853405Y11959700D01*
X-2011109Y11831109D01*
X-2139700Y11673405D01*
X-2233908Y11493052D01*
X-2233909Y11493050D01*
X-2233909Y11493049D01*
X-2289886Y11297418D01*
X-2295950Y11229207D01*
X-2300500Y11178035D01*
X-2300500Y8061973D01*
X-2300499Y8061963D01*
X-2293959Y7988390D01*
X-2289886Y7942582D01*
X-2234315Y7748371D01*
X-2233908Y7746949D01*
X-2140558Y7568238D01*
X-2139698Y7566593D01*
X-2011109Y7408891D01*
X-1853407Y7280302D01*
X-1673049Y7186091D01*
X-1477418Y7130114D01*
X-1358037Y7119500D01*
X1758036Y7119501D01*
X1877418Y7130114D01*
X2073049Y7186091D01*
X2253407Y7280302D01*
X2411109Y7408891D01*
X2539698Y7566593D01*
X2633909Y7746951D01*
X2689886Y7942582D01*
X2700500Y8061963D01*
X2700499Y11178036D01*
X2689886Y11297418D01*
X2633909Y11493049D01*
X2539698Y11673407D01*
X2411109Y11831109D01*
X2253407Y11959698D01*
X2253405Y11959699D01*
X2253404Y11959700D01*
X2073051Y12053908D01*
X2073050Y12053909D01*
X2073049Y12053909D01*
X1877418Y12109886D01*
X1758037Y12120500D01*
X1758034Y12120500D01*
X1137980Y12120500D01*
X1069859Y12140502D01*
X1023366Y12194158D01*
X1013262Y12264432D01*
X1042756Y12329012D01*
X1091594Y12363651D01*
X1266766Y12433006D01*
X1542484Y12584584D01*
X1797030Y12769522D01*
X2026390Y12984906D01*
X2226947Y13227337D01*
X2395537Y13492993D01*
X2529503Y13777685D01*
X2626731Y14076921D01*
X2685688Y14385985D01*
X2695346Y14539501D01*
X2705444Y14699994D01*
X2705444Y14700007D01*
X2685689Y15013998D01*
X2685688Y15014015D01*
X2626731Y15323079D01*
X2529503Y15622315D01*
X2395537Y15907007D01*
X2395531Y15907017D01*
X2226949Y16172661D01*
X2026393Y16415091D01*
X1797033Y16630476D01*
X1542486Y16815415D01*
X1474590Y16852741D01*
X1266766Y16966994D01*
X1182564Y17000332D01*
X974230Y17082818D01*
X974227Y17082819D01*
X914796Y17098078D01*
X837363Y17117960D01*
X776359Y17154273D01*
X744670Y17217805D01*
X752360Y17288384D01*
X796987Y17343601D01*
X837361Y17362041D01*
X974225Y17397181D01*
X1266766Y17513006D01*
X1542484Y17664584D01*
X1797030Y17849522D01*
X2026390Y18064906D01*
X2226947Y18307337D01*
X2395537Y18572993D01*
X2529503Y18857685D01*
X2626731Y19156921D01*
X2685688Y19465985D01*
X2705444Y19780000D01*
X2691043Y20008892D01*
X2685689Y20093998D01*
X2685688Y20094015D01*
X2626731Y20403079D01*
X2529503Y20702315D01*
X2395537Y20987007D01*
X2395531Y20987017D01*
X2226949Y21252661D01*
X2026393Y21495091D01*
X1797033Y21710476D01*
X1542486Y21895415D01*
X1500225Y21918648D01*
X1266766Y22046994D01*
X1182564Y22080332D01*
X974230Y22162818D01*
X974227Y22162819D01*
X771057Y22214984D01*
X669473Y22241066D01*
X669467Y22241067D01*
X669459Y22241068D01*
X357332Y22280499D01*
X357321Y22280500D01*
X357318Y22280500D01*
X42682Y22280500D01*
X42679Y22280500D01*
X42667Y22280499D01*
X-269460Y22241068D01*
X-269473Y22241066D01*
X-574228Y22162819D01*
X-574231Y22162818D01*
X-866766Y22046994D01*
X-1142487Y21895415D01*
X-1267532Y21804564D01*
X-1334400Y21780705D01*
X-1341593Y21780500D01*
X-5499175Y21780500D01*
X-5567296Y21800502D01*
X-5588270Y21817405D01*
X-13574865Y29804000D01*
X-9686083Y29804000D01*
X-8711686Y29804000D01*
X-8720080Y29795606D01*
X-8772741Y29704394D01*
X-8800000Y29602661D01*
X-8800000Y29497339D01*
X-8772741Y29395606D01*
X-8720080Y29304394D01*
X-8711686Y29296000D01*
X-9686082Y29296000D01*
X-9633814Y29100932D01*
X-9633812Y29100927D01*
X-9537088Y28893502D01*
X-9405816Y28706026D01*
X-9405811Y28706020D01*
X-9243981Y28544190D01*
X-9243975Y28544185D01*
X-9056499Y28412913D01*
X-8849074Y28316189D01*
X-8849069Y28316187D01*
X-8654000Y28263919D01*
X-8654000Y29238314D01*
X-8645606Y29229920D01*
X-8554394Y29177259D01*
X-8452661Y29150000D01*
X-8347339Y29150000D01*
X-8245606Y29177259D01*
X-8154394Y29229920D01*
X-8146000Y29238314D01*
X-8146000Y28263919D01*
X-7950932Y28316187D01*
X-7950927Y28316189D01*
X-7743502Y28412913D01*
X-7556026Y28544185D01*
X-7556020Y28544190D01*
X-7394190Y28706020D01*
X-7394185Y28706026D01*
X-7262913Y28893502D01*
X-7166189Y29100927D01*
X-7166187Y29100932D01*
X-7113918Y29296000D01*
X-8088314Y29296000D01*
X-8079920Y29304394D01*
X-8027259Y29395606D01*
X-8000000Y29497339D01*
X-8000000Y29602661D01*
X-8027259Y29704394D01*
X-8079920Y29795606D01*
X-8088314Y29804000D01*
X-7113918Y29804000D01*
X-7166187Y29999069D01*
X-7166189Y29999074D01*
X-7262913Y30206499D01*
X-7394185Y30393975D01*
X-7394190Y30393981D01*
X-7556020Y30555811D01*
X-7556026Y30555816D01*
X-7743502Y30687088D01*
X-7950927Y30783812D01*
X-7950929Y30783813D01*
X-8146000Y30836083D01*
X-8146000Y29861686D01*
X-8154394Y29870080D01*
X-8245606Y29922741D01*
X-8347339Y29950000D01*
X-8452661Y29950000D01*
X-8554394Y29922741D01*
X-8645606Y29870080D01*
X-8654000Y29861686D01*
X-8654000Y30836083D01*
X-8654001Y30836083D01*
X-8849072Y30783813D01*
X-8849074Y30783812D01*
X-9056499Y30687088D01*
X-9243975Y30555816D01*
X-9243981Y30555811D01*
X-9405811Y30393981D01*
X-9405816Y30393975D01*
X-9537088Y30206499D01*
X-9633812Y29999074D01*
X-9633814Y29999069D01*
X-9686083Y29804000D01*
X-13574865Y29804000D01*
X-13742595Y29971730D01*
X-13776621Y30034042D01*
X-13779500Y30060825D01*
X-13779500Y34431113D01*
X-13779500Y34431120D01*
X-13813730Y34691116D01*
X-13881602Y34944419D01*
X-13981957Y35186697D01*
X-13981963Y35186706D01*
X-13981964Y35186710D01*
X-14113074Y35413800D01*
X-14113079Y35413807D01*
X-14180260Y35501359D01*
X-14205861Y35567579D01*
X-14191596Y35637128D01*
X-14180264Y35654763D01*
X-14105156Y35752643D01*
X-13977150Y35974357D01*
X-13879178Y36210882D01*
X-13812917Y36458171D01*
X-13779500Y36711994D01*
X-13779500Y36968006D01*
X-13790295Y37050000D01*
X-10205549Y37050000D01*
X-10185383Y36780894D01*
X-10125335Y36517807D01*
X-10026745Y36266606D01*
X-10026742Y36266598D01*
X-9891818Y36032902D01*
X-9891816Y36032899D01*
X-9891815Y36032898D01*
X-9723561Y35821915D01*
X-9525741Y35638365D01*
X-9525735Y35638361D01*
X-9302784Y35486355D01*
X-9302777Y35486351D01*
X-9302774Y35486349D01*
X-9059641Y35369262D01*
X-9059638Y35369262D01*
X-9059633Y35369259D01*
X-8801783Y35289723D01*
X-8801781Y35289723D01*
X-8801772Y35289720D01*
X-8534929Y35249500D01*
X-8534925Y35249500D01*
X-8265075Y35249500D01*
X-8265071Y35249500D01*
X-7998228Y35289720D01*
X-7998218Y35289723D01*
X-7740368Y35369259D01*
X-7740366Y35369261D01*
X-7740359Y35369262D01*
X-7740354Y35369265D01*
X-7740350Y35369266D01*
X-7497231Y35486346D01*
X-7497231Y35486347D01*
X-7497225Y35486349D01*
X-7274259Y35638365D01*
X-7076439Y35821915D01*
X-6908185Y36032898D01*
X-6773257Y36266602D01*
X-6674666Y36517805D01*
X-6614617Y36780897D01*
X-6594451Y37050000D01*
X-6614617Y37319103D01*
X-6674666Y37582195D01*
X-6773257Y37833398D01*
X-6773258Y37833399D01*
X-6773259Y37833403D01*
X-6908183Y38067099D01*
X-6933985Y38099453D01*
X-7076439Y38278085D01*
X-7274259Y38461635D01*
X-7305452Y38482902D01*
X-7497223Y38613650D01*
X-7497231Y38613655D01*
X-7740350Y38730735D01*
X-7740368Y38730742D01*
X-7998218Y38810278D01*
X-7998226Y38810280D01*
X-7998228Y38810280D01*
X-8265071Y38850500D01*
X-8534929Y38850500D01*
X-8801772Y38810280D01*
X-8801774Y38810280D01*
X-8801783Y38810278D01*
X-9059633Y38730742D01*
X-9059645Y38730737D01*
X-9302777Y38613650D01*
X-9302784Y38613646D01*
X-9525735Y38461640D01*
X-9525740Y38461636D01*
X-9723561Y38278086D01*
X-9891818Y38067099D01*
X-10026742Y37833403D01*
X-10026745Y37833395D01*
X-10125335Y37582194D01*
X-10185383Y37319107D01*
X-10205549Y37050000D01*
X-13790295Y37050000D01*
X-13812917Y37221829D01*
X-13879178Y37469118D01*
X-13977150Y37705643D01*
X-13977157Y37705656D01*
X-13978979Y37709352D01*
X-13977213Y37710224D01*
X-13992098Y37771491D01*
X-13968902Y37838591D01*
X-13963891Y37845164D01*
X-13940302Y37874093D01*
X-13846091Y38054451D01*
X-13790114Y38250082D01*
X-13779500Y38369463D01*
X-13779501Y40390536D01*
X-13790114Y40509918D01*
X-13846091Y40705549D01*
X-13940302Y40885907D01*
X-14068891Y41043609D01*
X-14226593Y41172198D01*
X-14226595Y41172199D01*
X-14226596Y41172200D01*
X-14239059Y41178710D01*
X-750500Y41178710D01*
X-718840Y40938218D01*
X-656056Y40703905D01*
X-656055Y40703903D01*
X-656054Y40703900D01*
X-563224Y40479788D01*
X-563223Y40479787D01*
X-563218Y40479776D01*
X-441939Y40269715D01*
X-441937Y40269712D01*
X-441936Y40269711D01*
X-294265Y40077262D01*
X-294261Y40077258D01*
X-294256Y40077252D01*
X-122749Y39905745D01*
X-122744Y39905741D01*
X-122738Y39905735D01*
X55325Y39769103D01*
X69714Y39758062D01*
X279775Y39636783D01*
X279779Y39636782D01*
X279788Y39636776D01*
X503900Y39543946D01*
X738211Y39481162D01*
X738215Y39481162D01*
X738217Y39481161D01*
X800202Y39473001D01*
X978712Y39449500D01*
X978719Y39449500D01*
X1221281Y39449500D01*
X1221288Y39449500D01*
X1438637Y39478115D01*
X1461782Y39481161D01*
X1461782Y39481162D01*
X1461789Y39481162D01*
X1696100Y39543946D01*
X1920212Y39636776D01*
X2130289Y39758064D01*
X2322738Y39905735D01*
X2494265Y40077262D01*
X2641936Y40269711D01*
X2763224Y40479788D01*
X2856054Y40703900D01*
X2918838Y40938211D01*
X2950500Y41178712D01*
X2950500Y41421288D01*
X2918838Y41661789D01*
X2856054Y41896100D01*
X2763224Y42120212D01*
X2763218Y42120221D01*
X2763217Y42120225D01*
X2641938Y42330286D01*
X2641936Y42330289D01*
X2494265Y42522738D01*
X2494259Y42522744D01*
X2494255Y42522749D01*
X2322748Y42694256D01*
X2322742Y42694261D01*
X2322738Y42694265D01*
X2130289Y42841936D01*
X2130288Y42841937D01*
X2130285Y42841939D01*
X1920224Y42963218D01*
X1920216Y42963222D01*
X1920212Y42963224D01*
X1696100Y43056054D01*
X1696097Y43056055D01*
X1696095Y43056056D01*
X1461782Y43118840D01*
X1221290Y43150500D01*
X1221288Y43150500D01*
X978712Y43150500D01*
X978709Y43150500D01*
X738217Y43118840D01*
X503904Y43056056D01*
X503900Y43056054D01*
X279786Y42963223D01*
X279775Y42963218D01*
X69714Y42841939D01*
X-122738Y42694265D01*
X-122749Y42694256D01*
X-294256Y42522749D01*
X-294265Y42522738D01*
X-441939Y42330286D01*
X-563218Y42120225D01*
X-563223Y42120214D01*
X-656054Y41896100D01*
X-656056Y41896096D01*
X-718840Y41661783D01*
X-750500Y41421291D01*
X-750500Y41178710D01*
X-14239059Y41178710D01*
X-14406949Y41266408D01*
X-14406950Y41266409D01*
X-14406951Y41266409D01*
X-14602582Y41322386D01*
X-14721963Y41333000D01*
X-14721968Y41333000D01*
X-16838028Y41333000D01*
X-16838038Y41332999D01*
X-16957412Y41322387D01*
X-16957415Y41322387D01*
X-16957418Y41322386D01*
X-17153049Y41266409D01*
X-17153052Y41266408D01*
X-17333405Y41172200D01*
X-17491109Y41043609D01*
X-17619700Y40885905D01*
X-17713910Y40705550D01*
X-17724985Y40666839D01*
X-17762954Y40606849D01*
X-17827329Y40576910D01*
X-17846124Y40575500D01*
X-20193825Y40575500D01*
X-20261946Y40595502D01*
X-20292333Y40622937D01*
X-20296437Y40628083D01*
X-20338206Y40666839D01*
X-20494259Y40811635D01*
X-20507264Y40820502D01*
X-20717223Y40963650D01*
X-20717231Y40963655D01*
X-20960350Y41080735D01*
X-20960368Y41080742D01*
X-21218218Y41160278D01*
X-21218226Y41160280D01*
X-21218228Y41160280D01*
X-21485071Y41200500D01*
X-21754929Y41200500D01*
X-22021772Y41160280D01*
X-22021774Y41160280D01*
X-22021783Y41160278D01*
X-22279633Y41080742D01*
X-22279645Y41080737D01*
X-22522777Y40963650D01*
X-22522784Y40963646D01*
X-22745735Y40811640D01*
X-22745740Y40811636D01*
X-22943561Y40628086D01*
X-23111818Y40417099D01*
X-23246742Y40183403D01*
X-23246745Y40183395D01*
X-23345335Y39932194D01*
X-23405383Y39669107D01*
X-23425549Y39400000D01*
X-29974451Y39400000D01*
X-29994617Y39669103D01*
X-30054666Y39932195D01*
X-30153257Y40183398D01*
X-30153258Y40183399D01*
X-30153259Y40183403D01*
X-30288183Y40417099D01*
X-30367931Y40517099D01*
X-30456439Y40628085D01*
X-30654259Y40811635D01*
X-30667264Y40820502D01*
X-30877223Y40963650D01*
X-30877231Y40963655D01*
X-31120350Y41080735D01*
X-31120368Y41080742D01*
X-31378218Y41160278D01*
X-31378226Y41160280D01*
X-31378228Y41160280D01*
X-31645071Y41200500D01*
X-31914929Y41200500D01*
X-32181772Y41160280D01*
X-32181774Y41160280D01*
X-32181783Y41160278D01*
X-32439633Y41080742D01*
X-32439645Y41080737D01*
X-32682777Y40963650D01*
X-32682784Y40963646D01*
X-32905735Y40811640D01*
X-32905740Y40811636D01*
X-33103561Y40628086D01*
X-33271818Y40417099D01*
X-33406742Y40183403D01*
X-33406745Y40183395D01*
X-33505335Y39932194D01*
X-33565383Y39669107D01*
X-33585549Y39400000D01*
X-33565383Y39130894D01*
X-33505335Y38867807D01*
X-33406745Y38616606D01*
X-33406742Y38616598D01*
X-33271818Y38382902D01*
X-33271817Y38382901D01*
X-33271815Y38382898D01*
X-33207990Y38302864D01*
X-33181155Y38237136D01*
X-33180500Y38224305D01*
X-33180500Y9441627D01*
X-33199067Y9375793D01*
X-33275148Y9251639D01*
X-33275156Y9251625D01*
X-33374573Y9011611D01*
X-33435221Y8758994D01*
X-33451376Y8553726D01*
X-33476662Y8487384D01*
X-33487893Y8474517D01*
X-35396617Y6565793D01*
X-35396619Y6565790D01*
X-35505377Y6416100D01*
X-35589378Y6251238D01*
X-35589381Y6251232D01*
X-35646554Y6075270D01*
X-35646555Y6075265D01*
X-35646555Y6075264D01*
X-35675500Y5892514D01*
X-35675500Y5707486D01*
X-36206376Y5707486D01*
X-36161602Y5815581D01*
X-36093730Y6068884D01*
X-36059500Y6328880D01*
X-36059500Y6591120D01*
X-36093730Y6851116D01*
X-36161602Y7104419D01*
X-36261957Y7346697D01*
X-36261963Y7346706D01*
X-36261964Y7346710D01*
X-36393074Y7573800D01*
X-36393078Y7573806D01*
X-36552711Y7781843D01*
X-36552730Y7781864D01*
X-36738137Y7967271D01*
X-36738158Y7967290D01*
X-36946195Y8126923D01*
X-36946201Y8126927D01*
X-37173291Y8258037D01*
X-37173299Y8258041D01*
X-37173303Y8258043D01*
X-37415581Y8358398D01*
X-37668884Y8426270D01*
X-37668886Y8426271D01*
X-37668892Y8426272D01*
X-37928879Y8460500D01*
X-37928880Y8460500D01*
X-44155959Y8460500D01*
X-44224080Y8480502D01*
X-44270573Y8534158D01*
X-44280677Y8604432D01*
X-44278688Y8614128D01*
X-44278720Y8614134D01*
X-44277920Y8618163D01*
X-44277917Y8618171D01*
X-44244500Y8871994D01*
X-44244500Y9128006D01*
X-44277917Y9381829D01*
X-44344178Y9629118D01*
X-44442150Y9865643D01*
X-44442157Y9865656D01*
X-44443979Y9869352D01*
X-44442213Y9870224D01*
X-44457098Y9931491D01*
X-44433902Y9998591D01*
X-44428891Y10005164D01*
X-44405302Y10034093D01*
X-44311091Y10214451D01*
X-44255114Y10410082D01*
X-44244500Y10529463D01*
X-44244501Y12550536D01*
X-44255114Y12669913D01*
X-44255113Y12669913D01*
X-44255114Y12669918D01*
X-44311091Y12865549D01*
X-44405302Y13045907D01*
X-44533891Y13203609D01*
X-44691593Y13332198D01*
X-44691595Y13332199D01*
X-44691596Y13332200D01*
X-44871949Y13426408D01*
X-44871950Y13426409D01*
X-44871951Y13426409D01*
X-45067582Y13482386D01*
X-45186963Y13493000D01*
X-45186968Y13493000D01*
X-47303028Y13493000D01*
X-47303038Y13492999D01*
X-47422412Y13482387D01*
X-47422415Y13482387D01*
X-47422418Y13482386D01*
X-47618049Y13426409D01*
X-47618052Y13426408D01*
X-47798405Y13332200D01*
X-47886610Y13260278D01*
X-47956109Y13203609D01*
X-48084698Y13045907D01*
X-48125310Y12968161D01*
X-48174576Y12917044D01*
X-48236989Y12900500D01*
X-50139062Y12900500D01*
X-50207183Y12920502D01*
X-50209990Y12922361D01*
X-50417225Y13063651D01*
X-50417228Y13063652D01*
X-50417230Y13063654D01*
X-50417231Y13063655D01*
X-50660350Y13180735D01*
X-50660368Y13180742D01*
X-50918218Y13260278D01*
X-50918226Y13260280D01*
X-50918228Y13260280D01*
X-51185071Y13300500D01*
X-51454929Y13300500D01*
X-51721772Y13260280D01*
X-51721774Y13260280D01*
X-51721783Y13260278D01*
X-51979633Y13180742D01*
X-51979645Y13180737D01*
X-52222777Y13063650D01*
X-52222784Y13063646D01*
X-52445735Y12911640D01*
X-52445740Y12911636D01*
X-52643561Y12728086D01*
X-52811818Y12517099D01*
X-52946742Y12283403D01*
X-52946745Y12283395D01*
X-53045335Y12032194D01*
X-53105383Y11769107D01*
X-53125549Y11500000D01*
X-53105383Y11230894D01*
X-53045335Y10967807D01*
X-52946745Y10716606D01*
X-52946742Y10716598D01*
X-52811818Y10482902D01*
X-52811816Y10482899D01*
X-52811815Y10482898D01*
X-52643561Y10271915D01*
X-52445741Y10088365D01*
X-52445735Y10088361D01*
X-52222784Y9936355D01*
X-52222777Y9936351D01*
X-52222774Y9936349D01*
X-51979641Y9819262D01*
X-51979638Y9819262D01*
X-51979633Y9819259D01*
X-51721783Y9739723D01*
X-51721781Y9739723D01*
X-51721772Y9739720D01*
X-51454929Y9699500D01*
X-51454925Y9699500D01*
X-51185075Y9699500D01*
X-51185071Y9699500D01*
X-50918228Y9739720D01*
X-50918218Y9739723D01*
X-50660368Y9819259D01*
X-50660366Y9819261D01*
X-50660359Y9819262D01*
X-50660354Y9819265D01*
X-50660350Y9819266D01*
X-50417231Y9936346D01*
X-50417231Y9936347D01*
X-50417225Y9936349D01*
X-50210039Y10077607D01*
X-50142489Y10099453D01*
X-50139062Y10099500D01*
X-48195202Y10099500D01*
X-48127081Y10079498D01*
X-48089618Y10038512D01*
X-48088219Y10039434D01*
X-48084700Y10034096D01*
X-48061110Y10005164D01*
X-48033563Y9939729D01*
X-48045767Y9869789D01*
X-48046273Y9868842D01*
X-48047851Y9865642D01*
X-48145822Y9629118D01*
X-48145823Y9629114D01*
X-48212085Y9381822D01*
X-48245500Y9128009D01*
X-48245500Y8871992D01*
X-48212085Y8618179D01*
X-48212084Y8618173D01*
X-48212083Y8618171D01*
X-48145822Y8370882D01*
X-48047850Y8134357D01*
X-48047849Y8134356D01*
X-48047844Y8134345D01*
X-47919847Y7912648D01*
X-47919844Y7912643D01*
X-47844740Y7814767D01*
X-47819140Y7748549D01*
X-47833404Y7679000D01*
X-47844740Y7661361D01*
X-47911925Y7573804D01*
X-48043037Y7346710D01*
X-48043042Y7346699D01*
X-48043043Y7346697D01*
X-48070545Y7280302D01*
X-48143398Y7104419D01*
X-48211272Y6851109D01*
X-48245500Y6591122D01*
X-48245500Y6328879D01*
X-48211272Y6068891D01*
X-48158380Y5871494D01*
X-48160070Y5800517D01*
X-48199864Y5741722D01*
X-48265129Y5713774D01*
X-48335143Y5725548D01*
X-48369182Y5749788D01*
X-50027348Y7407954D01*
X-50027368Y7407976D01*
X-50187630Y7568238D01*
X-50187633Y7568240D01*
X-50187635Y7568242D01*
X-50365978Y7697815D01*
X-50562394Y7797895D01*
X-50562397Y7797896D01*
X-50562399Y7797897D01*
X-50772045Y7866014D01*
X-50772047Y7866015D01*
X-50772049Y7866015D01*
X-50989778Y7900501D01*
X-51210222Y7900501D01*
X-51215415Y7900501D01*
X-51215439Y7900500D01*
X-65266176Y7900500D01*
X-65334297Y7920502D01*
X-65380790Y7974158D01*
X-65390894Y8044432D01*
X-65361400Y8109012D01*
X-65355271Y8115595D01*
X-56536866Y16934000D01*
X-39286083Y16934000D01*
X-38311686Y16934000D01*
X-38320080Y16925606D01*
X-38372741Y16834394D01*
X-38400000Y16732661D01*
X-38400000Y16627339D01*
X-38372741Y16525606D01*
X-38320080Y16434394D01*
X-38311686Y16426000D01*
X-39286082Y16426000D01*
X-39233814Y16230932D01*
X-39233812Y16230927D01*
X-39137088Y16023502D01*
X-39005816Y15836026D01*
X-39005811Y15836020D01*
X-38843981Y15674190D01*
X-38843975Y15674185D01*
X-38656499Y15542913D01*
X-38449074Y15446189D01*
X-38449069Y15446187D01*
X-38254000Y15393919D01*
X-38254000Y16368314D01*
X-38245606Y16359920D01*
X-38154394Y16307259D01*
X-38052661Y16280000D01*
X-37947339Y16280000D01*
X-37845606Y16307259D01*
X-37754394Y16359920D01*
X-37746000Y16368314D01*
X-37746000Y15393919D01*
X-37550932Y15446187D01*
X-37550927Y15446189D01*
X-37343502Y15542913D01*
X-37156026Y15674185D01*
X-37156020Y15674190D01*
X-36994190Y15836020D01*
X-36994185Y15836026D01*
X-36862913Y16023502D01*
X-36766189Y16230927D01*
X-36766187Y16230932D01*
X-36713918Y16426000D01*
X-37688314Y16426000D01*
X-37679920Y16434394D01*
X-37627259Y16525606D01*
X-37600000Y16627339D01*
X-37600000Y16732661D01*
X-37627259Y16834394D01*
X-37679920Y16925606D01*
X-37688314Y16934000D01*
X-36713918Y16934000D01*
X-36766187Y17129069D01*
X-36766189Y17129074D01*
X-36862913Y17336499D01*
X-36994185Y17523975D01*
X-36994190Y17523981D01*
X-37156020Y17685811D01*
X-37156026Y17685816D01*
X-37343502Y17817088D01*
X-37550927Y17913812D01*
X-37550929Y17913813D01*
X-37746000Y17966083D01*
X-37746000Y16991686D01*
X-37754394Y17000080D01*
X-37845606Y17052741D01*
X-37947339Y17080000D01*
X-38052661Y17080000D01*
X-38154394Y17052741D01*
X-38245606Y17000080D01*
X-38254000Y16991686D01*
X-38254000Y17966083D01*
X-38254001Y17966083D01*
X-38449072Y17913813D01*
X-38449074Y17913812D01*
X-38656499Y17817088D01*
X-38843975Y17685816D01*
X-38843981Y17685811D01*
X-39005811Y17523981D01*
X-39005816Y17523975D01*
X-39137088Y17336499D01*
X-39233812Y17129074D01*
X-39233814Y17129069D01*
X-39286083Y16934000D01*
X-56536866Y16934000D01*
X-55108271Y18362595D01*
X-55045959Y18396621D01*
X-55019176Y18399500D01*
X-39768887Y18399500D01*
X-39768880Y18399500D01*
X-39508884Y18433730D01*
X-39255581Y18501602D01*
X-39013303Y18601957D01*
X-38786197Y18733076D01*
X-38578149Y18892718D01*
X-38392718Y19078149D01*
X-38233076Y19286197D01*
X-38101957Y19513303D01*
X-38001602Y19755581D01*
X-37933730Y20008884D01*
X-37899500Y20268880D01*
X-37899500Y20531120D01*
X-37933730Y20791116D01*
X-38001602Y21044419D01*
X-38101957Y21286697D01*
X-38101963Y21286706D01*
X-38101964Y21286710D01*
X-38233074Y21513800D01*
X-38233078Y21513806D01*
X-38392711Y21721843D01*
X-38392730Y21721864D01*
X-38578137Y21907271D01*
X-38578158Y21907290D01*
X-38786195Y22066923D01*
X-38786201Y22066927D01*
X-39013291Y22198037D01*
X-39013299Y22198041D01*
X-39013303Y22198043D01*
X-39255581Y22298398D01*
X-39508884Y22366270D01*
X-39508886Y22366271D01*
X-39508892Y22366272D01*
X-39768879Y22400500D01*
X-39768880Y22400500D01*
X-56031120Y22400500D01*
X-56031123Y22400500D01*
X-56178233Y22381132D01*
X-56291109Y22366273D01*
X-56505225Y22308901D01*
X-56544419Y22298398D01*
X-56682825Y22241068D01*
X-56786699Y22198042D01*
X-56786710Y22198037D01*
X-57013809Y22066922D01*
X-57104132Y21997614D01*
X-57104131Y21997613D01*
X-57221853Y21907282D01*
X-57221867Y21907269D01*
X-68091729Y11037405D01*
X-68154041Y11003379D01*
X-68180824Y11000500D01*
X-75248500Y11000500D01*
X-75316621Y11020502D01*
X-75363114Y11074158D01*
X-75374500Y11126500D01*
X-75374501Y12550528D01*
X-75374501Y12550536D01*
X-75385114Y12669913D01*
X-75385113Y12669913D01*
X-75385114Y12669918D01*
X-75441091Y12865549D01*
X-75535302Y13045907D01*
X-75663891Y13203609D01*
X-75821593Y13332198D01*
X-75821595Y13332199D01*
X-75821596Y13332200D01*
X-76001949Y13426408D01*
X-76001950Y13426409D01*
X-76001951Y13426409D01*
X-76197582Y13482386D01*
X-76316963Y13493000D01*
X-76316968Y13493000D01*
X-78433028Y13493000D01*
X-78433038Y13492999D01*
X-78552412Y13482387D01*
X-78552415Y13482387D01*
X-78552418Y13482386D01*
X-78748049Y13426409D01*
X-78748052Y13426408D01*
X-78928405Y13332200D01*
X-79016610Y13260278D01*
X-79086109Y13203609D01*
X-79214698Y13045907D01*
X-79255310Y12968161D01*
X-79304576Y12917044D01*
X-79366989Y12900500D01*
X-80639062Y12900500D01*
X-80707183Y12920502D01*
X-80709990Y12922361D01*
X-80917225Y13063651D01*
X-80917228Y13063652D01*
X-80917230Y13063654D01*
X-80917231Y13063655D01*
X-81160350Y13180735D01*
X-81160368Y13180742D01*
X-81418218Y13260278D01*
X-81418226Y13260280D01*
X-81418228Y13260280D01*
X-81685071Y13300500D01*
X-81954929Y13300500D01*
X-82221772Y13260280D01*
X-82221774Y13260280D01*
X-82221783Y13260278D01*
X-82479633Y13180742D01*
X-82479645Y13180737D01*
X-82722777Y13063650D01*
X-82722784Y13063646D01*
X-82945735Y12911640D01*
X-82945740Y12911636D01*
X-83143561Y12728086D01*
X-83311818Y12517099D01*
X-83446742Y12283403D01*
X-83446745Y12283395D01*
X-83545335Y12032194D01*
X-83605383Y11769107D01*
X-83625549Y11500000D01*
X-83605383Y11230894D01*
X-83545335Y10967807D01*
X-83446745Y10716606D01*
X-83446742Y10716598D01*
X-83311818Y10482902D01*
X-83311816Y10482899D01*
X-83311815Y10482898D01*
X-83143561Y10271915D01*
X-82945741Y10088365D01*
X-82945735Y10088361D01*
X-82722784Y9936355D01*
X-82722777Y9936351D01*
X-82722774Y9936349D01*
X-82479641Y9819262D01*
X-82479638Y9819262D01*
X-82479633Y9819259D01*
X-82221783Y9739723D01*
X-82221781Y9739723D01*
X-82221772Y9739720D01*
X-81954929Y9699500D01*
X-81954925Y9699500D01*
X-81685075Y9699500D01*
X-81685071Y9699500D01*
X-81418228Y9739720D01*
X-81418218Y9739723D01*
X-81160368Y9819259D01*
X-81160366Y9819261D01*
X-81160359Y9819262D01*
X-81160354Y9819265D01*
X-81160350Y9819266D01*
X-80917231Y9936346D01*
X-80917231Y9936347D01*
X-80917225Y9936349D01*
X-80710039Y10077607D01*
X-80642489Y10099453D01*
X-80639062Y10099500D01*
X-79325202Y10099500D01*
X-79257081Y10079498D01*
X-79219618Y10038512D01*
X-79218219Y10039434D01*
X-79214704Y10034101D01*
X-79214700Y10034096D01*
X-79214698Y10034093D01*
X-79194143Y10008884D01*
X-79166597Y9943450D01*
X-79175386Y9881042D01*
X-79273398Y9644419D01*
X-79341272Y9391109D01*
X-79375500Y9131122D01*
X-79375500Y8868879D01*
X-79341272Y8608892D01*
X-79341271Y8608886D01*
X-79341270Y8608884D01*
X-79273398Y8355581D01*
X-79173043Y8113303D01*
X-79173042Y8113302D01*
X-79173037Y8113291D01*
X-79041927Y7886201D01*
X-79041922Y7886194D01*
X-78980927Y7806704D01*
X-78955326Y7740484D01*
X-78969591Y7670935D01*
X-78980927Y7653296D01*
X-79041922Y7573807D01*
X-79041927Y7573800D01*
X-79173037Y7346710D01*
X-79173042Y7346699D01*
X-79173043Y7346697D01*
X-79200545Y7280302D01*
X-79273398Y7104419D01*
X-79341272Y6851109D01*
X-79375500Y6591122D01*
X-79375500Y6328879D01*
X-79341272Y6068892D01*
X-79341271Y6068886D01*
X-79341270Y6068884D01*
X-79273398Y5815581D01*
X-79173043Y5573303D01*
X-79173042Y5573302D01*
X-79173037Y5573291D01*
X-79041927Y5346202D01*
X-79041924Y5346197D01*
X-79008934Y5303203D01*
X-78983333Y5236985D01*
X-78997597Y5167436D01*
X-79047198Y5116639D01*
X-79108896Y5100500D01*
X-85089779Y5100500D01*
X-85310222Y5100500D01*
X-85527951Y5066015D01*
X-85527954Y5066015D01*
X-85527955Y5066014D01*
X-85737602Y4997897D01*
X-85737608Y4997894D01*
X-85934024Y4897814D01*
X-86049441Y4813959D01*
X-86116308Y4790101D01*
X-86185460Y4806182D01*
X-86234940Y4857096D01*
X-86249501Y4915896D01*
X-86249501Y6383028D01*
X-86249501Y6383036D01*
X-86260114Y6502418D01*
X-86316091Y6698049D01*
X-86410302Y6878407D01*
X-86538891Y7036109D01*
X-86696593Y7164698D01*
X-86696595Y7164699D01*
X-86696596Y7164700D01*
X-86876949Y7258908D01*
X-86876950Y7258909D01*
X-86876951Y7258909D01*
X-87072582Y7314886D01*
X-87191963Y7325500D01*
X-87191968Y7325500D01*
X-89008028Y7325500D01*
X-89008038Y7325499D01*
X-89127412Y7314887D01*
X-89127415Y7314887D01*
X-89127418Y7314886D01*
X-89323049Y7258909D01*
X-89323052Y7258908D01*
X-89503405Y7164700D01*
X-89661109Y7036109D01*
X-89789700Y6878405D01*
X-89883908Y6698052D01*
X-89883909Y6698050D01*
X-89883909Y6698049D01*
X-89939886Y6502418D01*
X-89939886Y6502412D01*
X-89950500Y6383035D01*
X-89950500Y4566973D01*
X-89950499Y4566963D01*
X-89941786Y4468946D01*
X-89939886Y4447582D01*
X-89883909Y4251951D01*
X-89883908Y4251949D01*
X-89829804Y4148371D01*
X-89789698Y4071593D01*
X-89722298Y3988934D01*
X-89694752Y3923499D01*
X-89706955Y3853559D01*
X-89709362Y3848924D01*
X-89787574Y3705691D01*
X-89851494Y3534313D01*
X-89894041Y3477478D01*
X-89960562Y3452667D01*
X-90029936Y3467759D01*
X-90058645Y3489251D01*
X-90342595Y3773201D01*
X-90376621Y3835513D01*
X-90379500Y3862296D01*
X-90379500Y16734000D01*
X-70386083Y16734000D01*
X-69411686Y16734000D01*
X-69420080Y16725606D01*
X-69472741Y16634394D01*
X-69500000Y16532661D01*
X-69500000Y16427339D01*
X-69472741Y16325606D01*
X-69420080Y16234394D01*
X-69411686Y16226000D01*
X-70386082Y16226000D01*
X-70333814Y16030932D01*
X-70333812Y16030927D01*
X-70237088Y15823502D01*
X-70105816Y15636026D01*
X-70105811Y15636020D01*
X-69943981Y15474190D01*
X-69943975Y15474185D01*
X-69756499Y15342913D01*
X-69549074Y15246189D01*
X-69549069Y15246187D01*
X-69354000Y15193919D01*
X-69354000Y16168314D01*
X-69345606Y16159920D01*
X-69254394Y16107259D01*
X-69152661Y16080000D01*
X-69047339Y16080000D01*
X-68945606Y16107259D01*
X-68854394Y16159920D01*
X-68846000Y16168314D01*
X-68846000Y15193919D01*
X-68650932Y15246187D01*
X-68650927Y15246189D01*
X-68443502Y15342913D01*
X-68256026Y15474185D01*
X-68256020Y15474190D01*
X-68094190Y15636020D01*
X-68094185Y15636026D01*
X-67962913Y15823502D01*
X-67866189Y16030927D01*
X-67866187Y16030932D01*
X-67813918Y16226000D01*
X-68788314Y16226000D01*
X-68779920Y16234394D01*
X-68727259Y16325606D01*
X-68700000Y16427339D01*
X-68700000Y16532661D01*
X-68727259Y16634394D01*
X-68779920Y16725606D01*
X-68788314Y16734000D01*
X-67813918Y16734000D01*
X-67866187Y16929069D01*
X-67866189Y16929074D01*
X-67962913Y17136499D01*
X-68094185Y17323975D01*
X-68094190Y17323981D01*
X-68256020Y17485811D01*
X-68256026Y17485816D01*
X-68443502Y17617088D01*
X-68650927Y17713812D01*
X-68650929Y17713813D01*
X-68846000Y17766083D01*
X-68846000Y16791686D01*
X-68854394Y16800080D01*
X-68945606Y16852741D01*
X-69047339Y16880000D01*
X-69152661Y16880000D01*
X-69254394Y16852741D01*
X-69345606Y16800080D01*
X-69354000Y16791686D01*
X-69354000Y17766083D01*
X-69354001Y17766083D01*
X-69549072Y17713813D01*
X-69549074Y17713812D01*
X-69756499Y17617088D01*
X-69943975Y17485816D01*
X-69943981Y17485811D01*
X-70105811Y17323981D01*
X-70105816Y17323975D01*
X-70237088Y17136499D01*
X-70333812Y16929074D01*
X-70333814Y16929069D01*
X-70386083Y16734000D01*
X-90379500Y16734000D01*
X-90379500Y29804000D01*
X-70386083Y29804000D01*
X-69411686Y29804000D01*
X-69420080Y29795606D01*
X-69472741Y29704394D01*
X-69500000Y29602661D01*
X-69500000Y29497339D01*
X-69472741Y29395606D01*
X-69420080Y29304394D01*
X-69411686Y29296000D01*
X-70386082Y29296000D01*
X-70333814Y29100932D01*
X-70333812Y29100927D01*
X-70237088Y28893502D01*
X-70105816Y28706026D01*
X-70105811Y28706020D01*
X-69943981Y28544190D01*
X-69943975Y28544185D01*
X-69756499Y28412913D01*
X-69549074Y28316189D01*
X-69549069Y28316187D01*
X-69354000Y28263919D01*
X-69354000Y29238314D01*
X-69345606Y29229920D01*
X-69254394Y29177259D01*
X-69152661Y29150000D01*
X-69047339Y29150000D01*
X-68945606Y29177259D01*
X-68854394Y29229920D01*
X-68846000Y29238314D01*
X-68846000Y28263919D01*
X-68650932Y28316187D01*
X-68650927Y28316189D01*
X-68443502Y28412913D01*
X-68256026Y28544185D01*
X-68256020Y28544190D01*
X-68094190Y28706020D01*
X-68094185Y28706026D01*
X-67962913Y28893502D01*
X-67866189Y29100927D01*
X-67866187Y29100932D01*
X-67813918Y29296000D01*
X-68788314Y29296000D01*
X-68779920Y29304394D01*
X-68727259Y29395606D01*
X-68700000Y29497339D01*
X-68700000Y29602661D01*
X-68727259Y29704394D01*
X-68779920Y29795606D01*
X-68788314Y29804000D01*
X-67813918Y29804000D01*
X-39336083Y29804000D01*
X-38361686Y29804000D01*
X-38370080Y29795606D01*
X-38422741Y29704394D01*
X-38450000Y29602661D01*
X-38450000Y29497339D01*
X-38422741Y29395606D01*
X-38370080Y29304394D01*
X-38361686Y29296000D01*
X-39336082Y29296000D01*
X-39283814Y29100932D01*
X-39283812Y29100927D01*
X-39187088Y28893502D01*
X-39055816Y28706026D01*
X-39055811Y28706020D01*
X-38893981Y28544190D01*
X-38893975Y28544185D01*
X-38706499Y28412913D01*
X-38499074Y28316189D01*
X-38499069Y28316187D01*
X-38304000Y28263919D01*
X-38304000Y29238314D01*
X-38295606Y29229920D01*
X-38204394Y29177259D01*
X-38102661Y29150000D01*
X-37997339Y29150000D01*
X-37895606Y29177259D01*
X-37804394Y29229920D01*
X-37796000Y29238314D01*
X-37796000Y28263919D01*
X-37600932Y28316187D01*
X-37600927Y28316189D01*
X-37393502Y28412913D01*
X-37206026Y28544185D01*
X-37206020Y28544190D01*
X-37044190Y28706020D01*
X-37044185Y28706026D01*
X-36912913Y28893502D01*
X-36816189Y29100927D01*
X-36816187Y29100932D01*
X-36763918Y29296000D01*
X-37738314Y29296000D01*
X-37729920Y29304394D01*
X-37677259Y29395606D01*
X-37650000Y29497339D01*
X-37650000Y29602661D01*
X-37677259Y29704394D01*
X-37729920Y29795606D01*
X-37738314Y29804000D01*
X-36763918Y29804000D01*
X-36816187Y29999069D01*
X-36816189Y29999074D01*
X-36912913Y30206499D01*
X-37044185Y30393975D01*
X-37044190Y30393981D01*
X-37206020Y30555811D01*
X-37206026Y30555816D01*
X-37393502Y30687088D01*
X-37600927Y30783812D01*
X-37600929Y30783813D01*
X-37796000Y30836083D01*
X-37796000Y29861686D01*
X-37804394Y29870080D01*
X-37895606Y29922741D01*
X-37997339Y29950000D01*
X-38102661Y29950000D01*
X-38204394Y29922741D01*
X-38295606Y29870080D01*
X-38304000Y29861686D01*
X-38304000Y30836083D01*
X-38304001Y30836083D01*
X-38499072Y30783813D01*
X-38499074Y30783812D01*
X-38706499Y30687088D01*
X-38893975Y30555816D01*
X-38893981Y30555811D01*
X-39055811Y30393981D01*
X-39055816Y30393975D01*
X-39187088Y30206499D01*
X-39283812Y29999074D01*
X-39283814Y29999069D01*
X-39336083Y29804000D01*
X-67813918Y29804000D01*
X-67866187Y29999069D01*
X-67866189Y29999074D01*
X-67962913Y30206499D01*
X-68094185Y30393975D01*
X-68094190Y30393981D01*
X-68256020Y30555811D01*
X-68256026Y30555816D01*
X-68443502Y30687088D01*
X-68650927Y30783812D01*
X-68650929Y30783813D01*
X-68846000Y30836083D01*
X-68846000Y29861686D01*
X-68854394Y29870080D01*
X-68945606Y29922741D01*
X-69047339Y29950000D01*
X-69152661Y29950000D01*
X-69254394Y29922741D01*
X-69345606Y29870080D01*
X-69354000Y29861686D01*
X-69354000Y30836083D01*
X-69354001Y30836083D01*
X-69549072Y30783813D01*
X-69549074Y30783812D01*
X-69756499Y30687088D01*
X-69943975Y30555816D01*
X-69943981Y30555811D01*
X-70105811Y30393981D01*
X-70105816Y30393975D01*
X-70237088Y30206499D01*
X-70333812Y29999074D01*
X-70333814Y29999069D01*
X-70386083Y29804000D01*
X-90379500Y29804000D01*
X-90379500Y38324305D01*
X-90359498Y38392426D01*
X-90352018Y38402856D01*
X-90288185Y38482898D01*
X-90153257Y38716602D01*
X-90054666Y38967805D01*
X-89994617Y39230897D01*
X-89974451Y39500000D01*
X-83425549Y39500000D01*
X-83405383Y39230894D01*
X-83345335Y38967807D01*
X-83246745Y38716606D01*
X-83246742Y38716598D01*
X-83111818Y38482902D01*
X-83111817Y38482901D01*
X-83111815Y38482898D01*
X-82943561Y38271915D01*
X-82745741Y38088365D01*
X-82745735Y38088361D01*
X-82522784Y37936355D01*
X-82522777Y37936351D01*
X-82522774Y37936349D01*
X-82279641Y37819262D01*
X-82279638Y37819262D01*
X-82279633Y37819259D01*
X-82021783Y37739723D01*
X-82021781Y37739723D01*
X-82021772Y37739720D01*
X-81754929Y37699500D01*
X-81754925Y37699500D01*
X-81485075Y37699500D01*
X-81485071Y37699500D01*
X-81218228Y37739720D01*
X-81218218Y37739723D01*
X-80960368Y37819259D01*
X-80960366Y37819261D01*
X-80960359Y37819262D01*
X-80960354Y37819265D01*
X-80960350Y37819266D01*
X-80717231Y37936346D01*
X-80717231Y37936347D01*
X-80717225Y37936349D01*
X-80510039Y38077607D01*
X-80442489Y38099453D01*
X-80439062Y38099500D01*
X-79408778Y38099500D01*
X-79340657Y38079498D01*
X-79297097Y38031837D01*
X-79214700Y37874095D01*
X-79191110Y37845164D01*
X-79163563Y37779729D01*
X-79175767Y37709789D01*
X-79176273Y37708842D01*
X-79177851Y37705642D01*
X-79275822Y37469118D01*
X-79275823Y37469114D01*
X-79342085Y37221822D01*
X-79375500Y36968009D01*
X-79375500Y36711992D01*
X-79342085Y36458179D01*
X-79342084Y36458173D01*
X-79342083Y36458171D01*
X-79275822Y36210882D01*
X-79177850Y35974357D01*
X-79177849Y35974356D01*
X-79177844Y35974345D01*
X-79049847Y35752647D01*
X-79049845Y35752644D01*
X-79049844Y35752643D01*
X-78974743Y35654769D01*
X-78968554Y35646704D01*
X-78942954Y35580483D01*
X-78957219Y35510935D01*
X-78968554Y35493296D01*
X-79049847Y35387354D01*
X-79177844Y35165656D01*
X-79177849Y35165645D01*
X-79275822Y34929118D01*
X-79275823Y34929114D01*
X-79342085Y34681822D01*
X-79375500Y34428009D01*
X-79375500Y34171992D01*
X-79342085Y33918179D01*
X-79342084Y33918173D01*
X-79342083Y33918171D01*
X-79275822Y33670882D01*
X-79177850Y33434357D01*
X-79177849Y33434356D01*
X-79177844Y33434345D01*
X-79049847Y33212647D01*
X-79049842Y33212640D01*
X-78894001Y33009544D01*
X-78893982Y33009523D01*
X-78712978Y32828519D01*
X-78712957Y32828500D01*
X-78509861Y32672659D01*
X-78509854Y32672654D01*
X-78288156Y32544657D01*
X-78288152Y32544656D01*
X-78288143Y32544650D01*
X-78051618Y32446678D01*
X-77804329Y32380417D01*
X-77804323Y32380417D01*
X-77804322Y32380416D01*
X-77775201Y32376583D01*
X-77550506Y32347000D01*
X-77550499Y32347000D01*
X-77199501Y32347000D01*
X-77199494Y32347000D01*
X-76945671Y32380417D01*
X-76698382Y32446678D01*
X-76461857Y32544650D01*
X-76240143Y32672656D01*
X-76037035Y32828507D01*
X-75856007Y33009535D01*
X-75700156Y33212643D01*
X-75572150Y33434357D01*
X-75474178Y33670882D01*
X-75407917Y33918171D01*
X-75374500Y34171994D01*
X-75374500Y34428006D01*
X-75407917Y34681829D01*
X-75474178Y34929118D01*
X-75572150Y35165643D01*
X-75572156Y35165652D01*
X-75572157Y35165656D01*
X-75700154Y35387353D01*
X-75700156Y35387357D01*
X-75781449Y35493299D01*
X-75807048Y35559515D01*
X-75792784Y35629064D01*
X-75781454Y35646695D01*
X-75700156Y35752643D01*
X-75572150Y35974357D01*
X-75474178Y36210882D01*
X-75407917Y36458171D01*
X-75374500Y36711994D01*
X-75374500Y36968006D01*
X-75385295Y37050000D01*
X-70905549Y37050000D01*
X-70885383Y36780894D01*
X-70825335Y36517807D01*
X-70726745Y36266606D01*
X-70726742Y36266598D01*
X-70591818Y36032902D01*
X-70591816Y36032899D01*
X-70591815Y36032898D01*
X-70423561Y35821915D01*
X-70225741Y35638365D01*
X-70225735Y35638361D01*
X-70002784Y35486355D01*
X-70002777Y35486351D01*
X-70002774Y35486349D01*
X-69759641Y35369262D01*
X-69759638Y35369262D01*
X-69759633Y35369259D01*
X-69501783Y35289723D01*
X-69501781Y35289723D01*
X-69501772Y35289720D01*
X-69234929Y35249500D01*
X-69234925Y35249500D01*
X-68965075Y35249500D01*
X-68965071Y35249500D01*
X-68698228Y35289720D01*
X-68698218Y35289723D01*
X-68440368Y35369259D01*
X-68440366Y35369261D01*
X-68440359Y35369262D01*
X-68440354Y35369265D01*
X-68440350Y35369266D01*
X-68197231Y35486346D01*
X-68197231Y35486347D01*
X-68197225Y35486349D01*
X-67974259Y35638365D01*
X-67776439Y35821915D01*
X-67608185Y36032898D01*
X-67473257Y36266602D01*
X-67374666Y36517805D01*
X-67314617Y36780897D01*
X-67294451Y37050000D01*
X-67314617Y37319103D01*
X-67374666Y37582195D01*
X-67473257Y37833398D01*
X-67473258Y37833399D01*
X-67473259Y37833403D01*
X-67608183Y38067099D01*
X-67633985Y38099453D01*
X-67776439Y38278085D01*
X-67974259Y38461635D01*
X-68005452Y38482902D01*
X-68197223Y38613650D01*
X-68197231Y38613655D01*
X-68440350Y38730735D01*
X-68440368Y38730742D01*
X-68698218Y38810278D01*
X-68698226Y38810280D01*
X-68698228Y38810280D01*
X-68965071Y38850500D01*
X-69234929Y38850500D01*
X-69501772Y38810280D01*
X-69501774Y38810280D01*
X-69501783Y38810278D01*
X-69759633Y38730742D01*
X-69759645Y38730737D01*
X-70002777Y38613650D01*
X-70002784Y38613646D01*
X-70225735Y38461640D01*
X-70225740Y38461636D01*
X-70423561Y38278086D01*
X-70591818Y38067099D01*
X-70726742Y37833403D01*
X-70726745Y37833395D01*
X-70825335Y37582194D01*
X-70885383Y37319107D01*
X-70905549Y37050000D01*
X-75385295Y37050000D01*
X-75407917Y37221829D01*
X-75474178Y37469118D01*
X-75572150Y37705643D01*
X-75572157Y37705656D01*
X-75573979Y37709352D01*
X-75572213Y37710224D01*
X-75587098Y37771491D01*
X-75563902Y37838591D01*
X-75558891Y37845164D01*
X-75535302Y37874093D01*
X-75441091Y38054451D01*
X-75385114Y38250082D01*
X-75374500Y38369463D01*
X-75374501Y39400000D01*
X-63985549Y39400000D01*
X-63965383Y39130894D01*
X-63905335Y38867807D01*
X-63806745Y38616606D01*
X-63806742Y38616598D01*
X-63671818Y38382902D01*
X-63671817Y38382901D01*
X-63671815Y38382898D01*
X-63607990Y38302864D01*
X-63581155Y38237136D01*
X-63580500Y38224305D01*
X-63580500Y35541627D01*
X-63599067Y35475793D01*
X-63675148Y35351639D01*
X-63675156Y35351625D01*
X-63752191Y35165645D01*
X-63774573Y35111610D01*
X-63835221Y34858994D01*
X-63855604Y34600000D01*
X-63835221Y34341006D01*
X-63774573Y34088390D01*
X-63675154Y33848372D01*
X-63675153Y33848371D01*
X-63539415Y33626864D01*
X-63539410Y33626857D01*
X-63370690Y33429311D01*
X-63173144Y33260591D01*
X-63173140Y33260588D01*
X-62951628Y33124846D01*
X-62711610Y33025427D01*
X-62458994Y32964779D01*
X-62200000Y32944396D01*
X-61941006Y32964779D01*
X-61688390Y33025427D01*
X-61448372Y33124846D01*
X-61226860Y33260588D01*
X-61029311Y33429311D01*
X-60860588Y33626860D01*
X-60724846Y33848372D01*
X-60625427Y34088390D01*
X-60564779Y34341006D01*
X-60544396Y34600000D01*
X-60564779Y34858994D01*
X-60625427Y35111610D01*
X-60724846Y35351628D01*
X-60760934Y35410518D01*
X-60779500Y35476351D01*
X-60779500Y38224305D01*
X-60759498Y38292426D01*
X-60752018Y38302856D01*
X-60688185Y38382898D01*
X-60620721Y38499750D01*
X-60553259Y38616598D01*
X-60553257Y38616602D01*
X-60454666Y38867805D01*
X-60394617Y39130897D01*
X-60374451Y39400000D01*
X-53825549Y39400000D01*
X-53805383Y39130894D01*
X-53745335Y38867807D01*
X-53646745Y38616606D01*
X-53646742Y38616598D01*
X-53511818Y38382902D01*
X-53511817Y38382901D01*
X-53511815Y38382898D01*
X-53343561Y38171915D01*
X-53145741Y37988365D01*
X-53145735Y37988361D01*
X-52922784Y37836355D01*
X-52922777Y37836351D01*
X-52922774Y37836349D01*
X-52679641Y37719262D01*
X-52679638Y37719262D01*
X-52679633Y37719259D01*
X-52421783Y37639723D01*
X-52421781Y37639723D01*
X-52421772Y37639720D01*
X-52154929Y37599500D01*
X-52154925Y37599500D01*
X-51885075Y37599500D01*
X-51885071Y37599500D01*
X-51618228Y37639720D01*
X-51618218Y37639723D01*
X-51360368Y37719259D01*
X-51360366Y37719261D01*
X-51360359Y37719262D01*
X-51360354Y37719265D01*
X-51360350Y37719266D01*
X-51117231Y37836346D01*
X-51117231Y37836347D01*
X-51117225Y37836349D01*
X-50910039Y37977607D01*
X-50842489Y37999453D01*
X-50839062Y37999500D01*
X-48226542Y37999500D01*
X-48158421Y37979498D01*
X-48114863Y37931840D01*
X-48086157Y37876886D01*
X-48084697Y37874091D01*
X-48061110Y37845164D01*
X-48033563Y37779729D01*
X-48045767Y37709789D01*
X-48046273Y37708842D01*
X-48047851Y37705642D01*
X-48145822Y37469118D01*
X-48145823Y37469114D01*
X-48212085Y37221822D01*
X-48245500Y36968009D01*
X-48245500Y36711992D01*
X-48212085Y36458179D01*
X-48212084Y36458173D01*
X-48212083Y36458171D01*
X-48145822Y36210882D01*
X-48047850Y35974357D01*
X-48047849Y35974356D01*
X-48047844Y35974345D01*
X-47919847Y35752647D01*
X-47919845Y35752644D01*
X-47919844Y35752643D01*
X-47844743Y35654769D01*
X-47838554Y35646704D01*
X-47812954Y35580483D01*
X-47827219Y35510935D01*
X-47838554Y35493296D01*
X-47919847Y35387354D01*
X-48047844Y35165656D01*
X-48047849Y35165645D01*
X-48145822Y34929118D01*
X-48145823Y34929114D01*
X-48212085Y34681822D01*
X-48245500Y34428009D01*
X-48245500Y34171992D01*
X-48212085Y33918179D01*
X-48212084Y33918173D01*
X-48212083Y33918171D01*
X-48145822Y33670882D01*
X-48047850Y33434357D01*
X-48047849Y33434356D01*
X-48047844Y33434345D01*
X-47919847Y33212647D01*
X-47919842Y33212640D01*
X-47764001Y33009544D01*
X-47763982Y33009523D01*
X-47582978Y32828519D01*
X-47582957Y32828500D01*
X-47379861Y32672659D01*
X-47379854Y32672654D01*
X-47158156Y32544657D01*
X-47158152Y32544656D01*
X-47158143Y32544650D01*
X-46921618Y32446678D01*
X-46674329Y32380417D01*
X-46674323Y32380417D01*
X-46674322Y32380416D01*
X-46645201Y32376583D01*
X-46420506Y32347000D01*
X-46420499Y32347000D01*
X-46069501Y32347000D01*
X-46069494Y32347000D01*
X-45815671Y32380417D01*
X-45568382Y32446678D01*
X-45331857Y32544650D01*
X-45110143Y32672656D01*
X-44907035Y32828507D01*
X-44726007Y33009535D01*
X-44570156Y33212643D01*
X-44442150Y33434357D01*
X-44344178Y33670882D01*
X-44277917Y33918171D01*
X-44244500Y34171994D01*
X-44244500Y34428006D01*
X-44277917Y34681829D01*
X-44344178Y34929118D01*
X-44442150Y35165643D01*
X-44442156Y35165652D01*
X-44442157Y35165656D01*
X-44570154Y35387353D01*
X-44570156Y35387357D01*
X-44651449Y35493299D01*
X-44677048Y35559515D01*
X-44662784Y35629064D01*
X-44651454Y35646695D01*
X-44570156Y35752643D01*
X-44442150Y35974357D01*
X-44344178Y36210882D01*
X-44277917Y36458171D01*
X-44244500Y36711994D01*
X-44244500Y36968006D01*
X-44255295Y37050000D01*
X-39855549Y37050000D01*
X-39835383Y36780894D01*
X-39775335Y36517807D01*
X-39676745Y36266606D01*
X-39676742Y36266598D01*
X-39541818Y36032902D01*
X-39541816Y36032899D01*
X-39541815Y36032898D01*
X-39373561Y35821915D01*
X-39175741Y35638365D01*
X-39175735Y35638361D01*
X-38952784Y35486355D01*
X-38952777Y35486351D01*
X-38952774Y35486349D01*
X-38709641Y35369262D01*
X-38709638Y35369262D01*
X-38709633Y35369259D01*
X-38451783Y35289723D01*
X-38451781Y35289723D01*
X-38451772Y35289720D01*
X-38184929Y35249500D01*
X-38184925Y35249500D01*
X-37915075Y35249500D01*
X-37915071Y35249500D01*
X-37648228Y35289720D01*
X-37648218Y35289723D01*
X-37390368Y35369259D01*
X-37390366Y35369261D01*
X-37390359Y35369262D01*
X-37390354Y35369265D01*
X-37390350Y35369266D01*
X-37147231Y35486346D01*
X-37147231Y35486347D01*
X-37147225Y35486349D01*
X-36924259Y35638365D01*
X-36726439Y35821915D01*
X-36558185Y36032898D01*
X-36423257Y36266602D01*
X-36324666Y36517805D01*
X-36264617Y36780897D01*
X-36244451Y37050000D01*
X-36264617Y37319103D01*
X-36324666Y37582195D01*
X-36423257Y37833398D01*
X-36423258Y37833399D01*
X-36423259Y37833403D01*
X-36558183Y38067099D01*
X-36583985Y38099453D01*
X-36726439Y38278085D01*
X-36924259Y38461635D01*
X-36955452Y38482902D01*
X-37147223Y38613650D01*
X-37147231Y38613655D01*
X-37390350Y38730735D01*
X-37390368Y38730742D01*
X-37648218Y38810278D01*
X-37648226Y38810280D01*
X-37648228Y38810280D01*
X-37915071Y38850500D01*
X-38184929Y38850500D01*
X-38451772Y38810280D01*
X-38451774Y38810280D01*
X-38451783Y38810278D01*
X-38709633Y38730742D01*
X-38709645Y38730737D01*
X-38952777Y38613650D01*
X-38952784Y38613646D01*
X-39175735Y38461640D01*
X-39175740Y38461636D01*
X-39373561Y38278086D01*
X-39541818Y38067099D01*
X-39676742Y37833403D01*
X-39676745Y37833395D01*
X-39775335Y37582194D01*
X-39835383Y37319107D01*
X-39855549Y37050000D01*
X-44255295Y37050000D01*
X-44277917Y37221829D01*
X-44344178Y37469118D01*
X-44442150Y37705643D01*
X-44442157Y37705656D01*
X-44443979Y37709352D01*
X-44442213Y37710224D01*
X-44457098Y37771491D01*
X-44433902Y37838591D01*
X-44428891Y37845164D01*
X-44405302Y37874093D01*
X-44311091Y38054451D01*
X-44255114Y38250082D01*
X-44244500Y38369463D01*
X-44244501Y40390536D01*
X-44255114Y40509918D01*
X-44311091Y40705549D01*
X-44405302Y40885907D01*
X-44533891Y41043609D01*
X-44691593Y41172198D01*
X-44691595Y41172199D01*
X-44691596Y41172200D01*
X-44871949Y41266408D01*
X-44871950Y41266409D01*
X-44871951Y41266409D01*
X-45067582Y41322386D01*
X-45186963Y41333000D01*
X-45186968Y41333000D01*
X-47303028Y41333000D01*
X-47303038Y41332999D01*
X-47422412Y41322387D01*
X-47422415Y41322387D01*
X-47422418Y41322386D01*
X-47618049Y41266409D01*
X-47618052Y41266408D01*
X-47798405Y41172200D01*
X-47956109Y41043609D01*
X-48084700Y40885905D01*
X-48093966Y40868164D01*
X-48143234Y40817045D01*
X-48205648Y40800500D01*
X-50839062Y40800500D01*
X-50907183Y40820502D01*
X-50909990Y40822361D01*
X-51117225Y40963651D01*
X-51117228Y40963652D01*
X-51117230Y40963654D01*
X-51117231Y40963655D01*
X-51360350Y41080735D01*
X-51360368Y41080742D01*
X-51618218Y41160278D01*
X-51618226Y41160280D01*
X-51618228Y41160280D01*
X-51885071Y41200500D01*
X-52154929Y41200500D01*
X-52421772Y41160280D01*
X-52421774Y41160280D01*
X-52421783Y41160278D01*
X-52679633Y41080742D01*
X-52679645Y41080737D01*
X-52922777Y40963650D01*
X-52922784Y40963646D01*
X-53145735Y40811640D01*
X-53145740Y40811636D01*
X-53343561Y40628086D01*
X-53511818Y40417099D01*
X-53646742Y40183403D01*
X-53646745Y40183395D01*
X-53745335Y39932194D01*
X-53805383Y39669107D01*
X-53825549Y39400000D01*
X-60374451Y39400000D01*
X-60394617Y39669103D01*
X-60454666Y39932195D01*
X-60553257Y40183398D01*
X-60553258Y40183399D01*
X-60553259Y40183403D01*
X-60688183Y40417099D01*
X-60767931Y40517099D01*
X-60856439Y40628085D01*
X-61054259Y40811635D01*
X-61067264Y40820502D01*
X-61277223Y40963650D01*
X-61277231Y40963655D01*
X-61520350Y41080735D01*
X-61520368Y41080742D01*
X-61778218Y41160278D01*
X-61778226Y41160280D01*
X-61778228Y41160280D01*
X-62045071Y41200500D01*
X-62314929Y41200500D01*
X-62581772Y41160280D01*
X-62581774Y41160280D01*
X-62581783Y41160278D01*
X-62839633Y41080742D01*
X-62839645Y41080737D01*
X-63082777Y40963650D01*
X-63082784Y40963646D01*
X-63305735Y40811640D01*
X-63305740Y40811636D01*
X-63503561Y40628086D01*
X-63671818Y40417099D01*
X-63806742Y40183403D01*
X-63806745Y40183395D01*
X-63905335Y39932194D01*
X-63965383Y39669107D01*
X-63985549Y39400000D01*
X-75374501Y39400000D01*
X-75374501Y40390536D01*
X-75385114Y40509918D01*
X-75441091Y40705549D01*
X-75535302Y40885907D01*
X-75663891Y41043609D01*
X-75821593Y41172198D01*
X-75821595Y41172199D01*
X-75821596Y41172200D01*
X-76001949Y41266408D01*
X-76001950Y41266409D01*
X-76001951Y41266409D01*
X-76197582Y41322386D01*
X-76316963Y41333000D01*
X-76316968Y41333000D01*
X-78433028Y41333000D01*
X-78433038Y41332999D01*
X-78552412Y41322387D01*
X-78552415Y41322387D01*
X-78552418Y41322386D01*
X-78748049Y41266409D01*
X-78748052Y41266408D01*
X-78928405Y41172200D01*
X-79086109Y41043609D01*
X-79164985Y40946875D01*
X-79223535Y40906721D01*
X-79262637Y40900500D01*
X-80439062Y40900500D01*
X-80507183Y40920502D01*
X-80509990Y40922361D01*
X-80717225Y41063651D01*
X-80717228Y41063652D01*
X-80717230Y41063654D01*
X-80717231Y41063655D01*
X-80960350Y41180735D01*
X-80960368Y41180742D01*
X-81218218Y41260278D01*
X-81218226Y41260280D01*
X-81218228Y41260280D01*
X-81485071Y41300500D01*
X-81754929Y41300500D01*
X-82021772Y41260280D01*
X-82021774Y41260280D01*
X-82021783Y41260278D01*
X-82279633Y41180742D01*
X-82279645Y41180737D01*
X-82522777Y41063650D01*
X-82522784Y41063646D01*
X-82745735Y40911640D01*
X-82745740Y40911636D01*
X-82943561Y40728086D01*
X-83111818Y40517099D01*
X-83246742Y40283403D01*
X-83246745Y40283395D01*
X-83345335Y40032194D01*
X-83405383Y39769107D01*
X-83425549Y39500000D01*
X-89974451Y39500000D01*
X-89994617Y39769103D01*
X-90054666Y40032195D01*
X-90153257Y40283398D01*
X-90153258Y40283399D01*
X-90153259Y40283403D01*
X-90288183Y40517099D01*
X-90335881Y40576910D01*
X-90456439Y40728085D01*
X-90654259Y40911635D01*
X-90667264Y40920502D01*
X-90877223Y41063650D01*
X-90877231Y41063655D01*
X-91120350Y41180735D01*
X-91120368Y41180742D01*
X-91378218Y41260278D01*
X-91378226Y41260280D01*
X-91378228Y41260280D01*
X-91645071Y41300500D01*
X-91914929Y41300500D01*
X-92181772Y41260280D01*
X-92181774Y41260280D01*
X-92181783Y41260278D01*
X-92439633Y41180742D01*
X-92439645Y41180737D01*
X-92682777Y41063650D01*
X-92682784Y41063646D01*
X-92905735Y40911640D01*
X-92905740Y40911636D01*
X-93103561Y40728086D01*
X-93271818Y40517099D01*
X-93406742Y40283403D01*
X-93406745Y40283395D01*
X-93505335Y40032194D01*
X-93565383Y39769107D01*
X-93585549Y39500000D01*
X-93565383Y39230894D01*
X-93505335Y38967807D01*
X-93406745Y38716606D01*
X-93406742Y38716598D01*
X-93271818Y38482902D01*
X-93271817Y38482901D01*
X-93271815Y38482898D01*
X-93207990Y38402864D01*
X-93181155Y38337136D01*
X-93180500Y38324305D01*
X-93180500Y3344709D01*
X-93180501Y3344679D01*
X-93180501Y3340222D01*
X-93180501Y3119778D01*
X-93146268Y2903646D01*
X-93146014Y2902045D01*
X-93097144Y2751635D01*
X-93077895Y2692394D01*
X-93077894Y2692393D01*
X-92977814Y2495975D01*
X-92889286Y2374127D01*
X-92848242Y2317636D01*
X-92848240Y2317634D01*
X-92848238Y2317631D01*
X-90118863Y-411743D01*
X-90084837Y-474055D01*
X-90089902Y-544870D01*
X-90132449Y-601706D01*
X-90153288Y-614360D01*
X-90302776Y-686350D01*
X-90302784Y-686354D01*
X-90525735Y-838360D01*
X-90525740Y-838364D01*
X-90723561Y-1021914D01*
X-90891818Y-1232901D01*
X-91026742Y-1466597D01*
X-91026745Y-1466605D01*
X-91125335Y-1717806D01*
X-91185383Y-1980893D01*
X-91205549Y-2250000D01*
X-91185383Y-2519106D01*
X-91125335Y-2782193D01*
X-91026745Y-3033394D01*
X-91026742Y-3033402D01*
X-90891818Y-3267098D01*
X-90891817Y-3267099D01*
X-90891815Y-3267102D01*
X-90827990Y-3347136D01*
X-90801155Y-3412864D01*
X-90800500Y-3425695D01*
X-90800500Y-4385291D01*
X-90800501Y-4385321D01*
X-90800501Y-4389778D01*
X-90800501Y-4610222D01*
X-90788529Y-4685810D01*
X-90778166Y-4751236D01*
X-90778167Y-4751236D01*
X-90766016Y-4827950D01*
X-90699059Y-5034025D01*
X-90697895Y-5037606D01*
X-90597815Y-5234022D01*
X-90468242Y-5412365D01*
X-90468240Y-5412367D01*
X-90468238Y-5412370D01*
X-90307976Y-5572632D01*
X-90307954Y-5572652D01*
X-87121898Y-8758708D01*
X-87121869Y-8758739D01*
X-86962851Y-8917757D01*
X-86962848Y-8917759D01*
X-86962845Y-8917762D01*
X-86784502Y-9047335D01*
X-86588086Y-9147415D01*
X-86388098Y-9212394D01*
X-86388096Y-9212395D01*
X-86378438Y-9215533D01*
X-86378437Y-9215533D01*
X-86378431Y-9215535D01*
X-86160701Y-9250021D01*
X-86160699Y-9250021D01*
X-85935065Y-9250021D01*
X-85935041Y-9250020D01*
X-84840686Y-9250020D01*
X-84772565Y-9270022D01*
X-84726072Y-9323678D01*
X-84715968Y-9393952D01*
X-84717845Y-9404057D01*
X-84729610Y-9455603D01*
X-84735383Y-9480897D01*
X-84739768Y-9539414D01*
X-84755549Y-9750000D01*
X-84735383Y-10019106D01*
X-84675335Y-10282193D01*
X-84576745Y-10533394D01*
X-84576742Y-10533402D01*
X-84441818Y-10767098D01*
X-84441816Y-10767101D01*
X-84441815Y-10767102D01*
X-84273561Y-10978085D01*
X-84075741Y-11161635D01*
X-84075735Y-11161639D01*
X-83852784Y-11313645D01*
X-83852777Y-11313649D01*
X-83852774Y-11313651D01*
X-83609641Y-11430738D01*
X-83609638Y-11430738D01*
X-83609633Y-11430741D01*
X-83351783Y-11510277D01*
X-83351781Y-11510277D01*
X-83351772Y-11510280D01*
X-83084929Y-11550500D01*
X-83084925Y-11550500D01*
X-82815075Y-11550500D01*
X-82815071Y-11550500D01*
X-82548228Y-11510280D01*
X-82548218Y-11510277D01*
X-82290368Y-11430741D01*
X-82290366Y-11430739D01*
X-82290359Y-11430738D01*
X-82290354Y-11430735D01*
X-82290350Y-11430734D01*
X-82047231Y-11313654D01*
X-82047231Y-11313653D01*
X-82047225Y-11313651D01*
X-81824259Y-11161635D01*
X-81626439Y-10978085D01*
X-81458185Y-10767102D01*
X-81390721Y-10650250D01*
X-81323259Y-10533402D01*
X-81323257Y-10533398D01*
X-81224666Y-10282195D01*
X-81164617Y-10019103D01*
X-81144451Y-9750000D01*
X-81164617Y-9480897D01*
X-81182155Y-9404057D01*
X-81177813Y-9333194D01*
X-81135848Y-9275927D01*
X-81069584Y-9250439D01*
X-81059314Y-9250020D01*
X-78390686Y-9250020D01*
X-78322565Y-9270022D01*
X-78276072Y-9323678D01*
X-78265968Y-9393952D01*
X-78267845Y-9404057D01*
X-78279610Y-9455603D01*
X-78285383Y-9480897D01*
X-78289768Y-9539414D01*
X-78305549Y-9750000D01*
X-78285383Y-10019106D01*
X-78225335Y-10282193D01*
X-78126745Y-10533394D01*
X-78126742Y-10533402D01*
X-77991818Y-10767098D01*
X-77991816Y-10767101D01*
X-77991815Y-10767102D01*
X-77823561Y-10978085D01*
X-77625741Y-11161635D01*
X-77625735Y-11161639D01*
X-77402784Y-11313645D01*
X-77402777Y-11313649D01*
X-77402774Y-11313651D01*
X-77159641Y-11430738D01*
X-77159638Y-11430738D01*
X-77159633Y-11430741D01*
X-76901783Y-11510277D01*
X-76901781Y-11510277D01*
X-76901772Y-11510280D01*
X-76634929Y-11550500D01*
X-76634925Y-11550500D01*
X-76365075Y-11550500D01*
X-76365071Y-11550500D01*
X-76098228Y-11510280D01*
X-76098218Y-11510277D01*
X-75840368Y-11430741D01*
X-75840366Y-11430739D01*
X-75840359Y-11430738D01*
X-75840354Y-11430735D01*
X-75840350Y-11430734D01*
X-75597231Y-11313654D01*
X-75597231Y-11313653D01*
X-75597225Y-11313651D01*
X-75374259Y-11161635D01*
X-75176439Y-10978085D01*
X-75008185Y-10767102D01*
X-74940721Y-10650250D01*
X-74873259Y-10533402D01*
X-74873257Y-10533398D01*
X-74774666Y-10282195D01*
X-74714617Y-10019103D01*
X-74694451Y-9750000D01*
X-74714617Y-9480897D01*
X-74732155Y-9404057D01*
X-74727813Y-9333194D01*
X-74685848Y-9275927D01*
X-74619584Y-9250439D01*
X-74609314Y-9250020D01*
X-74582777Y-9250020D01*
X-74514656Y-9270022D01*
X-74493681Y-9286925D01*
X-73633055Y-10147552D01*
X-73599633Y-10207232D01*
X-73574575Y-10311605D01*
X-73574574Y-10311609D01*
X-73574573Y-10311610D01*
X-73475154Y-10551628D01*
X-73475153Y-10551629D01*
X-73339415Y-10773136D01*
X-73339410Y-10773143D01*
X-73170690Y-10970689D01*
X-72973144Y-11139409D01*
X-72973140Y-11139412D01*
X-72751628Y-11275154D01*
X-72511610Y-11374573D01*
X-72258994Y-11435221D01*
X-72000000Y-11455604D01*
X-71741006Y-11435221D01*
X-71488390Y-11374573D01*
X-71248372Y-11275154D01*
X-71026860Y-11139412D01*
X-70829311Y-10970689D01*
X-70660588Y-10773140D01*
X-70524846Y-10551628D01*
X-70425427Y-10311610D01*
X-70364779Y-10058994D01*
X-70356511Y-9953932D01*
X-70331227Y-9887594D01*
X-70274089Y-9845454D01*
X-70221019Y-9838209D01*
X-70000000Y-9855604D01*
X-69741006Y-9835221D01*
X-69488390Y-9774573D01*
X-69248372Y-9675154D01*
X-69026860Y-9539412D01*
X-68829311Y-9370689D01*
X-68660588Y-9173140D01*
X-68524846Y-8951628D01*
X-68425427Y-8711610D01*
X-68364779Y-8458994D01*
X-68344396Y-8200000D01*
X-68364779Y-7941006D01*
X-68425427Y-7688390D01*
X-68524846Y-7448372D01*
X-68660588Y-7226860D01*
X-68660591Y-7226856D01*
X-68829311Y-7029310D01*
X-69026857Y-6860590D01*
X-69026864Y-6860585D01*
X-69156740Y-6780998D01*
X-69248372Y-6724846D01*
X-69488390Y-6625427D01*
X-69488391Y-6625426D01*
X-69488395Y-6625425D01*
X-69592771Y-6600366D01*
X-69652451Y-6566943D01*
X-70228799Y-5990595D01*
X-70262825Y-5928283D01*
X-70257760Y-5857468D01*
X-70215213Y-5800632D01*
X-70148693Y-5775821D01*
X-70139704Y-5775500D01*
X-56755317Y-5775500D01*
X-56687196Y-5795502D01*
X-56640703Y-5849158D01*
X-56630599Y-5919432D01*
X-56632798Y-5930911D01*
X-56635222Y-5941005D01*
X-56635222Y-5941007D01*
X-56643106Y-6041171D01*
X-56668392Y-6107512D01*
X-56725530Y-6149651D01*
X-56758829Y-6156894D01*
X-56858984Y-6164777D01*
X-56858995Y-6164779D01*
X-57111611Y-6225427D01*
X-57351630Y-6324847D01*
X-57573137Y-6460585D01*
X-57573144Y-6460590D01*
X-57770690Y-6629310D01*
X-57939410Y-6826856D01*
X-57939415Y-6826863D01*
X-58075153Y-7048370D01*
X-58174573Y-7288389D01*
X-58235221Y-7541006D01*
X-58255604Y-7800000D01*
X-58235221Y-8058994D01*
X-58174573Y-8311610D01*
X-58075154Y-8551628D01*
X-58075153Y-8551629D01*
X-57939415Y-8773136D01*
X-57939410Y-8773143D01*
X-57770690Y-8970689D01*
X-57573144Y-9139409D01*
X-57573137Y-9139414D01*
X-57560080Y-9147415D01*
X-57351628Y-9275154D01*
X-57111610Y-9374573D01*
X-56858994Y-9435221D01*
X-56600000Y-9455604D01*
X-56341006Y-9435221D01*
X-56088390Y-9374573D01*
X-55848372Y-9275154D01*
X-55780196Y-9233375D01*
X-55756845Y-9219067D01*
X-55691011Y-9200500D01*
X-54132296Y-9200500D01*
X-54064175Y-9220502D01*
X-54043201Y-9237405D01*
X-52432405Y-10848201D01*
X-52398379Y-10910513D01*
X-52395500Y-10937296D01*
X-52395500Y-11376450D01*
X-52415502Y-11444571D01*
X-52469158Y-11491064D01*
X-52539432Y-11501168D01*
X-52581885Y-11487038D01*
X-52764312Y-11387425D01*
X-53012322Y-11294923D01*
X-53270978Y-11238656D01*
X-53535000Y-11219773D01*
X-53799023Y-11238656D01*
X-54057679Y-11294923D01*
X-54305689Y-11387425D01*
X-54448924Y-11465638D01*
X-54518298Y-11480729D01*
X-54584818Y-11455918D01*
X-54588934Y-11452702D01*
X-54671593Y-11385302D01*
X-54671595Y-11385301D01*
X-54671596Y-11385300D01*
X-54851949Y-11291092D01*
X-54851950Y-11291091D01*
X-54851951Y-11291091D01*
X-55047582Y-11235114D01*
X-55166963Y-11224500D01*
X-55166968Y-11224500D01*
X-56983028Y-11224500D01*
X-56983038Y-11224501D01*
X-57102412Y-11235113D01*
X-57102415Y-11235113D01*
X-57102418Y-11235114D01*
X-57298049Y-11291091D01*
X-57298052Y-11291092D01*
X-57478405Y-11385300D01*
X-57636109Y-11513891D01*
X-57764700Y-11671595D01*
X-57858908Y-11851948D01*
X-57858909Y-11851950D01*
X-57858909Y-11851951D01*
X-57914886Y-12047582D01*
X-57916148Y-12061782D01*
X-57925500Y-12166965D01*
X-57925500Y-13983027D01*
X-57925499Y-13983036D01*
X-57914886Y-14102418D01*
X-57858909Y-14298049D01*
X-57858908Y-14298051D01*
X-57794162Y-14422002D01*
X-57764698Y-14478407D01*
X-57636109Y-14636109D01*
X-57478407Y-14764698D01*
X-57478405Y-14764699D01*
X-57426487Y-14791819D01*
X-57375369Y-14841087D01*
X-57359002Y-14910172D01*
X-57382583Y-14977138D01*
X-57438625Y-15020724D01*
X-57484825Y-15029500D01*
X-105068500Y-15029500D01*
X-105136621Y-15009498D01*
X-105183114Y-14955842D01*
X-105194500Y-14903500D01*
X-105194500Y-11821290D01*
X-103750500Y-11821290D01*
X-103718840Y-12061782D01*
X-103656056Y-12296095D01*
X-103656055Y-12296097D01*
X-103656054Y-12296100D01*
X-103563224Y-12520212D01*
X-103563223Y-12520213D01*
X-103563218Y-12520224D01*
X-103441939Y-12730285D01*
X-103441937Y-12730288D01*
X-103441936Y-12730289D01*
X-103294265Y-12922738D01*
X-103294261Y-12922742D01*
X-103294256Y-12922748D01*
X-103122749Y-13094255D01*
X-103122744Y-13094259D01*
X-103122738Y-13094265D01*
X-102930289Y-13241936D01*
X-102930286Y-13241938D01*
X-102720225Y-13363217D01*
X-102720221Y-13363218D01*
X-102720212Y-13363224D01*
X-102496100Y-13456054D01*
X-102261789Y-13518838D01*
X-102261785Y-13518838D01*
X-102261783Y-13518839D01*
X-102199798Y-13526999D01*
X-102021288Y-13550500D01*
X-102021281Y-13550500D01*
X-101778719Y-13550500D01*
X-101778712Y-13550500D01*
X-101561363Y-13521885D01*
X-101538218Y-13518839D01*
X-101538218Y-13518838D01*
X-101538211Y-13518838D01*
X-101303900Y-13456054D01*
X-101079788Y-13363224D01*
X-100869711Y-13241936D01*
X-100677262Y-13094265D01*
X-100505735Y-12922738D01*
X-100358064Y-12730289D01*
X-100236776Y-12520212D01*
X-100143946Y-12296100D01*
X-100081162Y-12061789D01*
X-100049500Y-11821288D01*
X-100049500Y-11578712D01*
X-100081162Y-11338211D01*
X-100143946Y-11103900D01*
X-100236776Y-10879788D01*
X-100236782Y-10879779D01*
X-100236783Y-10879775D01*
X-100358062Y-10669714D01*
X-100358064Y-10669711D01*
X-100505735Y-10477262D01*
X-100505741Y-10477256D01*
X-100505745Y-10477251D01*
X-100677252Y-10305744D01*
X-100677258Y-10305739D01*
X-100677262Y-10305735D01*
X-100869711Y-10158064D01*
X-100869712Y-10158063D01*
X-100869715Y-10158061D01*
X-101079776Y-10036782D01*
X-101079784Y-10036778D01*
X-101079788Y-10036776D01*
X-101303900Y-9943946D01*
X-101303903Y-9943945D01*
X-101303905Y-9943944D01*
X-101538218Y-9881160D01*
X-101778710Y-9849500D01*
X-101778712Y-9849500D01*
X-102021288Y-9849500D01*
X-102021291Y-9849500D01*
X-102261783Y-9881160D01*
X-102496096Y-9943944D01*
X-102496100Y-9943946D01*
X-102677552Y-10019106D01*
X-102720214Y-10036777D01*
X-102720225Y-10036782D01*
X-102930286Y-10158061D01*
X-103122738Y-10305735D01*
X-103122749Y-10305744D01*
X-103294256Y-10477251D01*
X-103294265Y-10477262D01*
X-103441939Y-10669714D01*
X-103563218Y-10879775D01*
X-103563223Y-10879786D01*
X-103563224Y-10879788D01*
X-103632650Y-11047398D01*
X-103656054Y-11103900D01*
X-103656056Y-11103904D01*
X-103718840Y-11338217D01*
X-103750500Y-11578709D01*
X-103750500Y-11821290D01*
X-105194500Y-11821290D01*
X-105194500Y-9750000D01*
X-91205549Y-9750000D01*
X-91185383Y-10019106D01*
X-91125335Y-10282193D01*
X-91026745Y-10533394D01*
X-91026742Y-10533402D01*
X-90891818Y-10767098D01*
X-90891816Y-10767101D01*
X-90891815Y-10767102D01*
X-90723561Y-10978085D01*
X-90525741Y-11161635D01*
X-90525735Y-11161639D01*
X-90302784Y-11313645D01*
X-90302777Y-11313649D01*
X-90302774Y-11313651D01*
X-90059641Y-11430738D01*
X-90059638Y-11430738D01*
X-90059633Y-11430741D01*
X-89801783Y-11510277D01*
X-89801781Y-11510277D01*
X-89801772Y-11510280D01*
X-89534929Y-11550500D01*
X-89534925Y-11550500D01*
X-89265075Y-11550500D01*
X-89265071Y-11550500D01*
X-88998228Y-11510280D01*
X-88998218Y-11510277D01*
X-88740368Y-11430741D01*
X-88740366Y-11430739D01*
X-88740359Y-11430738D01*
X-88740354Y-11430735D01*
X-88740350Y-11430734D01*
X-88497231Y-11313654D01*
X-88497231Y-11313653D01*
X-88497225Y-11313651D01*
X-88274259Y-11161635D01*
X-88076439Y-10978085D01*
X-87908185Y-10767102D01*
X-87840721Y-10650250D01*
X-87773259Y-10533402D01*
X-87773257Y-10533398D01*
X-87674666Y-10282195D01*
X-87614617Y-10019103D01*
X-87594451Y-9750000D01*
X-87614617Y-9480897D01*
X-87674666Y-9217805D01*
X-87773257Y-8966602D01*
X-87773258Y-8966601D01*
X-87773259Y-8966597D01*
X-87908183Y-8732901D01*
X-87937009Y-8696755D01*
X-88076439Y-8521915D01*
X-88274259Y-8338365D01*
X-88313501Y-8311610D01*
X-88497223Y-8186350D01*
X-88497231Y-8186345D01*
X-88740350Y-8069265D01*
X-88740368Y-8069258D01*
X-88998218Y-7989722D01*
X-88998226Y-7989720D01*
X-88998228Y-7989720D01*
X-89265071Y-7949500D01*
X-89534929Y-7949500D01*
X-89801772Y-7989720D01*
X-89801774Y-7989720D01*
X-89801783Y-7989722D01*
X-90059633Y-8069258D01*
X-90059645Y-8069263D01*
X-90302777Y-8186350D01*
X-90302784Y-8186354D01*
X-90525735Y-8338360D01*
X-90525740Y-8338364D01*
X-90723561Y-8521914D01*
X-90891818Y-8732901D01*
X-91026742Y-8966597D01*
X-91026745Y-8966605D01*
X-91125335Y-9217806D01*
X-91185383Y-9480893D01*
X-91205549Y-9750000D01*
X-105194500Y-9750000D01*
X-105194500Y11959996D01*
X-103412692Y11959996D01*
X-103393948Y11685952D01*
X-103393947Y11685946D01*
X-103338058Y11416989D01*
X-103338056Y11416981D01*
X-103246062Y11158135D01*
X-103119686Y10914244D01*
X-103119684Y10914241D01*
X-102989459Y10729752D01*
X-102086889Y11632322D01*
X-102073503Y11600005D01*
X-101990330Y11475528D01*
X-101884472Y11369670D01*
X-101759995Y11286497D01*
X-101727680Y11273112D01*
X-102629285Y10371508D01*
X-102629285Y10371506D01*
X-102560687Y10315696D01*
X-102560682Y10315693D01*
X-102325970Y10172962D01*
X-102074011Y10063520D01*
X-101809491Y9989405D01*
X-101537365Y9952001D01*
X-101537351Y9952000D01*
X-101262649Y9952000D01*
X-101262636Y9952001D01*
X-100990510Y9989405D01*
X-100725990Y10063520D01*
X-100474031Y10172962D01*
X-100239321Y10315691D01*
X-100170717Y10371507D01*
X-100170717Y10371508D01*
X-101072321Y11273112D01*
X-101040005Y11286497D01*
X-100915528Y11369670D01*
X-100809670Y11475528D01*
X-100726497Y11600005D01*
X-100713112Y11632322D01*
X-99810543Y10729753D01*
X-99680318Y10914238D01*
X-99680315Y10914244D01*
X-99553939Y11158135D01*
X-99461945Y11416981D01*
X-99461943Y11416989D01*
X-99406054Y11685946D01*
X-99406053Y11685952D01*
X-99387308Y11959996D01*
X-99387308Y11960005D01*
X-99406053Y12234049D01*
X-99406054Y12234055D01*
X-99461943Y12503012D01*
X-99461945Y12503020D01*
X-99553939Y12761866D01*
X-99680315Y13005757D01*
X-99680319Y13005763D01*
X-99810543Y13190250D01*
X-100713112Y12287681D01*
X-100726497Y12319995D01*
X-100809670Y12444472D01*
X-100915528Y12550330D01*
X-101040005Y12633503D01*
X-101072322Y12646889D01*
X-100170717Y13548496D01*
X-100239320Y13604309D01*
X-100474031Y13747039D01*
X-100725990Y13856481D01*
X-100990510Y13930596D01*
X-101262636Y13968000D01*
X-101537365Y13968000D01*
X-101809491Y13930596D01*
X-102074011Y13856481D01*
X-102325970Y13747039D01*
X-102560675Y13604313D01*
X-102629285Y13548495D01*
X-102629286Y13548495D01*
X-101727680Y12646889D01*
X-101759995Y12633503D01*
X-101884472Y12550330D01*
X-101990330Y12444472D01*
X-102073503Y12319995D01*
X-102086889Y12287680D01*
X-102989459Y13190250D01*
X-103119683Y13005764D01*
X-103246062Y12761866D01*
X-103338056Y12503020D01*
X-103338058Y12503012D01*
X-103393947Y12234055D01*
X-103393948Y12234049D01*
X-103412692Y11960005D01*
X-103412692Y11959996D01*
X-105194500Y11959996D01*
X-105194500Y15481973D01*
X-103900500Y15481973D01*
X-103900499Y15481963D01*
X-103897319Y15446187D01*
X-103889886Y15362582D01*
X-103833909Y15166951D01*
X-103833908Y15166949D01*
X-103754014Y15013998D01*
X-103739698Y14986593D01*
X-103611109Y14828891D01*
X-103453407Y14700302D01*
X-103273049Y14606091D01*
X-103077418Y14550114D01*
X-102958037Y14539500D01*
X-99841964Y14539501D01*
X-99722582Y14550114D01*
X-99526951Y14606091D01*
X-99346593Y14700302D01*
X-99188891Y14828891D01*
X-99060302Y14986593D01*
X-98966091Y15166951D01*
X-98910114Y15362582D01*
X-98899500Y15481963D01*
X-98899501Y18598036D01*
X-98910114Y18717418D01*
X-98966091Y18913049D01*
X-99060302Y19093407D01*
X-99188891Y19251109D01*
X-99346593Y19379698D01*
X-99346595Y19379699D01*
X-99346596Y19379700D01*
X-99526949Y19473908D01*
X-99526950Y19473909D01*
X-99526951Y19473909D01*
X-99722582Y19529886D01*
X-99841963Y19540500D01*
X-99841968Y19540500D01*
X-102958028Y19540500D01*
X-102958038Y19540499D01*
X-103077412Y19529887D01*
X-103077415Y19529887D01*
X-103077418Y19529886D01*
X-103273049Y19473909D01*
X-103273052Y19473908D01*
X-103453405Y19379700D01*
X-103611109Y19251109D01*
X-103739700Y19093405D01*
X-103833908Y18913052D01*
X-103833909Y18913050D01*
X-103833909Y18913049D01*
X-103889886Y18717418D01*
X-103889886Y18717412D01*
X-103900500Y18598035D01*
X-103900500Y15481973D01*
X-105194500Y15481973D01*
X-105194500Y41178710D01*
X-103750500Y41178710D01*
X-103718840Y40938218D01*
X-103656056Y40703905D01*
X-103656055Y40703903D01*
X-103656054Y40703900D01*
X-103563224Y40479788D01*
X-103563223Y40479787D01*
X-103563218Y40479776D01*
X-103441939Y40269715D01*
X-103441937Y40269712D01*
X-103441936Y40269711D01*
X-103294265Y40077262D01*
X-103294261Y40077258D01*
X-103294256Y40077252D01*
X-103122749Y39905745D01*
X-103122744Y39905741D01*
X-103122738Y39905735D01*
X-102944675Y39769103D01*
X-102930286Y39758062D01*
X-102720225Y39636783D01*
X-102720221Y39636782D01*
X-102720212Y39636776D01*
X-102496100Y39543946D01*
X-102261789Y39481162D01*
X-102261785Y39481162D01*
X-102261783Y39481161D01*
X-102199798Y39473001D01*
X-102021288Y39449500D01*
X-102021281Y39449500D01*
X-101778719Y39449500D01*
X-101778712Y39449500D01*
X-101561363Y39478115D01*
X-101538218Y39481161D01*
X-101538218Y39481162D01*
X-101538211Y39481162D01*
X-101303900Y39543946D01*
X-101079788Y39636776D01*
X-100869711Y39758064D01*
X-100677262Y39905735D01*
X-100505735Y40077262D01*
X-100358064Y40269711D01*
X-100236776Y40479788D01*
X-100143946Y40703900D01*
X-100081162Y40938211D01*
X-100049500Y41178712D01*
X-100049500Y41421288D01*
X-100081162Y41661789D01*
X-100143946Y41896100D01*
X-100236776Y42120212D01*
X-100236782Y42120221D01*
X-100236783Y42120225D01*
X-100358062Y42330286D01*
X-100358064Y42330289D01*
X-100505735Y42522738D01*
X-100505741Y42522744D01*
X-100505745Y42522749D01*
X-100677252Y42694256D01*
X-100677258Y42694261D01*
X-100677262Y42694265D01*
X-100869711Y42841936D01*
X-100869712Y42841937D01*
X-100869715Y42841939D01*
X-101079776Y42963218D01*
X-101079784Y42963222D01*
X-101079788Y42963224D01*
X-101303900Y43056054D01*
X-101303903Y43056055D01*
X-101303905Y43056056D01*
X-101538218Y43118840D01*
X-101778710Y43150500D01*
X-101778712Y43150500D01*
X-102021288Y43150500D01*
X-102021291Y43150500D01*
X-102261783Y43118840D01*
X-102496096Y43056056D01*
X-102496100Y43056054D01*
X-102720214Y42963223D01*
X-102720225Y42963218D01*
X-102930286Y42841939D01*
X-103122738Y42694265D01*
X-103122749Y42694256D01*
X-103294256Y42522749D01*
X-103294265Y42522738D01*
X-103441939Y42330286D01*
X-103563218Y42120225D01*
X-103563223Y42120214D01*
X-103656054Y41896100D01*
X-103656056Y41896096D01*
X-103718840Y41661783D01*
X-103750500Y41421291D01*
X-103750500Y41178710D01*
X-105194500Y41178710D01*
X-105194500Y44443500D01*
X-105174498Y44511621D01*
X-105120842Y44558114D01*
X-105068500Y44569500D01*
X4278500Y44569500D01*
X4346621Y44549498D01*
G37*
%TD.AperFunction*%
%TD*%
M02*
