%TF.GenerationSoftware,KiCad,Pcbnew,9.0.0*%
%TF.CreationDate,2025-03-14T14:41:01+01:00*%
%TF.ProjectId,LEDstripDrv2.0,4c454473-7472-4697-9044-7276322e302e,rev?*%
%TF.SameCoordinates,Original*%
%TF.FileFunction,Soldermask,Top*%
%TF.FilePolarity,Negative*%
%FSLAX46Y46*%
G04 Gerber Fmt 4.6, Leading zero omitted, Abs format (unit mm)*
G04 Created by KiCad (PCBNEW 9.0.0) date 2025-03-14 14:41:01*
%MOMM*%
%LPD*%
G01*
G04 APERTURE LIST*
G04 Aperture macros list*
%AMRoundRect*
0 Rectangle with rounded corners*
0 $1 Rounding radius*
0 $2 $3 $4 $5 $6 $7 $8 $9 X,Y pos of 4 corners*
0 Add a 4 corners polygon primitive as box body*
4,1,4,$2,$3,$4,$5,$6,$7,$8,$9,$2,$3,0*
0 Add four circle primitives for the rounded corners*
1,1,$1+$1,$2,$3*
1,1,$1+$1,$4,$5*
1,1,$1+$1,$6,$7*
1,1,$1+$1,$8,$9*
0 Add four rect primitives between the rounded corners*
20,1,$1+$1,$2,$3,$4,$5,0*
20,1,$1+$1,$4,$5,$6,$7,0*
20,1,$1+$1,$6,$7,$8,$9,0*
20,1,$1+$1,$8,$9,$2,$3,0*%
%AMFreePoly0*
4,1,37,0.800000,0.796148,0.878414,0.796148,1.032228,0.765552,1.177117,0.705537,1.307515,0.618408,1.418408,0.507515,1.505537,0.377117,1.565552,0.232228,1.596148,0.078414,1.596148,-0.078414,1.565552,-0.232228,1.505537,-0.377117,1.418408,-0.507515,1.307515,-0.618408,1.177117,-0.705537,1.032228,-0.765552,0.878414,-0.796148,0.800000,-0.796148,0.800000,-0.800000,-1.400000,-0.800000,
-1.403843,-0.796157,-1.439018,-0.796157,-1.511114,-0.766294,-1.566294,-0.711114,-1.596157,-0.639018,-1.596157,-0.603843,-1.600000,-0.600000,-1.600000,0.600000,-1.596157,0.603843,-1.596157,0.639018,-1.566294,0.711114,-1.511114,0.766294,-1.439018,0.796157,-1.403843,0.796157,-1.400000,0.800000,0.800000,0.800000,0.800000,0.796148,0.800000,0.796148,$1*%
%AMFreePoly1*
4,1,37,1.403843,0.796157,1.439018,0.796157,1.511114,0.766294,1.566294,0.711114,1.596157,0.639018,1.596157,0.603843,1.600000,0.600000,1.600000,-0.600000,1.596157,-0.603843,1.596157,-0.639018,1.566294,-0.711114,1.511114,-0.766294,1.439018,-0.796157,1.403843,-0.796157,1.400000,-0.800000,-0.800000,-0.800000,-0.800000,-0.796148,-0.878414,-0.796148,-1.032228,-0.765552,-1.177117,-0.705537,
-1.307515,-0.618408,-1.418408,-0.507515,-1.505537,-0.377117,-1.565552,-0.232228,-1.596148,-0.078414,-1.596148,0.078414,-1.565552,0.232228,-1.505537,0.377117,-1.418408,0.507515,-1.307515,0.618408,-1.177117,0.705537,-1.032228,0.765552,-0.878414,0.796148,-0.800000,0.796148,-0.800000,0.800000,1.400000,0.800000,1.403843,0.796157,1.403843,0.796157,$1*%
%AMFreePoly2*
4,1,37,0.603843,0.796157,0.639018,0.796157,0.711114,0.766294,0.766294,0.711114,0.796157,0.639018,0.796157,0.603843,0.800000,0.600000,0.800000,-0.600000,0.796157,-0.603843,0.796157,-0.639018,0.766294,-0.711114,0.711114,-0.766294,0.639018,-0.796157,0.603843,-0.796157,0.600000,-0.800000,0.000000,-0.800000,0.000000,-0.796148,-0.078414,-0.796148,-0.232228,-0.765552,-0.377117,-0.705537,
-0.507515,-0.618408,-0.618408,-0.507515,-0.705537,-0.377117,-0.765552,-0.232228,-0.796148,-0.078414,-0.796148,0.078414,-0.765552,0.232228,-0.705537,0.377117,-0.618408,0.507515,-0.507515,0.618408,-0.377117,0.705537,-0.232228,0.765552,-0.078414,0.796148,0.000000,0.796148,0.000000,0.800000,0.600000,0.800000,0.603843,0.796157,0.603843,0.796157,$1*%
%AMFreePoly3*
4,1,37,0.000000,0.796148,0.078414,0.796148,0.232228,0.765552,0.377117,0.705537,0.507515,0.618408,0.618408,0.507515,0.705537,0.377117,0.765552,0.232228,0.796148,0.078414,0.796148,-0.078414,0.765552,-0.232228,0.705537,-0.377117,0.618408,-0.507515,0.507515,-0.618408,0.377117,-0.705537,0.232228,-0.765552,0.078414,-0.796148,0.000000,-0.796148,0.000000,-0.800000,-0.600000,-0.800000,
-0.603843,-0.796157,-0.639018,-0.796157,-0.711114,-0.766294,-0.766294,-0.711114,-0.796157,-0.639018,-0.796157,-0.603843,-0.800000,-0.600000,-0.800000,0.600000,-0.796157,0.603843,-0.796157,0.639018,-0.766294,0.711114,-0.711114,0.766294,-0.639018,0.796157,-0.603843,0.796157,-0.600000,0.800000,0.000000,0.800000,0.000000,0.796148,0.000000,0.796148,$1*%
G04 Aperture macros list end*
%ADD10C,3.200000*%
%ADD11R,1.600000X1.600000*%
%ADD12C,1.600000*%
%ADD13R,1.050000X1.500000*%
%ADD14O,1.050000X1.500000*%
%ADD15RoundRect,0.250000X0.400000X0.625000X-0.400000X0.625000X-0.400000X-0.625000X0.400000X-0.625000X0*%
%ADD16O,1.600000X1.600000*%
%ADD17R,1.905000X2.000000*%
%ADD18O,1.905000X2.000000*%
%ADD19R,3.000000X3.000000*%
%ADD20C,3.000000*%
%ADD21RoundRect,0.250000X0.550000X0.550000X-0.550000X0.550000X-0.550000X-0.550000X0.550000X-0.550000X0*%
%ADD22RoundRect,0.250000X-0.625000X0.400000X-0.625000X-0.400000X0.625000X-0.400000X0.625000X0.400000X0*%
%ADD23C,2.200000*%
%ADD24C,1.850000*%
%ADD25FreePoly0,90.000000*%
%ADD26RoundRect,0.200000X0.600000X-0.600000X0.600000X0.600000X-0.600000X0.600000X-0.600000X-0.600000X0*%
%ADD27RoundRect,0.800000X0.000010X-0.800000X0.000010X0.800000X-0.000010X0.800000X-0.000010X-0.800000X0*%
%ADD28FreePoly1,90.000000*%
%ADD29FreePoly2,90.000000*%
%ADD30FreePoly3,90.000000*%
%ADD31R,1.700000X1.700000*%
%ADD32O,1.700000X1.700000*%
%ADD33RoundRect,0.250000X-0.400000X-0.625000X0.400000X-0.625000X0.400000X0.625000X-0.400000X0.625000X0*%
%ADD34RoundRect,0.250000X0.850000X0.350000X-0.850000X0.350000X-0.850000X-0.350000X0.850000X-0.350000X0*%
%ADD35RoundRect,0.249997X2.950003X2.650003X-2.950003X2.650003X-2.950003X-2.650003X2.950003X-2.650003X0*%
G04 APERTURE END LIST*
D10*
%TO.C,REF\u002A\u002A*%
X178600000Y-100900000D03*
%TD*%
%TO.C,REF\u002A\u002A*%
X118100000Y-91900000D03*
%TD*%
%TO.C,REF\u002A\u002A*%
X173900000Y-83600000D03*
%TD*%
D11*
%TO.C,C2*%
X164238606Y-100700000D03*
D12*
X166738606Y-100700000D03*
%TD*%
D13*
%TO.C,U3*%
X133570000Y-109700000D03*
D14*
X132300000Y-109700000D03*
X131030000Y-109700000D03*
%TD*%
D15*
%TO.C,R1*%
X158100000Y-81500000D03*
X155000000Y-81500000D03*
%TD*%
D11*
%TO.C,D3*%
X138190000Y-81500000D03*
D16*
X145810000Y-81500000D03*
%TD*%
D11*
%TO.C,D1*%
X137090000Y-108600000D03*
D16*
X144710000Y-108600000D03*
%TD*%
D17*
%TO.C,Q2*%
X137240000Y-115255000D03*
D18*
X134700000Y-115255000D03*
X132160000Y-115255000D03*
%TD*%
D19*
%TO.C,J4*%
X164300000Y-115440000D03*
D20*
X164300000Y-110360000D03*
%TD*%
D11*
%TO.C,C1*%
X132038606Y-77700000D03*
D12*
X134538606Y-77700000D03*
%TD*%
D21*
%TO.C,U5*%
X158505000Y-117410000D03*
D12*
X158505000Y-114870000D03*
X158505000Y-112330000D03*
X158505000Y-109790000D03*
X150885000Y-109790000D03*
X150885000Y-112330000D03*
X150885000Y-114870000D03*
X150885000Y-117410000D03*
%TD*%
D17*
%TO.C,Q1*%
X140360000Y-75445000D03*
D18*
X142900000Y-75445000D03*
X145440000Y-75445000D03*
%TD*%
D15*
%TO.C,R5*%
X141350000Y-112200000D03*
X138250000Y-112200000D03*
%TD*%
D22*
%TO.C,R3*%
X147300000Y-114700000D03*
X147300000Y-117800000D03*
%TD*%
D23*
%TO.C,A1*%
X109500000Y-98225000D03*
D24*
X112530000Y-97925000D03*
X112530000Y-93075000D03*
D23*
X109500000Y-92775000D03*
D25*
X109370000Y-105190000D03*
D26*
X109370000Y-104390000D03*
D27*
X111910000Y-105190000D03*
D12*
X111910000Y-104390000D03*
D28*
X114450000Y-105190000D03*
D29*
X114450000Y-104390000D03*
D27*
X116990000Y-105190000D03*
D12*
X116990000Y-104390000D03*
D27*
X119530000Y-105190000D03*
D12*
X119530000Y-104390000D03*
D27*
X122070000Y-105190000D03*
D12*
X122070000Y-104390000D03*
D27*
X124610000Y-105190000D03*
D12*
X124610000Y-104390000D03*
D28*
X127150000Y-105190000D03*
D29*
X127150000Y-104390000D03*
D27*
X129690000Y-105190000D03*
D12*
X129690000Y-104390000D03*
D27*
X132230000Y-105190000D03*
D12*
X132230000Y-104390000D03*
D27*
X134770000Y-105190000D03*
D12*
X134770000Y-104390000D03*
D27*
X137310000Y-105190000D03*
D12*
X137310000Y-104390000D03*
D28*
X139850000Y-105190000D03*
D29*
X139850000Y-104390000D03*
D27*
X142390000Y-105190000D03*
D12*
X142390000Y-104390000D03*
D27*
X144930000Y-105190000D03*
D12*
X144930000Y-104390000D03*
D27*
X147470000Y-105190000D03*
D12*
X147470000Y-104390000D03*
D27*
X150010000Y-105190000D03*
D12*
X150010000Y-104390000D03*
D28*
X152550000Y-105190000D03*
D29*
X152550000Y-104390000D03*
D27*
X155090000Y-105190000D03*
D12*
X155090000Y-104390000D03*
D27*
X157630000Y-105190000D03*
D12*
X157630000Y-104390000D03*
X157630000Y-86610000D03*
D27*
X157630000Y-85810000D03*
D12*
X155090000Y-86610000D03*
D27*
X155090000Y-85810000D03*
D30*
X152550000Y-86610000D03*
D25*
X152550000Y-85810000D03*
D12*
X150010000Y-86610000D03*
D27*
X150010000Y-85810000D03*
D12*
X147470000Y-86610000D03*
D27*
X147470000Y-85810000D03*
D12*
X144930000Y-86610000D03*
D27*
X144930000Y-85810000D03*
D12*
X142390000Y-86610000D03*
D27*
X142390000Y-85810000D03*
D30*
X139850000Y-86610000D03*
D25*
X139850000Y-85810000D03*
D12*
X137310000Y-86610000D03*
D27*
X137310000Y-85810000D03*
D12*
X134770000Y-86610000D03*
D27*
X134770000Y-85810000D03*
D12*
X132230000Y-86610000D03*
D27*
X132230000Y-85810000D03*
D12*
X129690000Y-86610000D03*
D27*
X129690000Y-85810000D03*
D30*
X127150000Y-86610000D03*
D25*
X127150000Y-85810000D03*
D12*
X124610000Y-86610000D03*
D27*
X124610000Y-85810000D03*
D12*
X122070000Y-86610000D03*
D27*
X122070000Y-85810000D03*
D12*
X119530000Y-86610000D03*
D27*
X119530000Y-85810000D03*
D12*
X116990000Y-86610000D03*
D27*
X116990000Y-85810000D03*
D30*
X114450000Y-86610000D03*
D25*
X114450000Y-85810000D03*
D12*
X111910000Y-86610000D03*
D27*
X111910000Y-85810000D03*
D12*
X109370000Y-86610000D03*
D27*
X109370000Y-85810000D03*
%TD*%
D31*
%TO.C,J3*%
X173100000Y-97080000D03*
D32*
X173100000Y-99620000D03*
X173100000Y-102160000D03*
X173100000Y-104700000D03*
%TD*%
D19*
%TO.C,J1*%
X124000000Y-75660000D03*
D20*
X124000000Y-80740000D03*
%TD*%
D19*
%TO.C,J5*%
X164500000Y-91740000D03*
D20*
X164500000Y-86660000D03*
%TD*%
D22*
%TO.C,R6*%
X142500000Y-114900000D03*
X142500000Y-118000000D03*
%TD*%
D19*
%TO.C,J6*%
X164500000Y-80540000D03*
D20*
X164500000Y-75460000D03*
%TD*%
D33*
%TO.C,R2*%
X149500000Y-81500000D03*
X152600000Y-81500000D03*
%TD*%
D34*
%TO.C,U4*%
X158325000Y-78105000D03*
D35*
X152025000Y-75825000D03*
D34*
X158325000Y-73545000D03*
%TD*%
D22*
%TO.C,R4*%
X147600000Y-108550000D03*
X147600000Y-111650000D03*
%TD*%
D19*
%TO.C,J2*%
X124000000Y-110060000D03*
D20*
X124000000Y-115140000D03*
%TD*%
M02*
