M48
; DRILL file {KiCad 9.0.0} date 2025-03-14T14:40:56+0100
; FORMAT={-:-/ absolute / metric / decimal}
; #@! TF.CreationDate,2025-03-14T14:40:56+01:00
; #@! TF.GenerationSoftware,Kicad,Pcbnew,9.0.0
; #@! TF.FileFunction,Plated,1,2,PTH
FMAT,2
METRIC
; #@! TA.AperFunction,Plated,PTH,ViaDrill
T1C0.650
; #@! TA.AperFunction,Plated,PTH,ComponentDrill
T2C0.750
; #@! TA.AperFunction,Plated,PTH,ComponentDrill
T3C0.800
; #@! TA.AperFunction,Plated,PTH,ComponentDrill
T4C1.000
; #@! TA.AperFunction,Plated,PTH,ComponentDrill
T5C1.100
; #@! TA.AperFunction,Plated,PTH,ComponentDrill
T6C1.520
%
G90
G05
T1
X132.2Y-95.1
X136.0Y-89.7
X141.8Y-91.0
X143.0Y-94.4
X144.8Y-113.1
X149.5Y-91.6
X154.0Y-90.0
X158.5Y-90.4
X159.8Y-104.9
X160.4Y-98.9
X162.0Y-104.4
T2
X131.03Y-109.7
X132.3Y-109.7
X133.57Y-109.7
T3
X132.039Y-77.7
X134.539Y-77.7
X137.09Y-108.6
X138.19Y-81.5
X144.71Y-108.6
X145.81Y-81.5
X150.885Y-109.79
X150.885Y-112.33
X150.885Y-114.87
X150.885Y-117.41
X158.505Y-109.79
X158.505Y-112.33
X158.505Y-114.87
X158.505Y-117.41
X164.239Y-100.7
X166.739Y-100.7
T4
X109.37Y-86.61
X109.37Y-104.39
X111.91Y-86.61
X111.91Y-104.39
X114.45Y-86.61
X114.45Y-104.39
X116.99Y-86.61
X116.99Y-104.39
X119.53Y-86.61
X119.53Y-104.39
X122.07Y-86.61
X122.07Y-104.39
X124.61Y-86.61
X124.61Y-104.39
X127.15Y-86.61
X127.15Y-104.39
X129.69Y-86.61
X129.69Y-104.39
X132.23Y-86.61
X132.23Y-104.39
X134.77Y-86.61
X134.77Y-104.39
X137.31Y-86.61
X137.31Y-104.39
X139.85Y-86.61
X139.85Y-104.39
X142.39Y-86.61
X142.39Y-104.39
X144.93Y-86.61
X144.93Y-104.39
X147.47Y-86.61
X147.47Y-104.39
X150.01Y-86.61
X150.01Y-104.39
X152.55Y-86.61
X152.55Y-104.39
X155.09Y-86.61
X155.09Y-104.39
X157.63Y-86.61
X157.63Y-104.39
X173.1Y-97.08
X173.1Y-99.62
X173.1Y-102.16
X173.1Y-104.7
T5
X132.16Y-115.255
X134.7Y-115.255
X137.24Y-115.255
X140.36Y-75.445
X142.9Y-75.445
X145.44Y-75.445
T6
X124.0Y-75.66
X124.0Y-80.74
X124.0Y-110.06
X124.0Y-115.14
X164.3Y-110.36
X164.3Y-115.44
X164.5Y-75.46
X164.5Y-80.54
X164.5Y-86.66
X164.5Y-91.74
M30
