%TF.GenerationSoftware,KiCad,Pcbnew,9.0.0*%
%TF.CreationDate,2025-03-14T14:41:01+01:00*%
%TF.ProjectId,LEDstripDrv2.0,4c454473-7472-4697-9044-7276322e302e,rev?*%
%TF.SameCoordinates,Original*%
%TF.FileFunction,Copper,L1,Top*%
%TF.FilePolarity,Positive*%
%FSLAX46Y46*%
G04 Gerber Fmt 4.6, Leading zero omitted, Abs format (unit mm)*
G04 Created by KiCad (PCBNEW 9.0.0) date 2025-03-14 14:41:01*
%MOMM*%
%LPD*%
G01*
G04 APERTURE LIST*
G04 Aperture macros list*
%AMRoundRect*
0 Rectangle with rounded corners*
0 $1 Rounding radius*
0 $2 $3 $4 $5 $6 $7 $8 $9 X,Y pos of 4 corners*
0 Add a 4 corners polygon primitive as box body*
4,1,4,$2,$3,$4,$5,$6,$7,$8,$9,$2,$3,0*
0 Add four circle primitives for the rounded corners*
1,1,$1+$1,$2,$3*
1,1,$1+$1,$4,$5*
1,1,$1+$1,$6,$7*
1,1,$1+$1,$8,$9*
0 Add four rect primitives between the rounded corners*
20,1,$1+$1,$2,$3,$4,$5,0*
20,1,$1+$1,$4,$5,$6,$7,0*
20,1,$1+$1,$6,$7,$8,$9,0*
20,1,$1+$1,$8,$9,$2,$3,0*%
%AMFreePoly0*
4,1,37,0.800000,0.796148,0.878414,0.796148,1.032228,0.765552,1.177117,0.705537,1.307515,0.618408,1.418408,0.507515,1.505537,0.377117,1.565552,0.232228,1.596148,0.078414,1.596148,-0.078414,1.565552,-0.232228,1.505537,-0.377117,1.418408,-0.507515,1.307515,-0.618408,1.177117,-0.705537,1.032228,-0.765552,0.878414,-0.796148,0.800000,-0.796148,0.800000,-0.800000,-1.400000,-0.800000,
-1.403843,-0.796157,-1.439018,-0.796157,-1.511114,-0.766294,-1.566294,-0.711114,-1.596157,-0.639018,-1.596157,-0.603843,-1.600000,-0.600000,-1.600000,0.600000,-1.596157,0.603843,-1.596157,0.639018,-1.566294,0.711114,-1.511114,0.766294,-1.439018,0.796157,-1.403843,0.796157,-1.400000,0.800000,0.800000,0.800000,0.800000,0.796148,0.800000,0.796148,$1*%
%AMFreePoly1*
4,1,37,1.403843,0.796157,1.439018,0.796157,1.511114,0.766294,1.566294,0.711114,1.596157,0.639018,1.596157,0.603843,1.600000,0.600000,1.600000,-0.600000,1.596157,-0.603843,1.596157,-0.639018,1.566294,-0.711114,1.511114,-0.766294,1.439018,-0.796157,1.403843,-0.796157,1.400000,-0.800000,-0.800000,-0.800000,-0.800000,-0.796148,-0.878414,-0.796148,-1.032228,-0.765552,-1.177117,-0.705537,
-1.307515,-0.618408,-1.418408,-0.507515,-1.505537,-0.377117,-1.565552,-0.232228,-1.596148,-0.078414,-1.596148,0.078414,-1.565552,0.232228,-1.505537,0.377117,-1.418408,0.507515,-1.307515,0.618408,-1.177117,0.705537,-1.032228,0.765552,-0.878414,0.796148,-0.800000,0.796148,-0.800000,0.800000,1.400000,0.800000,1.403843,0.796157,1.403843,0.796157,$1*%
%AMFreePoly2*
4,1,37,0.603843,0.796157,0.639018,0.796157,0.711114,0.766294,0.766294,0.711114,0.796157,0.639018,0.796157,0.603843,0.800000,0.600000,0.800000,-0.600000,0.796157,-0.603843,0.796157,-0.639018,0.766294,-0.711114,0.711114,-0.766294,0.639018,-0.796157,0.603843,-0.796157,0.600000,-0.800000,0.000000,-0.800000,0.000000,-0.796148,-0.078414,-0.796148,-0.232228,-0.765552,-0.377117,-0.705537,
-0.507515,-0.618408,-0.618408,-0.507515,-0.705537,-0.377117,-0.765552,-0.232228,-0.796148,-0.078414,-0.796148,0.078414,-0.765552,0.232228,-0.705537,0.377117,-0.618408,0.507515,-0.507515,0.618408,-0.377117,0.705537,-0.232228,0.765552,-0.078414,0.796148,0.000000,0.796148,0.000000,0.800000,0.600000,0.800000,0.603843,0.796157,0.603843,0.796157,$1*%
%AMFreePoly3*
4,1,37,0.000000,0.796148,0.078414,0.796148,0.232228,0.765552,0.377117,0.705537,0.507515,0.618408,0.618408,0.507515,0.705537,0.377117,0.765552,0.232228,0.796148,0.078414,0.796148,-0.078414,0.765552,-0.232228,0.705537,-0.377117,0.618408,-0.507515,0.507515,-0.618408,0.377117,-0.705537,0.232228,-0.765552,0.078414,-0.796148,0.000000,-0.796148,0.000000,-0.800000,-0.600000,-0.800000,
-0.603843,-0.796157,-0.639018,-0.796157,-0.711114,-0.766294,-0.766294,-0.711114,-0.796157,-0.639018,-0.796157,-0.603843,-0.800000,-0.600000,-0.800000,0.600000,-0.796157,0.603843,-0.796157,0.639018,-0.766294,0.711114,-0.711114,0.766294,-0.639018,0.796157,-0.603843,0.796157,-0.600000,0.800000,0.000000,0.800000,0.000000,0.796148,0.000000,0.796148,$1*%
G04 Aperture macros list end*
%TA.AperFunction,ComponentPad*%
%ADD10R,1.600000X1.600000*%
%TD*%
%TA.AperFunction,ComponentPad*%
%ADD11C,1.600000*%
%TD*%
%TA.AperFunction,ComponentPad*%
%ADD12R,1.050000X1.500000*%
%TD*%
%TA.AperFunction,ComponentPad*%
%ADD13O,1.050000X1.500000*%
%TD*%
%TA.AperFunction,SMDPad,CuDef*%
%ADD14RoundRect,0.250000X0.400000X0.625000X-0.400000X0.625000X-0.400000X-0.625000X0.400000X-0.625000X0*%
%TD*%
%TA.AperFunction,ComponentPad*%
%ADD15O,1.600000X1.600000*%
%TD*%
%TA.AperFunction,ComponentPad*%
%ADD16R,1.905000X2.000000*%
%TD*%
%TA.AperFunction,ComponentPad*%
%ADD17O,1.905000X2.000000*%
%TD*%
%TA.AperFunction,ComponentPad*%
%ADD18R,3.000000X3.000000*%
%TD*%
%TA.AperFunction,ComponentPad*%
%ADD19C,3.000000*%
%TD*%
%TA.AperFunction,ComponentPad*%
%ADD20RoundRect,0.250000X0.550000X0.550000X-0.550000X0.550000X-0.550000X-0.550000X0.550000X-0.550000X0*%
%TD*%
%TA.AperFunction,SMDPad,CuDef*%
%ADD21RoundRect,0.250000X-0.625000X0.400000X-0.625000X-0.400000X0.625000X-0.400000X0.625000X0.400000X0*%
%TD*%
%TA.AperFunction,SMDPad,CuDef*%
%ADD22FreePoly0,90.000000*%
%TD*%
%TA.AperFunction,ComponentPad*%
%ADD23RoundRect,0.200000X0.600000X-0.600000X0.600000X0.600000X-0.600000X0.600000X-0.600000X-0.600000X0*%
%TD*%
%TA.AperFunction,SMDPad,CuDef*%
%ADD24RoundRect,0.800000X0.000010X-0.800000X0.000010X0.800000X-0.000010X0.800000X-0.000010X-0.800000X0*%
%TD*%
%TA.AperFunction,SMDPad,CuDef*%
%ADD25FreePoly1,90.000000*%
%TD*%
%TA.AperFunction,ComponentPad*%
%ADD26FreePoly2,90.000000*%
%TD*%
%TA.AperFunction,ComponentPad*%
%ADD27FreePoly3,90.000000*%
%TD*%
%TA.AperFunction,ComponentPad*%
%ADD28R,1.700000X1.700000*%
%TD*%
%TA.AperFunction,ComponentPad*%
%ADD29O,1.700000X1.700000*%
%TD*%
%TA.AperFunction,SMDPad,CuDef*%
%ADD30RoundRect,0.250000X-0.400000X-0.625000X0.400000X-0.625000X0.400000X0.625000X-0.400000X0.625000X0*%
%TD*%
%TA.AperFunction,SMDPad,CuDef*%
%ADD31RoundRect,0.250000X0.850000X0.350000X-0.850000X0.350000X-0.850000X-0.350000X0.850000X-0.350000X0*%
%TD*%
%TA.AperFunction,SMDPad,CuDef*%
%ADD32RoundRect,0.250000X1.275000X1.125000X-1.275000X1.125000X-1.275000X-1.125000X1.275000X-1.125000X0*%
%TD*%
%TA.AperFunction,SMDPad,CuDef*%
%ADD33RoundRect,0.249997X2.950003X2.650003X-2.950003X2.650003X-2.950003X-2.650003X2.950003X-2.650003X0*%
%TD*%
%TA.AperFunction,ViaPad*%
%ADD34C,1.300000*%
%TD*%
%TA.AperFunction,Conductor*%
%ADD35C,0.600000*%
%TD*%
%TA.AperFunction,Conductor*%
%ADD36C,1.000000*%
%TD*%
%TA.AperFunction,Conductor*%
%ADD37C,0.400000*%
%TD*%
%TA.AperFunction,Conductor*%
%ADD38C,0.500000*%
%TD*%
G04 APERTURE END LIST*
D10*
%TO.P,C2,1*%
%TO.N,+24V*%
X164238606Y-100700000D03*
D11*
%TO.P,C2,2*%
%TO.N,GND*%
X166738606Y-100700000D03*
%TD*%
D12*
%TO.P,U3,1,+V_{S}*%
%TO.N,Net-(A1-VSYS)*%
X133570000Y-109700000D03*
D13*
%TO.P,U3,2,V_{OUT}*%
%TO.N,Net-(A1-GPIO28_ADC2)*%
X132300000Y-109700000D03*
%TO.P,U3,3,GND*%
%TO.N,GND*%
X131030000Y-109700000D03*
%TD*%
D14*
%TO.P,R1,1*%
%TO.N,Net-(R1-Pad1)*%
X158100000Y-81500000D03*
%TO.P,R1,2*%
%TO.N,Net-(Q1-G)*%
X155000000Y-81500000D03*
%TD*%
D10*
%TO.P,D3,1,K*%
%TO.N,Net-(A1-VSYS)*%
X138190000Y-81500000D03*
D15*
%TO.P,D3,2,A*%
%TO.N,Net-(D3-A)*%
X145810000Y-81500000D03*
%TD*%
D10*
%TO.P,D1,1,K*%
%TO.N,Net-(A1-GPIO28_ADC2)*%
X137090000Y-108600000D03*
D15*
%TO.P,D1,2,A*%
%TO.N,GND*%
X144710000Y-108600000D03*
%TD*%
D16*
%TO.P,Q2,1,G*%
%TO.N,Net-(Q2-G)*%
X137240000Y-115255000D03*
D17*
%TO.P,Q2,2,D*%
%TO.N,Net-(J2-Pin_1)*%
X134700000Y-115255000D03*
%TO.P,Q2,3,S*%
%TO.N,GND*%
X132160000Y-115255000D03*
%TD*%
D18*
%TO.P,J4,1,Pin_1*%
%TO.N,GND*%
X164300000Y-115440000D03*
D19*
%TO.P,J4,2,Pin_2*%
%TO.N,+24V*%
X164300000Y-110360000D03*
%TD*%
D10*
%TO.P,C1,1*%
%TO.N,Net-(A1-VSYS)*%
X132038606Y-77700000D03*
D11*
%TO.P,C1,2*%
%TO.N,GND*%
X134538606Y-77700000D03*
%TD*%
D20*
%TO.P,U5,1*%
%TO.N,Net-(A1-GPIO16)*%
X158505000Y-117410000D03*
D11*
%TO.P,U5,2*%
%TO.N,Net-(R3-Pad2)*%
X158505000Y-114870000D03*
%TO.P,U5,3*%
%TO.N,Net-(A1-GPIO17)*%
X158505000Y-112330000D03*
%TO.P,U5,4*%
%TO.N,Net-(R4-Pad2)*%
X158505000Y-109790000D03*
%TO.P,U5,5*%
%TO.N,Net-(R5-Pad1)*%
X150885000Y-109790000D03*
%TO.P,U5,6*%
%TO.N,+24V*%
X150885000Y-112330000D03*
%TO.P,U5,7*%
%TO.N,Net-(R1-Pad1)*%
X150885000Y-114870000D03*
%TO.P,U5,8*%
%TO.N,+24V*%
X150885000Y-117410000D03*
%TD*%
D16*
%TO.P,Q1,1,G*%
%TO.N,Net-(Q1-G)*%
X140360000Y-75445000D03*
D17*
%TO.P,Q1,2,D*%
%TO.N,Net-(J1-Pin_1)*%
X142900000Y-75445000D03*
%TO.P,Q1,3,S*%
%TO.N,GND*%
X145440000Y-75445000D03*
%TD*%
D14*
%TO.P,R5,1*%
%TO.N,Net-(R5-Pad1)*%
X141350000Y-112200000D03*
%TO.P,R5,2*%
%TO.N,Net-(Q2-G)*%
X138250000Y-112200000D03*
%TD*%
D21*
%TO.P,R3,1*%
%TO.N,GND*%
X147300000Y-114700000D03*
%TO.P,R3,2*%
%TO.N,Net-(R3-Pad2)*%
X147300000Y-117800000D03*
%TD*%
D22*
%TO.P,A1,1,GPIO0*%
%TO.N,Net-(A1-GPIO0)*%
X109370000Y-105190000D03*
D23*
X109370000Y-104390000D03*
D24*
%TO.P,A1,2,GPIO1*%
%TO.N,Net-(A1-GPIO1)*%
X111910000Y-105190000D03*
D11*
X111910000Y-104390000D03*
D25*
%TO.P,A1,3,GND*%
%TO.N,GND*%
X114450000Y-105190000D03*
D26*
X114450000Y-104390000D03*
D24*
%TO.P,A1,4,GPIO2*%
%TO.N,unconnected-(A1-GPIO2-Pad4)*%
X116990000Y-105190000D03*
D11*
X116990000Y-104390000D03*
D24*
%TO.P,A1,5,GPIO3*%
%TO.N,unconnected-(A1-GPIO3-Pad5)*%
X119530000Y-105190000D03*
D11*
X119530000Y-104390000D03*
D24*
%TO.P,A1,6,GPIO4*%
%TO.N,unconnected-(A1-GPIO4-Pad6)*%
X122070000Y-105190000D03*
D11*
X122070000Y-104390000D03*
D24*
%TO.P,A1,7,GPIO5*%
%TO.N,unconnected-(A1-GPIO5-Pad7)*%
X124610000Y-105190000D03*
D11*
X124610000Y-104390000D03*
D25*
%TO.P,A1,8,GND*%
%TO.N,GND*%
X127150000Y-105190000D03*
D26*
X127150000Y-104390000D03*
D24*
%TO.P,A1,9,GPIO6*%
%TO.N,unconnected-(A1-GPIO6-Pad9)*%
X129690000Y-105190000D03*
D11*
X129690000Y-104390000D03*
D24*
%TO.P,A1,10,GPIO7*%
%TO.N,unconnected-(A1-GPIO7-Pad10)*%
X132230000Y-105190000D03*
D11*
X132230000Y-104390000D03*
D24*
%TO.P,A1,11,GPIO8*%
%TO.N,unconnected-(A1-GPIO8-Pad11)*%
X134770000Y-105190000D03*
D11*
X134770000Y-104390000D03*
D24*
%TO.P,A1,12,GPIO9*%
%TO.N,unconnected-(A1-GPIO9-Pad12)*%
X137310000Y-105190000D03*
D11*
X137310000Y-104390000D03*
D25*
%TO.P,A1,13,GND*%
%TO.N,GND*%
X139850000Y-105190000D03*
D26*
X139850000Y-104390000D03*
D24*
%TO.P,A1,14,GPIO10*%
%TO.N,unconnected-(A1-GPIO10-Pad14)*%
X142390000Y-105190000D03*
D11*
X142390000Y-104390000D03*
D24*
%TO.P,A1,15,GPIO11*%
%TO.N,unconnected-(A1-GPIO11-Pad15)*%
X144930000Y-105190000D03*
D11*
X144930000Y-104390000D03*
D24*
%TO.P,A1,16,GPIO12*%
%TO.N,unconnected-(A1-GPIO12-Pad16)*%
X147470000Y-105190000D03*
D11*
X147470000Y-104390000D03*
D24*
%TO.P,A1,17,GPIO13*%
%TO.N,unconnected-(A1-GPIO13-Pad17)*%
X150010000Y-105190000D03*
D11*
X150010000Y-104390000D03*
D25*
%TO.P,A1,18,GND*%
%TO.N,GND*%
X152550000Y-105190000D03*
D26*
X152550000Y-104390000D03*
D24*
%TO.P,A1,19,GPIO14*%
%TO.N,unconnected-(A1-GPIO14-Pad19)*%
X155090000Y-105190000D03*
D11*
X155090000Y-104390000D03*
D24*
%TO.P,A1,20,GPIO15*%
%TO.N,unconnected-(A1-GPIO15-Pad20)*%
X157630000Y-105190000D03*
D11*
X157630000Y-104390000D03*
%TO.P,A1,21,GPIO16*%
%TO.N,Net-(A1-GPIO16)*%
X157630000Y-86610000D03*
D24*
X157630000Y-85810000D03*
D11*
%TO.P,A1,22,GPIO17*%
%TO.N,Net-(A1-GPIO17)*%
X155090000Y-86610000D03*
D24*
X155090000Y-85810000D03*
D27*
%TO.P,A1,23,GND*%
%TO.N,GND*%
X152550000Y-86610000D03*
D22*
X152550000Y-85810000D03*
D11*
%TO.P,A1,24,GPIO18*%
%TO.N,unconnected-(A1-GPIO18-Pad24)*%
X150010000Y-86610000D03*
D24*
X150010000Y-85810000D03*
D11*
%TO.P,A1,25,GPIO19*%
%TO.N,unconnected-(A1-GPIO19-Pad25)*%
X147470000Y-86610000D03*
D24*
X147470000Y-85810000D03*
D11*
%TO.P,A1,26,GPIO20*%
%TO.N,unconnected-(A1-GPIO20-Pad26)*%
X144930000Y-86610000D03*
D24*
X144930000Y-85810000D03*
D11*
%TO.P,A1,27,GPIO21*%
%TO.N,unconnected-(A1-GPIO21-Pad27)*%
X142390000Y-86610000D03*
D24*
X142390000Y-85810000D03*
D27*
%TO.P,A1,28,GND*%
%TO.N,GND*%
X139850000Y-86610000D03*
D22*
X139850000Y-85810000D03*
D11*
%TO.P,A1,29,GPIO22*%
%TO.N,unconnected-(A1-GPIO22-Pad29)*%
X137310000Y-86610000D03*
D24*
X137310000Y-85810000D03*
D11*
%TO.P,A1,30,RUN*%
%TO.N,unconnected-(A1-RUN-Pad30)*%
X134770000Y-86610000D03*
D24*
X134770000Y-85810000D03*
D11*
%TO.P,A1,31,GPIO26_ADC0*%
%TO.N,Net-(A1-GPIO26_ADC0)*%
X132230000Y-86610000D03*
D24*
X132230000Y-85810000D03*
D11*
%TO.P,A1,32,GPIO27_ADC1*%
%TO.N,Net-(A1-GPIO27_ADC1)*%
X129690000Y-86610000D03*
D24*
X129690000Y-85810000D03*
D27*
%TO.P,A1,33,AGND*%
%TO.N,GND*%
X127150000Y-86610000D03*
D22*
X127150000Y-85810000D03*
D11*
%TO.P,A1,34,GPIO28_ADC2*%
%TO.N,Net-(A1-GPIO28_ADC2)*%
X124610000Y-86610000D03*
D24*
X124610000Y-85810000D03*
D11*
%TO.P,A1,35,ADC_VREF*%
%TO.N,unconnected-(A1-ADC_VREF-Pad35)*%
X122070000Y-86610000D03*
D24*
X122070000Y-85810000D03*
D11*
%TO.P,A1,36,3V3*%
%TO.N,Net-(A1-3V3)*%
X119530000Y-86610000D03*
D24*
X119530000Y-85810000D03*
D11*
%TO.P,A1,37,3V3_EN*%
%TO.N,unconnected-(A1-3V3_EN-Pad37)*%
X116990000Y-86610000D03*
D24*
X116990000Y-85810000D03*
D27*
%TO.P,A1,38,GND*%
%TO.N,GND*%
X114450000Y-86610000D03*
D22*
X114450000Y-85810000D03*
D11*
%TO.P,A1,39,VSYS*%
%TO.N,Net-(A1-VSYS)*%
X111910000Y-86610000D03*
D24*
X111910000Y-85810000D03*
D11*
%TO.P,A1,40,VBUS*%
%TO.N,unconnected-(A1-VBUS-Pad40)*%
X109370000Y-86610000D03*
D24*
X109370000Y-85810000D03*
%TD*%
D28*
%TO.P,J3,1,Pin_1*%
%TO.N,Net-(A1-3V3)*%
X173100000Y-97080000D03*
D29*
%TO.P,J3,2,Pin_2*%
%TO.N,Net-(A1-GPIO0)*%
X173100000Y-99620000D03*
%TO.P,J3,3,Pin_3*%
%TO.N,Net-(A1-GPIO1)*%
X173100000Y-102160000D03*
%TO.P,J3,4,Pin_4*%
%TO.N,GND*%
X173100000Y-104700000D03*
%TD*%
D18*
%TO.P,J1,1,Pin_1*%
%TO.N,Net-(J1-Pin_1)*%
X124000000Y-75660000D03*
D19*
%TO.P,J1,2,Pin_2*%
%TO.N,+24V*%
X124000000Y-80740000D03*
%TD*%
D18*
%TO.P,J5,1,Pin_1*%
%TO.N,GND*%
X164500000Y-91740000D03*
D19*
%TO.P,J5,2,Pin_2*%
%TO.N,Net-(A1-3V3)*%
X164500000Y-86660000D03*
%TD*%
D21*
%TO.P,R6,1*%
%TO.N,GND*%
X142500000Y-114900000D03*
%TO.P,R6,2*%
%TO.N,Net-(Q2-G)*%
X142500000Y-118000000D03*
%TD*%
D18*
%TO.P,J6,1,Pin_1*%
%TO.N,Net-(A1-GPIO26_ADC0)*%
X164500000Y-80540000D03*
D19*
%TO.P,J6,2,Pin_2*%
%TO.N,Net-(A1-GPIO27_ADC1)*%
X164500000Y-75460000D03*
%TD*%
D30*
%TO.P,R2,1*%
%TO.N,GND*%
X149500000Y-81500000D03*
%TO.P,R2,2*%
%TO.N,Net-(Q1-G)*%
X152600000Y-81500000D03*
%TD*%
D31*
%TO.P,U4,1,VI*%
%TO.N,+24V*%
X158325000Y-78105000D03*
D32*
%TO.P,U4,2,GND*%
%TO.N,GND*%
X153700000Y-77350000D03*
X153700000Y-74300000D03*
D33*
X152025000Y-75825000D03*
D32*
X150350000Y-77350000D03*
X150350000Y-74300000D03*
D31*
%TO.P,U4,3,VO*%
%TO.N,Net-(D3-A)*%
X158325000Y-73545000D03*
%TD*%
D21*
%TO.P,R4,1*%
%TO.N,GND*%
X147600000Y-108550000D03*
%TO.P,R4,2*%
%TO.N,Net-(R4-Pad2)*%
X147600000Y-111650000D03*
%TD*%
D18*
%TO.P,J2,1,Pin_1*%
%TO.N,Net-(J2-Pin_1)*%
X124000000Y-110060000D03*
D19*
%TO.P,J2,2,Pin_2*%
%TO.N,+24V*%
X124000000Y-115140000D03*
%TD*%
D34*
%TO.N,Net-(R1-Pad1)*%
X144800000Y-113100000D03*
X149500000Y-91600000D03*
%TO.N,Net-(A1-GPIO16)*%
X162000000Y-104400000D03*
X160400000Y-98900000D03*
%TO.N,Net-(A1-GPIO17)*%
X154000000Y-90000000D03*
X159800000Y-104900000D03*
%TO.N,Net-(A1-GPIO26_ADC0)*%
X141800000Y-91000000D03*
%TO.N,Net-(A1-VSYS)*%
X136000000Y-89700000D03*
%TO.N,Net-(A1-GPIO27_ADC1)*%
X132200000Y-95100000D03*
X143000000Y-94400000D03*
%TO.N,Net-(A1-3V3)*%
X158500000Y-90400000D03*
%TD*%
D35*
%TO.N,GND*%
X143900000Y-76985000D02*
X145440000Y-75445000D01*
X145200000Y-83100000D02*
X143900000Y-81800000D01*
X147900000Y-83100000D02*
X145200000Y-83100000D01*
X143900000Y-81800000D02*
X143900000Y-76985000D01*
X149500000Y-81500000D02*
X147900000Y-83100000D01*
X152550000Y-84550000D02*
X149500000Y-81500000D01*
D36*
X147345000Y-77350000D02*
X145440000Y-75445000D01*
X150350000Y-77350000D02*
X147345000Y-77350000D01*
D35*
X149850000Y-108550000D02*
X147600000Y-108550000D01*
X152550000Y-105850000D02*
X149850000Y-108550000D01*
X152550000Y-104390000D02*
X152550000Y-105850000D01*
%TO.N,Net-(A1-GPIO16)*%
X160400000Y-89380000D02*
X160400000Y-98900000D01*
X157630000Y-86610000D02*
X160400000Y-89380000D01*
%TO.N,Net-(A1-3V3)*%
X157354508Y-93045492D02*
X125965492Y-93045492D01*
X158500000Y-91900000D02*
X157354508Y-93045492D01*
X125965492Y-93045492D02*
X119530000Y-86610000D01*
X158500000Y-90400000D02*
X158500000Y-91900000D01*
%TO.N,+24V*%
X162300000Y-82080000D02*
X158325000Y-78105000D01*
X162300000Y-98761394D02*
X162300000Y-82080000D01*
X164238606Y-100700000D02*
X162300000Y-98761394D01*
%TO.N,Net-(A1-GPIO0)*%
X109300000Y-104320000D02*
X109370000Y-104390000D01*
X109300000Y-102500000D02*
X109300000Y-104320000D01*
X112399000Y-99401000D02*
X109300000Y-102500000D01*
X113141379Y-99401000D02*
X112399000Y-99401000D01*
X114006000Y-98536379D02*
X113141379Y-99401000D01*
X115500000Y-96300000D02*
X114006000Y-97794000D01*
X155800000Y-96300000D02*
X115500000Y-96300000D01*
X114006000Y-97794000D02*
X114006000Y-98536379D01*
X161700000Y-102200000D02*
X155800000Y-96300000D01*
X170520000Y-102200000D02*
X161700000Y-102200000D01*
X173100000Y-99620000D02*
X170520000Y-102200000D01*
%TO.N,GND*%
X147550000Y-108600000D02*
X147600000Y-108550000D01*
X139900000Y-113300000D02*
X141500000Y-114900000D01*
X149082500Y-75445000D02*
X150425000Y-74102500D01*
X147600000Y-108550000D02*
X142350000Y-108550000D01*
X142350000Y-108550000D02*
X139900000Y-111000000D01*
X142500000Y-114900000D02*
X147100000Y-114900000D01*
X132160000Y-115255000D02*
X131030000Y-114125000D01*
X141500000Y-114900000D02*
X142500000Y-114900000D01*
X140600000Y-110300000D02*
X142300000Y-108600000D01*
X132160000Y-115255000D02*
X137115000Y-110300000D01*
X131030000Y-114125000D02*
X131030000Y-109700000D01*
D37*
X152550000Y-86610000D02*
X152550000Y-84550000D01*
D35*
X142300000Y-108600000D02*
X144710000Y-108600000D01*
X139900000Y-111000000D02*
X139900000Y-113300000D01*
X147100000Y-114900000D02*
X147300000Y-114700000D01*
X144710000Y-108600000D02*
X147550000Y-108600000D01*
D36*
X145440000Y-75445000D02*
X149082500Y-75445000D01*
D35*
X137115000Y-110300000D02*
X140600000Y-110300000D01*
D37*
%TO.N,Net-(Q1-G)*%
X144509000Y-83809000D02*
X145427472Y-83809000D01*
X153000000Y-88600000D02*
X153800000Y-87800000D01*
X146269000Y-87569000D02*
X147300000Y-88600000D01*
X152600000Y-81500000D02*
X153800000Y-81500000D01*
X140360000Y-79660000D02*
X144509000Y-83809000D01*
X140360000Y-75445000D02*
X140360000Y-79660000D01*
X147300000Y-88600000D02*
X153000000Y-88600000D01*
X153800000Y-87800000D02*
X153800000Y-81500000D01*
X146269000Y-84650528D02*
X146269000Y-87569000D01*
X153800000Y-81500000D02*
X155000000Y-81500000D01*
X145427472Y-83809000D02*
X146269000Y-84650528D01*
%TO.N,Net-(R1-Pad1)*%
X156291000Y-89509000D02*
X156291000Y-83309000D01*
X154200000Y-91600000D02*
X156291000Y-89509000D01*
X149470000Y-114870000D02*
X150885000Y-114870000D01*
X147700000Y-113100000D02*
X149470000Y-114870000D01*
X144800000Y-113100000D02*
X147700000Y-113100000D01*
X149500000Y-91600000D02*
X154200000Y-91600000D01*
X156291000Y-83309000D02*
X158100000Y-81500000D01*
D35*
%TO.N,Net-(A1-GPIO16)*%
X162000000Y-104400000D02*
X161400000Y-105000000D01*
X161400000Y-105000000D02*
X161400000Y-115400000D01*
X161400000Y-115400000D02*
X159390000Y-117410000D01*
X159390000Y-117410000D02*
X158505000Y-117410000D01*
%TO.N,Net-(A1-GPIO17)*%
X159800000Y-111035000D02*
X159800000Y-104900000D01*
X154000000Y-90000000D02*
X155090000Y-88910000D01*
X158505000Y-112330000D02*
X159800000Y-111035000D01*
X155090000Y-88910000D02*
X155090000Y-85810000D01*
%TO.N,Net-(A1-GPIO1)*%
X115250000Y-99300000D02*
X111900000Y-102650000D01*
X173120000Y-102180000D02*
X172200000Y-103100000D01*
X172200000Y-103100000D02*
X160500000Y-103100000D01*
X156700000Y-99300000D02*
X115250000Y-99300000D01*
X160500000Y-103100000D02*
X156700000Y-99300000D01*
X173100000Y-102160000D02*
X173120000Y-102180000D01*
X111900000Y-104380000D02*
X111910000Y-104390000D01*
X111900000Y-102650000D02*
X111900000Y-104380000D01*
%TO.N,Net-(A1-GPIO26_ADC0)*%
X133513661Y-91000000D02*
X132230000Y-89716339D01*
X132230000Y-89716339D02*
X132230000Y-86610000D01*
X141800000Y-91000000D02*
X133513661Y-91000000D01*
D37*
%TO.N,Net-(A1-VSYS)*%
X136000000Y-89700000D02*
X136000000Y-83690000D01*
X136000000Y-83690000D02*
X138190000Y-81500000D01*
D35*
%TO.N,Net-(A1-GPIO27_ADC1)*%
X132900000Y-94400000D02*
X132200000Y-95100000D01*
X143000000Y-94400000D02*
X132900000Y-94400000D01*
%TO.N,+24V*%
X124000000Y-80740000D02*
X111360000Y-80740000D01*
X108100000Y-82900000D02*
X106400000Y-85960959D01*
X111360000Y-80740000D02*
X108100000Y-82900000D01*
X106400000Y-104600000D02*
X106972480Y-106126614D01*
X106400000Y-85960959D02*
X106400000Y-104600000D01*
X115334099Y-115134099D02*
X115343171Y-115140000D01*
X107849000Y-107649000D02*
X115334099Y-115134099D01*
X107172142Y-106493797D02*
X107849000Y-107649000D01*
X115343171Y-115140000D02*
X124000000Y-115140000D01*
X106972480Y-106126614D02*
X107172142Y-106493797D01*
%TO.N,Net-(D3-A)*%
X155897002Y-79600000D02*
X156400000Y-79097002D01*
X145810000Y-81500000D02*
X147710000Y-79600000D01*
X147710000Y-79600000D02*
X155897002Y-79600000D01*
X156400000Y-75347500D02*
X158400000Y-73347500D01*
X156400000Y-79097002D02*
X156400000Y-75347500D01*
%TO.N,Net-(Q2-G)*%
X138250000Y-114245000D02*
X137240000Y-115255000D01*
X139985000Y-118000000D02*
X137240000Y-115255000D01*
X138250000Y-112200000D02*
X138250000Y-114245000D01*
X142500000Y-118000000D02*
X139985000Y-118000000D01*
D38*
%TO.N,Net-(R3-Pad2)*%
X147300000Y-117800000D02*
X148941000Y-116159000D01*
X148941000Y-116159000D02*
X157216000Y-116159000D01*
X157216000Y-116159000D02*
X158505000Y-114870000D01*
%TO.N,Net-(R4-Pad2)*%
X154714000Y-113581000D02*
X158505000Y-109790000D01*
X149531000Y-113581000D02*
X154714000Y-113581000D01*
X147600000Y-111650000D02*
X149531000Y-113581000D01*
D35*
%TO.N,Net-(R5-Pad1)*%
X150176000Y-110499000D02*
X150885000Y-109790000D01*
X143051000Y-110499000D02*
X150176000Y-110499000D01*
X141350000Y-112200000D02*
X143051000Y-110499000D01*
%TD*%
%TA.AperFunction,Conductor*%
%TO.N,GND*%
G36*
X161645202Y-72000653D02*
G01*
X161682692Y-72001489D01*
X162597751Y-72021895D01*
X162602747Y-72022108D01*
X163552560Y-72082120D01*
X163557565Y-72082539D01*
X164504105Y-72181242D01*
X164509124Y-72181869D01*
X164705616Y-72210501D01*
X165450857Y-72319099D01*
X165455793Y-72319920D01*
X166391196Y-72495461D01*
X166396123Y-72496491D01*
X167323521Y-72710026D01*
X167328388Y-72711251D01*
X168246353Y-72962450D01*
X168251172Y-72963875D01*
X169158091Y-73252299D01*
X169162863Y-73253924D01*
X170009138Y-73561605D01*
X170057244Y-73579095D01*
X170061961Y-73580919D01*
X170942389Y-73942325D01*
X170946979Y-73944320D01*
X171811890Y-74341318D01*
X171816425Y-74343513D01*
X172664435Y-74775469D01*
X172668895Y-74777856D01*
X173498560Y-75244031D01*
X173502901Y-75246588D01*
X174312881Y-75746231D01*
X174317082Y-75748942D01*
X174763411Y-76050068D01*
X175106029Y-76281224D01*
X175110164Y-76284139D01*
X175876675Y-76848109D01*
X175880688Y-76851189D01*
X176623591Y-77445985D01*
X176627475Y-77449227D01*
X177345495Y-78073829D01*
X177349243Y-78077227D01*
X177847672Y-78547870D01*
X178041157Y-78730568D01*
X178044760Y-78734111D01*
X178108581Y-78799500D01*
X178709485Y-79415172D01*
X178712944Y-79418864D01*
X179103656Y-79853299D01*
X179263118Y-80030606D01*
X179349313Y-80126446D01*
X179352615Y-80130272D01*
X179428401Y-80221786D01*
X179959616Y-80863254D01*
X179962754Y-80867204D01*
X180539340Y-81624322D01*
X180542297Y-81628373D01*
X180564294Y-81659843D01*
X181087532Y-82408399D01*
X181090345Y-82412604D01*
X181247087Y-82657546D01*
X181533211Y-83104677D01*
X181603291Y-83214191D01*
X181605921Y-83218492D01*
X181736829Y-83442712D01*
X182085748Y-84040346D01*
X182088209Y-84044766D01*
X182534106Y-84885494D01*
X182536385Y-84890011D01*
X182947616Y-85748227D01*
X182949709Y-85752833D01*
X183325594Y-86627118D01*
X183327497Y-86631805D01*
X183576239Y-87282283D01*
X183637713Y-87443045D01*
X183667411Y-87520706D01*
X183669121Y-87525468D01*
X183972489Y-88427481D01*
X183974003Y-88432308D01*
X184240317Y-89345918D01*
X184241634Y-89350803D01*
X184470468Y-90274553D01*
X184471584Y-90279487D01*
X184662544Y-91211789D01*
X184663458Y-91216765D01*
X184816232Y-92156088D01*
X184816942Y-92161097D01*
X184931273Y-93105866D01*
X184931778Y-93110900D01*
X185007473Y-94059526D01*
X185007773Y-94064576D01*
X185044712Y-95015537D01*
X185044805Y-95020595D01*
X185042925Y-95972243D01*
X185042812Y-95977301D01*
X185002111Y-96928109D01*
X185001791Y-96933158D01*
X184922344Y-97881478D01*
X184921819Y-97886510D01*
X184803753Y-98830823D01*
X184803023Y-98835829D01*
X184646538Y-99774522D01*
X184645605Y-99779494D01*
X184450954Y-100711056D01*
X184449818Y-100715986D01*
X184217337Y-101638806D01*
X184216001Y-101643686D01*
X183946074Y-102556242D01*
X183944541Y-102561063D01*
X183637603Y-103461885D01*
X183635874Y-103466639D01*
X183292451Y-104354181D01*
X183290529Y-104358861D01*
X182911195Y-105231640D01*
X182909084Y-105236238D01*
X182494467Y-106092810D01*
X182492171Y-106097318D01*
X182042937Y-106936307D01*
X182040458Y-106940717D01*
X181557404Y-107760632D01*
X181554748Y-107764938D01*
X181038622Y-108564513D01*
X181035792Y-108568706D01*
X180487499Y-109346535D01*
X180484500Y-109350610D01*
X179904937Y-110105425D01*
X179901775Y-110109374D01*
X179291895Y-110839931D01*
X179288574Y-110843748D01*
X178649414Y-111548807D01*
X178645941Y-111552485D01*
X177978530Y-112230908D01*
X177974909Y-112234441D01*
X177280405Y-112885052D01*
X177276643Y-112888435D01*
X176556156Y-113510195D01*
X176552259Y-113513421D01*
X175807036Y-114105253D01*
X175803011Y-114108318D01*
X175034245Y-114669275D01*
X175030098Y-114672173D01*
X174239116Y-115201287D01*
X174234855Y-115204014D01*
X173422909Y-115700448D01*
X173418540Y-115702998D01*
X172587042Y-116165887D01*
X172582572Y-116168257D01*
X171732899Y-116596834D01*
X171728337Y-116599020D01*
X170861865Y-116992594D01*
X170857217Y-116994592D01*
X169975424Y-117352490D01*
X169970698Y-117354297D01*
X169075026Y-117675931D01*
X169070231Y-117677543D01*
X168162193Y-117962374D01*
X168157336Y-117963789D01*
X167238443Y-118211340D01*
X167233532Y-118212556D01*
X166305311Y-118422419D01*
X166300355Y-118423434D01*
X165364334Y-118595261D01*
X165359340Y-118596073D01*
X164417079Y-118729577D01*
X164412057Y-118730184D01*
X163465153Y-118825140D01*
X163460110Y-118825542D01*
X162510115Y-118881794D01*
X162505059Y-118881990D01*
X161551879Y-118899475D01*
X161549610Y-118899496D01*
X161549089Y-118899496D01*
X161485139Y-118899365D01*
X161484632Y-118899498D01*
X161476162Y-118899499D01*
X161476161Y-118899498D01*
X161476157Y-118899499D01*
X159374169Y-118899499D01*
X159307130Y-118879814D01*
X159261375Y-118827010D01*
X159251431Y-118757852D01*
X159280456Y-118694296D01*
X159335163Y-118657793D01*
X159374334Y-118644814D01*
X159523656Y-118552712D01*
X159647712Y-118428656D01*
X159739814Y-118279334D01*
X159786136Y-118139541D01*
X159825907Y-118082099D01*
X159834935Y-118075455D01*
X159900289Y-118031789D01*
X162021789Y-115910289D01*
X162054077Y-115861966D01*
X162072900Y-115833796D01*
X162126513Y-115788992D01*
X162195838Y-115780286D01*
X162258865Y-115810443D01*
X162295583Y-115869887D01*
X162300000Y-115902689D01*
X162300000Y-116987844D01*
X162306401Y-117047372D01*
X162306403Y-117047379D01*
X162356645Y-117182086D01*
X162356649Y-117182093D01*
X162442809Y-117297187D01*
X162442812Y-117297190D01*
X162557906Y-117383350D01*
X162557913Y-117383354D01*
X162692620Y-117433596D01*
X162692627Y-117433598D01*
X162752155Y-117439999D01*
X162752172Y-117440000D01*
X164050000Y-117440000D01*
X164050000Y-116159064D01*
X164078316Y-116170793D01*
X164225147Y-116200000D01*
X164374853Y-116200000D01*
X164521684Y-116170793D01*
X164550000Y-116159064D01*
X164550000Y-117440000D01*
X165847828Y-117440000D01*
X165847844Y-117439999D01*
X165907372Y-117433598D01*
X165907379Y-117433596D01*
X166042086Y-117383354D01*
X166042093Y-117383350D01*
X166157187Y-117297190D01*
X166157190Y-117297187D01*
X166243350Y-117182093D01*
X166243354Y-117182086D01*
X166293596Y-117047379D01*
X166293598Y-117047372D01*
X166299999Y-116987844D01*
X166300000Y-116987827D01*
X166300000Y-115690000D01*
X165019064Y-115690000D01*
X165030793Y-115661684D01*
X165060000Y-115514853D01*
X165060000Y-115365147D01*
X165030793Y-115218316D01*
X165019064Y-115190000D01*
X166300000Y-115190000D01*
X166300000Y-113892172D01*
X166299999Y-113892155D01*
X166293598Y-113832627D01*
X166293596Y-113832620D01*
X166243354Y-113697913D01*
X166243350Y-113697906D01*
X166157190Y-113582812D01*
X166157187Y-113582809D01*
X166042093Y-113496649D01*
X166042086Y-113496645D01*
X165907379Y-113446403D01*
X165907372Y-113446401D01*
X165847844Y-113440000D01*
X164550000Y-113440000D01*
X164550000Y-114720935D01*
X164521684Y-114709207D01*
X164374853Y-114680000D01*
X164225147Y-114680000D01*
X164078316Y-114709207D01*
X164050000Y-114720935D01*
X164050000Y-113440000D01*
X162752155Y-113440000D01*
X162692627Y-113446401D01*
X162692620Y-113446403D01*
X162557913Y-113496645D01*
X162557906Y-113496649D01*
X162442812Y-113582809D01*
X162423766Y-113608252D01*
X162367832Y-113650122D01*
X162298140Y-113655106D01*
X162236818Y-113621620D01*
X162203333Y-113560297D01*
X162200500Y-113533940D01*
X162200500Y-111142306D01*
X162220185Y-111075267D01*
X162272989Y-111029512D01*
X162342147Y-111019568D01*
X162405703Y-111048593D01*
X162439061Y-111094853D01*
X162501954Y-111246690D01*
X162501958Y-111246700D01*
X162633075Y-111473803D01*
X162792718Y-111681851D01*
X162792726Y-111681860D01*
X162978140Y-111867274D01*
X162978148Y-111867281D01*
X163186196Y-112026924D01*
X163413299Y-112158041D01*
X163413309Y-112158046D01*
X163647556Y-112255074D01*
X163655581Y-112258398D01*
X163908884Y-112326270D01*
X164168880Y-112360500D01*
X164168887Y-112360500D01*
X164431113Y-112360500D01*
X164431120Y-112360500D01*
X164691116Y-112326270D01*
X164944419Y-112258398D01*
X165186697Y-112158043D01*
X165413803Y-112026924D01*
X165621851Y-111867282D01*
X165621855Y-111867277D01*
X165621860Y-111867274D01*
X165807274Y-111681860D01*
X165807277Y-111681855D01*
X165807282Y-111681851D01*
X165966924Y-111473803D01*
X166098043Y-111246697D01*
X166198398Y-111004419D01*
X166266270Y-110751116D01*
X166300500Y-110491120D01*
X166300500Y-110228880D01*
X166266270Y-109968884D01*
X166198398Y-109715581D01*
X166186828Y-109687648D01*
X166098046Y-109473309D01*
X166098041Y-109473299D01*
X165966924Y-109246196D01*
X165807281Y-109038148D01*
X165807274Y-109038140D01*
X165621860Y-108852726D01*
X165621851Y-108852718D01*
X165413803Y-108693075D01*
X165186700Y-108561958D01*
X165186690Y-108561953D01*
X164944428Y-108461605D01*
X164944421Y-108461603D01*
X164944419Y-108461602D01*
X164691116Y-108393730D01*
X164633339Y-108386123D01*
X164431127Y-108359500D01*
X164431120Y-108359500D01*
X164168880Y-108359500D01*
X164168872Y-108359500D01*
X163937772Y-108389926D01*
X163908884Y-108393730D01*
X163715279Y-108445606D01*
X163655581Y-108461602D01*
X163655571Y-108461605D01*
X163413309Y-108561953D01*
X163413299Y-108561958D01*
X163186196Y-108693075D01*
X162978148Y-108852718D01*
X162792718Y-109038148D01*
X162633075Y-109246196D01*
X162501958Y-109473299D01*
X162501953Y-109473309D01*
X162439061Y-109625146D01*
X162395220Y-109679549D01*
X162328926Y-109701614D01*
X162261226Y-109684335D01*
X162213616Y-109633197D01*
X162200500Y-109577693D01*
X162200500Y-105634652D01*
X162220185Y-105567613D01*
X162272989Y-105521858D01*
X162286183Y-105516721D01*
X162441633Y-105466213D01*
X162441639Y-105466211D01*
X162602994Y-105383996D01*
X162749501Y-105277553D01*
X162877553Y-105149501D01*
X162983996Y-105002994D01*
X163066211Y-104841639D01*
X163122171Y-104669409D01*
X163147893Y-104507007D01*
X163150500Y-104490551D01*
X163150500Y-104309448D01*
X163122170Y-104130587D01*
X163100151Y-104062817D01*
X163098156Y-103992976D01*
X163134237Y-103933144D01*
X163196938Y-103902316D01*
X163218082Y-103900500D01*
X171789876Y-103900500D01*
X171856915Y-103920185D01*
X171902670Y-103972989D01*
X171912614Y-104042147D01*
X171900361Y-104080795D01*
X171848904Y-104181782D01*
X171783242Y-104383870D01*
X171783242Y-104383873D01*
X171772769Y-104450000D01*
X172666988Y-104450000D01*
X172634075Y-104507007D01*
X172600000Y-104634174D01*
X172600000Y-104765826D01*
X172634075Y-104892993D01*
X172666988Y-104950000D01*
X171772769Y-104950000D01*
X171783242Y-105016126D01*
X171783242Y-105016129D01*
X171848904Y-105218217D01*
X171945379Y-105407557D01*
X172070272Y-105579459D01*
X172070276Y-105579464D01*
X172220535Y-105729723D01*
X172220540Y-105729727D01*
X172392442Y-105854620D01*
X172581782Y-105951095D01*
X172783871Y-106016757D01*
X172850000Y-106027231D01*
X172850000Y-105133012D01*
X172907007Y-105165925D01*
X173034174Y-105200000D01*
X173165826Y-105200000D01*
X173292993Y-105165925D01*
X173350000Y-105133012D01*
X173350000Y-106027230D01*
X173416126Y-106016757D01*
X173416129Y-106016757D01*
X173618217Y-105951095D01*
X173807557Y-105854620D01*
X173979459Y-105729727D01*
X173979464Y-105729723D01*
X174129723Y-105579464D01*
X174129727Y-105579459D01*
X174254620Y-105407557D01*
X174351095Y-105218217D01*
X174416757Y-105016129D01*
X174416757Y-105016126D01*
X174427231Y-104950000D01*
X173533012Y-104950000D01*
X173565925Y-104892993D01*
X173600000Y-104765826D01*
X173600000Y-104634174D01*
X173565925Y-104507007D01*
X173533012Y-104450000D01*
X174427231Y-104450000D01*
X174416757Y-104383873D01*
X174416757Y-104383870D01*
X174351095Y-104181782D01*
X174254620Y-103992442D01*
X174129727Y-103820540D01*
X174129723Y-103820535D01*
X173979464Y-103670276D01*
X173979459Y-103670272D01*
X173807555Y-103545377D01*
X173798500Y-103540763D01*
X173747706Y-103492788D01*
X173730912Y-103424966D01*
X173753451Y-103358832D01*
X173798508Y-103319793D01*
X173807816Y-103315051D01*
X173918643Y-103234531D01*
X173979786Y-103190109D01*
X173979788Y-103190106D01*
X173979792Y-103190104D01*
X174130104Y-103039792D01*
X174130106Y-103039788D01*
X174130109Y-103039786D01*
X174255048Y-102867820D01*
X174255047Y-102867820D01*
X174255051Y-102867816D01*
X174351557Y-102678412D01*
X174417246Y-102476243D01*
X174450500Y-102266287D01*
X174450500Y-102053713D01*
X174417246Y-101843757D01*
X174351557Y-101641588D01*
X174255051Y-101452184D01*
X174255049Y-101452181D01*
X174255048Y-101452179D01*
X174130109Y-101280213D01*
X173979786Y-101129890D01*
X173807820Y-101004951D01*
X173806772Y-101004417D01*
X173799054Y-101000485D01*
X173748259Y-100952512D01*
X173731463Y-100884692D01*
X173753999Y-100818556D01*
X173784006Y-100788579D01*
X173791206Y-100783514D01*
X173800633Y-100778711D01*
X176749500Y-100778711D01*
X176749500Y-101021288D01*
X176781161Y-101261785D01*
X176843947Y-101496104D01*
X176904209Y-101641588D01*
X176936776Y-101720212D01*
X177058064Y-101930289D01*
X177058066Y-101930292D01*
X177058067Y-101930293D01*
X177205733Y-102122736D01*
X177205739Y-102122743D01*
X177377256Y-102294260D01*
X177377262Y-102294265D01*
X177569711Y-102441936D01*
X177779788Y-102563224D01*
X178003900Y-102656054D01*
X178238211Y-102718838D01*
X178418586Y-102742584D01*
X178478711Y-102750500D01*
X178478712Y-102750500D01*
X178721289Y-102750500D01*
X178769388Y-102744167D01*
X178961789Y-102718838D01*
X179196100Y-102656054D01*
X179420212Y-102563224D01*
X179630289Y-102441936D01*
X179822738Y-102294265D01*
X179994265Y-102122738D01*
X180141936Y-101930289D01*
X180263224Y-101720212D01*
X180356054Y-101496100D01*
X180418838Y-101261789D01*
X180450500Y-101021288D01*
X180450500Y-100778712D01*
X180418838Y-100538211D01*
X180356054Y-100303900D01*
X180263224Y-100079788D01*
X180141936Y-99869711D01*
X179994265Y-99677262D01*
X179994260Y-99677256D01*
X179822743Y-99505739D01*
X179822736Y-99505733D01*
X179630293Y-99358067D01*
X179630292Y-99358066D01*
X179630289Y-99358064D01*
X179451957Y-99255104D01*
X179420214Y-99236777D01*
X179420205Y-99236773D01*
X179196104Y-99143947D01*
X178961785Y-99081161D01*
X178721289Y-99049500D01*
X178721288Y-99049500D01*
X178478712Y-99049500D01*
X178478711Y-99049500D01*
X178238214Y-99081161D01*
X178003895Y-99143947D01*
X177779794Y-99236773D01*
X177779785Y-99236777D01*
X177569706Y-99358067D01*
X177377263Y-99505733D01*
X177377256Y-99505739D01*
X177205739Y-99677256D01*
X177205733Y-99677263D01*
X177058067Y-99869706D01*
X176936777Y-100079785D01*
X176936773Y-100079794D01*
X176843947Y-100303895D01*
X176781161Y-100538214D01*
X176749500Y-100778711D01*
X173800633Y-100778711D01*
X173807816Y-100775051D01*
X173947216Y-100673771D01*
X173947234Y-100673759D01*
X173979785Y-100650109D01*
X173979783Y-100650109D01*
X173979792Y-100650104D01*
X174130104Y-100499792D01*
X174130106Y-100499788D01*
X174130109Y-100499786D01*
X174255048Y-100327820D01*
X174255047Y-100327820D01*
X174255051Y-100327816D01*
X174351557Y-100138412D01*
X174417246Y-99936243D01*
X174450500Y-99726287D01*
X174450500Y-99513713D01*
X174417246Y-99303757D01*
X174351557Y-99101588D01*
X174255051Y-98912184D01*
X174255049Y-98912181D01*
X174255048Y-98912179D01*
X174130109Y-98740213D01*
X174016569Y-98626673D01*
X173983084Y-98565350D01*
X173988068Y-98495658D01*
X174029940Y-98439725D01*
X174060915Y-98422810D01*
X174192331Y-98373796D01*
X174307546Y-98287546D01*
X174393796Y-98172331D01*
X174444091Y-98037483D01*
X174450500Y-97977873D01*
X174450499Y-96182128D01*
X174444091Y-96122517D01*
X174393796Y-95987669D01*
X174393795Y-95987668D01*
X174393793Y-95987664D01*
X174307547Y-95872455D01*
X174307544Y-95872452D01*
X174192335Y-95786206D01*
X174192328Y-95786202D01*
X174057482Y-95735908D01*
X174057483Y-95735908D01*
X173997883Y-95729501D01*
X173997881Y-95729500D01*
X173997873Y-95729500D01*
X173997864Y-95729500D01*
X172202129Y-95729500D01*
X172202123Y-95729501D01*
X172142516Y-95735908D01*
X172007671Y-95786202D01*
X172007664Y-95786206D01*
X171892455Y-95872452D01*
X171892452Y-95872455D01*
X171806206Y-95987664D01*
X171806202Y-95987671D01*
X171755908Y-96122517D01*
X171753796Y-96142167D01*
X171749501Y-96182123D01*
X171749500Y-96182135D01*
X171749500Y-97977870D01*
X171749501Y-97977876D01*
X171755908Y-98037483D01*
X171806202Y-98172328D01*
X171806206Y-98172335D01*
X171892452Y-98287544D01*
X171892455Y-98287547D01*
X172007664Y-98373793D01*
X172007671Y-98373797D01*
X172139082Y-98422810D01*
X172195016Y-98464681D01*
X172219433Y-98530145D01*
X172204582Y-98598418D01*
X172183431Y-98626673D01*
X172069889Y-98740215D01*
X171944951Y-98912179D01*
X171848444Y-99101585D01*
X171782753Y-99303760D01*
X171749500Y-99513713D01*
X171749500Y-99726287D01*
X171749499Y-99726287D01*
X171754948Y-99760686D01*
X171745993Y-99829979D01*
X171720156Y-99867764D01*
X170224741Y-101363181D01*
X170163418Y-101396666D01*
X170137060Y-101399500D01*
X168043567Y-101399500D01*
X167976528Y-101379815D01*
X167930773Y-101327011D01*
X167920829Y-101257853D01*
X167933082Y-101219205D01*
X167943361Y-101199031D01*
X168006596Y-101004417D01*
X168038606Y-100802317D01*
X168038606Y-100597682D01*
X168006596Y-100395582D01*
X167943361Y-100200968D01*
X167850465Y-100018650D01*
X167818080Y-99974077D01*
X167818080Y-99974076D01*
X167138606Y-100653551D01*
X167138606Y-100647339D01*
X167111347Y-100545606D01*
X167058686Y-100454394D01*
X166984212Y-100379920D01*
X166893000Y-100327259D01*
X166791267Y-100300000D01*
X166785052Y-100300000D01*
X167464528Y-99620524D01*
X167464527Y-99620523D01*
X167419965Y-99588147D01*
X167419956Y-99588141D01*
X167237637Y-99495244D01*
X167043023Y-99432009D01*
X166840923Y-99400000D01*
X166636289Y-99400000D01*
X166434188Y-99432009D01*
X166239574Y-99495244D01*
X166057250Y-99588143D01*
X166012683Y-99620523D01*
X166012683Y-99620524D01*
X166692160Y-100300000D01*
X166685945Y-100300000D01*
X166584212Y-100327259D01*
X166493000Y-100379920D01*
X166418526Y-100454394D01*
X166365865Y-100545606D01*
X166338606Y-100647339D01*
X166338606Y-100653553D01*
X165654119Y-99969066D01*
X165604455Y-99958633D01*
X165554699Y-99909581D01*
X165542682Y-99878947D01*
X165539105Y-99864378D01*
X165539105Y-99852128D01*
X165532697Y-99792517D01*
X165499818Y-99704365D01*
X165499817Y-99704359D01*
X165482403Y-99657671D01*
X165482399Y-99657664D01*
X165396153Y-99542455D01*
X165396150Y-99542452D01*
X165280941Y-99456206D01*
X165280934Y-99456202D01*
X165146088Y-99405908D01*
X165146089Y-99405908D01*
X165086489Y-99399501D01*
X165086487Y-99399500D01*
X165086479Y-99399500D01*
X165086471Y-99399500D01*
X164121546Y-99399500D01*
X164054507Y-99379815D01*
X164033865Y-99363181D01*
X163136819Y-98466135D01*
X163103334Y-98404812D01*
X163100500Y-98378454D01*
X163100500Y-93864000D01*
X163120185Y-93796961D01*
X163172989Y-93751206D01*
X163224500Y-93740000D01*
X164250000Y-93740000D01*
X164250000Y-92459064D01*
X164278316Y-92470793D01*
X164425147Y-92500000D01*
X164574853Y-92500000D01*
X164721684Y-92470793D01*
X164750000Y-92459064D01*
X164750000Y-93740000D01*
X166047828Y-93740000D01*
X166047844Y-93739999D01*
X166107372Y-93733598D01*
X166107379Y-93733596D01*
X166242086Y-93683354D01*
X166242093Y-93683350D01*
X166357187Y-93597190D01*
X166357190Y-93597187D01*
X166443350Y-93482093D01*
X166443354Y-93482086D01*
X166493596Y-93347379D01*
X166493598Y-93347372D01*
X166499999Y-93287844D01*
X166500000Y-93287827D01*
X166500000Y-91990000D01*
X165219064Y-91990000D01*
X165230793Y-91961684D01*
X165260000Y-91814853D01*
X165260000Y-91665147D01*
X165230793Y-91518316D01*
X165219064Y-91490000D01*
X166500000Y-91490000D01*
X166500000Y-90192172D01*
X166499999Y-90192155D01*
X166493598Y-90132627D01*
X166493596Y-90132620D01*
X166443354Y-89997913D01*
X166443350Y-89997906D01*
X166357190Y-89882812D01*
X166357187Y-89882809D01*
X166242093Y-89796649D01*
X166242086Y-89796645D01*
X166107379Y-89746403D01*
X166107372Y-89746401D01*
X166047844Y-89740000D01*
X164750000Y-89740000D01*
X164750000Y-91020935D01*
X164721684Y-91009207D01*
X164574853Y-90980000D01*
X164425147Y-90980000D01*
X164278316Y-91009207D01*
X164250000Y-91020935D01*
X164250000Y-89740000D01*
X163224500Y-89740000D01*
X163157461Y-89720315D01*
X163111706Y-89667511D01*
X163100500Y-89616000D01*
X163100500Y-88359147D01*
X163120185Y-88292108D01*
X163172989Y-88246353D01*
X163242147Y-88236409D01*
X163299987Y-88260772D01*
X163386196Y-88326924D01*
X163613299Y-88458041D01*
X163613309Y-88458046D01*
X163855571Y-88558394D01*
X163855581Y-88558398D01*
X164108884Y-88626270D01*
X164368880Y-88660500D01*
X164368887Y-88660500D01*
X164631113Y-88660500D01*
X164631120Y-88660500D01*
X164891116Y-88626270D01*
X165144419Y-88558398D01*
X165386697Y-88458043D01*
X165613803Y-88326924D01*
X165821851Y-88167282D01*
X165821855Y-88167277D01*
X165821860Y-88167274D01*
X166007274Y-87981860D01*
X166007277Y-87981855D01*
X166007282Y-87981851D01*
X166166924Y-87773803D01*
X166298043Y-87546697D01*
X166398398Y-87304419D01*
X166466270Y-87051116D01*
X166500500Y-86791120D01*
X166500500Y-86528880D01*
X166466270Y-86268884D01*
X166398398Y-86015581D01*
X166398394Y-86015571D01*
X166298046Y-85773309D01*
X166298041Y-85773299D01*
X166166924Y-85546196D01*
X166021021Y-85356054D01*
X166007282Y-85338149D01*
X166007281Y-85338148D01*
X166007274Y-85338140D01*
X165821860Y-85152726D01*
X165821851Y-85152718D01*
X165613803Y-84993075D01*
X165386700Y-84861958D01*
X165386690Y-84861953D01*
X165144428Y-84761605D01*
X165144421Y-84761603D01*
X165144419Y-84761602D01*
X164891116Y-84693730D01*
X164833339Y-84686123D01*
X164631127Y-84659500D01*
X164631120Y-84659500D01*
X164368880Y-84659500D01*
X164368872Y-84659500D01*
X164137772Y-84689926D01*
X164108884Y-84693730D01*
X163992343Y-84724957D01*
X163855581Y-84761602D01*
X163855571Y-84761605D01*
X163613309Y-84861953D01*
X163613299Y-84861958D01*
X163386201Y-84993072D01*
X163299987Y-85059228D01*
X163234817Y-85084422D01*
X163166373Y-85070384D01*
X163116383Y-85021570D01*
X163100500Y-84960852D01*
X163100500Y-83478711D01*
X172049500Y-83478711D01*
X172049500Y-83721288D01*
X172081161Y-83961785D01*
X172143947Y-84196104D01*
X172236773Y-84420205D01*
X172236777Y-84420214D01*
X172251625Y-84445932D01*
X172358064Y-84630289D01*
X172358066Y-84630292D01*
X172358067Y-84630293D01*
X172505733Y-84822736D01*
X172505739Y-84822743D01*
X172677256Y-84994260D01*
X172677263Y-84994266D01*
X172713536Y-85022099D01*
X172869711Y-85141936D01*
X173079788Y-85263224D01*
X173303900Y-85356054D01*
X173538211Y-85418838D01*
X173718586Y-85442584D01*
X173778711Y-85450500D01*
X173778712Y-85450500D01*
X174021289Y-85450500D01*
X174069388Y-85444167D01*
X174261789Y-85418838D01*
X174496100Y-85356054D01*
X174720212Y-85263224D01*
X174930289Y-85141936D01*
X175122738Y-84994265D01*
X175294265Y-84822738D01*
X175441936Y-84630289D01*
X175563224Y-84420212D01*
X175656054Y-84196100D01*
X175718838Y-83961789D01*
X175750500Y-83721288D01*
X175750500Y-83478712D01*
X175718838Y-83238211D01*
X175656054Y-83003900D01*
X175563224Y-82779788D01*
X175441936Y-82569711D01*
X175318157Y-82408399D01*
X175294266Y-82377263D01*
X175294260Y-82377256D01*
X175122743Y-82205739D01*
X175122736Y-82205733D01*
X174930293Y-82058067D01*
X174930292Y-82058066D01*
X174930289Y-82058064D01*
X174720212Y-81936776D01*
X174720205Y-81936773D01*
X174496104Y-81843947D01*
X174261785Y-81781161D01*
X174021289Y-81749500D01*
X174021288Y-81749500D01*
X173778712Y-81749500D01*
X173778711Y-81749500D01*
X173538214Y-81781161D01*
X173303895Y-81843947D01*
X173079794Y-81936773D01*
X173079785Y-81936777D01*
X172869706Y-82058067D01*
X172677263Y-82205733D01*
X172677256Y-82205739D01*
X172505739Y-82377256D01*
X172505733Y-82377263D01*
X172358067Y-82569706D01*
X172236777Y-82779785D01*
X172236773Y-82779794D01*
X172143947Y-83003895D01*
X172081161Y-83238214D01*
X172049500Y-83478711D01*
X163100500Y-83478711D01*
X163100500Y-82664499D01*
X163120185Y-82597460D01*
X163172989Y-82551705D01*
X163224500Y-82540499D01*
X166047871Y-82540499D01*
X166047872Y-82540499D01*
X166107483Y-82534091D01*
X166242331Y-82483796D01*
X166357546Y-82397546D01*
X166443796Y-82282331D01*
X166494091Y-82147483D01*
X166500500Y-82087873D01*
X166500499Y-78992128D01*
X166494091Y-78932517D01*
X166483736Y-78904755D01*
X166443797Y-78797671D01*
X166443793Y-78797664D01*
X166357547Y-78682455D01*
X166357544Y-78682452D01*
X166242335Y-78596206D01*
X166242328Y-78596202D01*
X166107482Y-78545908D01*
X166107483Y-78545908D01*
X166047883Y-78539501D01*
X166047881Y-78539500D01*
X166047873Y-78539500D01*
X166047864Y-78539500D01*
X162952129Y-78539500D01*
X162952123Y-78539501D01*
X162892516Y-78545908D01*
X162757671Y-78596202D01*
X162757664Y-78596206D01*
X162642455Y-78682452D01*
X162642452Y-78682455D01*
X162556206Y-78797664D01*
X162556202Y-78797671D01*
X162505908Y-78932517D01*
X162502095Y-78967990D01*
X162499501Y-78992123D01*
X162499500Y-78992135D01*
X162499500Y-80848060D01*
X162479815Y-80915099D01*
X162427011Y-80960854D01*
X162357853Y-80970798D01*
X162294297Y-80941773D01*
X162287819Y-80935741D01*
X159960824Y-78608746D01*
X159927339Y-78547423D01*
X159925148Y-78508454D01*
X159925499Y-78505016D01*
X159925500Y-78505009D01*
X159925499Y-77704992D01*
X159920299Y-77654091D01*
X159914999Y-77602203D01*
X159914998Y-77602200D01*
X159910556Y-77588794D01*
X159859814Y-77435666D01*
X159767712Y-77286344D01*
X159643656Y-77162288D01*
X159550888Y-77105069D01*
X159494336Y-77070187D01*
X159494331Y-77070185D01*
X159492261Y-77069499D01*
X159327797Y-77015001D01*
X159327795Y-77015000D01*
X159225010Y-77004500D01*
X157424998Y-77004500D01*
X157424980Y-77004501D01*
X157337101Y-77013479D01*
X157268408Y-77000709D01*
X157217524Y-76952828D01*
X157200500Y-76890121D01*
X157200500Y-75730439D01*
X157220185Y-75663400D01*
X157236814Y-75642762D01*
X157550704Y-75328872D01*
X162499500Y-75328872D01*
X162499500Y-75591127D01*
X162522792Y-75768039D01*
X162533730Y-75851116D01*
X162600922Y-76101881D01*
X162601602Y-76104418D01*
X162601605Y-76104428D01*
X162701953Y-76346690D01*
X162701958Y-76346700D01*
X162833075Y-76573803D01*
X162992718Y-76781851D01*
X162992726Y-76781860D01*
X163178140Y-76967274D01*
X163178148Y-76967281D01*
X163178149Y-76967282D01*
X163221712Y-77000709D01*
X163386196Y-77126924D01*
X163613299Y-77258041D01*
X163613309Y-77258046D01*
X163855571Y-77358394D01*
X163855581Y-77358398D01*
X164108884Y-77426270D01*
X164368880Y-77460500D01*
X164368887Y-77460500D01*
X164631113Y-77460500D01*
X164631120Y-77460500D01*
X164891116Y-77426270D01*
X165144419Y-77358398D01*
X165386697Y-77258043D01*
X165613803Y-77126924D01*
X165821851Y-76967282D01*
X165821855Y-76967277D01*
X165821860Y-76967274D01*
X166007274Y-76781860D01*
X166007277Y-76781855D01*
X166007282Y-76781851D01*
X166166924Y-76573803D01*
X166298043Y-76346697D01*
X166398398Y-76104419D01*
X166466270Y-75851116D01*
X166500500Y-75591120D01*
X166500500Y-75328880D01*
X166466270Y-75068884D01*
X166398398Y-74815581D01*
X166382257Y-74776613D01*
X166298046Y-74573309D01*
X166298041Y-74573299D01*
X166166924Y-74346196D01*
X166007281Y-74138148D01*
X166007274Y-74138140D01*
X165821860Y-73952726D01*
X165821851Y-73952718D01*
X165613803Y-73793075D01*
X165386700Y-73661958D01*
X165386690Y-73661953D01*
X165144428Y-73561605D01*
X165144421Y-73561603D01*
X165144419Y-73561602D01*
X164891116Y-73493730D01*
X164833339Y-73486123D01*
X164631127Y-73459500D01*
X164631120Y-73459500D01*
X164368880Y-73459500D01*
X164368872Y-73459500D01*
X164137772Y-73489926D01*
X164108884Y-73493730D01*
X163855581Y-73561602D01*
X163855571Y-73561605D01*
X163613309Y-73661953D01*
X163613299Y-73661958D01*
X163386196Y-73793075D01*
X163178148Y-73952718D01*
X162992718Y-74138148D01*
X162833075Y-74346196D01*
X162701958Y-74573299D01*
X162701953Y-74573309D01*
X162601605Y-74815571D01*
X162601602Y-74815581D01*
X162558979Y-74974655D01*
X162533730Y-75068885D01*
X162499500Y-75328872D01*
X157550704Y-75328872D01*
X158197759Y-74681817D01*
X158259082Y-74648333D01*
X158285440Y-74645499D01*
X159225002Y-74645499D01*
X159225008Y-74645499D01*
X159327797Y-74634999D01*
X159494334Y-74579814D01*
X159643656Y-74487712D01*
X159767712Y-74363656D01*
X159859814Y-74214334D01*
X159914999Y-74047797D01*
X159925500Y-73945009D01*
X159925499Y-73144992D01*
X159922426Y-73114913D01*
X159914999Y-73042203D01*
X159914998Y-73042200D01*
X159888791Y-72963114D01*
X159859814Y-72875666D01*
X159767712Y-72726344D01*
X159643656Y-72602288D01*
X159494334Y-72510186D01*
X159327797Y-72455001D01*
X159327795Y-72455000D01*
X159225010Y-72444500D01*
X157424998Y-72444500D01*
X157424981Y-72444501D01*
X157322203Y-72455000D01*
X157322200Y-72455001D01*
X157155668Y-72510185D01*
X157155663Y-72510187D01*
X157006342Y-72602289D01*
X156882289Y-72726342D01*
X156790187Y-72875663D01*
X156790186Y-72875666D01*
X156735001Y-73042203D01*
X156735001Y-73042204D01*
X156735000Y-73042204D01*
X156724500Y-73144983D01*
X156724500Y-73839559D01*
X156704815Y-73906598D01*
X156688181Y-73927240D01*
X155936680Y-74678741D01*
X155875357Y-74712226D01*
X155805665Y-74707242D01*
X155749732Y-74665370D01*
X155725315Y-74599906D01*
X155724999Y-74591059D01*
X155724999Y-74550000D01*
X153950000Y-74550000D01*
X153950000Y-77226000D01*
X153930315Y-77293039D01*
X153877511Y-77338794D01*
X153826000Y-77350000D01*
X153700000Y-77350000D01*
X153700000Y-77476000D01*
X153680315Y-77543039D01*
X153627511Y-77588794D01*
X153576000Y-77600000D01*
X148325001Y-77600000D01*
X148325001Y-78524988D01*
X148335494Y-78627700D01*
X148338409Y-78636497D01*
X148340811Y-78706325D01*
X148305079Y-78766367D01*
X148242558Y-78797559D01*
X148220703Y-78799500D01*
X147631153Y-78799500D01*
X147476510Y-78830260D01*
X147476502Y-78830262D01*
X147330824Y-78890604D01*
X147330814Y-78890609D01*
X147199711Y-78978210D01*
X147199707Y-78978213D01*
X146014022Y-80163898D01*
X145952699Y-80197383D01*
X145916619Y-80199835D01*
X145912359Y-80199500D01*
X145912352Y-80199500D01*
X145707648Y-80199500D01*
X145683329Y-80203351D01*
X145505465Y-80231522D01*
X145310776Y-80294781D01*
X145128386Y-80387715D01*
X144962786Y-80508028D01*
X144818028Y-80652786D01*
X144697715Y-80818386D01*
X144604781Y-81000776D01*
X144541522Y-81195465D01*
X144509500Y-81397648D01*
X144509500Y-81602351D01*
X144541522Y-81804534D01*
X144604781Y-81999223D01*
X144668691Y-82124653D01*
X144694354Y-82175018D01*
X144697715Y-82181613D01*
X144818028Y-82347213D01*
X144962786Y-82491971D01*
X145102318Y-82593345D01*
X145128390Y-82612287D01*
X145217212Y-82657544D01*
X145310776Y-82705218D01*
X145310778Y-82705218D01*
X145310781Y-82705220D01*
X145415137Y-82739127D01*
X145505465Y-82768477D01*
X145606557Y-82784488D01*
X145707648Y-82800500D01*
X145707649Y-82800500D01*
X145912351Y-82800500D01*
X145912352Y-82800500D01*
X146114534Y-82768477D01*
X146309219Y-82705220D01*
X146491610Y-82612287D01*
X146593802Y-82538041D01*
X146657213Y-82491971D01*
X146657215Y-82491968D01*
X146657219Y-82491966D01*
X146801966Y-82347219D01*
X146801968Y-82347215D01*
X146801971Y-82347213D01*
X146874574Y-82247282D01*
X146922287Y-82181610D01*
X146925662Y-82174986D01*
X148350001Y-82174986D01*
X148360494Y-82277697D01*
X148415641Y-82444119D01*
X148415643Y-82444124D01*
X148507684Y-82593345D01*
X148631654Y-82717315D01*
X148780875Y-82809356D01*
X148780880Y-82809358D01*
X148947302Y-82864505D01*
X148947309Y-82864506D01*
X149050019Y-82874999D01*
X149249999Y-82874999D01*
X149750000Y-82874999D01*
X149949972Y-82874999D01*
X149949986Y-82874998D01*
X150052697Y-82864505D01*
X150219119Y-82809358D01*
X150219124Y-82809356D01*
X150368345Y-82717315D01*
X150492315Y-82593345D01*
X150584356Y-82444124D01*
X150584358Y-82444119D01*
X150639505Y-82277697D01*
X150639506Y-82277690D01*
X150649999Y-82174986D01*
X150650000Y-82174973D01*
X150650000Y-81750000D01*
X149750000Y-81750000D01*
X149750000Y-82874999D01*
X149249999Y-82874999D01*
X149250000Y-82874998D01*
X149250000Y-81750000D01*
X148350001Y-81750000D01*
X148350001Y-82174986D01*
X146925662Y-82174986D01*
X147015220Y-81999219D01*
X147078477Y-81804534D01*
X147086863Y-81751586D01*
X147098322Y-81679240D01*
X147110500Y-81602351D01*
X147110500Y-81397652D01*
X147110165Y-81393404D01*
X147124519Y-81325024D01*
X147146096Y-81295980D01*
X148005259Y-80436819D01*
X148032186Y-80422115D01*
X148058005Y-80405523D01*
X148064205Y-80404631D01*
X148066582Y-80403334D01*
X148092940Y-80400500D01*
X148295409Y-80400500D01*
X148362448Y-80420185D01*
X148408203Y-80472989D01*
X148418147Y-80542147D01*
X148413115Y-80563504D01*
X148360494Y-80722302D01*
X148360493Y-80722309D01*
X148350000Y-80825013D01*
X148350000Y-81250000D01*
X150649999Y-81250000D01*
X150649999Y-80825028D01*
X150649998Y-80825013D01*
X150639505Y-80722302D01*
X150586885Y-80563504D01*
X150584483Y-80493676D01*
X150620215Y-80433634D01*
X150682735Y-80402441D01*
X150704591Y-80400500D01*
X151394883Y-80400500D01*
X151461922Y-80420185D01*
X151507677Y-80472989D01*
X151517621Y-80542147D01*
X151512589Y-80563504D01*
X151460001Y-80722203D01*
X151460000Y-80722204D01*
X151449500Y-80824983D01*
X151449500Y-82175001D01*
X151449501Y-82175018D01*
X151460000Y-82277796D01*
X151460001Y-82277799D01*
X151504332Y-82411578D01*
X151515186Y-82444334D01*
X151607288Y-82593656D01*
X151731344Y-82717712D01*
X151880666Y-82809814D01*
X152047203Y-82864999D01*
X152149991Y-82875500D01*
X152975500Y-82875499D01*
X153042539Y-82895183D01*
X153088294Y-82947987D01*
X153099500Y-82999499D01*
X153099500Y-83644268D01*
X153079815Y-83711307D01*
X153027011Y-83757062D01*
X152957853Y-83767006D01*
X152939507Y-83762929D01*
X152881872Y-83745446D01*
X152881849Y-83745440D01*
X152800000Y-83729160D01*
X152800000Y-85686000D01*
X152780315Y-85753039D01*
X152727511Y-85798794D01*
X152676000Y-85810000D01*
X152424000Y-85810000D01*
X152356961Y-85790315D01*
X152311206Y-85737511D01*
X152300000Y-85686000D01*
X152300000Y-83729161D01*
X152299999Y-83729160D01*
X152218150Y-83745440D01*
X152218139Y-83745443D01*
X152123387Y-83774185D01*
X151977801Y-83834490D01*
X151890498Y-83881155D01*
X151890478Y-83881167D01*
X151759469Y-83968704D01*
X151759463Y-83968708D01*
X151682935Y-84031514D01*
X151571514Y-84142935D01*
X151508708Y-84219463D01*
X151508704Y-84219469D01*
X151421167Y-84350478D01*
X151421155Y-84350499D01*
X151386534Y-84415269D01*
X151337571Y-84465113D01*
X151269433Y-84480573D01*
X151203753Y-84456741D01*
X151164794Y-84409219D01*
X151140570Y-84357271D01*
X151140567Y-84357265D01*
X151140566Y-84357264D01*
X151010047Y-84170861D01*
X151010045Y-84170858D01*
X150849141Y-84009954D01*
X150662734Y-83879432D01*
X150662732Y-83879431D01*
X150456497Y-83783261D01*
X150456488Y-83783258D01*
X150236697Y-83724366D01*
X150236687Y-83724364D01*
X150066785Y-83709500D01*
X150066784Y-83709500D01*
X149953216Y-83709500D01*
X149953215Y-83709500D01*
X149783312Y-83724364D01*
X149783302Y-83724366D01*
X149563511Y-83783258D01*
X149563502Y-83783261D01*
X149357267Y-83879431D01*
X149357265Y-83879432D01*
X149170858Y-84009954D01*
X149009954Y-84170858D01*
X148879432Y-84357265D01*
X148879431Y-84357267D01*
X148852382Y-84415275D01*
X148806209Y-84467714D01*
X148739016Y-84486866D01*
X148672135Y-84466650D01*
X148627618Y-84415275D01*
X148600568Y-84357267D01*
X148600567Y-84357265D01*
X148600566Y-84357264D01*
X148470047Y-84170861D01*
X148470045Y-84170858D01*
X148309141Y-84009954D01*
X148122734Y-83879432D01*
X148122732Y-83879431D01*
X147916497Y-83783261D01*
X147916488Y-83783258D01*
X147696697Y-83724366D01*
X147696687Y-83724364D01*
X147526785Y-83709500D01*
X147526784Y-83709500D01*
X147413216Y-83709500D01*
X147413215Y-83709500D01*
X147243312Y-83724364D01*
X147243302Y-83724366D01*
X147023511Y-83783258D01*
X147023502Y-83783261D01*
X146817267Y-83879431D01*
X146817265Y-83879432D01*
X146709164Y-83955125D01*
X146642957Y-83977452D01*
X146575190Y-83960441D01*
X146550360Y-83941231D01*
X145874018Y-83264888D01*
X145874015Y-83264886D01*
X145759279Y-83188222D01*
X145631804Y-83135421D01*
X145631794Y-83135418D01*
X145496468Y-83108500D01*
X145496466Y-83108500D01*
X145496465Y-83108500D01*
X144850519Y-83108500D01*
X144783480Y-83088815D01*
X144762838Y-83072181D01*
X141096819Y-79406162D01*
X141063334Y-79344839D01*
X141060500Y-79318481D01*
X141060500Y-77099999D01*
X148325000Y-77099999D01*
X148325002Y-77100000D01*
X150100000Y-77100000D01*
X150100000Y-76075000D01*
X150600000Y-76075000D01*
X150600000Y-77100000D01*
X153450000Y-77100000D01*
X153450000Y-74550000D01*
X152275000Y-74550000D01*
X152275000Y-75701000D01*
X152255315Y-75768039D01*
X152202511Y-75813794D01*
X152151000Y-75825000D01*
X152025000Y-75825000D01*
X152025000Y-75951000D01*
X152005315Y-76018039D01*
X151952511Y-76063794D01*
X151901000Y-76075000D01*
X150600000Y-76075000D01*
X150100000Y-76075000D01*
X148325000Y-76075000D01*
X148325000Y-77099999D01*
X141060500Y-77099999D01*
X141060500Y-77069499D01*
X141080185Y-77002460D01*
X141132989Y-76956705D01*
X141184500Y-76945499D01*
X141360371Y-76945499D01*
X141360372Y-76945499D01*
X141419983Y-76939091D01*
X141554831Y-76888796D01*
X141670046Y-76802546D01*
X141756296Y-76687331D01*
X141766690Y-76659460D01*
X141808560Y-76603527D01*
X141874023Y-76579108D01*
X141942297Y-76593958D01*
X141955746Y-76602465D01*
X142138462Y-76735217D01*
X142250920Y-76792517D01*
X142342244Y-76839049D01*
X142559751Y-76909721D01*
X142559752Y-76909721D01*
X142559755Y-76909722D01*
X142785646Y-76945500D01*
X142785647Y-76945500D01*
X143014353Y-76945500D01*
X143014354Y-76945500D01*
X143240245Y-76909722D01*
X143240248Y-76909721D01*
X143240249Y-76909721D01*
X143457755Y-76839049D01*
X143457755Y-76839048D01*
X143457758Y-76839048D01*
X143661538Y-76735217D01*
X143846566Y-76600786D01*
X144008286Y-76439066D01*
X144069992Y-76354134D01*
X144125319Y-76311470D01*
X144194932Y-76305491D01*
X144256727Y-76338096D01*
X144270626Y-76354135D01*
X144332097Y-76438741D01*
X144332097Y-76438742D01*
X144493757Y-76600402D01*
X144678723Y-76734788D01*
X144882429Y-76838582D01*
X145099871Y-76909234D01*
X145190000Y-76923509D01*
X145190000Y-75935747D01*
X145227708Y-75957518D01*
X145367591Y-75995000D01*
X145512409Y-75995000D01*
X145652292Y-75957518D01*
X145690000Y-75935747D01*
X145690000Y-76923508D01*
X145780128Y-76909234D01*
X145997570Y-76838582D01*
X146201276Y-76734788D01*
X146386242Y-76600402D01*
X146547902Y-76438742D01*
X146682288Y-76253776D01*
X146786082Y-76050068D01*
X146807121Y-75985320D01*
X146807121Y-75985319D01*
X146856734Y-75832628D01*
X146878532Y-75695000D01*
X145930748Y-75695000D01*
X145952518Y-75657292D01*
X145974568Y-75575000D01*
X148325000Y-75575000D01*
X150100000Y-75575000D01*
X150600000Y-75575000D01*
X151775000Y-75575000D01*
X151775000Y-74550000D01*
X150600000Y-74550000D01*
X150600000Y-75575000D01*
X150100000Y-75575000D01*
X150100000Y-74550000D01*
X148325000Y-74550000D01*
X148325000Y-75575000D01*
X145974568Y-75575000D01*
X145990000Y-75517409D01*
X145990000Y-75372591D01*
X145952518Y-75232708D01*
X145930748Y-75195000D01*
X146878532Y-75195000D01*
X146856734Y-75057371D01*
X146786082Y-74839929D01*
X146682286Y-74636220D01*
X146635284Y-74571526D01*
X146635282Y-74571524D01*
X146547902Y-74451258D01*
X146547902Y-74451257D01*
X146386242Y-74289597D01*
X146201276Y-74155211D01*
X145997568Y-74051417D01*
X145780124Y-73980765D01*
X145690000Y-73966490D01*
X145690000Y-74954252D01*
X145652292Y-74932482D01*
X145512409Y-74895000D01*
X145367591Y-74895000D01*
X145227708Y-74932482D01*
X145190000Y-74954252D01*
X145190000Y-73966490D01*
X145189999Y-73966490D01*
X145099875Y-73980765D01*
X144882431Y-74051417D01*
X144678723Y-74155211D01*
X144493757Y-74289597D01*
X144332097Y-74451257D01*
X144270627Y-74535864D01*
X144215297Y-74578529D01*
X144145684Y-74584508D01*
X144083889Y-74551902D01*
X144069991Y-74535864D01*
X144008286Y-74450934D01*
X143846566Y-74289214D01*
X143661538Y-74154783D01*
X143577813Y-74112123D01*
X143457755Y-74050950D01*
X143240248Y-73980278D01*
X143054812Y-73950908D01*
X143014354Y-73944500D01*
X142785646Y-73944500D01*
X142745188Y-73950908D01*
X142559753Y-73980278D01*
X142559750Y-73980278D01*
X142342244Y-74050950D01*
X142138461Y-74154783D01*
X141955759Y-74287525D01*
X141889952Y-74311005D01*
X141821898Y-74295180D01*
X141773203Y-74245074D01*
X141766690Y-74230538D01*
X141760647Y-74214336D01*
X141756296Y-74202669D01*
X141756293Y-74202664D01*
X141670047Y-74087455D01*
X141670044Y-74087452D01*
X141554835Y-74001206D01*
X141554828Y-74001202D01*
X141419982Y-73950908D01*
X141419983Y-73950908D01*
X141360383Y-73944501D01*
X141360381Y-73944500D01*
X141360373Y-73944500D01*
X141360364Y-73944500D01*
X139359629Y-73944500D01*
X139359623Y-73944501D01*
X139300016Y-73950908D01*
X139165171Y-74001202D01*
X139165164Y-74001206D01*
X139049955Y-74087452D01*
X139049952Y-74087455D01*
X138963706Y-74202664D01*
X138963702Y-74202671D01*
X138913408Y-74337517D01*
X138907001Y-74397116D01*
X138907000Y-74397135D01*
X138907000Y-76492870D01*
X138907001Y-76492876D01*
X138913408Y-76552483D01*
X138963702Y-76687328D01*
X138963706Y-76687335D01*
X139049952Y-76802544D01*
X139049955Y-76802547D01*
X139165164Y-76888793D01*
X139165171Y-76888797D01*
X139210118Y-76905561D01*
X139300017Y-76939091D01*
X139359627Y-76945500D01*
X139535500Y-76945499D01*
X139602539Y-76965183D01*
X139648294Y-77017987D01*
X139659500Y-77069499D01*
X139659500Y-79591006D01*
X139659500Y-79728994D01*
X139659500Y-79728996D01*
X139659499Y-79728996D01*
X139686418Y-79864322D01*
X139686421Y-79864332D01*
X139739222Y-79991807D01*
X139815887Y-80106545D01*
X139815888Y-80106546D01*
X143835891Y-84126548D01*
X143849578Y-84151614D01*
X143865868Y-84175080D01*
X143866110Y-84181891D01*
X143869376Y-84187871D01*
X143867338Y-84216357D01*
X143868356Y-84244905D01*
X143864732Y-84252796D01*
X143864392Y-84257563D01*
X143854846Y-84277512D01*
X143852459Y-84281533D01*
X143799432Y-84357266D01*
X143769778Y-84420857D01*
X143766636Y-84426153D01*
X143745387Y-84445932D01*
X143726209Y-84467714D01*
X143720126Y-84469447D01*
X143715495Y-84473759D01*
X143686928Y-84478910D01*
X143659016Y-84486866D01*
X143652959Y-84485035D01*
X143646734Y-84486158D01*
X143619918Y-84475048D01*
X143592135Y-84466650D01*
X143587926Y-84461793D01*
X143582186Y-84459415D01*
X143567361Y-84438060D01*
X143547618Y-84415275D01*
X143520568Y-84357267D01*
X143520567Y-84357265D01*
X143520566Y-84357264D01*
X143390047Y-84170861D01*
X143390045Y-84170858D01*
X143229141Y-84009954D01*
X143042734Y-83879432D01*
X143042732Y-83879431D01*
X142836497Y-83783261D01*
X142836488Y-83783258D01*
X142616697Y-83724366D01*
X142616687Y-83724364D01*
X142446785Y-83709500D01*
X142446784Y-83709500D01*
X142333216Y-83709500D01*
X142333215Y-83709500D01*
X142163312Y-83724364D01*
X142163302Y-83724366D01*
X141943511Y-83783258D01*
X141943502Y-83783261D01*
X141737267Y-83879431D01*
X141737265Y-83879432D01*
X141550858Y-84009954D01*
X141389954Y-84170858D01*
X141259433Y-84357264D01*
X141235205Y-84409221D01*
X141189032Y-84461660D01*
X141121838Y-84480811D01*
X141054957Y-84460595D01*
X141013465Y-84415268D01*
X140978849Y-84350506D01*
X140978832Y-84350478D01*
X140891295Y-84219469D01*
X140891291Y-84219463D01*
X140828485Y-84142935D01*
X140717064Y-84031514D01*
X140640536Y-83968708D01*
X140640530Y-83968704D01*
X140509521Y-83881167D01*
X140509501Y-83881155D01*
X140422198Y-83834490D01*
X140276612Y-83774185D01*
X140181860Y-83745443D01*
X140181849Y-83745440D01*
X140100000Y-83729160D01*
X140100000Y-86176988D01*
X140042993Y-86144075D01*
X139915826Y-86110000D01*
X139784174Y-86110000D01*
X139657007Y-86144075D01*
X139600000Y-86176988D01*
X139600000Y-83729161D01*
X139599999Y-83729160D01*
X139518150Y-83745440D01*
X139518139Y-83745443D01*
X139423387Y-83774185D01*
X139277801Y-83834490D01*
X139190498Y-83881155D01*
X139190478Y-83881167D01*
X139059469Y-83968704D01*
X139059463Y-83968708D01*
X138982935Y-84031514D01*
X138871514Y-84142935D01*
X138808708Y-84219463D01*
X138808704Y-84219469D01*
X138721167Y-84350478D01*
X138721155Y-84350499D01*
X138686534Y-84415269D01*
X138637571Y-84465113D01*
X138569433Y-84480573D01*
X138503753Y-84456741D01*
X138464794Y-84409219D01*
X138440570Y-84357271D01*
X138440567Y-84357265D01*
X138440566Y-84357264D01*
X138310047Y-84170861D01*
X138310045Y-84170858D01*
X138149141Y-84009954D01*
X137962734Y-83879432D01*
X137962732Y-83879431D01*
X137756497Y-83783261D01*
X137756488Y-83783258D01*
X137536697Y-83724366D01*
X137536687Y-83724364D01*
X137366785Y-83709500D01*
X137366784Y-83709500D01*
X137270518Y-83709500D01*
X137203479Y-83689815D01*
X137157724Y-83637011D01*
X137147780Y-83567853D01*
X137176805Y-83504297D01*
X137182837Y-83497819D01*
X137843838Y-82836818D01*
X137905161Y-82803333D01*
X137931519Y-82800499D01*
X139037871Y-82800499D01*
X139037872Y-82800499D01*
X139097483Y-82794091D01*
X139232331Y-82743796D01*
X139347546Y-82657546D01*
X139433796Y-82542331D01*
X139484091Y-82407483D01*
X139490500Y-82347873D01*
X139490499Y-80652128D01*
X139484091Y-80592517D01*
X139470347Y-80555668D01*
X139433797Y-80457671D01*
X139433793Y-80457664D01*
X139347547Y-80342455D01*
X139347544Y-80342452D01*
X139232335Y-80256206D01*
X139232328Y-80256202D01*
X139097482Y-80205908D01*
X139097483Y-80205908D01*
X139037883Y-80199501D01*
X139037881Y-80199500D01*
X139037873Y-80199500D01*
X139037864Y-80199500D01*
X137342129Y-80199500D01*
X137342123Y-80199501D01*
X137282516Y-80205908D01*
X137147671Y-80256202D01*
X137147664Y-80256206D01*
X137032455Y-80342452D01*
X137032452Y-80342455D01*
X136946206Y-80457664D01*
X136946202Y-80457671D01*
X136895908Y-80592517D01*
X136889501Y-80652116D01*
X136889501Y-80652123D01*
X136889500Y-80652135D01*
X136889500Y-81758480D01*
X136869815Y-81825519D01*
X136853181Y-81846161D01*
X135455883Y-83243459D01*
X135441570Y-83264883D01*
X135441568Y-83264886D01*
X135379228Y-83358182D01*
X135379221Y-83358195D01*
X135326421Y-83485667D01*
X135326418Y-83485677D01*
X135299500Y-83621004D01*
X135299500Y-83643901D01*
X135279815Y-83710940D01*
X135227011Y-83756695D01*
X135157853Y-83766639D01*
X135143407Y-83763676D01*
X134996697Y-83724366D01*
X134996687Y-83724364D01*
X134826785Y-83709500D01*
X134826784Y-83709500D01*
X134713216Y-83709500D01*
X134713215Y-83709500D01*
X134543312Y-83724364D01*
X134543302Y-83724366D01*
X134323511Y-83783258D01*
X134323502Y-83783261D01*
X134117267Y-83879431D01*
X134117265Y-83879432D01*
X133930858Y-84009954D01*
X133769954Y-84170858D01*
X133639432Y-84357265D01*
X133639431Y-84357267D01*
X133612382Y-84415275D01*
X133566209Y-84467714D01*
X133499016Y-84486866D01*
X133432135Y-84466650D01*
X133387618Y-84415275D01*
X133360568Y-84357267D01*
X133360567Y-84357265D01*
X133360566Y-84357264D01*
X133230047Y-84170861D01*
X133230045Y-84170858D01*
X133069141Y-84009954D01*
X132882734Y-83879432D01*
X132882732Y-83879431D01*
X132676497Y-83783261D01*
X132676488Y-83783258D01*
X132456697Y-83724366D01*
X132456687Y-83724364D01*
X132286785Y-83709500D01*
X132286784Y-83709500D01*
X132173216Y-83709500D01*
X132173215Y-83709500D01*
X132003312Y-83724364D01*
X132003302Y-83724366D01*
X131783511Y-83783258D01*
X131783502Y-83783261D01*
X131577267Y-83879431D01*
X131577265Y-83879432D01*
X131390858Y-84009954D01*
X131229954Y-84170858D01*
X131099432Y-84357265D01*
X131099431Y-84357267D01*
X131072382Y-84415275D01*
X131026209Y-84467714D01*
X130959016Y-84486866D01*
X130892135Y-84466650D01*
X130847618Y-84415275D01*
X130820568Y-84357267D01*
X130820567Y-84357265D01*
X130820566Y-84357264D01*
X130690047Y-84170861D01*
X130690045Y-84170858D01*
X130529141Y-84009954D01*
X130342734Y-83879432D01*
X130342732Y-83879431D01*
X130136497Y-83783261D01*
X130136488Y-83783258D01*
X129916697Y-83724366D01*
X129916687Y-83724364D01*
X129746785Y-83709500D01*
X129746784Y-83709500D01*
X129633216Y-83709500D01*
X129633215Y-83709500D01*
X129463312Y-83724364D01*
X129463302Y-83724366D01*
X129243511Y-83783258D01*
X129243502Y-83783261D01*
X129037267Y-83879431D01*
X129037265Y-83879432D01*
X128850858Y-84009954D01*
X128689954Y-84170858D01*
X128559433Y-84357264D01*
X128535205Y-84409221D01*
X128489032Y-84461660D01*
X128421838Y-84480811D01*
X128354957Y-84460595D01*
X128313465Y-84415268D01*
X128278849Y-84350506D01*
X128278832Y-84350478D01*
X128191295Y-84219469D01*
X128191291Y-84219463D01*
X128128485Y-84142935D01*
X128017064Y-84031514D01*
X127940536Y-83968708D01*
X127940530Y-83968704D01*
X127809521Y-83881167D01*
X127809501Y-83881155D01*
X127722198Y-83834490D01*
X127576612Y-83774185D01*
X127481860Y-83745443D01*
X127481849Y-83745440D01*
X127400000Y-83729160D01*
X127400000Y-86176988D01*
X127342993Y-86144075D01*
X127215826Y-86110000D01*
X127084174Y-86110000D01*
X126957007Y-86144075D01*
X126900000Y-86176988D01*
X126900000Y-83729161D01*
X126899999Y-83729160D01*
X126818150Y-83745440D01*
X126818139Y-83745443D01*
X126723387Y-83774185D01*
X126577801Y-83834490D01*
X126490498Y-83881155D01*
X126490478Y-83881167D01*
X126359469Y-83968704D01*
X126359463Y-83968708D01*
X126282935Y-84031514D01*
X126171514Y-84142935D01*
X126108708Y-84219463D01*
X126108704Y-84219469D01*
X126021167Y-84350478D01*
X126021155Y-84350499D01*
X125986534Y-84415269D01*
X125937571Y-84465113D01*
X125869433Y-84480573D01*
X125803753Y-84456741D01*
X125764794Y-84409219D01*
X125740570Y-84357271D01*
X125740567Y-84357265D01*
X125740566Y-84357264D01*
X125610047Y-84170861D01*
X125610045Y-84170858D01*
X125449141Y-84009954D01*
X125262734Y-83879432D01*
X125262732Y-83879431D01*
X125056497Y-83783261D01*
X125056488Y-83783258D01*
X124836697Y-83724366D01*
X124836687Y-83724364D01*
X124666785Y-83709500D01*
X124666784Y-83709500D01*
X124553216Y-83709500D01*
X124553215Y-83709500D01*
X124383312Y-83724364D01*
X124383302Y-83724366D01*
X124163511Y-83783258D01*
X124163502Y-83783261D01*
X123957267Y-83879431D01*
X123957265Y-83879432D01*
X123770858Y-84009954D01*
X123609954Y-84170858D01*
X123479432Y-84357265D01*
X123479431Y-84357267D01*
X123452382Y-84415275D01*
X123406209Y-84467714D01*
X123339016Y-84486866D01*
X123272135Y-84466650D01*
X123227618Y-84415275D01*
X123200568Y-84357267D01*
X123200567Y-84357265D01*
X123200566Y-84357264D01*
X123070047Y-84170861D01*
X123070045Y-84170858D01*
X122909141Y-84009954D01*
X122722734Y-83879432D01*
X122722732Y-83879431D01*
X122516497Y-83783261D01*
X122516488Y-83783258D01*
X122296697Y-83724366D01*
X122296687Y-83724364D01*
X122126785Y-83709500D01*
X122126784Y-83709500D01*
X122013216Y-83709500D01*
X122013215Y-83709500D01*
X121843312Y-83724364D01*
X121843302Y-83724366D01*
X121623511Y-83783258D01*
X121623502Y-83783261D01*
X121417267Y-83879431D01*
X121417265Y-83879432D01*
X121230858Y-84009954D01*
X121069954Y-84170858D01*
X120939432Y-84357265D01*
X120939431Y-84357267D01*
X120912382Y-84415275D01*
X120866209Y-84467714D01*
X120799016Y-84486866D01*
X120732135Y-84466650D01*
X120687618Y-84415275D01*
X120660568Y-84357267D01*
X120660567Y-84357265D01*
X120660566Y-84357264D01*
X120530047Y-84170861D01*
X120530045Y-84170858D01*
X120369141Y-84009954D01*
X120182734Y-83879432D01*
X120182732Y-83879431D01*
X119976497Y-83783261D01*
X119976488Y-83783258D01*
X119756697Y-83724366D01*
X119756687Y-83724364D01*
X119586785Y-83709500D01*
X119586784Y-83709500D01*
X119473216Y-83709500D01*
X119473215Y-83709500D01*
X119303312Y-83724364D01*
X119303302Y-83724366D01*
X119083511Y-83783258D01*
X119083502Y-83783261D01*
X118877267Y-83879431D01*
X118877265Y-83879432D01*
X118690858Y-84009954D01*
X118529954Y-84170858D01*
X118399432Y-84357265D01*
X118399431Y-84357267D01*
X118372382Y-84415275D01*
X118326209Y-84467714D01*
X118259016Y-84486866D01*
X118192135Y-84466650D01*
X118147618Y-84415275D01*
X118120568Y-84357267D01*
X118120567Y-84357265D01*
X118120566Y-84357264D01*
X117990047Y-84170861D01*
X117990045Y-84170858D01*
X117829141Y-84009954D01*
X117642734Y-83879432D01*
X117642732Y-83879431D01*
X117436497Y-83783261D01*
X117436488Y-83783258D01*
X117216697Y-83724366D01*
X117216687Y-83724364D01*
X117046785Y-83709500D01*
X117046784Y-83709500D01*
X116933216Y-83709500D01*
X116933215Y-83709500D01*
X116763312Y-83724364D01*
X116763302Y-83724366D01*
X116543511Y-83783258D01*
X116543502Y-83783261D01*
X116337267Y-83879431D01*
X116337265Y-83879432D01*
X116150858Y-84009954D01*
X115989954Y-84170858D01*
X115859433Y-84357264D01*
X115835205Y-84409221D01*
X115789032Y-84461660D01*
X115721838Y-84480811D01*
X115654957Y-84460595D01*
X115613465Y-84415268D01*
X115578849Y-84350506D01*
X115578832Y-84350478D01*
X115491295Y-84219469D01*
X115491291Y-84219463D01*
X115428485Y-84142935D01*
X115317064Y-84031514D01*
X115240536Y-83968708D01*
X115240530Y-83968704D01*
X115109521Y-83881167D01*
X115109501Y-83881155D01*
X115022198Y-83834490D01*
X114876612Y-83774185D01*
X114781860Y-83745443D01*
X114781849Y-83745440D01*
X114700000Y-83729160D01*
X114700000Y-86176988D01*
X114642993Y-86144075D01*
X114515826Y-86110000D01*
X114384174Y-86110000D01*
X114257007Y-86144075D01*
X114200000Y-86176988D01*
X114200000Y-83729161D01*
X114199999Y-83729160D01*
X114118150Y-83745440D01*
X114118139Y-83745443D01*
X114023387Y-83774185D01*
X113877801Y-83834490D01*
X113790498Y-83881155D01*
X113790478Y-83881167D01*
X113659469Y-83968704D01*
X113659463Y-83968708D01*
X113582935Y-84031514D01*
X113471514Y-84142935D01*
X113408708Y-84219463D01*
X113408704Y-84219469D01*
X113321167Y-84350478D01*
X113321155Y-84350499D01*
X113286534Y-84415269D01*
X113237571Y-84465113D01*
X113169433Y-84480573D01*
X113103753Y-84456741D01*
X113064794Y-84409219D01*
X113040570Y-84357271D01*
X113040567Y-84357265D01*
X113040566Y-84357264D01*
X112910047Y-84170861D01*
X112910045Y-84170858D01*
X112749141Y-84009954D01*
X112562734Y-83879432D01*
X112562732Y-83879431D01*
X112356497Y-83783261D01*
X112356488Y-83783258D01*
X112136697Y-83724366D01*
X112136687Y-83724364D01*
X111966785Y-83709500D01*
X111966784Y-83709500D01*
X111853216Y-83709500D01*
X111853215Y-83709500D01*
X111683312Y-83724364D01*
X111683302Y-83724366D01*
X111463511Y-83783258D01*
X111463502Y-83783261D01*
X111257267Y-83879431D01*
X111257265Y-83879432D01*
X111070858Y-84009954D01*
X110909954Y-84170858D01*
X110779432Y-84357265D01*
X110779431Y-84357267D01*
X110752382Y-84415275D01*
X110706209Y-84467714D01*
X110639016Y-84486866D01*
X110572135Y-84466650D01*
X110527618Y-84415275D01*
X110500568Y-84357267D01*
X110500567Y-84357265D01*
X110500566Y-84357264D01*
X110370047Y-84170861D01*
X110370045Y-84170858D01*
X110209141Y-84009954D01*
X110022734Y-83879432D01*
X110022732Y-83879431D01*
X109816497Y-83783261D01*
X109816488Y-83783258D01*
X109596697Y-83724366D01*
X109596687Y-83724364D01*
X109426785Y-83709500D01*
X109426784Y-83709500D01*
X109313216Y-83709500D01*
X109313215Y-83709500D01*
X109143312Y-83724364D01*
X109143302Y-83724366D01*
X108923511Y-83783258D01*
X108923504Y-83783260D01*
X108923504Y-83783261D01*
X108827609Y-83827978D01*
X108732254Y-83872443D01*
X108701032Y-83877185D01*
X108670117Y-83883679D01*
X108666743Y-83882393D01*
X108663176Y-83882935D01*
X108634345Y-83870043D01*
X108604829Y-83858793D01*
X108602686Y-83855888D01*
X108599392Y-83854415D01*
X108582104Y-83827978D01*
X108563360Y-83802561D01*
X108563128Y-83798959D01*
X108561153Y-83795939D01*
X108560902Y-83764348D01*
X108558875Y-83732835D01*
X108560615Y-83728268D01*
X108560598Y-83726071D01*
X108571445Y-83699856D01*
X108577022Y-83689815D01*
X108690286Y-83485874D01*
X108730196Y-83442714D01*
X111569995Y-81561130D01*
X111636753Y-81540512D01*
X111638485Y-81540500D01*
X122083399Y-81540500D01*
X122150438Y-81560185D01*
X122196193Y-81612989D01*
X122197961Y-81617051D01*
X122201950Y-81626683D01*
X122201958Y-81626700D01*
X122333075Y-81853803D01*
X122492718Y-82061851D01*
X122492726Y-82061860D01*
X122678140Y-82247274D01*
X122678148Y-82247281D01*
X122678149Y-82247282D01*
X122723822Y-82282328D01*
X122886196Y-82406924D01*
X123113299Y-82538041D01*
X123113309Y-82538046D01*
X123355571Y-82638394D01*
X123355581Y-82638398D01*
X123608884Y-82706270D01*
X123868880Y-82740500D01*
X123868887Y-82740500D01*
X124131113Y-82740500D01*
X124131120Y-82740500D01*
X124391116Y-82706270D01*
X124644419Y-82638398D01*
X124886697Y-82538043D01*
X125113803Y-82406924D01*
X125321851Y-82247282D01*
X125321855Y-82247277D01*
X125321860Y-82247274D01*
X125507274Y-82061860D01*
X125507277Y-82061855D01*
X125507282Y-82061851D01*
X125666924Y-81853803D01*
X125798043Y-81626697D01*
X125808128Y-81602351D01*
X125833747Y-81540500D01*
X125898398Y-81384419D01*
X125966270Y-81131116D01*
X126000500Y-80871120D01*
X126000500Y-80608880D01*
X125966270Y-80348884D01*
X125898398Y-80095581D01*
X125889206Y-80073390D01*
X125798046Y-79853309D01*
X125798041Y-79853299D01*
X125666924Y-79626196D01*
X125507832Y-79418866D01*
X125507282Y-79418149D01*
X125507281Y-79418148D01*
X125507274Y-79418140D01*
X125321860Y-79232726D01*
X125321851Y-79232718D01*
X125113803Y-79073075D01*
X124886700Y-78941958D01*
X124886690Y-78941953D01*
X124644428Y-78841605D01*
X124644421Y-78841603D01*
X124644419Y-78841602D01*
X124391116Y-78773730D01*
X124328027Y-78765424D01*
X124131127Y-78739500D01*
X124131120Y-78739500D01*
X123868880Y-78739500D01*
X123868872Y-78739500D01*
X123637772Y-78769926D01*
X123608884Y-78773730D01*
X123519535Y-78797671D01*
X123355581Y-78841602D01*
X123355571Y-78841605D01*
X123113309Y-78941953D01*
X123113299Y-78941958D01*
X122886196Y-79073075D01*
X122678148Y-79232718D01*
X122492718Y-79418148D01*
X122333075Y-79626196D01*
X122201958Y-79853299D01*
X122201950Y-79853316D01*
X122197961Y-79862949D01*
X122154122Y-79917354D01*
X122087828Y-79939421D01*
X122083399Y-79939500D01*
X111361562Y-79939500D01*
X111284266Y-79939200D01*
X111282727Y-79939500D01*
X111281158Y-79939500D01*
X111249300Y-79945836D01*
X111205645Y-79954520D01*
X111205176Y-79954612D01*
X111129483Y-79969364D01*
X111127898Y-79969838D01*
X111127768Y-79969877D01*
X111126568Y-79970235D01*
X111055365Y-79999727D01*
X111054924Y-79999909D01*
X110983573Y-80029140D01*
X110982156Y-80029890D01*
X110982064Y-80029940D01*
X110980874Y-80030569D01*
X110916786Y-80073390D01*
X110916388Y-80073655D01*
X109155248Y-81240546D01*
X109141077Y-81244922D01*
X109129131Y-81253713D01*
X109108367Y-81255025D01*
X109088490Y-81261165D01*
X109074201Y-81257185D01*
X109059400Y-81258121D01*
X109041225Y-81248001D01*
X109021182Y-81242419D01*
X109011312Y-81231345D01*
X108998356Y-81224131D01*
X108988537Y-81205791D01*
X108974694Y-81190259D01*
X108972378Y-81175609D01*
X108965378Y-81162534D01*
X108967033Y-81141793D01*
X108963786Y-81121246D01*
X108969852Y-81106480D01*
X108970938Y-81092885D01*
X108988102Y-81062058D01*
X109136515Y-80867177D01*
X109139615Y-80863274D01*
X109746653Y-80130246D01*
X109749903Y-80126481D01*
X110386316Y-79418849D01*
X110389744Y-79415190D01*
X111054510Y-78734088D01*
X111058060Y-78730598D01*
X111750023Y-78077209D01*
X111753727Y-78073851D01*
X112471780Y-77449221D01*
X112475654Y-77445988D01*
X112488544Y-77435668D01*
X113218571Y-76851180D01*
X113222557Y-76848121D01*
X113989092Y-76284133D01*
X113993217Y-76281226D01*
X114033515Y-76254038D01*
X114782186Y-75748929D01*
X114786342Y-75746247D01*
X115596367Y-75246577D01*
X115600653Y-75244052D01*
X116430367Y-74777848D01*
X116434794Y-74775478D01*
X117282860Y-74343495D01*
X117287337Y-74341329D01*
X117786666Y-74112135D01*
X121999500Y-74112135D01*
X121999500Y-77207870D01*
X121999501Y-77207876D01*
X122005908Y-77267483D01*
X122056202Y-77402328D01*
X122056206Y-77402335D01*
X122142452Y-77517544D01*
X122142455Y-77517547D01*
X122257664Y-77603793D01*
X122257671Y-77603797D01*
X122392517Y-77654091D01*
X122392516Y-77654091D01*
X122399444Y-77654835D01*
X122452127Y-77660500D01*
X125547872Y-77660499D01*
X125607483Y-77654091D01*
X125742331Y-77603796D01*
X125857546Y-77517546D01*
X125943796Y-77402331D01*
X125994091Y-77267483D01*
X126000500Y-77207873D01*
X126000500Y-76852135D01*
X130738106Y-76852135D01*
X130738106Y-78547870D01*
X130738107Y-78547876D01*
X130744514Y-78607483D01*
X130794808Y-78742328D01*
X130794812Y-78742335D01*
X130881058Y-78857544D01*
X130881061Y-78857547D01*
X130996270Y-78943793D01*
X130996277Y-78943797D01*
X131131123Y-78994091D01*
X131131122Y-78994091D01*
X131138050Y-78994835D01*
X131190733Y-79000500D01*
X132886478Y-79000499D01*
X132946089Y-78994091D01*
X133080937Y-78943796D01*
X133196152Y-78857546D01*
X133282402Y-78742331D01*
X133332697Y-78607483D01*
X133339106Y-78547873D01*
X133339105Y-78535612D01*
X133342681Y-78521052D01*
X133352948Y-78503380D01*
X133358673Y-78483760D01*
X133370145Y-78473783D01*
X133377783Y-78460640D01*
X133395973Y-78451325D01*
X133411398Y-78437913D01*
X133427886Y-78434984D01*
X133439973Y-78428795D01*
X133454624Y-78430234D01*
X133454860Y-78430192D01*
X134138606Y-77746446D01*
X134138606Y-77752661D01*
X134165865Y-77854394D01*
X134218526Y-77945606D01*
X134293000Y-78020080D01*
X134384212Y-78072741D01*
X134485945Y-78100000D01*
X134492159Y-78100000D01*
X133812682Y-78779474D01*
X133857256Y-78811859D01*
X134039574Y-78904755D01*
X134234188Y-78967990D01*
X134436289Y-79000000D01*
X134640923Y-79000000D01*
X134843023Y-78967990D01*
X135037637Y-78904755D01*
X135219955Y-78811859D01*
X135264527Y-78779474D01*
X134585053Y-78100000D01*
X134591267Y-78100000D01*
X134693000Y-78072741D01*
X134784212Y-78020080D01*
X134858686Y-77945606D01*
X134911347Y-77854394D01*
X134938606Y-77752661D01*
X134938606Y-77746447D01*
X135618080Y-78425921D01*
X135650465Y-78381349D01*
X135743361Y-78199031D01*
X135806596Y-78004417D01*
X135838606Y-77802317D01*
X135838606Y-77597682D01*
X135806596Y-77395582D01*
X135743361Y-77200968D01*
X135650465Y-77018650D01*
X135618080Y-76974077D01*
X135618080Y-76974076D01*
X134938606Y-77653551D01*
X134938606Y-77647339D01*
X134911347Y-77545606D01*
X134858686Y-77454394D01*
X134784212Y-77379920D01*
X134693000Y-77327259D01*
X134591267Y-77300000D01*
X134585052Y-77300000D01*
X135264528Y-76620524D01*
X135264527Y-76620523D01*
X135219965Y-76588147D01*
X135219956Y-76588141D01*
X135037637Y-76495244D01*
X134843023Y-76432009D01*
X134640923Y-76400000D01*
X134436289Y-76400000D01*
X134234188Y-76432009D01*
X134039574Y-76495244D01*
X133857250Y-76588143D01*
X133812683Y-76620523D01*
X133812683Y-76620524D01*
X134492160Y-77300000D01*
X134485945Y-77300000D01*
X134384212Y-77327259D01*
X134293000Y-77379920D01*
X134218526Y-77454394D01*
X134165865Y-77545606D01*
X134138606Y-77647339D01*
X134138606Y-77653553D01*
X133454119Y-76969066D01*
X133404455Y-76958633D01*
X133354699Y-76909581D01*
X133342682Y-76878947D01*
X133339105Y-76864378D01*
X133339105Y-76852128D01*
X133332697Y-76792517D01*
X133299818Y-76704365D01*
X133299817Y-76704359D01*
X133282403Y-76657671D01*
X133282399Y-76657664D01*
X133196153Y-76542455D01*
X133196150Y-76542452D01*
X133080941Y-76456206D01*
X133080934Y-76456202D01*
X132946088Y-76405908D01*
X132946089Y-76405908D01*
X132886489Y-76399501D01*
X132886487Y-76399500D01*
X132886479Y-76399500D01*
X132886470Y-76399500D01*
X131190735Y-76399500D01*
X131190729Y-76399501D01*
X131131122Y-76405908D01*
X130996277Y-76456202D01*
X130996270Y-76456206D01*
X130881061Y-76542452D01*
X130881058Y-76542455D01*
X130794812Y-76657664D01*
X130794808Y-76657671D01*
X130744514Y-76792517D01*
X130738107Y-76852116D01*
X130738106Y-76852135D01*
X126000500Y-76852135D01*
X126000499Y-75657292D01*
X126000499Y-74112129D01*
X126000498Y-74112123D01*
X126000497Y-74112116D01*
X125994091Y-74052517D01*
X125993507Y-74050952D01*
X125943797Y-73917671D01*
X125943793Y-73917664D01*
X125857547Y-73802455D01*
X125857544Y-73802452D01*
X125742335Y-73716206D01*
X125742328Y-73716202D01*
X125607482Y-73665908D01*
X125607483Y-73665908D01*
X125547883Y-73659501D01*
X125547881Y-73659500D01*
X125547873Y-73659500D01*
X125547864Y-73659500D01*
X122452129Y-73659500D01*
X122452123Y-73659501D01*
X122392516Y-73665908D01*
X122257671Y-73716202D01*
X122257664Y-73716206D01*
X122142455Y-73802452D01*
X122142452Y-73802455D01*
X122056206Y-73917664D01*
X122056202Y-73917671D01*
X122005908Y-74052517D01*
X121999501Y-74112116D01*
X121999501Y-74112123D01*
X121999500Y-74112135D01*
X117786666Y-74112135D01*
X118152286Y-73944314D01*
X118156840Y-73942334D01*
X119037302Y-73580914D01*
X119041984Y-73579104D01*
X119936398Y-73253921D01*
X119941137Y-73252307D01*
X120341406Y-73125011D01*
X148325000Y-73125011D01*
X148325000Y-74050000D01*
X150100000Y-74050000D01*
X150600000Y-74050000D01*
X151775000Y-74050000D01*
X152275000Y-74050000D01*
X153450000Y-74050000D01*
X153950000Y-74050000D01*
X155724999Y-74050000D01*
X155724999Y-73125028D01*
X155724998Y-73125013D01*
X155715148Y-73028589D01*
X155714976Y-73025219D01*
X155714505Y-73022300D01*
X155659359Y-72855879D01*
X155659357Y-72855874D01*
X155567316Y-72706653D01*
X155443346Y-72582683D01*
X155294125Y-72490642D01*
X155294120Y-72490640D01*
X155127698Y-72435494D01*
X155024988Y-72425000D01*
X153950000Y-72425000D01*
X153950000Y-74050000D01*
X153450000Y-74050000D01*
X153450000Y-72425000D01*
X152275000Y-72425000D01*
X152275000Y-74050000D01*
X151775000Y-74050000D01*
X151775000Y-72425000D01*
X150600000Y-72425000D01*
X150600000Y-74050000D01*
X150100000Y-74050000D01*
X150100000Y-72425000D01*
X149024197Y-72425000D01*
X149021364Y-72425374D01*
X148922300Y-72435494D01*
X148755879Y-72490640D01*
X148755874Y-72490642D01*
X148606653Y-72582683D01*
X148482683Y-72706653D01*
X148390642Y-72855874D01*
X148390640Y-72855879D01*
X148335494Y-73022301D01*
X148325000Y-73125011D01*
X120341406Y-73125011D01*
X120848075Y-72963877D01*
X120852880Y-72962455D01*
X121770871Y-72711250D01*
X121775715Y-72710030D01*
X122703134Y-72496490D01*
X122708041Y-72495464D01*
X123643462Y-72319921D01*
X123648382Y-72319102D01*
X124590123Y-72181870D01*
X124595136Y-72181244D01*
X125541687Y-72082541D01*
X125546684Y-72082122D01*
X126496503Y-72022110D01*
X126501495Y-72021897D01*
X127303412Y-72004014D01*
X127454140Y-72000653D01*
X127456904Y-72000622D01*
X161642438Y-72000622D01*
X161645202Y-72000653D01*
G37*
%TD.AperFunction*%
%TA.AperFunction,Conductor*%
G36*
X140100000Y-107270837D02*
G01*
X140181864Y-107254554D01*
X140276612Y-107225814D01*
X140422198Y-107165509D01*
X140509501Y-107118844D01*
X140509521Y-107118832D01*
X140640530Y-107031295D01*
X140640536Y-107031291D01*
X140717064Y-106968485D01*
X140828485Y-106857064D01*
X140891291Y-106780536D01*
X140891295Y-106780530D01*
X140978832Y-106649521D01*
X140978844Y-106649500D01*
X141013464Y-106584732D01*
X141062426Y-106534887D01*
X141130564Y-106519426D01*
X141196244Y-106543257D01*
X141235205Y-106590779D01*
X141259431Y-106642732D01*
X141259432Y-106642734D01*
X141389954Y-106829141D01*
X141550858Y-106990045D01*
X141550861Y-106990047D01*
X141737266Y-107120568D01*
X141943504Y-107216739D01*
X141943509Y-107216740D01*
X141943511Y-107216741D01*
X141980209Y-107226574D01*
X142163308Y-107275635D01*
X142333214Y-107290499D01*
X142333215Y-107290500D01*
X142333216Y-107290500D01*
X142446785Y-107290500D01*
X142446785Y-107290499D01*
X142616692Y-107275635D01*
X142836496Y-107216739D01*
X143042734Y-107120568D01*
X143229139Y-106990047D01*
X143390047Y-106829139D01*
X143520568Y-106642734D01*
X143547618Y-106584724D01*
X143593790Y-106532285D01*
X143660983Y-106513133D01*
X143727865Y-106533348D01*
X143772381Y-106584724D01*
X143772923Y-106585886D01*
X143799429Y-106642728D01*
X143799432Y-106642734D01*
X143929954Y-106829141D01*
X144090858Y-106990045D01*
X144090861Y-106990047D01*
X144277266Y-107120568D01*
X144311894Y-107136715D01*
X144364333Y-107182887D01*
X144383485Y-107250081D01*
X144363269Y-107316962D01*
X144310104Y-107362296D01*
X144297809Y-107367028D01*
X144210967Y-107395245D01*
X144028650Y-107488140D01*
X143863105Y-107608417D01*
X143863104Y-107608417D01*
X143718417Y-107753104D01*
X143718417Y-107753105D01*
X143598140Y-107918650D01*
X143505244Y-108100970D01*
X143442009Y-108295586D01*
X143433391Y-108350000D01*
X144394314Y-108350000D01*
X144389920Y-108354394D01*
X144337259Y-108445606D01*
X144310000Y-108547339D01*
X144310000Y-108652661D01*
X144337259Y-108754394D01*
X144389920Y-108845606D01*
X144394314Y-108850000D01*
X143433391Y-108850000D01*
X143442009Y-108904413D01*
X143505244Y-109099029D01*
X143598140Y-109281349D01*
X143718417Y-109446894D01*
X143718417Y-109446895D01*
X143758341Y-109486819D01*
X143791826Y-109548142D01*
X143786842Y-109617834D01*
X143744970Y-109673767D01*
X143679506Y-109698184D01*
X143670660Y-109698500D01*
X142972155Y-109698500D01*
X142817508Y-109729261D01*
X142817498Y-109729264D01*
X142671827Y-109789602D01*
X142671815Y-109789609D01*
X142560607Y-109863917D01*
X142560606Y-109863918D01*
X142540708Y-109877212D01*
X141629739Y-110788181D01*
X141568416Y-110821666D01*
X141542058Y-110824500D01*
X140899998Y-110824500D01*
X140899980Y-110824501D01*
X140797203Y-110835000D01*
X140797200Y-110835001D01*
X140630668Y-110890185D01*
X140630663Y-110890187D01*
X140481342Y-110982289D01*
X140357289Y-111106342D01*
X140265187Y-111255663D01*
X140265185Y-111255668D01*
X140244138Y-111319185D01*
X140210001Y-111422203D01*
X140210001Y-111422204D01*
X140210000Y-111422204D01*
X140199500Y-111524983D01*
X140199500Y-112875001D01*
X140199501Y-112875018D01*
X140210000Y-112977796D01*
X140210001Y-112977799D01*
X140265185Y-113144331D01*
X140265187Y-113144336D01*
X140293690Y-113190546D01*
X140357288Y-113293656D01*
X140481344Y-113417712D01*
X140630666Y-113509814D01*
X140797203Y-113564999D01*
X140899991Y-113575500D01*
X141512158Y-113575499D01*
X141579196Y-113595183D01*
X141624951Y-113647987D01*
X141634895Y-113717146D01*
X141605870Y-113780702D01*
X141561392Y-113810385D01*
X141562421Y-113812592D01*
X141555875Y-113815643D01*
X141406654Y-113907684D01*
X141282684Y-114031654D01*
X141190643Y-114180875D01*
X141190641Y-114180880D01*
X141135494Y-114347302D01*
X141135493Y-114347309D01*
X141125000Y-114450013D01*
X141125000Y-114650000D01*
X142250000Y-114650000D01*
X142750000Y-114650000D01*
X143874999Y-114650000D01*
X143874999Y-114450028D01*
X143874998Y-114450013D01*
X143864505Y-114347302D01*
X143809358Y-114180880D01*
X143809356Y-114180875D01*
X143717315Y-114031654D01*
X143593345Y-113907684D01*
X143444124Y-113815643D01*
X143444119Y-113815641D01*
X143277697Y-113760494D01*
X143277690Y-113760493D01*
X143174986Y-113750000D01*
X142750000Y-113750000D01*
X142750000Y-114650000D01*
X142250000Y-114650000D01*
X142250000Y-113750000D01*
X142112922Y-113750000D01*
X142045883Y-113730315D01*
X142000128Y-113677511D01*
X141990184Y-113608353D01*
X142019209Y-113544797D01*
X142063808Y-113515046D01*
X142062791Y-113512864D01*
X142069326Y-113509816D01*
X142069334Y-113509814D01*
X142218656Y-113417712D01*
X142342712Y-113293656D01*
X142434814Y-113144334D01*
X142489999Y-112977797D01*
X142500500Y-112875009D01*
X142500499Y-112232938D01*
X142520183Y-112165900D01*
X142536813Y-112145263D01*
X143346259Y-111335819D01*
X143407582Y-111302334D01*
X143433940Y-111299500D01*
X146100500Y-111299500D01*
X146167539Y-111319185D01*
X146213294Y-111371989D01*
X146224500Y-111423500D01*
X146224500Y-112100001D01*
X146224501Y-112100019D01*
X146235000Y-112202796D01*
X146235002Y-112202804D01*
X146246167Y-112236495D01*
X146248570Y-112306323D01*
X146212839Y-112366365D01*
X146150319Y-112397558D01*
X146128462Y-112399500D01*
X145776336Y-112399500D01*
X145709297Y-112379815D01*
X145681493Y-112353555D01*
X145680725Y-112354212D01*
X145677554Y-112350500D01*
X145549499Y-112222445D01*
X145549494Y-112222441D01*
X145402997Y-112116006D01*
X145402996Y-112116005D01*
X145402994Y-112116004D01*
X145351300Y-112089664D01*
X145241639Y-112033788D01*
X145241636Y-112033787D01*
X145069410Y-111977829D01*
X144890551Y-111949500D01*
X144890546Y-111949500D01*
X144709454Y-111949500D01*
X144709449Y-111949500D01*
X144530589Y-111977829D01*
X144358363Y-112033787D01*
X144358360Y-112033788D01*
X144197002Y-112116006D01*
X144050505Y-112222441D01*
X144050500Y-112222445D01*
X143922445Y-112350500D01*
X143922441Y-112350505D01*
X143816006Y-112497002D01*
X143733788Y-112658360D01*
X143733787Y-112658363D01*
X143677829Y-112830589D01*
X143649500Y-113009448D01*
X143649500Y-113190551D01*
X143677829Y-113369410D01*
X143733787Y-113541636D01*
X143733788Y-113541639D01*
X143779066Y-113630500D01*
X143813415Y-113697913D01*
X143816006Y-113702997D01*
X143922441Y-113849494D01*
X143922445Y-113849499D01*
X144050500Y-113977554D01*
X144050505Y-113977558D01*
X144117452Y-114026197D01*
X144197006Y-114083996D01*
X144302484Y-114137740D01*
X144358360Y-114166211D01*
X144358363Y-114166212D01*
X144403508Y-114180880D01*
X144530591Y-114222171D01*
X144613429Y-114235291D01*
X144709449Y-114250500D01*
X144709454Y-114250500D01*
X144890551Y-114250500D01*
X144977259Y-114236765D01*
X145069409Y-114222171D01*
X145241639Y-114166211D01*
X145402994Y-114083996D01*
X145549501Y-113977553D01*
X145677553Y-113849501D01*
X145677558Y-113849494D01*
X145680725Y-113845788D01*
X145681272Y-113846255D01*
X145682623Y-113843297D01*
X145707722Y-113827166D01*
X145731343Y-113808951D01*
X145738017Y-113807697D01*
X145741401Y-113805523D01*
X145776336Y-113800500D01*
X145880113Y-113800500D01*
X145947152Y-113820185D01*
X145992907Y-113872989D01*
X146002851Y-113942147D01*
X145992496Y-113976904D01*
X145990641Y-113980881D01*
X145935494Y-114147302D01*
X145935493Y-114147309D01*
X145925000Y-114250013D01*
X145925000Y-114450000D01*
X147176000Y-114450000D01*
X147243039Y-114469685D01*
X147288794Y-114522489D01*
X147300000Y-114574000D01*
X147300000Y-114700000D01*
X147426000Y-114700000D01*
X147493039Y-114719685D01*
X147538794Y-114772489D01*
X147550000Y-114824000D01*
X147550000Y-115849999D01*
X147889270Y-115849999D01*
X147956309Y-115869684D01*
X148002064Y-115922488D01*
X148012008Y-115991646D01*
X147982983Y-116055202D01*
X147976951Y-116061680D01*
X147425449Y-116613181D01*
X147364126Y-116646666D01*
X147337768Y-116649500D01*
X146624998Y-116649500D01*
X146624980Y-116649501D01*
X146522203Y-116660000D01*
X146522200Y-116660001D01*
X146355668Y-116715185D01*
X146355663Y-116715187D01*
X146206342Y-116807289D01*
X146082289Y-116931342D01*
X145990187Y-117080663D01*
X145990185Y-117080668D01*
X145973393Y-117131344D01*
X145935001Y-117247203D01*
X145935001Y-117247204D01*
X145935000Y-117247204D01*
X145924500Y-117349983D01*
X145924500Y-118250001D01*
X145924501Y-118250019D01*
X145935000Y-118352796D01*
X145935001Y-118352799D01*
X145990185Y-118519331D01*
X145990187Y-118519336D01*
X146010825Y-118552795D01*
X146067582Y-118644814D01*
X146082289Y-118668657D01*
X146101449Y-118687817D01*
X146134934Y-118749140D01*
X146129950Y-118818832D01*
X146088078Y-118874765D01*
X146022614Y-118899182D01*
X146013768Y-118899498D01*
X143920443Y-118899498D01*
X143853404Y-118879813D01*
X143807649Y-118827009D01*
X143797705Y-118757851D01*
X143808060Y-118723096D01*
X143809812Y-118719338D01*
X143809812Y-118719336D01*
X143809814Y-118719334D01*
X143864999Y-118552797D01*
X143875500Y-118450009D01*
X143875499Y-117549992D01*
X143864999Y-117447203D01*
X143809814Y-117280666D01*
X143717712Y-117131344D01*
X143593656Y-117007288D01*
X143481388Y-116938041D01*
X143444336Y-116915187D01*
X143444331Y-116915185D01*
X143432655Y-116911316D01*
X143277797Y-116860001D01*
X143277795Y-116860000D01*
X143175010Y-116849500D01*
X141824998Y-116849500D01*
X141824981Y-116849501D01*
X141722203Y-116860000D01*
X141722200Y-116860001D01*
X141555668Y-116915185D01*
X141555663Y-116915187D01*
X141406342Y-117007289D01*
X141282287Y-117131344D01*
X141276580Y-117140598D01*
X141224632Y-117187322D01*
X141171042Y-117199500D01*
X140367940Y-117199500D01*
X140300901Y-117179815D01*
X140280259Y-117163181D01*
X138729318Y-115612240D01*
X138695833Y-115550917D01*
X138692999Y-115524559D01*
X138692999Y-115349986D01*
X141125001Y-115349986D01*
X141135494Y-115452697D01*
X141190641Y-115619119D01*
X141190643Y-115619124D01*
X141282684Y-115768345D01*
X141406654Y-115892315D01*
X141555875Y-115984356D01*
X141555880Y-115984358D01*
X141722302Y-116039505D01*
X141722309Y-116039506D01*
X141825019Y-116049999D01*
X142249999Y-116049999D01*
X142750000Y-116049999D01*
X143174972Y-116049999D01*
X143174986Y-116049998D01*
X143277697Y-116039505D01*
X143444119Y-115984358D01*
X143444124Y-115984356D01*
X143593345Y-115892315D01*
X143717315Y-115768345D01*
X143809356Y-115619124D01*
X143809358Y-115619119D01*
X143864505Y-115452697D01*
X143864506Y-115452690D01*
X143874999Y-115349986D01*
X143875000Y-115349973D01*
X143875000Y-115150000D01*
X142750000Y-115150000D01*
X142750000Y-116049999D01*
X142249999Y-116049999D01*
X142250000Y-116049998D01*
X142250000Y-115150000D01*
X141125001Y-115150000D01*
X141125001Y-115349986D01*
X138692999Y-115349986D01*
X138692999Y-115149986D01*
X145925001Y-115149986D01*
X145935494Y-115252697D01*
X145990641Y-115419119D01*
X145990643Y-115419124D01*
X146082684Y-115568345D01*
X146206654Y-115692315D01*
X146355875Y-115784356D01*
X146355880Y-115784358D01*
X146522302Y-115839505D01*
X146522309Y-115839506D01*
X146625019Y-115849999D01*
X147049999Y-115849999D01*
X147050000Y-115849998D01*
X147050000Y-114950000D01*
X145925001Y-114950000D01*
X145925001Y-115149986D01*
X138692999Y-115149986D01*
X138692999Y-114985440D01*
X138712684Y-114918401D01*
X138729313Y-114897764D01*
X138871789Y-114755289D01*
X138959394Y-114624179D01*
X139019738Y-114478497D01*
X139050500Y-114323842D01*
X139050500Y-114166157D01*
X139050500Y-113528957D01*
X139070185Y-113461918D01*
X139109407Y-113423416D01*
X139118656Y-113417712D01*
X139242712Y-113293656D01*
X139334814Y-113144334D01*
X139389999Y-112977797D01*
X139400500Y-112875009D01*
X139400499Y-111524992D01*
X139389999Y-111422203D01*
X139334814Y-111255666D01*
X139242712Y-111106344D01*
X139118656Y-110982288D01*
X139003225Y-110911090D01*
X138969336Y-110890187D01*
X138969331Y-110890185D01*
X138909035Y-110870205D01*
X138802797Y-110835001D01*
X138802795Y-110835000D01*
X138700010Y-110824500D01*
X137799998Y-110824500D01*
X137799980Y-110824501D01*
X137697203Y-110835000D01*
X137697200Y-110835001D01*
X137530668Y-110890185D01*
X137530663Y-110890187D01*
X137381342Y-110982289D01*
X137257289Y-111106342D01*
X137165187Y-111255663D01*
X137165185Y-111255668D01*
X137144138Y-111319185D01*
X137110001Y-111422203D01*
X137110001Y-111422204D01*
X137110000Y-111422204D01*
X137099500Y-111524983D01*
X137099500Y-112875001D01*
X137099501Y-112875018D01*
X137110000Y-112977796D01*
X137110001Y-112977799D01*
X137165185Y-113144331D01*
X137165187Y-113144336D01*
X137193690Y-113190546D01*
X137257288Y-113293656D01*
X137381344Y-113417712D01*
X137390591Y-113423416D01*
X137397416Y-113431003D01*
X137406703Y-113435244D01*
X137420390Y-113456541D01*
X137437318Y-113475360D01*
X137439963Y-113486998D01*
X137444477Y-113494022D01*
X137449500Y-113528957D01*
X137449500Y-113630500D01*
X137429815Y-113697539D01*
X137377011Y-113743294D01*
X137325500Y-113754500D01*
X136239629Y-113754500D01*
X136239623Y-113754501D01*
X136180016Y-113760908D01*
X136045171Y-113811202D01*
X136045164Y-113811206D01*
X135929955Y-113897452D01*
X135929952Y-113897455D01*
X135843706Y-114012664D01*
X135843703Y-114012670D01*
X135833308Y-114040541D01*
X135791436Y-114096474D01*
X135725972Y-114120891D01*
X135657699Y-114106039D01*
X135644250Y-114097531D01*
X135461538Y-113964783D01*
X135257755Y-113860950D01*
X135040248Y-113790278D01*
X134834652Y-113757715D01*
X134814354Y-113754500D01*
X134585646Y-113754500D01*
X134547802Y-113760494D01*
X134359753Y-113790278D01*
X134359750Y-113790278D01*
X134142244Y-113860950D01*
X133938461Y-113964783D01*
X133872551Y-114012670D01*
X133753434Y-114099214D01*
X133753432Y-114099216D01*
X133753431Y-114099216D01*
X133591716Y-114260931D01*
X133591709Y-114260940D01*
X133530007Y-114345864D01*
X133474677Y-114388530D01*
X133405063Y-114394508D01*
X133343269Y-114361901D01*
X133329372Y-114345863D01*
X133267907Y-114261263D01*
X133267902Y-114261257D01*
X133106242Y-114099597D01*
X132921276Y-113965211D01*
X132717568Y-113861417D01*
X132500124Y-113790765D01*
X132410000Y-113776490D01*
X132410000Y-114764252D01*
X132372292Y-114742482D01*
X132232409Y-114705000D01*
X132087591Y-114705000D01*
X131947708Y-114742482D01*
X131910000Y-114764252D01*
X131910000Y-113776490D01*
X131909999Y-113776490D01*
X131819875Y-113790765D01*
X131602431Y-113861417D01*
X131398723Y-113965211D01*
X131213757Y-114099597D01*
X131052097Y-114261257D01*
X130917711Y-114446223D01*
X130813917Y-114649929D01*
X130743265Y-114867371D01*
X130721468Y-115005000D01*
X131669252Y-115005000D01*
X131647482Y-115042708D01*
X131610000Y-115182591D01*
X131610000Y-115327409D01*
X131647482Y-115467292D01*
X131669252Y-115505000D01*
X130721468Y-115505000D01*
X130743265Y-115642628D01*
X130813917Y-115860070D01*
X130917711Y-116063776D01*
X131052097Y-116248742D01*
X131213757Y-116410402D01*
X131398723Y-116544788D01*
X131602429Y-116648582D01*
X131819871Y-116719234D01*
X131910000Y-116733509D01*
X131910000Y-115745747D01*
X131947708Y-115767518D01*
X132087591Y-115805000D01*
X132232409Y-115805000D01*
X132372292Y-115767518D01*
X132410000Y-115745747D01*
X132410000Y-116733508D01*
X132500128Y-116719234D01*
X132717570Y-116648582D01*
X132921276Y-116544788D01*
X133106242Y-116410402D01*
X133267905Y-116248739D01*
X133329371Y-116164137D01*
X133384701Y-116121470D01*
X133454314Y-116115491D01*
X133516109Y-116148096D01*
X133530007Y-116164134D01*
X133591714Y-116249066D01*
X133753434Y-116410786D01*
X133938462Y-116545217D01*
X134070599Y-116612544D01*
X134142244Y-116649049D01*
X134359751Y-116719721D01*
X134359752Y-116719721D01*
X134359755Y-116719722D01*
X134585646Y-116755500D01*
X134585647Y-116755500D01*
X134814353Y-116755500D01*
X134814354Y-116755500D01*
X135040245Y-116719722D01*
X135040248Y-116719721D01*
X135040249Y-116719721D01*
X135257755Y-116649049D01*
X135257755Y-116649048D01*
X135257758Y-116649048D01*
X135461538Y-116545217D01*
X135644245Y-116412472D01*
X135710046Y-116388994D01*
X135778100Y-116404819D01*
X135826795Y-116454924D01*
X135833308Y-116469459D01*
X135843702Y-116497328D01*
X135843706Y-116497335D01*
X135929952Y-116612544D01*
X135929955Y-116612547D01*
X136045164Y-116698793D01*
X136045171Y-116698797D01*
X136180017Y-116749091D01*
X136180016Y-116749091D01*
X136186944Y-116749835D01*
X136239627Y-116755500D01*
X137557059Y-116755499D01*
X137624098Y-116775184D01*
X137644740Y-116791818D01*
X139363211Y-118510289D01*
X139448183Y-118595261D01*
X139474712Y-118621790D01*
X139550449Y-118672396D01*
X139595254Y-118726008D01*
X139603961Y-118795333D01*
X139573807Y-118858361D01*
X139514363Y-118895080D01*
X139481558Y-118899498D01*
X127623148Y-118899498D01*
X127614613Y-118899497D01*
X127614110Y-118899364D01*
X127549667Y-118899497D01*
X127549254Y-118899497D01*
X127549246Y-118899494D01*
X127546982Y-118899476D01*
X126594188Y-118881998D01*
X126589132Y-118881802D01*
X125639137Y-118825550D01*
X125634094Y-118825148D01*
X124687191Y-118730192D01*
X124682169Y-118729585D01*
X123739908Y-118596081D01*
X123734914Y-118595269D01*
X122798892Y-118423442D01*
X122793936Y-118422427D01*
X121865715Y-118212565D01*
X121860804Y-118211349D01*
X120941911Y-117963797D01*
X120937054Y-117962382D01*
X120028993Y-117677545D01*
X120024198Y-117675933D01*
X119128515Y-117354293D01*
X119123855Y-117352511D01*
X118716859Y-117187322D01*
X118242029Y-116994600D01*
X118237381Y-116992602D01*
X117370910Y-116599028D01*
X117366348Y-116596842D01*
X116530449Y-116175213D01*
X116479458Y-116127446D01*
X116462386Y-116059694D01*
X116484654Y-115993468D01*
X116539191Y-115949794D01*
X116586293Y-115940500D01*
X122083399Y-115940500D01*
X122150438Y-115960185D01*
X122196193Y-116012989D01*
X122197961Y-116017051D01*
X122201950Y-116026683D01*
X122201958Y-116026700D01*
X122333075Y-116253803D01*
X122492718Y-116461851D01*
X122492726Y-116461860D01*
X122678140Y-116647274D01*
X122678148Y-116647281D01*
X122678149Y-116647282D01*
X122680452Y-116649049D01*
X122886196Y-116806924D01*
X123113299Y-116938041D01*
X123113309Y-116938046D01*
X123280477Y-117007289D01*
X123355581Y-117038398D01*
X123608884Y-117106270D01*
X123868880Y-117140500D01*
X123868887Y-117140500D01*
X124131113Y-117140500D01*
X124131120Y-117140500D01*
X124391116Y-117106270D01*
X124644419Y-117038398D01*
X124867924Y-116945819D01*
X124886690Y-116938046D01*
X124886691Y-116938045D01*
X124886697Y-116938043D01*
X125113803Y-116806924D01*
X125321851Y-116647282D01*
X125321855Y-116647277D01*
X125321860Y-116647274D01*
X125507274Y-116461860D01*
X125507277Y-116461855D01*
X125507282Y-116461851D01*
X125666924Y-116253803D01*
X125798043Y-116026697D01*
X125898398Y-115784419D01*
X125966270Y-115531116D01*
X125979120Y-115433517D01*
X126000499Y-115271127D01*
X126000500Y-115271120D01*
X126000500Y-115008880D01*
X125966270Y-114748884D01*
X125898398Y-114495581D01*
X125887672Y-114469685D01*
X125798046Y-114253309D01*
X125798041Y-114253299D01*
X125666924Y-114026196D01*
X125507281Y-113818148D01*
X125507274Y-113818140D01*
X125321860Y-113632726D01*
X125321851Y-113632718D01*
X125113803Y-113473075D01*
X124886700Y-113341958D01*
X124886690Y-113341953D01*
X124644428Y-113241605D01*
X124644421Y-113241603D01*
X124644419Y-113241602D01*
X124391116Y-113173730D01*
X124333339Y-113166123D01*
X124131127Y-113139500D01*
X124131120Y-113139500D01*
X123868880Y-113139500D01*
X123868872Y-113139500D01*
X123637772Y-113169926D01*
X123608884Y-113173730D01*
X123355581Y-113241602D01*
X123355571Y-113241605D01*
X123113309Y-113341953D01*
X123113299Y-113341958D01*
X122886196Y-113473075D01*
X122678148Y-113632718D01*
X122492718Y-113818148D01*
X122333075Y-114026196D01*
X122201958Y-114253299D01*
X122201950Y-114253316D01*
X122197961Y-114262949D01*
X122154122Y-114317354D01*
X122087828Y-114339421D01*
X122083399Y-114339500D01*
X115722940Y-114339500D01*
X115655901Y-114319815D01*
X115635259Y-114303181D01*
X109844213Y-108512135D01*
X121999500Y-108512135D01*
X121999500Y-111607870D01*
X121999501Y-111607876D01*
X122005908Y-111667483D01*
X122056202Y-111802328D01*
X122056206Y-111802335D01*
X122142452Y-111917544D01*
X122142455Y-111917547D01*
X122257664Y-112003793D01*
X122257671Y-112003797D01*
X122392517Y-112054091D01*
X122392516Y-112054091D01*
X122399444Y-112054835D01*
X122452127Y-112060500D01*
X125547872Y-112060499D01*
X125607483Y-112054091D01*
X125742331Y-112003796D01*
X125857546Y-111917546D01*
X125943796Y-111802331D01*
X125994091Y-111667483D01*
X126000500Y-111607873D01*
X126000499Y-109374041D01*
X130005000Y-109374041D01*
X130005000Y-109450000D01*
X130749670Y-109450000D01*
X130729925Y-109469745D01*
X130680556Y-109555255D01*
X130655000Y-109650630D01*
X130655000Y-109749370D01*
X130680556Y-109844745D01*
X130729925Y-109930255D01*
X130749670Y-109950000D01*
X130005000Y-109950000D01*
X130005000Y-110025958D01*
X130044387Y-110223974D01*
X130044390Y-110223983D01*
X130121652Y-110410513D01*
X130121659Y-110410526D01*
X130233829Y-110578399D01*
X130233832Y-110578403D01*
X130376596Y-110721167D01*
X130376600Y-110721170D01*
X130544473Y-110833340D01*
X130544486Y-110833347D01*
X130731016Y-110910609D01*
X130731025Y-110910612D01*
X130780000Y-110920353D01*
X130780000Y-109980330D01*
X130799745Y-110000075D01*
X130885255Y-110049444D01*
X130980630Y-110075000D01*
X131079370Y-110075000D01*
X131174745Y-110049444D01*
X131260255Y-110000075D01*
X131274500Y-109985830D01*
X131274500Y-110026002D01*
X131277617Y-110041671D01*
X131280000Y-110065865D01*
X131280000Y-110920352D01*
X131328974Y-110910612D01*
X131328983Y-110910609D01*
X131515515Y-110833346D01*
X131515518Y-110833344D01*
X131595658Y-110779796D01*
X131662335Y-110758917D01*
X131729716Y-110777401D01*
X131733422Y-110779783D01*
X131814244Y-110833786D01*
X132000873Y-110911091D01*
X132166777Y-110944091D01*
X132198992Y-110950499D01*
X132198996Y-110950500D01*
X132198997Y-110950500D01*
X132401004Y-110950500D01*
X132401005Y-110950499D01*
X132599127Y-110911091D01*
X132600284Y-110910612D01*
X132642879Y-110892968D01*
X132679798Y-110877674D01*
X132749267Y-110870205D01*
X132794658Y-110889962D01*
X132794886Y-110889546D01*
X132799540Y-110892087D01*
X132801562Y-110892967D01*
X132802669Y-110893796D01*
X132802670Y-110893796D01*
X132802671Y-110893797D01*
X132937517Y-110944091D01*
X132937516Y-110944091D01*
X132944444Y-110944835D01*
X132997127Y-110950500D01*
X134142872Y-110950499D01*
X134202483Y-110944091D01*
X134337331Y-110893796D01*
X134452546Y-110807546D01*
X134538796Y-110692331D01*
X134589091Y-110557483D01*
X134595500Y-110497873D01*
X134595499Y-108902128D01*
X134589091Y-108842517D01*
X134581289Y-108821600D01*
X134538797Y-108707671D01*
X134538793Y-108707664D01*
X134452547Y-108592455D01*
X134452544Y-108592452D01*
X134337335Y-108506206D01*
X134337328Y-108506202D01*
X134202482Y-108455908D01*
X134202483Y-108455908D01*
X134142883Y-108449501D01*
X134142881Y-108449500D01*
X134142873Y-108449500D01*
X134142864Y-108449500D01*
X132997129Y-108449500D01*
X132997123Y-108449501D01*
X132937516Y-108455908D01*
X132802672Y-108506202D01*
X132802665Y-108506206D01*
X132801556Y-108507037D01*
X132800258Y-108507520D01*
X132794887Y-108510454D01*
X132794465Y-108509681D01*
X132736090Y-108531449D01*
X132679800Y-108522325D01*
X132599127Y-108488909D01*
X132599119Y-108488907D01*
X132401007Y-108449500D01*
X132401003Y-108449500D01*
X132198997Y-108449500D01*
X132198992Y-108449500D01*
X132000880Y-108488907D01*
X132000872Y-108488909D01*
X131814243Y-108566214D01*
X131733439Y-108620204D01*
X131666761Y-108641081D01*
X131599382Y-108622595D01*
X131595659Y-108620203D01*
X131515526Y-108566659D01*
X131515513Y-108566652D01*
X131328984Y-108489390D01*
X131328977Y-108489388D01*
X131280000Y-108479645D01*
X131280000Y-109334134D01*
X131277617Y-109358326D01*
X131274500Y-109373995D01*
X131274500Y-109414170D01*
X131260255Y-109399925D01*
X131174745Y-109350556D01*
X131079370Y-109325000D01*
X130980630Y-109325000D01*
X130885255Y-109350556D01*
X130799745Y-109399925D01*
X130780000Y-109419670D01*
X130780000Y-108479646D01*
X130779999Y-108479645D01*
X130731022Y-108489388D01*
X130731015Y-108489390D01*
X130544486Y-108566652D01*
X130544473Y-108566659D01*
X130376600Y-108678829D01*
X130376596Y-108678832D01*
X130233832Y-108821596D01*
X130233829Y-108821600D01*
X130121659Y-108989473D01*
X130121652Y-108989486D01*
X130044390Y-109176016D01*
X130044387Y-109176025D01*
X130005000Y-109374041D01*
X126000499Y-109374041D01*
X126000499Y-108512128D01*
X125994091Y-108452517D01*
X125991513Y-108445606D01*
X125943797Y-108317671D01*
X125943793Y-108317664D01*
X125857547Y-108202455D01*
X125857544Y-108202452D01*
X125742335Y-108116206D01*
X125742328Y-108116202D01*
X125607482Y-108065908D01*
X125607483Y-108065908D01*
X125547883Y-108059501D01*
X125547881Y-108059500D01*
X125547873Y-108059500D01*
X125547864Y-108059500D01*
X122452129Y-108059500D01*
X122452123Y-108059501D01*
X122392516Y-108065908D01*
X122257671Y-108116202D01*
X122257664Y-108116206D01*
X122142455Y-108202452D01*
X122142452Y-108202455D01*
X122056206Y-108317664D01*
X122056202Y-108317671D01*
X122005908Y-108452517D01*
X122000047Y-108507037D01*
X121999501Y-108512123D01*
X121999500Y-108512135D01*
X109844213Y-108512135D01*
X108839259Y-107507181D01*
X108805774Y-107445858D01*
X108810758Y-107376166D01*
X108852630Y-107320233D01*
X108918094Y-107295816D01*
X108926940Y-107295500D01*
X110009784Y-107295500D01*
X110045804Y-107293569D01*
X110063815Y-107292604D01*
X110203226Y-107257022D01*
X110276735Y-107226574D01*
X110325551Y-107203219D01*
X110440733Y-107116994D01*
X110496994Y-107060733D01*
X110533157Y-107020475D01*
X110551211Y-106990047D01*
X110606573Y-106896736D01*
X110606574Y-106896735D01*
X110637022Y-106823226D01*
X110646859Y-106795339D01*
X110687724Y-106738668D01*
X110752742Y-106713086D01*
X110821269Y-106726716D01*
X110865371Y-106765469D01*
X110909954Y-106829141D01*
X111070858Y-106990045D01*
X111070861Y-106990047D01*
X111257266Y-107120568D01*
X111463504Y-107216739D01*
X111463509Y-107216740D01*
X111463511Y-107216741D01*
X111500209Y-107226574D01*
X111683308Y-107275635D01*
X111853214Y-107290499D01*
X111853215Y-107290500D01*
X111853216Y-107290500D01*
X111966785Y-107290500D01*
X111966785Y-107290499D01*
X112136692Y-107275635D01*
X112356496Y-107216739D01*
X112562734Y-107120568D01*
X112749139Y-106990047D01*
X112910047Y-106829139D01*
X113040568Y-106642734D01*
X113064795Y-106590777D01*
X113110965Y-106538341D01*
X113178158Y-106519188D01*
X113245040Y-106539403D01*
X113286534Y-106584730D01*
X113321155Y-106649501D01*
X113321167Y-106649521D01*
X113408704Y-106780530D01*
X113408708Y-106780536D01*
X113471514Y-106857064D01*
X113582935Y-106968485D01*
X113659463Y-107031291D01*
X113659469Y-107031295D01*
X113790478Y-107118832D01*
X113790498Y-107118844D01*
X113877801Y-107165509D01*
X114023387Y-107225814D01*
X114118135Y-107254554D01*
X114200000Y-107270837D01*
X114200000Y-104823012D01*
X114257007Y-104855925D01*
X114384174Y-104890000D01*
X114515826Y-104890000D01*
X114642993Y-104855925D01*
X114700000Y-104823012D01*
X114700000Y-107270837D01*
X114781864Y-107254554D01*
X114876612Y-107225814D01*
X115022198Y-107165509D01*
X115109501Y-107118844D01*
X115109521Y-107118832D01*
X115240530Y-107031295D01*
X115240536Y-107031291D01*
X115317064Y-106968485D01*
X115428485Y-106857064D01*
X115491291Y-106780536D01*
X115491295Y-106780530D01*
X115578832Y-106649521D01*
X115578844Y-106649500D01*
X115613464Y-106584732D01*
X115662426Y-106534887D01*
X115730564Y-106519426D01*
X115796244Y-106543257D01*
X115835205Y-106590779D01*
X115859431Y-106642732D01*
X115859432Y-106642734D01*
X115989954Y-106829141D01*
X116150858Y-106990045D01*
X116150861Y-106990047D01*
X116337266Y-107120568D01*
X116543504Y-107216739D01*
X116543509Y-107216740D01*
X116543511Y-107216741D01*
X116580209Y-107226574D01*
X116763308Y-107275635D01*
X116933214Y-107290499D01*
X116933215Y-107290500D01*
X116933216Y-107290500D01*
X117046785Y-107290500D01*
X117046785Y-107290499D01*
X117216692Y-107275635D01*
X117436496Y-107216739D01*
X117642734Y-107120568D01*
X117829139Y-106990047D01*
X117990047Y-106829139D01*
X118120568Y-106642734D01*
X118147618Y-106584724D01*
X118193790Y-106532285D01*
X118260983Y-106513133D01*
X118327865Y-106533348D01*
X118372381Y-106584724D01*
X118372923Y-106585886D01*
X118399429Y-106642728D01*
X118399432Y-106642734D01*
X118529954Y-106829141D01*
X118690858Y-106990045D01*
X118690861Y-106990047D01*
X118877266Y-107120568D01*
X119083504Y-107216739D01*
X119083509Y-107216740D01*
X119083511Y-107216741D01*
X119120209Y-107226574D01*
X119303308Y-107275635D01*
X119473214Y-107290499D01*
X119473215Y-107290500D01*
X119473216Y-107290500D01*
X119586785Y-107290500D01*
X119586785Y-107290499D01*
X119756692Y-107275635D01*
X119976496Y-107216739D01*
X120182734Y-107120568D01*
X120369139Y-106990047D01*
X120530047Y-106829139D01*
X120660568Y-106642734D01*
X120687618Y-106584724D01*
X120733790Y-106532285D01*
X120800983Y-106513133D01*
X120867865Y-106533348D01*
X120912381Y-106584724D01*
X120912923Y-106585886D01*
X120939429Y-106642728D01*
X120939432Y-106642734D01*
X121069954Y-106829141D01*
X121230858Y-106990045D01*
X121230861Y-106990047D01*
X121417266Y-107120568D01*
X121623504Y-107216739D01*
X121623509Y-107216740D01*
X121623511Y-107216741D01*
X121660209Y-107226574D01*
X121843308Y-107275635D01*
X122013214Y-107290499D01*
X122013215Y-107290500D01*
X122013216Y-107290500D01*
X122126785Y-107290500D01*
X122126785Y-107290499D01*
X122296692Y-107275635D01*
X122516496Y-107216739D01*
X122722734Y-107120568D01*
X122909139Y-106990047D01*
X123070047Y-106829139D01*
X123200568Y-106642734D01*
X123227618Y-106584724D01*
X123273790Y-106532285D01*
X123340983Y-106513133D01*
X123407865Y-106533348D01*
X123452381Y-106584724D01*
X123452923Y-106585886D01*
X123479429Y-106642728D01*
X123479432Y-106642734D01*
X123609954Y-106829141D01*
X123770858Y-106990045D01*
X123770861Y-106990047D01*
X123957266Y-107120568D01*
X124163504Y-107216739D01*
X124163509Y-107216740D01*
X124163511Y-107216741D01*
X124200209Y-107226574D01*
X124383308Y-107275635D01*
X124553214Y-107290499D01*
X124553215Y-107290500D01*
X124553216Y-107290500D01*
X124666785Y-107290500D01*
X124666785Y-107290499D01*
X124836692Y-107275635D01*
X125056496Y-107216739D01*
X125262734Y-107120568D01*
X125449139Y-106990047D01*
X125610047Y-106829139D01*
X125740568Y-106642734D01*
X125764795Y-106590777D01*
X125810965Y-106538341D01*
X125878158Y-106519188D01*
X125945040Y-106539403D01*
X125986534Y-106584730D01*
X126021155Y-106649501D01*
X126021167Y-106649521D01*
X126108704Y-106780530D01*
X126108708Y-106780536D01*
X126171514Y-106857064D01*
X126282935Y-106968485D01*
X126359463Y-107031291D01*
X126359469Y-107031295D01*
X126490478Y-107118832D01*
X126490498Y-107118844D01*
X126577801Y-107165509D01*
X126723387Y-107225814D01*
X126818135Y-107254554D01*
X126900000Y-107270837D01*
X126900000Y-104823012D01*
X126957007Y-104855925D01*
X127084174Y-104890000D01*
X127215826Y-104890000D01*
X127342993Y-104855925D01*
X127400000Y-104823012D01*
X127400000Y-107270837D01*
X127481864Y-107254554D01*
X127576612Y-107225814D01*
X127722198Y-107165509D01*
X127809501Y-107118844D01*
X127809521Y-107118832D01*
X127940530Y-107031295D01*
X127940536Y-107031291D01*
X128017064Y-106968485D01*
X128128485Y-106857064D01*
X128191291Y-106780536D01*
X128191295Y-106780530D01*
X128278832Y-106649521D01*
X128278844Y-106649500D01*
X128313464Y-106584732D01*
X128362426Y-106534887D01*
X128430564Y-106519426D01*
X128496244Y-106543257D01*
X128535205Y-106590779D01*
X128559431Y-106642732D01*
X128559432Y-106642734D01*
X128689954Y-106829141D01*
X128850858Y-106990045D01*
X128850861Y-106990047D01*
X129037266Y-107120568D01*
X129243504Y-107216739D01*
X129243509Y-107216740D01*
X129243511Y-107216741D01*
X129280209Y-107226574D01*
X129463308Y-107275635D01*
X129633214Y-107290499D01*
X129633215Y-107290500D01*
X129633216Y-107290500D01*
X129746785Y-107290500D01*
X129746785Y-107290499D01*
X129916692Y-107275635D01*
X130136496Y-107216739D01*
X130342734Y-107120568D01*
X130529139Y-106990047D01*
X130690047Y-106829139D01*
X130820568Y-106642734D01*
X130847618Y-106584724D01*
X130893790Y-106532285D01*
X130960983Y-106513133D01*
X131027865Y-106533348D01*
X131072381Y-106584724D01*
X131072923Y-106585886D01*
X131099429Y-106642728D01*
X131099432Y-106642734D01*
X131229954Y-106829141D01*
X131390858Y-106990045D01*
X131390861Y-106990047D01*
X131577266Y-107120568D01*
X131783504Y-107216739D01*
X131783509Y-107216740D01*
X131783511Y-107216741D01*
X131820209Y-107226574D01*
X132003308Y-107275635D01*
X132173214Y-107290499D01*
X132173215Y-107290500D01*
X132173216Y-107290500D01*
X132286785Y-107290500D01*
X132286785Y-107290499D01*
X132456692Y-107275635D01*
X132676496Y-107216739D01*
X132882734Y-107120568D01*
X133069139Y-106990047D01*
X133230047Y-106829139D01*
X133360568Y-106642734D01*
X133387618Y-106584724D01*
X133433790Y-106532285D01*
X133500983Y-106513133D01*
X133567865Y-106533348D01*
X133612381Y-106584724D01*
X133612923Y-106585886D01*
X133639429Y-106642728D01*
X133639432Y-106642734D01*
X133769954Y-106829141D01*
X133930858Y-106990045D01*
X133930861Y-106990047D01*
X134117266Y-107120568D01*
X134323504Y-107216739D01*
X134323509Y-107216740D01*
X134323511Y-107216741D01*
X134360209Y-107226574D01*
X134543308Y-107275635D01*
X134713214Y-107290499D01*
X134713215Y-107290500D01*
X134713216Y-107290500D01*
X134826785Y-107290500D01*
X134826785Y-107290499D01*
X134996692Y-107275635D01*
X135216496Y-107216739D01*
X135422734Y-107120568D01*
X135609139Y-106990047D01*
X135770047Y-106829139D01*
X135900568Y-106642734D01*
X135927618Y-106584724D01*
X135973790Y-106532285D01*
X136040983Y-106513133D01*
X136107865Y-106533348D01*
X136152381Y-106584724D01*
X136152923Y-106585886D01*
X136179429Y-106642728D01*
X136179432Y-106642734D01*
X136309954Y-106829141D01*
X136470858Y-106990045D01*
X136470861Y-106990047D01*
X136590653Y-107073926D01*
X136634278Y-107128501D01*
X136641472Y-107197999D01*
X136609950Y-107260354D01*
X136549720Y-107295769D01*
X136519530Y-107299500D01*
X136242130Y-107299500D01*
X136242123Y-107299501D01*
X136182516Y-107305908D01*
X136047671Y-107356202D01*
X136047664Y-107356206D01*
X135932455Y-107442452D01*
X135932452Y-107442455D01*
X135846206Y-107557664D01*
X135846202Y-107557671D01*
X135795908Y-107692517D01*
X135789501Y-107752116D01*
X135789501Y-107752123D01*
X135789500Y-107752135D01*
X135789500Y-109447870D01*
X135789501Y-109447876D01*
X135795908Y-109507483D01*
X135846202Y-109642328D01*
X135846206Y-109642335D01*
X135932452Y-109757544D01*
X135932455Y-109757547D01*
X136047664Y-109843793D01*
X136047671Y-109843797D01*
X136182517Y-109894091D01*
X136182516Y-109894091D01*
X136189444Y-109894835D01*
X136242127Y-109900500D01*
X137937872Y-109900499D01*
X137997483Y-109894091D01*
X138132331Y-109843796D01*
X138247546Y-109757546D01*
X138333796Y-109642331D01*
X138384091Y-109507483D01*
X138390500Y-109447873D01*
X138390499Y-107752128D01*
X138384091Y-107692517D01*
X138380039Y-107681654D01*
X138333797Y-107557671D01*
X138333793Y-107557664D01*
X138247547Y-107442455D01*
X138247544Y-107442452D01*
X138132335Y-107356206D01*
X138132328Y-107356202D01*
X138023148Y-107315481D01*
X137967214Y-107273610D01*
X137942797Y-107208146D01*
X137957649Y-107139873D01*
X137995356Y-107097725D01*
X138149139Y-106990047D01*
X138310047Y-106829139D01*
X138440568Y-106642734D01*
X138464795Y-106590777D01*
X138510965Y-106538341D01*
X138578158Y-106519188D01*
X138645040Y-106539403D01*
X138686534Y-106584730D01*
X138721155Y-106649501D01*
X138721167Y-106649521D01*
X138808704Y-106780530D01*
X138808708Y-106780536D01*
X138871514Y-106857064D01*
X138982935Y-106968485D01*
X139059463Y-107031291D01*
X139059469Y-107031295D01*
X139190478Y-107118832D01*
X139190498Y-107118844D01*
X139277801Y-107165509D01*
X139423387Y-107225814D01*
X139518135Y-107254554D01*
X139600000Y-107270837D01*
X139600000Y-104823012D01*
X139657007Y-104855925D01*
X139784174Y-104890000D01*
X139915826Y-104890000D01*
X140042993Y-104855925D01*
X140100000Y-104823012D01*
X140100000Y-107270837D01*
G37*
%TD.AperFunction*%
%TA.AperFunction,Conductor*%
G36*
X152800000Y-107270837D02*
G01*
X152881864Y-107254554D01*
X152976612Y-107225814D01*
X153122198Y-107165509D01*
X153209501Y-107118844D01*
X153209521Y-107118832D01*
X153340530Y-107031295D01*
X153340536Y-107031291D01*
X153417064Y-106968485D01*
X153528485Y-106857064D01*
X153591291Y-106780536D01*
X153591295Y-106780530D01*
X153678832Y-106649521D01*
X153678844Y-106649500D01*
X153713464Y-106584732D01*
X153762426Y-106534887D01*
X153830564Y-106519426D01*
X153896244Y-106543257D01*
X153935205Y-106590779D01*
X153959431Y-106642732D01*
X153959432Y-106642734D01*
X154089954Y-106829141D01*
X154250858Y-106990045D01*
X154250861Y-106990047D01*
X154437266Y-107120568D01*
X154643504Y-107216739D01*
X154643509Y-107216740D01*
X154643511Y-107216741D01*
X154680209Y-107226574D01*
X154863308Y-107275635D01*
X155033214Y-107290499D01*
X155033215Y-107290500D01*
X155033216Y-107290500D01*
X155146785Y-107290500D01*
X155146785Y-107290499D01*
X155316692Y-107275635D01*
X155536496Y-107216739D01*
X155742734Y-107120568D01*
X155929139Y-106990047D01*
X156090047Y-106829139D01*
X156220568Y-106642734D01*
X156247618Y-106584724D01*
X156293790Y-106532285D01*
X156360983Y-106513133D01*
X156427865Y-106533348D01*
X156472381Y-106584724D01*
X156472923Y-106585886D01*
X156499429Y-106642728D01*
X156499432Y-106642734D01*
X156629954Y-106829141D01*
X156790858Y-106990045D01*
X156790861Y-106990047D01*
X156977266Y-107120568D01*
X157183504Y-107216739D01*
X157183509Y-107216740D01*
X157183511Y-107216741D01*
X157220209Y-107226574D01*
X157403308Y-107275635D01*
X157573214Y-107290499D01*
X157573215Y-107290500D01*
X157573216Y-107290500D01*
X157686785Y-107290500D01*
X157686785Y-107290499D01*
X157856692Y-107275635D01*
X158076496Y-107216739D01*
X158282734Y-107120568D01*
X158469139Y-106990047D01*
X158630047Y-106829139D01*
X158760568Y-106642734D01*
X158763117Y-106637265D01*
X158809287Y-106584827D01*
X158876480Y-106565673D01*
X158943362Y-106585886D01*
X158988698Y-106639050D01*
X158999500Y-106689669D01*
X158999500Y-108412574D01*
X158979815Y-108479613D01*
X158927011Y-108525368D01*
X158857853Y-108535312D01*
X158837185Y-108530506D01*
X158809535Y-108521523D01*
X158708443Y-108505511D01*
X158607352Y-108489500D01*
X158402648Y-108489500D01*
X158378329Y-108493351D01*
X158200465Y-108521522D01*
X158005776Y-108584781D01*
X157823386Y-108677715D01*
X157657786Y-108798028D01*
X157513028Y-108942786D01*
X157392715Y-109108386D01*
X157299781Y-109290776D01*
X157236522Y-109485465D01*
X157205899Y-109678815D01*
X157204500Y-109687648D01*
X157204500Y-109892352D01*
X157205791Y-109900500D01*
X157213318Y-109948026D01*
X157204363Y-110017320D01*
X157178526Y-110055105D01*
X154439451Y-112794181D01*
X154378128Y-112827666D01*
X154351770Y-112830500D01*
X152260476Y-112830500D01*
X152193437Y-112810815D01*
X152147682Y-112758011D01*
X152137738Y-112688853D01*
X152142545Y-112668183D01*
X152153475Y-112634542D01*
X152153475Y-112634538D01*
X152153477Y-112634534D01*
X152185500Y-112432352D01*
X152185500Y-112227648D01*
X152174476Y-112158046D01*
X152153477Y-112025465D01*
X152118411Y-111917544D01*
X152090220Y-111830781D01*
X152090218Y-111830778D01*
X152090218Y-111830776D01*
X152056503Y-111764607D01*
X151997287Y-111648390D01*
X151967848Y-111607870D01*
X151876971Y-111482786D01*
X151732213Y-111338028D01*
X151566614Y-111217715D01*
X151560006Y-111214348D01*
X151473917Y-111170483D01*
X151423123Y-111122511D01*
X151406328Y-111054690D01*
X151428865Y-110988555D01*
X151473917Y-110949516D01*
X151566610Y-110902287D01*
X151600486Y-110877675D01*
X151732213Y-110781971D01*
X151732215Y-110781968D01*
X151732219Y-110781966D01*
X151876966Y-110637219D01*
X151876968Y-110637215D01*
X151876971Y-110637213D01*
X151934898Y-110557482D01*
X151997287Y-110471610D01*
X152090220Y-110289219D01*
X152153477Y-110094534D01*
X152185500Y-109892352D01*
X152185500Y-109687648D01*
X152175738Y-109626011D01*
X152153477Y-109485465D01*
X152117273Y-109374041D01*
X152090220Y-109290781D01*
X152090218Y-109290778D01*
X152090218Y-109290776D01*
X152056503Y-109224607D01*
X151997287Y-109108390D01*
X151989556Y-109097749D01*
X151876971Y-108942786D01*
X151732213Y-108798028D01*
X151566613Y-108677715D01*
X151566612Y-108677714D01*
X151566610Y-108677713D01*
X151494716Y-108641081D01*
X151384223Y-108584781D01*
X151189534Y-108521522D01*
X151014995Y-108493878D01*
X150987352Y-108489500D01*
X150782648Y-108489500D01*
X150758329Y-108493351D01*
X150580465Y-108521522D01*
X150385776Y-108584781D01*
X150203386Y-108677715D01*
X150037786Y-108798028D01*
X149893028Y-108942786D01*
X149772715Y-109108386D01*
X149679781Y-109290776D01*
X149621631Y-109469745D01*
X149616523Y-109485466D01*
X149601916Y-109577693D01*
X149599349Y-109593898D01*
X149569420Y-109657033D01*
X149510108Y-109693964D01*
X149476876Y-109698500D01*
X148836523Y-109698500D01*
X148769484Y-109678815D01*
X148723729Y-109626011D01*
X148713785Y-109556853D01*
X148742810Y-109493297D01*
X148748842Y-109486819D01*
X148817315Y-109418345D01*
X148909356Y-109269124D01*
X148909358Y-109269119D01*
X148964505Y-109102697D01*
X148964506Y-109102690D01*
X148974999Y-108999986D01*
X148975000Y-108999973D01*
X148975000Y-108800000D01*
X146225001Y-108800000D01*
X146225001Y-108999986D01*
X146235494Y-109102697D01*
X146290641Y-109269119D01*
X146290643Y-109269124D01*
X146382684Y-109418345D01*
X146451158Y-109486819D01*
X146484643Y-109548142D01*
X146479659Y-109617834D01*
X146437787Y-109673767D01*
X146372323Y-109698184D01*
X146363477Y-109698500D01*
X145749340Y-109698500D01*
X145682301Y-109678815D01*
X145636546Y-109626011D01*
X145626602Y-109556853D01*
X145655627Y-109493297D01*
X145661659Y-109486819D01*
X145701582Y-109446895D01*
X145701582Y-109446894D01*
X145821859Y-109281349D01*
X145914755Y-109099029D01*
X145977001Y-108907459D01*
X145977001Y-108850000D01*
X145025686Y-108850000D01*
X145030080Y-108845606D01*
X145082741Y-108754394D01*
X145110000Y-108652661D01*
X145110000Y-108547339D01*
X145082741Y-108445606D01*
X145030080Y-108354394D01*
X145025686Y-108350000D01*
X145986609Y-108350000D01*
X145978527Y-108298973D01*
X145977990Y-108295585D01*
X145914755Y-108100970D01*
X145821859Y-107918650D01*
X145701582Y-107753105D01*
X145701582Y-107753104D01*
X145556895Y-107608417D01*
X145391349Y-107488140D01*
X145324972Y-107454319D01*
X145274176Y-107406344D01*
X145257381Y-107338523D01*
X145279919Y-107272388D01*
X145334634Y-107228937D01*
X145349166Y-107224061D01*
X145376496Y-107216739D01*
X145582734Y-107120568D01*
X145769139Y-106990047D01*
X145930047Y-106829139D01*
X146060568Y-106642734D01*
X146087618Y-106584724D01*
X146133790Y-106532285D01*
X146200983Y-106513133D01*
X146267865Y-106533348D01*
X146312381Y-106584724D01*
X146312923Y-106585886D01*
X146339429Y-106642728D01*
X146339432Y-106642734D01*
X146469954Y-106829141D01*
X146630858Y-106990045D01*
X146630861Y-106990047D01*
X146817266Y-107120568D01*
X146920644Y-107168774D01*
X146973083Y-107214946D01*
X146992235Y-107282140D01*
X146972019Y-107349021D01*
X146918854Y-107394356D01*
X146880841Y-107404514D01*
X146822302Y-107410494D01*
X146655880Y-107465641D01*
X146655875Y-107465643D01*
X146506654Y-107557684D01*
X146382684Y-107681654D01*
X146290643Y-107830875D01*
X146290641Y-107830880D01*
X146235494Y-107997302D01*
X146235493Y-107997309D01*
X146225000Y-108100013D01*
X146225000Y-108269817D01*
X146229781Y-108300000D01*
X148974999Y-108300000D01*
X148974999Y-108100028D01*
X148974998Y-108100013D01*
X148964505Y-107997302D01*
X148909358Y-107830880D01*
X148909356Y-107830875D01*
X148817315Y-107681654D01*
X148693345Y-107557684D01*
X148544124Y-107465643D01*
X148544119Y-107465641D01*
X148377697Y-107410494D01*
X148377690Y-107410493D01*
X148274986Y-107400000D01*
X148082817Y-107400000D01*
X148015778Y-107380315D01*
X147970023Y-107327511D01*
X147960079Y-107258353D01*
X147989104Y-107194797D01*
X148030409Y-107163619D01*
X148122734Y-107120568D01*
X148309139Y-106990047D01*
X148470047Y-106829139D01*
X148600568Y-106642734D01*
X148627618Y-106584724D01*
X148673790Y-106532285D01*
X148740983Y-106513133D01*
X148807865Y-106533348D01*
X148852381Y-106584724D01*
X148852923Y-106585886D01*
X148879429Y-106642728D01*
X148879432Y-106642734D01*
X149009954Y-106829141D01*
X149170858Y-106990045D01*
X149170861Y-106990047D01*
X149357266Y-107120568D01*
X149563504Y-107216739D01*
X149563509Y-107216740D01*
X149563511Y-107216741D01*
X149600209Y-107226574D01*
X149783308Y-107275635D01*
X149953214Y-107290499D01*
X149953215Y-107290500D01*
X149953216Y-107290500D01*
X150066785Y-107290500D01*
X150066785Y-107290499D01*
X150236692Y-107275635D01*
X150456496Y-107216739D01*
X150662734Y-107120568D01*
X150849139Y-106990047D01*
X151010047Y-106829139D01*
X151140568Y-106642734D01*
X151164795Y-106590777D01*
X151210965Y-106538341D01*
X151278158Y-106519188D01*
X151345040Y-106539403D01*
X151386534Y-106584730D01*
X151421155Y-106649501D01*
X151421167Y-106649521D01*
X151508704Y-106780530D01*
X151508708Y-106780536D01*
X151571514Y-106857064D01*
X151682935Y-106968485D01*
X151759463Y-107031291D01*
X151759469Y-107031295D01*
X151890478Y-107118832D01*
X151890498Y-107118844D01*
X151977801Y-107165509D01*
X152123387Y-107225814D01*
X152218135Y-107254554D01*
X152300000Y-107270837D01*
X152300000Y-104823012D01*
X152357007Y-104855925D01*
X152484174Y-104890000D01*
X152615826Y-104890000D01*
X152742993Y-104855925D01*
X152800000Y-104823012D01*
X152800000Y-107270837D01*
G37*
%TD.AperFunction*%
%TA.AperFunction,Conductor*%
G36*
X108020520Y-84983572D02*
G01*
X108061989Y-85039804D01*
X108069500Y-85082304D01*
X108069500Y-86507648D01*
X108069500Y-86712352D01*
X108078406Y-86768582D01*
X108084365Y-86836692D01*
X108096171Y-86880756D01*
X108097188Y-86887175D01*
X108097190Y-86887181D01*
X108101521Y-86914525D01*
X108101522Y-86914530D01*
X108121617Y-86976378D01*
X108123460Y-86982600D01*
X108143260Y-87056494D01*
X108154529Y-87080662D01*
X108157733Y-87087532D01*
X108164780Y-87109219D01*
X108200930Y-87180169D01*
X108201844Y-87182128D01*
X108239432Y-87262734D01*
X108247562Y-87274346D01*
X108252535Y-87281448D01*
X108257713Y-87291610D01*
X108311164Y-87365180D01*
X108311793Y-87366078D01*
X108369953Y-87449140D01*
X108530858Y-87610045D01*
X108613904Y-87668194D01*
X108614800Y-87668821D01*
X108688390Y-87722287D01*
X108698547Y-87727462D01*
X108705648Y-87732434D01*
X108705652Y-87732436D01*
X108711850Y-87736776D01*
X108717266Y-87740568D01*
X108799827Y-87779067D01*
X108870781Y-87815220D01*
X108892467Y-87822266D01*
X108923504Y-87836739D01*
X108923510Y-87836740D01*
X108923513Y-87836742D01*
X108997386Y-87856535D01*
X109000528Y-87857377D01*
X109065466Y-87878477D01*
X109099233Y-87883825D01*
X109143308Y-87895635D01*
X109207103Y-87901215D01*
X109215690Y-87902269D01*
X109267648Y-87910500D01*
X109267649Y-87910500D01*
X109472350Y-87910500D01*
X109472352Y-87910500D01*
X109524308Y-87902270D01*
X109528582Y-87901592D01*
X109596692Y-87895635D01*
X109640766Y-87883825D01*
X109674534Y-87878477D01*
X109736404Y-87858373D01*
X109742617Y-87856534D01*
X109816490Y-87836741D01*
X109816492Y-87836739D01*
X109816496Y-87836739D01*
X109847532Y-87822266D01*
X109869219Y-87815220D01*
X109940172Y-87779067D01*
X110022734Y-87740568D01*
X110041446Y-87727465D01*
X110051610Y-87722287D01*
X110125199Y-87668821D01*
X110209139Y-87610047D01*
X110370047Y-87449139D01*
X110428821Y-87365199D01*
X110482287Y-87291610D01*
X110487465Y-87281446D01*
X110500568Y-87262734D01*
X110527617Y-87204724D01*
X110573788Y-87152287D01*
X110640981Y-87133134D01*
X110707862Y-87153349D01*
X110752381Y-87204724D01*
X110779433Y-87262736D01*
X110787563Y-87274347D01*
X110796469Y-87289169D01*
X110797714Y-87291612D01*
X110797714Y-87291613D01*
X110850536Y-87364316D01*
X110851793Y-87366078D01*
X110909953Y-87449140D01*
X111070858Y-87610045D01*
X111153904Y-87668194D01*
X111154800Y-87668821D01*
X111228390Y-87722287D01*
X111238547Y-87727462D01*
X111245648Y-87732434D01*
X111245652Y-87732436D01*
X111251850Y-87736776D01*
X111257266Y-87740568D01*
X111339827Y-87779067D01*
X111410781Y-87815220D01*
X111432467Y-87822266D01*
X111463504Y-87836739D01*
X111463510Y-87836740D01*
X111463513Y-87836742D01*
X111537386Y-87856535D01*
X111540528Y-87857377D01*
X111605466Y-87878477D01*
X111639233Y-87883825D01*
X111683308Y-87895635D01*
X111747103Y-87901215D01*
X111755690Y-87902269D01*
X111807648Y-87910500D01*
X111807649Y-87910500D01*
X112012350Y-87910500D01*
X112012352Y-87910500D01*
X112064308Y-87902270D01*
X112068582Y-87901592D01*
X112136692Y-87895635D01*
X112180766Y-87883825D01*
X112214534Y-87878477D01*
X112276404Y-87858373D01*
X112282617Y-87856534D01*
X112295303Y-87853135D01*
X113560414Y-87853135D01*
X113616960Y-87876557D01*
X113616964Y-87876559D01*
X113667946Y-87894544D01*
X113810219Y-87914999D01*
X113810221Y-87915000D01*
X114200000Y-87915000D01*
X114700000Y-87915000D01*
X115089786Y-87915000D01*
X115143762Y-87912106D01*
X115143764Y-87912106D01*
X115283039Y-87876558D01*
X115339584Y-87853136D01*
X115339584Y-87853135D01*
X114700000Y-87213551D01*
X114700000Y-87915000D01*
X114200000Y-87915000D01*
X114200000Y-87213552D01*
X114199999Y-87213551D01*
X113560414Y-87853135D01*
X112295303Y-87853135D01*
X112356490Y-87836741D01*
X112356492Y-87836739D01*
X112356496Y-87836739D01*
X112387532Y-87822266D01*
X112409219Y-87815220D01*
X112480172Y-87779067D01*
X112562734Y-87740568D01*
X112574382Y-87732411D01*
X112577618Y-87730222D01*
X112583211Y-87726565D01*
X112591610Y-87722287D01*
X112664358Y-87669432D01*
X112666047Y-87668227D01*
X112749139Y-87610047D01*
X112910047Y-87449139D01*
X112956623Y-87382619D01*
X113011196Y-87338996D01*
X113080695Y-87331801D01*
X113143050Y-87363322D01*
X113178344Y-87423073D01*
X113183438Y-87443028D01*
X113183442Y-87443043D01*
X113206862Y-87499584D01*
X113967037Y-86739409D01*
X113984075Y-86802993D01*
X114049901Y-86917007D01*
X114142993Y-87010099D01*
X114257007Y-87075925D01*
X114384174Y-87110000D01*
X114515826Y-87110000D01*
X114642993Y-87075925D01*
X114757007Y-87010099D01*
X114850099Y-86917007D01*
X114915925Y-86802993D01*
X114932962Y-86739410D01*
X115693135Y-87499584D01*
X115693136Y-87499584D01*
X115716556Y-87443045D01*
X115716558Y-87443039D01*
X115726507Y-87414838D01*
X115767372Y-87358165D01*
X115832390Y-87332583D01*
X115900917Y-87346213D01*
X115945019Y-87384966D01*
X115989954Y-87449141D01*
X116150858Y-87610045D01*
X116233904Y-87668194D01*
X116234800Y-87668821D01*
X116308390Y-87722287D01*
X116318547Y-87727462D01*
X116325648Y-87732434D01*
X116325652Y-87732436D01*
X116331850Y-87736776D01*
X116337266Y-87740568D01*
X116419827Y-87779067D01*
X116490781Y-87815220D01*
X116512467Y-87822266D01*
X116543504Y-87836739D01*
X116543510Y-87836740D01*
X116543513Y-87836742D01*
X116617386Y-87856535D01*
X116620528Y-87857377D01*
X116685466Y-87878477D01*
X116719233Y-87883825D01*
X116763308Y-87895635D01*
X116827103Y-87901215D01*
X116835690Y-87902269D01*
X116887648Y-87910500D01*
X116887649Y-87910500D01*
X117092350Y-87910500D01*
X117092352Y-87910500D01*
X117144308Y-87902270D01*
X117148582Y-87901592D01*
X117216692Y-87895635D01*
X117260766Y-87883825D01*
X117294534Y-87878477D01*
X117356404Y-87858373D01*
X117362617Y-87856534D01*
X117436490Y-87836741D01*
X117436492Y-87836739D01*
X117436496Y-87836739D01*
X117467532Y-87822266D01*
X117489219Y-87815220D01*
X117560172Y-87779067D01*
X117642734Y-87740568D01*
X117661446Y-87727465D01*
X117671610Y-87722287D01*
X117745199Y-87668821D01*
X117829139Y-87610047D01*
X117990047Y-87449139D01*
X118048821Y-87365199D01*
X118102287Y-87291610D01*
X118107465Y-87281446D01*
X118120568Y-87262734D01*
X118147617Y-87204724D01*
X118193788Y-87152287D01*
X118260981Y-87133134D01*
X118327862Y-87153349D01*
X118372381Y-87204724D01*
X118399433Y-87262736D01*
X118407563Y-87274347D01*
X118416469Y-87289169D01*
X118417714Y-87291612D01*
X118417714Y-87291613D01*
X118470536Y-87364316D01*
X118471793Y-87366078D01*
X118529953Y-87449140D01*
X118690858Y-87610045D01*
X118773904Y-87668194D01*
X118774800Y-87668821D01*
X118848390Y-87722287D01*
X118858547Y-87727462D01*
X118865648Y-87732434D01*
X118865652Y-87732436D01*
X118871850Y-87736776D01*
X118877266Y-87740568D01*
X118959827Y-87779067D01*
X119030781Y-87815220D01*
X119052467Y-87822266D01*
X119083504Y-87836739D01*
X119083510Y-87836740D01*
X119083513Y-87836742D01*
X119157386Y-87856535D01*
X119160528Y-87857377D01*
X119225466Y-87878477D01*
X119259233Y-87883825D01*
X119303308Y-87895635D01*
X119367103Y-87901215D01*
X119375690Y-87902269D01*
X119427648Y-87910500D01*
X119427649Y-87910500D01*
X119632353Y-87910500D01*
X119636607Y-87910165D01*
X119704985Y-87924525D01*
X119734023Y-87946101D01*
X125455199Y-93667278D01*
X125455203Y-93667281D01*
X125586306Y-93754882D01*
X125586319Y-93754889D01*
X125707551Y-93805104D01*
X125731995Y-93815229D01*
X125860483Y-93840787D01*
X125886645Y-93845991D01*
X125886648Y-93845992D01*
X125886650Y-93845992D01*
X126044334Y-93845992D01*
X127428928Y-93845992D01*
X127495967Y-93865677D01*
X127541722Y-93918481D01*
X127550175Y-93977275D01*
X127552371Y-93977347D01*
X127550000Y-94049999D01*
X127550000Y-94950000D01*
X127552138Y-95015541D01*
X127552138Y-95015544D01*
X127552139Y-95015545D01*
X127586068Y-95142167D01*
X127643687Y-95241968D01*
X127651611Y-95255692D01*
X127651613Y-95255695D01*
X127683737Y-95287819D01*
X127717222Y-95349142D01*
X127712238Y-95418834D01*
X127670366Y-95474767D01*
X127604902Y-95499184D01*
X127596056Y-95499500D01*
X115421155Y-95499500D01*
X115266510Y-95530261D01*
X115266498Y-95530264D01*
X115120827Y-95590602D01*
X115120814Y-95590609D01*
X114989711Y-95678210D01*
X114989707Y-95678213D01*
X113555345Y-97112575D01*
X113494022Y-97146060D01*
X113424330Y-97141076D01*
X113379983Y-97112575D01*
X113295789Y-97028381D01*
X113295787Y-97028379D01*
X113146096Y-96919622D01*
X112981235Y-96835620D01*
X112981232Y-96835619D01*
X112805265Y-96778445D01*
X112713889Y-96763972D01*
X112622514Y-96749500D01*
X112437486Y-96749500D01*
X112376569Y-96759148D01*
X112254734Y-96778445D01*
X112078767Y-96835619D01*
X112078764Y-96835620D01*
X111913903Y-96919622D01*
X111895273Y-96933158D01*
X111764213Y-97028379D01*
X111764211Y-97028381D01*
X111764210Y-97028381D01*
X111633381Y-97159210D01*
X111633381Y-97159211D01*
X111633379Y-97159213D01*
X111586672Y-97223499D01*
X111524622Y-97308903D01*
X111440620Y-97473764D01*
X111440619Y-97473767D01*
X111383445Y-97649734D01*
X111354500Y-97832486D01*
X111354500Y-98017513D01*
X111383445Y-98200265D01*
X111440619Y-98376232D01*
X111440620Y-98376235D01*
X111519042Y-98530145D01*
X111524622Y-98541096D01*
X111633379Y-98690787D01*
X111633381Y-98690789D01*
X111717575Y-98774983D01*
X111751060Y-98836306D01*
X111746076Y-98905998D01*
X111717575Y-98950345D01*
X109468891Y-101199031D01*
X108789711Y-101878211D01*
X108737633Y-101930289D01*
X108678209Y-101989712D01*
X108590609Y-102120814D01*
X108590602Y-102120827D01*
X108530264Y-102266498D01*
X108530261Y-102266510D01*
X108499500Y-102421153D01*
X108499500Y-103065035D01*
X108479815Y-103132074D01*
X108439651Y-103171151D01*
X108334814Y-103234528D01*
X108334810Y-103234531D01*
X108214530Y-103354811D01*
X108126522Y-103500393D01*
X108075913Y-103662807D01*
X108069500Y-103733386D01*
X108069500Y-104254348D01*
X108068903Y-104266501D01*
X108064500Y-104311209D01*
X108064500Y-105971548D01*
X108044815Y-106038587D01*
X107992011Y-106084342D01*
X107922853Y-106094286D01*
X107859297Y-106065261D01*
X107831564Y-106030784D01*
X107764909Y-105908206D01*
X107706538Y-105800859D01*
X107699370Y-105785164D01*
X107677391Y-105726554D01*
X107280963Y-104669409D01*
X107208395Y-104475895D01*
X107200500Y-104432356D01*
X107200500Y-92668713D01*
X108149500Y-92668713D01*
X108149500Y-92881287D01*
X108182754Y-93091243D01*
X108246628Y-93287827D01*
X108248444Y-93293414D01*
X108344948Y-93482814D01*
X108344949Y-93482816D01*
X108401852Y-93561138D01*
X108425331Y-93626945D01*
X108409505Y-93694998D01*
X108389216Y-93721702D01*
X108366612Y-93744306D01*
X108310909Y-93840787D01*
X108301067Y-93857833D01*
X108279461Y-93938469D01*
X108267139Y-93984455D01*
X108265000Y-94049999D01*
X108265000Y-94950000D01*
X108267138Y-95015541D01*
X108267138Y-95015544D01*
X108267139Y-95015545D01*
X108301068Y-95142167D01*
X108366612Y-95255694D01*
X108459306Y-95348388D01*
X108520982Y-95383996D01*
X108528404Y-95388281D01*
X108576620Y-95438848D01*
X108589844Y-95507455D01*
X108563876Y-95572320D01*
X108528406Y-95603055D01*
X108444312Y-95651607D01*
X108444303Y-95651614D01*
X108351614Y-95744303D01*
X108351612Y-95744306D01*
X108286067Y-95857833D01*
X108282149Y-95872455D01*
X108252139Y-95984455D01*
X108250000Y-96049999D01*
X108250000Y-96950000D01*
X108252138Y-97015541D01*
X108252138Y-97015544D01*
X108252139Y-97015545D01*
X108286068Y-97142167D01*
X108330195Y-97218599D01*
X108351611Y-97255692D01*
X108351613Y-97255695D01*
X108382902Y-97286984D01*
X108416387Y-97348307D01*
X108411403Y-97417999D01*
X108395540Y-97447549D01*
X108344949Y-97517183D01*
X108344948Y-97517185D01*
X108248444Y-97706585D01*
X108182753Y-97908760D01*
X108149500Y-98118713D01*
X108149500Y-98331286D01*
X108182730Y-98541096D01*
X108182754Y-98541243D01*
X108247404Y-98740215D01*
X108248444Y-98743414D01*
X108344951Y-98932820D01*
X108469890Y-99104786D01*
X108620213Y-99255109D01*
X108792179Y-99380048D01*
X108792181Y-99380049D01*
X108792184Y-99380051D01*
X108981588Y-99476557D01*
X109183757Y-99542246D01*
X109393713Y-99575500D01*
X109393714Y-99575500D01*
X109606286Y-99575500D01*
X109606287Y-99575500D01*
X109816243Y-99542246D01*
X110018412Y-99476557D01*
X110207816Y-99380051D01*
X110260686Y-99341639D01*
X110379786Y-99255109D01*
X110379788Y-99255106D01*
X110379792Y-99255104D01*
X110530104Y-99104792D01*
X110530106Y-99104788D01*
X110530109Y-99104786D01*
X110655048Y-98932820D01*
X110655047Y-98932820D01*
X110655051Y-98932816D01*
X110751557Y-98743412D01*
X110817246Y-98541243D01*
X110850500Y-98331287D01*
X110850500Y-98118713D01*
X110817246Y-97908757D01*
X110751557Y-97706588D01*
X110655051Y-97517184D01*
X110655049Y-97517181D01*
X110655048Y-97517179D01*
X110530109Y-97345213D01*
X110379786Y-97194890D01*
X110203875Y-97067085D01*
X110204668Y-97065993D01*
X110161910Y-97018721D01*
X110149648Y-96960771D01*
X110150000Y-96949995D01*
X110150000Y-96049999D01*
X110149932Y-96047927D01*
X110147861Y-95984455D01*
X110113933Y-95857833D01*
X110048388Y-95744306D01*
X109955694Y-95651612D01*
X109953732Y-95650479D01*
X109886593Y-95611715D01*
X109838378Y-95561148D01*
X109825156Y-95492541D01*
X109851124Y-95427676D01*
X109886591Y-95396943D01*
X109970694Y-95348388D01*
X110063388Y-95255694D01*
X110128932Y-95142167D01*
X110153629Y-95049999D01*
X111550000Y-95049999D01*
X111550000Y-95950000D01*
X111552138Y-96015541D01*
X111552138Y-96015544D01*
X111552139Y-96015545D01*
X111586068Y-96142167D01*
X111651612Y-96255694D01*
X111744306Y-96348388D01*
X111857833Y-96413932D01*
X111984455Y-96447861D01*
X112050000Y-96450000D01*
X112950000Y-96450000D01*
X113015545Y-96447861D01*
X113142167Y-96413932D01*
X113255694Y-96348388D01*
X113348388Y-96255694D01*
X113413932Y-96142167D01*
X113447861Y-96015545D01*
X113450000Y-95950000D01*
X113450000Y-95500000D01*
X113450000Y-95050000D01*
X113447861Y-94984455D01*
X113413933Y-94857833D01*
X113348388Y-94744306D01*
X113255694Y-94651612D01*
X113142167Y-94586067D01*
X113015545Y-94552139D01*
X112950000Y-94550000D01*
X112050000Y-94550000D01*
X111984455Y-94552139D01*
X111857833Y-94586067D01*
X111857831Y-94586067D01*
X111857831Y-94586068D01*
X111744306Y-94651612D01*
X111744303Y-94651614D01*
X111651614Y-94744303D01*
X111651612Y-94744306D01*
X111586068Y-94857831D01*
X111552139Y-94984455D01*
X111550000Y-95049999D01*
X110153629Y-95049999D01*
X110162861Y-95015545D01*
X110165000Y-94950000D01*
X110165000Y-94500000D01*
X110165000Y-94050000D01*
X110164312Y-94028931D01*
X110181798Y-93961287D01*
X110215357Y-93924571D01*
X110379792Y-93805104D01*
X110530104Y-93654792D01*
X110530106Y-93654788D01*
X110530109Y-93654786D01*
X110655048Y-93482820D01*
X110655047Y-93482820D01*
X110655051Y-93482816D01*
X110751557Y-93293412D01*
X110817246Y-93091243D01*
X110834472Y-92982486D01*
X111354500Y-92982486D01*
X111354500Y-93167513D01*
X111383445Y-93350265D01*
X111440619Y-93526232D01*
X111440620Y-93526235D01*
X111520675Y-93683350D01*
X111524622Y-93691096D01*
X111633379Y-93840787D01*
X111764213Y-93971621D01*
X111913904Y-94080378D01*
X111983824Y-94116004D01*
X112078764Y-94164379D01*
X112078767Y-94164380D01*
X112166750Y-94192967D01*
X112254736Y-94221555D01*
X112437486Y-94250500D01*
X112437487Y-94250500D01*
X112622513Y-94250500D01*
X112622514Y-94250500D01*
X112805264Y-94221555D01*
X112981235Y-94164379D01*
X113146096Y-94080378D01*
X113295787Y-93971621D01*
X113426621Y-93840787D01*
X113535378Y-93691096D01*
X113619379Y-93526235D01*
X113676555Y-93350264D01*
X113705500Y-93167514D01*
X113705500Y-92982486D01*
X113676555Y-92799736D01*
X113647967Y-92711750D01*
X113619380Y-92623767D01*
X113619379Y-92623764D01*
X113567420Y-92521790D01*
X113535378Y-92458904D01*
X113426621Y-92309213D01*
X113295787Y-92178379D01*
X113146096Y-92069622D01*
X113124233Y-92058482D01*
X112981235Y-91985620D01*
X112981232Y-91985619D01*
X112805265Y-91928445D01*
X112713889Y-91913972D01*
X112622514Y-91899500D01*
X112437486Y-91899500D01*
X112376569Y-91909148D01*
X112254734Y-91928445D01*
X112078767Y-91985619D01*
X112078764Y-91985620D01*
X111913903Y-92069622D01*
X111835889Y-92126303D01*
X111764213Y-92178379D01*
X111764211Y-92178381D01*
X111764210Y-92178381D01*
X111633381Y-92309210D01*
X111633381Y-92309211D01*
X111633379Y-92309213D01*
X111618037Y-92330330D01*
X111524622Y-92458903D01*
X111440620Y-92623764D01*
X111440619Y-92623767D01*
X111383445Y-92799734D01*
X111354500Y-92982486D01*
X110834472Y-92982486D01*
X110850500Y-92881287D01*
X110850500Y-92668713D01*
X110817246Y-92458757D01*
X110751557Y-92256588D01*
X110655051Y-92067184D01*
X110655049Y-92067181D01*
X110655048Y-92067179D01*
X110530109Y-91895213D01*
X110413607Y-91778711D01*
X116249500Y-91778711D01*
X116249500Y-92021287D01*
X116281161Y-92261785D01*
X116343947Y-92496104D01*
X116381723Y-92587303D01*
X116436776Y-92720212D01*
X116558064Y-92930289D01*
X116558066Y-92930292D01*
X116558067Y-92930293D01*
X116705733Y-93122736D01*
X116705739Y-93122743D01*
X116877256Y-93294260D01*
X116877263Y-93294266D01*
X116946482Y-93347379D01*
X117069711Y-93441936D01*
X117279788Y-93563224D01*
X117503900Y-93656054D01*
X117738211Y-93718838D01*
X117918586Y-93742584D01*
X117978711Y-93750500D01*
X117978712Y-93750500D01*
X118221289Y-93750500D01*
X118269388Y-93744167D01*
X118461789Y-93718838D01*
X118696100Y-93656054D01*
X118920212Y-93563224D01*
X119130289Y-93441936D01*
X119322738Y-93294265D01*
X119494265Y-93122738D01*
X119641936Y-92930289D01*
X119763224Y-92720212D01*
X119856054Y-92496100D01*
X119918838Y-92261789D01*
X119950500Y-92021288D01*
X119950500Y-91778712D01*
X119949318Y-91769737D01*
X119930125Y-91623947D01*
X119918838Y-91538211D01*
X119856054Y-91303900D01*
X119763224Y-91079788D01*
X119641936Y-90869711D01*
X119494265Y-90677262D01*
X119494260Y-90677256D01*
X119322743Y-90505739D01*
X119322736Y-90505733D01*
X119130293Y-90358067D01*
X119130292Y-90358066D01*
X119130289Y-90358064D01*
X118920212Y-90236776D01*
X118830220Y-90199500D01*
X118696104Y-90143947D01*
X118461785Y-90081161D01*
X118221289Y-90049500D01*
X118221288Y-90049500D01*
X117978712Y-90049500D01*
X117978711Y-90049500D01*
X117738214Y-90081161D01*
X117503895Y-90143947D01*
X117279794Y-90236773D01*
X117279785Y-90236777D01*
X117069706Y-90358067D01*
X116877263Y-90505733D01*
X116877256Y-90505739D01*
X116705739Y-90677256D01*
X116705733Y-90677263D01*
X116558067Y-90869706D01*
X116558064Y-90869710D01*
X116558064Y-90869711D01*
X116549139Y-90885170D01*
X116436777Y-91079785D01*
X116436773Y-91079794D01*
X116343947Y-91303895D01*
X116281161Y-91538214D01*
X116249500Y-91778711D01*
X110413607Y-91778711D01*
X110379786Y-91744890D01*
X110207820Y-91619951D01*
X110018414Y-91523444D01*
X110018413Y-91523443D01*
X110018412Y-91523443D01*
X109816243Y-91457754D01*
X109816241Y-91457753D01*
X109816240Y-91457753D01*
X109654957Y-91432208D01*
X109606287Y-91424500D01*
X109393713Y-91424500D01*
X109345042Y-91432208D01*
X109183760Y-91457753D01*
X108981585Y-91523444D01*
X108792179Y-91619951D01*
X108620213Y-91744890D01*
X108469890Y-91895213D01*
X108344951Y-92067179D01*
X108248444Y-92256585D01*
X108182753Y-92458760D01*
X108156619Y-92623764D01*
X108149500Y-92668713D01*
X107200500Y-92668713D01*
X107200500Y-86200455D01*
X107216096Y-86140250D01*
X107285335Y-86015581D01*
X107837096Y-85022098D01*
X107886855Y-84973049D01*
X107955232Y-84958687D01*
X108020520Y-84983572D01*
G37*
%TD.AperFunction*%
%TA.AperFunction,Conductor*%
G36*
X156384099Y-100120185D02*
G01*
X156404741Y-100136819D01*
X159805740Y-103537819D01*
X159839225Y-103599142D01*
X159834241Y-103668834D01*
X159792369Y-103724767D01*
X159726905Y-103749184D01*
X159718059Y-103749500D01*
X159709449Y-103749500D01*
X159530589Y-103777829D01*
X159358363Y-103833787D01*
X159358360Y-103833788D01*
X159197006Y-103916003D01*
X159051982Y-104021369D01*
X159028861Y-104029618D01*
X159007523Y-104041748D01*
X158996537Y-104041150D01*
X158986175Y-104044848D01*
X158962267Y-104039288D01*
X158937757Y-104037956D01*
X158928837Y-104031514D01*
X158918121Y-104029022D01*
X158901013Y-104011418D01*
X158881115Y-103997047D01*
X158874921Y-103984570D01*
X158869427Y-103978916D01*
X158863673Y-103966364D01*
X158861125Y-103959875D01*
X158856739Y-103943504D01*
X158843831Y-103915825D01*
X158842428Y-103912249D01*
X158842355Y-103911433D01*
X158839924Y-103905261D01*
X158835220Y-103890781D01*
X158800046Y-103821748D01*
X158798149Y-103817858D01*
X158760568Y-103737266D01*
X158752436Y-103725652D01*
X158752436Y-103725651D01*
X158747462Y-103718548D01*
X158742287Y-103708390D01*
X158688821Y-103634800D01*
X158688215Y-103633935D01*
X158688205Y-103633920D01*
X158630045Y-103550858D01*
X158469140Y-103389953D01*
X158386078Y-103331793D01*
X158385180Y-103331164D01*
X158311610Y-103277713D01*
X158301448Y-103272535D01*
X158294346Y-103267562D01*
X158282734Y-103259432D01*
X158202128Y-103221844D01*
X158200169Y-103220930D01*
X158129219Y-103184780D01*
X158107534Y-103177733D01*
X158100662Y-103174529D01*
X158100661Y-103174528D01*
X158076494Y-103163260D01*
X158002600Y-103143460D01*
X158002600Y-103143459D01*
X157999446Y-103142614D01*
X157934534Y-103121523D01*
X157900766Y-103116174D01*
X157856692Y-103104365D01*
X157856689Y-103104364D01*
X157856686Y-103104364D01*
X157792891Y-103098783D01*
X157784301Y-103097728D01*
X157779345Y-103096943D01*
X157732352Y-103089500D01*
X157527648Y-103089500D01*
X157527644Y-103089500D01*
X157475697Y-103097728D01*
X157475695Y-103097728D01*
X157471410Y-103098406D01*
X157403308Y-103104365D01*
X157359245Y-103116170D01*
X157352841Y-103117185D01*
X157352824Y-103117189D01*
X157325463Y-103121523D01*
X157325459Y-103121524D01*
X157263627Y-103141615D01*
X157257404Y-103143459D01*
X157183504Y-103163261D01*
X157183503Y-103163261D01*
X157159338Y-103174529D01*
X157159337Y-103174528D01*
X157152456Y-103177736D01*
X157130781Y-103184780D01*
X157059886Y-103220901D01*
X157057900Y-103221828D01*
X157057882Y-103221838D01*
X156977262Y-103259433D01*
X156965655Y-103267559D01*
X156965656Y-103267560D01*
X156958549Y-103272535D01*
X156948390Y-103277713D01*
X156874870Y-103331126D01*
X156873939Y-103331779D01*
X156790859Y-103389954D01*
X156629954Y-103550859D01*
X156571781Y-103633934D01*
X156571782Y-103633935D01*
X156571132Y-103634863D01*
X156517713Y-103708390D01*
X156512535Y-103718550D01*
X156507560Y-103725656D01*
X156507558Y-103725656D01*
X156499435Y-103737260D01*
X156472380Y-103795276D01*
X156426206Y-103847714D01*
X156359012Y-103866864D01*
X156292131Y-103846646D01*
X156247617Y-103795272D01*
X156220570Y-103737270D01*
X156220568Y-103737266D01*
X156212436Y-103725652D01*
X156203524Y-103710818D01*
X156202288Y-103708391D01*
X156202286Y-103708388D01*
X156149462Y-103635682D01*
X156148205Y-103633920D01*
X156090045Y-103550858D01*
X155929140Y-103389953D01*
X155846078Y-103331793D01*
X155845180Y-103331164D01*
X155771610Y-103277713D01*
X155761448Y-103272535D01*
X155754346Y-103267562D01*
X155742734Y-103259432D01*
X155662128Y-103221844D01*
X155660169Y-103220930D01*
X155589219Y-103184780D01*
X155567534Y-103177733D01*
X155560662Y-103174529D01*
X155560661Y-103174528D01*
X155536494Y-103163260D01*
X155462600Y-103143460D01*
X155462600Y-103143459D01*
X155459446Y-103142614D01*
X155394534Y-103121523D01*
X155360766Y-103116174D01*
X155316692Y-103104365D01*
X155316689Y-103104364D01*
X155316686Y-103104364D01*
X155252891Y-103098783D01*
X155244301Y-103097728D01*
X155239345Y-103096943D01*
X155192352Y-103089500D01*
X154987648Y-103089500D01*
X154987644Y-103089500D01*
X154935697Y-103097728D01*
X154935695Y-103097728D01*
X154931410Y-103098406D01*
X154863308Y-103104365D01*
X154819245Y-103116170D01*
X154812841Y-103117185D01*
X154812824Y-103117189D01*
X154785463Y-103121523D01*
X154785459Y-103121524D01*
X154723627Y-103141615D01*
X154717404Y-103143459D01*
X154643504Y-103163261D01*
X154643503Y-103163261D01*
X154619338Y-103174529D01*
X154619337Y-103174528D01*
X154612456Y-103177736D01*
X154590781Y-103184780D01*
X154519886Y-103220901D01*
X154517900Y-103221828D01*
X154517882Y-103221838D01*
X154437262Y-103259433D01*
X154425655Y-103267559D01*
X154425656Y-103267560D01*
X154418549Y-103272535D01*
X154408390Y-103277713D01*
X154334870Y-103331126D01*
X154333939Y-103331779D01*
X154250859Y-103389954D01*
X154089954Y-103550859D01*
X154043374Y-103617380D01*
X153988796Y-103661004D01*
X153919298Y-103668195D01*
X153856944Y-103636671D01*
X153821652Y-103576918D01*
X153816559Y-103556962D01*
X153793135Y-103500414D01*
X153032961Y-104260588D01*
X153015925Y-104197007D01*
X152950099Y-104082993D01*
X152857007Y-103989901D01*
X152742993Y-103924075D01*
X152615826Y-103890000D01*
X152484174Y-103890000D01*
X152357007Y-103924075D01*
X152242993Y-103989901D01*
X152149901Y-104082993D01*
X152084075Y-104197007D01*
X152067037Y-104260589D01*
X151306863Y-103500415D01*
X151306862Y-103500415D01*
X151283446Y-103556947D01*
X151283431Y-103556987D01*
X151273491Y-103585164D01*
X151232625Y-103641835D01*
X151167607Y-103667417D01*
X151099079Y-103653785D01*
X151054979Y-103615032D01*
X151010044Y-103550857D01*
X150849140Y-103389953D01*
X150766078Y-103331793D01*
X150764316Y-103330536D01*
X150705763Y-103287995D01*
X150691612Y-103277714D01*
X150689169Y-103276469D01*
X150674347Y-103267563D01*
X150662734Y-103259432D01*
X150582128Y-103221844D01*
X150580169Y-103220930D01*
X150509219Y-103184780D01*
X150487534Y-103177733D01*
X150480662Y-103174529D01*
X150480661Y-103174528D01*
X150456494Y-103163260D01*
X150395300Y-103146863D01*
X151660414Y-103146863D01*
X152299999Y-103786448D01*
X152800000Y-103786448D01*
X153439584Y-103146862D01*
X153383059Y-103123449D01*
X153332053Y-103105455D01*
X153189780Y-103085000D01*
X152800000Y-103085000D01*
X152800000Y-103786448D01*
X152299999Y-103786448D01*
X152300000Y-103786447D01*
X152300000Y-103085000D01*
X151910214Y-103085000D01*
X151856237Y-103087893D01*
X151856235Y-103087893D01*
X151716976Y-103123436D01*
X151716962Y-103123441D01*
X151660414Y-103146863D01*
X150395300Y-103146863D01*
X150382600Y-103143460D01*
X150382600Y-103143459D01*
X150379446Y-103142614D01*
X150314534Y-103121523D01*
X150280766Y-103116174D01*
X150236692Y-103104365D01*
X150236689Y-103104364D01*
X150236686Y-103104364D01*
X150172891Y-103098783D01*
X150164301Y-103097728D01*
X150159345Y-103096943D01*
X150112352Y-103089500D01*
X149907648Y-103089500D01*
X149907644Y-103089500D01*
X149855697Y-103097728D01*
X149855695Y-103097728D01*
X149851410Y-103098406D01*
X149783308Y-103104365D01*
X149739245Y-103116170D01*
X149732841Y-103117185D01*
X149732824Y-103117189D01*
X149705463Y-103121523D01*
X149705459Y-103121524D01*
X149643627Y-103141615D01*
X149637404Y-103143459D01*
X149563504Y-103163261D01*
X149563503Y-103163261D01*
X149539338Y-103174529D01*
X149539337Y-103174528D01*
X149532456Y-103177736D01*
X149510781Y-103184780D01*
X149439886Y-103220901D01*
X149437900Y-103221828D01*
X149437882Y-103221838D01*
X149357262Y-103259433D01*
X149345655Y-103267559D01*
X149345656Y-103267560D01*
X149338549Y-103272535D01*
X149328390Y-103277713D01*
X149254870Y-103331126D01*
X149253939Y-103331779D01*
X149170859Y-103389954D01*
X149009954Y-103550859D01*
X148951781Y-103633934D01*
X148951782Y-103633935D01*
X148951132Y-103634863D01*
X148897713Y-103708390D01*
X148892535Y-103718550D01*
X148887560Y-103725656D01*
X148887558Y-103725656D01*
X148879435Y-103737260D01*
X148852380Y-103795276D01*
X148806206Y-103847714D01*
X148739012Y-103866864D01*
X148672131Y-103846646D01*
X148627617Y-103795272D01*
X148600570Y-103737270D01*
X148600568Y-103737266D01*
X148592436Y-103725652D01*
X148583524Y-103710818D01*
X148582288Y-103708391D01*
X148582286Y-103708388D01*
X148529462Y-103635682D01*
X148528205Y-103633920D01*
X148470045Y-103550858D01*
X148309140Y-103389953D01*
X148226078Y-103331793D01*
X148225180Y-103331164D01*
X148151610Y-103277713D01*
X148141448Y-103272535D01*
X148134346Y-103267562D01*
X148122734Y-103259432D01*
X148042128Y-103221844D01*
X148040169Y-103220930D01*
X147969219Y-103184780D01*
X147947534Y-103177733D01*
X147940662Y-103174529D01*
X147940661Y-103174528D01*
X147916494Y-103163260D01*
X147842600Y-103143460D01*
X147842600Y-103143459D01*
X147839446Y-103142614D01*
X147774534Y-103121523D01*
X147740766Y-103116174D01*
X147696692Y-103104365D01*
X147696689Y-103104364D01*
X147696686Y-103104364D01*
X147632891Y-103098783D01*
X147624301Y-103097728D01*
X147619345Y-103096943D01*
X147572352Y-103089500D01*
X147367648Y-103089500D01*
X147367644Y-103089500D01*
X147315697Y-103097728D01*
X147315695Y-103097728D01*
X147311410Y-103098406D01*
X147243308Y-103104365D01*
X147199245Y-103116170D01*
X147192841Y-103117185D01*
X147192824Y-103117189D01*
X147165463Y-103121523D01*
X147165459Y-103121524D01*
X147103627Y-103141615D01*
X147097404Y-103143459D01*
X147023504Y-103163261D01*
X147023503Y-103163261D01*
X146999338Y-103174529D01*
X146999337Y-103174528D01*
X146992456Y-103177736D01*
X146970781Y-103184780D01*
X146899886Y-103220901D01*
X146897900Y-103221828D01*
X146897882Y-103221838D01*
X146817262Y-103259433D01*
X146805655Y-103267559D01*
X146805656Y-103267560D01*
X146798549Y-103272535D01*
X146788390Y-103277713D01*
X146714870Y-103331126D01*
X146713939Y-103331779D01*
X146630859Y-103389954D01*
X146469954Y-103550859D01*
X146411781Y-103633934D01*
X146411782Y-103633935D01*
X146411132Y-103634863D01*
X146357713Y-103708390D01*
X146352535Y-103718550D01*
X146347560Y-103725656D01*
X146347558Y-103725656D01*
X146339435Y-103737260D01*
X146312380Y-103795276D01*
X146266206Y-103847714D01*
X146199012Y-103866864D01*
X146132131Y-103846646D01*
X146087617Y-103795272D01*
X146060570Y-103737270D01*
X146060568Y-103737266D01*
X146052436Y-103725652D01*
X146043524Y-103710818D01*
X146042288Y-103708391D01*
X146042286Y-103708388D01*
X145989462Y-103635682D01*
X145988205Y-103633920D01*
X145930045Y-103550858D01*
X145769140Y-103389953D01*
X145686078Y-103331793D01*
X145685180Y-103331164D01*
X145611610Y-103277713D01*
X145601448Y-103272535D01*
X145594346Y-103267562D01*
X145582734Y-103259432D01*
X145502128Y-103221844D01*
X145500169Y-103220930D01*
X145429219Y-103184780D01*
X145407534Y-103177733D01*
X145400662Y-103174529D01*
X145400661Y-103174528D01*
X145376494Y-103163260D01*
X145302600Y-103143460D01*
X145302600Y-103143459D01*
X145299446Y-103142614D01*
X145234534Y-103121523D01*
X145200766Y-103116174D01*
X145156692Y-103104365D01*
X145156689Y-103104364D01*
X145156686Y-103104364D01*
X145092891Y-103098783D01*
X145084301Y-103097728D01*
X145079345Y-103096943D01*
X145032352Y-103089500D01*
X144827648Y-103089500D01*
X144827644Y-103089500D01*
X144775697Y-103097728D01*
X144775695Y-103097728D01*
X144771410Y-103098406D01*
X144703308Y-103104365D01*
X144659245Y-103116170D01*
X144652841Y-103117185D01*
X144652824Y-103117189D01*
X144625463Y-103121523D01*
X144625459Y-103121524D01*
X144563627Y-103141615D01*
X144557404Y-103143459D01*
X144483504Y-103163261D01*
X144483503Y-103163261D01*
X144459338Y-103174529D01*
X144459337Y-103174528D01*
X144452456Y-103177736D01*
X144430781Y-103184780D01*
X144359886Y-103220901D01*
X144357900Y-103221828D01*
X144357882Y-103221838D01*
X144277262Y-103259433D01*
X144265655Y-103267559D01*
X144265656Y-103267560D01*
X144258549Y-103272535D01*
X144248390Y-103277713D01*
X144174870Y-103331126D01*
X144173939Y-103331779D01*
X144090859Y-103389954D01*
X143929954Y-103550859D01*
X143871781Y-103633934D01*
X143871782Y-103633935D01*
X143871132Y-103634863D01*
X143817713Y-103708390D01*
X143812535Y-103718550D01*
X143807560Y-103725656D01*
X143807558Y-103725656D01*
X143799435Y-103737260D01*
X143772380Y-103795276D01*
X143726206Y-103847714D01*
X143659012Y-103866864D01*
X143592131Y-103846646D01*
X143547617Y-103795272D01*
X143520570Y-103737270D01*
X143520568Y-103737266D01*
X143512436Y-103725652D01*
X143503524Y-103710818D01*
X143502288Y-103708391D01*
X143502286Y-103708388D01*
X143449462Y-103635682D01*
X143448205Y-103633920D01*
X143390045Y-103550858D01*
X143229140Y-103389953D01*
X143146078Y-103331793D01*
X143145180Y-103331164D01*
X143071610Y-103277713D01*
X143061448Y-103272535D01*
X143054346Y-103267562D01*
X143042734Y-103259432D01*
X142962128Y-103221844D01*
X142960169Y-103220930D01*
X142889219Y-103184780D01*
X142867534Y-103177733D01*
X142860662Y-103174529D01*
X142860661Y-103174528D01*
X142836494Y-103163260D01*
X142762600Y-103143460D01*
X142762600Y-103143459D01*
X142759446Y-103142614D01*
X142694534Y-103121523D01*
X142660766Y-103116174D01*
X142616692Y-103104365D01*
X142616689Y-103104364D01*
X142616686Y-103104364D01*
X142552891Y-103098783D01*
X142544301Y-103097728D01*
X142539345Y-103096943D01*
X142492352Y-103089500D01*
X142287648Y-103089500D01*
X142287644Y-103089500D01*
X142235697Y-103097728D01*
X142235695Y-103097728D01*
X142231410Y-103098406D01*
X142163308Y-103104365D01*
X142119245Y-103116170D01*
X142112841Y-103117185D01*
X142112824Y-103117189D01*
X142085463Y-103121523D01*
X142085459Y-103121524D01*
X142023627Y-103141615D01*
X142017404Y-103143459D01*
X141943504Y-103163261D01*
X141943503Y-103163261D01*
X141919338Y-103174529D01*
X141919337Y-103174528D01*
X141912456Y-103177736D01*
X141890781Y-103184780D01*
X141819886Y-103220901D01*
X141817900Y-103221828D01*
X141817882Y-103221838D01*
X141737262Y-103259433D01*
X141725655Y-103267559D01*
X141725656Y-103267560D01*
X141718549Y-103272535D01*
X141708390Y-103277713D01*
X141634870Y-103331126D01*
X141633939Y-103331779D01*
X141550859Y-103389954D01*
X141389954Y-103550859D01*
X141343374Y-103617380D01*
X141288796Y-103661004D01*
X141219298Y-103668195D01*
X141156944Y-103636671D01*
X141121652Y-103576918D01*
X141116559Y-103556962D01*
X141093135Y-103500414D01*
X140332961Y-104260588D01*
X140315925Y-104197007D01*
X140250099Y-104082993D01*
X140157007Y-103989901D01*
X140042993Y-103924075D01*
X139915826Y-103890000D01*
X139784174Y-103890000D01*
X139657007Y-103924075D01*
X139542993Y-103989901D01*
X139449901Y-104082993D01*
X139384075Y-104197007D01*
X139367037Y-104260589D01*
X138606863Y-103500415D01*
X138606862Y-103500415D01*
X138583446Y-103556947D01*
X138583431Y-103556987D01*
X138573491Y-103585164D01*
X138532625Y-103641835D01*
X138467607Y-103667417D01*
X138399079Y-103653785D01*
X138354979Y-103615032D01*
X138310044Y-103550857D01*
X138149140Y-103389953D01*
X138066078Y-103331793D01*
X138064316Y-103330536D01*
X138005763Y-103287995D01*
X137991612Y-103277714D01*
X137989169Y-103276469D01*
X137974347Y-103267563D01*
X137962734Y-103259432D01*
X137882128Y-103221844D01*
X137880169Y-103220930D01*
X137809219Y-103184780D01*
X137787534Y-103177733D01*
X137780662Y-103174529D01*
X137780661Y-103174528D01*
X137756494Y-103163260D01*
X137695300Y-103146863D01*
X138960414Y-103146863D01*
X139599999Y-103786448D01*
X140100000Y-103786448D01*
X140739584Y-103146862D01*
X140683059Y-103123449D01*
X140632053Y-103105455D01*
X140489780Y-103085000D01*
X140100000Y-103085000D01*
X140100000Y-103786448D01*
X139599999Y-103786448D01*
X139600000Y-103786447D01*
X139600000Y-103085000D01*
X139210214Y-103085000D01*
X139156237Y-103087893D01*
X139156235Y-103087893D01*
X139016976Y-103123436D01*
X139016962Y-103123441D01*
X138960414Y-103146863D01*
X137695300Y-103146863D01*
X137682600Y-103143460D01*
X137682600Y-103143459D01*
X137679446Y-103142614D01*
X137614534Y-103121523D01*
X137580766Y-103116174D01*
X137536692Y-103104365D01*
X137536689Y-103104364D01*
X137536686Y-103104364D01*
X137472891Y-103098783D01*
X137464301Y-103097728D01*
X137459345Y-103096943D01*
X137412352Y-103089500D01*
X137207648Y-103089500D01*
X137207644Y-103089500D01*
X137155697Y-103097728D01*
X137155695Y-103097728D01*
X137151410Y-103098406D01*
X137083308Y-103104365D01*
X137039245Y-103116170D01*
X137032841Y-103117185D01*
X137032824Y-103117189D01*
X137005463Y-103121523D01*
X137005459Y-103121524D01*
X136943627Y-103141615D01*
X136937404Y-103143459D01*
X136863504Y-103163261D01*
X136863503Y-103163261D01*
X136839338Y-103174529D01*
X136839337Y-103174528D01*
X136832456Y-103177736D01*
X136810781Y-103184780D01*
X136739886Y-103220901D01*
X136737900Y-103221828D01*
X136737882Y-103221838D01*
X136657262Y-103259433D01*
X136645655Y-103267559D01*
X136645656Y-103267560D01*
X136638549Y-103272535D01*
X136628390Y-103277713D01*
X136554870Y-103331126D01*
X136553939Y-103331779D01*
X136470859Y-103389954D01*
X136309954Y-103550859D01*
X136251781Y-103633934D01*
X136251782Y-103633935D01*
X136251132Y-103634863D01*
X136197713Y-103708390D01*
X136192535Y-103718550D01*
X136187560Y-103725656D01*
X136187558Y-103725656D01*
X136179435Y-103737260D01*
X136152380Y-103795276D01*
X136106206Y-103847714D01*
X136039012Y-103866864D01*
X135972131Y-103846646D01*
X135927617Y-103795272D01*
X135900570Y-103737270D01*
X135900568Y-103737266D01*
X135892436Y-103725652D01*
X135883524Y-103710818D01*
X135882288Y-103708391D01*
X135882286Y-103708388D01*
X135829462Y-103635682D01*
X135828205Y-103633920D01*
X135770045Y-103550858D01*
X135609140Y-103389953D01*
X135526078Y-103331793D01*
X135525180Y-103331164D01*
X135451610Y-103277713D01*
X135441448Y-103272535D01*
X135434346Y-103267562D01*
X135422734Y-103259432D01*
X135342128Y-103221844D01*
X135340169Y-103220930D01*
X135269219Y-103184780D01*
X135247534Y-103177733D01*
X135240662Y-103174529D01*
X135240661Y-103174528D01*
X135216494Y-103163260D01*
X135142600Y-103143460D01*
X135142600Y-103143459D01*
X135139446Y-103142614D01*
X135074534Y-103121523D01*
X135040766Y-103116174D01*
X134996692Y-103104365D01*
X134996689Y-103104364D01*
X134996686Y-103104364D01*
X134932891Y-103098783D01*
X134924301Y-103097728D01*
X134919345Y-103096943D01*
X134872352Y-103089500D01*
X134667648Y-103089500D01*
X134667644Y-103089500D01*
X134615697Y-103097728D01*
X134615695Y-103097728D01*
X134611410Y-103098406D01*
X134543308Y-103104365D01*
X134499245Y-103116170D01*
X134492841Y-103117185D01*
X134492824Y-103117189D01*
X134465463Y-103121523D01*
X134465459Y-103121524D01*
X134403627Y-103141615D01*
X134397404Y-103143459D01*
X134323504Y-103163261D01*
X134323503Y-103163261D01*
X134299338Y-103174529D01*
X134299337Y-103174528D01*
X134292456Y-103177736D01*
X134270781Y-103184780D01*
X134199886Y-103220901D01*
X134197900Y-103221828D01*
X134197882Y-103221838D01*
X134117262Y-103259433D01*
X134105655Y-103267559D01*
X134105656Y-103267560D01*
X134098549Y-103272535D01*
X134088390Y-103277713D01*
X134014870Y-103331126D01*
X134013939Y-103331779D01*
X133930859Y-103389954D01*
X133769954Y-103550859D01*
X133711781Y-103633934D01*
X133711782Y-103633935D01*
X133711132Y-103634863D01*
X133657713Y-103708390D01*
X133652535Y-103718550D01*
X133647560Y-103725656D01*
X133647558Y-103725656D01*
X133639435Y-103737260D01*
X133612380Y-103795276D01*
X133566206Y-103847714D01*
X133499012Y-103866864D01*
X133432131Y-103846646D01*
X133387617Y-103795272D01*
X133360570Y-103737270D01*
X133360568Y-103737266D01*
X133352436Y-103725652D01*
X133343524Y-103710818D01*
X133342288Y-103708391D01*
X133342286Y-103708388D01*
X133289462Y-103635682D01*
X133288205Y-103633920D01*
X133230045Y-103550858D01*
X133069140Y-103389953D01*
X132986078Y-103331793D01*
X132985180Y-103331164D01*
X132911610Y-103277713D01*
X132901448Y-103272535D01*
X132894346Y-103267562D01*
X132882734Y-103259432D01*
X132802128Y-103221844D01*
X132800169Y-103220930D01*
X132729219Y-103184780D01*
X132707534Y-103177733D01*
X132700662Y-103174529D01*
X132700661Y-103174528D01*
X132676494Y-103163260D01*
X132602600Y-103143460D01*
X132602600Y-103143459D01*
X132599446Y-103142614D01*
X132534534Y-103121523D01*
X132500766Y-103116174D01*
X132456692Y-103104365D01*
X132456689Y-103104364D01*
X132456686Y-103104364D01*
X132392891Y-103098783D01*
X132384301Y-103097728D01*
X132379345Y-103096943D01*
X132332352Y-103089500D01*
X132127648Y-103089500D01*
X132127644Y-103089500D01*
X132075697Y-103097728D01*
X132075695Y-103097728D01*
X132071410Y-103098406D01*
X132003308Y-103104365D01*
X131959245Y-103116170D01*
X131952841Y-103117185D01*
X131952824Y-103117189D01*
X131925463Y-103121523D01*
X131925459Y-103121524D01*
X131863627Y-103141615D01*
X131857404Y-103143459D01*
X131783504Y-103163261D01*
X131783503Y-103163261D01*
X131759338Y-103174529D01*
X131759337Y-103174528D01*
X131752456Y-103177736D01*
X131730781Y-103184780D01*
X131659886Y-103220901D01*
X131657900Y-103221828D01*
X131657882Y-103221838D01*
X131577262Y-103259433D01*
X131565655Y-103267559D01*
X131565656Y-103267560D01*
X131558549Y-103272535D01*
X131548390Y-103277713D01*
X131474870Y-103331126D01*
X131473939Y-103331779D01*
X131390859Y-103389954D01*
X131229954Y-103550859D01*
X131171781Y-103633934D01*
X131171782Y-103633935D01*
X131171132Y-103634863D01*
X131117713Y-103708390D01*
X131112535Y-103718550D01*
X131107560Y-103725656D01*
X131107558Y-103725656D01*
X131099435Y-103737260D01*
X131072380Y-103795276D01*
X131026206Y-103847714D01*
X130959012Y-103866864D01*
X130892131Y-103846646D01*
X130847617Y-103795272D01*
X130820570Y-103737270D01*
X130820568Y-103737266D01*
X130812436Y-103725652D01*
X130803524Y-103710818D01*
X130802288Y-103708391D01*
X130802286Y-103708388D01*
X130749462Y-103635682D01*
X130748205Y-103633920D01*
X130690045Y-103550858D01*
X130529140Y-103389953D01*
X130446078Y-103331793D01*
X130445180Y-103331164D01*
X130371610Y-103277713D01*
X130361448Y-103272535D01*
X130354346Y-103267562D01*
X130342734Y-103259432D01*
X130262128Y-103221844D01*
X130260169Y-103220930D01*
X130189219Y-103184780D01*
X130167534Y-103177733D01*
X130160662Y-103174529D01*
X130160661Y-103174528D01*
X130136494Y-103163260D01*
X130062600Y-103143460D01*
X130062600Y-103143459D01*
X130059446Y-103142614D01*
X129994534Y-103121523D01*
X129960766Y-103116174D01*
X129916692Y-103104365D01*
X129916689Y-103104364D01*
X129916686Y-103104364D01*
X129852891Y-103098783D01*
X129844301Y-103097728D01*
X129839345Y-103096943D01*
X129792352Y-103089500D01*
X129587648Y-103089500D01*
X129587644Y-103089500D01*
X129535697Y-103097728D01*
X129535695Y-103097728D01*
X129531410Y-103098406D01*
X129463308Y-103104365D01*
X129419245Y-103116170D01*
X129412841Y-103117185D01*
X129412824Y-103117189D01*
X129385463Y-103121523D01*
X129385459Y-103121524D01*
X129323627Y-103141615D01*
X129317404Y-103143459D01*
X129243504Y-103163261D01*
X129243503Y-103163261D01*
X129219338Y-103174529D01*
X129219337Y-103174528D01*
X129212456Y-103177736D01*
X129190781Y-103184780D01*
X129119886Y-103220901D01*
X129117900Y-103221828D01*
X129117882Y-103221838D01*
X129037262Y-103259433D01*
X129025655Y-103267559D01*
X129025656Y-103267560D01*
X129018549Y-103272535D01*
X129008390Y-103277713D01*
X128934870Y-103331126D01*
X128933939Y-103331779D01*
X128850859Y-103389954D01*
X128689954Y-103550859D01*
X128643374Y-103617380D01*
X128588796Y-103661004D01*
X128519298Y-103668195D01*
X128456944Y-103636671D01*
X128421652Y-103576918D01*
X128416559Y-103556962D01*
X128393135Y-103500414D01*
X127632961Y-104260588D01*
X127615925Y-104197007D01*
X127550099Y-104082993D01*
X127457007Y-103989901D01*
X127342993Y-103924075D01*
X127215826Y-103890000D01*
X127084174Y-103890000D01*
X126957007Y-103924075D01*
X126842993Y-103989901D01*
X126749901Y-104082993D01*
X126684075Y-104197007D01*
X126667037Y-104260589D01*
X125906863Y-103500415D01*
X125906862Y-103500415D01*
X125883446Y-103556947D01*
X125883431Y-103556987D01*
X125873491Y-103585164D01*
X125832625Y-103641835D01*
X125767607Y-103667417D01*
X125699079Y-103653785D01*
X125654979Y-103615032D01*
X125610044Y-103550857D01*
X125449140Y-103389953D01*
X125366078Y-103331793D01*
X125364316Y-103330536D01*
X125305763Y-103287995D01*
X125291612Y-103277714D01*
X125289169Y-103276469D01*
X125274347Y-103267563D01*
X125262734Y-103259432D01*
X125182128Y-103221844D01*
X125180169Y-103220930D01*
X125109219Y-103184780D01*
X125087534Y-103177733D01*
X125080662Y-103174529D01*
X125080661Y-103174528D01*
X125056494Y-103163260D01*
X124995300Y-103146863D01*
X126260414Y-103146863D01*
X126899999Y-103786448D01*
X127400000Y-103786448D01*
X128039584Y-103146862D01*
X127983059Y-103123449D01*
X127932053Y-103105455D01*
X127789780Y-103085000D01*
X127400000Y-103085000D01*
X127400000Y-103786448D01*
X126899999Y-103786448D01*
X126900000Y-103786447D01*
X126900000Y-103085000D01*
X126510214Y-103085000D01*
X126456237Y-103087893D01*
X126456235Y-103087893D01*
X126316976Y-103123436D01*
X126316962Y-103123441D01*
X126260414Y-103146863D01*
X124995300Y-103146863D01*
X124982600Y-103143460D01*
X124982600Y-103143459D01*
X124979446Y-103142614D01*
X124914534Y-103121523D01*
X124880766Y-103116174D01*
X124836692Y-103104365D01*
X124836689Y-103104364D01*
X124836686Y-103104364D01*
X124772891Y-103098783D01*
X124764301Y-103097728D01*
X124759345Y-103096943D01*
X124712352Y-103089500D01*
X124507648Y-103089500D01*
X124507644Y-103089500D01*
X124455697Y-103097728D01*
X124455695Y-103097728D01*
X124451410Y-103098406D01*
X124383308Y-103104365D01*
X124339245Y-103116170D01*
X124332841Y-103117185D01*
X124332824Y-103117189D01*
X124305463Y-103121523D01*
X124305459Y-103121524D01*
X124243627Y-103141615D01*
X124237404Y-103143459D01*
X124163504Y-103163261D01*
X124163503Y-103163261D01*
X124139338Y-103174529D01*
X124139337Y-103174528D01*
X124132456Y-103177736D01*
X124110781Y-103184780D01*
X124039886Y-103220901D01*
X124037900Y-103221828D01*
X124037882Y-103221838D01*
X123957262Y-103259433D01*
X123945655Y-103267559D01*
X123945656Y-103267560D01*
X123938549Y-103272535D01*
X123928390Y-103277713D01*
X123854870Y-103331126D01*
X123853939Y-103331779D01*
X123770859Y-103389954D01*
X123609954Y-103550859D01*
X123551781Y-103633934D01*
X123551782Y-103633935D01*
X123551132Y-103634863D01*
X123497713Y-103708390D01*
X123492535Y-103718550D01*
X123487560Y-103725656D01*
X123487558Y-103725656D01*
X123479435Y-103737260D01*
X123452380Y-103795276D01*
X123406206Y-103847714D01*
X123339012Y-103866864D01*
X123272131Y-103846646D01*
X123227617Y-103795272D01*
X123200570Y-103737270D01*
X123200568Y-103737266D01*
X123192436Y-103725652D01*
X123183524Y-103710818D01*
X123182288Y-103708391D01*
X123182286Y-103708388D01*
X123129462Y-103635682D01*
X123128205Y-103633920D01*
X123070045Y-103550858D01*
X122909140Y-103389953D01*
X122826078Y-103331793D01*
X122825180Y-103331164D01*
X122751610Y-103277713D01*
X122741448Y-103272535D01*
X122734346Y-103267562D01*
X122722734Y-103259432D01*
X122642128Y-103221844D01*
X122640169Y-103220930D01*
X122569219Y-103184780D01*
X122547534Y-103177733D01*
X122540662Y-103174529D01*
X122540661Y-103174528D01*
X122516494Y-103163260D01*
X122442600Y-103143460D01*
X122442600Y-103143459D01*
X122439446Y-103142614D01*
X122374534Y-103121523D01*
X122340766Y-103116174D01*
X122296692Y-103104365D01*
X122296689Y-103104364D01*
X122296686Y-103104364D01*
X122232891Y-103098783D01*
X122224301Y-103097728D01*
X122219345Y-103096943D01*
X122172352Y-103089500D01*
X121967648Y-103089500D01*
X121967644Y-103089500D01*
X121915697Y-103097728D01*
X121915695Y-103097728D01*
X121911410Y-103098406D01*
X121843308Y-103104365D01*
X121799245Y-103116170D01*
X121792841Y-103117185D01*
X121792824Y-103117189D01*
X121765463Y-103121523D01*
X121765459Y-103121524D01*
X121703627Y-103141615D01*
X121697404Y-103143459D01*
X121623504Y-103163261D01*
X121623503Y-103163261D01*
X121599338Y-103174529D01*
X121599337Y-103174528D01*
X121592456Y-103177736D01*
X121570781Y-103184780D01*
X121499886Y-103220901D01*
X121497900Y-103221828D01*
X121497882Y-103221838D01*
X121417262Y-103259433D01*
X121405655Y-103267559D01*
X121405656Y-103267560D01*
X121398549Y-103272535D01*
X121388390Y-103277713D01*
X121314870Y-103331126D01*
X121313939Y-103331779D01*
X121230859Y-103389954D01*
X121069954Y-103550859D01*
X121011781Y-103633934D01*
X121011782Y-103633935D01*
X121011132Y-103634863D01*
X120957713Y-103708390D01*
X120952535Y-103718550D01*
X120947560Y-103725656D01*
X120947558Y-103725656D01*
X120939435Y-103737260D01*
X120912380Y-103795276D01*
X120866206Y-103847714D01*
X120799012Y-103866864D01*
X120732131Y-103846646D01*
X120687617Y-103795272D01*
X120660570Y-103737270D01*
X120660568Y-103737266D01*
X120652436Y-103725652D01*
X120643524Y-103710818D01*
X120642288Y-103708391D01*
X120642286Y-103708388D01*
X120589462Y-103635682D01*
X120588205Y-103633920D01*
X120530045Y-103550858D01*
X120369140Y-103389953D01*
X120286078Y-103331793D01*
X120285180Y-103331164D01*
X120211610Y-103277713D01*
X120201448Y-103272535D01*
X120194346Y-103267562D01*
X120182734Y-103259432D01*
X120102128Y-103221844D01*
X120100169Y-103220930D01*
X120029219Y-103184780D01*
X120007534Y-103177733D01*
X120000662Y-103174529D01*
X120000661Y-103174528D01*
X119976494Y-103163260D01*
X119902600Y-103143460D01*
X119902600Y-103143459D01*
X119899446Y-103142614D01*
X119834534Y-103121523D01*
X119800766Y-103116174D01*
X119756692Y-103104365D01*
X119756689Y-103104364D01*
X119756686Y-103104364D01*
X119692891Y-103098783D01*
X119684301Y-103097728D01*
X119679345Y-103096943D01*
X119632352Y-103089500D01*
X119427648Y-103089500D01*
X119427644Y-103089500D01*
X119375697Y-103097728D01*
X119375695Y-103097728D01*
X119371410Y-103098406D01*
X119303308Y-103104365D01*
X119259245Y-103116170D01*
X119252841Y-103117185D01*
X119252824Y-103117189D01*
X119225463Y-103121523D01*
X119225459Y-103121524D01*
X119163627Y-103141615D01*
X119157404Y-103143459D01*
X119083504Y-103163261D01*
X119083503Y-103163261D01*
X119059338Y-103174529D01*
X119059337Y-103174528D01*
X119052456Y-103177736D01*
X119030781Y-103184780D01*
X118959886Y-103220901D01*
X118957900Y-103221828D01*
X118957882Y-103221838D01*
X118877262Y-103259433D01*
X118865655Y-103267559D01*
X118865656Y-103267560D01*
X118858549Y-103272535D01*
X118848390Y-103277713D01*
X118774870Y-103331126D01*
X118773939Y-103331779D01*
X118690859Y-103389954D01*
X118529954Y-103550859D01*
X118471781Y-103633934D01*
X118471782Y-103633935D01*
X118471132Y-103634863D01*
X118417713Y-103708390D01*
X118412535Y-103718550D01*
X118407560Y-103725656D01*
X118407558Y-103725656D01*
X118399435Y-103737260D01*
X118372380Y-103795276D01*
X118326206Y-103847714D01*
X118259012Y-103866864D01*
X118192131Y-103846646D01*
X118147617Y-103795272D01*
X118120570Y-103737270D01*
X118120568Y-103737266D01*
X118112436Y-103725652D01*
X118103524Y-103710818D01*
X118102288Y-103708391D01*
X118102286Y-103708388D01*
X118049462Y-103635682D01*
X118048205Y-103633920D01*
X117990045Y-103550858D01*
X117829140Y-103389953D01*
X117746078Y-103331793D01*
X117745180Y-103331164D01*
X117671610Y-103277713D01*
X117661448Y-103272535D01*
X117654346Y-103267562D01*
X117642734Y-103259432D01*
X117562128Y-103221844D01*
X117560169Y-103220930D01*
X117489219Y-103184780D01*
X117467534Y-103177733D01*
X117460662Y-103174529D01*
X117460661Y-103174528D01*
X117436494Y-103163260D01*
X117362600Y-103143460D01*
X117362600Y-103143459D01*
X117359446Y-103142614D01*
X117294534Y-103121523D01*
X117260766Y-103116174D01*
X117216692Y-103104365D01*
X117216689Y-103104364D01*
X117216686Y-103104364D01*
X117152891Y-103098783D01*
X117144301Y-103097728D01*
X117139345Y-103096943D01*
X117092352Y-103089500D01*
X116887648Y-103089500D01*
X116887644Y-103089500D01*
X116835697Y-103097728D01*
X116835695Y-103097728D01*
X116831410Y-103098406D01*
X116763308Y-103104365D01*
X116719245Y-103116170D01*
X116712841Y-103117185D01*
X116712824Y-103117189D01*
X116685463Y-103121523D01*
X116685459Y-103121524D01*
X116623627Y-103141615D01*
X116617404Y-103143459D01*
X116543504Y-103163261D01*
X116543503Y-103163261D01*
X116519338Y-103174529D01*
X116519337Y-103174528D01*
X116512456Y-103177736D01*
X116490781Y-103184780D01*
X116419886Y-103220901D01*
X116417900Y-103221828D01*
X116417882Y-103221838D01*
X116337262Y-103259433D01*
X116325655Y-103267559D01*
X116325656Y-103267560D01*
X116318549Y-103272535D01*
X116308390Y-103277713D01*
X116234870Y-103331126D01*
X116233939Y-103331779D01*
X116150859Y-103389954D01*
X115989954Y-103550859D01*
X115943374Y-103617380D01*
X115888796Y-103661004D01*
X115819298Y-103668195D01*
X115756944Y-103636671D01*
X115721652Y-103576918D01*
X115716559Y-103556962D01*
X115693135Y-103500414D01*
X114932961Y-104260588D01*
X114915925Y-104197007D01*
X114850099Y-104082993D01*
X114757007Y-103989901D01*
X114642993Y-103924075D01*
X114515826Y-103890000D01*
X114384174Y-103890000D01*
X114257007Y-103924075D01*
X114142993Y-103989901D01*
X114049901Y-104082993D01*
X113984075Y-104197007D01*
X113967037Y-104260589D01*
X113206863Y-103500415D01*
X113206862Y-103500415D01*
X113183446Y-103556947D01*
X113183431Y-103556987D01*
X113173491Y-103585164D01*
X113132625Y-103641835D01*
X113067607Y-103667417D01*
X112999079Y-103653785D01*
X112954979Y-103615032D01*
X112910047Y-103550861D01*
X112836432Y-103477246D01*
X112749139Y-103389953D01*
X112749135Y-103389950D01*
X112744989Y-103386471D01*
X112745377Y-103386008D01*
X112743297Y-103385058D01*
X112727687Y-103360769D01*
X112709695Y-103338203D01*
X112708160Y-103330384D01*
X112705523Y-103326280D01*
X112700500Y-103291345D01*
X112700500Y-103146863D01*
X113560414Y-103146863D01*
X114199999Y-103786448D01*
X114700000Y-103786448D01*
X115339584Y-103146862D01*
X115283059Y-103123449D01*
X115232053Y-103105455D01*
X115089780Y-103085000D01*
X114700000Y-103085000D01*
X114700000Y-103786448D01*
X114199999Y-103786448D01*
X114200000Y-103786447D01*
X114200000Y-103085000D01*
X113810214Y-103085000D01*
X113756237Y-103087893D01*
X113756235Y-103087893D01*
X113616976Y-103123436D01*
X113616962Y-103123441D01*
X113560414Y-103146863D01*
X112700500Y-103146863D01*
X112700500Y-103032940D01*
X112720185Y-102965901D01*
X112736819Y-102945259D01*
X115545259Y-100136819D01*
X115606582Y-100103334D01*
X115632940Y-100100500D01*
X156317060Y-100100500D01*
X156384099Y-100120185D01*
G37*
%TD.AperFunction*%
%TA.AperFunction,Conductor*%
G36*
X126684075Y-86802993D02*
G01*
X126749901Y-86917007D01*
X126842993Y-87010099D01*
X126957007Y-87075925D01*
X127084174Y-87110000D01*
X127215826Y-87110000D01*
X127342993Y-87075925D01*
X127457007Y-87010099D01*
X127550099Y-86917007D01*
X127615925Y-86802993D01*
X127632962Y-86739410D01*
X128393135Y-87499584D01*
X128393136Y-87499584D01*
X128416556Y-87443045D01*
X128416558Y-87443039D01*
X128426507Y-87414838D01*
X128467372Y-87358165D01*
X128532390Y-87332583D01*
X128600917Y-87346213D01*
X128645019Y-87384966D01*
X128689954Y-87449141D01*
X128850858Y-87610045D01*
X128933904Y-87668194D01*
X128934800Y-87668821D01*
X129008390Y-87722287D01*
X129018547Y-87727462D01*
X129025648Y-87732434D01*
X129025652Y-87732436D01*
X129031850Y-87736776D01*
X129037266Y-87740568D01*
X129119827Y-87779067D01*
X129190781Y-87815220D01*
X129212467Y-87822266D01*
X129243504Y-87836739D01*
X129243510Y-87836740D01*
X129243513Y-87836742D01*
X129317386Y-87856535D01*
X129320528Y-87857377D01*
X129385466Y-87878477D01*
X129419233Y-87883825D01*
X129463308Y-87895635D01*
X129527103Y-87901215D01*
X129535690Y-87902269D01*
X129587648Y-87910500D01*
X129587649Y-87910500D01*
X129792350Y-87910500D01*
X129792352Y-87910500D01*
X129844308Y-87902270D01*
X129848582Y-87901592D01*
X129916692Y-87895635D01*
X129960766Y-87883825D01*
X129994534Y-87878477D01*
X130056404Y-87858373D01*
X130062617Y-87856534D01*
X130136490Y-87836741D01*
X130136492Y-87836739D01*
X130136496Y-87836739D01*
X130167532Y-87822266D01*
X130189219Y-87815220D01*
X130260172Y-87779067D01*
X130342734Y-87740568D01*
X130361446Y-87727465D01*
X130371610Y-87722287D01*
X130445199Y-87668821D01*
X130529139Y-87610047D01*
X130690047Y-87449139D01*
X130748821Y-87365199D01*
X130802287Y-87291610D01*
X130807465Y-87281446D01*
X130820568Y-87262734D01*
X130847617Y-87204724D01*
X130893788Y-87152287D01*
X130960981Y-87133134D01*
X131027862Y-87153349D01*
X131072381Y-87204724D01*
X131099433Y-87262736D01*
X131107563Y-87274347D01*
X131116469Y-87289169D01*
X131117714Y-87291612D01*
X131117714Y-87291613D01*
X131170536Y-87364316D01*
X131171793Y-87366078D01*
X131229953Y-87449140D01*
X131393181Y-87612368D01*
X131426666Y-87673691D01*
X131429500Y-87700049D01*
X131429500Y-89795185D01*
X131460261Y-89949828D01*
X131460264Y-89949840D01*
X131520602Y-90095511D01*
X131520609Y-90095524D01*
X131608210Y-90226627D01*
X131608213Y-90226631D01*
X132891872Y-91510289D01*
X132950005Y-91568422D01*
X133003373Y-91621790D01*
X133134475Y-91709390D01*
X133134488Y-91709397D01*
X133280159Y-91769735D01*
X133280164Y-91769737D01*
X133434814Y-91800499D01*
X133434817Y-91800500D01*
X133434819Y-91800500D01*
X140922084Y-91800500D01*
X140989123Y-91820185D01*
X141009765Y-91836819D01*
X141050500Y-91877554D01*
X141050505Y-91877558D01*
X141120546Y-91928445D01*
X141197006Y-91983996D01*
X141249037Y-92010507D01*
X141299833Y-92058482D01*
X141316628Y-92126303D01*
X141294091Y-92192437D01*
X141239376Y-92235889D01*
X141192742Y-92244992D01*
X126348432Y-92244992D01*
X126281393Y-92225307D01*
X126260751Y-92208673D01*
X122163820Y-88111742D01*
X122157924Y-88100945D01*
X122148475Y-88093066D01*
X122141492Y-88070851D01*
X122130335Y-88050419D01*
X122131212Y-88038149D01*
X122127523Y-88026412D01*
X122133658Y-88003950D01*
X122135319Y-87980727D01*
X122142691Y-87970878D01*
X122145933Y-87959012D01*
X122163237Y-87943433D01*
X122177191Y-87924794D01*
X122189988Y-87919350D01*
X122197860Y-87912264D01*
X122222532Y-87905507D01*
X122231530Y-87901680D01*
X122236085Y-87900936D01*
X122296692Y-87895635D01*
X122340489Y-87883899D01*
X122346612Y-87882900D01*
X122346699Y-87882910D01*
X122347170Y-87882810D01*
X122374534Y-87878477D01*
X122436404Y-87858373D01*
X122442617Y-87856534D01*
X122516490Y-87836741D01*
X122516492Y-87836739D01*
X122516496Y-87836739D01*
X122547532Y-87822266D01*
X122569219Y-87815220D01*
X122640172Y-87779067D01*
X122722734Y-87740568D01*
X122741446Y-87727465D01*
X122751610Y-87722287D01*
X122825199Y-87668821D01*
X122909139Y-87610047D01*
X123070047Y-87449139D01*
X123128821Y-87365199D01*
X123182287Y-87291610D01*
X123187465Y-87281446D01*
X123200568Y-87262734D01*
X123227617Y-87204724D01*
X123273788Y-87152287D01*
X123340981Y-87133134D01*
X123407862Y-87153349D01*
X123452381Y-87204724D01*
X123479433Y-87262736D01*
X123487563Y-87274347D01*
X123496469Y-87289169D01*
X123497714Y-87291612D01*
X123497714Y-87291613D01*
X123550536Y-87364316D01*
X123551793Y-87366078D01*
X123609953Y-87449140D01*
X123770858Y-87610045D01*
X123853904Y-87668194D01*
X123854800Y-87668821D01*
X123928390Y-87722287D01*
X123938547Y-87727462D01*
X123945648Y-87732434D01*
X123945652Y-87732436D01*
X123951850Y-87736776D01*
X123957266Y-87740568D01*
X124039827Y-87779067D01*
X124110781Y-87815220D01*
X124132467Y-87822266D01*
X124163504Y-87836739D01*
X124163510Y-87836740D01*
X124163513Y-87836742D01*
X124237386Y-87856535D01*
X124240528Y-87857377D01*
X124305466Y-87878477D01*
X124339233Y-87883825D01*
X124383308Y-87895635D01*
X124447103Y-87901215D01*
X124455690Y-87902269D01*
X124507648Y-87910500D01*
X124507649Y-87910500D01*
X124712350Y-87910500D01*
X124712352Y-87910500D01*
X124764308Y-87902270D01*
X124768582Y-87901592D01*
X124836692Y-87895635D01*
X124880766Y-87883825D01*
X124914534Y-87878477D01*
X124976404Y-87858373D01*
X124982617Y-87856534D01*
X124995303Y-87853135D01*
X126260414Y-87853135D01*
X126316960Y-87876557D01*
X126316964Y-87876559D01*
X126367946Y-87894544D01*
X126510219Y-87914999D01*
X126510221Y-87915000D01*
X126900000Y-87915000D01*
X127400000Y-87915000D01*
X127789786Y-87915000D01*
X127843762Y-87912106D01*
X127843764Y-87912106D01*
X127983039Y-87876558D01*
X128039584Y-87853136D01*
X128039584Y-87853135D01*
X127400000Y-87213551D01*
X127400000Y-87915000D01*
X126900000Y-87915000D01*
X126900000Y-87213552D01*
X126899999Y-87213551D01*
X126260414Y-87853135D01*
X124995303Y-87853135D01*
X125056490Y-87836741D01*
X125056492Y-87836739D01*
X125056496Y-87836739D01*
X125087532Y-87822266D01*
X125109219Y-87815220D01*
X125180172Y-87779067D01*
X125262734Y-87740568D01*
X125274382Y-87732411D01*
X125277618Y-87730222D01*
X125283211Y-87726565D01*
X125291610Y-87722287D01*
X125364358Y-87669432D01*
X125366047Y-87668227D01*
X125449139Y-87610047D01*
X125610047Y-87449139D01*
X125656623Y-87382619D01*
X125711196Y-87338996D01*
X125780695Y-87331801D01*
X125843050Y-87363322D01*
X125878344Y-87423073D01*
X125883438Y-87443028D01*
X125883442Y-87443043D01*
X125906862Y-87499584D01*
X126667037Y-86739409D01*
X126684075Y-86802993D01*
G37*
%TD.AperFunction*%
%TA.AperFunction,Conductor*%
G36*
X139384075Y-86802993D02*
G01*
X139449901Y-86917007D01*
X139542993Y-87010099D01*
X139657007Y-87075925D01*
X139784174Y-87110000D01*
X139915826Y-87110000D01*
X140042993Y-87075925D01*
X140157007Y-87010099D01*
X140250099Y-86917007D01*
X140315925Y-86802993D01*
X140332962Y-86739410D01*
X141093135Y-87499584D01*
X141093136Y-87499584D01*
X141116556Y-87443045D01*
X141116558Y-87443039D01*
X141126507Y-87414838D01*
X141167372Y-87358165D01*
X141232390Y-87332583D01*
X141300917Y-87346213D01*
X141345019Y-87384966D01*
X141389954Y-87449141D01*
X141550858Y-87610045D01*
X141633904Y-87668194D01*
X141634800Y-87668821D01*
X141708390Y-87722287D01*
X141718547Y-87727462D01*
X141725648Y-87732434D01*
X141725652Y-87732436D01*
X141731850Y-87736776D01*
X141737266Y-87740568D01*
X141819827Y-87779067D01*
X141890781Y-87815220D01*
X141912467Y-87822266D01*
X141943504Y-87836739D01*
X141943510Y-87836740D01*
X141943513Y-87836742D01*
X142017386Y-87856535D01*
X142020528Y-87857377D01*
X142085466Y-87878477D01*
X142119233Y-87883825D01*
X142163308Y-87895635D01*
X142227103Y-87901215D01*
X142235690Y-87902269D01*
X142287648Y-87910500D01*
X142287649Y-87910500D01*
X142492350Y-87910500D01*
X142492352Y-87910500D01*
X142544308Y-87902270D01*
X142548582Y-87901592D01*
X142616692Y-87895635D01*
X142660766Y-87883825D01*
X142694534Y-87878477D01*
X142756404Y-87858373D01*
X142762617Y-87856534D01*
X142836490Y-87836741D01*
X142836492Y-87836739D01*
X142836496Y-87836739D01*
X142867532Y-87822266D01*
X142889219Y-87815220D01*
X142960172Y-87779067D01*
X143042734Y-87740568D01*
X143061446Y-87727465D01*
X143071610Y-87722287D01*
X143145199Y-87668821D01*
X143229139Y-87610047D01*
X143390047Y-87449139D01*
X143448821Y-87365199D01*
X143502287Y-87291610D01*
X143507465Y-87281446D01*
X143520568Y-87262734D01*
X143547617Y-87204724D01*
X143593788Y-87152287D01*
X143660981Y-87133134D01*
X143727862Y-87153349D01*
X143772381Y-87204724D01*
X143799433Y-87262736D01*
X143807563Y-87274347D01*
X143816469Y-87289169D01*
X143817714Y-87291612D01*
X143817714Y-87291613D01*
X143870536Y-87364316D01*
X143871793Y-87366078D01*
X143929953Y-87449140D01*
X144090858Y-87610045D01*
X144173904Y-87668194D01*
X144174800Y-87668821D01*
X144248390Y-87722287D01*
X144258547Y-87727462D01*
X144265648Y-87732434D01*
X144265652Y-87732436D01*
X144271850Y-87736776D01*
X144277266Y-87740568D01*
X144359827Y-87779067D01*
X144430781Y-87815220D01*
X144452467Y-87822266D01*
X144483504Y-87836739D01*
X144483510Y-87836740D01*
X144483513Y-87836742D01*
X144557386Y-87856535D01*
X144560528Y-87857377D01*
X144625466Y-87878477D01*
X144659233Y-87883825D01*
X144703308Y-87895635D01*
X144767103Y-87901215D01*
X144775690Y-87902269D01*
X144827648Y-87910500D01*
X144827649Y-87910500D01*
X145032350Y-87910500D01*
X145032352Y-87910500D01*
X145084308Y-87902270D01*
X145088582Y-87901592D01*
X145156692Y-87895635D01*
X145200766Y-87883825D01*
X145234534Y-87878477D01*
X145296404Y-87858373D01*
X145302617Y-87856534D01*
X145376490Y-87836741D01*
X145376492Y-87836739D01*
X145376496Y-87836739D01*
X145400687Y-87825457D01*
X145402977Y-87824418D01*
X145408739Y-87821873D01*
X145429219Y-87815220D01*
X145464349Y-87797319D01*
X145467470Y-87795942D01*
X145498840Y-87791834D01*
X145529925Y-87785995D01*
X145533221Y-87787332D01*
X145536749Y-87786871D01*
X145565356Y-87800373D01*
X145594667Y-87812269D01*
X145596938Y-87815281D01*
X145599934Y-87816695D01*
X145609262Y-87831621D01*
X145632117Y-87861924D01*
X145648223Y-87900808D01*
X145724887Y-88015545D01*
X146853454Y-89144112D01*
X146853457Y-89144114D01*
X146968189Y-89220775D01*
X147095671Y-89273580D01*
X147110229Y-89276475D01*
X147117006Y-89277824D01*
X147117019Y-89277826D01*
X147117033Y-89277829D01*
X147174020Y-89289164D01*
X147231005Y-89300500D01*
X152862826Y-89300500D01*
X152929865Y-89320185D01*
X152975620Y-89372989D01*
X152985564Y-89442147D01*
X152973311Y-89480795D01*
X152933788Y-89558360D01*
X152933787Y-89558363D01*
X152877829Y-89730589D01*
X152849500Y-89909448D01*
X152849500Y-90090551D01*
X152877829Y-90269410D01*
X152933787Y-90441636D01*
X152933788Y-90441639D01*
X153016006Y-90602997D01*
X153088382Y-90702615D01*
X153111862Y-90768421D01*
X153096036Y-90836475D01*
X153045931Y-90885170D01*
X152988064Y-90899500D01*
X150476336Y-90899500D01*
X150409297Y-90879815D01*
X150381493Y-90853555D01*
X150380725Y-90854212D01*
X150377554Y-90850500D01*
X150249499Y-90722445D01*
X150249494Y-90722441D01*
X150102997Y-90616006D01*
X150102996Y-90616005D01*
X150102994Y-90616004D01*
X150051300Y-90589664D01*
X149941639Y-90533788D01*
X149941636Y-90533787D01*
X149769410Y-90477829D01*
X149590551Y-90449500D01*
X149590546Y-90449500D01*
X149409454Y-90449500D01*
X149409449Y-90449500D01*
X149230589Y-90477829D01*
X149058363Y-90533787D01*
X149058360Y-90533788D01*
X148897002Y-90616006D01*
X148750505Y-90722441D01*
X148750500Y-90722445D01*
X148622445Y-90850500D01*
X148622441Y-90850505D01*
X148516006Y-90997002D01*
X148433788Y-91158360D01*
X148433787Y-91158363D01*
X148377829Y-91330589D01*
X148349500Y-91509448D01*
X148349500Y-91690551D01*
X148377829Y-91869410D01*
X148433787Y-92041636D01*
X148433790Y-92041643D01*
X148445537Y-92064696D01*
X148458434Y-92133365D01*
X148432159Y-92198105D01*
X148375053Y-92238363D01*
X148335053Y-92244992D01*
X142407258Y-92244992D01*
X142340219Y-92225307D01*
X142294464Y-92172503D01*
X142284520Y-92103345D01*
X142313545Y-92039789D01*
X142350961Y-92010507D01*
X142402994Y-91983996D01*
X142549501Y-91877553D01*
X142677553Y-91749501D01*
X142783996Y-91602994D01*
X142866211Y-91441639D01*
X142922171Y-91269409D01*
X142939759Y-91158361D01*
X142950500Y-91090551D01*
X142950500Y-90909448D01*
X142934019Y-90805397D01*
X142922171Y-90730591D01*
X142866211Y-90558361D01*
X142866211Y-90558360D01*
X142831657Y-90490546D01*
X142783996Y-90397006D01*
X142696818Y-90277015D01*
X142677558Y-90250505D01*
X142677554Y-90250500D01*
X142549499Y-90122445D01*
X142549494Y-90122441D01*
X142402997Y-90016006D01*
X142402996Y-90016005D01*
X142402994Y-90016004D01*
X142311547Y-89969409D01*
X142241639Y-89933788D01*
X142241636Y-89933787D01*
X142069410Y-89877829D01*
X141890551Y-89849500D01*
X141890546Y-89849500D01*
X141709454Y-89849500D01*
X141709449Y-89849500D01*
X141530589Y-89877829D01*
X141358363Y-89933787D01*
X141358360Y-89933788D01*
X141197002Y-90016006D01*
X141050505Y-90122441D01*
X141050500Y-90122445D01*
X141009765Y-90163181D01*
X140948442Y-90196666D01*
X140922084Y-90199500D01*
X137218082Y-90199500D01*
X137151043Y-90179815D01*
X137105288Y-90127011D01*
X137095344Y-90057853D01*
X137100151Y-90037183D01*
X137122170Y-89969412D01*
X137122169Y-89969412D01*
X137122171Y-89969409D01*
X137142539Y-89840811D01*
X137150500Y-89790551D01*
X137150500Y-89609448D01*
X137123662Y-89440006D01*
X137122171Y-89430591D01*
X137082659Y-89308983D01*
X137066212Y-89258363D01*
X137066211Y-89258360D01*
X137018485Y-89164694D01*
X136983996Y-89097006D01*
X136914109Y-89000814D01*
X136877558Y-88950505D01*
X136877554Y-88950500D01*
X136749500Y-88822446D01*
X136745790Y-88819277D01*
X136746943Y-88817926D01*
X136708946Y-88768646D01*
X136700500Y-88723664D01*
X136700500Y-87954501D01*
X136707574Y-87930408D01*
X136710602Y-87905478D01*
X136717250Y-87897456D01*
X136720185Y-87887462D01*
X136739160Y-87871019D01*
X136755187Y-87851682D01*
X136765117Y-87848527D01*
X136772989Y-87841707D01*
X136797843Y-87838133D01*
X136821778Y-87830531D01*
X136835249Y-87832754D01*
X136842147Y-87831763D01*
X136856815Y-87834786D01*
X136862753Y-87836388D01*
X136863504Y-87836739D01*
X136937546Y-87856578D01*
X136937609Y-87856595D01*
X136937628Y-87856606D01*
X136943609Y-87858378D01*
X137005466Y-87878477D01*
X137032822Y-87882809D01*
X137045498Y-87885503D01*
X137083308Y-87895635D01*
X137147103Y-87901215D01*
X137155690Y-87902269D01*
X137207648Y-87910500D01*
X137207649Y-87910500D01*
X137412350Y-87910500D01*
X137412352Y-87910500D01*
X137464308Y-87902270D01*
X137468582Y-87901592D01*
X137536692Y-87895635D01*
X137580766Y-87883825D01*
X137614534Y-87878477D01*
X137676404Y-87858373D01*
X137682617Y-87856534D01*
X137695303Y-87853135D01*
X138960414Y-87853135D01*
X139016960Y-87876557D01*
X139016964Y-87876559D01*
X139067946Y-87894544D01*
X139210219Y-87914999D01*
X139210221Y-87915000D01*
X139600000Y-87915000D01*
X140100000Y-87915000D01*
X140489786Y-87915000D01*
X140543762Y-87912106D01*
X140543764Y-87912106D01*
X140683039Y-87876558D01*
X140739584Y-87853136D01*
X140739584Y-87853135D01*
X140100000Y-87213551D01*
X140100000Y-87915000D01*
X139600000Y-87915000D01*
X139600000Y-87213552D01*
X139599999Y-87213551D01*
X138960414Y-87853135D01*
X137695303Y-87853135D01*
X137756490Y-87836741D01*
X137756492Y-87836739D01*
X137756496Y-87836739D01*
X137787532Y-87822266D01*
X137809219Y-87815220D01*
X137880172Y-87779067D01*
X137962734Y-87740568D01*
X137974382Y-87732411D01*
X137977618Y-87730222D01*
X137983211Y-87726565D01*
X137991610Y-87722287D01*
X138064358Y-87669432D01*
X138066047Y-87668227D01*
X138149139Y-87610047D01*
X138310047Y-87449139D01*
X138356623Y-87382619D01*
X138411196Y-87338996D01*
X138480695Y-87331801D01*
X138543050Y-87363322D01*
X138578344Y-87423073D01*
X138583438Y-87443028D01*
X138583442Y-87443043D01*
X138606862Y-87499584D01*
X139367037Y-86739409D01*
X139384075Y-86802993D01*
G37*
%TD.AperFunction*%
%TD*%
M02*
