%TF.GenerationSoftware,KiCad,Pcbnew,9.0.0*%
%TF.CreationDate,2025-03-14T14:41:01+01:00*%
%TF.ProjectId,LEDstripDrv2.0,4c454473-7472-4697-9044-7276322e302e,rev?*%
%TF.SameCoordinates,Original*%
%TF.FileFunction,Soldermask,Bot*%
%TF.FilePolarity,Negative*%
%FSLAX46Y46*%
G04 Gerber Fmt 4.6, Leading zero omitted, Abs format (unit mm)*
G04 Created by KiCad (PCBNEW 9.0.0) date 2025-03-14 14:41:01*
%MOMM*%
%LPD*%
G01*
G04 APERTURE LIST*
G04 Aperture macros list*
%AMRoundRect*
0 Rectangle with rounded corners*
0 $1 Rounding radius*
0 $2 $3 $4 $5 $6 $7 $8 $9 X,Y pos of 4 corners*
0 Add a 4 corners polygon primitive as box body*
4,1,4,$2,$3,$4,$5,$6,$7,$8,$9,$2,$3,0*
0 Add four circle primitives for the rounded corners*
1,1,$1+$1,$2,$3*
1,1,$1+$1,$4,$5*
1,1,$1+$1,$6,$7*
1,1,$1+$1,$8,$9*
0 Add four rect primitives between the rounded corners*
20,1,$1+$1,$2,$3,$4,$5,0*
20,1,$1+$1,$4,$5,$6,$7,0*
20,1,$1+$1,$6,$7,$8,$9,0*
20,1,$1+$1,$8,$9,$2,$3,0*%
%AMFreePoly0*
4,1,37,0.603843,0.796157,0.639018,0.796157,0.711114,0.766294,0.766294,0.711114,0.796157,0.639018,0.796157,0.603843,0.800000,0.600000,0.800000,-0.600000,0.796157,-0.603843,0.796157,-0.639018,0.766294,-0.711114,0.711114,-0.766294,0.639018,-0.796157,0.603843,-0.796157,0.600000,-0.800000,0.000000,-0.800000,0.000000,-0.796148,-0.078414,-0.796148,-0.232228,-0.765552,-0.377117,-0.705537,
-0.507515,-0.618408,-0.618408,-0.507515,-0.705537,-0.377117,-0.765552,-0.232228,-0.796148,-0.078414,-0.796148,0.078414,-0.765552,0.232228,-0.705537,0.377117,-0.618408,0.507515,-0.507515,0.618408,-0.377117,0.705537,-0.232228,0.765552,-0.078414,0.796148,0.000000,0.796148,0.000000,0.800000,0.600000,0.800000,0.603843,0.796157,0.603843,0.796157,$1*%
%AMFreePoly1*
4,1,37,0.000000,0.796148,0.078414,0.796148,0.232228,0.765552,0.377117,0.705537,0.507515,0.618408,0.618408,0.507515,0.705537,0.377117,0.765552,0.232228,0.796148,0.078414,0.796148,-0.078414,0.765552,-0.232228,0.705537,-0.377117,0.618408,-0.507515,0.507515,-0.618408,0.377117,-0.705537,0.232228,-0.765552,0.078414,-0.796148,0.000000,-0.796148,0.000000,-0.800000,-0.600000,-0.800000,
-0.603843,-0.796157,-0.639018,-0.796157,-0.711114,-0.766294,-0.766294,-0.711114,-0.796157,-0.639018,-0.796157,-0.603843,-0.800000,-0.600000,-0.800000,0.600000,-0.796157,0.603843,-0.796157,0.639018,-0.766294,0.711114,-0.711114,0.766294,-0.639018,0.796157,-0.603843,0.796157,-0.600000,0.800000,0.000000,0.800000,0.000000,0.796148,0.000000,0.796148,$1*%
G04 Aperture macros list end*
%ADD10C,3.200000*%
%ADD11R,1.600000X1.600000*%
%ADD12C,1.600000*%
%ADD13R,1.050000X1.500000*%
%ADD14O,1.050000X1.500000*%
%ADD15O,1.600000X1.600000*%
%ADD16R,1.905000X2.000000*%
%ADD17O,1.905000X2.000000*%
%ADD18R,3.000000X3.000000*%
%ADD19C,3.000000*%
%ADD20RoundRect,0.250000X0.550000X0.550000X-0.550000X0.550000X-0.550000X-0.550000X0.550000X-0.550000X0*%
%ADD21C,2.200000*%
%ADD22C,1.850000*%
%ADD23RoundRect,0.200000X0.600000X-0.600000X0.600000X0.600000X-0.600000X0.600000X-0.600000X-0.600000X0*%
%ADD24FreePoly0,90.000000*%
%ADD25FreePoly1,90.000000*%
%ADD26R,1.700000X1.700000*%
%ADD27O,1.700000X1.700000*%
G04 APERTURE END LIST*
D10*
%TO.C,REF\u002A\u002A*%
X178600000Y-100900000D03*
%TD*%
%TO.C,REF\u002A\u002A*%
X118100000Y-91900000D03*
%TD*%
%TO.C,REF\u002A\u002A*%
X173900000Y-83600000D03*
%TD*%
D11*
%TO.C,C2*%
X164238606Y-100700000D03*
D12*
X166738606Y-100700000D03*
%TD*%
D13*
%TO.C,U3*%
X133570000Y-109700000D03*
D14*
X132300000Y-109700000D03*
X131030000Y-109700000D03*
%TD*%
D11*
%TO.C,D3*%
X138190000Y-81500000D03*
D15*
X145810000Y-81500000D03*
%TD*%
D11*
%TO.C,D1*%
X137090000Y-108600000D03*
D15*
X144710000Y-108600000D03*
%TD*%
D16*
%TO.C,Q2*%
X137240000Y-115255000D03*
D17*
X134700000Y-115255000D03*
X132160000Y-115255000D03*
%TD*%
D18*
%TO.C,J4*%
X164300000Y-115440000D03*
D19*
X164300000Y-110360000D03*
%TD*%
D11*
%TO.C,C1*%
X132038606Y-77700000D03*
D12*
X134538606Y-77700000D03*
%TD*%
D20*
%TO.C,U5*%
X158505000Y-117410000D03*
D12*
X158505000Y-114870000D03*
X158505000Y-112330000D03*
X158505000Y-109790000D03*
X150885000Y-109790000D03*
X150885000Y-112330000D03*
X150885000Y-114870000D03*
X150885000Y-117410000D03*
%TD*%
D16*
%TO.C,Q1*%
X140360000Y-75445000D03*
D17*
X142900000Y-75445000D03*
X145440000Y-75445000D03*
%TD*%
D21*
%TO.C,A1*%
X109500000Y-98225000D03*
D22*
X112530000Y-97925000D03*
X112530000Y-93075000D03*
D21*
X109500000Y-92775000D03*
D23*
X109370000Y-104390000D03*
D12*
X111910000Y-104390000D03*
D24*
X114450000Y-104390000D03*
D12*
X116990000Y-104390000D03*
X119530000Y-104390000D03*
X122070000Y-104390000D03*
X124610000Y-104390000D03*
D24*
X127150000Y-104390000D03*
D12*
X129690000Y-104390000D03*
X132230000Y-104390000D03*
X134770000Y-104390000D03*
X137310000Y-104390000D03*
D24*
X139850000Y-104390000D03*
D12*
X142390000Y-104390000D03*
X144930000Y-104390000D03*
X147470000Y-104390000D03*
X150010000Y-104390000D03*
D24*
X152550000Y-104390000D03*
D12*
X155090000Y-104390000D03*
X157630000Y-104390000D03*
X157630000Y-86610000D03*
X155090000Y-86610000D03*
D25*
X152550000Y-86610000D03*
D12*
X150010000Y-86610000D03*
X147470000Y-86610000D03*
X144930000Y-86610000D03*
X142390000Y-86610000D03*
D25*
X139850000Y-86610000D03*
D12*
X137310000Y-86610000D03*
X134770000Y-86610000D03*
X132230000Y-86610000D03*
X129690000Y-86610000D03*
D25*
X127150000Y-86610000D03*
D12*
X124610000Y-86610000D03*
X122070000Y-86610000D03*
X119530000Y-86610000D03*
X116990000Y-86610000D03*
D25*
X114450000Y-86610000D03*
D12*
X111910000Y-86610000D03*
X109370000Y-86610000D03*
%TD*%
D26*
%TO.C,J3*%
X173100000Y-97080000D03*
D27*
X173100000Y-99620000D03*
X173100000Y-102160000D03*
X173100000Y-104700000D03*
%TD*%
D18*
%TO.C,J1*%
X124000000Y-75660000D03*
D19*
X124000000Y-80740000D03*
%TD*%
D18*
%TO.C,J5*%
X164500000Y-91740000D03*
D19*
X164500000Y-86660000D03*
%TD*%
D18*
%TO.C,J6*%
X164500000Y-80540000D03*
D19*
X164500000Y-75460000D03*
%TD*%
D18*
%TO.C,J2*%
X124000000Y-110060000D03*
D19*
X124000000Y-115140000D03*
%TD*%
M02*
