%TF.GenerationSoftware,KiCad,Pcbnew,9.0.0*%
%TF.CreationDate,2025-03-25T22:24:14+01:00*%
%TF.ProjectId,LEDstripCtrl2.0,4c454473-7472-4697-9043-74726c322e30,rev?*%
%TF.SameCoordinates,Original*%
%TF.FileFunction,Copper,L2,Bot*%
%TF.FilePolarity,Positive*%
%FSLAX46Y46*%
G04 Gerber Fmt 4.6, Leading zero omitted, Abs format (unit mm)*
G04 Created by KiCad (PCBNEW 9.0.0) date 2025-03-25 22:24:14*
%MOMM*%
%LPD*%
G01*
G04 APERTURE LIST*
G04 Aperture macros list*
%AMRoundRect*
0 Rectangle with rounded corners*
0 $1 Rounding radius*
0 $2 $3 $4 $5 $6 $7 $8 $9 X,Y pos of 4 corners*
0 Add a 4 corners polygon primitive as box body*
4,1,4,$2,$3,$4,$5,$6,$7,$8,$9,$2,$3,0*
0 Add four circle primitives for the rounded corners*
1,1,$1+$1,$2,$3*
1,1,$1+$1,$4,$5*
1,1,$1+$1,$6,$7*
1,1,$1+$1,$8,$9*
0 Add four rect primitives between the rounded corners*
20,1,$1+$1,$2,$3,$4,$5,0*
20,1,$1+$1,$4,$5,$6,$7,0*
20,1,$1+$1,$6,$7,$8,$9,0*
20,1,$1+$1,$8,$9,$2,$3,0*%
G04 Aperture macros list end*
%TA.AperFunction,ComponentPad*%
%ADD10R,1.750000X1.750000*%
%TD*%
%TA.AperFunction,ComponentPad*%
%ADD11C,1.750000*%
%TD*%
%TA.AperFunction,ComponentPad*%
%ADD12C,2.700000*%
%TD*%
%TA.AperFunction,ComponentPad*%
%ADD13R,1.800000X1.800000*%
%TD*%
%TA.AperFunction,ComponentPad*%
%ADD14C,1.800000*%
%TD*%
%TA.AperFunction,ComponentPad*%
%ADD15RoundRect,0.250000X1.050000X-1.050000X1.050000X1.050000X-1.050000X1.050000X-1.050000X-1.050000X0*%
%TD*%
%TA.AperFunction,ComponentPad*%
%ADD16C,2.600000*%
%TD*%
%TA.AperFunction,ComponentPad*%
%ADD17C,1.600000*%
%TD*%
%TA.AperFunction,ComponentPad*%
%ADD18O,1.600000X1.600000*%
%TD*%
%TA.AperFunction,Conductor*%
%ADD19C,0.800000*%
%TD*%
G04 APERTURE END LIST*
D10*
%TO.P,RV1,1,1*%
%TO.N,+3.3V*%
X144550000Y-67050000D03*
D11*
X141050000Y-67050000D03*
%TO.P,RV1,2,2*%
%TO.N,Net-(J1-Pin_2)*%
X143770000Y-72430000D03*
X141810000Y-120430000D03*
%TO.P,RV1,3,3*%
%TO.N,GNDREF*%
X144550000Y-125550000D03*
X140953500Y-125550000D03*
D12*
%TO.P,RV1,MP,MountPin*%
X138600000Y-71200000D03*
X147000000Y-72400000D03*
X147000000Y-120200000D03*
X138600000Y-121400000D03*
%TD*%
D13*
%TO.P,D1,1,K*%
%TO.N,GNDREF*%
X129850000Y-97170000D03*
D14*
%TO.P,D1,2,A*%
%TO.N,Net-(D1-A)*%
X129850000Y-94630000D03*
%TD*%
D15*
%TO.P,J1,1,Pin_1*%
%TO.N,+3.3V*%
X168672500Y-104170000D03*
D16*
%TO.P,J1,2,Pin_2*%
%TO.N,Net-(J1-Pin_2)*%
X168672500Y-99090000D03*
%TO.P,J1,3,Pin_3*%
%TO.N,Net-(J1-Pin_3)*%
X168672500Y-94010000D03*
%TO.P,J1,4,Pin_4*%
%TO.N,GNDREF*%
X168672500Y-88930000D03*
%TD*%
D10*
%TO.P,RV2,1,1*%
%TO.N,+3.3V*%
X157000000Y-67050000D03*
D11*
X153500000Y-67050000D03*
%TO.P,RV2,2,2*%
%TO.N,Net-(J1-Pin_3)*%
X156220000Y-72430000D03*
X154260000Y-120430000D03*
%TO.P,RV2,3,3*%
%TO.N,GNDREF*%
X157000000Y-125550000D03*
X153403500Y-125550000D03*
D12*
%TO.P,RV2,MP,MountPin*%
X151050000Y-71200000D03*
X159450000Y-72400000D03*
X159450000Y-120200000D03*
X151050000Y-121400000D03*
%TD*%
D17*
%TO.P,R1,1*%
%TO.N,+3.3V*%
X129850000Y-75350000D03*
D18*
%TO.P,R1,2*%
%TO.N,Net-(D1-A)*%
X129850000Y-88050000D03*
%TD*%
D19*
%TO.N,+3.3V*%
X172651000Y-100114628D02*
X172350000Y-100415628D01*
X172350000Y-96271872D02*
X172651000Y-96572872D01*
X172350000Y-100415628D02*
X172350000Y-102500000D01*
X144550000Y-67050000D02*
X153500000Y-67050000D01*
X141050000Y-67050000D02*
X144550000Y-67050000D01*
X158799000Y-68849000D02*
X159999000Y-68849000D01*
X161950000Y-78400000D02*
X172350000Y-88800000D01*
X172651000Y-96572872D02*
X172651000Y-100114628D01*
X138150000Y-67050000D02*
X141050000Y-67050000D01*
X159999000Y-68849000D02*
X161950000Y-70800000D01*
X129850000Y-75350000D02*
X138150000Y-67050000D01*
X170680000Y-104170000D02*
X168672500Y-104170000D01*
X157000000Y-67050000D02*
X158799000Y-68849000D01*
X161950000Y-70800000D02*
X161950000Y-78400000D01*
X153500000Y-67050000D02*
X157000000Y-67050000D01*
X172350000Y-88800000D02*
X172350000Y-96271872D01*
X172350000Y-102500000D02*
X170680000Y-104170000D01*
%TO.N,Net-(J1-Pin_2)*%
X141810000Y-74390000D02*
X143770000Y-72430000D01*
X168672500Y-99090000D02*
X143770000Y-74187500D01*
X143770000Y-74187500D02*
X143770000Y-72430000D01*
X141810000Y-120430000D02*
X141810000Y-74390000D01*
%TO.N,Net-(J1-Pin_3)*%
X168672500Y-94010000D02*
X171650000Y-96987500D01*
X171650000Y-99700000D02*
X169650000Y-101700000D01*
X156220000Y-81557500D02*
X156220000Y-72430000D01*
X154260000Y-113331038D02*
X154260000Y-120430000D01*
X169340000Y-94010000D02*
X168672500Y-94010000D01*
X165891038Y-101700000D02*
X154260000Y-113331038D01*
X168672500Y-94010000D02*
X156220000Y-81557500D01*
X171650000Y-96987500D02*
X171650000Y-99700000D01*
X169650000Y-101700000D02*
X165891038Y-101700000D01*
%TO.N,GNDREF*%
X129850000Y-112650000D02*
X138600000Y-121400000D01*
X144700000Y-70100000D02*
X139700000Y-70100000D01*
X151050000Y-71200000D02*
X148200000Y-71200000D01*
X138600000Y-123196500D02*
X140953500Y-125550000D01*
X157000000Y-125550000D02*
X157000000Y-122650000D01*
X157000000Y-122650000D02*
X159450000Y-120200000D01*
X159450000Y-79707500D02*
X168672500Y-88930000D01*
X138600000Y-121400000D02*
X138600000Y-123196500D01*
X159450000Y-72400000D02*
X159450000Y-79707500D01*
X156900000Y-69850000D02*
X152400000Y-69850000D01*
X153403500Y-125550000D02*
X157000000Y-125550000D01*
X149850000Y-120200000D02*
X151050000Y-121400000D01*
X138600000Y-90250000D02*
X138600000Y-71200000D01*
X129850000Y-97570000D02*
X129850000Y-112650000D01*
X131680000Y-97170000D02*
X138600000Y-90250000D01*
X144550000Y-125550000D02*
X144550000Y-122650000D01*
X147000000Y-120200000D02*
X149850000Y-120200000D01*
X159450000Y-72400000D02*
X156900000Y-69850000D01*
X129850000Y-97170000D02*
X131680000Y-97170000D01*
X140953500Y-125550000D02*
X144550000Y-125550000D01*
X151050000Y-123196500D02*
X153403500Y-125550000D01*
X147000000Y-72400000D02*
X144700000Y-70100000D01*
X144550000Y-122650000D02*
X147000000Y-120200000D01*
X151050000Y-121400000D02*
X151050000Y-123196500D01*
X139700000Y-70100000D02*
X138600000Y-71200000D01*
X148200000Y-71200000D02*
X147000000Y-72400000D01*
X152400000Y-69850000D02*
X151050000Y-71200000D01*
%TO.N,Net-(D1-A)*%
X129850000Y-88050000D02*
X129850000Y-94630000D01*
%TD*%
%TA.AperFunction,Conductor*%
%TO.N,GNDREF*%
G36*
X158696740Y-72802626D02*
G01*
X158789762Y-72941844D01*
X158908156Y-73060238D01*
X159047374Y-73153260D01*
X159049437Y-73154114D01*
X158330614Y-73872936D01*
X158330614Y-73872937D01*
X158419989Y-73941517D01*
X158419996Y-73941522D01*
X158630007Y-74062772D01*
X158630021Y-74062779D01*
X158854060Y-74155578D01*
X159088312Y-74218346D01*
X159328735Y-74249998D01*
X159328752Y-74250000D01*
X159571248Y-74250000D01*
X159571264Y-74249998D01*
X159811687Y-74218346D01*
X160045939Y-74155578D01*
X160269978Y-74062779D01*
X160269992Y-74062772D01*
X160480016Y-73941515D01*
X160569384Y-73872939D01*
X160569384Y-73872936D01*
X159850562Y-73154114D01*
X159852626Y-73153260D01*
X159991844Y-73060238D01*
X160110238Y-72941844D01*
X160203260Y-72802626D01*
X160204114Y-72800561D01*
X160925003Y-73521451D01*
X160985573Y-73535006D01*
X161034684Y-73584705D01*
X161049500Y-73643483D01*
X161049500Y-78488696D01*
X161084103Y-78662658D01*
X161084105Y-78662666D01*
X161115526Y-78738524D01*
X161115529Y-78738529D01*
X161118046Y-78744606D01*
X161151987Y-78826547D01*
X161211063Y-78914959D01*
X161214169Y-78919607D01*
X161214172Y-78919613D01*
X161250534Y-78974034D01*
X161250535Y-78974035D01*
X169261193Y-86984694D01*
X169294678Y-87046017D01*
X169289694Y-87115709D01*
X169247822Y-87171642D01*
X169182358Y-87196059D01*
X169141419Y-87192150D01*
X169024414Y-87160799D01*
X168790485Y-87130000D01*
X168554514Y-87130000D01*
X168320585Y-87160799D01*
X168092662Y-87221870D01*
X167874680Y-87312160D01*
X167874671Y-87312165D01*
X167670328Y-87430144D01*
X167670318Y-87430150D01*
X167588775Y-87492720D01*
X167588775Y-87492721D01*
X168425012Y-88328958D01*
X168364610Y-88353978D01*
X168258149Y-88425112D01*
X168167612Y-88515649D01*
X168096478Y-88622110D01*
X168071458Y-88682512D01*
X167235221Y-87846275D01*
X167235220Y-87846275D01*
X167172650Y-87927818D01*
X167172644Y-87927828D01*
X167054665Y-88132171D01*
X167054660Y-88132180D01*
X166964370Y-88350162D01*
X166903299Y-88578085D01*
X166872500Y-88812014D01*
X166872500Y-89047985D01*
X166903299Y-89281914D01*
X166964370Y-89509837D01*
X167054660Y-89727819D01*
X167054665Y-89727828D01*
X167172644Y-89932171D01*
X167172645Y-89932172D01*
X167235221Y-90013723D01*
X168071458Y-89177487D01*
X168096478Y-89237890D01*
X168167612Y-89344351D01*
X168258149Y-89434888D01*
X168364610Y-89506022D01*
X168425011Y-89531041D01*
X167588775Y-90367277D01*
X167670327Y-90429854D01*
X167670328Y-90429855D01*
X167874671Y-90547834D01*
X167874680Y-90547839D01*
X168092663Y-90638129D01*
X168092661Y-90638129D01*
X168320585Y-90699200D01*
X168554514Y-90729999D01*
X168554529Y-90730000D01*
X168790471Y-90730000D01*
X168790485Y-90729999D01*
X169024414Y-90699200D01*
X169252337Y-90638129D01*
X169470319Y-90547839D01*
X169470328Y-90547834D01*
X169674681Y-90429850D01*
X169756223Y-90367279D01*
X169756223Y-90367276D01*
X168919987Y-89531041D01*
X168980390Y-89506022D01*
X169086851Y-89434888D01*
X169177388Y-89344351D01*
X169248522Y-89237890D01*
X169273541Y-89177488D01*
X170109776Y-90013723D01*
X170109779Y-90013723D01*
X170172350Y-89932181D01*
X170290334Y-89727828D01*
X170290339Y-89727819D01*
X170380629Y-89509837D01*
X170441700Y-89281914D01*
X170472499Y-89047985D01*
X170472500Y-89047971D01*
X170472500Y-88812028D01*
X170472499Y-88812014D01*
X170441701Y-88578087D01*
X170410349Y-88461081D01*
X170412012Y-88391231D01*
X170451174Y-88333368D01*
X170515402Y-88305864D01*
X170584305Y-88317450D01*
X170617805Y-88341306D01*
X171413181Y-89136681D01*
X171446666Y-89198004D01*
X171449500Y-89224362D01*
X171449500Y-95214138D01*
X171429815Y-95281177D01*
X171377011Y-95326932D01*
X171307853Y-95336876D01*
X171244297Y-95307851D01*
X171237819Y-95301819D01*
X170462347Y-94526347D01*
X170428862Y-94465024D01*
X170430252Y-94406574D01*
X170442193Y-94362014D01*
X170473000Y-94128011D01*
X170473000Y-93891989D01*
X170442193Y-93657986D01*
X170381106Y-93430007D01*
X170290784Y-93211951D01*
X170290782Y-93211948D01*
X170290780Y-93211943D01*
X170248618Y-93138918D01*
X170172773Y-93007550D01*
X170029092Y-92820301D01*
X170029087Y-92820295D01*
X169862204Y-92653412D01*
X169862197Y-92653406D01*
X169674954Y-92509730D01*
X169674953Y-92509729D01*
X169674950Y-92509727D01*
X169593457Y-92462677D01*
X169470556Y-92391719D01*
X169470545Y-92391714D01*
X169252493Y-92301394D01*
X169024510Y-92240306D01*
X168790520Y-92209501D01*
X168790517Y-92209500D01*
X168790511Y-92209500D01*
X168554489Y-92209500D01*
X168554483Y-92209500D01*
X168554479Y-92209501D01*
X168320489Y-92240306D01*
X168320471Y-92240310D01*
X168275924Y-92252246D01*
X168206074Y-92250583D01*
X168156151Y-92220152D01*
X164831643Y-88895644D01*
X157156819Y-81220819D01*
X157123334Y-81159496D01*
X157120500Y-81133138D01*
X157120500Y-73526112D01*
X157140185Y-73459073D01*
X157156819Y-73438431D01*
X157165240Y-73430010D01*
X157269172Y-73326078D01*
X157396433Y-73150919D01*
X157474097Y-72998494D01*
X157522072Y-72947699D01*
X157589893Y-72930904D01*
X157656028Y-72953441D01*
X157699143Y-73007338D01*
X157787220Y-73219978D01*
X157787227Y-73219992D01*
X157908481Y-73430010D01*
X157977061Y-73519384D01*
X158695884Y-72800560D01*
X158696740Y-72802626D01*
G37*
%TD.AperFunction*%
%TA.AperFunction,Conductor*%
G36*
X181592719Y-63519860D02*
G01*
X181638636Y-63572523D01*
X181650000Y-63624381D01*
X181650000Y-63676000D01*
X181630315Y-63743039D01*
X181577511Y-63788794D01*
X181556672Y-63793327D01*
X181550000Y-63800000D01*
X181550000Y-128876000D01*
X181530315Y-128943039D01*
X181477511Y-128988794D01*
X181426000Y-129000000D01*
X116674000Y-129000000D01*
X116606961Y-128980315D01*
X116561206Y-128927511D01*
X116550000Y-128876000D01*
X116550000Y-122965186D01*
X120199500Y-122965186D01*
X120199500Y-123234813D01*
X120229686Y-123502719D01*
X120229688Y-123502731D01*
X120289684Y-123765594D01*
X120289687Y-123765602D01*
X120378734Y-124020082D01*
X120495714Y-124262994D01*
X120495716Y-124262997D01*
X120639162Y-124491289D01*
X120807266Y-124702085D01*
X120997915Y-124892734D01*
X121208711Y-125060838D01*
X121437003Y-125204284D01*
X121679921Y-125321267D01*
X121871049Y-125388145D01*
X121934397Y-125410312D01*
X121934405Y-125410315D01*
X121934408Y-125410315D01*
X121934409Y-125410316D01*
X122197268Y-125470312D01*
X122465187Y-125500499D01*
X122465188Y-125500500D01*
X122465191Y-125500500D01*
X122734812Y-125500500D01*
X122734812Y-125500499D01*
X123002732Y-125470312D01*
X123127743Y-125441779D01*
X139578500Y-125441779D01*
X139578500Y-125658220D01*
X139612357Y-125871981D01*
X139679235Y-126077814D01*
X139679236Y-126077817D01*
X139777496Y-126270660D01*
X139820329Y-126329615D01*
X139820330Y-126329616D01*
X140388887Y-125761059D01*
X140394389Y-125781591D01*
X140473381Y-125918408D01*
X140585092Y-126030119D01*
X140721909Y-126109111D01*
X140742439Y-126114612D01*
X140173882Y-126683168D01*
X140232842Y-126726005D01*
X140425682Y-126824263D01*
X140425685Y-126824264D01*
X140631518Y-126891142D01*
X140845280Y-126925000D01*
X141061720Y-126925000D01*
X141275481Y-126891142D01*
X141481314Y-126824264D01*
X141481317Y-126824263D01*
X141674156Y-126726006D01*
X141733115Y-126683168D01*
X141733116Y-126683168D01*
X141164559Y-126114612D01*
X141185091Y-126109111D01*
X141321908Y-126030119D01*
X141433619Y-125918408D01*
X141512611Y-125781591D01*
X141518112Y-125761059D01*
X142086668Y-126329616D01*
X142086668Y-126329615D01*
X142129506Y-126270656D01*
X142227763Y-126077817D01*
X142227764Y-126077814D01*
X142294642Y-125871981D01*
X142328500Y-125658220D01*
X142328500Y-125441779D01*
X143175000Y-125441779D01*
X143175000Y-125658220D01*
X143208857Y-125871981D01*
X143275735Y-126077814D01*
X143275736Y-126077817D01*
X143373996Y-126270660D01*
X143416829Y-126329615D01*
X143416830Y-126329616D01*
X143985387Y-125761059D01*
X143990889Y-125781591D01*
X144069881Y-125918408D01*
X144181592Y-126030119D01*
X144318409Y-126109111D01*
X144338939Y-126114612D01*
X143770382Y-126683168D01*
X143829342Y-126726005D01*
X144022182Y-126824263D01*
X144022185Y-126824264D01*
X144228018Y-126891142D01*
X144441780Y-126925000D01*
X144658220Y-126925000D01*
X144871981Y-126891142D01*
X145077814Y-126824264D01*
X145077817Y-126824263D01*
X145270656Y-126726006D01*
X145329615Y-126683168D01*
X145329616Y-126683168D01*
X144761059Y-126114612D01*
X144781591Y-126109111D01*
X144918408Y-126030119D01*
X145030119Y-125918408D01*
X145109111Y-125781591D01*
X145114612Y-125761060D01*
X145683168Y-126329616D01*
X145683168Y-126329615D01*
X145726006Y-126270656D01*
X145824263Y-126077817D01*
X145824264Y-126077814D01*
X145891142Y-125871981D01*
X145925000Y-125658220D01*
X145925000Y-125441779D01*
X152028500Y-125441779D01*
X152028500Y-125658220D01*
X152062357Y-125871981D01*
X152129235Y-126077814D01*
X152129236Y-126077817D01*
X152227496Y-126270660D01*
X152270329Y-126329615D01*
X152270330Y-126329616D01*
X152838887Y-125761059D01*
X152844389Y-125781591D01*
X152923381Y-125918408D01*
X153035092Y-126030119D01*
X153171909Y-126109111D01*
X153192439Y-126114612D01*
X152623882Y-126683168D01*
X152682842Y-126726005D01*
X152875682Y-126824263D01*
X152875685Y-126824264D01*
X153081518Y-126891142D01*
X153295280Y-126925000D01*
X153511720Y-126925000D01*
X153725481Y-126891142D01*
X153931314Y-126824264D01*
X153931317Y-126824263D01*
X154124156Y-126726006D01*
X154183115Y-126683168D01*
X154183116Y-126683168D01*
X153614559Y-126114612D01*
X153635091Y-126109111D01*
X153771908Y-126030119D01*
X153883619Y-125918408D01*
X153962611Y-125781591D01*
X153968112Y-125761060D01*
X154536668Y-126329616D01*
X154536668Y-126329615D01*
X154579506Y-126270656D01*
X154677763Y-126077817D01*
X154677764Y-126077814D01*
X154744642Y-125871981D01*
X154778500Y-125658220D01*
X154778500Y-125441779D01*
X155625000Y-125441779D01*
X155625000Y-125658220D01*
X155658857Y-125871981D01*
X155725735Y-126077814D01*
X155725736Y-126077817D01*
X155823996Y-126270660D01*
X155866829Y-126329615D01*
X155866830Y-126329616D01*
X156435387Y-125761059D01*
X156440889Y-125781591D01*
X156519881Y-125918408D01*
X156631592Y-126030119D01*
X156768409Y-126109111D01*
X156788939Y-126114612D01*
X156220382Y-126683168D01*
X156279342Y-126726005D01*
X156472182Y-126824263D01*
X156472185Y-126824264D01*
X156678018Y-126891142D01*
X156891780Y-126925000D01*
X157108220Y-126925000D01*
X157321981Y-126891142D01*
X157527814Y-126824264D01*
X157527817Y-126824263D01*
X157720656Y-126726006D01*
X157779615Y-126683168D01*
X157779616Y-126683168D01*
X157211059Y-126114612D01*
X157231591Y-126109111D01*
X157368408Y-126030119D01*
X157480119Y-125918408D01*
X157559111Y-125781591D01*
X157564612Y-125761060D01*
X158133168Y-126329616D01*
X158133168Y-126329615D01*
X158176006Y-126270656D01*
X158274263Y-126077817D01*
X158274264Y-126077814D01*
X158341142Y-125871981D01*
X158375000Y-125658220D01*
X158375000Y-125441779D01*
X158341142Y-125228018D01*
X158274264Y-125022185D01*
X158274263Y-125022182D01*
X158176005Y-124829342D01*
X158133168Y-124770383D01*
X158133168Y-124770382D01*
X157564612Y-125338939D01*
X157559111Y-125318409D01*
X157480119Y-125181592D01*
X157368408Y-125069881D01*
X157231591Y-124990889D01*
X157211058Y-124985387D01*
X157779616Y-124416830D01*
X157779615Y-124416829D01*
X157720660Y-124373996D01*
X157527817Y-124275736D01*
X157527814Y-124275735D01*
X157321981Y-124208857D01*
X157108220Y-124175000D01*
X156891780Y-124175000D01*
X156678018Y-124208857D01*
X156472185Y-124275735D01*
X156472182Y-124275736D01*
X156279346Y-124373992D01*
X156220383Y-124416830D01*
X156788941Y-124985387D01*
X156768409Y-124990889D01*
X156631592Y-125069881D01*
X156519881Y-125181592D01*
X156440889Y-125318409D01*
X156435387Y-125338940D01*
X155866830Y-124770383D01*
X155823992Y-124829346D01*
X155725736Y-125022182D01*
X155725735Y-125022185D01*
X155658857Y-125228018D01*
X155625000Y-125441779D01*
X154778500Y-125441779D01*
X154744642Y-125228018D01*
X154677764Y-125022185D01*
X154677763Y-125022182D01*
X154579505Y-124829342D01*
X154536668Y-124770383D01*
X154536668Y-124770382D01*
X153968112Y-125338939D01*
X153962611Y-125318409D01*
X153883619Y-125181592D01*
X153771908Y-125069881D01*
X153635091Y-124990889D01*
X153614558Y-124985387D01*
X154183116Y-124416830D01*
X154183115Y-124416829D01*
X154124160Y-124373996D01*
X153931317Y-124275736D01*
X153931314Y-124275735D01*
X153725481Y-124208857D01*
X153511720Y-124175000D01*
X153295280Y-124175000D01*
X153081518Y-124208857D01*
X152875685Y-124275735D01*
X152875682Y-124275736D01*
X152682846Y-124373992D01*
X152623883Y-124416830D01*
X153192441Y-124985387D01*
X153171909Y-124990889D01*
X153035092Y-125069881D01*
X152923381Y-125181592D01*
X152844389Y-125318409D01*
X152838887Y-125338940D01*
X152270330Y-124770383D01*
X152227492Y-124829346D01*
X152129236Y-125022182D01*
X152129235Y-125022185D01*
X152062357Y-125228018D01*
X152028500Y-125441779D01*
X145925000Y-125441779D01*
X145891142Y-125228018D01*
X145824264Y-125022185D01*
X145824263Y-125022182D01*
X145726005Y-124829342D01*
X145683168Y-124770383D01*
X145683168Y-124770382D01*
X145114612Y-125338939D01*
X145109111Y-125318409D01*
X145030119Y-125181592D01*
X144918408Y-125069881D01*
X144781591Y-124990889D01*
X144761058Y-124985387D01*
X145329616Y-124416830D01*
X145329615Y-124416829D01*
X145270660Y-124373996D01*
X145077817Y-124275736D01*
X145077814Y-124275735D01*
X144871981Y-124208857D01*
X144658220Y-124175000D01*
X144441780Y-124175000D01*
X144228018Y-124208857D01*
X144022185Y-124275735D01*
X144022182Y-124275736D01*
X143829346Y-124373992D01*
X143770383Y-124416830D01*
X144338941Y-124985387D01*
X144318409Y-124990889D01*
X144181592Y-125069881D01*
X144069881Y-125181592D01*
X143990889Y-125318409D01*
X143985387Y-125338940D01*
X143416830Y-124770383D01*
X143373992Y-124829346D01*
X143275736Y-125022182D01*
X143275735Y-125022185D01*
X143208857Y-125228018D01*
X143175000Y-125441779D01*
X142328500Y-125441779D01*
X142294642Y-125228018D01*
X142227764Y-125022185D01*
X142227763Y-125022182D01*
X142129505Y-124829342D01*
X142086668Y-124770383D01*
X142086668Y-124770382D01*
X141518112Y-125338939D01*
X141512611Y-125318409D01*
X141433619Y-125181592D01*
X141321908Y-125069881D01*
X141185091Y-124990889D01*
X141164558Y-124985387D01*
X141733116Y-124416830D01*
X141733115Y-124416829D01*
X141674160Y-124373996D01*
X141481317Y-124275736D01*
X141481314Y-124275735D01*
X141275481Y-124208857D01*
X141061720Y-124175000D01*
X140845280Y-124175000D01*
X140631518Y-124208857D01*
X140425685Y-124275735D01*
X140425682Y-124275736D01*
X140232846Y-124373992D01*
X140173883Y-124416830D01*
X140742441Y-124985387D01*
X140721909Y-124990889D01*
X140585092Y-125069881D01*
X140473381Y-125181592D01*
X140394389Y-125318409D01*
X140388887Y-125338940D01*
X139820330Y-124770383D01*
X139777492Y-124829346D01*
X139679236Y-125022182D01*
X139679235Y-125022185D01*
X139612357Y-125228018D01*
X139578500Y-125441779D01*
X123127743Y-125441779D01*
X123265591Y-125410316D01*
X123520079Y-125321267D01*
X123762997Y-125204284D01*
X123991289Y-125060838D01*
X124202085Y-124892734D01*
X124392734Y-124702085D01*
X124560838Y-124491289D01*
X124704284Y-124262997D01*
X124821267Y-124020079D01*
X124910316Y-123765591D01*
X124970312Y-123502732D01*
X125000500Y-123234809D01*
X125000500Y-122965191D01*
X124970312Y-122697268D01*
X124910316Y-122434409D01*
X124821267Y-122179921D01*
X124704284Y-121937003D01*
X124560838Y-121708711D01*
X124392734Y-121497915D01*
X124202085Y-121307266D01*
X123991289Y-121139162D01*
X123762997Y-120995716D01*
X123762994Y-120995714D01*
X123520082Y-120878734D01*
X123265602Y-120789687D01*
X123265594Y-120789684D01*
X123046869Y-120739762D01*
X123002732Y-120729688D01*
X123002728Y-120729687D01*
X123002719Y-120729686D01*
X122734813Y-120699500D01*
X122734809Y-120699500D01*
X122465191Y-120699500D01*
X122465186Y-120699500D01*
X122197280Y-120729686D01*
X122197268Y-120729688D01*
X121934405Y-120789684D01*
X121934397Y-120789687D01*
X121679917Y-120878734D01*
X121437005Y-120995714D01*
X121208712Y-121139161D01*
X120997915Y-121307265D01*
X120807265Y-121497915D01*
X120639161Y-121708712D01*
X120495714Y-121937005D01*
X120378734Y-122179917D01*
X120289687Y-122434397D01*
X120289684Y-122434405D01*
X120229688Y-122697268D01*
X120229686Y-122697280D01*
X120199500Y-122965186D01*
X116550000Y-122965186D01*
X116550000Y-94519778D01*
X128449500Y-94519778D01*
X128449500Y-94740221D01*
X128483985Y-94957952D01*
X128552103Y-95167603D01*
X128552104Y-95167606D01*
X128575814Y-95214138D01*
X128638353Y-95336876D01*
X128652187Y-95364025D01*
X128781752Y-95542358D01*
X128781756Y-95542363D01*
X128832316Y-95592923D01*
X128865801Y-95654246D01*
X128860817Y-95723938D01*
X128818945Y-95779871D01*
X128787969Y-95796785D01*
X128707918Y-95826643D01*
X128707906Y-95826649D01*
X128592812Y-95912809D01*
X128592809Y-95912812D01*
X128506649Y-96027906D01*
X128506645Y-96027913D01*
X128456403Y-96162620D01*
X128456401Y-96162627D01*
X128450000Y-96222155D01*
X128450000Y-96920000D01*
X129474722Y-96920000D01*
X129430667Y-96996306D01*
X129400000Y-97110756D01*
X129400000Y-97229244D01*
X129430667Y-97343694D01*
X129474722Y-97420000D01*
X128450000Y-97420000D01*
X128450000Y-98117844D01*
X128456401Y-98177372D01*
X128456403Y-98177379D01*
X128506645Y-98312086D01*
X128506649Y-98312093D01*
X128592809Y-98427187D01*
X128592812Y-98427190D01*
X128707906Y-98513350D01*
X128707913Y-98513354D01*
X128842620Y-98563596D01*
X128842627Y-98563598D01*
X128902155Y-98569999D01*
X128902172Y-98570000D01*
X129600000Y-98570000D01*
X129600000Y-97545277D01*
X129676306Y-97589333D01*
X129790756Y-97620000D01*
X129909244Y-97620000D01*
X130023694Y-97589333D01*
X130100000Y-97545277D01*
X130100000Y-98570000D01*
X130797828Y-98570000D01*
X130797844Y-98569999D01*
X130857372Y-98563598D01*
X130857379Y-98563596D01*
X130992086Y-98513354D01*
X130992093Y-98513350D01*
X131107187Y-98427190D01*
X131107190Y-98427187D01*
X131193350Y-98312093D01*
X131193354Y-98312086D01*
X131243596Y-98177379D01*
X131243598Y-98177372D01*
X131249999Y-98117844D01*
X131250000Y-98117827D01*
X131250000Y-97420000D01*
X130225278Y-97420000D01*
X130269333Y-97343694D01*
X130300000Y-97229244D01*
X130300000Y-97110756D01*
X130269333Y-96996306D01*
X130225278Y-96920000D01*
X131250000Y-96920000D01*
X131250000Y-96222172D01*
X131249999Y-96222155D01*
X131243598Y-96162627D01*
X131243596Y-96162620D01*
X131193354Y-96027913D01*
X131193350Y-96027906D01*
X131107190Y-95912812D01*
X131107187Y-95912809D01*
X130992093Y-95826649D01*
X130992087Y-95826646D01*
X130912030Y-95796786D01*
X130856097Y-95754914D01*
X130831680Y-95689450D01*
X130846532Y-95621177D01*
X130867681Y-95592925D01*
X130918242Y-95542365D01*
X131047815Y-95364022D01*
X131147895Y-95167606D01*
X131216015Y-94957951D01*
X131250500Y-94740222D01*
X131250500Y-94519778D01*
X131216015Y-94302049D01*
X131181955Y-94197221D01*
X131147896Y-94092396D01*
X131147895Y-94092393D01*
X131113237Y-94024375D01*
X131047815Y-93895978D01*
X131035750Y-93879372D01*
X130918248Y-93717642D01*
X130918244Y-93717638D01*
X130918242Y-93717635D01*
X130786818Y-93586211D01*
X130753334Y-93524888D01*
X130750500Y-93498530D01*
X130750500Y-89040047D01*
X130770185Y-88973008D01*
X130786819Y-88952366D01*
X130809185Y-88930000D01*
X130841966Y-88897219D01*
X130841968Y-88897215D01*
X130841971Y-88897213D01*
X130903860Y-88812028D01*
X130962287Y-88731610D01*
X131055220Y-88549219D01*
X131118477Y-88354534D01*
X131150500Y-88152352D01*
X131150500Y-87947648D01*
X131118477Y-87745466D01*
X131055220Y-87550781D01*
X131055218Y-87550778D01*
X131055218Y-87550776D01*
X130993752Y-87430144D01*
X130962287Y-87368390D01*
X130954556Y-87357749D01*
X130841971Y-87202786D01*
X130697213Y-87058028D01*
X130531613Y-86937715D01*
X130531612Y-86937714D01*
X130531610Y-86937713D01*
X130474653Y-86908691D01*
X130349223Y-86844781D01*
X130154534Y-86781522D01*
X129979995Y-86753878D01*
X129952352Y-86749500D01*
X129747648Y-86749500D01*
X129723329Y-86753351D01*
X129545465Y-86781522D01*
X129350776Y-86844781D01*
X129168386Y-86937715D01*
X129002786Y-87058028D01*
X128858028Y-87202786D01*
X128737715Y-87368386D01*
X128644781Y-87550776D01*
X128581522Y-87745465D01*
X128549500Y-87947648D01*
X128549500Y-88152351D01*
X128581522Y-88354534D01*
X128644781Y-88549223D01*
X128737715Y-88731613D01*
X128858028Y-88897213D01*
X128913181Y-88952366D01*
X128946666Y-89013689D01*
X128949500Y-89040047D01*
X128949500Y-93498530D01*
X128929815Y-93565569D01*
X128913182Y-93586211D01*
X128781751Y-93717642D01*
X128652187Y-93895974D01*
X128552104Y-94092393D01*
X128552103Y-94092396D01*
X128483985Y-94302047D01*
X128449500Y-94519778D01*
X116550000Y-94519778D01*
X116550000Y-75247648D01*
X128549500Y-75247648D01*
X128549500Y-75452351D01*
X128581522Y-75654534D01*
X128644781Y-75849223D01*
X128737715Y-76031613D01*
X128858028Y-76197213D01*
X129002786Y-76341971D01*
X129157749Y-76454556D01*
X129168390Y-76462287D01*
X129284607Y-76521503D01*
X129350776Y-76555218D01*
X129350778Y-76555218D01*
X129350781Y-76555220D01*
X129455137Y-76589127D01*
X129545465Y-76618477D01*
X129646557Y-76634488D01*
X129747648Y-76650500D01*
X129747649Y-76650500D01*
X129952351Y-76650500D01*
X129952352Y-76650500D01*
X130154534Y-76618477D01*
X130349219Y-76555220D01*
X130531610Y-76462287D01*
X130624590Y-76394732D01*
X130697213Y-76341971D01*
X130697215Y-76341968D01*
X130697219Y-76341966D01*
X130841966Y-76197219D01*
X130841968Y-76197215D01*
X130841971Y-76197213D01*
X130894732Y-76124590D01*
X130962287Y-76031610D01*
X131055220Y-75849219D01*
X131118477Y-75654534D01*
X131150500Y-75452352D01*
X131150500Y-75374361D01*
X131170185Y-75307322D01*
X131186819Y-75286680D01*
X135394748Y-71078751D01*
X136750000Y-71078751D01*
X136750000Y-71321248D01*
X136750001Y-71321264D01*
X136781653Y-71561687D01*
X136844421Y-71795939D01*
X136937220Y-72019978D01*
X136937227Y-72019992D01*
X137058481Y-72230010D01*
X137127061Y-72319384D01*
X137845884Y-71600560D01*
X137846740Y-71602626D01*
X137939762Y-71741844D01*
X138058156Y-71860238D01*
X138197374Y-71953260D01*
X138199437Y-71954114D01*
X137480614Y-72672936D01*
X137480614Y-72672937D01*
X137569989Y-72741517D01*
X137569996Y-72741522D01*
X137780007Y-72862772D01*
X137780021Y-72862779D01*
X138004060Y-72955578D01*
X138238312Y-73018346D01*
X138478735Y-73049998D01*
X138478752Y-73050000D01*
X138721248Y-73050000D01*
X138721264Y-73049998D01*
X138961687Y-73018346D01*
X139195939Y-72955578D01*
X139419978Y-72862779D01*
X139419992Y-72862772D01*
X139630016Y-72741515D01*
X139719384Y-72672939D01*
X139719384Y-72672936D01*
X139000562Y-71954114D01*
X139002626Y-71953260D01*
X139141844Y-71860238D01*
X139260238Y-71741844D01*
X139353260Y-71602626D01*
X139354114Y-71600562D01*
X140072936Y-72319384D01*
X140072939Y-72319384D01*
X140141515Y-72230016D01*
X140262772Y-72019992D01*
X140262779Y-72019978D01*
X140355578Y-71795939D01*
X140418346Y-71561687D01*
X140449998Y-71321264D01*
X140450000Y-71321248D01*
X140450000Y-71078751D01*
X140449998Y-71078735D01*
X140418346Y-70838312D01*
X140355578Y-70604060D01*
X140262779Y-70380021D01*
X140262772Y-70380007D01*
X140141522Y-70169996D01*
X140141517Y-70169989D01*
X140072937Y-70080614D01*
X140072936Y-70080614D01*
X139354114Y-70799436D01*
X139353260Y-70797374D01*
X139260238Y-70658156D01*
X139141844Y-70539762D01*
X139002626Y-70446740D01*
X139000560Y-70445884D01*
X139719384Y-69727061D01*
X139630010Y-69658481D01*
X139419992Y-69537227D01*
X139419978Y-69537220D01*
X139195939Y-69444421D01*
X138961687Y-69381653D01*
X138721264Y-69350001D01*
X138721248Y-69350000D01*
X138478752Y-69350000D01*
X138478735Y-69350001D01*
X138238312Y-69381653D01*
X138004060Y-69444421D01*
X137780021Y-69537220D01*
X137780006Y-69537227D01*
X137569990Y-69658480D01*
X137480614Y-69727060D01*
X137480614Y-69727061D01*
X138199438Y-70445885D01*
X138197374Y-70446740D01*
X138058156Y-70539762D01*
X137939762Y-70658156D01*
X137846740Y-70797374D01*
X137845885Y-70799438D01*
X137127061Y-70080614D01*
X137127060Y-70080614D01*
X137058480Y-70169990D01*
X136937227Y-70380006D01*
X136937220Y-70380021D01*
X136844421Y-70604060D01*
X136781653Y-70838312D01*
X136750001Y-71078735D01*
X136750000Y-71078751D01*
X135394748Y-71078751D01*
X138486680Y-67986819D01*
X138548003Y-67953334D01*
X138574361Y-67950500D01*
X139953888Y-67950500D01*
X140020927Y-67970185D01*
X140041569Y-67986819D01*
X140153922Y-68099172D01*
X140329081Y-68226433D01*
X140423697Y-68274642D01*
X140521990Y-68324726D01*
X140521993Y-68324727D01*
X140559776Y-68337003D01*
X140727903Y-68391630D01*
X140941746Y-68425500D01*
X140941747Y-68425500D01*
X141158253Y-68425500D01*
X141158254Y-68425500D01*
X141372097Y-68391630D01*
X141578009Y-68324726D01*
X141770919Y-68226433D01*
X141946078Y-68099172D01*
X142058431Y-67986819D01*
X142119754Y-67953334D01*
X142146112Y-67950500D01*
X143064236Y-67950500D01*
X143131275Y-67970185D01*
X143177030Y-68022989D01*
X143180418Y-68031167D01*
X143231202Y-68167328D01*
X143231206Y-68167335D01*
X143317452Y-68282544D01*
X143317455Y-68282547D01*
X143432664Y-68368793D01*
X143432671Y-68368797D01*
X143567517Y-68419091D01*
X143567516Y-68419091D01*
X143574444Y-68419835D01*
X143627127Y-68425500D01*
X145472872Y-68425499D01*
X145532483Y-68419091D01*
X145667331Y-68368796D01*
X145782546Y-68282546D01*
X145868796Y-68167331D01*
X145894219Y-68099169D01*
X145919582Y-68031167D01*
X145961453Y-67975233D01*
X146026917Y-67950816D01*
X146035764Y-67950500D01*
X152403888Y-67950500D01*
X152470927Y-67970185D01*
X152491569Y-67986819D01*
X152603922Y-68099172D01*
X152779081Y-68226433D01*
X152873697Y-68274642D01*
X152971990Y-68324726D01*
X152971993Y-68324727D01*
X153009776Y-68337003D01*
X153177903Y-68391630D01*
X153391746Y-68425500D01*
X153391747Y-68425500D01*
X153608253Y-68425500D01*
X153608254Y-68425500D01*
X153822097Y-68391630D01*
X154028009Y-68324726D01*
X154220919Y-68226433D01*
X154396078Y-68099172D01*
X154508431Y-67986819D01*
X154569754Y-67953334D01*
X154596112Y-67950500D01*
X155514236Y-67950500D01*
X155581275Y-67970185D01*
X155627030Y-68022989D01*
X155630418Y-68031167D01*
X155681202Y-68167328D01*
X155681206Y-68167335D01*
X155767452Y-68282544D01*
X155767455Y-68282547D01*
X155882664Y-68368793D01*
X155882671Y-68368797D01*
X156017517Y-68419091D01*
X156017516Y-68419091D01*
X156024444Y-68419835D01*
X156077127Y-68425500D01*
X157050637Y-68425499D01*
X157117676Y-68445183D01*
X157138318Y-68461818D01*
X158224966Y-69548466D01*
X158259326Y-69571423D01*
X158284040Y-69587936D01*
X158372453Y-69647013D01*
X158454393Y-69680953D01*
X158460480Y-69683474D01*
X158460485Y-69683477D01*
X158496940Y-69698577D01*
X158536334Y-69714895D01*
X158710303Y-69749499D01*
X158710307Y-69749500D01*
X158710308Y-69749500D01*
X158710309Y-69749500D01*
X159574638Y-69749500D01*
X159641677Y-69769185D01*
X159662319Y-69785819D01*
X160323240Y-70446740D01*
X160417275Y-70540774D01*
X160450760Y-70602097D01*
X160445776Y-70671788D01*
X160403904Y-70727722D01*
X160338440Y-70752139D01*
X160274061Y-70738134D01*
X160273625Y-70739019D01*
X160269978Y-70737220D01*
X160045939Y-70644421D01*
X159811687Y-70581653D01*
X159571264Y-70550001D01*
X159571248Y-70550000D01*
X159328752Y-70550000D01*
X159328735Y-70550001D01*
X159088312Y-70581653D01*
X158854060Y-70644421D01*
X158630021Y-70737220D01*
X158630006Y-70737227D01*
X158419990Y-70858480D01*
X158330614Y-70927060D01*
X158330614Y-70927061D01*
X159049438Y-71645884D01*
X159047374Y-71646740D01*
X158908156Y-71739762D01*
X158789762Y-71858156D01*
X158696740Y-71997374D01*
X158695885Y-71999438D01*
X157977061Y-71280614D01*
X157977060Y-71280614D01*
X157908480Y-71369990D01*
X157787227Y-71580006D01*
X157787220Y-71580021D01*
X157694419Y-71804065D01*
X157692007Y-71813068D01*
X157655641Y-71872728D01*
X157592794Y-71903256D01*
X157523419Y-71894960D01*
X157469541Y-71850474D01*
X157461748Y-71837268D01*
X157440690Y-71795939D01*
X157396433Y-71709081D01*
X157269172Y-71533922D01*
X157116078Y-71380828D01*
X156940919Y-71253567D01*
X156748009Y-71155273D01*
X156748006Y-71155272D01*
X156542098Y-71088370D01*
X156435175Y-71071435D01*
X156328254Y-71054500D01*
X156111746Y-71054500D01*
X156040465Y-71065790D01*
X155897901Y-71088370D01*
X155691993Y-71155272D01*
X155691990Y-71155273D01*
X155499080Y-71253567D01*
X155445172Y-71292734D01*
X155323922Y-71380828D01*
X155323920Y-71380830D01*
X155323919Y-71380830D01*
X155170830Y-71533919D01*
X155170830Y-71533920D01*
X155170828Y-71533922D01*
X155137346Y-71580006D01*
X155043567Y-71709080D01*
X154945273Y-71901990D01*
X154945272Y-71901993D01*
X154878370Y-72107901D01*
X154844500Y-72321746D01*
X154844500Y-72538253D01*
X154878370Y-72752098D01*
X154945272Y-72958006D01*
X154945273Y-72958009D01*
X155043567Y-73150919D01*
X155170828Y-73326078D01*
X155170830Y-73326080D01*
X155283181Y-73438431D01*
X155316666Y-73499754D01*
X155319500Y-73526112D01*
X155319500Y-81646196D01*
X155354103Y-81820158D01*
X155354105Y-81820166D01*
X155385526Y-81896024D01*
X155385529Y-81896029D01*
X155388046Y-81902106D01*
X155421987Y-81984047D01*
X155481063Y-82072459D01*
X155484169Y-82077107D01*
X155484172Y-82077113D01*
X155520534Y-82131534D01*
X155520535Y-82131535D01*
X166882652Y-93493651D01*
X166916137Y-93554974D01*
X166914746Y-93613424D01*
X166902810Y-93657971D01*
X166902806Y-93657989D01*
X166872001Y-93891979D01*
X166872000Y-93891995D01*
X166872000Y-94128004D01*
X166872001Y-94128020D01*
X166902806Y-94362010D01*
X166963894Y-94589993D01*
X167054214Y-94808045D01*
X167054219Y-94808056D01*
X167125177Y-94930957D01*
X167172227Y-95012450D01*
X167172229Y-95012453D01*
X167172230Y-95012454D01*
X167315906Y-95199697D01*
X167315912Y-95199704D01*
X167482795Y-95366587D01*
X167482801Y-95366592D01*
X167670050Y-95510273D01*
X167801418Y-95586118D01*
X167874443Y-95628280D01*
X167874448Y-95628282D01*
X167874451Y-95628284D01*
X168092507Y-95718606D01*
X168320486Y-95779693D01*
X168554489Y-95810500D01*
X168554496Y-95810500D01*
X168790504Y-95810500D01*
X168790511Y-95810500D01*
X169024514Y-95779693D01*
X169069073Y-95767753D01*
X169138922Y-95769416D01*
X169188847Y-95799847D01*
X170713181Y-97324181D01*
X170746666Y-97385504D01*
X170749500Y-97411862D01*
X170749500Y-99275637D01*
X170729815Y-99342676D01*
X170713181Y-99363318D01*
X170671339Y-99405160D01*
X170610016Y-99438645D01*
X170540324Y-99433661D01*
X170484391Y-99391789D01*
X170459974Y-99326325D01*
X170460719Y-99301293D01*
X170472999Y-99208018D01*
X170473000Y-99208011D01*
X170473000Y-98971989D01*
X170442193Y-98737986D01*
X170381106Y-98510007D01*
X170290784Y-98291951D01*
X170290782Y-98291948D01*
X170290780Y-98291943D01*
X170248618Y-98218918D01*
X170172773Y-98087550D01*
X170029092Y-97900301D01*
X170029087Y-97900295D01*
X169862204Y-97733412D01*
X169862197Y-97733406D01*
X169674954Y-97589730D01*
X169674953Y-97589729D01*
X169674950Y-97589727D01*
X169571656Y-97530090D01*
X169470556Y-97471719D01*
X169470545Y-97471714D01*
X169252493Y-97381394D01*
X169024510Y-97320306D01*
X168790520Y-97289501D01*
X168790517Y-97289500D01*
X168790511Y-97289500D01*
X168554489Y-97289500D01*
X168554483Y-97289500D01*
X168554479Y-97289501D01*
X168320489Y-97320306D01*
X168320471Y-97320310D01*
X168275924Y-97332246D01*
X168206074Y-97330583D01*
X168156151Y-97300152D01*
X144768665Y-73912665D01*
X144706819Y-73850819D01*
X144673334Y-73789496D01*
X144670500Y-73763138D01*
X144670500Y-73526112D01*
X144690185Y-73459073D01*
X144706819Y-73438431D01*
X144715240Y-73430010D01*
X144819172Y-73326078D01*
X144946433Y-73150919D01*
X145024097Y-72998494D01*
X145072072Y-72947699D01*
X145139893Y-72930904D01*
X145206028Y-72953441D01*
X145249143Y-73007338D01*
X145337220Y-73219978D01*
X145337227Y-73219992D01*
X145458481Y-73430010D01*
X145527061Y-73519384D01*
X146245884Y-72800560D01*
X146246740Y-72802626D01*
X146339762Y-72941844D01*
X146458156Y-73060238D01*
X146597374Y-73153260D01*
X146599437Y-73154114D01*
X145880614Y-73872936D01*
X145880614Y-73872937D01*
X145969989Y-73941517D01*
X145969996Y-73941522D01*
X146180007Y-74062772D01*
X146180021Y-74062779D01*
X146404060Y-74155578D01*
X146638312Y-74218346D01*
X146878735Y-74249998D01*
X146878752Y-74250000D01*
X147121248Y-74250000D01*
X147121264Y-74249998D01*
X147361687Y-74218346D01*
X147595939Y-74155578D01*
X147819978Y-74062779D01*
X147819992Y-74062772D01*
X148030016Y-73941515D01*
X148119384Y-73872939D01*
X148119384Y-73872936D01*
X147400562Y-73154114D01*
X147402626Y-73153260D01*
X147541844Y-73060238D01*
X147660238Y-72941844D01*
X147753260Y-72802626D01*
X147754114Y-72800562D01*
X148472936Y-73519384D01*
X148472939Y-73519384D01*
X148541515Y-73430016D01*
X148662772Y-73219992D01*
X148662779Y-73219978D01*
X148755578Y-72995939D01*
X148818346Y-72761687D01*
X148838475Y-72608798D01*
X148838475Y-72608797D01*
X148849998Y-72521265D01*
X148850000Y-72521248D01*
X148850000Y-72278751D01*
X148849998Y-72278735D01*
X148818346Y-72038312D01*
X148755578Y-71804060D01*
X148662779Y-71580021D01*
X148662772Y-71580007D01*
X148541522Y-71369996D01*
X148541517Y-71369989D01*
X148472937Y-71280614D01*
X148472936Y-71280614D01*
X147754114Y-71999436D01*
X147753260Y-71997374D01*
X147660238Y-71858156D01*
X147541844Y-71739762D01*
X147402626Y-71646740D01*
X147400560Y-71645884D01*
X147967695Y-71078751D01*
X149200000Y-71078751D01*
X149200000Y-71321248D01*
X149200001Y-71321264D01*
X149231653Y-71561687D01*
X149294421Y-71795939D01*
X149387220Y-72019978D01*
X149387227Y-72019992D01*
X149508481Y-72230010D01*
X149577061Y-72319384D01*
X150295884Y-71600560D01*
X150296740Y-71602626D01*
X150389762Y-71741844D01*
X150508156Y-71860238D01*
X150647374Y-71953260D01*
X150649437Y-71954114D01*
X149930614Y-72672936D01*
X149930614Y-72672937D01*
X150019989Y-72741517D01*
X150019996Y-72741522D01*
X150230007Y-72862772D01*
X150230021Y-72862779D01*
X150454060Y-72955578D01*
X150688312Y-73018346D01*
X150928735Y-73049998D01*
X150928752Y-73050000D01*
X151171248Y-73050000D01*
X151171264Y-73049998D01*
X151411687Y-73018346D01*
X151645939Y-72955578D01*
X151869978Y-72862779D01*
X151869992Y-72862772D01*
X152080016Y-72741515D01*
X152169384Y-72672939D01*
X152169384Y-72672936D01*
X151450562Y-71954114D01*
X151452626Y-71953260D01*
X151591844Y-71860238D01*
X151710238Y-71741844D01*
X151803260Y-71602626D01*
X151804114Y-71600562D01*
X152522936Y-72319384D01*
X152522939Y-72319384D01*
X152591515Y-72230016D01*
X152712772Y-72019992D01*
X152712779Y-72019978D01*
X152805578Y-71795939D01*
X152868346Y-71561687D01*
X152899998Y-71321264D01*
X152900000Y-71321248D01*
X152900000Y-71078751D01*
X152899998Y-71078735D01*
X152868346Y-70838312D01*
X152805578Y-70604060D01*
X152712779Y-70380021D01*
X152712772Y-70380007D01*
X152591522Y-70169996D01*
X152591517Y-70169989D01*
X152522937Y-70080614D01*
X152522936Y-70080614D01*
X151804114Y-70799436D01*
X151803260Y-70797374D01*
X151710238Y-70658156D01*
X151591844Y-70539762D01*
X151452626Y-70446740D01*
X151450560Y-70445884D01*
X152169384Y-69727061D01*
X152080010Y-69658481D01*
X151869992Y-69537227D01*
X151869978Y-69537220D01*
X151645939Y-69444421D01*
X151411687Y-69381653D01*
X151171264Y-69350001D01*
X151171248Y-69350000D01*
X150928752Y-69350000D01*
X150928735Y-69350001D01*
X150688312Y-69381653D01*
X150454060Y-69444421D01*
X150230021Y-69537220D01*
X150230006Y-69537227D01*
X150019990Y-69658480D01*
X149930614Y-69727060D01*
X149930614Y-69727061D01*
X150649438Y-70445885D01*
X150647374Y-70446740D01*
X150508156Y-70539762D01*
X150389762Y-70658156D01*
X150296740Y-70797374D01*
X150295885Y-70799438D01*
X149577061Y-70080614D01*
X149577060Y-70080614D01*
X149508480Y-70169990D01*
X149387227Y-70380006D01*
X149387220Y-70380021D01*
X149294421Y-70604060D01*
X149231653Y-70838312D01*
X149200001Y-71078735D01*
X149200000Y-71078751D01*
X147967695Y-71078751D01*
X148059441Y-70987005D01*
X148119384Y-70927061D01*
X148030010Y-70858481D01*
X147819992Y-70737227D01*
X147819978Y-70737220D01*
X147595939Y-70644421D01*
X147361687Y-70581653D01*
X147121264Y-70550001D01*
X147121248Y-70550000D01*
X146878752Y-70550000D01*
X146878735Y-70550001D01*
X146638312Y-70581653D01*
X146404060Y-70644421D01*
X146180021Y-70737220D01*
X146180006Y-70737227D01*
X145969990Y-70858480D01*
X145880614Y-70927060D01*
X145880614Y-70927061D01*
X146599438Y-71645885D01*
X146597374Y-71646740D01*
X146458156Y-71739762D01*
X146339762Y-71858156D01*
X146246740Y-71997374D01*
X146245885Y-71999438D01*
X145527061Y-71280614D01*
X145527060Y-71280614D01*
X145458480Y-71369990D01*
X145337227Y-71580006D01*
X145337220Y-71580021D01*
X145244419Y-71804065D01*
X145242007Y-71813068D01*
X145205641Y-71872728D01*
X145142794Y-71903256D01*
X145073419Y-71894960D01*
X145019541Y-71850474D01*
X145011748Y-71837268D01*
X144990690Y-71795939D01*
X144946433Y-71709081D01*
X144819172Y-71533922D01*
X144666078Y-71380828D01*
X144490919Y-71253567D01*
X144298009Y-71155273D01*
X144298006Y-71155272D01*
X144106179Y-71092945D01*
X144106178Y-71092944D01*
X144092100Y-71088370D01*
X143931714Y-71062967D01*
X143878254Y-71054500D01*
X143661746Y-71054500D01*
X143590465Y-71065790D01*
X143447901Y-71088370D01*
X143241993Y-71155272D01*
X143241990Y-71155273D01*
X143049080Y-71253567D01*
X142995172Y-71292734D01*
X142873922Y-71380828D01*
X142873920Y-71380830D01*
X142873919Y-71380830D01*
X142720830Y-71533919D01*
X142720830Y-71533920D01*
X142720828Y-71533922D01*
X142687346Y-71580006D01*
X142593567Y-71709080D01*
X142495273Y-71901990D01*
X142495272Y-71901993D01*
X142428370Y-72107901D01*
X142394500Y-72321746D01*
X142394500Y-72480637D01*
X142374815Y-72547676D01*
X142358181Y-72568318D01*
X141110538Y-73815960D01*
X141110537Y-73815961D01*
X141071064Y-73875039D01*
X141071063Y-73875040D01*
X141011985Y-73963455D01*
X140978046Y-74045393D01*
X140944106Y-74127330D01*
X140944103Y-74127342D01*
X140922149Y-74237714D01*
X140909500Y-74301304D01*
X140909500Y-119333888D01*
X140889815Y-119400927D01*
X140873181Y-119421569D01*
X140760830Y-119533919D01*
X140760830Y-119533920D01*
X140760828Y-119533922D01*
X140756585Y-119539762D01*
X140633567Y-119709080D01*
X140535273Y-119901990D01*
X140535272Y-119901993D01*
X140468370Y-120107901D01*
X140434500Y-120321746D01*
X140434500Y-120414674D01*
X140414815Y-120481713D01*
X140362011Y-120527468D01*
X140292853Y-120537412D01*
X140229297Y-120508387D01*
X140203113Y-120476674D01*
X140141522Y-120369996D01*
X140141517Y-120369989D01*
X140072937Y-120280614D01*
X140072936Y-120280614D01*
X139354114Y-120999436D01*
X139353260Y-120997374D01*
X139260238Y-120858156D01*
X139141844Y-120739762D01*
X139002626Y-120646740D01*
X139000560Y-120645884D01*
X139719384Y-119927061D01*
X139630010Y-119858481D01*
X139419992Y-119737227D01*
X139419978Y-119737220D01*
X139195939Y-119644421D01*
X138961687Y-119581653D01*
X138721264Y-119550001D01*
X138721248Y-119550000D01*
X138478752Y-119550000D01*
X138478735Y-119550001D01*
X138238312Y-119581653D01*
X138004060Y-119644421D01*
X137780021Y-119737220D01*
X137780006Y-119737227D01*
X137569990Y-119858480D01*
X137480614Y-119927060D01*
X137480614Y-119927061D01*
X138199438Y-120645885D01*
X138197374Y-120646740D01*
X138058156Y-120739762D01*
X137939762Y-120858156D01*
X137846740Y-120997374D01*
X137845885Y-120999438D01*
X137127061Y-120280614D01*
X137127060Y-120280614D01*
X137058480Y-120369990D01*
X136937227Y-120580006D01*
X136937220Y-120580021D01*
X136844421Y-120804060D01*
X136781653Y-121038312D01*
X136750001Y-121278735D01*
X136750000Y-121278751D01*
X136750000Y-121521248D01*
X136750001Y-121521264D01*
X136781653Y-121761687D01*
X136844421Y-121995939D01*
X136937220Y-122219978D01*
X136937227Y-122219992D01*
X137058481Y-122430010D01*
X137127061Y-122519384D01*
X137845884Y-121800560D01*
X137846740Y-121802626D01*
X137939762Y-121941844D01*
X138058156Y-122060238D01*
X138197374Y-122153260D01*
X138199437Y-122154114D01*
X137480614Y-122872936D01*
X137480614Y-122872937D01*
X137569989Y-122941517D01*
X137569996Y-122941522D01*
X137780007Y-123062772D01*
X137780021Y-123062779D01*
X138004060Y-123155578D01*
X138238312Y-123218346D01*
X138478735Y-123249998D01*
X138478752Y-123250000D01*
X138721248Y-123250000D01*
X138721264Y-123249998D01*
X138961687Y-123218346D01*
X139195939Y-123155578D01*
X139419978Y-123062779D01*
X139419992Y-123062772D01*
X139630016Y-122941515D01*
X139719384Y-122872939D01*
X139719384Y-122872936D01*
X139000562Y-122154114D01*
X139002626Y-122153260D01*
X139141844Y-122060238D01*
X139260238Y-121941844D01*
X139353260Y-121802626D01*
X139354114Y-121800562D01*
X140072936Y-122519384D01*
X140072939Y-122519384D01*
X140141515Y-122430016D01*
X140262772Y-122219992D01*
X140262779Y-122219978D01*
X140355578Y-121995939D01*
X140418346Y-121761687D01*
X140449998Y-121521264D01*
X140450000Y-121521248D01*
X140450000Y-121279893D01*
X140469685Y-121212854D01*
X140522489Y-121167099D01*
X140591647Y-121157155D01*
X140655203Y-121186180D01*
X140674315Y-121207004D01*
X140760828Y-121326078D01*
X140913922Y-121479172D01*
X141089081Y-121606433D01*
X141170535Y-121647936D01*
X141281990Y-121704726D01*
X141281993Y-121704727D01*
X141384947Y-121738178D01*
X141487903Y-121771630D01*
X141701746Y-121805500D01*
X141701747Y-121805500D01*
X141918253Y-121805500D01*
X141918254Y-121805500D01*
X142132097Y-121771630D01*
X142338009Y-121704726D01*
X142530919Y-121606433D01*
X142706078Y-121479172D01*
X142859172Y-121326078D01*
X142986433Y-121150919D01*
X143084726Y-120958009D01*
X143151630Y-120752097D01*
X143185500Y-120538254D01*
X143185500Y-120321746D01*
X143151630Y-120107903D01*
X143142158Y-120078751D01*
X145150000Y-120078751D01*
X145150000Y-120321248D01*
X145150001Y-120321264D01*
X145181653Y-120561687D01*
X145244421Y-120795939D01*
X145337220Y-121019978D01*
X145337227Y-121019992D01*
X145458481Y-121230010D01*
X145527061Y-121319384D01*
X146245884Y-120600560D01*
X146246740Y-120602626D01*
X146339762Y-120741844D01*
X146458156Y-120860238D01*
X146597374Y-120953260D01*
X146599437Y-120954114D01*
X145880614Y-121672936D01*
X145880614Y-121672937D01*
X145969989Y-121741517D01*
X145969996Y-121741522D01*
X146180007Y-121862772D01*
X146180021Y-121862779D01*
X146404060Y-121955578D01*
X146638312Y-122018346D01*
X146878735Y-122049998D01*
X146878752Y-122050000D01*
X147121248Y-122050000D01*
X147121264Y-122049998D01*
X147361687Y-122018346D01*
X147595939Y-121955578D01*
X147819978Y-121862779D01*
X147819992Y-121862772D01*
X148030016Y-121741515D01*
X148119384Y-121672939D01*
X148119384Y-121672936D01*
X147400562Y-120954114D01*
X147402626Y-120953260D01*
X147541844Y-120860238D01*
X147660238Y-120741844D01*
X147753260Y-120602626D01*
X147754114Y-120600562D01*
X148472936Y-121319384D01*
X148472939Y-121319384D01*
X148541515Y-121230016D01*
X148551521Y-121212686D01*
X148662772Y-121019992D01*
X148662779Y-121019978D01*
X148755578Y-120795939D01*
X148818346Y-120561687D01*
X148849998Y-120321264D01*
X148850000Y-120321248D01*
X148850000Y-120078751D01*
X148849999Y-120078737D01*
X148838474Y-119991200D01*
X148838474Y-119991199D01*
X148818346Y-119838312D01*
X148755578Y-119604060D01*
X148662779Y-119380021D01*
X148662772Y-119380007D01*
X148541522Y-119169996D01*
X148541517Y-119169989D01*
X148472937Y-119080614D01*
X148472936Y-119080614D01*
X147754114Y-119799436D01*
X147753260Y-119797374D01*
X147660238Y-119658156D01*
X147541844Y-119539762D01*
X147402626Y-119446740D01*
X147400560Y-119445884D01*
X148119384Y-118727061D01*
X148030010Y-118658481D01*
X147819992Y-118537227D01*
X147819978Y-118537220D01*
X147595939Y-118444421D01*
X147361687Y-118381653D01*
X147121264Y-118350001D01*
X147121248Y-118350000D01*
X146878752Y-118350000D01*
X146878735Y-118350001D01*
X146638312Y-118381653D01*
X146404060Y-118444421D01*
X146180021Y-118537220D01*
X146180006Y-118537227D01*
X145969990Y-118658480D01*
X145880614Y-118727060D01*
X145880614Y-118727061D01*
X146599438Y-119445885D01*
X146597374Y-119446740D01*
X146458156Y-119539762D01*
X146339762Y-119658156D01*
X146246740Y-119797374D01*
X146245885Y-119799438D01*
X145527061Y-119080614D01*
X145527060Y-119080614D01*
X145458480Y-119169990D01*
X145337227Y-119380006D01*
X145337220Y-119380021D01*
X145244421Y-119604060D01*
X145181653Y-119838312D01*
X145150001Y-120078735D01*
X145150000Y-120078751D01*
X143142158Y-120078751D01*
X143142153Y-120078735D01*
X143084727Y-119901993D01*
X143084726Y-119901990D01*
X143000774Y-119737227D01*
X142986433Y-119709081D01*
X142859172Y-119533922D01*
X142746819Y-119421569D01*
X142713334Y-119360246D01*
X142710500Y-119333888D01*
X142710500Y-74814361D01*
X142719143Y-74784924D01*
X142725667Y-74754935D01*
X142729422Y-74749917D01*
X142730185Y-74747322D01*
X142746813Y-74726685D01*
X142820075Y-74653423D01*
X142881394Y-74619941D01*
X142951086Y-74624925D01*
X143007020Y-74666796D01*
X143010846Y-74672203D01*
X143047246Y-74726680D01*
X143070537Y-74761538D01*
X143070538Y-74761539D01*
X166882652Y-98573651D01*
X166916137Y-98634974D01*
X166914746Y-98693424D01*
X166902810Y-98737971D01*
X166902806Y-98737989D01*
X166872001Y-98971979D01*
X166872000Y-98971995D01*
X166872000Y-99208004D01*
X166872001Y-99208020D01*
X166902806Y-99442010D01*
X166963894Y-99669993D01*
X167054214Y-99888045D01*
X167054219Y-99888056D01*
X167125177Y-100010957D01*
X167172227Y-100092450D01*
X167172229Y-100092453D01*
X167172230Y-100092454D01*
X167315906Y-100279697D01*
X167315912Y-100279704D01*
X167482795Y-100446587D01*
X167482802Y-100446593D01*
X167652914Y-100577124D01*
X167694117Y-100633552D01*
X167698272Y-100703298D01*
X167664060Y-100764218D01*
X167602343Y-100796971D01*
X167577428Y-100799500D01*
X165802342Y-100799500D01*
X165628377Y-100834103D01*
X165628361Y-100834108D01*
X165512491Y-100882102D01*
X165512492Y-100882103D01*
X165464492Y-100901986D01*
X165346956Y-100980522D01*
X165346955Y-100980523D01*
X165317000Y-101000537D01*
X165316999Y-101000538D01*
X153560538Y-112756998D01*
X153560537Y-112756999D01*
X153521064Y-112816077D01*
X153521063Y-112816078D01*
X153461985Y-112904493D01*
X153428046Y-112986431D01*
X153394106Y-113068367D01*
X153394103Y-113068379D01*
X153359500Y-113242341D01*
X153359500Y-119333888D01*
X153339815Y-119400927D01*
X153323181Y-119421569D01*
X153210830Y-119533919D01*
X153210830Y-119533920D01*
X153210828Y-119533922D01*
X153206585Y-119539762D01*
X153083567Y-119709080D01*
X152985273Y-119901990D01*
X152985272Y-119901993D01*
X152918370Y-120107901D01*
X152884500Y-120321746D01*
X152884500Y-120414674D01*
X152864815Y-120481713D01*
X152812011Y-120527468D01*
X152742853Y-120537412D01*
X152679297Y-120508387D01*
X152653113Y-120476674D01*
X152591522Y-120369996D01*
X152591517Y-120369989D01*
X152522937Y-120280614D01*
X152522936Y-120280614D01*
X151804114Y-120999436D01*
X151803260Y-120997374D01*
X151710238Y-120858156D01*
X151591844Y-120739762D01*
X151452626Y-120646740D01*
X151450560Y-120645884D01*
X152169384Y-119927061D01*
X152080010Y-119858481D01*
X151869992Y-119737227D01*
X151869978Y-119737220D01*
X151645939Y-119644421D01*
X151411687Y-119581653D01*
X151171264Y-119550001D01*
X151171248Y-119550000D01*
X150928752Y-119550000D01*
X150928735Y-119550001D01*
X150688312Y-119581653D01*
X150454060Y-119644421D01*
X150230021Y-119737220D01*
X150230006Y-119737227D01*
X150019990Y-119858480D01*
X149930614Y-119927060D01*
X149930614Y-119927061D01*
X150649438Y-120645885D01*
X150647374Y-120646740D01*
X150508156Y-120739762D01*
X150389762Y-120858156D01*
X150296740Y-120997374D01*
X150295885Y-120999438D01*
X149577061Y-120280614D01*
X149577060Y-120280614D01*
X149508480Y-120369990D01*
X149387227Y-120580006D01*
X149387220Y-120580021D01*
X149294421Y-120804060D01*
X149231653Y-121038312D01*
X149200001Y-121278735D01*
X149200000Y-121278751D01*
X149200000Y-121521248D01*
X149200001Y-121521264D01*
X149231653Y-121761687D01*
X149294421Y-121995939D01*
X149387220Y-122219978D01*
X149387227Y-122219992D01*
X149508481Y-122430010D01*
X149577061Y-122519384D01*
X150295884Y-121800560D01*
X150296740Y-121802626D01*
X150389762Y-121941844D01*
X150508156Y-122060238D01*
X150647374Y-122153260D01*
X150649437Y-122154114D01*
X149930614Y-122872936D01*
X149930614Y-122872937D01*
X150019989Y-122941517D01*
X150019996Y-122941522D01*
X150230007Y-123062772D01*
X150230021Y-123062779D01*
X150454060Y-123155578D01*
X150688312Y-123218346D01*
X150928735Y-123249998D01*
X150928752Y-123250000D01*
X151171248Y-123250000D01*
X151171264Y-123249998D01*
X151411687Y-123218346D01*
X151645939Y-123155578D01*
X151869978Y-123062779D01*
X151869992Y-123062772D01*
X152039016Y-122965186D01*
X172999500Y-122965186D01*
X172999500Y-123234813D01*
X173029686Y-123502719D01*
X173029688Y-123502731D01*
X173089684Y-123765594D01*
X173089687Y-123765602D01*
X173178734Y-124020082D01*
X173295714Y-124262994D01*
X173295716Y-124262997D01*
X173439162Y-124491289D01*
X173607266Y-124702085D01*
X173797915Y-124892734D01*
X174008711Y-125060838D01*
X174237003Y-125204284D01*
X174479921Y-125321267D01*
X174671049Y-125388145D01*
X174734397Y-125410312D01*
X174734405Y-125410315D01*
X174734408Y-125410315D01*
X174734409Y-125410316D01*
X174997268Y-125470312D01*
X175265187Y-125500499D01*
X175265188Y-125500500D01*
X175265191Y-125500500D01*
X175534812Y-125500500D01*
X175534812Y-125500499D01*
X175802732Y-125470312D01*
X176065591Y-125410316D01*
X176320079Y-125321267D01*
X176562997Y-125204284D01*
X176791289Y-125060838D01*
X177002085Y-124892734D01*
X177192734Y-124702085D01*
X177360838Y-124491289D01*
X177504284Y-124262997D01*
X177621267Y-124020079D01*
X177710316Y-123765591D01*
X177770312Y-123502732D01*
X177800500Y-123234809D01*
X177800500Y-122965191D01*
X177770312Y-122697268D01*
X177710316Y-122434409D01*
X177621267Y-122179921D01*
X177504284Y-121937003D01*
X177360838Y-121708711D01*
X177192734Y-121497915D01*
X177002085Y-121307266D01*
X176791289Y-121139162D01*
X176562997Y-120995716D01*
X176562994Y-120995714D01*
X176320082Y-120878734D01*
X176065602Y-120789687D01*
X176065594Y-120789684D01*
X175846869Y-120739762D01*
X175802732Y-120729688D01*
X175802728Y-120729687D01*
X175802719Y-120729686D01*
X175534813Y-120699500D01*
X175534809Y-120699500D01*
X175265191Y-120699500D01*
X175265186Y-120699500D01*
X174997280Y-120729686D01*
X174997268Y-120729688D01*
X174734405Y-120789684D01*
X174734397Y-120789687D01*
X174479917Y-120878734D01*
X174237005Y-120995714D01*
X174008712Y-121139161D01*
X173797915Y-121307265D01*
X173607265Y-121497915D01*
X173439161Y-121708712D01*
X173295714Y-121937005D01*
X173178734Y-122179917D01*
X173089687Y-122434397D01*
X173089684Y-122434405D01*
X173029688Y-122697268D01*
X173029686Y-122697280D01*
X172999500Y-122965186D01*
X152039016Y-122965186D01*
X152080016Y-122941515D01*
X152169384Y-122872939D01*
X152169384Y-122872936D01*
X151450562Y-122154114D01*
X151452626Y-122153260D01*
X151591844Y-122060238D01*
X151710238Y-121941844D01*
X151803260Y-121802626D01*
X151804114Y-121800562D01*
X152522936Y-122519384D01*
X152522939Y-122519384D01*
X152591515Y-122430016D01*
X152712772Y-122219992D01*
X152712779Y-122219978D01*
X152805578Y-121995939D01*
X152868346Y-121761687D01*
X152899998Y-121521264D01*
X152900000Y-121521248D01*
X152900000Y-121279893D01*
X152919685Y-121212854D01*
X152972489Y-121167099D01*
X153041647Y-121157155D01*
X153105203Y-121186180D01*
X153124315Y-121207004D01*
X153210828Y-121326078D01*
X153363922Y-121479172D01*
X153539081Y-121606433D01*
X153620535Y-121647936D01*
X153731990Y-121704726D01*
X153731993Y-121704727D01*
X153834947Y-121738178D01*
X153937903Y-121771630D01*
X154151746Y-121805500D01*
X154151747Y-121805500D01*
X154368253Y-121805500D01*
X154368254Y-121805500D01*
X154582097Y-121771630D01*
X154788009Y-121704726D01*
X154980919Y-121606433D01*
X155156078Y-121479172D01*
X155309172Y-121326078D01*
X155436433Y-121150919D01*
X155534726Y-120958009D01*
X155601630Y-120752097D01*
X155635500Y-120538254D01*
X155635500Y-120321746D01*
X155601630Y-120107903D01*
X155592158Y-120078751D01*
X157600000Y-120078751D01*
X157600000Y-120321248D01*
X157600001Y-120321264D01*
X157631653Y-120561687D01*
X157694421Y-120795939D01*
X157787220Y-121019978D01*
X157787227Y-121019992D01*
X157908481Y-121230010D01*
X157977061Y-121319384D01*
X158695884Y-120600560D01*
X158696740Y-120602626D01*
X158789762Y-120741844D01*
X158908156Y-120860238D01*
X159047374Y-120953260D01*
X159049437Y-120954114D01*
X158330614Y-121672936D01*
X158330614Y-121672937D01*
X158419989Y-121741517D01*
X158419996Y-121741522D01*
X158630007Y-121862772D01*
X158630021Y-121862779D01*
X158854060Y-121955578D01*
X159088312Y-122018346D01*
X159328735Y-122049998D01*
X159328752Y-122050000D01*
X159571248Y-122050000D01*
X159571264Y-122049998D01*
X159811687Y-122018346D01*
X160045939Y-121955578D01*
X160269978Y-121862779D01*
X160269992Y-121862772D01*
X160480016Y-121741515D01*
X160569384Y-121672939D01*
X160569384Y-121672936D01*
X159850562Y-120954114D01*
X159852626Y-120953260D01*
X159991844Y-120860238D01*
X160110238Y-120741844D01*
X160203260Y-120602626D01*
X160204114Y-120600562D01*
X160922936Y-121319384D01*
X160922939Y-121319384D01*
X160991515Y-121230016D01*
X161112772Y-121019992D01*
X161112779Y-121019978D01*
X161205578Y-120795939D01*
X161268346Y-120561687D01*
X161299998Y-120321264D01*
X161300000Y-120321248D01*
X161300000Y-120078751D01*
X161299998Y-120078735D01*
X161268346Y-119838312D01*
X161205578Y-119604060D01*
X161112779Y-119380021D01*
X161112772Y-119380007D01*
X160991522Y-119169996D01*
X160991517Y-119169989D01*
X160922937Y-119080614D01*
X160922936Y-119080614D01*
X160204114Y-119799436D01*
X160203260Y-119797374D01*
X160110238Y-119658156D01*
X159991844Y-119539762D01*
X159852626Y-119446740D01*
X159850560Y-119445884D01*
X160569384Y-118727061D01*
X160480010Y-118658481D01*
X160269992Y-118537227D01*
X160269978Y-118537220D01*
X160045939Y-118444421D01*
X159811687Y-118381653D01*
X159571264Y-118350001D01*
X159571248Y-118350000D01*
X159328752Y-118350000D01*
X159328735Y-118350001D01*
X159088312Y-118381653D01*
X158854060Y-118444421D01*
X158630021Y-118537220D01*
X158630006Y-118537227D01*
X158419990Y-118658480D01*
X158330614Y-118727060D01*
X158330614Y-118727061D01*
X159049438Y-119445885D01*
X159047374Y-119446740D01*
X158908156Y-119539762D01*
X158789762Y-119658156D01*
X158696740Y-119797374D01*
X158695885Y-119799438D01*
X157977061Y-119080614D01*
X157977060Y-119080614D01*
X157908480Y-119169990D01*
X157787227Y-119380006D01*
X157787220Y-119380021D01*
X157694421Y-119604060D01*
X157631653Y-119838312D01*
X157600001Y-120078735D01*
X157600000Y-120078751D01*
X155592158Y-120078751D01*
X155592153Y-120078735D01*
X155534727Y-119901993D01*
X155534726Y-119901990D01*
X155450774Y-119737227D01*
X155436433Y-119709081D01*
X155309172Y-119533922D01*
X155196819Y-119421569D01*
X155163334Y-119360246D01*
X155160500Y-119333888D01*
X155160500Y-113755399D01*
X155180185Y-113688360D01*
X155196819Y-113667718D01*
X166227718Y-102636819D01*
X166289041Y-102603334D01*
X166315399Y-102600500D01*
X166838975Y-102600500D01*
X166906014Y-102620185D01*
X166951769Y-102672989D01*
X166961713Y-102742147D01*
X166944513Y-102789597D01*
X166937690Y-102800657D01*
X166937686Y-102800666D01*
X166882501Y-102967203D01*
X166882501Y-102967204D01*
X166882500Y-102967204D01*
X166872000Y-103069983D01*
X166872000Y-105270001D01*
X166872001Y-105270018D01*
X166882500Y-105372796D01*
X166882501Y-105372799D01*
X166937685Y-105539331D01*
X166937686Y-105539334D01*
X167029788Y-105688656D01*
X167153844Y-105812712D01*
X167303166Y-105904814D01*
X167469703Y-105959999D01*
X167572491Y-105970500D01*
X169772508Y-105970499D01*
X169875297Y-105959999D01*
X170041834Y-105904814D01*
X170191156Y-105812712D01*
X170315212Y-105688656D01*
X170407314Y-105539334D01*
X170462499Y-105372797D01*
X170473000Y-105270009D01*
X170473000Y-105194500D01*
X170492685Y-105127461D01*
X170545489Y-105081706D01*
X170597000Y-105070500D01*
X170768693Y-105070500D01*
X170768694Y-105070499D01*
X170942666Y-105035895D01*
X171024606Y-105001953D01*
X171106547Y-104968013D01*
X171194959Y-104908936D01*
X171254036Y-104869464D01*
X173049464Y-103074035D01*
X173120847Y-102967203D01*
X173148013Y-102926547D01*
X173167895Y-102878547D01*
X173215895Y-102762666D01*
X173250500Y-102588691D01*
X173250500Y-102411308D01*
X173250500Y-100839989D01*
X173258505Y-100812726D01*
X173263485Y-100784747D01*
X173268953Y-100777144D01*
X173270185Y-100772950D01*
X173283545Y-100755708D01*
X173285135Y-100753991D01*
X173350463Y-100688664D01*
X173357392Y-100678294D01*
X173449013Y-100541175D01*
X173516894Y-100377294D01*
X173536307Y-100279699D01*
X173551500Y-100203320D01*
X173551500Y-100025937D01*
X173551500Y-96484181D01*
X173537433Y-96413464D01*
X173516894Y-96310206D01*
X173507711Y-96288036D01*
X173476468Y-96212609D01*
X173449016Y-96146331D01*
X173449009Y-96146318D01*
X173350464Y-95998837D01*
X173350461Y-95998833D01*
X173286819Y-95935191D01*
X173253334Y-95873868D01*
X173250500Y-95847510D01*
X173250500Y-88711307D01*
X173250499Y-88711303D01*
X173224001Y-88578087D01*
X173215895Y-88537334D01*
X173199577Y-88497940D01*
X173184477Y-88461485D01*
X173184474Y-88461480D01*
X173181953Y-88455393D01*
X173148013Y-88373453D01*
X173088936Y-88285040D01*
X173072423Y-88260326D01*
X173049466Y-88225966D01*
X162886819Y-78063319D01*
X162853334Y-78001996D01*
X162850500Y-77975638D01*
X162850500Y-70711308D01*
X162848097Y-70699231D01*
X162840890Y-70662997D01*
X162840889Y-70662994D01*
X162824710Y-70581653D01*
X162815895Y-70537334D01*
X162750339Y-70379071D01*
X162748695Y-70374474D01*
X162649465Y-70225966D01*
X162589090Y-70165591D01*
X162524035Y-70100536D01*
X162209318Y-69785819D01*
X161872893Y-69449393D01*
X161788686Y-69365186D01*
X172999500Y-69365186D01*
X172999500Y-69634813D01*
X173029686Y-69902719D01*
X173029688Y-69902731D01*
X173089684Y-70165594D01*
X173089687Y-70165602D01*
X173178734Y-70420082D01*
X173295714Y-70662994D01*
X173295715Y-70662995D01*
X173295716Y-70662997D01*
X173439162Y-70891289D01*
X173607266Y-71102085D01*
X173797915Y-71292734D01*
X174008711Y-71460838D01*
X174237003Y-71604284D01*
X174479921Y-71721267D01*
X174671049Y-71788145D01*
X174734397Y-71810312D01*
X174734405Y-71810315D01*
X174734408Y-71810315D01*
X174734409Y-71810316D01*
X174997268Y-71870312D01*
X175265187Y-71900499D01*
X175265188Y-71900500D01*
X175265191Y-71900500D01*
X175534812Y-71900500D01*
X175534812Y-71900499D01*
X175802732Y-71870312D01*
X176065591Y-71810316D01*
X176320079Y-71721267D01*
X176562997Y-71604284D01*
X176791289Y-71460838D01*
X177002085Y-71292734D01*
X177192734Y-71102085D01*
X177360838Y-70891289D01*
X177504284Y-70662997D01*
X177621267Y-70420079D01*
X177710316Y-70165591D01*
X177770312Y-69902732D01*
X177800500Y-69634809D01*
X177800500Y-69365191D01*
X177770312Y-69097268D01*
X177710316Y-68834409D01*
X177621267Y-68579921D01*
X177504284Y-68337003D01*
X177360838Y-68108711D01*
X177192734Y-67897915D01*
X177002085Y-67707266D01*
X176791289Y-67539162D01*
X176562997Y-67395716D01*
X176562994Y-67395714D01*
X176320082Y-67278734D01*
X176065602Y-67189687D01*
X176065594Y-67189684D01*
X175868446Y-67144687D01*
X175802732Y-67129688D01*
X175802728Y-67129687D01*
X175802719Y-67129686D01*
X175534813Y-67099500D01*
X175534809Y-67099500D01*
X175265191Y-67099500D01*
X175265186Y-67099500D01*
X174997280Y-67129686D01*
X174997268Y-67129688D01*
X174734405Y-67189684D01*
X174734397Y-67189687D01*
X174479917Y-67278734D01*
X174237005Y-67395714D01*
X174008712Y-67539161D01*
X173797915Y-67707265D01*
X173607265Y-67897915D01*
X173439161Y-68108712D01*
X173295714Y-68337005D01*
X173178734Y-68579917D01*
X173089687Y-68834397D01*
X173089684Y-68834405D01*
X173029688Y-69097268D01*
X173029686Y-69097280D01*
X172999500Y-69365186D01*
X161788686Y-69365186D01*
X160573041Y-68149540D01*
X160573038Y-68149537D01*
X160497659Y-68099171D01*
X160425544Y-68050985D01*
X160425542Y-68050984D01*
X160343607Y-68017046D01*
X160343606Y-68017046D01*
X160261666Y-67983105D01*
X160261658Y-67983103D01*
X160087696Y-67948500D01*
X160087692Y-67948500D01*
X160087691Y-67948500D01*
X159223362Y-67948500D01*
X159156323Y-67928815D01*
X159135681Y-67912181D01*
X158411818Y-67188318D01*
X158378333Y-67126995D01*
X158375499Y-67100637D01*
X158375499Y-66127129D01*
X158375498Y-66127123D01*
X158373999Y-66113181D01*
X158370112Y-66077011D01*
X158369091Y-66067516D01*
X158318797Y-65932671D01*
X158318793Y-65932664D01*
X158232547Y-65817455D01*
X158232544Y-65817452D01*
X158117335Y-65731206D01*
X158117328Y-65731202D01*
X157982482Y-65680908D01*
X157982483Y-65680908D01*
X157922883Y-65674501D01*
X157922881Y-65674500D01*
X157922873Y-65674500D01*
X157922864Y-65674500D01*
X156077129Y-65674500D01*
X156077123Y-65674501D01*
X156017516Y-65680908D01*
X155882671Y-65731202D01*
X155882664Y-65731206D01*
X155767455Y-65817452D01*
X155767452Y-65817455D01*
X155681206Y-65932664D01*
X155681202Y-65932671D01*
X155630418Y-66068833D01*
X155588547Y-66124767D01*
X155523083Y-66149184D01*
X155514236Y-66149500D01*
X154596112Y-66149500D01*
X154529073Y-66129815D01*
X154508431Y-66113181D01*
X154396080Y-66000830D01*
X154396078Y-66000828D01*
X154220919Y-65873567D01*
X154028009Y-65775273D01*
X154028006Y-65775272D01*
X153822098Y-65708370D01*
X153715175Y-65691435D01*
X153608254Y-65674500D01*
X153391746Y-65674500D01*
X153351282Y-65680909D01*
X153177901Y-65708370D01*
X152971993Y-65775272D01*
X152971990Y-65775273D01*
X152779080Y-65873567D01*
X152679145Y-65946174D01*
X152603922Y-66000828D01*
X152603920Y-66000830D01*
X152603919Y-66000830D01*
X152491569Y-66113181D01*
X152430246Y-66146666D01*
X152403888Y-66149500D01*
X146035764Y-66149500D01*
X145968725Y-66129815D01*
X145922970Y-66077011D01*
X145919582Y-66068833D01*
X145868797Y-65932671D01*
X145868793Y-65932664D01*
X145782547Y-65817455D01*
X145782544Y-65817452D01*
X145667335Y-65731206D01*
X145667328Y-65731202D01*
X145532482Y-65680908D01*
X145532483Y-65680908D01*
X145472883Y-65674501D01*
X145472881Y-65674500D01*
X145472873Y-65674500D01*
X145472864Y-65674500D01*
X143627129Y-65674500D01*
X143627123Y-65674501D01*
X143567516Y-65680908D01*
X143432671Y-65731202D01*
X143432664Y-65731206D01*
X143317455Y-65817452D01*
X143317452Y-65817455D01*
X143231206Y-65932664D01*
X143231202Y-65932671D01*
X143180418Y-66068833D01*
X143138547Y-66124767D01*
X143073083Y-66149184D01*
X143064236Y-66149500D01*
X142146112Y-66149500D01*
X142079073Y-66129815D01*
X142058431Y-66113181D01*
X141946080Y-66000830D01*
X141946078Y-66000828D01*
X141770919Y-65873567D01*
X141578009Y-65775273D01*
X141578006Y-65775272D01*
X141372098Y-65708370D01*
X141265175Y-65691435D01*
X141158254Y-65674500D01*
X140941746Y-65674500D01*
X140901282Y-65680909D01*
X140727901Y-65708370D01*
X140521993Y-65775272D01*
X140521990Y-65775273D01*
X140329080Y-65873567D01*
X140229145Y-65946174D01*
X140153922Y-66000828D01*
X140153920Y-66000830D01*
X140153919Y-66000830D01*
X140041569Y-66113181D01*
X139980246Y-66146666D01*
X139953888Y-66149500D01*
X138061304Y-66149500D01*
X137887339Y-66184103D01*
X137887323Y-66184108D01*
X137771453Y-66232102D01*
X137771454Y-66232103D01*
X137723451Y-66251987D01*
X137602103Y-66333071D01*
X137575965Y-66350535D01*
X137575959Y-66350540D01*
X129913319Y-74013181D01*
X129851996Y-74046666D01*
X129825638Y-74049500D01*
X129747648Y-74049500D01*
X129723329Y-74053351D01*
X129545465Y-74081522D01*
X129350776Y-74144781D01*
X129168388Y-74237714D01*
X129002786Y-74358028D01*
X128858028Y-74502786D01*
X128737715Y-74668386D01*
X128644781Y-74850776D01*
X128581522Y-75045465D01*
X128549500Y-75247648D01*
X116550000Y-75247648D01*
X116550000Y-69365186D01*
X120199500Y-69365186D01*
X120199500Y-69634813D01*
X120229686Y-69902719D01*
X120229688Y-69902731D01*
X120289684Y-70165594D01*
X120289687Y-70165602D01*
X120378734Y-70420082D01*
X120495714Y-70662994D01*
X120495715Y-70662995D01*
X120495716Y-70662997D01*
X120639162Y-70891289D01*
X120807266Y-71102085D01*
X120997915Y-71292734D01*
X121208711Y-71460838D01*
X121437003Y-71604284D01*
X121679921Y-71721267D01*
X121871049Y-71788145D01*
X121934397Y-71810312D01*
X121934405Y-71810315D01*
X121934408Y-71810315D01*
X121934409Y-71810316D01*
X122197268Y-71870312D01*
X122465187Y-71900499D01*
X122465188Y-71900500D01*
X122465191Y-71900500D01*
X122734812Y-71900500D01*
X122734812Y-71900499D01*
X123002732Y-71870312D01*
X123265591Y-71810316D01*
X123520079Y-71721267D01*
X123762997Y-71604284D01*
X123991289Y-71460838D01*
X124202085Y-71292734D01*
X124392734Y-71102085D01*
X124560838Y-70891289D01*
X124704284Y-70662997D01*
X124821267Y-70420079D01*
X124910316Y-70165591D01*
X124970312Y-69902732D01*
X125000500Y-69634809D01*
X125000500Y-69365191D01*
X124970312Y-69097268D01*
X124910316Y-68834409D01*
X124821267Y-68579921D01*
X124704284Y-68337003D01*
X124560838Y-68108711D01*
X124392734Y-67897915D01*
X124202085Y-67707266D01*
X123991289Y-67539162D01*
X123762997Y-67395716D01*
X123762994Y-67395714D01*
X123520082Y-67278734D01*
X123265602Y-67189687D01*
X123265594Y-67189684D01*
X123068446Y-67144687D01*
X123002732Y-67129688D01*
X123002728Y-67129687D01*
X123002719Y-67129686D01*
X122734813Y-67099500D01*
X122734809Y-67099500D01*
X122465191Y-67099500D01*
X122465186Y-67099500D01*
X122197280Y-67129686D01*
X122197268Y-67129688D01*
X121934405Y-67189684D01*
X121934397Y-67189687D01*
X121679917Y-67278734D01*
X121437005Y-67395714D01*
X121208712Y-67539161D01*
X120997915Y-67707265D01*
X120807265Y-67897915D01*
X120639161Y-68108712D01*
X120495714Y-68337005D01*
X120378734Y-68579917D01*
X120289687Y-68834397D01*
X120289684Y-68834405D01*
X120229688Y-69097268D01*
X120229686Y-69097280D01*
X120199500Y-69365186D01*
X116550000Y-69365186D01*
X116550000Y-63823619D01*
X116569685Y-63756580D01*
X116622489Y-63710825D01*
X116673617Y-63699620D01*
X181525619Y-63500382D01*
X181592719Y-63519860D01*
G37*
%TD.AperFunction*%
%TD*%
M02*
