%TF.GenerationSoftware,KiCad,Pcbnew,9.0.0*%
%TF.CreationDate,2025-03-26T13:37:58+01:00*%
%TF.ProjectId,LEDstripCtrl2.1,4c454473-7472-4697-9043-74726c322e31,rev?*%
%TF.SameCoordinates,Original*%
%TF.FileFunction,Copper,L2,Bot*%
%TF.FilePolarity,Positive*%
%FSLAX46Y46*%
G04 Gerber Fmt 4.6, Leading zero omitted, Abs format (unit mm)*
G04 Created by KiCad (PCBNEW 9.0.0) date 2025-03-26 13:37:58*
%MOMM*%
%LPD*%
G01*
G04 APERTURE LIST*
G04 Aperture macros list*
%AMRoundRect*
0 Rectangle with rounded corners*
0 $1 Rounding radius*
0 $2 $3 $4 $5 $6 $7 $8 $9 X,Y pos of 4 corners*
0 Add a 4 corners polygon primitive as box body*
4,1,4,$2,$3,$4,$5,$6,$7,$8,$9,$2,$3,0*
0 Add four circle primitives for the rounded corners*
1,1,$1+$1,$2,$3*
1,1,$1+$1,$4,$5*
1,1,$1+$1,$6,$7*
1,1,$1+$1,$8,$9*
0 Add four rect primitives between the rounded corners*
20,1,$1+$1,$2,$3,$4,$5,0*
20,1,$1+$1,$4,$5,$6,$7,0*
20,1,$1+$1,$6,$7,$8,$9,0*
20,1,$1+$1,$8,$9,$2,$3,0*%
G04 Aperture macros list end*
%TA.AperFunction,ComponentPad*%
%ADD10R,2.200000X2.200000*%
%TD*%
%TA.AperFunction,ComponentPad*%
%ADD11C,2.200000*%
%TD*%
%TA.AperFunction,ComponentPad*%
%ADD12C,3.000000*%
%TD*%
%TA.AperFunction,ComponentPad*%
%ADD13C,3.200000*%
%TD*%
%TA.AperFunction,ComponentPad*%
%ADD14R,1.800000X1.800000*%
%TD*%
%TA.AperFunction,ComponentPad*%
%ADD15C,1.800000*%
%TD*%
%TA.AperFunction,ComponentPad*%
%ADD16RoundRect,0.250000X1.050000X-1.050000X1.050000X1.050000X-1.050000X1.050000X-1.050000X-1.050000X0*%
%TD*%
%TA.AperFunction,ComponentPad*%
%ADD17C,2.600000*%
%TD*%
%TA.AperFunction,ComponentPad*%
%ADD18R,1.750000X1.750000*%
%TD*%
%TA.AperFunction,ComponentPad*%
%ADD19C,3.300000*%
%TD*%
%TA.AperFunction,ComponentPad*%
%ADD20O,1.800000X1.800000*%
%TD*%
%TA.AperFunction,Conductor*%
%ADD21C,0.800000*%
%TD*%
G04 APERTURE END LIST*
D10*
%TO.P,RV1,1,1*%
%TO.N,+3.3V*%
X144550000Y-67050000D03*
D11*
X141050000Y-67050000D03*
%TO.P,RV1,2,2*%
%TO.N,Net-(J1-Pin_2)*%
X143770000Y-72430000D03*
X141810000Y-120430000D03*
%TO.P,RV1,3,3*%
%TO.N,GNDREF*%
X144550000Y-125550000D03*
X140953500Y-125550000D03*
D12*
%TO.P,RV1,MP,MountPin*%
X138600000Y-71200000D03*
X147000000Y-72400000D03*
D13*
X147000000Y-120200000D03*
X138600000Y-121400000D03*
%TD*%
D14*
%TO.P,D1,1,K*%
%TO.N,GNDREF*%
X129850000Y-97170000D03*
D15*
%TO.P,D1,2,A*%
%TO.N,Net-(D1-A)*%
X129850000Y-94630000D03*
%TD*%
D16*
%TO.P,J1,1,Pin_1*%
%TO.N,+3.3V*%
X168672500Y-104170000D03*
D17*
%TO.P,J1,2,Pin_2*%
%TO.N,Net-(J1-Pin_2)*%
X168672500Y-99090000D03*
%TO.P,J1,3,Pin_3*%
%TO.N,Net-(J1-Pin_3)*%
X168672500Y-94010000D03*
%TO.P,J1,4,Pin_4*%
%TO.N,GNDREF*%
X168672500Y-88930000D03*
%TD*%
D18*
%TO.P,RV2,1,1*%
%TO.N,+3.3V*%
X157000000Y-67050000D03*
D11*
X153500000Y-67050000D03*
%TO.P,RV2,2,2*%
%TO.N,Net-(J1-Pin_3)*%
X156220000Y-72430000D03*
X154260000Y-120430000D03*
%TO.P,RV2,3,3*%
%TO.N,GNDREF*%
X157000000Y-125550000D03*
X153403500Y-125550000D03*
D12*
%TO.P,RV2,MP,MountPin*%
X151050000Y-71200000D03*
X159450000Y-72400000D03*
D19*
X159450000Y-120200000D03*
D13*
X151050000Y-121400000D03*
%TD*%
D15*
%TO.P,R1,1*%
%TO.N,+3.3V*%
X134800000Y-81950000D03*
D20*
%TO.P,R1,2*%
%TO.N,Net-(D1-A)*%
X134800000Y-94650000D03*
%TD*%
D21*
%TO.N,+3.3V*%
X134800000Y-70400000D02*
X138150000Y-67050000D01*
X172651000Y-100114628D02*
X172350000Y-100415628D01*
X172350000Y-96271872D02*
X172651000Y-96572872D01*
X172350000Y-100415628D02*
X172350000Y-102500000D01*
X144550000Y-67050000D02*
X153500000Y-67050000D01*
X141050000Y-67050000D02*
X144550000Y-67050000D01*
X158799000Y-68849000D02*
X159999000Y-68849000D01*
X161950000Y-78400000D02*
X172350000Y-88800000D01*
X138150000Y-67050000D02*
X141050000Y-67050000D01*
X172651000Y-96572872D02*
X172651000Y-100114628D01*
X134800000Y-81950000D02*
X134800000Y-70400000D01*
X159999000Y-68849000D02*
X161950000Y-70800000D01*
X170680000Y-104170000D02*
X168672500Y-104170000D01*
X157000000Y-67050000D02*
X158799000Y-68849000D01*
X161950000Y-70800000D02*
X161950000Y-78400000D01*
X153500000Y-67050000D02*
X157000000Y-67050000D01*
X172350000Y-88800000D02*
X172350000Y-96271872D01*
X172350000Y-102500000D02*
X170680000Y-104170000D01*
%TO.N,Net-(J1-Pin_2)*%
X141810000Y-74390000D02*
X143770000Y-72430000D01*
X168672500Y-99090000D02*
X143770000Y-74187500D01*
X143770000Y-74187500D02*
X143770000Y-72430000D01*
X141810000Y-120430000D02*
X141810000Y-74390000D01*
%TO.N,Net-(J1-Pin_3)*%
X168672500Y-94010000D02*
X171650000Y-96987500D01*
X171650000Y-99700000D02*
X169650000Y-101700000D01*
X156220000Y-81557500D02*
X156220000Y-72430000D01*
X154260000Y-113331038D02*
X154260000Y-120430000D01*
X169340000Y-94010000D02*
X168672500Y-94010000D01*
X165891038Y-101700000D02*
X154260000Y-113331038D01*
X168672500Y-94010000D02*
X156220000Y-81557500D01*
X171650000Y-96987500D02*
X171650000Y-99700000D01*
X169650000Y-101700000D02*
X165891038Y-101700000D01*
%TO.N,GNDREF*%
X144700000Y-70100000D02*
X139700000Y-70100000D01*
X151050000Y-71200000D02*
X148200000Y-71200000D01*
X138600000Y-123196500D02*
X140953500Y-125550000D01*
X157000000Y-125550000D02*
X157000000Y-122650000D01*
X157000000Y-122650000D02*
X159450000Y-120200000D01*
X159450000Y-79707500D02*
X168672500Y-88930000D01*
X136130000Y-97170000D02*
X138600000Y-94700000D01*
X138600000Y-121400000D02*
X138600000Y-123196500D01*
X159450000Y-72400000D02*
X159450000Y-79707500D01*
X156900000Y-69850000D02*
X152400000Y-69850000D01*
X133600000Y-116400000D02*
X138600000Y-121400000D01*
X153403500Y-125550000D02*
X157000000Y-125550000D01*
X149850000Y-120200000D02*
X151050000Y-121400000D01*
X138600000Y-94700000D02*
X138600000Y-71200000D01*
X129850000Y-97570000D02*
X133600000Y-101320000D01*
X144550000Y-125550000D02*
X144550000Y-122650000D01*
X133600000Y-101320000D02*
X133600000Y-116400000D01*
X129850000Y-97170000D02*
X136130000Y-97170000D01*
X147000000Y-120200000D02*
X149850000Y-120200000D01*
X159450000Y-72400000D02*
X156900000Y-69850000D01*
X140953500Y-125550000D02*
X144550000Y-125550000D01*
X151050000Y-123196500D02*
X153403500Y-125550000D01*
X147000000Y-72400000D02*
X144700000Y-70100000D01*
X144550000Y-122650000D02*
X147000000Y-120200000D01*
X151050000Y-121400000D02*
X151050000Y-123196500D01*
X139700000Y-70100000D02*
X138600000Y-71200000D01*
X148200000Y-71200000D02*
X147000000Y-72400000D01*
X152400000Y-69850000D02*
X151050000Y-71200000D01*
%TO.N,Net-(D1-A)*%
X134780000Y-94630000D02*
X134800000Y-94650000D01*
X129850000Y-94630000D02*
X134780000Y-94630000D01*
%TD*%
%TA.AperFunction,Conductor*%
%TO.N,GNDREF*%
G36*
X158339925Y-65596672D02*
G01*
X159197841Y-65868962D01*
X159201821Y-65870301D01*
X160227441Y-66234807D01*
X160231365Y-66236278D01*
X161243959Y-66635594D01*
X161247871Y-66637214D01*
X162246192Y-67070846D01*
X162250046Y-67072599D01*
X162431017Y-67158665D01*
X163233000Y-67540071D01*
X163236750Y-67541933D01*
X164203206Y-68042710D01*
X164206906Y-68044708D01*
X164585325Y-68257483D01*
X165155686Y-68578181D01*
X165159340Y-68580319D01*
X166089302Y-69145841D01*
X166092882Y-69148102D01*
X166480604Y-69402409D01*
X166957028Y-69714896D01*
X167003051Y-69745082D01*
X167006544Y-69747460D01*
X167895769Y-70375143D01*
X167899150Y-70377617D01*
X168195583Y-70602409D01*
X168766455Y-71035315D01*
X168769785Y-71037931D01*
X169614111Y-71724842D01*
X169617349Y-71727570D01*
X170437692Y-72442872D01*
X170440836Y-72445708D01*
X171236351Y-73188666D01*
X171239395Y-73191609D01*
X172009005Y-73961219D01*
X172011948Y-73964263D01*
X172754906Y-74759778D01*
X172757742Y-74762922D01*
X173473044Y-75583265D01*
X173475772Y-75586503D01*
X174162683Y-76430829D01*
X174165299Y-76434159D01*
X174822984Y-77301446D01*
X174825484Y-77304863D01*
X175453149Y-78194063D01*
X175455532Y-78197563D01*
X176052512Y-79107732D01*
X176054773Y-79111312D01*
X176620295Y-80041274D01*
X176622433Y-80044928D01*
X177155899Y-80993696D01*
X177157911Y-80997422D01*
X177658670Y-81963843D01*
X177660553Y-81967635D01*
X178128015Y-82950568D01*
X178129768Y-82954422D01*
X178563400Y-83952743D01*
X178565020Y-83956655D01*
X178964336Y-84969249D01*
X178965822Y-84973214D01*
X179330307Y-85998777D01*
X179331657Y-86002790D01*
X179660929Y-87040242D01*
X179662141Y-87044299D01*
X179955806Y-88092401D01*
X179956877Y-88096493D01*
X180188746Y-89047971D01*
X180214580Y-89153980D01*
X180215512Y-89158111D01*
X180436959Y-90223776D01*
X180437750Y-90227935D01*
X180622690Y-91300565D01*
X180623338Y-91304749D01*
X180771548Y-92383050D01*
X180772053Y-92387254D01*
X180883362Y-93469998D01*
X180883723Y-93474217D01*
X180958001Y-94560115D01*
X180958218Y-94564344D01*
X180995379Y-95652168D01*
X180995451Y-95656401D01*
X180995451Y-96744828D01*
X180995379Y-96749061D01*
X180958218Y-97836885D01*
X180958001Y-97841114D01*
X180883723Y-98927012D01*
X180883362Y-98931231D01*
X180772053Y-100013975D01*
X180771548Y-100018179D01*
X180623338Y-101096480D01*
X180622690Y-101100664D01*
X180437750Y-102173294D01*
X180436959Y-102177453D01*
X180215512Y-103243118D01*
X180214580Y-103247249D01*
X179956878Y-104304732D01*
X179955806Y-104308828D01*
X179662141Y-105356930D01*
X179660929Y-105360987D01*
X179331657Y-106398439D01*
X179330307Y-106402452D01*
X178965822Y-107428015D01*
X178964336Y-107431980D01*
X178565020Y-108444574D01*
X178563400Y-108448486D01*
X178129768Y-109446807D01*
X178128015Y-109450661D01*
X177660553Y-110433594D01*
X177658670Y-110437386D01*
X177157911Y-111403807D01*
X177155899Y-111407533D01*
X176622433Y-112356301D01*
X176620295Y-112359955D01*
X176054773Y-113289917D01*
X176052512Y-113293497D01*
X175455532Y-114203666D01*
X175453149Y-114207166D01*
X174825484Y-115096366D01*
X174822984Y-115099783D01*
X174165299Y-115967070D01*
X174162683Y-115970400D01*
X173475772Y-116814726D01*
X173473044Y-116817964D01*
X172757742Y-117638307D01*
X172754906Y-117641451D01*
X172011948Y-118436966D01*
X172009005Y-118440010D01*
X171239395Y-119209620D01*
X171236351Y-119212563D01*
X170440836Y-119955521D01*
X170437692Y-119958357D01*
X169617349Y-120673659D01*
X169614111Y-120676387D01*
X168769785Y-121363298D01*
X168766455Y-121365914D01*
X167899168Y-122023599D01*
X167895751Y-122026099D01*
X167006551Y-122653764D01*
X167003051Y-122656147D01*
X166092882Y-123253127D01*
X166089302Y-123255388D01*
X165159340Y-123820910D01*
X165155686Y-123823048D01*
X164206918Y-124356514D01*
X164203192Y-124358526D01*
X163236771Y-124859285D01*
X163232979Y-124861168D01*
X162250046Y-125328630D01*
X162246192Y-125330383D01*
X161247871Y-125764015D01*
X161243959Y-125765635D01*
X160231365Y-126164951D01*
X160227400Y-126166437D01*
X159201837Y-126530922D01*
X159197824Y-126532272D01*
X158160372Y-126861544D01*
X158156315Y-126862756D01*
X158072190Y-126886327D01*
X158002326Y-126885459D01*
X157951054Y-126854606D01*
X157211059Y-126114612D01*
X157231591Y-126109111D01*
X157368408Y-126030119D01*
X157480119Y-125918408D01*
X157559111Y-125781591D01*
X157564612Y-125761059D01*
X158294250Y-126490698D01*
X158294250Y-126490697D01*
X158368442Y-126388581D01*
X158368446Y-126388575D01*
X158482780Y-126164184D01*
X158560602Y-125924669D01*
X158600000Y-125675928D01*
X158600000Y-125424071D01*
X158560602Y-125175330D01*
X158482780Y-124935815D01*
X158368442Y-124711416D01*
X158294250Y-124609301D01*
X158294250Y-124609300D01*
X157564612Y-125338939D01*
X157559111Y-125318409D01*
X157480119Y-125181592D01*
X157368408Y-125069881D01*
X157231591Y-124990889D01*
X157211058Y-124985387D01*
X157940698Y-124255748D01*
X157838583Y-124181557D01*
X157614184Y-124067219D01*
X157374669Y-123989397D01*
X157125928Y-123950000D01*
X156874072Y-123950000D01*
X156625330Y-123989397D01*
X156385815Y-124067219D01*
X156161413Y-124181559D01*
X156059301Y-124255747D01*
X156059300Y-124255748D01*
X156788940Y-124985387D01*
X156768409Y-124990889D01*
X156631592Y-125069881D01*
X156519881Y-125181592D01*
X156440889Y-125318409D01*
X156435387Y-125338940D01*
X155705748Y-124609300D01*
X155705747Y-124609301D01*
X155631559Y-124711413D01*
X155517219Y-124935815D01*
X155439397Y-125175330D01*
X155400000Y-125424071D01*
X155400000Y-125675928D01*
X155439397Y-125924669D01*
X155517219Y-126164184D01*
X155631557Y-126388583D01*
X155705748Y-126490697D01*
X155705748Y-126490698D01*
X156435387Y-125761059D01*
X156440889Y-125781591D01*
X156519881Y-125918408D01*
X156631592Y-126030119D01*
X156768409Y-126109111D01*
X156788940Y-126114612D01*
X156059300Y-126844250D01*
X156161416Y-126918442D01*
X156385817Y-127032781D01*
X156497554Y-127069086D01*
X156555230Y-127108523D01*
X156582429Y-127172881D01*
X156570515Y-127241728D01*
X156523271Y-127293204D01*
X156488596Y-127307491D01*
X156046634Y-127415195D01*
X156042503Y-127416127D01*
X154976838Y-127637574D01*
X154972679Y-127638365D01*
X153900049Y-127823305D01*
X153895865Y-127823953D01*
X152817564Y-127972163D01*
X152813360Y-127972668D01*
X151730616Y-128083977D01*
X151726397Y-128084338D01*
X150640499Y-128158616D01*
X150636270Y-128158833D01*
X149548447Y-128195994D01*
X149544214Y-128196066D01*
X148455786Y-128196066D01*
X148451553Y-128195994D01*
X147363729Y-128158833D01*
X147359500Y-128158616D01*
X146273602Y-128084338D01*
X146269383Y-128083977D01*
X145186639Y-127972668D01*
X145182435Y-127972163D01*
X144104134Y-127823953D01*
X144099950Y-127823305D01*
X143027320Y-127638365D01*
X143023161Y-127637574D01*
X141957496Y-127416127D01*
X141953365Y-127415195D01*
X141484832Y-127301016D01*
X141424359Y-127266019D01*
X141392408Y-127203883D01*
X141399121Y-127134337D01*
X141442369Y-127079460D01*
X141475874Y-127062611D01*
X141567682Y-127032781D01*
X141792075Y-126918446D01*
X141792081Y-126918442D01*
X141894197Y-126844250D01*
X141894198Y-126844250D01*
X141164559Y-126114612D01*
X141185091Y-126109111D01*
X141321908Y-126030119D01*
X141433619Y-125918408D01*
X141512611Y-125781591D01*
X141518112Y-125761059D01*
X142247750Y-126490698D01*
X142247750Y-126490697D01*
X142321942Y-126388581D01*
X142321946Y-126388575D01*
X142436280Y-126164184D01*
X142514102Y-125924669D01*
X142553500Y-125675928D01*
X142553500Y-125424071D01*
X142950000Y-125424071D01*
X142950000Y-125675928D01*
X142989397Y-125924669D01*
X143067219Y-126164184D01*
X143181557Y-126388583D01*
X143255748Y-126490697D01*
X143255748Y-126490698D01*
X143985387Y-125761059D01*
X143990889Y-125781591D01*
X144069881Y-125918408D01*
X144181592Y-126030119D01*
X144318409Y-126109111D01*
X144338940Y-126114612D01*
X143609300Y-126844250D01*
X143711416Y-126918442D01*
X143935815Y-127032780D01*
X144175330Y-127110602D01*
X144424072Y-127150000D01*
X144675928Y-127150000D01*
X144924669Y-127110602D01*
X145164184Y-127032780D01*
X145388575Y-126918446D01*
X145388581Y-126918442D01*
X145490697Y-126844250D01*
X145490698Y-126844250D01*
X144761059Y-126114612D01*
X144781591Y-126109111D01*
X144918408Y-126030119D01*
X145030119Y-125918408D01*
X145109111Y-125781591D01*
X145114612Y-125761060D01*
X145844250Y-126490698D01*
X145844250Y-126490697D01*
X145918442Y-126388581D01*
X145918446Y-126388575D01*
X146032780Y-126164184D01*
X146110602Y-125924669D01*
X146150000Y-125675928D01*
X146150000Y-125424071D01*
X151803500Y-125424071D01*
X151803500Y-125675928D01*
X151842897Y-125924669D01*
X151920719Y-126164184D01*
X152035057Y-126388583D01*
X152109248Y-126490697D01*
X152109248Y-126490698D01*
X152838887Y-125761059D01*
X152844389Y-125781591D01*
X152923381Y-125918408D01*
X153035092Y-126030119D01*
X153171909Y-126109111D01*
X153192440Y-126114612D01*
X152462800Y-126844250D01*
X152564916Y-126918442D01*
X152789315Y-127032780D01*
X153028830Y-127110602D01*
X153277572Y-127150000D01*
X153529428Y-127150000D01*
X153778169Y-127110602D01*
X154017684Y-127032780D01*
X154242075Y-126918446D01*
X154242081Y-126918442D01*
X154344197Y-126844250D01*
X154344198Y-126844250D01*
X153614559Y-126114612D01*
X153635091Y-126109111D01*
X153771908Y-126030119D01*
X153883619Y-125918408D01*
X153962611Y-125781591D01*
X153968112Y-125761060D01*
X154697750Y-126490698D01*
X154697750Y-126490697D01*
X154771942Y-126388581D01*
X154771946Y-126388575D01*
X154886280Y-126164184D01*
X154964102Y-125924669D01*
X155003500Y-125675928D01*
X155003500Y-125424071D01*
X154964102Y-125175330D01*
X154886280Y-124935815D01*
X154771942Y-124711416D01*
X154697750Y-124609301D01*
X154697750Y-124609300D01*
X153968112Y-125338939D01*
X153962611Y-125318409D01*
X153883619Y-125181592D01*
X153771908Y-125069881D01*
X153635091Y-124990889D01*
X153614558Y-124985387D01*
X154344198Y-124255748D01*
X154242083Y-124181557D01*
X154017684Y-124067219D01*
X153778169Y-123989397D01*
X153529428Y-123950000D01*
X153277572Y-123950000D01*
X153028830Y-123989397D01*
X152789315Y-124067219D01*
X152564913Y-124181559D01*
X152462801Y-124255747D01*
X152462800Y-124255748D01*
X153192440Y-124985387D01*
X153171909Y-124990889D01*
X153035092Y-125069881D01*
X152923381Y-125181592D01*
X152844389Y-125318409D01*
X152838887Y-125338940D01*
X152109248Y-124609300D01*
X152109247Y-124609301D01*
X152035059Y-124711413D01*
X151920719Y-124935815D01*
X151842897Y-125175330D01*
X151803500Y-125424071D01*
X146150000Y-125424071D01*
X146110602Y-125175330D01*
X146032780Y-124935815D01*
X145918442Y-124711416D01*
X145844250Y-124609301D01*
X145844250Y-124609300D01*
X145114612Y-125338939D01*
X145109111Y-125318409D01*
X145030119Y-125181592D01*
X144918408Y-125069881D01*
X144781591Y-124990889D01*
X144761058Y-124985387D01*
X145490698Y-124255748D01*
X145388583Y-124181557D01*
X145164184Y-124067219D01*
X144924669Y-123989397D01*
X144675928Y-123950000D01*
X144424072Y-123950000D01*
X144175330Y-123989397D01*
X143935815Y-124067219D01*
X143711413Y-124181559D01*
X143609301Y-124255747D01*
X143609300Y-124255748D01*
X144338940Y-124985387D01*
X144318409Y-124990889D01*
X144181592Y-125069881D01*
X144069881Y-125181592D01*
X143990889Y-125318409D01*
X143985387Y-125338940D01*
X143255748Y-124609300D01*
X143255747Y-124609301D01*
X143181559Y-124711413D01*
X143067219Y-124935815D01*
X142989397Y-125175330D01*
X142950000Y-125424071D01*
X142553500Y-125424071D01*
X142514102Y-125175330D01*
X142436280Y-124935815D01*
X142321942Y-124711416D01*
X142247750Y-124609301D01*
X142247750Y-124609300D01*
X141518112Y-125338939D01*
X141512611Y-125318409D01*
X141433619Y-125181592D01*
X141321908Y-125069881D01*
X141185091Y-124990889D01*
X141164558Y-124985387D01*
X141894198Y-124255748D01*
X141792083Y-124181557D01*
X141567684Y-124067219D01*
X141328169Y-123989397D01*
X141079428Y-123950000D01*
X140827572Y-123950000D01*
X140578830Y-123989397D01*
X140339315Y-124067219D01*
X140114913Y-124181559D01*
X140012801Y-124255747D01*
X140012800Y-124255748D01*
X140742440Y-124985387D01*
X140721909Y-124990889D01*
X140585092Y-125069881D01*
X140473381Y-125181592D01*
X140394389Y-125318409D01*
X140388887Y-125338940D01*
X139659248Y-124609300D01*
X139659247Y-124609301D01*
X139585059Y-124711413D01*
X139470719Y-124935815D01*
X139392897Y-125175330D01*
X139353500Y-125424071D01*
X139353500Y-125675928D01*
X139392897Y-125924669D01*
X139470719Y-126164184D01*
X139585057Y-126388583D01*
X139733636Y-126593083D01*
X139757116Y-126658890D01*
X139741291Y-126726944D01*
X139691185Y-126775638D01*
X139622707Y-126789514D01*
X139595806Y-126784159D01*
X138802175Y-126532272D01*
X138798162Y-126530922D01*
X137772599Y-126166437D01*
X137768634Y-126164951D01*
X136756040Y-125765635D01*
X136752128Y-125764015D01*
X135753807Y-125330383D01*
X135749953Y-125328630D01*
X134767020Y-124861168D01*
X134763228Y-124859285D01*
X133902142Y-124413106D01*
X133796807Y-124358526D01*
X133793081Y-124356514D01*
X132844313Y-123823048D01*
X132840659Y-123820910D01*
X131910697Y-123255388D01*
X131907117Y-123253127D01*
X131684290Y-123106975D01*
X130996948Y-122656147D01*
X130993448Y-122653764D01*
X130535893Y-122330787D01*
X130104240Y-122026093D01*
X130100831Y-122023599D01*
X130058486Y-121991488D01*
X129804478Y-121798867D01*
X129233544Y-121365914D01*
X129230214Y-121363298D01*
X129219385Y-121354488D01*
X128385888Y-120676387D01*
X128382650Y-120673659D01*
X127562307Y-119958357D01*
X127559163Y-119955520D01*
X127486154Y-119887334D01*
X126763649Y-119212563D01*
X126760604Y-119209620D01*
X125990994Y-118440010D01*
X125988051Y-118436966D01*
X125245093Y-117641451D01*
X125242257Y-117638307D01*
X124526955Y-116817964D01*
X124524227Y-116814726D01*
X123837316Y-115970400D01*
X123834700Y-115967070D01*
X123177015Y-115099783D01*
X123174515Y-115096366D01*
X123152799Y-115065602D01*
X122587805Y-114265186D01*
X125899500Y-114265186D01*
X125899500Y-114534813D01*
X125929686Y-114802719D01*
X125929688Y-114802731D01*
X125989684Y-115065594D01*
X125989687Y-115065602D01*
X126078734Y-115320082D01*
X126195714Y-115562994D01*
X126195716Y-115562997D01*
X126339162Y-115791289D01*
X126464573Y-115948549D01*
X126479342Y-115967070D01*
X126507266Y-116002085D01*
X126697915Y-116192734D01*
X126908711Y-116360838D01*
X127137003Y-116504284D01*
X127379921Y-116621267D01*
X127571049Y-116688145D01*
X127634397Y-116710312D01*
X127634405Y-116710315D01*
X127634408Y-116710315D01*
X127634409Y-116710316D01*
X127897268Y-116770312D01*
X128165187Y-116800499D01*
X128165188Y-116800500D01*
X128165191Y-116800500D01*
X128434812Y-116800500D01*
X128434812Y-116800499D01*
X128702732Y-116770312D01*
X128965591Y-116710316D01*
X129220079Y-116621267D01*
X129462997Y-116504284D01*
X129691289Y-116360838D01*
X129902085Y-116192734D01*
X130092734Y-116002085D01*
X130260838Y-115791289D01*
X130404284Y-115562997D01*
X130521267Y-115320079D01*
X130610316Y-115065591D01*
X130670312Y-114802732D01*
X130700500Y-114534809D01*
X130700500Y-114265191D01*
X130670312Y-113997268D01*
X130610316Y-113734409D01*
X130599688Y-113704037D01*
X130586980Y-113667718D01*
X130521267Y-113479921D01*
X130404284Y-113237003D01*
X130260838Y-113008711D01*
X130092734Y-112797915D01*
X129902085Y-112607266D01*
X129691289Y-112439162D01*
X129462997Y-112295716D01*
X129462994Y-112295714D01*
X129220082Y-112178734D01*
X128965602Y-112089687D01*
X128965594Y-112089684D01*
X128768446Y-112044687D01*
X128702732Y-112029688D01*
X128702728Y-112029687D01*
X128702719Y-112029686D01*
X128434813Y-111999500D01*
X128434809Y-111999500D01*
X128165191Y-111999500D01*
X128165186Y-111999500D01*
X127897280Y-112029686D01*
X127897268Y-112029688D01*
X127634405Y-112089684D01*
X127634397Y-112089687D01*
X127379917Y-112178734D01*
X127137005Y-112295714D01*
X126908712Y-112439161D01*
X126697915Y-112607265D01*
X126507267Y-112797914D01*
X126339161Y-113008712D01*
X126195714Y-113237005D01*
X126078734Y-113479917D01*
X125989687Y-113734397D01*
X125989684Y-113734405D01*
X125929688Y-113997268D01*
X125929686Y-113997280D01*
X125899500Y-114265186D01*
X122587805Y-114265186D01*
X122546826Y-114207132D01*
X122544467Y-114203666D01*
X121947487Y-113293497D01*
X121945226Y-113289917D01*
X121379704Y-112359955D01*
X121377566Y-112356301D01*
X120844100Y-111407533D01*
X120842088Y-111403807D01*
X120341329Y-110437386D01*
X120339446Y-110433594D01*
X119871984Y-109450661D01*
X119870231Y-109446807D01*
X119436599Y-108448486D01*
X119434979Y-108444574D01*
X119035663Y-107431980D01*
X119034192Y-107428056D01*
X118669686Y-106402436D01*
X118668342Y-106398439D01*
X118532520Y-105970500D01*
X118339068Y-105360983D01*
X118337858Y-105356930D01*
X118044181Y-104308783D01*
X118043132Y-104304777D01*
X117785409Y-103247205D01*
X117784494Y-103243151D01*
X117563040Y-102177453D01*
X117562249Y-102173294D01*
X117554267Y-102127000D01*
X117377304Y-101100636D01*
X117376661Y-101096480D01*
X117228445Y-100018134D01*
X117227951Y-100014021D01*
X117116635Y-98931213D01*
X117116276Y-98927012D01*
X117041995Y-97841062D01*
X117041783Y-97836936D01*
X117004621Y-96749061D01*
X117004549Y-96744828D01*
X117004549Y-95656401D01*
X117004621Y-95652168D01*
X117008372Y-95542358D01*
X117041783Y-94564290D01*
X117041995Y-94560170D01*
X117044758Y-94519778D01*
X128449500Y-94519778D01*
X128449500Y-94740221D01*
X128483985Y-94957952D01*
X128552103Y-95167603D01*
X128552104Y-95167606D01*
X128575814Y-95214138D01*
X128638353Y-95336876D01*
X128652187Y-95364025D01*
X128781752Y-95542358D01*
X128781756Y-95542363D01*
X128832316Y-95592923D01*
X128865801Y-95654246D01*
X128860817Y-95723938D01*
X128818945Y-95779871D01*
X128787969Y-95796785D01*
X128707918Y-95826643D01*
X128707906Y-95826649D01*
X128592812Y-95912809D01*
X128592809Y-95912812D01*
X128506649Y-96027906D01*
X128506645Y-96027913D01*
X128456403Y-96162620D01*
X128456401Y-96162627D01*
X128450000Y-96222155D01*
X128450000Y-96920000D01*
X129474722Y-96920000D01*
X129430667Y-96996306D01*
X129400000Y-97110756D01*
X129400000Y-97229244D01*
X129430667Y-97343694D01*
X129474722Y-97420000D01*
X128450000Y-97420000D01*
X128450000Y-98117844D01*
X128456401Y-98177372D01*
X128456403Y-98177379D01*
X128506645Y-98312086D01*
X128506649Y-98312093D01*
X128592809Y-98427187D01*
X128592812Y-98427190D01*
X128707906Y-98513350D01*
X128707913Y-98513354D01*
X128842620Y-98563596D01*
X128842627Y-98563598D01*
X128902155Y-98569999D01*
X128902172Y-98570000D01*
X129600000Y-98570000D01*
X129600000Y-97545277D01*
X129676306Y-97589333D01*
X129790756Y-97620000D01*
X129909244Y-97620000D01*
X130023694Y-97589333D01*
X130100000Y-97545277D01*
X130100000Y-98570000D01*
X130797828Y-98570000D01*
X130797844Y-98569999D01*
X130857372Y-98563598D01*
X130857379Y-98563596D01*
X130992086Y-98513354D01*
X130992093Y-98513350D01*
X131107187Y-98427190D01*
X131107190Y-98427187D01*
X131193350Y-98312093D01*
X131193354Y-98312086D01*
X131243596Y-98177379D01*
X131243598Y-98177372D01*
X131249999Y-98117844D01*
X131250000Y-98117827D01*
X131250000Y-97420000D01*
X130225278Y-97420000D01*
X130269333Y-97343694D01*
X130300000Y-97229244D01*
X130300000Y-97110756D01*
X130269333Y-96996306D01*
X130225278Y-96920000D01*
X131250000Y-96920000D01*
X131250000Y-96222172D01*
X131249999Y-96222155D01*
X131243598Y-96162627D01*
X131243596Y-96162620D01*
X131193354Y-96027913D01*
X131193350Y-96027906D01*
X131107190Y-95912812D01*
X131107187Y-95912809D01*
X130992093Y-95826649D01*
X130992086Y-95826645D01*
X130912031Y-95796787D01*
X130912029Y-95796786D01*
X130912028Y-95796786D01*
X130872179Y-95766955D01*
X130856097Y-95754916D01*
X130856095Y-95754914D01*
X130842068Y-95717302D01*
X130831680Y-95689452D01*
X130831680Y-95689449D01*
X130836526Y-95667172D01*
X130846531Y-95621179D01*
X130867681Y-95592925D01*
X130893790Y-95566817D01*
X130955114Y-95533333D01*
X130981470Y-95530500D01*
X133648531Y-95530500D01*
X133715570Y-95550185D01*
X133736212Y-95566819D01*
X133887636Y-95718243D01*
X133887641Y-95718247D01*
X133999955Y-95799847D01*
X134065978Y-95847815D01*
X134166184Y-95898873D01*
X134262393Y-95947895D01*
X134262396Y-95947896D01*
X134367221Y-95981955D01*
X134472049Y-96016015D01*
X134689778Y-96050500D01*
X134689779Y-96050500D01*
X134910221Y-96050500D01*
X134910222Y-96050500D01*
X135127951Y-96016015D01*
X135337606Y-95947895D01*
X135534022Y-95847815D01*
X135712365Y-95718242D01*
X135868242Y-95562365D01*
X135997815Y-95384022D01*
X136097895Y-95187606D01*
X136166015Y-94977951D01*
X136200500Y-94760222D01*
X136200500Y-94539778D01*
X136166015Y-94322049D01*
X136097895Y-94112394D01*
X136097895Y-94112393D01*
X136063237Y-94044375D01*
X135997815Y-93915978D01*
X135980379Y-93891979D01*
X135868247Y-93737641D01*
X135868243Y-93737636D01*
X135712363Y-93581756D01*
X135712358Y-93581752D01*
X135534025Y-93452187D01*
X135534024Y-93452186D01*
X135534022Y-93452185D01*
X135471096Y-93420122D01*
X135337606Y-93352104D01*
X135337603Y-93352103D01*
X135127952Y-93283985D01*
X135001676Y-93263985D01*
X134910222Y-93249500D01*
X134689778Y-93249500D01*
X134617201Y-93260995D01*
X134472047Y-93283985D01*
X134262396Y-93352103D01*
X134262393Y-93352104D01*
X134065974Y-93452187D01*
X133887641Y-93581752D01*
X133887636Y-93581756D01*
X133776212Y-93693181D01*
X133714889Y-93726666D01*
X133688531Y-93729500D01*
X130981470Y-93729500D01*
X130914431Y-93709815D01*
X130893789Y-93693182D01*
X130858578Y-93657971D01*
X130762365Y-93561758D01*
X130762361Y-93561755D01*
X130762357Y-93561751D01*
X130584025Y-93432187D01*
X130584024Y-93432186D01*
X130584022Y-93432185D01*
X130494049Y-93386341D01*
X130387606Y-93332104D01*
X130387603Y-93332103D01*
X130177952Y-93263985D01*
X130069086Y-93246742D01*
X129960222Y-93229500D01*
X129739778Y-93229500D01*
X129667201Y-93240995D01*
X129522047Y-93263985D01*
X129312396Y-93332103D01*
X129312393Y-93332104D01*
X129115974Y-93432187D01*
X128937641Y-93561752D01*
X128937636Y-93561756D01*
X128781756Y-93717636D01*
X128781752Y-93717641D01*
X128652187Y-93895974D01*
X128552104Y-94092393D01*
X128552103Y-94092396D01*
X128483985Y-94302047D01*
X128449500Y-94519778D01*
X117044758Y-94519778D01*
X117116277Y-93474193D01*
X117116637Y-93469998D01*
X117118468Y-93452187D01*
X117227952Y-92387201D01*
X117228444Y-92383102D01*
X117376666Y-91304712D01*
X117377303Y-91300602D01*
X117562251Y-90227921D01*
X117563040Y-90223776D01*
X117601631Y-90038065D01*
X117784497Y-89158065D01*
X117785406Y-89154037D01*
X118043136Y-88096437D01*
X118044177Y-88092460D01*
X118337864Y-87044278D01*
X118339070Y-87040242D01*
X118668353Y-86002756D01*
X118669680Y-85998810D01*
X119034199Y-84973154D01*
X119035663Y-84969249D01*
X119434979Y-83956655D01*
X119436599Y-83952743D01*
X119602938Y-83569794D01*
X119870235Y-82954411D01*
X119871984Y-82950568D01*
X120339468Y-81967590D01*
X120341307Y-81963887D01*
X120842108Y-80997384D01*
X120844079Y-80993733D01*
X121377575Y-80044912D01*
X121379704Y-80041274D01*
X121463009Y-79904285D01*
X121945237Y-79111294D01*
X121947487Y-79107732D01*
X122544490Y-78197528D01*
X122546826Y-78194097D01*
X122920172Y-77665186D01*
X125899500Y-77665186D01*
X125899500Y-77934813D01*
X125929686Y-78202719D01*
X125929688Y-78202731D01*
X125989684Y-78465594D01*
X125989687Y-78465602D01*
X126078734Y-78720082D01*
X126195714Y-78962994D01*
X126195716Y-78962997D01*
X126339162Y-79191289D01*
X126507266Y-79402085D01*
X126697915Y-79592734D01*
X126908711Y-79760838D01*
X127137003Y-79904284D01*
X127379921Y-80021267D01*
X127571049Y-80088145D01*
X127634397Y-80110312D01*
X127634405Y-80110315D01*
X127634408Y-80110315D01*
X127634409Y-80110316D01*
X127897268Y-80170312D01*
X128165187Y-80200499D01*
X128165188Y-80200500D01*
X128165191Y-80200500D01*
X128434812Y-80200500D01*
X128434812Y-80200499D01*
X128702732Y-80170312D01*
X128965591Y-80110316D01*
X129220079Y-80021267D01*
X129462997Y-79904284D01*
X129691289Y-79760838D01*
X129902085Y-79592734D01*
X130092734Y-79402085D01*
X130260838Y-79191289D01*
X130404284Y-78962997D01*
X130521267Y-78720079D01*
X130610316Y-78465591D01*
X130670312Y-78202732D01*
X130700500Y-77934809D01*
X130700500Y-77665191D01*
X130670312Y-77397268D01*
X130610316Y-77134409D01*
X130521267Y-76879921D01*
X130404284Y-76637003D01*
X130260838Y-76408711D01*
X130092734Y-76197915D01*
X129902085Y-76007266D01*
X129691289Y-75839162D01*
X129462997Y-75695716D01*
X129462994Y-75695714D01*
X129220082Y-75578734D01*
X128965602Y-75489687D01*
X128965594Y-75489684D01*
X128768446Y-75444687D01*
X128702732Y-75429688D01*
X128702728Y-75429687D01*
X128702719Y-75429686D01*
X128434813Y-75399500D01*
X128434809Y-75399500D01*
X128165191Y-75399500D01*
X128165186Y-75399500D01*
X127897280Y-75429686D01*
X127897268Y-75429688D01*
X127634405Y-75489684D01*
X127634397Y-75489687D01*
X127379917Y-75578734D01*
X127137005Y-75695714D01*
X126908712Y-75839161D01*
X126697915Y-76007265D01*
X126507265Y-76197915D01*
X126339161Y-76408712D01*
X126195714Y-76637005D01*
X126078734Y-76879917D01*
X125989687Y-77134397D01*
X125989684Y-77134405D01*
X125929688Y-77397268D01*
X125929686Y-77397280D01*
X125899500Y-77665186D01*
X122920172Y-77665186D01*
X123174548Y-77304816D01*
X123176981Y-77301491D01*
X123834713Y-76434141D01*
X123837316Y-76430829D01*
X123855311Y-76408711D01*
X124524240Y-75586487D01*
X124526955Y-75583265D01*
X124608554Y-75489684D01*
X125242262Y-74762916D01*
X125245093Y-74759778D01*
X125256726Y-74747322D01*
X125988078Y-73964234D01*
X125990964Y-73961249D01*
X126760634Y-73191579D01*
X126763619Y-73188693D01*
X127559168Y-72445702D01*
X127562307Y-72442872D01*
X127895820Y-72152064D01*
X128382666Y-71727556D01*
X128385872Y-71724855D01*
X129230231Y-71037917D01*
X129233526Y-71035328D01*
X130100876Y-70377596D01*
X130104201Y-70375163D01*
X130993482Y-69747441D01*
X130996913Y-69745105D01*
X131907134Y-69148091D01*
X131910679Y-69145852D01*
X132840675Y-68580309D01*
X132844297Y-68578190D01*
X133793118Y-68044694D01*
X133796769Y-68042723D01*
X134763272Y-67541922D01*
X134766975Y-67540083D01*
X135749963Y-67072594D01*
X135753807Y-67070846D01*
X136752184Y-66637190D01*
X136755985Y-66635614D01*
X137084055Y-66506240D01*
X137153638Y-66499960D01*
X137215574Y-66532297D01*
X137250195Y-66592986D01*
X137246510Y-66662758D01*
X137217222Y-66709277D01*
X134100538Y-69825960D01*
X134100537Y-69825961D01*
X134061064Y-69885039D01*
X134061063Y-69885040D01*
X134001985Y-69973455D01*
X133968046Y-70055393D01*
X133934106Y-70137330D01*
X133934103Y-70137342D01*
X133912559Y-70245653D01*
X133899500Y-70311304D01*
X133899500Y-80818530D01*
X133879815Y-80885569D01*
X133863182Y-80906211D01*
X133731751Y-81037642D01*
X133602187Y-81215974D01*
X133502104Y-81412393D01*
X133502103Y-81412396D01*
X133433985Y-81622047D01*
X133402606Y-81820166D01*
X133399500Y-81839778D01*
X133399500Y-82060222D01*
X133410796Y-82131541D01*
X133433985Y-82277952D01*
X133502103Y-82487603D01*
X133502104Y-82487606D01*
X133602187Y-82684025D01*
X133731752Y-82862358D01*
X133731756Y-82862363D01*
X133887636Y-83018243D01*
X133887641Y-83018247D01*
X134043192Y-83131260D01*
X134065978Y-83147815D01*
X134194375Y-83213237D01*
X134262393Y-83247895D01*
X134262396Y-83247896D01*
X134367221Y-83281955D01*
X134472049Y-83316015D01*
X134689778Y-83350500D01*
X134689779Y-83350500D01*
X134910221Y-83350500D01*
X134910222Y-83350500D01*
X135127951Y-83316015D01*
X135337606Y-83247895D01*
X135534022Y-83147815D01*
X135712365Y-83018242D01*
X135868242Y-82862365D01*
X135997815Y-82684022D01*
X136097895Y-82487606D01*
X136166015Y-82277951D01*
X136200500Y-82060222D01*
X136200500Y-81839778D01*
X136166015Y-81622049D01*
X136097895Y-81412394D01*
X136097895Y-81412393D01*
X136063237Y-81344375D01*
X135997815Y-81215978D01*
X135937629Y-81133138D01*
X135868248Y-81037642D01*
X135868244Y-81037638D01*
X135868242Y-81037635D01*
X135736818Y-80906211D01*
X135703334Y-80844888D01*
X135700500Y-80818530D01*
X135700500Y-71068905D01*
X136600000Y-71068905D01*
X136600000Y-71331094D01*
X136634220Y-71591009D01*
X136634222Y-71591020D01*
X136702075Y-71844255D01*
X136802404Y-72086471D01*
X136802409Y-72086482D01*
X136933488Y-72313516D01*
X136933494Y-72313524D01*
X137020080Y-72426365D01*
X137845884Y-71600561D01*
X137846740Y-71602626D01*
X137939762Y-71741844D01*
X138058156Y-71860238D01*
X138197374Y-71953260D01*
X138199437Y-71954114D01*
X137373633Y-72779917D01*
X137373633Y-72779918D01*
X137486475Y-72866505D01*
X137486483Y-72866511D01*
X137713517Y-72997590D01*
X137713528Y-72997595D01*
X137955744Y-73097924D01*
X138208979Y-73165777D01*
X138208990Y-73165779D01*
X138468905Y-73199999D01*
X138468920Y-73200000D01*
X138731080Y-73200000D01*
X138731094Y-73199999D01*
X138991009Y-73165779D01*
X138991020Y-73165777D01*
X139244255Y-73097924D01*
X139486471Y-72997595D01*
X139486482Y-72997590D01*
X139713516Y-72866511D01*
X139713534Y-72866499D01*
X139826365Y-72779919D01*
X139826365Y-72779917D01*
X139000562Y-71954114D01*
X139002626Y-71953260D01*
X139141844Y-71860238D01*
X139260238Y-71741844D01*
X139353260Y-71602626D01*
X139354114Y-71600562D01*
X140179917Y-72426365D01*
X140179919Y-72426365D01*
X140266499Y-72313534D01*
X140266511Y-72313516D01*
X140397590Y-72086482D01*
X140397595Y-72086471D01*
X140497924Y-71844255D01*
X140565777Y-71591020D01*
X140565779Y-71591009D01*
X140599999Y-71331094D01*
X140600000Y-71331080D01*
X140600000Y-71068919D01*
X140599999Y-71068905D01*
X140565779Y-70808990D01*
X140565777Y-70808979D01*
X140497924Y-70555744D01*
X140397595Y-70313528D01*
X140397590Y-70313517D01*
X140266511Y-70086483D01*
X140266505Y-70086475D01*
X140179918Y-69973633D01*
X140179917Y-69973633D01*
X139354114Y-70799436D01*
X139353260Y-70797374D01*
X139260238Y-70658156D01*
X139141844Y-70539762D01*
X139002626Y-70446740D01*
X139000560Y-70445884D01*
X139826365Y-69620080D01*
X139713524Y-69533494D01*
X139713516Y-69533488D01*
X139486482Y-69402409D01*
X139486471Y-69402404D01*
X139244255Y-69302075D01*
X138991020Y-69234222D01*
X138991009Y-69234220D01*
X138731094Y-69200000D01*
X138468905Y-69200000D01*
X138208990Y-69234220D01*
X138208979Y-69234222D01*
X137955744Y-69302075D01*
X137713528Y-69402404D01*
X137713517Y-69402409D01*
X137486471Y-69533496D01*
X137373633Y-69620079D01*
X137373633Y-69620080D01*
X138199438Y-70445885D01*
X138197374Y-70446740D01*
X138058156Y-70539762D01*
X137939762Y-70658156D01*
X137846740Y-70797374D01*
X137845885Y-70799438D01*
X137020080Y-69973633D01*
X137020079Y-69973633D01*
X136933496Y-70086471D01*
X136802409Y-70313517D01*
X136802404Y-70313528D01*
X136702075Y-70555744D01*
X136634222Y-70808979D01*
X136634220Y-70808990D01*
X136600000Y-71068905D01*
X135700500Y-71068905D01*
X135700500Y-70824361D01*
X135720185Y-70757322D01*
X135736819Y-70736680D01*
X138486680Y-67986819D01*
X138548003Y-67953334D01*
X138574361Y-67950500D01*
X139662744Y-67950500D01*
X139729783Y-67970185D01*
X139763060Y-68001612D01*
X139794376Y-68044715D01*
X139829207Y-68092656D01*
X140007345Y-68270794D01*
X140007350Y-68270798D01*
X140042882Y-68296613D01*
X140211155Y-68418870D01*
X140354184Y-68491747D01*
X140435616Y-68533239D01*
X140435618Y-68533239D01*
X140435621Y-68533241D01*
X140675215Y-68611090D01*
X140924038Y-68650500D01*
X140924039Y-68650500D01*
X141175961Y-68650500D01*
X141175962Y-68650500D01*
X141424785Y-68611090D01*
X141664379Y-68533241D01*
X141888845Y-68418870D01*
X142092656Y-68270793D01*
X142270793Y-68092656D01*
X142336939Y-68001613D01*
X142392267Y-67958949D01*
X142437256Y-67950500D01*
X142825501Y-67950500D01*
X142892540Y-67970185D01*
X142938295Y-68022989D01*
X142949501Y-68074500D01*
X142949501Y-68197876D01*
X142955908Y-68257483D01*
X143006202Y-68392328D01*
X143006206Y-68392335D01*
X143092452Y-68507544D01*
X143092455Y-68507547D01*
X143207664Y-68593793D01*
X143207671Y-68593797D01*
X143342517Y-68644091D01*
X143342516Y-68644091D01*
X143349444Y-68644835D01*
X143402127Y-68650500D01*
X145697872Y-68650499D01*
X145757483Y-68644091D01*
X145892331Y-68593796D01*
X146007546Y-68507546D01*
X146093796Y-68392331D01*
X146144091Y-68257483D01*
X146150500Y-68197873D01*
X146150500Y-68074500D01*
X146170185Y-68007461D01*
X146222989Y-67961706D01*
X146274500Y-67950500D01*
X152112744Y-67950500D01*
X152179783Y-67970185D01*
X152213060Y-68001612D01*
X152244376Y-68044715D01*
X152279207Y-68092656D01*
X152457345Y-68270794D01*
X152457350Y-68270798D01*
X152492882Y-68296613D01*
X152661155Y-68418870D01*
X152804184Y-68491747D01*
X152885616Y-68533239D01*
X152885618Y-68533239D01*
X152885621Y-68533241D01*
X153125215Y-68611090D01*
X153374038Y-68650500D01*
X153374039Y-68650500D01*
X153625961Y-68650500D01*
X153625962Y-68650500D01*
X153874785Y-68611090D01*
X154114379Y-68533241D01*
X154338845Y-68418870D01*
X154542656Y-68270793D01*
X154720793Y-68092656D01*
X154786939Y-68001613D01*
X154842267Y-67958949D01*
X154887256Y-67950500D01*
X155514236Y-67950500D01*
X155581275Y-67970185D01*
X155627030Y-68022989D01*
X155630418Y-68031167D01*
X155681202Y-68167328D01*
X155681206Y-68167335D01*
X155767452Y-68282544D01*
X155767455Y-68282547D01*
X155882664Y-68368793D01*
X155882671Y-68368797D01*
X156017517Y-68419091D01*
X156017516Y-68419091D01*
X156024444Y-68419835D01*
X156077127Y-68425500D01*
X157050637Y-68425499D01*
X157117676Y-68445183D01*
X157138318Y-68461818D01*
X158224958Y-69548459D01*
X158224961Y-69548461D01*
X158224964Y-69548464D01*
X158249208Y-69564663D01*
X158249209Y-69564664D01*
X158332145Y-69620080D01*
X158372453Y-69647013D01*
X158454393Y-69680953D01*
X158536334Y-69714895D01*
X158700077Y-69747465D01*
X158710303Y-69749499D01*
X158710307Y-69749500D01*
X158710308Y-69749500D01*
X158710309Y-69749500D01*
X159574638Y-69749500D01*
X159641677Y-69769185D01*
X159662319Y-69785819D01*
X160155413Y-70278913D01*
X160188898Y-70340236D01*
X160183914Y-70409928D01*
X160142042Y-70465861D01*
X160076578Y-70490278D01*
X160035639Y-70486369D01*
X159841020Y-70434222D01*
X159841009Y-70434220D01*
X159581094Y-70400000D01*
X159318905Y-70400000D01*
X159058990Y-70434220D01*
X159058979Y-70434222D01*
X158805744Y-70502075D01*
X158563528Y-70602404D01*
X158563517Y-70602409D01*
X158336471Y-70733496D01*
X158223633Y-70820079D01*
X158223633Y-70820080D01*
X159049438Y-71645884D01*
X159047374Y-71646740D01*
X158908156Y-71739762D01*
X158789762Y-71858156D01*
X158696740Y-71997374D01*
X158695885Y-71999438D01*
X157870080Y-71173633D01*
X157870079Y-71173633D01*
X157783494Y-71286474D01*
X157694769Y-71440147D01*
X157644202Y-71488362D01*
X157575595Y-71501584D01*
X157510730Y-71475616D01*
X157487065Y-71451031D01*
X157440798Y-71387350D01*
X157440794Y-71387345D01*
X157262654Y-71209205D01*
X157262649Y-71209201D01*
X157058848Y-71061132D01*
X157058847Y-71061131D01*
X157058845Y-71061130D01*
X156988747Y-71025413D01*
X156834383Y-70946760D01*
X156594785Y-70868910D01*
X156345962Y-70829500D01*
X156094038Y-70829500D01*
X155987046Y-70846446D01*
X155845214Y-70868910D01*
X155605616Y-70946760D01*
X155381151Y-71061132D01*
X155177350Y-71209201D01*
X155177345Y-71209205D01*
X154999205Y-71387345D01*
X154999201Y-71387350D01*
X154851132Y-71591151D01*
X154736760Y-71815616D01*
X154658910Y-72055214D01*
X154619500Y-72304038D01*
X154619500Y-72555961D01*
X154658910Y-72804785D01*
X154736760Y-73044383D01*
X154798614Y-73165777D01*
X154848542Y-73263766D01*
X154851132Y-73268848D01*
X154999201Y-73472649D01*
X154999205Y-73472654D01*
X154999207Y-73472656D01*
X155177344Y-73650793D01*
X155268386Y-73716939D01*
X155311051Y-73772267D01*
X155319500Y-73817256D01*
X155319500Y-81646196D01*
X155354103Y-81820158D01*
X155354105Y-81820166D01*
X155388046Y-81902106D01*
X155421987Y-81984047D01*
X155472886Y-82060222D01*
X155476223Y-82065216D01*
X155476224Y-82065218D01*
X155520537Y-82131538D01*
X155520540Y-82131541D01*
X166882652Y-93493651D01*
X166916137Y-93554974D01*
X166914746Y-93613424D01*
X166902810Y-93657971D01*
X166902806Y-93657989D01*
X166872001Y-93891979D01*
X166872000Y-93891995D01*
X166872000Y-94128004D01*
X166872001Y-94128020D01*
X166902806Y-94362010D01*
X166963894Y-94589993D01*
X167054214Y-94808045D01*
X167054219Y-94808056D01*
X167125177Y-94930957D01*
X167172227Y-95012450D01*
X167172229Y-95012453D01*
X167172230Y-95012454D01*
X167315906Y-95199697D01*
X167315912Y-95199704D01*
X167482795Y-95366587D01*
X167482801Y-95366592D01*
X167670050Y-95510273D01*
X167767991Y-95566819D01*
X167874443Y-95628280D01*
X167874448Y-95628282D01*
X167874451Y-95628284D01*
X168092507Y-95718606D01*
X168320486Y-95779693D01*
X168554489Y-95810500D01*
X168554496Y-95810500D01*
X168790504Y-95810500D01*
X168790511Y-95810500D01*
X169024514Y-95779693D01*
X169069073Y-95767753D01*
X169138922Y-95769416D01*
X169188847Y-95799847D01*
X170713181Y-97324181D01*
X170746666Y-97385504D01*
X170749500Y-97411862D01*
X170749500Y-99275637D01*
X170729815Y-99342676D01*
X170713181Y-99363318D01*
X170671339Y-99405160D01*
X170610016Y-99438645D01*
X170540324Y-99433661D01*
X170484391Y-99391789D01*
X170459974Y-99326325D01*
X170460719Y-99301293D01*
X170472999Y-99208018D01*
X170473000Y-99208011D01*
X170473000Y-98971989D01*
X170442193Y-98737986D01*
X170381106Y-98510007D01*
X170290784Y-98291951D01*
X170290782Y-98291948D01*
X170290780Y-98291943D01*
X170248618Y-98218918D01*
X170172773Y-98087550D01*
X170029092Y-97900301D01*
X170029087Y-97900295D01*
X169862204Y-97733412D01*
X169862197Y-97733406D01*
X169674954Y-97589730D01*
X169674953Y-97589729D01*
X169674950Y-97589727D01*
X169571656Y-97530090D01*
X169470556Y-97471719D01*
X169470545Y-97471714D01*
X169252493Y-97381394D01*
X169024510Y-97320306D01*
X168790520Y-97289501D01*
X168790517Y-97289500D01*
X168790511Y-97289500D01*
X168554489Y-97289500D01*
X168554483Y-97289500D01*
X168554479Y-97289501D01*
X168320489Y-97320306D01*
X168320471Y-97320310D01*
X168275924Y-97332246D01*
X168206074Y-97330583D01*
X168156151Y-97300152D01*
X144875646Y-74019646D01*
X144738164Y-73882164D01*
X144704679Y-73820841D01*
X144709663Y-73751149D01*
X144751535Y-73695216D01*
X144752915Y-73694197D01*
X144812656Y-73650793D01*
X144990793Y-73472656D01*
X145056368Y-73382399D01*
X145111695Y-73339734D01*
X145181309Y-73333754D01*
X145243104Y-73366360D01*
X145264072Y-73393284D01*
X145333493Y-73513523D01*
X145333494Y-73513524D01*
X145420080Y-73626365D01*
X146245884Y-72800561D01*
X146246740Y-72802626D01*
X146339762Y-72941844D01*
X146458156Y-73060238D01*
X146597374Y-73153260D01*
X146599437Y-73154114D01*
X145773633Y-73979917D01*
X145773633Y-73979918D01*
X145886475Y-74066505D01*
X145886483Y-74066511D01*
X146113517Y-74197590D01*
X146113528Y-74197595D01*
X146355744Y-74297924D01*
X146608979Y-74365777D01*
X146608990Y-74365779D01*
X146868905Y-74399999D01*
X146868920Y-74400000D01*
X147131080Y-74400000D01*
X147131094Y-74399999D01*
X147391009Y-74365779D01*
X147391020Y-74365777D01*
X147644255Y-74297924D01*
X147886471Y-74197595D01*
X147886482Y-74197590D01*
X148113516Y-74066511D01*
X148113534Y-74066499D01*
X148226365Y-73979919D01*
X148226365Y-73979917D01*
X147400562Y-73154114D01*
X147402626Y-73153260D01*
X147541844Y-73060238D01*
X147660238Y-72941844D01*
X147753260Y-72802626D01*
X147754114Y-72800562D01*
X148579917Y-73626365D01*
X148579919Y-73626365D01*
X148666499Y-73513534D01*
X148666511Y-73513516D01*
X148797590Y-73286482D01*
X148797595Y-73286471D01*
X148897924Y-73044255D01*
X148965777Y-72791020D01*
X148965780Y-72791007D01*
X148975684Y-72715780D01*
X148975684Y-72715779D01*
X148999999Y-72531094D01*
X149000000Y-72531080D01*
X149000000Y-72268919D01*
X148999999Y-72268905D01*
X148970126Y-72042007D01*
X148980891Y-71972972D01*
X149027271Y-71920716D01*
X149094540Y-71901830D01*
X149161340Y-71922310D01*
X149206464Y-71975655D01*
X149207626Y-71978368D01*
X149252404Y-72086470D01*
X149252409Y-72086482D01*
X149383488Y-72313516D01*
X149383494Y-72313524D01*
X149470080Y-72426365D01*
X150295884Y-71600561D01*
X150296740Y-71602626D01*
X150389762Y-71741844D01*
X150508156Y-71860238D01*
X150647374Y-71953260D01*
X150649437Y-71954114D01*
X149823633Y-72779917D01*
X149823633Y-72779918D01*
X149936475Y-72866505D01*
X149936483Y-72866511D01*
X150163517Y-72997590D01*
X150163528Y-72997595D01*
X150405744Y-73097924D01*
X150658979Y-73165777D01*
X150658990Y-73165779D01*
X150918905Y-73199999D01*
X150918920Y-73200000D01*
X151181080Y-73200000D01*
X151181094Y-73199999D01*
X151441009Y-73165779D01*
X151441020Y-73165777D01*
X151694255Y-73097924D01*
X151936471Y-72997595D01*
X151936482Y-72997590D01*
X152163516Y-72866511D01*
X152163534Y-72866499D01*
X152276365Y-72779919D01*
X152276365Y-72779917D01*
X151450562Y-71954114D01*
X151452626Y-71953260D01*
X151591844Y-71860238D01*
X151710238Y-71741844D01*
X151803260Y-71602626D01*
X151804114Y-71600562D01*
X152629917Y-72426365D01*
X152629919Y-72426365D01*
X152716499Y-72313534D01*
X152716511Y-72313516D01*
X152847590Y-72086482D01*
X152847595Y-72086471D01*
X152947924Y-71844255D01*
X153015777Y-71591020D01*
X153015779Y-71591009D01*
X153049999Y-71331094D01*
X153050000Y-71331080D01*
X153050000Y-71068919D01*
X153049999Y-71068905D01*
X153015779Y-70808990D01*
X153015777Y-70808979D01*
X152947924Y-70555744D01*
X152847595Y-70313528D01*
X152847590Y-70313517D01*
X152716511Y-70086483D01*
X152716505Y-70086475D01*
X152629918Y-69973633D01*
X152629917Y-69973633D01*
X151804114Y-70799436D01*
X151803260Y-70797374D01*
X151710238Y-70658156D01*
X151591844Y-70539762D01*
X151452626Y-70446740D01*
X151450560Y-70445884D01*
X152276365Y-69620080D01*
X152163524Y-69533494D01*
X152163516Y-69533488D01*
X151936482Y-69402409D01*
X151936471Y-69402404D01*
X151694255Y-69302075D01*
X151441020Y-69234222D01*
X151441009Y-69234220D01*
X151181094Y-69200000D01*
X150918905Y-69200000D01*
X150658990Y-69234220D01*
X150658979Y-69234222D01*
X150405744Y-69302075D01*
X150163528Y-69402404D01*
X150163517Y-69402409D01*
X149936471Y-69533496D01*
X149823633Y-69620079D01*
X149823633Y-69620080D01*
X150649438Y-70445885D01*
X150647374Y-70446740D01*
X150508156Y-70539762D01*
X150389762Y-70658156D01*
X150296740Y-70797374D01*
X150295885Y-70799438D01*
X149470080Y-69973633D01*
X149470079Y-69973633D01*
X149383496Y-70086471D01*
X149252409Y-70313517D01*
X149252404Y-70313528D01*
X149152075Y-70555744D01*
X149084222Y-70808979D01*
X149084220Y-70808990D01*
X149050000Y-71068905D01*
X149050000Y-71331094D01*
X149079873Y-71557992D01*
X149069108Y-71627028D01*
X149022728Y-71679284D01*
X148955459Y-71698169D01*
X148888658Y-71677688D01*
X148843535Y-71624344D01*
X148842373Y-71621631D01*
X148797595Y-71513528D01*
X148797590Y-71513517D01*
X148666511Y-71286483D01*
X148666505Y-71286475D01*
X148579918Y-71173633D01*
X148579917Y-71173633D01*
X147754114Y-71999436D01*
X147753260Y-71997374D01*
X147660238Y-71858156D01*
X147541844Y-71739762D01*
X147402626Y-71646740D01*
X147400560Y-71645884D01*
X148226365Y-70820080D01*
X148113524Y-70733494D01*
X148113516Y-70733488D01*
X147886482Y-70602409D01*
X147886471Y-70602404D01*
X147644255Y-70502075D01*
X147391020Y-70434222D01*
X147391009Y-70434220D01*
X147131094Y-70400000D01*
X146868905Y-70400000D01*
X146608990Y-70434220D01*
X146608979Y-70434222D01*
X146355744Y-70502075D01*
X146113528Y-70602404D01*
X146113517Y-70602409D01*
X145886471Y-70733496D01*
X145773633Y-70820079D01*
X145773633Y-70820080D01*
X146599438Y-71645885D01*
X146597374Y-71646740D01*
X146458156Y-71739762D01*
X146339762Y-71858156D01*
X146246740Y-71997374D01*
X146245885Y-71999438D01*
X145420080Y-71173633D01*
X145420079Y-71173633D01*
X145333494Y-71286474D01*
X145244769Y-71440147D01*
X145194202Y-71488362D01*
X145125595Y-71501584D01*
X145060730Y-71475616D01*
X145037065Y-71451031D01*
X144990798Y-71387350D01*
X144990794Y-71387345D01*
X144812654Y-71209205D01*
X144812649Y-71209201D01*
X144608848Y-71061132D01*
X144608847Y-71061131D01*
X144608845Y-71061130D01*
X144446710Y-70978518D01*
X144384383Y-70946760D01*
X144144785Y-70868910D01*
X143895962Y-70829500D01*
X143644038Y-70829500D01*
X143537046Y-70846446D01*
X143395214Y-70868910D01*
X143155616Y-70946760D01*
X142931151Y-71061132D01*
X142727350Y-71209201D01*
X142727345Y-71209205D01*
X142549205Y-71387345D01*
X142549201Y-71387350D01*
X142401132Y-71591151D01*
X142286760Y-71815616D01*
X142208910Y-72055214D01*
X142169500Y-72304038D01*
X142169500Y-72555967D01*
X142187103Y-72667108D01*
X142178148Y-72736402D01*
X142152311Y-72774187D01*
X141110537Y-73815961D01*
X141072826Y-73872401D01*
X141071063Y-73875040D01*
X141011987Y-73963453D01*
X141000540Y-73991090D01*
X140997096Y-73999404D01*
X140997095Y-73999406D01*
X140944105Y-74127333D01*
X140944103Y-74127341D01*
X140914495Y-74276189D01*
X140914496Y-74276190D01*
X140909500Y-74301308D01*
X140909500Y-119042742D01*
X140889815Y-119109781D01*
X140858387Y-119143059D01*
X140767344Y-119209206D01*
X140589205Y-119387345D01*
X140589201Y-119387350D01*
X140441132Y-119591151D01*
X140326760Y-119815618D01*
X140248909Y-120055217D01*
X140245910Y-120074154D01*
X140215980Y-120137288D01*
X140211118Y-120142435D01*
X139354114Y-120999438D01*
X139353260Y-120997374D01*
X139260238Y-120858156D01*
X139141844Y-120739762D01*
X139002626Y-120646740D01*
X139000561Y-120645884D01*
X139897686Y-119748758D01*
X139769196Y-119650163D01*
X139530802Y-119512527D01*
X139530787Y-119512520D01*
X139276471Y-119407180D01*
X139010565Y-119335930D01*
X138737642Y-119300000D01*
X138462358Y-119300000D01*
X138189434Y-119335930D01*
X137923528Y-119407180D01*
X137669212Y-119512520D01*
X137669197Y-119512527D01*
X137430799Y-119650166D01*
X137302312Y-119748757D01*
X137302312Y-119748758D01*
X138199438Y-120645884D01*
X138197374Y-120646740D01*
X138058156Y-120739762D01*
X137939762Y-120858156D01*
X137846740Y-120997374D01*
X137845884Y-120999438D01*
X136948758Y-120102312D01*
X136948757Y-120102312D01*
X136850166Y-120230799D01*
X136712527Y-120469197D01*
X136712520Y-120469212D01*
X136607180Y-120723528D01*
X136535930Y-120989434D01*
X136500000Y-121262358D01*
X136500000Y-121537641D01*
X136535930Y-121810565D01*
X136607180Y-122076471D01*
X136712520Y-122330787D01*
X136712527Y-122330802D01*
X136850163Y-122569196D01*
X136948758Y-122697686D01*
X137845884Y-121800560D01*
X137846740Y-121802626D01*
X137939762Y-121941844D01*
X138058156Y-122060238D01*
X138197374Y-122153260D01*
X138199438Y-122154115D01*
X137302312Y-123051240D01*
X137430804Y-123149836D01*
X137669197Y-123287472D01*
X137669212Y-123287479D01*
X137923528Y-123392819D01*
X138189434Y-123464069D01*
X138462358Y-123500000D01*
X138737642Y-123500000D01*
X139010565Y-123464069D01*
X139276471Y-123392819D01*
X139530787Y-123287479D01*
X139530802Y-123287472D01*
X139769194Y-123149836D01*
X139769211Y-123149825D01*
X139897686Y-123051241D01*
X139897686Y-123051239D01*
X139000561Y-122154115D01*
X139002626Y-122153260D01*
X139141844Y-122060238D01*
X139260238Y-121941844D01*
X139353260Y-121802626D01*
X139354115Y-121800561D01*
X140251239Y-122697686D01*
X140251241Y-122697686D01*
X140349825Y-122569211D01*
X140349836Y-122569194D01*
X140487472Y-122330802D01*
X140487479Y-122330787D01*
X140592819Y-122076471D01*
X140664067Y-121810570D01*
X140665077Y-121802904D01*
X140693342Y-121739006D01*
X140751665Y-121700533D01*
X140821529Y-121699699D01*
X140860902Y-121718767D01*
X140888759Y-121739006D01*
X140971155Y-121798870D01*
X141114184Y-121871747D01*
X141195616Y-121913239D01*
X141195618Y-121913239D01*
X141195621Y-121913241D01*
X141435215Y-121991090D01*
X141684038Y-122030500D01*
X141684039Y-122030500D01*
X141935961Y-122030500D01*
X141935962Y-122030500D01*
X142184785Y-121991090D01*
X142424379Y-121913241D01*
X142648845Y-121798870D01*
X142711217Y-121753554D01*
X142780842Y-121702970D01*
X142852649Y-121650798D01*
X142852647Y-121650798D01*
X142852656Y-121650793D01*
X143030793Y-121472656D01*
X143178870Y-121268845D01*
X143293241Y-121044379D01*
X143371090Y-120804785D01*
X143410500Y-120555962D01*
X143410500Y-120304038D01*
X143380762Y-120116282D01*
X143374651Y-120077698D01*
X143374651Y-120077697D01*
X143371090Y-120055215D01*
X143371090Y-120055214D01*
X143316542Y-119887334D01*
X143293241Y-119815621D01*
X143293239Y-119815618D01*
X143293239Y-119815616D01*
X143251747Y-119734184D01*
X143178870Y-119591155D01*
X143121744Y-119512527D01*
X143030798Y-119387350D01*
X143030794Y-119387345D01*
X142852655Y-119209206D01*
X142761613Y-119143059D01*
X142718948Y-119087729D01*
X142710500Y-119042742D01*
X142710500Y-74814361D01*
X142719143Y-74784924D01*
X142725667Y-74754935D01*
X142729422Y-74749917D01*
X142730185Y-74747322D01*
X142746813Y-74726685D01*
X142820075Y-74653423D01*
X142881394Y-74619941D01*
X142951086Y-74624925D01*
X143007020Y-74666796D01*
X143010846Y-74672203D01*
X143047246Y-74726680D01*
X143070537Y-74761538D01*
X143070538Y-74761539D01*
X166882652Y-98573651D01*
X166916137Y-98634974D01*
X166914746Y-98693424D01*
X166902810Y-98737971D01*
X166902806Y-98737989D01*
X166872001Y-98971979D01*
X166872000Y-98971995D01*
X166872000Y-99208004D01*
X166872001Y-99208020D01*
X166902806Y-99442010D01*
X166963894Y-99669993D01*
X167054214Y-99888045D01*
X167054219Y-99888056D01*
X167125177Y-100010957D01*
X167172227Y-100092450D01*
X167172229Y-100092453D01*
X167172230Y-100092454D01*
X167315906Y-100279697D01*
X167315912Y-100279704D01*
X167482795Y-100446587D01*
X167482802Y-100446593D01*
X167652914Y-100577124D01*
X167694117Y-100633552D01*
X167698272Y-100703298D01*
X167664060Y-100764218D01*
X167602343Y-100796971D01*
X167577428Y-100799500D01*
X165802342Y-100799500D01*
X165628377Y-100834103D01*
X165628361Y-100834108D01*
X165512491Y-100882102D01*
X165512492Y-100882103D01*
X165464492Y-100901986D01*
X165346956Y-100980522D01*
X165346955Y-100980523D01*
X165317000Y-101000537D01*
X165316999Y-101000538D01*
X153560538Y-112756998D01*
X153560537Y-112756999D01*
X153533200Y-112797914D01*
X153533199Y-112797915D01*
X153461985Y-112904493D01*
X153428046Y-112986431D01*
X153394107Y-113068365D01*
X153394105Y-113068371D01*
X153394105Y-113068372D01*
X153360563Y-113237003D01*
X153359500Y-113242347D01*
X153359500Y-113242348D01*
X153359500Y-119042742D01*
X153339815Y-119109781D01*
X153308387Y-119143059D01*
X153217344Y-119209206D01*
X153039205Y-119387345D01*
X153039201Y-119387350D01*
X152891132Y-119591151D01*
X152776760Y-119815618D01*
X152698909Y-120055217D01*
X152695910Y-120074154D01*
X152665980Y-120137288D01*
X152661118Y-120142435D01*
X151804114Y-120999438D01*
X151803260Y-120997374D01*
X151710238Y-120858156D01*
X151591844Y-120739762D01*
X151452626Y-120646740D01*
X151450561Y-120645884D01*
X152347686Y-119748758D01*
X152219196Y-119650163D01*
X151980802Y-119512527D01*
X151980787Y-119512520D01*
X151726471Y-119407180D01*
X151460565Y-119335930D01*
X151187642Y-119300000D01*
X150912358Y-119300000D01*
X150639434Y-119335930D01*
X150373528Y-119407180D01*
X150119212Y-119512520D01*
X150119197Y-119512527D01*
X149880799Y-119650166D01*
X149752312Y-119748757D01*
X149752312Y-119748758D01*
X150649438Y-120645884D01*
X150647374Y-120646740D01*
X150508156Y-120739762D01*
X150389762Y-120858156D01*
X150296740Y-120997374D01*
X150295884Y-120999438D01*
X149398758Y-120102312D01*
X149398757Y-120102312D01*
X149322376Y-120201855D01*
X149265948Y-120243058D01*
X149196202Y-120247213D01*
X149135282Y-120213001D01*
X149102529Y-120151284D01*
X149100000Y-120126369D01*
X149100000Y-120062358D01*
X149067158Y-119812896D01*
X149064069Y-119789434D01*
X148992819Y-119523528D01*
X148887479Y-119269212D01*
X148887472Y-119269197D01*
X148749836Y-119030804D01*
X148651240Y-118902312D01*
X147754114Y-119799437D01*
X147753260Y-119797374D01*
X147660238Y-119658156D01*
X147541844Y-119539762D01*
X147402626Y-119446740D01*
X147400561Y-119445884D01*
X148297686Y-118548758D01*
X148169196Y-118450163D01*
X147930802Y-118312527D01*
X147930787Y-118312520D01*
X147676471Y-118207180D01*
X147410565Y-118135930D01*
X147137642Y-118100000D01*
X146862358Y-118100000D01*
X146589434Y-118135930D01*
X146323528Y-118207180D01*
X146069212Y-118312520D01*
X146069197Y-118312527D01*
X145830799Y-118450166D01*
X145702312Y-118548757D01*
X145702312Y-118548758D01*
X146599438Y-119445884D01*
X146597374Y-119446740D01*
X146458156Y-119539762D01*
X146339762Y-119658156D01*
X146246740Y-119797374D01*
X146245884Y-119799438D01*
X145348758Y-118902312D01*
X145348757Y-118902312D01*
X145250166Y-119030799D01*
X145112527Y-119269197D01*
X145112520Y-119269212D01*
X145007180Y-119523528D01*
X144935930Y-119789434D01*
X144900000Y-120062358D01*
X144900000Y-120337641D01*
X144935930Y-120610565D01*
X145007180Y-120876471D01*
X145112520Y-121130787D01*
X145112527Y-121130802D01*
X145250163Y-121369196D01*
X145348758Y-121497686D01*
X146245884Y-120600560D01*
X146246740Y-120602626D01*
X146339762Y-120741844D01*
X146458156Y-120860238D01*
X146597374Y-120953260D01*
X146599438Y-120954115D01*
X145702312Y-121851240D01*
X145830804Y-121949836D01*
X146069197Y-122087472D01*
X146069212Y-122087479D01*
X146323528Y-122192819D01*
X146589434Y-122264069D01*
X146862358Y-122300000D01*
X147137642Y-122300000D01*
X147410565Y-122264069D01*
X147676471Y-122192819D01*
X147930787Y-122087479D01*
X147930802Y-122087472D01*
X148169194Y-121949836D01*
X148169211Y-121949825D01*
X148297686Y-121851241D01*
X148297686Y-121851239D01*
X147400561Y-120954115D01*
X147402626Y-120953260D01*
X147541844Y-120860238D01*
X147660238Y-120741844D01*
X147753260Y-120602626D01*
X147754114Y-120600561D01*
X148651239Y-121497686D01*
X148651241Y-121497686D01*
X148727625Y-121398143D01*
X148784053Y-121356941D01*
X148853799Y-121352786D01*
X148914719Y-121386999D01*
X148947471Y-121448716D01*
X148950000Y-121473630D01*
X148950000Y-121537641D01*
X148985930Y-121810565D01*
X149057180Y-122076471D01*
X149162520Y-122330787D01*
X149162527Y-122330802D01*
X149300163Y-122569196D01*
X149398758Y-122697686D01*
X150295884Y-121800560D01*
X150296740Y-121802626D01*
X150389762Y-121941844D01*
X150508156Y-122060238D01*
X150647374Y-122153260D01*
X150649438Y-122154115D01*
X149752312Y-123051240D01*
X149880804Y-123149836D01*
X150119197Y-123287472D01*
X150119212Y-123287479D01*
X150373528Y-123392819D01*
X150639434Y-123464069D01*
X150912358Y-123500000D01*
X151187642Y-123500000D01*
X151460565Y-123464069D01*
X151726471Y-123392819D01*
X151980787Y-123287479D01*
X151980802Y-123287472D01*
X152219194Y-123149836D01*
X152219211Y-123149825D01*
X152347686Y-123051241D01*
X152347686Y-123051239D01*
X151450561Y-122154115D01*
X151452626Y-122153260D01*
X151591844Y-122060238D01*
X151710238Y-121941844D01*
X151803260Y-121802626D01*
X151804114Y-121800561D01*
X152701239Y-122697686D01*
X152701241Y-122697686D01*
X152799825Y-122569211D01*
X152799836Y-122569194D01*
X152937472Y-122330802D01*
X152937479Y-122330787D01*
X153042819Y-122076471D01*
X153114067Y-121810570D01*
X153115077Y-121802904D01*
X153143342Y-121739006D01*
X153201665Y-121700533D01*
X153271529Y-121699699D01*
X153310902Y-121718767D01*
X153338759Y-121739006D01*
X153421155Y-121798870D01*
X153564184Y-121871747D01*
X153645616Y-121913239D01*
X153645618Y-121913239D01*
X153645621Y-121913241D01*
X153885215Y-121991090D01*
X154134038Y-122030500D01*
X154134039Y-122030500D01*
X154385961Y-122030500D01*
X154385962Y-122030500D01*
X154634785Y-121991090D01*
X154874379Y-121913241D01*
X155098845Y-121798870D01*
X155105218Y-121794239D01*
X155181760Y-121738630D01*
X155302649Y-121650798D01*
X155302647Y-121650798D01*
X155302656Y-121650793D01*
X155480793Y-121472656D01*
X155628870Y-121268845D01*
X155743241Y-121044379D01*
X155821090Y-120804785D01*
X155860500Y-120555962D01*
X155860500Y-120304038D01*
X155830762Y-120116282D01*
X155824132Y-120074421D01*
X155824132Y-120074420D01*
X155821703Y-120059088D01*
X157300000Y-120059088D01*
X157300000Y-120340911D01*
X157300001Y-120340928D01*
X157336786Y-120620340D01*
X157409733Y-120892582D01*
X157517584Y-121152957D01*
X157517589Y-121152968D01*
X157658500Y-121397031D01*
X157658511Y-121397047D01*
X157763097Y-121533347D01*
X157763098Y-121533347D01*
X158695884Y-120600561D01*
X158696740Y-120602626D01*
X158789762Y-120741844D01*
X158908156Y-120860238D01*
X159047374Y-120953260D01*
X159049437Y-120954114D01*
X158116651Y-121886900D01*
X158116651Y-121886902D01*
X158252952Y-121991488D01*
X158252968Y-121991499D01*
X158497031Y-122132410D01*
X158497042Y-122132415D01*
X158757417Y-122240266D01*
X159029659Y-122313213D01*
X159309071Y-122349998D01*
X159309089Y-122350000D01*
X159590911Y-122350000D01*
X159590928Y-122349998D01*
X159870340Y-122313213D01*
X160142582Y-122240266D01*
X160402957Y-122132415D01*
X160402968Y-122132410D01*
X160647031Y-121991499D01*
X160647039Y-121991493D01*
X160783347Y-121886900D01*
X159850561Y-120954114D01*
X159852626Y-120953260D01*
X159991844Y-120860238D01*
X160110238Y-120741844D01*
X160203260Y-120602626D01*
X160204114Y-120600561D01*
X161136900Y-121533347D01*
X161241493Y-121397039D01*
X161241499Y-121397031D01*
X161382410Y-121152968D01*
X161382415Y-121152957D01*
X161490266Y-120892582D01*
X161563213Y-120620340D01*
X161599998Y-120340928D01*
X161600000Y-120340911D01*
X161600000Y-120059088D01*
X161599998Y-120059071D01*
X161563213Y-119779659D01*
X161490266Y-119507417D01*
X161382415Y-119247042D01*
X161382410Y-119247031D01*
X161241499Y-119002968D01*
X161241488Y-119002952D01*
X161136902Y-118866651D01*
X161136900Y-118866651D01*
X160204114Y-119799437D01*
X160203260Y-119797374D01*
X160110238Y-119658156D01*
X159991844Y-119539762D01*
X159852626Y-119446740D01*
X159850560Y-119445884D01*
X160783347Y-118513098D01*
X160783347Y-118513097D01*
X160647047Y-118408511D01*
X160647031Y-118408500D01*
X160402968Y-118267589D01*
X160402957Y-118267584D01*
X160142582Y-118159733D01*
X159870340Y-118086786D01*
X159590928Y-118050001D01*
X159590911Y-118050000D01*
X159309089Y-118050000D01*
X159309071Y-118050001D01*
X159029659Y-118086786D01*
X158757417Y-118159733D01*
X158497042Y-118267584D01*
X158497038Y-118267586D01*
X158252962Y-118408505D01*
X158252955Y-118408510D01*
X158116651Y-118513097D01*
X158116651Y-118513098D01*
X159049438Y-119445885D01*
X159047374Y-119446740D01*
X158908156Y-119539762D01*
X158789762Y-119658156D01*
X158696740Y-119797374D01*
X158695885Y-119799438D01*
X157763098Y-118866651D01*
X157763097Y-118866651D01*
X157658510Y-119002955D01*
X157658505Y-119002962D01*
X157517586Y-119247038D01*
X157517584Y-119247042D01*
X157409733Y-119507417D01*
X157336786Y-119779659D01*
X157300001Y-120059071D01*
X157300000Y-120059088D01*
X155821703Y-120059088D01*
X155821090Y-120055215D01*
X155821090Y-120055214D01*
X155766542Y-119887334D01*
X155743241Y-119815621D01*
X155743239Y-119815618D01*
X155743239Y-119815616D01*
X155701747Y-119734184D01*
X155628870Y-119591155D01*
X155571744Y-119512527D01*
X155480798Y-119387350D01*
X155480794Y-119387345D01*
X155302655Y-119209206D01*
X155211613Y-119143059D01*
X155168948Y-119087729D01*
X155160500Y-119042742D01*
X155160500Y-114265186D01*
X167899500Y-114265186D01*
X167899500Y-114534813D01*
X167929686Y-114802719D01*
X167929688Y-114802731D01*
X167989684Y-115065594D01*
X167989687Y-115065602D01*
X168078734Y-115320082D01*
X168195714Y-115562994D01*
X168195716Y-115562997D01*
X168339162Y-115791289D01*
X168464573Y-115948549D01*
X168479342Y-115967070D01*
X168507266Y-116002085D01*
X168697915Y-116192734D01*
X168908711Y-116360838D01*
X169137003Y-116504284D01*
X169379921Y-116621267D01*
X169571049Y-116688145D01*
X169634397Y-116710312D01*
X169634405Y-116710315D01*
X169634408Y-116710315D01*
X169634409Y-116710316D01*
X169897268Y-116770312D01*
X170165187Y-116800499D01*
X170165188Y-116800500D01*
X170165191Y-116800500D01*
X170434812Y-116800500D01*
X170434812Y-116800499D01*
X170702732Y-116770312D01*
X170965591Y-116710316D01*
X171220079Y-116621267D01*
X171462997Y-116504284D01*
X171691289Y-116360838D01*
X171902085Y-116192734D01*
X172092734Y-116002085D01*
X172260838Y-115791289D01*
X172404284Y-115562997D01*
X172521267Y-115320079D01*
X172610316Y-115065591D01*
X172670312Y-114802732D01*
X172700500Y-114534809D01*
X172700500Y-114265191D01*
X172670312Y-113997268D01*
X172610316Y-113734409D01*
X172599688Y-113704037D01*
X172586980Y-113667718D01*
X172521267Y-113479921D01*
X172404284Y-113237003D01*
X172260838Y-113008711D01*
X172092734Y-112797915D01*
X171902085Y-112607266D01*
X171691289Y-112439162D01*
X171462997Y-112295716D01*
X171462994Y-112295714D01*
X171220082Y-112178734D01*
X170965602Y-112089687D01*
X170965594Y-112089684D01*
X170768446Y-112044687D01*
X170702732Y-112029688D01*
X170702728Y-112029687D01*
X170702719Y-112029686D01*
X170434813Y-111999500D01*
X170434809Y-111999500D01*
X170165191Y-111999500D01*
X170165186Y-111999500D01*
X169897280Y-112029686D01*
X169897268Y-112029688D01*
X169634405Y-112089684D01*
X169634397Y-112089687D01*
X169379917Y-112178734D01*
X169137005Y-112295714D01*
X168908712Y-112439161D01*
X168697915Y-112607265D01*
X168507267Y-112797914D01*
X168339161Y-113008712D01*
X168195714Y-113237005D01*
X168078734Y-113479917D01*
X167989687Y-113734397D01*
X167989684Y-113734405D01*
X167929688Y-113997268D01*
X167929686Y-113997280D01*
X167899500Y-114265186D01*
X155160500Y-114265186D01*
X155160500Y-113755399D01*
X155180185Y-113688360D01*
X155196819Y-113667718D01*
X166227718Y-102636819D01*
X166289041Y-102603334D01*
X166315399Y-102600500D01*
X166838975Y-102600500D01*
X166906014Y-102620185D01*
X166951769Y-102672989D01*
X166961713Y-102742147D01*
X166944513Y-102789597D01*
X166937690Y-102800657D01*
X166937686Y-102800666D01*
X166882501Y-102967203D01*
X166882501Y-102967204D01*
X166882500Y-102967204D01*
X166872000Y-103069983D01*
X166872000Y-105270001D01*
X166872001Y-105270018D01*
X166882500Y-105372796D01*
X166882501Y-105372799D01*
X166937685Y-105539331D01*
X166937686Y-105539334D01*
X167029788Y-105688656D01*
X167153844Y-105812712D01*
X167303166Y-105904814D01*
X167469703Y-105959999D01*
X167572491Y-105970500D01*
X169772508Y-105970499D01*
X169875297Y-105959999D01*
X170041834Y-105904814D01*
X170191156Y-105812712D01*
X170315212Y-105688656D01*
X170407314Y-105539334D01*
X170462499Y-105372797D01*
X170473000Y-105270009D01*
X170473000Y-105194500D01*
X170492685Y-105127461D01*
X170545489Y-105081706D01*
X170597000Y-105070500D01*
X170768693Y-105070500D01*
X170768694Y-105070499D01*
X170942666Y-105035895D01*
X171024606Y-105001953D01*
X171106547Y-104968013D01*
X171194959Y-104908936D01*
X171254036Y-104869464D01*
X173049464Y-103074035D01*
X173120847Y-102967203D01*
X173148013Y-102926547D01*
X173167895Y-102878547D01*
X173215895Y-102762666D01*
X173250500Y-102588691D01*
X173250500Y-102411308D01*
X173250500Y-100839989D01*
X173258505Y-100812726D01*
X173263485Y-100784747D01*
X173268953Y-100777144D01*
X173270185Y-100772950D01*
X173283545Y-100755708D01*
X173285135Y-100753991D01*
X173350463Y-100688664D01*
X173357392Y-100678294D01*
X173449013Y-100541175D01*
X173516894Y-100377294D01*
X173536307Y-100279699D01*
X173551500Y-100203320D01*
X173551500Y-100025937D01*
X173551500Y-96484181D01*
X173537433Y-96413464D01*
X173516894Y-96310206D01*
X173507711Y-96288036D01*
X173476468Y-96212609D01*
X173449016Y-96146331D01*
X173449009Y-96146318D01*
X173350464Y-95998837D01*
X173350461Y-95998833D01*
X173286819Y-95935191D01*
X173253334Y-95873868D01*
X173250500Y-95847510D01*
X173250500Y-88711307D01*
X173250499Y-88711303D01*
X173224001Y-88578087D01*
X173215895Y-88537334D01*
X173199577Y-88497940D01*
X173184477Y-88461485D01*
X173184474Y-88461480D01*
X173181953Y-88455393D01*
X173148013Y-88373453D01*
X173088936Y-88285040D01*
X173072423Y-88260326D01*
X173049466Y-88225966D01*
X162886819Y-78063319D01*
X162853334Y-78001996D01*
X162850500Y-77975638D01*
X162850500Y-77665186D01*
X167299500Y-77665186D01*
X167299500Y-77934813D01*
X167329686Y-78202719D01*
X167329688Y-78202731D01*
X167389684Y-78465594D01*
X167389687Y-78465602D01*
X167478734Y-78720082D01*
X167595714Y-78962994D01*
X167595716Y-78962997D01*
X167739162Y-79191289D01*
X167907266Y-79402085D01*
X168097915Y-79592734D01*
X168308711Y-79760838D01*
X168537003Y-79904284D01*
X168779921Y-80021267D01*
X168971049Y-80088145D01*
X169034397Y-80110312D01*
X169034405Y-80110315D01*
X169034408Y-80110315D01*
X169034409Y-80110316D01*
X169297268Y-80170312D01*
X169565187Y-80200499D01*
X169565188Y-80200500D01*
X169565191Y-80200500D01*
X169834812Y-80200500D01*
X169834812Y-80200499D01*
X170102732Y-80170312D01*
X170365591Y-80110316D01*
X170620079Y-80021267D01*
X170862997Y-79904284D01*
X171091289Y-79760838D01*
X171302085Y-79592734D01*
X171492734Y-79402085D01*
X171660838Y-79191289D01*
X171804284Y-78962997D01*
X171921267Y-78720079D01*
X172010316Y-78465591D01*
X172070312Y-78202732D01*
X172100500Y-77934809D01*
X172100500Y-77665191D01*
X172070312Y-77397268D01*
X172010316Y-77134409D01*
X171921267Y-76879921D01*
X171804284Y-76637003D01*
X171660838Y-76408711D01*
X171492734Y-76197915D01*
X171302085Y-76007266D01*
X171091289Y-75839162D01*
X170862997Y-75695716D01*
X170862994Y-75695714D01*
X170620082Y-75578734D01*
X170365602Y-75489687D01*
X170365594Y-75489684D01*
X170168446Y-75444687D01*
X170102732Y-75429688D01*
X170102728Y-75429687D01*
X170102719Y-75429686D01*
X169834813Y-75399500D01*
X169834809Y-75399500D01*
X169565191Y-75399500D01*
X169565186Y-75399500D01*
X169297280Y-75429686D01*
X169297268Y-75429688D01*
X169034405Y-75489684D01*
X169034397Y-75489687D01*
X168779917Y-75578734D01*
X168537005Y-75695714D01*
X168308712Y-75839161D01*
X168097915Y-76007265D01*
X167907265Y-76197915D01*
X167739161Y-76408712D01*
X167595714Y-76637005D01*
X167478734Y-76879917D01*
X167389687Y-77134397D01*
X167389684Y-77134405D01*
X167329688Y-77397268D01*
X167329686Y-77397280D01*
X167299500Y-77665186D01*
X162850500Y-77665186D01*
X162850500Y-70711308D01*
X162850499Y-70711304D01*
X162815896Y-70537341D01*
X162815895Y-70537334D01*
X162750339Y-70379071D01*
X162748695Y-70374474D01*
X162649465Y-70225966D01*
X162649464Y-70225965D01*
X162524035Y-70100536D01*
X162043578Y-69620079D01*
X160573038Y-68149537D01*
X160573034Y-68149533D01*
X160518622Y-68113178D01*
X160518616Y-68113175D01*
X160513959Y-68110063D01*
X160425547Y-68050987D01*
X160343606Y-68017046D01*
X160261666Y-67983105D01*
X160261658Y-67983103D01*
X160087696Y-67948500D01*
X160087692Y-67948500D01*
X160087691Y-67948500D01*
X159223362Y-67948500D01*
X159156323Y-67928815D01*
X159135681Y-67912181D01*
X158411818Y-67188318D01*
X158378333Y-67126995D01*
X158375499Y-67100637D01*
X158375499Y-66127129D01*
X158375498Y-66127123D01*
X158369091Y-66067516D01*
X158318797Y-65932671D01*
X158318793Y-65932664D01*
X158232547Y-65817455D01*
X158232545Y-65817453D01*
X158228101Y-65814126D01*
X158186233Y-65758190D01*
X158181252Y-65688498D01*
X158214741Y-65627177D01*
X158276066Y-65593695D01*
X158339925Y-65596672D01*
G37*
%TD.AperFunction*%
%TA.AperFunction,Conductor*%
G36*
X161013181Y-73609627D02*
G01*
X161046666Y-73670950D01*
X161049500Y-73697308D01*
X161049500Y-78488696D01*
X161084103Y-78662659D01*
X161084104Y-78662663D01*
X161084105Y-78662666D01*
X161107887Y-78720079D01*
X161151987Y-78826547D01*
X161211063Y-78914959D01*
X161214569Y-78920206D01*
X161214570Y-78920208D01*
X161250534Y-78974034D01*
X161250535Y-78974035D01*
X169261193Y-86984694D01*
X169294678Y-87046017D01*
X169289694Y-87115709D01*
X169247822Y-87171642D01*
X169182358Y-87196059D01*
X169141419Y-87192150D01*
X169024414Y-87160799D01*
X168790485Y-87130000D01*
X168554514Y-87130000D01*
X168320585Y-87160799D01*
X168092662Y-87221870D01*
X167874680Y-87312160D01*
X167874671Y-87312165D01*
X167670328Y-87430144D01*
X167670318Y-87430150D01*
X167588775Y-87492720D01*
X167588775Y-87492721D01*
X168425012Y-88328958D01*
X168364610Y-88353978D01*
X168258149Y-88425112D01*
X168167612Y-88515649D01*
X168096478Y-88622110D01*
X168071458Y-88682512D01*
X167235221Y-87846275D01*
X167235220Y-87846275D01*
X167172650Y-87927818D01*
X167172644Y-87927828D01*
X167054665Y-88132171D01*
X167054660Y-88132180D01*
X166964370Y-88350162D01*
X166903299Y-88578085D01*
X166872500Y-88812014D01*
X166872500Y-89047985D01*
X166903299Y-89281914D01*
X166964370Y-89509837D01*
X167054660Y-89727819D01*
X167054665Y-89727828D01*
X167172644Y-89932171D01*
X167172645Y-89932172D01*
X167235221Y-90013723D01*
X168071458Y-89177487D01*
X168096478Y-89237890D01*
X168167612Y-89344351D01*
X168258149Y-89434888D01*
X168364610Y-89506022D01*
X168425011Y-89531041D01*
X167588775Y-90367277D01*
X167670327Y-90429854D01*
X167670328Y-90429855D01*
X167874671Y-90547834D01*
X167874680Y-90547839D01*
X168092663Y-90638129D01*
X168092661Y-90638129D01*
X168320585Y-90699200D01*
X168554514Y-90729999D01*
X168554529Y-90730000D01*
X168790471Y-90730000D01*
X168790485Y-90729999D01*
X169024414Y-90699200D01*
X169252337Y-90638129D01*
X169470319Y-90547839D01*
X169470328Y-90547834D01*
X169674681Y-90429850D01*
X169756223Y-90367279D01*
X169756223Y-90367276D01*
X168919987Y-89531041D01*
X168980390Y-89506022D01*
X169086851Y-89434888D01*
X169177388Y-89344351D01*
X169248522Y-89237890D01*
X169273541Y-89177488D01*
X170109776Y-90013723D01*
X170109779Y-90013723D01*
X170172350Y-89932181D01*
X170290334Y-89727828D01*
X170290339Y-89727819D01*
X170380629Y-89509837D01*
X170441700Y-89281914D01*
X170472499Y-89047985D01*
X170472500Y-89047971D01*
X170472500Y-88812028D01*
X170472499Y-88812014D01*
X170441701Y-88578087D01*
X170410349Y-88461081D01*
X170412012Y-88391231D01*
X170451174Y-88333368D01*
X170515402Y-88305864D01*
X170584305Y-88317450D01*
X170617805Y-88341306D01*
X171413181Y-89136681D01*
X171446666Y-89198004D01*
X171449500Y-89224362D01*
X171449500Y-95214138D01*
X171429815Y-95281177D01*
X171377011Y-95326932D01*
X171307853Y-95336876D01*
X171244297Y-95307851D01*
X171237819Y-95301819D01*
X170462347Y-94526347D01*
X170428862Y-94465024D01*
X170430252Y-94406574D01*
X170442193Y-94362014D01*
X170473000Y-94128011D01*
X170473000Y-93891989D01*
X170442193Y-93657986D01*
X170381106Y-93430007D01*
X170290784Y-93211951D01*
X170290782Y-93211948D01*
X170290780Y-93211943D01*
X170248618Y-93138918D01*
X170172773Y-93007550D01*
X170029092Y-92820301D01*
X170029087Y-92820295D01*
X169862204Y-92653412D01*
X169862197Y-92653406D01*
X169674954Y-92509730D01*
X169674953Y-92509729D01*
X169674950Y-92509727D01*
X169593457Y-92462677D01*
X169470556Y-92391719D01*
X169470545Y-92391714D01*
X169252493Y-92301394D01*
X169024510Y-92240306D01*
X168790520Y-92209501D01*
X168790517Y-92209500D01*
X168790511Y-92209500D01*
X168554489Y-92209500D01*
X168554483Y-92209500D01*
X168554479Y-92209501D01*
X168320489Y-92240306D01*
X168320471Y-92240310D01*
X168275924Y-92252246D01*
X168206074Y-92250583D01*
X168156151Y-92220152D01*
X164831643Y-88895644D01*
X161938789Y-86002790D01*
X157156819Y-81220819D01*
X157123334Y-81159496D01*
X157120500Y-81133138D01*
X157120500Y-73817256D01*
X157140185Y-73750217D01*
X157171612Y-73716939D01*
X157262656Y-73650793D01*
X157440793Y-73472656D01*
X157506368Y-73382399D01*
X157561695Y-73339734D01*
X157631309Y-73333754D01*
X157693104Y-73366360D01*
X157714072Y-73393284D01*
X157783493Y-73513523D01*
X157783494Y-73513524D01*
X157870080Y-73626365D01*
X158695884Y-72800561D01*
X158696740Y-72802626D01*
X158789762Y-72941844D01*
X158908156Y-73060238D01*
X159047374Y-73153260D01*
X159049437Y-73154114D01*
X158223633Y-73979917D01*
X158223633Y-73979918D01*
X158336475Y-74066505D01*
X158336483Y-74066511D01*
X158563517Y-74197590D01*
X158563528Y-74197595D01*
X158805744Y-74297924D01*
X159058979Y-74365777D01*
X159058990Y-74365779D01*
X159318905Y-74399999D01*
X159318920Y-74400000D01*
X159581080Y-74400000D01*
X159581094Y-74399999D01*
X159841009Y-74365779D01*
X159841020Y-74365777D01*
X160094255Y-74297924D01*
X160336471Y-74197595D01*
X160336482Y-74197590D01*
X160563516Y-74066511D01*
X160563534Y-74066499D01*
X160676365Y-73979919D01*
X160676365Y-73979917D01*
X159850562Y-73154114D01*
X159852626Y-73153260D01*
X159991844Y-73060238D01*
X160110238Y-72941844D01*
X160203260Y-72802626D01*
X160204115Y-72800561D01*
X161013181Y-73609627D01*
G37*
%TD.AperFunction*%
%TD*%
M02*
