%TF.GenerationSoftware,KiCad,Pcbnew,9.0.0*%
%TF.CreationDate,2025-03-26T13:37:58+01:00*%
%TF.ProjectId,LEDstripCtrl2.1,4c454473-7472-4697-9043-74726c322e31,rev?*%
%TF.SameCoordinates,Original*%
%TF.FileFunction,Legend,Top*%
%TF.FilePolarity,Positive*%
%FSLAX46Y46*%
G04 Gerber Fmt 4.6, Leading zero omitted, Abs format (unit mm)*
G04 Created by KiCad (PCBNEW 9.0.0) date 2025-03-26 13:37:58*
%MOMM*%
%LPD*%
G01*
G04 APERTURE LIST*
%ADD10C,0.300000*%
%ADD11C,0.400000*%
%ADD12C,0.200000*%
%ADD13C,0.150000*%
%ADD14C,0.120000*%
G04 APERTURE END LIST*
D10*
X174904510Y-100500828D02*
X174904510Y-99000828D01*
X174904510Y-99000828D02*
X175761653Y-100500828D01*
X175761653Y-100500828D02*
X175761653Y-99000828D01*
X176333082Y-99000828D02*
X176690225Y-100500828D01*
X176690225Y-100500828D02*
X176975939Y-99429400D01*
X176975939Y-99429400D02*
X177261654Y-100500828D01*
X177261654Y-100500828D02*
X177618797Y-99000828D01*
D11*
X161094109Y-84739200D02*
X161379823Y-84834438D01*
X161379823Y-84834438D02*
X161856014Y-84834438D01*
X161856014Y-84834438D02*
X162046490Y-84739200D01*
X162046490Y-84739200D02*
X162141728Y-84643961D01*
X162141728Y-84643961D02*
X162236966Y-84453485D01*
X162236966Y-84453485D02*
X162236966Y-84263009D01*
X162236966Y-84263009D02*
X162141728Y-84072533D01*
X162141728Y-84072533D02*
X162046490Y-83977295D01*
X162046490Y-83977295D02*
X161856014Y-83882057D01*
X161856014Y-83882057D02*
X161475061Y-83786819D01*
X161475061Y-83786819D02*
X161284585Y-83691580D01*
X161284585Y-83691580D02*
X161189347Y-83596342D01*
X161189347Y-83596342D02*
X161094109Y-83405866D01*
X161094109Y-83405866D02*
X161094109Y-83215390D01*
X161094109Y-83215390D02*
X161189347Y-83024914D01*
X161189347Y-83024914D02*
X161284585Y-82929676D01*
X161284585Y-82929676D02*
X161475061Y-82834438D01*
X161475061Y-82834438D02*
X161951252Y-82834438D01*
X161951252Y-82834438D02*
X162236966Y-82929676D01*
X163094109Y-83786819D02*
X163760776Y-83786819D01*
X164046490Y-84834438D02*
X163094109Y-84834438D01*
X163094109Y-84834438D02*
X163094109Y-82834438D01*
X163094109Y-82834438D02*
X164046490Y-82834438D01*
D12*
X175243482Y-88314838D02*
X175148244Y-88267219D01*
X175148244Y-88267219D02*
X175005387Y-88267219D01*
X175005387Y-88267219D02*
X174862530Y-88314838D01*
X174862530Y-88314838D02*
X174767292Y-88410076D01*
X174767292Y-88410076D02*
X174719673Y-88505314D01*
X174719673Y-88505314D02*
X174672054Y-88695790D01*
X174672054Y-88695790D02*
X174672054Y-88838647D01*
X174672054Y-88838647D02*
X174719673Y-89029123D01*
X174719673Y-89029123D02*
X174767292Y-89124361D01*
X174767292Y-89124361D02*
X174862530Y-89219600D01*
X174862530Y-89219600D02*
X175005387Y-89267219D01*
X175005387Y-89267219D02*
X175100625Y-89267219D01*
X175100625Y-89267219D02*
X175243482Y-89219600D01*
X175243482Y-89219600D02*
X175291101Y-89171980D01*
X175291101Y-89171980D02*
X175291101Y-88838647D01*
X175291101Y-88838647D02*
X175100625Y-88838647D01*
X175719673Y-89267219D02*
X175719673Y-88267219D01*
X175719673Y-88267219D02*
X176291101Y-89267219D01*
X176291101Y-89267219D02*
X176291101Y-88267219D01*
X176767292Y-89267219D02*
X176767292Y-88267219D01*
X176767292Y-88267219D02*
X177005387Y-88267219D01*
X177005387Y-88267219D02*
X177148244Y-88314838D01*
X177148244Y-88314838D02*
X177243482Y-88410076D01*
X177243482Y-88410076D02*
X177291101Y-88505314D01*
X177291101Y-88505314D02*
X177338720Y-88695790D01*
X177338720Y-88695790D02*
X177338720Y-88838647D01*
X177338720Y-88838647D02*
X177291101Y-89029123D01*
X177291101Y-89029123D02*
X177243482Y-89124361D01*
X177243482Y-89124361D02*
X177148244Y-89219600D01*
X177148244Y-89219600D02*
X177005387Y-89267219D01*
X177005387Y-89267219D02*
X176767292Y-89267219D01*
D10*
X174933082Y-94629400D02*
X175147368Y-94700828D01*
X175147368Y-94700828D02*
X175504510Y-94700828D01*
X175504510Y-94700828D02*
X175647368Y-94629400D01*
X175647368Y-94629400D02*
X175718796Y-94557971D01*
X175718796Y-94557971D02*
X175790225Y-94415114D01*
X175790225Y-94415114D02*
X175790225Y-94272257D01*
X175790225Y-94272257D02*
X175718796Y-94129400D01*
X175718796Y-94129400D02*
X175647368Y-94057971D01*
X175647368Y-94057971D02*
X175504510Y-93986542D01*
X175504510Y-93986542D02*
X175218796Y-93915114D01*
X175218796Y-93915114D02*
X175075939Y-93843685D01*
X175075939Y-93843685D02*
X175004510Y-93772257D01*
X175004510Y-93772257D02*
X174933082Y-93629400D01*
X174933082Y-93629400D02*
X174933082Y-93486542D01*
X174933082Y-93486542D02*
X175004510Y-93343685D01*
X175004510Y-93343685D02*
X175075939Y-93272257D01*
X175075939Y-93272257D02*
X175218796Y-93200828D01*
X175218796Y-93200828D02*
X175575939Y-93200828D01*
X175575939Y-93200828D02*
X175790225Y-93272257D01*
X176433081Y-93915114D02*
X176933081Y-93915114D01*
X177147367Y-94700828D02*
X176433081Y-94700828D01*
X176433081Y-94700828D02*
X176433081Y-93200828D01*
X176433081Y-93200828D02*
X177147367Y-93200828D01*
D12*
X175124435Y-104667219D02*
X175743482Y-104667219D01*
X175743482Y-104667219D02*
X175410149Y-105048171D01*
X175410149Y-105048171D02*
X175553006Y-105048171D01*
X175553006Y-105048171D02*
X175648244Y-105095790D01*
X175648244Y-105095790D02*
X175695863Y-105143409D01*
X175695863Y-105143409D02*
X175743482Y-105238647D01*
X175743482Y-105238647D02*
X175743482Y-105476742D01*
X175743482Y-105476742D02*
X175695863Y-105571980D01*
X175695863Y-105571980D02*
X175648244Y-105619600D01*
X175648244Y-105619600D02*
X175553006Y-105667219D01*
X175553006Y-105667219D02*
X175267292Y-105667219D01*
X175267292Y-105667219D02*
X175172054Y-105619600D01*
X175172054Y-105619600D02*
X175124435Y-105571980D01*
X176029197Y-104667219D02*
X176362530Y-105667219D01*
X176362530Y-105667219D02*
X176695863Y-104667219D01*
X176933959Y-104667219D02*
X177553006Y-104667219D01*
X177553006Y-104667219D02*
X177219673Y-105048171D01*
X177219673Y-105048171D02*
X177362530Y-105048171D01*
X177362530Y-105048171D02*
X177457768Y-105095790D01*
X177457768Y-105095790D02*
X177505387Y-105143409D01*
X177505387Y-105143409D02*
X177553006Y-105238647D01*
X177553006Y-105238647D02*
X177553006Y-105476742D01*
X177553006Y-105476742D02*
X177505387Y-105571980D01*
X177505387Y-105571980D02*
X177457768Y-105619600D01*
X177457768Y-105619600D02*
X177362530Y-105667219D01*
X177362530Y-105667219D02*
X177076816Y-105667219D01*
X177076816Y-105667219D02*
X176981578Y-105619600D01*
X176981578Y-105619600D02*
X176933959Y-105571980D01*
D11*
X133839347Y-99334438D02*
X133839347Y-97334438D01*
X133839347Y-97334438D02*
X134982204Y-99334438D01*
X134982204Y-99334438D02*
X134982204Y-97334438D01*
X135744109Y-97334438D02*
X136220299Y-99334438D01*
X136220299Y-99334438D02*
X136601252Y-97905866D01*
X136601252Y-97905866D02*
X136982204Y-99334438D01*
X136982204Y-99334438D02*
X137458395Y-97334438D01*
D13*
X126966666Y-109554819D02*
X126633333Y-109078628D01*
X126395238Y-109554819D02*
X126395238Y-108554819D01*
X126395238Y-108554819D02*
X126776190Y-108554819D01*
X126776190Y-108554819D02*
X126871428Y-108602438D01*
X126871428Y-108602438D02*
X126919047Y-108650057D01*
X126919047Y-108650057D02*
X126966666Y-108745295D01*
X126966666Y-108745295D02*
X126966666Y-108888152D01*
X126966666Y-108888152D02*
X126919047Y-108983390D01*
X126919047Y-108983390D02*
X126871428Y-109031009D01*
X126871428Y-109031009D02*
X126776190Y-109078628D01*
X126776190Y-109078628D02*
X126395238Y-109078628D01*
X127395238Y-109031009D02*
X127728571Y-109031009D01*
X127871428Y-109554819D02*
X127395238Y-109554819D01*
X127395238Y-109554819D02*
X127395238Y-108554819D01*
X127395238Y-108554819D02*
X127871428Y-108554819D01*
X128633333Y-109031009D02*
X128300000Y-109031009D01*
X128300000Y-109554819D02*
X128300000Y-108554819D01*
X128300000Y-108554819D02*
X128776190Y-108554819D01*
X129300000Y-108554819D02*
X129300000Y-108792914D01*
X129061905Y-108697676D02*
X129300000Y-108792914D01*
X129300000Y-108792914D02*
X129538095Y-108697676D01*
X129157143Y-108983390D02*
X129300000Y-108792914D01*
X129300000Y-108792914D02*
X129442857Y-108983390D01*
X130061905Y-108554819D02*
X130061905Y-108792914D01*
X129823810Y-108697676D02*
X130061905Y-108792914D01*
X130061905Y-108792914D02*
X130300000Y-108697676D01*
X129919048Y-108983390D02*
X130061905Y-108792914D01*
X130061905Y-108792914D02*
X130204762Y-108983390D01*
X149004819Y-96895238D02*
X148528628Y-97228571D01*
X149004819Y-97466666D02*
X148004819Y-97466666D01*
X148004819Y-97466666D02*
X148004819Y-97085714D01*
X148004819Y-97085714D02*
X148052438Y-96990476D01*
X148052438Y-96990476D02*
X148100057Y-96942857D01*
X148100057Y-96942857D02*
X148195295Y-96895238D01*
X148195295Y-96895238D02*
X148338152Y-96895238D01*
X148338152Y-96895238D02*
X148433390Y-96942857D01*
X148433390Y-96942857D02*
X148481009Y-96990476D01*
X148481009Y-96990476D02*
X148528628Y-97085714D01*
X148528628Y-97085714D02*
X148528628Y-97466666D01*
X148004819Y-96609523D02*
X149004819Y-96276190D01*
X149004819Y-96276190D02*
X148004819Y-95942857D01*
X149004819Y-95085714D02*
X149004819Y-95657142D01*
X149004819Y-95371428D02*
X148004819Y-95371428D01*
X148004819Y-95371428D02*
X148147676Y-95466666D01*
X148147676Y-95466666D02*
X148242914Y-95561904D01*
X148242914Y-95561904D02*
X148290533Y-95657142D01*
X126966666Y-72954819D02*
X126633333Y-72478628D01*
X126395238Y-72954819D02*
X126395238Y-71954819D01*
X126395238Y-71954819D02*
X126776190Y-71954819D01*
X126776190Y-71954819D02*
X126871428Y-72002438D01*
X126871428Y-72002438D02*
X126919047Y-72050057D01*
X126919047Y-72050057D02*
X126966666Y-72145295D01*
X126966666Y-72145295D02*
X126966666Y-72288152D01*
X126966666Y-72288152D02*
X126919047Y-72383390D01*
X126919047Y-72383390D02*
X126871428Y-72431009D01*
X126871428Y-72431009D02*
X126776190Y-72478628D01*
X126776190Y-72478628D02*
X126395238Y-72478628D01*
X127395238Y-72431009D02*
X127728571Y-72431009D01*
X127871428Y-72954819D02*
X127395238Y-72954819D01*
X127395238Y-72954819D02*
X127395238Y-71954819D01*
X127395238Y-71954819D02*
X127871428Y-71954819D01*
X128633333Y-72431009D02*
X128300000Y-72431009D01*
X128300000Y-72954819D02*
X128300000Y-71954819D01*
X128300000Y-71954819D02*
X128776190Y-71954819D01*
X129300000Y-71954819D02*
X129300000Y-72192914D01*
X129061905Y-72097676D02*
X129300000Y-72192914D01*
X129300000Y-72192914D02*
X129538095Y-72097676D01*
X129157143Y-72383390D02*
X129300000Y-72192914D01*
X129300000Y-72192914D02*
X129442857Y-72383390D01*
X130061905Y-71954819D02*
X130061905Y-72192914D01*
X129823810Y-72097676D02*
X130061905Y-72192914D01*
X130061905Y-72192914D02*
X130300000Y-72097676D01*
X129919048Y-72383390D02*
X130061905Y-72192914D01*
X130061905Y-72192914D02*
X130204762Y-72383390D01*
X168966666Y-109554819D02*
X168633333Y-109078628D01*
X168395238Y-109554819D02*
X168395238Y-108554819D01*
X168395238Y-108554819D02*
X168776190Y-108554819D01*
X168776190Y-108554819D02*
X168871428Y-108602438D01*
X168871428Y-108602438D02*
X168919047Y-108650057D01*
X168919047Y-108650057D02*
X168966666Y-108745295D01*
X168966666Y-108745295D02*
X168966666Y-108888152D01*
X168966666Y-108888152D02*
X168919047Y-108983390D01*
X168919047Y-108983390D02*
X168871428Y-109031009D01*
X168871428Y-109031009D02*
X168776190Y-109078628D01*
X168776190Y-109078628D02*
X168395238Y-109078628D01*
X169395238Y-109031009D02*
X169728571Y-109031009D01*
X169871428Y-109554819D02*
X169395238Y-109554819D01*
X169395238Y-109554819D02*
X169395238Y-108554819D01*
X169395238Y-108554819D02*
X169871428Y-108554819D01*
X170633333Y-109031009D02*
X170300000Y-109031009D01*
X170300000Y-109554819D02*
X170300000Y-108554819D01*
X170300000Y-108554819D02*
X170776190Y-108554819D01*
X171300000Y-108554819D02*
X171300000Y-108792914D01*
X171061905Y-108697676D02*
X171300000Y-108792914D01*
X171300000Y-108792914D02*
X171538095Y-108697676D01*
X171157143Y-108983390D02*
X171300000Y-108792914D01*
X171300000Y-108792914D02*
X171442857Y-108983390D01*
X172061905Y-108554819D02*
X172061905Y-108792914D01*
X171823810Y-108697676D02*
X172061905Y-108792914D01*
X172061905Y-108792914D02*
X172300000Y-108697676D01*
X171919048Y-108983390D02*
X172061905Y-108792914D01*
X172061905Y-108792914D02*
X172204762Y-108983390D01*
X127344819Y-96638094D02*
X126344819Y-96638094D01*
X126344819Y-96638094D02*
X126344819Y-96399999D01*
X126344819Y-96399999D02*
X126392438Y-96257142D01*
X126392438Y-96257142D02*
X126487676Y-96161904D01*
X126487676Y-96161904D02*
X126582914Y-96114285D01*
X126582914Y-96114285D02*
X126773390Y-96066666D01*
X126773390Y-96066666D02*
X126916247Y-96066666D01*
X126916247Y-96066666D02*
X127106723Y-96114285D01*
X127106723Y-96114285D02*
X127201961Y-96161904D01*
X127201961Y-96161904D02*
X127297200Y-96257142D01*
X127297200Y-96257142D02*
X127344819Y-96399999D01*
X127344819Y-96399999D02*
X127344819Y-96638094D01*
X127344819Y-95114285D02*
X127344819Y-95685713D01*
X127344819Y-95399999D02*
X126344819Y-95399999D01*
X126344819Y-95399999D02*
X126487676Y-95495237D01*
X126487676Y-95495237D02*
X126582914Y-95590475D01*
X126582914Y-95590475D02*
X126630533Y-95685713D01*
X161807319Y-96883333D02*
X162521604Y-96883333D01*
X162521604Y-96883333D02*
X162664461Y-96930952D01*
X162664461Y-96930952D02*
X162759700Y-97026190D01*
X162759700Y-97026190D02*
X162807319Y-97169047D01*
X162807319Y-97169047D02*
X162807319Y-97264285D01*
X162807319Y-95883333D02*
X162807319Y-96454761D01*
X162807319Y-96169047D02*
X161807319Y-96169047D01*
X161807319Y-96169047D02*
X161950176Y-96264285D01*
X161950176Y-96264285D02*
X162045414Y-96359523D01*
X162045414Y-96359523D02*
X162093033Y-96454761D01*
X168366666Y-72954819D02*
X168033333Y-72478628D01*
X167795238Y-72954819D02*
X167795238Y-71954819D01*
X167795238Y-71954819D02*
X168176190Y-71954819D01*
X168176190Y-71954819D02*
X168271428Y-72002438D01*
X168271428Y-72002438D02*
X168319047Y-72050057D01*
X168319047Y-72050057D02*
X168366666Y-72145295D01*
X168366666Y-72145295D02*
X168366666Y-72288152D01*
X168366666Y-72288152D02*
X168319047Y-72383390D01*
X168319047Y-72383390D02*
X168271428Y-72431009D01*
X168271428Y-72431009D02*
X168176190Y-72478628D01*
X168176190Y-72478628D02*
X167795238Y-72478628D01*
X168795238Y-72431009D02*
X169128571Y-72431009D01*
X169271428Y-72954819D02*
X168795238Y-72954819D01*
X168795238Y-72954819D02*
X168795238Y-71954819D01*
X168795238Y-71954819D02*
X169271428Y-71954819D01*
X170033333Y-72431009D02*
X169700000Y-72431009D01*
X169700000Y-72954819D02*
X169700000Y-71954819D01*
X169700000Y-71954819D02*
X170176190Y-71954819D01*
X170700000Y-71954819D02*
X170700000Y-72192914D01*
X170461905Y-72097676D02*
X170700000Y-72192914D01*
X170700000Y-72192914D02*
X170938095Y-72097676D01*
X170557143Y-72383390D02*
X170700000Y-72192914D01*
X170700000Y-72192914D02*
X170842857Y-72383390D01*
X171461905Y-71954819D02*
X171461905Y-72192914D01*
X171223810Y-72097676D02*
X171461905Y-72192914D01*
X171461905Y-72192914D02*
X171700000Y-72097676D01*
X171319048Y-72383390D02*
X171461905Y-72192914D01*
X171461905Y-72192914D02*
X171604762Y-72383390D01*
X161454819Y-96895238D02*
X160978628Y-97228571D01*
X161454819Y-97466666D02*
X160454819Y-97466666D01*
X160454819Y-97466666D02*
X160454819Y-97085714D01*
X160454819Y-97085714D02*
X160502438Y-96990476D01*
X160502438Y-96990476D02*
X160550057Y-96942857D01*
X160550057Y-96942857D02*
X160645295Y-96895238D01*
X160645295Y-96895238D02*
X160788152Y-96895238D01*
X160788152Y-96895238D02*
X160883390Y-96942857D01*
X160883390Y-96942857D02*
X160931009Y-96990476D01*
X160931009Y-96990476D02*
X160978628Y-97085714D01*
X160978628Y-97085714D02*
X160978628Y-97466666D01*
X160454819Y-96609523D02*
X161454819Y-96276190D01*
X161454819Y-96276190D02*
X160454819Y-95942857D01*
X160550057Y-95657142D02*
X160502438Y-95609523D01*
X160502438Y-95609523D02*
X160454819Y-95514285D01*
X160454819Y-95514285D02*
X160454819Y-95276190D01*
X160454819Y-95276190D02*
X160502438Y-95180952D01*
X160502438Y-95180952D02*
X160550057Y-95133333D01*
X160550057Y-95133333D02*
X160645295Y-95085714D01*
X160645295Y-95085714D02*
X160740533Y-95085714D01*
X160740533Y-95085714D02*
X160883390Y-95133333D01*
X160883390Y-95133333D02*
X161454819Y-95704761D01*
X161454819Y-95704761D02*
X161454819Y-95085714D01*
X137974819Y-88466666D02*
X137498628Y-88799999D01*
X137974819Y-89038094D02*
X136974819Y-89038094D01*
X136974819Y-89038094D02*
X136974819Y-88657142D01*
X136974819Y-88657142D02*
X137022438Y-88561904D01*
X137022438Y-88561904D02*
X137070057Y-88514285D01*
X137070057Y-88514285D02*
X137165295Y-88466666D01*
X137165295Y-88466666D02*
X137308152Y-88466666D01*
X137308152Y-88466666D02*
X137403390Y-88514285D01*
X137403390Y-88514285D02*
X137451009Y-88561904D01*
X137451009Y-88561904D02*
X137498628Y-88657142D01*
X137498628Y-88657142D02*
X137498628Y-89038094D01*
X137974819Y-87514285D02*
X137974819Y-88085713D01*
X137974819Y-87799999D02*
X136974819Y-87799999D01*
X136974819Y-87799999D02*
X137117676Y-87895237D01*
X137117676Y-87895237D02*
X137212914Y-87990475D01*
X137212914Y-87990475D02*
X137260533Y-88085713D01*
D14*
%TO.C,RV1*%
X138180000Y-66180000D02*
X138180000Y-69565000D01*
X138180000Y-72836000D02*
X138180000Y-119765000D01*
X138180000Y-123036000D02*
X138180000Y-126420000D01*
X140227000Y-66180000D02*
X138180000Y-66180000D01*
X140260000Y-126420000D02*
X138180000Y-126420000D01*
X142800000Y-73800000D02*
X142050000Y-74550000D01*
X142800000Y-73800000D02*
X142800000Y-118800000D01*
X142800000Y-118800000D02*
X142050000Y-118050000D01*
X143375000Y-66180000D02*
X141872000Y-66180000D01*
X143550000Y-74550000D02*
X142800000Y-73800000D01*
X143550000Y-118050000D02*
X142800000Y-118800000D01*
X144050000Y-65375000D02*
X144550000Y-65875000D01*
X144300000Y-73800000D02*
X141300000Y-73800000D01*
X144300000Y-118800000D02*
X141300000Y-118800000D01*
X144550000Y-65875000D02*
X145050000Y-65375000D01*
X145050000Y-65375000D02*
X144050000Y-65375000D01*
X147420000Y-66180000D02*
X145725000Y-66180000D01*
X147420000Y-66180000D02*
X147420000Y-70765000D01*
X147420000Y-74036000D02*
X147420000Y-118565000D01*
X147420000Y-121836000D02*
X147420000Y-126420000D01*
X147420000Y-126420000D02*
X145373000Y-126420000D01*
%TO.C,D1*%
X128614000Y-97460000D02*
X128770000Y-97460000D01*
X130930000Y-97460000D02*
X131086000Y-97460000D01*
X128614484Y-97460000D02*
G75*
G02*
X128769939Y-94228603I1235516J1560000D01*
G01*
X128770000Y-96940961D02*
G75*
G02*
X128769951Y-94859090I1080000J1040961D01*
G01*
X130930049Y-94859090D02*
G75*
G02*
X130930000Y-96940961I-1080049J-1040910D01*
G01*
X130930061Y-94228603D02*
G75*
G02*
X131085516Y-97460000I-1080061J-1671397D01*
G01*
%TO.C,J1*%
X163352500Y-86270000D02*
X173392500Y-86270000D01*
X163352500Y-106830000D02*
X163352500Y-86270000D01*
X163352500Y-106830000D02*
X173392500Y-106830000D01*
X166372500Y-106830000D02*
X166372500Y-86270000D01*
X167261500Y-87746000D02*
X167305500Y-87790000D01*
X167261500Y-92826000D02*
X167305500Y-92870000D01*
X167261500Y-97906000D02*
X167305500Y-97950000D01*
X167488500Y-87519000D02*
X167532500Y-87563000D01*
X167488500Y-92599000D02*
X167532500Y-92643000D01*
X167488500Y-97679000D02*
X167532500Y-97723000D01*
X169812500Y-90297000D02*
X169855500Y-90341000D01*
X169812500Y-95377000D02*
X169855500Y-95421000D01*
X169812500Y-100457000D02*
X169855500Y-100501000D01*
X170039500Y-90070000D02*
X170082500Y-90114000D01*
X170039500Y-95150000D02*
X170082500Y-95194000D01*
X170039500Y-100230000D02*
X170082500Y-100274000D01*
X171272500Y-106830000D02*
X171272500Y-86270000D01*
X172772500Y-106830000D02*
X172772500Y-86270000D01*
X173392500Y-103870000D02*
X173392500Y-86270000D01*
X173392500Y-106830000D02*
X173392500Y-104470000D01*
X166892500Y-104710000D02*
G75*
G02*
X166892294Y-103630679I1780000J540000D01*
G01*
X168132500Y-102390000D02*
G75*
G02*
X169211821Y-102389794I540000J-1780013D01*
G01*
X169212500Y-105950000D02*
G75*
G02*
X168133179Y-105950206I-540000J1780000D01*
G01*
X170452500Y-103630000D02*
G75*
G02*
X170452706Y-104709321I-1780013J-540000D01*
G01*
X170532500Y-88930000D02*
G75*
G02*
X166812500Y-88930000I-1860000J0D01*
G01*
X166812500Y-88930000D02*
G75*
G02*
X170532500Y-88930000I1860000J0D01*
G01*
X170532500Y-94010000D02*
G75*
G02*
X166812500Y-94010000I-1860000J0D01*
G01*
X166812500Y-94010000D02*
G75*
G02*
X170532500Y-94010000I1860000J0D01*
G01*
X170532500Y-99090000D02*
G75*
G02*
X166812500Y-99090000I-1860000J0D01*
G01*
X166812500Y-99090000D02*
G75*
G02*
X170532500Y-99090000I1860000J0D01*
G01*
X174002500Y-104610000D02*
X173392500Y-104170000D01*
X174002500Y-103730000D01*
X174002500Y-104610000D01*
G36*
X174002500Y-104610000D02*
G01*
X173392500Y-104170000D01*
X174002500Y-103730000D01*
X174002500Y-104610000D01*
G37*
%TO.C,RV2*%
X150630000Y-66180000D02*
X150630000Y-69565000D01*
X150630000Y-72836000D02*
X150630000Y-119765000D01*
X150630000Y-123036000D02*
X150630000Y-126420000D01*
X152677000Y-66180000D02*
X150630000Y-66180000D01*
X152710000Y-126420000D02*
X150630000Y-126420000D01*
X155250000Y-73800000D02*
X154500000Y-74550000D01*
X155250000Y-73800000D02*
X155250000Y-118800000D01*
X155250000Y-118800000D02*
X154500000Y-118050000D01*
X155825000Y-66180000D02*
X154322000Y-66180000D01*
X156000000Y-74550000D02*
X155250000Y-73800000D01*
X156000000Y-118050000D02*
X155250000Y-118800000D01*
X156500000Y-65375000D02*
X157000000Y-65875000D01*
X156750000Y-73800000D02*
X153750000Y-73800000D01*
X156750000Y-118800000D02*
X153750000Y-118800000D01*
X157000000Y-65875000D02*
X157500000Y-65375000D01*
X157500000Y-65375000D02*
X156500000Y-65375000D01*
X159870000Y-66180000D02*
X158175000Y-66180000D01*
X159870000Y-66180000D02*
X159870000Y-70765000D01*
X159870000Y-74036000D02*
X159870000Y-118565000D01*
X159870000Y-121836000D02*
X159870000Y-126420000D01*
X159870000Y-126420000D02*
X157823000Y-126420000D01*
%TO.C,R1*%
X133080000Y-83680000D02*
X133080000Y-92920000D01*
X133080000Y-92920000D02*
X136520000Y-92920000D01*
X134800000Y-82990000D02*
X134800000Y-83680000D01*
X134800000Y-93610000D02*
X134800000Y-92920000D01*
X136520000Y-83680000D02*
X133080000Y-83680000D01*
X136520000Y-92920000D02*
X136520000Y-83680000D01*
%TD*%
M02*
