M48
; DRILL file {KiCad 9.0.2} date 2025-06-16T13:38:04+0200
; FORMAT={-:-/ absolute / metric / decimal}
; #@! TF.CreationDate,2025-06-16T13:38:04+02:00
; #@! TF.GenerationSoftware,Kicad,Pcbnew,9.0.2
; #@! TF.FileFunction,Plated,1,2,PTH
FMAT,2
METRIC
; #@! TA.AperFunction,Plated,PTH,ComponentDrill
T1C0.750
; #@! TA.AperFunction,Plated,PTH,ComponentDrill
T2C0.760
; #@! TA.AperFunction,Plated,PTH,ComponentDrill
T3C0.800
; #@! TA.AperFunction,Plated,PTH,ComponentDrill
T4C0.900
; #@! TA.AperFunction,Plated,PTH,ComponentDrill
T5C1.300
%
G90
G05
T1
X139.44Y-102.4
X140.71Y-103.67
X141.98Y-102.4
X147.41Y-102.34
X148.68Y-103.61
X149.95Y-102.34
X155.31Y-102.34
X156.58Y-103.61
X157.85Y-102.34
X163.21Y-102.24
X164.48Y-103.51
X165.75Y-102.24
T2
X172.972Y-109.14
X174.242Y-106.6
X175.512Y-109.14
X176.782Y-106.6
X178.052Y-109.14
X179.322Y-106.6
X180.593Y-109.14
X181.862Y-106.6
T3
X124.7Y-108.3
X124.8Y-113.1
X124.88Y-93.52
X124.88Y-103.68
X129.36Y-93.52
X129.36Y-103.68
X133.86Y-93.52
X133.86Y-103.68
X134.86Y-108.3
X134.96Y-113.1
X143.6Y-113.3
X143.8Y-109.1
X150.38Y-116.2
X150.38Y-126.36
X153.76Y-113.3
X153.96Y-109.1
X155.38Y-116.12
X155.38Y-126.28
X156.9Y-113.3
X157.1Y-109.1
X160.28Y-116.12
X160.28Y-126.28
X165.08Y-116.12
X165.08Y-126.28
X167.06Y-113.3
X167.26Y-109.1
X169.3Y-115.4
X169.3Y-120.1
X169.3Y-124.6
X179.46Y-115.4
X179.46Y-120.1
X179.46Y-124.6
X182.88Y-114.92
X182.88Y-125.08
T4
X140.48Y-94.235
X140.48Y-96.775
X148.48Y-94.235
X148.48Y-96.775
X156.38Y-94.235
X156.38Y-96.775
X164.38Y-94.235
X164.38Y-96.775
T5
X123.36Y-121.7
X128.36Y-121.7
X133.36Y-121.7
X139.625Y-121.727
X144.705Y-121.727
M30
