%TF.GenerationSoftware,KiCad,Pcbnew,9.0.2*%
%TF.CreationDate,2025-06-16T13:38:08+02:00*%
%TF.ProjectId,wli,776c692e-6b69-4636-9164-5f7063625858,rev?*%
%TF.SameCoordinates,Original*%
%TF.FileFunction,Soldermask,Bot*%
%TF.FilePolarity,Negative*%
%FSLAX46Y46*%
G04 Gerber Fmt 4.6, Leading zero omitted, Abs format (unit mm)*
G04 Created by KiCad (PCBNEW 9.0.2) date 2025-06-16 13:38:08*
%MOMM*%
%LPD*%
G01*
G04 APERTURE LIST*
G04 Aperture macros list*
%AMRoundRect*
0 Rectangle with rounded corners*
0 $1 Rounding radius*
0 $2 $3 $4 $5 $6 $7 $8 $9 X,Y pos of 4 corners*
0 Add a 4 corners polygon primitive as box body*
4,1,4,$2,$3,$4,$5,$6,$7,$8,$9,$2,$3,0*
0 Add four circle primitives for the rounded corners*
1,1,$1+$1,$2,$3*
1,1,$1+$1,$4,$5*
1,1,$1+$1,$6,$7*
1,1,$1+$1,$8,$9*
0 Add four rect primitives between the rounded corners*
20,1,$1+$1,$2,$3,$4,$5,0*
20,1,$1+$1,$4,$5,$6,$7,0*
20,1,$1+$1,$6,$7,$8,$9,0*
20,1,$1+$1,$8,$9,$2,$3,0*%
G04 Aperture macros list end*
%ADD10R,1.100000X1.800000*%
%ADD11RoundRect,0.275000X0.275000X0.625000X-0.275000X0.625000X-0.275000X-0.625000X0.275000X-0.625000X0*%
%ADD12C,3.200000*%
%ADD13C,1.600000*%
%ADD14RoundRect,0.250000X0.550000X0.550000X-0.550000X0.550000X-0.550000X-0.550000X0.550000X-0.550000X0*%
%ADD15R,1.800000X1.800000*%
%ADD16C,1.800000*%
%ADD17RoundRect,0.250000X1.050000X1.050000X-1.050000X1.050000X-1.050000X-1.050000X1.050000X-1.050000X0*%
%ADD18C,2.600000*%
%ADD19R,1.500000X1.500000*%
%ADD20C,1.500000*%
G04 APERTURE END LIST*
D10*
%TO.C,Q4*%
X165750000Y-101840000D03*
D11*
X164480000Y-103910000D03*
X163210000Y-101840000D03*
%TD*%
D10*
%TO.C,Q3*%
X157850000Y-101940000D03*
D11*
X156580000Y-104010000D03*
X155310000Y-101940000D03*
%TD*%
D10*
%TO.C,Q2*%
X149950000Y-101940000D03*
D11*
X148680000Y-104010000D03*
X147410000Y-101940000D03*
%TD*%
D10*
%TO.C,Q1*%
X141980000Y-102000000D03*
D11*
X140710000Y-104070000D03*
X139440000Y-102000000D03*
%TD*%
D12*
%TO.C,H1*%
X116700000Y-95100000D03*
%TD*%
D13*
%TO.C,R12*%
X165080000Y-116120000D03*
X165080000Y-126280000D03*
%TD*%
D14*
%TO.C,D7*%
X153960000Y-109100000D03*
D13*
X143800000Y-109100000D03*
%TD*%
%TO.C,R10*%
X169300000Y-120100000D03*
X179460000Y-120100000D03*
%TD*%
D12*
%TO.C,H4*%
X189700000Y-95100000D03*
%TD*%
%TO.C,H3*%
X189700000Y-124700000D03*
%TD*%
D13*
%TO.C,R8*%
X129360000Y-103680000D03*
X129360000Y-93520000D03*
%TD*%
%TO.C,R9*%
X155380000Y-116120000D03*
X155380000Y-126280000D03*
%TD*%
D15*
%TO.C,D1*%
X140480000Y-96775000D03*
D16*
X140480000Y-94235000D03*
%TD*%
D15*
%TO.C,D3*%
X156380000Y-96775000D03*
D16*
X156380000Y-94235000D03*
%TD*%
D13*
%TO.C,R2*%
X150380000Y-116200000D03*
X150380000Y-126360000D03*
%TD*%
%TO.C,R6*%
X160280000Y-116120000D03*
X160280000Y-126280000D03*
%TD*%
%TO.C,R7*%
X169300000Y-124600000D03*
X179460000Y-124600000D03*
%TD*%
%TO.C,R11*%
X133860000Y-103680000D03*
X133860000Y-93520000D03*
%TD*%
D17*
%TO.C,J2*%
X144705000Y-121727500D03*
D18*
X139625000Y-121727500D03*
%TD*%
D12*
%TO.C,J3*%
X183132500Y-100250000D03*
X171702500Y-100250000D03*
D19*
X181862500Y-106600000D03*
D20*
X180592500Y-109140000D03*
X179322500Y-106600000D03*
X178052500Y-109140000D03*
X176782500Y-106600000D03*
X175512500Y-109140000D03*
X174242500Y-106600000D03*
X172972500Y-109140000D03*
%TD*%
D13*
%TO.C,R1*%
X182880000Y-125080000D03*
X182880000Y-114920000D03*
%TD*%
D14*
%TO.C,D9*%
X167260000Y-109100000D03*
D13*
X157100000Y-109100000D03*
%TD*%
D17*
%TO.C,J1*%
X133360000Y-121700000D03*
D18*
X128360000Y-121700000D03*
X123360000Y-121700000D03*
%TD*%
D14*
%TO.C,D10*%
X167060000Y-113300000D03*
D13*
X156900000Y-113300000D03*
%TD*%
%TO.C,R5*%
X124880000Y-103680000D03*
X124880000Y-93520000D03*
%TD*%
D15*
%TO.C,D4*%
X164380000Y-96775000D03*
D16*
X164380000Y-94235000D03*
%TD*%
D14*
%TO.C,D8*%
X153760000Y-113300000D03*
D13*
X143600000Y-113300000D03*
%TD*%
%TO.C,R4*%
X124800000Y-113100000D03*
X134960000Y-113100000D03*
%TD*%
%TO.C,R13*%
X169300000Y-115400000D03*
X179460000Y-115400000D03*
%TD*%
%TO.C,R3*%
X124700000Y-108300000D03*
X134860000Y-108300000D03*
%TD*%
D12*
%TO.C,H2*%
X116700000Y-124700000D03*
%TD*%
D15*
%TO.C,D2*%
X148480000Y-96775000D03*
D16*
X148480000Y-94235000D03*
%TD*%
M02*
