%TF.GenerationSoftware,KiCad,Pcbnew,8.0.1*%
%TF.CreationDate,2024-05-29T14:30:23+02:00*%
%TF.ProjectId,CorntrolHub,436f726e-7472-46f6-9c48-75622e6b6963,rev?*%
%TF.SameCoordinates,Original*%
%TF.FileFunction,Copper,L2,Bot*%
%TF.FilePolarity,Positive*%
%FSLAX46Y46*%
G04 Gerber Fmt 4.6, Leading zero omitted, Abs format (unit mm)*
G04 Created by KiCad (PCBNEW 8.0.1) date 2024-05-29 14:30:23*
%MOMM*%
%LPD*%
G01*
G04 APERTURE LIST*
G04 Aperture macros list*
%AMRoundRect*
0 Rectangle with rounded corners*
0 $1 Rounding radius*
0 $2 $3 $4 $5 $6 $7 $8 $9 X,Y pos of 4 corners*
0 Add a 4 corners polygon primitive as box body*
4,1,4,$2,$3,$4,$5,$6,$7,$8,$9,$2,$3,0*
0 Add four circle primitives for the rounded corners*
1,1,$1+$1,$2,$3*
1,1,$1+$1,$4,$5*
1,1,$1+$1,$6,$7*
1,1,$1+$1,$8,$9*
0 Add four rect primitives between the rounded corners*
20,1,$1+$1,$2,$3,$4,$5,0*
20,1,$1+$1,$4,$5,$6,$7,0*
20,1,$1+$1,$6,$7,$8,$9,0*
20,1,$1+$1,$8,$9,$2,$3,0*%
G04 Aperture macros list end*
%TA.AperFunction,ComponentPad*%
%ADD10R,1.700000X1.700000*%
%TD*%
%TA.AperFunction,ComponentPad*%
%ADD11O,1.700000X1.700000*%
%TD*%
%TA.AperFunction,ComponentPad*%
%ADD12R,1.500000X1.500000*%
%TD*%
%TA.AperFunction,ComponentPad*%
%ADD13C,1.500000*%
%TD*%
%TA.AperFunction,ComponentPad*%
%ADD14RoundRect,0.250000X0.350000X0.625000X-0.350000X0.625000X-0.350000X-0.625000X0.350000X-0.625000X0*%
%TD*%
%TA.AperFunction,ComponentPad*%
%ADD15O,1.200000X1.750000*%
%TD*%
%TA.AperFunction,ComponentPad*%
%ADD16C,4.000000*%
%TD*%
%TA.AperFunction,ComponentPad*%
%ADD17R,1.600000X1.600000*%
%TD*%
%TA.AperFunction,ComponentPad*%
%ADD18C,1.600000*%
%TD*%
%TA.AperFunction,ComponentPad*%
%ADD19O,1.200000X2.200000*%
%TD*%
%TA.AperFunction,ComponentPad*%
%ADD20O,2.200000X1.200000*%
%TD*%
%TA.AperFunction,ComponentPad*%
%ADD21C,2.000000*%
%TD*%
%TA.AperFunction,ComponentPad*%
%ADD22R,4.600000X2.000000*%
%TD*%
%TA.AperFunction,ComponentPad*%
%ADD23O,4.200000X2.000000*%
%TD*%
%TA.AperFunction,ComponentPad*%
%ADD24O,2.000000X4.200000*%
%TD*%
%TA.AperFunction,ViaPad*%
%ADD25C,0.600000*%
%TD*%
%TA.AperFunction,Conductor*%
%ADD26C,0.400000*%
%TD*%
G04 APERTURE END LIST*
D10*
%TO.P,J6,1,Pin_1*%
%TO.N,Net-(IC1-VDD{slash}VDDA)*%
X120060000Y-87660000D03*
D11*
%TO.P,J6,2,Pin_2*%
%TO.N,SWCLK{slash}BOOT0*%
X120060000Y-90200000D03*
%TO.P,J6,3,Pin_3*%
%TO.N,GNDREF*%
X120060000Y-92740000D03*
%TO.P,J6,4,Pin_4*%
%TO.N,SWDIO*%
X120060000Y-95280000D03*
%TD*%
D12*
%TO.P,J9,1*%
%TO.N,GNDREF*%
X169900000Y-90237500D03*
D13*
%TO.P,J9,2*%
%TO.N,PB5*%
X167360000Y-88967500D03*
%TO.P,J9,3*%
%TO.N,PB6*%
X169900000Y-87697500D03*
%TO.P,J9,4*%
%TO.N,PB7*%
X167360000Y-86427500D03*
%TO.P,J9,5*%
%TO.N,PB8*%
X169900000Y-85157500D03*
%TO.P,J9,6*%
%TO.N,PA11*%
X167360000Y-83887500D03*
%TO.P,J9,7*%
%TO.N,PA12*%
X169900000Y-82617500D03*
%TO.P,J9,8*%
%TO.N,GNDREF*%
X167360000Y-81347500D03*
%TD*%
D14*
%TO.P,BT1,1,+*%
%TO.N,+6V*%
X168890331Y-64905000D03*
D15*
%TO.P,BT1,2,-*%
%TO.N,Net-(BT1--)*%
X166890331Y-64905000D03*
%TD*%
D16*
%TO.P,J7,0*%
%TO.N,N/C*%
X172680000Y-124545000D03*
X172680000Y-99545000D03*
D17*
%TO.P,J7,1,1*%
%TO.N,unconnected-(J7-Pad1)*%
X171260000Y-106505000D03*
D18*
%TO.P,J7,2,2*%
%TO.N,Net-(Q1B-C2)*%
X171260000Y-109275000D03*
%TO.P,J7,3,3*%
%TO.N,Net-(D3-K)*%
X171260000Y-112045000D03*
%TO.P,J7,4,4*%
%TO.N,unconnected-(J7-Pad4)*%
X171260000Y-114815000D03*
%TO.P,J7,5,5*%
%TO.N,GNDREF*%
X171260000Y-117585000D03*
%TO.P,J7,6,6*%
%TO.N,unconnected-(J7-Pad6)*%
X174100000Y-107890000D03*
%TO.P,J7,7,7*%
%TO.N,unconnected-(J7-Pad7)*%
X174100000Y-110660000D03*
%TO.P,J7,8,8*%
%TO.N,unconnected-(J7-Pad8)*%
X174100000Y-113430000D03*
%TO.P,J7,9,9*%
%TO.N,unconnected-(J7-Pad9)*%
X174100000Y-116200000D03*
%TD*%
D19*
%TO.P,J10,R*%
%TO.N,Net-(IC1-VDD{slash}VDDA)*%
X160300000Y-67500000D03*
D20*
%TO.P,J10,S*%
%TO.N,PA15*%
X155300000Y-62500000D03*
D19*
%TO.P,J10,T*%
%TO.N,PB9*%
X150300000Y-67500000D03*
%TD*%
D21*
%TO.P,SW1,1,1*%
%TO.N,NRST*%
X148350000Y-113550000D03*
X141850000Y-113550000D03*
%TO.P,SW1,2,2*%
%TO.N,GNDREF*%
X148350000Y-109050000D03*
X141850000Y-109050000D03*
%TD*%
D10*
%TO.P,J8,1,Pin_1*%
%TO.N,PA0*%
X120060000Y-78200000D03*
D11*
%TO.P,J8,2,Pin_2*%
%TO.N,PA1*%
X120060000Y-75660000D03*
%TO.P,J8,3,Pin_3*%
%TO.N,USART2_TX*%
X122600000Y-78200000D03*
%TO.P,J8,4,Pin_4*%
%TO.N,USART2_RX*%
X122600000Y-75660000D03*
%TO.P,J8,5,Pin_5*%
%TO.N,PA11*%
X125140000Y-78200000D03*
%TO.P,J8,6,Pin_6*%
%TO.N,PA12*%
X125140000Y-75660000D03*
%TO.P,J8,7,Pin_7*%
%TO.N,PA15*%
X127680000Y-78200000D03*
%TO.P,J8,8,Pin_8*%
%TO.N,GNDREF*%
X127680000Y-75660000D03*
%TO.P,J8,9,Pin_9*%
%TO.N,PB5*%
X130220000Y-78200000D03*
%TO.P,J8,10,Pin_10*%
%TO.N,PB6*%
X130220000Y-75660000D03*
%TO.P,J8,11,Pin_11*%
%TO.N,PB7*%
X132760000Y-78200000D03*
%TO.P,J8,12,Pin_12*%
%TO.N,PB8*%
X132760000Y-75660000D03*
%TO.P,J8,13,Pin_13*%
%TO.N,PB9*%
X135300000Y-78200000D03*
%TO.P,J8,14,Pin_14*%
%TO.N,PC14*%
X135300000Y-75660000D03*
%TO.P,J8,15,Pin_15*%
%TO.N,PC15*%
X137840000Y-78200000D03*
%TO.P,J8,16,Pin_16*%
%TO.N,Net-(IC1-VDD{slash}VDDA)*%
X137840000Y-75660000D03*
%TD*%
D22*
%TO.P,J12,1*%
%TO.N,+6V*%
X178640331Y-72205000D03*
D23*
%TO.P,J12,2*%
%TO.N,Net-(BT1--)*%
X178640331Y-65905000D03*
D24*
%TO.P,J12,3*%
%TO.N,GNDREF*%
X173840331Y-69305000D03*
%TD*%
D25*
%TO.N,+6V*%
X109900000Y-92100000D03*
X113400000Y-113400000D03*
X137100000Y-63800000D03*
X114700000Y-63800000D03*
%TO.N,GNDREF*%
X133500000Y-108400000D03*
%TO.N,Net-(IC1-VDD{slash}VDDA)*%
X152400000Y-96600000D03*
X139300000Y-94800000D03*
X147000000Y-93400000D03*
%TO.N,NRST*%
X133600000Y-113400000D03*
%TO.N,PA15*%
X156500000Y-80600000D03*
X155600000Y-71600000D03*
X130700000Y-83200000D03*
X142200000Y-79900000D03*
X139500000Y-86000000D03*
%TO.N,PB9*%
X131600000Y-85700000D03*
X149500000Y-72000000D03*
X140900000Y-80600000D03*
X149500000Y-80600000D03*
%TO.N,Net-(D2-A)*%
X145000000Y-93575000D03*
X124500000Y-99100000D03*
%TO.N,Target1int*%
X135600000Y-94900000D03*
X129000000Y-90900000D03*
%TO.N,Target2Int*%
X142000000Y-72600000D03*
X136800000Y-94900000D03*
%TO.N,Target3Int*%
X137200000Y-98400000D03*
X115700000Y-90000000D03*
%TO.N,Servo3pwm*%
X115000000Y-94100000D03*
X144600000Y-97600000D03*
%TO.N,Target5Int*%
X110700000Y-117300000D03*
X145794975Y-97394975D03*
%TO.N,Servo5pwm*%
X138800000Y-103000000D03*
X114800000Y-116200000D03*
%TO.N,SWCLK{slash}BOOT0*%
X141000000Y-87500000D03*
%TO.N,SWDIO*%
X142900000Y-89300000D03*
%TO.N,Net-(Q1B-C2)*%
X158300000Y-97000000D03*
X149500000Y-106100000D03*
%TO.N,PB8*%
X139300000Y-84100000D03*
X132800000Y-86000000D03*
X144800000Y-85100000D03*
%TO.N,PA12*%
X155600000Y-73600000D03*
X142000000Y-73700000D03*
%TO.N,PB7*%
X134800000Y-89510050D03*
X142800000Y-86700000D03*
X136200000Y-82700000D03*
X144800000Y-86500000D03*
X134000000Y-85600000D03*
%TO.N,PA0*%
X120000000Y-82200000D03*
X129200000Y-95400000D03*
%TO.N,USART2_RX*%
X134800000Y-103000000D03*
%TO.N,PB5*%
X136300000Y-86100000D03*
X135355025Y-84144975D03*
X137800000Y-93100000D03*
%TO.N,PA1*%
X116000000Y-76900000D03*
X130000000Y-96600000D03*
X127100000Y-89500000D03*
%TO.N,PB6*%
X144800000Y-87700000D03*
X142800000Y-88300000D03*
X135800000Y-73900000D03*
X135700000Y-89800000D03*
%TO.N,PC14*%
X125800000Y-86800000D03*
%TO.N,USART2_TX*%
X134000000Y-101700000D03*
X122600000Y-80500000D03*
%TO.N,PC15*%
X128500000Y-86800000D03*
%TO.N,USART1_RX*%
X153800000Y-93000000D03*
X153700000Y-96600000D03*
%TO.N,Net-(Q1B-B2)*%
X157000000Y-102500000D03*
X159600000Y-94700000D03*
%TD*%
D26*
%TO.N,Net-(Q1B-C2)*%
X158300000Y-106800000D02*
X158300000Y-97000000D01*
X159300000Y-107800000D02*
X158300000Y-106800000D01*
X169785000Y-107800000D02*
X159300000Y-107800000D01*
X151200000Y-107800000D02*
X149500000Y-106100000D01*
X169785000Y-107800000D02*
X151200000Y-107800000D01*
X171260000Y-109275000D02*
X169785000Y-107800000D01*
%TO.N,+6V*%
X113400000Y-113400000D02*
X113400000Y-103800000D01*
X105500000Y-87700000D02*
X105500000Y-73000000D01*
X109900000Y-92100000D02*
X105500000Y-87700000D01*
X114700000Y-63800000D02*
X116100000Y-62400000D01*
X109800000Y-100200000D02*
X109800000Y-92200000D01*
X113400000Y-103800000D02*
X109800000Y-100200000D01*
X105500000Y-73000000D02*
X114700000Y-63800000D01*
X135700000Y-62400000D02*
X137100000Y-63800000D01*
X116100000Y-62400000D02*
X135700000Y-62400000D01*
X109800000Y-92200000D02*
X109900000Y-92100000D01*
%TO.N,GNDREF*%
X169900000Y-90237500D02*
X171440331Y-88697169D01*
X133500000Y-108400000D02*
X141200000Y-108400000D01*
X171440331Y-88697169D02*
X171440331Y-82141154D01*
X126430000Y-78677767D02*
X126430000Y-76910000D01*
X118810000Y-86297767D02*
X126430000Y-78677767D01*
X118810000Y-91490000D02*
X118810000Y-86297767D01*
X126430000Y-76910000D02*
X127680000Y-75660000D01*
X120060000Y-92740000D02*
X118810000Y-91490000D01*
X170646677Y-81347500D02*
X167750331Y-81347500D01*
X141200000Y-108400000D02*
X141850000Y-109050000D01*
X171440331Y-82141154D02*
X170646677Y-81347500D01*
%TO.N,Net-(IC1-VDD{slash}VDDA)*%
X147000000Y-93400000D02*
X146475000Y-92875000D01*
X146475000Y-92875000D02*
X144710050Y-92875000D01*
X144710050Y-92875000D02*
X144685050Y-92900000D01*
X136800000Y-73100000D02*
X130250000Y-73100000D01*
X141200000Y-92900000D02*
X139300000Y-94800000D01*
X144685050Y-92900000D02*
X141200000Y-92900000D01*
X128930000Y-74420000D02*
X128930000Y-78790000D01*
X137840000Y-74140000D02*
X136800000Y-73100000D01*
X149200000Y-93400000D02*
X152400000Y-96600000D01*
X147000000Y-93400000D02*
X149200000Y-93400000D01*
X130250000Y-73100000D02*
X128930000Y-74420000D01*
X137840000Y-75660000D02*
X137840000Y-74140000D01*
X128930000Y-78790000D02*
X120060000Y-87660000D01*
%TO.N,NRST*%
X141700000Y-113400000D02*
X133600000Y-113400000D01*
X141800000Y-113500000D02*
X141700000Y-113400000D01*
%TO.N,PA15*%
X154500000Y-79600000D02*
X155500000Y-80600000D01*
X139500000Y-86000000D02*
X138700000Y-86800000D01*
X154500000Y-72700000D02*
X154500000Y-79600000D01*
X142200000Y-79900000D02*
X142200000Y-83300000D01*
X155500000Y-80600000D02*
X156500000Y-80600000D01*
X142200000Y-83300000D02*
X139500000Y-86000000D01*
X138700000Y-86800000D02*
X131600000Y-86800000D01*
X130700000Y-85900000D02*
X130700000Y-83200000D01*
X155600000Y-71600000D02*
X154500000Y-72700000D01*
X131600000Y-86800000D02*
X130700000Y-85900000D01*
%TO.N,PB9*%
X149500000Y-72000000D02*
X149500000Y-80600000D01*
X131600000Y-83100000D02*
X135300000Y-79400000D01*
X137700000Y-80600000D02*
X135300000Y-78200000D01*
X135300000Y-79400000D02*
X135300000Y-78200000D01*
X140900000Y-80600000D02*
X137700000Y-80600000D01*
X131600000Y-85700000D02*
X131600000Y-83100000D01*
%TO.N,Net-(D2-A)*%
X143200000Y-95375000D02*
X143200000Y-97000000D01*
X124700000Y-99300000D02*
X124500000Y-99100000D01*
X143200000Y-97000000D02*
X140900000Y-99300000D01*
X145000000Y-93575000D02*
X143200000Y-95375000D01*
X140900000Y-99300000D02*
X124700000Y-99300000D01*
%TO.N,Target1int*%
X129000000Y-90900000D02*
X130600000Y-92500000D01*
X130600000Y-92500000D02*
X133200000Y-92500000D01*
X133200000Y-92500000D02*
X135600000Y-94900000D01*
%TO.N,Target2Int*%
X136800000Y-92410050D02*
X136800000Y-94900000D01*
X143600000Y-90000000D02*
X142100000Y-91500000D01*
X143600000Y-74200000D02*
X143600000Y-90000000D01*
X142100000Y-91500000D02*
X137710050Y-91500000D01*
X142000000Y-72600000D02*
X143600000Y-74200000D01*
X137710050Y-91500000D02*
X136800000Y-92410050D01*
%TO.N,Target3Int*%
X115700000Y-90000000D02*
X116100000Y-90400000D01*
X116100000Y-96200000D02*
X118100000Y-98200000D01*
X137000000Y-98200000D02*
X137200000Y-98400000D01*
X118100000Y-98200000D02*
X137000000Y-98200000D01*
X116100000Y-90400000D02*
X116100000Y-96200000D01*
%TO.N,Servo3pwm*%
X141700000Y-100500000D02*
X144600000Y-97600000D01*
X117400000Y-100500000D02*
X141700000Y-100500000D01*
X115000000Y-94100000D02*
X115000000Y-98100000D01*
X115000000Y-98100000D02*
X117400000Y-100500000D01*
%TO.N,Target5Int*%
X120300000Y-117300000D02*
X110700000Y-117300000D01*
X129950000Y-107650000D02*
X120300000Y-117300000D01*
X145794975Y-97805025D02*
X135950000Y-107650000D01*
X145794975Y-97394975D02*
X145794975Y-97805025D01*
X135950000Y-107650000D02*
X129950000Y-107650000D01*
%TO.N,Servo5pwm*%
X119700000Y-116200000D02*
X114800000Y-116200000D01*
X129300000Y-106600000D02*
X119700000Y-116200000D01*
X135200000Y-106600000D02*
X129300000Y-106600000D01*
X138800000Y-103000000D02*
X135200000Y-106600000D01*
%TO.N,SWCLK{slash}BOOT0*%
X141000000Y-87500000D02*
X124600000Y-87500000D01*
X121900000Y-90200000D02*
X120060000Y-90200000D01*
X124600000Y-87500000D02*
X121900000Y-90200000D01*
%TO.N,SWDIO*%
X120120000Y-95280000D02*
X126700000Y-88700000D01*
X130100000Y-90800000D02*
X141400000Y-90800000D01*
X141400000Y-90800000D02*
X142900000Y-89300000D01*
X126700000Y-88700000D02*
X128000000Y-88700000D01*
X120060000Y-95280000D02*
X120120000Y-95280000D01*
X128000000Y-88700000D02*
X130100000Y-90800000D01*
%TO.N,PB8*%
X136700000Y-81500000D02*
X139300000Y-84100000D01*
X132800000Y-83600000D02*
X134900000Y-81500000D01*
X134900000Y-81500000D02*
X136700000Y-81500000D01*
X144800000Y-85100000D02*
X144857500Y-85157500D01*
X132800000Y-86000000D02*
X132800000Y-83600000D01*
X144857500Y-85157500D02*
X169900000Y-85157500D01*
%TO.N,PA12*%
X125140000Y-75660000D02*
X128400000Y-72400000D01*
X140700000Y-72400000D02*
X142000000Y-73700000D01*
X164617500Y-82617500D02*
X169900000Y-82617500D01*
X128400000Y-72400000D02*
X140700000Y-72400000D01*
X155600000Y-73600000D02*
X164617500Y-82617500D01*
%TO.N,PB7*%
X142800000Y-87000000D02*
X142800000Y-86700000D01*
X144872500Y-86427500D02*
X144800000Y-86500000D01*
X167360000Y-86427500D02*
X144872500Y-86427500D01*
X134800000Y-89510050D02*
X135310050Y-89000000D01*
X135810050Y-82700000D02*
X134000000Y-84510050D01*
X136200000Y-82700000D02*
X135810050Y-82700000D01*
X135310050Y-89000000D02*
X140800000Y-89000000D01*
X134000000Y-84510050D02*
X134000000Y-85600000D01*
X140800000Y-89000000D02*
X142800000Y-87000000D01*
%TO.N,PA0*%
X127200000Y-97400000D02*
X129200000Y-95400000D01*
X118800000Y-97400000D02*
X127200000Y-97400000D01*
X117300000Y-95900000D02*
X118800000Y-97400000D01*
X117300000Y-84900000D02*
X117300000Y-95900000D01*
X120000000Y-82200000D02*
X117300000Y-84900000D01*
%TO.N,USART2_RX*%
X134800000Y-103000000D02*
X115300000Y-103000000D01*
X112700000Y-100400000D02*
X112700000Y-78400000D01*
X121350000Y-74410000D02*
X122600000Y-75660000D01*
X112700000Y-78400000D02*
X116690000Y-74410000D01*
X115300000Y-103000000D02*
X112700000Y-100400000D01*
X116690000Y-74410000D02*
X121350000Y-74410000D01*
%TO.N,PB5*%
X135355025Y-85155025D02*
X136300000Y-86100000D01*
X167360000Y-89357831D02*
X164517831Y-92200000D01*
X135355025Y-84144975D02*
X135355025Y-85155025D01*
X167360000Y-88967500D02*
X167360000Y-89357831D01*
X164517831Y-92200000D02*
X138700000Y-92200000D01*
X138700000Y-92200000D02*
X137800000Y-93100000D01*
%TO.N,PA1*%
X126300000Y-91300000D02*
X126300000Y-90300000D01*
X130000000Y-95000000D02*
X126300000Y-91300000D01*
X116000000Y-76900000D02*
X117240000Y-75660000D01*
X126300000Y-90300000D02*
X127100000Y-89500000D01*
X117240000Y-75660000D02*
X120060000Y-75660000D01*
X130000000Y-96600000D02*
X130000000Y-95000000D01*
%TO.N,PB6*%
X141110273Y-89889727D02*
X142700000Y-88300000D01*
X142700000Y-88300000D02*
X142800000Y-88300000D01*
X135800000Y-73900000D02*
X131980000Y-73900000D01*
X135789727Y-89889727D02*
X141110273Y-89889727D01*
X144802500Y-87697500D02*
X144800000Y-87700000D01*
X131980000Y-73900000D02*
X130220000Y-75660000D01*
X135700000Y-89800000D02*
X135789727Y-89889727D01*
X169900000Y-87697500D02*
X144802500Y-87697500D01*
%TO.N,PC14*%
X133277767Y-76910000D02*
X134527767Y-75660000D01*
X134527767Y-75660000D02*
X135300000Y-75660000D01*
X125800000Y-84387767D02*
X131470000Y-78717767D01*
X132242233Y-76910000D02*
X133277767Y-76910000D01*
X125800000Y-86800000D02*
X125800000Y-84387767D01*
X131470000Y-77682233D02*
X132242233Y-76910000D01*
X131470000Y-78717767D02*
X131470000Y-77682233D01*
%TO.N,USART2_TX*%
X122100000Y-81000000D02*
X115000000Y-81000000D01*
X115000000Y-81000000D02*
X113600000Y-82400000D01*
X122600000Y-80500000D02*
X122100000Y-81000000D01*
X113600000Y-99800000D02*
X115500000Y-101700000D01*
X115500000Y-101700000D02*
X134000000Y-101700000D01*
X113600000Y-82400000D02*
X113600000Y-99800000D01*
%TO.N,PC15*%
X134010000Y-78890000D02*
X134010000Y-77682233D01*
X128500000Y-84400000D02*
X134010000Y-78890000D01*
X136550000Y-76910000D02*
X137840000Y-78200000D01*
X128500000Y-86800000D02*
X128500000Y-84400000D01*
X134782233Y-76910000D02*
X136550000Y-76910000D01*
X134010000Y-77682233D02*
X134782233Y-76910000D01*
%TO.N,PA11*%
X127432233Y-71600000D02*
X142589950Y-71600000D01*
X144600000Y-80000000D02*
X148487500Y-83887500D01*
X123890000Y-76950000D02*
X123890000Y-75142233D01*
X142589950Y-71600000D02*
X144600000Y-73610050D01*
X123890000Y-75142233D02*
X127432233Y-71600000D01*
X148487500Y-83887500D02*
X167360000Y-83887500D01*
X125140000Y-78200000D02*
X123890000Y-76950000D01*
X144600000Y-73610050D02*
X144600000Y-80000000D01*
%TO.N,USART1_RX*%
X153700000Y-96600000D02*
X153700000Y-93100000D01*
X153700000Y-93100000D02*
X153800000Y-93000000D01*
%TO.N,Net-(Q1B-B2)*%
X157000000Y-96800000D02*
X157000000Y-102500000D01*
X159600000Y-94700000D02*
X159100000Y-94700000D01*
X159100000Y-94700000D02*
X157000000Y-96800000D01*
%TD*%
%TA.AperFunction,Conductor*%
%TO.N,GNDREF*%
G36*
X126494855Y-78866546D02*
G01*
X126511575Y-78885842D01*
X126641500Y-79071395D01*
X126641505Y-79071401D01*
X126808599Y-79238495D01*
X126896040Y-79299722D01*
X127002165Y-79374032D01*
X127002167Y-79374033D01*
X127002170Y-79374035D01*
X127082506Y-79411496D01*
X127134945Y-79457668D01*
X127154097Y-79524862D01*
X127133881Y-79591743D01*
X127117782Y-79611559D01*
X120456160Y-86273181D01*
X120394837Y-86306666D01*
X120368479Y-86309500D01*
X119162129Y-86309500D01*
X119162123Y-86309501D01*
X119102516Y-86315908D01*
X118967671Y-86366202D01*
X118967664Y-86366206D01*
X118852455Y-86452452D01*
X118852452Y-86452455D01*
X118766206Y-86567664D01*
X118766202Y-86567671D01*
X118715908Y-86702517D01*
X118709501Y-86762116D01*
X118709500Y-86762135D01*
X118709500Y-88557870D01*
X118709501Y-88557876D01*
X118715908Y-88617483D01*
X118766202Y-88752328D01*
X118766206Y-88752335D01*
X118852452Y-88867544D01*
X118852455Y-88867547D01*
X118967664Y-88953793D01*
X118967671Y-88953797D01*
X119099081Y-89002810D01*
X119155015Y-89044681D01*
X119179432Y-89110145D01*
X119164580Y-89178418D01*
X119143430Y-89206673D01*
X119021503Y-89328600D01*
X118885965Y-89522169D01*
X118885964Y-89522171D01*
X118786098Y-89736335D01*
X118786094Y-89736344D01*
X118724938Y-89964586D01*
X118724936Y-89964596D01*
X118704341Y-90199999D01*
X118704341Y-90200000D01*
X118724936Y-90435403D01*
X118724938Y-90435411D01*
X118786094Y-90663655D01*
X118786096Y-90663659D01*
X118786097Y-90663663D01*
X118845549Y-90791157D01*
X118885965Y-90877830D01*
X118885967Y-90877834D01*
X119021501Y-91071395D01*
X119021506Y-91071402D01*
X119188597Y-91238493D01*
X119188603Y-91238498D01*
X119259041Y-91287819D01*
X119330692Y-91337990D01*
X119374594Y-91368730D01*
X119418219Y-91423307D01*
X119425413Y-91492805D01*
X119393890Y-91555160D01*
X119374595Y-91571880D01*
X119188922Y-91701890D01*
X119188920Y-91701891D01*
X119021891Y-91868920D01*
X119021886Y-91868926D01*
X118886400Y-92062420D01*
X118886399Y-92062422D01*
X118786570Y-92276507D01*
X118786567Y-92276513D01*
X118729364Y-92489999D01*
X118729364Y-92490000D01*
X119626988Y-92490000D01*
X119594075Y-92547007D01*
X119560000Y-92674174D01*
X119560000Y-92805826D01*
X119594075Y-92932993D01*
X119626988Y-92990000D01*
X118729364Y-92990000D01*
X118786567Y-93203486D01*
X118786570Y-93203492D01*
X118886399Y-93417578D01*
X119021894Y-93611082D01*
X119188917Y-93778105D01*
X119374595Y-93908119D01*
X119418219Y-93962696D01*
X119425412Y-94032195D01*
X119393890Y-94094549D01*
X119374595Y-94111269D01*
X119188594Y-94241508D01*
X119021505Y-94408597D01*
X118885965Y-94602169D01*
X118885964Y-94602171D01*
X118806481Y-94772623D01*
X118786098Y-94816336D01*
X118786094Y-94816344D01*
X118724938Y-95044586D01*
X118724936Y-95044596D01*
X118704341Y-95279999D01*
X118704341Y-95280000D01*
X118724936Y-95515403D01*
X118724938Y-95515413D01*
X118786094Y-95743655D01*
X118786096Y-95743659D01*
X118786097Y-95743663D01*
X118868192Y-95919715D01*
X118885965Y-95957830D01*
X118885967Y-95957834D01*
X118894615Y-95970184D01*
X119021505Y-96151401D01*
X119188599Y-96318495D01*
X119285384Y-96386265D01*
X119382165Y-96454032D01*
X119382167Y-96454033D01*
X119382170Y-96454035D01*
X119401649Y-96463118D01*
X119454088Y-96509291D01*
X119473240Y-96576484D01*
X119453024Y-96643365D01*
X119399859Y-96688700D01*
X119349244Y-96699500D01*
X119141518Y-96699500D01*
X119074479Y-96679815D01*
X119053837Y-96663181D01*
X118036819Y-95646162D01*
X118003334Y-95584839D01*
X118000500Y-95558481D01*
X118000500Y-85241518D01*
X118020185Y-85174479D01*
X118036814Y-85153842D01*
X120199290Y-82991365D01*
X120246013Y-82962007D01*
X120349522Y-82925789D01*
X120502262Y-82829816D01*
X120629816Y-82702262D01*
X120725789Y-82549522D01*
X120785368Y-82379255D01*
X120805565Y-82200000D01*
X120804232Y-82188170D01*
X120785369Y-82020750D01*
X120785367Y-82020742D01*
X120731030Y-81865454D01*
X120727469Y-81795676D01*
X120762198Y-81735048D01*
X120824191Y-81702821D01*
X120848072Y-81700500D01*
X122168996Y-81700500D01*
X122260040Y-81682389D01*
X122304328Y-81673580D01*
X122380876Y-81641873D01*
X122431807Y-81620777D01*
X122431808Y-81620776D01*
X122431811Y-81620775D01*
X122546543Y-81544114D01*
X122799292Y-81291363D01*
X122846013Y-81262007D01*
X122949522Y-81225789D01*
X123102262Y-81129816D01*
X123229816Y-81002262D01*
X123325789Y-80849522D01*
X123385368Y-80679255D01*
X123387771Y-80657927D01*
X123405565Y-80500003D01*
X123405565Y-80499996D01*
X123385369Y-80320750D01*
X123385368Y-80320745D01*
X123360781Y-80250479D01*
X123325789Y-80150478D01*
X123229816Y-79997738D01*
X123102262Y-79870184D01*
X123061948Y-79844853D01*
X122949519Y-79774208D01*
X122892418Y-79754228D01*
X122835642Y-79713506D01*
X122809895Y-79648553D01*
X122823352Y-79579992D01*
X122871739Y-79529589D01*
X122901276Y-79517413D01*
X123032825Y-79482166D01*
X123063653Y-79473906D01*
X123063654Y-79473905D01*
X123063663Y-79473903D01*
X123277830Y-79374035D01*
X123471401Y-79238495D01*
X123638495Y-79071401D01*
X123768425Y-78885842D01*
X123823002Y-78842217D01*
X123892500Y-78835023D01*
X123954855Y-78866546D01*
X123971575Y-78885842D01*
X124101500Y-79071395D01*
X124101505Y-79071401D01*
X124268599Y-79238495D01*
X124356040Y-79299722D01*
X124462165Y-79374032D01*
X124462167Y-79374033D01*
X124462170Y-79374035D01*
X124676337Y-79473903D01*
X124676343Y-79473904D01*
X124676344Y-79473905D01*
X124707175Y-79482166D01*
X124904592Y-79535063D01*
X125081034Y-79550500D01*
X125139999Y-79555659D01*
X125140000Y-79555659D01*
X125140001Y-79555659D01*
X125198966Y-79550500D01*
X125375408Y-79535063D01*
X125603663Y-79473903D01*
X125817830Y-79374035D01*
X126011401Y-79238495D01*
X126178495Y-79071401D01*
X126308425Y-78885842D01*
X126363002Y-78842217D01*
X126432500Y-78835023D01*
X126494855Y-78866546D01*
G37*
%TD.AperFunction*%
%TA.AperFunction,Conductor*%
G36*
X125976520Y-88220185D02*
G01*
X126022275Y-88272989D01*
X126032219Y-88342147D01*
X126003194Y-88405703D01*
X125997162Y-88412181D01*
X121455660Y-92953681D01*
X121394337Y-92987166D01*
X121367979Y-92990000D01*
X120493012Y-92990000D01*
X120525925Y-92932993D01*
X120560000Y-92805826D01*
X120560000Y-92674174D01*
X120525925Y-92547007D01*
X120493012Y-92490000D01*
X121390636Y-92490000D01*
X121390635Y-92489999D01*
X121333432Y-92276513D01*
X121333429Y-92276507D01*
X121233600Y-92062422D01*
X121233599Y-92062420D01*
X121098113Y-91868926D01*
X121098108Y-91868920D01*
X120931078Y-91701890D01*
X120745405Y-91571879D01*
X120701780Y-91517302D01*
X120694588Y-91447804D01*
X120726110Y-91385449D01*
X120745406Y-91368730D01*
X120779743Y-91344687D01*
X120931401Y-91238495D01*
X121098495Y-91071401D01*
X121181136Y-90953376D01*
X121235713Y-90909752D01*
X121282711Y-90900500D01*
X121968996Y-90900500D01*
X122082962Y-90877830D01*
X122104328Y-90873580D01*
X122168069Y-90847177D01*
X122231807Y-90820777D01*
X122231808Y-90820776D01*
X122231811Y-90820775D01*
X122346543Y-90744114D01*
X124853838Y-88236819D01*
X124915161Y-88203334D01*
X124941519Y-88200500D01*
X125909481Y-88200500D01*
X125976520Y-88220185D01*
G37*
%TD.AperFunction*%
%TA.AperFunction,Conductor*%
G36*
X126495160Y-76326110D02*
G01*
X126511879Y-76345405D01*
X126641890Y-76531078D01*
X126808917Y-76698105D01*
X126994595Y-76828119D01*
X127038219Y-76882696D01*
X127045412Y-76952195D01*
X127013890Y-77014549D01*
X126994595Y-77031269D01*
X126808594Y-77161508D01*
X126641505Y-77328597D01*
X126511575Y-77514158D01*
X126456998Y-77557783D01*
X126387500Y-77564977D01*
X126325145Y-77533454D01*
X126308425Y-77514158D01*
X126178494Y-77328597D01*
X126011402Y-77161506D01*
X126011396Y-77161501D01*
X125825842Y-77031575D01*
X125782217Y-76976998D01*
X125775023Y-76907500D01*
X125806546Y-76845145D01*
X125825842Y-76828425D01*
X125988332Y-76714648D01*
X126011401Y-76698495D01*
X126178495Y-76531401D01*
X126308730Y-76345405D01*
X126363307Y-76301781D01*
X126432805Y-76294587D01*
X126495160Y-76326110D01*
G37*
%TD.AperFunction*%
%TA.AperFunction,Conductor*%
G36*
X129026520Y-73120185D02*
G01*
X129072275Y-73172989D01*
X129082219Y-73242147D01*
X129053194Y-73305703D01*
X129047162Y-73312181D01*
X128385888Y-73973453D01*
X128385887Y-73973454D01*
X128309222Y-74088192D01*
X128256421Y-74215667D01*
X128256418Y-74215677D01*
X128244260Y-74276800D01*
X128211875Y-74338711D01*
X128151159Y-74373285D01*
X128090549Y-74372383D01*
X127930000Y-74329364D01*
X127930000Y-75226988D01*
X127872993Y-75194075D01*
X127745826Y-75160000D01*
X127614174Y-75160000D01*
X127487007Y-75194075D01*
X127430000Y-75226988D01*
X127430000Y-74412018D01*
X127449685Y-74344979D01*
X127466319Y-74324337D01*
X127574980Y-74215677D01*
X128653838Y-73136819D01*
X128715161Y-73103334D01*
X128741519Y-73100500D01*
X128959481Y-73100500D01*
X129026520Y-73120185D01*
G37*
%TD.AperFunction*%
%TA.AperFunction,Conductor*%
G36*
X148675233Y-58484725D02*
G01*
X148698383Y-58490927D01*
X148734108Y-58500500D01*
X152475500Y-58500500D01*
X152542539Y-58520185D01*
X152588294Y-58572989D01*
X152599500Y-58624500D01*
X152599500Y-59088695D01*
X152634103Y-59262658D01*
X152634106Y-59262667D01*
X152701983Y-59426540D01*
X152701990Y-59426553D01*
X152800535Y-59574034D01*
X152800538Y-59574038D01*
X152925961Y-59699461D01*
X152925965Y-59699464D01*
X153073446Y-59798009D01*
X153073459Y-59798016D01*
X153196363Y-59848923D01*
X153237334Y-59865894D01*
X153237336Y-59865894D01*
X153237341Y-59865896D01*
X153411304Y-59900499D01*
X153411307Y-59900500D01*
X153411309Y-59900500D01*
X157188693Y-59900500D01*
X157188694Y-59900499D01*
X157246682Y-59888964D01*
X157362658Y-59865896D01*
X157362661Y-59865894D01*
X157362666Y-59865894D01*
X157526547Y-59798013D01*
X157674035Y-59699464D01*
X157799464Y-59574035D01*
X157898013Y-59426547D01*
X157965894Y-59262666D01*
X157969151Y-59246295D01*
X158000499Y-59088695D01*
X158000500Y-59088693D01*
X158000500Y-58624500D01*
X158020185Y-58557461D01*
X158072989Y-58511706D01*
X158124500Y-58500500D01*
X161865890Y-58500500D01*
X161865892Y-58500500D01*
X161907622Y-58489318D01*
X161924767Y-58484725D01*
X161956859Y-58480500D01*
X183765831Y-58480500D01*
X183832870Y-58500185D01*
X183878625Y-58552989D01*
X183889831Y-58604500D01*
X183889831Y-127455500D01*
X183870146Y-127522539D01*
X183817342Y-127568294D01*
X183765831Y-127579500D01*
X105014831Y-127579500D01*
X104947792Y-127559815D01*
X104902037Y-127507011D01*
X104890831Y-127455500D01*
X104890831Y-124545005D01*
X170174556Y-124545005D01*
X170194310Y-124859004D01*
X170194311Y-124859011D01*
X170253270Y-125168083D01*
X170350497Y-125467316D01*
X170350499Y-125467321D01*
X170484461Y-125752003D01*
X170484464Y-125752009D01*
X170653051Y-126017661D01*
X170653054Y-126017665D01*
X170853606Y-126260090D01*
X170853608Y-126260092D01*
X171082968Y-126475476D01*
X171082978Y-126475484D01*
X171337504Y-126660408D01*
X171337509Y-126660410D01*
X171337516Y-126660416D01*
X171613234Y-126811994D01*
X171613239Y-126811996D01*
X171613241Y-126811997D01*
X171613242Y-126811998D01*
X171905771Y-126927818D01*
X171905774Y-126927819D01*
X172210523Y-127006065D01*
X172210527Y-127006066D01*
X172276010Y-127014338D01*
X172522670Y-127045499D01*
X172522679Y-127045499D01*
X172522682Y-127045500D01*
X172522684Y-127045500D01*
X172837316Y-127045500D01*
X172837318Y-127045500D01*
X172837321Y-127045499D01*
X172837329Y-127045499D01*
X173023593Y-127021968D01*
X173149473Y-127006066D01*
X173454225Y-126927819D01*
X173454228Y-126927818D01*
X173746757Y-126811998D01*
X173746758Y-126811997D01*
X173746756Y-126811997D01*
X173746766Y-126811994D01*
X174022484Y-126660416D01*
X174277030Y-126475478D01*
X174506390Y-126260094D01*
X174706947Y-126017663D01*
X174875537Y-125752007D01*
X175009503Y-125467315D01*
X175106731Y-125168079D01*
X175165688Y-124859015D01*
X175185444Y-124545000D01*
X175165688Y-124230985D01*
X175106731Y-123921921D01*
X175009503Y-123622685D01*
X174875537Y-123337993D01*
X174706947Y-123072337D01*
X174706945Y-123072334D01*
X174506393Y-122829909D01*
X174506391Y-122829907D01*
X174277031Y-122614523D01*
X174277021Y-122614515D01*
X174022495Y-122429591D01*
X174022488Y-122429586D01*
X174022484Y-122429584D01*
X173746766Y-122278006D01*
X173746763Y-122278004D01*
X173746758Y-122278002D01*
X173746757Y-122278001D01*
X173454228Y-122162181D01*
X173454225Y-122162180D01*
X173149476Y-122083934D01*
X173149463Y-122083932D01*
X172837329Y-122044500D01*
X172837318Y-122044500D01*
X172522682Y-122044500D01*
X172522670Y-122044500D01*
X172210536Y-122083932D01*
X172210523Y-122083934D01*
X171905774Y-122162180D01*
X171905771Y-122162181D01*
X171613242Y-122278001D01*
X171613241Y-122278002D01*
X171337516Y-122429584D01*
X171337504Y-122429591D01*
X171082978Y-122614515D01*
X171082968Y-122614523D01*
X170853608Y-122829907D01*
X170853606Y-122829909D01*
X170653054Y-123072334D01*
X170653051Y-123072338D01*
X170484464Y-123337990D01*
X170484461Y-123337996D01*
X170350499Y-123622678D01*
X170350497Y-123622683D01*
X170253270Y-123921916D01*
X170194311Y-124230988D01*
X170194310Y-124230995D01*
X170174556Y-124544994D01*
X170174556Y-124545005D01*
X104890831Y-124545005D01*
X104890831Y-117300003D01*
X109894435Y-117300003D01*
X109914630Y-117479249D01*
X109914631Y-117479254D01*
X109974211Y-117649523D01*
X109975030Y-117650826D01*
X110070184Y-117802262D01*
X110197738Y-117929816D01*
X110211643Y-117938553D01*
X110350474Y-118025787D01*
X110350478Y-118025789D01*
X110422313Y-118050925D01*
X110520745Y-118085368D01*
X110520750Y-118085369D01*
X110699996Y-118105565D01*
X110700000Y-118105565D01*
X110700004Y-118105565D01*
X110879249Y-118085369D01*
X110879252Y-118085368D01*
X110879255Y-118085368D01*
X111049522Y-118025789D01*
X111050488Y-118025181D01*
X111059523Y-118019506D01*
X111125494Y-118000500D01*
X120368996Y-118000500D01*
X120460040Y-117982389D01*
X120504328Y-117973580D01*
X120588891Y-117938553D01*
X120631807Y-117920777D01*
X120631808Y-117920776D01*
X120631811Y-117920775D01*
X120746543Y-117844114D01*
X125190654Y-113400003D01*
X132794435Y-113400003D01*
X132814630Y-113579249D01*
X132814631Y-113579254D01*
X132874211Y-113749523D01*
X132953989Y-113876488D01*
X132970184Y-113902262D01*
X133097738Y-114029816D01*
X133112165Y-114038881D01*
X133250474Y-114125787D01*
X133250478Y-114125789D01*
X133354726Y-114162267D01*
X133420745Y-114185368D01*
X133420750Y-114185369D01*
X133599996Y-114205565D01*
X133600000Y-114205565D01*
X133600004Y-114205565D01*
X133779249Y-114185369D01*
X133779252Y-114185368D01*
X133779255Y-114185368D01*
X133949522Y-114125789D01*
X133950488Y-114125181D01*
X133959523Y-114119506D01*
X134025494Y-114100500D01*
X140371952Y-114100500D01*
X140438991Y-114120185D01*
X140484746Y-114172989D01*
X140485508Y-114174690D01*
X140525826Y-114266606D01*
X140661833Y-114474782D01*
X140661836Y-114474785D01*
X140830256Y-114657738D01*
X141026491Y-114810474D01*
X141026493Y-114810475D01*
X141181816Y-114894532D01*
X141245190Y-114928828D01*
X141480386Y-115009571D01*
X141725665Y-115050500D01*
X141974335Y-115050500D01*
X142219614Y-115009571D01*
X142454810Y-114928828D01*
X142673509Y-114810474D01*
X142869744Y-114657738D01*
X143038164Y-114474785D01*
X143174173Y-114266607D01*
X143274063Y-114038881D01*
X143335108Y-113797821D01*
X143346802Y-113656697D01*
X143355643Y-113550005D01*
X146844357Y-113550005D01*
X146864890Y-113797812D01*
X146864892Y-113797824D01*
X146925936Y-114038881D01*
X147025826Y-114266606D01*
X147161833Y-114474782D01*
X147161836Y-114474785D01*
X147330256Y-114657738D01*
X147526491Y-114810474D01*
X147526493Y-114810475D01*
X147681816Y-114894532D01*
X147745190Y-114928828D01*
X147980386Y-115009571D01*
X148225665Y-115050500D01*
X148474335Y-115050500D01*
X148719614Y-115009571D01*
X148954810Y-114928828D01*
X149173509Y-114810474D01*
X149369744Y-114657738D01*
X149538164Y-114474785D01*
X149674173Y-114266607D01*
X149774063Y-114038881D01*
X149835108Y-113797821D01*
X149846802Y-113656697D01*
X149855643Y-113550005D01*
X149855643Y-113549994D01*
X149835109Y-113302187D01*
X149835107Y-113302175D01*
X149774063Y-113061118D01*
X149674173Y-112833393D01*
X149538166Y-112625217D01*
X149506536Y-112590858D01*
X149369744Y-112442262D01*
X149173509Y-112289526D01*
X149173507Y-112289525D01*
X149173506Y-112289524D01*
X149047417Y-112221288D01*
X161649500Y-112221288D01*
X161681161Y-112461785D01*
X161743947Y-112696104D01*
X161827467Y-112897738D01*
X161836776Y-112920212D01*
X161958064Y-113130289D01*
X161958066Y-113130292D01*
X161958067Y-113130293D01*
X162105733Y-113322736D01*
X162105739Y-113322743D01*
X162277256Y-113494260D01*
X162277263Y-113494266D01*
X162349897Y-113550000D01*
X162469711Y-113641936D01*
X162679788Y-113763224D01*
X162903900Y-113856054D01*
X163138211Y-113918838D01*
X163318586Y-113942584D01*
X163378711Y-113950500D01*
X163378712Y-113950500D01*
X163621289Y-113950500D01*
X163669388Y-113944167D01*
X163861789Y-113918838D01*
X164096100Y-113856054D01*
X164320212Y-113763224D01*
X164530289Y-113641936D01*
X164722738Y-113494265D01*
X164894265Y-113322738D01*
X165041936Y-113130289D01*
X165163224Y-112920212D01*
X165256054Y-112696100D01*
X165318838Y-112461789D01*
X165350500Y-112221288D01*
X165350500Y-111978712D01*
X165348756Y-111965468D01*
X165333621Y-111850500D01*
X165318838Y-111738211D01*
X165256054Y-111503900D01*
X165163224Y-111279788D01*
X165041936Y-111069711D01*
X164981018Y-110990321D01*
X164894266Y-110877263D01*
X164894260Y-110877256D01*
X164722743Y-110705739D01*
X164722736Y-110705733D01*
X164530293Y-110558067D01*
X164530292Y-110558066D01*
X164530289Y-110558064D01*
X164320212Y-110436776D01*
X164311852Y-110433313D01*
X164096104Y-110343947D01*
X163861785Y-110281161D01*
X163621289Y-110249500D01*
X163621288Y-110249500D01*
X163378712Y-110249500D01*
X163378711Y-110249500D01*
X163138214Y-110281161D01*
X162903895Y-110343947D01*
X162679794Y-110436773D01*
X162679785Y-110436777D01*
X162469706Y-110558067D01*
X162277263Y-110705733D01*
X162277256Y-110705739D01*
X162105739Y-110877256D01*
X162105733Y-110877263D01*
X161958067Y-111069706D01*
X161836777Y-111279785D01*
X161836773Y-111279794D01*
X161743947Y-111503895D01*
X161681161Y-111738214D01*
X161649500Y-111978711D01*
X161649500Y-112221288D01*
X149047417Y-112221288D01*
X148954811Y-112171172D01*
X148954802Y-112171169D01*
X148719616Y-112090429D01*
X148474335Y-112049500D01*
X148225665Y-112049500D01*
X147980383Y-112090429D01*
X147745197Y-112171169D01*
X147745188Y-112171172D01*
X147526493Y-112289524D01*
X147330257Y-112442261D01*
X147161833Y-112625217D01*
X147025826Y-112833393D01*
X146925936Y-113061118D01*
X146864892Y-113302175D01*
X146864890Y-113302187D01*
X146844357Y-113549994D01*
X146844357Y-113550005D01*
X143355643Y-113550005D01*
X143355643Y-113549994D01*
X143335109Y-113302187D01*
X143335107Y-113302175D01*
X143274063Y-113061118D01*
X143174173Y-112833393D01*
X143038166Y-112625217D01*
X143006536Y-112590858D01*
X142869744Y-112442262D01*
X142673509Y-112289526D01*
X142673507Y-112289525D01*
X142673506Y-112289524D01*
X142454811Y-112171172D01*
X142454802Y-112171169D01*
X142219616Y-112090429D01*
X141974335Y-112049500D01*
X141725665Y-112049500D01*
X141480383Y-112090429D01*
X141245197Y-112171169D01*
X141245188Y-112171172D01*
X141026493Y-112289524D01*
X140846069Y-112429954D01*
X140830256Y-112442262D01*
X140661836Y-112625215D01*
X140650004Y-112643324D01*
X140596859Y-112688679D01*
X140546198Y-112699500D01*
X134025494Y-112699500D01*
X133959523Y-112680494D01*
X133949525Y-112674212D01*
X133779254Y-112614631D01*
X133779249Y-112614630D01*
X133600004Y-112594435D01*
X133599996Y-112594435D01*
X133420750Y-112614630D01*
X133420745Y-112614631D01*
X133250476Y-112674211D01*
X133097737Y-112770184D01*
X132970184Y-112897737D01*
X132874211Y-113050476D01*
X132814631Y-113220745D01*
X132814630Y-113220750D01*
X132794435Y-113399996D01*
X132794435Y-113400003D01*
X125190654Y-113400003D01*
X129540652Y-109050005D01*
X140344859Y-109050005D01*
X140365385Y-109297729D01*
X140365387Y-109297738D01*
X140426412Y-109538717D01*
X140526266Y-109766364D01*
X140626564Y-109919882D01*
X141326212Y-109220234D01*
X141337482Y-109262292D01*
X141409890Y-109387708D01*
X141512292Y-109490110D01*
X141637708Y-109562518D01*
X141679765Y-109573787D01*
X140979942Y-110273609D01*
X141026768Y-110310055D01*
X141026770Y-110310056D01*
X141245385Y-110428364D01*
X141245396Y-110428369D01*
X141480506Y-110509083D01*
X141725707Y-110550000D01*
X141974293Y-110550000D01*
X142219493Y-110509083D01*
X142454603Y-110428369D01*
X142454614Y-110428364D01*
X142673228Y-110310057D01*
X142673231Y-110310055D01*
X142720056Y-110273609D01*
X142020234Y-109573787D01*
X142062292Y-109562518D01*
X142187708Y-109490110D01*
X142290110Y-109387708D01*
X142362518Y-109262292D01*
X142373787Y-109220235D01*
X143073434Y-109919882D01*
X143173731Y-109766369D01*
X143273587Y-109538717D01*
X143334612Y-109297738D01*
X143334614Y-109297729D01*
X143355141Y-109050005D01*
X146844859Y-109050005D01*
X146865385Y-109297729D01*
X146865387Y-109297738D01*
X146926412Y-109538717D01*
X147026266Y-109766364D01*
X147126564Y-109919882D01*
X147826212Y-109220234D01*
X147837482Y-109262292D01*
X147909890Y-109387708D01*
X148012292Y-109490110D01*
X148137708Y-109562518D01*
X148179765Y-109573787D01*
X147479942Y-110273609D01*
X147526768Y-110310055D01*
X147526770Y-110310056D01*
X147745385Y-110428364D01*
X147745396Y-110428369D01*
X147980506Y-110509083D01*
X148225707Y-110550000D01*
X148474293Y-110550000D01*
X148719493Y-110509083D01*
X148954603Y-110428369D01*
X148954614Y-110428364D01*
X149173228Y-110310057D01*
X149173231Y-110310055D01*
X149220056Y-110273609D01*
X148520234Y-109573787D01*
X148562292Y-109562518D01*
X148687708Y-109490110D01*
X148790110Y-109387708D01*
X148862518Y-109262292D01*
X148873787Y-109220235D01*
X149573434Y-109919882D01*
X149673731Y-109766369D01*
X149773587Y-109538717D01*
X149834612Y-109297738D01*
X149834614Y-109297729D01*
X149855141Y-109050005D01*
X149855141Y-109049994D01*
X149834614Y-108802270D01*
X149834612Y-108802261D01*
X149773587Y-108561282D01*
X149673731Y-108333630D01*
X149573434Y-108180116D01*
X148873787Y-108879764D01*
X148862518Y-108837708D01*
X148790110Y-108712292D01*
X148687708Y-108609890D01*
X148562292Y-108537482D01*
X148520235Y-108526212D01*
X149220057Y-107826390D01*
X149220056Y-107826389D01*
X149173229Y-107789943D01*
X148954614Y-107671635D01*
X148954603Y-107671630D01*
X148719493Y-107590916D01*
X148474293Y-107550000D01*
X148225707Y-107550000D01*
X147980506Y-107590916D01*
X147745396Y-107671630D01*
X147745390Y-107671632D01*
X147526761Y-107789949D01*
X147479942Y-107826388D01*
X147479942Y-107826390D01*
X148179765Y-108526212D01*
X148137708Y-108537482D01*
X148012292Y-108609890D01*
X147909890Y-108712292D01*
X147837482Y-108837708D01*
X147826212Y-108879764D01*
X147126564Y-108180116D01*
X147026267Y-108333632D01*
X146926412Y-108561282D01*
X146865387Y-108802261D01*
X146865385Y-108802270D01*
X146844859Y-109049994D01*
X146844859Y-109050005D01*
X143355141Y-109050005D01*
X143355141Y-109049994D01*
X143334614Y-108802270D01*
X143334612Y-108802261D01*
X143273587Y-108561282D01*
X143173731Y-108333630D01*
X143073434Y-108180116D01*
X142373787Y-108879764D01*
X142362518Y-108837708D01*
X142290110Y-108712292D01*
X142187708Y-108609890D01*
X142062292Y-108537482D01*
X142020235Y-108526212D01*
X142720057Y-107826390D01*
X142720056Y-107826389D01*
X142673229Y-107789943D01*
X142454614Y-107671635D01*
X142454603Y-107671630D01*
X142219493Y-107590916D01*
X141974293Y-107550000D01*
X141725707Y-107550000D01*
X141480506Y-107590916D01*
X141245396Y-107671630D01*
X141245390Y-107671632D01*
X141026761Y-107789949D01*
X140979942Y-107826388D01*
X140979942Y-107826390D01*
X141679765Y-108526212D01*
X141637708Y-108537482D01*
X141512292Y-108609890D01*
X141409890Y-108712292D01*
X141337482Y-108837708D01*
X141326212Y-108879764D01*
X140626564Y-108180116D01*
X140526267Y-108333632D01*
X140426412Y-108561282D01*
X140365387Y-108802261D01*
X140365385Y-108802270D01*
X140344859Y-109049994D01*
X140344859Y-109050005D01*
X129540652Y-109050005D01*
X130203838Y-108386819D01*
X130265161Y-108353334D01*
X130291519Y-108350500D01*
X136018996Y-108350500D01*
X136110040Y-108332389D01*
X136154328Y-108323580D01*
X136218069Y-108297177D01*
X136281807Y-108270777D01*
X136281808Y-108270776D01*
X136281811Y-108270775D01*
X136396543Y-108194114D01*
X138490654Y-106100003D01*
X148694435Y-106100003D01*
X148714630Y-106279249D01*
X148714631Y-106279254D01*
X148774211Y-106449523D01*
X148779840Y-106458481D01*
X148870184Y-106602262D01*
X148997738Y-106729816D01*
X149150478Y-106825789D01*
X149253984Y-106862007D01*
X149300710Y-106891367D01*
X150753453Y-108344111D01*
X150753454Y-108344112D01*
X150868192Y-108420777D01*
X150958220Y-108458067D01*
X150995672Y-108473580D01*
X150995676Y-108473580D01*
X150995677Y-108473581D01*
X151131003Y-108500500D01*
X151131006Y-108500500D01*
X151131007Y-108500500D01*
X159231006Y-108500500D01*
X159231007Y-108500500D01*
X169443481Y-108500500D01*
X169510520Y-108520185D01*
X169531162Y-108536819D01*
X169938972Y-108944629D01*
X169972457Y-109005952D01*
X169974819Y-109043117D01*
X169954532Y-109274998D01*
X169954532Y-109275001D01*
X169974364Y-109501686D01*
X169974366Y-109501697D01*
X170033258Y-109721488D01*
X170033261Y-109721497D01*
X170129431Y-109927732D01*
X170129432Y-109927734D01*
X170259954Y-110114141D01*
X170420858Y-110275045D01*
X170420861Y-110275047D01*
X170607266Y-110405568D01*
X170813504Y-110501739D01*
X170813509Y-110501740D01*
X170813511Y-110501741D01*
X170957136Y-110540225D01*
X171016797Y-110576590D01*
X171047326Y-110639437D01*
X171039031Y-110708812D01*
X170994546Y-110762690D01*
X170957136Y-110779775D01*
X170813511Y-110818258D01*
X170813502Y-110818261D01*
X170607267Y-110914431D01*
X170607265Y-110914432D01*
X170420858Y-111044954D01*
X170259954Y-111205858D01*
X170129432Y-111392265D01*
X170129431Y-111392267D01*
X170033261Y-111598502D01*
X170033258Y-111598511D01*
X169974366Y-111818302D01*
X169974364Y-111818313D01*
X169954532Y-112044998D01*
X169954532Y-112045001D01*
X169974364Y-112271686D01*
X169974366Y-112271697D01*
X170033258Y-112491488D01*
X170033261Y-112491497D01*
X170129431Y-112697732D01*
X170129432Y-112697734D01*
X170259954Y-112884141D01*
X170420858Y-113045045D01*
X170420861Y-113045047D01*
X170607266Y-113175568D01*
X170813504Y-113271739D01*
X170813509Y-113271740D01*
X170813511Y-113271741D01*
X170957136Y-113310225D01*
X171016797Y-113346590D01*
X171047326Y-113409437D01*
X171039031Y-113478812D01*
X170994546Y-113532690D01*
X170957136Y-113549775D01*
X170813511Y-113588258D01*
X170813502Y-113588261D01*
X170607267Y-113684431D01*
X170607265Y-113684432D01*
X170420858Y-113814954D01*
X170259954Y-113975858D01*
X170129432Y-114162265D01*
X170129431Y-114162267D01*
X170033261Y-114368502D01*
X170033258Y-114368511D01*
X169974366Y-114588302D01*
X169974364Y-114588313D01*
X169954532Y-114814998D01*
X169954532Y-114815001D01*
X169974364Y-115041686D01*
X169974366Y-115041697D01*
X170033258Y-115261488D01*
X170033261Y-115261497D01*
X170129431Y-115467732D01*
X170129432Y-115467734D01*
X170259954Y-115654141D01*
X170420858Y-115815045D01*
X170420861Y-115815047D01*
X170607266Y-115945568D01*
X170813504Y-116041739D01*
X170958102Y-116080483D01*
X171017761Y-116116848D01*
X171048291Y-116179694D01*
X171039997Y-116249070D01*
X170995512Y-116302948D01*
X170958102Y-116320033D01*
X170813680Y-116358731D01*
X170813673Y-116358734D01*
X170607516Y-116454866D01*
X170607512Y-116454868D01*
X170534526Y-116505973D01*
X170534526Y-116505974D01*
X171130590Y-117102037D01*
X171067007Y-117119075D01*
X170952993Y-117184901D01*
X170859901Y-117277993D01*
X170794075Y-117392007D01*
X170777037Y-117455589D01*
X170180974Y-116859526D01*
X170180973Y-116859526D01*
X170129868Y-116932512D01*
X170129866Y-116932516D01*
X170033734Y-117138673D01*
X170033730Y-117138682D01*
X169974860Y-117358389D01*
X169974858Y-117358400D01*
X169955034Y-117584997D01*
X169955034Y-117585002D01*
X169974858Y-117811599D01*
X169974860Y-117811610D01*
X170033730Y-118031317D01*
X170033735Y-118031331D01*
X170129863Y-118237478D01*
X170180974Y-118310472D01*
X170777037Y-117714409D01*
X170794075Y-117777993D01*
X170859901Y-117892007D01*
X170952993Y-117985099D01*
X171067007Y-118050925D01*
X171130590Y-118067962D01*
X170534526Y-118664025D01*
X170607513Y-118715132D01*
X170607521Y-118715136D01*
X170813668Y-118811264D01*
X170813682Y-118811269D01*
X171033389Y-118870139D01*
X171033400Y-118870141D01*
X171259998Y-118889966D01*
X171260002Y-118889966D01*
X171486599Y-118870141D01*
X171486610Y-118870139D01*
X171706317Y-118811269D01*
X171706331Y-118811264D01*
X171912478Y-118715136D01*
X171985471Y-118664024D01*
X171389409Y-118067962D01*
X171452993Y-118050925D01*
X171567007Y-117985099D01*
X171660099Y-117892007D01*
X171725925Y-117777993D01*
X171742962Y-117714409D01*
X172339024Y-118310471D01*
X172390136Y-118237478D01*
X172486264Y-118031331D01*
X172486269Y-118031317D01*
X172545139Y-117811610D01*
X172545141Y-117811599D01*
X172564966Y-117585002D01*
X172564966Y-117584997D01*
X172545141Y-117358400D01*
X172545139Y-117358389D01*
X172486269Y-117138682D01*
X172486264Y-117138668D01*
X172390136Y-116932521D01*
X172390132Y-116932513D01*
X172339025Y-116859526D01*
X171742962Y-117455589D01*
X171725925Y-117392007D01*
X171660099Y-117277993D01*
X171567007Y-117184901D01*
X171452993Y-117119075D01*
X171389410Y-117102037D01*
X171985472Y-116505974D01*
X171912478Y-116454863D01*
X171706331Y-116358735D01*
X171706319Y-116358731D01*
X171561897Y-116320033D01*
X171502237Y-116283668D01*
X171471708Y-116220821D01*
X171474197Y-116200001D01*
X172794532Y-116200001D01*
X172814364Y-116426686D01*
X172814366Y-116426697D01*
X172873258Y-116646488D01*
X172873261Y-116646497D01*
X172969431Y-116852732D01*
X172969432Y-116852734D01*
X173099954Y-117039141D01*
X173260858Y-117200045D01*
X173260861Y-117200047D01*
X173447266Y-117330568D01*
X173653504Y-117426739D01*
X173873308Y-117485635D01*
X174035230Y-117499801D01*
X174099998Y-117505468D01*
X174100000Y-117505468D01*
X174100002Y-117505468D01*
X174156673Y-117500509D01*
X174326692Y-117485635D01*
X174546496Y-117426739D01*
X174752734Y-117330568D01*
X174939139Y-117200047D01*
X175100047Y-117039139D01*
X175230568Y-116852734D01*
X175326739Y-116646496D01*
X175385635Y-116426692D01*
X175405468Y-116200000D01*
X175403691Y-116179694D01*
X175396506Y-116097567D01*
X175385635Y-115973308D01*
X175326739Y-115753504D01*
X175230568Y-115547266D01*
X175100047Y-115360861D01*
X175100045Y-115360858D01*
X174939141Y-115199954D01*
X174752734Y-115069432D01*
X174752732Y-115069431D01*
X174546497Y-114973261D01*
X174546488Y-114973258D01*
X174423966Y-114940429D01*
X174402862Y-114934774D01*
X174343202Y-114898410D01*
X174312673Y-114835563D01*
X174320968Y-114766188D01*
X174365453Y-114712310D01*
X174402862Y-114695225D01*
X174546496Y-114656739D01*
X174752734Y-114560568D01*
X174939139Y-114430047D01*
X175100047Y-114269139D01*
X175230568Y-114082734D01*
X175326739Y-113876496D01*
X175385635Y-113656692D01*
X175405468Y-113430000D01*
X175401197Y-113381188D01*
X175396084Y-113322738D01*
X175385635Y-113203308D01*
X175326739Y-112983504D01*
X175230568Y-112777266D01*
X175124100Y-112625213D01*
X175100045Y-112590858D01*
X174939141Y-112429954D01*
X174752734Y-112299432D01*
X174752732Y-112299431D01*
X174546497Y-112203261D01*
X174546488Y-112203258D01*
X174423966Y-112170429D01*
X174402862Y-112164774D01*
X174343202Y-112128410D01*
X174312673Y-112065563D01*
X174320968Y-111996188D01*
X174365453Y-111942310D01*
X174402862Y-111925225D01*
X174546496Y-111886739D01*
X174752734Y-111790568D01*
X174939139Y-111660047D01*
X175100047Y-111499139D01*
X175230568Y-111312734D01*
X175326739Y-111106496D01*
X175385635Y-110886692D01*
X175405468Y-110660000D01*
X175401197Y-110611188D01*
X175385635Y-110433313D01*
X175385635Y-110433308D01*
X175326739Y-110213504D01*
X175230568Y-110007266D01*
X175100047Y-109820861D01*
X175100045Y-109820858D01*
X174939141Y-109659954D01*
X174752734Y-109529432D01*
X174752732Y-109529431D01*
X174546497Y-109433261D01*
X174546488Y-109433258D01*
X174423966Y-109400429D01*
X174402862Y-109394774D01*
X174343202Y-109358410D01*
X174312673Y-109295563D01*
X174320968Y-109226188D01*
X174365453Y-109172310D01*
X174402862Y-109155225D01*
X174546496Y-109116739D01*
X174752734Y-109020568D01*
X174939139Y-108890047D01*
X175100047Y-108729139D01*
X175230568Y-108542734D01*
X175326739Y-108336496D01*
X175385635Y-108116692D01*
X175405468Y-107890000D01*
X175385635Y-107663308D01*
X175326739Y-107443504D01*
X175230568Y-107237266D01*
X175117703Y-107076077D01*
X175100045Y-107050858D01*
X174939141Y-106889954D01*
X174752734Y-106759432D01*
X174752732Y-106759431D01*
X174546497Y-106663261D01*
X174546488Y-106663258D01*
X174326697Y-106604366D01*
X174326693Y-106604365D01*
X174326692Y-106604365D01*
X174326691Y-106604364D01*
X174326686Y-106604364D01*
X174100002Y-106584532D01*
X174099998Y-106584532D01*
X173873313Y-106604364D01*
X173873302Y-106604366D01*
X173653511Y-106663258D01*
X173653502Y-106663261D01*
X173447267Y-106759431D01*
X173447265Y-106759432D01*
X173260858Y-106889954D01*
X173099954Y-107050858D01*
X172969432Y-107237265D01*
X172969431Y-107237267D01*
X172873261Y-107443502D01*
X172873258Y-107443511D01*
X172814366Y-107663302D01*
X172814364Y-107663313D01*
X172794532Y-107889998D01*
X172794532Y-107890001D01*
X172814364Y-108116686D01*
X172814366Y-108116697D01*
X172873258Y-108336488D01*
X172873261Y-108336497D01*
X172969431Y-108542732D01*
X172969432Y-108542734D01*
X173099954Y-108729141D01*
X173260858Y-108890045D01*
X173260861Y-108890047D01*
X173447266Y-109020568D01*
X173653504Y-109116739D01*
X173653509Y-109116740D01*
X173653511Y-109116741D01*
X173797136Y-109155225D01*
X173856797Y-109191590D01*
X173887326Y-109254437D01*
X173879031Y-109323812D01*
X173834546Y-109377690D01*
X173797136Y-109394775D01*
X173653511Y-109433258D01*
X173653502Y-109433261D01*
X173447267Y-109529431D01*
X173447265Y-109529432D01*
X173260858Y-109659954D01*
X173099954Y-109820858D01*
X172969432Y-110007265D01*
X172969431Y-110007267D01*
X172873261Y-110213502D01*
X172873258Y-110213511D01*
X172814366Y-110433302D01*
X172814364Y-110433313D01*
X172794532Y-110659998D01*
X172794532Y-110660001D01*
X172814364Y-110886686D01*
X172814366Y-110886697D01*
X172873258Y-111106488D01*
X172873261Y-111106497D01*
X172969431Y-111312732D01*
X172969432Y-111312734D01*
X173099954Y-111499141D01*
X173260858Y-111660045D01*
X173260861Y-111660047D01*
X173447266Y-111790568D01*
X173653504Y-111886739D01*
X173653509Y-111886740D01*
X173653511Y-111886741D01*
X173797136Y-111925225D01*
X173856797Y-111961590D01*
X173887326Y-112024437D01*
X173879031Y-112093812D01*
X173834546Y-112147690D01*
X173797136Y-112164775D01*
X173653511Y-112203258D01*
X173653502Y-112203261D01*
X173447267Y-112299431D01*
X173447265Y-112299432D01*
X173260858Y-112429954D01*
X173099954Y-112590858D01*
X172969432Y-112777265D01*
X172969431Y-112777267D01*
X172873261Y-112983502D01*
X172873258Y-112983511D01*
X172814366Y-113203302D01*
X172814364Y-113203313D01*
X172794532Y-113429998D01*
X172794532Y-113430001D01*
X172814364Y-113656686D01*
X172814366Y-113656697D01*
X172873258Y-113876488D01*
X172873261Y-113876497D01*
X172969431Y-114082732D01*
X172969432Y-114082734D01*
X173099954Y-114269141D01*
X173260858Y-114430045D01*
X173260861Y-114430047D01*
X173447266Y-114560568D01*
X173653504Y-114656739D01*
X173653509Y-114656740D01*
X173653511Y-114656741D01*
X173797136Y-114695225D01*
X173856797Y-114731590D01*
X173887326Y-114794437D01*
X173879031Y-114863812D01*
X173834546Y-114917690D01*
X173797136Y-114934775D01*
X173653511Y-114973258D01*
X173653502Y-114973261D01*
X173447267Y-115069431D01*
X173447265Y-115069432D01*
X173260858Y-115199954D01*
X173099954Y-115360858D01*
X172969432Y-115547265D01*
X172969431Y-115547267D01*
X172873261Y-115753502D01*
X172873258Y-115753511D01*
X172814366Y-115973302D01*
X172814364Y-115973313D01*
X172794532Y-116199998D01*
X172794532Y-116200001D01*
X171474197Y-116200001D01*
X171480003Y-116151445D01*
X171524488Y-116097567D01*
X171561894Y-116080484D01*
X171706496Y-116041739D01*
X171912734Y-115945568D01*
X172099139Y-115815047D01*
X172260047Y-115654139D01*
X172390568Y-115467734D01*
X172486739Y-115261496D01*
X172545635Y-115041692D01*
X172565468Y-114815000D01*
X172561197Y-114766188D01*
X172545635Y-114588313D01*
X172545635Y-114588308D01*
X172486739Y-114368504D01*
X172390568Y-114162266D01*
X172260047Y-113975861D01*
X172260045Y-113975858D01*
X172099141Y-113814954D01*
X171912734Y-113684432D01*
X171912732Y-113684431D01*
X171706497Y-113588261D01*
X171706488Y-113588258D01*
X171583966Y-113555429D01*
X171562862Y-113549774D01*
X171503202Y-113513410D01*
X171472673Y-113450563D01*
X171480968Y-113381188D01*
X171525453Y-113327310D01*
X171562862Y-113310225D01*
X171706496Y-113271739D01*
X171912734Y-113175568D01*
X172099139Y-113045047D01*
X172260047Y-112884139D01*
X172390568Y-112697734D01*
X172486739Y-112491496D01*
X172545635Y-112271692D01*
X172565468Y-112045000D01*
X172561197Y-111996188D01*
X172545635Y-111818313D01*
X172545635Y-111818308D01*
X172486739Y-111598504D01*
X172390568Y-111392266D01*
X172260047Y-111205861D01*
X172260045Y-111205858D01*
X172099141Y-111044954D01*
X171912734Y-110914432D01*
X171912732Y-110914431D01*
X171706497Y-110818261D01*
X171706488Y-110818258D01*
X171583966Y-110785429D01*
X171562862Y-110779774D01*
X171503202Y-110743410D01*
X171472673Y-110680563D01*
X171480968Y-110611188D01*
X171525453Y-110557310D01*
X171562862Y-110540225D01*
X171706496Y-110501739D01*
X171912734Y-110405568D01*
X172099139Y-110275047D01*
X172260047Y-110114139D01*
X172390568Y-109927734D01*
X172486739Y-109721496D01*
X172545635Y-109501692D01*
X172565468Y-109275000D01*
X172561197Y-109226188D01*
X172558171Y-109191590D01*
X172545635Y-109048308D01*
X172486739Y-108828504D01*
X172390568Y-108622266D01*
X172286458Y-108473580D01*
X172260045Y-108435858D01*
X172099141Y-108274954D01*
X171912734Y-108144432D01*
X171912732Y-108144431D01*
X171706497Y-108048261D01*
X171701402Y-108046407D01*
X171702159Y-108044325D01*
X171650617Y-108012908D01*
X171620088Y-107950061D01*
X171628383Y-107880686D01*
X171672869Y-107826808D01*
X171739421Y-107805534D01*
X171742371Y-107805499D01*
X172107871Y-107805499D01*
X172107872Y-107805499D01*
X172167483Y-107799091D01*
X172302331Y-107748796D01*
X172417546Y-107662546D01*
X172503796Y-107547331D01*
X172554091Y-107412483D01*
X172560500Y-107352873D01*
X172560499Y-105657128D01*
X172554091Y-105597517D01*
X172503796Y-105462669D01*
X172503795Y-105462668D01*
X172503793Y-105462664D01*
X172417547Y-105347455D01*
X172417544Y-105347452D01*
X172302335Y-105261206D01*
X172302328Y-105261202D01*
X172167482Y-105210908D01*
X172167483Y-105210908D01*
X172107883Y-105204501D01*
X172107881Y-105204500D01*
X172107873Y-105204500D01*
X172107864Y-105204500D01*
X170412129Y-105204500D01*
X170412123Y-105204501D01*
X170352516Y-105210908D01*
X170217671Y-105261202D01*
X170217664Y-105261206D01*
X170102455Y-105347452D01*
X170102452Y-105347455D01*
X170016206Y-105462664D01*
X170016202Y-105462671D01*
X169965908Y-105597517D01*
X169959501Y-105657116D01*
X169959501Y-105657123D01*
X169959500Y-105657135D01*
X169959500Y-106975500D01*
X169939815Y-107042539D01*
X169887011Y-107088294D01*
X169835500Y-107099500D01*
X159641519Y-107099500D01*
X159574480Y-107079815D01*
X159553838Y-107063181D01*
X159036819Y-106546162D01*
X159003334Y-106484839D01*
X159000500Y-106458481D01*
X159000500Y-99545005D01*
X170174556Y-99545005D01*
X170194310Y-99859004D01*
X170194311Y-99859011D01*
X170253270Y-100168083D01*
X170350497Y-100467316D01*
X170350499Y-100467321D01*
X170484461Y-100752003D01*
X170484464Y-100752009D01*
X170653051Y-101017661D01*
X170653054Y-101017665D01*
X170853606Y-101260090D01*
X170853608Y-101260092D01*
X170853610Y-101260094D01*
X171008668Y-101405703D01*
X171082968Y-101475476D01*
X171082978Y-101475484D01*
X171337504Y-101660408D01*
X171337509Y-101660410D01*
X171337516Y-101660416D01*
X171613234Y-101811994D01*
X171613239Y-101811996D01*
X171613241Y-101811997D01*
X171613242Y-101811998D01*
X171905771Y-101927818D01*
X171905774Y-101927819D01*
X172210523Y-102006065D01*
X172210527Y-102006066D01*
X172276010Y-102014338D01*
X172522670Y-102045499D01*
X172522679Y-102045499D01*
X172522682Y-102045500D01*
X172522684Y-102045500D01*
X172837316Y-102045500D01*
X172837318Y-102045500D01*
X172837321Y-102045499D01*
X172837329Y-102045499D01*
X173023593Y-102021968D01*
X173149473Y-102006066D01*
X173454225Y-101927819D01*
X173454228Y-101927818D01*
X173746757Y-101811998D01*
X173746758Y-101811997D01*
X173746756Y-101811997D01*
X173746766Y-101811994D01*
X174022484Y-101660416D01*
X174277030Y-101475478D01*
X174506390Y-101260094D01*
X174706947Y-101017663D01*
X174875537Y-100752007D01*
X175009503Y-100467315D01*
X175106731Y-100168079D01*
X175165688Y-99859015D01*
X175165722Y-99858480D01*
X175185444Y-99545005D01*
X175185444Y-99544994D01*
X175165689Y-99230995D01*
X175165688Y-99230988D01*
X175165688Y-99230985D01*
X175106731Y-98921921D01*
X175009503Y-98622685D01*
X174997259Y-98596666D01*
X174919684Y-98431811D01*
X174875537Y-98337993D01*
X174801129Y-98220745D01*
X174706948Y-98072338D01*
X174706945Y-98072334D01*
X174506393Y-97829909D01*
X174506391Y-97829907D01*
X174277031Y-97614523D01*
X174277021Y-97614515D01*
X174022495Y-97429591D01*
X174022488Y-97429586D01*
X174022484Y-97429584D01*
X173746766Y-97278006D01*
X173746763Y-97278004D01*
X173746758Y-97278002D01*
X173746757Y-97278001D01*
X173454228Y-97162181D01*
X173454225Y-97162180D01*
X173149476Y-97083934D01*
X173149463Y-97083932D01*
X172837329Y-97044500D01*
X172837318Y-97044500D01*
X172522682Y-97044500D01*
X172522670Y-97044500D01*
X172210536Y-97083932D01*
X172210523Y-97083934D01*
X171905774Y-97162180D01*
X171905771Y-97162181D01*
X171613242Y-97278001D01*
X171613241Y-97278002D01*
X171337516Y-97429584D01*
X171337504Y-97429591D01*
X171082978Y-97614515D01*
X171082968Y-97614523D01*
X170853608Y-97829907D01*
X170853606Y-97829909D01*
X170653054Y-98072334D01*
X170653051Y-98072338D01*
X170484464Y-98337990D01*
X170484461Y-98337996D01*
X170350499Y-98622678D01*
X170350497Y-98622683D01*
X170253270Y-98921916D01*
X170194311Y-99230988D01*
X170194310Y-99230995D01*
X170174556Y-99544994D01*
X170174556Y-99545005D01*
X159000500Y-99545005D01*
X159000500Y-97425493D01*
X159019508Y-97359519D01*
X159025787Y-97349525D01*
X159025786Y-97349525D01*
X159025789Y-97349522D01*
X159085368Y-97179255D01*
X159087292Y-97162180D01*
X159105565Y-97000003D01*
X159105565Y-96999996D01*
X159085369Y-96820750D01*
X159085368Y-96820745D01*
X159083228Y-96814630D01*
X159025789Y-96650478D01*
X158929816Y-96497738D01*
X158802262Y-96370184D01*
X158699452Y-96305584D01*
X158653162Y-96253250D01*
X158642514Y-96184197D01*
X158670889Y-96120348D01*
X158677730Y-96112924D01*
X159280124Y-95510531D01*
X159341445Y-95477048D01*
X159408758Y-95481173D01*
X159420745Y-95485368D01*
X159420752Y-95485368D01*
X159420753Y-95485369D01*
X159599996Y-95505565D01*
X159600000Y-95505565D01*
X159600004Y-95505565D01*
X159779249Y-95485369D01*
X159779252Y-95485368D01*
X159779255Y-95485368D01*
X159949522Y-95425789D01*
X160102262Y-95329816D01*
X160229816Y-95202262D01*
X160325789Y-95049522D01*
X160385368Y-94879255D01*
X160392386Y-94816970D01*
X160405565Y-94700003D01*
X160405565Y-94699996D01*
X160385369Y-94520750D01*
X160385368Y-94520745D01*
X160369189Y-94474507D01*
X160325789Y-94350478D01*
X160323198Y-94346355D01*
X160274246Y-94268448D01*
X160229816Y-94197738D01*
X160102262Y-94070184D01*
X160038017Y-94029816D01*
X159949523Y-93974211D01*
X159779254Y-93914631D01*
X159779249Y-93914630D01*
X159600004Y-93894435D01*
X159599996Y-93894435D01*
X159420750Y-93914630D01*
X159420745Y-93914631D01*
X159250474Y-93974212D01*
X159240477Y-93980494D01*
X159174506Y-93999500D01*
X159031005Y-93999500D01*
X158959703Y-94013683D01*
X158924051Y-94020775D01*
X158895671Y-94026420D01*
X158895669Y-94026420D01*
X158895668Y-94026421D01*
X158895660Y-94026423D01*
X158842865Y-94048292D01*
X158768191Y-94079223D01*
X158663017Y-94149499D01*
X158663016Y-94149498D01*
X158653460Y-94155884D01*
X158653451Y-94155891D01*
X156455890Y-96353451D01*
X156455887Y-96353454D01*
X156444709Y-96370184D01*
X156410926Y-96420745D01*
X156410923Y-96420750D01*
X156379225Y-96468188D01*
X156379221Y-96468195D01*
X156326421Y-96595667D01*
X156326418Y-96595677D01*
X156299500Y-96731004D01*
X156299500Y-102074507D01*
X156280494Y-102140478D01*
X156274209Y-102150479D01*
X156214633Y-102320737D01*
X156214630Y-102320750D01*
X156194435Y-102499996D01*
X156194435Y-102500003D01*
X156214630Y-102679249D01*
X156214631Y-102679254D01*
X156274211Y-102849523D01*
X156280952Y-102860251D01*
X156370184Y-103002262D01*
X156497738Y-103129816D01*
X156650478Y-103225789D01*
X156820745Y-103285368D01*
X156820750Y-103285369D01*
X156999996Y-103305565D01*
X157000000Y-103305565D01*
X157000004Y-103305565D01*
X157179249Y-103285369D01*
X157179252Y-103285368D01*
X157179255Y-103285368D01*
X157349522Y-103225789D01*
X157409527Y-103188084D01*
X157476763Y-103169084D01*
X157543599Y-103189451D01*
X157588813Y-103242718D01*
X157599500Y-103293078D01*
X157599500Y-106868998D01*
X157615873Y-106951309D01*
X157609646Y-107020900D01*
X157566783Y-107076077D01*
X157500893Y-107099322D01*
X157494256Y-107099500D01*
X151541519Y-107099500D01*
X151474480Y-107079815D01*
X151453838Y-107063181D01*
X150291367Y-105900710D01*
X150262006Y-105853983D01*
X150225788Y-105750476D01*
X150167133Y-105657128D01*
X150129816Y-105597738D01*
X150002262Y-105470184D01*
X149990294Y-105462664D01*
X149849523Y-105374211D01*
X149679254Y-105314631D01*
X149679249Y-105314630D01*
X149500004Y-105294435D01*
X149499996Y-105294435D01*
X149320750Y-105314630D01*
X149320745Y-105314631D01*
X149150476Y-105374211D01*
X148997737Y-105470184D01*
X148870184Y-105597737D01*
X148774211Y-105750476D01*
X148714632Y-105920744D01*
X148714630Y-105920750D01*
X148694435Y-106099996D01*
X148694435Y-106100003D01*
X138490654Y-106100003D01*
X146339089Y-98251568D01*
X146415750Y-98136836D01*
X146468555Y-98009354D01*
X146489407Y-97904523D01*
X146495475Y-97874018D01*
X146495475Y-97820468D01*
X146514483Y-97754494D01*
X146520762Y-97744500D01*
X146520761Y-97744500D01*
X146520764Y-97744497D01*
X146580343Y-97574230D01*
X146596641Y-97429584D01*
X146600540Y-97394978D01*
X146600540Y-97394971D01*
X146580344Y-97215725D01*
X146580343Y-97215720D01*
X146567581Y-97179249D01*
X146520764Y-97045453D01*
X146506957Y-97023480D01*
X146447039Y-96928121D01*
X146424791Y-96892713D01*
X146297237Y-96765159D01*
X146297235Y-96765158D01*
X146144498Y-96669186D01*
X145974229Y-96609606D01*
X145974224Y-96609605D01*
X145794979Y-96589410D01*
X145794971Y-96589410D01*
X145615725Y-96609605D01*
X145615720Y-96609606D01*
X145445451Y-96669186D01*
X145292714Y-96765158D01*
X145163235Y-96894637D01*
X145101912Y-96928121D01*
X145032220Y-96923137D01*
X145009582Y-96911949D01*
X144949523Y-96874211D01*
X144779254Y-96814631D01*
X144779249Y-96814630D01*
X144600004Y-96794435D01*
X144599996Y-96794435D01*
X144420750Y-96814630D01*
X144420745Y-96814631D01*
X144250476Y-96874211D01*
X144130621Y-96949522D01*
X144101563Y-96967781D01*
X144091842Y-96973889D01*
X144090402Y-96971598D01*
X144037096Y-96993346D01*
X143968404Y-96980573D01*
X143917522Y-96932690D01*
X143900500Y-96869987D01*
X143900500Y-95716517D01*
X143920185Y-95649478D01*
X143936814Y-95628841D01*
X145199288Y-94366366D01*
X145246012Y-94337008D01*
X145349522Y-94300789D01*
X145502262Y-94204816D01*
X145629816Y-94077262D01*
X145725789Y-93924522D01*
X145785368Y-93754255D01*
X145785902Y-93749522D01*
X145793102Y-93685617D01*
X145820168Y-93621203D01*
X145877763Y-93581648D01*
X145916322Y-93575500D01*
X146125335Y-93575500D01*
X146192374Y-93595185D01*
X146238129Y-93647989D01*
X146242377Y-93658546D01*
X146274210Y-93749521D01*
X146274211Y-93749522D01*
X146370184Y-93902262D01*
X146497738Y-94029816D01*
X146532929Y-94051928D01*
X146650474Y-94125787D01*
X146650478Y-94125789D01*
X146820745Y-94185368D01*
X146820750Y-94185369D01*
X146999996Y-94205565D01*
X147000000Y-94205565D01*
X147000004Y-94205565D01*
X147179249Y-94185369D01*
X147179252Y-94185368D01*
X147179255Y-94185368D01*
X147349522Y-94125789D01*
X147350488Y-94125181D01*
X147359523Y-94119506D01*
X147425494Y-94100500D01*
X148858481Y-94100500D01*
X148925520Y-94120185D01*
X148946162Y-94136819D01*
X151608631Y-96799287D01*
X151637991Y-96846013D01*
X151674210Y-96949520D01*
X151674212Y-96949524D01*
X151749280Y-97068993D01*
X151770184Y-97102262D01*
X151897738Y-97229816D01*
X152050478Y-97325789D01*
X152118312Y-97349525D01*
X152220745Y-97385368D01*
X152220750Y-97385369D01*
X152399996Y-97405565D01*
X152400000Y-97405565D01*
X152400004Y-97405565D01*
X152579249Y-97385369D01*
X152579252Y-97385368D01*
X152579255Y-97385368D01*
X152749522Y-97325789D01*
X152902262Y-97229816D01*
X152962319Y-97169759D01*
X153023642Y-97136274D01*
X153093334Y-97141258D01*
X153137681Y-97169759D01*
X153197738Y-97229816D01*
X153350478Y-97325789D01*
X153418312Y-97349525D01*
X153520745Y-97385368D01*
X153520750Y-97385369D01*
X153699996Y-97405565D01*
X153700000Y-97405565D01*
X153700004Y-97405565D01*
X153879249Y-97385369D01*
X153879252Y-97385368D01*
X153879255Y-97385368D01*
X154049522Y-97325789D01*
X154202262Y-97229816D01*
X154329816Y-97102262D01*
X154425789Y-96949522D01*
X154485368Y-96779255D01*
X154485369Y-96779249D01*
X154505565Y-96600003D01*
X154505565Y-96599996D01*
X154485369Y-96420750D01*
X154485366Y-96420737D01*
X154425790Y-96250479D01*
X154419506Y-96240478D01*
X154400500Y-96174507D01*
X154400500Y-93582412D01*
X154420185Y-93515373D01*
X154427555Y-93505097D01*
X154429810Y-93502267D01*
X154429816Y-93502262D01*
X154525789Y-93349522D01*
X154585368Y-93179255D01*
X154586008Y-93173581D01*
X154604369Y-93010617D01*
X154631435Y-92946203D01*
X154689030Y-92906648D01*
X154727589Y-92900500D01*
X164586827Y-92900500D01*
X164677871Y-92882389D01*
X164722159Y-92873580D01*
X164785900Y-92847177D01*
X164849638Y-92820777D01*
X164849639Y-92820776D01*
X164849642Y-92820775D01*
X164964374Y-92744114D01*
X166079699Y-91628788D01*
X174399500Y-91628788D01*
X174431161Y-91869285D01*
X174493947Y-92103604D01*
X174586773Y-92327705D01*
X174586773Y-92327706D01*
X174586774Y-92327709D01*
X174586776Y-92327712D01*
X174708064Y-92537789D01*
X174708066Y-92537792D01*
X174708067Y-92537793D01*
X174855733Y-92730236D01*
X174855739Y-92730243D01*
X175027256Y-92901760D01*
X175027263Y-92901766D01*
X175051267Y-92920185D01*
X175219711Y-93049436D01*
X175429788Y-93170724D01*
X175653900Y-93263554D01*
X175888211Y-93326338D01*
X176037683Y-93346016D01*
X176128711Y-93358000D01*
X176128712Y-93358000D01*
X176371289Y-93358000D01*
X176435686Y-93349522D01*
X176611789Y-93326338D01*
X176846100Y-93263554D01*
X177070212Y-93170724D01*
X177280289Y-93049436D01*
X177472738Y-92901765D01*
X177644265Y-92730238D01*
X177791936Y-92537789D01*
X177913224Y-92327712D01*
X177913225Y-92327709D01*
X177913227Y-92327706D01*
X177913226Y-92327705D01*
X178006054Y-92103600D01*
X178068838Y-91869289D01*
X178100500Y-91628788D01*
X178100500Y-91386212D01*
X178098198Y-91368730D01*
X178088399Y-91294297D01*
X178068838Y-91145711D01*
X178006054Y-90911400D01*
X177913224Y-90687288D01*
X177791936Y-90477211D01*
X177649333Y-90291367D01*
X177644266Y-90284763D01*
X177644260Y-90284756D01*
X177472743Y-90113239D01*
X177472736Y-90113233D01*
X177280293Y-89965567D01*
X177280292Y-89965566D01*
X177280289Y-89965564D01*
X177096707Y-89859573D01*
X177070214Y-89844277D01*
X177070205Y-89844273D01*
X176846104Y-89751447D01*
X176649057Y-89698648D01*
X176611789Y-89688662D01*
X176611788Y-89688661D01*
X176611785Y-89688661D01*
X176371289Y-89657000D01*
X176371288Y-89657000D01*
X176128712Y-89657000D01*
X176128711Y-89657000D01*
X175888214Y-89688661D01*
X175653895Y-89751447D01*
X175429794Y-89844273D01*
X175429785Y-89844277D01*
X175219706Y-89965567D01*
X175027263Y-90113233D01*
X175027256Y-90113239D01*
X174855739Y-90284756D01*
X174855733Y-90284763D01*
X174708067Y-90477206D01*
X174586777Y-90687285D01*
X174586773Y-90687294D01*
X174493947Y-90911395D01*
X174431161Y-91145714D01*
X174399500Y-91386211D01*
X174399500Y-91628788D01*
X166079699Y-91628788D01*
X167465851Y-90242635D01*
X167527172Y-90209152D01*
X167542715Y-90206791D01*
X167577977Y-90203707D01*
X167789330Y-90147075D01*
X167987639Y-90054602D01*
X168166877Y-89929098D01*
X168321598Y-89774377D01*
X168424426Y-89627522D01*
X168479002Y-89583899D01*
X168548501Y-89576707D01*
X168610855Y-89608229D01*
X168646269Y-89668459D01*
X168650000Y-89698648D01*
X168650000Y-89987500D01*
X169612599Y-89987500D01*
X169595924Y-90004175D01*
X169545896Y-90090825D01*
X169520000Y-90187472D01*
X169520000Y-90287528D01*
X169545896Y-90384175D01*
X169595924Y-90470825D01*
X169612599Y-90487500D01*
X168650000Y-90487500D01*
X168650000Y-91035344D01*
X168656401Y-91094872D01*
X168656403Y-91094879D01*
X168706645Y-91229586D01*
X168706649Y-91229593D01*
X168792809Y-91344687D01*
X168792812Y-91344690D01*
X168907906Y-91430850D01*
X168907913Y-91430854D01*
X169042620Y-91481096D01*
X169042627Y-91481098D01*
X169102155Y-91487499D01*
X169102172Y-91487500D01*
X169650000Y-91487500D01*
X169650000Y-90524901D01*
X169666675Y-90541576D01*
X169753325Y-90591604D01*
X169849972Y-90617500D01*
X169950028Y-90617500D01*
X170046675Y-90591604D01*
X170133325Y-90541576D01*
X170150000Y-90524901D01*
X170150000Y-91487500D01*
X170697828Y-91487500D01*
X170697844Y-91487499D01*
X170757372Y-91481098D01*
X170757379Y-91481096D01*
X170892086Y-91430854D01*
X170892093Y-91430850D01*
X171007187Y-91344690D01*
X171007190Y-91344687D01*
X171093350Y-91229593D01*
X171093354Y-91229586D01*
X171143596Y-91094879D01*
X171143598Y-91094872D01*
X171149999Y-91035344D01*
X171150000Y-91035327D01*
X171150000Y-90487500D01*
X170187401Y-90487500D01*
X170204076Y-90470825D01*
X170254104Y-90384175D01*
X170280000Y-90287528D01*
X170280000Y-90187472D01*
X170254104Y-90090825D01*
X170204076Y-90004175D01*
X170187401Y-89987500D01*
X171150000Y-89987500D01*
X171150000Y-89439672D01*
X171149999Y-89439655D01*
X171143598Y-89380127D01*
X171143596Y-89380120D01*
X171093354Y-89245413D01*
X171093350Y-89245406D01*
X171007190Y-89130312D01*
X171007187Y-89130309D01*
X170892093Y-89044149D01*
X170892086Y-89044145D01*
X170757379Y-88993903D01*
X170757372Y-88993901D01*
X170697844Y-88987500D01*
X170631148Y-88987500D01*
X170564109Y-88967815D01*
X170518354Y-88915011D01*
X170508410Y-88845853D01*
X170537435Y-88782297D01*
X170560020Y-88761928D01*
X170706877Y-88659098D01*
X170861598Y-88504377D01*
X170987102Y-88325139D01*
X171079575Y-88126830D01*
X171136207Y-87915477D01*
X171155277Y-87697500D01*
X171136207Y-87479523D01*
X171079575Y-87268170D01*
X170987102Y-87069862D01*
X170987100Y-87069859D01*
X170987099Y-87069857D01*
X170861599Y-86890624D01*
X170797393Y-86826418D01*
X170706877Y-86735902D01*
X170527639Y-86610398D01*
X170376414Y-86539881D01*
X170323977Y-86493710D01*
X170304825Y-86426516D01*
X170325041Y-86359635D01*
X170376414Y-86315118D01*
X170527639Y-86244602D01*
X170706877Y-86119098D01*
X170861598Y-85964377D01*
X170987102Y-85785139D01*
X171079575Y-85586830D01*
X171136207Y-85375477D01*
X171155277Y-85157500D01*
X171136207Y-84939523D01*
X171079575Y-84728170D01*
X170987102Y-84529862D01*
X170987100Y-84529859D01*
X170987099Y-84529857D01*
X170861599Y-84350624D01*
X170786784Y-84275809D01*
X170706877Y-84195902D01*
X170527639Y-84070398D01*
X170376414Y-83999881D01*
X170323977Y-83953710D01*
X170304825Y-83886516D01*
X170325041Y-83819635D01*
X170376414Y-83775118D01*
X170527639Y-83704602D01*
X170706877Y-83579098D01*
X170861598Y-83424377D01*
X170987102Y-83245139D01*
X171079575Y-83046830D01*
X171136207Y-82835477D01*
X171155277Y-82617500D01*
X171136207Y-82399523D01*
X171079575Y-82188170D01*
X170987102Y-81989862D01*
X170987100Y-81989859D01*
X170987099Y-81989857D01*
X170861599Y-81810624D01*
X170786023Y-81735048D01*
X170706877Y-81655902D01*
X170568978Y-81559344D01*
X170527638Y-81530397D01*
X170401889Y-81471760D01*
X170329330Y-81437925D01*
X170329326Y-81437924D01*
X170329322Y-81437922D01*
X170117977Y-81381293D01*
X169900002Y-81362223D01*
X169899998Y-81362223D01*
X169754682Y-81374936D01*
X169682023Y-81381293D01*
X169682020Y-81381293D01*
X169470677Y-81437922D01*
X169470668Y-81437926D01*
X169272361Y-81530398D01*
X169272357Y-81530400D01*
X169093124Y-81655900D01*
X168938398Y-81810627D01*
X168900941Y-81864123D01*
X168846365Y-81907748D01*
X168799366Y-81917000D01*
X168663099Y-81917000D01*
X168596060Y-81897315D01*
X168550305Y-81844511D01*
X168540361Y-81775353D01*
X168543324Y-81760907D01*
X168595710Y-81565394D01*
X168595712Y-81565384D01*
X168614775Y-81347500D01*
X168614775Y-81347499D01*
X168595712Y-81129615D01*
X168595710Y-81129605D01*
X168539105Y-80918349D01*
X168539101Y-80918340D01*
X168446667Y-80720114D01*
X168446666Y-80720112D01*
X168403124Y-80657928D01*
X168403124Y-80657927D01*
X167740000Y-81321051D01*
X167740000Y-81297472D01*
X167714104Y-81200825D01*
X167664076Y-81114175D01*
X167593325Y-81043424D01*
X167506675Y-80993396D01*
X167410028Y-80967500D01*
X167386447Y-80967500D01*
X168049571Y-80304374D01*
X167987387Y-80260833D01*
X167854331Y-80198788D01*
X174399500Y-80198788D01*
X174428720Y-80420745D01*
X174431162Y-80439289D01*
X174435610Y-80455888D01*
X174493947Y-80673604D01*
X174574378Y-80867781D01*
X174586776Y-80897712D01*
X174708064Y-81107789D01*
X174708066Y-81107792D01*
X174708067Y-81107793D01*
X174855733Y-81300236D01*
X174855739Y-81300243D01*
X175027256Y-81471760D01*
X175027262Y-81471765D01*
X175219711Y-81619436D01*
X175429788Y-81740724D01*
X175653900Y-81833554D01*
X175888211Y-81896338D01*
X176068586Y-81920084D01*
X176128711Y-81928000D01*
X176128712Y-81928000D01*
X176371289Y-81928000D01*
X176419388Y-81921667D01*
X176611789Y-81896338D01*
X176846100Y-81833554D01*
X177070212Y-81740724D01*
X177280289Y-81619436D01*
X177472738Y-81471765D01*
X177644265Y-81300238D01*
X177791936Y-81107789D01*
X177913224Y-80897712D01*
X178006054Y-80673600D01*
X178068838Y-80439289D01*
X178100500Y-80198788D01*
X178100500Y-79956212D01*
X178068838Y-79715711D01*
X178006054Y-79481400D01*
X178002949Y-79473905D01*
X177961582Y-79374035D01*
X177913224Y-79257288D01*
X177791936Y-79047211D01*
X177731018Y-78967821D01*
X177644266Y-78854763D01*
X177644260Y-78854756D01*
X177472743Y-78683239D01*
X177472736Y-78683233D01*
X177280293Y-78535567D01*
X177280292Y-78535566D01*
X177280289Y-78535564D01*
X177070212Y-78414276D01*
X177070205Y-78414273D01*
X176846104Y-78321447D01*
X176611785Y-78258661D01*
X176371289Y-78227000D01*
X176371288Y-78227000D01*
X176128712Y-78227000D01*
X176128711Y-78227000D01*
X175888214Y-78258661D01*
X175653895Y-78321447D01*
X175429794Y-78414273D01*
X175429785Y-78414277D01*
X175219706Y-78535567D01*
X175027263Y-78683233D01*
X175027256Y-78683239D01*
X174855739Y-78854756D01*
X174855733Y-78854763D01*
X174708067Y-79047206D01*
X174586777Y-79257285D01*
X174586773Y-79257294D01*
X174493947Y-79481395D01*
X174431161Y-79715714D01*
X174399500Y-79956211D01*
X174399500Y-80198788D01*
X167854331Y-80198788D01*
X167789159Y-80168398D01*
X167789150Y-80168394D01*
X167577894Y-80111789D01*
X167577884Y-80111787D01*
X167360001Y-80092725D01*
X167359999Y-80092725D01*
X167142115Y-80111787D01*
X167142105Y-80111789D01*
X166930849Y-80168394D01*
X166930840Y-80168398D01*
X166732613Y-80260833D01*
X166670428Y-80304374D01*
X167333554Y-80967500D01*
X167309972Y-80967500D01*
X167213325Y-80993396D01*
X167126675Y-81043424D01*
X167055924Y-81114175D01*
X167005896Y-81200825D01*
X166980000Y-81297472D01*
X166980000Y-81321054D01*
X166316874Y-80657928D01*
X166273333Y-80720113D01*
X166180898Y-80918340D01*
X166180894Y-80918349D01*
X166124289Y-81129605D01*
X166124287Y-81129615D01*
X166105225Y-81347499D01*
X166105225Y-81347500D01*
X166124287Y-81565384D01*
X166124289Y-81565394D01*
X166176676Y-81760907D01*
X166175013Y-81830757D01*
X166135850Y-81888619D01*
X166071622Y-81916123D01*
X166056901Y-81917000D01*
X164959019Y-81917000D01*
X164891980Y-81897315D01*
X164871338Y-81880681D01*
X156391367Y-73400710D01*
X156362006Y-73353983D01*
X156357644Y-73341518D01*
X156325789Y-73250478D01*
X156320554Y-73242147D01*
X156271141Y-73163507D01*
X156229816Y-73097738D01*
X156102262Y-72970184D01*
X155949523Y-72874211D01*
X155779254Y-72814631D01*
X155779250Y-72814630D01*
X155672725Y-72802628D01*
X155608311Y-72775561D01*
X155568756Y-72717966D01*
X155566619Y-72648129D01*
X155598926Y-72591729D01*
X155799290Y-72391365D01*
X155846013Y-72362007D01*
X155949522Y-72325789D01*
X156102262Y-72229816D01*
X156210790Y-72121288D01*
X165449500Y-72121288D01*
X165476422Y-72325789D01*
X165481162Y-72361789D01*
X165489648Y-72393459D01*
X165543947Y-72596104D01*
X165565497Y-72648129D01*
X165636776Y-72820212D01*
X165758064Y-73030289D01*
X165758066Y-73030292D01*
X165758067Y-73030293D01*
X165905733Y-73222736D01*
X165905739Y-73222743D01*
X166077256Y-73394260D01*
X166077263Y-73394266D01*
X166092192Y-73405721D01*
X166269711Y-73541936D01*
X166479788Y-73663224D01*
X166703900Y-73756054D01*
X166938211Y-73818838D01*
X167118586Y-73842584D01*
X167178711Y-73850500D01*
X167178712Y-73850500D01*
X167421289Y-73850500D01*
X167469388Y-73844167D01*
X167661789Y-73818838D01*
X167896100Y-73756054D01*
X168120212Y-73663224D01*
X168330289Y-73541936D01*
X168522738Y-73394265D01*
X168664133Y-73252870D01*
X175839831Y-73252870D01*
X175839832Y-73252876D01*
X175846239Y-73312483D01*
X175896533Y-73447328D01*
X175896537Y-73447335D01*
X175982783Y-73562544D01*
X175982786Y-73562547D01*
X176097995Y-73648793D01*
X176098002Y-73648797D01*
X176232848Y-73699091D01*
X176232847Y-73699091D01*
X176239775Y-73699835D01*
X176292458Y-73705500D01*
X180988203Y-73705499D01*
X181047814Y-73699091D01*
X181182662Y-73648796D01*
X181297877Y-73562546D01*
X181384127Y-73447331D01*
X181434422Y-73312483D01*
X181440831Y-73252873D01*
X181440830Y-71157128D01*
X181434422Y-71097517D01*
X181386753Y-70969711D01*
X181384128Y-70962671D01*
X181384124Y-70962664D01*
X181297878Y-70847455D01*
X181297875Y-70847452D01*
X181182666Y-70761206D01*
X181182659Y-70761202D01*
X181047813Y-70710908D01*
X181047814Y-70710908D01*
X180988214Y-70704501D01*
X180988212Y-70704500D01*
X180988204Y-70704500D01*
X180988195Y-70704500D01*
X176292460Y-70704500D01*
X176292454Y-70704501D01*
X176232847Y-70710908D01*
X176098002Y-70761202D01*
X176097995Y-70761206D01*
X175982786Y-70847452D01*
X175982783Y-70847455D01*
X175896537Y-70962664D01*
X175896533Y-70962671D01*
X175846239Y-71097517D01*
X175839832Y-71157116D01*
X175839832Y-71157123D01*
X175839831Y-71157135D01*
X175839831Y-73252870D01*
X168664133Y-73252870D01*
X168694265Y-73222738D01*
X168841936Y-73030289D01*
X168963224Y-72820212D01*
X169056054Y-72596100D01*
X169118838Y-72361789D01*
X169150500Y-72121288D01*
X169150500Y-71878712D01*
X169118838Y-71638211D01*
X169056054Y-71403900D01*
X168963224Y-71179788D01*
X168841936Y-70969711D01*
X168722939Y-70814631D01*
X168694266Y-70777263D01*
X168694260Y-70777256D01*
X168522743Y-70605739D01*
X168522736Y-70605733D01*
X168414984Y-70523052D01*
X172340331Y-70523052D01*
X172377265Y-70756247D01*
X172450228Y-70980802D01*
X172557416Y-71191171D01*
X172696197Y-71382186D01*
X172863144Y-71549133D01*
X173054159Y-71687914D01*
X173264526Y-71795102D01*
X173489075Y-71868063D01*
X173489081Y-71868065D01*
X173590331Y-71884101D01*
X173590331Y-70838012D01*
X173647338Y-70870925D01*
X173774505Y-70905000D01*
X173906157Y-70905000D01*
X174033324Y-70870925D01*
X174090331Y-70838012D01*
X174090331Y-71884100D01*
X174191580Y-71868065D01*
X174191586Y-71868063D01*
X174416135Y-71795102D01*
X174626502Y-71687914D01*
X174817517Y-71549133D01*
X174984464Y-71382186D01*
X175123245Y-71191171D01*
X175230433Y-70980802D01*
X175303396Y-70756247D01*
X175340331Y-70523052D01*
X175340331Y-69555000D01*
X174340331Y-69555000D01*
X174340331Y-69055000D01*
X175340331Y-69055000D01*
X175340331Y-68086947D01*
X175303396Y-67853752D01*
X175230433Y-67629197D01*
X175123245Y-67418828D01*
X174984464Y-67227813D01*
X174817517Y-67060866D01*
X174626502Y-66922085D01*
X174416133Y-66814897D01*
X174191578Y-66741934D01*
X174090331Y-66725897D01*
X174090331Y-67771988D01*
X174033324Y-67739075D01*
X173906157Y-67705000D01*
X173774505Y-67705000D01*
X173647338Y-67739075D01*
X173590331Y-67771988D01*
X173590331Y-66725897D01*
X173489083Y-66741934D01*
X173264528Y-66814897D01*
X173054159Y-66922085D01*
X172863144Y-67060866D01*
X172696197Y-67227813D01*
X172557416Y-67418828D01*
X172450228Y-67629197D01*
X172377265Y-67853752D01*
X172340331Y-68086947D01*
X172340331Y-69055000D01*
X173340331Y-69055000D01*
X173340331Y-69555000D01*
X172340331Y-69555000D01*
X172340331Y-70523052D01*
X168414984Y-70523052D01*
X168330293Y-70458067D01*
X168330292Y-70458066D01*
X168330289Y-70458064D01*
X168120212Y-70336776D01*
X168120205Y-70336773D01*
X167896104Y-70243947D01*
X167661785Y-70181161D01*
X167421289Y-70149500D01*
X167421288Y-70149500D01*
X167178712Y-70149500D01*
X167178711Y-70149500D01*
X166938214Y-70181161D01*
X166703895Y-70243947D01*
X166479794Y-70336773D01*
X166479785Y-70336777D01*
X166269706Y-70458067D01*
X166077263Y-70605733D01*
X166077256Y-70605739D01*
X165905739Y-70777256D01*
X165905733Y-70777263D01*
X165758067Y-70969706D01*
X165636777Y-71179785D01*
X165636773Y-71179794D01*
X165543947Y-71403895D01*
X165481161Y-71638214D01*
X165449500Y-71878711D01*
X165449500Y-72121288D01*
X156210790Y-72121288D01*
X156229816Y-72102262D01*
X156325789Y-71949522D01*
X156385368Y-71779255D01*
X156399878Y-71650476D01*
X156405565Y-71600003D01*
X156405565Y-71599996D01*
X156385369Y-71420750D01*
X156385368Y-71420745D01*
X156362007Y-71353984D01*
X156325789Y-71250478D01*
X156303265Y-71214632D01*
X156267133Y-71157128D01*
X156229816Y-71097738D01*
X156102262Y-70970184D01*
X156032614Y-70926421D01*
X155949523Y-70874211D01*
X155779254Y-70814631D01*
X155779249Y-70814630D01*
X155600004Y-70794435D01*
X155599996Y-70794435D01*
X155420750Y-70814630D01*
X155420745Y-70814631D01*
X155250476Y-70874211D01*
X155097737Y-70970184D01*
X154970184Y-71097737D01*
X154874212Y-71250475D01*
X154874211Y-71250476D01*
X154837992Y-71353984D01*
X154808632Y-71400709D01*
X153955887Y-72253454D01*
X153879222Y-72368192D01*
X153826421Y-72495667D01*
X153826418Y-72495679D01*
X153806443Y-72596104D01*
X153804807Y-72604329D01*
X153799500Y-72631007D01*
X153799500Y-79531006D01*
X153799500Y-79668994D01*
X153799500Y-79668996D01*
X153799499Y-79668996D01*
X153826418Y-79804322D01*
X153826421Y-79804332D01*
X153879222Y-79931807D01*
X153955887Y-80046545D01*
X155053454Y-81144112D01*
X155168192Y-81220777D01*
X155290298Y-81271354D01*
X155295672Y-81273580D01*
X155295676Y-81273580D01*
X155295677Y-81273581D01*
X155431003Y-81300500D01*
X155431006Y-81300500D01*
X155431007Y-81300500D01*
X156074506Y-81300500D01*
X156140477Y-81319506D01*
X156150474Y-81325787D01*
X156150475Y-81325787D01*
X156150478Y-81325789D01*
X156308736Y-81381166D01*
X156320745Y-81385368D01*
X156320750Y-81385369D01*
X156499996Y-81405565D01*
X156500000Y-81405565D01*
X156500004Y-81405565D01*
X156679249Y-81385369D01*
X156679252Y-81385368D01*
X156679255Y-81385368D01*
X156849522Y-81325789D01*
X157002262Y-81229816D01*
X157129816Y-81102262D01*
X157225789Y-80949522D01*
X157285368Y-80779255D01*
X157285874Y-80774767D01*
X157305565Y-80600003D01*
X157305565Y-80599996D01*
X157285369Y-80420750D01*
X157285368Y-80420745D01*
X157285365Y-80420737D01*
X157225789Y-80250478D01*
X157200499Y-80210230D01*
X157162955Y-80150478D01*
X157129816Y-80097738D01*
X157002262Y-79970184D01*
X156941192Y-79931811D01*
X156849523Y-79874211D01*
X156679254Y-79814631D01*
X156679249Y-79814630D01*
X156500004Y-79794435D01*
X156499996Y-79794435D01*
X156320750Y-79814630D01*
X156320745Y-79814631D01*
X156150474Y-79874212D01*
X156140477Y-79880494D01*
X156074506Y-79899500D01*
X155841519Y-79899500D01*
X155774480Y-79879815D01*
X155753838Y-79863181D01*
X155236819Y-79346162D01*
X155203334Y-79284839D01*
X155200500Y-79258481D01*
X155200500Y-74490519D01*
X155220185Y-74423480D01*
X155272989Y-74377725D01*
X155342147Y-74367781D01*
X155405703Y-74396806D01*
X155412181Y-74402838D01*
X163984661Y-82975319D01*
X164018146Y-83036642D01*
X164013162Y-83106334D01*
X163971290Y-83162267D01*
X163905826Y-83186684D01*
X163896980Y-83187000D01*
X148829019Y-83187000D01*
X148761980Y-83167315D01*
X148741338Y-83150681D01*
X146190660Y-80600003D01*
X148694435Y-80600003D01*
X148714630Y-80779249D01*
X148714631Y-80779254D01*
X148774211Y-80949523D01*
X148870184Y-81102262D01*
X148997738Y-81229816D01*
X149048968Y-81262006D01*
X149150474Y-81325787D01*
X149150478Y-81325789D01*
X149308736Y-81381166D01*
X149320745Y-81385368D01*
X149320750Y-81385369D01*
X149499996Y-81405565D01*
X149500000Y-81405565D01*
X149500004Y-81405565D01*
X149679249Y-81385369D01*
X149679252Y-81385368D01*
X149679255Y-81385368D01*
X149849522Y-81325789D01*
X150002262Y-81229816D01*
X150129816Y-81102262D01*
X150225789Y-80949522D01*
X150285368Y-80779255D01*
X150285874Y-80774767D01*
X150305565Y-80600003D01*
X150305565Y-80599996D01*
X150285369Y-80420750D01*
X150285366Y-80420737D01*
X150225790Y-80250479D01*
X150219506Y-80240478D01*
X150200500Y-80174507D01*
X150200500Y-72425493D01*
X150219508Y-72359519D01*
X150225787Y-72349525D01*
X150225786Y-72349525D01*
X150225789Y-72349522D01*
X150285368Y-72179255D01*
X150285369Y-72179249D01*
X150305565Y-72000003D01*
X150305565Y-71999996D01*
X150285369Y-71820750D01*
X150285368Y-71820745D01*
X150225788Y-71650476D01*
X150186582Y-71588080D01*
X150129816Y-71497738D01*
X150002262Y-71370184D01*
X149976480Y-71353984D01*
X149849523Y-71274211D01*
X149679254Y-71214631D01*
X149679249Y-71214630D01*
X149500004Y-71194435D01*
X149499996Y-71194435D01*
X149320750Y-71214630D01*
X149320745Y-71214631D01*
X149150476Y-71274211D01*
X148997737Y-71370184D01*
X148870184Y-71497737D01*
X148774211Y-71650476D01*
X148714631Y-71820745D01*
X148714630Y-71820750D01*
X148694435Y-71999996D01*
X148694435Y-72000003D01*
X148714630Y-72179249D01*
X148714631Y-72179254D01*
X148774212Y-72349525D01*
X148780492Y-72359519D01*
X148799500Y-72425493D01*
X148799500Y-80174507D01*
X148780494Y-80240478D01*
X148774209Y-80250479D01*
X148714633Y-80420737D01*
X148714630Y-80420750D01*
X148694435Y-80599996D01*
X148694435Y-80600003D01*
X146190660Y-80600003D01*
X145336819Y-79746162D01*
X145303334Y-79684839D01*
X145300500Y-79658481D01*
X145300500Y-73541055D01*
X145297590Y-73526429D01*
X145297589Y-73526426D01*
X145297588Y-73526420D01*
X145273580Y-73405722D01*
X145268835Y-73394266D01*
X145220777Y-73278242D01*
X145144112Y-73163504D01*
X143036495Y-71055887D01*
X142921757Y-70979222D01*
X142794282Y-70926421D01*
X142794272Y-70926418D01*
X142658946Y-70899500D01*
X142658944Y-70899500D01*
X142658943Y-70899500D01*
X127501227Y-70899500D01*
X127363239Y-70899500D01*
X127363237Y-70899500D01*
X127227910Y-70926418D01*
X127227900Y-70926421D01*
X127100425Y-70979222D01*
X126985687Y-71055887D01*
X123514783Y-74526791D01*
X123453460Y-74560276D01*
X123383768Y-74555292D01*
X123355979Y-74540685D01*
X123277834Y-74485967D01*
X123277830Y-74485965D01*
X123274225Y-74484284D01*
X123063663Y-74386097D01*
X123063659Y-74386096D01*
X123063655Y-74386094D01*
X122835413Y-74324938D01*
X122835403Y-74324936D01*
X122600001Y-74304341D01*
X122599999Y-74304341D01*
X122364597Y-74324936D01*
X122364593Y-74324936D01*
X122364592Y-74324937D01*
X122364587Y-74324938D01*
X122364584Y-74324939D01*
X122347778Y-74329442D01*
X122277928Y-74327778D01*
X122228005Y-74297348D01*
X121796546Y-73865888D01*
X121796545Y-73865887D01*
X121681807Y-73789222D01*
X121554332Y-73736421D01*
X121554322Y-73736418D01*
X121418996Y-73709500D01*
X121418994Y-73709500D01*
X121418993Y-73709500D01*
X116621007Y-73709500D01*
X116621005Y-73709500D01*
X116485677Y-73736418D01*
X116485667Y-73736421D01*
X116358192Y-73789222D01*
X116243454Y-73865887D01*
X112155887Y-77953454D01*
X112113250Y-78017267D01*
X112096237Y-78042728D01*
X112079225Y-78068188D01*
X112079221Y-78068195D01*
X112026421Y-78195667D01*
X112026418Y-78195677D01*
X111999500Y-78331004D01*
X111999500Y-78331007D01*
X111999500Y-100331006D01*
X111999500Y-100468994D01*
X111999500Y-100468996D01*
X111999499Y-100468996D01*
X112026418Y-100604322D01*
X112026421Y-100604332D01*
X112079222Y-100731807D01*
X112155887Y-100846545D01*
X114853454Y-103544112D01*
X114968190Y-103620776D01*
X115066790Y-103661617D01*
X115095671Y-103673580D01*
X115095672Y-103673580D01*
X115095677Y-103673582D01*
X115122545Y-103678925D01*
X115122551Y-103678926D01*
X115122591Y-103678934D01*
X115212937Y-103696905D01*
X115231006Y-103700500D01*
X115231007Y-103700500D01*
X134374506Y-103700500D01*
X134440477Y-103719506D01*
X134450474Y-103725787D01*
X134450475Y-103725787D01*
X134450478Y-103725789D01*
X134620745Y-103785368D01*
X134620750Y-103785369D01*
X134799996Y-103805565D01*
X134800000Y-103805565D01*
X134800004Y-103805565D01*
X134979249Y-103785369D01*
X134979252Y-103785368D01*
X134979255Y-103785368D01*
X135149522Y-103725789D01*
X135302262Y-103629816D01*
X135429816Y-103502262D01*
X135525789Y-103349522D01*
X135585368Y-103179255D01*
X135586514Y-103169084D01*
X135605565Y-103000003D01*
X135605565Y-102999996D01*
X135585369Y-102820750D01*
X135585368Y-102820745D01*
X135562007Y-102753984D01*
X135525789Y-102650478D01*
X135429816Y-102497738D01*
X135302262Y-102370184D01*
X135149523Y-102274211D01*
X134979254Y-102214631D01*
X134979249Y-102214630D01*
X134834334Y-102198303D01*
X134769920Y-102171237D01*
X134730364Y-102113642D01*
X134728227Y-102043805D01*
X134731176Y-102034128D01*
X134785366Y-101879262D01*
X134785369Y-101879249D01*
X134805565Y-101700003D01*
X134805565Y-101699996D01*
X134785369Y-101520750D01*
X134785367Y-101520742D01*
X134731030Y-101365454D01*
X134727469Y-101295676D01*
X134762198Y-101235048D01*
X134824191Y-101202821D01*
X134848072Y-101200500D01*
X141109481Y-101200500D01*
X141176520Y-101220185D01*
X141222275Y-101272989D01*
X141232219Y-101342147D01*
X141203194Y-101405703D01*
X141197162Y-101412181D01*
X139777591Y-102831750D01*
X139716268Y-102865235D01*
X139646576Y-102860251D01*
X139590643Y-102818379D01*
X139572868Y-102785023D01*
X139571354Y-102780697D01*
X139525789Y-102650478D01*
X139429816Y-102497738D01*
X139302262Y-102370184D01*
X139149523Y-102274211D01*
X138979254Y-102214631D01*
X138979249Y-102214630D01*
X138800004Y-102194435D01*
X138799996Y-102194435D01*
X138620750Y-102214630D01*
X138620745Y-102214631D01*
X138450476Y-102274211D01*
X138297737Y-102370184D01*
X138170184Y-102497737D01*
X138074212Y-102650475D01*
X138074211Y-102650476D01*
X138037992Y-102753984D01*
X138008632Y-102800709D01*
X134946162Y-105863181D01*
X134884839Y-105896666D01*
X134858481Y-105899500D01*
X129231002Y-105899500D01*
X129124203Y-105920743D01*
X129124204Y-105920744D01*
X129095675Y-105926419D01*
X129095672Y-105926419D01*
X129095671Y-105926420D01*
X129095669Y-105926420D01*
X129095668Y-105926421D01*
X128968190Y-105979224D01*
X128853454Y-106055887D01*
X128853453Y-106055888D01*
X119446162Y-115463181D01*
X119384839Y-115496666D01*
X119358481Y-115499500D01*
X115225494Y-115499500D01*
X115159523Y-115480494D01*
X115149525Y-115474212D01*
X114979254Y-115414631D01*
X114979249Y-115414630D01*
X114800004Y-115394435D01*
X114799996Y-115394435D01*
X114620750Y-115414630D01*
X114620745Y-115414631D01*
X114450476Y-115474211D01*
X114297737Y-115570184D01*
X114170184Y-115697737D01*
X114074211Y-115850476D01*
X114014631Y-116020745D01*
X114014630Y-116020750D01*
X113994435Y-116199996D01*
X113994435Y-116200003D01*
X114014630Y-116379249D01*
X114014633Y-116379262D01*
X114033978Y-116434545D01*
X114037540Y-116504324D01*
X114002812Y-116564951D01*
X113940818Y-116597179D01*
X113916937Y-116599500D01*
X111125494Y-116599500D01*
X111059523Y-116580494D01*
X111049525Y-116574212D01*
X110879254Y-116514631D01*
X110879249Y-116514630D01*
X110700004Y-116494435D01*
X110699996Y-116494435D01*
X110520750Y-116514630D01*
X110520745Y-116514631D01*
X110350476Y-116574211D01*
X110197737Y-116670184D01*
X110070184Y-116797737D01*
X109974211Y-116950476D01*
X109914631Y-117120745D01*
X109914630Y-117120750D01*
X109894435Y-117299996D01*
X109894435Y-117300003D01*
X104890831Y-117300003D01*
X104890831Y-110121288D01*
X107649500Y-110121288D01*
X107681161Y-110361785D01*
X107743947Y-110596104D01*
X107820026Y-110779775D01*
X107836776Y-110820212D01*
X107958064Y-111030289D01*
X107958066Y-111030292D01*
X107958067Y-111030293D01*
X108105733Y-111222736D01*
X108105739Y-111222743D01*
X108277256Y-111394260D01*
X108277262Y-111394265D01*
X108469711Y-111541936D01*
X108679788Y-111663224D01*
X108903900Y-111756054D01*
X109138211Y-111818838D01*
X109318586Y-111842584D01*
X109378711Y-111850500D01*
X109378712Y-111850500D01*
X109621289Y-111850500D01*
X109669388Y-111844167D01*
X109861789Y-111818838D01*
X110096100Y-111756054D01*
X110320212Y-111663224D01*
X110530289Y-111541936D01*
X110722738Y-111394265D01*
X110894265Y-111222738D01*
X111041936Y-111030289D01*
X111163224Y-110820212D01*
X111256054Y-110596100D01*
X111318838Y-110361789D01*
X111350500Y-110121288D01*
X111350500Y-109878712D01*
X111318838Y-109638211D01*
X111256054Y-109403900D01*
X111163224Y-109179788D01*
X111041936Y-108969711D01*
X110913454Y-108802270D01*
X110894266Y-108777263D01*
X110894260Y-108777256D01*
X110722743Y-108605739D01*
X110722736Y-108605733D01*
X110530293Y-108458067D01*
X110530292Y-108458066D01*
X110530289Y-108458064D01*
X110332922Y-108344114D01*
X110320214Y-108336777D01*
X110320205Y-108336773D01*
X110096104Y-108243947D01*
X109910126Y-108194114D01*
X109861789Y-108181162D01*
X109861788Y-108181161D01*
X109861785Y-108181161D01*
X109621289Y-108149500D01*
X109621288Y-108149500D01*
X109378712Y-108149500D01*
X109378711Y-108149500D01*
X109138214Y-108181161D01*
X108903895Y-108243947D01*
X108679794Y-108336773D01*
X108679785Y-108336777D01*
X108469706Y-108458067D01*
X108277263Y-108605733D01*
X108277256Y-108605739D01*
X108105739Y-108777256D01*
X108105733Y-108777263D01*
X107958067Y-108969706D01*
X107958064Y-108969710D01*
X107958064Y-108969711D01*
X107943780Y-108994452D01*
X107836777Y-109179785D01*
X107836773Y-109179794D01*
X107743947Y-109403895D01*
X107681161Y-109638214D01*
X107649500Y-109878711D01*
X107649500Y-110121288D01*
X104890831Y-110121288D01*
X104890831Y-88380850D01*
X104910516Y-88313811D01*
X104963320Y-88268056D01*
X105032478Y-88258112D01*
X105096034Y-88287137D01*
X105102512Y-88293169D01*
X109063181Y-92253838D01*
X109096666Y-92315161D01*
X109099500Y-92341519D01*
X109099500Y-100131006D01*
X109099500Y-100268994D01*
X109099500Y-100268996D01*
X109099499Y-100268996D01*
X109126418Y-100404322D01*
X109126421Y-100404332D01*
X109179222Y-100531807D01*
X109255887Y-100646545D01*
X109255888Y-100646546D01*
X112663181Y-104053838D01*
X112696666Y-104115161D01*
X112699500Y-104141519D01*
X112699500Y-112974507D01*
X112680494Y-113040478D01*
X112674209Y-113050479D01*
X112614633Y-113220737D01*
X112614630Y-113220750D01*
X112594435Y-113399996D01*
X112594435Y-113400003D01*
X112614630Y-113579249D01*
X112614631Y-113579254D01*
X112674211Y-113749523D01*
X112753989Y-113876488D01*
X112770184Y-113902262D01*
X112897738Y-114029816D01*
X112912165Y-114038881D01*
X113050474Y-114125787D01*
X113050478Y-114125789D01*
X113154726Y-114162267D01*
X113220745Y-114185368D01*
X113220750Y-114185369D01*
X113399996Y-114205565D01*
X113400000Y-114205565D01*
X113400004Y-114205565D01*
X113579249Y-114185369D01*
X113579252Y-114185368D01*
X113579255Y-114185368D01*
X113749522Y-114125789D01*
X113902262Y-114029816D01*
X114029816Y-113902262D01*
X114125789Y-113749522D01*
X114185368Y-113579255D01*
X114188664Y-113550005D01*
X114205565Y-113400003D01*
X114205565Y-113399996D01*
X114185369Y-113220750D01*
X114185366Y-113220737D01*
X114125790Y-113050479D01*
X114119506Y-113040478D01*
X114100500Y-112974507D01*
X114100500Y-103731004D01*
X114073581Y-103595677D01*
X114073580Y-103595676D01*
X114073580Y-103595672D01*
X114020775Y-103468189D01*
X113998285Y-103434530D01*
X113944114Y-103353457D01*
X113944112Y-103353454D01*
X110536819Y-99946161D01*
X110503334Y-99884838D01*
X110500500Y-99858480D01*
X110500500Y-92682412D01*
X110520185Y-92615373D01*
X110527555Y-92605097D01*
X110529810Y-92602267D01*
X110529816Y-92602262D01*
X110625789Y-92449522D01*
X110685368Y-92279255D01*
X110693653Y-92205722D01*
X110705565Y-92100003D01*
X110705565Y-92099996D01*
X110685369Y-91920750D01*
X110685368Y-91920745D01*
X110625789Y-91750478D01*
X110623318Y-91746546D01*
X110570198Y-91662006D01*
X110529816Y-91597738D01*
X110402262Y-91470184D01*
X110391117Y-91463181D01*
X110249519Y-91374209D01*
X110146013Y-91337990D01*
X110099287Y-91308630D01*
X106236819Y-87446162D01*
X106203334Y-87384839D01*
X106200500Y-87358481D01*
X106200500Y-76221288D01*
X107549500Y-76221288D01*
X107581161Y-76461785D01*
X107643947Y-76696104D01*
X107736773Y-76920205D01*
X107736776Y-76920212D01*
X107858064Y-77130289D01*
X107858066Y-77130292D01*
X107858067Y-77130293D01*
X108005733Y-77322736D01*
X108005739Y-77322743D01*
X108177256Y-77494260D01*
X108177262Y-77494265D01*
X108369711Y-77641936D01*
X108579788Y-77763224D01*
X108803900Y-77856054D01*
X109038211Y-77918838D01*
X109218586Y-77942584D01*
X109278711Y-77950500D01*
X109278712Y-77950500D01*
X109521289Y-77950500D01*
X109569388Y-77944167D01*
X109761789Y-77918838D01*
X109996100Y-77856054D01*
X110220212Y-77763224D01*
X110430289Y-77641936D01*
X110622738Y-77494265D01*
X110794265Y-77322738D01*
X110941936Y-77130289D01*
X111063224Y-76920212D01*
X111156054Y-76696100D01*
X111218838Y-76461789D01*
X111250500Y-76221288D01*
X111250500Y-75978712D01*
X111218838Y-75738211D01*
X111156054Y-75503900D01*
X111063224Y-75279788D01*
X110941936Y-75069711D01*
X110794265Y-74877262D01*
X110794260Y-74877256D01*
X110622743Y-74705739D01*
X110622736Y-74705733D01*
X110430293Y-74558067D01*
X110430292Y-74558066D01*
X110430289Y-74558064D01*
X110220212Y-74436776D01*
X110220205Y-74436773D01*
X109996104Y-74343947D01*
X109848293Y-74304341D01*
X109761789Y-74281162D01*
X109761788Y-74281161D01*
X109761785Y-74281161D01*
X109521289Y-74249500D01*
X109521288Y-74249500D01*
X109278712Y-74249500D01*
X109278711Y-74249500D01*
X109038214Y-74281161D01*
X108803895Y-74343947D01*
X108579794Y-74436773D01*
X108579785Y-74436777D01*
X108369706Y-74558067D01*
X108177263Y-74705733D01*
X108177256Y-74705739D01*
X108005739Y-74877256D01*
X108005733Y-74877263D01*
X107858067Y-75069706D01*
X107736777Y-75279785D01*
X107736773Y-75279794D01*
X107643947Y-75503895D01*
X107581161Y-75738214D01*
X107549500Y-75978711D01*
X107549500Y-76221288D01*
X106200500Y-76221288D01*
X106200500Y-73341518D01*
X106220185Y-73274479D01*
X106236814Y-73253842D01*
X111404045Y-68086610D01*
X149199500Y-68086610D01*
X149225964Y-68253703D01*
X149226598Y-68257701D01*
X149280127Y-68422445D01*
X149358768Y-68576788D01*
X149460586Y-68716928D01*
X149583072Y-68839414D01*
X149723212Y-68941232D01*
X149877555Y-69019873D01*
X150042299Y-69073402D01*
X150213389Y-69100500D01*
X150213390Y-69100500D01*
X150386610Y-69100500D01*
X150386611Y-69100500D01*
X150557701Y-69073402D01*
X150722445Y-69019873D01*
X150876788Y-68941232D01*
X151016928Y-68839414D01*
X151139414Y-68716928D01*
X151241232Y-68576788D01*
X151319873Y-68422445D01*
X151373402Y-68257701D01*
X151400500Y-68086611D01*
X151400500Y-67583771D01*
X154449500Y-67583771D01*
X154482182Y-67748074D01*
X154482184Y-67748082D01*
X154546295Y-67902860D01*
X154639373Y-68042162D01*
X154757837Y-68160626D01*
X154850494Y-68222537D01*
X154897137Y-68253703D01*
X155051918Y-68317816D01*
X155216228Y-68350499D01*
X155216232Y-68350500D01*
X155216233Y-68350500D01*
X155383768Y-68350500D01*
X155383769Y-68350499D01*
X155548082Y-68317816D01*
X155702863Y-68253703D01*
X155842162Y-68160626D01*
X155916178Y-68086610D01*
X159199500Y-68086610D01*
X159225964Y-68253703D01*
X159226598Y-68257701D01*
X159280127Y-68422445D01*
X159358768Y-68576788D01*
X159460586Y-68716928D01*
X159583072Y-68839414D01*
X159723212Y-68941232D01*
X159877555Y-69019873D01*
X160042299Y-69073402D01*
X160213389Y-69100500D01*
X160213390Y-69100500D01*
X160386610Y-69100500D01*
X160386611Y-69100500D01*
X160557701Y-69073402D01*
X160722445Y-69019873D01*
X160876788Y-68941232D01*
X161016928Y-68839414D01*
X161139414Y-68716928D01*
X161241232Y-68576788D01*
X161319873Y-68422445D01*
X161373402Y-68257701D01*
X161400500Y-68086611D01*
X161400500Y-66913389D01*
X161373402Y-66742299D01*
X161319873Y-66577555D01*
X161241232Y-66423212D01*
X161139414Y-66283072D01*
X161016928Y-66160586D01*
X160876788Y-66058768D01*
X160799545Y-66019411D01*
X160722447Y-65980128D01*
X160722446Y-65980127D01*
X160722445Y-65980127D01*
X160557701Y-65926598D01*
X160557699Y-65926597D01*
X160557698Y-65926597D01*
X160426271Y-65905781D01*
X160386611Y-65899500D01*
X160213389Y-65899500D01*
X160173728Y-65905781D01*
X160042302Y-65926597D01*
X159877552Y-65980128D01*
X159723211Y-66058768D01*
X159643256Y-66116859D01*
X159583072Y-66160586D01*
X159583070Y-66160588D01*
X159583069Y-66160588D01*
X159460588Y-66283069D01*
X159460588Y-66283070D01*
X159460586Y-66283072D01*
X159416859Y-66343256D01*
X159358768Y-66423211D01*
X159280128Y-66577552D01*
X159226597Y-66742302D01*
X159199500Y-66913389D01*
X159199500Y-68086610D01*
X155916178Y-68086610D01*
X155960626Y-68042162D01*
X156053703Y-67902863D01*
X156117816Y-67748082D01*
X156150500Y-67583767D01*
X156150500Y-67416233D01*
X156117816Y-67251918D01*
X156053703Y-67097137D01*
X156021882Y-67049514D01*
X155960626Y-66957837D01*
X155842162Y-66839373D01*
X155702860Y-66746295D01*
X155548082Y-66682184D01*
X155548074Y-66682182D01*
X155383771Y-66649500D01*
X155383767Y-66649500D01*
X155216233Y-66649500D01*
X155216228Y-66649500D01*
X155051925Y-66682182D01*
X155051917Y-66682184D01*
X154897139Y-66746295D01*
X154757837Y-66839373D01*
X154639373Y-66957837D01*
X154546295Y-67097139D01*
X154482184Y-67251917D01*
X154482182Y-67251925D01*
X154449500Y-67416228D01*
X154449500Y-67583771D01*
X151400500Y-67583771D01*
X151400500Y-66913389D01*
X151373402Y-66742299D01*
X151319873Y-66577555D01*
X151241232Y-66423212D01*
X151139414Y-66283072D01*
X151016928Y-66160586D01*
X150876788Y-66058768D01*
X150799545Y-66019411D01*
X150722447Y-65980128D01*
X150722446Y-65980127D01*
X150722445Y-65980127D01*
X150557701Y-65926598D01*
X150557699Y-65926597D01*
X150557698Y-65926597D01*
X150426271Y-65905781D01*
X150386611Y-65899500D01*
X150213389Y-65899500D01*
X150173728Y-65905781D01*
X150042302Y-65926597D01*
X149877552Y-65980128D01*
X149723211Y-66058768D01*
X149643256Y-66116859D01*
X149583072Y-66160586D01*
X149583070Y-66160588D01*
X149583069Y-66160588D01*
X149460588Y-66283069D01*
X149460588Y-66283070D01*
X149460586Y-66283072D01*
X149416859Y-66343256D01*
X149358768Y-66423211D01*
X149280128Y-66577552D01*
X149226597Y-66742302D01*
X149199500Y-66913389D01*
X149199500Y-68086610D01*
X111404045Y-68086610D01*
X114224044Y-65266611D01*
X165789831Y-65266611D01*
X165816929Y-65437701D01*
X165870458Y-65602445D01*
X165949099Y-65756788D01*
X166050917Y-65896928D01*
X166173403Y-66019414D01*
X166313543Y-66121232D01*
X166467886Y-66199873D01*
X166632630Y-66253402D01*
X166803720Y-66280500D01*
X166803721Y-66280500D01*
X166976941Y-66280500D01*
X166976942Y-66280500D01*
X167148032Y-66253402D01*
X167312776Y-66199873D01*
X167467119Y-66121232D01*
X167607259Y-66019414D01*
X167714803Y-65911869D01*
X167776122Y-65878387D01*
X167845814Y-65883371D01*
X167901748Y-65925242D01*
X167908019Y-65934456D01*
X167947616Y-65998652D01*
X167947619Y-65998656D01*
X168071675Y-66122712D01*
X168220997Y-66214814D01*
X168387534Y-66269999D01*
X168490322Y-66280500D01*
X169290339Y-66280499D01*
X169290347Y-66280498D01*
X169290350Y-66280498D01*
X169346633Y-66274748D01*
X169393128Y-66269999D01*
X169559665Y-66214814D01*
X169708987Y-66122712D01*
X169808602Y-66023097D01*
X176039831Y-66023097D01*
X176076777Y-66256368D01*
X176149764Y-66480996D01*
X176198964Y-66577555D01*
X176256988Y-66691433D01*
X176395814Y-66882510D01*
X176562821Y-67049517D01*
X176753898Y-67188343D01*
X176831362Y-67227813D01*
X176964334Y-67295566D01*
X176964336Y-67295566D01*
X176964339Y-67295568D01*
X177084743Y-67334689D01*
X177188962Y-67368553D01*
X177422234Y-67405500D01*
X177422239Y-67405500D01*
X179858428Y-67405500D01*
X180091699Y-67368553D01*
X180316323Y-67295568D01*
X180526764Y-67188343D01*
X180717841Y-67049517D01*
X180884848Y-66882510D01*
X181023674Y-66691433D01*
X181130899Y-66480992D01*
X181203884Y-66256368D01*
X181204354Y-66253402D01*
X181240831Y-66023097D01*
X181240831Y-65786902D01*
X181203884Y-65553631D01*
X181130897Y-65329003D01*
X181023673Y-65118566D01*
X180884848Y-64927490D01*
X180717841Y-64760483D01*
X180526764Y-64621657D01*
X180455543Y-64585368D01*
X180316327Y-64514433D01*
X180091699Y-64441446D01*
X179858428Y-64404500D01*
X179858423Y-64404500D01*
X177422239Y-64404500D01*
X177422234Y-64404500D01*
X177188962Y-64441446D01*
X176964334Y-64514433D01*
X176753897Y-64621657D01*
X176644881Y-64700862D01*
X176562821Y-64760483D01*
X176562819Y-64760485D01*
X176562818Y-64760485D01*
X176395816Y-64927487D01*
X176395816Y-64927488D01*
X176395814Y-64927490D01*
X176336193Y-65009550D01*
X176256988Y-65118566D01*
X176149764Y-65329003D01*
X176076777Y-65553631D01*
X176039831Y-65786902D01*
X176039831Y-66023097D01*
X169808602Y-66023097D01*
X169833043Y-65998656D01*
X169925145Y-65849334D01*
X169980330Y-65682797D01*
X169990831Y-65580009D01*
X169990830Y-64229992D01*
X169980330Y-64127203D01*
X169925145Y-63960666D01*
X169833043Y-63811344D01*
X169708987Y-63687288D01*
X169583890Y-63610128D01*
X169559667Y-63595187D01*
X169559662Y-63595185D01*
X169493925Y-63573402D01*
X169393128Y-63540001D01*
X169393126Y-63540000D01*
X169290341Y-63529500D01*
X168490329Y-63529500D01*
X168490311Y-63529501D01*
X168387534Y-63540000D01*
X168387531Y-63540001D01*
X168220999Y-63595185D01*
X168220994Y-63595187D01*
X168071673Y-63687289D01*
X167947618Y-63811344D01*
X167908019Y-63875544D01*
X167856070Y-63922268D01*
X167787108Y-63933489D01*
X167723026Y-63905645D01*
X167714800Y-63898127D01*
X167607261Y-63790588D01*
X167607259Y-63790586D01*
X167467119Y-63688768D01*
X167312776Y-63610127D01*
X167148032Y-63556598D01*
X167148030Y-63556597D01*
X167148029Y-63556597D01*
X167016602Y-63535781D01*
X166976942Y-63529500D01*
X166803720Y-63529500D01*
X166764059Y-63535781D01*
X166632633Y-63556597D01*
X166467883Y-63610128D01*
X166313542Y-63688768D01*
X166233587Y-63746859D01*
X166173403Y-63790586D01*
X166173401Y-63790588D01*
X166173400Y-63790588D01*
X166050919Y-63913069D01*
X166050919Y-63913070D01*
X166050917Y-63913072D01*
X166044236Y-63922268D01*
X165949099Y-64053211D01*
X165870459Y-64207552D01*
X165816928Y-64372302D01*
X165807819Y-64429815D01*
X165789831Y-64543389D01*
X165789831Y-65266611D01*
X114224044Y-65266611D01*
X114899290Y-64591365D01*
X114946013Y-64562007D01*
X115049522Y-64525789D01*
X115202262Y-64429816D01*
X115329816Y-64302262D01*
X115425789Y-64149522D01*
X115462007Y-64046013D01*
X115491365Y-63999290D01*
X116353838Y-63136819D01*
X116415161Y-63103334D01*
X116441519Y-63100500D01*
X135358481Y-63100500D01*
X135425520Y-63120185D01*
X135446162Y-63136819D01*
X136308630Y-63999287D01*
X136337990Y-64046013D01*
X136374209Y-64149519D01*
X136374211Y-64149522D01*
X136470184Y-64302262D01*
X136597738Y-64429816D01*
X136750478Y-64525789D01*
X136880695Y-64571354D01*
X136920745Y-64585368D01*
X136920750Y-64585369D01*
X137099996Y-64605565D01*
X137100000Y-64605565D01*
X137100004Y-64605565D01*
X137279249Y-64585369D01*
X137279252Y-64585368D01*
X137279255Y-64585368D01*
X137449522Y-64525789D01*
X137602262Y-64429816D01*
X137729816Y-64302262D01*
X137825789Y-64149522D01*
X137885368Y-63979255D01*
X137885369Y-63979249D01*
X137905565Y-63800003D01*
X137905565Y-63799996D01*
X137885369Y-63620750D01*
X137885368Y-63620745D01*
X137876425Y-63595187D01*
X137825789Y-63450478D01*
X137819979Y-63441232D01*
X137786582Y-63388080D01*
X137729816Y-63297738D01*
X137602262Y-63170184D01*
X137449522Y-63074211D01*
X137449519Y-63074209D01*
X137346013Y-63037990D01*
X137299287Y-63008630D01*
X136874428Y-62583771D01*
X149449500Y-62583771D01*
X149482182Y-62748074D01*
X149482184Y-62748082D01*
X149546295Y-62902860D01*
X149639373Y-63042162D01*
X149757837Y-63160626D01*
X149850494Y-63222537D01*
X149897137Y-63253703D01*
X150051918Y-63317816D01*
X150216228Y-63350499D01*
X150216232Y-63350500D01*
X150216233Y-63350500D01*
X150383768Y-63350500D01*
X150383769Y-63350499D01*
X150548082Y-63317816D01*
X150702863Y-63253703D01*
X150842162Y-63160626D01*
X150960626Y-63042162D01*
X151053703Y-62902863D01*
X151117816Y-62748082D01*
X151149934Y-62586611D01*
X153699500Y-62586611D01*
X153726598Y-62757701D01*
X153780127Y-62922445D01*
X153858768Y-63076788D01*
X153960586Y-63216928D01*
X154083072Y-63339414D01*
X154223212Y-63441232D01*
X154377555Y-63519873D01*
X154542299Y-63573402D01*
X154713389Y-63600500D01*
X154713390Y-63600500D01*
X155886610Y-63600500D01*
X155886611Y-63600500D01*
X156057701Y-63573402D01*
X156222445Y-63519873D01*
X156376788Y-63441232D01*
X156516928Y-63339414D01*
X156639414Y-63216928D01*
X156741232Y-63076788D01*
X156819873Y-62922445D01*
X156873402Y-62757701D01*
X156900500Y-62586611D01*
X156900500Y-62583771D01*
X159449500Y-62583771D01*
X159482182Y-62748074D01*
X159482184Y-62748082D01*
X159546295Y-62902860D01*
X159639373Y-63042162D01*
X159757837Y-63160626D01*
X159850494Y-63222537D01*
X159897137Y-63253703D01*
X160051918Y-63317816D01*
X160216228Y-63350499D01*
X160216232Y-63350500D01*
X160216233Y-63350500D01*
X160383768Y-63350500D01*
X160383769Y-63350499D01*
X160548082Y-63317816D01*
X160702863Y-63253703D01*
X160842162Y-63160626D01*
X160960626Y-63042162D01*
X161053703Y-62902863D01*
X161117816Y-62748082D01*
X161150500Y-62583767D01*
X161150500Y-62416233D01*
X161117816Y-62251918D01*
X161053703Y-62097137D01*
X161022537Y-62050494D01*
X160960626Y-61957837D01*
X160842162Y-61839373D01*
X160702860Y-61746295D01*
X160548082Y-61682184D01*
X160548074Y-61682182D01*
X160383771Y-61649500D01*
X160383767Y-61649500D01*
X160216233Y-61649500D01*
X160216228Y-61649500D01*
X160051925Y-61682182D01*
X160051917Y-61682184D01*
X159897139Y-61746295D01*
X159757837Y-61839373D01*
X159639373Y-61957837D01*
X159546295Y-62097139D01*
X159482184Y-62251917D01*
X159482182Y-62251925D01*
X159449500Y-62416228D01*
X159449500Y-62583771D01*
X156900500Y-62583771D01*
X156900500Y-62413389D01*
X156873402Y-62242299D01*
X156819873Y-62077555D01*
X156741232Y-61923212D01*
X156639414Y-61783072D01*
X156516928Y-61660586D01*
X156376788Y-61558768D01*
X156222445Y-61480127D01*
X156057701Y-61426598D01*
X156057699Y-61426597D01*
X156057698Y-61426597D01*
X155926271Y-61405781D01*
X155886611Y-61399500D01*
X154713389Y-61399500D01*
X154673728Y-61405781D01*
X154542302Y-61426597D01*
X154377552Y-61480128D01*
X154223211Y-61558768D01*
X154143256Y-61616859D01*
X154083072Y-61660586D01*
X154083070Y-61660588D01*
X154083069Y-61660588D01*
X153960588Y-61783069D01*
X153960588Y-61783070D01*
X153960586Y-61783072D01*
X153919681Y-61839373D01*
X153858768Y-61923211D01*
X153780128Y-62077552D01*
X153726597Y-62242302D01*
X153725074Y-62251918D01*
X153699500Y-62413389D01*
X153699500Y-62586611D01*
X151149934Y-62586611D01*
X151150500Y-62583767D01*
X151150500Y-62416233D01*
X151117816Y-62251918D01*
X151053703Y-62097137D01*
X151022537Y-62050494D01*
X150960626Y-61957837D01*
X150842162Y-61839373D01*
X150702860Y-61746295D01*
X150548082Y-61682184D01*
X150548074Y-61682182D01*
X150383771Y-61649500D01*
X150383767Y-61649500D01*
X150216233Y-61649500D01*
X150216228Y-61649500D01*
X150051925Y-61682182D01*
X150051917Y-61682184D01*
X149897139Y-61746295D01*
X149757837Y-61839373D01*
X149639373Y-61957837D01*
X149546295Y-62097139D01*
X149482184Y-62251917D01*
X149482182Y-62251925D01*
X149449500Y-62416228D01*
X149449500Y-62583771D01*
X136874428Y-62583771D01*
X136146546Y-61855888D01*
X136146545Y-61855887D01*
X136031807Y-61779222D01*
X135904332Y-61726421D01*
X135904322Y-61726418D01*
X135768996Y-61699500D01*
X135768994Y-61699500D01*
X135768993Y-61699500D01*
X116168994Y-61699500D01*
X116031006Y-61699500D01*
X116031004Y-61699500D01*
X115895677Y-61726418D01*
X115895667Y-61726421D01*
X115768192Y-61779222D01*
X115653454Y-61855887D01*
X114500709Y-63008632D01*
X114453984Y-63037992D01*
X114350476Y-63074211D01*
X114350475Y-63074212D01*
X114197737Y-63170184D01*
X114070184Y-63297737D01*
X113974212Y-63450475D01*
X113974211Y-63450476D01*
X113937992Y-63553984D01*
X113908632Y-63600709D01*
X105102512Y-72406830D01*
X105041189Y-72440315D01*
X104971497Y-72435331D01*
X104915564Y-72393459D01*
X104891147Y-72327995D01*
X104890831Y-72319149D01*
X104890831Y-60083771D01*
X149449500Y-60083771D01*
X149482182Y-60248074D01*
X149482184Y-60248082D01*
X149546295Y-60402860D01*
X149639373Y-60542162D01*
X149757837Y-60660626D01*
X149850494Y-60722537D01*
X149897137Y-60753703D01*
X150051918Y-60817816D01*
X150216228Y-60850499D01*
X150216232Y-60850500D01*
X150216233Y-60850500D01*
X150383768Y-60850500D01*
X150383769Y-60850499D01*
X150548082Y-60817816D01*
X150702863Y-60753703D01*
X150842162Y-60660626D01*
X150960626Y-60542162D01*
X151053703Y-60402863D01*
X151117816Y-60248082D01*
X151150499Y-60083771D01*
X159449500Y-60083771D01*
X159482182Y-60248074D01*
X159482184Y-60248082D01*
X159546295Y-60402860D01*
X159639373Y-60542162D01*
X159757837Y-60660626D01*
X159850494Y-60722537D01*
X159897137Y-60753703D01*
X160051918Y-60817816D01*
X160216228Y-60850499D01*
X160216232Y-60850500D01*
X160216233Y-60850500D01*
X160383768Y-60850500D01*
X160383769Y-60850499D01*
X160548082Y-60817816D01*
X160702863Y-60753703D01*
X160842162Y-60660626D01*
X160960626Y-60542162D01*
X161053703Y-60402863D01*
X161117816Y-60248082D01*
X161150500Y-60083767D01*
X161150500Y-59916233D01*
X161117816Y-59751918D01*
X161053703Y-59597137D01*
X161022537Y-59550494D01*
X160960626Y-59457837D01*
X160842162Y-59339373D01*
X160702860Y-59246295D01*
X160548082Y-59182184D01*
X160548074Y-59182182D01*
X160383771Y-59149500D01*
X160383767Y-59149500D01*
X160216233Y-59149500D01*
X160216228Y-59149500D01*
X160051925Y-59182182D01*
X160051917Y-59182184D01*
X159897139Y-59246295D01*
X159757837Y-59339373D01*
X159639373Y-59457837D01*
X159546295Y-59597139D01*
X159482184Y-59751917D01*
X159482182Y-59751925D01*
X159449500Y-59916228D01*
X159449500Y-60083771D01*
X151150499Y-60083771D01*
X151150500Y-60083767D01*
X151150500Y-59916233D01*
X151117816Y-59751918D01*
X151053703Y-59597137D01*
X151022537Y-59550494D01*
X150960626Y-59457837D01*
X150842162Y-59339373D01*
X150702860Y-59246295D01*
X150548082Y-59182184D01*
X150548074Y-59182182D01*
X150383771Y-59149500D01*
X150383767Y-59149500D01*
X150216233Y-59149500D01*
X150216228Y-59149500D01*
X150051925Y-59182182D01*
X150051917Y-59182184D01*
X149897139Y-59246295D01*
X149757837Y-59339373D01*
X149639373Y-59457837D01*
X149546295Y-59597139D01*
X149482184Y-59751917D01*
X149482182Y-59751925D01*
X149449500Y-59916228D01*
X149449500Y-60083771D01*
X104890831Y-60083771D01*
X104890831Y-58604500D01*
X104910516Y-58537461D01*
X104963320Y-58491706D01*
X105014831Y-58480500D01*
X148643141Y-58480500D01*
X148675233Y-58484725D01*
G37*
%TD.AperFunction*%
%TD*%
M02*
