M48
; DRILL file {KiCad 8.0.1} date 2024-05-29T14:30:18+0200
; FORMAT={-:-/ absolute / metric / decimal}
; #@! TF.CreationDate,2024-05-29T14:30:18+02:00
; #@! TF.GenerationSoftware,Kicad,Pcbnew,8.0.1
; #@! TF.FileFunction,Plated,1,2,PTH
FMAT,2
METRIC
; #@! TA.AperFunction,Plated,PTH,ViaDrill
T1C0.300
; #@! TA.AperFunction,Plated,PTH,ComponentDrill
T2C0.400
; #@! TA.AperFunction,Plated,PTH,ComponentDrill
T3C0.750
; #@! TA.AperFunction,Plated,PTH,ComponentDrill
T4C0.760
; #@! TA.AperFunction,Plated,PTH,ComponentDrill
T5C1.000
; #@! TA.AperFunction,Plated,PTH,ComponentDrill
T6C1.100
; #@! TA.AperFunction,Plated,PTH,ComponentDrill
T7C3.200
%
G90
G05
T1
X109.9Y-92.1
X110.7Y-117.3
X113.4Y-113.4
X114.7Y-63.8
X114.8Y-116.2
X115.0Y-94.1
X115.7Y-90.0
X116.0Y-76.9
X120.0Y-82.2
X122.6Y-80.5
X124.5Y-99.1
X125.8Y-86.8
X127.1Y-89.5
X128.5Y-86.8
X129.0Y-90.9
X129.2Y-95.4
X130.0Y-96.6
X130.7Y-83.2
X131.6Y-85.7
X132.8Y-86.0
X133.5Y-108.4
X133.6Y-113.4
X134.0Y-85.6
X134.0Y-101.7
X134.8Y-89.51
X134.8Y-103.0
X135.355Y-84.145
X135.6Y-94.9
X135.7Y-89.8
X135.8Y-73.9
X136.2Y-82.7
X136.3Y-86.1
X136.8Y-94.9
X137.1Y-63.8
X137.2Y-98.4
X137.8Y-93.1
X138.8Y-103.0
X139.3Y-84.1
X139.3Y-94.8
X139.5Y-86.0
X140.9Y-80.6
X141.0Y-87.5
X142.0Y-72.6
X142.0Y-73.7
X142.2Y-79.9
X142.8Y-86.7
X142.8Y-88.3
X142.9Y-89.3
X144.6Y-97.6
X144.8Y-85.1
X144.8Y-86.5
X144.8Y-87.7
X145.0Y-93.575
X145.795Y-97.395
X147.0Y-93.4
X149.5Y-72.0
X149.5Y-80.6
X149.5Y-106.1
X152.4Y-96.6
X153.7Y-96.6
X153.8Y-93.0
X155.6Y-71.6
X155.6Y-73.6
X156.5Y-80.6
X157.0Y-102.5
X158.3Y-97.0
X159.6Y-94.7
T3
X166.89Y-64.905
X168.89Y-64.905
T4
X167.36Y-81.347
X167.36Y-83.888
X167.36Y-86.427
X167.36Y-88.968
X169.9Y-82.617
X169.9Y-85.157
X169.9Y-87.697
X169.9Y-90.237
T5
X120.06Y-75.66
X120.06Y-78.2
X120.06Y-87.66
X120.06Y-90.2
X120.06Y-92.74
X120.06Y-95.28
X122.6Y-75.66
X122.6Y-78.2
X125.14Y-75.66
X125.14Y-78.2
X127.68Y-75.66
X127.68Y-78.2
X130.22Y-75.66
X130.22Y-78.2
X132.76Y-75.66
X132.76Y-78.2
X135.3Y-75.66
X135.3Y-78.2
X137.84Y-75.66
X137.84Y-78.2
X171.26Y-106.505
X171.26Y-109.275
X171.26Y-112.045
X171.26Y-114.815
X171.26Y-117.585
X174.1Y-107.89
X174.1Y-110.66
X174.1Y-113.43
X174.1Y-116.2
T6
X141.85Y-109.05
X141.85Y-113.55
X148.35Y-109.05
X148.35Y-113.55
T7
X172.68Y-99.545
X172.68Y-124.545
T2
G00X150.3Y-67.0
M15
G01X150.3Y-68.0
M16
G05
G00X155.8Y-62.5
M15
G01X154.8Y-62.5
M16
G05
G00X160.3Y-68.0
M15
G01X160.3Y-67.0
M16
G05
T5
G00X173.84Y-70.405
M15
G01X173.84Y-68.205
M16
G05
G00X179.74Y-65.905
M15
G01X177.54Y-65.905
M16
G05
G00X179.94Y-72.205
M15
G01X177.34Y-72.205
M16
G05
M30
