%TF.GenerationSoftware,KiCad,Pcbnew,8.0.4*%
%TF.CreationDate,2024-09-02T12:40:36+02:00*%
%TF.ProjectId,Big7segDisplayDrv,42696737-7365-4674-9469-73706c617944,rev?*%
%TF.SameCoordinates,Original*%
%TF.FileFunction,Soldermask,Top*%
%TF.FilePolarity,Negative*%
%FSLAX46Y46*%
G04 Gerber Fmt 4.6, Leading zero omitted, Abs format (unit mm)*
G04 Created by KiCad (PCBNEW 8.0.4) date 2024-09-02 12:40:36*
%MOMM*%
%LPD*%
G01*
G04 APERTURE LIST*
G04 Aperture macros list*
%AMRoundRect*
0 Rectangle with rounded corners*
0 $1 Rounding radius*
0 $2 $3 $4 $5 $6 $7 $8 $9 X,Y pos of 4 corners*
0 Add a 4 corners polygon primitive as box body*
4,1,4,$2,$3,$4,$5,$6,$7,$8,$9,$2,$3,0*
0 Add four circle primitives for the rounded corners*
1,1,$1+$1,$2,$3*
1,1,$1+$1,$4,$5*
1,1,$1+$1,$6,$7*
1,1,$1+$1,$8,$9*
0 Add four rect primitives between the rounded corners*
20,1,$1+$1,$2,$3,$4,$5,0*
20,1,$1+$1,$4,$5,$6,$7,0*
20,1,$1+$1,$6,$7,$8,$9,0*
20,1,$1+$1,$8,$9,$2,$3,0*%
G04 Aperture macros list end*
%ADD10C,4.000000*%
%ADD11R,1.600000X1.600000*%
%ADD12C,1.600000*%
%ADD13R,1.800000X1.100000*%
%ADD14RoundRect,0.275000X-0.625000X0.275000X-0.625000X-0.275000X0.625000X-0.275000X0.625000X0.275000X0*%
%ADD15R,2.000000X4.600000*%
%ADD16O,2.000000X4.200000*%
%ADD17O,4.200000X2.000000*%
%ADD18R,2.000000X2.000000*%
%ADD19C,2.000000*%
%ADD20O,1.600000X1.600000*%
%ADD21C,3.200000*%
%ADD22R,1.500000X1.500000*%
%ADD23C,1.500000*%
G04 APERTURE END LIST*
D10*
%TO.C,J6*%
X132010000Y-77110331D03*
X107010000Y-77110331D03*
D11*
X125050000Y-78530331D03*
D12*
X122280000Y-78530331D03*
X119510000Y-78530331D03*
X116740000Y-78530331D03*
X113970000Y-78530331D03*
X123665000Y-75690331D03*
X120895000Y-75690331D03*
X118125000Y-75690331D03*
X115355000Y-75690331D03*
%TD*%
D13*
%TO.C,Q1*%
X130180000Y-83682000D03*
D14*
X132250000Y-84952000D03*
X130180000Y-86222000D03*
%TD*%
D10*
%TO.C,J7*%
X164110000Y-77110331D03*
X139110000Y-77110331D03*
D11*
X157150000Y-78530331D03*
D12*
X154380000Y-78530331D03*
X151610000Y-78530331D03*
X148840000Y-78530331D03*
X146070000Y-78530331D03*
X155765000Y-75690331D03*
X152995000Y-75690331D03*
X150225000Y-75690331D03*
X147455000Y-75690331D03*
%TD*%
D15*
%TO.C,J10*%
X159550000Y-100850000D03*
D16*
X165850000Y-100850000D03*
D17*
X162450000Y-96050000D03*
%TD*%
D13*
%TO.C,Q5*%
X130180000Y-108778000D03*
D14*
X132250000Y-110048000D03*
X130180000Y-111318000D03*
%TD*%
D18*
%TO.C,C1*%
X156932323Y-112600000D03*
D19*
X161932323Y-112600000D03*
%TD*%
D12*
%TO.C,R3*%
X138760000Y-96286000D03*
D20*
X148920000Y-96286000D03*
%TD*%
D13*
%TO.C,Q2*%
X130180000Y-89956000D03*
D14*
X132250000Y-91226000D03*
X130180000Y-92496000D03*
%TD*%
D21*
%TO.C,J8*%
X100850000Y-93647500D03*
X100850000Y-105077500D03*
D22*
X107200000Y-94917500D03*
D23*
X109740000Y-96187500D03*
X107200000Y-97457500D03*
X109740000Y-98727500D03*
X107200000Y-99997500D03*
X109740000Y-101267500D03*
X107200000Y-102537500D03*
X109740000Y-103807500D03*
%TD*%
D13*
%TO.C,Q4*%
X130180000Y-102504000D03*
D14*
X132250000Y-103774000D03*
X130180000Y-105044000D03*
%TD*%
D12*
%TO.C,R9*%
X125420000Y-97486000D03*
D20*
X115260000Y-97486000D03*
%TD*%
D12*
%TO.C,R1*%
X138760000Y-83726000D03*
D20*
X148920000Y-83726000D03*
%TD*%
D12*
%TO.C,R2*%
X138760000Y-90006000D03*
D20*
X148920000Y-90006000D03*
%TD*%
D10*
%TO.C,J4*%
X106990000Y-123689669D03*
X131990000Y-123689669D03*
D11*
X113950000Y-122269669D03*
D12*
X116720000Y-122269669D03*
X119490000Y-122269669D03*
X122260000Y-122269669D03*
X125030000Y-122269669D03*
X115335000Y-125109669D03*
X118105000Y-125109669D03*
X120875000Y-125109669D03*
X123645000Y-125109669D03*
%TD*%
%TO.C,R8*%
X125420000Y-91206000D03*
D20*
X115260000Y-91206000D03*
%TD*%
D12*
%TO.C,R4*%
X138760000Y-102566000D03*
D20*
X148920000Y-102566000D03*
%TD*%
D13*
%TO.C,Q6*%
X130180000Y-115052000D03*
D14*
X132250000Y-116322000D03*
X130180000Y-117592000D03*
%TD*%
D12*
%TO.C,R10*%
X125420000Y-103766000D03*
D20*
X115260000Y-103766000D03*
%TD*%
D12*
%TO.C,R12*%
X125420000Y-116326000D03*
D20*
X115260000Y-116326000D03*
%TD*%
D12*
%TO.C,R7*%
X125420000Y-84926000D03*
D20*
X115260000Y-84926000D03*
%TD*%
D10*
%TO.C,J5*%
X139090000Y-123689669D03*
X164090000Y-123689669D03*
D11*
X146050000Y-122269669D03*
D12*
X148820000Y-122269669D03*
X151590000Y-122269669D03*
X154360000Y-122269669D03*
X157130000Y-122269669D03*
X147435000Y-125109669D03*
X150205000Y-125109669D03*
X152975000Y-125109669D03*
X155745000Y-125109669D03*
%TD*%
%TO.C,R6*%
X138760000Y-115126000D03*
D20*
X148920000Y-115126000D03*
%TD*%
D12*
%TO.C,R5*%
X138760000Y-108846000D03*
D20*
X148920000Y-108846000D03*
%TD*%
D12*
%TO.C,R11*%
X125420000Y-110046000D03*
D20*
X115260000Y-110046000D03*
%TD*%
D13*
%TO.C,Q3*%
X130180000Y-96230000D03*
D14*
X132250000Y-97500000D03*
X130180000Y-98770000D03*
%TD*%
M02*
