%TF.GenerationSoftware,KiCad,Pcbnew,8.0.4*%
%TF.CreationDate,2024-09-02T12:40:36+02:00*%
%TF.ProjectId,Big7segDisplayDrv,42696737-7365-4674-9469-73706c617944,rev?*%
%TF.SameCoordinates,Original*%
%TF.FileFunction,Copper,L2,Bot*%
%TF.FilePolarity,Positive*%
%FSLAX46Y46*%
G04 Gerber Fmt 4.6, Leading zero omitted, Abs format (unit mm)*
G04 Created by KiCad (PCBNEW 8.0.4) date 2024-09-02 12:40:36*
%MOMM*%
%LPD*%
G01*
G04 APERTURE LIST*
G04 Aperture macros list*
%AMRoundRect*
0 Rectangle with rounded corners*
0 $1 Rounding radius*
0 $2 $3 $4 $5 $6 $7 $8 $9 X,Y pos of 4 corners*
0 Add a 4 corners polygon primitive as box body*
4,1,4,$2,$3,$4,$5,$6,$7,$8,$9,$2,$3,0*
0 Add four circle primitives for the rounded corners*
1,1,$1+$1,$2,$3*
1,1,$1+$1,$4,$5*
1,1,$1+$1,$6,$7*
1,1,$1+$1,$8,$9*
0 Add four rect primitives between the rounded corners*
20,1,$1+$1,$2,$3,$4,$5,0*
20,1,$1+$1,$4,$5,$6,$7,0*
20,1,$1+$1,$6,$7,$8,$9,0*
20,1,$1+$1,$8,$9,$2,$3,0*%
G04 Aperture macros list end*
%TA.AperFunction,ComponentPad*%
%ADD10C,4.000000*%
%TD*%
%TA.AperFunction,ComponentPad*%
%ADD11R,1.600000X1.600000*%
%TD*%
%TA.AperFunction,ComponentPad*%
%ADD12C,1.600000*%
%TD*%
%TA.AperFunction,ComponentPad*%
%ADD13R,1.800000X1.100000*%
%TD*%
%TA.AperFunction,ComponentPad*%
%ADD14RoundRect,0.275000X-0.625000X0.275000X-0.625000X-0.275000X0.625000X-0.275000X0.625000X0.275000X0*%
%TD*%
%TA.AperFunction,ComponentPad*%
%ADD15R,2.000000X4.600000*%
%TD*%
%TA.AperFunction,ComponentPad*%
%ADD16O,2.000000X4.200000*%
%TD*%
%TA.AperFunction,ComponentPad*%
%ADD17O,4.200000X2.000000*%
%TD*%
%TA.AperFunction,ComponentPad*%
%ADD18R,2.000000X2.000000*%
%TD*%
%TA.AperFunction,ComponentPad*%
%ADD19C,2.000000*%
%TD*%
%TA.AperFunction,ComponentPad*%
%ADD20O,1.600000X1.600000*%
%TD*%
%TA.AperFunction,ComponentPad*%
%ADD21R,1.500000X1.500000*%
%TD*%
%TA.AperFunction,ComponentPad*%
%ADD22C,1.500000*%
%TD*%
%TA.AperFunction,ViaPad*%
%ADD23C,1.300000*%
%TD*%
%TA.AperFunction,Conductor*%
%ADD24C,0.500000*%
%TD*%
%TA.AperFunction,Conductor*%
%ADD25C,0.350000*%
%TD*%
G04 APERTURE END LIST*
D10*
%TO.P,J6,0,PAD*%
%TO.N,GNDREF*%
X132010000Y-77110331D03*
X107010000Y-77110331D03*
D11*
%TO.P,J6,1,1*%
%TO.N,VCC*%
X125050000Y-78530331D03*
D12*
%TO.P,J6,2,2*%
%TO.N,GNDREF*%
X122280000Y-78530331D03*
%TO.P,J6,3,3*%
%TO.N,/sStrobe*%
X119510000Y-78530331D03*
%TO.P,J6,4,4*%
%TO.N,/ssd3*%
X116740000Y-78530331D03*
%TO.P,J6,5,5*%
%TO.N,/sClk*%
X113970000Y-78530331D03*
%TO.P,J6,6,6*%
%TO.N,GNDREF*%
X123665000Y-75690331D03*
%TO.P,J6,7,7*%
X120895000Y-75690331D03*
%TO.P,J6,8,8*%
%TO.N,VCC*%
X118125000Y-75690331D03*
%TO.P,J6,9,9*%
X115355000Y-75690331D03*
%TD*%
D13*
%TO.P,Q1,1,C*%
%TO.N,/ssd1*%
X130180000Y-83682000D03*
D14*
%TO.P,Q1,2,B*%
%TO.N,Net-(Q1-B)*%
X132250000Y-84952000D03*
%TO.P,Q1,3,E*%
%TO.N,GNDREF*%
X130180000Y-86222000D03*
%TD*%
D10*
%TO.P,J7,0,PAD*%
%TO.N,GNDREF*%
X164110000Y-77110331D03*
X139110000Y-77110331D03*
D11*
%TO.P,J7,1,1*%
%TO.N,VCC*%
X157150000Y-78530331D03*
D12*
%TO.P,J7,2,2*%
%TO.N,GNDREF*%
X154380000Y-78530331D03*
%TO.P,J7,3,3*%
%TO.N,/sStrobe*%
X151610000Y-78530331D03*
%TO.P,J7,4,4*%
%TO.N,/ssd4*%
X148840000Y-78530331D03*
%TO.P,J7,5,5*%
%TO.N,/sClk*%
X146070000Y-78530331D03*
%TO.P,J7,6,6*%
%TO.N,GNDREF*%
X155765000Y-75690331D03*
%TO.P,J7,7,7*%
X152995000Y-75690331D03*
%TO.P,J7,8,8*%
%TO.N,VCC*%
X150225000Y-75690331D03*
%TO.P,J7,9,9*%
X147455000Y-75690331D03*
%TD*%
D15*
%TO.P,J10,1*%
%TO.N,VCC*%
X159550000Y-100850000D03*
D16*
%TO.P,J10,2*%
%TO.N,GNDREF*%
X165850000Y-100850000D03*
D17*
%TO.P,J10,3*%
X162450000Y-96050000D03*
%TD*%
D13*
%TO.P,Q5,1,C*%
%TO.N,/sClk*%
X130180000Y-108778000D03*
D14*
%TO.P,Q5,2,B*%
%TO.N,Net-(Q5-B)*%
X132250000Y-110048000D03*
%TO.P,Q5,3,E*%
%TO.N,GNDREF*%
X130180000Y-111318000D03*
%TD*%
D18*
%TO.P,C1,1*%
%TO.N,VCC*%
X156932323Y-112600000D03*
D19*
%TO.P,C1,2*%
%TO.N,GNDREF*%
X161932323Y-112600000D03*
%TD*%
D12*
%TO.P,R3,1*%
%TO.N,/ssd3*%
X138760000Y-96286000D03*
D20*
%TO.P,R3,2*%
%TO.N,VCC*%
X148920000Y-96286000D03*
%TD*%
D13*
%TO.P,Q2,1,C*%
%TO.N,/ssd2*%
X130180000Y-89956000D03*
D14*
%TO.P,Q2,2,B*%
%TO.N,Net-(Q2-B)*%
X132250000Y-91226000D03*
%TO.P,Q2,3,E*%
%TO.N,GNDREF*%
X130180000Y-92496000D03*
%TD*%
D21*
%TO.P,J8,1*%
%TO.N,GNDREF*%
X107200000Y-94917500D03*
D22*
%TO.P,J8,2*%
%TO.N,/serData1*%
X109740000Y-96187500D03*
%TO.P,J8,3*%
%TO.N,/serData2*%
X107200000Y-97457500D03*
%TO.P,J8,4*%
%TO.N,/serData3*%
X109740000Y-98727500D03*
%TO.P,J8,5*%
%TO.N,/serData4*%
X107200000Y-99997500D03*
%TO.P,J8,6*%
%TO.N,/Clk*%
X109740000Y-101267500D03*
%TO.P,J8,7*%
%TO.N,/Strobe*%
X107200000Y-102537500D03*
%TO.P,J8,8*%
%TO.N,GNDREF*%
X109740000Y-103807500D03*
%TD*%
D13*
%TO.P,Q4,1,C*%
%TO.N,/ssd4*%
X130180000Y-102504000D03*
D14*
%TO.P,Q4,2,B*%
%TO.N,Net-(Q4-B)*%
X132250000Y-103774000D03*
%TO.P,Q4,3,E*%
%TO.N,GNDREF*%
X130180000Y-105044000D03*
%TD*%
D12*
%TO.P,R9,1*%
%TO.N,Net-(Q3-B)*%
X125420000Y-97486000D03*
D20*
%TO.P,R9,2*%
%TO.N,/serData3*%
X115260000Y-97486000D03*
%TD*%
D12*
%TO.P,R1,1*%
%TO.N,/ssd1*%
X138760000Y-83726000D03*
D20*
%TO.P,R1,2*%
%TO.N,VCC*%
X148920000Y-83726000D03*
%TD*%
D12*
%TO.P,R2,1*%
%TO.N,/ssd2*%
X138760000Y-90006000D03*
D20*
%TO.P,R2,2*%
%TO.N,VCC*%
X148920000Y-90006000D03*
%TD*%
D10*
%TO.P,J4,0,PAD*%
%TO.N,GNDREF*%
X106990000Y-123689669D03*
X131990000Y-123689669D03*
D11*
%TO.P,J4,1,1*%
%TO.N,VCC*%
X113950000Y-122269669D03*
D12*
%TO.P,J4,2,2*%
%TO.N,GNDREF*%
X116720000Y-122269669D03*
%TO.P,J4,3,3*%
%TO.N,/sStrobe*%
X119490000Y-122269669D03*
%TO.P,J4,4,4*%
%TO.N,/ssd1*%
X122260000Y-122269669D03*
%TO.P,J4,5,5*%
%TO.N,/sClk*%
X125030000Y-122269669D03*
%TO.P,J4,6,6*%
%TO.N,GNDREF*%
X115335000Y-125109669D03*
%TO.P,J4,7,7*%
X118105000Y-125109669D03*
%TO.P,J4,8,8*%
%TO.N,VCC*%
X120875000Y-125109669D03*
%TO.P,J4,9,9*%
X123645000Y-125109669D03*
%TD*%
%TO.P,R8,1*%
%TO.N,Net-(Q2-B)*%
X125420000Y-91206000D03*
D20*
%TO.P,R8,2*%
%TO.N,/serData2*%
X115260000Y-91206000D03*
%TD*%
D12*
%TO.P,R4,1*%
%TO.N,/ssd4*%
X138760000Y-102566000D03*
D20*
%TO.P,R4,2*%
%TO.N,VCC*%
X148920000Y-102566000D03*
%TD*%
D13*
%TO.P,Q6,1,C*%
%TO.N,/sStrobe*%
X130180000Y-115052000D03*
D14*
%TO.P,Q6,2,B*%
%TO.N,Net-(Q6-B)*%
X132250000Y-116322000D03*
%TO.P,Q6,3,E*%
%TO.N,GNDREF*%
X130180000Y-117592000D03*
%TD*%
D12*
%TO.P,R10,1*%
%TO.N,Net-(Q4-B)*%
X125420000Y-103766000D03*
D20*
%TO.P,R10,2*%
%TO.N,/serData4*%
X115260000Y-103766000D03*
%TD*%
D12*
%TO.P,R12,1*%
%TO.N,Net-(Q6-B)*%
X125420000Y-116326000D03*
D20*
%TO.P,R12,2*%
%TO.N,/Strobe*%
X115260000Y-116326000D03*
%TD*%
D12*
%TO.P,R7,1*%
%TO.N,Net-(Q1-B)*%
X125420000Y-84926000D03*
D20*
%TO.P,R7,2*%
%TO.N,/serData1*%
X115260000Y-84926000D03*
%TD*%
D10*
%TO.P,J5,0,PAD*%
%TO.N,GNDREF*%
X139090000Y-123689669D03*
X164090000Y-123689669D03*
D11*
%TO.P,J5,1,1*%
%TO.N,VCC*%
X146050000Y-122269669D03*
D12*
%TO.P,J5,2,2*%
%TO.N,GNDREF*%
X148820000Y-122269669D03*
%TO.P,J5,3,3*%
%TO.N,/sStrobe*%
X151590000Y-122269669D03*
%TO.P,J5,4,4*%
%TO.N,/ssd2*%
X154360000Y-122269669D03*
%TO.P,J5,5,5*%
%TO.N,/sClk*%
X157130000Y-122269669D03*
%TO.P,J5,6,6*%
%TO.N,GNDREF*%
X147435000Y-125109669D03*
%TO.P,J5,7,7*%
X150205000Y-125109669D03*
%TO.P,J5,8,8*%
%TO.N,VCC*%
X152975000Y-125109669D03*
%TO.P,J5,9,9*%
X155745000Y-125109669D03*
%TD*%
%TO.P,R6,1*%
%TO.N,/sStrobe*%
X138760000Y-115126000D03*
D20*
%TO.P,R6,2*%
%TO.N,VCC*%
X148920000Y-115126000D03*
%TD*%
D12*
%TO.P,R5,1*%
%TO.N,/sClk*%
X138760000Y-108846000D03*
D20*
%TO.P,R5,2*%
%TO.N,VCC*%
X148920000Y-108846000D03*
%TD*%
D12*
%TO.P,R11,1*%
%TO.N,Net-(Q5-B)*%
X125420000Y-110046000D03*
D20*
%TO.P,R11,2*%
%TO.N,/Clk*%
X115260000Y-110046000D03*
%TD*%
D13*
%TO.P,Q3,1,C*%
%TO.N,/ssd3*%
X130180000Y-96230000D03*
D14*
%TO.P,Q3,2,B*%
%TO.N,Net-(Q3-B)*%
X132250000Y-97500000D03*
%TO.P,Q3,3,E*%
%TO.N,GNDREF*%
X130180000Y-98770000D03*
%TD*%
D23*
%TO.N,GNDREF*%
X162400000Y-87800000D03*
X122280000Y-100720000D03*
%TO.N,/sStrobe*%
X151600000Y-119000000D03*
X152400000Y-82300000D03*
X119500000Y-88100000D03*
%TO.N,/ssd1*%
X124600000Y-119900000D03*
X127700000Y-80600000D03*
%TO.N,/sClk*%
X156400000Y-118400000D03*
X141200000Y-86800000D03*
X144400000Y-111900000D03*
X115800000Y-81900000D03*
%TO.N,/ssd2*%
X154000000Y-118500000D03*
%TO.N,/ssd3*%
X118200000Y-81800000D03*
%TD*%
D24*
%TO.N,VCC*%
X148900000Y-97800000D02*
X148920000Y-97780000D01*
X118125000Y-75690331D02*
X120015331Y-73800000D01*
X148920000Y-115126000D02*
X154406323Y-115126000D01*
X126790165Y-76790165D02*
X125050000Y-78530331D01*
X157800000Y-74900000D02*
X156800000Y-73900000D01*
X152975000Y-125925000D02*
X151900000Y-127000000D01*
X157800000Y-76700000D02*
X157800000Y-74900000D01*
X118484669Y-127500000D02*
X120875000Y-125109669D01*
X155745000Y-125109669D02*
X152975000Y-125109669D01*
X148920000Y-83726000D02*
X150225000Y-82421000D01*
X147455000Y-75690331D02*
X146264669Y-74500000D01*
X159150000Y-98950000D02*
X159150000Y-100350000D01*
X144900000Y-123419669D02*
X146050000Y-122269669D01*
X156800000Y-73900000D02*
X151300000Y-73900000D01*
X154406323Y-115126000D02*
X156932323Y-112600000D01*
X126435331Y-127900000D02*
X152954669Y-127900000D01*
X114800000Y-127500000D02*
X118484669Y-127500000D01*
X148920000Y-102566000D02*
X148920000Y-96286000D01*
X124900000Y-73800000D02*
X126790165Y-75690165D01*
X151900000Y-127000000D02*
X146400000Y-127000000D01*
X144900000Y-125500000D02*
X144900000Y-123419669D01*
X146400000Y-127000000D02*
X144900000Y-125500000D01*
X148920000Y-97780000D02*
X148920000Y-96286000D01*
X120015331Y-73800000D02*
X124900000Y-73800000D01*
X151500000Y-100400000D02*
X148900000Y-97800000D01*
X120875000Y-125109669D02*
X123645000Y-125109669D01*
X150225000Y-82421000D02*
X150225000Y-75690331D01*
X148920000Y-108846000D02*
X148920000Y-115126000D01*
X159100000Y-100400000D02*
X151500000Y-100400000D01*
X146050000Y-117996000D02*
X148920000Y-115126000D01*
X148920000Y-90006000D02*
X148920000Y-96286000D01*
X159550000Y-100850000D02*
X159100000Y-100400000D01*
X157150000Y-78530331D02*
X157150000Y-77350000D01*
X129080330Y-74500000D02*
X126790165Y-76790165D01*
X157150000Y-77350000D02*
X157800000Y-76700000D01*
X150225000Y-74975000D02*
X150225000Y-75690331D01*
X113200000Y-125900000D02*
X114800000Y-127500000D01*
X126790165Y-75690165D02*
X126790165Y-76790165D01*
X150225000Y-75690331D02*
X147455000Y-75690331D01*
X123645000Y-125109669D02*
X126435331Y-127900000D01*
X115355000Y-75690331D02*
X118125000Y-75690331D01*
X148920000Y-102566000D02*
X148920000Y-108846000D01*
X113950000Y-122269669D02*
X113200000Y-123019669D01*
X146264669Y-74500000D02*
X129080330Y-74500000D01*
X146050000Y-122269669D02*
X146050000Y-117996000D01*
X113200000Y-123019669D02*
X113200000Y-125900000D01*
X148920000Y-83726000D02*
X148920000Y-90006000D01*
X151300000Y-73900000D02*
X150225000Y-74975000D01*
X152975000Y-125109669D02*
X152975000Y-125925000D01*
X152954669Y-127900000D02*
X155745000Y-125109669D01*
%TO.N,GNDREF*%
X115335000Y-125109669D02*
X118105000Y-125109669D01*
X130580000Y-117592000D02*
X130496489Y-117675511D01*
X124778170Y-99035511D02*
X122280000Y-96537341D01*
X109740000Y-103807500D02*
X111048500Y-105116000D01*
X127404000Y-86196000D02*
X130554000Y-86196000D01*
X127116000Y-105044000D02*
X122280000Y-109880000D01*
X162450000Y-96050000D02*
X165850000Y-99450000D01*
X127404000Y-86196000D02*
X127430000Y-86222000D01*
X162450000Y-87850000D02*
X162450000Y-96050000D01*
X116720000Y-120520000D02*
X116720000Y-122269669D01*
X149900000Y-116400000D02*
X148820000Y-117480000D01*
X122280000Y-102393076D02*
X122280000Y-100720000D01*
X130314489Y-99035511D02*
X124778170Y-99035511D01*
X130502489Y-111395511D02*
X127604489Y-111395511D01*
X124100000Y-87200000D02*
X122280000Y-85380000D01*
X122280000Y-78530331D02*
X122280000Y-77075331D01*
X154607665Y-76847666D02*
X154152334Y-76847666D01*
X122280000Y-85380000D02*
X122280000Y-85220000D01*
X130496489Y-117675511D02*
X123875511Y-117675511D01*
X130320489Y-92755511D02*
X130580000Y-92496000D01*
X154380000Y-78530331D02*
X154380000Y-79780000D01*
X165850000Y-99450000D02*
X165850000Y-100850000D01*
D25*
X117696000Y-96136000D02*
X113664000Y-96136000D01*
X122280000Y-100720000D02*
X117696000Y-96136000D01*
D24*
X122280000Y-108673076D02*
X122280000Y-101720000D01*
X130580000Y-111318000D02*
X130502489Y-111395511D01*
X154380000Y-79780000D02*
X162400000Y-87800000D01*
X122280000Y-90920000D02*
X124115511Y-92755511D01*
X122280000Y-77075331D02*
X122627665Y-76727665D01*
X127404000Y-86196000D02*
X126400000Y-87200000D01*
X120895000Y-75690331D02*
X121932334Y-76727665D01*
X116720000Y-123724669D02*
X115335000Y-125109669D01*
X116720000Y-122269669D02*
X116720000Y-120040000D01*
X122627665Y-76727665D02*
X123665000Y-75690331D01*
D25*
X109212500Y-97412500D02*
X107200000Y-95400000D01*
D24*
X130580000Y-98770000D02*
X130314489Y-99035511D01*
X127604489Y-111395511D02*
X124320000Y-114680000D01*
D25*
X107200000Y-95400000D02*
X107200000Y-94917500D01*
D24*
X121932334Y-76727665D02*
X122627665Y-76727665D01*
X122280000Y-85220000D02*
X122280000Y-78530331D01*
X122080000Y-114680000D02*
X122280000Y-114480000D01*
D25*
X113664000Y-96136000D02*
X112387500Y-97412500D01*
D24*
X122280000Y-114480000D02*
X122280000Y-109880000D01*
X148820000Y-117480000D02*
X148820000Y-122269669D01*
X154152334Y-76847666D02*
X152995000Y-75690331D01*
X148820000Y-122269669D02*
X148820000Y-123724669D01*
X116720000Y-122269669D02*
X116720000Y-123724669D01*
X148820000Y-123724669D02*
X147435000Y-125109669D01*
X154380000Y-77075331D02*
X154152334Y-76847666D01*
X122280000Y-95980000D02*
X122280000Y-90920000D01*
X122280000Y-90920000D02*
X122280000Y-85220000D01*
X126400000Y-87200000D02*
X124100000Y-87200000D01*
X154380000Y-78530331D02*
X154380000Y-77075331D01*
X122280000Y-116080000D02*
X122280000Y-114480000D01*
X122280000Y-96537341D02*
X122280000Y-95980000D01*
X116720000Y-120040000D02*
X122080000Y-114680000D01*
X155765000Y-75690331D02*
X154607665Y-76847666D01*
X130580000Y-105044000D02*
X127116000Y-105044000D01*
X158132323Y-116400000D02*
X149900000Y-116400000D01*
X111048500Y-105116000D02*
X112516000Y-105116000D01*
X161932323Y-112600000D02*
X158132323Y-116400000D01*
X124320000Y-114680000D02*
X122080000Y-114680000D01*
X122280000Y-109880000D02*
X122280000Y-107980000D01*
D25*
X112387500Y-97412500D02*
X109212500Y-97412500D01*
D24*
X148820000Y-123724669D02*
X150205000Y-125109669D01*
X123875511Y-117675511D02*
X122280000Y-116080000D01*
X124115511Y-92755511D02*
X130320489Y-92755511D01*
X165850000Y-100850000D02*
X165850000Y-108682323D01*
X165850000Y-108682323D02*
X161932323Y-112600000D01*
X122280000Y-100720000D02*
X122280000Y-95980000D01*
X112516000Y-105116000D02*
X122080000Y-114680000D01*
X162400000Y-87800000D02*
X162450000Y-87850000D01*
%TO.N,/serData1*%
X115260000Y-84926000D02*
X115226000Y-84960000D01*
X115260000Y-84926000D02*
X117100000Y-86766000D01*
X117100000Y-86766000D02*
X117100000Y-92200000D01*
X117100000Y-92200000D02*
X114700000Y-94600000D01*
X111327500Y-94600000D02*
X109740000Y-96187500D01*
X114700000Y-94600000D02*
X111327500Y-94600000D01*
%TO.N,/serData2*%
X115260000Y-91206000D02*
X108311500Y-91206000D01*
X105900000Y-96157500D02*
X107200000Y-97457500D01*
X108311500Y-91206000D02*
X105900000Y-93617500D01*
X105900000Y-93617500D02*
X105900000Y-96157500D01*
%TO.N,/serData3*%
X115260000Y-97640000D02*
X114172500Y-98727500D01*
X114172500Y-98727500D02*
X109740000Y-98727500D01*
X115260000Y-97486000D02*
X115260000Y-97640000D01*
D25*
%TO.N,/serData4*%
X113997500Y-99997500D02*
X107200000Y-99997500D01*
X115260000Y-101260000D02*
X113997500Y-99997500D01*
X115260000Y-103766000D02*
X115260000Y-101260000D01*
D24*
%TO.N,/Clk*%
X108440000Y-102960000D02*
X109740000Y-101660000D01*
X114128630Y-110046000D02*
X108440000Y-104357370D01*
X109740000Y-101660000D02*
X109740000Y-101267500D01*
X115260000Y-110046000D02*
X114128630Y-110046000D01*
X108440000Y-104357370D02*
X108440000Y-102960000D01*
%TO.N,/Strobe*%
X107200000Y-108266000D02*
X107200000Y-102537500D01*
X115260000Y-116326000D02*
X107200000Y-108266000D01*
%TO.N,/sStrobe*%
X151590000Y-119010000D02*
X151590000Y-122269669D01*
X138660000Y-115026000D02*
X138760000Y-115126000D01*
X119510000Y-88090000D02*
X119510000Y-78530331D01*
X119500000Y-88100000D02*
X119510000Y-88090000D01*
X130654000Y-115126000D02*
X138760000Y-115126000D01*
X119490000Y-122269669D02*
X123059669Y-118700000D01*
X151610000Y-78530331D02*
X151610000Y-81510000D01*
X123059669Y-118700000D02*
X135186000Y-118700000D01*
X130580000Y-115052000D02*
X130654000Y-115126000D01*
X135186000Y-118700000D02*
X138760000Y-115126000D01*
X151610000Y-81510000D02*
X152400000Y-82300000D01*
X151600000Y-119000000D02*
X151590000Y-119010000D01*
%TO.N,/ssd1*%
X127700000Y-80802000D02*
X130580000Y-83682000D01*
X138760000Y-83726000D02*
X134926000Y-83726000D01*
X127700000Y-80600000D02*
X127700000Y-80802000D01*
X134926000Y-83726000D02*
X134000000Y-82800000D01*
X134000000Y-82800000D02*
X131462000Y-82800000D01*
X122260000Y-122240000D02*
X124600000Y-119900000D01*
X122260000Y-122269669D02*
X122260000Y-122240000D01*
X131462000Y-82800000D02*
X130580000Y-83682000D01*
X138690000Y-83656000D02*
X138760000Y-83726000D01*
%TO.N,/sClk*%
X140700000Y-110786000D02*
X139357000Y-109443000D01*
X127199669Y-120100000D02*
X137100000Y-120100000D01*
X156400000Y-118400000D02*
X157130000Y-119130000D01*
X113970000Y-78530331D02*
X113970000Y-80070000D01*
X140700000Y-116500000D02*
X140700000Y-110786000D01*
X125030000Y-122269669D02*
X127199669Y-120100000D01*
X141814000Y-111900000D02*
X139357000Y-109443000D01*
X139357000Y-109443000D02*
X138760000Y-108846000D01*
X157130000Y-119130000D02*
X157130000Y-122269669D01*
X130648000Y-108846000D02*
X138760000Y-108846000D01*
X137100000Y-120100000D02*
X140700000Y-116500000D01*
X138666000Y-108752000D02*
X138760000Y-108846000D01*
X113970000Y-80070000D02*
X115800000Y-81900000D01*
X144400000Y-111900000D02*
X141814000Y-111900000D01*
X141200000Y-83400331D02*
X141200000Y-86800000D01*
X146070000Y-78530331D02*
X141200000Y-83400331D01*
X130580000Y-108778000D02*
X130648000Y-108846000D01*
%TO.N,/ssd2*%
X131329999Y-89206001D02*
X130580000Y-89956000D01*
X137960001Y-89206001D02*
X131329999Y-89206001D01*
X154000000Y-118500000D02*
X154360000Y-118860000D01*
X154360000Y-118860000D02*
X154360000Y-122269669D01*
X138760000Y-90006000D02*
X137960001Y-89206001D01*
%TO.N,/ssd3*%
X116740000Y-78530331D02*
X116740000Y-80340000D01*
X116740000Y-80340000D02*
X118200000Y-81800000D01*
X138760000Y-96286000D02*
X137960001Y-95486001D01*
X131323999Y-95486001D02*
X130580000Y-96230000D01*
X137960001Y-95486001D02*
X131323999Y-95486001D01*
%TO.N,/ssd4*%
X138672000Y-102478000D02*
X138760000Y-102566000D01*
X130642000Y-102566000D02*
X138760000Y-102566000D01*
X130580000Y-102504000D02*
X130642000Y-102566000D01*
X148840000Y-78530331D02*
X144300000Y-83070331D01*
X142634000Y-102566000D02*
X138760000Y-102566000D01*
X144300000Y-83070331D02*
X144300000Y-100900000D01*
X144300000Y-100900000D02*
X142634000Y-102566000D01*
%TO.N,Net-(Q1-B)*%
X125420000Y-84926000D02*
X131940000Y-84926000D01*
%TO.N,Net-(Q2-B)*%
X125426000Y-91200000D02*
X125420000Y-91206000D01*
X131830000Y-91206000D02*
X131850000Y-91226000D01*
X125420000Y-91206000D02*
X131830000Y-91206000D01*
%TO.N,Net-(Q3-B)*%
X125432000Y-97474000D02*
X125420000Y-97486000D01*
X125420000Y-97486000D02*
X131836000Y-97486000D01*
X131836000Y-97486000D02*
X131850000Y-97500000D01*
%TO.N,Net-(Q4-B)*%
X125438000Y-103748000D02*
X125420000Y-103766000D01*
X125420000Y-103766000D02*
X131842000Y-103766000D01*
X131842000Y-103766000D02*
X131850000Y-103774000D01*
%TO.N,Net-(Q5-B)*%
X131850000Y-110048000D02*
X131848000Y-110046000D01*
X125444000Y-110022000D02*
X125420000Y-110046000D01*
X131848000Y-110046000D02*
X125420000Y-110046000D01*
%TO.N,Net-(Q6-B)*%
X131850000Y-116322000D02*
X131846000Y-116326000D01*
X131910000Y-116326000D02*
X131940000Y-116296000D01*
X131846000Y-116326000D02*
X125420000Y-116326000D01*
%TD*%
%TA.AperFunction,Conductor*%
%TO.N,GNDREF*%
G36*
X117639075Y-125302662D02*
G01*
X117704901Y-125416676D01*
X117797993Y-125509768D01*
X117912007Y-125575594D01*
X117980051Y-125593826D01*
X117377110Y-126196767D01*
X117377110Y-126196769D01*
X117448498Y-126246755D01*
X117655926Y-126343480D01*
X117655931Y-126343482D01*
X117876999Y-126402717D01*
X117876995Y-126402717D01*
X118105004Y-126422664D01*
X118181303Y-126415989D01*
X118250908Y-126429977D01*
X118301901Y-126479376D01*
X118318092Y-126548501D01*
X118294340Y-126615407D01*
X118281383Y-126630603D01*
X118207394Y-126704594D01*
X118145082Y-126738620D01*
X118118297Y-126741500D01*
X115166371Y-126741500D01*
X115098250Y-126721498D01*
X115077276Y-126704595D01*
X114986532Y-126613851D01*
X114952506Y-126551539D01*
X114957571Y-126480724D01*
X115000118Y-126423888D01*
X115066638Y-126399077D01*
X115101464Y-126402405D01*
X115101578Y-126401762D01*
X115106995Y-126402717D01*
X115335000Y-126422664D01*
X115563002Y-126402717D01*
X115784068Y-126343482D01*
X115784073Y-126343480D01*
X115991497Y-126246757D01*
X116062888Y-126196768D01*
X116062888Y-126196767D01*
X115459947Y-125593827D01*
X115527993Y-125575594D01*
X115642007Y-125509768D01*
X115735099Y-125416676D01*
X115800925Y-125302662D01*
X115819157Y-125234617D01*
X116422097Y-125837557D01*
X116422099Y-125837557D01*
X116472088Y-125766166D01*
X116568811Y-125558742D01*
X116568813Y-125558737D01*
X116598293Y-125448719D01*
X116635245Y-125388096D01*
X116699105Y-125357075D01*
X116769600Y-125365503D01*
X116824347Y-125410706D01*
X116841707Y-125448719D01*
X116871186Y-125558737D01*
X116871188Y-125558742D01*
X116967913Y-125766170D01*
X117017899Y-125837557D01*
X117620841Y-125234615D01*
X117639075Y-125302662D01*
G37*
%TD.AperFunction*%
%TA.AperFunction,Conductor*%
G36*
X149739075Y-125302662D02*
G01*
X149804901Y-125416676D01*
X149897993Y-125509768D01*
X150012007Y-125575594D01*
X150080051Y-125593826D01*
X149469282Y-126204596D01*
X149406970Y-126238621D01*
X149380187Y-126241500D01*
X148259812Y-126241500D01*
X148191691Y-126221498D01*
X148170717Y-126204596D01*
X147559947Y-125593827D01*
X147627993Y-125575594D01*
X147742007Y-125509768D01*
X147835099Y-125416676D01*
X147900925Y-125302662D01*
X147919157Y-125234617D01*
X148522097Y-125837557D01*
X148522099Y-125837557D01*
X148572088Y-125766166D01*
X148668811Y-125558742D01*
X148668813Y-125558737D01*
X148698293Y-125448719D01*
X148735245Y-125388096D01*
X148799105Y-125357075D01*
X148869600Y-125365503D01*
X148924347Y-125410706D01*
X148941707Y-125448719D01*
X148971186Y-125558737D01*
X148971188Y-125558742D01*
X149067913Y-125766170D01*
X149117899Y-125837557D01*
X149720841Y-125234615D01*
X149739075Y-125302662D01*
G37*
%TD.AperFunction*%
%TA.AperFunction,Conductor*%
G36*
X151292097Y-125837557D02*
G01*
X151292099Y-125837557D01*
X151342088Y-125766166D01*
X151438811Y-125558742D01*
X151438813Y-125558738D01*
X151468034Y-125449683D01*
X151504985Y-125389061D01*
X151568846Y-125358039D01*
X151639340Y-125366467D01*
X151694087Y-125411670D01*
X151711448Y-125449683D01*
X151740715Y-125558909D01*
X151740717Y-125558915D01*
X151837474Y-125766413D01*
X151837476Y-125766415D01*
X151837477Y-125766418D01*
X151868849Y-125811221D01*
X151891536Y-125878495D01*
X151874251Y-125947355D01*
X151854731Y-125972586D01*
X151622724Y-126204595D01*
X151560412Y-126238620D01*
X151533628Y-126241500D01*
X151029812Y-126241500D01*
X150961691Y-126221498D01*
X150940717Y-126204595D01*
X150329948Y-125593826D01*
X150397993Y-125575594D01*
X150512007Y-125509768D01*
X150605099Y-125416676D01*
X150670925Y-125302662D01*
X150689157Y-125234617D01*
X151292097Y-125837557D01*
G37*
%TD.AperFunction*%
%TA.AperFunction,Conductor*%
G36*
X136692750Y-115904502D02*
G01*
X136739243Y-115958158D01*
X136749347Y-116028432D01*
X136719853Y-116093012D01*
X136713724Y-116099595D01*
X134908724Y-117904595D01*
X134846412Y-117938621D01*
X134819629Y-117941500D01*
X131714000Y-117941500D01*
X131645879Y-117921498D01*
X131599386Y-117867842D01*
X131596478Y-117854477D01*
X131588001Y-117846000D01*
X130856330Y-117846000D01*
X130880075Y-117822255D01*
X130929444Y-117736745D01*
X130955000Y-117641370D01*
X130955000Y-117542630D01*
X130929444Y-117447255D01*
X130880075Y-117361745D01*
X130856330Y-117338000D01*
X131349012Y-117338000D01*
X131390626Y-117345070D01*
X131449552Y-117365690D01*
X131580996Y-117380500D01*
X132919004Y-117380500D01*
X133050448Y-117365690D01*
X133217099Y-117307376D01*
X133366596Y-117213441D01*
X133491441Y-117088596D01*
X133585376Y-116939099D01*
X133643690Y-116772448D01*
X133658500Y-116641004D01*
X133658500Y-116010500D01*
X133678502Y-115942379D01*
X133732158Y-115895886D01*
X133784500Y-115884500D01*
X136624629Y-115884500D01*
X136692750Y-115904502D01*
G37*
%TD.AperFunction*%
%TA.AperFunction,Conductor*%
G36*
X155299075Y-75883324D02*
G01*
X155364901Y-75997338D01*
X155457993Y-76090430D01*
X155572007Y-76156256D01*
X155640050Y-76174488D01*
X155037110Y-76777428D01*
X155037110Y-76777431D01*
X155108498Y-76827417D01*
X155315926Y-76924142D01*
X155315931Y-76924144D01*
X155536999Y-76983379D01*
X155536995Y-76983379D01*
X155765000Y-77003326D01*
X155993002Y-76983379D01*
X156214068Y-76924144D01*
X156214078Y-76924140D01*
X156281489Y-76892706D01*
X156351680Y-76882044D01*
X156416493Y-76911023D01*
X156455350Y-76970442D01*
X156455914Y-77041437D01*
X156451149Y-77055117D01*
X156420649Y-77128750D01*
X156419544Y-77132397D01*
X156418444Y-77134075D01*
X156418280Y-77134472D01*
X156418204Y-77134440D01*
X156380634Y-77191781D01*
X156315795Y-77220702D01*
X156304716Y-77221445D01*
X156304728Y-77221651D01*
X156301350Y-77221831D01*
X156240803Y-77228340D01*
X156240795Y-77228342D01*
X156103797Y-77279441D01*
X156103792Y-77279443D01*
X155986738Y-77367069D01*
X155899112Y-77484123D01*
X155899110Y-77484128D01*
X155848011Y-77621126D01*
X155848009Y-77621134D01*
X155841500Y-77681681D01*
X155841500Y-78001186D01*
X155821498Y-78069307D01*
X155767842Y-78115800D01*
X155697568Y-78125904D01*
X155632988Y-78096410D01*
X155601305Y-78054436D01*
X155517086Y-77873829D01*
X155467100Y-77802441D01*
X155467098Y-77802441D01*
X154864157Y-78405382D01*
X154845925Y-78337338D01*
X154780099Y-78223324D01*
X154687007Y-78130232D01*
X154572993Y-78064406D01*
X154504947Y-78046172D01*
X155107888Y-77443230D01*
X155107888Y-77443229D01*
X155036501Y-77393244D01*
X154829073Y-77296519D01*
X154829068Y-77296517D01*
X154608000Y-77237282D01*
X154608004Y-77237282D01*
X154380000Y-77217335D01*
X154151997Y-77237282D01*
X153930931Y-77296517D01*
X153930926Y-77296519D01*
X153723500Y-77393244D01*
X153652109Y-77443231D01*
X154255051Y-78046173D01*
X154187007Y-78064406D01*
X154072993Y-78130232D01*
X153979901Y-78223324D01*
X153914075Y-78337338D01*
X153895842Y-78405382D01*
X153292900Y-77802440D01*
X153242913Y-77873831D01*
X153146188Y-78081257D01*
X153146183Y-78081270D01*
X153116964Y-78190317D01*
X153080013Y-78250939D01*
X153016152Y-78281961D01*
X152945657Y-78273532D01*
X152890911Y-78228328D01*
X152873552Y-78190320D01*
X152844284Y-78081088D01*
X152747523Y-77873582D01*
X152616198Y-77686031D01*
X152454300Y-77524133D01*
X152338757Y-77443229D01*
X152266749Y-77392808D01*
X152059246Y-77296048D01*
X152059240Y-77296046D01*
X151913571Y-77257014D01*
X151838087Y-77236788D01*
X151610000Y-77216833D01*
X151381913Y-77236788D01*
X151160759Y-77296046D01*
X151155587Y-77297929D01*
X151154993Y-77296299D01*
X151092536Y-77305775D01*
X151027728Y-77276783D01*
X150988883Y-77217356D01*
X150983500Y-77180922D01*
X150983500Y-76822198D01*
X151003502Y-76754077D01*
X151037228Y-76718985D01*
X151069300Y-76696529D01*
X151231198Y-76534631D01*
X151362523Y-76347080D01*
X151459284Y-76139574D01*
X151488552Y-76030341D01*
X151525502Y-75969723D01*
X151589363Y-75938701D01*
X151659857Y-75947129D01*
X151714604Y-75992331D01*
X151731965Y-76030344D01*
X151761187Y-76139402D01*
X151761188Y-76139404D01*
X151857913Y-76346832D01*
X151907898Y-76418219D01*
X151907900Y-76418219D01*
X152510841Y-75815277D01*
X152529075Y-75883324D01*
X152594901Y-75997338D01*
X152687993Y-76090430D01*
X152802007Y-76156256D01*
X152870051Y-76174488D01*
X152267110Y-76777429D01*
X152267110Y-76777431D01*
X152338498Y-76827417D01*
X152545926Y-76924142D01*
X152545931Y-76924144D01*
X152766999Y-76983379D01*
X152766995Y-76983379D01*
X152995000Y-77003326D01*
X153223002Y-76983379D01*
X153444068Y-76924144D01*
X153444073Y-76924142D01*
X153651497Y-76827419D01*
X153722888Y-76777430D01*
X153722888Y-76777428D01*
X153119948Y-76174488D01*
X153187993Y-76156256D01*
X153302007Y-76090430D01*
X153395099Y-75997338D01*
X153460925Y-75883324D01*
X153479157Y-75815279D01*
X154082097Y-76418219D01*
X154082099Y-76418219D01*
X154132088Y-76346828D01*
X154228811Y-76139404D01*
X154228813Y-76139399D01*
X154258293Y-76029381D01*
X154295245Y-75968758D01*
X154359105Y-75937737D01*
X154429600Y-75946165D01*
X154484347Y-75991368D01*
X154501707Y-76029381D01*
X154531186Y-76139399D01*
X154531188Y-76139404D01*
X154627913Y-76346832D01*
X154677898Y-76418219D01*
X154677900Y-76418219D01*
X155280841Y-75815277D01*
X155299075Y-75883324D01*
G37*
%TD.AperFunction*%
%TA.AperFunction,Conductor*%
G36*
X122908309Y-74578502D02*
G01*
X122929283Y-74595404D01*
X123540052Y-75206172D01*
X123472007Y-75224406D01*
X123357993Y-75290232D01*
X123264901Y-75383324D01*
X123199075Y-75497338D01*
X123180842Y-75565382D01*
X122577900Y-74962440D01*
X122527913Y-75033831D01*
X122431188Y-75241257D01*
X122431187Y-75241259D01*
X122401707Y-75351281D01*
X122364755Y-75411903D01*
X122300894Y-75442925D01*
X122230400Y-75434496D01*
X122175653Y-75389293D01*
X122158293Y-75351281D01*
X122128812Y-75241259D01*
X122128811Y-75241257D01*
X122032086Y-75033829D01*
X121982100Y-74962441D01*
X121982098Y-74962441D01*
X121379157Y-75565382D01*
X121360925Y-75497338D01*
X121295099Y-75383324D01*
X121202007Y-75290232D01*
X121087993Y-75224406D01*
X121019947Y-75206172D01*
X121630714Y-74595405D01*
X121693027Y-74561380D01*
X121719810Y-74558500D01*
X122840188Y-74558500D01*
X122908309Y-74578502D01*
G37*
%TD.AperFunction*%
%TA.AperFunction,Conductor*%
G36*
X108413183Y-96047345D02*
G01*
X108463385Y-96097547D01*
X108478477Y-96166921D01*
X108478319Y-96168912D01*
X108476693Y-96187500D01*
X108495885Y-96406871D01*
X108518093Y-96489751D01*
X108552879Y-96619573D01*
X108552881Y-96619579D01*
X108606816Y-96735243D01*
X108645944Y-96819154D01*
X108732487Y-96942749D01*
X108772251Y-96999538D01*
X108772254Y-96999542D01*
X108927957Y-97155245D01*
X108927961Y-97155248D01*
X108927962Y-97155249D01*
X109108346Y-97281556D01*
X109213219Y-97330458D01*
X109240768Y-97343305D01*
X109294053Y-97390222D01*
X109313514Y-97458499D01*
X109292972Y-97526459D01*
X109240768Y-97571695D01*
X109108346Y-97633444D01*
X108927965Y-97759748D01*
X108927959Y-97759753D01*
X108772253Y-97915459D01*
X108772248Y-97915465D01*
X108645944Y-98095846D01*
X108552881Y-98295420D01*
X108552879Y-98295426D01*
X108527152Y-98391441D01*
X108495885Y-98508129D01*
X108476693Y-98727500D01*
X108495885Y-98946871D01*
X108516552Y-99024000D01*
X108551758Y-99155389D01*
X108550068Y-99226365D01*
X108510274Y-99285161D01*
X108445010Y-99313109D01*
X108430051Y-99314000D01*
X108323343Y-99314000D01*
X108255222Y-99293998D01*
X108220131Y-99260272D01*
X108167749Y-99185462D01*
X108012038Y-99029751D01*
X107831654Y-98903444D01*
X107831648Y-98903441D01*
X107831648Y-98903440D01*
X107699232Y-98841695D01*
X107645946Y-98794778D01*
X107626485Y-98726501D01*
X107647026Y-98658541D01*
X107699232Y-98613305D01*
X107831648Y-98551559D01*
X107831648Y-98551558D01*
X107831654Y-98551556D01*
X108012038Y-98425249D01*
X108167749Y-98269538D01*
X108294056Y-98089154D01*
X108387120Y-97889576D01*
X108444115Y-97676871D01*
X108463307Y-97457500D01*
X108444115Y-97238129D01*
X108387120Y-97025424D01*
X108294056Y-96825847D01*
X108167749Y-96645462D01*
X108012038Y-96489751D01*
X108012037Y-96489750D01*
X108012036Y-96489749D01*
X108012033Y-96489747D01*
X107890592Y-96404713D01*
X107846263Y-96349256D01*
X107838954Y-96278637D01*
X107870984Y-96215276D01*
X107932186Y-96179291D01*
X107962862Y-96175500D01*
X107998585Y-96175500D01*
X107998597Y-96175499D01*
X108059093Y-96168994D01*
X108195963Y-96117945D01*
X108277288Y-96057065D01*
X108343808Y-96032254D01*
X108413183Y-96047345D01*
G37*
%TD.AperFunction*%
%TA.AperFunction,Conductor*%
G36*
X114196253Y-91984502D02*
G01*
X114231344Y-92018228D01*
X114245300Y-92038158D01*
X114253802Y-92050300D01*
X114415700Y-92212198D01*
X114603251Y-92343523D01*
X114810757Y-92440284D01*
X115031913Y-92499543D01*
X115260000Y-92519498D01*
X115405891Y-92506734D01*
X115475496Y-92520722D01*
X115526488Y-92570121D01*
X115542679Y-92639247D01*
X115518927Y-92706153D01*
X115505969Y-92721349D01*
X114422722Y-93804596D01*
X114360412Y-93838620D01*
X114333629Y-93841500D01*
X111252788Y-93841500D01*
X111179524Y-93856073D01*
X111179524Y-93856074D01*
X111106253Y-93870649D01*
X111106251Y-93870649D01*
X111106250Y-93870650D01*
X111106249Y-93870650D01*
X110968215Y-93927826D01*
X110843989Y-94010831D01*
X110843987Y-94010832D01*
X109956835Y-94897982D01*
X109894523Y-94932007D01*
X109856760Y-94934407D01*
X109740000Y-94924193D01*
X109520629Y-94943385D01*
X109307926Y-95000379D01*
X109307920Y-95000381D01*
X109108346Y-95093444D01*
X108927965Y-95219748D01*
X108927959Y-95219753D01*
X108772253Y-95375459D01*
X108772248Y-95375465D01*
X108687213Y-95496908D01*
X108631756Y-95541236D01*
X108561136Y-95548545D01*
X108497776Y-95516514D01*
X108461791Y-95455313D01*
X108458000Y-95424637D01*
X108458000Y-95171500D01*
X107483401Y-95171500D01*
X107504076Y-95150825D01*
X107554104Y-95064175D01*
X107580000Y-94967528D01*
X107580000Y-94867472D01*
X107554104Y-94770825D01*
X107504076Y-94684175D01*
X107483401Y-94663500D01*
X108458000Y-94663500D01*
X108458000Y-94118914D01*
X108457999Y-94118902D01*
X108451494Y-94058406D01*
X108400444Y-93921535D01*
X108400444Y-93921534D01*
X108312904Y-93804595D01*
X108195965Y-93717055D01*
X108059093Y-93666005D01*
X107998597Y-93659500D01*
X107454000Y-93659500D01*
X107454000Y-94634099D01*
X107433325Y-94613424D01*
X107346675Y-94563396D01*
X107250028Y-94537500D01*
X107149972Y-94537500D01*
X107053325Y-94563396D01*
X106966675Y-94613424D01*
X106946000Y-94634099D01*
X106946000Y-93696371D01*
X106966002Y-93628250D01*
X106982905Y-93607276D01*
X108588776Y-92001405D01*
X108651088Y-91967379D01*
X108677871Y-91964500D01*
X114128132Y-91964500D01*
X114196253Y-91984502D01*
G37*
%TD.AperFunction*%
%TA.AperFunction,Conductor*%
G36*
X173242301Y-65320002D02*
G01*
X173288794Y-65373658D01*
X173300180Y-65425820D01*
X173399819Y-135073820D01*
X173379914Y-135141969D01*
X173326325Y-135188539D01*
X173273819Y-135200000D01*
X92826000Y-135200000D01*
X92757879Y-135179998D01*
X92711386Y-135126342D01*
X92700000Y-135074000D01*
X92700000Y-123689662D01*
X104477041Y-123689662D01*
X104477041Y-123689675D01*
X104496854Y-124004613D01*
X104496856Y-124004630D01*
X104555989Y-124314611D01*
X104555992Y-124314624D01*
X104653509Y-124614748D01*
X104653513Y-124614757D01*
X104787875Y-124900291D01*
X104787882Y-124900305D01*
X104956969Y-125166744D01*
X104956971Y-125166747D01*
X105046042Y-125274415D01*
X105693367Y-124627090D01*
X105769588Y-124731999D01*
X105947670Y-124910081D01*
X106052576Y-124986300D01*
X105402522Y-125636355D01*
X105402522Y-125636357D01*
X105643482Y-125811425D01*
X105920034Y-125963461D01*
X106213460Y-126079637D01*
X106213466Y-126079639D01*
X106519103Y-126158113D01*
X106519130Y-126158118D01*
X106832195Y-126197667D01*
X106832214Y-126197669D01*
X107147786Y-126197669D01*
X107147804Y-126197667D01*
X107460869Y-126158118D01*
X107460896Y-126158113D01*
X107766533Y-126079639D01*
X107766539Y-126079637D01*
X108059965Y-125963461D01*
X108336512Y-125811428D01*
X108577476Y-125636357D01*
X108577476Y-125636355D01*
X107927422Y-124986300D01*
X108032330Y-124910081D01*
X108210412Y-124731999D01*
X108286632Y-124627091D01*
X108933956Y-125274415D01*
X109023030Y-125166744D01*
X109023033Y-125166740D01*
X109192117Y-124900305D01*
X109192124Y-124900291D01*
X109326486Y-124614757D01*
X109326490Y-124614748D01*
X109424007Y-124314624D01*
X109424010Y-124314611D01*
X109483143Y-124004630D01*
X109483145Y-124004613D01*
X109502959Y-123689675D01*
X109502959Y-123689662D01*
X109483145Y-123374724D01*
X109483143Y-123374707D01*
X109424010Y-123064726D01*
X109424007Y-123064713D01*
X109385096Y-122944957D01*
X112441500Y-122944957D01*
X112441500Y-122944963D01*
X112441500Y-125974706D01*
X112446473Y-125999705D01*
X112470649Y-126121247D01*
X112527826Y-126259284D01*
X112610834Y-126383515D01*
X112610838Y-126383519D01*
X114316477Y-128089159D01*
X114316481Y-128089162D01*
X114316485Y-128089166D01*
X114364498Y-128121247D01*
X114440716Y-128172174D01*
X114578754Y-128229351D01*
X114725294Y-128258500D01*
X118559370Y-128258500D01*
X118559374Y-128258500D01*
X118559375Y-128258500D01*
X118632645Y-128243925D01*
X118705916Y-128229351D01*
X118843953Y-128172174D01*
X118968184Y-128089166D01*
X120612012Y-126445336D01*
X120674321Y-126411314D01*
X120712081Y-126408913D01*
X120875000Y-126423167D01*
X121103087Y-126403212D01*
X121324243Y-126343953D01*
X121531749Y-126247192D01*
X121719300Y-126115867D01*
X121881198Y-125953969D01*
X121892618Y-125937659D01*
X121903656Y-125921897D01*
X121959113Y-125877569D01*
X122006868Y-125868169D01*
X122513132Y-125868169D01*
X122581253Y-125888171D01*
X122616344Y-125921897D01*
X122634171Y-125947355D01*
X122638802Y-125953969D01*
X122800700Y-126115867D01*
X122988251Y-126247192D01*
X123195757Y-126343953D01*
X123416913Y-126403212D01*
X123645000Y-126423167D01*
X123780479Y-126411314D01*
X123807912Y-126408914D01*
X123877517Y-126422902D01*
X123907989Y-126445339D01*
X125951816Y-128489166D01*
X126076047Y-128572174D01*
X126214084Y-128629351D01*
X126287353Y-128643924D01*
X126287354Y-128643925D01*
X126301929Y-128646824D01*
X126360625Y-128658500D01*
X126360626Y-128658500D01*
X126360630Y-128658500D01*
X153029370Y-128658500D01*
X153029374Y-128658500D01*
X153029375Y-128658500D01*
X153102645Y-128643925D01*
X153175916Y-128629351D01*
X153313953Y-128572174D01*
X153438184Y-128489166D01*
X155482011Y-126445337D01*
X155544321Y-126411314D01*
X155582081Y-126408913D01*
X155745000Y-126423167D01*
X155973087Y-126403212D01*
X156194243Y-126343953D01*
X156401749Y-126247192D01*
X156589300Y-126115867D01*
X156751198Y-125953969D01*
X156882523Y-125766418D01*
X156979284Y-125558912D01*
X157038543Y-125337756D01*
X157058498Y-125109669D01*
X157038543Y-124881582D01*
X156979284Y-124660426D01*
X156882523Y-124452920D01*
X156751198Y-124265369D01*
X156589300Y-124103471D01*
X156473757Y-124022567D01*
X156401749Y-123972146D01*
X156194246Y-123875386D01*
X156194240Y-123875384D01*
X156100771Y-123850339D01*
X155973087Y-123816126D01*
X155745000Y-123796171D01*
X155516913Y-123816126D01*
X155295759Y-123875384D01*
X155295753Y-123875386D01*
X155088250Y-123972146D01*
X154900703Y-124103468D01*
X154900697Y-124103473D01*
X154738804Y-124265366D01*
X154738797Y-124265375D01*
X154716344Y-124297441D01*
X154660887Y-124341769D01*
X154613132Y-124351169D01*
X154106868Y-124351169D01*
X154038747Y-124331167D01*
X154003656Y-124297441D01*
X153981202Y-124265375D01*
X153981200Y-124265372D01*
X153981198Y-124265369D01*
X153819300Y-124103471D01*
X153703757Y-124022567D01*
X153631749Y-123972146D01*
X153424246Y-123875386D01*
X153424240Y-123875384D01*
X153330771Y-123850339D01*
X153203087Y-123816126D01*
X152975000Y-123796171D01*
X152746913Y-123816126D01*
X152525759Y-123875384D01*
X152525753Y-123875386D01*
X152318250Y-123972146D01*
X152130703Y-124103468D01*
X152130697Y-124103473D01*
X151968804Y-124265366D01*
X151968799Y-124265372D01*
X151837477Y-124452919D01*
X151740717Y-124660422D01*
X151740716Y-124660425D01*
X151711448Y-124769655D01*
X151674496Y-124830277D01*
X151610635Y-124861299D01*
X151540141Y-124852870D01*
X151485394Y-124807666D01*
X151468034Y-124769654D01*
X151438813Y-124660599D01*
X151438811Y-124660595D01*
X151342086Y-124453167D01*
X151292100Y-124381779D01*
X151292098Y-124381779D01*
X150689157Y-124984720D01*
X150670925Y-124916676D01*
X150605099Y-124802662D01*
X150512007Y-124709570D01*
X150397993Y-124643744D01*
X150329947Y-124625510D01*
X150932888Y-124022568D01*
X150932888Y-124022567D01*
X150861501Y-123972582D01*
X150654073Y-123875857D01*
X150654068Y-123875855D01*
X150433000Y-123816620D01*
X150433004Y-123816620D01*
X150205000Y-123796673D01*
X149976997Y-123816620D01*
X149755931Y-123875855D01*
X149755926Y-123875857D01*
X149548500Y-123972582D01*
X149477109Y-124022569D01*
X150080051Y-124625511D01*
X150012007Y-124643744D01*
X149897993Y-124709570D01*
X149804901Y-124802662D01*
X149739075Y-124916676D01*
X149720842Y-124984720D01*
X149117900Y-124381778D01*
X149067913Y-124453169D01*
X148971188Y-124660595D01*
X148971187Y-124660597D01*
X148941707Y-124770619D01*
X148904755Y-124831241D01*
X148840894Y-124862263D01*
X148770400Y-124853834D01*
X148715653Y-124808631D01*
X148698293Y-124770619D01*
X148668812Y-124660597D01*
X148668811Y-124660595D01*
X148572086Y-124453167D01*
X148522100Y-124381779D01*
X148522098Y-124381779D01*
X147919157Y-124984720D01*
X147900925Y-124916676D01*
X147835099Y-124802662D01*
X147742007Y-124709570D01*
X147627993Y-124643744D01*
X147559947Y-124625510D01*
X148162888Y-124022568D01*
X148162888Y-124022567D01*
X148091501Y-123972582D01*
X147884073Y-123875857D01*
X147884068Y-123875855D01*
X147663000Y-123816620D01*
X147663004Y-123816620D01*
X147435000Y-123796673D01*
X147206997Y-123816620D01*
X146985931Y-123875855D01*
X146985926Y-123875857D01*
X146778500Y-123972582D01*
X146707109Y-124022569D01*
X147310051Y-124625511D01*
X147242007Y-124643744D01*
X147127993Y-124709570D01*
X147034901Y-124802662D01*
X146969075Y-124916676D01*
X146950842Y-124984720D01*
X146347900Y-124381778D01*
X146297913Y-124453169D01*
X146201188Y-124660595D01*
X146201186Y-124660600D01*
X146141951Y-124881666D01*
X146122004Y-125109669D01*
X146141951Y-125337673D01*
X146142907Y-125343091D01*
X146141455Y-125343346D01*
X146139928Y-125407411D01*
X146100131Y-125466205D01*
X146034866Y-125494150D01*
X145964853Y-125482375D01*
X145930817Y-125458136D01*
X145695405Y-125222724D01*
X145661379Y-125160412D01*
X145658500Y-125133629D01*
X145658500Y-123786040D01*
X145678502Y-123717919D01*
X145695405Y-123696945D01*
X145702688Y-123689662D01*
X161577041Y-123689662D01*
X161577041Y-123689675D01*
X161596854Y-124004613D01*
X161596856Y-124004630D01*
X161655989Y-124314611D01*
X161655992Y-124314624D01*
X161753509Y-124614748D01*
X161753513Y-124614757D01*
X161887875Y-124900291D01*
X161887882Y-124900305D01*
X162056969Y-125166744D01*
X162056971Y-125166747D01*
X162146042Y-125274415D01*
X162793367Y-124627090D01*
X162869588Y-124731999D01*
X163047670Y-124910081D01*
X163152576Y-124986300D01*
X162502522Y-125636355D01*
X162502522Y-125636357D01*
X162743482Y-125811425D01*
X163020034Y-125963461D01*
X163313460Y-126079637D01*
X163313466Y-126079639D01*
X163619103Y-126158113D01*
X163619130Y-126158118D01*
X163932195Y-126197667D01*
X163932214Y-126197669D01*
X164247786Y-126197669D01*
X164247804Y-126197667D01*
X164560869Y-126158118D01*
X164560896Y-126158113D01*
X164866533Y-126079639D01*
X164866539Y-126079637D01*
X165159965Y-125963461D01*
X165436512Y-125811428D01*
X165677476Y-125636357D01*
X165677476Y-125636355D01*
X165027422Y-124986300D01*
X165132330Y-124910081D01*
X165310412Y-124731999D01*
X165386632Y-124627091D01*
X166033956Y-125274415D01*
X166123030Y-125166744D01*
X166123033Y-125166740D01*
X166292117Y-124900305D01*
X166292124Y-124900291D01*
X166426486Y-124614757D01*
X166426490Y-124614748D01*
X166524007Y-124314624D01*
X166524010Y-124314611D01*
X166583143Y-124004630D01*
X166583145Y-124004613D01*
X166602959Y-123689675D01*
X166602959Y-123689662D01*
X166583145Y-123374724D01*
X166583143Y-123374707D01*
X166524010Y-123064726D01*
X166524007Y-123064713D01*
X166426490Y-122764589D01*
X166426486Y-122764580D01*
X166292124Y-122479046D01*
X166292117Y-122479032D01*
X166123030Y-122212593D01*
X166123028Y-122212590D01*
X166033956Y-122104921D01*
X165386631Y-122752245D01*
X165310412Y-122647339D01*
X165132330Y-122469257D01*
X165027421Y-122393036D01*
X165677476Y-121742981D01*
X165677476Y-121742979D01*
X165436513Y-121567909D01*
X165159965Y-121415876D01*
X164866539Y-121299700D01*
X164866533Y-121299698D01*
X164560896Y-121221224D01*
X164560869Y-121221219D01*
X164247804Y-121181670D01*
X164247786Y-121181669D01*
X163932214Y-121181669D01*
X163932195Y-121181670D01*
X163619130Y-121221219D01*
X163619103Y-121221224D01*
X163313466Y-121299698D01*
X163313460Y-121299700D01*
X163020034Y-121415876D01*
X162743486Y-121567909D01*
X162502522Y-121742979D01*
X162502522Y-121742981D01*
X163152577Y-122393036D01*
X163047670Y-122469257D01*
X162869588Y-122647339D01*
X162793367Y-122752246D01*
X162146042Y-122104921D01*
X162056972Y-122212590D01*
X162056969Y-122212593D01*
X161887882Y-122479032D01*
X161887875Y-122479046D01*
X161753513Y-122764580D01*
X161753509Y-122764589D01*
X161655992Y-123064713D01*
X161655989Y-123064726D01*
X161596856Y-123374707D01*
X161596854Y-123374724D01*
X161577041Y-123689662D01*
X145702688Y-123689662D01*
X145777276Y-123615074D01*
X145839588Y-123581048D01*
X145866371Y-123578169D01*
X146898632Y-123578169D01*
X146898638Y-123578169D01*
X146898645Y-123578168D01*
X146898649Y-123578168D01*
X146959196Y-123571659D01*
X146959199Y-123571658D01*
X146959201Y-123571658D01*
X147096204Y-123520558D01*
X147118389Y-123503951D01*
X147213261Y-123432930D01*
X147300887Y-123315876D01*
X147300887Y-123315875D01*
X147300889Y-123315873D01*
X147351989Y-123178870D01*
X147358500Y-123118307D01*
X147358500Y-122798813D01*
X147378502Y-122730692D01*
X147432158Y-122684199D01*
X147502432Y-122674095D01*
X147567012Y-122703589D01*
X147598695Y-122745563D01*
X147682913Y-122926170D01*
X147732899Y-122997557D01*
X148335841Y-122394615D01*
X148354075Y-122462662D01*
X148419901Y-122576676D01*
X148512993Y-122669768D01*
X148627007Y-122735594D01*
X148695051Y-122753826D01*
X148092110Y-123356767D01*
X148092110Y-123356769D01*
X148163498Y-123406755D01*
X148370926Y-123503480D01*
X148370931Y-123503482D01*
X148591999Y-123562717D01*
X148591995Y-123562717D01*
X148820000Y-123582664D01*
X149048002Y-123562717D01*
X149269068Y-123503482D01*
X149269073Y-123503480D01*
X149476497Y-123406757D01*
X149547888Y-123356768D01*
X149547888Y-123356766D01*
X148944948Y-122753826D01*
X149012993Y-122735594D01*
X149127007Y-122669768D01*
X149220099Y-122576676D01*
X149285925Y-122462662D01*
X149304157Y-122394617D01*
X149907097Y-122997557D01*
X149907099Y-122997557D01*
X149957088Y-122926166D01*
X150053811Y-122718742D01*
X150053813Y-122718738D01*
X150083034Y-122609683D01*
X150119985Y-122549061D01*
X150183846Y-122518039D01*
X150254340Y-122526467D01*
X150309087Y-122571670D01*
X150326448Y-122609683D01*
X150355715Y-122718909D01*
X150355717Y-122718915D01*
X150452477Y-122926418D01*
X150549321Y-123064726D01*
X150583802Y-123113969D01*
X150745700Y-123275867D01*
X150933251Y-123407192D01*
X151140757Y-123503953D01*
X151361913Y-123563212D01*
X151590000Y-123583167D01*
X151818087Y-123563212D01*
X152039243Y-123503953D01*
X152246749Y-123407192D01*
X152434300Y-123275867D01*
X152596198Y-123113969D01*
X152727523Y-122926418D01*
X152824284Y-122718912D01*
X152853293Y-122610646D01*
X152890245Y-122550025D01*
X152954105Y-122519004D01*
X153024600Y-122527432D01*
X153079347Y-122572635D01*
X153096707Y-122610648D01*
X153125715Y-122718909D01*
X153125717Y-122718915D01*
X153222477Y-122926418D01*
X153319321Y-123064726D01*
X153353802Y-123113969D01*
X153515700Y-123275867D01*
X153703251Y-123407192D01*
X153910757Y-123503953D01*
X154131913Y-123563212D01*
X154360000Y-123583167D01*
X154588087Y-123563212D01*
X154809243Y-123503953D01*
X155016749Y-123407192D01*
X155204300Y-123275867D01*
X155366198Y-123113969D01*
X155497523Y-122926418D01*
X155594284Y-122718912D01*
X155623293Y-122610646D01*
X155660245Y-122550025D01*
X155724105Y-122519004D01*
X155794600Y-122527432D01*
X155849347Y-122572635D01*
X155866707Y-122610648D01*
X155895715Y-122718909D01*
X155895717Y-122718915D01*
X155992477Y-122926418D01*
X156089321Y-123064726D01*
X156123802Y-123113969D01*
X156285700Y-123275867D01*
X156473251Y-123407192D01*
X156680757Y-123503953D01*
X156901913Y-123563212D01*
X157130000Y-123583167D01*
X157358087Y-123563212D01*
X157579243Y-123503953D01*
X157786749Y-123407192D01*
X157974300Y-123275867D01*
X158136198Y-123113969D01*
X158267523Y-122926418D01*
X158364284Y-122718912D01*
X158423543Y-122497756D01*
X158443498Y-122269669D01*
X158423543Y-122041582D01*
X158364284Y-121820426D01*
X158267523Y-121612920D01*
X158136198Y-121425369D01*
X157974300Y-121263471D01*
X157974293Y-121263466D01*
X157942228Y-121241013D01*
X157897900Y-121185556D01*
X157888500Y-121137801D01*
X157888500Y-119055298D01*
X157888500Y-119055294D01*
X157871839Y-118971536D01*
X157859351Y-118908753D01*
X157802174Y-118770716D01*
X157719166Y-118646485D01*
X157597589Y-118524908D01*
X157563563Y-118462596D01*
X157561222Y-118424186D01*
X157561891Y-118416957D01*
X157563463Y-118400000D01*
X157543653Y-118186214D01*
X157497705Y-118024726D01*
X157484897Y-117979709D01*
X157389196Y-117787516D01*
X157259810Y-117616180D01*
X157198493Y-117560282D01*
X157101145Y-117471537D01*
X157009871Y-117415023D01*
X156918600Y-117358511D01*
X156918598Y-117358510D01*
X156918591Y-117358507D01*
X156718401Y-117280952D01*
X156718402Y-117280952D01*
X156676028Y-117273031D01*
X156507351Y-117241500D01*
X156292649Y-117241500D01*
X156133390Y-117271270D01*
X156081597Y-117280952D01*
X155881408Y-117358507D01*
X155881401Y-117358510D01*
X155698854Y-117471537D01*
X155540191Y-117616178D01*
X155410805Y-117787514D01*
X155315103Y-117979708D01*
X155315099Y-117979718D01*
X155302293Y-118024726D01*
X155264412Y-118084771D01*
X155200081Y-118114805D01*
X155129724Y-118105290D01*
X155075681Y-118059249D01*
X155068317Y-118046412D01*
X154989196Y-117887516D01*
X154859810Y-117716180D01*
X154859808Y-117716178D01*
X154701145Y-117571537D01*
X154539636Y-117471536D01*
X154518600Y-117458511D01*
X154518598Y-117458510D01*
X154518591Y-117458507D01*
X154318401Y-117380952D01*
X154318402Y-117380952D01*
X154315984Y-117380500D01*
X154107351Y-117341500D01*
X153892649Y-117341500D01*
X153763254Y-117365688D01*
X153681597Y-117380952D01*
X153481408Y-117458507D01*
X153481401Y-117458510D01*
X153298854Y-117571537D01*
X153140191Y-117716178D01*
X153010805Y-117887514D01*
X152915103Y-118079708D01*
X152915100Y-118079716D01*
X152856346Y-118286215D01*
X152847377Y-118383003D01*
X152821175Y-118448987D01*
X152763458Y-118490331D01*
X152692551Y-118493907D01*
X152630968Y-118458580D01*
X152609124Y-118427537D01*
X152607455Y-118424186D01*
X152595415Y-118400005D01*
X152589198Y-118387519D01*
X152589195Y-118387515D01*
X152585788Y-118383003D01*
X152459810Y-118216180D01*
X152426939Y-118186214D01*
X152301145Y-118071537D01*
X152209871Y-118015023D01*
X152118600Y-117958511D01*
X152118598Y-117958510D01*
X152118591Y-117958507D01*
X151918401Y-117880952D01*
X151918402Y-117880952D01*
X151848269Y-117867842D01*
X151707351Y-117841500D01*
X151492649Y-117841500D01*
X151351731Y-117867842D01*
X151281597Y-117880952D01*
X151081408Y-117958507D01*
X151081401Y-117958510D01*
X150898854Y-118071537D01*
X150740191Y-118216178D01*
X150610805Y-118387514D01*
X150515103Y-118579708D01*
X150515100Y-118579716D01*
X150456347Y-118786210D01*
X150436537Y-119000000D01*
X150456347Y-119213789D01*
X150515100Y-119420283D01*
X150515103Y-119420291D01*
X150610804Y-119612484D01*
X150610805Y-119612485D01*
X150740190Y-119783821D01*
X150768812Y-119809912D01*
X150790386Y-119829579D01*
X150827252Y-119890252D01*
X150831500Y-119922694D01*
X150831500Y-121137801D01*
X150811498Y-121205922D01*
X150777772Y-121241013D01*
X150745706Y-121263466D01*
X150745697Y-121263473D01*
X150583804Y-121425366D01*
X150583799Y-121425372D01*
X150452477Y-121612919D01*
X150355717Y-121820422D01*
X150355716Y-121820425D01*
X150326448Y-121929655D01*
X150289496Y-121990277D01*
X150225635Y-122021299D01*
X150155141Y-122012870D01*
X150100394Y-121967666D01*
X150083034Y-121929654D01*
X150053813Y-121820599D01*
X150053811Y-121820595D01*
X149957086Y-121613167D01*
X149907100Y-121541779D01*
X149907098Y-121541779D01*
X149304157Y-122144720D01*
X149285925Y-122076676D01*
X149220099Y-121962662D01*
X149127007Y-121869570D01*
X149012993Y-121803744D01*
X148944947Y-121785510D01*
X149547888Y-121182568D01*
X149547888Y-121182567D01*
X149476501Y-121132582D01*
X149269073Y-121035857D01*
X149269068Y-121035855D01*
X149048000Y-120976620D01*
X149048004Y-120976620D01*
X148820000Y-120956673D01*
X148591997Y-120976620D01*
X148370931Y-121035855D01*
X148370926Y-121035857D01*
X148163500Y-121132582D01*
X148092109Y-121182569D01*
X148695051Y-121785511D01*
X148627007Y-121803744D01*
X148512993Y-121869570D01*
X148419901Y-121962662D01*
X148354075Y-122076676D01*
X148335842Y-122144720D01*
X147732900Y-121541778D01*
X147682913Y-121613169D01*
X147598695Y-121793774D01*
X147551777Y-121847059D01*
X147483500Y-121866520D01*
X147415540Y-121845978D01*
X147369475Y-121791955D01*
X147358500Y-121740524D01*
X147358500Y-121421036D01*
X147358499Y-121421019D01*
X147351990Y-121360472D01*
X147351988Y-121360464D01*
X147315811Y-121263473D01*
X147300889Y-121223465D01*
X147300888Y-121223463D01*
X147300887Y-121223461D01*
X147213261Y-121106407D01*
X147096207Y-121018781D01*
X147096202Y-121018779D01*
X146959204Y-120967680D01*
X146959196Y-120967678D01*
X146921032Y-120963576D01*
X146855439Y-120936407D01*
X146814948Y-120878089D01*
X146808500Y-120838298D01*
X146808500Y-118362370D01*
X146828502Y-118294249D01*
X146845400Y-118273280D01*
X148657011Y-116461668D01*
X148719321Y-116427645D01*
X148757081Y-116425244D01*
X148920000Y-116439498D01*
X149148087Y-116419543D01*
X149369243Y-116360284D01*
X149576749Y-116263523D01*
X149764300Y-116132198D01*
X149926198Y-115970300D01*
X149945749Y-115942379D01*
X149948656Y-115938228D01*
X150004113Y-115893900D01*
X150051868Y-115884500D01*
X154481024Y-115884500D01*
X154481028Y-115884500D01*
X154481029Y-115884500D01*
X154554299Y-115869925D01*
X154627570Y-115855351D01*
X154765607Y-115798174D01*
X154889838Y-115715166D01*
X156459599Y-114145405D01*
X156521911Y-114111379D01*
X156548694Y-114108500D01*
X157980955Y-114108500D01*
X157980961Y-114108500D01*
X157980968Y-114108499D01*
X157980972Y-114108499D01*
X158041519Y-114101990D01*
X158041522Y-114101989D01*
X158041524Y-114101989D01*
X158178527Y-114050889D01*
X158190553Y-114041887D01*
X158295584Y-113963261D01*
X158383210Y-113846207D01*
X158383210Y-113846206D01*
X158383212Y-113846204D01*
X158434312Y-113709201D01*
X158440823Y-113648638D01*
X158440823Y-112600000D01*
X160419660Y-112600000D01*
X160438283Y-112836632D01*
X160493694Y-113067437D01*
X160584531Y-113286738D01*
X160699219Y-113473890D01*
X160699220Y-113473890D01*
X161448164Y-112724946D01*
X161466398Y-112792993D01*
X161532224Y-112907007D01*
X161625316Y-113000099D01*
X161739330Y-113065925D01*
X161807374Y-113084157D01*
X161058430Y-113833101D01*
X161058431Y-113833102D01*
X161245584Y-113947791D01*
X161464885Y-114038628D01*
X161695690Y-114094039D01*
X161932323Y-114112662D01*
X162168955Y-114094039D01*
X162399760Y-114038628D01*
X162619061Y-113947791D01*
X162806213Y-113833102D01*
X162806214Y-113833102D01*
X162057270Y-113084158D01*
X162125316Y-113065925D01*
X162239330Y-113000099D01*
X162332422Y-112907007D01*
X162398248Y-112792993D01*
X162416481Y-112724947D01*
X163165425Y-113473891D01*
X163165425Y-113473890D01*
X163280114Y-113286738D01*
X163370951Y-113067437D01*
X163426362Y-112836632D01*
X163444985Y-112600000D01*
X163426362Y-112363367D01*
X163370951Y-112132562D01*
X163280114Y-111913261D01*
X163165425Y-111726108D01*
X163165424Y-111726107D01*
X162416480Y-112475051D01*
X162398248Y-112407007D01*
X162332422Y-112292993D01*
X162239330Y-112199901D01*
X162125316Y-112134075D01*
X162057269Y-112115841D01*
X162806213Y-111366897D01*
X162806213Y-111366896D01*
X162619061Y-111252208D01*
X162399760Y-111161371D01*
X162168955Y-111105960D01*
X161932323Y-111087337D01*
X161695690Y-111105960D01*
X161464885Y-111161371D01*
X161245589Y-111252206D01*
X161058431Y-111366897D01*
X161058431Y-111366898D01*
X161807375Y-112115842D01*
X161739330Y-112134075D01*
X161625316Y-112199901D01*
X161532224Y-112292993D01*
X161466398Y-112407007D01*
X161448165Y-112475052D01*
X160699221Y-111726108D01*
X160699220Y-111726108D01*
X160584529Y-111913266D01*
X160493694Y-112132562D01*
X160438283Y-112363367D01*
X160419660Y-112600000D01*
X158440823Y-112600000D01*
X158440823Y-111551362D01*
X158440489Y-111548255D01*
X158434313Y-111490803D01*
X158434311Y-111490795D01*
X158388098Y-111366896D01*
X158383212Y-111353796D01*
X158383211Y-111353794D01*
X158383210Y-111353792D01*
X158295584Y-111236738D01*
X158178530Y-111149112D01*
X158178525Y-111149110D01*
X158041527Y-111098011D01*
X158041519Y-111098009D01*
X157980972Y-111091500D01*
X157980961Y-111091500D01*
X155883685Y-111091500D01*
X155883673Y-111091500D01*
X155823126Y-111098009D01*
X155823118Y-111098011D01*
X155686120Y-111149110D01*
X155686115Y-111149112D01*
X155569061Y-111236738D01*
X155481435Y-111353792D01*
X155481433Y-111353797D01*
X155430334Y-111490795D01*
X155430332Y-111490803D01*
X155423823Y-111551350D01*
X155423823Y-112983629D01*
X155403821Y-113051750D01*
X155386918Y-113072724D01*
X154129047Y-114330595D01*
X154066735Y-114364621D01*
X154039952Y-114367500D01*
X150051868Y-114367500D01*
X149983747Y-114347498D01*
X149948656Y-114313772D01*
X149926202Y-114281706D01*
X149926200Y-114281703D01*
X149926198Y-114281700D01*
X149764300Y-114119802D01*
X149764293Y-114119797D01*
X149732228Y-114097344D01*
X149687900Y-114041887D01*
X149678500Y-113994132D01*
X149678500Y-109977867D01*
X149698502Y-109909746D01*
X149732228Y-109874654D01*
X149764300Y-109852198D01*
X149926198Y-109690300D01*
X150057523Y-109502749D01*
X150154284Y-109295243D01*
X150213543Y-109074087D01*
X150233498Y-108846000D01*
X150213543Y-108617913D01*
X150154284Y-108396757D01*
X150057523Y-108189251D01*
X149926198Y-108001700D01*
X149764300Y-107839802D01*
X149764293Y-107839797D01*
X149732228Y-107817344D01*
X149687900Y-107761887D01*
X149678500Y-107714132D01*
X149678500Y-103697867D01*
X149698502Y-103629746D01*
X149732228Y-103594654D01*
X149764300Y-103572198D01*
X149926198Y-103410300D01*
X150057523Y-103222749D01*
X150154284Y-103015243D01*
X150213543Y-102794087D01*
X150233498Y-102566000D01*
X150213543Y-102337913D01*
X150154284Y-102116757D01*
X150057523Y-101909251D01*
X149926198Y-101721700D01*
X149764300Y-101559802D01*
X149764293Y-101559797D01*
X149732228Y-101537344D01*
X149687900Y-101481887D01*
X149678500Y-101434132D01*
X149678500Y-99955371D01*
X149698502Y-99887250D01*
X149752158Y-99840757D01*
X149822432Y-99830653D01*
X149887012Y-99860147D01*
X149893595Y-99866276D01*
X150910834Y-100883515D01*
X150910835Y-100883516D01*
X151016484Y-100989165D01*
X151140716Y-101072174D01*
X151221576Y-101105667D01*
X151278753Y-101129351D01*
X151352022Y-101143924D01*
X151352023Y-101143925D01*
X151366598Y-101146824D01*
X151425294Y-101158500D01*
X151425295Y-101158500D01*
X151574705Y-101158500D01*
X157915500Y-101158500D01*
X157983621Y-101178502D01*
X158030114Y-101232158D01*
X158041500Y-101284500D01*
X158041500Y-103198649D01*
X158048009Y-103259196D01*
X158048011Y-103259204D01*
X158099110Y-103396202D01*
X158099112Y-103396207D01*
X158186738Y-103513261D01*
X158303792Y-103600887D01*
X158303794Y-103600888D01*
X158303796Y-103600889D01*
X158362875Y-103622924D01*
X158440795Y-103651988D01*
X158440803Y-103651990D01*
X158501350Y-103658499D01*
X158501355Y-103658499D01*
X158501362Y-103658500D01*
X158501368Y-103658500D01*
X160598632Y-103658500D01*
X160598638Y-103658500D01*
X160598645Y-103658499D01*
X160598649Y-103658499D01*
X160659196Y-103651990D01*
X160659199Y-103651989D01*
X160659201Y-103651989D01*
X160796204Y-103600889D01*
X160804535Y-103594653D01*
X160913261Y-103513261D01*
X161000887Y-103396207D01*
X161000887Y-103396206D01*
X161000889Y-103396204D01*
X161051989Y-103259201D01*
X161052048Y-103258660D01*
X161058499Y-103198649D01*
X161058500Y-103198632D01*
X161058500Y-99631321D01*
X164342000Y-99631321D01*
X164342000Y-100596000D01*
X165350000Y-100596000D01*
X165350000Y-101104000D01*
X164342000Y-101104000D01*
X164342000Y-102068678D01*
X164379133Y-102303129D01*
X164452480Y-102528867D01*
X164560245Y-102740367D01*
X164699764Y-102932398D01*
X164699766Y-102932401D01*
X164867598Y-103100233D01*
X164867601Y-103100235D01*
X165059632Y-103239754D01*
X165271132Y-103347519D01*
X165496871Y-103420866D01*
X165596000Y-103436566D01*
X165596000Y-102380702D01*
X165657007Y-102415925D01*
X165784174Y-102450000D01*
X165915826Y-102450000D01*
X166042993Y-102415925D01*
X166104000Y-102380702D01*
X166104000Y-103436566D01*
X166203128Y-103420866D01*
X166428867Y-103347519D01*
X166640367Y-103239754D01*
X166832398Y-103100235D01*
X166832401Y-103100233D01*
X167000233Y-102932401D01*
X167000235Y-102932398D01*
X167139754Y-102740367D01*
X167247519Y-102528867D01*
X167320866Y-102303129D01*
X167358000Y-102068678D01*
X167358000Y-101104000D01*
X166350000Y-101104000D01*
X166350000Y-100596000D01*
X167358000Y-100596000D01*
X167358000Y-99631321D01*
X167320866Y-99396870D01*
X167247519Y-99171132D01*
X167139754Y-98959632D01*
X167000235Y-98767601D01*
X167000233Y-98767598D01*
X166832401Y-98599766D01*
X166832398Y-98599764D01*
X166640367Y-98460245D01*
X166428867Y-98352480D01*
X166203128Y-98279133D01*
X166104000Y-98263432D01*
X166104000Y-99319297D01*
X166042993Y-99284075D01*
X165915826Y-99250000D01*
X165784174Y-99250000D01*
X165657007Y-99284075D01*
X165596000Y-99319297D01*
X165596000Y-98263432D01*
X165496871Y-98279133D01*
X165271132Y-98352480D01*
X165059632Y-98460245D01*
X164867601Y-98599764D01*
X164867598Y-98599766D01*
X164699766Y-98767598D01*
X164699764Y-98767601D01*
X164560245Y-98959632D01*
X164452480Y-99171132D01*
X164379133Y-99396870D01*
X164342000Y-99631321D01*
X161058500Y-99631321D01*
X161058500Y-98501367D01*
X161058499Y-98501350D01*
X161051990Y-98440803D01*
X161051988Y-98440795D01*
X161010775Y-98330302D01*
X161000889Y-98303796D01*
X161000888Y-98303794D01*
X161000887Y-98303792D01*
X160913261Y-98186738D01*
X160796207Y-98099112D01*
X160796202Y-98099110D01*
X160659204Y-98048011D01*
X160659196Y-98048009D01*
X160598649Y-98041500D01*
X160598638Y-98041500D01*
X158501362Y-98041500D01*
X158501350Y-98041500D01*
X158440803Y-98048009D01*
X158440795Y-98048011D01*
X158303797Y-98099110D01*
X158303792Y-98099112D01*
X158186738Y-98186738D01*
X158099112Y-98303792D01*
X158099110Y-98303797D01*
X158048011Y-98440795D01*
X158048009Y-98440803D01*
X158041500Y-98501350D01*
X158041500Y-99515500D01*
X158021498Y-99583621D01*
X157967842Y-99630114D01*
X157915500Y-99641500D01*
X151866371Y-99641500D01*
X151798250Y-99621498D01*
X151777276Y-99604595D01*
X149715405Y-97542724D01*
X149681379Y-97480412D01*
X149678500Y-97453629D01*
X149678500Y-97417867D01*
X149698502Y-97349746D01*
X149732228Y-97314654D01*
X149764300Y-97292198D01*
X149926198Y-97130300D01*
X150057523Y-96942749D01*
X150154284Y-96735243D01*
X150213543Y-96514087D01*
X150233498Y-96286000D01*
X150213543Y-96057913D01*
X150154284Y-95836757D01*
X150135279Y-95796000D01*
X159863432Y-95796000D01*
X160919297Y-95796000D01*
X160884075Y-95857007D01*
X160850000Y-95984174D01*
X160850000Y-96115826D01*
X160884075Y-96242993D01*
X160919297Y-96304000D01*
X159863432Y-96304000D01*
X159879133Y-96403128D01*
X159952480Y-96628867D01*
X160060245Y-96840367D01*
X160199764Y-97032398D01*
X160199766Y-97032401D01*
X160367598Y-97200233D01*
X160367601Y-97200235D01*
X160559632Y-97339754D01*
X160771132Y-97447519D01*
X160996870Y-97520866D01*
X161231321Y-97558000D01*
X162196000Y-97558000D01*
X162196000Y-96550000D01*
X162704000Y-96550000D01*
X162704000Y-97558000D01*
X163668679Y-97558000D01*
X163903129Y-97520866D01*
X164128867Y-97447519D01*
X164340367Y-97339754D01*
X164532398Y-97200235D01*
X164532401Y-97200233D01*
X164700233Y-97032401D01*
X164700235Y-97032398D01*
X164839754Y-96840367D01*
X164947519Y-96628867D01*
X165020866Y-96403128D01*
X165036568Y-96304000D01*
X163980703Y-96304000D01*
X164015925Y-96242993D01*
X164050000Y-96115826D01*
X164050000Y-95984174D01*
X164015925Y-95857007D01*
X163980703Y-95796000D01*
X165036567Y-95796000D01*
X165020866Y-95696871D01*
X164947519Y-95471132D01*
X164839754Y-95259632D01*
X164700235Y-95067601D01*
X164700233Y-95067598D01*
X164532401Y-94899766D01*
X164532398Y-94899764D01*
X164340367Y-94760245D01*
X164128867Y-94652480D01*
X163903129Y-94579133D01*
X163668679Y-94542000D01*
X162704000Y-94542000D01*
X162704000Y-95550000D01*
X162196000Y-95550000D01*
X162196000Y-94542000D01*
X161231321Y-94542000D01*
X160996870Y-94579133D01*
X160771132Y-94652480D01*
X160559632Y-94760245D01*
X160367601Y-94899764D01*
X160367598Y-94899766D01*
X160199766Y-95067598D01*
X160199764Y-95067601D01*
X160060245Y-95259632D01*
X159952480Y-95471132D01*
X159879133Y-95696871D01*
X159863432Y-95796000D01*
X150135279Y-95796000D01*
X150057523Y-95629251D01*
X149926198Y-95441700D01*
X149764300Y-95279802D01*
X149764293Y-95279797D01*
X149732228Y-95257344D01*
X149687900Y-95201887D01*
X149678500Y-95154132D01*
X149678500Y-91137867D01*
X149698502Y-91069746D01*
X149732228Y-91034654D01*
X149764300Y-91012198D01*
X149926198Y-90850300D01*
X150057523Y-90662749D01*
X150154284Y-90455243D01*
X150213543Y-90234087D01*
X150233498Y-90006000D01*
X150213543Y-89777913D01*
X150154284Y-89556757D01*
X150057523Y-89349251D01*
X149926198Y-89161700D01*
X149764300Y-88999802D01*
X149764293Y-88999797D01*
X149732228Y-88977344D01*
X149687900Y-88921887D01*
X149678500Y-88874132D01*
X149678500Y-84857867D01*
X149698502Y-84789746D01*
X149732228Y-84754654D01*
X149764300Y-84732198D01*
X149926198Y-84570300D01*
X150057523Y-84382749D01*
X150154284Y-84175243D01*
X150213543Y-83954087D01*
X150233498Y-83726000D01*
X150219244Y-83563084D01*
X150233233Y-83493482D01*
X150255667Y-83463013D01*
X150814166Y-82904515D01*
X150897174Y-82780284D01*
X150954351Y-82642246D01*
X150965973Y-82583820D01*
X150983500Y-82495706D01*
X150983500Y-82260371D01*
X151003502Y-82192250D01*
X151057158Y-82145757D01*
X151127432Y-82135653D01*
X151192012Y-82165147D01*
X151198595Y-82171276D01*
X151202410Y-82175091D01*
X151236436Y-82237403D01*
X151238778Y-82275808D01*
X151236537Y-82300000D01*
X151238417Y-82320284D01*
X151256347Y-82513789D01*
X151315100Y-82720283D01*
X151315103Y-82720291D01*
X151410804Y-82912484D01*
X151529188Y-83069250D01*
X151540191Y-83083821D01*
X151698854Y-83228462D01*
X151698856Y-83228463D01*
X151698857Y-83228464D01*
X151881400Y-83341489D01*
X151881408Y-83341492D01*
X152081598Y-83419047D01*
X152081603Y-83419049D01*
X152292649Y-83458500D01*
X152292651Y-83458500D01*
X152507349Y-83458500D01*
X152507351Y-83458500D01*
X152718397Y-83419049D01*
X152918600Y-83341489D01*
X153101143Y-83228464D01*
X153259810Y-83083820D01*
X153389196Y-82912484D01*
X153484897Y-82720291D01*
X153543653Y-82513786D01*
X153563463Y-82300000D01*
X153543653Y-82086214D01*
X153535077Y-82056074D01*
X153484899Y-81879716D01*
X153484898Y-81879715D01*
X153484897Y-81879709D01*
X153389196Y-81687516D01*
X153259810Y-81516180D01*
X153259808Y-81516178D01*
X153101145Y-81371537D01*
X152918598Y-81258510D01*
X152918591Y-81258507D01*
X152718401Y-81180952D01*
X152718402Y-81180952D01*
X152718397Y-81180951D01*
X152507351Y-81141500D01*
X152507349Y-81141500D01*
X152494500Y-81141500D01*
X152426379Y-81121498D01*
X152379886Y-81067842D01*
X152368500Y-81015500D01*
X152368500Y-79662198D01*
X152388502Y-79594077D01*
X152422228Y-79558985D01*
X152454300Y-79536529D01*
X152616198Y-79374631D01*
X152747523Y-79187080D01*
X152844284Y-78979574D01*
X152873552Y-78870341D01*
X152910502Y-78809723D01*
X152974363Y-78778701D01*
X153044857Y-78787129D01*
X153099604Y-78832331D01*
X153116965Y-78870344D01*
X153146187Y-78979402D01*
X153146188Y-78979404D01*
X153242913Y-79186832D01*
X153292899Y-79258219D01*
X153895841Y-78655277D01*
X153914075Y-78723324D01*
X153979901Y-78837338D01*
X154072993Y-78930430D01*
X154187007Y-78996256D01*
X154255051Y-79014488D01*
X153652110Y-79617429D01*
X153652110Y-79617431D01*
X153723498Y-79667417D01*
X153930926Y-79764142D01*
X153930931Y-79764144D01*
X154151999Y-79823379D01*
X154151995Y-79823379D01*
X154380000Y-79843326D01*
X154608002Y-79823379D01*
X154829068Y-79764144D01*
X154829073Y-79764142D01*
X155036497Y-79667419D01*
X155107888Y-79617430D01*
X155107888Y-79617428D01*
X154504948Y-79014488D01*
X154572993Y-78996256D01*
X154687007Y-78930430D01*
X154780099Y-78837338D01*
X154845925Y-78723324D01*
X154864157Y-78655279D01*
X155467097Y-79258219D01*
X155467099Y-79258219D01*
X155517088Y-79186828D01*
X155601305Y-79006225D01*
X155648222Y-78952940D01*
X155716500Y-78933479D01*
X155784459Y-78954021D01*
X155830525Y-79008044D01*
X155841500Y-79059475D01*
X155841500Y-79378980D01*
X155848009Y-79439527D01*
X155848011Y-79439535D01*
X155899110Y-79576533D01*
X155899112Y-79576538D01*
X155986738Y-79693592D01*
X156103792Y-79781218D01*
X156103794Y-79781219D01*
X156103796Y-79781220D01*
X156162875Y-79803255D01*
X156240795Y-79832319D01*
X156240803Y-79832321D01*
X156301350Y-79838830D01*
X156301355Y-79838830D01*
X156301362Y-79838831D01*
X156301368Y-79838831D01*
X157998632Y-79838831D01*
X157998638Y-79838831D01*
X157998645Y-79838830D01*
X157998649Y-79838830D01*
X158059196Y-79832321D01*
X158059199Y-79832320D01*
X158059201Y-79832320D01*
X158196204Y-79781220D01*
X158219018Y-79764142D01*
X158313261Y-79693592D01*
X158400887Y-79576538D01*
X158400887Y-79576537D01*
X158400889Y-79576535D01*
X158451989Y-79439532D01*
X158458500Y-79378969D01*
X158458500Y-77681693D01*
X158458499Y-77681681D01*
X158451990Y-77621134D01*
X158451988Y-77621126D01*
X158415811Y-77524135D01*
X158400889Y-77484127D01*
X158400888Y-77484125D01*
X158400887Y-77484123D01*
X158332604Y-77392908D01*
X158307793Y-77326388D01*
X158322884Y-77257014D01*
X158344374Y-77228305D01*
X158389166Y-77183515D01*
X158389168Y-77183511D01*
X158389170Y-77183510D01*
X158438070Y-77110324D01*
X161597041Y-77110324D01*
X161597041Y-77110337D01*
X161616854Y-77425275D01*
X161616856Y-77425292D01*
X161675989Y-77735273D01*
X161675992Y-77735286D01*
X161773509Y-78035410D01*
X161773513Y-78035419D01*
X161907875Y-78320953D01*
X161907882Y-78320967D01*
X162076969Y-78587406D01*
X162076971Y-78587409D01*
X162166042Y-78695077D01*
X162813367Y-78047752D01*
X162889588Y-78152661D01*
X163067670Y-78330743D01*
X163172576Y-78406962D01*
X162522522Y-79057017D01*
X162522522Y-79057019D01*
X162763482Y-79232087D01*
X163040034Y-79384123D01*
X163333460Y-79500299D01*
X163333466Y-79500301D01*
X163639103Y-79578775D01*
X163639130Y-79578780D01*
X163952195Y-79618329D01*
X163952214Y-79618331D01*
X164267786Y-79618331D01*
X164267804Y-79618329D01*
X164580869Y-79578780D01*
X164580896Y-79578775D01*
X164886533Y-79500301D01*
X164886539Y-79500299D01*
X165179965Y-79384123D01*
X165456512Y-79232090D01*
X165697476Y-79057019D01*
X165697476Y-79057017D01*
X165047422Y-78406962D01*
X165152330Y-78330743D01*
X165330412Y-78152661D01*
X165406632Y-78047753D01*
X166053956Y-78695077D01*
X166143030Y-78587406D01*
X166143033Y-78587402D01*
X166312117Y-78320967D01*
X166312124Y-78320953D01*
X166446486Y-78035419D01*
X166446490Y-78035410D01*
X166544007Y-77735286D01*
X166544010Y-77735273D01*
X166603143Y-77425292D01*
X166603145Y-77425275D01*
X166622959Y-77110337D01*
X166622959Y-77110324D01*
X166603145Y-76795386D01*
X166603143Y-76795369D01*
X166544010Y-76485388D01*
X166544007Y-76485375D01*
X166446490Y-76185251D01*
X166446486Y-76185242D01*
X166312124Y-75899708D01*
X166312117Y-75899694D01*
X166143030Y-75633255D01*
X166143028Y-75633252D01*
X166053956Y-75525583D01*
X165406631Y-76172907D01*
X165330412Y-76068001D01*
X165152330Y-75889919D01*
X165047421Y-75813698D01*
X165697476Y-75163643D01*
X165697476Y-75163641D01*
X165456513Y-74988571D01*
X165179965Y-74836538D01*
X164886539Y-74720362D01*
X164886533Y-74720360D01*
X164580896Y-74641886D01*
X164580869Y-74641881D01*
X164267804Y-74602332D01*
X164267786Y-74602331D01*
X163952214Y-74602331D01*
X163952195Y-74602332D01*
X163639130Y-74641881D01*
X163639103Y-74641886D01*
X163333466Y-74720360D01*
X163333460Y-74720362D01*
X163040034Y-74836538D01*
X162763486Y-74988571D01*
X162522522Y-75163641D01*
X162522522Y-75163643D01*
X163172577Y-75813698D01*
X163067670Y-75889919D01*
X162889588Y-76068001D01*
X162813367Y-76172908D01*
X162166042Y-75525583D01*
X162076972Y-75633252D01*
X162076969Y-75633255D01*
X161907882Y-75899694D01*
X161907875Y-75899708D01*
X161773513Y-76185242D01*
X161773509Y-76185251D01*
X161675992Y-76485375D01*
X161675989Y-76485388D01*
X161616856Y-76795369D01*
X161616854Y-76795386D01*
X161597041Y-77110324D01*
X158438070Y-77110324D01*
X158472171Y-77059288D01*
X158472174Y-77059284D01*
X158529351Y-76921247D01*
X158558500Y-76774705D01*
X158558500Y-76625295D01*
X158558500Y-74825294D01*
X158529351Y-74678754D01*
X158472174Y-74540716D01*
X158415600Y-74456047D01*
X158415599Y-74456045D01*
X158389168Y-74416488D01*
X158389162Y-74416480D01*
X157283519Y-73310838D01*
X157283515Y-73310834D01*
X157159284Y-73227826D01*
X157021247Y-73170649D01*
X156947976Y-73156074D01*
X156947975Y-73156073D01*
X156874711Y-73141500D01*
X156874706Y-73141500D01*
X151225294Y-73141500D01*
X151225290Y-73141500D01*
X151078753Y-73170649D01*
X151078750Y-73170650D01*
X150940716Y-73227826D01*
X150816486Y-73310833D01*
X150816480Y-73310838D01*
X149635838Y-74491479D01*
X149635835Y-74491483D01*
X149626477Y-74505488D01*
X149574974Y-74549672D01*
X149568253Y-74552806D01*
X149568252Y-74552806D01*
X149380703Y-74684130D01*
X149380697Y-74684135D01*
X149218804Y-74846028D01*
X149218797Y-74846037D01*
X149196344Y-74878103D01*
X149140887Y-74922431D01*
X149093132Y-74931831D01*
X148586868Y-74931831D01*
X148518747Y-74911829D01*
X148483656Y-74878103D01*
X148461202Y-74846037D01*
X148461200Y-74846034D01*
X148461198Y-74846031D01*
X148299300Y-74684133D01*
X148291612Y-74678750D01*
X148111749Y-74552808D01*
X147904246Y-74456048D01*
X147904240Y-74456046D01*
X147810771Y-74431001D01*
X147683087Y-74396788D01*
X147455000Y-74376833D01*
X147454998Y-74376833D01*
X147292084Y-74391085D01*
X147222480Y-74377095D01*
X147192009Y-74354659D01*
X146748188Y-73910838D01*
X146748187Y-73910837D01*
X146748184Y-73910834D01*
X146623953Y-73827826D01*
X146485916Y-73770649D01*
X146412645Y-73756074D01*
X146412644Y-73756073D01*
X146339380Y-73741500D01*
X146339375Y-73741500D01*
X129005624Y-73741500D01*
X129005618Y-73741500D01*
X128932354Y-73756073D01*
X128932354Y-73756074D01*
X128859083Y-73770649D01*
X128859081Y-73770649D01*
X128859080Y-73770650D01*
X128859079Y-73770650D01*
X128801906Y-73794331D01*
X128801906Y-73794332D01*
X128721046Y-73827826D01*
X128650885Y-73874706D01*
X128596818Y-73910832D01*
X128596811Y-73910837D01*
X127429260Y-75078389D01*
X127366948Y-75112415D01*
X127296133Y-75107350D01*
X127251070Y-75078389D01*
X125383519Y-73210838D01*
X125383515Y-73210834D01*
X125259284Y-73127826D01*
X125121247Y-73070649D01*
X125047976Y-73056074D01*
X125047975Y-73056073D01*
X124974711Y-73041500D01*
X124974706Y-73041500D01*
X119940625Y-73041500D01*
X119940621Y-73041500D01*
X119794084Y-73070649D01*
X119794081Y-73070650D01*
X119656047Y-73127826D01*
X119531814Y-73210835D01*
X119531808Y-73210840D01*
X118387989Y-74354659D01*
X118325677Y-74388685D01*
X118287913Y-74391085D01*
X118125000Y-74376833D01*
X117896913Y-74396788D01*
X117675759Y-74456046D01*
X117675753Y-74456048D01*
X117468250Y-74552808D01*
X117280703Y-74684130D01*
X117280697Y-74684135D01*
X117118804Y-74846028D01*
X117118797Y-74846037D01*
X117096344Y-74878103D01*
X117040887Y-74922431D01*
X116993132Y-74931831D01*
X116486868Y-74931831D01*
X116418747Y-74911829D01*
X116383656Y-74878103D01*
X116361202Y-74846037D01*
X116361200Y-74846034D01*
X116361198Y-74846031D01*
X116199300Y-74684133D01*
X116191612Y-74678750D01*
X116011749Y-74552808D01*
X115804246Y-74456048D01*
X115804240Y-74456046D01*
X115710771Y-74431001D01*
X115583087Y-74396788D01*
X115355000Y-74376833D01*
X115126913Y-74396788D01*
X114905759Y-74456046D01*
X114905753Y-74456048D01*
X114698250Y-74552808D01*
X114510703Y-74684130D01*
X114510697Y-74684135D01*
X114348804Y-74846028D01*
X114348799Y-74846034D01*
X114217477Y-75033581D01*
X114120717Y-75241084D01*
X114120715Y-75241090D01*
X114061457Y-75462244D01*
X114041502Y-75690331D01*
X114061457Y-75918417D01*
X114120715Y-76139571D01*
X114120717Y-76139577D01*
X114217477Y-76347080D01*
X114314321Y-76485388D01*
X114348802Y-76534631D01*
X114510700Y-76696529D01*
X114698251Y-76827854D01*
X114905757Y-76924615D01*
X115126913Y-76983874D01*
X115355000Y-77003829D01*
X115583087Y-76983874D01*
X115804243Y-76924615D01*
X116011749Y-76827854D01*
X116199300Y-76696529D01*
X116361198Y-76534631D01*
X116376423Y-76512888D01*
X116383656Y-76502559D01*
X116439113Y-76458231D01*
X116486868Y-76448831D01*
X116993132Y-76448831D01*
X117061253Y-76468833D01*
X117096344Y-76502559D01*
X117103577Y-76512888D01*
X117118802Y-76534631D01*
X117280700Y-76696529D01*
X117468251Y-76827854D01*
X117675757Y-76924615D01*
X117896913Y-76983874D01*
X118125000Y-77003829D01*
X118353087Y-76983874D01*
X118574243Y-76924615D01*
X118781749Y-76827854D01*
X118969300Y-76696529D01*
X119131198Y-76534631D01*
X119262523Y-76347080D01*
X119359284Y-76139574D01*
X119388552Y-76030341D01*
X119425502Y-75969723D01*
X119489363Y-75938701D01*
X119559857Y-75947129D01*
X119614604Y-75992331D01*
X119631965Y-76030344D01*
X119661187Y-76139402D01*
X119661188Y-76139404D01*
X119757913Y-76346832D01*
X119807898Y-76418219D01*
X119807900Y-76418219D01*
X120410841Y-75815277D01*
X120429075Y-75883324D01*
X120494901Y-75997338D01*
X120587993Y-76090430D01*
X120702007Y-76156256D01*
X120770051Y-76174488D01*
X120167110Y-76777429D01*
X120167110Y-76777431D01*
X120238498Y-76827417D01*
X120445926Y-76924142D01*
X120445931Y-76924144D01*
X120666999Y-76983379D01*
X120666995Y-76983379D01*
X120895000Y-77003326D01*
X121123002Y-76983379D01*
X121344068Y-76924144D01*
X121344073Y-76924142D01*
X121551497Y-76827419D01*
X121622888Y-76777430D01*
X121622888Y-76777428D01*
X121019948Y-76174488D01*
X121087993Y-76156256D01*
X121202007Y-76090430D01*
X121295099Y-75997338D01*
X121360925Y-75883324D01*
X121379157Y-75815279D01*
X121982097Y-76418219D01*
X121982099Y-76418219D01*
X122032088Y-76346828D01*
X122128811Y-76139404D01*
X122128813Y-76139399D01*
X122158293Y-76029381D01*
X122195245Y-75968758D01*
X122259105Y-75937737D01*
X122329600Y-75946165D01*
X122384347Y-75991368D01*
X122401707Y-76029381D01*
X122431186Y-76139399D01*
X122431188Y-76139404D01*
X122527913Y-76346832D01*
X122577899Y-76418219D01*
X123180841Y-75815277D01*
X123199075Y-75883324D01*
X123264901Y-75997338D01*
X123357993Y-76090430D01*
X123472007Y-76156256D01*
X123540051Y-76174488D01*
X122937110Y-76777429D01*
X122937110Y-76777431D01*
X123008498Y-76827417D01*
X123215926Y-76924142D01*
X123215931Y-76924144D01*
X123436999Y-76983379D01*
X123436995Y-76983379D01*
X123665000Y-77003326D01*
X123893002Y-76983379D01*
X124114068Y-76924144D01*
X124114073Y-76924142D01*
X124321497Y-76827419D01*
X124392888Y-76777430D01*
X124392888Y-76777428D01*
X123789948Y-76174488D01*
X123857993Y-76156256D01*
X123972007Y-76090430D01*
X124065099Y-75997338D01*
X124130925Y-75883324D01*
X124149157Y-75815279D01*
X124752097Y-76418219D01*
X124752099Y-76418219D01*
X124802088Y-76346828D01*
X124898811Y-76139404D01*
X124898813Y-76139399D01*
X124958048Y-75918333D01*
X124977995Y-75690331D01*
X124958048Y-75462328D01*
X124898813Y-75241262D01*
X124898809Y-75241252D01*
X124877729Y-75196045D01*
X124867067Y-75125853D01*
X124896046Y-75061040D01*
X124955466Y-75022184D01*
X125026460Y-75021620D01*
X125081018Y-75053699D01*
X125994760Y-75967441D01*
X126028786Y-76029753D01*
X126031665Y-76056536D01*
X126031665Y-76423793D01*
X126011663Y-76491914D01*
X125994761Y-76512888D01*
X125322724Y-77184926D01*
X125260411Y-77218951D01*
X125233628Y-77221831D01*
X124201350Y-77221831D01*
X124140803Y-77228340D01*
X124140795Y-77228342D01*
X124003797Y-77279441D01*
X124003792Y-77279443D01*
X123886738Y-77367069D01*
X123799112Y-77484123D01*
X123799110Y-77484128D01*
X123748011Y-77621126D01*
X123748009Y-77621134D01*
X123741500Y-77681681D01*
X123741500Y-78001186D01*
X123721498Y-78069307D01*
X123667842Y-78115800D01*
X123597568Y-78125904D01*
X123532988Y-78096410D01*
X123501305Y-78054436D01*
X123417086Y-77873829D01*
X123367100Y-77802441D01*
X123367098Y-77802441D01*
X122764157Y-78405382D01*
X122745925Y-78337338D01*
X122680099Y-78223324D01*
X122587007Y-78130232D01*
X122472993Y-78064406D01*
X122404947Y-78046172D01*
X123007888Y-77443230D01*
X123007888Y-77443229D01*
X122936501Y-77393244D01*
X122729073Y-77296519D01*
X122729068Y-77296517D01*
X122508000Y-77237282D01*
X122508004Y-77237282D01*
X122280000Y-77217335D01*
X122051997Y-77237282D01*
X121830931Y-77296517D01*
X121830926Y-77296519D01*
X121623500Y-77393244D01*
X121552109Y-77443231D01*
X122155051Y-78046173D01*
X122087007Y-78064406D01*
X121972993Y-78130232D01*
X121879901Y-78223324D01*
X121814075Y-78337338D01*
X121795842Y-78405382D01*
X121192900Y-77802440D01*
X121142913Y-77873831D01*
X121046188Y-78081257D01*
X121046183Y-78081270D01*
X121016964Y-78190317D01*
X120980013Y-78250939D01*
X120916152Y-78281961D01*
X120845657Y-78273532D01*
X120790911Y-78228328D01*
X120773552Y-78190320D01*
X120744284Y-78081088D01*
X120647523Y-77873582D01*
X120516198Y-77686031D01*
X120354300Y-77524133D01*
X120238757Y-77443229D01*
X120166749Y-77392808D01*
X119959246Y-77296048D01*
X119959240Y-77296046D01*
X119813571Y-77257014D01*
X119738087Y-77236788D01*
X119510000Y-77216833D01*
X119281913Y-77236788D01*
X119060759Y-77296046D01*
X119060753Y-77296048D01*
X118853250Y-77392808D01*
X118665703Y-77524130D01*
X118665697Y-77524135D01*
X118503804Y-77686028D01*
X118503799Y-77686034D01*
X118372477Y-77873581D01*
X118275717Y-78081084D01*
X118275715Y-78081090D01*
X118246707Y-78189351D01*
X118209755Y-78249974D01*
X118145894Y-78280995D01*
X118075400Y-78272567D01*
X118020653Y-78227364D01*
X118003293Y-78189351D01*
X117983585Y-78115800D01*
X117974284Y-78081088D01*
X117877523Y-77873582D01*
X117746198Y-77686031D01*
X117584300Y-77524133D01*
X117468757Y-77443229D01*
X117396749Y-77392808D01*
X117189246Y-77296048D01*
X117189240Y-77296046D01*
X117043571Y-77257014D01*
X116968087Y-77236788D01*
X116740000Y-77216833D01*
X116511913Y-77236788D01*
X116290759Y-77296046D01*
X116290753Y-77296048D01*
X116083250Y-77392808D01*
X115895703Y-77524130D01*
X115895697Y-77524135D01*
X115733804Y-77686028D01*
X115733799Y-77686034D01*
X115602477Y-77873581D01*
X115505717Y-78081084D01*
X115505715Y-78081090D01*
X115476707Y-78189351D01*
X115439755Y-78249974D01*
X115375894Y-78280995D01*
X115305400Y-78272567D01*
X115250653Y-78227364D01*
X115233293Y-78189351D01*
X115213585Y-78115800D01*
X115204284Y-78081088D01*
X115107523Y-77873582D01*
X114976198Y-77686031D01*
X114814300Y-77524133D01*
X114698757Y-77443229D01*
X114626749Y-77392808D01*
X114419246Y-77296048D01*
X114419240Y-77296046D01*
X114273571Y-77257014D01*
X114198087Y-77236788D01*
X113970000Y-77216833D01*
X113741913Y-77236788D01*
X113520759Y-77296046D01*
X113520753Y-77296048D01*
X113313250Y-77392808D01*
X113125703Y-77524130D01*
X113125697Y-77524135D01*
X112963804Y-77686028D01*
X112963799Y-77686034D01*
X112832477Y-77873581D01*
X112735717Y-78081084D01*
X112735715Y-78081090D01*
X112706707Y-78189351D01*
X112676457Y-78302244D01*
X112656502Y-78530331D01*
X112676457Y-78758418D01*
X112684150Y-78787129D01*
X112735715Y-78979571D01*
X112735717Y-78979577D01*
X112759384Y-79030331D01*
X112832477Y-79187080D01*
X112963802Y-79374631D01*
X113125700Y-79536529D01*
X113157770Y-79558984D01*
X113202099Y-79614441D01*
X113211500Y-79662198D01*
X113211500Y-80144707D01*
X113218464Y-80179716D01*
X113240649Y-80291247D01*
X113297826Y-80429284D01*
X113380834Y-80553515D01*
X113380838Y-80553519D01*
X114602410Y-81775091D01*
X114636436Y-81837403D01*
X114638778Y-81875808D01*
X114636537Y-81899997D01*
X114656347Y-82113789D01*
X114715100Y-82320283D01*
X114715103Y-82320291D01*
X114810804Y-82512484D01*
X114908798Y-82642249D01*
X114940191Y-82683821D01*
X115098854Y-82828462D01*
X115098856Y-82828463D01*
X115098857Y-82828464D01*
X115281400Y-82941489D01*
X115481598Y-83019047D01*
X115481603Y-83019049D01*
X115692649Y-83058500D01*
X115692651Y-83058500D01*
X115907349Y-83058500D01*
X115907351Y-83058500D01*
X116118397Y-83019049D01*
X116318600Y-82941489D01*
X116501143Y-82828464D01*
X116659810Y-82683820D01*
X116789196Y-82512484D01*
X116884897Y-82320291D01*
X116897705Y-82275276D01*
X116935585Y-82215230D01*
X116999916Y-82185195D01*
X117070272Y-82194707D01*
X117124317Y-82240748D01*
X117131685Y-82253594D01*
X117210800Y-82412479D01*
X117210804Y-82412484D01*
X117287305Y-82513789D01*
X117340191Y-82583821D01*
X117498854Y-82728462D01*
X117498856Y-82728463D01*
X117498857Y-82728464D01*
X117681400Y-82841489D01*
X117881598Y-82919047D01*
X117881603Y-82919049D01*
X118092649Y-82958500D01*
X118092651Y-82958500D01*
X118307349Y-82958500D01*
X118307351Y-82958500D01*
X118518397Y-82919049D01*
X118579983Y-82895189D01*
X118650728Y-82889232D01*
X118713465Y-82922469D01*
X118748273Y-82984347D01*
X118751500Y-83012681D01*
X118751500Y-87159072D01*
X118731498Y-87227193D01*
X118710387Y-87252186D01*
X118640189Y-87316180D01*
X118510805Y-87487514D01*
X118415103Y-87679708D01*
X118415100Y-87679716D01*
X118356347Y-87886210D01*
X118336537Y-88100000D01*
X118356347Y-88313789D01*
X118415100Y-88520283D01*
X118415103Y-88520291D01*
X118510804Y-88712484D01*
X118622652Y-88860595D01*
X118640191Y-88883821D01*
X118798854Y-89028462D01*
X118798856Y-89028463D01*
X118798857Y-89028464D01*
X118981400Y-89141489D01*
X118981408Y-89141492D01*
X119181598Y-89219047D01*
X119181603Y-89219049D01*
X119392649Y-89258500D01*
X119392651Y-89258500D01*
X119607349Y-89258500D01*
X119607351Y-89258500D01*
X119818397Y-89219049D01*
X120018600Y-89141489D01*
X120201143Y-89028464D01*
X120359810Y-88883820D01*
X120489196Y-88712484D01*
X120584897Y-88520291D01*
X120643653Y-88313786D01*
X120663463Y-88100000D01*
X120643653Y-87886214D01*
X120630928Y-87841492D01*
X120584899Y-87679716D01*
X120584898Y-87679715D01*
X120584897Y-87679709D01*
X120489196Y-87487516D01*
X120359810Y-87316180D01*
X120309613Y-87270418D01*
X120272747Y-87209743D01*
X120268500Y-87177304D01*
X120268500Y-86540967D01*
X128772001Y-86540967D01*
X128786801Y-86672329D01*
X128786803Y-86672340D01*
X128845078Y-86838880D01*
X128845079Y-86838883D01*
X128938951Y-86988279D01*
X128938952Y-86988281D01*
X129063718Y-87113047D01*
X129063720Y-87113048D01*
X129213116Y-87206920D01*
X129213119Y-87206921D01*
X129379660Y-87265196D01*
X129511032Y-87279999D01*
X129926000Y-87279999D01*
X129926000Y-86476000D01*
X128772001Y-86476000D01*
X128772001Y-86540967D01*
X120268500Y-86540967D01*
X120268500Y-84926000D01*
X124106502Y-84926000D01*
X124126457Y-85154086D01*
X124185715Y-85375240D01*
X124185717Y-85375246D01*
X124282477Y-85582749D01*
X124367729Y-85704502D01*
X124413802Y-85770300D01*
X124575700Y-85932198D01*
X124763251Y-86063523D01*
X124970757Y-86160284D01*
X125191913Y-86219543D01*
X125420000Y-86239498D01*
X125648087Y-86219543D01*
X125869243Y-86160284D01*
X126076749Y-86063523D01*
X126264300Y-85932198D01*
X126426198Y-85770300D01*
X126437618Y-85753990D01*
X126448656Y-85738228D01*
X126504113Y-85693900D01*
X126551868Y-85684500D01*
X128655629Y-85684500D01*
X128723750Y-85704502D01*
X128770243Y-85758158D01*
X128780837Y-85824609D01*
X128772000Y-85903032D01*
X128772000Y-85968000D01*
X130303670Y-85968000D01*
X130279925Y-85991745D01*
X130230556Y-86077255D01*
X130205000Y-86172630D01*
X130205000Y-86271370D01*
X130230556Y-86366745D01*
X130279925Y-86452255D01*
X130349745Y-86522075D01*
X130434000Y-86570719D01*
X130434000Y-87279999D01*
X130848968Y-87279999D01*
X130980329Y-87265198D01*
X130980340Y-87265196D01*
X131146880Y-87206921D01*
X131146883Y-87206920D01*
X131296279Y-87113048D01*
X131296281Y-87113047D01*
X131421047Y-86988281D01*
X131421048Y-86988279D01*
X131514920Y-86838883D01*
X131514921Y-86838880D01*
X131573196Y-86672339D01*
X131588000Y-86540967D01*
X131588000Y-86476000D01*
X130856330Y-86476000D01*
X130880075Y-86452255D01*
X130929444Y-86366745D01*
X130955000Y-86271370D01*
X130955000Y-86172630D01*
X130929444Y-86077255D01*
X130880075Y-85991745D01*
X130856330Y-85968000D01*
X131349012Y-85968000D01*
X131390626Y-85975070D01*
X131449552Y-85995690D01*
X131580996Y-86010500D01*
X132919004Y-86010500D01*
X133050448Y-85995690D01*
X133217099Y-85937376D01*
X133366596Y-85843441D01*
X133491441Y-85718596D01*
X133585376Y-85569099D01*
X133643690Y-85402448D01*
X133658500Y-85271004D01*
X133658500Y-84632996D01*
X133643690Y-84501552D01*
X133585376Y-84334901D01*
X133570844Y-84311773D01*
X133491441Y-84185403D01*
X133366596Y-84060558D01*
X133217101Y-83966625D01*
X133217099Y-83966624D01*
X133181270Y-83954087D01*
X133050448Y-83908310D01*
X132919004Y-83893500D01*
X131745371Y-83893500D01*
X131677250Y-83873498D01*
X131630757Y-83819842D01*
X131620653Y-83749568D01*
X131650147Y-83684988D01*
X131656276Y-83678405D01*
X131739276Y-83595405D01*
X131801588Y-83561379D01*
X131828371Y-83558500D01*
X133633629Y-83558500D01*
X133701750Y-83578502D01*
X133722724Y-83595405D01*
X134442485Y-84315166D01*
X134489926Y-84346865D01*
X134489925Y-84346865D01*
X134566711Y-84398171D01*
X134566713Y-84398172D01*
X134566716Y-84398174D01*
X134704754Y-84455351D01*
X134851294Y-84484500D01*
X134851295Y-84484500D01*
X135000705Y-84484500D01*
X137628132Y-84484500D01*
X137696253Y-84504502D01*
X137731344Y-84538228D01*
X137753797Y-84570293D01*
X137753802Y-84570300D01*
X137915700Y-84732198D01*
X138103251Y-84863523D01*
X138310757Y-84960284D01*
X138531913Y-85019543D01*
X138760000Y-85039498D01*
X138988087Y-85019543D01*
X139209243Y-84960284D01*
X139416749Y-84863523D01*
X139604300Y-84732198D01*
X139766198Y-84570300D01*
X139897523Y-84382749D01*
X139994284Y-84175243D01*
X140053543Y-83954087D01*
X140073498Y-83726000D01*
X140053543Y-83497913D01*
X139994284Y-83276757D01*
X139897523Y-83069251D01*
X139766198Y-82881700D01*
X139604300Y-82719802D01*
X139416749Y-82588477D01*
X139406760Y-82583819D01*
X139209246Y-82491717D01*
X139209240Y-82491715D01*
X139115771Y-82466670D01*
X138988087Y-82432457D01*
X138760000Y-82412502D01*
X138531913Y-82432457D01*
X138310759Y-82491715D01*
X138310753Y-82491717D01*
X138103250Y-82588477D01*
X137915703Y-82719799D01*
X137915697Y-82719804D01*
X137753804Y-82881697D01*
X137753797Y-82881706D01*
X137731344Y-82913772D01*
X137675887Y-82958100D01*
X137628132Y-82967500D01*
X135292371Y-82967500D01*
X135224250Y-82947498D01*
X135203276Y-82930595D01*
X134483519Y-82210838D01*
X134483518Y-82210837D01*
X134483515Y-82210834D01*
X134359284Y-82127826D01*
X134221247Y-82070649D01*
X134147976Y-82056074D01*
X134147975Y-82056073D01*
X134074711Y-82041500D01*
X134074706Y-82041500D01*
X131387294Y-82041500D01*
X131387288Y-82041500D01*
X131314024Y-82056073D01*
X131314024Y-82056074D01*
X131240753Y-82070649D01*
X131240751Y-82070649D01*
X131240750Y-82070650D01*
X131240749Y-82070650D01*
X131183576Y-82094332D01*
X131183575Y-82094331D01*
X131102720Y-82127823D01*
X131102711Y-82127828D01*
X131055633Y-82159284D01*
X131055634Y-82159285D01*
X130978488Y-82210832D01*
X130978481Y-82210837D01*
X130669095Y-82520224D01*
X130606783Y-82554250D01*
X130535968Y-82549185D01*
X130490905Y-82520224D01*
X128880458Y-80909777D01*
X128846432Y-80847465D01*
X128844091Y-80809056D01*
X128846502Y-80783040D01*
X128863463Y-80600000D01*
X128843653Y-80386214D01*
X128816632Y-80291247D01*
X128784899Y-80179716D01*
X128784898Y-80179715D01*
X128784897Y-80179709D01*
X128689196Y-79987516D01*
X128559810Y-79816180D01*
X128521461Y-79781220D01*
X128401145Y-79671537D01*
X128251336Y-79578780D01*
X128218600Y-79558511D01*
X128218598Y-79558510D01*
X128218591Y-79558507D01*
X128018401Y-79480952D01*
X128018402Y-79480952D01*
X128018397Y-79480951D01*
X127807351Y-79441500D01*
X127592649Y-79441500D01*
X127433390Y-79471270D01*
X127381597Y-79480952D01*
X127181408Y-79558507D01*
X127181401Y-79558510D01*
X126998854Y-79671537D01*
X126840191Y-79816178D01*
X126710805Y-79987514D01*
X126615103Y-80179708D01*
X126615100Y-80179716D01*
X126556347Y-80386210D01*
X126536537Y-80600000D01*
X126556347Y-80813789D01*
X126615100Y-81020283D01*
X126615103Y-81020291D01*
X126710804Y-81212484D01*
X126830915Y-81371537D01*
X126840191Y-81383821D01*
X126998854Y-81528462D01*
X126998856Y-81528463D01*
X126998857Y-81528464D01*
X127181400Y-81641489D01*
X127181408Y-81641492D01*
X127381595Y-81719046D01*
X127381597Y-81719047D01*
X127381598Y-81719047D01*
X127381603Y-81719049D01*
X127543437Y-81749300D01*
X127606720Y-81781478D01*
X127609378Y-81784059D01*
X128742189Y-82916870D01*
X128776215Y-82979182D01*
X128778372Y-83019432D01*
X128771501Y-83083347D01*
X128771500Y-83083367D01*
X128771500Y-84041500D01*
X128751498Y-84109621D01*
X128697842Y-84156114D01*
X128645500Y-84167500D01*
X126551868Y-84167500D01*
X126483747Y-84147498D01*
X126448656Y-84113772D01*
X126426202Y-84081706D01*
X126426200Y-84081703D01*
X126426198Y-84081700D01*
X126264300Y-83919802D01*
X126076749Y-83788477D01*
X125993308Y-83749568D01*
X125869246Y-83691717D01*
X125869240Y-83691715D01*
X125775771Y-83666670D01*
X125648087Y-83632457D01*
X125420000Y-83612502D01*
X125191913Y-83632457D01*
X124970759Y-83691715D01*
X124970753Y-83691717D01*
X124763250Y-83788477D01*
X124575703Y-83919799D01*
X124575697Y-83919804D01*
X124413804Y-84081697D01*
X124413799Y-84081703D01*
X124282477Y-84269250D01*
X124185717Y-84476753D01*
X124185715Y-84476759D01*
X124126457Y-84697913D01*
X124106502Y-84926000D01*
X120268500Y-84926000D01*
X120268500Y-79662198D01*
X120288502Y-79594077D01*
X120322228Y-79558985D01*
X120354300Y-79536529D01*
X120516198Y-79374631D01*
X120647523Y-79187080D01*
X120744284Y-78979574D01*
X120773552Y-78870341D01*
X120810502Y-78809723D01*
X120874363Y-78778701D01*
X120944857Y-78787129D01*
X120999604Y-78832331D01*
X121016965Y-78870344D01*
X121046187Y-78979402D01*
X121046188Y-78979404D01*
X121142913Y-79186832D01*
X121192899Y-79258219D01*
X121795841Y-78655277D01*
X121814075Y-78723324D01*
X121879901Y-78837338D01*
X121972993Y-78930430D01*
X122087007Y-78996256D01*
X122155051Y-79014488D01*
X121552110Y-79617429D01*
X121552110Y-79617431D01*
X121623498Y-79667417D01*
X121830926Y-79764142D01*
X121830931Y-79764144D01*
X122051999Y-79823379D01*
X122051995Y-79823379D01*
X122280000Y-79843326D01*
X122508002Y-79823379D01*
X122729068Y-79764144D01*
X122729073Y-79764142D01*
X122936497Y-79667419D01*
X123007888Y-79617430D01*
X123007888Y-79617428D01*
X122404948Y-79014488D01*
X122472993Y-78996256D01*
X122587007Y-78930430D01*
X122680099Y-78837338D01*
X122745925Y-78723324D01*
X122764157Y-78655279D01*
X123367097Y-79258219D01*
X123367099Y-79258219D01*
X123417088Y-79186828D01*
X123501305Y-79006225D01*
X123548222Y-78952940D01*
X123616500Y-78933479D01*
X123684459Y-78954021D01*
X123730525Y-79008044D01*
X123741500Y-79059475D01*
X123741500Y-79378980D01*
X123748009Y-79439527D01*
X123748011Y-79439535D01*
X123799110Y-79576533D01*
X123799112Y-79576538D01*
X123886738Y-79693592D01*
X124003792Y-79781218D01*
X124003794Y-79781219D01*
X124003796Y-79781220D01*
X124062875Y-79803255D01*
X124140795Y-79832319D01*
X124140803Y-79832321D01*
X124201350Y-79838830D01*
X124201355Y-79838830D01*
X124201362Y-79838831D01*
X124201368Y-79838831D01*
X125898632Y-79838831D01*
X125898638Y-79838831D01*
X125898645Y-79838830D01*
X125898649Y-79838830D01*
X125959196Y-79832321D01*
X125959199Y-79832320D01*
X125959201Y-79832320D01*
X126096204Y-79781220D01*
X126119018Y-79764142D01*
X126213261Y-79693592D01*
X126300887Y-79576538D01*
X126300887Y-79576537D01*
X126300889Y-79576535D01*
X126351989Y-79439532D01*
X126358500Y-79378969D01*
X126358500Y-78346701D01*
X126378502Y-78278580D01*
X126395405Y-78257606D01*
X129357606Y-75295405D01*
X129419918Y-75261379D01*
X129446701Y-75258500D01*
X130019230Y-75258500D01*
X130087351Y-75278502D01*
X130133844Y-75332158D01*
X130143948Y-75402432D01*
X130116315Y-75464815D01*
X129976971Y-75633252D01*
X129976969Y-75633255D01*
X129807882Y-75899694D01*
X129807875Y-75899708D01*
X129673513Y-76185242D01*
X129673509Y-76185251D01*
X129575992Y-76485375D01*
X129575989Y-76485388D01*
X129516856Y-76795369D01*
X129516854Y-76795386D01*
X129497041Y-77110324D01*
X129497041Y-77110337D01*
X129516854Y-77425275D01*
X129516856Y-77425292D01*
X129575989Y-77735273D01*
X129575992Y-77735286D01*
X129673509Y-78035410D01*
X129673513Y-78035419D01*
X129807875Y-78320953D01*
X129807882Y-78320967D01*
X129976969Y-78587406D01*
X129976971Y-78587409D01*
X130066042Y-78695077D01*
X130713367Y-78047752D01*
X130789588Y-78152661D01*
X130967670Y-78330743D01*
X131072576Y-78406962D01*
X130422522Y-79057017D01*
X130422522Y-79057019D01*
X130663482Y-79232087D01*
X130940034Y-79384123D01*
X131233460Y-79500299D01*
X131233466Y-79500301D01*
X131539103Y-79578775D01*
X131539130Y-79578780D01*
X131852195Y-79618329D01*
X131852214Y-79618331D01*
X132167786Y-79618331D01*
X132167804Y-79618329D01*
X132480869Y-79578780D01*
X132480896Y-79578775D01*
X132786533Y-79500301D01*
X132786539Y-79500299D01*
X133079965Y-79384123D01*
X133356512Y-79232090D01*
X133597476Y-79057019D01*
X133597476Y-79057017D01*
X132947422Y-78406962D01*
X133052330Y-78330743D01*
X133230412Y-78152661D01*
X133306632Y-78047753D01*
X133953956Y-78695077D01*
X134043030Y-78587406D01*
X134043033Y-78587402D01*
X134212117Y-78320967D01*
X134212124Y-78320953D01*
X134346486Y-78035419D01*
X134346490Y-78035410D01*
X134444007Y-77735286D01*
X134444010Y-77735273D01*
X134503143Y-77425292D01*
X134503145Y-77425275D01*
X134522959Y-77110337D01*
X134522959Y-77110324D01*
X134503145Y-76795386D01*
X134503143Y-76795369D01*
X134444010Y-76485388D01*
X134444007Y-76485375D01*
X134346490Y-76185251D01*
X134346486Y-76185242D01*
X134212124Y-75899708D01*
X134212117Y-75899694D01*
X134043030Y-75633255D01*
X134043028Y-75633252D01*
X133903685Y-75464815D01*
X133875675Y-75399578D01*
X133887382Y-75329553D01*
X133935089Y-75276973D01*
X134000770Y-75258500D01*
X137119230Y-75258500D01*
X137187351Y-75278502D01*
X137233844Y-75332158D01*
X137243948Y-75402432D01*
X137216315Y-75464815D01*
X137076971Y-75633252D01*
X137076969Y-75633255D01*
X136907882Y-75899694D01*
X136907875Y-75899708D01*
X136773513Y-76185242D01*
X136773509Y-76185251D01*
X136675992Y-76485375D01*
X136675989Y-76485388D01*
X136616856Y-76795369D01*
X136616854Y-76795386D01*
X136597041Y-77110324D01*
X136597041Y-77110337D01*
X136616854Y-77425275D01*
X136616856Y-77425292D01*
X136675989Y-77735273D01*
X136675992Y-77735286D01*
X136773509Y-78035410D01*
X136773513Y-78035419D01*
X136907875Y-78320953D01*
X136907882Y-78320967D01*
X137076969Y-78587406D01*
X137076971Y-78587409D01*
X137166042Y-78695077D01*
X137813367Y-78047752D01*
X137889588Y-78152661D01*
X138067670Y-78330743D01*
X138172576Y-78406962D01*
X137522522Y-79057017D01*
X137522522Y-79057019D01*
X137763482Y-79232087D01*
X138040034Y-79384123D01*
X138333460Y-79500299D01*
X138333466Y-79500301D01*
X138639103Y-79578775D01*
X138639130Y-79578780D01*
X138952195Y-79618329D01*
X138952214Y-79618331D01*
X139267786Y-79618331D01*
X139267804Y-79618329D01*
X139580869Y-79578780D01*
X139580896Y-79578775D01*
X139886533Y-79500301D01*
X139886539Y-79500299D01*
X140179965Y-79384123D01*
X140456512Y-79232090D01*
X140697476Y-79057019D01*
X140697476Y-79057017D01*
X140047422Y-78406962D01*
X140152330Y-78330743D01*
X140330412Y-78152661D01*
X140406632Y-78047753D01*
X141053956Y-78695077D01*
X141143030Y-78587406D01*
X141143033Y-78587402D01*
X141312117Y-78320967D01*
X141312124Y-78320953D01*
X141446486Y-78035419D01*
X141446490Y-78035410D01*
X141544007Y-77735286D01*
X141544010Y-77735273D01*
X141603143Y-77425292D01*
X141603145Y-77425275D01*
X141622959Y-77110337D01*
X141622959Y-77110324D01*
X141603145Y-76795386D01*
X141603143Y-76795369D01*
X141544010Y-76485388D01*
X141544007Y-76485375D01*
X141446490Y-76185251D01*
X141446486Y-76185242D01*
X141312124Y-75899708D01*
X141312117Y-75899694D01*
X141143030Y-75633255D01*
X141143028Y-75633252D01*
X141003685Y-75464815D01*
X140975675Y-75399578D01*
X140987382Y-75329553D01*
X141035089Y-75276973D01*
X141100770Y-75258500D01*
X145898298Y-75258500D01*
X145966419Y-75278502D01*
X145987393Y-75295405D01*
X146119328Y-75427340D01*
X146153354Y-75489652D01*
X146155754Y-75527415D01*
X146141502Y-75690329D01*
X146161457Y-75918417D01*
X146220715Y-76139571D01*
X146220717Y-76139577D01*
X146317477Y-76347080D01*
X146414321Y-76485388D01*
X146448802Y-76534631D01*
X146610700Y-76696529D01*
X146798251Y-76827854D01*
X147005757Y-76924615D01*
X147226913Y-76983874D01*
X147455000Y-77003829D01*
X147683087Y-76983874D01*
X147904243Y-76924615D01*
X148111749Y-76827854D01*
X148299300Y-76696529D01*
X148461198Y-76534631D01*
X148476423Y-76512888D01*
X148483656Y-76502559D01*
X148539113Y-76458231D01*
X148586868Y-76448831D01*
X149093132Y-76448831D01*
X149161253Y-76468833D01*
X149196344Y-76502559D01*
X149203577Y-76512888D01*
X149218802Y-76534631D01*
X149380700Y-76696529D01*
X149412770Y-76718984D01*
X149457099Y-76774441D01*
X149466500Y-76822198D01*
X149466500Y-77180922D01*
X149446498Y-77249043D01*
X149392842Y-77295536D01*
X149322568Y-77305640D01*
X149294634Y-77297319D01*
X149294413Y-77297929D01*
X149289240Y-77296046D01*
X149143571Y-77257014D01*
X149068087Y-77236788D01*
X148840000Y-77216833D01*
X148611913Y-77236788D01*
X148390759Y-77296046D01*
X148390753Y-77296048D01*
X148183250Y-77392808D01*
X147995703Y-77524130D01*
X147995697Y-77524135D01*
X147833804Y-77686028D01*
X147833799Y-77686034D01*
X147702477Y-77873581D01*
X147605717Y-78081084D01*
X147605715Y-78081090D01*
X147576707Y-78189351D01*
X147539755Y-78249974D01*
X147475894Y-78280995D01*
X147405400Y-78272567D01*
X147350653Y-78227364D01*
X147333293Y-78189351D01*
X147313585Y-78115800D01*
X147304284Y-78081088D01*
X147207523Y-77873582D01*
X147076198Y-77686031D01*
X146914300Y-77524133D01*
X146798757Y-77443229D01*
X146726749Y-77392808D01*
X146519246Y-77296048D01*
X146519240Y-77296046D01*
X146373571Y-77257014D01*
X146298087Y-77236788D01*
X146070000Y-77216833D01*
X145841913Y-77236788D01*
X145620759Y-77296046D01*
X145620753Y-77296048D01*
X145413250Y-77392808D01*
X145225703Y-77524130D01*
X145225697Y-77524135D01*
X145063804Y-77686028D01*
X145063799Y-77686034D01*
X144932477Y-77873581D01*
X144835717Y-78081084D01*
X144835715Y-78081090D01*
X144776457Y-78302244D01*
X144756502Y-78530331D01*
X144770754Y-78693244D01*
X144756764Y-78762849D01*
X144734328Y-78793320D01*
X140610840Y-82916808D01*
X140610835Y-82916814D01*
X140527826Y-83041046D01*
X140473384Y-83172482D01*
X140473383Y-83172485D01*
X140470649Y-83179083D01*
X140441500Y-83325621D01*
X140441500Y-85868188D01*
X140421498Y-85936309D01*
X140400387Y-85961302D01*
X140340189Y-86016180D01*
X140210805Y-86187514D01*
X140115103Y-86379708D01*
X140115100Y-86379716D01*
X140056347Y-86586210D01*
X140036537Y-86800000D01*
X140056347Y-87013789D01*
X140115100Y-87220283D01*
X140115103Y-87220291D01*
X140210804Y-87412484D01*
X140210805Y-87412485D01*
X140340191Y-87583821D01*
X140498854Y-87728462D01*
X140498856Y-87728463D01*
X140498857Y-87728464D01*
X140681400Y-87841489D01*
X140681408Y-87841492D01*
X140881598Y-87919047D01*
X140881603Y-87919049D01*
X141092649Y-87958500D01*
X141092651Y-87958500D01*
X141307349Y-87958500D01*
X141307351Y-87958500D01*
X141518397Y-87919049D01*
X141718600Y-87841489D01*
X141901143Y-87728464D01*
X142059810Y-87583820D01*
X142189196Y-87412484D01*
X142284897Y-87220291D01*
X142343653Y-87013786D01*
X142363463Y-86800000D01*
X142343653Y-86586214D01*
X142331855Y-86544750D01*
X142284899Y-86379716D01*
X142284897Y-86379710D01*
X142284897Y-86379709D01*
X142189196Y-86187516D01*
X142059810Y-86016180D01*
X142037332Y-85995688D01*
X141999613Y-85961302D01*
X141962747Y-85900627D01*
X141958500Y-85868188D01*
X141958500Y-83766701D01*
X141978502Y-83698580D01*
X141995400Y-83677611D01*
X145807011Y-79865999D01*
X145869321Y-79831975D01*
X145907081Y-79829575D01*
X146070000Y-79843829D01*
X146145755Y-79837201D01*
X146215359Y-79851189D01*
X146266352Y-79900588D01*
X146282543Y-79969713D01*
X146258791Y-80036619D01*
X146245832Y-80051816D01*
X143710840Y-82586808D01*
X143710835Y-82586814D01*
X143627826Y-82711047D01*
X143570651Y-82849078D01*
X143570649Y-82849083D01*
X143560710Y-82899052D01*
X143541500Y-82995624D01*
X143541500Y-100533629D01*
X143521498Y-100601750D01*
X143504595Y-100622724D01*
X142356724Y-101770595D01*
X142294412Y-101804621D01*
X142267629Y-101807500D01*
X139891868Y-101807500D01*
X139823747Y-101787498D01*
X139788656Y-101753772D01*
X139766202Y-101721706D01*
X139766200Y-101721703D01*
X139766198Y-101721700D01*
X139604300Y-101559802D01*
X139527761Y-101506209D01*
X139416749Y-101428477D01*
X139209246Y-101331717D01*
X139209240Y-101331715D01*
X139115771Y-101306670D01*
X138988087Y-101272457D01*
X138760000Y-101252502D01*
X138531913Y-101272457D01*
X138310759Y-101331715D01*
X138310753Y-101331717D01*
X138103250Y-101428477D01*
X137915703Y-101559799D01*
X137915697Y-101559804D01*
X137753804Y-101721697D01*
X137753797Y-101721706D01*
X137731344Y-101753772D01*
X137675887Y-101798100D01*
X137628132Y-101807500D01*
X131655560Y-101807500D01*
X131587439Y-101787498D01*
X131540946Y-101733842D01*
X131537505Y-101725534D01*
X131530889Y-101707797D01*
X131530889Y-101707796D01*
X131530887Y-101707794D01*
X131530887Y-101707792D01*
X131443261Y-101590738D01*
X131326207Y-101503112D01*
X131326202Y-101503110D01*
X131189204Y-101452011D01*
X131189196Y-101452009D01*
X131128649Y-101445500D01*
X131128638Y-101445500D01*
X129231362Y-101445500D01*
X129231350Y-101445500D01*
X129170803Y-101452009D01*
X129170795Y-101452011D01*
X129033797Y-101503110D01*
X129033792Y-101503112D01*
X128916738Y-101590738D01*
X128829112Y-101707792D01*
X128829110Y-101707797D01*
X128778011Y-101844795D01*
X128778009Y-101844803D01*
X128771500Y-101905350D01*
X128771500Y-102881500D01*
X128751498Y-102949621D01*
X128697842Y-102996114D01*
X128645500Y-103007500D01*
X126551868Y-103007500D01*
X126483747Y-102987498D01*
X126448656Y-102953772D01*
X126426202Y-102921706D01*
X126426200Y-102921703D01*
X126426198Y-102921700D01*
X126264300Y-102759802D01*
X126198715Y-102713879D01*
X126076749Y-102628477D01*
X125869246Y-102531717D01*
X125869240Y-102531715D01*
X125775771Y-102506670D01*
X125648087Y-102472457D01*
X125420000Y-102452502D01*
X125191913Y-102472457D01*
X124970759Y-102531715D01*
X124970753Y-102531717D01*
X124763250Y-102628477D01*
X124575703Y-102759799D01*
X124575697Y-102759804D01*
X124413804Y-102921697D01*
X124413799Y-102921703D01*
X124282477Y-103109250D01*
X124185717Y-103316753D01*
X124185715Y-103316759D01*
X124127087Y-103535561D01*
X124126457Y-103537913D01*
X124106502Y-103766000D01*
X124126457Y-103994087D01*
X124152962Y-104093004D01*
X124185715Y-104215240D01*
X124185717Y-104215246D01*
X124282477Y-104422749D01*
X124367729Y-104544502D01*
X124413802Y-104610300D01*
X124575700Y-104772198D01*
X124763251Y-104903523D01*
X124970757Y-105000284D01*
X125191913Y-105059543D01*
X125420000Y-105079498D01*
X125648087Y-105059543D01*
X125869243Y-105000284D01*
X126076749Y-104903523D01*
X126264300Y-104772198D01*
X126426198Y-104610300D01*
X126437618Y-104593990D01*
X126448656Y-104578228D01*
X126504113Y-104533900D01*
X126551868Y-104524500D01*
X128653601Y-104524500D01*
X128721722Y-104544502D01*
X128768215Y-104598158D01*
X128778809Y-104664609D01*
X128772000Y-104725032D01*
X128772000Y-104790000D01*
X130303670Y-104790000D01*
X130279925Y-104813745D01*
X130230556Y-104899255D01*
X130205000Y-104994630D01*
X130205000Y-105093370D01*
X130230556Y-105188745D01*
X130279925Y-105274255D01*
X130349745Y-105344075D01*
X130434000Y-105392719D01*
X130434000Y-106101999D01*
X130848968Y-106101999D01*
X130980329Y-106087198D01*
X130980340Y-106087196D01*
X131146880Y-106028921D01*
X131146883Y-106028920D01*
X131296279Y-105935048D01*
X131296281Y-105935047D01*
X131421047Y-105810281D01*
X131421048Y-105810279D01*
X131514920Y-105660883D01*
X131514921Y-105660880D01*
X131573196Y-105494339D01*
X131588000Y-105362967D01*
X131588000Y-105298000D01*
X130856330Y-105298000D01*
X130880075Y-105274255D01*
X130929444Y-105188745D01*
X130955000Y-105093370D01*
X130955000Y-104994630D01*
X130929444Y-104899255D01*
X130880075Y-104813745D01*
X130856330Y-104790000D01*
X131349012Y-104790000D01*
X131390626Y-104797070D01*
X131449552Y-104817690D01*
X131580996Y-104832500D01*
X132919004Y-104832500D01*
X133050448Y-104817690D01*
X133217099Y-104759376D01*
X133366596Y-104665441D01*
X133491441Y-104540596D01*
X133585376Y-104391099D01*
X133643690Y-104224448D01*
X133658500Y-104093004D01*
X133658500Y-103454996D01*
X133658500Y-103451461D01*
X133660071Y-103451461D01*
X133674793Y-103388433D01*
X133725756Y-103339003D01*
X133784446Y-103324500D01*
X137628132Y-103324500D01*
X137696253Y-103344502D01*
X137731344Y-103378228D01*
X137743934Y-103396207D01*
X137753802Y-103410300D01*
X137915700Y-103572198D01*
X138103251Y-103703523D01*
X138310757Y-103800284D01*
X138531913Y-103859543D01*
X138760000Y-103879498D01*
X138988087Y-103859543D01*
X139209243Y-103800284D01*
X139416749Y-103703523D01*
X139604300Y-103572198D01*
X139766198Y-103410300D01*
X139777618Y-103393990D01*
X139788656Y-103378228D01*
X139844113Y-103333900D01*
X139891868Y-103324500D01*
X142708706Y-103324500D01*
X142830849Y-103300204D01*
X142855247Y-103295351D01*
X142993284Y-103238174D01*
X143117515Y-103155166D01*
X144889166Y-101383515D01*
X144972174Y-101259284D01*
X145029351Y-101121246D01*
X145035257Y-101091556D01*
X145058500Y-100974706D01*
X145058500Y-83436701D01*
X145078502Y-83368580D01*
X145095400Y-83347611D01*
X148577011Y-79865999D01*
X148639321Y-79831975D01*
X148677081Y-79829575D01*
X148840000Y-79843829D01*
X149068087Y-79823874D01*
X149289243Y-79764615D01*
X149289253Y-79764610D01*
X149294413Y-79762733D01*
X149295008Y-79764368D01*
X149357430Y-79754882D01*
X149422245Y-79783855D01*
X149461107Y-79843271D01*
X149466500Y-79879739D01*
X149466500Y-82054627D01*
X149446498Y-82122748D01*
X149429595Y-82143723D01*
X149182988Y-82390329D01*
X149120676Y-82424354D01*
X149082912Y-82426754D01*
X148920000Y-82412502D01*
X148691913Y-82432457D01*
X148470759Y-82491715D01*
X148470753Y-82491717D01*
X148263250Y-82588477D01*
X148075703Y-82719799D01*
X148075697Y-82719804D01*
X147913804Y-82881697D01*
X147913799Y-82881703D01*
X147782477Y-83069250D01*
X147685717Y-83276753D01*
X147685715Y-83276759D01*
X147627644Y-83493482D01*
X147626457Y-83497913D01*
X147606502Y-83726000D01*
X147626457Y-83954087D01*
X147629817Y-83966625D01*
X147685715Y-84175240D01*
X147685717Y-84175246D01*
X147782477Y-84382749D01*
X147867729Y-84504502D01*
X147913802Y-84570300D01*
X148075700Y-84732198D01*
X148107770Y-84754653D01*
X148152099Y-84810110D01*
X148161500Y-84857867D01*
X148161500Y-88874132D01*
X148141498Y-88942253D01*
X148107772Y-88977344D01*
X148075706Y-88999797D01*
X148075697Y-88999804D01*
X147913804Y-89161697D01*
X147913799Y-89161703D01*
X147782477Y-89349250D01*
X147685717Y-89556753D01*
X147685716Y-89556757D01*
X147626457Y-89777913D01*
X147606502Y-90006000D01*
X147626457Y-90234087D01*
X147649879Y-90321500D01*
X147685715Y-90455240D01*
X147685717Y-90455246D01*
X147722360Y-90533827D01*
X147782477Y-90662749D01*
X147913802Y-90850300D01*
X148075700Y-91012198D01*
X148107770Y-91034653D01*
X148152099Y-91090110D01*
X148161500Y-91137867D01*
X148161500Y-95154132D01*
X148141498Y-95222253D01*
X148107772Y-95257344D01*
X148075706Y-95279797D01*
X148075697Y-95279804D01*
X147913804Y-95441697D01*
X147913799Y-95441703D01*
X147782477Y-95629250D01*
X147685717Y-95836753D01*
X147685715Y-95836759D01*
X147680290Y-95857007D01*
X147626457Y-96057913D01*
X147606502Y-96286000D01*
X147626457Y-96514087D01*
X147627180Y-96516784D01*
X147685715Y-96735240D01*
X147685717Y-96735246D01*
X147782477Y-96942749D01*
X147913802Y-97130300D01*
X148075700Y-97292198D01*
X148107770Y-97314653D01*
X148152099Y-97370110D01*
X148161500Y-97417867D01*
X148161500Y-97612337D01*
X148159079Y-97636919D01*
X148141500Y-97725291D01*
X148141500Y-97874707D01*
X148159079Y-97963080D01*
X148161500Y-97987662D01*
X148161500Y-101434132D01*
X148141498Y-101502253D01*
X148107772Y-101537344D01*
X148075706Y-101559797D01*
X148075697Y-101559804D01*
X147913804Y-101721697D01*
X147913799Y-101721703D01*
X147782477Y-101909250D01*
X147685717Y-102116753D01*
X147685716Y-102116757D01*
X147626457Y-102337913D01*
X147606502Y-102566000D01*
X147623457Y-102759802D01*
X147626457Y-102794086D01*
X147685715Y-103015240D01*
X147685717Y-103015246D01*
X147782477Y-103222749D01*
X147898490Y-103388433D01*
X147913802Y-103410300D01*
X148075700Y-103572198D01*
X148107770Y-103594653D01*
X148152099Y-103650110D01*
X148161500Y-103697867D01*
X148161500Y-107714132D01*
X148141498Y-107782253D01*
X148107772Y-107817344D01*
X148075706Y-107839797D01*
X148075697Y-107839804D01*
X147913804Y-108001697D01*
X147913799Y-108001703D01*
X147782477Y-108189250D01*
X147685717Y-108396753D01*
X147685715Y-108396759D01*
X147626457Y-108617913D01*
X147606502Y-108846000D01*
X147626457Y-109074087D01*
X147649879Y-109161500D01*
X147685715Y-109295240D01*
X147685717Y-109295246D01*
X147782477Y-109502749D01*
X147867729Y-109624502D01*
X147913802Y-109690300D01*
X148075700Y-109852198D01*
X148107770Y-109874653D01*
X148152099Y-109930110D01*
X148161500Y-109977867D01*
X148161500Y-113994132D01*
X148141498Y-114062253D01*
X148107772Y-114097344D01*
X148075706Y-114119797D01*
X148075697Y-114119804D01*
X147913804Y-114281697D01*
X147913799Y-114281703D01*
X147782477Y-114469250D01*
X147685717Y-114676753D01*
X147685715Y-114676759D01*
X147626457Y-114897913D01*
X147606502Y-115126000D01*
X147620754Y-115288913D01*
X147606764Y-115358518D01*
X147584328Y-115388989D01*
X145460840Y-117512477D01*
X145460835Y-117512483D01*
X145377826Y-117636715D01*
X145320898Y-117774154D01*
X145320881Y-117774195D01*
X145320649Y-117774753D01*
X145291500Y-117921290D01*
X145291500Y-120838298D01*
X145271498Y-120906419D01*
X145217842Y-120952912D01*
X145178968Y-120963576D01*
X145140803Y-120967678D01*
X145140795Y-120967680D01*
X145003797Y-121018779D01*
X145003792Y-121018781D01*
X144886738Y-121106407D01*
X144799112Y-121223461D01*
X144799110Y-121223466D01*
X144748011Y-121360464D01*
X144748009Y-121360472D01*
X144741500Y-121421019D01*
X144741500Y-122453298D01*
X144721498Y-122521419D01*
X144704595Y-122542393D01*
X144310838Y-122936149D01*
X144310833Y-122936155D01*
X144227827Y-123060383D01*
X144170650Y-123198419D01*
X144156074Y-123271694D01*
X144141500Y-123344957D01*
X144141500Y-125574707D01*
X144153763Y-125636355D01*
X144170649Y-125721247D01*
X144227826Y-125859284D01*
X144310834Y-125983515D01*
X144310838Y-125983519D01*
X145253724Y-126926405D01*
X145287750Y-126988717D01*
X145282685Y-127059532D01*
X145240138Y-127116368D01*
X145173618Y-127141179D01*
X145164629Y-127141500D01*
X126801702Y-127141500D01*
X126733581Y-127121498D01*
X126712607Y-127104595D01*
X124980670Y-125372658D01*
X124946644Y-125310346D01*
X124944245Y-125272581D01*
X124948607Y-125222724D01*
X124958498Y-125109669D01*
X124938543Y-124881582D01*
X124879284Y-124660426D01*
X124782523Y-124452920D01*
X124651198Y-124265369D01*
X124489300Y-124103471D01*
X124373757Y-124022567D01*
X124301749Y-123972146D01*
X124094246Y-123875386D01*
X124094240Y-123875384D01*
X124000771Y-123850339D01*
X123873087Y-123816126D01*
X123645000Y-123796171D01*
X123416913Y-123816126D01*
X123195759Y-123875384D01*
X123195753Y-123875386D01*
X122988250Y-123972146D01*
X122800703Y-124103468D01*
X122800697Y-124103473D01*
X122638804Y-124265366D01*
X122638797Y-124265375D01*
X122616344Y-124297441D01*
X122560887Y-124341769D01*
X122513132Y-124351169D01*
X122006868Y-124351169D01*
X121938747Y-124331167D01*
X121903656Y-124297441D01*
X121881202Y-124265375D01*
X121881200Y-124265372D01*
X121881198Y-124265369D01*
X121719300Y-124103471D01*
X121603757Y-124022567D01*
X121531749Y-123972146D01*
X121324246Y-123875386D01*
X121324240Y-123875384D01*
X121230771Y-123850339D01*
X121103087Y-123816126D01*
X120875000Y-123796171D01*
X120646913Y-123816126D01*
X120425759Y-123875384D01*
X120425753Y-123875386D01*
X120218250Y-123972146D01*
X120030703Y-124103468D01*
X120030697Y-124103473D01*
X119868804Y-124265366D01*
X119868799Y-124265372D01*
X119737477Y-124452919D01*
X119640717Y-124660422D01*
X119640716Y-124660425D01*
X119611448Y-124769655D01*
X119574496Y-124830277D01*
X119510635Y-124861299D01*
X119440141Y-124852870D01*
X119385394Y-124807666D01*
X119368034Y-124769654D01*
X119338813Y-124660599D01*
X119338811Y-124660595D01*
X119242086Y-124453167D01*
X119192100Y-124381779D01*
X119192097Y-124381779D01*
X118589157Y-124984719D01*
X118570925Y-124916676D01*
X118505099Y-124802662D01*
X118412007Y-124709570D01*
X118297993Y-124643744D01*
X118229947Y-124625510D01*
X118832888Y-124022568D01*
X118832888Y-124022567D01*
X118761501Y-123972582D01*
X118554073Y-123875857D01*
X118554068Y-123875855D01*
X118333000Y-123816620D01*
X118333004Y-123816620D01*
X118105000Y-123796673D01*
X117876997Y-123816620D01*
X117655931Y-123875855D01*
X117655926Y-123875857D01*
X117448500Y-123972582D01*
X117377109Y-124022569D01*
X117980051Y-124625511D01*
X117912007Y-124643744D01*
X117797993Y-124709570D01*
X117704901Y-124802662D01*
X117639075Y-124916676D01*
X117620842Y-124984720D01*
X117017900Y-124381778D01*
X116967913Y-124453169D01*
X116871188Y-124660595D01*
X116871187Y-124660597D01*
X116841707Y-124770619D01*
X116804755Y-124831241D01*
X116740894Y-124862263D01*
X116670400Y-124853834D01*
X116615653Y-124808631D01*
X116598293Y-124770619D01*
X116568812Y-124660597D01*
X116568811Y-124660595D01*
X116472086Y-124453167D01*
X116422100Y-124381779D01*
X116422098Y-124381779D01*
X115819157Y-124984720D01*
X115800925Y-124916676D01*
X115735099Y-124802662D01*
X115642007Y-124709570D01*
X115527993Y-124643744D01*
X115459947Y-124625510D01*
X116062888Y-124022568D01*
X116062888Y-124022567D01*
X115991501Y-123972582D01*
X115784073Y-123875857D01*
X115784068Y-123875855D01*
X115563000Y-123816620D01*
X115563004Y-123816620D01*
X115335000Y-123796673D01*
X115106997Y-123816620D01*
X114885931Y-123875855D01*
X114885926Y-123875857D01*
X114678500Y-123972582D01*
X114607109Y-124022569D01*
X115210051Y-124625511D01*
X115142007Y-124643744D01*
X115027993Y-124709570D01*
X114934901Y-124802662D01*
X114869075Y-124916676D01*
X114850842Y-124984720D01*
X114247900Y-124381778D01*
X114197912Y-124453170D01*
X114195161Y-124457936D01*
X114193744Y-124457118D01*
X114151767Y-124504783D01*
X114083488Y-124524238D01*
X114015530Y-124503690D01*
X113969470Y-124449662D01*
X113958500Y-124398242D01*
X113958500Y-123704169D01*
X113962760Y-123689662D01*
X129477041Y-123689662D01*
X129477041Y-123689675D01*
X129496854Y-124004613D01*
X129496856Y-124004630D01*
X129555989Y-124314611D01*
X129555992Y-124314624D01*
X129653509Y-124614748D01*
X129653513Y-124614757D01*
X129787875Y-124900291D01*
X129787882Y-124900305D01*
X129956969Y-125166744D01*
X129956971Y-125166747D01*
X130046042Y-125274415D01*
X130693367Y-124627090D01*
X130769588Y-124731999D01*
X130947670Y-124910081D01*
X131052576Y-124986300D01*
X130402522Y-125636355D01*
X130402522Y-125636357D01*
X130643482Y-125811425D01*
X130920034Y-125963461D01*
X131213460Y-126079637D01*
X131213466Y-126079639D01*
X131519103Y-126158113D01*
X131519130Y-126158118D01*
X131832195Y-126197667D01*
X131832214Y-126197669D01*
X132147786Y-126197669D01*
X132147804Y-126197667D01*
X132460869Y-126158118D01*
X132460896Y-126158113D01*
X132766533Y-126079639D01*
X132766539Y-126079637D01*
X133059965Y-125963461D01*
X133336512Y-125811428D01*
X133577476Y-125636357D01*
X133577476Y-125636355D01*
X132927422Y-124986300D01*
X133032330Y-124910081D01*
X133210412Y-124731999D01*
X133286632Y-124627091D01*
X133933956Y-125274415D01*
X134023030Y-125166744D01*
X134023033Y-125166740D01*
X134192117Y-124900305D01*
X134192124Y-124900291D01*
X134326486Y-124614757D01*
X134326490Y-124614748D01*
X134424007Y-124314624D01*
X134424010Y-124314611D01*
X134483143Y-124004630D01*
X134483145Y-124004613D01*
X134502959Y-123689675D01*
X134502959Y-123689662D01*
X136577041Y-123689662D01*
X136577041Y-123689675D01*
X136596854Y-124004613D01*
X136596856Y-124004630D01*
X136655989Y-124314611D01*
X136655992Y-124314624D01*
X136753509Y-124614748D01*
X136753513Y-124614757D01*
X136887875Y-124900291D01*
X136887882Y-124900305D01*
X137056969Y-125166744D01*
X137056971Y-125166747D01*
X137146042Y-125274415D01*
X137793367Y-124627090D01*
X137869588Y-124731999D01*
X138047670Y-124910081D01*
X138152576Y-124986300D01*
X137502522Y-125636355D01*
X137502522Y-125636357D01*
X137743482Y-125811425D01*
X138020034Y-125963461D01*
X138313460Y-126079637D01*
X138313466Y-126079639D01*
X138619103Y-126158113D01*
X138619130Y-126158118D01*
X138932195Y-126197667D01*
X138932214Y-126197669D01*
X139247786Y-126197669D01*
X139247804Y-126197667D01*
X139560869Y-126158118D01*
X139560896Y-126158113D01*
X139866533Y-126079639D01*
X139866539Y-126079637D01*
X140159965Y-125963461D01*
X140436512Y-125811428D01*
X140677476Y-125636357D01*
X140677476Y-125636355D01*
X140027422Y-124986300D01*
X140132330Y-124910081D01*
X140310412Y-124731999D01*
X140386632Y-124627091D01*
X141033956Y-125274415D01*
X141123030Y-125166744D01*
X141123033Y-125166740D01*
X141292117Y-124900305D01*
X141292124Y-124900291D01*
X141426486Y-124614757D01*
X141426490Y-124614748D01*
X141524007Y-124314624D01*
X141524010Y-124314611D01*
X141583143Y-124004630D01*
X141583145Y-124004613D01*
X141602959Y-123689675D01*
X141602959Y-123689662D01*
X141583145Y-123374724D01*
X141583143Y-123374707D01*
X141524010Y-123064726D01*
X141524007Y-123064713D01*
X141426490Y-122764589D01*
X141426486Y-122764580D01*
X141292124Y-122479046D01*
X141292117Y-122479032D01*
X141123030Y-122212593D01*
X141123028Y-122212590D01*
X141033956Y-122104921D01*
X140386631Y-122752245D01*
X140310412Y-122647339D01*
X140132330Y-122469257D01*
X140027421Y-122393036D01*
X140677476Y-121742981D01*
X140677476Y-121742979D01*
X140436513Y-121567909D01*
X140159965Y-121415876D01*
X139866539Y-121299700D01*
X139866533Y-121299698D01*
X139560896Y-121221224D01*
X139560869Y-121221219D01*
X139247804Y-121181670D01*
X139247786Y-121181669D01*
X138932214Y-121181669D01*
X138932195Y-121181670D01*
X138619130Y-121221219D01*
X138619103Y-121221224D01*
X138313466Y-121299698D01*
X138313460Y-121299700D01*
X138020034Y-121415876D01*
X137743486Y-121567909D01*
X137502522Y-121742979D01*
X137502522Y-121742981D01*
X138152577Y-122393036D01*
X138047670Y-122469257D01*
X137869588Y-122647339D01*
X137793367Y-122752246D01*
X137146042Y-122104921D01*
X137056972Y-122212590D01*
X137056969Y-122212593D01*
X136887882Y-122479032D01*
X136887875Y-122479046D01*
X136753513Y-122764580D01*
X136753509Y-122764589D01*
X136655992Y-123064713D01*
X136655989Y-123064726D01*
X136596856Y-123374707D01*
X136596854Y-123374724D01*
X136577041Y-123689662D01*
X134502959Y-123689662D01*
X134483145Y-123374724D01*
X134483143Y-123374707D01*
X134424010Y-123064726D01*
X134424007Y-123064713D01*
X134326490Y-122764589D01*
X134326486Y-122764580D01*
X134192124Y-122479046D01*
X134192117Y-122479032D01*
X134023030Y-122212593D01*
X134023028Y-122212590D01*
X133933956Y-122104921D01*
X133286631Y-122752245D01*
X133210412Y-122647339D01*
X133032330Y-122469257D01*
X132927421Y-122393036D01*
X133577476Y-121742981D01*
X133577476Y-121742979D01*
X133336513Y-121567909D01*
X133059965Y-121415876D01*
X132766539Y-121299700D01*
X132766533Y-121299698D01*
X132460896Y-121221224D01*
X132460869Y-121221219D01*
X132147804Y-121181670D01*
X132147786Y-121181669D01*
X131832214Y-121181669D01*
X131832195Y-121181670D01*
X131519130Y-121221219D01*
X131519103Y-121221224D01*
X131213466Y-121299698D01*
X131213460Y-121299700D01*
X130920034Y-121415876D01*
X130643486Y-121567909D01*
X130402522Y-121742979D01*
X130402522Y-121742981D01*
X131052577Y-122393036D01*
X130947670Y-122469257D01*
X130769588Y-122647339D01*
X130693367Y-122752246D01*
X130046042Y-122104921D01*
X129956972Y-122212590D01*
X129956969Y-122212593D01*
X129787882Y-122479032D01*
X129787875Y-122479046D01*
X129653513Y-122764580D01*
X129653509Y-122764589D01*
X129555992Y-123064713D01*
X129555989Y-123064726D01*
X129496856Y-123374707D01*
X129496854Y-123374724D01*
X129477041Y-123689662D01*
X113962760Y-123689662D01*
X113978502Y-123636048D01*
X114032158Y-123589555D01*
X114084500Y-123578169D01*
X114798632Y-123578169D01*
X114798638Y-123578169D01*
X114798645Y-123578168D01*
X114798649Y-123578168D01*
X114859196Y-123571659D01*
X114859199Y-123571658D01*
X114859201Y-123571658D01*
X114996204Y-123520558D01*
X115018389Y-123503951D01*
X115113261Y-123432930D01*
X115200887Y-123315876D01*
X115200887Y-123315875D01*
X115200889Y-123315873D01*
X115251989Y-123178870D01*
X115258500Y-123118307D01*
X115258500Y-122798813D01*
X115278502Y-122730692D01*
X115332158Y-122684199D01*
X115402432Y-122674095D01*
X115467012Y-122703589D01*
X115498695Y-122745563D01*
X115582913Y-122926170D01*
X115632899Y-122997557D01*
X116235841Y-122394615D01*
X116254075Y-122462662D01*
X116319901Y-122576676D01*
X116412993Y-122669768D01*
X116527007Y-122735594D01*
X116595051Y-122753826D01*
X115992110Y-123356767D01*
X115992110Y-123356769D01*
X116063498Y-123406755D01*
X116270926Y-123503480D01*
X116270931Y-123503482D01*
X116491999Y-123562717D01*
X116491995Y-123562717D01*
X116720000Y-123582664D01*
X116948002Y-123562717D01*
X117169068Y-123503482D01*
X117169073Y-123503480D01*
X117376497Y-123406757D01*
X117447888Y-123356768D01*
X117447888Y-123356766D01*
X116844948Y-122753826D01*
X116912993Y-122735594D01*
X117027007Y-122669768D01*
X117120099Y-122576676D01*
X117185925Y-122462662D01*
X117204157Y-122394617D01*
X117807097Y-122997557D01*
X117807099Y-122997557D01*
X117857088Y-122926166D01*
X117953811Y-122718742D01*
X117953813Y-122718738D01*
X117983034Y-122609683D01*
X118019985Y-122549061D01*
X118083846Y-122518039D01*
X118154340Y-122526467D01*
X118209087Y-122571670D01*
X118226448Y-122609683D01*
X118255715Y-122718909D01*
X118255717Y-122718915D01*
X118352477Y-122926418D01*
X118449321Y-123064726D01*
X118483802Y-123113969D01*
X118645700Y-123275867D01*
X118833251Y-123407192D01*
X119040757Y-123503953D01*
X119261913Y-123563212D01*
X119490000Y-123583167D01*
X119718087Y-123563212D01*
X119939243Y-123503953D01*
X120146749Y-123407192D01*
X120334300Y-123275867D01*
X120496198Y-123113969D01*
X120627523Y-122926418D01*
X120724284Y-122718912D01*
X120753293Y-122610646D01*
X120790245Y-122550025D01*
X120854105Y-122519004D01*
X120924600Y-122527432D01*
X120979347Y-122572635D01*
X120996707Y-122610648D01*
X121025715Y-122718909D01*
X121025717Y-122718915D01*
X121122477Y-122926418D01*
X121219321Y-123064726D01*
X121253802Y-123113969D01*
X121415700Y-123275867D01*
X121603251Y-123407192D01*
X121810757Y-123503953D01*
X122031913Y-123563212D01*
X122260000Y-123583167D01*
X122488087Y-123563212D01*
X122709243Y-123503953D01*
X122916749Y-123407192D01*
X123104300Y-123275867D01*
X123266198Y-123113969D01*
X123397523Y-122926418D01*
X123494284Y-122718912D01*
X123523293Y-122610646D01*
X123560245Y-122550025D01*
X123624105Y-122519004D01*
X123694600Y-122527432D01*
X123749347Y-122572635D01*
X123766707Y-122610648D01*
X123795715Y-122718909D01*
X123795717Y-122718915D01*
X123892477Y-122926418D01*
X123989321Y-123064726D01*
X124023802Y-123113969D01*
X124185700Y-123275867D01*
X124373251Y-123407192D01*
X124580757Y-123503953D01*
X124801913Y-123563212D01*
X125030000Y-123583167D01*
X125258087Y-123563212D01*
X125479243Y-123503953D01*
X125686749Y-123407192D01*
X125874300Y-123275867D01*
X126036198Y-123113969D01*
X126167523Y-122926418D01*
X126264284Y-122718912D01*
X126323543Y-122497756D01*
X126343498Y-122269669D01*
X126329244Y-122106752D01*
X126343233Y-122037150D01*
X126365664Y-122006684D01*
X127476947Y-120895402D01*
X127539257Y-120861379D01*
X127566040Y-120858500D01*
X137174701Y-120858500D01*
X137174705Y-120858500D01*
X137174706Y-120858500D01*
X137247976Y-120843925D01*
X137321247Y-120829351D01*
X137459284Y-120772174D01*
X137583515Y-120689166D01*
X141289166Y-116983515D01*
X141372174Y-116859284D01*
X141429351Y-116721247D01*
X141458500Y-116574705D01*
X141458500Y-116425295D01*
X141458500Y-112756177D01*
X141478502Y-112688056D01*
X141532158Y-112641563D01*
X141602432Y-112631459D01*
X141609043Y-112632591D01*
X141739294Y-112658500D01*
X141739295Y-112658500D01*
X141888705Y-112658500D01*
X143463603Y-112658500D01*
X143531724Y-112678502D01*
X143548485Y-112691382D01*
X143611758Y-112749063D01*
X143698854Y-112828462D01*
X143698856Y-112828463D01*
X143698857Y-112828464D01*
X143881400Y-112941489D01*
X143881408Y-112941492D01*
X144081598Y-113019047D01*
X144081603Y-113019049D01*
X144292649Y-113058500D01*
X144292651Y-113058500D01*
X144507349Y-113058500D01*
X144507351Y-113058500D01*
X144718397Y-113019049D01*
X144918600Y-112941489D01*
X145101143Y-112828464D01*
X145259810Y-112683820D01*
X145389196Y-112512484D01*
X145484897Y-112320291D01*
X145543653Y-112113786D01*
X145563463Y-111900000D01*
X145543653Y-111686214D01*
X145538312Y-111667444D01*
X145484899Y-111479716D01*
X145484898Y-111479715D01*
X145484897Y-111479709D01*
X145389196Y-111287516D01*
X145259810Y-111116180D01*
X145239880Y-111098011D01*
X145101145Y-110971537D01*
X145009871Y-110915023D01*
X144918600Y-110858511D01*
X144918598Y-110858510D01*
X144918591Y-110858507D01*
X144718401Y-110780952D01*
X144718402Y-110780952D01*
X144688439Y-110775351D01*
X144507351Y-110741500D01*
X144292649Y-110741500D01*
X144133390Y-110771270D01*
X144081597Y-110780952D01*
X143881408Y-110858507D01*
X143881401Y-110858510D01*
X143698854Y-110971537D01*
X143598223Y-111063276D01*
X143548487Y-111108615D01*
X143484672Y-111139726D01*
X143463603Y-111141500D01*
X142180371Y-111141500D01*
X142112250Y-111121498D01*
X142091276Y-111104595D01*
X140095670Y-109108989D01*
X140061644Y-109046677D01*
X140059245Y-109008912D01*
X140068032Y-108908477D01*
X140073498Y-108846000D01*
X140053543Y-108617913D01*
X139994284Y-108396757D01*
X139897523Y-108189251D01*
X139766198Y-108001700D01*
X139604300Y-107839802D01*
X139416749Y-107708477D01*
X139209246Y-107611717D01*
X139209240Y-107611715D01*
X139115771Y-107586670D01*
X138988087Y-107552457D01*
X138760000Y-107532502D01*
X138531913Y-107552457D01*
X138310759Y-107611715D01*
X138310753Y-107611717D01*
X138103250Y-107708477D01*
X137915703Y-107839799D01*
X137915697Y-107839804D01*
X137753804Y-108001697D01*
X137753797Y-108001706D01*
X137731344Y-108033772D01*
X137675887Y-108078100D01*
X137628132Y-108087500D01*
X131657798Y-108087500D01*
X131589677Y-108067498D01*
X131543184Y-108013842D01*
X131539743Y-108005534D01*
X131530889Y-107981797D01*
X131530889Y-107981796D01*
X131530887Y-107981794D01*
X131530887Y-107981792D01*
X131443261Y-107864738D01*
X131326207Y-107777112D01*
X131326202Y-107777110D01*
X131189204Y-107726011D01*
X131189196Y-107726009D01*
X131128649Y-107719500D01*
X131128638Y-107719500D01*
X129231362Y-107719500D01*
X129231350Y-107719500D01*
X129170803Y-107726009D01*
X129170795Y-107726011D01*
X129033797Y-107777110D01*
X129033792Y-107777112D01*
X128916738Y-107864738D01*
X128829112Y-107981792D01*
X128829110Y-107981797D01*
X128778011Y-108118795D01*
X128778009Y-108118803D01*
X128771500Y-108179350D01*
X128771500Y-109161500D01*
X128751498Y-109229621D01*
X128697842Y-109276114D01*
X128645500Y-109287500D01*
X126551868Y-109287500D01*
X126483747Y-109267498D01*
X126448656Y-109233772D01*
X126426202Y-109201706D01*
X126426200Y-109201703D01*
X126426198Y-109201700D01*
X126264300Y-109039802D01*
X126076749Y-108908477D01*
X125869246Y-108811717D01*
X125869240Y-108811715D01*
X125775771Y-108786670D01*
X125648087Y-108752457D01*
X125420000Y-108732502D01*
X125191913Y-108752457D01*
X124970759Y-108811715D01*
X124970753Y-108811717D01*
X124763250Y-108908477D01*
X124575703Y-109039799D01*
X124575697Y-109039804D01*
X124413804Y-109201697D01*
X124413799Y-109201703D01*
X124282477Y-109389250D01*
X124185717Y-109596753D01*
X124185715Y-109596759D01*
X124126457Y-109817913D01*
X124106502Y-110046000D01*
X124126457Y-110274086D01*
X124185715Y-110495240D01*
X124185717Y-110495246D01*
X124282477Y-110702749D01*
X124367729Y-110824502D01*
X124413802Y-110890300D01*
X124575700Y-111052198D01*
X124763251Y-111183523D01*
X124970757Y-111280284D01*
X125191913Y-111339543D01*
X125420000Y-111359498D01*
X125648087Y-111339543D01*
X125869243Y-111280284D01*
X126076749Y-111183523D01*
X126264300Y-111052198D01*
X126426198Y-110890300D01*
X126437618Y-110873990D01*
X126448656Y-110858228D01*
X126504113Y-110813900D01*
X126551868Y-110804500D01*
X128652925Y-110804500D01*
X128721046Y-110824502D01*
X128767539Y-110878158D01*
X128778133Y-110944610D01*
X128772000Y-110999033D01*
X128772000Y-111064000D01*
X130303670Y-111064000D01*
X130279925Y-111087745D01*
X130230556Y-111173255D01*
X130205000Y-111268630D01*
X130205000Y-111367370D01*
X130230556Y-111462745D01*
X130279925Y-111548255D01*
X130349745Y-111618075D01*
X130434000Y-111666719D01*
X130434000Y-112375999D01*
X130848968Y-112375999D01*
X130980329Y-112361198D01*
X130980340Y-112361196D01*
X131146880Y-112302921D01*
X131146883Y-112302920D01*
X131296279Y-112209048D01*
X131296281Y-112209047D01*
X131421047Y-112084281D01*
X131421048Y-112084279D01*
X131514920Y-111934883D01*
X131514921Y-111934880D01*
X131573196Y-111768339D01*
X131588000Y-111636967D01*
X131588000Y-111572000D01*
X130856330Y-111572000D01*
X130880075Y-111548255D01*
X130929444Y-111462745D01*
X130955000Y-111367370D01*
X130955000Y-111268630D01*
X130929444Y-111173255D01*
X130880075Y-111087745D01*
X130856330Y-111064000D01*
X131349012Y-111064000D01*
X131390626Y-111071070D01*
X131449552Y-111091690D01*
X131580996Y-111106500D01*
X132919004Y-111106500D01*
X133050448Y-111091690D01*
X133217099Y-111033376D01*
X133366596Y-110939441D01*
X133491441Y-110814596D01*
X133585376Y-110665099D01*
X133643690Y-110498448D01*
X133658500Y-110367004D01*
X133658500Y-109730500D01*
X133678502Y-109662379D01*
X133732158Y-109615886D01*
X133784500Y-109604500D01*
X137628132Y-109604500D01*
X137696253Y-109624502D01*
X137731344Y-109658228D01*
X137734251Y-109662379D01*
X137753802Y-109690300D01*
X137915700Y-109852198D01*
X138103251Y-109983523D01*
X138310757Y-110080284D01*
X138531913Y-110139543D01*
X138760000Y-110159498D01*
X138891286Y-110148011D01*
X138922912Y-110145245D01*
X138992517Y-110159233D01*
X139022989Y-110181670D01*
X139904595Y-111063276D01*
X139938621Y-111125588D01*
X139941500Y-111152371D01*
X139941500Y-114152812D01*
X139921498Y-114220933D01*
X139867842Y-114267426D01*
X139797568Y-114277530D01*
X139732988Y-114248036D01*
X139726405Y-114241907D01*
X139604302Y-114119804D01*
X139604296Y-114119799D01*
X139416749Y-113988477D01*
X139209246Y-113891717D01*
X139209240Y-113891715D01*
X139039391Y-113846204D01*
X138988087Y-113832457D01*
X138760000Y-113812502D01*
X138531913Y-113832457D01*
X138310759Y-113891715D01*
X138310753Y-113891717D01*
X138103250Y-113988477D01*
X137915703Y-114119799D01*
X137915697Y-114119804D01*
X137753804Y-114281697D01*
X137753797Y-114281706D01*
X137731344Y-114313772D01*
X137675887Y-114358100D01*
X137628132Y-114367500D01*
X131660036Y-114367500D01*
X131591915Y-114347498D01*
X131545422Y-114293842D01*
X131541981Y-114285534D01*
X131530889Y-114255797D01*
X131530889Y-114255796D01*
X131530887Y-114255794D01*
X131530887Y-114255792D01*
X131443261Y-114138738D01*
X131326207Y-114051112D01*
X131326202Y-114051110D01*
X131189204Y-114000011D01*
X131189196Y-114000009D01*
X131128649Y-113993500D01*
X131128638Y-113993500D01*
X129231362Y-113993500D01*
X129231350Y-113993500D01*
X129170803Y-114000009D01*
X129170795Y-114000011D01*
X129033797Y-114051110D01*
X129033792Y-114051112D01*
X128916738Y-114138738D01*
X128829112Y-114255792D01*
X128829110Y-114255797D01*
X128778011Y-114392795D01*
X128778009Y-114392803D01*
X128771500Y-114453350D01*
X128771500Y-115441500D01*
X128751498Y-115509621D01*
X128697842Y-115556114D01*
X128645500Y-115567500D01*
X126551868Y-115567500D01*
X126483747Y-115547498D01*
X126448656Y-115513772D01*
X126426202Y-115481706D01*
X126426200Y-115481703D01*
X126426198Y-115481700D01*
X126264300Y-115319802D01*
X126076749Y-115188477D01*
X125942766Y-115126000D01*
X125869246Y-115091717D01*
X125869240Y-115091715D01*
X125775771Y-115066670D01*
X125648087Y-115032457D01*
X125420000Y-115012502D01*
X125191913Y-115032457D01*
X124970759Y-115091715D01*
X124970753Y-115091717D01*
X124763250Y-115188477D01*
X124575703Y-115319799D01*
X124575697Y-115319804D01*
X124413804Y-115481697D01*
X124413799Y-115481703D01*
X124282477Y-115669250D01*
X124185717Y-115876753D01*
X124185715Y-115876759D01*
X124126457Y-116097913D01*
X124106502Y-116326000D01*
X124126457Y-116554086D01*
X124185715Y-116775240D01*
X124185717Y-116775246D01*
X124282477Y-116982749D01*
X124367729Y-117104502D01*
X124413802Y-117170300D01*
X124575700Y-117332198D01*
X124763251Y-117463523D01*
X124970757Y-117560284D01*
X125191913Y-117619543D01*
X125420000Y-117639498D01*
X125648087Y-117619543D01*
X125869243Y-117560284D01*
X126076749Y-117463523D01*
X126264300Y-117332198D01*
X126426198Y-117170300D01*
X126437618Y-117153990D01*
X126448656Y-117138228D01*
X126504113Y-117093900D01*
X126551868Y-117084500D01*
X128652248Y-117084500D01*
X128720369Y-117104502D01*
X128766862Y-117158158D01*
X128777456Y-117224608D01*
X128772000Y-117273031D01*
X128772000Y-117338000D01*
X130303670Y-117338000D01*
X130279925Y-117361745D01*
X130230556Y-117447255D01*
X130205000Y-117542630D01*
X130205000Y-117641370D01*
X130230556Y-117736745D01*
X130279925Y-117822255D01*
X130303670Y-117846000D01*
X128772000Y-117846000D01*
X128759323Y-117858676D01*
X128751999Y-117883621D01*
X128698343Y-117930114D01*
X128646001Y-117941500D01*
X122984957Y-117941500D01*
X122911693Y-117956073D01*
X122911693Y-117956074D01*
X122899462Y-117958507D01*
X122838420Y-117970649D01*
X122838414Y-117970651D01*
X122816551Y-117979708D01*
X122816550Y-117979709D01*
X122700384Y-118027826D01*
X122590125Y-118101499D01*
X122590124Y-118101500D01*
X122576152Y-118110835D01*
X122576148Y-118110838D01*
X119752989Y-120933997D01*
X119690677Y-120968023D01*
X119652913Y-120970423D01*
X119490000Y-120956171D01*
X119261913Y-120976126D01*
X119040759Y-121035384D01*
X119040753Y-121035386D01*
X118833250Y-121132146D01*
X118645703Y-121263468D01*
X118645697Y-121263473D01*
X118483804Y-121425366D01*
X118483799Y-121425372D01*
X118352477Y-121612919D01*
X118255717Y-121820422D01*
X118255716Y-121820425D01*
X118226448Y-121929655D01*
X118189496Y-121990277D01*
X118125635Y-122021299D01*
X118055141Y-122012870D01*
X118000394Y-121967666D01*
X117983034Y-121929654D01*
X117953813Y-121820599D01*
X117953811Y-121820595D01*
X117857086Y-121613167D01*
X117807100Y-121541779D01*
X117807098Y-121541779D01*
X117204157Y-122144720D01*
X117185925Y-122076676D01*
X117120099Y-121962662D01*
X117027007Y-121869570D01*
X116912993Y-121803744D01*
X116844947Y-121785510D01*
X117447888Y-121182568D01*
X117447888Y-121182567D01*
X117376501Y-121132582D01*
X117169073Y-121035857D01*
X117169068Y-121035855D01*
X116948000Y-120976620D01*
X116948004Y-120976620D01*
X116720000Y-120956673D01*
X116491997Y-120976620D01*
X116270931Y-121035855D01*
X116270926Y-121035857D01*
X116063500Y-121132582D01*
X115992109Y-121182569D01*
X116595051Y-121785511D01*
X116527007Y-121803744D01*
X116412993Y-121869570D01*
X116319901Y-121962662D01*
X116254075Y-122076676D01*
X116235842Y-122144720D01*
X115632900Y-121541778D01*
X115582913Y-121613169D01*
X115498695Y-121793774D01*
X115451777Y-121847059D01*
X115383500Y-121866520D01*
X115315540Y-121845978D01*
X115269475Y-121791955D01*
X115258500Y-121740524D01*
X115258500Y-121421036D01*
X115258499Y-121421019D01*
X115251990Y-121360472D01*
X115251988Y-121360464D01*
X115215811Y-121263473D01*
X115200889Y-121223465D01*
X115200888Y-121223463D01*
X115200887Y-121223461D01*
X115113261Y-121106407D01*
X114996207Y-121018781D01*
X114996202Y-121018779D01*
X114859204Y-120967680D01*
X114859196Y-120967678D01*
X114798649Y-120961169D01*
X114798638Y-120961169D01*
X113101362Y-120961169D01*
X113101350Y-120961169D01*
X113040803Y-120967678D01*
X113040795Y-120967680D01*
X112903797Y-121018779D01*
X112903792Y-121018781D01*
X112786738Y-121106407D01*
X112699112Y-121223461D01*
X112699110Y-121223466D01*
X112648011Y-121360464D01*
X112648009Y-121360472D01*
X112641500Y-121421019D01*
X112641500Y-122453704D01*
X112621498Y-122521825D01*
X112612903Y-122533633D01*
X112610835Y-122536152D01*
X112548878Y-122628879D01*
X112527826Y-122660385D01*
X112470649Y-122798422D01*
X112460173Y-122851086D01*
X112458632Y-122858835D01*
X112441500Y-122944957D01*
X109385096Y-122944957D01*
X109326490Y-122764589D01*
X109326486Y-122764580D01*
X109192124Y-122479046D01*
X109192117Y-122479032D01*
X109023030Y-122212593D01*
X109023028Y-122212590D01*
X108933956Y-122104921D01*
X108286631Y-122752245D01*
X108210412Y-122647339D01*
X108032330Y-122469257D01*
X107927421Y-122393036D01*
X108577476Y-121742981D01*
X108577476Y-121742979D01*
X108336513Y-121567909D01*
X108059965Y-121415876D01*
X107766539Y-121299700D01*
X107766533Y-121299698D01*
X107460896Y-121221224D01*
X107460869Y-121221219D01*
X107147804Y-121181670D01*
X107147786Y-121181669D01*
X106832214Y-121181669D01*
X106832195Y-121181670D01*
X106519130Y-121221219D01*
X106519103Y-121221224D01*
X106213466Y-121299698D01*
X106213460Y-121299700D01*
X105920034Y-121415876D01*
X105643486Y-121567909D01*
X105402522Y-121742979D01*
X105402522Y-121742981D01*
X106052577Y-122393036D01*
X105947670Y-122469257D01*
X105769588Y-122647339D01*
X105693367Y-122752246D01*
X105046042Y-122104921D01*
X104956972Y-122212590D01*
X104956969Y-122212593D01*
X104787882Y-122479032D01*
X104787875Y-122479046D01*
X104653513Y-122764580D01*
X104653509Y-122764589D01*
X104555992Y-123064713D01*
X104555989Y-123064726D01*
X104496856Y-123374707D01*
X104496854Y-123374724D01*
X104477041Y-123689662D01*
X92700000Y-123689662D01*
X92700000Y-104956209D01*
X98999500Y-104956209D01*
X98999500Y-105198790D01*
X99031160Y-105439282D01*
X99093944Y-105673595D01*
X99093945Y-105673597D01*
X99093946Y-105673600D01*
X99186776Y-105897712D01*
X99186777Y-105897713D01*
X99186782Y-105897724D01*
X99308061Y-106107785D01*
X99308063Y-106107788D01*
X99308064Y-106107789D01*
X99455735Y-106300238D01*
X99455739Y-106300242D01*
X99455744Y-106300248D01*
X99627251Y-106471755D01*
X99627256Y-106471759D01*
X99627262Y-106471765D01*
X99819711Y-106619436D01*
X99819714Y-106619438D01*
X100029775Y-106740717D01*
X100029779Y-106740718D01*
X100029788Y-106740724D01*
X100253900Y-106833554D01*
X100488211Y-106896338D01*
X100488215Y-106896338D01*
X100488217Y-106896339D01*
X100550202Y-106904499D01*
X100728712Y-106928000D01*
X100728719Y-106928000D01*
X100971281Y-106928000D01*
X100971288Y-106928000D01*
X101188637Y-106899385D01*
X101211782Y-106896339D01*
X101211782Y-106896338D01*
X101211789Y-106896338D01*
X101446100Y-106833554D01*
X101670212Y-106740724D01*
X101880289Y-106619436D01*
X102072738Y-106471765D01*
X102244265Y-106300238D01*
X102391936Y-106107789D01*
X102513224Y-105897712D01*
X102606054Y-105673600D01*
X102668838Y-105439289D01*
X102700500Y-105198788D01*
X102700500Y-104956212D01*
X102668838Y-104715711D01*
X102606054Y-104481400D01*
X102513224Y-104257288D01*
X102513218Y-104257279D01*
X102513217Y-104257275D01*
X102391938Y-104047214D01*
X102376264Y-104026787D01*
X102244265Y-103854762D01*
X102244259Y-103854756D01*
X102244255Y-103854751D01*
X102072748Y-103683244D01*
X102072742Y-103683239D01*
X102072738Y-103683235D01*
X101880289Y-103535564D01*
X101880288Y-103535563D01*
X101880285Y-103535561D01*
X101670224Y-103414282D01*
X101670216Y-103414278D01*
X101670212Y-103414276D01*
X101446100Y-103321446D01*
X101446097Y-103321445D01*
X101446095Y-103321444D01*
X101211782Y-103258660D01*
X100971290Y-103227000D01*
X100971288Y-103227000D01*
X100728712Y-103227000D01*
X100728709Y-103227000D01*
X100488217Y-103258660D01*
X100253904Y-103321444D01*
X100253900Y-103321446D01*
X100039383Y-103410302D01*
X100029786Y-103414277D01*
X100029775Y-103414282D01*
X99819714Y-103535561D01*
X99627262Y-103683235D01*
X99627251Y-103683244D01*
X99455744Y-103854751D01*
X99455735Y-103854762D01*
X99308061Y-104047214D01*
X99186782Y-104257275D01*
X99186777Y-104257286D01*
X99093946Y-104481400D01*
X99093944Y-104481404D01*
X99031160Y-104715717D01*
X98999500Y-104956209D01*
X92700000Y-104956209D01*
X92700000Y-93526209D01*
X98999500Y-93526209D01*
X98999500Y-93768790D01*
X99031160Y-94009282D01*
X99093944Y-94243595D01*
X99093945Y-94243597D01*
X99093946Y-94243600D01*
X99186776Y-94467712D01*
X99186777Y-94467713D01*
X99186782Y-94467724D01*
X99308061Y-94677785D01*
X99308063Y-94677788D01*
X99308064Y-94677789D01*
X99455735Y-94870238D01*
X99455739Y-94870242D01*
X99455744Y-94870248D01*
X99627251Y-95041755D01*
X99627256Y-95041759D01*
X99627262Y-95041765D01*
X99819711Y-95189436D01*
X99819714Y-95189438D01*
X100029775Y-95310717D01*
X100029779Y-95310718D01*
X100029788Y-95310724D01*
X100253900Y-95403554D01*
X100488211Y-95466338D01*
X100488215Y-95466338D01*
X100488217Y-95466339D01*
X100550202Y-95474499D01*
X100728712Y-95498000D01*
X100728719Y-95498000D01*
X100971281Y-95498000D01*
X100971288Y-95498000D01*
X101188637Y-95469385D01*
X101211782Y-95466339D01*
X101211782Y-95466338D01*
X101211789Y-95466338D01*
X101446100Y-95403554D01*
X101670212Y-95310724D01*
X101880289Y-95189436D01*
X102072738Y-95041765D01*
X102244265Y-94870238D01*
X102391936Y-94677789D01*
X102513224Y-94467712D01*
X102606054Y-94243600D01*
X102668838Y-94009289D01*
X102700500Y-93768788D01*
X102700500Y-93542790D01*
X105141500Y-93542790D01*
X105141500Y-96232207D01*
X105167605Y-96363444D01*
X105170649Y-96378747D01*
X105227826Y-96516784D01*
X105310834Y-96641015D01*
X105310838Y-96641019D01*
X105910481Y-97240662D01*
X105944507Y-97302974D01*
X105946907Y-97340737D01*
X105937032Y-97453629D01*
X105936693Y-97457500D01*
X105955885Y-97676871D01*
X105978046Y-97759577D01*
X106012879Y-97889573D01*
X106012881Y-97889579D01*
X106058618Y-97987662D01*
X106105944Y-98089154D01*
X106214719Y-98244500D01*
X106232251Y-98269538D01*
X106232254Y-98269542D01*
X106387957Y-98425245D01*
X106387961Y-98425248D01*
X106387962Y-98425249D01*
X106568346Y-98551556D01*
X106583238Y-98558500D01*
X106700768Y-98613305D01*
X106754053Y-98660222D01*
X106773514Y-98728499D01*
X106752972Y-98796459D01*
X106700768Y-98841695D01*
X106568346Y-98903444D01*
X106387965Y-99029748D01*
X106387959Y-99029753D01*
X106232253Y-99185459D01*
X106232248Y-99185465D01*
X106105944Y-99365846D01*
X106012881Y-99565420D01*
X106012879Y-99565426D01*
X105962104Y-99754920D01*
X105955885Y-99778129D01*
X105936693Y-99997500D01*
X105955885Y-100216871D01*
X106012880Y-100429576D01*
X106105944Y-100629154D01*
X106203610Y-100768635D01*
X106232251Y-100809538D01*
X106232254Y-100809542D01*
X106387957Y-100965245D01*
X106387961Y-100965248D01*
X106387962Y-100965249D01*
X106568346Y-101091556D01*
X106673219Y-101140458D01*
X106700768Y-101153305D01*
X106754053Y-101200222D01*
X106773514Y-101268499D01*
X106752972Y-101336459D01*
X106700768Y-101381695D01*
X106568346Y-101443444D01*
X106387965Y-101569748D01*
X106387959Y-101569753D01*
X106232253Y-101725459D01*
X106232248Y-101725465D01*
X106105944Y-101905846D01*
X106012881Y-102105420D01*
X106012879Y-102105426D01*
X106002813Y-102142993D01*
X105955885Y-102318129D01*
X105936693Y-102537500D01*
X105955885Y-102756871D01*
X105956671Y-102759804D01*
X106012879Y-102969573D01*
X106012881Y-102969579D01*
X106078011Y-103109251D01*
X106105944Y-103169154D01*
X106214719Y-103324500D01*
X106232251Y-103349538D01*
X106232254Y-103349542D01*
X106387954Y-103505242D01*
X106392172Y-103508781D01*
X106391416Y-103509681D01*
X106432094Y-103560558D01*
X106441500Y-103608327D01*
X106441500Y-108340707D01*
X106452649Y-108396757D01*
X106470649Y-108487247D01*
X106527826Y-108625284D01*
X106610834Y-108749515D01*
X106610838Y-108749519D01*
X113924328Y-116063009D01*
X113958354Y-116125321D01*
X113960754Y-116163084D01*
X113946502Y-116325998D01*
X113946502Y-116326000D01*
X113954686Y-116419542D01*
X113966457Y-116554086D01*
X114025715Y-116775240D01*
X114025717Y-116775246D01*
X114122477Y-116982749D01*
X114207729Y-117104502D01*
X114253802Y-117170300D01*
X114415700Y-117332198D01*
X114603251Y-117463523D01*
X114810757Y-117560284D01*
X115031913Y-117619543D01*
X115260000Y-117639498D01*
X115488087Y-117619543D01*
X115709243Y-117560284D01*
X115916749Y-117463523D01*
X116104300Y-117332198D01*
X116266198Y-117170300D01*
X116397523Y-116982749D01*
X116494284Y-116775243D01*
X116553543Y-116554087D01*
X116573498Y-116326000D01*
X116553543Y-116097913D01*
X116494284Y-115876757D01*
X116397523Y-115669251D01*
X116266198Y-115481700D01*
X116104300Y-115319802D01*
X115916749Y-115188477D01*
X115782766Y-115126000D01*
X115709246Y-115091717D01*
X115709240Y-115091715D01*
X115615771Y-115066670D01*
X115488087Y-115032457D01*
X115260000Y-115012502D01*
X115259998Y-115012502D01*
X115097084Y-115026754D01*
X115027480Y-115012764D01*
X114997009Y-114990328D01*
X111643648Y-111636967D01*
X128772001Y-111636967D01*
X128786801Y-111768329D01*
X128786803Y-111768340D01*
X128845078Y-111934880D01*
X128845079Y-111934883D01*
X128938951Y-112084279D01*
X128938952Y-112084281D01*
X129063718Y-112209047D01*
X129063720Y-112209048D01*
X129213116Y-112302920D01*
X129213119Y-112302921D01*
X129379660Y-112361196D01*
X129511032Y-112375999D01*
X129926000Y-112375999D01*
X129926000Y-111572000D01*
X128772001Y-111572000D01*
X128772001Y-111636967D01*
X111643648Y-111636967D01*
X107995405Y-107988724D01*
X107961379Y-107926412D01*
X107958500Y-107899629D01*
X107958500Y-105252741D01*
X107978502Y-105184620D01*
X108032158Y-105138127D01*
X108102432Y-105128023D01*
X108167012Y-105157517D01*
X108173595Y-105163646D01*
X113539464Y-110529515D01*
X113539465Y-110529516D01*
X113645114Y-110635165D01*
X113769346Y-110718174D01*
X113907384Y-110775351D01*
X114053924Y-110804500D01*
X114053925Y-110804500D01*
X114128132Y-110804500D01*
X114196253Y-110824502D01*
X114231344Y-110858228D01*
X114245300Y-110878158D01*
X114253802Y-110890300D01*
X114415700Y-111052198D01*
X114603251Y-111183523D01*
X114810757Y-111280284D01*
X115031913Y-111339543D01*
X115260000Y-111359498D01*
X115488087Y-111339543D01*
X115709243Y-111280284D01*
X115916749Y-111183523D01*
X116104300Y-111052198D01*
X116266198Y-110890300D01*
X116397523Y-110702749D01*
X116494284Y-110495243D01*
X116553543Y-110274087D01*
X116573498Y-110046000D01*
X116553543Y-109817913D01*
X116494284Y-109596757D01*
X116397523Y-109389251D01*
X116266198Y-109201700D01*
X116104300Y-109039802D01*
X115916749Y-108908477D01*
X115709246Y-108811717D01*
X115709240Y-108811715D01*
X115615771Y-108786670D01*
X115488087Y-108752457D01*
X115260000Y-108732502D01*
X115031913Y-108752457D01*
X114810759Y-108811715D01*
X114810753Y-108811717D01*
X114603250Y-108908477D01*
X114415699Y-109039801D01*
X114415699Y-109039802D01*
X114394497Y-109061003D01*
X114332183Y-109095026D01*
X114261368Y-109089958D01*
X114216310Y-109060999D01*
X110518278Y-105362967D01*
X128772001Y-105362967D01*
X128786801Y-105494329D01*
X128786803Y-105494340D01*
X128845078Y-105660880D01*
X128845079Y-105660883D01*
X128938951Y-105810279D01*
X128938952Y-105810281D01*
X129063718Y-105935047D01*
X129063720Y-105935048D01*
X129213116Y-106028920D01*
X129213119Y-106028921D01*
X129379660Y-106087196D01*
X129511032Y-106101999D01*
X129926000Y-106101999D01*
X129926000Y-105298000D01*
X128772001Y-105298000D01*
X128772001Y-105362967D01*
X110518278Y-105362967D01*
X110283839Y-105128528D01*
X110249813Y-105066216D01*
X110254878Y-104995401D01*
X110297425Y-104938565D01*
X110319684Y-104925238D01*
X110371399Y-104901122D01*
X110431987Y-104858697D01*
X110431987Y-104858696D01*
X109760791Y-104187500D01*
X109790028Y-104187500D01*
X109886675Y-104161604D01*
X109973325Y-104111576D01*
X110044076Y-104040825D01*
X110094104Y-103954175D01*
X110120000Y-103857528D01*
X110120000Y-103828291D01*
X110791196Y-104499487D01*
X110791197Y-104499487D01*
X110833622Y-104438899D01*
X110926647Y-104239407D01*
X110926649Y-104239403D01*
X110983619Y-104026787D01*
X111002804Y-103807500D01*
X110983619Y-103588212D01*
X110926649Y-103375596D01*
X110926647Y-103375592D01*
X110833619Y-103176094D01*
X110791199Y-103115511D01*
X110791197Y-103115511D01*
X110120000Y-103786708D01*
X110120000Y-103757472D01*
X110094104Y-103660825D01*
X110044076Y-103574175D01*
X109973325Y-103503424D01*
X109886675Y-103453396D01*
X109790028Y-103427500D01*
X109760789Y-103427500D01*
X110431987Y-102756300D01*
X110371403Y-102713879D01*
X110238640Y-102651970D01*
X110185355Y-102605052D01*
X110165894Y-102536775D01*
X110186436Y-102468815D01*
X110238639Y-102423581D01*
X110371654Y-102361556D01*
X110552038Y-102235249D01*
X110707749Y-102079538D01*
X110834056Y-101899154D01*
X110927120Y-101699576D01*
X110984115Y-101486871D01*
X111003307Y-101267500D01*
X110984115Y-101048129D01*
X110928242Y-100839611D01*
X110929932Y-100768635D01*
X110969726Y-100709839D01*
X111034990Y-100681891D01*
X111049949Y-100681000D01*
X113662194Y-100681000D01*
X113730315Y-100701002D01*
X113751289Y-100717904D01*
X114539595Y-101506209D01*
X114573620Y-101568522D01*
X114576500Y-101595305D01*
X114576500Y-102581616D01*
X114556498Y-102649737D01*
X114522771Y-102684829D01*
X114415700Y-102759801D01*
X114253799Y-102921703D01*
X114122477Y-103109250D01*
X114025717Y-103316753D01*
X114025715Y-103316759D01*
X113967087Y-103535561D01*
X113966457Y-103537913D01*
X113946502Y-103766000D01*
X113966457Y-103994087D01*
X113992962Y-104093004D01*
X114025715Y-104215240D01*
X114025717Y-104215246D01*
X114122477Y-104422749D01*
X114207729Y-104544502D01*
X114253802Y-104610300D01*
X114415700Y-104772198D01*
X114603251Y-104903523D01*
X114810757Y-105000284D01*
X115031913Y-105059543D01*
X115260000Y-105079498D01*
X115488087Y-105059543D01*
X115709243Y-105000284D01*
X115916749Y-104903523D01*
X116104300Y-104772198D01*
X116266198Y-104610300D01*
X116397523Y-104422749D01*
X116494284Y-104215243D01*
X116553543Y-103994087D01*
X116573498Y-103766000D01*
X116553543Y-103537913D01*
X116494284Y-103316757D01*
X116397523Y-103109251D01*
X116266198Y-102921700D01*
X116104300Y-102759802D01*
X116104296Y-102759799D01*
X115997229Y-102684829D01*
X115952901Y-102629371D01*
X115943500Y-102581616D01*
X115943500Y-101192682D01*
X115943499Y-101192678D01*
X115941896Y-101184620D01*
X115930903Y-101129351D01*
X115917234Y-101060631D01*
X115887051Y-100987765D01*
X115865710Y-100936241D01*
X115790909Y-100824294D01*
X115790904Y-100824288D01*
X115691327Y-100724711D01*
X115691304Y-100724690D01*
X114541139Y-99574524D01*
X114507114Y-99512212D01*
X114512179Y-99441396D01*
X114554726Y-99384561D01*
X114560197Y-99380688D01*
X114656015Y-99316666D01*
X114883713Y-99088967D01*
X128772001Y-99088967D01*
X128786801Y-99220329D01*
X128786803Y-99220340D01*
X128845078Y-99386880D01*
X128845079Y-99386883D01*
X128938951Y-99536279D01*
X128938952Y-99536281D01*
X129063718Y-99661047D01*
X129063720Y-99661048D01*
X129213116Y-99754920D01*
X129213119Y-99754921D01*
X129379660Y-99813196D01*
X129511032Y-99827999D01*
X129926000Y-99827999D01*
X129926000Y-99024000D01*
X128772001Y-99024000D01*
X128772001Y-99088967D01*
X114883713Y-99088967D01*
X115138622Y-98834057D01*
X115200933Y-98800034D01*
X115238698Y-98797634D01*
X115260000Y-98799498D01*
X115488087Y-98779543D01*
X115709243Y-98720284D01*
X115916749Y-98623523D01*
X116104300Y-98492198D01*
X116266198Y-98330300D01*
X116397523Y-98142749D01*
X116494284Y-97935243D01*
X116553543Y-97714087D01*
X116573498Y-97486000D01*
X124106502Y-97486000D01*
X124126457Y-97714086D01*
X124185715Y-97935240D01*
X124185717Y-97935246D01*
X124282477Y-98142749D01*
X124395243Y-98303796D01*
X124413802Y-98330300D01*
X124575700Y-98492198D01*
X124763251Y-98623523D01*
X124970757Y-98720284D01*
X125191913Y-98779543D01*
X125420000Y-98799498D01*
X125648087Y-98779543D01*
X125869243Y-98720284D01*
X126076749Y-98623523D01*
X126264300Y-98492198D01*
X126426198Y-98330300D01*
X126444756Y-98303797D01*
X126448656Y-98298228D01*
X126504113Y-98253900D01*
X126551868Y-98244500D01*
X128654277Y-98244500D01*
X128722398Y-98264502D01*
X128768891Y-98318158D01*
X128779485Y-98384609D01*
X128772000Y-98451032D01*
X128772000Y-98516000D01*
X130303670Y-98516000D01*
X130279925Y-98539745D01*
X130230556Y-98625255D01*
X130205000Y-98720630D01*
X130205000Y-98819370D01*
X130230556Y-98914745D01*
X130279925Y-99000255D01*
X130349745Y-99070075D01*
X130434000Y-99118719D01*
X130434000Y-99827999D01*
X130848968Y-99827999D01*
X130980329Y-99813198D01*
X130980340Y-99813196D01*
X131146880Y-99754921D01*
X131146883Y-99754920D01*
X131296279Y-99661048D01*
X131296281Y-99661047D01*
X131421047Y-99536281D01*
X131421048Y-99536279D01*
X131514920Y-99386883D01*
X131514921Y-99386880D01*
X131573196Y-99220339D01*
X131588000Y-99088967D01*
X131588000Y-99024000D01*
X130856330Y-99024000D01*
X130880075Y-99000255D01*
X130929444Y-98914745D01*
X130955000Y-98819370D01*
X130955000Y-98720630D01*
X130929444Y-98625255D01*
X130880075Y-98539745D01*
X130856330Y-98516000D01*
X131349012Y-98516000D01*
X131390626Y-98523070D01*
X131449552Y-98543690D01*
X131580996Y-98558500D01*
X132919004Y-98558500D01*
X133050448Y-98543690D01*
X133217099Y-98485376D01*
X133366596Y-98391441D01*
X133491441Y-98266596D01*
X133585376Y-98117099D01*
X133643690Y-97950448D01*
X133658500Y-97819004D01*
X133658500Y-97180996D01*
X133643690Y-97049552D01*
X133585376Y-96882901D01*
X133545319Y-96819150D01*
X133491441Y-96733403D01*
X133366596Y-96608558D01*
X133217101Y-96514625D01*
X133217099Y-96514624D01*
X133145099Y-96489430D01*
X133087407Y-96448052D01*
X133061245Y-96382051D01*
X133074918Y-96312384D01*
X133124085Y-96261168D01*
X133186714Y-96244501D01*
X137327414Y-96244501D01*
X137395535Y-96264503D01*
X137442028Y-96318159D01*
X137452933Y-96359515D01*
X137466457Y-96514087D01*
X137467180Y-96516784D01*
X137525715Y-96735240D01*
X137525717Y-96735246D01*
X137622477Y-96942749D01*
X137753802Y-97130300D01*
X137915700Y-97292198D01*
X138103251Y-97423523D01*
X138310757Y-97520284D01*
X138531913Y-97579543D01*
X138760000Y-97599498D01*
X138988087Y-97579543D01*
X139209243Y-97520284D01*
X139416749Y-97423523D01*
X139604300Y-97292198D01*
X139766198Y-97130300D01*
X139897523Y-96942749D01*
X139994284Y-96735243D01*
X140053543Y-96514087D01*
X140073498Y-96286000D01*
X140053543Y-96057913D01*
X139994284Y-95836757D01*
X139897523Y-95629251D01*
X139766198Y-95441700D01*
X139604300Y-95279802D01*
X139575494Y-95259632D01*
X139416749Y-95148477D01*
X139209246Y-95051717D01*
X139209240Y-95051715D01*
X139115771Y-95026670D01*
X138988087Y-94992457D01*
X138760000Y-94972502D01*
X138759998Y-94972502D01*
X138597084Y-94986754D01*
X138527480Y-94972764D01*
X138497009Y-94950328D01*
X138443520Y-94896839D01*
X138443518Y-94896837D01*
X138443516Y-94896835D01*
X138319285Y-94813827D01*
X138181248Y-94756650D01*
X138107977Y-94742075D01*
X138107976Y-94742074D01*
X138034712Y-94727501D01*
X138034707Y-94727501D01*
X131249293Y-94727501D01*
X131249287Y-94727501D01*
X131176023Y-94742074D01*
X131176023Y-94742075D01*
X131102752Y-94756650D01*
X131102750Y-94756650D01*
X131102749Y-94756651D01*
X131102748Y-94756651D01*
X131045575Y-94780332D01*
X131045575Y-94780333D01*
X130964715Y-94813827D01*
X130880290Y-94870238D01*
X130840485Y-94896835D01*
X130840482Y-94896837D01*
X130840480Y-94896838D01*
X130769791Y-94967528D01*
X130602722Y-95134596D01*
X130540412Y-95168620D01*
X130513629Y-95171500D01*
X129231350Y-95171500D01*
X129170803Y-95178009D01*
X129170795Y-95178011D01*
X129033797Y-95229110D01*
X129033792Y-95229112D01*
X128916738Y-95316738D01*
X128829112Y-95433792D01*
X128829110Y-95433797D01*
X128778011Y-95570795D01*
X128778009Y-95570803D01*
X128771500Y-95631350D01*
X128771500Y-96601500D01*
X128751498Y-96669621D01*
X128697842Y-96716114D01*
X128645500Y-96727500D01*
X126551868Y-96727500D01*
X126483747Y-96707498D01*
X126448656Y-96673772D01*
X126426202Y-96641706D01*
X126426200Y-96641703D01*
X126426198Y-96641700D01*
X126264300Y-96479802D01*
X126218956Y-96448052D01*
X126076749Y-96348477D01*
X125869246Y-96251717D01*
X125869240Y-96251715D01*
X125733248Y-96215276D01*
X125648087Y-96192457D01*
X125420000Y-96172502D01*
X125191913Y-96192457D01*
X124970759Y-96251715D01*
X124970753Y-96251717D01*
X124763250Y-96348477D01*
X124575703Y-96479799D01*
X124575697Y-96479804D01*
X124413804Y-96641697D01*
X124413799Y-96641703D01*
X124282477Y-96829250D01*
X124185717Y-97036753D01*
X124185715Y-97036759D01*
X124126457Y-97257913D01*
X124106502Y-97486000D01*
X116573498Y-97486000D01*
X116553543Y-97257913D01*
X116494284Y-97036757D01*
X116397523Y-96829251D01*
X116266198Y-96641700D01*
X116104300Y-96479802D01*
X116058956Y-96448052D01*
X115916749Y-96348477D01*
X115709246Y-96251717D01*
X115709240Y-96251715D01*
X115573248Y-96215276D01*
X115488087Y-96192457D01*
X115260000Y-96172502D01*
X115031913Y-96192457D01*
X114810759Y-96251715D01*
X114810753Y-96251717D01*
X114603250Y-96348477D01*
X114415703Y-96479799D01*
X114415697Y-96479804D01*
X114253804Y-96641697D01*
X114253799Y-96641703D01*
X114122477Y-96829250D01*
X114025717Y-97036753D01*
X114025715Y-97036759D01*
X113966457Y-97257913D01*
X113946502Y-97486000D01*
X113966457Y-97714087D01*
X113978646Y-97759577D01*
X113976956Y-97830554D01*
X113946036Y-97881281D01*
X113895225Y-97932094D01*
X113832914Y-97966120D01*
X113806128Y-97969000D01*
X110810828Y-97969000D01*
X110742707Y-97948998D01*
X110711775Y-97919267D01*
X110711287Y-97919678D01*
X110707745Y-97915457D01*
X110552042Y-97759754D01*
X110552038Y-97759751D01*
X110486823Y-97714087D01*
X110371654Y-97633444D01*
X110371648Y-97633441D01*
X110371648Y-97633440D01*
X110239232Y-97571695D01*
X110185946Y-97524778D01*
X110166485Y-97456501D01*
X110187026Y-97388541D01*
X110239232Y-97343305D01*
X110371648Y-97281559D01*
X110371648Y-97281558D01*
X110371654Y-97281556D01*
X110552038Y-97155249D01*
X110707749Y-96999538D01*
X110834056Y-96819154D01*
X110927120Y-96619576D01*
X110984115Y-96406871D01*
X111003307Y-96187500D01*
X110993091Y-96070737D01*
X111007080Y-96001135D01*
X111029514Y-95970666D01*
X111604777Y-95395404D01*
X111667089Y-95361379D01*
X111693872Y-95358500D01*
X114774706Y-95358500D01*
X114902173Y-95333145D01*
X114921247Y-95329351D01*
X115059284Y-95272174D01*
X115183515Y-95189166D01*
X117557714Y-92814967D01*
X128772001Y-92814967D01*
X128786801Y-92946329D01*
X128786803Y-92946340D01*
X128845078Y-93112880D01*
X128845079Y-93112883D01*
X128938951Y-93262279D01*
X128938952Y-93262281D01*
X129063718Y-93387047D01*
X129063720Y-93387048D01*
X129213116Y-93480920D01*
X129213119Y-93480921D01*
X129379660Y-93539196D01*
X129511032Y-93553999D01*
X129926000Y-93553999D01*
X129926000Y-92750000D01*
X128772001Y-92750000D01*
X128772001Y-92814967D01*
X117557714Y-92814967D01*
X117689166Y-92683515D01*
X117772174Y-92559284D01*
X117829351Y-92421246D01*
X117858500Y-92274705D01*
X117858500Y-92125295D01*
X117858500Y-91206000D01*
X124106502Y-91206000D01*
X124126457Y-91434086D01*
X124185715Y-91655240D01*
X124185717Y-91655246D01*
X124282477Y-91862749D01*
X124367729Y-91984502D01*
X124413802Y-92050300D01*
X124575700Y-92212198D01*
X124763251Y-92343523D01*
X124970757Y-92440284D01*
X125191913Y-92499543D01*
X125420000Y-92519498D01*
X125648087Y-92499543D01*
X125869243Y-92440284D01*
X126076749Y-92343523D01*
X126264300Y-92212198D01*
X126426198Y-92050300D01*
X126437618Y-92033990D01*
X126448656Y-92018228D01*
X126504113Y-91973900D01*
X126551868Y-91964500D01*
X128654953Y-91964500D01*
X128723074Y-91984502D01*
X128769567Y-92038158D01*
X128780161Y-92104609D01*
X128772000Y-92177032D01*
X128772000Y-92242000D01*
X130303670Y-92242000D01*
X130279925Y-92265745D01*
X130230556Y-92351255D01*
X130205000Y-92446630D01*
X130205000Y-92545370D01*
X130230556Y-92640745D01*
X130279925Y-92726255D01*
X130349745Y-92796075D01*
X130434000Y-92844719D01*
X130434000Y-93553999D01*
X130848968Y-93553999D01*
X130980329Y-93539198D01*
X130980340Y-93539196D01*
X131146880Y-93480921D01*
X131146883Y-93480920D01*
X131296279Y-93387048D01*
X131296281Y-93387047D01*
X131421047Y-93262281D01*
X131421048Y-93262279D01*
X131514920Y-93112883D01*
X131514921Y-93112880D01*
X131573196Y-92946339D01*
X131588000Y-92814967D01*
X131588000Y-92750000D01*
X130856330Y-92750000D01*
X130880075Y-92726255D01*
X130929444Y-92640745D01*
X130955000Y-92545370D01*
X130955000Y-92446630D01*
X130929444Y-92351255D01*
X130880075Y-92265745D01*
X130856330Y-92242000D01*
X131349012Y-92242000D01*
X131390626Y-92249070D01*
X131449552Y-92269690D01*
X131580996Y-92284500D01*
X132919004Y-92284500D01*
X133050448Y-92269690D01*
X133217099Y-92211376D01*
X133366596Y-92117441D01*
X133491441Y-91992596D01*
X133585376Y-91843099D01*
X133643690Y-91676448D01*
X133658500Y-91545004D01*
X133658500Y-90906996D01*
X133643690Y-90775552D01*
X133585376Y-90608901D01*
X133570844Y-90585773D01*
X133491441Y-90459403D01*
X133366596Y-90334558D01*
X133217101Y-90240625D01*
X133217099Y-90240624D01*
X133127952Y-90209430D01*
X133070260Y-90168052D01*
X133044098Y-90102051D01*
X133057771Y-90032384D01*
X133106938Y-89981168D01*
X133169567Y-89964501D01*
X137327414Y-89964501D01*
X137395535Y-89984503D01*
X137442028Y-90038159D01*
X137452933Y-90079515D01*
X137466457Y-90234087D01*
X137489879Y-90321500D01*
X137525715Y-90455240D01*
X137525717Y-90455246D01*
X137562360Y-90533827D01*
X137622477Y-90662749D01*
X137753802Y-90850300D01*
X137915700Y-91012198D01*
X138103251Y-91143523D01*
X138310757Y-91240284D01*
X138531913Y-91299543D01*
X138760000Y-91319498D01*
X138988087Y-91299543D01*
X139209243Y-91240284D01*
X139416749Y-91143523D01*
X139604300Y-91012198D01*
X139766198Y-90850300D01*
X139897523Y-90662749D01*
X139994284Y-90455243D01*
X140053543Y-90234087D01*
X140073498Y-90006000D01*
X140053543Y-89777913D01*
X139994284Y-89556757D01*
X139897523Y-89349251D01*
X139766198Y-89161700D01*
X139604300Y-88999802D01*
X139540473Y-88955110D01*
X139416749Y-88868477D01*
X139209246Y-88771717D01*
X139209240Y-88771715D01*
X139115771Y-88746670D01*
X138988087Y-88712457D01*
X138760000Y-88692502D01*
X138759998Y-88692502D01*
X138597084Y-88706754D01*
X138527480Y-88692764D01*
X138497009Y-88670328D01*
X138443520Y-88616839D01*
X138443516Y-88616835D01*
X138319285Y-88533827D01*
X138181250Y-88476651D01*
X138181248Y-88476650D01*
X138093943Y-88459284D01*
X138064325Y-88453392D01*
X138034708Y-88447501D01*
X138034707Y-88447501D01*
X131255293Y-88447501D01*
X131255291Y-88447501D01*
X131215802Y-88455356D01*
X131196057Y-88459284D01*
X131108752Y-88476650D01*
X131108749Y-88476651D01*
X130970715Y-88533827D01*
X130846485Y-88616834D01*
X130846479Y-88616839D01*
X130602724Y-88860595D01*
X130540412Y-88894621D01*
X130513629Y-88897500D01*
X129231350Y-88897500D01*
X129170803Y-88904009D01*
X129170795Y-88904011D01*
X129033797Y-88955110D01*
X129033792Y-88955112D01*
X128916738Y-89042738D01*
X128829112Y-89159792D01*
X128829110Y-89159797D01*
X128778011Y-89296795D01*
X128778009Y-89296803D01*
X128771500Y-89357350D01*
X128771500Y-90321500D01*
X128751498Y-90389621D01*
X128697842Y-90436114D01*
X128645500Y-90447500D01*
X126551868Y-90447500D01*
X126483747Y-90427498D01*
X126448656Y-90393772D01*
X126426202Y-90361706D01*
X126426200Y-90361703D01*
X126426198Y-90361700D01*
X126264300Y-90199802D01*
X126218956Y-90168052D01*
X126076749Y-90068477D01*
X125869246Y-89971717D01*
X125869240Y-89971715D01*
X125775771Y-89946670D01*
X125648087Y-89912457D01*
X125420000Y-89892502D01*
X125191913Y-89912457D01*
X124970759Y-89971715D01*
X124970753Y-89971717D01*
X124763250Y-90068477D01*
X124575703Y-90199799D01*
X124575697Y-90199804D01*
X124413804Y-90361697D01*
X124413799Y-90361703D01*
X124282477Y-90549250D01*
X124185717Y-90756753D01*
X124185715Y-90756759D01*
X124126457Y-90977913D01*
X124106502Y-91206000D01*
X117858500Y-91206000D01*
X117858500Y-86691294D01*
X117829351Y-86544754D01*
X117772174Y-86406716D01*
X117754129Y-86379709D01*
X117754128Y-86379708D01*
X117732671Y-86347595D01*
X117689166Y-86282485D01*
X116595670Y-85188989D01*
X116561644Y-85126677D01*
X116559245Y-85088912D01*
X116565314Y-85019542D01*
X116573498Y-84926000D01*
X116553543Y-84697913D01*
X116494284Y-84476757D01*
X116397523Y-84269251D01*
X116266198Y-84081700D01*
X116104300Y-83919802D01*
X115916749Y-83788477D01*
X115833308Y-83749568D01*
X115709246Y-83691717D01*
X115709240Y-83691715D01*
X115615771Y-83666670D01*
X115488087Y-83632457D01*
X115260000Y-83612502D01*
X115031913Y-83632457D01*
X114810759Y-83691715D01*
X114810753Y-83691717D01*
X114603250Y-83788477D01*
X114415703Y-83919799D01*
X114415697Y-83919804D01*
X114253804Y-84081697D01*
X114253799Y-84081703D01*
X114122477Y-84269250D01*
X114025717Y-84476753D01*
X114025715Y-84476759D01*
X113966457Y-84697913D01*
X113946502Y-84926000D01*
X113966457Y-85154086D01*
X114025715Y-85375240D01*
X114025717Y-85375246D01*
X114122477Y-85582749D01*
X114207729Y-85704502D01*
X114253802Y-85770300D01*
X114415700Y-85932198D01*
X114603251Y-86063523D01*
X114810757Y-86160284D01*
X115031913Y-86219543D01*
X115260000Y-86239498D01*
X115391286Y-86228011D01*
X115422912Y-86225245D01*
X115492517Y-86239233D01*
X115522989Y-86261670D01*
X116304595Y-87043276D01*
X116338621Y-87105588D01*
X116341500Y-87132371D01*
X116341500Y-90132811D01*
X116321498Y-90200932D01*
X116267842Y-90247425D01*
X116197568Y-90257529D01*
X116132988Y-90228035D01*
X116126406Y-90221908D01*
X116104300Y-90199802D01*
X116058956Y-90168052D01*
X115916749Y-90068477D01*
X115709246Y-89971717D01*
X115709240Y-89971715D01*
X115615771Y-89946670D01*
X115488087Y-89912457D01*
X115260000Y-89892502D01*
X115031913Y-89912457D01*
X114810759Y-89971715D01*
X114810753Y-89971717D01*
X114603250Y-90068477D01*
X114415703Y-90199799D01*
X114415697Y-90199804D01*
X114253804Y-90361697D01*
X114253797Y-90361706D01*
X114231344Y-90393772D01*
X114175887Y-90438100D01*
X114128132Y-90447500D01*
X108236788Y-90447500D01*
X108163524Y-90462073D01*
X108163524Y-90462074D01*
X108090253Y-90476649D01*
X108090251Y-90476649D01*
X108090250Y-90476650D01*
X107952214Y-90533827D01*
X107827986Y-90616833D01*
X107827980Y-90616838D01*
X105310837Y-93133981D01*
X105310832Y-93133988D01*
X105227826Y-93258215D01*
X105170650Y-93396250D01*
X105170649Y-93396253D01*
X105141500Y-93542790D01*
X102700500Y-93542790D01*
X102700500Y-93526212D01*
X102668838Y-93285711D01*
X102606054Y-93051400D01*
X102513224Y-92827288D01*
X102513218Y-92827279D01*
X102513217Y-92827275D01*
X102391938Y-92617214D01*
X102391936Y-92617211D01*
X102244265Y-92424762D01*
X102244259Y-92424756D01*
X102244255Y-92424751D01*
X102072748Y-92253244D01*
X102072742Y-92253239D01*
X102072738Y-92253235D01*
X101880289Y-92105564D01*
X101880288Y-92105563D01*
X101880285Y-92105561D01*
X101670224Y-91984282D01*
X101670216Y-91984278D01*
X101670212Y-91984276D01*
X101446100Y-91891446D01*
X101446097Y-91891445D01*
X101446095Y-91891444D01*
X101211782Y-91828660D01*
X100971290Y-91797000D01*
X100971288Y-91797000D01*
X100728712Y-91797000D01*
X100728709Y-91797000D01*
X100488217Y-91828660D01*
X100253904Y-91891444D01*
X100253900Y-91891446D01*
X100029786Y-91984277D01*
X100029775Y-91984282D01*
X99819714Y-92105561D01*
X99627262Y-92253235D01*
X99627251Y-92253244D01*
X99455744Y-92424751D01*
X99455735Y-92424762D01*
X99308061Y-92617214D01*
X99186782Y-92827275D01*
X99186777Y-92827286D01*
X99093946Y-93051400D01*
X99093944Y-93051404D01*
X99031160Y-93285717D01*
X98999500Y-93526209D01*
X92700000Y-93526209D01*
X92700000Y-77110324D01*
X104497041Y-77110324D01*
X104497041Y-77110337D01*
X104516854Y-77425275D01*
X104516856Y-77425292D01*
X104575989Y-77735273D01*
X104575992Y-77735286D01*
X104673509Y-78035410D01*
X104673513Y-78035419D01*
X104807875Y-78320953D01*
X104807882Y-78320967D01*
X104976969Y-78587406D01*
X104976971Y-78587409D01*
X105066042Y-78695077D01*
X105713367Y-78047752D01*
X105789588Y-78152661D01*
X105967670Y-78330743D01*
X106072576Y-78406962D01*
X105422522Y-79057017D01*
X105422522Y-79057019D01*
X105663482Y-79232087D01*
X105940034Y-79384123D01*
X106233460Y-79500299D01*
X106233466Y-79500301D01*
X106539103Y-79578775D01*
X106539130Y-79578780D01*
X106852195Y-79618329D01*
X106852214Y-79618331D01*
X107167786Y-79618331D01*
X107167804Y-79618329D01*
X107480869Y-79578780D01*
X107480896Y-79578775D01*
X107786533Y-79500301D01*
X107786539Y-79500299D01*
X108079965Y-79384123D01*
X108356512Y-79232090D01*
X108597476Y-79057019D01*
X108597476Y-79057017D01*
X107947422Y-78406962D01*
X108052330Y-78330743D01*
X108230412Y-78152661D01*
X108306632Y-78047753D01*
X108953956Y-78695077D01*
X109043030Y-78587406D01*
X109043033Y-78587402D01*
X109212117Y-78320967D01*
X109212124Y-78320953D01*
X109346486Y-78035419D01*
X109346490Y-78035410D01*
X109444007Y-77735286D01*
X109444010Y-77735273D01*
X109503143Y-77425292D01*
X109503145Y-77425275D01*
X109522959Y-77110337D01*
X109522959Y-77110324D01*
X109503145Y-76795386D01*
X109503143Y-76795369D01*
X109444010Y-76485388D01*
X109444007Y-76485375D01*
X109346490Y-76185251D01*
X109346486Y-76185242D01*
X109212124Y-75899708D01*
X109212117Y-75899694D01*
X109043030Y-75633255D01*
X109043028Y-75633252D01*
X108953956Y-75525583D01*
X108306631Y-76172907D01*
X108230412Y-76068001D01*
X108052330Y-75889919D01*
X107947421Y-75813698D01*
X108597476Y-75163643D01*
X108597476Y-75163641D01*
X108356513Y-74988571D01*
X108079965Y-74836538D01*
X107786539Y-74720362D01*
X107786533Y-74720360D01*
X107480896Y-74641886D01*
X107480869Y-74641881D01*
X107167804Y-74602332D01*
X107167786Y-74602331D01*
X106852214Y-74602331D01*
X106852195Y-74602332D01*
X106539130Y-74641881D01*
X106539103Y-74641886D01*
X106233466Y-74720360D01*
X106233460Y-74720362D01*
X105940034Y-74836538D01*
X105663486Y-74988571D01*
X105422522Y-75163641D01*
X105422522Y-75163643D01*
X106072577Y-75813698D01*
X105967670Y-75889919D01*
X105789588Y-76068001D01*
X105713367Y-76172908D01*
X105066042Y-75525583D01*
X104976972Y-75633252D01*
X104976969Y-75633255D01*
X104807882Y-75899694D01*
X104807875Y-75899708D01*
X104673513Y-76185242D01*
X104673509Y-76185251D01*
X104575992Y-76485375D01*
X104575989Y-76485388D01*
X104516856Y-76795369D01*
X104516854Y-76795386D01*
X104497041Y-77110324D01*
X92700000Y-77110324D01*
X92700000Y-65426000D01*
X92720002Y-65357879D01*
X92773658Y-65311386D01*
X92826000Y-65300000D01*
X173174180Y-65300000D01*
X173242301Y-65320002D01*
G37*
%TD.AperFunction*%
%TD*%
M02*
