%TF.GenerationSoftware,KiCad,Pcbnew,8.0.4*%
%TF.CreationDate,2024-09-02T12:40:36+02:00*%
%TF.ProjectId,Big7segDisplayDrv,42696737-7365-4674-9469-73706c617944,rev?*%
%TF.SameCoordinates,Original*%
%TF.FileFunction,Legend,Top*%
%TF.FilePolarity,Positive*%
%FSLAX46Y46*%
G04 Gerber Fmt 4.6, Leading zero omitted, Abs format (unit mm)*
G04 Created by KiCad (PCBNEW 8.0.4) date 2024-09-02 12:40:36*
%MOMM*%
%LPD*%
G01*
G04 APERTURE LIST*
%ADD10C,0.150000*%
%ADD11C,0.120000*%
%ADD12C,0.000000*%
G04 APERTURE END LIST*
D10*
X119176666Y-80785150D02*
X119176666Y-81499435D01*
X119176666Y-81499435D02*
X119129047Y-81642292D01*
X119129047Y-81642292D02*
X119033809Y-81737531D01*
X119033809Y-81737531D02*
X118890952Y-81785150D01*
X118890952Y-81785150D02*
X118795714Y-81785150D01*
X120081428Y-80785150D02*
X119890952Y-80785150D01*
X119890952Y-80785150D02*
X119795714Y-80832769D01*
X119795714Y-80832769D02*
X119748095Y-80880388D01*
X119748095Y-80880388D02*
X119652857Y-81023245D01*
X119652857Y-81023245D02*
X119605238Y-81213721D01*
X119605238Y-81213721D02*
X119605238Y-81594673D01*
X119605238Y-81594673D02*
X119652857Y-81689911D01*
X119652857Y-81689911D02*
X119700476Y-81737531D01*
X119700476Y-81737531D02*
X119795714Y-81785150D01*
X119795714Y-81785150D02*
X119986190Y-81785150D01*
X119986190Y-81785150D02*
X120081428Y-81737531D01*
X120081428Y-81737531D02*
X120129047Y-81689911D01*
X120129047Y-81689911D02*
X120176666Y-81594673D01*
X120176666Y-81594673D02*
X120176666Y-81356578D01*
X120176666Y-81356578D02*
X120129047Y-81261340D01*
X120129047Y-81261340D02*
X120081428Y-81213721D01*
X120081428Y-81213721D02*
X119986190Y-81166102D01*
X119986190Y-81166102D02*
X119795714Y-81166102D01*
X119795714Y-81166102D02*
X119700476Y-81213721D01*
X119700476Y-81213721D02*
X119652857Y-81261340D01*
X119652857Y-81261340D02*
X119605238Y-81356578D01*
X135530057Y-85047238D02*
X135482438Y-85142476D01*
X135482438Y-85142476D02*
X135387200Y-85237714D01*
X135387200Y-85237714D02*
X135244342Y-85380571D01*
X135244342Y-85380571D02*
X135196723Y-85475809D01*
X135196723Y-85475809D02*
X135196723Y-85571047D01*
X135434819Y-85523428D02*
X135387200Y-85618666D01*
X135387200Y-85618666D02*
X135291961Y-85713904D01*
X135291961Y-85713904D02*
X135101485Y-85761523D01*
X135101485Y-85761523D02*
X134768152Y-85761523D01*
X134768152Y-85761523D02*
X134577676Y-85713904D01*
X134577676Y-85713904D02*
X134482438Y-85618666D01*
X134482438Y-85618666D02*
X134434819Y-85523428D01*
X134434819Y-85523428D02*
X134434819Y-85332952D01*
X134434819Y-85332952D02*
X134482438Y-85237714D01*
X134482438Y-85237714D02*
X134577676Y-85142476D01*
X134577676Y-85142476D02*
X134768152Y-85094857D01*
X134768152Y-85094857D02*
X135101485Y-85094857D01*
X135101485Y-85094857D02*
X135291961Y-85142476D01*
X135291961Y-85142476D02*
X135387200Y-85237714D01*
X135387200Y-85237714D02*
X135434819Y-85332952D01*
X135434819Y-85332952D02*
X135434819Y-85523428D01*
X135434819Y-84142476D02*
X135434819Y-84713904D01*
X135434819Y-84428190D02*
X134434819Y-84428190D01*
X134434819Y-84428190D02*
X134577676Y-84523428D01*
X134577676Y-84523428D02*
X134672914Y-84618666D01*
X134672914Y-84618666D02*
X134720533Y-84713904D01*
X151276666Y-80785150D02*
X151276666Y-81499435D01*
X151276666Y-81499435D02*
X151229047Y-81642292D01*
X151229047Y-81642292D02*
X151133809Y-81737531D01*
X151133809Y-81737531D02*
X150990952Y-81785150D01*
X150990952Y-81785150D02*
X150895714Y-81785150D01*
X151657619Y-80785150D02*
X152324285Y-80785150D01*
X152324285Y-80785150D02*
X151895714Y-81785150D01*
X156504819Y-101659523D02*
X157219104Y-101659523D01*
X157219104Y-101659523D02*
X157361961Y-101707142D01*
X157361961Y-101707142D02*
X157457200Y-101802380D01*
X157457200Y-101802380D02*
X157504819Y-101945237D01*
X157504819Y-101945237D02*
X157504819Y-102040475D01*
X157504819Y-100659523D02*
X157504819Y-101230951D01*
X157504819Y-100945237D02*
X156504819Y-100945237D01*
X156504819Y-100945237D02*
X156647676Y-101040475D01*
X156647676Y-101040475D02*
X156742914Y-101135713D01*
X156742914Y-101135713D02*
X156790533Y-101230951D01*
X156504819Y-100040475D02*
X156504819Y-99945237D01*
X156504819Y-99945237D02*
X156552438Y-99849999D01*
X156552438Y-99849999D02*
X156600057Y-99802380D01*
X156600057Y-99802380D02*
X156695295Y-99754761D01*
X156695295Y-99754761D02*
X156885771Y-99707142D01*
X156885771Y-99707142D02*
X157123866Y-99707142D01*
X157123866Y-99707142D02*
X157314342Y-99754761D01*
X157314342Y-99754761D02*
X157409580Y-99802380D01*
X157409580Y-99802380D02*
X157457200Y-99849999D01*
X157457200Y-99849999D02*
X157504819Y-99945237D01*
X157504819Y-99945237D02*
X157504819Y-100040475D01*
X157504819Y-100040475D02*
X157457200Y-100135713D01*
X157457200Y-100135713D02*
X157409580Y-100183332D01*
X157409580Y-100183332D02*
X157314342Y-100230951D01*
X157314342Y-100230951D02*
X157123866Y-100278570D01*
X157123866Y-100278570D02*
X156885771Y-100278570D01*
X156885771Y-100278570D02*
X156695295Y-100230951D01*
X156695295Y-100230951D02*
X156600057Y-100183332D01*
X156600057Y-100183332D02*
X156552438Y-100135713D01*
X156552438Y-100135713D02*
X156504819Y-100040475D01*
X135530057Y-110143238D02*
X135482438Y-110238476D01*
X135482438Y-110238476D02*
X135387200Y-110333714D01*
X135387200Y-110333714D02*
X135244342Y-110476571D01*
X135244342Y-110476571D02*
X135196723Y-110571809D01*
X135196723Y-110571809D02*
X135196723Y-110667047D01*
X135434819Y-110619428D02*
X135387200Y-110714666D01*
X135387200Y-110714666D02*
X135291961Y-110809904D01*
X135291961Y-110809904D02*
X135101485Y-110857523D01*
X135101485Y-110857523D02*
X134768152Y-110857523D01*
X134768152Y-110857523D02*
X134577676Y-110809904D01*
X134577676Y-110809904D02*
X134482438Y-110714666D01*
X134482438Y-110714666D02*
X134434819Y-110619428D01*
X134434819Y-110619428D02*
X134434819Y-110428952D01*
X134434819Y-110428952D02*
X134482438Y-110333714D01*
X134482438Y-110333714D02*
X134577676Y-110238476D01*
X134577676Y-110238476D02*
X134768152Y-110190857D01*
X134768152Y-110190857D02*
X135101485Y-110190857D01*
X135101485Y-110190857D02*
X135291961Y-110238476D01*
X135291961Y-110238476D02*
X135387200Y-110333714D01*
X135387200Y-110333714D02*
X135434819Y-110428952D01*
X135434819Y-110428952D02*
X135434819Y-110619428D01*
X134434819Y-109286095D02*
X134434819Y-109762285D01*
X134434819Y-109762285D02*
X134911009Y-109809904D01*
X134911009Y-109809904D02*
X134863390Y-109762285D01*
X134863390Y-109762285D02*
X134815771Y-109667047D01*
X134815771Y-109667047D02*
X134815771Y-109428952D01*
X134815771Y-109428952D02*
X134863390Y-109333714D01*
X134863390Y-109333714D02*
X134911009Y-109286095D01*
X134911009Y-109286095D02*
X135006247Y-109238476D01*
X135006247Y-109238476D02*
X135244342Y-109238476D01*
X135244342Y-109238476D02*
X135339580Y-109286095D01*
X135339580Y-109286095D02*
X135387200Y-109333714D01*
X135387200Y-109333714D02*
X135434819Y-109428952D01*
X135434819Y-109428952D02*
X135434819Y-109667047D01*
X135434819Y-109667047D02*
X135387200Y-109762285D01*
X135387200Y-109762285D02*
X135339580Y-109809904D01*
X155033333Y-107959580D02*
X154985714Y-108007200D01*
X154985714Y-108007200D02*
X154842857Y-108054819D01*
X154842857Y-108054819D02*
X154747619Y-108054819D01*
X154747619Y-108054819D02*
X154604762Y-108007200D01*
X154604762Y-108007200D02*
X154509524Y-107911961D01*
X154509524Y-107911961D02*
X154461905Y-107816723D01*
X154461905Y-107816723D02*
X154414286Y-107626247D01*
X154414286Y-107626247D02*
X154414286Y-107483390D01*
X154414286Y-107483390D02*
X154461905Y-107292914D01*
X154461905Y-107292914D02*
X154509524Y-107197676D01*
X154509524Y-107197676D02*
X154604762Y-107102438D01*
X154604762Y-107102438D02*
X154747619Y-107054819D01*
X154747619Y-107054819D02*
X154842857Y-107054819D01*
X154842857Y-107054819D02*
X154985714Y-107102438D01*
X154985714Y-107102438D02*
X155033333Y-107150057D01*
X155985714Y-108054819D02*
X155414286Y-108054819D01*
X155700000Y-108054819D02*
X155700000Y-107054819D01*
X155700000Y-107054819D02*
X155604762Y-107197676D01*
X155604762Y-107197676D02*
X155509524Y-107292914D01*
X155509524Y-107292914D02*
X155414286Y-107340533D01*
X143673333Y-94370819D02*
X143340000Y-93894628D01*
X143101905Y-94370819D02*
X143101905Y-93370819D01*
X143101905Y-93370819D02*
X143482857Y-93370819D01*
X143482857Y-93370819D02*
X143578095Y-93418438D01*
X143578095Y-93418438D02*
X143625714Y-93466057D01*
X143625714Y-93466057D02*
X143673333Y-93561295D01*
X143673333Y-93561295D02*
X143673333Y-93704152D01*
X143673333Y-93704152D02*
X143625714Y-93799390D01*
X143625714Y-93799390D02*
X143578095Y-93847009D01*
X143578095Y-93847009D02*
X143482857Y-93894628D01*
X143482857Y-93894628D02*
X143101905Y-93894628D01*
X144006667Y-93370819D02*
X144625714Y-93370819D01*
X144625714Y-93370819D02*
X144292381Y-93751771D01*
X144292381Y-93751771D02*
X144435238Y-93751771D01*
X144435238Y-93751771D02*
X144530476Y-93799390D01*
X144530476Y-93799390D02*
X144578095Y-93847009D01*
X144578095Y-93847009D02*
X144625714Y-93942247D01*
X144625714Y-93942247D02*
X144625714Y-94180342D01*
X144625714Y-94180342D02*
X144578095Y-94275580D01*
X144578095Y-94275580D02*
X144530476Y-94323200D01*
X144530476Y-94323200D02*
X144435238Y-94370819D01*
X144435238Y-94370819D02*
X144149524Y-94370819D01*
X144149524Y-94370819D02*
X144054286Y-94323200D01*
X144054286Y-94323200D02*
X144006667Y-94275580D01*
X135530057Y-91321238D02*
X135482438Y-91416476D01*
X135482438Y-91416476D02*
X135387200Y-91511714D01*
X135387200Y-91511714D02*
X135244342Y-91654571D01*
X135244342Y-91654571D02*
X135196723Y-91749809D01*
X135196723Y-91749809D02*
X135196723Y-91845047D01*
X135434819Y-91797428D02*
X135387200Y-91892666D01*
X135387200Y-91892666D02*
X135291961Y-91987904D01*
X135291961Y-91987904D02*
X135101485Y-92035523D01*
X135101485Y-92035523D02*
X134768152Y-92035523D01*
X134768152Y-92035523D02*
X134577676Y-91987904D01*
X134577676Y-91987904D02*
X134482438Y-91892666D01*
X134482438Y-91892666D02*
X134434819Y-91797428D01*
X134434819Y-91797428D02*
X134434819Y-91606952D01*
X134434819Y-91606952D02*
X134482438Y-91511714D01*
X134482438Y-91511714D02*
X134577676Y-91416476D01*
X134577676Y-91416476D02*
X134768152Y-91368857D01*
X134768152Y-91368857D02*
X135101485Y-91368857D01*
X135101485Y-91368857D02*
X135291961Y-91416476D01*
X135291961Y-91416476D02*
X135387200Y-91511714D01*
X135387200Y-91511714D02*
X135434819Y-91606952D01*
X135434819Y-91606952D02*
X135434819Y-91797428D01*
X134530057Y-90987904D02*
X134482438Y-90940285D01*
X134482438Y-90940285D02*
X134434819Y-90845047D01*
X134434819Y-90845047D02*
X134434819Y-90606952D01*
X134434819Y-90606952D02*
X134482438Y-90511714D01*
X134482438Y-90511714D02*
X134530057Y-90464095D01*
X134530057Y-90464095D02*
X134625295Y-90416476D01*
X134625295Y-90416476D02*
X134720533Y-90416476D01*
X134720533Y-90416476D02*
X134863390Y-90464095D01*
X134863390Y-90464095D02*
X135434819Y-91035523D01*
X135434819Y-91035523D02*
X135434819Y-90416476D01*
X111654819Y-99695833D02*
X112369104Y-99695833D01*
X112369104Y-99695833D02*
X112511961Y-99743452D01*
X112511961Y-99743452D02*
X112607200Y-99838690D01*
X112607200Y-99838690D02*
X112654819Y-99981547D01*
X112654819Y-99981547D02*
X112654819Y-100076785D01*
X112083390Y-99076785D02*
X112035771Y-99172023D01*
X112035771Y-99172023D02*
X111988152Y-99219642D01*
X111988152Y-99219642D02*
X111892914Y-99267261D01*
X111892914Y-99267261D02*
X111845295Y-99267261D01*
X111845295Y-99267261D02*
X111750057Y-99219642D01*
X111750057Y-99219642D02*
X111702438Y-99172023D01*
X111702438Y-99172023D02*
X111654819Y-99076785D01*
X111654819Y-99076785D02*
X111654819Y-98886309D01*
X111654819Y-98886309D02*
X111702438Y-98791071D01*
X111702438Y-98791071D02*
X111750057Y-98743452D01*
X111750057Y-98743452D02*
X111845295Y-98695833D01*
X111845295Y-98695833D02*
X111892914Y-98695833D01*
X111892914Y-98695833D02*
X111988152Y-98743452D01*
X111988152Y-98743452D02*
X112035771Y-98791071D01*
X112035771Y-98791071D02*
X112083390Y-98886309D01*
X112083390Y-98886309D02*
X112083390Y-99076785D01*
X112083390Y-99076785D02*
X112131009Y-99172023D01*
X112131009Y-99172023D02*
X112178628Y-99219642D01*
X112178628Y-99219642D02*
X112273866Y-99267261D01*
X112273866Y-99267261D02*
X112464342Y-99267261D01*
X112464342Y-99267261D02*
X112559580Y-99219642D01*
X112559580Y-99219642D02*
X112607200Y-99172023D01*
X112607200Y-99172023D02*
X112654819Y-99076785D01*
X112654819Y-99076785D02*
X112654819Y-98886309D01*
X112654819Y-98886309D02*
X112607200Y-98791071D01*
X112607200Y-98791071D02*
X112559580Y-98743452D01*
X112559580Y-98743452D02*
X112464342Y-98695833D01*
X112464342Y-98695833D02*
X112273866Y-98695833D01*
X112273866Y-98695833D02*
X112178628Y-98743452D01*
X112178628Y-98743452D02*
X112131009Y-98791071D01*
X112131009Y-98791071D02*
X112083390Y-98886309D01*
X135530057Y-103869238D02*
X135482438Y-103964476D01*
X135482438Y-103964476D02*
X135387200Y-104059714D01*
X135387200Y-104059714D02*
X135244342Y-104202571D01*
X135244342Y-104202571D02*
X135196723Y-104297809D01*
X135196723Y-104297809D02*
X135196723Y-104393047D01*
X135434819Y-104345428D02*
X135387200Y-104440666D01*
X135387200Y-104440666D02*
X135291961Y-104535904D01*
X135291961Y-104535904D02*
X135101485Y-104583523D01*
X135101485Y-104583523D02*
X134768152Y-104583523D01*
X134768152Y-104583523D02*
X134577676Y-104535904D01*
X134577676Y-104535904D02*
X134482438Y-104440666D01*
X134482438Y-104440666D02*
X134434819Y-104345428D01*
X134434819Y-104345428D02*
X134434819Y-104154952D01*
X134434819Y-104154952D02*
X134482438Y-104059714D01*
X134482438Y-104059714D02*
X134577676Y-103964476D01*
X134577676Y-103964476D02*
X134768152Y-103916857D01*
X134768152Y-103916857D02*
X135101485Y-103916857D01*
X135101485Y-103916857D02*
X135291961Y-103964476D01*
X135291961Y-103964476D02*
X135387200Y-104059714D01*
X135387200Y-104059714D02*
X135434819Y-104154952D01*
X135434819Y-104154952D02*
X135434819Y-104345428D01*
X134768152Y-103059714D02*
X135434819Y-103059714D01*
X134387200Y-103297809D02*
X135101485Y-103535904D01*
X135101485Y-103535904D02*
X135101485Y-102916857D01*
X120173333Y-100310819D02*
X119840000Y-99834628D01*
X119601905Y-100310819D02*
X119601905Y-99310819D01*
X119601905Y-99310819D02*
X119982857Y-99310819D01*
X119982857Y-99310819D02*
X120078095Y-99358438D01*
X120078095Y-99358438D02*
X120125714Y-99406057D01*
X120125714Y-99406057D02*
X120173333Y-99501295D01*
X120173333Y-99501295D02*
X120173333Y-99644152D01*
X120173333Y-99644152D02*
X120125714Y-99739390D01*
X120125714Y-99739390D02*
X120078095Y-99787009D01*
X120078095Y-99787009D02*
X119982857Y-99834628D01*
X119982857Y-99834628D02*
X119601905Y-99834628D01*
X120649524Y-100310819D02*
X120840000Y-100310819D01*
X120840000Y-100310819D02*
X120935238Y-100263200D01*
X120935238Y-100263200D02*
X120982857Y-100215580D01*
X120982857Y-100215580D02*
X121078095Y-100072723D01*
X121078095Y-100072723D02*
X121125714Y-99882247D01*
X121125714Y-99882247D02*
X121125714Y-99501295D01*
X121125714Y-99501295D02*
X121078095Y-99406057D01*
X121078095Y-99406057D02*
X121030476Y-99358438D01*
X121030476Y-99358438D02*
X120935238Y-99310819D01*
X120935238Y-99310819D02*
X120744762Y-99310819D01*
X120744762Y-99310819D02*
X120649524Y-99358438D01*
X120649524Y-99358438D02*
X120601905Y-99406057D01*
X120601905Y-99406057D02*
X120554286Y-99501295D01*
X120554286Y-99501295D02*
X120554286Y-99739390D01*
X120554286Y-99739390D02*
X120601905Y-99834628D01*
X120601905Y-99834628D02*
X120649524Y-99882247D01*
X120649524Y-99882247D02*
X120744762Y-99929866D01*
X120744762Y-99929866D02*
X120935238Y-99929866D01*
X120935238Y-99929866D02*
X121030476Y-99882247D01*
X121030476Y-99882247D02*
X121078095Y-99834628D01*
X121078095Y-99834628D02*
X121125714Y-99739390D01*
X143673333Y-81810819D02*
X143340000Y-81334628D01*
X143101905Y-81810819D02*
X143101905Y-80810819D01*
X143101905Y-80810819D02*
X143482857Y-80810819D01*
X143482857Y-80810819D02*
X143578095Y-80858438D01*
X143578095Y-80858438D02*
X143625714Y-80906057D01*
X143625714Y-80906057D02*
X143673333Y-81001295D01*
X143673333Y-81001295D02*
X143673333Y-81144152D01*
X143673333Y-81144152D02*
X143625714Y-81239390D01*
X143625714Y-81239390D02*
X143578095Y-81287009D01*
X143578095Y-81287009D02*
X143482857Y-81334628D01*
X143482857Y-81334628D02*
X143101905Y-81334628D01*
X144625714Y-81810819D02*
X144054286Y-81810819D01*
X144340000Y-81810819D02*
X144340000Y-80810819D01*
X144340000Y-80810819D02*
X144244762Y-80953676D01*
X144244762Y-80953676D02*
X144149524Y-81048914D01*
X144149524Y-81048914D02*
X144054286Y-81096533D01*
X143673333Y-88090819D02*
X143340000Y-87614628D01*
X143101905Y-88090819D02*
X143101905Y-87090819D01*
X143101905Y-87090819D02*
X143482857Y-87090819D01*
X143482857Y-87090819D02*
X143578095Y-87138438D01*
X143578095Y-87138438D02*
X143625714Y-87186057D01*
X143625714Y-87186057D02*
X143673333Y-87281295D01*
X143673333Y-87281295D02*
X143673333Y-87424152D01*
X143673333Y-87424152D02*
X143625714Y-87519390D01*
X143625714Y-87519390D02*
X143578095Y-87567009D01*
X143578095Y-87567009D02*
X143482857Y-87614628D01*
X143482857Y-87614628D02*
X143101905Y-87614628D01*
X144054286Y-87186057D02*
X144101905Y-87138438D01*
X144101905Y-87138438D02*
X144197143Y-87090819D01*
X144197143Y-87090819D02*
X144435238Y-87090819D01*
X144435238Y-87090819D02*
X144530476Y-87138438D01*
X144530476Y-87138438D02*
X144578095Y-87186057D01*
X144578095Y-87186057D02*
X144625714Y-87281295D01*
X144625714Y-87281295D02*
X144625714Y-87376533D01*
X144625714Y-87376533D02*
X144578095Y-87519390D01*
X144578095Y-87519390D02*
X144006667Y-88090819D01*
X144006667Y-88090819D02*
X144625714Y-88090819D01*
X119156666Y-118924488D02*
X119156666Y-119638773D01*
X119156666Y-119638773D02*
X119109047Y-119781630D01*
X119109047Y-119781630D02*
X119013809Y-119876869D01*
X119013809Y-119876869D02*
X118870952Y-119924488D01*
X118870952Y-119924488D02*
X118775714Y-119924488D01*
X120061428Y-119257821D02*
X120061428Y-119924488D01*
X119823333Y-118876869D02*
X119585238Y-119591154D01*
X119585238Y-119591154D02*
X120204285Y-119591154D01*
X120173333Y-94030819D02*
X119840000Y-93554628D01*
X119601905Y-94030819D02*
X119601905Y-93030819D01*
X119601905Y-93030819D02*
X119982857Y-93030819D01*
X119982857Y-93030819D02*
X120078095Y-93078438D01*
X120078095Y-93078438D02*
X120125714Y-93126057D01*
X120125714Y-93126057D02*
X120173333Y-93221295D01*
X120173333Y-93221295D02*
X120173333Y-93364152D01*
X120173333Y-93364152D02*
X120125714Y-93459390D01*
X120125714Y-93459390D02*
X120078095Y-93507009D01*
X120078095Y-93507009D02*
X119982857Y-93554628D01*
X119982857Y-93554628D02*
X119601905Y-93554628D01*
X120744762Y-93459390D02*
X120649524Y-93411771D01*
X120649524Y-93411771D02*
X120601905Y-93364152D01*
X120601905Y-93364152D02*
X120554286Y-93268914D01*
X120554286Y-93268914D02*
X120554286Y-93221295D01*
X120554286Y-93221295D02*
X120601905Y-93126057D01*
X120601905Y-93126057D02*
X120649524Y-93078438D01*
X120649524Y-93078438D02*
X120744762Y-93030819D01*
X120744762Y-93030819D02*
X120935238Y-93030819D01*
X120935238Y-93030819D02*
X121030476Y-93078438D01*
X121030476Y-93078438D02*
X121078095Y-93126057D01*
X121078095Y-93126057D02*
X121125714Y-93221295D01*
X121125714Y-93221295D02*
X121125714Y-93268914D01*
X121125714Y-93268914D02*
X121078095Y-93364152D01*
X121078095Y-93364152D02*
X121030476Y-93411771D01*
X121030476Y-93411771D02*
X120935238Y-93459390D01*
X120935238Y-93459390D02*
X120744762Y-93459390D01*
X120744762Y-93459390D02*
X120649524Y-93507009D01*
X120649524Y-93507009D02*
X120601905Y-93554628D01*
X120601905Y-93554628D02*
X120554286Y-93649866D01*
X120554286Y-93649866D02*
X120554286Y-93840342D01*
X120554286Y-93840342D02*
X120601905Y-93935580D01*
X120601905Y-93935580D02*
X120649524Y-93983200D01*
X120649524Y-93983200D02*
X120744762Y-94030819D01*
X120744762Y-94030819D02*
X120935238Y-94030819D01*
X120935238Y-94030819D02*
X121030476Y-93983200D01*
X121030476Y-93983200D02*
X121078095Y-93935580D01*
X121078095Y-93935580D02*
X121125714Y-93840342D01*
X121125714Y-93840342D02*
X121125714Y-93649866D01*
X121125714Y-93649866D02*
X121078095Y-93554628D01*
X121078095Y-93554628D02*
X121030476Y-93507009D01*
X121030476Y-93507009D02*
X120935238Y-93459390D01*
X143673333Y-100650819D02*
X143340000Y-100174628D01*
X143101905Y-100650819D02*
X143101905Y-99650819D01*
X143101905Y-99650819D02*
X143482857Y-99650819D01*
X143482857Y-99650819D02*
X143578095Y-99698438D01*
X143578095Y-99698438D02*
X143625714Y-99746057D01*
X143625714Y-99746057D02*
X143673333Y-99841295D01*
X143673333Y-99841295D02*
X143673333Y-99984152D01*
X143673333Y-99984152D02*
X143625714Y-100079390D01*
X143625714Y-100079390D02*
X143578095Y-100127009D01*
X143578095Y-100127009D02*
X143482857Y-100174628D01*
X143482857Y-100174628D02*
X143101905Y-100174628D01*
X144530476Y-99984152D02*
X144530476Y-100650819D01*
X144292381Y-99603200D02*
X144054286Y-100317485D01*
X144054286Y-100317485D02*
X144673333Y-100317485D01*
X135530057Y-116417238D02*
X135482438Y-116512476D01*
X135482438Y-116512476D02*
X135387200Y-116607714D01*
X135387200Y-116607714D02*
X135244342Y-116750571D01*
X135244342Y-116750571D02*
X135196723Y-116845809D01*
X135196723Y-116845809D02*
X135196723Y-116941047D01*
X135434819Y-116893428D02*
X135387200Y-116988666D01*
X135387200Y-116988666D02*
X135291961Y-117083904D01*
X135291961Y-117083904D02*
X135101485Y-117131523D01*
X135101485Y-117131523D02*
X134768152Y-117131523D01*
X134768152Y-117131523D02*
X134577676Y-117083904D01*
X134577676Y-117083904D02*
X134482438Y-116988666D01*
X134482438Y-116988666D02*
X134434819Y-116893428D01*
X134434819Y-116893428D02*
X134434819Y-116702952D01*
X134434819Y-116702952D02*
X134482438Y-116607714D01*
X134482438Y-116607714D02*
X134577676Y-116512476D01*
X134577676Y-116512476D02*
X134768152Y-116464857D01*
X134768152Y-116464857D02*
X135101485Y-116464857D01*
X135101485Y-116464857D02*
X135291961Y-116512476D01*
X135291961Y-116512476D02*
X135387200Y-116607714D01*
X135387200Y-116607714D02*
X135434819Y-116702952D01*
X135434819Y-116702952D02*
X135434819Y-116893428D01*
X134434819Y-115607714D02*
X134434819Y-115798190D01*
X134434819Y-115798190D02*
X134482438Y-115893428D01*
X134482438Y-115893428D02*
X134530057Y-115941047D01*
X134530057Y-115941047D02*
X134672914Y-116036285D01*
X134672914Y-116036285D02*
X134863390Y-116083904D01*
X134863390Y-116083904D02*
X135244342Y-116083904D01*
X135244342Y-116083904D02*
X135339580Y-116036285D01*
X135339580Y-116036285D02*
X135387200Y-115988666D01*
X135387200Y-115988666D02*
X135434819Y-115893428D01*
X135434819Y-115893428D02*
X135434819Y-115702952D01*
X135434819Y-115702952D02*
X135387200Y-115607714D01*
X135387200Y-115607714D02*
X135339580Y-115560095D01*
X135339580Y-115560095D02*
X135244342Y-115512476D01*
X135244342Y-115512476D02*
X135006247Y-115512476D01*
X135006247Y-115512476D02*
X134911009Y-115560095D01*
X134911009Y-115560095D02*
X134863390Y-115607714D01*
X134863390Y-115607714D02*
X134815771Y-115702952D01*
X134815771Y-115702952D02*
X134815771Y-115893428D01*
X134815771Y-115893428D02*
X134863390Y-115988666D01*
X134863390Y-115988666D02*
X134911009Y-116036285D01*
X134911009Y-116036285D02*
X135006247Y-116083904D01*
X119697142Y-106590819D02*
X119363809Y-106114628D01*
X119125714Y-106590819D02*
X119125714Y-105590819D01*
X119125714Y-105590819D02*
X119506666Y-105590819D01*
X119506666Y-105590819D02*
X119601904Y-105638438D01*
X119601904Y-105638438D02*
X119649523Y-105686057D01*
X119649523Y-105686057D02*
X119697142Y-105781295D01*
X119697142Y-105781295D02*
X119697142Y-105924152D01*
X119697142Y-105924152D02*
X119649523Y-106019390D01*
X119649523Y-106019390D02*
X119601904Y-106067009D01*
X119601904Y-106067009D02*
X119506666Y-106114628D01*
X119506666Y-106114628D02*
X119125714Y-106114628D01*
X120649523Y-106590819D02*
X120078095Y-106590819D01*
X120363809Y-106590819D02*
X120363809Y-105590819D01*
X120363809Y-105590819D02*
X120268571Y-105733676D01*
X120268571Y-105733676D02*
X120173333Y-105828914D01*
X120173333Y-105828914D02*
X120078095Y-105876533D01*
X121268571Y-105590819D02*
X121363809Y-105590819D01*
X121363809Y-105590819D02*
X121459047Y-105638438D01*
X121459047Y-105638438D02*
X121506666Y-105686057D01*
X121506666Y-105686057D02*
X121554285Y-105781295D01*
X121554285Y-105781295D02*
X121601904Y-105971771D01*
X121601904Y-105971771D02*
X121601904Y-106209866D01*
X121601904Y-106209866D02*
X121554285Y-106400342D01*
X121554285Y-106400342D02*
X121506666Y-106495580D01*
X121506666Y-106495580D02*
X121459047Y-106543200D01*
X121459047Y-106543200D02*
X121363809Y-106590819D01*
X121363809Y-106590819D02*
X121268571Y-106590819D01*
X121268571Y-106590819D02*
X121173333Y-106543200D01*
X121173333Y-106543200D02*
X121125714Y-106495580D01*
X121125714Y-106495580D02*
X121078095Y-106400342D01*
X121078095Y-106400342D02*
X121030476Y-106209866D01*
X121030476Y-106209866D02*
X121030476Y-105971771D01*
X121030476Y-105971771D02*
X121078095Y-105781295D01*
X121078095Y-105781295D02*
X121125714Y-105686057D01*
X121125714Y-105686057D02*
X121173333Y-105638438D01*
X121173333Y-105638438D02*
X121268571Y-105590819D01*
X121157142Y-118954819D02*
X120823809Y-118478628D01*
X120585714Y-118954819D02*
X120585714Y-117954819D01*
X120585714Y-117954819D02*
X120966666Y-117954819D01*
X120966666Y-117954819D02*
X121061904Y-118002438D01*
X121061904Y-118002438D02*
X121109523Y-118050057D01*
X121109523Y-118050057D02*
X121157142Y-118145295D01*
X121157142Y-118145295D02*
X121157142Y-118288152D01*
X121157142Y-118288152D02*
X121109523Y-118383390D01*
X121109523Y-118383390D02*
X121061904Y-118431009D01*
X121061904Y-118431009D02*
X120966666Y-118478628D01*
X120966666Y-118478628D02*
X120585714Y-118478628D01*
X122109523Y-118954819D02*
X121538095Y-118954819D01*
X121823809Y-118954819D02*
X121823809Y-117954819D01*
X121823809Y-117954819D02*
X121728571Y-118097676D01*
X121728571Y-118097676D02*
X121633333Y-118192914D01*
X121633333Y-118192914D02*
X121538095Y-118240533D01*
X122490476Y-118050057D02*
X122538095Y-118002438D01*
X122538095Y-118002438D02*
X122633333Y-117954819D01*
X122633333Y-117954819D02*
X122871428Y-117954819D01*
X122871428Y-117954819D02*
X122966666Y-118002438D01*
X122966666Y-118002438D02*
X123014285Y-118050057D01*
X123014285Y-118050057D02*
X123061904Y-118145295D01*
X123061904Y-118145295D02*
X123061904Y-118240533D01*
X123061904Y-118240533D02*
X123014285Y-118383390D01*
X123014285Y-118383390D02*
X122442857Y-118954819D01*
X122442857Y-118954819D02*
X123061904Y-118954819D01*
X120173333Y-87750819D02*
X119840000Y-87274628D01*
X119601905Y-87750819D02*
X119601905Y-86750819D01*
X119601905Y-86750819D02*
X119982857Y-86750819D01*
X119982857Y-86750819D02*
X120078095Y-86798438D01*
X120078095Y-86798438D02*
X120125714Y-86846057D01*
X120125714Y-86846057D02*
X120173333Y-86941295D01*
X120173333Y-86941295D02*
X120173333Y-87084152D01*
X120173333Y-87084152D02*
X120125714Y-87179390D01*
X120125714Y-87179390D02*
X120078095Y-87227009D01*
X120078095Y-87227009D02*
X119982857Y-87274628D01*
X119982857Y-87274628D02*
X119601905Y-87274628D01*
X120506667Y-86750819D02*
X121173333Y-86750819D01*
X121173333Y-86750819D02*
X120744762Y-87750819D01*
X151256666Y-118924488D02*
X151256666Y-119638773D01*
X151256666Y-119638773D02*
X151209047Y-119781630D01*
X151209047Y-119781630D02*
X151113809Y-119876869D01*
X151113809Y-119876869D02*
X150970952Y-119924488D01*
X150970952Y-119924488D02*
X150875714Y-119924488D01*
X152209047Y-118924488D02*
X151732857Y-118924488D01*
X151732857Y-118924488D02*
X151685238Y-119400678D01*
X151685238Y-119400678D02*
X151732857Y-119353059D01*
X151732857Y-119353059D02*
X151828095Y-119305440D01*
X151828095Y-119305440D02*
X152066190Y-119305440D01*
X152066190Y-119305440D02*
X152161428Y-119353059D01*
X152161428Y-119353059D02*
X152209047Y-119400678D01*
X152209047Y-119400678D02*
X152256666Y-119495916D01*
X152256666Y-119495916D02*
X152256666Y-119734011D01*
X152256666Y-119734011D02*
X152209047Y-119829249D01*
X152209047Y-119829249D02*
X152161428Y-119876869D01*
X152161428Y-119876869D02*
X152066190Y-119924488D01*
X152066190Y-119924488D02*
X151828095Y-119924488D01*
X151828095Y-119924488D02*
X151732857Y-119876869D01*
X151732857Y-119876869D02*
X151685238Y-119829249D01*
X143673333Y-113210819D02*
X143340000Y-112734628D01*
X143101905Y-113210819D02*
X143101905Y-112210819D01*
X143101905Y-112210819D02*
X143482857Y-112210819D01*
X143482857Y-112210819D02*
X143578095Y-112258438D01*
X143578095Y-112258438D02*
X143625714Y-112306057D01*
X143625714Y-112306057D02*
X143673333Y-112401295D01*
X143673333Y-112401295D02*
X143673333Y-112544152D01*
X143673333Y-112544152D02*
X143625714Y-112639390D01*
X143625714Y-112639390D02*
X143578095Y-112687009D01*
X143578095Y-112687009D02*
X143482857Y-112734628D01*
X143482857Y-112734628D02*
X143101905Y-112734628D01*
X144530476Y-112210819D02*
X144340000Y-112210819D01*
X144340000Y-112210819D02*
X144244762Y-112258438D01*
X144244762Y-112258438D02*
X144197143Y-112306057D01*
X144197143Y-112306057D02*
X144101905Y-112448914D01*
X144101905Y-112448914D02*
X144054286Y-112639390D01*
X144054286Y-112639390D02*
X144054286Y-113020342D01*
X144054286Y-113020342D02*
X144101905Y-113115580D01*
X144101905Y-113115580D02*
X144149524Y-113163200D01*
X144149524Y-113163200D02*
X144244762Y-113210819D01*
X144244762Y-113210819D02*
X144435238Y-113210819D01*
X144435238Y-113210819D02*
X144530476Y-113163200D01*
X144530476Y-113163200D02*
X144578095Y-113115580D01*
X144578095Y-113115580D02*
X144625714Y-113020342D01*
X144625714Y-113020342D02*
X144625714Y-112782247D01*
X144625714Y-112782247D02*
X144578095Y-112687009D01*
X144578095Y-112687009D02*
X144530476Y-112639390D01*
X144530476Y-112639390D02*
X144435238Y-112591771D01*
X144435238Y-112591771D02*
X144244762Y-112591771D01*
X144244762Y-112591771D02*
X144149524Y-112639390D01*
X144149524Y-112639390D02*
X144101905Y-112687009D01*
X144101905Y-112687009D02*
X144054286Y-112782247D01*
X143673333Y-106930819D02*
X143340000Y-106454628D01*
X143101905Y-106930819D02*
X143101905Y-105930819D01*
X143101905Y-105930819D02*
X143482857Y-105930819D01*
X143482857Y-105930819D02*
X143578095Y-105978438D01*
X143578095Y-105978438D02*
X143625714Y-106026057D01*
X143625714Y-106026057D02*
X143673333Y-106121295D01*
X143673333Y-106121295D02*
X143673333Y-106264152D01*
X143673333Y-106264152D02*
X143625714Y-106359390D01*
X143625714Y-106359390D02*
X143578095Y-106407009D01*
X143578095Y-106407009D02*
X143482857Y-106454628D01*
X143482857Y-106454628D02*
X143101905Y-106454628D01*
X144578095Y-105930819D02*
X144101905Y-105930819D01*
X144101905Y-105930819D02*
X144054286Y-106407009D01*
X144054286Y-106407009D02*
X144101905Y-106359390D01*
X144101905Y-106359390D02*
X144197143Y-106311771D01*
X144197143Y-106311771D02*
X144435238Y-106311771D01*
X144435238Y-106311771D02*
X144530476Y-106359390D01*
X144530476Y-106359390D02*
X144578095Y-106407009D01*
X144578095Y-106407009D02*
X144625714Y-106502247D01*
X144625714Y-106502247D02*
X144625714Y-106740342D01*
X144625714Y-106740342D02*
X144578095Y-106835580D01*
X144578095Y-106835580D02*
X144530476Y-106883200D01*
X144530476Y-106883200D02*
X144435238Y-106930819D01*
X144435238Y-106930819D02*
X144197143Y-106930819D01*
X144197143Y-106930819D02*
X144101905Y-106883200D01*
X144101905Y-106883200D02*
X144054286Y-106835580D01*
X119697142Y-112870819D02*
X119363809Y-112394628D01*
X119125714Y-112870819D02*
X119125714Y-111870819D01*
X119125714Y-111870819D02*
X119506666Y-111870819D01*
X119506666Y-111870819D02*
X119601904Y-111918438D01*
X119601904Y-111918438D02*
X119649523Y-111966057D01*
X119649523Y-111966057D02*
X119697142Y-112061295D01*
X119697142Y-112061295D02*
X119697142Y-112204152D01*
X119697142Y-112204152D02*
X119649523Y-112299390D01*
X119649523Y-112299390D02*
X119601904Y-112347009D01*
X119601904Y-112347009D02*
X119506666Y-112394628D01*
X119506666Y-112394628D02*
X119125714Y-112394628D01*
X120649523Y-112870819D02*
X120078095Y-112870819D01*
X120363809Y-112870819D02*
X120363809Y-111870819D01*
X120363809Y-111870819D02*
X120268571Y-112013676D01*
X120268571Y-112013676D02*
X120173333Y-112108914D01*
X120173333Y-112108914D02*
X120078095Y-112156533D01*
X121601904Y-112870819D02*
X121030476Y-112870819D01*
X121316190Y-112870819D02*
X121316190Y-111870819D01*
X121316190Y-111870819D02*
X121220952Y-112013676D01*
X121220952Y-112013676D02*
X121125714Y-112108914D01*
X121125714Y-112108914D02*
X121030476Y-112156533D01*
X135530057Y-97595238D02*
X135482438Y-97690476D01*
X135482438Y-97690476D02*
X135387200Y-97785714D01*
X135387200Y-97785714D02*
X135244342Y-97928571D01*
X135244342Y-97928571D02*
X135196723Y-98023809D01*
X135196723Y-98023809D02*
X135196723Y-98119047D01*
X135434819Y-98071428D02*
X135387200Y-98166666D01*
X135387200Y-98166666D02*
X135291961Y-98261904D01*
X135291961Y-98261904D02*
X135101485Y-98309523D01*
X135101485Y-98309523D02*
X134768152Y-98309523D01*
X134768152Y-98309523D02*
X134577676Y-98261904D01*
X134577676Y-98261904D02*
X134482438Y-98166666D01*
X134482438Y-98166666D02*
X134434819Y-98071428D01*
X134434819Y-98071428D02*
X134434819Y-97880952D01*
X134434819Y-97880952D02*
X134482438Y-97785714D01*
X134482438Y-97785714D02*
X134577676Y-97690476D01*
X134577676Y-97690476D02*
X134768152Y-97642857D01*
X134768152Y-97642857D02*
X135101485Y-97642857D01*
X135101485Y-97642857D02*
X135291961Y-97690476D01*
X135291961Y-97690476D02*
X135387200Y-97785714D01*
X135387200Y-97785714D02*
X135434819Y-97880952D01*
X135434819Y-97880952D02*
X135434819Y-98071428D01*
X134434819Y-97309523D02*
X134434819Y-96690476D01*
X134434819Y-96690476D02*
X134815771Y-97023809D01*
X134815771Y-97023809D02*
X134815771Y-96880952D01*
X134815771Y-96880952D02*
X134863390Y-96785714D01*
X134863390Y-96785714D02*
X134911009Y-96738095D01*
X134911009Y-96738095D02*
X135006247Y-96690476D01*
X135006247Y-96690476D02*
X135244342Y-96690476D01*
X135244342Y-96690476D02*
X135339580Y-96738095D01*
X135339580Y-96738095D02*
X135387200Y-96785714D01*
X135387200Y-96785714D02*
X135434819Y-96880952D01*
X135434819Y-96880952D02*
X135434819Y-97166666D01*
X135434819Y-97166666D02*
X135387200Y-97261904D01*
X135387200Y-97261904D02*
X135339580Y-97309523D01*
D11*
%TO.C,J6*%
X104025000Y-80390331D02*
X104025000Y-65850331D01*
X124800000Y-81284669D02*
X125050000Y-80851656D01*
X125050000Y-80851656D02*
X125300000Y-81284669D01*
X125300000Y-81284669D02*
X124800000Y-81284669D01*
X134995000Y-65850331D02*
X134995000Y-80390331D01*
X134995000Y-80390331D02*
X104025000Y-80390331D01*
%TO.C,Q1*%
X128730000Y-83152000D02*
X128730000Y-86752000D01*
X128738259Y-83140125D02*
G75*
G02*
X133030000Y-84132000I1841741J-1811875D01*
G01*
X133030000Y-85732000D02*
G75*
G02*
X128752316Y-86760445I-2450000J780000D01*
G01*
%TO.C,J7*%
X136125000Y-80390331D02*
X136125000Y-65850331D01*
X156900000Y-81284669D02*
X157150000Y-80851656D01*
X157150000Y-80851656D02*
X157400000Y-81284669D01*
X157400000Y-81284669D02*
X156900000Y-81284669D01*
X167095000Y-65850331D02*
X167095000Y-80390331D01*
X167095000Y-80390331D02*
X136125000Y-80390331D01*
%TO.C,J10*%
X158550000Y-104050000D02*
X158550000Y-105750000D01*
X158550000Y-105750000D02*
X159850000Y-105750000D01*
X158850000Y-96250000D02*
X160150000Y-96250000D01*
X158850000Y-98250000D02*
X158850000Y-96250000D01*
X158850000Y-105450000D02*
X158850000Y-103450000D01*
X164750000Y-96250000D02*
X173350000Y-96250000D01*
X173350000Y-96250000D02*
X173350000Y-105450000D01*
X173350000Y-105450000D02*
X158850000Y-105450000D01*
%TO.C,Q5*%
X128730000Y-108248000D02*
X128730000Y-111848000D01*
X128738259Y-108236125D02*
G75*
G02*
X133030000Y-109228000I1841741J-1811875D01*
G01*
X133030000Y-110828000D02*
G75*
G02*
X128752316Y-111856445I-2450000J780000D01*
G01*
%TO.C,C1*%
X153952677Y-109725000D02*
X154952677Y-109725000D01*
X154452677Y-109225000D02*
X154452677Y-110225000D01*
X159432323Y-107520000D02*
X159432323Y-117680000D01*
X159472323Y-107520000D02*
X159472323Y-117680000D01*
X159512323Y-107520000D02*
X159512323Y-117680000D01*
X159552323Y-107521000D02*
X159552323Y-117679000D01*
X159592323Y-107522000D02*
X159592323Y-117678000D01*
X159632323Y-107523000D02*
X159632323Y-117677000D01*
X159672323Y-107525000D02*
X159672323Y-117675000D01*
X159712323Y-107527000D02*
X159712323Y-117673000D01*
X159752323Y-107530000D02*
X159752323Y-117670000D01*
X159792323Y-107532000D02*
X159792323Y-117668000D01*
X159832323Y-107535000D02*
X159832323Y-117665000D01*
X159872323Y-107538000D02*
X159872323Y-117662000D01*
X159912323Y-107542000D02*
X159912323Y-117658000D01*
X159952323Y-107546000D02*
X159952323Y-117654000D01*
X159992323Y-107550000D02*
X159992323Y-117650000D01*
X160032323Y-107555000D02*
X160032323Y-117645000D01*
X160072323Y-107560000D02*
X160072323Y-117640000D01*
X160112323Y-107565000D02*
X160112323Y-117635000D01*
X160153323Y-107570000D02*
X160153323Y-117630000D01*
X160193323Y-107576000D02*
X160193323Y-117624000D01*
X160233323Y-107582000D02*
X160233323Y-117618000D01*
X160273323Y-107589000D02*
X160273323Y-117611000D01*
X160313323Y-107596000D02*
X160313323Y-117604000D01*
X160353323Y-107603000D02*
X160353323Y-117597000D01*
X160393323Y-107610000D02*
X160393323Y-117590000D01*
X160433323Y-107618000D02*
X160433323Y-117582000D01*
X160473323Y-107626000D02*
X160473323Y-117574000D01*
X160513323Y-107635000D02*
X160513323Y-117565000D01*
X160553323Y-107644000D02*
X160553323Y-117556000D01*
X160593323Y-107653000D02*
X160593323Y-117547000D01*
X160633323Y-107662000D02*
X160633323Y-117538000D01*
X160673323Y-107672000D02*
X160673323Y-117528000D01*
X160713323Y-107682000D02*
X160713323Y-111359000D01*
X160713323Y-113841000D02*
X160713323Y-117518000D01*
X160753323Y-107693000D02*
X160753323Y-111359000D01*
X160753323Y-113841000D02*
X160753323Y-117507000D01*
X160793323Y-107703000D02*
X160793323Y-111359000D01*
X160793323Y-113841000D02*
X160793323Y-117497000D01*
X160833323Y-107715000D02*
X160833323Y-111359000D01*
X160833323Y-113841000D02*
X160833323Y-117485000D01*
X160873323Y-107726000D02*
X160873323Y-111359000D01*
X160873323Y-113841000D02*
X160873323Y-117474000D01*
X160913323Y-107738000D02*
X160913323Y-111359000D01*
X160913323Y-113841000D02*
X160913323Y-117462000D01*
X160953323Y-107750000D02*
X160953323Y-111359000D01*
X160953323Y-113841000D02*
X160953323Y-117450000D01*
X160993323Y-107763000D02*
X160993323Y-111359000D01*
X160993323Y-113841000D02*
X160993323Y-117437000D01*
X161033323Y-107776000D02*
X161033323Y-111359000D01*
X161033323Y-113841000D02*
X161033323Y-117424000D01*
X161073323Y-107789000D02*
X161073323Y-111359000D01*
X161073323Y-113841000D02*
X161073323Y-117411000D01*
X161113323Y-107803000D02*
X161113323Y-111359000D01*
X161113323Y-113841000D02*
X161113323Y-117397000D01*
X161153323Y-107817000D02*
X161153323Y-111359000D01*
X161153323Y-113841000D02*
X161153323Y-117383000D01*
X161193323Y-107832000D02*
X161193323Y-111359000D01*
X161193323Y-113841000D02*
X161193323Y-117368000D01*
X161233323Y-107846000D02*
X161233323Y-111359000D01*
X161233323Y-113841000D02*
X161233323Y-117354000D01*
X161273323Y-107862000D02*
X161273323Y-111359000D01*
X161273323Y-113841000D02*
X161273323Y-117338000D01*
X161313323Y-107877000D02*
X161313323Y-111359000D01*
X161313323Y-113841000D02*
X161313323Y-117323000D01*
X161353323Y-107893000D02*
X161353323Y-111359000D01*
X161353323Y-113841000D02*
X161353323Y-117307000D01*
X161393323Y-107910000D02*
X161393323Y-111359000D01*
X161393323Y-113841000D02*
X161393323Y-117290000D01*
X161433323Y-107926000D02*
X161433323Y-111359000D01*
X161433323Y-113841000D02*
X161433323Y-117274000D01*
X161473323Y-107943000D02*
X161473323Y-111359000D01*
X161473323Y-113841000D02*
X161473323Y-117257000D01*
X161513323Y-107961000D02*
X161513323Y-111359000D01*
X161513323Y-113841000D02*
X161513323Y-117239000D01*
X161553323Y-107979000D02*
X161553323Y-111359000D01*
X161553323Y-113841000D02*
X161553323Y-117221000D01*
X161593323Y-107997000D02*
X161593323Y-111359000D01*
X161593323Y-113841000D02*
X161593323Y-117203000D01*
X161633323Y-108016000D02*
X161633323Y-111359000D01*
X161633323Y-113841000D02*
X161633323Y-117184000D01*
X161673323Y-108036000D02*
X161673323Y-111359000D01*
X161673323Y-113841000D02*
X161673323Y-117164000D01*
X161713323Y-108055000D02*
X161713323Y-111359000D01*
X161713323Y-113841000D02*
X161713323Y-117145000D01*
X161753323Y-108075000D02*
X161753323Y-111359000D01*
X161753323Y-113841000D02*
X161753323Y-117125000D01*
X161793323Y-108096000D02*
X161793323Y-111359000D01*
X161793323Y-113841000D02*
X161793323Y-117104000D01*
X161833323Y-108117000D02*
X161833323Y-111359000D01*
X161833323Y-113841000D02*
X161833323Y-117083000D01*
X161873323Y-108138000D02*
X161873323Y-111359000D01*
X161873323Y-113841000D02*
X161873323Y-117062000D01*
X161913323Y-108160000D02*
X161913323Y-111359000D01*
X161913323Y-113841000D02*
X161913323Y-117040000D01*
X161953323Y-108183000D02*
X161953323Y-111359000D01*
X161953323Y-113841000D02*
X161953323Y-117017000D01*
X161993323Y-108205000D02*
X161993323Y-111359000D01*
X161993323Y-113841000D02*
X161993323Y-116995000D01*
X162033323Y-108229000D02*
X162033323Y-111359000D01*
X162033323Y-113841000D02*
X162033323Y-116971000D01*
X162073323Y-108253000D02*
X162073323Y-111359000D01*
X162073323Y-113841000D02*
X162073323Y-116947000D01*
X162113323Y-108277000D02*
X162113323Y-111359000D01*
X162113323Y-113841000D02*
X162113323Y-116923000D01*
X162153323Y-108302000D02*
X162153323Y-111359000D01*
X162153323Y-113841000D02*
X162153323Y-116898000D01*
X162193323Y-108327000D02*
X162193323Y-111359000D01*
X162193323Y-113841000D02*
X162193323Y-116873000D01*
X162233323Y-108353000D02*
X162233323Y-111359000D01*
X162233323Y-113841000D02*
X162233323Y-116847000D01*
X162273323Y-108379000D02*
X162273323Y-111359000D01*
X162273323Y-113841000D02*
X162273323Y-116821000D01*
X162313323Y-108406000D02*
X162313323Y-111359000D01*
X162313323Y-113841000D02*
X162313323Y-116794000D01*
X162353323Y-108434000D02*
X162353323Y-111359000D01*
X162353323Y-113841000D02*
X162353323Y-116766000D01*
X162393323Y-108462000D02*
X162393323Y-111359000D01*
X162393323Y-113841000D02*
X162393323Y-116738000D01*
X162433323Y-108490000D02*
X162433323Y-111359000D01*
X162433323Y-113841000D02*
X162433323Y-116710000D01*
X162473323Y-108520000D02*
X162473323Y-111359000D01*
X162473323Y-113841000D02*
X162473323Y-116680000D01*
X162513323Y-108550000D02*
X162513323Y-111359000D01*
X162513323Y-113841000D02*
X162513323Y-116650000D01*
X162553323Y-108580000D02*
X162553323Y-111359000D01*
X162553323Y-113841000D02*
X162553323Y-116620000D01*
X162593323Y-108611000D02*
X162593323Y-111359000D01*
X162593323Y-113841000D02*
X162593323Y-116589000D01*
X162633323Y-108643000D02*
X162633323Y-111359000D01*
X162633323Y-113841000D02*
X162633323Y-116557000D01*
X162673323Y-108675000D02*
X162673323Y-111359000D01*
X162673323Y-113841000D02*
X162673323Y-116525000D01*
X162713323Y-108708000D02*
X162713323Y-111359000D01*
X162713323Y-113841000D02*
X162713323Y-116492000D01*
X162753323Y-108742000D02*
X162753323Y-111359000D01*
X162753323Y-113841000D02*
X162753323Y-116458000D01*
X162793323Y-108776000D02*
X162793323Y-111359000D01*
X162793323Y-113841000D02*
X162793323Y-116424000D01*
X162833323Y-108811000D02*
X162833323Y-111359000D01*
X162833323Y-113841000D02*
X162833323Y-116389000D01*
X162873323Y-108847000D02*
X162873323Y-111359000D01*
X162873323Y-113841000D02*
X162873323Y-116353000D01*
X162913323Y-108884000D02*
X162913323Y-111359000D01*
X162913323Y-113841000D02*
X162913323Y-116316000D01*
X162953323Y-108921000D02*
X162953323Y-111359000D01*
X162953323Y-113841000D02*
X162953323Y-116279000D01*
X162993323Y-108960000D02*
X162993323Y-111359000D01*
X162993323Y-113841000D02*
X162993323Y-116240000D01*
X163033323Y-108999000D02*
X163033323Y-111359000D01*
X163033323Y-113841000D02*
X163033323Y-116201000D01*
X163073323Y-109039000D02*
X163073323Y-111359000D01*
X163073323Y-113841000D02*
X163073323Y-116161000D01*
X163113323Y-109080000D02*
X163113323Y-111359000D01*
X163113323Y-113841000D02*
X163113323Y-116120000D01*
X163153323Y-109122000D02*
X163153323Y-111359000D01*
X163153323Y-113841000D02*
X163153323Y-116078000D01*
X163193323Y-109164000D02*
X163193323Y-116036000D01*
X163233323Y-109208000D02*
X163233323Y-115992000D01*
X163273323Y-109253000D02*
X163273323Y-115947000D01*
X163313323Y-109299000D02*
X163313323Y-115901000D01*
X163353323Y-109346000D02*
X163353323Y-115854000D01*
X163393323Y-109394000D02*
X163393323Y-115806000D01*
X163433323Y-109444000D02*
X163433323Y-115756000D01*
X163473323Y-109494000D02*
X163473323Y-115706000D01*
X163513323Y-109546000D02*
X163513323Y-115654000D01*
X163553323Y-109600000D02*
X163553323Y-115600000D01*
X163593323Y-109655000D02*
X163593323Y-115545000D01*
X163633323Y-109711000D02*
X163633323Y-115489000D01*
X163673323Y-109770000D02*
X163673323Y-115430000D01*
X163713323Y-109830000D02*
X163713323Y-115370000D01*
X163753323Y-109891000D02*
X163753323Y-115309000D01*
X163793323Y-109955000D02*
X163793323Y-115245000D01*
X163833323Y-110021000D02*
X163833323Y-115179000D01*
X163873323Y-110090000D02*
X163873323Y-115110000D01*
X163913323Y-110161000D02*
X163913323Y-115039000D01*
X163953323Y-110235000D02*
X163953323Y-114965000D01*
X163993323Y-110311000D02*
X163993323Y-114889000D01*
X164033323Y-110391000D02*
X164033323Y-114809000D01*
X164073323Y-110475000D02*
X164073323Y-114725000D01*
X164113323Y-110563000D02*
X164113323Y-114637000D01*
X164153323Y-110656000D02*
X164153323Y-114544000D01*
X164193323Y-110754000D02*
X164193323Y-114446000D01*
X164233323Y-110858000D02*
X164233323Y-114342000D01*
X164273323Y-110970000D02*
X164273323Y-114230000D01*
X164313323Y-111090000D02*
X164313323Y-114110000D01*
X164353323Y-111222000D02*
X164353323Y-113978000D01*
X164393323Y-111370000D02*
X164393323Y-113830000D01*
X164433323Y-111538000D02*
X164433323Y-113662000D01*
X164473323Y-111738000D02*
X164473323Y-113462000D01*
X164513323Y-112001000D02*
X164513323Y-113199000D01*
X164552323Y-112600000D02*
G75*
G02*
X154312323Y-112600000I-5120000J0D01*
G01*
X154312323Y-112600000D02*
G75*
G02*
X164552323Y-112600000I5120000J0D01*
G01*
%TO.C,R3*%
X139800000Y-96286000D02*
X140570000Y-96286000D01*
X140570000Y-94916000D02*
X140570000Y-97656000D01*
X140570000Y-97656000D02*
X147110000Y-97656000D01*
X147110000Y-94916000D02*
X140570000Y-94916000D01*
X147110000Y-97656000D02*
X147110000Y-94916000D01*
X147880000Y-96286000D02*
X147110000Y-96286000D01*
%TO.C,Q2*%
X128730000Y-89426000D02*
X128730000Y-93026000D01*
X128738259Y-89414125D02*
G75*
G02*
X133030000Y-90406000I1841741J-1811875D01*
G01*
X133030000Y-92006000D02*
G75*
G02*
X128752316Y-93034445I-2450000J780000D01*
G01*
%TO.C,J8*%
X93120000Y-91602500D02*
X93120000Y-107122500D01*
X106700000Y-90917500D02*
X107200000Y-91417500D01*
X107200000Y-91417500D02*
X107700000Y-90917500D01*
X107700000Y-90917500D02*
X106700000Y-90917500D01*
X111080000Y-91602500D02*
X93120000Y-91602500D01*
X111080000Y-107122500D02*
X93120000Y-107122500D01*
X111080000Y-107122500D02*
X111080000Y-91602500D01*
%TO.C,Q4*%
X128730000Y-101974000D02*
X128730000Y-105574000D01*
X128738259Y-101962125D02*
G75*
G02*
X133030000Y-102954000I1841741J-1811875D01*
G01*
X133030000Y-104554000D02*
G75*
G02*
X128752316Y-105582445I-2450000J780000D01*
G01*
%TO.C,R9*%
X116300000Y-97486000D02*
X117070000Y-97486000D01*
X117070000Y-96116000D02*
X117070000Y-98856000D01*
X117070000Y-98856000D02*
X123610000Y-98856000D01*
X123610000Y-96116000D02*
X117070000Y-96116000D01*
X123610000Y-98856000D02*
X123610000Y-96116000D01*
X124380000Y-97486000D02*
X123610000Y-97486000D01*
%TO.C,R1*%
X139800000Y-83726000D02*
X140570000Y-83726000D01*
X140570000Y-82356000D02*
X140570000Y-85096000D01*
X140570000Y-85096000D02*
X147110000Y-85096000D01*
X147110000Y-82356000D02*
X140570000Y-82356000D01*
X147110000Y-85096000D02*
X147110000Y-82356000D01*
X147880000Y-83726000D02*
X147110000Y-83726000D01*
%TO.C,R2*%
X139800000Y-90006000D02*
X140570000Y-90006000D01*
X140570000Y-88636000D02*
X140570000Y-91376000D01*
X140570000Y-91376000D02*
X147110000Y-91376000D01*
X147110000Y-88636000D02*
X140570000Y-88636000D01*
X147110000Y-91376000D02*
X147110000Y-88636000D01*
X147880000Y-90006000D02*
X147110000Y-90006000D01*
%TO.C,J4*%
X104005000Y-120409669D02*
X134975000Y-120409669D01*
X104005000Y-134949669D02*
X104005000Y-120409669D01*
X113700000Y-119515331D02*
X114200000Y-119515331D01*
X113950000Y-119948344D02*
X113700000Y-119515331D01*
X114200000Y-119515331D02*
X113950000Y-119948344D01*
X134975000Y-120409669D02*
X134975000Y-134949669D01*
%TO.C,R8*%
X116300000Y-91206000D02*
X117070000Y-91206000D01*
X117070000Y-89836000D02*
X117070000Y-92576000D01*
X117070000Y-92576000D02*
X123610000Y-92576000D01*
X123610000Y-89836000D02*
X117070000Y-89836000D01*
X123610000Y-92576000D02*
X123610000Y-89836000D01*
X124380000Y-91206000D02*
X123610000Y-91206000D01*
%TO.C,R4*%
X139800000Y-102566000D02*
X140570000Y-102566000D01*
X140570000Y-101196000D02*
X140570000Y-103936000D01*
X140570000Y-103936000D02*
X147110000Y-103936000D01*
X147110000Y-101196000D02*
X140570000Y-101196000D01*
X147110000Y-103936000D02*
X147110000Y-101196000D01*
X147880000Y-102566000D02*
X147110000Y-102566000D01*
D12*
%TO.C,G\u002A\u002A\u002A*%
G36*
X98854000Y-117904667D02*
G01*
X94112667Y-117904667D01*
X94112667Y-117142667D01*
X98854000Y-117142667D01*
X98854000Y-117904667D01*
G37*
G36*
X98854000Y-119513334D02*
G01*
X94112667Y-119513334D01*
X94112667Y-118666667D01*
X98854000Y-118666667D01*
X98854000Y-119513334D01*
G37*
G36*
X100970667Y-128318667D02*
G01*
X100039333Y-128318667D01*
X100039333Y-127387334D01*
X100970667Y-127387334D01*
X100970667Y-128318667D01*
G37*
G36*
X103087333Y-119513334D02*
G01*
X102410000Y-119513334D01*
X102410000Y-112909334D01*
X100864833Y-112907807D01*
X99319667Y-112906281D01*
X99039719Y-112569141D01*
X98759772Y-112232000D01*
X103087333Y-112232000D01*
X103087333Y-119513334D01*
G37*
G36*
X100011015Y-117072853D02*
G01*
X100251000Y-117100334D01*
X100274491Y-118306834D01*
X100297983Y-119513334D01*
X99531333Y-119513334D01*
X99531333Y-118325343D01*
X99534681Y-117834251D01*
X99546250Y-117488811D01*
X99568330Y-117265445D01*
X99603212Y-117140577D01*
X99651181Y-117091362D01*
X99821336Y-117066277D01*
X100011015Y-117072853D01*
G37*
G36*
X97194851Y-127401312D02*
G01*
X97706546Y-127406053D01*
X97746818Y-127406607D01*
X99386312Y-127429667D01*
X99386305Y-127853000D01*
X99386298Y-128276334D01*
X97638482Y-128299218D01*
X95890667Y-128322102D01*
X95890667Y-127894394D01*
X95912293Y-127602308D01*
X95973257Y-127443315D01*
X95998996Y-127425116D01*
X96114182Y-127413345D01*
X96370600Y-127405255D01*
X96740179Y-127401146D01*
X97194851Y-127401312D01*
G37*
G36*
X100881594Y-115566113D02*
G01*
X101191187Y-115724768D01*
X101285632Y-115808215D01*
X101417333Y-115984337D01*
X101514476Y-116203985D01*
X101580813Y-116491743D01*
X101620094Y-116872192D01*
X101636071Y-117369918D01*
X101632495Y-118009502D01*
X101631359Y-118074000D01*
X101605667Y-119471000D01*
X101245833Y-119497035D01*
X100886000Y-119523070D01*
X100886000Y-118036535D01*
X100884683Y-117497136D01*
X100878953Y-117100971D01*
X100866142Y-116821949D01*
X100843582Y-116633982D01*
X100808605Y-116510978D01*
X100758543Y-116426847D01*
X100716667Y-116380667D01*
X100455426Y-116239163D01*
X100208667Y-116211334D01*
X99991892Y-116203118D01*
X99895569Y-116146254D01*
X99870814Y-115992413D01*
X99870000Y-115876503D01*
X99882502Y-115657588D01*
X99947881Y-115550309D01*
X100107945Y-115497332D01*
X100152852Y-115488610D01*
X100511339Y-115480582D01*
X100881594Y-115566113D01*
G37*
G36*
X100970667Y-123323334D02*
G01*
X99232281Y-123323334D01*
X98555978Y-123326845D01*
X98027393Y-123340389D01*
X97624999Y-123368482D01*
X97327270Y-123415640D01*
X97112681Y-123486380D01*
X96959705Y-123585217D01*
X96846817Y-123716668D01*
X96775865Y-123838685D01*
X96674157Y-124170943D01*
X96673871Y-124530226D01*
X96724190Y-124814465D01*
X96825703Y-125041143D01*
X96995041Y-125216102D01*
X97248832Y-125345184D01*
X97603705Y-125434231D01*
X98076291Y-125489087D01*
X98683218Y-125515593D01*
X99441115Y-125519591D01*
X99489000Y-125519263D01*
X100928333Y-125508671D01*
X100953725Y-125982335D01*
X100979117Y-126456000D01*
X99254592Y-126456000D01*
X98538094Y-126451373D01*
X97967648Y-126434354D01*
X97520149Y-126400238D01*
X97172489Y-126344320D01*
X96901563Y-126261893D01*
X96684264Y-126148252D01*
X96497486Y-125998693D01*
X96371382Y-125868842D01*
X96174789Y-125606837D01*
X96022336Y-125325727D01*
X95981440Y-125213159D01*
X95917160Y-124835648D01*
X95898173Y-124381633D01*
X95923006Y-123924464D01*
X95990184Y-123537487D01*
X96016860Y-123450334D01*
X96216634Y-123093997D01*
X96531854Y-122765939D01*
X96909663Y-122513084D01*
X97197548Y-122402205D01*
X97410129Y-122370708D01*
X97761801Y-122344100D01*
X98222360Y-122323761D01*
X98761602Y-122311073D01*
X99272492Y-122307334D01*
X100970667Y-122307334D01*
X100970667Y-123323334D01*
G37*
G36*
X96109563Y-129022901D02*
G01*
X96354447Y-129099020D01*
X96717644Y-129217476D01*
X97178427Y-129371392D01*
X97716065Y-129553888D01*
X98070833Y-129675894D01*
X98309831Y-129758087D01*
X98522555Y-129831841D01*
X100928333Y-130667683D01*
X100928333Y-131895462D01*
X98515333Y-132771961D01*
X97907817Y-132991427D01*
X97349172Y-133190927D01*
X96859906Y-133363320D01*
X96460527Y-133501466D01*
X96171542Y-133598223D01*
X96013458Y-133646450D01*
X95992275Y-133650563D01*
X95928117Y-133599892D01*
X95902423Y-133428220D01*
X95907608Y-133168548D01*
X95933000Y-132684429D01*
X96589167Y-132437849D01*
X97245333Y-132191269D01*
X97245333Y-131282000D01*
X98007333Y-131282000D01*
X98012098Y-131596568D01*
X98024760Y-131833439D01*
X98042870Y-131952542D01*
X98048719Y-131959334D01*
X98139922Y-131933379D01*
X98359736Y-131862421D01*
X98676743Y-131756817D01*
X99059526Y-131626924D01*
X99123681Y-131604954D01*
X100157257Y-131250575D01*
X99145795Y-130929450D01*
X98756006Y-130807084D01*
X98425347Y-130705891D01*
X98186882Y-130635803D01*
X98073675Y-130606755D01*
X98070833Y-130606495D01*
X98041352Y-130683573D01*
X98019149Y-130890028D01*
X98007975Y-131185941D01*
X98007333Y-131282000D01*
X97245333Y-131282000D01*
X97245333Y-130364672D01*
X96843167Y-130216949D01*
X96442273Y-130069835D01*
X96172879Y-129963236D01*
X96008979Y-129875491D01*
X95924567Y-129784943D01*
X95893636Y-129669931D01*
X95890181Y-129508796D01*
X95890667Y-129423654D01*
X95907632Y-129143242D01*
X95961609Y-129011546D01*
X96003722Y-128996000D01*
X96109563Y-129022901D01*
G37*
G36*
X97447519Y-112299478D02*
G01*
X97990812Y-112582943D01*
X98246471Y-112785049D01*
X98685383Y-113265205D01*
X98965227Y-113781246D01*
X99095551Y-114353503D01*
X99108000Y-114619291D01*
X99108000Y-115195334D01*
X98346000Y-115195334D01*
X98346000Y-114726947D01*
X98271759Y-114151899D01*
X98056404Y-113651457D01*
X97710988Y-113245075D01*
X97372333Y-113013245D01*
X96987423Y-112887704D01*
X96542413Y-112865197D01*
X96081496Y-112934680D01*
X95648865Y-113085109D01*
X95288713Y-113305439D01*
X95045231Y-113584627D01*
X95038779Y-113596423D01*
X95010807Y-113673964D01*
X95069762Y-113673462D01*
X95244102Y-113592493D01*
X95276190Y-113576204D01*
X95729758Y-113434635D01*
X96207921Y-113440227D01*
X96673384Y-113582522D01*
X97088855Y-113851062D01*
X97369653Y-114163258D01*
X97519418Y-114408253D01*
X97596431Y-114638350D01*
X97623168Y-114932159D01*
X97624786Y-115055645D01*
X97593534Y-115500708D01*
X97490274Y-115803336D01*
X97305341Y-115978535D01*
X97029068Y-116041310D01*
X96989382Y-116042000D01*
X96753673Y-116027577D01*
X96669007Y-115968355D01*
X96718381Y-115840411D01*
X96782360Y-115750651D01*
X96870125Y-115529938D01*
X96902913Y-115220673D01*
X96881296Y-114894266D01*
X96805850Y-114622127D01*
X96772799Y-114561734D01*
X96541617Y-114342962D01*
X96215933Y-114193918D01*
X95863974Y-114137487D01*
X95613718Y-114172936D01*
X95269590Y-114354604D01*
X95022464Y-114647047D01*
X94866552Y-115062068D01*
X94796062Y-115611475D01*
X94790472Y-115851500D01*
X94790000Y-116380667D01*
X94112667Y-116380667D01*
X94112667Y-115202731D01*
X94113939Y-114732471D01*
X94121880Y-114393174D01*
X94142676Y-114146468D01*
X94182511Y-113953982D01*
X94247571Y-113777346D01*
X94344043Y-113578190D01*
X94388437Y-113492078D01*
X94744728Y-112972623D01*
X95197019Y-112575107D01*
X95719376Y-112304282D01*
X96285867Y-112164900D01*
X96870559Y-112161715D01*
X97447519Y-112299478D01*
G37*
D11*
%TO.C,Q6*%
X128730000Y-114522000D02*
X128730000Y-118122000D01*
X128738259Y-114510125D02*
G75*
G02*
X133030000Y-115502000I1841741J-1811875D01*
G01*
X133030000Y-117102000D02*
G75*
G02*
X128752316Y-118130445I-2450000J780000D01*
G01*
%TO.C,R10*%
X116300000Y-103766000D02*
X117070000Y-103766000D01*
X117070000Y-102396000D02*
X117070000Y-105136000D01*
X117070000Y-105136000D02*
X123610000Y-105136000D01*
X123610000Y-102396000D02*
X117070000Y-102396000D01*
X123610000Y-105136000D02*
X123610000Y-102396000D01*
X124380000Y-103766000D02*
X123610000Y-103766000D01*
%TO.C,R12*%
X116300000Y-116326000D02*
X117070000Y-116326000D01*
X117070000Y-114956000D02*
X117070000Y-117696000D01*
X117070000Y-117696000D02*
X123610000Y-117696000D01*
X123610000Y-114956000D02*
X117070000Y-114956000D01*
X123610000Y-117696000D02*
X123610000Y-114956000D01*
X124380000Y-116326000D02*
X123610000Y-116326000D01*
%TO.C,R7*%
X116300000Y-84926000D02*
X117070000Y-84926000D01*
X117070000Y-83556000D02*
X117070000Y-86296000D01*
X117070000Y-86296000D02*
X123610000Y-86296000D01*
X123610000Y-83556000D02*
X117070000Y-83556000D01*
X123610000Y-86296000D02*
X123610000Y-83556000D01*
X124380000Y-84926000D02*
X123610000Y-84926000D01*
%TO.C,J5*%
X136105000Y-120409669D02*
X167075000Y-120409669D01*
X136105000Y-134949669D02*
X136105000Y-120409669D01*
X145800000Y-119515331D02*
X146300000Y-119515331D01*
X146050000Y-119948344D02*
X145800000Y-119515331D01*
X146300000Y-119515331D02*
X146050000Y-119948344D01*
X167075000Y-120409669D02*
X167075000Y-134949669D01*
%TO.C,R6*%
X139800000Y-115126000D02*
X140570000Y-115126000D01*
X140570000Y-113756000D02*
X140570000Y-116496000D01*
X140570000Y-116496000D02*
X147110000Y-116496000D01*
X147110000Y-113756000D02*
X140570000Y-113756000D01*
X147110000Y-116496000D02*
X147110000Y-113756000D01*
X147880000Y-115126000D02*
X147110000Y-115126000D01*
%TO.C,R5*%
X139800000Y-108846000D02*
X140570000Y-108846000D01*
X140570000Y-107476000D02*
X140570000Y-110216000D01*
X140570000Y-110216000D02*
X147110000Y-110216000D01*
X147110000Y-107476000D02*
X140570000Y-107476000D01*
X147110000Y-110216000D02*
X147110000Y-107476000D01*
X147880000Y-108846000D02*
X147110000Y-108846000D01*
D12*
%TO.C,G\u002A\u002A\u002A*%
G36*
X98454000Y-71804667D02*
G01*
X93712667Y-71804667D01*
X93712667Y-71042667D01*
X98454000Y-71042667D01*
X98454000Y-71804667D01*
G37*
G36*
X98454000Y-73413334D02*
G01*
X93712667Y-73413334D01*
X93712667Y-72566667D01*
X98454000Y-72566667D01*
X98454000Y-73413334D01*
G37*
G36*
X100570667Y-82218667D02*
G01*
X99639333Y-82218667D01*
X99639333Y-81287334D01*
X100570667Y-81287334D01*
X100570667Y-82218667D01*
G37*
G36*
X102687333Y-73413334D02*
G01*
X102010000Y-73413334D01*
X102010000Y-66809334D01*
X100464833Y-66807807D01*
X98919667Y-66806281D01*
X98639719Y-66469141D01*
X98359772Y-66132000D01*
X102687333Y-66132000D01*
X102687333Y-73413334D01*
G37*
G36*
X99611015Y-70972853D02*
G01*
X99851000Y-71000334D01*
X99874491Y-72206834D01*
X99897983Y-73413334D01*
X99131333Y-73413334D01*
X99131333Y-72225343D01*
X99134681Y-71734251D01*
X99146250Y-71388811D01*
X99168330Y-71165445D01*
X99203212Y-71040577D01*
X99251181Y-70991362D01*
X99421336Y-70966277D01*
X99611015Y-70972853D01*
G37*
G36*
X96794851Y-81301312D02*
G01*
X97306546Y-81306053D01*
X97346818Y-81306607D01*
X98986312Y-81329667D01*
X98986305Y-81753000D01*
X98986298Y-82176334D01*
X97238482Y-82199218D01*
X95490667Y-82222102D01*
X95490667Y-81794394D01*
X95512293Y-81502308D01*
X95573257Y-81343315D01*
X95598996Y-81325116D01*
X95714182Y-81313345D01*
X95970600Y-81305255D01*
X96340179Y-81301146D01*
X96794851Y-81301312D01*
G37*
G36*
X100481594Y-69466113D02*
G01*
X100791187Y-69624768D01*
X100885632Y-69708215D01*
X101017333Y-69884337D01*
X101114476Y-70103985D01*
X101180813Y-70391743D01*
X101220094Y-70772192D01*
X101236071Y-71269918D01*
X101232495Y-71909502D01*
X101231359Y-71974000D01*
X101205667Y-73371000D01*
X100845833Y-73397035D01*
X100486000Y-73423070D01*
X100486000Y-71936535D01*
X100484683Y-71397136D01*
X100478953Y-71000971D01*
X100466142Y-70721949D01*
X100443582Y-70533982D01*
X100408605Y-70410978D01*
X100358543Y-70326847D01*
X100316667Y-70280667D01*
X100055426Y-70139163D01*
X99808667Y-70111334D01*
X99591892Y-70103118D01*
X99495569Y-70046254D01*
X99470814Y-69892413D01*
X99470000Y-69776503D01*
X99482502Y-69557588D01*
X99547881Y-69450309D01*
X99707945Y-69397332D01*
X99752852Y-69388610D01*
X100111339Y-69380582D01*
X100481594Y-69466113D01*
G37*
G36*
X100570667Y-77223334D02*
G01*
X98832281Y-77223334D01*
X98155978Y-77226845D01*
X97627393Y-77240389D01*
X97224999Y-77268482D01*
X96927270Y-77315640D01*
X96712681Y-77386380D01*
X96559705Y-77485217D01*
X96446817Y-77616668D01*
X96375865Y-77738685D01*
X96274157Y-78070943D01*
X96273871Y-78430226D01*
X96324190Y-78714465D01*
X96425703Y-78941143D01*
X96595041Y-79116102D01*
X96848832Y-79245184D01*
X97203705Y-79334231D01*
X97676291Y-79389087D01*
X98283218Y-79415593D01*
X99041115Y-79419591D01*
X99089000Y-79419263D01*
X100528333Y-79408671D01*
X100553725Y-79882335D01*
X100579117Y-80356000D01*
X98854592Y-80356000D01*
X98138094Y-80351373D01*
X97567648Y-80334354D01*
X97120149Y-80300238D01*
X96772489Y-80244320D01*
X96501563Y-80161893D01*
X96284264Y-80048252D01*
X96097486Y-79898693D01*
X95971382Y-79768842D01*
X95774789Y-79506837D01*
X95622336Y-79225727D01*
X95581440Y-79113159D01*
X95517160Y-78735648D01*
X95498173Y-78281633D01*
X95523006Y-77824464D01*
X95590184Y-77437487D01*
X95616860Y-77350334D01*
X95816634Y-76993997D01*
X96131854Y-76665939D01*
X96509663Y-76413084D01*
X96797548Y-76302205D01*
X97010129Y-76270708D01*
X97361801Y-76244100D01*
X97822360Y-76223761D01*
X98361602Y-76211073D01*
X98872492Y-76207334D01*
X100570667Y-76207334D01*
X100570667Y-77223334D01*
G37*
G36*
X95709563Y-82922901D02*
G01*
X95954447Y-82999020D01*
X96317644Y-83117476D01*
X96778427Y-83271392D01*
X97316065Y-83453888D01*
X97670833Y-83575894D01*
X97909831Y-83658087D01*
X98122555Y-83731841D01*
X100528333Y-84567683D01*
X100528333Y-85795462D01*
X98115333Y-86671961D01*
X97507817Y-86891427D01*
X96949172Y-87090927D01*
X96459906Y-87263320D01*
X96060527Y-87401466D01*
X95771542Y-87498223D01*
X95613458Y-87546450D01*
X95592275Y-87550563D01*
X95528117Y-87499892D01*
X95502423Y-87328220D01*
X95507608Y-87068548D01*
X95533000Y-86584429D01*
X96189167Y-86337849D01*
X96845333Y-86091269D01*
X96845333Y-85182000D01*
X97607333Y-85182000D01*
X97612098Y-85496568D01*
X97624760Y-85733439D01*
X97642870Y-85852542D01*
X97648719Y-85859334D01*
X97739922Y-85833379D01*
X97959736Y-85762421D01*
X98276743Y-85656817D01*
X98659526Y-85526924D01*
X98723681Y-85504954D01*
X99757257Y-85150575D01*
X98745795Y-84829450D01*
X98356006Y-84707084D01*
X98025347Y-84605891D01*
X97786882Y-84535803D01*
X97673675Y-84506755D01*
X97670833Y-84506495D01*
X97641352Y-84583573D01*
X97619149Y-84790028D01*
X97607975Y-85085941D01*
X97607333Y-85182000D01*
X96845333Y-85182000D01*
X96845333Y-84264672D01*
X96443167Y-84116949D01*
X96042273Y-83969835D01*
X95772879Y-83863236D01*
X95608979Y-83775491D01*
X95524567Y-83684943D01*
X95493636Y-83569931D01*
X95490181Y-83408796D01*
X95490667Y-83323654D01*
X95507632Y-83043242D01*
X95561609Y-82911546D01*
X95603722Y-82896000D01*
X95709563Y-82922901D01*
G37*
G36*
X97047519Y-66199478D02*
G01*
X97590812Y-66482943D01*
X97846471Y-66685049D01*
X98285383Y-67165205D01*
X98565227Y-67681246D01*
X98695551Y-68253503D01*
X98708000Y-68519291D01*
X98708000Y-69095334D01*
X97946000Y-69095334D01*
X97946000Y-68626947D01*
X97871759Y-68051899D01*
X97656404Y-67551457D01*
X97310988Y-67145075D01*
X96972333Y-66913245D01*
X96587423Y-66787704D01*
X96142413Y-66765197D01*
X95681496Y-66834680D01*
X95248865Y-66985109D01*
X94888713Y-67205439D01*
X94645231Y-67484627D01*
X94638779Y-67496423D01*
X94610807Y-67573964D01*
X94669762Y-67573462D01*
X94844102Y-67492493D01*
X94876190Y-67476204D01*
X95329758Y-67334635D01*
X95807921Y-67340227D01*
X96273384Y-67482522D01*
X96688855Y-67751062D01*
X96969653Y-68063258D01*
X97119418Y-68308253D01*
X97196431Y-68538350D01*
X97223168Y-68832159D01*
X97224786Y-68955645D01*
X97193534Y-69400708D01*
X97090274Y-69703336D01*
X96905341Y-69878535D01*
X96629068Y-69941310D01*
X96589382Y-69942000D01*
X96353673Y-69927577D01*
X96269007Y-69868355D01*
X96318381Y-69740411D01*
X96382360Y-69650651D01*
X96470125Y-69429938D01*
X96502913Y-69120673D01*
X96481296Y-68794266D01*
X96405850Y-68522127D01*
X96372799Y-68461734D01*
X96141617Y-68242962D01*
X95815933Y-68093918D01*
X95463974Y-68037487D01*
X95213718Y-68072936D01*
X94869590Y-68254604D01*
X94622464Y-68547047D01*
X94466552Y-68962068D01*
X94396062Y-69511475D01*
X94390472Y-69751500D01*
X94390000Y-70280667D01*
X93712667Y-70280667D01*
X93712667Y-69102731D01*
X93713939Y-68632471D01*
X93721880Y-68293174D01*
X93742676Y-68046468D01*
X93782511Y-67853982D01*
X93847571Y-67677346D01*
X93944043Y-67478190D01*
X93988437Y-67392078D01*
X94344728Y-66872623D01*
X94797019Y-66475107D01*
X95319376Y-66204282D01*
X95885867Y-66064900D01*
X96470559Y-66061715D01*
X97047519Y-66199478D01*
G37*
D11*
%TO.C,R11*%
X116300000Y-110046000D02*
X117070000Y-110046000D01*
X117070000Y-108676000D02*
X117070000Y-111416000D01*
X117070000Y-111416000D02*
X123610000Y-111416000D01*
X123610000Y-108676000D02*
X117070000Y-108676000D01*
X123610000Y-111416000D02*
X123610000Y-108676000D01*
X124380000Y-110046000D02*
X123610000Y-110046000D01*
%TO.C,Q3*%
X128730000Y-95700000D02*
X128730000Y-99300000D01*
X128738259Y-95688125D02*
G75*
G02*
X133030000Y-96680000I1841741J-1811875D01*
G01*
X133030000Y-98280000D02*
G75*
G02*
X128752316Y-99308445I-2450000J780000D01*
G01*
%TD*%
M02*
