M48
; DRILL file {KiCad 8.0.4} date 2024-09-02T12:40:42+0200
; FORMAT={-:-/ absolute / metric / decimal}
; #@! TF.CreationDate,2024-09-02T12:40:42+02:00
; #@! TF.GenerationSoftware,Kicad,Pcbnew,8.0.4
; #@! TF.FileFunction,Plated,1,2,PTH
FMAT,2
METRIC
; #@! TA.AperFunction,Plated,PTH,ViaDrill
T1C0.650
; #@! TA.AperFunction,Plated,PTH,ComponentDrill
T2C0.750
; #@! TA.AperFunction,Plated,PTH,ComponentDrill
T3C0.760
; #@! TA.AperFunction,Plated,PTH,ComponentDrill
T4C0.800
; #@! TA.AperFunction,Plated,PTH,ComponentDrill
T5C1.000
; #@! TA.AperFunction,Plated,PTH,ComponentDrill
T6C3.200
%
G90
G05
T1
X115.8Y-81.9
X118.2Y-81.8
X119.5Y-88.1
X122.28Y-100.72
X124.6Y-119.9
X127.7Y-80.6
X141.2Y-86.8
X144.4Y-111.9
X151.6Y-119.0
X152.4Y-82.3
X154.0Y-118.5
X156.4Y-118.4
X162.4Y-87.8
T2
X130.58Y-83.682
X130.58Y-86.222
X130.58Y-89.956
X130.58Y-92.496
X130.58Y-96.23
X130.58Y-98.77
X130.58Y-102.504
X130.58Y-105.044
X130.58Y-108.778
X130.58Y-111.318
X130.58Y-115.052
X130.58Y-117.592
X131.85Y-84.952
X131.85Y-91.226
X131.85Y-97.5
X131.85Y-103.774
X131.85Y-110.048
X131.85Y-116.322
T3
X107.2Y-94.917
X107.2Y-97.457
X107.2Y-99.998
X107.2Y-102.537
X109.74Y-96.188
X109.74Y-98.727
X109.74Y-101.267
X109.74Y-103.807
T4
X115.26Y-84.926
X115.26Y-91.206
X115.26Y-97.486
X115.26Y-103.766
X115.26Y-110.046
X115.26Y-116.326
X125.42Y-84.926
X125.42Y-91.206
X125.42Y-97.486
X125.42Y-103.766
X125.42Y-110.046
X125.42Y-116.326
X138.76Y-83.726
X138.76Y-90.006
X138.76Y-96.286
X138.76Y-102.566
X138.76Y-108.846
X138.76Y-115.126
X148.92Y-83.726
X148.92Y-90.006
X148.92Y-96.286
X148.92Y-102.566
X148.92Y-108.846
X148.92Y-115.126
T5
X113.95Y-122.27
X113.97Y-78.53
X115.335Y-125.11
X115.355Y-75.69
X116.72Y-122.27
X116.74Y-78.53
X118.105Y-125.11
X118.125Y-75.69
X119.49Y-122.27
X119.51Y-78.53
X120.875Y-125.11
X120.895Y-75.69
X122.26Y-122.27
X122.28Y-78.53
X123.645Y-125.11
X123.665Y-75.69
X125.03Y-122.27
X125.05Y-78.53
X146.05Y-122.27
X146.07Y-78.53
X147.435Y-125.11
X147.455Y-75.69
X148.82Y-122.27
X148.84Y-78.53
X150.205Y-125.11
X150.225Y-75.69
X151.59Y-122.27
X151.61Y-78.53
X152.975Y-125.11
X152.995Y-75.69
X154.36Y-122.27
X154.38Y-78.53
X155.745Y-125.11
X155.765Y-75.69
X156.932Y-112.6
X157.13Y-122.27
X157.15Y-78.53
X161.932Y-112.6
T6
X106.99Y-123.69
X107.01Y-77.11
X131.99Y-123.69
X132.01Y-77.11
X139.09Y-123.69
X139.11Y-77.11
X164.09Y-123.69
X164.11Y-77.11
T5
G00X159.55Y-102.15
M15
G01X159.55Y-99.55
M16
G05
G00X161.35Y-96.05
M15
G01X163.55Y-96.05
M16
G05
G00X165.85Y-101.95
M15
G01X165.85Y-99.75
M16
G05
M30
