%TF.GenerationSoftware,KiCad,Pcbnew,(6.0.4)*%
%TF.CreationDate,2024-03-20T13:54:59+01:00*%
%TF.ProjectId,Big7segDisplayDrv,42696737-7365-4674-9469-73706c617944,rev?*%
%TF.SameCoordinates,Original*%
%TF.FileFunction,Soldermask,Top*%
%TF.FilePolarity,Negative*%
%FSLAX46Y46*%
G04 Gerber Fmt 4.6, Leading zero omitted, Abs format (unit mm)*
G04 Created by KiCad (PCBNEW (6.0.4)) date 2024-03-20 13:54:59*
%MOMM*%
%LPD*%
G01*
G04 APERTURE LIST*
%ADD10C,4.000000*%
%ADD11R,1.600000X1.600000*%
%ADD12C,1.600000*%
%ADD13R,1.500000X1.050000*%
%ADD14O,1.500000X1.050000*%
%ADD15R,2.000000X4.600000*%
%ADD16O,2.000000X4.200000*%
%ADD17O,4.200000X2.000000*%
%ADD18R,2.000000X2.000000*%
%ADD19C,2.000000*%
%ADD20O,1.600000X1.600000*%
%ADD21R,3.000000X3.000000*%
%ADD22C,3.000000*%
G04 APERTURE END LIST*
D10*
%TO.C,J6*%
X107010000Y-77110331D03*
X132010000Y-77110331D03*
D11*
X125050000Y-78530331D03*
D12*
X122280000Y-78530331D03*
X119510000Y-78530331D03*
X116740000Y-78530331D03*
X113970000Y-78530331D03*
X123665000Y-75690331D03*
X120895000Y-75690331D03*
X118125000Y-75690331D03*
X115355000Y-75690331D03*
%TD*%
D13*
%TO.C,Q1*%
X131940000Y-83656000D03*
D14*
X131940000Y-84926000D03*
X131940000Y-86196000D03*
%TD*%
D10*
%TO.C,J7*%
X164110000Y-77110331D03*
X139110000Y-77110331D03*
D11*
X157150000Y-78530331D03*
D12*
X154380000Y-78530331D03*
X151610000Y-78530331D03*
X148840000Y-78530331D03*
X146070000Y-78530331D03*
X155765000Y-75690331D03*
X152995000Y-75690331D03*
X150225000Y-75690331D03*
X147455000Y-75690331D03*
%TD*%
D15*
%TO.C,J10*%
X152850000Y-100350000D03*
D16*
X159150000Y-100350000D03*
D17*
X155750000Y-95550000D03*
%TD*%
D13*
%TO.C,Q5*%
X131940000Y-108752000D03*
D14*
X131940000Y-110022000D03*
X131940000Y-111292000D03*
%TD*%
D18*
%TO.C,C1*%
X156932323Y-112600000D03*
D19*
X161932323Y-112600000D03*
%TD*%
D12*
%TO.C,R3*%
X138760000Y-96286000D03*
D20*
X148920000Y-96286000D03*
%TD*%
D21*
%TO.C,J2*%
X107800000Y-95660000D03*
D22*
X107800000Y-100740000D03*
%TD*%
D13*
%TO.C,Q2*%
X131940000Y-89930000D03*
D14*
X131940000Y-91200000D03*
X131940000Y-92470000D03*
%TD*%
D13*
%TO.C,Q4*%
X131940000Y-102478000D03*
D14*
X131940000Y-103748000D03*
X131940000Y-105018000D03*
%TD*%
D12*
%TO.C,R9*%
X125420000Y-97486000D03*
D20*
X115260000Y-97486000D03*
%TD*%
D12*
%TO.C,R1*%
X138760000Y-83726000D03*
D20*
X148920000Y-83726000D03*
%TD*%
D12*
%TO.C,R2*%
X138760000Y-90006000D03*
D20*
X148920000Y-90006000D03*
%TD*%
D10*
%TO.C,J4*%
X131990000Y-123689669D03*
X106990000Y-123689669D03*
D11*
X113950000Y-122269669D03*
D12*
X116720000Y-122269669D03*
X119490000Y-122269669D03*
X122260000Y-122269669D03*
X125030000Y-122269669D03*
X115335000Y-125109669D03*
X118105000Y-125109669D03*
X120875000Y-125109669D03*
X123645000Y-125109669D03*
%TD*%
%TO.C,R8*%
X125420000Y-91206000D03*
D20*
X115260000Y-91206000D03*
%TD*%
D12*
%TO.C,R4*%
X138760000Y-102566000D03*
D20*
X148920000Y-102566000D03*
%TD*%
D13*
%TO.C,Q6*%
X131940000Y-115026000D03*
D14*
X131940000Y-116296000D03*
X131940000Y-117566000D03*
%TD*%
D12*
%TO.C,R10*%
X125420000Y-103766000D03*
D20*
X115260000Y-103766000D03*
%TD*%
D12*
%TO.C,R12*%
X125420000Y-116326000D03*
D20*
X115260000Y-116326000D03*
%TD*%
D12*
%TO.C,R7*%
X125420000Y-84926000D03*
D20*
X115260000Y-84926000D03*
%TD*%
D10*
%TO.C,J5*%
X164090000Y-123689669D03*
X139090000Y-123689669D03*
D11*
X146050000Y-122269669D03*
D12*
X148820000Y-122269669D03*
X151590000Y-122269669D03*
X154360000Y-122269669D03*
X157130000Y-122269669D03*
X147435000Y-125109669D03*
X150205000Y-125109669D03*
X152975000Y-125109669D03*
X155745000Y-125109669D03*
%TD*%
%TO.C,R6*%
X138760000Y-115126000D03*
D20*
X148920000Y-115126000D03*
%TD*%
D12*
%TO.C,R5*%
X138760000Y-108846000D03*
D20*
X148920000Y-108846000D03*
%TD*%
D12*
%TO.C,R11*%
X125420000Y-110046000D03*
D20*
X115260000Y-110046000D03*
%TD*%
D13*
%TO.C,Q3*%
X131940000Y-96204000D03*
D14*
X131940000Y-97474000D03*
X131940000Y-98744000D03*
%TD*%
D21*
%TO.C,J1*%
X107800000Y-84960000D03*
D22*
X107800000Y-90040000D03*
%TD*%
D21*
%TO.C,J3*%
X107800000Y-106420000D03*
D22*
X107800000Y-111500000D03*
X107800000Y-116580000D03*
%TD*%
M02*
