%TF.GenerationSoftware,KiCad,Pcbnew,(6.0.4)*%
%TF.CreationDate,2024-03-21T15:28:48+01:00*%
%TF.ProjectId,Big7segDisplayDrv,42696737-7365-4674-9469-73706c617944,rev?*%
%TF.SameCoordinates,Original*%
%TF.FileFunction,Soldermask,Top*%
%TF.FilePolarity,Negative*%
%FSLAX46Y46*%
G04 Gerber Fmt 4.6, Leading zero omitted, Abs format (unit mm)*
G04 Created by KiCad (PCBNEW (6.0.4)) date 2024-03-21 15:28:48*
%MOMM*%
%LPD*%
G01*
G04 APERTURE LIST*
G04 Aperture macros list*
%AMRoundRect*
0 Rectangle with rounded corners*
0 $1 Rounding radius*
0 $2 $3 $4 $5 $6 $7 $8 $9 X,Y pos of 4 corners*
0 Add a 4 corners polygon primitive as box body*
4,1,4,$2,$3,$4,$5,$6,$7,$8,$9,$2,$3,0*
0 Add four circle primitives for the rounded corners*
1,1,$1+$1,$2,$3*
1,1,$1+$1,$4,$5*
1,1,$1+$1,$6,$7*
1,1,$1+$1,$8,$9*
0 Add four rect primitives between the rounded corners*
20,1,$1+$1,$2,$3,$4,$5,0*
20,1,$1+$1,$4,$5,$6,$7,0*
20,1,$1+$1,$6,$7,$8,$9,0*
20,1,$1+$1,$8,$9,$2,$3,0*%
G04 Aperture macros list end*
%ADD10C,3.200000*%
%ADD11C,4.000000*%
%ADD12R,1.600000X1.600000*%
%ADD13C,1.600000*%
%ADD14R,1.800000X1.100000*%
%ADD15RoundRect,0.275000X-0.625000X0.275000X-0.625000X-0.275000X0.625000X-0.275000X0.625000X0.275000X0*%
%ADD16R,2.000000X4.600000*%
%ADD17O,2.000000X4.200000*%
%ADD18O,4.200000X2.000000*%
%ADD19R,2.000000X2.000000*%
%ADD20C,2.000000*%
%ADD21O,1.600000X1.600000*%
%ADD22R,3.000000X3.000000*%
%ADD23C,3.000000*%
G04 APERTURE END LIST*
%TO.C,G\u002A\u002A\u002A*%
G36*
X155154000Y-93013334D02*
G01*
X150412667Y-93013334D01*
X150412667Y-92166667D01*
X155154000Y-92166667D01*
X155154000Y-93013334D01*
G37*
G36*
X157181594Y-89066113D02*
G01*
X157491187Y-89224768D01*
X157585632Y-89308215D01*
X157717333Y-89484337D01*
X157814476Y-89703985D01*
X157880813Y-89991743D01*
X157920094Y-90372192D01*
X157936071Y-90869918D01*
X157932495Y-91509502D01*
X157931359Y-91574000D01*
X157905667Y-92971000D01*
X157545833Y-92997035D01*
X157186000Y-93023070D01*
X157186000Y-91536535D01*
X157184683Y-90997136D01*
X157178953Y-90600971D01*
X157166142Y-90321949D01*
X157143582Y-90133982D01*
X157108605Y-90010978D01*
X157058543Y-89926847D01*
X157016667Y-89880667D01*
X156755426Y-89739163D01*
X156508667Y-89711334D01*
X156291892Y-89703118D01*
X156195569Y-89646254D01*
X156170814Y-89492413D01*
X156170000Y-89376503D01*
X156182502Y-89157588D01*
X156247881Y-89050309D01*
X156407945Y-88997332D01*
X156452852Y-88988610D01*
X156811339Y-88980582D01*
X157181594Y-89066113D01*
G37*
G36*
X153494851Y-100901312D02*
G01*
X154006546Y-100906053D01*
X154046818Y-100906607D01*
X155686312Y-100929667D01*
X155686305Y-101353000D01*
X155686298Y-101776334D01*
X153938482Y-101799218D01*
X152190667Y-101822102D01*
X152190667Y-101394394D01*
X152212293Y-101102308D01*
X152273257Y-100943315D01*
X152298996Y-100925116D01*
X152414182Y-100913345D01*
X152670600Y-100905255D01*
X153040179Y-100901146D01*
X153494851Y-100901312D01*
G37*
G36*
X159387333Y-93013334D02*
G01*
X158710000Y-93013334D01*
X158710000Y-86409334D01*
X157164833Y-86407807D01*
X155619667Y-86406281D01*
X155339719Y-86069141D01*
X155059772Y-85732000D01*
X159387333Y-85732000D01*
X159387333Y-93013334D01*
G37*
G36*
X153747519Y-85799478D02*
G01*
X154290812Y-86082943D01*
X154546471Y-86285049D01*
X154985383Y-86765205D01*
X155265227Y-87281246D01*
X155395551Y-87853503D01*
X155408000Y-88119291D01*
X155408000Y-88695334D01*
X154646000Y-88695334D01*
X154646000Y-88226947D01*
X154571759Y-87651899D01*
X154356404Y-87151457D01*
X154010988Y-86745075D01*
X153672333Y-86513245D01*
X153287423Y-86387704D01*
X152842413Y-86365197D01*
X152381496Y-86434680D01*
X151948865Y-86585109D01*
X151588713Y-86805439D01*
X151345231Y-87084627D01*
X151338779Y-87096423D01*
X151310807Y-87173964D01*
X151369762Y-87173462D01*
X151544102Y-87092493D01*
X151576190Y-87076204D01*
X152029758Y-86934635D01*
X152507921Y-86940227D01*
X152973384Y-87082522D01*
X153388855Y-87351062D01*
X153669653Y-87663258D01*
X153819418Y-87908253D01*
X153896431Y-88138350D01*
X153923168Y-88432159D01*
X153924786Y-88555645D01*
X153893534Y-89000708D01*
X153790274Y-89303336D01*
X153605341Y-89478535D01*
X153329068Y-89541310D01*
X153289382Y-89542000D01*
X153053673Y-89527577D01*
X152969007Y-89468355D01*
X153018381Y-89340411D01*
X153082360Y-89250651D01*
X153170125Y-89029938D01*
X153202913Y-88720673D01*
X153181296Y-88394266D01*
X153105850Y-88122127D01*
X153072799Y-88061734D01*
X152841617Y-87842962D01*
X152515933Y-87693918D01*
X152163974Y-87637487D01*
X151913718Y-87672936D01*
X151569590Y-87854604D01*
X151322464Y-88147047D01*
X151166552Y-88562068D01*
X151096062Y-89111475D01*
X151090472Y-89351500D01*
X151090000Y-89880667D01*
X150412667Y-89880667D01*
X150412667Y-88702731D01*
X150413939Y-88232471D01*
X150421880Y-87893174D01*
X150442676Y-87646468D01*
X150482511Y-87453982D01*
X150547571Y-87277346D01*
X150644043Y-87078190D01*
X150688437Y-86992078D01*
X151044728Y-86472623D01*
X151497019Y-86075107D01*
X152019376Y-85804282D01*
X152585867Y-85664900D01*
X153170559Y-85661715D01*
X153747519Y-85799478D01*
G37*
G36*
X156311015Y-90572853D02*
G01*
X156551000Y-90600334D01*
X156574491Y-91806834D01*
X156597983Y-93013334D01*
X155831333Y-93013334D01*
X155831333Y-91825343D01*
X155834681Y-91334251D01*
X155846250Y-90988811D01*
X155868330Y-90765445D01*
X155903212Y-90640577D01*
X155951181Y-90591362D01*
X156121336Y-90566277D01*
X156311015Y-90572853D01*
G37*
G36*
X155154000Y-91404667D02*
G01*
X150412667Y-91404667D01*
X150412667Y-90642667D01*
X155154000Y-90642667D01*
X155154000Y-91404667D01*
G37*
G36*
X157270667Y-101818667D02*
G01*
X156339333Y-101818667D01*
X156339333Y-100887334D01*
X157270667Y-100887334D01*
X157270667Y-101818667D01*
G37*
G36*
X154822555Y-103331841D02*
G01*
X157228333Y-104167683D01*
X157228333Y-105395462D01*
X154815333Y-106271961D01*
X154207817Y-106491427D01*
X153649172Y-106690927D01*
X153159906Y-106863320D01*
X152760527Y-107001466D01*
X152471542Y-107098223D01*
X152313458Y-107146450D01*
X152292275Y-107150563D01*
X152228117Y-107099892D01*
X152202423Y-106928220D01*
X152207608Y-106668548D01*
X152233000Y-106184429D01*
X152889167Y-105937849D01*
X153545333Y-105691269D01*
X153545333Y-104782000D01*
X154307333Y-104782000D01*
X154312098Y-105096568D01*
X154324760Y-105333439D01*
X154342870Y-105452542D01*
X154348719Y-105459334D01*
X154439922Y-105433379D01*
X154659736Y-105362421D01*
X154976743Y-105256817D01*
X155359526Y-105126924D01*
X155423681Y-105104954D01*
X156457257Y-104750575D01*
X155445795Y-104429450D01*
X155056006Y-104307084D01*
X154725347Y-104205891D01*
X154486882Y-104135803D01*
X154373675Y-104106755D01*
X154370833Y-104106495D01*
X154341352Y-104183573D01*
X154319149Y-104390028D01*
X154307975Y-104685941D01*
X154307333Y-104782000D01*
X153545333Y-104782000D01*
X153545333Y-103864672D01*
X153143167Y-103716949D01*
X152742273Y-103569835D01*
X152472879Y-103463236D01*
X152308979Y-103375491D01*
X152224567Y-103284943D01*
X152193636Y-103169931D01*
X152190181Y-103008796D01*
X152190667Y-102923654D01*
X152207632Y-102643242D01*
X152261609Y-102511546D01*
X152303722Y-102496000D01*
X152409563Y-102522901D01*
X152654447Y-102599020D01*
X153017644Y-102717476D01*
X153478427Y-102871392D01*
X154016065Y-103053888D01*
X154370833Y-103175894D01*
X154609831Y-103258087D01*
X154822555Y-103331841D01*
G37*
G36*
X157270667Y-96823334D02*
G01*
X155532281Y-96823334D01*
X154855978Y-96826845D01*
X154327393Y-96840389D01*
X153924999Y-96868482D01*
X153627270Y-96915640D01*
X153412681Y-96986380D01*
X153259705Y-97085217D01*
X153146817Y-97216668D01*
X153075865Y-97338685D01*
X152974157Y-97670943D01*
X152973871Y-98030226D01*
X153024190Y-98314465D01*
X153125703Y-98541143D01*
X153295041Y-98716102D01*
X153548832Y-98845184D01*
X153903705Y-98934231D01*
X154376291Y-98989087D01*
X154983218Y-99015593D01*
X155741115Y-99019591D01*
X155789000Y-99019263D01*
X157228333Y-99008671D01*
X157253725Y-99482335D01*
X157279117Y-99956000D01*
X155554592Y-99956000D01*
X154838094Y-99951373D01*
X154267648Y-99934354D01*
X153820149Y-99900238D01*
X153472489Y-99844320D01*
X153201563Y-99761893D01*
X152984264Y-99648252D01*
X152797486Y-99498693D01*
X152671382Y-99368842D01*
X152474789Y-99106837D01*
X152322336Y-98825727D01*
X152281440Y-98713159D01*
X152217160Y-98335648D01*
X152198173Y-97881633D01*
X152223006Y-97424464D01*
X152290184Y-97037487D01*
X152316860Y-96950334D01*
X152516634Y-96593997D01*
X152831854Y-96265939D01*
X153209663Y-96013084D01*
X153497548Y-95902205D01*
X153710129Y-95870708D01*
X154061801Y-95844100D01*
X154522360Y-95823761D01*
X155061602Y-95811073D01*
X155572492Y-95807334D01*
X157270667Y-95807334D01*
X157270667Y-96823334D01*
G37*
%TD*%
D10*
%TO.C,REF\u002A\u002A*%
X100800000Y-131800000D03*
%TD*%
%TO.C,REF\u002A\u002A*%
X100900000Y-68800000D03*
%TD*%
%TO.C,REF\u002A\u002A*%
X169900000Y-131800000D03*
%TD*%
%TO.C,REF\u002A\u002A*%
X169900000Y-68800000D03*
%TD*%
D11*
%TO.C,J6*%
X107010000Y-77110331D03*
X132010000Y-77110331D03*
D12*
X125050000Y-78530331D03*
D13*
X122280000Y-78530331D03*
X119510000Y-78530331D03*
X116740000Y-78530331D03*
X113970000Y-78530331D03*
X123665000Y-75690331D03*
X120895000Y-75690331D03*
X118125000Y-75690331D03*
X115355000Y-75690331D03*
%TD*%
D14*
%TO.C,Q1*%
X130180000Y-83682000D03*
D15*
X132250000Y-84952000D03*
X130180000Y-86222000D03*
%TD*%
D11*
%TO.C,J7*%
X164110000Y-77110331D03*
X139110000Y-77110331D03*
D12*
X157150000Y-78530331D03*
D13*
X154380000Y-78530331D03*
X151610000Y-78530331D03*
X148840000Y-78530331D03*
X146070000Y-78530331D03*
X155765000Y-75690331D03*
X152995000Y-75690331D03*
X150225000Y-75690331D03*
X147455000Y-75690331D03*
%TD*%
D16*
%TO.C,J10*%
X159550000Y-100850000D03*
D17*
X165850000Y-100850000D03*
D18*
X162450000Y-96050000D03*
%TD*%
D14*
%TO.C,Q5*%
X130180000Y-108778000D03*
D15*
X132250000Y-110048000D03*
X130180000Y-111318000D03*
%TD*%
D19*
%TO.C,C1*%
X156932323Y-112600000D03*
D20*
X161932323Y-112600000D03*
%TD*%
D13*
%TO.C,R3*%
X138760000Y-96286000D03*
D21*
X148920000Y-96286000D03*
%TD*%
D22*
%TO.C,J2*%
X101300000Y-95660000D03*
D23*
X101300000Y-100740000D03*
%TD*%
D14*
%TO.C,Q2*%
X130180000Y-89956000D03*
D15*
X132250000Y-91226000D03*
X130180000Y-92496000D03*
%TD*%
D14*
%TO.C,Q4*%
X130180000Y-102504000D03*
D15*
X132250000Y-103774000D03*
X130180000Y-105044000D03*
%TD*%
D13*
%TO.C,R9*%
X125420000Y-97486000D03*
D21*
X115260000Y-97486000D03*
%TD*%
D13*
%TO.C,R1*%
X138760000Y-83726000D03*
D21*
X148920000Y-83726000D03*
%TD*%
D13*
%TO.C,R2*%
X138760000Y-90006000D03*
D21*
X148920000Y-90006000D03*
%TD*%
D11*
%TO.C,J4*%
X131990000Y-123689669D03*
X106990000Y-123689669D03*
D12*
X113950000Y-122269669D03*
D13*
X116720000Y-122269669D03*
X119490000Y-122269669D03*
X122260000Y-122269669D03*
X125030000Y-122269669D03*
X115335000Y-125109669D03*
X118105000Y-125109669D03*
X120875000Y-125109669D03*
X123645000Y-125109669D03*
%TD*%
%TO.C,R8*%
X125420000Y-91206000D03*
D21*
X115260000Y-91206000D03*
%TD*%
D13*
%TO.C,R4*%
X138760000Y-102566000D03*
D21*
X148920000Y-102566000D03*
%TD*%
D14*
%TO.C,Q6*%
X130180000Y-115052000D03*
D15*
X132250000Y-116322000D03*
X130180000Y-117592000D03*
%TD*%
D13*
%TO.C,R10*%
X125420000Y-103766000D03*
D21*
X115260000Y-103766000D03*
%TD*%
D13*
%TO.C,R12*%
X125420000Y-116326000D03*
D21*
X115260000Y-116326000D03*
%TD*%
D13*
%TO.C,R7*%
X125420000Y-84926000D03*
D21*
X115260000Y-84926000D03*
%TD*%
D11*
%TO.C,J5*%
X164090000Y-123689669D03*
X139090000Y-123689669D03*
D12*
X146050000Y-122269669D03*
D13*
X148820000Y-122269669D03*
X151590000Y-122269669D03*
X154360000Y-122269669D03*
X157130000Y-122269669D03*
X147435000Y-125109669D03*
X150205000Y-125109669D03*
X152975000Y-125109669D03*
X155745000Y-125109669D03*
%TD*%
%TO.C,R6*%
X138760000Y-115126000D03*
D21*
X148920000Y-115126000D03*
%TD*%
D13*
%TO.C,R5*%
X138760000Y-108846000D03*
D21*
X148920000Y-108846000D03*
%TD*%
D13*
%TO.C,R11*%
X125420000Y-110046000D03*
D21*
X115260000Y-110046000D03*
%TD*%
D14*
%TO.C,Q3*%
X130180000Y-96230000D03*
D15*
X132250000Y-97500000D03*
X130180000Y-98770000D03*
%TD*%
D22*
%TO.C,J1*%
X101300000Y-84960000D03*
D23*
X101300000Y-90040000D03*
%TD*%
D22*
%TO.C,J3*%
X101300000Y-106420000D03*
D23*
X101300000Y-111500000D03*
X101300000Y-116580000D03*
%TD*%
M02*
