%TF.GenerationSoftware,KiCad,Pcbnew,8.0.1*%
%TF.CreationDate,2024-05-29T15:12:31+02:00*%
%TF.ProjectId,SignalsPort,5369676e-616c-4735-906f-72742e6b6963,rev?*%
%TF.SameCoordinates,Original*%
%TF.FileFunction,Copper,L1,Top*%
%TF.FilePolarity,Positive*%
%FSLAX46Y46*%
G04 Gerber Fmt 4.6, Leading zero omitted, Abs format (unit mm)*
G04 Created by KiCad (PCBNEW 8.0.1) date 2024-05-29 15:12:31*
%MOMM*%
%LPD*%
G01*
G04 APERTURE LIST*
G04 Aperture macros list*
%AMRoundRect*
0 Rectangle with rounded corners*
0 $1 Rounding radius*
0 $2 $3 $4 $5 $6 $7 $8 $9 X,Y pos of 4 corners*
0 Add a 4 corners polygon primitive as box body*
4,1,4,$2,$3,$4,$5,$6,$7,$8,$9,$2,$3,0*
0 Add four circle primitives for the rounded corners*
1,1,$1+$1,$2,$3*
1,1,$1+$1,$4,$5*
1,1,$1+$1,$6,$7*
1,1,$1+$1,$8,$9*
0 Add four rect primitives between the rounded corners*
20,1,$1+$1,$2,$3,$4,$5,0*
20,1,$1+$1,$4,$5,$6,$7,0*
20,1,$1+$1,$6,$7,$8,$9,0*
20,1,$1+$1,$8,$9,$2,$3,0*%
G04 Aperture macros list end*
%TA.AperFunction,SMDPad,CuDef*%
%ADD10RoundRect,0.250001X1.399999X-0.899999X1.399999X0.899999X-1.399999X0.899999X-1.399999X-0.899999X0*%
%TD*%
%TA.AperFunction,SMDPad,CuDef*%
%ADD11RoundRect,0.250000X1.300000X-0.350000X1.300000X0.350000X-1.300000X0.350000X-1.300000X-0.350000X0*%
%TD*%
%TA.AperFunction,ComponentPad*%
%ADD12R,1.700000X1.700000*%
%TD*%
%TA.AperFunction,ComponentPad*%
%ADD13O,1.700000X1.700000*%
%TD*%
%TA.AperFunction,Conductor*%
%ADD14C,1.000000*%
%TD*%
G04 APERTURE END LIST*
D10*
%TO.P,J3,MP*%
%TO.N,GNDREF*%
X151500000Y-98480000D03*
X151500000Y-113520000D03*
D11*
%TO.P,J3,4,Pin_4*%
X145900000Y-103000000D03*
%TO.P,J3,3,Pin_3*%
%TO.N,Net-(J1-Pin_3)*%
X145900000Y-105000000D03*
%TO.P,J3,2,Pin_2*%
%TO.N,+6V*%
X145900000Y-107000000D03*
%TO.P,J3,1,Pin_1*%
%TO.N,Net-(J2-Pin_3)*%
X145900000Y-109000000D03*
%TD*%
D12*
%TO.P,J2,1,Pin_1*%
%TO.N,GNDREF*%
X123175000Y-90575000D03*
D13*
%TO.P,J2,2,Pin_2*%
%TO.N,+6V*%
X125715000Y-90575000D03*
%TO.P,J2,3,Pin_3*%
%TO.N,Net-(J2-Pin_3)*%
X128255000Y-90575000D03*
%TD*%
D12*
%TO.P,J1,1,Pin_1*%
%TO.N,GNDREF*%
X139675000Y-90575000D03*
D13*
%TO.P,J1,2,Pin_2*%
%TO.N,+6V*%
X142215000Y-90575000D03*
%TO.P,J1,3,Pin_3*%
%TO.N,Net-(J1-Pin_3)*%
X144755000Y-90575000D03*
%TD*%
D14*
%TO.N,Net-(J1-Pin_3)*%
X137000000Y-89800000D02*
X137000000Y-99600000D01*
X139000000Y-87800000D02*
X137000000Y-89800000D01*
X143100000Y-87800000D02*
X139000000Y-87800000D01*
X142400000Y-105000000D02*
X145900000Y-105000000D01*
X144755000Y-89455000D02*
X143100000Y-87800000D01*
X144755000Y-90575000D02*
X144755000Y-89455000D01*
X137000000Y-99600000D02*
X142400000Y-105000000D01*
%TO.N,+6V*%
X150100000Y-102200000D02*
X150100000Y-107000000D01*
X144340000Y-96440000D02*
X150100000Y-102200000D01*
X144240000Y-96440000D02*
X144340000Y-96440000D01*
X142215000Y-94415000D02*
X144240000Y-96440000D01*
X142215000Y-90575000D02*
X142215000Y-94415000D01*
%TO.N,GNDREF*%
X139675000Y-99275000D02*
X139675000Y-90575000D01*
X143400000Y-103000000D02*
X139675000Y-99275000D01*
X145900000Y-103000000D02*
X143400000Y-103000000D01*
%TO.N,Net-(J2-Pin_3)*%
X128200000Y-98000000D02*
X139200000Y-109000000D01*
X128200000Y-90630000D02*
X128200000Y-98000000D01*
X128255000Y-90575000D02*
X128200000Y-90630000D01*
X139200000Y-109000000D02*
X145900000Y-109000000D01*
%TO.N,+6V*%
X138700000Y-111400000D02*
X125660000Y-98360000D01*
X150100000Y-109600000D02*
X148300000Y-111400000D01*
X148300000Y-111400000D02*
X138700000Y-111400000D01*
X125660000Y-98360000D02*
X125660000Y-90630000D01*
X125660000Y-90630000D02*
X125715000Y-90575000D01*
X150100000Y-107000000D02*
X150100000Y-109600000D01*
%TO.N,GNDREF*%
X123120000Y-90630000D02*
X123175000Y-90575000D01*
X138840102Y-113520000D02*
X123120000Y-97799898D01*
X151500000Y-113520000D02*
X138840102Y-113520000D01*
X123120000Y-97799898D02*
X123120000Y-90630000D01*
X151500000Y-113520000D02*
X151500000Y-98480000D01*
%TO.N,+6V*%
X145900000Y-107000000D02*
X150100000Y-107000000D01*
%TD*%
%TA.AperFunction,Conductor*%
%TO.N,GNDREF*%
G36*
X138353647Y-86820185D02*
G01*
X138399402Y-86872989D01*
X138409346Y-86942147D01*
X138380321Y-87005703D01*
X138365275Y-87020352D01*
X138362218Y-87022860D01*
X138292540Y-87092539D01*
X138222861Y-87162218D01*
X138222858Y-87162221D01*
X136362221Y-89022858D01*
X136362218Y-89022861D01*
X136301726Y-89083353D01*
X136222859Y-89162219D01*
X136113371Y-89326079D01*
X136113364Y-89326092D01*
X136037950Y-89508160D01*
X136037947Y-89508170D01*
X135999500Y-89701456D01*
X135999500Y-89701459D01*
X135999500Y-99698541D01*
X135999500Y-99698543D01*
X135999499Y-99698543D01*
X136037947Y-99891829D01*
X136037950Y-99891839D01*
X136113364Y-100073907D01*
X136113371Y-100073920D01*
X136222860Y-100237781D01*
X136222863Y-100237785D01*
X136366537Y-100381459D01*
X136366559Y-100381479D01*
X141619735Y-105634655D01*
X141619764Y-105634686D01*
X141762214Y-105777136D01*
X141762218Y-105777139D01*
X141926079Y-105886628D01*
X141926092Y-105886635D01*
X142054833Y-105939961D01*
X142097744Y-105957735D01*
X142108164Y-105962051D01*
X142204812Y-105981275D01*
X142240098Y-105988294D01*
X142301458Y-106000500D01*
X142301459Y-106000500D01*
X142301460Y-106000500D01*
X142498540Y-106000500D01*
X143896659Y-106000500D01*
X143963698Y-106020185D01*
X144009453Y-106072989D01*
X144019397Y-106142147D01*
X144002198Y-106189596D01*
X143915189Y-106330659D01*
X143915186Y-106330666D01*
X143860001Y-106497203D01*
X143860001Y-106497204D01*
X143860000Y-106497204D01*
X143849500Y-106599983D01*
X143849500Y-107400001D01*
X143849501Y-107400019D01*
X143860000Y-107502796D01*
X143860001Y-107502799D01*
X143915185Y-107669331D01*
X143915189Y-107669340D01*
X144002198Y-107810404D01*
X144020638Y-107877796D01*
X143999715Y-107944459D01*
X143946073Y-107989229D01*
X143896659Y-107999500D01*
X139665782Y-107999500D01*
X139598743Y-107979815D01*
X139578101Y-107963181D01*
X129236819Y-97621899D01*
X129203334Y-97560576D01*
X129200500Y-97534218D01*
X129200500Y-91590758D01*
X129220185Y-91523719D01*
X129236819Y-91503077D01*
X129255500Y-91484396D01*
X129293495Y-91446401D01*
X129429035Y-91252830D01*
X129528903Y-91038663D01*
X129590063Y-90810408D01*
X129610659Y-90575000D01*
X129590063Y-90339592D01*
X129528903Y-90111337D01*
X129429035Y-89897171D01*
X129423425Y-89889158D01*
X129293494Y-89703597D01*
X129126402Y-89536506D01*
X129126395Y-89536501D01*
X129115021Y-89528537D01*
X129083447Y-89506428D01*
X128932834Y-89400967D01*
X128932830Y-89400965D01*
X128861727Y-89367809D01*
X128718663Y-89301097D01*
X128718659Y-89301096D01*
X128718655Y-89301094D01*
X128490413Y-89239938D01*
X128490403Y-89239936D01*
X128255001Y-89219341D01*
X128254999Y-89219341D01*
X128019596Y-89239936D01*
X128019586Y-89239938D01*
X127791344Y-89301094D01*
X127791335Y-89301098D01*
X127577171Y-89400964D01*
X127577169Y-89400965D01*
X127383597Y-89536505D01*
X127216505Y-89703597D01*
X127086575Y-89889158D01*
X127031998Y-89932783D01*
X126962500Y-89939977D01*
X126900145Y-89908454D01*
X126883425Y-89889158D01*
X126753494Y-89703597D01*
X126586402Y-89536506D01*
X126586395Y-89536501D01*
X126575021Y-89528537D01*
X126543447Y-89506428D01*
X126392834Y-89400967D01*
X126392830Y-89400965D01*
X126321727Y-89367809D01*
X126178663Y-89301097D01*
X126178659Y-89301096D01*
X126178655Y-89301094D01*
X125950413Y-89239938D01*
X125950403Y-89239936D01*
X125715001Y-89219341D01*
X125714999Y-89219341D01*
X125479596Y-89239936D01*
X125479586Y-89239938D01*
X125251344Y-89301094D01*
X125251335Y-89301098D01*
X125037171Y-89400964D01*
X125037169Y-89400965D01*
X124843600Y-89536503D01*
X124721284Y-89658819D01*
X124659961Y-89692303D01*
X124590269Y-89687319D01*
X124534336Y-89645447D01*
X124517421Y-89614470D01*
X124468354Y-89482913D01*
X124468350Y-89482906D01*
X124382190Y-89367812D01*
X124382187Y-89367809D01*
X124267093Y-89281649D01*
X124267086Y-89281645D01*
X124132379Y-89231403D01*
X124132372Y-89231401D01*
X124072844Y-89225000D01*
X123425000Y-89225000D01*
X123425000Y-90141988D01*
X123367993Y-90109075D01*
X123240826Y-90075000D01*
X123109174Y-90075000D01*
X122982007Y-90109075D01*
X122925000Y-90141988D01*
X122925000Y-89225000D01*
X122277155Y-89225000D01*
X122217627Y-89231401D01*
X122217620Y-89231403D01*
X122082913Y-89281645D01*
X122082906Y-89281649D01*
X121967812Y-89367809D01*
X121967809Y-89367812D01*
X121881649Y-89482906D01*
X121881645Y-89482913D01*
X121831403Y-89617620D01*
X121831401Y-89617627D01*
X121825000Y-89677155D01*
X121825000Y-90325000D01*
X122741988Y-90325000D01*
X122709075Y-90382007D01*
X122675000Y-90509174D01*
X122675000Y-90640826D01*
X122709075Y-90767993D01*
X122741988Y-90825000D01*
X121825000Y-90825000D01*
X121825000Y-91472844D01*
X121831401Y-91532372D01*
X121831403Y-91532379D01*
X121881645Y-91667086D01*
X121881649Y-91667093D01*
X121967809Y-91782187D01*
X121967812Y-91782190D01*
X122082906Y-91868350D01*
X122082913Y-91868354D01*
X122217620Y-91918596D01*
X122217627Y-91918598D01*
X122277155Y-91924999D01*
X122277172Y-91925000D01*
X122925000Y-91925000D01*
X122925000Y-91008012D01*
X122982007Y-91040925D01*
X123109174Y-91075000D01*
X123240826Y-91075000D01*
X123367993Y-91040925D01*
X123425000Y-91008012D01*
X123425000Y-91925000D01*
X124072828Y-91925000D01*
X124072844Y-91924999D01*
X124132372Y-91918598D01*
X124132379Y-91918596D01*
X124267086Y-91868354D01*
X124267093Y-91868350D01*
X124382186Y-91782190D01*
X124436233Y-91709995D01*
X124492167Y-91668124D01*
X124561859Y-91663140D01*
X124623182Y-91696625D01*
X124656666Y-91757949D01*
X124659500Y-91784306D01*
X124659500Y-98458544D01*
X124695152Y-98637779D01*
X124697948Y-98651834D01*
X124697949Y-98651838D01*
X124773364Y-98833907D01*
X124773371Y-98833920D01*
X124882860Y-98997781D01*
X124882863Y-98997785D01*
X125026537Y-99141459D01*
X125026559Y-99141479D01*
X137919735Y-112034655D01*
X137919764Y-112034686D01*
X138062214Y-112177136D01*
X138062218Y-112177139D01*
X138226079Y-112286628D01*
X138226092Y-112286635D01*
X138354833Y-112339961D01*
X138397744Y-112357735D01*
X138408164Y-112362051D01*
X138504812Y-112381275D01*
X138553135Y-112390887D01*
X138601458Y-112400500D01*
X138601459Y-112400500D01*
X148398542Y-112400500D01*
X148417870Y-112396655D01*
X148495188Y-112381275D01*
X148591836Y-112362051D01*
X148645165Y-112339961D01*
X148773914Y-112286632D01*
X148937782Y-112177139D01*
X149077139Y-112037782D01*
X149077139Y-112037780D01*
X149087347Y-112027573D01*
X149087348Y-112027570D01*
X150877139Y-110237782D01*
X150986631Y-110073915D01*
X150986632Y-110073914D01*
X151062051Y-109891835D01*
X151100500Y-109698541D01*
X151100500Y-106901459D01*
X151100500Y-102101459D01*
X151100500Y-102101456D01*
X151062052Y-101908170D01*
X151062051Y-101908169D01*
X151062051Y-101908165D01*
X151058669Y-101900000D01*
X150986635Y-101726092D01*
X150986628Y-101726079D01*
X150877139Y-101562218D01*
X150877136Y-101562214D01*
X150734686Y-101419764D01*
X150734655Y-101419735D01*
X149482995Y-100168075D01*
X149449510Y-100106752D01*
X149454494Y-100037060D01*
X149491559Y-99987547D01*
X149449019Y-100023052D01*
X149379689Y-100031713D01*
X149316681Y-100001517D01*
X149311924Y-99997004D01*
X148044920Y-98730000D01*
X149350000Y-98730000D01*
X149350000Y-99429985D01*
X149360493Y-99532689D01*
X149360494Y-99532696D01*
X149415641Y-99699118D01*
X149415643Y-99699123D01*
X149505144Y-99844226D01*
X149523584Y-99911619D01*
X149502661Y-99978282D01*
X149501584Y-99979180D01*
X149561830Y-99956710D01*
X149630103Y-99971562D01*
X149635773Y-99974855D01*
X149780876Y-100064356D01*
X149780881Y-100064358D01*
X149947303Y-100119505D01*
X149947310Y-100119506D01*
X150050014Y-100129999D01*
X150050027Y-100130000D01*
X151250000Y-100130000D01*
X151250000Y-98730000D01*
X149350000Y-98730000D01*
X148044920Y-98730000D01*
X147544920Y-98230000D01*
X149350000Y-98230000D01*
X151250000Y-98230000D01*
X151250000Y-96830000D01*
X150050014Y-96830000D01*
X149947310Y-96840493D01*
X149947303Y-96840494D01*
X149780881Y-96895641D01*
X149780876Y-96895643D01*
X149631655Y-96987684D01*
X149507684Y-97111655D01*
X149415643Y-97260876D01*
X149415641Y-97260881D01*
X149360494Y-97427303D01*
X149360493Y-97427310D01*
X149350000Y-97530014D01*
X149350000Y-98230000D01*
X147544920Y-98230000D01*
X145121479Y-95806559D01*
X145121459Y-95806537D01*
X144977785Y-95662863D01*
X144977781Y-95662860D01*
X144813920Y-95553371D01*
X144813910Y-95553366D01*
X144758813Y-95530544D01*
X144718585Y-95503664D01*
X143251819Y-94036898D01*
X143218334Y-93975575D01*
X143215500Y-93949217D01*
X143215500Y-91535758D01*
X143235185Y-91468719D01*
X143251819Y-91448077D01*
X143253495Y-91446401D01*
X143383426Y-91260841D01*
X143438002Y-91217217D01*
X143507500Y-91210023D01*
X143569855Y-91241546D01*
X143586575Y-91260842D01*
X143716500Y-91446395D01*
X143716505Y-91446401D01*
X143883599Y-91613495D01*
X143960135Y-91667086D01*
X144077165Y-91749032D01*
X144077167Y-91749033D01*
X144077170Y-91749035D01*
X144291337Y-91848903D01*
X144519592Y-91910063D01*
X144690319Y-91925000D01*
X144754999Y-91930659D01*
X144755000Y-91930659D01*
X144755001Y-91930659D01*
X144819681Y-91925000D01*
X144990408Y-91910063D01*
X145218663Y-91848903D01*
X145432830Y-91749035D01*
X145626401Y-91613495D01*
X145793495Y-91446401D01*
X145929035Y-91252830D01*
X146028903Y-91038663D01*
X146090063Y-90810408D01*
X146110659Y-90575000D01*
X146090063Y-90339592D01*
X146028903Y-90111337D01*
X145940281Y-89921288D01*
X148749500Y-89921288D01*
X148774998Y-90114972D01*
X148781162Y-90161789D01*
X148788529Y-90189282D01*
X148843947Y-90396104D01*
X148936773Y-90620205D01*
X148936776Y-90620212D01*
X149058064Y-90830289D01*
X149058066Y-90830292D01*
X149058067Y-90830293D01*
X149205733Y-91022736D01*
X149205739Y-91022743D01*
X149377256Y-91194260D01*
X149377263Y-91194266D01*
X149453591Y-91252834D01*
X149569711Y-91341936D01*
X149779788Y-91463224D01*
X150003900Y-91556054D01*
X150238211Y-91618838D01*
X150418586Y-91642584D01*
X150478711Y-91650500D01*
X150478712Y-91650500D01*
X150721289Y-91650500D01*
X150769388Y-91644167D01*
X150961789Y-91618838D01*
X151196100Y-91556054D01*
X151420212Y-91463224D01*
X151630289Y-91341936D01*
X151822738Y-91194265D01*
X151994265Y-91022738D01*
X152141936Y-90830289D01*
X152263224Y-90620212D01*
X152356054Y-90396100D01*
X152418838Y-90161789D01*
X152450500Y-89921288D01*
X152450500Y-89678712D01*
X152418838Y-89438211D01*
X152356054Y-89203900D01*
X152263224Y-88979788D01*
X152141936Y-88769711D01*
X151994265Y-88577262D01*
X151994260Y-88577256D01*
X151822743Y-88405739D01*
X151822736Y-88405733D01*
X151630293Y-88258067D01*
X151630292Y-88258066D01*
X151630289Y-88258064D01*
X151420212Y-88136776D01*
X151420205Y-88136773D01*
X151196104Y-88043947D01*
X150961785Y-87981161D01*
X150721289Y-87949500D01*
X150721288Y-87949500D01*
X150478712Y-87949500D01*
X150478711Y-87949500D01*
X150238214Y-87981161D01*
X150003895Y-88043947D01*
X149779794Y-88136773D01*
X149779785Y-88136777D01*
X149569706Y-88258067D01*
X149377263Y-88405733D01*
X149377256Y-88405739D01*
X149205739Y-88577256D01*
X149205733Y-88577263D01*
X149058067Y-88769706D01*
X148936777Y-88979785D01*
X148936773Y-88979794D01*
X148843947Y-89203895D01*
X148781161Y-89438214D01*
X148749500Y-89678711D01*
X148749500Y-89921288D01*
X145940281Y-89921288D01*
X145929035Y-89897171D01*
X145923425Y-89889158D01*
X145793494Y-89703597D01*
X145791819Y-89701922D01*
X145791315Y-89701000D01*
X145790014Y-89699449D01*
X145790325Y-89699187D01*
X145758334Y-89640599D01*
X145755500Y-89614241D01*
X145755500Y-89356456D01*
X145717051Y-89163166D01*
X145716660Y-89162222D01*
X145716658Y-89162218D01*
X145685811Y-89087745D01*
X145658934Y-89022858D01*
X145641635Y-88981093D01*
X145641634Y-88981092D01*
X145641632Y-88981086D01*
X145545236Y-88836819D01*
X145532140Y-88817219D01*
X145484627Y-88769706D01*
X145392782Y-88677861D01*
X145392781Y-88677860D01*
X143884208Y-87169288D01*
X143884206Y-87169285D01*
X143884206Y-87169286D01*
X143877139Y-87162219D01*
X143877139Y-87162218D01*
X143737782Y-87022861D01*
X143737781Y-87022860D01*
X143734725Y-87020352D01*
X143733554Y-87018633D01*
X143733474Y-87018553D01*
X143733489Y-87018537D01*
X143695392Y-86962605D01*
X143693523Y-86892761D01*
X143729711Y-86832993D01*
X143792468Y-86802278D01*
X143813392Y-86800500D01*
X153475500Y-86800500D01*
X153542539Y-86820185D01*
X153588294Y-86872989D01*
X153599500Y-86924500D01*
X153599500Y-96919478D01*
X153579815Y-96986517D01*
X153527011Y-97032272D01*
X153457853Y-97042216D01*
X153394297Y-97013191D01*
X153387819Y-97007159D01*
X153368344Y-96987684D01*
X153219123Y-96895643D01*
X153219118Y-96895641D01*
X153052696Y-96840494D01*
X153052689Y-96840493D01*
X152949985Y-96830000D01*
X151750000Y-96830000D01*
X151750000Y-100130000D01*
X152949973Y-100130000D01*
X152949985Y-100129999D01*
X153052689Y-100119506D01*
X153052696Y-100119505D01*
X153219118Y-100064358D01*
X153219123Y-100064356D01*
X153368344Y-99972315D01*
X153387819Y-99952841D01*
X153449142Y-99919356D01*
X153518834Y-99924340D01*
X153574767Y-99966212D01*
X153599184Y-100031676D01*
X153599500Y-100040522D01*
X153599500Y-111959478D01*
X153579815Y-112026517D01*
X153527011Y-112072272D01*
X153457853Y-112082216D01*
X153394297Y-112053191D01*
X153387819Y-112047159D01*
X153368344Y-112027684D01*
X153219123Y-111935643D01*
X153219118Y-111935641D01*
X153052696Y-111880494D01*
X153052689Y-111880493D01*
X152949985Y-111870000D01*
X151750000Y-111870000D01*
X151750000Y-115170000D01*
X152949973Y-115170000D01*
X152949985Y-115169999D01*
X153052689Y-115159506D01*
X153052696Y-115159505D01*
X153219118Y-115104358D01*
X153219123Y-115104356D01*
X153368344Y-115012315D01*
X153387819Y-114992841D01*
X153449142Y-114959356D01*
X153518834Y-114964340D01*
X153574767Y-115006212D01*
X153599184Y-115071676D01*
X153599500Y-115080522D01*
X153599500Y-115375500D01*
X153579815Y-115442539D01*
X153527011Y-115488294D01*
X153475500Y-115499500D01*
X116724500Y-115499500D01*
X116657461Y-115479815D01*
X116611706Y-115427011D01*
X116600500Y-115375500D01*
X116600500Y-112621288D01*
X117849500Y-112621288D01*
X117881161Y-112861785D01*
X117943947Y-113096104D01*
X118036773Y-113320205D01*
X118036776Y-113320212D01*
X118158064Y-113530289D01*
X118158066Y-113530292D01*
X118158067Y-113530293D01*
X118305733Y-113722736D01*
X118305739Y-113722743D01*
X118477256Y-113894260D01*
X118477262Y-113894265D01*
X118669711Y-114041936D01*
X118879788Y-114163224D01*
X119103900Y-114256054D01*
X119338211Y-114318838D01*
X119518586Y-114342584D01*
X119578711Y-114350500D01*
X119578712Y-114350500D01*
X119821289Y-114350500D01*
X119869388Y-114344167D01*
X120061789Y-114318838D01*
X120296100Y-114256054D01*
X120520212Y-114163224D01*
X120730289Y-114041936D01*
X120922738Y-113894265D01*
X121047003Y-113770000D01*
X149350000Y-113770000D01*
X149350000Y-114469985D01*
X149360493Y-114572689D01*
X149360494Y-114572696D01*
X149415641Y-114739118D01*
X149415643Y-114739123D01*
X149507684Y-114888344D01*
X149631655Y-115012315D01*
X149780876Y-115104356D01*
X149780881Y-115104358D01*
X149947303Y-115159505D01*
X149947310Y-115159506D01*
X150050014Y-115169999D01*
X150050027Y-115170000D01*
X151250000Y-115170000D01*
X151250000Y-113770000D01*
X149350000Y-113770000D01*
X121047003Y-113770000D01*
X121094265Y-113722738D01*
X121241936Y-113530289D01*
X121363224Y-113320212D01*
X121384022Y-113270000D01*
X149350000Y-113270000D01*
X151250000Y-113270000D01*
X151250000Y-111870000D01*
X150050014Y-111870000D01*
X149947310Y-111880493D01*
X149947303Y-111880494D01*
X149780881Y-111935641D01*
X149780876Y-111935643D01*
X149631655Y-112027684D01*
X149507684Y-112151655D01*
X149415643Y-112300876D01*
X149415641Y-112300881D01*
X149360494Y-112467303D01*
X149360493Y-112467310D01*
X149350000Y-112570014D01*
X149350000Y-113270000D01*
X121384022Y-113270000D01*
X121456054Y-113096100D01*
X121518838Y-112861789D01*
X121550500Y-112621288D01*
X121550500Y-112378712D01*
X121548306Y-112362050D01*
X121542584Y-112318586D01*
X121518838Y-112138211D01*
X121456054Y-111903900D01*
X121363224Y-111679788D01*
X121241936Y-111469711D01*
X121094265Y-111277262D01*
X121094260Y-111277256D01*
X120922743Y-111105739D01*
X120922736Y-111105733D01*
X120730293Y-110958067D01*
X120730292Y-110958066D01*
X120730289Y-110958064D01*
X120520212Y-110836776D01*
X120520205Y-110836773D01*
X120296104Y-110743947D01*
X120061785Y-110681161D01*
X119821289Y-110649500D01*
X119821288Y-110649500D01*
X119578712Y-110649500D01*
X119578711Y-110649500D01*
X119338214Y-110681161D01*
X119103895Y-110743947D01*
X118879794Y-110836773D01*
X118879785Y-110836777D01*
X118669706Y-110958067D01*
X118477263Y-111105733D01*
X118477256Y-111105739D01*
X118305739Y-111277256D01*
X118305733Y-111277263D01*
X118158067Y-111469706D01*
X118036777Y-111679785D01*
X118036773Y-111679794D01*
X117943947Y-111903895D01*
X117881161Y-112138214D01*
X117849500Y-112378711D01*
X117849500Y-112621288D01*
X116600500Y-112621288D01*
X116600500Y-86924500D01*
X116620185Y-86857461D01*
X116672989Y-86811706D01*
X116724500Y-86800500D01*
X138286608Y-86800500D01*
X138353647Y-86820185D01*
G37*
%TD.AperFunction*%
%TA.AperFunction,Conductor*%
G36*
X138244334Y-90073100D02*
G01*
X138300267Y-90114972D01*
X138324684Y-90180436D01*
X138325000Y-90189282D01*
X138325000Y-90325000D01*
X139241988Y-90325000D01*
X139209075Y-90382007D01*
X139175000Y-90509174D01*
X139175000Y-90640826D01*
X139209075Y-90767993D01*
X139241988Y-90825000D01*
X138325000Y-90825000D01*
X138325000Y-91472844D01*
X138331401Y-91532372D01*
X138331403Y-91532379D01*
X138381645Y-91667086D01*
X138381649Y-91667093D01*
X138467809Y-91782187D01*
X138467812Y-91782190D01*
X138582906Y-91868350D01*
X138582913Y-91868354D01*
X138717620Y-91918596D01*
X138717627Y-91918598D01*
X138777155Y-91924999D01*
X138777172Y-91925000D01*
X139425000Y-91925000D01*
X139425000Y-91008012D01*
X139482007Y-91040925D01*
X139609174Y-91075000D01*
X139740826Y-91075000D01*
X139867993Y-91040925D01*
X139925000Y-91008012D01*
X139925000Y-91925000D01*
X140572828Y-91925000D01*
X140572844Y-91924999D01*
X140632372Y-91918598D01*
X140632379Y-91918596D01*
X140767086Y-91868354D01*
X140767093Y-91868350D01*
X140882187Y-91782190D01*
X140882190Y-91782187D01*
X140968350Y-91667093D01*
X140968354Y-91667086D01*
X140974318Y-91651097D01*
X141016189Y-91595163D01*
X141081653Y-91570746D01*
X141149926Y-91585597D01*
X141199332Y-91635002D01*
X141214500Y-91694430D01*
X141214500Y-94513541D01*
X141214500Y-94513543D01*
X141214499Y-94513543D01*
X141252947Y-94706829D01*
X141252950Y-94706839D01*
X141328364Y-94888907D01*
X141328371Y-94888920D01*
X141437859Y-95052780D01*
X141437860Y-95052781D01*
X141437861Y-95052782D01*
X141577218Y-95192139D01*
X141577219Y-95192139D01*
X141584286Y-95199206D01*
X141584285Y-95199206D01*
X141584288Y-95199208D01*
X143462860Y-97077781D01*
X143462861Y-97077782D01*
X143602218Y-97217139D01*
X143602219Y-97217140D01*
X143766079Y-97326628D01*
X143766086Y-97326632D01*
X143821187Y-97349455D01*
X143861415Y-97376335D01*
X149063181Y-102578101D01*
X149096666Y-102639424D01*
X149099500Y-102665782D01*
X149099500Y-105875500D01*
X149079815Y-105942539D01*
X149027011Y-105988294D01*
X148975500Y-105999500D01*
X147903341Y-105999500D01*
X147836302Y-105979815D01*
X147790547Y-105927011D01*
X147780603Y-105857853D01*
X147797802Y-105810404D01*
X147884810Y-105669340D01*
X147884814Y-105669334D01*
X147939999Y-105502797D01*
X147950500Y-105400009D01*
X147950499Y-104599992D01*
X147939999Y-104497203D01*
X147884814Y-104330666D01*
X147792712Y-104181344D01*
X147698695Y-104087327D01*
X147665210Y-104026004D01*
X147670194Y-103956312D01*
X147698695Y-103911964D01*
X147792317Y-103818342D01*
X147884356Y-103669124D01*
X147884358Y-103669119D01*
X147939505Y-103502697D01*
X147939506Y-103502690D01*
X147949999Y-103399986D01*
X147950000Y-103399973D01*
X147950000Y-103250000D01*
X143850001Y-103250000D01*
X143850001Y-103399986D01*
X143860494Y-103502697D01*
X143915641Y-103669119D01*
X143915643Y-103669124D01*
X144002785Y-103810403D01*
X144021225Y-103877796D01*
X144000302Y-103944459D01*
X143946660Y-103989229D01*
X143897246Y-103999500D01*
X142865782Y-103999500D01*
X142798743Y-103979815D01*
X142778101Y-103963181D01*
X141564920Y-102750000D01*
X143850000Y-102750000D01*
X145650000Y-102750000D01*
X145650000Y-101900000D01*
X146150000Y-101900000D01*
X146150000Y-102750000D01*
X147949999Y-102750000D01*
X147949999Y-102600028D01*
X147949998Y-102600013D01*
X147939505Y-102497302D01*
X147884358Y-102330880D01*
X147884356Y-102330875D01*
X147792315Y-102181654D01*
X147668345Y-102057684D01*
X147519124Y-101965643D01*
X147519119Y-101965641D01*
X147352697Y-101910494D01*
X147352690Y-101910493D01*
X147249986Y-101900000D01*
X146150000Y-101900000D01*
X145650000Y-101900000D01*
X144550028Y-101900000D01*
X144550012Y-101900001D01*
X144447302Y-101910494D01*
X144280880Y-101965641D01*
X144280875Y-101965643D01*
X144131654Y-102057684D01*
X144007684Y-102181654D01*
X143915643Y-102330875D01*
X143915641Y-102330880D01*
X143860494Y-102497302D01*
X143860493Y-102497309D01*
X143850000Y-102600013D01*
X143850000Y-102750000D01*
X141564920Y-102750000D01*
X138036819Y-99221899D01*
X138003334Y-99160576D01*
X138000500Y-99134218D01*
X138000500Y-90265782D01*
X138020185Y-90198743D01*
X138036819Y-90178101D01*
X138113319Y-90101601D01*
X138174642Y-90068116D01*
X138244334Y-90073100D01*
G37*
%TD.AperFunction*%
%TA.AperFunction,Conductor*%
G36*
X142701257Y-88820185D02*
G01*
X142721898Y-88836818D01*
X143202252Y-89317173D01*
X143235737Y-89378495D01*
X143230753Y-89448187D01*
X143188881Y-89504120D01*
X143123417Y-89528537D01*
X143055144Y-89513685D01*
X143043448Y-89506428D01*
X142892834Y-89400967D01*
X142892830Y-89400965D01*
X142821727Y-89367809D01*
X142678663Y-89301097D01*
X142678659Y-89301096D01*
X142678655Y-89301094D01*
X142450413Y-89239938D01*
X142450403Y-89239936D01*
X142215001Y-89219341D01*
X142214999Y-89219341D01*
X141979596Y-89239936D01*
X141979586Y-89239938D01*
X141751344Y-89301094D01*
X141751335Y-89301098D01*
X141537171Y-89400964D01*
X141537169Y-89400965D01*
X141343600Y-89536503D01*
X141221284Y-89658819D01*
X141159961Y-89692303D01*
X141090269Y-89687319D01*
X141034336Y-89645447D01*
X141017421Y-89614470D01*
X140968354Y-89482913D01*
X140968350Y-89482906D01*
X140882190Y-89367812D01*
X140882187Y-89367809D01*
X140767093Y-89281649D01*
X140767086Y-89281645D01*
X140632379Y-89231403D01*
X140632372Y-89231401D01*
X140572844Y-89225000D01*
X139925000Y-89225000D01*
X139925000Y-90141988D01*
X139867993Y-90109075D01*
X139740826Y-90075000D01*
X139609174Y-90075000D01*
X139482007Y-90109075D01*
X139425000Y-90141988D01*
X139425000Y-89225000D01*
X139289282Y-89225000D01*
X139222243Y-89205315D01*
X139176488Y-89152511D01*
X139166544Y-89083353D01*
X139195569Y-89019797D01*
X139201601Y-89013319D01*
X139378101Y-88836819D01*
X139439424Y-88803334D01*
X139465782Y-88800500D01*
X142634218Y-88800500D01*
X142701257Y-88820185D01*
G37*
%TD.AperFunction*%
%TD*%
M02*
